<?xml version="1.0" encoding="utf-8"?>
<svg xmlns="http://www.w3.org/2000/svg" xmlns:xlink="http://www.w3.org/1999/xlink" width="600" height="400" viewBox="0 0 2400 1600">
<defs>
  <clipPath id="clip170">
    <rect x="0" y="0" width="2400" height="1600"/>
  </clipPath>
</defs>
<path clip-path="url(#clip170)" d="
M0 1600 L2400 1600 L2400 0 L0 0  Z
  " fill="#ffffff" fill-rule="evenodd" fill-opacity="1"/>
<defs>
  <clipPath id="clip171">
    <rect x="480" y="0" width="1681" height="1600"/>
  </clipPath>
</defs>
<path clip-path="url(#clip170)" d="
M194.615 1439.5 L2352.76 1439.5 L2352.76 47.2441 L194.615 47.2441  Z
  " fill="#ffffff" fill-rule="evenodd" fill-opacity="1"/>
<defs>
  <clipPath id="clip172">
    <rect x="194" y="47" width="2159" height="1393"/>
  </clipPath>
</defs>
<polyline clip-path="url(#clip172)" style="stroke:#000000; stroke-width:2; stroke-opacity:0.1; fill:none" points="
  255.287,1439.5 255.287,47.2441 
  "/>
<polyline clip-path="url(#clip172)" style="stroke:#000000; stroke-width:2; stroke-opacity:0.1; fill:none" points="
  662.565,1439.5 662.565,47.2441 
  "/>
<polyline clip-path="url(#clip172)" style="stroke:#000000; stroke-width:2; stroke-opacity:0.1; fill:none" points="
  1069.84,1439.5 1069.84,47.2441 
  "/>
<polyline clip-path="url(#clip172)" style="stroke:#000000; stroke-width:2; stroke-opacity:0.1; fill:none" points="
  1477.12,1439.5 1477.12,47.2441 
  "/>
<polyline clip-path="url(#clip172)" style="stroke:#000000; stroke-width:2; stroke-opacity:0.1; fill:none" points="
  1884.4,1439.5 1884.4,47.2441 
  "/>
<polyline clip-path="url(#clip172)" style="stroke:#000000; stroke-width:2; stroke-opacity:0.1; fill:none" points="
  2291.68,1439.5 2291.68,47.2441 
  "/>
<polyline clip-path="url(#clip170)" style="stroke:#000000; stroke-width:4; stroke-opacity:1; fill:none" points="
  194.615,1439.5 2352.76,1439.5 
  "/>
<polyline clip-path="url(#clip170)" style="stroke:#000000; stroke-width:4; stroke-opacity:1; fill:none" points="
  255.287,1439.5 255.287,1422.79 
  "/>
<polyline clip-path="url(#clip170)" style="stroke:#000000; stroke-width:4; stroke-opacity:1; fill:none" points="
  662.565,1439.5 662.565,1422.79 
  "/>
<polyline clip-path="url(#clip170)" style="stroke:#000000; stroke-width:4; stroke-opacity:1; fill:none" points="
  1069.84,1439.5 1069.84,1422.79 
  "/>
<polyline clip-path="url(#clip170)" style="stroke:#000000; stroke-width:4; stroke-opacity:1; fill:none" points="
  1477.12,1439.5 1477.12,1422.79 
  "/>
<polyline clip-path="url(#clip170)" style="stroke:#000000; stroke-width:4; stroke-opacity:1; fill:none" points="
  1884.4,1439.5 1884.4,1422.79 
  "/>
<polyline clip-path="url(#clip170)" style="stroke:#000000; stroke-width:4; stroke-opacity:1; fill:none" points="
  2291.68,1439.5 2291.68,1422.79 
  "/>
<path clip-path="url(#clip170)" d="M 0 0 M255.287 1468.69 Q251.676 1468.69 249.847 1472.26 Q248.042 1475.8 248.042 1482.93 Q248.042 1490.04 249.847 1493.6 Q251.676 1497.14 255.287 1497.14 Q258.921 1497.14 260.727 1493.6 Q262.555 1490.04 262.555 1482.93 Q262.555 1475.8 260.727 1472.26 Q258.921 1468.69 255.287 1468.69 M255.287 1464.99 Q261.097 1464.99 264.153 1469.6 Q267.231 1474.18 267.231 1482.93 Q267.231 1491.66 264.153 1496.26 Q261.097 1500.85 255.287 1500.85 Q249.477 1500.85 246.398 1496.26 Q243.342 1491.66 243.342 1482.93 Q243.342 1474.18 246.398 1469.6 Q249.477 1464.99 255.287 1464.99 Z" fill="#000000" fill-rule="evenodd" fill-opacity="1" /><path clip-path="url(#clip170)" d="M 0 0 M622.171 1496.24 L629.81 1496.24 L629.81 1469.87 L621.5 1471.54 L621.5 1467.28 L629.764 1465.61 L634.44 1465.61 L634.44 1496.24 L642.079 1496.24 L642.079 1500.17 L622.171 1500.17 L622.171 1496.24 Z" fill="#000000" fill-rule="evenodd" fill-opacity="1" /><path clip-path="url(#clip170)" d="M 0 0 M661.523 1468.69 Q657.912 1468.69 656.083 1472.26 Q654.278 1475.8 654.278 1482.93 Q654.278 1490.04 656.083 1493.6 Q657.912 1497.14 661.523 1497.14 Q665.157 1497.14 666.963 1493.6 Q668.792 1490.04 668.792 1482.93 Q668.792 1475.8 666.963 1472.26 Q665.157 1468.69 661.523 1468.69 M661.523 1464.99 Q667.333 1464.99 670.389 1469.6 Q673.467 1474.18 673.467 1482.93 Q673.467 1491.66 670.389 1496.26 Q667.333 1500.85 661.523 1500.85 Q655.713 1500.85 652.634 1496.26 Q649.579 1491.66 649.579 1482.93 Q649.579 1474.18 652.634 1469.6 Q655.713 1464.99 661.523 1464.99 Z" fill="#000000" fill-rule="evenodd" fill-opacity="1" /><path clip-path="url(#clip170)" d="M 0 0 M691.685 1468.69 Q688.074 1468.69 686.245 1472.26 Q684.44 1475.8 684.44 1482.93 Q684.44 1490.04 686.245 1493.6 Q688.074 1497.14 691.685 1497.14 Q695.319 1497.14 697.125 1493.6 Q698.953 1490.04 698.953 1482.93 Q698.953 1475.8 697.125 1472.26 Q695.319 1468.69 691.685 1468.69 M691.685 1464.99 Q697.495 1464.99 700.551 1469.6 Q703.629 1474.18 703.629 1482.93 Q703.629 1491.66 700.551 1496.26 Q697.495 1500.85 691.685 1500.85 Q685.875 1500.85 682.796 1496.26 Q679.741 1491.66 679.741 1482.93 Q679.741 1474.18 682.796 1469.6 Q685.875 1464.99 691.685 1464.99 Z" fill="#000000" fill-rule="evenodd" fill-opacity="1" /><path clip-path="url(#clip170)" d="M 0 0 M1033.54 1496.24 L1049.85 1496.24 L1049.85 1500.17 L1027.91 1500.17 L1027.91 1496.24 Q1030.57 1493.48 1035.16 1488.85 Q1039.76 1484.2 1040.94 1482.86 Q1043.19 1480.34 1044.07 1478.6 Q1044.97 1476.84 1044.97 1475.15 Q1044.97 1472.4 1043.03 1470.66 Q1041.1 1468.92 1038 1468.92 Q1035.8 1468.92 1033.35 1469.69 Q1030.92 1470.45 1028.14 1472 L1028.14 1467.28 Q1030.97 1466.15 1033.42 1465.57 Q1035.87 1464.99 1037.91 1464.99 Q1043.28 1464.99 1046.47 1467.67 Q1049.67 1470.36 1049.67 1474.85 Q1049.67 1476.98 1048.86 1478.9 Q1048.07 1480.8 1045.97 1483.39 Q1045.39 1484.06 1042.28 1487.28 Q1039.18 1490.47 1033.54 1496.24 Z" fill="#000000" fill-rule="evenodd" fill-opacity="1" /><path clip-path="url(#clip170)" d="M 0 0 M1069.67 1468.69 Q1066.06 1468.69 1064.23 1472.26 Q1062.42 1475.8 1062.42 1482.93 Q1062.42 1490.04 1064.23 1493.6 Q1066.06 1497.14 1069.67 1497.14 Q1073.3 1497.14 1075.11 1493.6 Q1076.94 1490.04 1076.94 1482.93 Q1076.94 1475.8 1075.11 1472.26 Q1073.3 1468.69 1069.67 1468.69 M1069.67 1464.99 Q1075.48 1464.99 1078.53 1469.6 Q1081.61 1474.18 1081.61 1482.93 Q1081.61 1491.66 1078.53 1496.26 Q1075.48 1500.85 1069.67 1500.85 Q1063.86 1500.85 1060.78 1496.26 Q1057.72 1491.66 1057.72 1482.93 Q1057.72 1474.18 1060.78 1469.6 Q1063.86 1464.99 1069.67 1464.99 Z" fill="#000000" fill-rule="evenodd" fill-opacity="1" /><path clip-path="url(#clip170)" d="M 0 0 M1099.83 1468.69 Q1096.22 1468.69 1094.39 1472.26 Q1092.59 1475.8 1092.59 1482.93 Q1092.59 1490.04 1094.39 1493.6 Q1096.22 1497.14 1099.83 1497.14 Q1103.47 1497.14 1105.27 1493.6 Q1107.1 1490.04 1107.1 1482.93 Q1107.1 1475.8 1105.27 1472.26 Q1103.47 1468.69 1099.83 1468.69 M1099.83 1464.99 Q1105.64 1464.99 1108.7 1469.6 Q1111.78 1474.18 1111.78 1482.93 Q1111.78 1491.66 1108.7 1496.26 Q1105.64 1500.85 1099.83 1500.85 Q1094.02 1500.85 1090.94 1496.26 Q1087.89 1491.66 1087.89 1482.93 Q1087.89 1474.18 1090.94 1469.6 Q1094.02 1464.99 1099.83 1464.99 Z" fill="#000000" fill-rule="evenodd" fill-opacity="1" /><path clip-path="url(#clip170)" d="M 0 0 M1450.88 1481.54 Q1454.24 1482.26 1456.11 1484.53 Q1458.01 1486.79 1458.01 1490.13 Q1458.01 1495.24 1454.49 1498.04 Q1450.97 1500.85 1444.49 1500.85 Q1442.32 1500.85 1440 1500.41 Q1437.71 1499.99 1435.26 1499.13 L1435.26 1494.62 Q1437.2 1495.75 1439.52 1496.33 Q1441.83 1496.91 1444.35 1496.91 Q1448.75 1496.91 1451.04 1495.17 Q1453.36 1493.44 1453.36 1490.13 Q1453.36 1487.07 1451.21 1485.36 Q1449.08 1483.62 1445.26 1483.62 L1441.23 1483.62 L1441.23 1479.78 L1445.44 1479.78 Q1448.89 1479.78 1450.72 1478.41 Q1452.55 1477.03 1452.55 1474.43 Q1452.55 1471.77 1450.65 1470.36 Q1448.78 1468.92 1445.26 1468.92 Q1443.34 1468.92 1441.14 1469.34 Q1438.94 1469.76 1436.3 1470.64 L1436.3 1466.47 Q1438.96 1465.73 1441.28 1465.36 Q1443.61 1464.99 1445.67 1464.99 Q1451 1464.99 1454.1 1467.42 Q1457.2 1469.83 1457.2 1473.95 Q1457.2 1476.82 1455.56 1478.81 Q1453.91 1480.78 1450.88 1481.54 Z" fill="#000000" fill-rule="evenodd" fill-opacity="1" /><path clip-path="url(#clip170)" d="M 0 0 M1476.88 1468.69 Q1473.27 1468.69 1471.44 1472.26 Q1469.63 1475.8 1469.63 1482.93 Q1469.63 1490.04 1471.44 1493.6 Q1473.27 1497.14 1476.88 1497.14 Q1480.51 1497.14 1482.32 1493.6 Q1484.15 1490.04 1484.15 1482.93 Q1484.15 1475.8 1482.32 1472.26 Q1480.51 1468.69 1476.88 1468.69 M1476.88 1464.99 Q1482.69 1464.99 1485.74 1469.6 Q1488.82 1474.18 1488.82 1482.93 Q1488.82 1491.66 1485.74 1496.26 Q1482.69 1500.85 1476.88 1500.85 Q1471.07 1500.85 1467.99 1496.26 Q1464.93 1491.66 1464.93 1482.93 Q1464.93 1474.18 1467.99 1469.6 Q1471.07 1464.99 1476.88 1464.99 Z" fill="#000000" fill-rule="evenodd" fill-opacity="1" /><path clip-path="url(#clip170)" d="M 0 0 M1507.04 1468.69 Q1503.43 1468.69 1501.6 1472.26 Q1499.79 1475.8 1499.79 1482.93 Q1499.79 1490.04 1501.6 1493.6 Q1503.43 1497.14 1507.04 1497.14 Q1510.67 1497.14 1512.48 1493.6 Q1514.31 1490.04 1514.31 1482.93 Q1514.31 1475.8 1512.48 1472.26 Q1510.67 1468.69 1507.04 1468.69 M1507.04 1464.99 Q1512.85 1464.99 1515.91 1469.6 Q1518.98 1474.18 1518.98 1482.93 Q1518.98 1491.66 1515.91 1496.26 Q1512.85 1500.85 1507.04 1500.85 Q1501.23 1500.85 1498.15 1496.26 Q1495.1 1491.66 1495.1 1482.93 Q1495.1 1474.18 1498.15 1469.6 Q1501.23 1464.99 1507.04 1464.99 Z" fill="#000000" fill-rule="evenodd" fill-opacity="1" /><path clip-path="url(#clip170)" d="M 0 0 M1857.49 1469.69 L1845.68 1488.14 L1857.49 1488.14 L1857.49 1469.69 M1856.26 1465.61 L1862.14 1465.61 L1862.14 1488.14 L1867.07 1488.14 L1867.07 1492.03 L1862.14 1492.03 L1862.14 1500.17 L1857.49 1500.17 L1857.49 1492.03 L1841.89 1492.03 L1841.89 1487.51 L1856.26 1465.61 Z" fill="#000000" fill-rule="evenodd" fill-opacity="1" /><path clip-path="url(#clip170)" d="M 0 0 M1884.8 1468.69 Q1881.19 1468.69 1879.36 1472.26 Q1877.56 1475.8 1877.56 1482.93 Q1877.56 1490.04 1879.36 1493.6 Q1881.19 1497.14 1884.8 1497.14 Q1888.44 1497.14 1890.24 1493.6 Q1892.07 1490.04 1892.07 1482.93 Q1892.07 1475.8 1890.24 1472.26 Q1888.44 1468.69 1884.8 1468.69 M1884.8 1464.99 Q1890.61 1464.99 1893.67 1469.6 Q1896.75 1474.18 1896.75 1482.93 Q1896.75 1491.66 1893.67 1496.26 Q1890.61 1500.85 1884.8 1500.85 Q1878.99 1500.85 1875.91 1496.26 Q1872.86 1491.66 1872.86 1482.93 Q1872.86 1474.18 1875.91 1469.6 Q1878.99 1464.99 1884.8 1464.99 Z" fill="#000000" fill-rule="evenodd" fill-opacity="1" /><path clip-path="url(#clip170)" d="M 0 0 M1914.97 1468.69 Q1911.35 1468.69 1909.53 1472.26 Q1907.72 1475.8 1907.72 1482.93 Q1907.72 1490.04 1909.53 1493.6 Q1911.35 1497.14 1914.97 1497.14 Q1918.6 1497.14 1920.41 1493.6 Q1922.23 1490.04 1922.23 1482.93 Q1922.23 1475.8 1920.41 1472.26 Q1918.6 1468.69 1914.97 1468.69 M1914.97 1464.99 Q1920.78 1464.99 1923.83 1469.6 Q1926.91 1474.18 1926.91 1482.93 Q1926.91 1491.66 1923.83 1496.26 Q1920.78 1500.85 1914.97 1500.85 Q1909.16 1500.85 1906.08 1496.26 Q1903.02 1491.66 1903.02 1482.93 Q1903.02 1474.18 1906.08 1469.6 Q1909.16 1464.99 1914.97 1464.99 Z" fill="#000000" fill-rule="evenodd" fill-opacity="1" /><path clip-path="url(#clip170)" d="M 0 0 M2251.29 1465.61 L2269.65 1465.61 L2269.65 1469.55 L2255.58 1469.55 L2255.58 1478.02 Q2256.6 1477.67 2257.61 1477.51 Q2258.63 1477.33 2259.65 1477.33 Q2265.44 1477.33 2268.82 1480.5 Q2272.2 1483.67 2272.2 1489.09 Q2272.2 1494.66 2268.73 1497.77 Q2265.25 1500.85 2258.93 1500.85 Q2256.76 1500.85 2254.49 1500.47 Q2252.24 1500.1 2249.84 1499.36 L2249.84 1494.66 Q2251.92 1495.8 2254.14 1496.35 Q2256.36 1496.91 2258.84 1496.91 Q2262.85 1496.91 2265.18 1494.8 Q2267.52 1492.7 2267.52 1489.09 Q2267.52 1485.47 2265.18 1483.37 Q2262.85 1481.26 2258.84 1481.26 Q2256.97 1481.26 2255.09 1481.68 Q2253.24 1482.1 2251.29 1482.97 L2251.29 1465.61 Z" fill="#000000" fill-rule="evenodd" fill-opacity="1" /><path clip-path="url(#clip170)" d="M 0 0 M2291.41 1468.69 Q2287.8 1468.69 2285.97 1472.26 Q2284.16 1475.8 2284.16 1482.93 Q2284.16 1490.04 2285.97 1493.6 Q2287.8 1497.14 2291.41 1497.14 Q2295.04 1497.14 2296.85 1493.6 Q2298.68 1490.04 2298.68 1482.93 Q2298.68 1475.8 2296.85 1472.26 Q2295.04 1468.69 2291.41 1468.69 M2291.41 1464.99 Q2297.22 1464.99 2300.28 1469.6 Q2303.35 1474.18 2303.35 1482.93 Q2303.35 1491.66 2300.28 1496.26 Q2297.22 1500.85 2291.41 1500.85 Q2285.6 1500.85 2282.52 1496.26 Q2279.47 1491.66 2279.47 1482.93 Q2279.47 1474.18 2282.52 1469.6 Q2285.6 1464.99 2291.41 1464.99 Z" fill="#000000" fill-rule="evenodd" fill-opacity="1" /><path clip-path="url(#clip170)" d="M 0 0 M2321.57 1468.69 Q2317.96 1468.69 2316.13 1472.26 Q2314.33 1475.8 2314.33 1482.93 Q2314.33 1490.04 2316.13 1493.6 Q2317.96 1497.14 2321.57 1497.14 Q2325.21 1497.14 2327.01 1493.6 Q2328.84 1490.04 2328.84 1482.93 Q2328.84 1475.8 2327.01 1472.26 Q2325.21 1468.69 2321.57 1468.69 M2321.57 1464.99 Q2327.38 1464.99 2330.44 1469.6 Q2333.52 1474.18 2333.52 1482.93 Q2333.52 1491.66 2330.44 1496.26 Q2327.38 1500.85 2321.57 1500.85 Q2315.76 1500.85 2312.68 1496.26 Q2309.63 1491.66 2309.63 1482.93 Q2309.63 1474.18 2312.68 1469.6 Q2315.76 1464.99 2321.57 1464.99 Z" fill="#000000" fill-rule="evenodd" fill-opacity="1" /><path clip-path="url(#clip170)" d="M 0 0 M1285.62 1535.75 Q1285.62 1541.16 1283.88 1547.24 Q1282.17 1553.3 1279.47 1558.19 Q1276.76 1563.06 1273.22 1566.28 Q1269.68 1569.47 1266.3 1569.47 Q1264.14 1569.47 1262.53 1568.27 Q1260.95 1567.05 1260.08 1565.02 Q1259.21 1562.96 1258.79 1560.71 Q1258.37 1558.42 1258.37 1555.94 Q1258.37 1552.24 1259.18 1548.21 Q1259.98 1544.15 1261.34 1540.48 Q1262.69 1536.78 1264.59 1533.43 Q1266.49 1530.05 1268.58 1527.6 Q1270.71 1525.12 1273.09 1523.67 Q1275.48 1522.22 1277.7 1522.22 Q1279.31 1522.22 1280.6 1522.93 Q1281.92 1523.6 1282.75 1524.8 Q1283.59 1525.96 1284.17 1527.34 Q1284.78 1528.73 1285.07 1530.34 Q1285.36 1531.91 1285.49 1533.23 Q1285.62 1534.52 1285.62 1535.75 M1281.27 1531.66 Q1281.27 1530.01 1281.14 1528.79 Q1281.01 1527.53 1280.66 1526.28 Q1280.31 1525.02 1279.53 1524.35 Q1278.79 1523.67 1277.63 1523.67 Q1274.25 1523.67 1270.45 1530.59 Q1269.23 1532.75 1268.13 1535.68 Q1267.04 1538.61 1266.65 1540 Q1266.26 1541.38 1265.36 1544.8 L1279.15 1544.8 Q1281.27 1536 1281.27 1531.66 M1278.57 1546.89 L1264.85 1546.89 Q1262.72 1554.94 1262.72 1559.96 Q1262.72 1564.34 1263.62 1566.18 Q1264.56 1567.98 1266.3 1567.98 Q1268.29 1567.98 1270.16 1565.99 Q1272.03 1563.96 1273.93 1560.29 Q1276.44 1555.52 1278.57 1546.89 Z" fill="#000000" fill-rule="evenodd" fill-opacity="1" /><polyline clip-path="url(#clip172)" style="stroke:#000000; stroke-width:2; stroke-opacity:0.1; fill:none" points="
  194.615,1331.13 2352.76,1331.13 
  "/>
<polyline clip-path="url(#clip172)" style="stroke:#000000; stroke-width:2; stroke-opacity:0.1; fill:none" points="
  194.615,1010.88 2352.76,1010.88 
  "/>
<polyline clip-path="url(#clip172)" style="stroke:#000000; stroke-width:2; stroke-opacity:0.1; fill:none" points="
  194.615,690.629 2352.76,690.629 
  "/>
<polyline clip-path="url(#clip172)" style="stroke:#000000; stroke-width:2; stroke-opacity:0.1; fill:none" points="
  194.615,370.38 2352.76,370.38 
  "/>
<polyline clip-path="url(#clip172)" style="stroke:#000000; stroke-width:2; stroke-opacity:0.1; fill:none" points="
  194.615,50.132 2352.76,50.132 
  "/>
<polyline clip-path="url(#clip170)" style="stroke:#000000; stroke-width:4; stroke-opacity:1; fill:none" points="
  194.615,1439.5 194.615,47.2441 
  "/>
<polyline clip-path="url(#clip170)" style="stroke:#000000; stroke-width:4; stroke-opacity:1; fill:none" points="
  194.615,1331.13 220.512,1331.13 
  "/>
<polyline clip-path="url(#clip170)" style="stroke:#000000; stroke-width:4; stroke-opacity:1; fill:none" points="
  194.615,1010.88 220.512,1010.88 
  "/>
<polyline clip-path="url(#clip170)" style="stroke:#000000; stroke-width:4; stroke-opacity:1; fill:none" points="
  194.615,690.629 220.512,690.629 
  "/>
<polyline clip-path="url(#clip170)" style="stroke:#000000; stroke-width:4; stroke-opacity:1; fill:none" points="
  194.615,370.38 220.512,370.38 
  "/>
<polyline clip-path="url(#clip170)" style="stroke:#000000; stroke-width:4; stroke-opacity:1; fill:none" points="
  194.615,50.132 220.512,50.132 
  "/>
<path clip-path="url(#clip170)" d="M 0 0 M66.7402 1331.58 L96.4159 1331.58 L96.4159 1335.51 L66.7402 1335.51 L66.7402 1331.58 Z" fill="#000000" fill-rule="evenodd" fill-opacity="1" /><path clip-path="url(#clip170)" d="M 0 0 M110.536 1344.47 L126.856 1344.47 L126.856 1348.41 L104.911 1348.41 L104.911 1344.47 Q107.573 1341.72 112.157 1337.09 Q116.763 1332.43 117.944 1331.09 Q120.189 1328.57 121.069 1326.83 Q121.971 1325.07 121.971 1323.38 Q121.971 1320.63 120.027 1318.89 Q118.106 1317.16 115.004 1317.16 Q112.805 1317.16 110.351 1317.92 Q107.92 1318.68 105.143 1320.23 L105.143 1315.51 Q107.967 1314.38 110.42 1313.8 Q112.874 1313.22 114.911 1313.22 Q120.282 1313.22 123.476 1315.91 Q126.67 1318.59 126.67 1323.08 Q126.67 1325.21 125.86 1327.13 Q125.073 1329.03 122.967 1331.62 Q122.388 1332.29 119.286 1335.51 Q116.184 1338.71 110.536 1344.47 Z" fill="#000000" fill-rule="evenodd" fill-opacity="1" /><path clip-path="url(#clip170)" d="M 0 0 M146.67 1316.92 Q143.059 1316.92 141.23 1320.49 Q139.425 1324.03 139.425 1331.16 Q139.425 1338.27 141.23 1341.83 Q143.059 1345.37 146.67 1345.37 Q150.305 1345.37 152.11 1341.83 Q153.939 1338.27 153.939 1331.16 Q153.939 1324.03 152.11 1320.49 Q150.305 1316.92 146.67 1316.92 M146.67 1313.22 Q152.48 1313.22 155.536 1317.83 Q158.615 1322.41 158.615 1331.16 Q158.615 1339.89 155.536 1344.49 Q152.48 1349.08 146.67 1349.08 Q140.86 1349.08 137.781 1344.49 Q134.726 1339.89 134.726 1331.16 Q134.726 1322.41 137.781 1317.83 Q140.86 1313.22 146.67 1313.22 Z" fill="#000000" fill-rule="evenodd" fill-opacity="1" /><path clip-path="url(#clip170)" d="M 0 0 M66.7402 1011.33 L96.4159 1011.33 L96.4159 1015.26 L66.7402 1015.26 L66.7402 1011.33 Z" fill="#000000" fill-rule="evenodd" fill-opacity="1" /><path clip-path="url(#clip170)" d="M 0 0 M107.319 1024.22 L114.957 1024.22 L114.957 997.857 L106.647 999.523 L106.647 995.264 L114.911 993.597 L119.587 993.597 L119.587 1024.22 L127.226 1024.22 L127.226 1028.16 L107.319 1028.16 L107.319 1024.22 Z" fill="#000000" fill-rule="evenodd" fill-opacity="1" /><path clip-path="url(#clip170)" d="M 0 0 M146.67 996.676 Q143.059 996.676 141.23 1000.24 Q139.425 1003.78 139.425 1010.91 Q139.425 1018.02 141.23 1021.58 Q143.059 1025.12 146.67 1025.12 Q150.305 1025.12 152.11 1021.58 Q153.939 1018.02 153.939 1010.91 Q153.939 1003.78 152.11 1000.24 Q150.305 996.676 146.67 996.676 M146.67 992.972 Q152.48 992.972 155.536 997.579 Q158.615 1002.16 158.615 1010.91 Q158.615 1019.64 155.536 1024.25 Q152.48 1028.83 146.67 1028.83 Q140.86 1028.83 137.781 1024.25 Q134.726 1019.64 134.726 1010.91 Q134.726 1002.16 137.781 997.579 Q140.86 992.972 146.67 992.972 Z" fill="#000000" fill-rule="evenodd" fill-opacity="1" /><path clip-path="url(#clip170)" d="M 0 0 M146.67 676.428 Q143.059 676.428 141.23 679.992 Q139.425 683.534 139.425 690.664 Q139.425 697.77 141.23 701.335 Q143.059 704.877 146.67 704.877 Q150.305 704.877 152.11 701.335 Q153.939 697.77 153.939 690.664 Q153.939 683.534 152.11 679.992 Q150.305 676.428 146.67 676.428 M146.67 672.724 Q152.48 672.724 155.536 677.33 Q158.615 681.914 158.615 690.664 Q158.615 699.39 155.536 703.997 Q152.48 708.58 146.67 708.58 Q140.86 708.58 137.781 703.997 Q134.726 699.39 134.726 690.664 Q134.726 681.914 137.781 677.33 Q140.86 672.724 146.67 672.724 Z" fill="#000000" fill-rule="evenodd" fill-opacity="1" /><path clip-path="url(#clip170)" d="M 0 0 M107.319 383.725 L114.957 383.725 L114.957 357.36 L106.647 359.026 L106.647 354.767 L114.911 353.1 L119.587 353.1 L119.587 383.725 L127.226 383.725 L127.226 387.66 L107.319 387.66 L107.319 383.725 Z" fill="#000000" fill-rule="evenodd" fill-opacity="1" /><path clip-path="url(#clip170)" d="M 0 0 M146.67 356.179 Q143.059 356.179 141.23 359.744 Q139.425 363.286 139.425 370.415 Q139.425 377.522 141.23 381.086 Q143.059 384.628 146.67 384.628 Q150.305 384.628 152.11 381.086 Q153.939 377.522 153.939 370.415 Q153.939 363.286 152.11 359.744 Q150.305 356.179 146.67 356.179 M146.67 352.475 Q152.48 352.475 155.536 357.082 Q158.615 361.665 158.615 370.415 Q158.615 379.142 155.536 383.748 Q152.48 388.332 146.67 388.332 Q140.86 388.332 137.781 383.748 Q134.726 379.142 134.726 370.415 Q134.726 361.665 137.781 357.082 Q140.86 352.475 146.67 352.475 Z" fill="#000000" fill-rule="evenodd" fill-opacity="1" /><path clip-path="url(#clip170)" d="M 0 0 M110.536 63.4768 L126.856 63.4768 L126.856 67.412 L104.911 67.412 L104.911 63.4768 Q107.573 60.7222 112.157 56.0926 Q116.763 51.4399 117.944 50.0973 Q120.189 47.5741 121.069 45.838 Q121.971 44.0788 121.971 42.389 Q121.971 39.6344 120.027 37.8983 Q118.106 36.1622 115.004 36.1622 Q112.805 36.1622 110.351 36.926 Q107.92 37.6899 105.143 39.2409 L105.143 34.5187 Q107.967 33.3844 110.42 32.8057 Q112.874 32.227 114.911 32.227 Q120.282 32.227 123.476 34.9122 Q126.67 37.5973 126.67 42.0881 Q126.67 44.2177 125.86 46.139 Q125.073 48.0371 122.967 50.6297 Q122.388 51.301 119.286 54.5185 Q116.184 57.713 110.536 63.4768 Z" fill="#000000" fill-rule="evenodd" fill-opacity="1" /><path clip-path="url(#clip170)" d="M 0 0 M146.67 35.9307 Q143.059 35.9307 141.23 39.4955 Q139.425 43.0371 139.425 50.1667 Q139.425 57.2732 141.23 60.838 Q143.059 64.3796 146.67 64.3796 Q150.305 64.3796 152.11 60.838 Q153.939 57.2732 153.939 50.1667 Q153.939 43.0371 152.11 39.4955 Q150.305 35.9307 146.67 35.9307 M146.67 32.227 Q152.48 32.227 155.536 36.8335 Q158.615 41.4168 158.615 50.1667 Q158.615 58.8935 155.536 63.5 Q152.48 68.0833 146.67 68.0833 Q140.86 68.0833 137.781 63.5 Q134.726 58.8935 134.726 50.1667 Q134.726 41.4168 137.781 36.8335 Q140.86 32.227 146.67 32.227 Z" fill="#000000" fill-rule="evenodd" fill-opacity="1" /><polyline clip-path="url(#clip172)" style="stroke:#0000ff; stroke-width:4; stroke-opacity:1; fill:none" points="
  255.694,1400.1 1273.69,551.068 2291.68,86.6476 
  "/>
<polyline clip-path="url(#clip172)" style="stroke:#5500aa; stroke-width:4; stroke-opacity:1; fill:none" points="
  255.694,874.791 1273.69,280.972 2291.68,124.31 
  "/>
<polyline clip-path="url(#clip172)" style="stroke:#aa0055; stroke-width:4; stroke-opacity:1; fill:none" points="
  255.694,677.615 1273.69,227.731 2291.68,128.485 
  "/>
<polyline clip-path="url(#clip172)" style="stroke:#ff0000; stroke-width:4; stroke-opacity:1; fill:none" points="
  255.694,651.988 1273.69,221.709 2291.68,128.909 
  "/>
<path clip-path="url(#clip170)" d="
M1674.08 1393.09 L2280.82 1393.09 L2280.82 1128.49 L1674.08 1128.49  Z
  " fill="#ffffff" fill-rule="evenodd" fill-opacity="1"/>
<polyline clip-path="url(#clip170)" style="stroke:#000000; stroke-width:4; stroke-opacity:1; fill:none" points="
  1674.08,1393.09 2280.82,1393.09 2280.82,1128.49 1674.08,1128.49 1674.08,1393.09 
  "/>
<polyline clip-path="url(#clip170)" style="stroke:#0000ff; stroke-width:3.5; stroke-opacity:1; fill:none" points="
  1698.06,1181.41 1841.93,1181.41 
  "/>
<path clip-path="url(#clip170)" d="M 0 0 M1894.46 1163.51 Q1894.46 1163.9 1894.38 1164.23 L1893.23 1171.53 Q1893.17 1172.08 1893.05 1172.29 Q1892.95 1172.49 1892.62 1172.49 Q1892.11 1172.49 1892.11 1171.96 Q1892.11 1171.65 1892.23 1171.16 Q1892.58 1168.84 1892.58 1167.8 Q1892.58 1167.1 1892.43 1166.59 Q1892.31 1166.05 1892.11 1165.69 Q1891.92 1165.32 1891.49 1165.07 Q1891.06 1164.82 1890.65 1164.68 Q1890.24 1164.54 1889.5 1164.48 Q1888.77 1164.39 1888.13 1164.37 Q1887.49 1164.35 1886.45 1164.35 Q1884.17 1164.35 1883.81 1164.44 Q1883.42 1164.54 1883.21 1164.85 Q1883.03 1165.13 1882.82 1165.99 L1877.25 1188.27 L1877.08 1189.15 Q1877.08 1189.64 1877.39 1189.81 Q1877.7 1189.97 1878.64 1190.07 Q1879.99 1190.18 1881.33 1190.18 Q1881.37 1190.18 1881.45 1190.18 Q1881.9 1190.18 1882.08 1190.2 Q1882.27 1190.2 1882.45 1190.24 Q1882.64 1190.28 1882.68 1190.38 Q1882.74 1190.46 1882.74 1190.63 Q1882.74 1191.02 1882.58 1191.22 Q1882.41 1191.41 1882.25 1191.45 Q1882.1 1191.47 1881.82 1191.47 Q1881.24 1191.47 1880.01 1191.43 Q1878.78 1191.39 1878.17 1191.39 L1874.69 1191.35 L1871.12 1191.39 Q1870.57 1191.39 1869.4 1191.43 Q1868.23 1191.47 1867.68 1191.47 Q1866.96 1191.47 1866.96 1190.96 Q1866.96 1190.38 1867.23 1190.28 Q1867.51 1190.18 1868.72 1190.18 Q1870.42 1190.18 1871.35 1190.09 Q1872.27 1190.01 1872.76 1189.73 Q1873.27 1189.44 1873.42 1189.15 Q1873.56 1188.84 1873.72 1188.15 L1879.36 1165.75 Q1879.52 1165.26 1879.52 1164.87 Q1879.52 1164.66 1879.46 1164.58 Q1879.42 1164.5 1879.15 1164.44 Q1878.89 1164.35 1878.33 1164.35 L1876.69 1164.35 Q1875.01 1164.35 1873.97 1164.44 Q1872.94 1164.5 1871.96 1164.8 Q1871 1165.11 1870.42 1165.54 Q1869.87 1165.97 1869.25 1166.85 Q1868.64 1167.74 1868.19 1168.8 Q1867.76 1169.87 1867.14 1171.61 Q1866.94 1172.18 1866.82 1172.35 Q1866.71 1172.49 1866.43 1172.49 Q1866.22 1172.49 1866.06 1172.37 Q1865.91 1172.22 1865.91 1172.04 Q1866.12 1171.36 1866.16 1171.28 L1868.68 1163.88 Q1868.89 1163.29 1869.07 1163.19 Q1869.28 1163.06 1870.03 1163.06 L1893.32 1163.06 Q1893.68 1163.06 1893.81 1163.06 Q1893.93 1163.06 1894.14 1163.1 Q1894.34 1163.14 1894.4 1163.25 Q1894.46 1163.35 1894.46 1163.51 Z" fill="#000000" fill-rule="evenodd" fill-opacity="1" /><path clip-path="url(#clip170)" d="M 0 0 M1901.83 1185.09 Q1901.87 1184.58 1902.67 1184.58 L1928.39 1184.58 Q1929.6 1184.58 1929.62 1185.05 Q1929.62 1185.57 1928.47 1185.55 L1902.96 1185.55 Q1901.83 1185.57 1901.83 1185.09 M1901.83 1176.9 Q1901.83 1176.38 1902.71 1176.4 L1928.35 1176.4 Q1929.6 1176.4 1929.62 1176.9 Q1929.62 1177.37 1928.56 1177.37 L1902.67 1177.37 Q1901.83 1177.37 1901.83 1176.9 Z" fill="#000000" fill-rule="evenodd" fill-opacity="1" /><path clip-path="url(#clip170)" d="M 0 0 M1945.81 1184.7 Q1945.81 1183.45 1946.48 1182.98 Q1947.16 1182.49 1947.88 1182.49 Q1948.84 1182.49 1949.39 1183.11 Q1949.97 1183.7 1949.97 1184.54 Q1949.97 1185.38 1949.39 1186 Q1948.84 1186.59 1947.88 1186.59 Q1947.4 1186.59 1947.16 1186.51 Q1947.71 1188.43 1949.39 1189.83 Q1951.09 1191.22 1953.33 1191.22 Q1956.14 1191.22 1957.82 1188.5 Q1958.82 1186.73 1958.82 1182.74 Q1958.82 1179.21 1958.06 1177.45 Q1956.89 1174.76 1954.5 1174.76 Q1951.09 1174.76 1949.09 1177.7 Q1948.84 1178.06 1948.55 1178.09 Q1948.14 1178.09 1948.04 1177.86 Q1947.96 1177.61 1947.96 1176.98 L1947.96 1164.56 Q1947.96 1163.55 1948.37 1163.55 Q1948.53 1163.55 1948.88 1163.68 Q1951.52 1164.85 1954.45 1164.87 Q1957.47 1164.87 1960.17 1163.64 Q1960.38 1163.51 1960.5 1163.51 Q1960.91 1163.51 1960.93 1163.98 Q1960.93 1164.15 1960.58 1164.64 Q1960.25 1165.11 1959.54 1165.75 Q1958.82 1166.36 1957.9 1166.96 Q1956.98 1167.55 1955.62 1167.96 Q1954.29 1168.35 1952.82 1168.35 Q1951.05 1168.35 1949.25 1167.8 L1949.25 1175.97 Q1951.42 1173.84 1954.58 1173.84 Q1957.94 1173.84 1960.25 1176.55 Q1962.57 1179.25 1962.57 1183.02 Q1962.57 1186.98 1959.82 1189.68 Q1957.1 1192.39 1953.41 1192.39 Q1950.05 1192.39 1947.92 1189.99 Q1945.81 1187.59 1945.81 1184.7 Z" fill="#000000" fill-rule="evenodd" fill-opacity="1" /><path clip-path="url(#clip170)" d="M 0 0 M1966.59 1178.04 Q1966.59 1171.88 1968.14 1168.51 Q1970.32 1163.51 1975.44 1163.51 Q1976.53 1163.51 1977.65 1163.82 Q1978.8 1164.11 1980.24 1165.23 Q1981.69 1166.36 1982.57 1168.21 Q1984.25 1171.77 1984.25 1178.04 Q1984.25 1184.17 1982.7 1187.51 Q1980.42 1192.39 1975.4 1192.39 Q1973.51 1192.39 1971.59 1191.43 Q1969.68 1190.46 1968.47 1188.15 Q1966.59 1184.68 1966.59 1178.04 M1970.07 1177.53 Q1970.07 1183.86 1970.52 1186.39 Q1971.03 1189.11 1972.43 1190.3 Q1973.84 1191.47 1975.4 1191.47 Q1977.08 1191.47 1978.47 1190.22 Q1979.89 1188.95 1980.32 1186.22 Q1980.79 1183.54 1980.77 1177.53 Q1980.77 1171.69 1980.36 1169.35 Q1979.81 1166.63 1978.33 1165.54 Q1976.88 1164.44 1975.4 1164.44 Q1974.85 1164.44 1974.25 1164.6 Q1973.68 1164.76 1972.84 1165.23 Q1972 1165.71 1971.34 1166.87 Q1970.71 1168.04 1970.4 1169.81 Q1970.07 1172.08 1970.07 1177.53 Z" fill="#000000" fill-rule="evenodd" fill-opacity="1" /><path clip-path="url(#clip170)" d="M 0 0 M1988 1190.79 Q1987.37 1190.12 1987.37 1189.23 Q1987.37 1188.35 1988 1187.72 Q1988.64 1187.06 1989.6 1187.06 Q1990.52 1187.06 1991.14 1187.68 Q1991.77 1188.27 1991.77 1189.25 Q1991.77 1190.22 1991.1 1190.85 Q1990.44 1191.47 1989.6 1191.47 Q1988.64 1191.47 1988 1190.79 Z" fill="#000000" fill-rule="evenodd" fill-opacity="1" /><path clip-path="url(#clip170)" d="M 0 0 M1998.92 1178.04 Q1998.92 1171.88 2000.47 1168.51 Q2002.65 1163.51 2007.77 1163.51 Q2008.86 1163.51 2009.98 1163.82 Q2011.13 1164.11 2012.57 1165.23 Q2014.02 1166.36 2014.9 1168.21 Q2016.58 1171.77 2016.58 1178.04 Q2016.58 1184.17 2015.02 1187.51 Q2012.75 1192.39 2007.73 1192.39 Q2005.84 1192.39 2003.92 1191.43 Q2002.01 1190.46 2000.8 1188.15 Q1998.92 1184.68 1998.92 1178.04 M2002.4 1177.53 Q2002.4 1183.86 2002.85 1186.39 Q2003.36 1189.11 2004.76 1190.3 Q2006.17 1191.47 2007.73 1191.47 Q2009.41 1191.47 2010.8 1190.22 Q2012.22 1188.95 2012.65 1186.22 Q2013.12 1183.54 2013.1 1177.53 Q2013.1 1171.69 2012.69 1169.35 Q2012.13 1166.63 2010.66 1165.54 Q2009.2 1164.44 2007.73 1164.44 Q2007.18 1164.44 2006.58 1164.6 Q2006.01 1164.76 2005.17 1165.23 Q2004.33 1165.71 2003.67 1166.87 Q2003.04 1168.04 2002.73 1169.81 Q2002.4 1172.08 2002.4 1177.53 Z" fill="#000000" fill-rule="evenodd" fill-opacity="1" /><path clip-path="url(#clip170)" d="M 0 0 M2020.29 1190.79 Q2019.7 1190.12 2019.7 1189.23 Q2019.7 1188.35 2020.27 1187.7 Q2020.87 1187.02 2021.93 1187.02 Q2023.18 1187.02 2023.9 1188.23 Q2024.62 1189.42 2024.62 1191.43 Q2024.62 1193.6 2023.73 1195.61 Q2022.85 1197.64 2021.99 1198.6 Q2021.13 1199.56 2020.78 1199.56 Q2020.37 1199.56 2020.37 1199.11 Q2020.37 1198.95 2020.66 1198.64 Q2023.67 1195.4 2023.69 1191.43 Q2023.69 1190.79 2023.61 1190.79 L2023.51 1190.87 Q2022.79 1191.47 2021.93 1191.47 Q2020.89 1191.47 2020.29 1190.79 Z" fill="#000000" fill-rule="evenodd" fill-opacity="1" /><path clip-path="url(#clip170)" d="M 0 0 M2058.46 1185.46 Q2057.94 1187.98 2056.9 1189.75 Q2055.61 1191.94 2053.64 1191.94 Q2051.98 1191.94 2050.87 1190.79 Q2049.77 1189.62 2049.77 1187.78 Q2049.77 1187.23 2049.99 1186.3 Q2050.07 1185.89 2050.07 1185.38 Q2050.07 1182.06 2042.88 1181.82 Q2042.29 1184.17 2041.88 1185.77 Q2041.49 1187.35 2041.36 1187.82 Q2041.24 1188.29 2041.14 1188.68 Q2041.06 1189.07 2040.91 1189.58 Q2040.71 1190.42 2040.56 1190.83 Q2040.42 1191.24 2040.03 1191.59 Q2039.66 1191.94 2039.07 1191.94 Q2038.56 1191.94 2038.21 1191.63 Q2037.86 1191.32 2037.86 1190.79 Q2037.86 1190.42 2038.02 1189.83 L2041.88 1174.44 Q2041.98 1174.01 2042.18 1173.7 Q2042.39 1173.39 2042.57 1173.25 Q2042.78 1173.1 2043.02 1173.02 Q2043.27 1172.94 2043.37 1172.94 Q2043.47 1172.92 2043.56 1172.92 Q2044.11 1172.92 2044.44 1173.23 Q2044.79 1173.51 2044.79 1174.05 Q2044.79 1174.13 2044.64 1174.7 Q2044.52 1175.26 2044.31 1176.1 Q2044.11 1176.94 2044.03 1177.33 L2043.19 1180.61 Q2044.36 1180.22 2045.4 1179.52 Q2046.47 1178.82 2048.56 1177.02 Q2049.52 1176.22 2050.09 1175.77 Q2050.69 1175.3 2051.67 1174.66 Q2052.66 1174.01 2053.6 1173.7 Q2054.54 1173.37 2055.44 1173.37 Q2056.14 1173.37 2056.55 1173.7 Q2056.96 1174.01 2057.04 1174.29 Q2057.12 1174.56 2057.12 1174.85 Q2057.12 1175.69 2056.47 1176.4 Q2055.81 1177.12 2054.85 1177.12 Q2053.99 1177.12 2053.62 1176.65 Q2053.25 1176.18 2053.25 1175.65 Q2053.25 1175.24 2053.46 1174.72 Q2052.31 1175.22 2051.32 1175.93 Q2050.34 1176.63 2048.64 1178.09 Q2046.22 1180.15 2044.79 1180.93 Q2045.61 1180.95 2046.22 1181.02 Q2046.86 1181.06 2047.92 1181.2 Q2048.99 1181.34 2049.77 1181.65 Q2050.54 1181.94 2051.3 1182.39 Q2052.08 1182.84 2052.49 1183.58 Q2052.92 1184.32 2052.92 1185.26 Q2052.92 1185.71 2052.72 1186.63 Q2052.37 1188.15 2052.37 1188.99 Q2052.37 1190.05 2052.7 1190.53 Q2053.05 1191 2053.72 1191 Q2055.01 1191 2055.83 1189.66 Q2056.67 1188.31 2057.37 1185.81 Q2057.47 1185.34 2057.57 1185.2 Q2057.68 1185.05 2057.96 1185.05 Q2058.46 1185.05 2058.46 1185.46 Z" fill="#000000" fill-rule="evenodd" fill-opacity="1" /><path clip-path="url(#clip170)" d="M 0 0 M2073.43 1185.09 Q2073.47 1184.58 2074.27 1184.58 L2099.99 1184.58 Q2101.2 1184.58 2101.22 1185.05 Q2101.22 1185.57 2100.07 1185.55 L2074.56 1185.55 Q2073.43 1185.57 2073.43 1185.09 M2073.43 1176.9 Q2073.43 1176.38 2074.31 1176.4 L2099.95 1176.4 Q2101.2 1176.4 2101.22 1176.9 Q2101.22 1177.37 2100.16 1177.37 L2074.27 1177.37 Q2073.43 1177.37 2073.43 1176.9 Z" fill="#000000" fill-rule="evenodd" fill-opacity="1" /><path clip-path="url(#clip170)" d="M 0 0 M2117.41 1184.7 Q2117.41 1183.45 2118.08 1182.98 Q2118.76 1182.49 2119.48 1182.49 Q2120.44 1182.49 2120.99 1183.11 Q2121.57 1183.7 2121.57 1184.54 Q2121.57 1185.38 2120.99 1186 Q2120.44 1186.59 2119.48 1186.59 Q2119 1186.59 2118.76 1186.51 Q2119.31 1188.43 2120.99 1189.83 Q2122.69 1191.22 2124.93 1191.22 Q2127.73 1191.22 2129.42 1188.5 Q2130.42 1186.73 2130.42 1182.74 Q2130.42 1179.21 2129.66 1177.45 Q2128.49 1174.76 2126.1 1174.76 Q2122.69 1174.76 2120.68 1177.7 Q2120.44 1178.06 2120.15 1178.09 Q2119.74 1178.09 2119.64 1177.86 Q2119.56 1177.61 2119.56 1176.98 L2119.56 1164.56 Q2119.56 1163.55 2119.97 1163.55 Q2120.13 1163.55 2120.48 1163.68 Q2123.12 1164.85 2126.05 1164.87 Q2129.07 1164.87 2131.77 1163.64 Q2131.98 1163.51 2132.1 1163.51 Q2132.51 1163.51 2132.53 1163.98 Q2132.53 1164.15 2132.18 1164.64 Q2131.85 1165.11 2131.14 1165.75 Q2130.42 1166.36 2129.5 1166.96 Q2128.58 1167.55 2127.22 1167.96 Q2125.89 1168.35 2124.41 1168.35 Q2122.65 1168.35 2120.85 1167.8 L2120.85 1175.97 Q2123.02 1173.84 2126.18 1173.84 Q2129.54 1173.84 2131.85 1176.55 Q2134.17 1179.25 2134.17 1183.02 Q2134.17 1186.98 2131.42 1189.68 Q2128.7 1192.39 2125.01 1192.39 Q2121.65 1192.39 2119.52 1189.99 Q2117.41 1187.59 2117.41 1184.7 Z" fill="#000000" fill-rule="evenodd" fill-opacity="1" /><path clip-path="url(#clip170)" d="M 0 0 M2138.82 1190.79 Q2138.19 1190.12 2138.19 1189.23 Q2138.19 1188.35 2138.82 1187.72 Q2139.46 1187.06 2140.42 1187.06 Q2141.34 1187.06 2141.96 1187.68 Q2142.59 1188.27 2142.59 1189.25 Q2142.59 1190.22 2141.92 1190.85 Q2141.26 1191.47 2140.42 1191.47 Q2139.46 1191.47 2138.82 1190.79 Z" fill="#000000" fill-rule="evenodd" fill-opacity="1" /><path clip-path="url(#clip170)" d="M 0 0 M2149.73 1178.04 Q2149.73 1171.88 2151.29 1168.51 Q2153.46 1163.51 2158.59 1163.51 Q2159.67 1163.51 2160.8 1163.82 Q2161.95 1164.11 2163.38 1165.23 Q2164.84 1166.36 2165.72 1168.21 Q2167.4 1171.77 2167.4 1178.04 Q2167.4 1184.17 2165.84 1187.51 Q2163.57 1192.39 2158.55 1192.39 Q2156.66 1192.39 2154.73 1191.43 Q2152.83 1190.46 2151.62 1188.15 Q2149.73 1184.68 2149.73 1178.04 M2153.22 1177.53 Q2153.22 1183.86 2153.67 1186.39 Q2154.18 1189.11 2155.58 1190.3 Q2156.99 1191.47 2158.55 1191.47 Q2160.23 1191.47 2161.62 1190.22 Q2163.04 1188.95 2163.47 1186.22 Q2163.94 1183.54 2163.92 1177.53 Q2163.92 1171.69 2163.51 1169.35 Q2162.95 1166.63 2161.48 1165.54 Q2160.02 1164.44 2158.55 1164.44 Q2157.99 1164.44 2157.4 1164.6 Q2156.83 1164.76 2155.99 1165.23 Q2155.14 1165.71 2154.49 1166.87 Q2153.85 1168.04 2153.55 1169.81 Q2153.22 1172.08 2153.22 1177.53 Z" fill="#000000" fill-rule="evenodd" fill-opacity="1" /><polyline clip-path="url(#clip170)" style="stroke:#5500aa; stroke-width:3.5; stroke-opacity:1; fill:none" points="
  1698.06,1234.33 1841.93,1234.33 
  "/>
<path clip-path="url(#clip170)" d="M 0 0 M1894.46 1216.43 Q1894.46 1216.82 1894.38 1217.15 L1893.23 1224.45 Q1893.17 1225 1893.05 1225.21 Q1892.95 1225.41 1892.62 1225.41 Q1892.11 1225.41 1892.11 1224.88 Q1892.11 1224.57 1892.23 1224.08 Q1892.58 1221.76 1892.58 1220.72 Q1892.58 1220.02 1892.43 1219.51 Q1892.31 1218.97 1892.11 1218.61 Q1891.92 1218.24 1891.49 1217.99 Q1891.06 1217.74 1890.65 1217.6 Q1890.24 1217.46 1889.5 1217.4 Q1888.77 1217.31 1888.13 1217.29 Q1887.49 1217.27 1886.45 1217.27 Q1884.17 1217.27 1883.81 1217.36 Q1883.42 1217.46 1883.21 1217.77 Q1883.03 1218.05 1882.82 1218.91 L1877.25 1241.19 L1877.08 1242.07 Q1877.08 1242.56 1877.39 1242.73 Q1877.7 1242.89 1878.64 1242.99 Q1879.99 1243.1 1881.33 1243.1 Q1881.37 1243.1 1881.45 1243.1 Q1881.9 1243.1 1882.08 1243.12 Q1882.27 1243.12 1882.45 1243.16 Q1882.64 1243.2 1882.68 1243.3 Q1882.74 1243.38 1882.74 1243.55 Q1882.74 1243.94 1882.58 1244.14 Q1882.41 1244.33 1882.25 1244.37 Q1882.1 1244.39 1881.82 1244.39 Q1881.24 1244.39 1880.01 1244.35 Q1878.78 1244.31 1878.17 1244.31 L1874.69 1244.27 L1871.12 1244.31 Q1870.57 1244.31 1869.4 1244.35 Q1868.23 1244.39 1867.68 1244.39 Q1866.96 1244.39 1866.96 1243.88 Q1866.96 1243.3 1867.23 1243.2 Q1867.51 1243.1 1868.72 1243.1 Q1870.42 1243.1 1871.35 1243.01 Q1872.27 1242.93 1872.76 1242.65 Q1873.27 1242.36 1873.42 1242.07 Q1873.56 1241.76 1873.72 1241.07 L1879.36 1218.67 Q1879.52 1218.18 1879.52 1217.79 Q1879.52 1217.58 1879.46 1217.5 Q1879.42 1217.42 1879.15 1217.36 Q1878.89 1217.27 1878.33 1217.27 L1876.69 1217.27 Q1875.01 1217.27 1873.97 1217.36 Q1872.94 1217.42 1871.96 1217.72 Q1871 1218.03 1870.42 1218.46 Q1869.87 1218.89 1869.25 1219.77 Q1868.64 1220.66 1868.19 1221.72 Q1867.76 1222.79 1867.14 1224.53 Q1866.94 1225.1 1866.82 1225.27 Q1866.71 1225.41 1866.43 1225.41 Q1866.22 1225.41 1866.06 1225.29 Q1865.91 1225.14 1865.91 1224.96 Q1866.12 1224.28 1866.16 1224.2 L1868.68 1216.8 Q1868.89 1216.21 1869.07 1216.11 Q1869.28 1215.98 1870.03 1215.98 L1893.32 1215.98 Q1893.68 1215.98 1893.81 1215.98 Q1893.93 1215.98 1894.14 1216.02 Q1894.34 1216.06 1894.4 1216.17 Q1894.46 1216.27 1894.46 1216.43 Z" fill="#000000" fill-rule="evenodd" fill-opacity="1" /><path clip-path="url(#clip170)" d="M 0 0 M1901.83 1238.01 Q1901.87 1237.5 1902.67 1237.5 L1928.39 1237.5 Q1929.6 1237.5 1929.62 1237.97 Q1929.62 1238.49 1928.47 1238.47 L1902.96 1238.47 Q1901.83 1238.49 1901.83 1238.01 M1901.83 1229.82 Q1901.83 1229.3 1902.71 1229.32 L1928.35 1229.32 Q1929.6 1229.32 1929.62 1229.82 Q1929.62 1230.29 1928.56 1230.29 L1902.67 1230.29 Q1901.83 1230.29 1901.83 1229.82 Z" fill="#000000" fill-rule="evenodd" fill-opacity="1" /><path clip-path="url(#clip170)" d="M 0 0 M1945.81 1237.62 Q1945.81 1236.37 1946.48 1235.9 Q1947.16 1235.41 1947.88 1235.41 Q1948.84 1235.41 1949.39 1236.03 Q1949.97 1236.62 1949.97 1237.46 Q1949.97 1238.3 1949.39 1238.92 Q1948.84 1239.51 1947.88 1239.51 Q1947.4 1239.51 1947.16 1239.43 Q1947.71 1241.35 1949.39 1242.75 Q1951.09 1244.14 1953.33 1244.14 Q1956.14 1244.14 1957.82 1241.42 Q1958.82 1239.65 1958.82 1235.66 Q1958.82 1232.13 1958.06 1230.37 Q1956.89 1227.68 1954.5 1227.68 Q1951.09 1227.68 1949.09 1230.62 Q1948.84 1230.98 1948.55 1231.01 Q1948.14 1231.01 1948.04 1230.78 Q1947.96 1230.53 1947.96 1229.9 L1947.96 1217.48 Q1947.96 1216.47 1948.37 1216.47 Q1948.53 1216.47 1948.88 1216.6 Q1951.52 1217.77 1954.45 1217.79 Q1957.47 1217.79 1960.17 1216.56 Q1960.38 1216.43 1960.5 1216.43 Q1960.91 1216.43 1960.93 1216.9 Q1960.93 1217.07 1960.58 1217.56 Q1960.25 1218.03 1959.54 1218.67 Q1958.82 1219.28 1957.9 1219.88 Q1956.98 1220.47 1955.62 1220.88 Q1954.29 1221.27 1952.82 1221.27 Q1951.05 1221.27 1949.25 1220.72 L1949.25 1228.89 Q1951.42 1226.76 1954.58 1226.76 Q1957.94 1226.76 1960.25 1229.47 Q1962.57 1232.17 1962.57 1235.94 Q1962.57 1239.9 1959.82 1242.6 Q1957.1 1245.31 1953.41 1245.31 Q1950.05 1245.31 1947.92 1242.91 Q1945.81 1240.51 1945.81 1237.62 Z" fill="#000000" fill-rule="evenodd" fill-opacity="1" /><path clip-path="url(#clip170)" d="M 0 0 M1966.59 1230.96 Q1966.59 1224.8 1968.14 1221.43 Q1970.32 1216.43 1975.44 1216.43 Q1976.53 1216.43 1977.65 1216.74 Q1978.8 1217.03 1980.24 1218.15 Q1981.69 1219.28 1982.57 1221.13 Q1984.25 1224.69 1984.25 1230.96 Q1984.25 1237.09 1982.7 1240.43 Q1980.42 1245.31 1975.4 1245.31 Q1973.51 1245.31 1971.59 1244.35 Q1969.68 1243.38 1968.47 1241.07 Q1966.59 1237.6 1966.59 1230.96 M1970.07 1230.45 Q1970.07 1236.78 1970.52 1239.31 Q1971.03 1242.03 1972.43 1243.22 Q1973.84 1244.39 1975.4 1244.39 Q1977.08 1244.39 1978.47 1243.14 Q1979.89 1241.87 1980.32 1239.14 Q1980.79 1236.46 1980.77 1230.45 Q1980.77 1224.61 1980.36 1222.27 Q1979.81 1219.55 1978.33 1218.46 Q1976.88 1217.36 1975.4 1217.36 Q1974.85 1217.36 1974.25 1217.52 Q1973.68 1217.68 1972.84 1218.15 Q1972 1218.63 1971.34 1219.79 Q1970.71 1220.96 1970.4 1222.73 Q1970.07 1225 1970.07 1230.45 Z" fill="#000000" fill-rule="evenodd" fill-opacity="1" /><path clip-path="url(#clip170)" d="M 0 0 M1988 1243.71 Q1987.37 1243.04 1987.37 1242.15 Q1987.37 1241.27 1988 1240.64 Q1988.64 1239.98 1989.6 1239.98 Q1990.52 1239.98 1991.14 1240.6 Q1991.77 1241.19 1991.77 1242.17 Q1991.77 1243.14 1991.1 1243.77 Q1990.44 1244.39 1989.6 1244.39 Q1988.64 1244.39 1988 1243.71 Z" fill="#000000" fill-rule="evenodd" fill-opacity="1" /><path clip-path="url(#clip170)" d="M 0 0 M1998.92 1230.96 Q1998.92 1224.8 2000.47 1221.43 Q2002.65 1216.43 2007.77 1216.43 Q2008.86 1216.43 2009.98 1216.74 Q2011.13 1217.03 2012.57 1218.15 Q2014.02 1219.28 2014.9 1221.13 Q2016.58 1224.69 2016.58 1230.96 Q2016.58 1237.09 2015.02 1240.43 Q2012.75 1245.31 2007.73 1245.31 Q2005.84 1245.31 2003.92 1244.35 Q2002.01 1243.38 2000.8 1241.07 Q1998.92 1237.6 1998.92 1230.96 M2002.4 1230.45 Q2002.4 1236.78 2002.85 1239.31 Q2003.36 1242.03 2004.76 1243.22 Q2006.17 1244.39 2007.73 1244.39 Q2009.41 1244.39 2010.8 1243.14 Q2012.22 1241.87 2012.65 1239.14 Q2013.12 1236.46 2013.1 1230.45 Q2013.1 1224.61 2012.69 1222.27 Q2012.13 1219.55 2010.66 1218.46 Q2009.2 1217.36 2007.73 1217.36 Q2007.18 1217.36 2006.58 1217.52 Q2006.01 1217.68 2005.17 1218.15 Q2004.33 1218.63 2003.67 1219.79 Q2003.04 1220.96 2002.73 1222.73 Q2002.4 1225 2002.4 1230.45 Z" fill="#000000" fill-rule="evenodd" fill-opacity="1" /><path clip-path="url(#clip170)" d="M 0 0 M2020.29 1243.71 Q2019.7 1243.04 2019.7 1242.15 Q2019.7 1241.27 2020.27 1240.62 Q2020.87 1239.94 2021.93 1239.94 Q2023.18 1239.94 2023.9 1241.15 Q2024.62 1242.34 2024.62 1244.35 Q2024.62 1246.52 2023.73 1248.53 Q2022.85 1250.56 2021.99 1251.52 Q2021.13 1252.48 2020.78 1252.48 Q2020.37 1252.48 2020.37 1252.03 Q2020.37 1251.87 2020.66 1251.56 Q2023.67 1248.32 2023.69 1244.35 Q2023.69 1243.71 2023.61 1243.71 L2023.51 1243.79 Q2022.79 1244.39 2021.93 1244.39 Q2020.89 1244.39 2020.29 1243.71 Z" fill="#000000" fill-rule="evenodd" fill-opacity="1" /><path clip-path="url(#clip170)" d="M 0 0 M2058.46 1238.38 Q2057.94 1240.9 2056.9 1242.67 Q2055.61 1244.86 2053.64 1244.86 Q2051.98 1244.86 2050.87 1243.71 Q2049.77 1242.54 2049.77 1240.7 Q2049.77 1240.15 2049.99 1239.22 Q2050.07 1238.81 2050.07 1238.3 Q2050.07 1234.98 2042.88 1234.74 Q2042.29 1237.09 2041.88 1238.69 Q2041.49 1240.27 2041.36 1240.74 Q2041.24 1241.21 2041.14 1241.6 Q2041.06 1241.99 2040.91 1242.5 Q2040.71 1243.34 2040.56 1243.75 Q2040.42 1244.16 2040.03 1244.51 Q2039.66 1244.86 2039.07 1244.86 Q2038.56 1244.86 2038.21 1244.55 Q2037.86 1244.24 2037.86 1243.71 Q2037.86 1243.34 2038.02 1242.75 L2041.88 1227.36 Q2041.98 1226.93 2042.18 1226.62 Q2042.39 1226.31 2042.57 1226.17 Q2042.78 1226.02 2043.02 1225.94 Q2043.27 1225.86 2043.37 1225.86 Q2043.47 1225.84 2043.56 1225.84 Q2044.11 1225.84 2044.44 1226.15 Q2044.79 1226.43 2044.79 1226.97 Q2044.79 1227.05 2044.64 1227.62 Q2044.52 1228.18 2044.31 1229.02 Q2044.11 1229.86 2044.03 1230.25 L2043.19 1233.53 Q2044.36 1233.14 2045.4 1232.44 Q2046.47 1231.74 2048.56 1229.94 Q2049.52 1229.14 2050.09 1228.69 Q2050.69 1228.22 2051.67 1227.58 Q2052.66 1226.93 2053.6 1226.62 Q2054.54 1226.29 2055.44 1226.29 Q2056.14 1226.29 2056.55 1226.62 Q2056.96 1226.93 2057.04 1227.21 Q2057.12 1227.48 2057.12 1227.77 Q2057.12 1228.61 2056.47 1229.32 Q2055.81 1230.04 2054.85 1230.04 Q2053.99 1230.04 2053.62 1229.57 Q2053.25 1229.1 2053.25 1228.57 Q2053.25 1228.16 2053.46 1227.64 Q2052.31 1228.14 2051.32 1228.85 Q2050.34 1229.55 2048.64 1231.01 Q2046.22 1233.07 2044.79 1233.85 Q2045.61 1233.87 2046.22 1233.94 Q2046.86 1233.98 2047.92 1234.12 Q2048.99 1234.26 2049.77 1234.57 Q2050.54 1234.86 2051.3 1235.31 Q2052.08 1235.76 2052.49 1236.5 Q2052.92 1237.24 2052.92 1238.18 Q2052.92 1238.63 2052.72 1239.55 Q2052.37 1241.07 2052.37 1241.91 Q2052.37 1242.97 2052.7 1243.45 Q2053.05 1243.92 2053.72 1243.92 Q2055.01 1243.92 2055.83 1242.58 Q2056.67 1241.23 2057.37 1238.73 Q2057.47 1238.26 2057.57 1238.12 Q2057.68 1237.97 2057.96 1237.97 Q2058.46 1237.97 2058.46 1238.38 Z" fill="#000000" fill-rule="evenodd" fill-opacity="1" /><path clip-path="url(#clip170)" d="M 0 0 M2073.43 1238.01 Q2073.47 1237.5 2074.27 1237.5 L2099.99 1237.5 Q2101.2 1237.5 2101.22 1237.97 Q2101.22 1238.49 2100.07 1238.47 L2074.56 1238.47 Q2073.43 1238.49 2073.43 1238.01 M2073.43 1229.82 Q2073.43 1229.3 2074.31 1229.32 L2099.95 1229.32 Q2101.2 1229.32 2101.22 1229.82 Q2101.22 1230.29 2100.16 1230.29 L2074.27 1230.29 Q2073.43 1230.29 2073.43 1229.82 Z" fill="#000000" fill-rule="evenodd" fill-opacity="1" /><path clip-path="url(#clip170)" d="M 0 0 M2117.41 1237.62 Q2117.41 1236.37 2118.08 1235.9 Q2118.76 1235.41 2119.48 1235.41 Q2120.44 1235.41 2120.99 1236.03 Q2121.57 1236.62 2121.57 1237.46 Q2121.57 1238.3 2120.99 1238.92 Q2120.44 1239.51 2119.48 1239.51 Q2119 1239.51 2118.76 1239.43 Q2119.31 1241.35 2120.99 1242.75 Q2122.69 1244.14 2124.93 1244.14 Q2127.73 1244.14 2129.42 1241.42 Q2130.42 1239.65 2130.42 1235.66 Q2130.42 1232.13 2129.66 1230.37 Q2128.49 1227.68 2126.1 1227.68 Q2122.69 1227.68 2120.68 1230.62 Q2120.44 1230.98 2120.15 1231.01 Q2119.74 1231.01 2119.64 1230.78 Q2119.56 1230.53 2119.56 1229.9 L2119.56 1217.48 Q2119.56 1216.47 2119.97 1216.47 Q2120.13 1216.47 2120.48 1216.6 Q2123.12 1217.77 2126.05 1217.79 Q2129.07 1217.79 2131.77 1216.56 Q2131.98 1216.43 2132.1 1216.43 Q2132.51 1216.43 2132.53 1216.9 Q2132.53 1217.07 2132.18 1217.56 Q2131.85 1218.03 2131.14 1218.67 Q2130.42 1219.28 2129.5 1219.88 Q2128.58 1220.47 2127.22 1220.88 Q2125.89 1221.27 2124.41 1221.27 Q2122.65 1221.27 2120.85 1220.72 L2120.85 1228.89 Q2123.02 1226.76 2126.18 1226.76 Q2129.54 1226.76 2131.85 1229.47 Q2134.17 1232.17 2134.17 1235.94 Q2134.17 1239.9 2131.42 1242.6 Q2128.7 1245.31 2125.01 1245.31 Q2121.65 1245.31 2119.52 1242.91 Q2117.41 1240.51 2117.41 1237.62 Z" fill="#000000" fill-rule="evenodd" fill-opacity="1" /><path clip-path="url(#clip170)" d="M 0 0 M2138.19 1230.96 Q2138.19 1224.8 2139.74 1221.43 Q2141.92 1216.43 2147.04 1216.43 Q2148.13 1216.43 2149.25 1216.74 Q2150.4 1217.03 2151.84 1218.15 Q2153.29 1219.28 2154.17 1221.13 Q2155.85 1224.69 2155.85 1230.96 Q2155.85 1237.09 2154.3 1240.43 Q2152.02 1245.31 2147 1245.31 Q2145.11 1245.31 2143.19 1244.35 Q2141.28 1243.38 2140.07 1241.07 Q2138.19 1237.6 2138.19 1230.96 M2141.67 1230.45 Q2141.67 1236.78 2142.12 1239.31 Q2142.63 1242.03 2144.03 1243.22 Q2145.44 1244.39 2147 1244.39 Q2148.68 1244.39 2150.07 1243.14 Q2151.49 1241.87 2151.92 1239.14 Q2152.39 1236.46 2152.37 1230.45 Q2152.37 1224.61 2151.96 1222.27 Q2151.41 1219.55 2149.93 1218.46 Q2148.48 1217.36 2147 1217.36 Q2146.45 1217.36 2145.85 1217.52 Q2145.28 1217.68 2144.44 1218.15 Q2143.6 1218.63 2142.94 1219.79 Q2142.31 1220.96 2142 1222.73 Q2141.67 1225 2141.67 1230.45 Z" fill="#000000" fill-rule="evenodd" fill-opacity="1" /><path clip-path="url(#clip170)" d="M 0 0 M2159.6 1243.71 Q2158.97 1243.04 2158.97 1242.15 Q2158.97 1241.27 2159.6 1240.64 Q2160.24 1239.98 2161.2 1239.98 Q2162.12 1239.98 2162.74 1240.6 Q2163.37 1241.19 2163.37 1242.17 Q2163.37 1243.14 2162.7 1243.77 Q2162.04 1244.39 2161.2 1244.39 Q2160.24 1244.39 2159.6 1243.71 Z" fill="#000000" fill-rule="evenodd" fill-opacity="1" /><path clip-path="url(#clip170)" d="M 0 0 M2170.52 1230.96 Q2170.52 1224.8 2172.07 1221.43 Q2174.25 1216.43 2179.37 1216.43 Q2180.46 1216.43 2181.58 1216.74 Q2182.73 1217.03 2184.16 1218.15 Q2185.62 1219.28 2186.5 1221.13 Q2188.18 1224.69 2188.18 1230.96 Q2188.18 1237.09 2186.62 1240.43 Q2184.35 1245.31 2179.33 1245.31 Q2177.44 1245.31 2175.52 1244.35 Q2173.61 1243.38 2172.4 1241.07 Q2170.52 1237.6 2170.52 1230.96 M2174 1230.45 Q2174 1236.78 2174.45 1239.31 Q2174.96 1242.03 2176.36 1243.22 Q2177.77 1244.39 2179.33 1244.39 Q2181.01 1244.39 2182.4 1243.14 Q2183.82 1241.87 2184.25 1239.14 Q2184.72 1236.46 2184.7 1230.45 Q2184.7 1224.61 2184.29 1222.27 Q2183.73 1219.55 2182.26 1218.46 Q2180.8 1217.36 2179.33 1217.36 Q2178.77 1217.36 2178.18 1217.52 Q2177.61 1217.68 2176.77 1218.15 Q2175.93 1218.63 2175.27 1219.79 Q2174.63 1220.96 2174.33 1222.73 Q2174 1225 2174 1230.45 Z" fill="#000000" fill-rule="evenodd" fill-opacity="1" /><polyline clip-path="url(#clip170)" style="stroke:#aa0055; stroke-width:3.5; stroke-opacity:1; fill:none" points="
  1698.06,1287.25 1841.93,1287.25 
  "/>
<path clip-path="url(#clip170)" d="M 0 0 M1894.46 1269.35 Q1894.46 1269.74 1894.38 1270.07 L1893.23 1277.37 Q1893.17 1277.92 1893.05 1278.13 Q1892.95 1278.33 1892.62 1278.33 Q1892.11 1278.33 1892.11 1277.8 Q1892.11 1277.49 1892.23 1277 Q1892.58 1274.68 1892.58 1273.64 Q1892.58 1272.94 1892.43 1272.43 Q1892.31 1271.89 1892.11 1271.53 Q1891.92 1271.16 1891.49 1270.91 Q1891.06 1270.66 1890.65 1270.52 Q1890.24 1270.38 1889.5 1270.32 Q1888.77 1270.23 1888.13 1270.21 Q1887.49 1270.19 1886.45 1270.19 Q1884.17 1270.19 1883.81 1270.28 Q1883.42 1270.38 1883.21 1270.69 Q1883.03 1270.97 1882.82 1271.83 L1877.25 1294.11 L1877.08 1294.99 Q1877.08 1295.48 1877.39 1295.65 Q1877.7 1295.81 1878.64 1295.91 Q1879.99 1296.02 1881.33 1296.02 Q1881.37 1296.02 1881.45 1296.02 Q1881.9 1296.02 1882.08 1296.04 Q1882.27 1296.04 1882.45 1296.08 Q1882.64 1296.12 1882.68 1296.22 Q1882.74 1296.3 1882.74 1296.47 Q1882.74 1296.86 1882.58 1297.06 Q1882.41 1297.25 1882.25 1297.29 Q1882.1 1297.31 1881.82 1297.31 Q1881.24 1297.31 1880.01 1297.27 Q1878.78 1297.23 1878.17 1297.23 L1874.69 1297.19 L1871.12 1297.23 Q1870.57 1297.23 1869.4 1297.27 Q1868.23 1297.31 1867.68 1297.31 Q1866.96 1297.31 1866.96 1296.8 Q1866.96 1296.22 1867.23 1296.12 Q1867.51 1296.02 1868.72 1296.02 Q1870.42 1296.02 1871.35 1295.93 Q1872.27 1295.85 1872.76 1295.57 Q1873.27 1295.28 1873.42 1294.99 Q1873.56 1294.68 1873.72 1293.99 L1879.36 1271.59 Q1879.52 1271.1 1879.52 1270.71 Q1879.52 1270.5 1879.46 1270.42 Q1879.42 1270.34 1879.15 1270.28 Q1878.89 1270.19 1878.33 1270.19 L1876.69 1270.19 Q1875.01 1270.19 1873.97 1270.28 Q1872.94 1270.34 1871.96 1270.64 Q1871 1270.95 1870.42 1271.38 Q1869.87 1271.81 1869.25 1272.69 Q1868.64 1273.58 1868.19 1274.64 Q1867.76 1275.71 1867.14 1277.45 Q1866.94 1278.02 1866.82 1278.19 Q1866.71 1278.33 1866.43 1278.33 Q1866.22 1278.33 1866.06 1278.21 Q1865.91 1278.06 1865.91 1277.88 Q1866.12 1277.2 1866.16 1277.12 L1868.68 1269.72 Q1868.89 1269.13 1869.07 1269.03 Q1869.28 1268.9 1870.03 1268.9 L1893.32 1268.9 Q1893.68 1268.9 1893.81 1268.9 Q1893.93 1268.9 1894.14 1268.94 Q1894.34 1268.98 1894.4 1269.09 Q1894.46 1269.19 1894.46 1269.35 Z" fill="#000000" fill-rule="evenodd" fill-opacity="1" /><path clip-path="url(#clip170)" d="M 0 0 M1901.83 1290.93 Q1901.87 1290.42 1902.67 1290.42 L1928.39 1290.42 Q1929.6 1290.42 1929.62 1290.89 Q1929.62 1291.41 1928.47 1291.39 L1902.96 1291.39 Q1901.83 1291.41 1901.83 1290.93 M1901.83 1282.74 Q1901.83 1282.22 1902.71 1282.24 L1928.35 1282.24 Q1929.6 1282.24 1929.62 1282.74 Q1929.62 1283.21 1928.56 1283.21 L1902.67 1283.21 Q1901.83 1283.21 1901.83 1282.74 Z" fill="#000000" fill-rule="evenodd" fill-opacity="1" /><path clip-path="url(#clip170)" d="M 0 0 M1945.81 1290.54 Q1945.81 1289.29 1946.48 1288.82 Q1947.16 1288.33 1947.88 1288.33 Q1948.84 1288.33 1949.39 1288.95 Q1949.97 1289.54 1949.97 1290.38 Q1949.97 1291.22 1949.39 1291.84 Q1948.84 1292.43 1947.88 1292.43 Q1947.4 1292.43 1947.16 1292.35 Q1947.71 1294.27 1949.39 1295.67 Q1951.09 1297.06 1953.33 1297.06 Q1956.14 1297.06 1957.82 1294.34 Q1958.82 1292.57 1958.82 1288.58 Q1958.82 1285.05 1958.06 1283.29 Q1956.89 1280.6 1954.5 1280.6 Q1951.09 1280.6 1949.09 1283.54 Q1948.84 1283.9 1948.55 1283.93 Q1948.14 1283.93 1948.04 1283.7 Q1947.96 1283.45 1947.96 1282.82 L1947.96 1270.4 Q1947.96 1269.39 1948.37 1269.39 Q1948.53 1269.39 1948.88 1269.52 Q1951.52 1270.69 1954.45 1270.71 Q1957.47 1270.71 1960.17 1269.48 Q1960.38 1269.35 1960.5 1269.35 Q1960.91 1269.35 1960.93 1269.82 Q1960.93 1269.99 1960.58 1270.48 Q1960.25 1270.95 1959.54 1271.59 Q1958.82 1272.2 1957.9 1272.8 Q1956.98 1273.39 1955.62 1273.8 Q1954.29 1274.19 1952.82 1274.19 Q1951.05 1274.19 1949.25 1273.64 L1949.25 1281.81 Q1951.42 1279.68 1954.58 1279.68 Q1957.94 1279.68 1960.25 1282.39 Q1962.57 1285.09 1962.57 1288.86 Q1962.57 1292.82 1959.82 1295.52 Q1957.1 1298.23 1953.41 1298.23 Q1950.05 1298.23 1947.92 1295.83 Q1945.81 1293.43 1945.81 1290.54 Z" fill="#000000" fill-rule="evenodd" fill-opacity="1" /><path clip-path="url(#clip170)" d="M 0 0 M1966.59 1283.88 Q1966.59 1277.72 1968.14 1274.35 Q1970.32 1269.35 1975.44 1269.35 Q1976.53 1269.35 1977.65 1269.66 Q1978.8 1269.95 1980.24 1271.07 Q1981.69 1272.2 1982.57 1274.05 Q1984.25 1277.61 1984.25 1283.88 Q1984.25 1290.01 1982.7 1293.35 Q1980.42 1298.23 1975.4 1298.23 Q1973.51 1298.23 1971.59 1297.27 Q1969.68 1296.3 1968.47 1293.99 Q1966.59 1290.52 1966.59 1283.88 M1970.07 1283.37 Q1970.07 1289.7 1970.52 1292.23 Q1971.03 1294.95 1972.43 1296.14 Q1973.84 1297.31 1975.4 1297.31 Q1977.08 1297.31 1978.47 1296.06 Q1979.89 1294.79 1980.32 1292.06 Q1980.79 1289.38 1980.77 1283.37 Q1980.77 1277.53 1980.36 1275.19 Q1979.81 1272.47 1978.33 1271.38 Q1976.88 1270.28 1975.4 1270.28 Q1974.85 1270.28 1974.25 1270.44 Q1973.68 1270.6 1972.84 1271.07 Q1972 1271.55 1971.34 1272.71 Q1970.71 1273.88 1970.4 1275.65 Q1970.07 1277.92 1970.07 1283.37 Z" fill="#000000" fill-rule="evenodd" fill-opacity="1" /><path clip-path="url(#clip170)" d="M 0 0 M1988 1296.63 Q1987.37 1295.96 1987.37 1295.07 Q1987.37 1294.19 1988 1293.56 Q1988.64 1292.9 1989.6 1292.9 Q1990.52 1292.9 1991.14 1293.52 Q1991.77 1294.11 1991.77 1295.09 Q1991.77 1296.06 1991.1 1296.69 Q1990.44 1297.31 1989.6 1297.31 Q1988.64 1297.31 1988 1296.63 Z" fill="#000000" fill-rule="evenodd" fill-opacity="1" /><path clip-path="url(#clip170)" d="M 0 0 M1998.92 1283.88 Q1998.92 1277.72 2000.47 1274.35 Q2002.65 1269.35 2007.77 1269.35 Q2008.86 1269.35 2009.98 1269.66 Q2011.13 1269.95 2012.57 1271.07 Q2014.02 1272.2 2014.9 1274.05 Q2016.58 1277.61 2016.58 1283.88 Q2016.58 1290.01 2015.02 1293.35 Q2012.75 1298.23 2007.73 1298.23 Q2005.84 1298.23 2003.92 1297.27 Q2002.01 1296.3 2000.8 1293.99 Q1998.92 1290.52 1998.92 1283.88 M2002.4 1283.37 Q2002.4 1289.7 2002.85 1292.23 Q2003.36 1294.95 2004.76 1296.14 Q2006.17 1297.31 2007.73 1297.31 Q2009.41 1297.31 2010.8 1296.06 Q2012.22 1294.79 2012.65 1292.06 Q2013.12 1289.38 2013.1 1283.37 Q2013.1 1277.53 2012.69 1275.19 Q2012.13 1272.47 2010.66 1271.38 Q2009.2 1270.28 2007.73 1270.28 Q2007.18 1270.28 2006.58 1270.44 Q2006.01 1270.6 2005.17 1271.07 Q2004.33 1271.55 2003.67 1272.71 Q2003.04 1273.88 2002.73 1275.65 Q2002.4 1277.92 2002.4 1283.37 Z" fill="#000000" fill-rule="evenodd" fill-opacity="1" /><path clip-path="url(#clip170)" d="M 0 0 M2020.29 1296.63 Q2019.7 1295.96 2019.7 1295.07 Q2019.7 1294.19 2020.27 1293.54 Q2020.87 1292.86 2021.93 1292.86 Q2023.18 1292.86 2023.9 1294.07 Q2024.62 1295.26 2024.62 1297.27 Q2024.62 1299.44 2023.73 1301.45 Q2022.85 1303.48 2021.99 1304.44 Q2021.13 1305.4 2020.78 1305.4 Q2020.37 1305.4 2020.37 1304.95 Q2020.37 1304.79 2020.66 1304.48 Q2023.67 1301.24 2023.69 1297.27 Q2023.69 1296.63 2023.61 1296.63 L2023.51 1296.71 Q2022.79 1297.31 2021.93 1297.31 Q2020.89 1297.31 2020.29 1296.63 Z" fill="#000000" fill-rule="evenodd" fill-opacity="1" /><path clip-path="url(#clip170)" d="M 0 0 M2058.46 1291.3 Q2057.94 1293.82 2056.9 1295.59 Q2055.61 1297.78 2053.64 1297.78 Q2051.98 1297.78 2050.87 1296.63 Q2049.77 1295.46 2049.77 1293.62 Q2049.77 1293.07 2049.99 1292.14 Q2050.07 1291.73 2050.07 1291.22 Q2050.07 1287.9 2042.88 1287.66 Q2042.29 1290.01 2041.88 1291.61 Q2041.49 1293.19 2041.36 1293.66 Q2041.24 1294.13 2041.14 1294.52 Q2041.06 1294.91 2040.91 1295.42 Q2040.71 1296.26 2040.56 1296.67 Q2040.42 1297.08 2040.03 1297.43 Q2039.66 1297.78 2039.07 1297.78 Q2038.56 1297.78 2038.21 1297.47 Q2037.86 1297.16 2037.86 1296.63 Q2037.86 1296.26 2038.02 1295.67 L2041.88 1280.28 Q2041.98 1279.85 2042.18 1279.54 Q2042.39 1279.23 2042.57 1279.09 Q2042.78 1278.94 2043.02 1278.86 Q2043.27 1278.78 2043.37 1278.78 Q2043.47 1278.76 2043.56 1278.76 Q2044.11 1278.76 2044.44 1279.07 Q2044.79 1279.35 2044.79 1279.89 Q2044.79 1279.97 2044.64 1280.54 Q2044.52 1281.1 2044.31 1281.94 Q2044.11 1282.78 2044.03 1283.17 L2043.19 1286.45 Q2044.36 1286.06 2045.4 1285.36 Q2046.47 1284.66 2048.56 1282.86 Q2049.52 1282.06 2050.09 1281.61 Q2050.69 1281.14 2051.67 1280.5 Q2052.66 1279.85 2053.6 1279.54 Q2054.54 1279.21 2055.44 1279.21 Q2056.14 1279.21 2056.55 1279.54 Q2056.96 1279.85 2057.04 1280.13 Q2057.12 1280.4 2057.12 1280.69 Q2057.12 1281.53 2056.47 1282.24 Q2055.81 1282.96 2054.85 1282.96 Q2053.99 1282.96 2053.62 1282.49 Q2053.25 1282.02 2053.25 1281.49 Q2053.25 1281.08 2053.46 1280.56 Q2052.31 1281.06 2051.32 1281.77 Q2050.34 1282.47 2048.64 1283.93 Q2046.22 1285.99 2044.79 1286.77 Q2045.61 1286.79 2046.22 1286.86 Q2046.86 1286.9 2047.92 1287.04 Q2048.99 1287.18 2049.77 1287.49 Q2050.54 1287.78 2051.3 1288.23 Q2052.08 1288.68 2052.49 1289.42 Q2052.92 1290.16 2052.92 1291.1 Q2052.92 1291.55 2052.72 1292.47 Q2052.37 1293.99 2052.37 1294.83 Q2052.37 1295.89 2052.7 1296.37 Q2053.05 1296.84 2053.72 1296.84 Q2055.01 1296.84 2055.83 1295.5 Q2056.67 1294.15 2057.37 1291.65 Q2057.47 1291.18 2057.57 1291.04 Q2057.68 1290.89 2057.96 1290.89 Q2058.46 1290.89 2058.46 1291.3 Z" fill="#000000" fill-rule="evenodd" fill-opacity="1" /><path clip-path="url(#clip170)" d="M 0 0 M2073.43 1290.93 Q2073.47 1290.42 2074.27 1290.42 L2099.99 1290.42 Q2101.2 1290.42 2101.22 1290.89 Q2101.22 1291.41 2100.07 1291.39 L2074.56 1291.39 Q2073.43 1291.41 2073.43 1290.93 M2073.43 1282.74 Q2073.43 1282.22 2074.31 1282.24 L2099.95 1282.24 Q2101.2 1282.24 2101.22 1282.74 Q2101.22 1283.21 2100.16 1283.21 L2074.27 1283.21 Q2073.43 1283.21 2073.43 1282.74 Z" fill="#000000" fill-rule="evenodd" fill-opacity="1" /><path clip-path="url(#clip170)" d="M 0 0 M2117.41 1290.54 Q2117.41 1289.29 2118.08 1288.82 Q2118.76 1288.33 2119.48 1288.33 Q2120.44 1288.33 2120.99 1288.95 Q2121.57 1289.54 2121.57 1290.38 Q2121.57 1291.22 2120.99 1291.84 Q2120.44 1292.43 2119.48 1292.43 Q2119 1292.43 2118.76 1292.35 Q2119.31 1294.27 2120.99 1295.67 Q2122.69 1297.06 2124.93 1297.06 Q2127.73 1297.06 2129.42 1294.34 Q2130.42 1292.57 2130.42 1288.58 Q2130.42 1285.05 2129.66 1283.29 Q2128.49 1280.6 2126.1 1280.6 Q2122.69 1280.6 2120.68 1283.54 Q2120.44 1283.9 2120.15 1283.93 Q2119.74 1283.93 2119.64 1283.7 Q2119.56 1283.45 2119.56 1282.82 L2119.56 1270.4 Q2119.56 1269.39 2119.97 1269.39 Q2120.13 1269.39 2120.48 1269.52 Q2123.12 1270.69 2126.05 1270.71 Q2129.07 1270.71 2131.77 1269.48 Q2131.98 1269.35 2132.1 1269.35 Q2132.51 1269.35 2132.53 1269.82 Q2132.53 1269.99 2132.18 1270.48 Q2131.85 1270.95 2131.14 1271.59 Q2130.42 1272.2 2129.5 1272.8 Q2128.58 1273.39 2127.22 1273.8 Q2125.89 1274.19 2124.41 1274.19 Q2122.65 1274.19 2120.85 1273.64 L2120.85 1281.81 Q2123.02 1279.68 2126.18 1279.68 Q2129.54 1279.68 2131.85 1282.39 Q2134.17 1285.09 2134.17 1288.86 Q2134.17 1292.82 2131.42 1295.52 Q2128.7 1298.23 2125.01 1298.23 Q2121.65 1298.23 2119.52 1295.83 Q2117.41 1293.43 2117.41 1290.54 Z" fill="#000000" fill-rule="evenodd" fill-opacity="1" /><path clip-path="url(#clip170)" d="M 0 0 M2138.19 1283.88 Q2138.19 1277.72 2139.74 1274.35 Q2141.92 1269.35 2147.04 1269.35 Q2148.13 1269.35 2149.25 1269.66 Q2150.4 1269.95 2151.84 1271.07 Q2153.29 1272.2 2154.17 1274.05 Q2155.85 1277.61 2155.85 1283.88 Q2155.85 1290.01 2154.3 1293.35 Q2152.02 1298.23 2147 1298.23 Q2145.11 1298.23 2143.19 1297.27 Q2141.28 1296.3 2140.07 1293.99 Q2138.19 1290.52 2138.19 1283.88 M2141.67 1283.37 Q2141.67 1289.7 2142.12 1292.23 Q2142.63 1294.95 2144.03 1296.14 Q2145.44 1297.31 2147 1297.31 Q2148.68 1297.31 2150.07 1296.06 Q2151.49 1294.79 2151.92 1292.06 Q2152.39 1289.38 2152.37 1283.37 Q2152.37 1277.53 2151.96 1275.19 Q2151.41 1272.47 2149.93 1271.38 Q2148.48 1270.28 2147 1270.28 Q2146.45 1270.28 2145.85 1270.44 Q2145.28 1270.6 2144.44 1271.07 Q2143.6 1271.55 2142.94 1272.71 Q2142.31 1273.88 2142 1275.65 Q2141.67 1277.92 2141.67 1283.37 Z" fill="#000000" fill-rule="evenodd" fill-opacity="1" /><path clip-path="url(#clip170)" d="M 0 0 M2158.97 1283.88 Q2158.97 1277.72 2160.53 1274.35 Q2162.7 1269.35 2167.82 1269.35 Q2168.91 1269.35 2170.04 1269.66 Q2171.18 1269.95 2172.62 1271.07 Q2174.07 1272.2 2174.95 1274.05 Q2176.63 1277.61 2176.63 1283.88 Q2176.63 1290.01 2175.08 1293.35 Q2172.8 1298.23 2167.78 1298.23 Q2165.9 1298.23 2163.97 1297.27 Q2162.06 1296.3 2160.85 1293.99 Q2158.97 1290.52 2158.97 1283.88 M2162.45 1283.37 Q2162.45 1289.7 2162.9 1292.23 Q2163.42 1294.95 2164.81 1296.14 Q2166.22 1297.31 2167.78 1297.31 Q2169.46 1297.31 2170.85 1296.06 Q2172.27 1294.79 2172.7 1292.06 Q2173.17 1289.38 2173.15 1283.37 Q2173.15 1277.53 2172.74 1275.19 Q2172.19 1272.47 2170.71 1271.38 Q2169.26 1270.28 2167.78 1270.28 Q2167.23 1270.28 2166.63 1270.44 Q2166.06 1270.6 2165.22 1271.07 Q2164.38 1271.55 2163.72 1272.71 Q2163.09 1273.88 2162.78 1275.65 Q2162.45 1277.92 2162.45 1283.37 Z" fill="#000000" fill-rule="evenodd" fill-opacity="1" /><path clip-path="url(#clip170)" d="M 0 0 M2180.38 1296.63 Q2179.75 1295.96 2179.75 1295.07 Q2179.75 1294.19 2180.38 1293.56 Q2181.02 1292.9 2181.98 1292.9 Q2182.91 1292.9 2183.52 1293.52 Q2184.16 1294.11 2184.16 1295.09 Q2184.16 1296.06 2183.48 1296.69 Q2182.82 1297.31 2181.98 1297.31 Q2181.02 1297.31 2180.38 1296.63 Z" fill="#000000" fill-rule="evenodd" fill-opacity="1" /><path clip-path="url(#clip170)" d="M 0 0 M2191.3 1283.88 Q2191.3 1277.72 2192.85 1274.35 Q2195.03 1269.35 2200.15 1269.35 Q2201.24 1269.35 2202.36 1269.66 Q2203.51 1269.95 2204.95 1271.07 Q2206.4 1272.2 2207.28 1274.05 Q2208.96 1277.61 2208.96 1283.88 Q2208.96 1290.01 2207.41 1293.35 Q2205.13 1298.23 2200.11 1298.23 Q2198.22 1298.23 2196.3 1297.27 Q2194.39 1296.3 2193.18 1293.99 Q2191.3 1290.52 2191.3 1283.88 M2194.78 1283.37 Q2194.78 1289.7 2195.23 1292.23 Q2195.74 1294.95 2197.14 1296.14 Q2198.55 1297.31 2200.11 1297.31 Q2201.79 1297.31 2203.18 1296.06 Q2204.6 1294.79 2205.03 1292.06 Q2205.5 1289.38 2205.48 1283.37 Q2205.48 1277.53 2205.07 1275.19 Q2204.52 1272.47 2203.04 1271.38 Q2201.58 1270.28 2200.11 1270.28 Q2199.56 1270.28 2198.96 1270.44 Q2198.39 1270.6 2197.55 1271.07 Q2196.71 1271.55 2196.05 1272.71 Q2195.42 1273.88 2195.11 1275.65 Q2194.78 1277.92 2194.78 1283.37 Z" fill="#000000" fill-rule="evenodd" fill-opacity="1" /><polyline clip-path="url(#clip170)" style="stroke:#ff0000; stroke-width:3.5; stroke-opacity:1; fill:none" points="
  1698.06,1340.17 1841.93,1340.17 
  "/>
<path clip-path="url(#clip170)" d="M 0 0 M1894.46 1322.27 Q1894.46 1322.66 1894.38 1322.99 L1893.23 1330.29 Q1893.17 1330.84 1893.05 1331.05 Q1892.95 1331.25 1892.62 1331.25 Q1892.11 1331.25 1892.11 1330.72 Q1892.11 1330.41 1892.23 1329.92 Q1892.58 1327.6 1892.58 1326.56 Q1892.58 1325.86 1892.43 1325.35 Q1892.31 1324.81 1892.11 1324.45 Q1891.92 1324.08 1891.49 1323.83 Q1891.06 1323.58 1890.65 1323.44 Q1890.24 1323.3 1889.5 1323.24 Q1888.77 1323.15 1888.13 1323.13 Q1887.49 1323.11 1886.45 1323.11 Q1884.17 1323.11 1883.81 1323.2 Q1883.42 1323.3 1883.21 1323.61 Q1883.03 1323.89 1882.82 1324.75 L1877.25 1347.03 L1877.08 1347.91 Q1877.08 1348.4 1877.39 1348.57 Q1877.7 1348.73 1878.64 1348.83 Q1879.99 1348.94 1881.33 1348.94 Q1881.37 1348.94 1881.45 1348.94 Q1881.9 1348.94 1882.08 1348.96 Q1882.27 1348.96 1882.45 1349 Q1882.64 1349.04 1882.68 1349.14 Q1882.74 1349.22 1882.74 1349.39 Q1882.74 1349.78 1882.58 1349.98 Q1882.41 1350.17 1882.25 1350.21 Q1882.1 1350.23 1881.82 1350.23 Q1881.24 1350.23 1880.01 1350.19 Q1878.78 1350.15 1878.17 1350.15 L1874.69 1350.11 L1871.12 1350.15 Q1870.57 1350.15 1869.4 1350.19 Q1868.23 1350.23 1867.68 1350.23 Q1866.96 1350.23 1866.96 1349.72 Q1866.96 1349.14 1867.23 1349.04 Q1867.51 1348.94 1868.72 1348.94 Q1870.42 1348.94 1871.35 1348.85 Q1872.27 1348.77 1872.76 1348.49 Q1873.27 1348.2 1873.42 1347.91 Q1873.56 1347.6 1873.72 1346.91 L1879.36 1324.51 Q1879.52 1324.02 1879.52 1323.63 Q1879.52 1323.42 1879.46 1323.34 Q1879.42 1323.26 1879.15 1323.2 Q1878.89 1323.11 1878.33 1323.11 L1876.69 1323.11 Q1875.01 1323.11 1873.97 1323.2 Q1872.94 1323.26 1871.96 1323.56 Q1871 1323.87 1870.42 1324.3 Q1869.87 1324.73 1869.25 1325.61 Q1868.64 1326.5 1868.19 1327.56 Q1867.76 1328.63 1867.14 1330.37 Q1866.94 1330.94 1866.82 1331.11 Q1866.71 1331.25 1866.43 1331.25 Q1866.22 1331.25 1866.06 1331.13 Q1865.91 1330.98 1865.91 1330.8 Q1866.12 1330.12 1866.16 1330.04 L1868.68 1322.64 Q1868.89 1322.05 1869.07 1321.95 Q1869.28 1321.82 1870.03 1321.82 L1893.32 1321.82 Q1893.68 1321.82 1893.81 1321.82 Q1893.93 1321.82 1894.14 1321.86 Q1894.34 1321.9 1894.4 1322.01 Q1894.46 1322.11 1894.46 1322.27 Z" fill="#000000" fill-rule="evenodd" fill-opacity="1" /><path clip-path="url(#clip170)" d="M 0 0 M1901.83 1343.85 Q1901.87 1343.34 1902.67 1343.34 L1928.39 1343.34 Q1929.6 1343.34 1929.62 1343.81 Q1929.62 1344.33 1928.47 1344.31 L1902.96 1344.31 Q1901.83 1344.33 1901.83 1343.85 M1901.83 1335.66 Q1901.83 1335.14 1902.71 1335.16 L1928.35 1335.16 Q1929.6 1335.16 1929.62 1335.66 Q1929.62 1336.13 1928.56 1336.13 L1902.67 1336.13 Q1901.83 1336.13 1901.83 1335.66 Z" fill="#000000" fill-rule="evenodd" fill-opacity="1" /><path clip-path="url(#clip170)" d="M 0 0 M1945.81 1343.46 Q1945.81 1342.21 1946.48 1341.74 Q1947.16 1341.25 1947.88 1341.25 Q1948.84 1341.25 1949.39 1341.87 Q1949.97 1342.46 1949.97 1343.3 Q1949.97 1344.14 1949.39 1344.76 Q1948.84 1345.35 1947.88 1345.35 Q1947.4 1345.35 1947.16 1345.27 Q1947.71 1347.19 1949.39 1348.59 Q1951.09 1349.98 1953.33 1349.98 Q1956.14 1349.98 1957.82 1347.26 Q1958.82 1345.49 1958.82 1341.5 Q1958.82 1337.97 1958.06 1336.21 Q1956.89 1333.52 1954.5 1333.52 Q1951.09 1333.52 1949.09 1336.46 Q1948.84 1336.82 1948.55 1336.85 Q1948.14 1336.85 1948.04 1336.62 Q1947.96 1336.37 1947.96 1335.74 L1947.96 1323.32 Q1947.96 1322.31 1948.37 1322.31 Q1948.53 1322.31 1948.88 1322.44 Q1951.52 1323.61 1954.45 1323.63 Q1957.47 1323.63 1960.17 1322.4 Q1960.38 1322.27 1960.5 1322.27 Q1960.91 1322.27 1960.93 1322.74 Q1960.93 1322.91 1960.58 1323.4 Q1960.25 1323.87 1959.54 1324.51 Q1958.82 1325.12 1957.9 1325.72 Q1956.98 1326.31 1955.62 1326.72 Q1954.29 1327.11 1952.82 1327.11 Q1951.05 1327.11 1949.25 1326.56 L1949.25 1334.73 Q1951.42 1332.6 1954.58 1332.6 Q1957.94 1332.6 1960.25 1335.31 Q1962.57 1338.01 1962.57 1341.78 Q1962.57 1345.74 1959.82 1348.44 Q1957.1 1351.15 1953.41 1351.15 Q1950.05 1351.15 1947.92 1348.75 Q1945.81 1346.35 1945.81 1343.46 Z" fill="#000000" fill-rule="evenodd" fill-opacity="1" /><path clip-path="url(#clip170)" d="M 0 0 M1966.59 1336.8 Q1966.59 1330.64 1968.14 1327.27 Q1970.32 1322.27 1975.44 1322.27 Q1976.53 1322.27 1977.65 1322.58 Q1978.8 1322.87 1980.24 1323.99 Q1981.69 1325.12 1982.57 1326.97 Q1984.25 1330.53 1984.25 1336.8 Q1984.25 1342.93 1982.7 1346.27 Q1980.42 1351.15 1975.4 1351.15 Q1973.51 1351.15 1971.59 1350.19 Q1969.68 1349.22 1968.47 1346.91 Q1966.59 1343.44 1966.59 1336.8 M1970.07 1336.29 Q1970.07 1342.62 1970.52 1345.15 Q1971.03 1347.87 1972.43 1349.06 Q1973.84 1350.23 1975.4 1350.23 Q1977.08 1350.23 1978.47 1348.98 Q1979.89 1347.71 1980.32 1344.98 Q1980.79 1342.3 1980.77 1336.29 Q1980.77 1330.45 1980.36 1328.11 Q1979.81 1325.39 1978.33 1324.3 Q1976.88 1323.2 1975.4 1323.2 Q1974.85 1323.2 1974.25 1323.36 Q1973.68 1323.52 1972.84 1323.99 Q1972 1324.47 1971.34 1325.63 Q1970.71 1326.8 1970.4 1328.57 Q1970.07 1330.84 1970.07 1336.29 Z" fill="#000000" fill-rule="evenodd" fill-opacity="1" /><path clip-path="url(#clip170)" d="M 0 0 M1988 1349.55 Q1987.37 1348.88 1987.37 1347.99 Q1987.37 1347.11 1988 1346.48 Q1988.64 1345.82 1989.6 1345.82 Q1990.52 1345.82 1991.14 1346.44 Q1991.77 1347.03 1991.77 1348.01 Q1991.77 1348.98 1991.1 1349.61 Q1990.44 1350.23 1989.6 1350.23 Q1988.64 1350.23 1988 1349.55 Z" fill="#000000" fill-rule="evenodd" fill-opacity="1" /><path clip-path="url(#clip170)" d="M 0 0 M1998.92 1336.8 Q1998.92 1330.64 2000.47 1327.27 Q2002.65 1322.27 2007.77 1322.27 Q2008.86 1322.27 2009.98 1322.58 Q2011.13 1322.87 2012.57 1323.99 Q2014.02 1325.12 2014.9 1326.97 Q2016.58 1330.53 2016.58 1336.8 Q2016.58 1342.93 2015.02 1346.27 Q2012.75 1351.15 2007.73 1351.15 Q2005.84 1351.15 2003.92 1350.19 Q2002.01 1349.22 2000.8 1346.91 Q1998.92 1343.44 1998.92 1336.8 M2002.4 1336.29 Q2002.4 1342.62 2002.85 1345.15 Q2003.36 1347.87 2004.76 1349.06 Q2006.17 1350.23 2007.73 1350.23 Q2009.41 1350.23 2010.8 1348.98 Q2012.22 1347.71 2012.65 1344.98 Q2013.12 1342.3 2013.1 1336.29 Q2013.1 1330.45 2012.69 1328.11 Q2012.13 1325.39 2010.66 1324.3 Q2009.2 1323.2 2007.73 1323.2 Q2007.18 1323.2 2006.58 1323.36 Q2006.01 1323.52 2005.17 1323.99 Q2004.33 1324.47 2003.67 1325.63 Q2003.04 1326.8 2002.73 1328.57 Q2002.4 1330.84 2002.4 1336.29 Z" fill="#000000" fill-rule="evenodd" fill-opacity="1" /><path clip-path="url(#clip170)" d="M 0 0 M2020.29 1349.55 Q2019.7 1348.88 2019.7 1347.99 Q2019.7 1347.11 2020.27 1346.46 Q2020.87 1345.78 2021.93 1345.78 Q2023.18 1345.78 2023.9 1346.99 Q2024.62 1348.18 2024.62 1350.19 Q2024.62 1352.36 2023.73 1354.37 Q2022.85 1356.4 2021.99 1357.36 Q2021.13 1358.32 2020.78 1358.32 Q2020.37 1358.32 2020.37 1357.87 Q2020.37 1357.71 2020.66 1357.4 Q2023.67 1354.16 2023.69 1350.19 Q2023.69 1349.55 2023.61 1349.55 L2023.51 1349.63 Q2022.79 1350.23 2021.93 1350.23 Q2020.89 1350.23 2020.29 1349.55 Z" fill="#000000" fill-rule="evenodd" fill-opacity="1" /><path clip-path="url(#clip170)" d="M 0 0 M2058.46 1344.22 Q2057.94 1346.74 2056.9 1348.51 Q2055.61 1350.7 2053.64 1350.7 Q2051.98 1350.7 2050.87 1349.55 Q2049.77 1348.38 2049.77 1346.54 Q2049.77 1345.99 2049.99 1345.06 Q2050.07 1344.65 2050.07 1344.14 Q2050.07 1340.82 2042.88 1340.58 Q2042.29 1342.93 2041.88 1344.53 Q2041.49 1346.11 2041.36 1346.58 Q2041.24 1347.05 2041.14 1347.44 Q2041.06 1347.83 2040.91 1348.34 Q2040.71 1349.18 2040.56 1349.59 Q2040.42 1350 2040.03 1350.35 Q2039.66 1350.7 2039.07 1350.7 Q2038.56 1350.7 2038.21 1350.39 Q2037.86 1350.08 2037.86 1349.55 Q2037.86 1349.18 2038.02 1348.59 L2041.88 1333.2 Q2041.98 1332.77 2042.18 1332.46 Q2042.39 1332.15 2042.57 1332.01 Q2042.78 1331.86 2043.02 1331.78 Q2043.27 1331.7 2043.37 1331.7 Q2043.47 1331.68 2043.56 1331.68 Q2044.11 1331.68 2044.44 1331.99 Q2044.79 1332.27 2044.79 1332.81 Q2044.79 1332.89 2044.64 1333.46 Q2044.52 1334.02 2044.31 1334.86 Q2044.11 1335.7 2044.03 1336.09 L2043.19 1339.37 Q2044.36 1338.98 2045.4 1338.28 Q2046.47 1337.58 2048.56 1335.78 Q2049.52 1334.98 2050.09 1334.53 Q2050.69 1334.06 2051.67 1333.42 Q2052.66 1332.77 2053.6 1332.46 Q2054.54 1332.13 2055.44 1332.13 Q2056.14 1332.13 2056.55 1332.46 Q2056.96 1332.77 2057.04 1333.05 Q2057.12 1333.32 2057.12 1333.61 Q2057.12 1334.45 2056.47 1335.16 Q2055.81 1335.88 2054.85 1335.88 Q2053.99 1335.88 2053.62 1335.41 Q2053.25 1334.94 2053.25 1334.41 Q2053.25 1334 2053.46 1333.48 Q2052.31 1333.98 2051.32 1334.69 Q2050.34 1335.39 2048.64 1336.85 Q2046.22 1338.91 2044.79 1339.69 Q2045.61 1339.71 2046.22 1339.78 Q2046.86 1339.82 2047.92 1339.96 Q2048.99 1340.1 2049.77 1340.41 Q2050.54 1340.7 2051.3 1341.15 Q2052.08 1341.6 2052.49 1342.34 Q2052.92 1343.08 2052.92 1344.02 Q2052.92 1344.47 2052.72 1345.39 Q2052.37 1346.91 2052.37 1347.75 Q2052.37 1348.81 2052.7 1349.29 Q2053.05 1349.76 2053.72 1349.76 Q2055.01 1349.76 2055.83 1348.42 Q2056.67 1347.07 2057.37 1344.57 Q2057.47 1344.1 2057.57 1343.96 Q2057.68 1343.81 2057.96 1343.81 Q2058.46 1343.81 2058.46 1344.22 Z" fill="#000000" fill-rule="evenodd" fill-opacity="1" /><path clip-path="url(#clip170)" d="M 0 0 M2073.43 1343.85 Q2073.47 1343.34 2074.27 1343.34 L2099.99 1343.34 Q2101.2 1343.34 2101.22 1343.81 Q2101.22 1344.33 2100.07 1344.31 L2074.56 1344.31 Q2073.43 1344.33 2073.43 1343.85 M2073.43 1335.66 Q2073.43 1335.14 2074.31 1335.16 L2099.95 1335.16 Q2101.2 1335.16 2101.22 1335.66 Q2101.22 1336.13 2100.16 1336.13 L2074.27 1336.13 Q2073.43 1336.13 2073.43 1335.66 Z" fill="#000000" fill-rule="evenodd" fill-opacity="1" /><path clip-path="url(#clip170)" d="M 0 0 M2117.41 1343.46 Q2117.41 1342.21 2118.08 1341.74 Q2118.76 1341.25 2119.48 1341.25 Q2120.44 1341.25 2120.99 1341.87 Q2121.57 1342.46 2121.57 1343.3 Q2121.57 1344.14 2120.99 1344.76 Q2120.44 1345.35 2119.48 1345.35 Q2119 1345.35 2118.76 1345.27 Q2119.31 1347.19 2120.99 1348.59 Q2122.69 1349.98 2124.93 1349.98 Q2127.73 1349.98 2129.42 1347.26 Q2130.42 1345.49 2130.42 1341.5 Q2130.42 1337.97 2129.66 1336.21 Q2128.49 1333.52 2126.1 1333.52 Q2122.69 1333.52 2120.68 1336.46 Q2120.44 1336.82 2120.15 1336.85 Q2119.74 1336.85 2119.64 1336.62 Q2119.56 1336.37 2119.56 1335.74 L2119.56 1323.32 Q2119.56 1322.31 2119.97 1322.31 Q2120.13 1322.31 2120.48 1322.44 Q2123.12 1323.61 2126.05 1323.63 Q2129.07 1323.63 2131.77 1322.4 Q2131.98 1322.27 2132.1 1322.27 Q2132.51 1322.27 2132.53 1322.74 Q2132.53 1322.91 2132.18 1323.4 Q2131.85 1323.87 2131.14 1324.51 Q2130.42 1325.12 2129.5 1325.72 Q2128.58 1326.31 2127.22 1326.72 Q2125.89 1327.11 2124.41 1327.11 Q2122.65 1327.11 2120.85 1326.56 L2120.85 1334.73 Q2123.02 1332.6 2126.18 1332.6 Q2129.54 1332.6 2131.85 1335.31 Q2134.17 1338.01 2134.17 1341.78 Q2134.17 1345.74 2131.42 1348.44 Q2128.7 1351.15 2125.01 1351.15 Q2121.65 1351.15 2119.52 1348.75 Q2117.41 1346.35 2117.41 1343.46 Z" fill="#000000" fill-rule="evenodd" fill-opacity="1" /><path clip-path="url(#clip170)" d="M 0 0 M2138.19 1336.8 Q2138.19 1330.64 2139.74 1327.27 Q2141.92 1322.27 2147.04 1322.27 Q2148.13 1322.27 2149.25 1322.58 Q2150.4 1322.87 2151.84 1323.99 Q2153.29 1325.12 2154.17 1326.97 Q2155.85 1330.53 2155.85 1336.8 Q2155.85 1342.93 2154.3 1346.27 Q2152.02 1351.15 2147 1351.15 Q2145.11 1351.15 2143.19 1350.19 Q2141.28 1349.22 2140.07 1346.91 Q2138.19 1343.44 2138.19 1336.8 M2141.67 1336.29 Q2141.67 1342.62 2142.12 1345.15 Q2142.63 1347.87 2144.03 1349.06 Q2145.44 1350.23 2147 1350.23 Q2148.68 1350.23 2150.07 1348.98 Q2151.49 1347.71 2151.92 1344.98 Q2152.39 1342.3 2152.37 1336.29 Q2152.37 1330.45 2151.96 1328.11 Q2151.41 1325.39 2149.93 1324.3 Q2148.48 1323.2 2147 1323.2 Q2146.45 1323.2 2145.85 1323.36 Q2145.28 1323.52 2144.44 1323.99 Q2143.6 1324.47 2142.94 1325.63 Q2142.31 1326.8 2142 1328.57 Q2141.67 1330.84 2141.67 1336.29 Z" fill="#000000" fill-rule="evenodd" fill-opacity="1" /><path clip-path="url(#clip170)" d="M 0 0 M2158.97 1336.8 Q2158.97 1330.64 2160.53 1327.27 Q2162.7 1322.27 2167.82 1322.27 Q2168.91 1322.27 2170.04 1322.58 Q2171.18 1322.87 2172.62 1323.99 Q2174.07 1325.12 2174.95 1326.97 Q2176.63 1330.53 2176.63 1336.8 Q2176.63 1342.93 2175.08 1346.27 Q2172.8 1351.15 2167.78 1351.15 Q2165.9 1351.15 2163.97 1350.19 Q2162.06 1349.22 2160.85 1346.91 Q2158.97 1343.44 2158.97 1336.8 M2162.45 1336.29 Q2162.45 1342.62 2162.9 1345.15 Q2163.42 1347.87 2164.81 1349.06 Q2166.22 1350.23 2167.78 1350.23 Q2169.46 1350.23 2170.85 1348.98 Q2172.27 1347.71 2172.7 1344.98 Q2173.17 1342.3 2173.15 1336.29 Q2173.15 1330.45 2172.74 1328.11 Q2172.19 1325.39 2170.71 1324.3 Q2169.26 1323.2 2167.78 1323.2 Q2167.23 1323.2 2166.63 1323.36 Q2166.06 1323.52 2165.22 1323.99 Q2164.38 1324.47 2163.72 1325.63 Q2163.09 1326.8 2162.78 1328.57 Q2162.45 1330.84 2162.45 1336.29 Z" fill="#000000" fill-rule="evenodd" fill-opacity="1" /><path clip-path="url(#clip170)" d="M 0 0 M2179.75 1336.8 Q2179.75 1330.64 2181.31 1327.27 Q2183.48 1322.27 2188.6 1322.27 Q2189.69 1322.27 2190.82 1322.58 Q2191.96 1322.87 2193.4 1323.99 Q2194.85 1325.12 2195.74 1326.97 Q2197.42 1330.53 2197.42 1336.8 Q2197.42 1342.93 2195.86 1346.27 Q2193.58 1351.15 2188.56 1351.15 Q2186.68 1351.15 2184.75 1350.19 Q2182.84 1349.22 2181.63 1346.91 Q2179.75 1343.44 2179.75 1336.8 M2183.23 1336.29 Q2183.23 1342.62 2183.68 1345.15 Q2184.2 1347.87 2185.59 1349.06 Q2187 1350.23 2188.56 1350.23 Q2190.24 1350.23 2191.64 1348.98 Q2193.05 1347.71 2193.48 1344.98 Q2193.95 1342.3 2193.93 1336.29 Q2193.93 1330.45 2193.52 1328.11 Q2192.97 1325.39 2191.49 1324.3 Q2190.04 1323.2 2188.56 1323.2 Q2188.01 1323.2 2187.41 1323.36 Q2186.84 1323.52 2186 1323.99 Q2185.16 1324.47 2184.5 1325.63 Q2183.87 1326.8 2183.56 1328.57 Q2183.23 1330.84 2183.23 1336.29 Z" fill="#000000" fill-rule="evenodd" fill-opacity="1" /><path clip-path="url(#clip170)" d="M 0 0 M2201.17 1349.55 Q2200.53 1348.88 2200.53 1347.99 Q2200.53 1347.11 2201.17 1346.48 Q2201.8 1345.82 2202.76 1345.82 Q2203.69 1345.82 2204.3 1346.44 Q2204.94 1347.03 2204.94 1348.01 Q2204.94 1348.98 2204.26 1349.61 Q2203.6 1350.23 2202.76 1350.23 Q2201.8 1350.23 2201.17 1349.55 Z" fill="#000000" fill-rule="evenodd" fill-opacity="1" /><path clip-path="url(#clip170)" d="M 0 0 M2212.08 1336.8 Q2212.08 1330.64 2213.64 1327.27 Q2215.81 1322.27 2220.93 1322.27 Q2222.02 1322.27 2223.15 1322.58 Q2224.29 1322.87 2225.73 1323.99 Q2227.18 1325.12 2228.06 1326.97 Q2229.74 1330.53 2229.74 1336.8 Q2229.74 1342.93 2228.19 1346.27 Q2225.91 1351.15 2220.89 1351.15 Q2219.01 1351.15 2217.08 1350.19 Q2215.17 1349.22 2213.96 1346.91 Q2212.08 1343.44 2212.08 1336.8 M2215.56 1336.29 Q2215.56 1342.62 2216.01 1345.15 Q2216.53 1347.87 2217.92 1349.06 Q2219.33 1350.23 2220.89 1350.23 Q2222.57 1350.23 2223.96 1348.98 Q2225.38 1347.71 2225.81 1344.98 Q2226.28 1342.3 2226.26 1336.29 Q2226.26 1330.45 2225.85 1328.11 Q2225.3 1325.39 2223.82 1324.3 Q2222.37 1323.2 2220.89 1323.2 Q2220.34 1323.2 2219.74 1323.36 Q2219.17 1323.52 2218.33 1323.99 Q2217.49 1324.47 2216.83 1325.63 Q2216.2 1326.8 2215.89 1328.57 Q2215.56 1330.84 2215.56 1336.29 Z" fill="#000000" fill-rule="evenodd" fill-opacity="1" /></svg>
