<?xml version="1.0" encoding="utf-8"?>
<svg xmlns="http://www.w3.org/2000/svg" xmlns:xlink="http://www.w3.org/1999/xlink" width="600" height="400" viewBox="0 0 2400 1600">
<defs>
  <clipPath id="clip480">
    <rect x="0" y="0" width="2400" height="1600"/>
  </clipPath>
</defs>
<path clip-path="url(#clip480)" d="
M0 1600 L2400 1600 L2400 0 L0 0  Z
  " fill="#ffffff" fill-rule="evenodd" fill-opacity="1"/>
<defs>
  <clipPath id="clip481">
    <rect x="480" y="0" width="1681" height="1600"/>
  </clipPath>
</defs>
<defs>
  <clipPath id="clip482">
    <rect x="262" y="47" width="1668" height="1393"/>
  </clipPath>
</defs>
<path clip-path="url(#clip480)" d="
M262.447 1439.5 L1929.37 1439.5 L1929.37 47.2441 L262.447 47.2441  Z
  " fill="#ffffff" fill-rule="evenodd" fill-opacity="1"/>
<polyline clip-path="url(#clip482)" style="stroke:#000000; stroke-width:2; stroke-opacity:0.1; fill:none" points="
  309.519,1439.5 309.519,47.2441 
  "/>
<polyline clip-path="url(#clip482)" style="stroke:#000000; stroke-width:2; stroke-opacity:0.1; fill:none" points="
  833.743,1439.5 833.743,47.2441 
  "/>
<polyline clip-path="url(#clip482)" style="stroke:#000000; stroke-width:2; stroke-opacity:0.1; fill:none" points="
  1357.97,1439.5 1357.97,47.2441 
  "/>
<polyline clip-path="url(#clip482)" style="stroke:#000000; stroke-width:2; stroke-opacity:0.1; fill:none" points="
  1882.19,1439.5 1882.19,47.2441 
  "/>
<polyline clip-path="url(#clip480)" style="stroke:#000000; stroke-width:4; stroke-opacity:1; fill:none" points="
  262.447,1439.5 1929.37,1439.5 
  "/>
<polyline clip-path="url(#clip480)" style="stroke:#000000; stroke-width:4; stroke-opacity:1; fill:none" points="
  309.519,1439.5 309.519,1422.79 
  "/>
<polyline clip-path="url(#clip480)" style="stroke:#000000; stroke-width:4; stroke-opacity:1; fill:none" points="
  833.743,1439.5 833.743,1422.79 
  "/>
<polyline clip-path="url(#clip480)" style="stroke:#000000; stroke-width:4; stroke-opacity:1; fill:none" points="
  1357.97,1439.5 1357.97,1422.79 
  "/>
<polyline clip-path="url(#clip480)" style="stroke:#000000; stroke-width:4; stroke-opacity:1; fill:none" points="
  1882.19,1439.5 1882.19,1422.79 
  "/>
<path clip-path="url(#clip480)" d="M 0 0 M309.519 1468.69 Q305.908 1468.69 304.079 1472.26 Q302.274 1475.8 302.274 1482.93 Q302.274 1490.04 304.079 1493.6 Q305.908 1497.14 309.519 1497.14 Q313.153 1497.14 314.959 1493.6 Q316.787 1490.04 316.787 1482.93 Q316.787 1475.8 314.959 1472.26 Q313.153 1468.69 309.519 1468.69 M309.519 1464.99 Q315.329 1464.99 318.385 1469.6 Q321.463 1474.18 321.463 1482.93 Q321.463 1491.66 318.385 1496.26 Q315.329 1500.85 309.519 1500.85 Q303.709 1500.85 300.63 1496.26 Q297.574 1491.66 297.574 1482.93 Q297.574 1474.18 300.63 1469.6 Q303.709 1464.99 309.519 1464.99 Z" fill="#000000" fill-rule="evenodd" fill-opacity="1" /><path clip-path="url(#clip480)" d="M 0 0 M808.442 1465.61 L826.798 1465.61 L826.798 1469.55 L812.724 1469.55 L812.724 1478.02 Q813.743 1477.67 814.762 1477.51 Q815.78 1477.33 816.799 1477.33 Q822.586 1477.33 825.965 1480.5 Q829.345 1483.67 829.345 1489.09 Q829.345 1494.66 825.873 1497.77 Q822.4 1500.85 816.081 1500.85 Q813.905 1500.85 811.637 1500.47 Q809.391 1500.1 806.984 1499.36 L806.984 1494.66 Q809.067 1495.8 811.289 1496.35 Q813.512 1496.91 815.988 1496.91 Q819.993 1496.91 822.331 1494.8 Q824.669 1492.7 824.669 1489.09 Q824.669 1485.47 822.331 1483.37 Q819.993 1481.26 815.988 1481.26 Q814.113 1481.26 812.238 1481.68 Q810.387 1482.1 808.442 1482.97 L808.442 1465.61 Z" fill="#000000" fill-rule="evenodd" fill-opacity="1" /><path clip-path="url(#clip480)" d="M 0 0 M848.558 1468.69 Q844.947 1468.69 843.118 1472.26 Q841.312 1475.8 841.312 1482.93 Q841.312 1490.04 843.118 1493.6 Q844.947 1497.14 848.558 1497.14 Q852.192 1497.14 853.997 1493.6 Q855.826 1490.04 855.826 1482.93 Q855.826 1475.8 853.997 1472.26 Q852.192 1468.69 848.558 1468.69 M848.558 1464.99 Q854.368 1464.99 857.423 1469.6 Q860.502 1474.18 860.502 1482.93 Q860.502 1491.66 857.423 1496.26 Q854.368 1500.85 848.558 1500.85 Q842.747 1500.85 839.669 1496.26 Q836.613 1491.66 836.613 1482.93 Q836.613 1474.18 839.669 1469.6 Q842.747 1464.99 848.558 1464.99 Z" fill="#000000" fill-rule="evenodd" fill-opacity="1" /><path clip-path="url(#clip480)" d="M 0 0 M1317.57 1496.24 L1325.21 1496.24 L1325.21 1469.87 L1316.9 1471.54 L1316.9 1467.28 L1325.17 1465.61 L1329.84 1465.61 L1329.84 1496.24 L1337.48 1496.24 L1337.48 1500.17 L1317.57 1500.17 L1317.57 1496.24 Z" fill="#000000" fill-rule="evenodd" fill-opacity="1" /><path clip-path="url(#clip480)" d="M 0 0 M1356.93 1468.69 Q1353.31 1468.69 1351.49 1472.26 Q1349.68 1475.8 1349.68 1482.93 Q1349.68 1490.04 1351.49 1493.6 Q1353.31 1497.14 1356.93 1497.14 Q1360.56 1497.14 1362.37 1493.6 Q1364.19 1490.04 1364.19 1482.93 Q1364.19 1475.8 1362.37 1472.26 Q1360.56 1468.69 1356.93 1468.69 M1356.93 1464.99 Q1362.74 1464.99 1365.79 1469.6 Q1368.87 1474.18 1368.87 1482.93 Q1368.87 1491.66 1365.79 1496.26 Q1362.74 1500.85 1356.93 1500.85 Q1351.12 1500.85 1348.04 1496.26 Q1344.98 1491.66 1344.98 1482.93 Q1344.98 1474.18 1348.04 1469.6 Q1351.12 1464.99 1356.93 1464.99 Z" fill="#000000" fill-rule="evenodd" fill-opacity="1" /><path clip-path="url(#clip480)" d="M 0 0 M1387.09 1468.69 Q1383.48 1468.69 1381.65 1472.26 Q1379.84 1475.8 1379.84 1482.93 Q1379.84 1490.04 1381.65 1493.6 Q1383.48 1497.14 1387.09 1497.14 Q1390.72 1497.14 1392.53 1493.6 Q1394.36 1490.04 1394.36 1482.93 Q1394.36 1475.8 1392.53 1472.26 Q1390.72 1468.69 1387.09 1468.69 M1387.09 1464.99 Q1392.9 1464.99 1395.95 1469.6 Q1399.03 1474.18 1399.03 1482.93 Q1399.03 1491.66 1395.95 1496.26 Q1392.9 1500.85 1387.09 1500.85 Q1381.28 1500.85 1378.2 1496.26 Q1375.14 1491.66 1375.14 1482.93 Q1375.14 1474.18 1378.2 1469.6 Q1381.28 1464.99 1387.09 1464.99 Z" fill="#000000" fill-rule="evenodd" fill-opacity="1" /><path clip-path="url(#clip480)" d="M 0 0 M1841.8 1496.24 L1849.44 1496.24 L1849.44 1469.87 L1841.13 1471.54 L1841.13 1467.28 L1849.39 1465.61 L1854.07 1465.61 L1854.07 1496.24 L1861.7 1496.24 L1861.7 1500.17 L1841.8 1500.17 L1841.8 1496.24 Z" fill="#000000" fill-rule="evenodd" fill-opacity="1" /><path clip-path="url(#clip480)" d="M 0 0 M1871.2 1465.61 L1889.55 1465.61 L1889.55 1469.55 L1875.48 1469.55 L1875.48 1478.02 Q1876.5 1477.67 1877.52 1477.51 Q1878.53 1477.33 1879.55 1477.33 Q1885.34 1477.33 1888.72 1480.5 Q1892.1 1483.67 1892.1 1489.09 Q1892.1 1494.66 1888.63 1497.77 Q1885.15 1500.85 1878.83 1500.85 Q1876.66 1500.85 1874.39 1500.47 Q1872.14 1500.1 1869.74 1499.36 L1869.74 1494.66 Q1871.82 1495.8 1874.04 1496.35 Q1876.27 1496.91 1878.74 1496.91 Q1882.75 1496.91 1885.08 1494.8 Q1887.42 1492.7 1887.42 1489.09 Q1887.42 1485.47 1885.08 1483.37 Q1882.75 1481.26 1878.74 1481.26 Q1876.87 1481.26 1874.99 1481.68 Q1873.14 1482.1 1871.2 1482.97 L1871.2 1465.61 Z" fill="#000000" fill-rule="evenodd" fill-opacity="1" /><path clip-path="url(#clip480)" d="M 0 0 M1911.31 1468.69 Q1907.7 1468.69 1905.87 1472.26 Q1904.07 1475.8 1904.07 1482.93 Q1904.07 1490.04 1905.87 1493.6 Q1907.7 1497.14 1911.31 1497.14 Q1914.95 1497.14 1916.75 1493.6 Q1918.58 1490.04 1918.58 1482.93 Q1918.58 1475.8 1916.75 1472.26 Q1914.95 1468.69 1911.31 1468.69 M1911.31 1464.99 Q1917.12 1464.99 1920.18 1469.6 Q1923.26 1474.18 1923.26 1482.93 Q1923.26 1491.66 1920.18 1496.26 Q1917.12 1500.85 1911.31 1500.85 Q1905.5 1500.85 1902.42 1496.26 Q1899.37 1491.66 1899.37 1482.93 Q1899.37 1474.18 1902.42 1469.6 Q1905.5 1464.99 1911.31 1464.99 Z" fill="#000000" fill-rule="evenodd" fill-opacity="1" /><path clip-path="url(#clip480)" d="M 0 0 M1107.84 1535.75 Q1107.84 1541.16 1106.1 1547.24 Q1104.4 1553.3 1101.69 1558.19 Q1098.99 1563.06 1095.44 1566.28 Q1091.9 1569.47 1088.52 1569.47 Q1086.36 1569.47 1084.75 1568.27 Q1083.17 1567.05 1082.3 1565.02 Q1081.43 1562.96 1081.01 1560.71 Q1080.6 1558.42 1080.6 1555.94 Q1080.6 1552.24 1081.4 1548.21 Q1082.21 1544.15 1083.56 1540.48 Q1084.91 1536.78 1086.81 1533.43 Q1088.71 1530.05 1090.81 1527.6 Q1092.93 1525.12 1095.31 1523.67 Q1097.7 1522.22 1099.92 1522.22 Q1101.53 1522.22 1102.82 1522.93 Q1104.14 1523.6 1104.98 1524.8 Q1105.81 1525.96 1106.39 1527.34 Q1107 1528.73 1107.29 1530.34 Q1107.58 1531.91 1107.71 1533.23 Q1107.84 1534.52 1107.84 1535.75 M1103.49 1531.66 Q1103.49 1530.01 1103.37 1528.79 Q1103.24 1527.53 1102.88 1526.28 Q1102.53 1525.02 1101.76 1524.35 Q1101.01 1523.67 1099.86 1523.67 Q1096.47 1523.67 1092.67 1530.59 Q1091.45 1532.75 1090.35 1535.68 Q1089.26 1538.61 1088.87 1540 Q1088.49 1541.38 1087.58 1544.8 L1101.37 1544.8 Q1103.49 1536 1103.49 1531.66 M1100.79 1546.89 L1087.07 1546.89 Q1084.94 1554.94 1084.94 1559.96 Q1084.94 1564.34 1085.85 1566.18 Q1086.78 1567.98 1088.52 1567.98 Q1090.52 1567.98 1092.38 1565.99 Q1094.25 1563.96 1096.15 1560.29 Q1098.66 1555.52 1100.79 1546.89 Z" fill="#000000" fill-rule="evenodd" fill-opacity="1" /><polyline clip-path="url(#clip482)" style="stroke:#000000; stroke-width:2; stroke-opacity:0.1; fill:none" points="
  262.447,1400.16 1929.37,1400.16 
  "/>
<polyline clip-path="url(#clip482)" style="stroke:#000000; stroke-width:2; stroke-opacity:0.1; fill:none" points="
  262.447,1165.12 1929.37,1165.12 
  "/>
<polyline clip-path="url(#clip482)" style="stroke:#000000; stroke-width:2; stroke-opacity:0.1; fill:none" points="
  262.447,930.073 1929.37,930.073 
  "/>
<polyline clip-path="url(#clip482)" style="stroke:#000000; stroke-width:2; stroke-opacity:0.1; fill:none" points="
  262.447,695.032 1929.37,695.032 
  "/>
<polyline clip-path="url(#clip482)" style="stroke:#000000; stroke-width:2; stroke-opacity:0.1; fill:none" points="
  262.447,459.99 1929.37,459.99 
  "/>
<polyline clip-path="url(#clip482)" style="stroke:#000000; stroke-width:2; stroke-opacity:0.1; fill:none" points="
  262.447,224.949 1929.37,224.949 
  "/>
<polyline clip-path="url(#clip480)" style="stroke:#000000; stroke-width:4; stroke-opacity:1; fill:none" points="
  262.447,1439.5 262.447,47.2441 
  "/>
<polyline clip-path="url(#clip480)" style="stroke:#000000; stroke-width:4; stroke-opacity:1; fill:none" points="
  262.447,1400.16 282.45,1400.16 
  "/>
<polyline clip-path="url(#clip480)" style="stroke:#000000; stroke-width:4; stroke-opacity:1; fill:none" points="
  262.447,1165.12 282.45,1165.12 
  "/>
<polyline clip-path="url(#clip480)" style="stroke:#000000; stroke-width:4; stroke-opacity:1; fill:none" points="
  262.447,930.073 282.45,930.073 
  "/>
<polyline clip-path="url(#clip480)" style="stroke:#000000; stroke-width:4; stroke-opacity:1; fill:none" points="
  262.447,695.032 282.45,695.032 
  "/>
<polyline clip-path="url(#clip480)" style="stroke:#000000; stroke-width:4; stroke-opacity:1; fill:none" points="
  262.447,459.99 282.45,459.99 
  "/>
<polyline clip-path="url(#clip480)" style="stroke:#000000; stroke-width:4; stroke-opacity:1; fill:none" points="
  262.447,224.949 282.45,224.949 
  "/>
<path clip-path="url(#clip480)" d="M 0 0 M214.502 1385.96 Q210.891 1385.96 209.063 1389.52 Q207.257 1393.06 207.257 1400.19 Q207.257 1407.3 209.063 1410.86 Q210.891 1414.4 214.502 1414.4 Q218.137 1414.4 219.942 1410.86 Q221.771 1407.3 221.771 1400.19 Q221.771 1393.06 219.942 1389.52 Q218.137 1385.96 214.502 1385.96 M214.502 1382.25 Q220.312 1382.25 223.368 1386.86 Q226.447 1391.44 226.447 1400.19 Q226.447 1408.92 223.368 1413.52 Q220.312 1418.11 214.502 1418.11 Q208.692 1418.11 205.613 1413.52 Q202.558 1408.92 202.558 1400.19 Q202.558 1391.44 205.613 1386.86 Q208.692 1382.25 214.502 1382.25 Z" fill="#000000" fill-rule="evenodd" fill-opacity="1" /><path clip-path="url(#clip480)" d="M 0 0 M144.989 1178.46 L152.628 1178.46 L152.628 1152.09 L144.318 1153.76 L144.318 1149.5 L152.581 1147.84 L157.257 1147.84 L157.257 1178.46 L164.896 1178.46 L164.896 1182.4 L144.989 1182.4 L144.989 1178.46 Z" fill="#000000" fill-rule="evenodd" fill-opacity="1" /><path clip-path="url(#clip480)" d="M 0 0 M184.34 1150.91 Q180.729 1150.91 178.901 1154.48 Q177.095 1158.02 177.095 1165.15 Q177.095 1172.26 178.901 1175.82 Q180.729 1179.36 184.34 1179.36 Q187.975 1179.36 189.78 1175.82 Q191.609 1172.26 191.609 1165.15 Q191.609 1158.02 189.78 1154.48 Q187.975 1150.91 184.34 1150.91 M184.34 1147.21 Q190.151 1147.21 193.206 1151.82 Q196.285 1156.4 196.285 1165.15 Q196.285 1173.88 193.206 1178.48 Q190.151 1183.07 184.34 1183.07 Q178.53 1183.07 175.452 1178.48 Q172.396 1173.88 172.396 1165.15 Q172.396 1156.4 175.452 1151.82 Q178.53 1147.21 184.34 1147.21 Z" fill="#000000" fill-rule="evenodd" fill-opacity="1" /><path clip-path="url(#clip480)" d="M 0 0 M214.502 1150.91 Q210.891 1150.91 209.063 1154.48 Q207.257 1158.02 207.257 1165.15 Q207.257 1172.26 209.063 1175.82 Q210.891 1179.36 214.502 1179.36 Q218.137 1179.36 219.942 1175.82 Q221.771 1172.26 221.771 1165.15 Q221.771 1158.02 219.942 1154.48 Q218.137 1150.91 214.502 1150.91 M214.502 1147.21 Q220.312 1147.21 223.368 1151.82 Q226.447 1156.4 226.447 1165.15 Q226.447 1173.88 223.368 1178.48 Q220.312 1183.07 214.502 1183.07 Q208.692 1183.07 205.613 1178.48 Q202.558 1173.88 202.558 1165.15 Q202.558 1156.4 205.613 1151.82 Q208.692 1147.21 214.502 1147.21 Z" fill="#000000" fill-rule="evenodd" fill-opacity="1" /><path clip-path="url(#clip480)" d="M 0 0 M148.206 943.418 L164.526 943.418 L164.526 947.353 L142.581 947.353 L142.581 943.418 Q145.243 940.664 149.827 936.034 Q154.433 931.381 155.614 930.039 Q157.859 927.516 158.739 925.78 Q159.642 924.02 159.642 922.33 Q159.642 919.576 157.697 917.84 Q155.776 916.104 152.674 916.104 Q150.475 916.104 148.021 916.868 Q145.591 917.631 142.813 919.182 L142.813 914.46 Q145.637 913.326 148.091 912.747 Q150.544 912.168 152.581 912.168 Q157.952 912.168 161.146 914.854 Q164.341 917.539 164.341 922.03 Q164.341 924.159 163.53 926.08 Q162.743 927.979 160.637 930.571 Q160.058 931.242 156.956 934.46 Q153.855 937.654 148.206 943.418 Z" fill="#000000" fill-rule="evenodd" fill-opacity="1" /><path clip-path="url(#clip480)" d="M 0 0 M184.34 915.872 Q180.729 915.872 178.901 919.437 Q177.095 922.979 177.095 930.108 Q177.095 937.215 178.901 940.779 Q180.729 944.321 184.34 944.321 Q187.975 944.321 189.78 940.779 Q191.609 937.215 191.609 930.108 Q191.609 922.979 189.78 919.437 Q187.975 915.872 184.34 915.872 M184.34 912.168 Q190.151 912.168 193.206 916.775 Q196.285 921.358 196.285 930.108 Q196.285 938.835 193.206 943.441 Q190.151 948.025 184.34 948.025 Q178.53 948.025 175.452 943.441 Q172.396 938.835 172.396 930.108 Q172.396 921.358 175.452 916.775 Q178.53 912.168 184.34 912.168 Z" fill="#000000" fill-rule="evenodd" fill-opacity="1" /><path clip-path="url(#clip480)" d="M 0 0 M214.502 915.872 Q210.891 915.872 209.063 919.437 Q207.257 922.979 207.257 930.108 Q207.257 937.215 209.063 940.779 Q210.891 944.321 214.502 944.321 Q218.137 944.321 219.942 940.779 Q221.771 937.215 221.771 930.108 Q221.771 922.979 219.942 919.437 Q218.137 915.872 214.502 915.872 M214.502 912.168 Q220.312 912.168 223.368 916.775 Q226.447 921.358 226.447 930.108 Q226.447 938.835 223.368 943.441 Q220.312 948.025 214.502 948.025 Q208.692 948.025 205.613 943.441 Q202.558 938.835 202.558 930.108 Q202.558 921.358 205.613 916.775 Q208.692 912.168 214.502 912.168 Z" fill="#000000" fill-rule="evenodd" fill-opacity="1" /><path clip-path="url(#clip480)" d="M 0 0 M158.345 693.678 Q161.702 694.395 163.577 696.664 Q165.475 698.932 165.475 702.266 Q165.475 707.381 161.956 710.182 Q158.438 712.983 151.956 712.983 Q149.78 712.983 147.466 712.543 Q145.174 712.127 142.72 711.27 L142.72 706.756 Q144.665 707.891 146.98 708.469 Q149.294 709.048 151.817 709.048 Q156.216 709.048 158.507 707.312 Q160.822 705.576 160.822 702.266 Q160.822 699.21 158.669 697.497 Q156.54 695.761 152.72 695.761 L148.692 695.761 L148.692 691.919 L152.905 691.919 Q156.354 691.919 158.183 690.553 Q160.012 689.164 160.012 686.571 Q160.012 683.909 158.114 682.497 Q156.239 681.062 152.72 681.062 Q150.799 681.062 148.6 681.479 Q146.401 681.895 143.762 682.775 L143.762 678.608 Q146.424 677.868 148.739 677.497 Q151.077 677.127 153.137 677.127 Q158.461 677.127 161.563 679.557 Q164.665 681.965 164.665 686.085 Q164.665 688.956 163.021 690.946 Q161.378 692.914 158.345 693.678 Z" fill="#000000" fill-rule="evenodd" fill-opacity="1" /><path clip-path="url(#clip480)" d="M 0 0 M184.34 680.831 Q180.729 680.831 178.901 684.395 Q177.095 687.937 177.095 695.067 Q177.095 702.173 178.901 705.738 Q180.729 709.28 184.34 709.28 Q187.975 709.28 189.78 705.738 Q191.609 702.173 191.609 695.067 Q191.609 687.937 189.78 684.395 Q187.975 680.831 184.34 680.831 M184.34 677.127 Q190.151 677.127 193.206 681.733 Q196.285 686.317 196.285 695.067 Q196.285 703.793 193.206 708.4 Q190.151 712.983 184.34 712.983 Q178.53 712.983 175.452 708.4 Q172.396 703.793 172.396 695.067 Q172.396 686.317 175.452 681.733 Q178.53 677.127 184.34 677.127 Z" fill="#000000" fill-rule="evenodd" fill-opacity="1" /><path clip-path="url(#clip480)" d="M 0 0 M214.502 680.831 Q210.891 680.831 209.063 684.395 Q207.257 687.937 207.257 695.067 Q207.257 702.173 209.063 705.738 Q210.891 709.28 214.502 709.28 Q218.137 709.28 219.942 705.738 Q221.771 702.173 221.771 695.067 Q221.771 687.937 219.942 684.395 Q218.137 680.831 214.502 680.831 M214.502 677.127 Q220.312 677.127 223.368 681.733 Q226.447 686.317 226.447 695.067 Q226.447 703.793 223.368 708.4 Q220.312 712.983 214.502 712.983 Q208.692 712.983 205.613 708.4 Q202.558 703.793 202.558 695.067 Q202.558 686.317 205.613 681.733 Q208.692 677.127 214.502 677.127 Z" fill="#000000" fill-rule="evenodd" fill-opacity="1" /><path clip-path="url(#clip480)" d="M 0 0 M157.026 446.784 L145.22 465.233 L157.026 465.233 L157.026 446.784 M155.799 442.71 L161.679 442.71 L161.679 465.233 L166.609 465.233 L166.609 469.122 L161.679 469.122 L161.679 477.27 L157.026 477.27 L157.026 469.122 L141.424 469.122 L141.424 464.608 L155.799 442.71 Z" fill="#000000" fill-rule="evenodd" fill-opacity="1" /><path clip-path="url(#clip480)" d="M 0 0 M184.34 445.789 Q180.729 445.789 178.901 449.354 Q177.095 452.895 177.095 460.025 Q177.095 467.132 178.901 470.696 Q180.729 474.238 184.34 474.238 Q187.975 474.238 189.78 470.696 Q191.609 467.132 191.609 460.025 Q191.609 452.895 189.78 449.354 Q187.975 445.789 184.34 445.789 M184.34 442.085 Q190.151 442.085 193.206 446.692 Q196.285 451.275 196.285 460.025 Q196.285 468.752 193.206 473.358 Q190.151 477.942 184.34 477.942 Q178.53 477.942 175.452 473.358 Q172.396 468.752 172.396 460.025 Q172.396 451.275 175.452 446.692 Q178.53 442.085 184.34 442.085 Z" fill="#000000" fill-rule="evenodd" fill-opacity="1" /><path clip-path="url(#clip480)" d="M 0 0 M214.502 445.789 Q210.891 445.789 209.063 449.354 Q207.257 452.895 207.257 460.025 Q207.257 467.132 209.063 470.696 Q210.891 474.238 214.502 474.238 Q218.137 474.238 219.942 470.696 Q221.771 467.132 221.771 460.025 Q221.771 452.895 219.942 449.354 Q218.137 445.789 214.502 445.789 M214.502 442.085 Q220.312 442.085 223.368 446.692 Q226.447 451.275 226.447 460.025 Q226.447 468.752 223.368 473.358 Q220.312 477.942 214.502 477.942 Q208.692 477.942 205.613 473.358 Q202.558 468.752 202.558 460.025 Q202.558 451.275 205.613 446.692 Q208.692 442.085 214.502 442.085 Z" fill="#000000" fill-rule="evenodd" fill-opacity="1" /><path clip-path="url(#clip480)" d="M 0 0 M144.225 207.669 L162.581 207.669 L162.581 211.604 L148.507 211.604 L148.507 220.076 Q149.526 219.729 150.544 219.567 Q151.563 219.382 152.581 219.382 Q158.368 219.382 161.748 222.553 Q165.128 225.724 165.128 231.141 Q165.128 236.72 161.655 239.821 Q158.183 242.9 151.864 242.9 Q149.688 242.9 147.419 242.53 Q145.174 242.159 142.767 241.419 L142.767 236.72 Q144.85 237.854 147.072 238.409 Q149.294 238.965 151.771 238.965 Q155.776 238.965 158.114 236.858 Q160.452 234.752 160.452 231.141 Q160.452 227.53 158.114 225.423 Q155.776 223.317 151.771 223.317 Q149.896 223.317 148.021 223.734 Q146.169 224.15 144.225 225.03 L144.225 207.669 Z" fill="#000000" fill-rule="evenodd" fill-opacity="1" /><path clip-path="url(#clip480)" d="M 0 0 M184.34 210.748 Q180.729 210.748 178.901 214.312 Q177.095 217.854 177.095 224.984 Q177.095 232.09 178.901 235.655 Q180.729 239.196 184.34 239.196 Q187.975 239.196 189.78 235.655 Q191.609 232.09 191.609 224.984 Q191.609 217.854 189.78 214.312 Q187.975 210.748 184.34 210.748 M184.34 207.044 Q190.151 207.044 193.206 211.65 Q196.285 216.234 196.285 224.984 Q196.285 233.71 193.206 238.317 Q190.151 242.9 184.34 242.9 Q178.53 242.9 175.452 238.317 Q172.396 233.71 172.396 224.984 Q172.396 216.234 175.452 211.65 Q178.53 207.044 184.34 207.044 Z" fill="#000000" fill-rule="evenodd" fill-opacity="1" /><path clip-path="url(#clip480)" d="M 0 0 M214.502 210.748 Q210.891 210.748 209.063 214.312 Q207.257 217.854 207.257 224.984 Q207.257 232.09 209.063 235.655 Q210.891 239.196 214.502 239.196 Q218.137 239.196 219.942 235.655 Q221.771 232.09 221.771 224.984 Q221.771 217.854 219.942 214.312 Q218.137 210.748 214.502 210.748 M214.502 207.044 Q220.312 207.044 223.368 211.65 Q226.447 216.234 226.447 224.984 Q226.447 233.71 223.368 238.317 Q220.312 242.9 214.502 242.9 Q208.692 242.9 205.613 238.317 Q202.558 233.71 202.558 224.984 Q202.558 216.234 205.613 211.65 Q208.692 207.044 214.502 207.044 Z" fill="#000000" fill-rule="evenodd" fill-opacity="1" /><path clip-path="url(#clip480)" d="M 0 0 M53.6652 929.833 L70.0902 935.502 L70.0902 990.187 Q70.0902 990.928 70.058 991.218 Q70.0258 991.508 69.8648 991.733 Q69.7037 991.958 69.3495 991.958 Q69.0596 991.958 68.3189 991.379 L39.3658 967.965 L6.25819 992.023 Q4.74452 992.023 4.45466 991.765 Q4.13261 991.508 4.13261 990.187 L4.13261 935.502 L19.5592 929.833 L19.5592 931.476 Q17.5624 932.217 15.8877 933.408 Q14.1808 934.568 12.957 935.92 Q11.7332 937.241 10.767 938.98 Q9.76863 940.687 9.15672 942.297 Q8.5126 943.875 8.06172 945.84 Q7.57863 947.804 7.35319 949.382 Q7.09554 950.928 6.96672 952.861 Q6.8379 954.793 6.80569 956.017 Q6.77349 957.241 6.77349 958.786 L6.77349 984.905 L36.1774 963.489 Q36.9182 963.005 37.1114 963.005 Q37.4013 963.005 38.1742 963.617 L66.4509 986.483 L66.4509 958.464 Q66.4509 949.447 64.5508 943.167 Q63.1015 938.915 60.2352 935.824 Q57.3689 932.7 53.6652 931.476 L53.6652 929.833 Z" fill="#000000" fill-rule="evenodd" fill-opacity="1" /><path clip-path="url(#clip480)" d="M 0 0 M96.2324 1001.01 Q96.8636 1001.01 97.0215 1001.3 Q97.1567 1001.6 97.1567 1002.41 L97.1567 1006.74 L110.773 1010.16 Q111.968 1010.43 112.983 1010.43 Q114.11 1010.43 114.606 1010.1 Q115.102 1009.74 115.102 1008.99 Q115.102 1007.53 113.772 1005.95 Q112.442 1004.35 109.195 1002.99 Q108.767 1002.81 108.677 1002.72 Q108.564 1002.61 108.564 1002.32 Q108.564 1001.75 109.015 1001.75 Q109.173 1001.75 109.894 1002.07 Q110.616 1002.36 111.675 1003.02 Q112.735 1003.65 113.727 1004.48 Q114.719 1005.29 115.44 1006.53 Q116.139 1007.77 116.139 1009.1 Q116.139 1010.98 114.944 1012.17 Q113.749 1013.34 111.878 1013.34 Q111.269 1013.34 109.331 1012.87 Q107.369 1012.4 97.1567 1009.83 L97.1567 1013.91 Q97.1567 1014.47 97.1342 1014.7 Q97.1116 1014.9 96.9989 1015.06 Q96.8636 1015.19 96.5931 1015.19 Q96.1648 1015.19 95.9844 1015.01 Q95.7815 1014.83 95.759 1014.61 Q95.7139 1014.36 95.7139 1013.79 L95.7139 1009.47 L88.3871 1007.66 Q87.6657 1007.48 87.2599 1007.03 Q86.8315 1006.56 86.7864 1006.29 Q86.7188 1006.02 86.7188 1005.81 Q86.7188 1005.2 87.057 1004.84 Q87.3726 1004.48 87.9587 1004.48 Q88.2743 1004.48 95.7139 1006.38 L95.7139 1002.32 Q95.7139 1001.8 95.7364 1001.6 Q95.759 1001.37 95.8717 1001.19 Q95.9844 1001.01 96.2324 1001.01 Z" fill="#000000" fill-rule="evenodd" fill-opacity="1" /><path clip-path="url(#clip480)" d="M 0 0 M108.609 985.878 Q108.046 985.833 108.046 984.954 L108.046 956.661 Q108.046 955.331 108.564 955.309 Q109.128 955.309 109.105 956.571 L109.105 984.638 Q109.128 985.878 108.609 985.878 M99.5915 985.878 Q99.0279 985.878 99.0504 984.909 L99.0504 956.706 Q99.0504 955.331 99.5915 955.309 Q100.11 955.309 100.11 956.481 L100.11 984.954 Q100.11 985.878 99.5915 985.878 Z" fill="#000000" fill-rule="evenodd" fill-opacity="1" /><path clip-path="url(#clip480)" d="M 0 0 M100.854 937.496 Q94.0682 937.496 90.3709 935.783 Q84.8702 933.393 84.8702 927.757 Q84.8702 926.563 85.2083 925.323 Q85.524 924.06 86.7639 922.482 Q88.0038 920.881 90.0328 919.912 Q93.9555 918.063 100.854 918.063 Q107.595 918.063 111.269 919.777 Q116.635 922.279 116.635 927.803 Q116.635 929.877 115.575 931.996 Q114.516 934.092 111.968 935.422 Q108.158 937.496 100.854 937.496 M100.29 933.664 Q107.256 933.664 110.029 933.168 Q113.028 932.604 114.335 931.071 Q115.62 929.516 115.62 927.803 Q115.62 925.954 114.245 924.421 Q112.847 922.865 109.849 922.392 Q106.896 921.873 100.29 921.896 Q93.8653 921.896 91.2953 922.347 Q88.2969 922.956 87.102 924.579 Q85.8847 926.179 85.8847 927.803 Q85.8847 928.411 86.065 929.065 Q86.2454 929.696 86.7639 930.621 Q87.2824 931.545 88.5674 932.266 Q89.8524 932.965 91.7912 933.303 Q94.2936 933.664 100.29 933.664 Z" fill="#000000" fill-rule="evenodd" fill-opacity="1" /><path clip-path="url(#clip480)" d="M 0 0 M9.67201 862.729 Q10.2839 862.729 10.7992 862.858 L22.2645 864.661 Q23.1341 864.758 23.4561 864.951 Q23.7782 865.112 23.7782 865.627 Q23.7782 866.433 22.9408 866.433 Q22.4577 866.433 21.6848 866.239 Q18.0455 865.692 16.403 865.692 Q15.308 865.692 14.5029 865.917 Q13.6655 866.11 13.0858 866.433 Q12.5061 866.722 12.1197 867.399 Q11.7332 868.075 11.5077 868.719 Q11.2823 869.363 11.1857 870.523 Q11.0569 871.682 11.0247 872.68 Q10.9925 873.679 10.9925 875.321 Q10.9925 878.896 11.1213 879.476 Q11.2823 880.088 11.7654 880.41 Q12.2163 880.7 13.5689 881.022 L48.5767 889.782 L49.9615 890.039 Q50.7345 890.039 50.9921 889.556 Q51.2498 889.073 51.4108 887.592 Q51.5718 885.466 51.5718 883.373 Q51.5718 883.308 51.5718 883.18 Q51.5718 882.471 51.604 882.181 Q51.604 881.891 51.6685 881.601 Q51.7329 881.312 51.8939 881.247 Q52.0227 881.151 52.2804 881.151 Q52.8923 881.151 53.2143 881.408 Q53.5042 881.666 53.5686 881.924 Q53.6008 882.149 53.6008 882.6 Q53.6008 883.502 53.5364 885.434 Q53.472 887.366 53.472 888.333 L53.4076 893.808 L53.472 899.411 Q53.472 900.281 53.5364 902.117 Q53.6008 903.952 53.6008 904.822 Q53.6008 905.949 52.7957 905.949 Q51.8939 905.949 51.7329 905.53 Q51.5718 905.08 51.5718 903.179 Q51.5718 900.506 51.443 899.057 Q51.3142 897.608 50.8633 896.835 Q50.4124 896.03 49.9615 895.804 Q49.4785 895.579 48.3835 895.321 L13.1825 886.465 Q12.4095 886.207 11.7976 886.207 Q11.4755 886.207 11.3467 886.304 Q11.2179 886.368 11.1213 886.787 Q10.9925 887.205 10.9925 888.075 L10.9925 890.651 Q10.9925 893.292 11.1213 894.935 Q11.2179 896.545 11.701 898.091 Q12.1841 899.605 12.8604 900.506 Q13.5367 901.376 14.9216 902.342 Q16.3064 903.308 17.9811 904.017 Q19.6558 904.693 22.3933 905.659 Q23.2951 905.981 23.5527 906.175 Q23.7782 906.336 23.7782 906.786 Q23.7782 907.109 23.5849 907.366 Q23.3595 907.592 23.0697 907.592 Q22.0069 907.27 21.878 907.205 L10.2517 903.244 Q9.31775 902.922 9.15672 902.632 Q8.96348 902.31 8.96348 901.118 L8.96348 864.532 Q8.96348 863.953 8.96348 863.759 Q8.96348 863.566 9.0279 863.244 Q9.09231 862.922 9.25334 862.825 Q9.41437 862.729 9.67201 862.729 Z" fill="#000000" fill-rule="evenodd" fill-opacity="1" /><path clip-path="url(#clip480)" d="M 0 0 M16.5041 837.753 L17.4284 838.317 Q15.918 841.811 13.5057 846.162 Q15.918 850.513 17.4284 854.007 L16.5041 854.548 Q13.1901 850.738 10.6426 846.162 Q13.2127 841.541 16.5041 837.753 Z" fill="#000000" fill-rule="evenodd" fill-opacity="1" /><path clip-path="url(#clip480)" d="M 0 0 M28.8023 836.591 Q30.6058 836.591 31.6364 837.718 Q32.6348 838.845 32.6348 840.134 Q32.6348 841.358 31.9263 842.002 Q31.2177 842.646 30.316 842.646 Q29.0921 842.646 28.0294 841.744 Q26.9666 840.842 26.7411 839.49 Q25.9038 840.81 25.9038 842.775 Q25.9038 844.063 26.5801 845.19 Q27.2564 846.285 28.126 846.961 Q28.9955 847.605 30.2516 848.185 Q31.4754 848.733 32.2161 848.958 Q32.9246 849.151 33.6976 849.312 L42.7152 851.567 Q46.9986 852.662 48.5123 852.662 Q50.3802 852.662 51.6363 851.76 Q52.8601 850.858 52.8601 849.055 Q52.8601 848.346 52.6668 847.541 Q52.4414 846.736 51.8617 845.705 Q51.2498 844.643 50.348 843.709 Q49.414 842.742 47.836 841.808 Q46.2579 840.874 44.2289 840.263 Q43.5204 840.069 43.5204 839.425 Q43.5204 838.62 44.1645 838.62 Q44.712 838.62 45.8714 839.071 Q46.9986 839.49 48.4801 840.424 Q49.9293 841.325 51.2498 842.517 Q52.538 843.709 53.4398 845.48 Q54.3415 847.251 54.3415 849.184 Q54.3415 851.953 52.8601 853.789 Q51.3786 855.625 49.3174 856.301 Q49.6073 856.462 49.9938 856.688 Q50.3802 856.913 51.2498 857.589 Q52.0871 858.233 52.7313 858.974 Q53.3432 859.715 53.8262 860.874 Q54.3415 862.001 54.3415 863.225 Q54.3415 864.771 53.8907 866.156 Q53.4398 867.509 52.4092 868.475 Q51.3786 869.441 49.9615 869.441 Q48.3835 869.441 47.2885 868.378 Q46.1613 867.283 46.1613 865.802 Q46.1613 864.868 46.7088 864.127 Q47.2563 863.354 48.4479 863.354 Q49.7683 863.354 50.7667 864.256 Q51.7651 865.158 52.0227 866.446 Q52.8601 865.125 52.8601 863.161 Q52.8601 861.035 50.9921 859.361 Q49.1242 857.686 46.0002 856.881 Q38.4963 854.884 35.1468 854.111 Q31.7652 853.338 30.316 853.338 Q28.9633 853.338 28.0294 853.692 Q27.0954 854.047 26.6767 854.659 Q26.2258 855.238 26.0648 855.786 Q25.9038 856.301 25.9038 856.881 Q25.9038 857.847 26.2902 858.942 Q26.6767 860.005 27.5785 861.293 Q28.448 862.549 30.2516 863.741 Q32.0551 864.932 34.5349 865.737 Q35.2757 865.898 35.2757 866.607 Q35.2435 867.38 34.5994 867.38 Q34.0519 867.38 32.9246 866.961 Q31.7652 866.51 30.316 865.609 Q28.8667 864.675 27.5785 863.483 Q26.258 862.259 25.3563 860.488 Q24.4545 858.684 24.4545 856.752 Q24.4545 855.882 24.6477 855.045 Q24.8088 854.175 25.2919 853.145 Q25.7749 852.082 26.8377 851.148 Q27.9005 850.214 29.4464 849.634 Q28.7057 849.248 27.9971 848.733 Q27.2886 848.185 26.4191 847.348 Q25.5173 846.478 25.002 845.287 Q24.4545 844.063 24.4545 842.71 Q24.4545 841.39 24.8088 840.101 Q25.1308 838.813 26.1936 837.718 Q27.2242 836.591 28.8023 836.591 Z" fill="#000000" fill-rule="evenodd" fill-opacity="1" /><path clip-path="url(#clip480)" d="M 0 0 M52.1213 810.868 Q52.7526 810.868 52.9104 811.161 Q53.0456 811.454 53.0456 812.265 L53.0456 816.594 L66.6623 820.021 Q67.8571 820.291 68.8716 820.291 Q69.9988 820.291 70.4948 819.953 Q70.9907 819.592 70.9907 818.848 Q70.9907 817.383 69.6606 815.805 Q68.3305 814.204 65.0842 812.852 Q64.6558 812.671 64.5657 812.581 Q64.4529 812.468 64.4529 812.175 Q64.4529 811.612 64.9038 811.612 Q65.0616 811.612 65.783 811.927 Q66.5045 812.22 67.564 812.874 Q68.6236 813.505 69.6155 814.339 Q70.6075 815.151 71.3289 816.391 Q72.0278 817.631 72.0278 818.961 Q72.0278 820.832 70.8329 822.027 Q69.6381 823.199 67.7669 823.199 Q67.1582 823.199 65.2194 822.726 Q63.2581 822.252 53.0456 819.682 L53.0456 823.763 Q53.0456 824.326 53.0231 824.552 Q53.0005 824.755 52.8878 824.913 Q52.7526 825.048 52.482 825.048 Q52.0537 825.048 51.8733 824.868 Q51.6704 824.687 51.6479 824.462 Q51.6028 824.214 51.6028 823.65 L51.6028 819.322 L44.276 817.518 Q43.5546 817.338 43.1488 816.887 Q42.7204 816.414 42.6753 816.143 Q42.6077 815.872 42.6077 815.67 Q42.6077 815.061 42.9459 814.7 Q43.2615 814.339 43.8476 814.339 Q44.1632 814.339 51.6028 816.233 L51.6028 812.175 Q51.6028 811.657 51.6253 811.454 Q51.6479 811.228 51.7606 811.048 Q51.8733 810.868 52.1213 810.868 Z" fill="#000000" fill-rule="evenodd" fill-opacity="1" /><path clip-path="url(#clip480)" d="M 0 0 M35.6497 801.507 Q25.0076 801.507 16.4262 797.539 Q12.8275 795.847 9.81325 793.479 Q6.799 791.111 5.47642 789.542 Q4.15383 787.973 4.15383 787.543 Q4.15383 786.928 4.76899 786.897 Q5.07657 786.897 5.84551 787.727 Q16.1801 797.877 35.6497 797.847 Q55.1809 797.847 65.1156 787.973 Q66.1921 786.897 66.5305 786.897 Q67.1456 786.897 67.1456 787.543 Q67.1456 787.973 65.8846 789.481 Q64.6235 790.988 61.7323 793.325 Q58.8411 795.663 55.3039 797.355 Q46.7225 801.507 35.6497 801.507 Z" fill="#000000" fill-rule="evenodd" fill-opacity="1" /><path clip-path="url(#clip480)" d="M 0 0 M17.4014 770.278 Q11.7332 770.278 7.9329 767.38 Q4.13261 764.481 4.13261 760.584 Q4.13261 758.201 6.25819 755.85 Q11.3467 750.504 11.3145 743.515 Q11.3145 735.593 5.06658 730.987 Q4.13261 730.182 4.13261 729.602 Q4.13261 729.087 4.55128 728.7 Q4.93775 728.282 5.45305 728.282 Q5.83952 728.282 6.64466 728.797 L56.3061 762.162 Q57.3045 762.903 57.3045 763.483 Q57.3045 763.998 56.8858 764.417 Q56.4993 764.803 55.984 764.803 Q55.5332 764.803 54.6636 764.224 L10.5416 734.594 L10.4772 734.659 Q12.796 738.072 12.7638 743.451 Q12.7638 748.539 9.99407 753.402 Q13.4079 752.018 17.4658 752.018 Q23.0052 752.018 26.8699 754.497 Q30.7024 756.977 30.7024 760.584 Q30.7024 764.481 26.9666 767.38 Q23.1985 770.278 17.4014 770.278 M12.023 765.737 Q14.3419 766.188 17.4658 766.188 Q20.5576 766.188 22.8764 765.737 Q25.163 765.286 26.3546 764.642 Q27.5463 763.966 28.2548 763.064 Q28.9311 762.162 29.0921 761.615 Q29.2532 761.067 29.2532 760.52 Q29.2532 757.815 25.9038 755.753 Q22.5222 753.66 17.4014 753.66 Q12.3773 753.66 8.99569 755.753 Q5.58187 757.815 5.58187 760.52 Q5.58187 761.1 5.7429 761.679 Q5.90393 762.227 6.61246 763.096 Q7.28878 763.966 8.4804 764.642 Q9.67201 765.286 12.023 765.737 M43.9713 741.068 Q38.303 741.068 34.5027 738.169 Q30.7024 735.27 30.7024 731.374 Q30.7024 727.799 34.5671 725.319 Q38.4318 722.807 44.0357 722.807 Q49.5751 722.807 53.4398 725.287 Q57.3045 727.734 57.3045 731.374 Q57.3045 735.27 53.5364 738.169 Q49.7683 741.068 43.9713 741.068 M38.5929 736.527 Q40.9439 736.977 44.0357 736.977 Q47.1274 736.977 49.4463 736.527 Q51.7651 736.043 52.9567 735.399 Q54.1161 734.723 54.7924 733.853 Q55.501 732.952 55.662 732.404 Q55.8552 731.824 55.8552 731.309 Q55.8552 728.604 52.5058 726.543 Q49.1242 724.449 43.9713 724.449 Q38.9471 724.449 35.5655 726.543 Q32.1517 728.604 32.1517 731.309 Q32.1517 731.889 32.3449 732.469 Q32.506 733.016 33.2145 733.886 Q33.8908 734.723 35.0824 735.399 Q36.2418 736.043 38.5929 736.527 Z" fill="#000000" fill-rule="evenodd" fill-opacity="1" /><path clip-path="url(#clip480)" d="M 0 0 M52.538 714.957 Q51.4752 715.891 50.0904 715.891 Q48.7055 715.891 47.6749 714.99 Q46.6121 714.056 46.6121 712.381 Q46.6121 710.416 48.5123 709.289 Q50.3802 708.162 53.5364 708.162 Q56.9502 708.162 60.1064 709.547 Q63.2948 710.932 64.8084 712.284 Q66.3221 713.637 66.3221 714.184 Q66.3221 714.829 65.6136 714.829 Q65.3559 714.829 64.8729 714.378 Q59.7843 709.643 53.5364 709.611 Q52.538 709.611 52.538 709.74 L52.6668 709.901 Q53.6008 711.028 53.6008 712.381 Q53.6008 714.023 52.538 714.957 Z" fill="#000000" fill-rule="evenodd" fill-opacity="1" /><path clip-path="url(#clip480)" d="M 0 0 M36.3063 652.757 Q39.5591 652.757 42.8118 654.432 Q46.0646 656.107 48.5767 658.844 Q51.0565 661.582 52.6668 665.317 Q54.2771 669.053 54.406 672.95 L64.2287 675.462 Q66.612 675.945 66.8696 676.203 Q67.1273 676.461 67.1273 676.847 Q67.1273 677.652 66.3865 677.652 Q66.1611 677.652 60.5895 676.203 L54.406 674.657 Q54.0839 680.519 50.7023 683.932 Q47.3207 687.346 42.4576 687.346 Q39.1726 687.346 35.9198 685.672 Q32.6348 683.965 30.1549 681.227 Q27.6751 678.457 26.097 674.722 Q24.5189 670.986 24.3901 667.153 L9.15672 663.321 Q8.28716 663.127 8.06172 662.966 Q7.83628 662.805 7.83628 662.322 Q7.83628 661.968 7.99731 661.775 Q8.15834 661.582 8.31937 661.582 L8.4804 661.549 L9.41437 661.743 L24.3901 665.446 Q24.6155 662.161 25.7749 659.617 Q26.9344 657.073 28.6735 655.623 Q30.3804 654.174 32.3127 653.466 Q34.2451 652.757 36.3063 652.757 M25.8394 667.54 Q26.1614 671.082 27.9005 674.077 Q29.6396 677.073 32.2161 679.005 Q34.7604 680.937 37.8199 682 Q40.8473 683.063 43.8424 683.063 Q46.1935 683.063 47.997 682.29 Q49.8005 681.485 50.8311 680.164 Q51.8295 678.844 52.377 677.395 Q52.8923 675.913 52.9567 674.335 L25.8394 667.54 M34.9214 657.073 Q30.7346 657.073 28.3836 659.488 Q26.0326 661.904 25.8394 665.833 L52.9567 672.628 Q52.7313 669.762 51.5396 667.25 Q50.3158 664.706 48.5123 662.87 Q46.6765 661.034 44.4221 659.714 Q42.1355 658.393 39.7201 657.749 Q37.2724 657.073 34.9214 657.073 Z" fill="#000000" fill-rule="evenodd" fill-opacity="1" /><path clip-path="url(#clip480)" d="M 0 0 M43.5848 630.127 Q42.7796 630.063 42.7796 628.807 L42.7796 588.389 Q42.7796 586.489 43.5204 586.456 Q44.3255 586.456 44.2933 588.26 L44.2933 628.356 Q44.3255 630.127 43.5848 630.127 M30.7024 630.127 Q29.8973 630.127 29.9295 628.743 L29.9295 588.453 Q29.9295 586.489 30.7024 586.456 Q31.4432 586.456 31.4432 588.131 L31.4432 628.807 Q31.4432 630.127 30.7024 630.127 Z" fill="#000000" fill-rule="evenodd" fill-opacity="1" /><path clip-path="url(#clip480)" d="M 0 0 M32.506 561.011 Q22.812 561.011 17.5302 558.563 Q9.67201 555.149 9.67201 547.098 Q9.67201 545.391 10.1551 543.619 Q10.606 541.816 12.3773 539.561 Q14.1486 537.275 17.0472 535.89 Q22.651 533.249 32.506 533.249 Q42.1355 533.249 47.3851 535.697 Q55.0501 539.272 55.0501 547.162 Q55.0501 550.125 53.5364 553.152 Q52.0227 556.147 48.3835 558.048 Q42.9407 561.011 32.506 561.011 M31.7008 555.536 Q41.6524 555.536 45.6138 554.827 Q49.8971 554.022 51.7651 551.832 Q53.6008 549.61 53.6008 547.162 Q53.6008 544.521 51.6363 542.331 Q49.6395 540.109 45.3561 539.433 Q41.1371 538.692 31.7008 538.724 Q22.5222 538.724 18.8507 539.368 Q14.5673 540.238 12.8604 542.557 Q11.1213 544.843 11.1213 547.162 Q11.1213 548.032 11.3789 548.966 Q11.6366 549.867 12.3773 551.188 Q13.118 552.508 14.9538 553.539 Q16.7895 554.537 19.5592 555.02 Q23.1341 555.536 31.7008 555.536 Z" fill="#000000" fill-rule="evenodd" fill-opacity="1" /><path clip-path="url(#clip480)" d="M 0 0 M52.538 527.348 Q51.4752 528.346 50.0904 528.346 Q48.7055 528.346 47.7071 527.348 Q46.6765 526.35 46.6765 524.836 Q46.6765 523.387 47.6427 522.421 Q48.5767 521.422 50.1226 521.422 Q51.6363 521.422 52.6346 522.485 Q53.6008 523.516 53.6008 524.836 Q53.6008 526.35 52.538 527.348 Z" fill="#000000" fill-rule="evenodd" fill-opacity="1" /><path clip-path="url(#clip480)" d="M 0 0 M32.506 510.196 Q22.812 510.196 17.5302 507.749 Q9.67201 504.335 9.67201 496.283 Q9.67201 494.576 10.1551 492.805 Q10.606 491.002 12.3773 488.747 Q14.1486 486.461 17.0472 485.076 Q22.651 482.435 32.506 482.435 Q42.1355 482.435 47.3851 484.882 Q55.0501 488.457 55.0501 496.348 Q55.0501 499.311 53.5364 502.338 Q52.0227 505.333 48.3835 507.233 Q42.9407 510.196 32.506 510.196 M31.7008 504.721 Q41.6524 504.721 45.6138 504.013 Q49.8971 503.208 51.7651 501.018 Q53.6008 498.795 53.6008 496.348 Q53.6008 493.707 51.6363 491.517 Q49.6395 489.295 45.3561 488.618 Q41.1371 487.878 31.7008 487.91 Q22.5222 487.91 18.8507 488.554 Q14.5673 489.423 12.8604 491.742 Q11.1213 494.029 11.1213 496.348 Q11.1213 497.217 11.3789 498.151 Q11.6366 499.053 12.3773 500.373 Q13.118 501.694 14.9538 502.724 Q16.7895 503.723 19.5592 504.206 Q23.1341 504.721 31.7008 504.721 Z" fill="#000000" fill-rule="evenodd" fill-opacity="1" /><path clip-path="url(#clip480)" d="M 0 0 M66.5305 475.672 Q66.2229 475.672 65.454 474.872 Q55.1194 464.722 35.6497 464.722 Q16.1186 464.722 6.24536 474.472 Q5.10732 475.672 4.76899 475.672 Q4.15383 475.672 4.15383 475.057 Q4.15383 474.626 5.4149 473.119 Q6.67597 471.581 9.56719 469.274 Q12.4584 466.937 15.9956 465.214 Q24.577 461.062 35.6497 461.062 Q46.2919 461.062 54.8733 465.03 Q58.472 466.721 61.4862 469.09 Q64.5005 471.458 65.8231 473.027 Q67.1456 474.595 67.1456 475.057 Q67.1456 475.672 66.5305 475.672 Z" fill="#000000" fill-rule="evenodd" fill-opacity="1" /><polyline clip-path="url(#clip482)" style="stroke:#0000ff; stroke-width:4; stroke-opacity:1; fill:none" points="
  309.624,1400.1 392.39,1044.17 475.157,910.864 557.924,822.888 640.69,750.549 723.457,642.094 806.224,578.442 888.991,524.693 971.757,569.847 1054.52,1232.63 
  1137.29,1328.76 1220.06,1359.84 1302.82,1374.19 1385.59,1382.01 1468.36,1386.72 1551.12,1389.77 1633.89,1391.85 1716.66,1393.32 1799.42,1394.4 1882.19,1395.22 
  
  "/>
<polyline clip-path="url(#clip482)" style="stroke:#ff0000; stroke-width:4; stroke-opacity:1; fill:none" points="
  309.624,1399.95 392.39,958.328 475.157,754.59 557.924,604.062 640.69,474.182 723.457,306.361 806.224,190.287 888.991,86.6476 971.757,102.266 1054.52,1016.69 
  1137.29,1205.85 1220.06,1279.92 1302.82,1317.79 1385.59,1339.83 1468.36,1353.77 1551.12,1363.13 1633.89,1369.7 1716.66,1374.48 1799.42,1378.07 1882.19,1380.84 
  
  "/>
<path clip-path="url(#clip480)" d="
M1999.04 252.413 L2352.76 252.413 L2352.76 93.6527 L1999.04 93.6527  Z
  " fill="#ffffff" fill-rule="evenodd" fill-opacity="1"/>
<polyline clip-path="url(#clip480)" style="stroke:#000000; stroke-width:4; stroke-opacity:1; fill:none" points="
  1999.04,252.413 2352.76,252.413 2352.76,93.6527 1999.04,93.6527 1999.04,252.413 
  "/>
<polyline clip-path="url(#clip480)" style="stroke:#0000ff; stroke-width:3.5; stroke-opacity:1; fill:none" points="
  2022.27,146.573 2161.62,146.573 
  "/>
<path clip-path="url(#clip480)" d="M 0 0 M2213.4 132.227 Q2213.4 132.617 2213.32 132.945 L2212.17 140.241 Q2212.11 140.794 2211.99 140.999 Q2211.88 141.204 2211.55 141.204 Q2211.04 141.204 2211.04 140.671 Q2211.04 140.364 2211.17 139.872 Q2211.51 137.556 2211.51 136.511 Q2211.51 135.814 2211.37 135.302 Q2211.25 134.769 2211.04 134.4 Q2210.86 134.031 2210.43 133.785 Q2210 133.539 2209.59 133.396 Q2209.18 133.252 2208.44 133.191 Q2207.7 133.109 2207.07 133.088 Q2206.43 133.068 2205.39 133.068 Q2203.11 133.068 2202.74 133.15 Q2202.35 133.252 2202.15 133.56 Q2201.96 133.846 2201.76 134.707 L2196.18 156.985 L2196.02 157.866 Q2196.02 158.358 2196.33 158.522 Q2196.63 158.686 2197.58 158.788 Q2198.93 158.891 2200.26 158.891 Q2200.3 158.891 2200.39 158.891 Q2200.84 158.891 2201.02 158.911 Q2201.2 158.911 2201.39 158.952 Q2201.57 158.993 2201.61 159.096 Q2201.68 159.178 2201.68 159.342 Q2201.68 159.731 2201.51 159.936 Q2201.35 160.121 2201.18 160.162 Q2201.04 160.182 2200.75 160.182 Q2200.18 160.182 2198.95 160.141 Q2197.72 160.1 2197.11 160.1 L2193.62 160.059 L2190.06 160.1 Q2189.5 160.1 2188.33 160.141 Q2187.17 160.182 2186.61 160.182 Q2185.9 160.182 2185.9 159.67 Q2185.9 159.096 2186.16 158.993 Q2186.45 158.891 2187.66 158.891 Q2189.36 158.891 2190.28 158.809 Q2191.2 158.727 2191.7 158.44 Q2192.21 158.153 2192.35 157.866 Q2192.49 157.559 2192.66 156.862 L2198.29 134.461 Q2198.46 133.969 2198.46 133.58 Q2198.46 133.375 2198.4 133.293 Q2198.36 133.211 2198.09 133.15 Q2197.82 133.068 2197.27 133.068 L2195.63 133.068 Q2193.95 133.068 2192.9 133.15 Q2191.88 133.211 2190.9 133.519 Q2189.93 133.826 2189.36 134.256 Q2188.81 134.687 2188.19 135.568 Q2187.58 136.449 2187.13 137.515 Q2186.69 138.581 2186.08 140.323 Q2185.87 140.897 2185.75 141.061 Q2185.65 141.204 2185.36 141.204 Q2185.16 141.204 2184.99 141.081 Q2184.85 140.938 2184.85 140.753 Q2185.06 140.077 2185.1 139.995 L2187.62 132.596 Q2187.82 132.002 2188.01 131.899 Q2188.21 131.776 2188.97 131.776 L2212.25 131.776 Q2212.62 131.776 2212.74 131.776 Q2212.87 131.776 2213.07 131.817 Q2213.28 131.858 2213.34 131.961 Q2213.4 132.063 2213.4 132.227 Z" fill="#000000" fill-rule="evenodd" fill-opacity="1" /><path clip-path="url(#clip480)" d="M 0 0 M2220.77 153.808 Q2220.81 153.296 2221.61 153.296 L2247.33 153.296 Q2248.54 153.296 2248.56 153.767 Q2248.56 154.28 2247.41 154.259 L2221.89 154.259 Q2220.77 154.28 2220.77 153.808 M2220.77 145.61 Q2220.77 145.098 2221.65 145.119 L2247.29 145.119 Q2248.54 145.119 2248.56 145.61 Q2248.56 146.082 2247.49 146.082 L2221.61 146.082 Q2220.77 146.082 2220.77 145.61 Z" fill="#000000" fill-rule="evenodd" fill-opacity="1" /><path clip-path="url(#clip480)" d="M 0 0 M2264.74 146.758 Q2264.74 140.589 2266.3 137.228 Q2268.47 132.227 2273.6 132.227 Q2274.68 132.227 2275.81 132.535 Q2276.96 132.822 2278.39 133.949 Q2279.85 135.076 2280.73 136.921 Q2282.41 140.487 2282.41 146.758 Q2282.41 152.886 2280.85 156.227 Q2278.58 161.104 2273.55 161.104 Q2271.67 161.104 2269.74 160.141 Q2267.84 159.178 2266.63 156.862 Q2264.74 153.398 2264.74 146.758 M2268.23 146.246 Q2268.23 152.579 2268.68 155.099 Q2269.19 157.825 2270.58 159.014 Q2272 160.182 2273.55 160.182 Q2275.24 160.182 2276.63 158.932 Q2278.04 157.661 2278.47 154.935 Q2278.94 152.251 2278.92 146.246 Q2278.92 140.405 2278.51 138.068 Q2277.96 135.343 2276.49 134.256 Q2275.03 133.15 2273.55 133.15 Q2273 133.15 2272.41 133.314 Q2271.83 133.478 2270.99 133.949 Q2270.15 134.42 2269.5 135.588 Q2268.86 136.757 2268.55 138.519 Q2268.23 140.794 2268.23 146.246 Z" fill="#000000" fill-rule="evenodd" fill-opacity="1" /><polyline clip-path="url(#clip480)" style="stroke:#ff0000; stroke-width:3.5; stroke-opacity:1; fill:none" points="
  2022.27,199.493 2161.62,199.493 
  "/>
<path clip-path="url(#clip480)" d="M 0 0 M2213.4 185.147 Q2213.4 185.537 2213.32 185.865 L2212.17 193.161 Q2212.11 193.714 2211.99 193.919 Q2211.88 194.124 2211.55 194.124 Q2211.04 194.124 2211.04 193.591 Q2211.04 193.284 2211.17 192.792 Q2211.51 190.476 2211.51 189.431 Q2211.51 188.734 2211.37 188.222 Q2211.25 187.689 2211.04 187.32 Q2210.86 186.951 2210.43 186.705 Q2210 186.459 2209.59 186.316 Q2209.18 186.172 2208.44 186.111 Q2207.7 186.029 2207.07 186.008 Q2206.43 185.988 2205.39 185.988 Q2203.11 185.988 2202.74 186.07 Q2202.35 186.172 2202.15 186.48 Q2201.96 186.766 2201.76 187.627 L2196.18 209.905 L2196.02 210.786 Q2196.02 211.278 2196.33 211.442 Q2196.63 211.606 2197.58 211.708 Q2198.93 211.811 2200.26 211.811 Q2200.3 211.811 2200.39 211.811 Q2200.84 211.811 2201.02 211.831 Q2201.2 211.831 2201.39 211.872 Q2201.57 211.913 2201.61 212.016 Q2201.68 212.098 2201.68 212.262 Q2201.68 212.651 2201.51 212.856 Q2201.35 213.041 2201.18 213.082 Q2201.04 213.102 2200.75 213.102 Q2200.18 213.102 2198.95 213.061 Q2197.72 213.02 2197.11 213.02 L2193.62 212.979 L2190.06 213.02 Q2189.5 213.02 2188.33 213.061 Q2187.17 213.102 2186.61 213.102 Q2185.9 213.102 2185.9 212.59 Q2185.9 212.016 2186.16 211.913 Q2186.45 211.811 2187.66 211.811 Q2189.36 211.811 2190.28 211.729 Q2191.2 211.647 2191.7 211.36 Q2192.21 211.073 2192.35 210.786 Q2192.49 210.479 2192.66 209.782 L2198.29 187.381 Q2198.46 186.889 2198.46 186.5 Q2198.46 186.295 2198.4 186.213 Q2198.36 186.131 2198.09 186.07 Q2197.82 185.988 2197.27 185.988 L2195.63 185.988 Q2193.95 185.988 2192.9 186.07 Q2191.88 186.131 2190.9 186.439 Q2189.93 186.746 2189.36 187.176 Q2188.81 187.607 2188.19 188.488 Q2187.58 189.369 2187.13 190.435 Q2186.69 191.501 2186.08 193.243 Q2185.87 193.817 2185.75 193.981 Q2185.65 194.124 2185.36 194.124 Q2185.16 194.124 2184.99 194.001 Q2184.85 193.858 2184.85 193.673 Q2185.06 192.997 2185.1 192.915 L2187.62 185.516 Q2187.82 184.922 2188.01 184.819 Q2188.21 184.696 2188.97 184.696 L2212.25 184.696 Q2212.62 184.696 2212.74 184.696 Q2212.87 184.696 2213.07 184.737 Q2213.28 184.778 2213.34 184.881 Q2213.4 184.983 2213.4 185.147 Z" fill="#000000" fill-rule="evenodd" fill-opacity="1" /><path clip-path="url(#clip480)" d="M 0 0 M2220.77 206.728 Q2220.81 206.216 2221.61 206.216 L2247.33 206.216 Q2248.54 206.216 2248.56 206.687 Q2248.56 207.2 2247.41 207.179 L2221.89 207.179 Q2220.77 207.2 2220.77 206.728 M2220.77 198.53 Q2220.77 198.018 2221.65 198.039 L2247.29 198.039 Q2248.54 198.039 2248.56 198.53 Q2248.56 199.002 2247.49 199.002 L2221.61 199.002 Q2220.77 199.002 2220.77 198.53 Z" fill="#000000" fill-rule="evenodd" fill-opacity="1" /><path clip-path="url(#clip480)" d="M 0 0 M2264.74 207.446 Q2264.74 206.195 2265.46 205.601 Q2266.18 205.007 2267.1 205.007 Q2268.06 205.007 2268.74 205.642 Q2269.44 206.257 2269.44 207.343 Q2269.44 208.511 2268.62 209.167 Q2267.82 209.823 2266.67 209.659 Q2267.67 211.34 2269.52 212.098 Q2271.38 212.856 2273.1 212.856 Q2274.91 212.856 2276.36 211.299 Q2277.84 209.741 2277.84 205.929 Q2277.84 202.691 2276.57 200.826 Q2275.32 198.961 2272.84 198.961 L2270.99 198.961 Q2270.36 198.961 2270.17 198.899 Q2269.99 198.838 2269.99 198.489 Q2269.99 198.079 2270.62 197.998 Q2271.26 197.998 2272.26 197.875 Q2274.7 197.793 2275.99 195.682 Q2277.16 193.714 2277.16 190.906 Q2277.16 188.345 2275.93 187.279 Q2274.72 186.193 2273.14 186.193 Q2271.67 186.193 2270.05 186.807 Q2268.43 187.422 2267.55 188.795 Q2270.15 188.795 2270.15 190.906 Q2270.15 191.829 2269.56 192.443 Q2268.98 193.038 2268.02 193.038 Q2267.1 193.038 2266.48 192.464 Q2265.87 191.87 2265.87 190.865 Q2265.87 188.468 2268 186.807 Q2270.15 185.147 2273.31 185.147 Q2276.42 185.147 2278.72 186.787 Q2281.04 188.427 2281.04 190.947 Q2281.04 193.427 2279.4 195.456 Q2277.76 197.485 2275.15 198.325 Q2278.35 198.961 2280.26 201.133 Q2282.16 203.285 2282.16 205.929 Q2282.16 209.208 2279.58 211.626 Q2277 214.024 2273.23 214.024 Q2269.74 214.024 2267.24 212.139 Q2264.74 210.253 2264.74 207.446 Z" fill="#000000" fill-rule="evenodd" fill-opacity="1" /><path clip-path="url(#clip480)" d="M 0 0 M2285.52 199.678 Q2285.52 193.509 2287.08 190.148 Q2289.25 185.147 2294.38 185.147 Q2295.46 185.147 2296.59 185.455 Q2297.74 185.742 2299.17 186.869 Q2300.63 187.996 2301.51 189.841 Q2303.19 193.407 2303.19 199.678 Q2303.19 205.806 2301.63 209.147 Q2299.36 214.024 2294.34 214.024 Q2292.45 214.024 2290.52 213.061 Q2288.62 212.098 2287.41 209.782 Q2285.52 206.318 2285.52 199.678 M2289.01 199.166 Q2289.01 205.499 2289.46 208.019 Q2289.97 210.745 2291.36 211.934 Q2292.78 213.102 2294.34 213.102 Q2296.02 213.102 2297.41 211.852 Q2298.82 210.581 2299.25 207.855 Q2299.73 205.171 2299.71 199.166 Q2299.71 193.325 2299.3 190.988 Q2298.74 188.263 2297.27 187.176 Q2295.81 186.07 2294.34 186.07 Q2293.78 186.07 2293.19 186.234 Q2292.61 186.398 2291.77 186.869 Q2290.93 187.34 2290.28 188.508 Q2289.64 189.677 2289.34 191.439 Q2289.01 193.714 2289.01 199.166 Z" fill="#000000" fill-rule="evenodd" fill-opacity="1" /></svg>
