<?xml version="1.0" encoding="utf-8"?>
<svg xmlns="http://www.w3.org/2000/svg" xmlns:xlink="http://www.w3.org/1999/xlink" width="600" height="400" viewBox="0 0 2400 1600">
<defs>
  <clipPath id="clip480">
    <rect x="0" y="0" width="2400" height="1600"/>
  </clipPath>
</defs>
<path clip-path="url(#clip480)" d="
M0 1600 L2400 1600 L2400 0 L0 0  Z
  " fill="#ffffff" fill-rule="evenodd" fill-opacity="1"/>
<defs>
  <clipPath id="clip481">
    <rect x="480" y="0" width="1681" height="1600"/>
  </clipPath>
</defs>
<defs>
  <clipPath id="clip482">
    <rect x="246" y="47" width="1682" height="1393"/>
  </clipPath>
</defs>
<path clip-path="url(#clip480)" d="
M246.197 1439.5 L1927.02 1439.5 L1927.02 47.2441 L246.197 47.2441  Z
  " fill="#ffffff" fill-rule="evenodd" fill-opacity="1"/>
<polyline clip-path="url(#clip482)" style="stroke:#000000; stroke-width:2; stroke-opacity:0.1; fill:none" points="
  290.59,1439.5 290.59,47.2441 
  "/>
<polyline clip-path="url(#clip482)" style="stroke:#000000; stroke-width:2; stroke-opacity:0.1; fill:none" points="
  608.362,1439.5 608.362,47.2441 
  "/>
<polyline clip-path="url(#clip482)" style="stroke:#000000; stroke-width:2; stroke-opacity:0.1; fill:none" points="
  926.134,1439.5 926.134,47.2441 
  "/>
<polyline clip-path="url(#clip482)" style="stroke:#000000; stroke-width:2; stroke-opacity:0.1; fill:none" points="
  1243.91,1439.5 1243.91,47.2441 
  "/>
<polyline clip-path="url(#clip482)" style="stroke:#000000; stroke-width:2; stroke-opacity:0.1; fill:none" points="
  1561.68,1439.5 1561.68,47.2441 
  "/>
<polyline clip-path="url(#clip482)" style="stroke:#000000; stroke-width:2; stroke-opacity:0.1; fill:none" points="
  1879.45,1439.5 1879.45,47.2441 
  "/>
<polyline clip-path="url(#clip480)" style="stroke:#000000; stroke-width:4; stroke-opacity:1; fill:none" points="
  246.197,1439.5 1927.02,1439.5 
  "/>
<polyline clip-path="url(#clip480)" style="stroke:#000000; stroke-width:4; stroke-opacity:1; fill:none" points="
  290.59,1439.5 290.59,1422.79 
  "/>
<polyline clip-path="url(#clip480)" style="stroke:#000000; stroke-width:4; stroke-opacity:1; fill:none" points="
  608.362,1439.5 608.362,1422.79 
  "/>
<polyline clip-path="url(#clip480)" style="stroke:#000000; stroke-width:4; stroke-opacity:1; fill:none" points="
  926.134,1439.5 926.134,1422.79 
  "/>
<polyline clip-path="url(#clip480)" style="stroke:#000000; stroke-width:4; stroke-opacity:1; fill:none" points="
  1243.91,1439.5 1243.91,1422.79 
  "/>
<polyline clip-path="url(#clip480)" style="stroke:#000000; stroke-width:4; stroke-opacity:1; fill:none" points="
  1561.68,1439.5 1561.68,1422.79 
  "/>
<polyline clip-path="url(#clip480)" style="stroke:#000000; stroke-width:4; stroke-opacity:1; fill:none" points="
  1879.45,1439.5 1879.45,1422.79 
  "/>
<path clip-path="url(#clip480)" d="M 0 0 M290.59 1468.69 Q286.978 1468.69 285.15 1472.26 Q283.344 1475.8 283.344 1482.93 Q283.344 1490.04 285.15 1493.6 Q286.978 1497.14 290.59 1497.14 Q294.224 1497.14 296.029 1493.6 Q297.858 1490.04 297.858 1482.93 Q297.858 1475.8 296.029 1472.26 Q294.224 1468.69 290.59 1468.69 M290.59 1464.99 Q296.4 1464.99 299.455 1469.6 Q302.534 1474.18 302.534 1482.93 Q302.534 1491.66 299.455 1496.26 Q296.4 1500.85 290.59 1500.85 Q284.779 1500.85 281.701 1496.26 Q278.645 1491.66 278.645 1482.93 Q278.645 1474.18 281.701 1469.6 Q284.779 1464.99 290.59 1464.99 Z" fill="#000000" fill-rule="evenodd" fill-opacity="1" /><path clip-path="url(#clip480)" d="M 0 0 M567.968 1496.24 L575.607 1496.24 L575.607 1469.87 L567.297 1471.54 L567.297 1467.28 L575.561 1465.61 L580.237 1465.61 L580.237 1496.24 L587.876 1496.24 L587.876 1500.17 L567.968 1500.17 L567.968 1496.24 Z" fill="#000000" fill-rule="evenodd" fill-opacity="1" /><path clip-path="url(#clip480)" d="M 0 0 M607.32 1468.69 Q603.709 1468.69 601.88 1472.26 Q600.075 1475.8 600.075 1482.93 Q600.075 1490.04 601.88 1493.6 Q603.709 1497.14 607.32 1497.14 Q610.954 1497.14 612.76 1493.6 Q614.589 1490.04 614.589 1482.93 Q614.589 1475.8 612.76 1472.26 Q610.954 1468.69 607.32 1468.69 M607.32 1464.99 Q613.13 1464.99 616.186 1469.6 Q619.264 1474.18 619.264 1482.93 Q619.264 1491.66 616.186 1496.26 Q613.13 1500.85 607.32 1500.85 Q601.51 1500.85 598.431 1496.26 Q595.376 1491.66 595.376 1482.93 Q595.376 1474.18 598.431 1469.6 Q601.51 1464.99 607.32 1464.99 Z" fill="#000000" fill-rule="evenodd" fill-opacity="1" /><path clip-path="url(#clip480)" d="M 0 0 M637.482 1468.69 Q633.871 1468.69 632.042 1472.26 Q630.237 1475.8 630.237 1482.93 Q630.237 1490.04 632.042 1493.6 Q633.871 1497.14 637.482 1497.14 Q641.116 1497.14 642.922 1493.6 Q644.75 1490.04 644.75 1482.93 Q644.75 1475.8 642.922 1472.26 Q641.116 1468.69 637.482 1468.69 M637.482 1464.99 Q643.292 1464.99 646.348 1469.6 Q649.426 1474.18 649.426 1482.93 Q649.426 1491.66 646.348 1496.26 Q643.292 1500.85 637.482 1500.85 Q631.672 1500.85 628.593 1496.26 Q625.538 1491.66 625.538 1482.93 Q625.538 1474.18 628.593 1469.6 Q631.672 1464.99 637.482 1464.99 Z" fill="#000000" fill-rule="evenodd" fill-opacity="1" /><path clip-path="url(#clip480)" d="M 0 0 M889.826 1496.24 L906.146 1496.24 L906.146 1500.17 L884.201 1500.17 L884.201 1496.24 Q886.863 1493.48 891.447 1488.85 Q896.053 1484.2 897.234 1482.86 Q899.479 1480.34 900.359 1478.6 Q901.261 1476.84 901.261 1475.15 Q901.261 1472.4 899.317 1470.66 Q897.396 1468.92 894.294 1468.92 Q892.095 1468.92 889.641 1469.69 Q887.21 1470.45 884.433 1472 L884.433 1467.28 Q887.257 1466.15 889.71 1465.57 Q892.164 1464.99 894.201 1464.99 Q899.571 1464.99 902.766 1467.67 Q905.96 1470.36 905.96 1474.85 Q905.96 1476.98 905.15 1478.9 Q904.363 1480.8 902.257 1483.39 Q901.678 1484.06 898.576 1487.28 Q895.474 1490.47 889.826 1496.24 Z" fill="#000000" fill-rule="evenodd" fill-opacity="1" /><path clip-path="url(#clip480)" d="M 0 0 M925.96 1468.69 Q922.349 1468.69 920.52 1472.26 Q918.715 1475.8 918.715 1482.93 Q918.715 1490.04 920.52 1493.6 Q922.349 1497.14 925.96 1497.14 Q929.594 1497.14 931.4 1493.6 Q933.229 1490.04 933.229 1482.93 Q933.229 1475.8 931.4 1472.26 Q929.594 1468.69 925.96 1468.69 M925.96 1464.99 Q931.77 1464.99 934.826 1469.6 Q937.905 1474.18 937.905 1482.93 Q937.905 1491.66 934.826 1496.26 Q931.77 1500.85 925.96 1500.85 Q920.15 1500.85 917.071 1496.26 Q914.016 1491.66 914.016 1482.93 Q914.016 1474.18 917.071 1469.6 Q920.15 1464.99 925.96 1464.99 Z" fill="#000000" fill-rule="evenodd" fill-opacity="1" /><path clip-path="url(#clip480)" d="M 0 0 M956.122 1468.69 Q952.511 1468.69 950.682 1472.26 Q948.877 1475.8 948.877 1482.93 Q948.877 1490.04 950.682 1493.6 Q952.511 1497.14 956.122 1497.14 Q959.756 1497.14 961.562 1493.6 Q963.391 1490.04 963.391 1482.93 Q963.391 1475.8 961.562 1472.26 Q959.756 1468.69 956.122 1468.69 M956.122 1464.99 Q961.932 1464.99 964.988 1469.6 Q968.066 1474.18 968.066 1482.93 Q968.066 1491.66 964.988 1496.26 Q961.932 1500.85 956.122 1500.85 Q950.312 1500.85 947.233 1496.26 Q944.178 1491.66 944.178 1482.93 Q944.178 1474.18 947.233 1469.6 Q950.312 1464.99 956.122 1464.99 Z" fill="#000000" fill-rule="evenodd" fill-opacity="1" /><path clip-path="url(#clip480)" d="M 0 0 M1217.67 1481.54 Q1221.02 1482.26 1222.9 1484.53 Q1224.8 1486.79 1224.8 1490.13 Q1224.8 1495.24 1221.28 1498.04 Q1217.76 1500.85 1211.28 1500.85 Q1209.1 1500.85 1206.79 1500.41 Q1204.5 1499.99 1202.04 1499.13 L1202.04 1494.62 Q1203.99 1495.75 1206.3 1496.33 Q1208.62 1496.91 1211.14 1496.91 Q1215.54 1496.91 1217.83 1495.17 Q1220.14 1493.44 1220.14 1490.13 Q1220.14 1487.07 1217.99 1485.36 Q1215.86 1483.62 1212.04 1483.62 L1208.01 1483.62 L1208.01 1479.78 L1212.23 1479.78 Q1215.68 1479.78 1217.51 1478.41 Q1219.33 1477.03 1219.33 1474.43 Q1219.33 1471.77 1217.44 1470.36 Q1215.56 1468.92 1212.04 1468.92 Q1210.12 1468.92 1207.92 1469.34 Q1205.72 1469.76 1203.08 1470.64 L1203.08 1466.47 Q1205.75 1465.73 1208.06 1465.36 Q1210.4 1464.99 1212.46 1464.99 Q1217.78 1464.99 1220.89 1467.42 Q1223.99 1469.83 1223.99 1473.95 Q1223.99 1476.82 1222.34 1478.81 Q1220.7 1480.78 1217.67 1481.54 Z" fill="#000000" fill-rule="evenodd" fill-opacity="1" /><path clip-path="url(#clip480)" d="M 0 0 M1243.66 1468.69 Q1240.05 1468.69 1238.22 1472.26 Q1236.42 1475.8 1236.42 1482.93 Q1236.42 1490.04 1238.22 1493.6 Q1240.05 1497.14 1243.66 1497.14 Q1247.3 1497.14 1249.1 1493.6 Q1250.93 1490.04 1250.93 1482.93 Q1250.93 1475.8 1249.1 1472.26 Q1247.3 1468.69 1243.66 1468.69 M1243.66 1464.99 Q1249.47 1464.99 1252.53 1469.6 Q1255.61 1474.18 1255.61 1482.93 Q1255.61 1491.66 1252.53 1496.26 Q1249.47 1500.85 1243.66 1500.85 Q1237.85 1500.85 1234.77 1496.26 Q1231.72 1491.66 1231.72 1482.93 Q1231.72 1474.18 1234.77 1469.6 Q1237.85 1464.99 1243.66 1464.99 Z" fill="#000000" fill-rule="evenodd" fill-opacity="1" /><path clip-path="url(#clip480)" d="M 0 0 M1273.82 1468.69 Q1270.21 1468.69 1268.38 1472.26 Q1266.58 1475.8 1266.58 1482.93 Q1266.58 1490.04 1268.38 1493.6 Q1270.21 1497.14 1273.82 1497.14 Q1277.46 1497.14 1279.26 1493.6 Q1281.09 1490.04 1281.09 1482.93 Q1281.09 1475.8 1279.26 1472.26 Q1277.46 1468.69 1273.82 1468.69 M1273.82 1464.99 Q1279.63 1464.99 1282.69 1469.6 Q1285.77 1474.18 1285.77 1482.93 Q1285.77 1491.66 1282.69 1496.26 Q1279.63 1500.85 1273.82 1500.85 Q1268.01 1500.85 1264.94 1496.26 Q1261.88 1491.66 1261.88 1482.93 Q1261.88 1474.18 1264.94 1469.6 Q1268.01 1464.99 1273.82 1464.99 Z" fill="#000000" fill-rule="evenodd" fill-opacity="1" /><path clip-path="url(#clip480)" d="M 0 0 M1534.77 1469.69 L1522.96 1488.14 L1534.77 1488.14 L1534.77 1469.69 M1533.54 1465.61 L1539.42 1465.61 L1539.42 1488.14 L1544.35 1488.14 L1544.35 1492.03 L1539.42 1492.03 L1539.42 1500.17 L1534.77 1500.17 L1534.77 1492.03 L1519.17 1492.03 L1519.17 1487.51 L1533.54 1465.61 Z" fill="#000000" fill-rule="evenodd" fill-opacity="1" /><path clip-path="url(#clip480)" d="M 0 0 M1562.08 1468.69 Q1558.47 1468.69 1556.64 1472.26 Q1554.84 1475.8 1554.84 1482.93 Q1554.84 1490.04 1556.64 1493.6 Q1558.47 1497.14 1562.08 1497.14 Q1565.72 1497.14 1567.52 1493.6 Q1569.35 1490.04 1569.35 1482.93 Q1569.35 1475.8 1567.52 1472.26 Q1565.72 1468.69 1562.08 1468.69 M1562.08 1464.99 Q1567.89 1464.99 1570.95 1469.6 Q1574.03 1474.18 1574.03 1482.93 Q1574.03 1491.66 1570.95 1496.26 Q1567.89 1500.85 1562.08 1500.85 Q1556.27 1500.85 1553.19 1496.26 Q1550.14 1491.66 1550.14 1482.93 Q1550.14 1474.18 1553.19 1469.6 Q1556.27 1464.99 1562.08 1464.99 Z" fill="#000000" fill-rule="evenodd" fill-opacity="1" /><path clip-path="url(#clip480)" d="M 0 0 M1592.25 1468.69 Q1588.63 1468.69 1586.81 1472.26 Q1585 1475.8 1585 1482.93 Q1585 1490.04 1586.81 1493.6 Q1588.63 1497.14 1592.25 1497.14 Q1595.88 1497.14 1597.68 1493.6 Q1599.51 1490.04 1599.51 1482.93 Q1599.51 1475.8 1597.68 1472.26 Q1595.88 1468.69 1592.25 1468.69 M1592.25 1464.99 Q1598.06 1464.99 1601.11 1469.6 Q1604.19 1474.18 1604.19 1482.93 Q1604.19 1491.66 1601.11 1496.26 Q1598.06 1500.85 1592.25 1500.85 Q1586.43 1500.85 1583.36 1496.26 Q1580.3 1491.66 1580.3 1482.93 Q1580.3 1474.18 1583.36 1469.6 Q1586.43 1464.99 1592.25 1464.99 Z" fill="#000000" fill-rule="evenodd" fill-opacity="1" /><path clip-path="url(#clip480)" d="M 0 0 M1839.07 1465.61 L1857.42 1465.61 L1857.42 1469.55 L1843.35 1469.55 L1843.35 1478.02 Q1844.37 1477.67 1845.39 1477.51 Q1846.41 1477.33 1847.42 1477.33 Q1853.21 1477.33 1856.59 1480.5 Q1859.97 1483.67 1859.97 1489.09 Q1859.97 1494.66 1856.5 1497.77 Q1853.03 1500.85 1846.71 1500.85 Q1844.53 1500.85 1842.26 1500.47 Q1840.02 1500.1 1837.61 1499.36 L1837.61 1494.66 Q1839.69 1495.8 1841.92 1496.35 Q1844.14 1496.91 1846.61 1496.91 Q1850.62 1496.91 1852.96 1494.8 Q1855.3 1492.7 1855.3 1489.09 Q1855.3 1485.47 1852.96 1483.37 Q1850.62 1481.26 1846.61 1481.26 Q1844.74 1481.26 1842.86 1481.68 Q1841.01 1482.1 1839.07 1482.97 L1839.07 1465.61 Z" fill="#000000" fill-rule="evenodd" fill-opacity="1" /><path clip-path="url(#clip480)" d="M 0 0 M1879.18 1468.69 Q1875.57 1468.69 1873.74 1472.26 Q1871.94 1475.8 1871.94 1482.93 Q1871.94 1490.04 1873.74 1493.6 Q1875.57 1497.14 1879.18 1497.14 Q1882.82 1497.14 1884.62 1493.6 Q1886.45 1490.04 1886.45 1482.93 Q1886.45 1475.8 1884.62 1472.26 Q1882.82 1468.69 1879.18 1468.69 M1879.18 1464.99 Q1884.99 1464.99 1888.05 1469.6 Q1891.13 1474.18 1891.13 1482.93 Q1891.13 1491.66 1888.05 1496.26 Q1884.99 1500.85 1879.18 1500.85 Q1873.37 1500.85 1870.3 1496.26 Q1867.24 1491.66 1867.24 1482.93 Q1867.24 1474.18 1870.3 1469.6 Q1873.37 1464.99 1879.18 1464.99 Z" fill="#000000" fill-rule="evenodd" fill-opacity="1" /><path clip-path="url(#clip480)" d="M 0 0 M1909.35 1468.69 Q1905.73 1468.69 1903.91 1472.26 Q1902.1 1475.8 1902.1 1482.93 Q1902.1 1490.04 1903.91 1493.6 Q1905.73 1497.14 1909.35 1497.14 Q1912.98 1497.14 1914.79 1493.6 Q1916.61 1490.04 1916.61 1482.93 Q1916.61 1475.8 1914.79 1472.26 Q1912.98 1468.69 1909.35 1468.69 M1909.35 1464.99 Q1915.16 1464.99 1918.21 1469.6 Q1921.29 1474.18 1921.29 1482.93 Q1921.29 1491.66 1918.21 1496.26 Q1915.16 1500.85 1909.35 1500.85 Q1903.54 1500.85 1900.46 1496.26 Q1897.4 1491.66 1897.4 1482.93 Q1897.4 1474.18 1900.46 1469.6 Q1903.54 1464.99 1909.35 1464.99 Z" fill="#000000" fill-rule="evenodd" fill-opacity="1" /><path clip-path="url(#clip480)" d="M 0 0 M1098.54 1535.75 Q1098.54 1541.16 1096.8 1547.24 Q1095.1 1553.3 1092.39 1558.19 Q1089.69 1563.06 1086.14 1566.28 Q1082.6 1569.47 1079.22 1569.47 Q1077.06 1569.47 1075.45 1568.27 Q1073.87 1567.05 1073 1565.02 Q1072.13 1562.96 1071.72 1560.71 Q1071.3 1558.42 1071.3 1555.94 Q1071.3 1552.24 1072.1 1548.21 Q1072.91 1544.15 1074.26 1540.48 Q1075.61 1536.78 1077.51 1533.43 Q1079.41 1530.05 1081.51 1527.6 Q1083.63 1525.12 1086.02 1523.67 Q1088.4 1522.22 1090.62 1522.22 Q1092.23 1522.22 1093.52 1522.93 Q1094.84 1523.6 1095.68 1524.8 Q1096.51 1525.96 1097.09 1527.34 Q1097.71 1528.73 1098 1530.34 Q1098.29 1531.91 1098.41 1533.23 Q1098.54 1534.52 1098.54 1535.75 M1094.2 1531.66 Q1094.2 1530.01 1094.07 1528.79 Q1093.94 1527.53 1093.58 1526.28 Q1093.23 1525.02 1092.46 1524.35 Q1091.72 1523.67 1090.56 1523.67 Q1087.17 1523.67 1083.37 1530.59 Q1082.15 1532.75 1081.06 1535.68 Q1079.96 1538.61 1079.57 1540 Q1079.19 1541.38 1078.29 1544.8 L1092.07 1544.8 Q1094.2 1536 1094.2 1531.66 M1091.49 1546.89 L1077.77 1546.89 Q1075.65 1554.94 1075.65 1559.96 Q1075.65 1564.34 1076.55 1566.18 Q1077.48 1567.98 1079.22 1567.98 Q1081.22 1567.98 1083.08 1565.99 Q1084.95 1563.96 1086.85 1560.29 Q1089.36 1555.52 1091.49 1546.89 Z" fill="#000000" fill-rule="evenodd" fill-opacity="1" /><polyline clip-path="url(#clip482)" style="stroke:#000000; stroke-width:2; stroke-opacity:0.1; fill:none" points="
  246.197,1220.68 1927.02,1220.68 
  "/>
<polyline clip-path="url(#clip482)" style="stroke:#000000; stroke-width:2; stroke-opacity:0.1; fill:none" points="
  246.197,958.465 1927.02,958.465 
  "/>
<polyline clip-path="url(#clip482)" style="stroke:#000000; stroke-width:2; stroke-opacity:0.1; fill:none" points="
  246.197,696.245 1927.02,696.245 
  "/>
<polyline clip-path="url(#clip482)" style="stroke:#000000; stroke-width:2; stroke-opacity:0.1; fill:none" points="
  246.197,434.026 1927.02,434.026 
  "/>
<polyline clip-path="url(#clip482)" style="stroke:#000000; stroke-width:2; stroke-opacity:0.1; fill:none" points="
  246.197,171.806 1927.02,171.806 
  "/>
<polyline clip-path="url(#clip480)" style="stroke:#000000; stroke-width:4; stroke-opacity:1; fill:none" points="
  246.197,1439.5 246.197,47.2441 
  "/>
<polyline clip-path="url(#clip480)" style="stroke:#000000; stroke-width:4; stroke-opacity:1; fill:none" points="
  246.197,1220.68 266.367,1220.68 
  "/>
<polyline clip-path="url(#clip480)" style="stroke:#000000; stroke-width:4; stroke-opacity:1; fill:none" points="
  246.197,958.465 266.367,958.465 
  "/>
<polyline clip-path="url(#clip480)" style="stroke:#000000; stroke-width:4; stroke-opacity:1; fill:none" points="
  246.197,696.245 266.367,696.245 
  "/>
<polyline clip-path="url(#clip480)" style="stroke:#000000; stroke-width:4; stroke-opacity:1; fill:none" points="
  246.197,434.026 266.367,434.026 
  "/>
<polyline clip-path="url(#clip480)" style="stroke:#000000; stroke-width:4; stroke-opacity:1; fill:none" points="
  246.197,171.806 266.367,171.806 
  "/>
<path clip-path="url(#clip480)" d="M 0 0 M143.831 1234.03 L151.47 1234.03 L151.47 1207.66 L143.16 1209.33 L143.16 1205.07 L151.424 1203.4 L156.1 1203.4 L156.1 1234.03 L163.739 1234.03 L163.739 1237.96 L143.831 1237.96 L143.831 1234.03 Z" fill="#000000" fill-rule="evenodd" fill-opacity="1" /><path clip-path="url(#clip480)" d="M 0 0 M173.183 1232.09 L178.067 1232.09 L178.067 1237.96 L173.183 1237.96 L173.183 1232.09 Z" fill="#000000" fill-rule="evenodd" fill-opacity="1" /><path clip-path="url(#clip480)" d="M 0 0 M198.252 1206.48 Q194.641 1206.48 192.813 1210.05 Q191.007 1213.59 191.007 1220.72 Q191.007 1227.83 192.813 1231.39 Q194.641 1234.93 198.252 1234.93 Q201.887 1234.93 203.692 1231.39 Q205.521 1227.83 205.521 1220.72 Q205.521 1213.59 203.692 1210.05 Q201.887 1206.48 198.252 1206.48 M198.252 1202.78 Q204.063 1202.78 207.118 1207.39 Q210.197 1211.97 210.197 1220.72 Q210.197 1229.45 207.118 1234.05 Q204.063 1238.64 198.252 1238.64 Q192.442 1238.64 189.364 1234.05 Q186.308 1229.45 186.308 1220.72 Q186.308 1211.97 189.364 1207.39 Q192.442 1202.78 198.252 1202.78 Z" fill="#000000" fill-rule="evenodd" fill-opacity="1" /><path clip-path="url(#clip480)" d="M 0 0 M144.827 971.81 L152.466 971.81 L152.466 945.444 L144.155 947.111 L144.155 942.852 L152.419 941.185 L157.095 941.185 L157.095 971.81 L164.734 971.81 L164.734 975.745 L144.827 975.745 L144.827 971.81 Z" fill="#000000" fill-rule="evenodd" fill-opacity="1" /><path clip-path="url(#clip480)" d="M 0 0 M174.178 969.866 L179.063 969.866 L179.063 975.745 L174.178 975.745 L174.178 969.866 Z" fill="#000000" fill-rule="evenodd" fill-opacity="1" /><path clip-path="url(#clip480)" d="M 0 0 M189.294 941.185 L207.651 941.185 L207.651 945.12 L193.577 945.12 L193.577 953.593 Q194.595 953.245 195.614 953.083 Q196.632 952.898 197.651 952.898 Q203.438 952.898 206.817 956.069 Q210.197 959.241 210.197 964.657 Q210.197 970.236 206.725 973.338 Q203.252 976.416 196.933 976.416 Q194.757 976.416 192.489 976.046 Q190.243 975.676 187.836 974.935 L187.836 970.236 Q189.919 971.37 192.141 971.926 Q194.364 972.481 196.84 972.481 Q200.845 972.481 203.183 970.375 Q205.521 968.268 205.521 964.657 Q205.521 961.046 203.183 958.94 Q200.845 956.833 196.84 956.833 Q194.965 956.833 193.09 957.25 Q191.239 957.667 189.294 958.546 L189.294 941.185 Z" fill="#000000" fill-rule="evenodd" fill-opacity="1" /><path clip-path="url(#clip480)" d="M 0 0 M147.049 709.59 L163.368 709.59 L163.368 713.525 L141.424 713.525 L141.424 709.59 Q144.086 706.836 148.669 702.206 Q153.276 697.553 154.456 696.211 Q156.702 693.687 157.581 691.951 Q158.484 690.192 158.484 688.502 Q158.484 685.748 156.54 684.012 Q154.618 682.276 151.517 682.276 Q149.317 682.276 146.864 683.039 Q144.433 683.803 141.655 685.354 L141.655 680.632 Q144.48 679.498 146.933 678.919 Q149.387 678.34 151.424 678.34 Q156.794 678.34 159.989 681.026 Q163.183 683.711 163.183 688.201 Q163.183 690.331 162.373 692.252 Q161.586 694.15 159.479 696.743 Q158.901 697.414 155.799 700.632 Q152.697 703.826 147.049 709.59 Z" fill="#000000" fill-rule="evenodd" fill-opacity="1" /><path clip-path="url(#clip480)" d="M 0 0 M173.183 707.646 L178.067 707.646 L178.067 713.525 L173.183 713.525 L173.183 707.646 Z" fill="#000000" fill-rule="evenodd" fill-opacity="1" /><path clip-path="url(#clip480)" d="M 0 0 M198.252 682.044 Q194.641 682.044 192.813 685.609 Q191.007 689.15 191.007 696.28 Q191.007 703.387 192.813 706.951 Q194.641 710.493 198.252 710.493 Q201.887 710.493 203.692 706.951 Q205.521 703.387 205.521 696.28 Q205.521 689.15 203.692 685.609 Q201.887 682.044 198.252 682.044 M198.252 678.34 Q204.063 678.34 207.118 682.947 Q210.197 687.53 210.197 696.28 Q210.197 705.007 207.118 709.613 Q204.063 714.197 198.252 714.197 Q192.442 714.197 189.364 709.613 Q186.308 705.007 186.308 696.28 Q186.308 687.53 189.364 682.947 Q192.442 678.34 198.252 678.34 Z" fill="#000000" fill-rule="evenodd" fill-opacity="1" /><path clip-path="url(#clip480)" d="M 0 0 M148.044 447.37 L164.364 447.37 L164.364 451.306 L142.419 451.306 L142.419 447.37 Q145.081 444.616 149.665 439.986 Q154.271 435.333 155.452 433.991 Q157.697 431.468 158.577 429.732 Q159.479 427.972 159.479 426.283 Q159.479 423.528 157.535 421.792 Q155.614 420.056 152.512 420.056 Q150.313 420.056 147.859 420.82 Q145.429 421.583 142.651 423.134 L142.651 418.412 Q145.475 417.278 147.929 416.699 Q150.382 416.121 152.419 416.121 Q157.79 416.121 160.984 418.806 Q164.179 421.491 164.179 425.982 Q164.179 428.111 163.368 430.032 Q162.581 431.931 160.475 434.523 Q159.896 435.195 156.794 438.412 Q153.692 441.607 148.044 447.37 Z" fill="#000000" fill-rule="evenodd" fill-opacity="1" /><path clip-path="url(#clip480)" d="M 0 0 M174.178 445.426 L179.063 445.426 L179.063 451.306 L174.178 451.306 L174.178 445.426 Z" fill="#000000" fill-rule="evenodd" fill-opacity="1" /><path clip-path="url(#clip480)" d="M 0 0 M189.294 416.746 L207.651 416.746 L207.651 420.681 L193.577 420.681 L193.577 429.153 Q194.595 428.806 195.614 428.644 Q196.632 428.458 197.651 428.458 Q203.438 428.458 206.817 431.63 Q210.197 434.801 210.197 440.218 Q210.197 445.796 206.725 448.898 Q203.252 451.977 196.933 451.977 Q194.757 451.977 192.489 451.606 Q190.243 451.236 187.836 450.495 L187.836 445.796 Q189.919 446.931 192.141 447.486 Q194.364 448.042 196.84 448.042 Q200.845 448.042 203.183 445.935 Q205.521 443.829 205.521 440.218 Q205.521 436.607 203.183 434.5 Q200.845 432.394 196.84 432.394 Q194.965 432.394 193.09 432.81 Q191.239 433.227 189.294 434.107 L189.294 416.746 Z" fill="#000000" fill-rule="evenodd" fill-opacity="1" /><path clip-path="url(#clip480)" d="M 0 0 M157.188 170.452 Q160.544 171.169 162.419 173.438 Q164.317 175.706 164.317 179.039 Q164.317 184.155 160.799 186.956 Q157.28 189.757 150.799 189.757 Q148.623 189.757 146.308 189.317 Q144.017 188.901 141.563 188.044 L141.563 183.53 Q143.507 184.664 145.822 185.243 Q148.137 185.822 150.66 185.822 Q155.058 185.822 157.35 184.086 Q159.665 182.35 159.665 179.039 Q159.665 175.984 157.512 174.271 Q155.382 172.535 151.563 172.535 L147.535 172.535 L147.535 168.692 L151.748 168.692 Q155.197 168.692 157.026 167.327 Q158.854 165.938 158.854 163.345 Q158.854 160.683 156.956 159.271 Q155.081 157.836 151.563 157.836 Q149.642 157.836 147.442 158.253 Q145.243 158.669 142.605 159.549 L142.605 155.382 Q145.267 154.641 147.581 154.271 Q149.919 153.901 151.98 153.901 Q157.304 153.901 160.405 156.331 Q163.507 158.739 163.507 162.859 Q163.507 165.729 161.864 167.72 Q160.22 169.688 157.188 170.452 Z" fill="#000000" fill-rule="evenodd" fill-opacity="1" /><path clip-path="url(#clip480)" d="M 0 0 M173.183 183.206 L178.067 183.206 L178.067 189.086 L173.183 189.086 L173.183 183.206 Z" fill="#000000" fill-rule="evenodd" fill-opacity="1" /><path clip-path="url(#clip480)" d="M 0 0 M198.252 157.604 Q194.641 157.604 192.813 161.169 Q191.007 164.711 191.007 171.84 Q191.007 178.947 192.813 182.512 Q194.641 186.053 198.252 186.053 Q201.887 186.053 203.692 182.512 Q205.521 178.947 205.521 171.84 Q205.521 164.711 203.692 161.169 Q201.887 157.604 198.252 157.604 M198.252 153.901 Q204.063 153.901 207.118 158.507 Q210.197 163.09 210.197 171.84 Q210.197 180.567 207.118 185.174 Q204.063 189.757 198.252 189.757 Q192.442 189.757 189.364 185.174 Q186.308 180.567 186.308 171.84 Q186.308 163.09 189.364 158.507 Q192.442 153.901 198.252 153.901 Z" fill="#000000" fill-rule="evenodd" fill-opacity="1" /><path clip-path="url(#clip480)" d="M 0 0 M53.6652 942.087 L70.0902 947.756 L70.0902 1002.44 Q70.0902 1003.18 70.058 1003.47 Q70.0258 1003.76 69.8648 1003.99 Q69.7037 1004.21 69.3495 1004.21 Q69.0596 1004.21 68.3189 1003.63 L39.3658 980.219 L6.25819 1004.28 Q4.74452 1004.28 4.45466 1004.02 Q4.13261 1003.76 4.13261 1002.44 L4.13261 947.756 L19.5592 942.087 L19.5592 943.73 Q17.5624 944.471 15.8877 945.662 Q14.1808 946.822 12.957 948.174 Q11.7332 949.495 10.767 951.234 Q9.76863 952.941 9.15672 954.551 Q8.5126 956.129 8.06172 958.094 Q7.57863 960.058 7.35319 961.636 Q7.09554 963.182 6.96672 965.114 Q6.8379 967.047 6.80569 968.271 Q6.77349 969.494 6.77349 971.04 L6.77349 997.159 L36.1774 975.742 Q36.9182 975.259 37.1114 975.259 Q37.4013 975.259 38.1742 975.871 L66.4509 998.737 L66.4509 970.718 Q66.4509 961.701 64.5508 955.421 Q63.1015 951.169 60.2352 948.078 Q57.3689 944.954 53.6652 943.73 L53.6652 942.087 Z" fill="#000000" fill-rule="evenodd" fill-opacity="1" /><path clip-path="url(#clip480)" d="M 0 0 M96.2324 1013.26 Q96.8636 1013.26 97.0215 1013.56 Q97.1567 1013.85 97.1567 1014.66 L97.1567 1018.99 L110.773 1022.42 Q111.968 1022.69 112.983 1022.69 Q114.11 1022.69 114.606 1022.35 Q115.102 1021.99 115.102 1021.25 Q115.102 1019.78 113.772 1018.2 Q112.442 1016.6 109.195 1015.25 Q108.767 1015.07 108.677 1014.98 Q108.564 1014.87 108.564 1014.57 Q108.564 1014.01 109.015 1014.01 Q109.173 1014.01 109.894 1014.32 Q110.616 1014.62 111.675 1015.27 Q112.735 1015.9 113.727 1016.74 Q114.719 1017.55 115.44 1018.79 Q116.139 1020.03 116.139 1021.36 Q116.139 1023.23 114.944 1024.42 Q113.749 1025.6 111.878 1025.6 Q111.269 1025.6 109.331 1025.12 Q107.369 1024.65 97.1567 1022.08 L97.1567 1026.16 Q97.1567 1026.72 97.1342 1026.95 Q97.1116 1027.15 96.9989 1027.31 Q96.8636 1027.45 96.5931 1027.45 Q96.1648 1027.45 95.9844 1027.26 Q95.7815 1027.08 95.759 1026.86 Q95.7139 1026.61 95.7139 1026.05 L95.7139 1021.72 L88.3871 1019.92 Q87.6657 1019.74 87.2599 1019.28 Q86.8315 1018.81 86.7864 1018.54 Q86.7188 1018.27 86.7188 1018.07 Q86.7188 1017.46 87.057 1017.1 Q87.3726 1016.74 87.9587 1016.74 Q88.2743 1016.74 95.7139 1018.63 L95.7139 1014.57 Q95.7139 1014.05 95.7364 1013.85 Q95.759 1013.63 95.8717 1013.45 Q95.9844 1013.26 96.2324 1013.26 Z" fill="#000000" fill-rule="evenodd" fill-opacity="1" /><path clip-path="url(#clip480)" d="M 0 0 M108.609 998.132 Q108.046 998.087 108.046 997.208 L108.046 968.915 Q108.046 967.585 108.564 967.562 Q109.128 967.562 109.105 968.825 L109.105 996.892 Q109.128 998.132 108.609 998.132 M99.5915 998.132 Q99.0279 998.132 99.0504 997.163 L99.0504 968.96 Q99.0504 967.585 99.5915 967.562 Q100.11 967.562 100.11 968.735 L100.11 997.208 Q100.11 998.132 99.5915 998.132 Z" fill="#000000" fill-rule="evenodd" fill-opacity="1" /><path clip-path="url(#clip480)" d="M 0 0 M100.854 949.75 Q94.0682 949.75 90.3709 948.037 Q84.8702 945.647 84.8702 940.011 Q84.8702 938.816 85.2083 937.577 Q85.524 936.314 86.7639 934.736 Q88.0038 933.135 90.0328 932.166 Q93.9555 930.317 100.854 930.317 Q107.595 930.317 111.269 932.031 Q116.635 934.533 116.635 940.056 Q116.635 942.13 115.575 944.25 Q114.516 946.346 111.968 947.676 Q108.158 949.75 100.854 949.75 M100.29 945.918 Q107.256 945.918 110.029 945.422 Q113.028 944.858 114.335 943.325 Q115.62 941.77 115.62 940.056 Q115.62 938.208 114.245 936.675 Q112.847 935.119 109.849 934.646 Q106.896 934.127 100.29 934.15 Q93.8653 934.15 91.2953 934.601 Q88.2969 935.209 87.102 936.833 Q85.8847 938.433 85.8847 940.056 Q85.8847 940.665 86.065 941.319 Q86.2454 941.95 86.7639 942.874 Q87.2824 943.799 88.5674 944.52 Q89.8524 945.219 91.7912 945.557 Q94.2936 945.918 100.29 945.918 Z" fill="#000000" fill-rule="evenodd" fill-opacity="1" /><path clip-path="url(#clip480)" d="M 0 0 M9.67201 874.983 Q10.2839 874.983 10.7992 875.112 L22.2645 876.915 Q23.1341 877.012 23.4561 877.205 Q23.7782 877.366 23.7782 877.881 Q23.7782 878.686 22.9408 878.686 Q22.4577 878.686 21.6848 878.493 Q18.0455 877.946 16.403 877.946 Q15.308 877.946 14.5029 878.171 Q13.6655 878.364 13.0858 878.686 Q12.5061 878.976 12.1197 879.653 Q11.7332 880.329 11.5077 880.973 Q11.2823 881.617 11.1857 882.777 Q11.0569 883.936 11.0247 884.934 Q10.9925 885.933 10.9925 887.575 Q10.9925 891.15 11.1213 891.73 Q11.2823 892.342 11.7654 892.664 Q12.2163 892.954 13.5689 893.276 L48.5767 902.036 L49.9615 902.293 Q50.7345 902.293 50.9921 901.81 Q51.2498 901.327 51.4108 899.846 Q51.5718 897.72 51.5718 895.627 Q51.5718 895.562 51.5718 895.433 Q51.5718 894.725 51.604 894.435 Q51.604 894.145 51.6685 893.855 Q51.7329 893.566 51.8939 893.501 Q52.0227 893.405 52.2804 893.405 Q52.8923 893.405 53.2143 893.662 Q53.5042 893.92 53.5686 894.177 Q53.6008 894.403 53.6008 894.854 Q53.6008 895.756 53.5364 897.688 Q53.472 899.62 53.472 900.586 L53.4076 906.061 L53.472 911.665 Q53.472 912.535 53.5364 914.371 Q53.6008 916.206 53.6008 917.076 Q53.6008 918.203 52.7957 918.203 Q51.8939 918.203 51.7329 917.784 Q51.5718 917.333 51.5718 915.433 Q51.5718 912.76 51.443 911.311 Q51.3142 909.862 50.8633 909.089 Q50.4124 908.284 49.9615 908.058 Q49.4785 907.833 48.3835 907.575 L13.1825 898.718 Q12.4095 898.461 11.7976 898.461 Q11.4755 898.461 11.3467 898.557 Q11.2179 898.622 11.1213 899.041 Q10.9925 899.459 10.9925 900.329 L10.9925 902.905 Q10.9925 905.546 11.1213 907.189 Q11.2179 908.799 11.701 910.345 Q12.1841 911.858 12.8604 912.76 Q13.5367 913.63 14.9216 914.596 Q16.3064 915.562 17.9811 916.271 Q19.6558 916.947 22.3933 917.913 Q23.2951 918.235 23.5527 918.428 Q23.7782 918.59 23.7782 919.04 Q23.7782 919.362 23.5849 919.62 Q23.3595 919.846 23.0697 919.846 Q22.0069 919.523 21.878 919.459 L10.2517 915.498 Q9.31775 915.176 9.15672 914.886 Q8.96348 914.564 8.96348 913.372 L8.96348 876.786 Q8.96348 876.207 8.96348 876.013 Q8.96348 875.82 9.0279 875.498 Q9.09231 875.176 9.25334 875.079 Q9.41437 874.983 9.67201 874.983 Z" fill="#000000" fill-rule="evenodd" fill-opacity="1" /><path clip-path="url(#clip480)" d="M 0 0 M16.5041 850.007 L17.4284 850.571 Q15.918 854.065 13.5057 858.416 Q15.918 862.767 17.4284 866.261 L16.5041 866.802 Q13.1901 862.992 10.6426 858.416 Q13.2127 853.794 16.5041 850.007 Z" fill="#000000" fill-rule="evenodd" fill-opacity="1" /><path clip-path="url(#clip480)" d="M 0 0 M28.8023 848.845 Q30.6058 848.845 31.6364 849.972 Q32.6348 851.099 32.6348 852.388 Q32.6348 853.611 31.9263 854.256 Q31.2177 854.9 30.316 854.9 Q29.0921 854.9 28.0294 853.998 Q26.9666 853.096 26.7411 851.743 Q25.9038 853.064 25.9038 855.028 Q25.9038 856.317 26.5801 857.444 Q27.2564 858.539 28.126 859.215 Q28.9955 859.859 30.2516 860.439 Q31.4754 860.987 32.2161 861.212 Q32.9246 861.405 33.6976 861.566 L42.7152 863.821 Q46.9986 864.916 48.5123 864.916 Q50.3802 864.916 51.6363 864.014 Q52.8601 863.112 52.8601 861.309 Q52.8601 860.6 52.6668 859.795 Q52.4414 858.99 51.8617 857.959 Q51.2498 856.896 50.348 855.962 Q49.414 854.996 47.836 854.062 Q46.2579 853.128 44.2289 852.516 Q43.5204 852.323 43.5204 851.679 Q43.5204 850.874 44.1645 850.874 Q44.712 850.874 45.8714 851.325 Q46.9986 851.743 48.4801 852.677 Q49.9293 853.579 51.2498 854.771 Q52.538 855.962 53.4398 857.734 Q54.3415 859.505 54.3415 861.437 Q54.3415 864.207 52.8601 866.043 Q51.3786 867.879 49.3174 868.555 Q49.6073 868.716 49.9938 868.941 Q50.3802 869.167 51.2498 869.843 Q52.0871 870.487 52.7313 871.228 Q53.3432 871.969 53.8262 873.128 Q54.3415 874.255 54.3415 875.479 Q54.3415 877.025 53.8907 878.41 Q53.4398 879.763 52.4092 880.729 Q51.3786 881.695 49.9615 881.695 Q48.3835 881.695 47.2885 880.632 Q46.1613 879.537 46.1613 878.056 Q46.1613 877.122 46.7088 876.381 Q47.2563 875.608 48.4479 875.608 Q49.7683 875.608 50.7667 876.51 Q51.7651 877.412 52.0227 878.7 Q52.8601 877.379 52.8601 875.415 Q52.8601 873.289 50.9921 871.614 Q49.1242 869.94 46.0002 869.135 Q38.4963 867.138 35.1468 866.365 Q31.7652 865.592 30.316 865.592 Q28.9633 865.592 28.0294 865.946 Q27.0954 866.301 26.6767 866.912 Q26.2258 867.492 26.0648 868.04 Q25.9038 868.555 25.9038 869.135 Q25.9038 870.101 26.2902 871.196 Q26.6767 872.259 27.5785 873.547 Q28.448 874.803 30.2516 875.994 Q32.0551 877.186 34.5349 877.991 Q35.2757 878.152 35.2757 878.861 Q35.2435 879.634 34.5994 879.634 Q34.0519 879.634 32.9246 879.215 Q31.7652 878.764 30.316 877.862 Q28.8667 876.928 27.5785 875.737 Q26.258 874.513 25.3563 872.742 Q24.4545 870.938 24.4545 869.006 Q24.4545 868.136 24.6477 867.299 Q24.8088 866.429 25.2919 865.399 Q25.7749 864.336 26.8377 863.402 Q27.9005 862.468 29.4464 861.888 Q28.7057 861.502 27.9971 860.987 Q27.2886 860.439 26.4191 859.602 Q25.5173 858.732 25.002 857.541 Q24.4545 856.317 24.4545 854.964 Q24.4545 853.644 24.8088 852.355 Q25.1308 851.067 26.1936 849.972 Q27.2242 848.845 28.8023 848.845 Z" fill="#000000" fill-rule="evenodd" fill-opacity="1" /><path clip-path="url(#clip480)" d="M 0 0 M52.1213 823.122 Q52.7526 823.122 52.9104 823.415 Q53.0456 823.708 53.0456 824.519 L53.0456 828.848 L66.6623 832.274 Q67.8571 832.545 68.8716 832.545 Q69.9988 832.545 70.4948 832.207 Q70.9907 831.846 70.9907 831.102 Q70.9907 829.637 69.6606 828.059 Q68.3305 826.458 65.0842 825.105 Q64.6558 824.925 64.5657 824.835 Q64.4529 824.722 64.4529 824.429 Q64.4529 823.866 64.9038 823.866 Q65.0616 823.866 65.783 824.181 Q66.5045 824.474 67.564 825.128 Q68.6236 825.759 69.6155 826.593 Q70.6075 827.405 71.3289 828.645 Q72.0278 829.885 72.0278 831.215 Q72.0278 833.086 70.8329 834.281 Q69.6381 835.453 67.7669 835.453 Q67.1582 835.453 65.2194 834.98 Q63.2581 834.506 53.0456 831.936 L53.0456 836.017 Q53.0456 836.58 53.0231 836.806 Q53.0005 837.009 52.8878 837.167 Q52.7526 837.302 52.482 837.302 Q52.0537 837.302 51.8733 837.121 Q51.6704 836.941 51.6479 836.716 Q51.6028 836.468 51.6028 835.904 L51.6028 831.576 L44.276 829.772 Q43.5546 829.592 43.1488 829.141 Q42.7204 828.667 42.6753 828.397 Q42.6077 828.126 42.6077 827.923 Q42.6077 827.315 42.9459 826.954 Q43.2615 826.593 43.8476 826.593 Q44.1632 826.593 51.6028 828.487 L51.6028 824.429 Q51.6028 823.911 51.6253 823.708 Q51.6479 823.482 51.7606 823.302 Q51.8733 823.122 52.1213 823.122 Z" fill="#000000" fill-rule="evenodd" fill-opacity="1" /><path clip-path="url(#clip480)" d="M 0 0 M35.6497 813.761 Q25.0076 813.761 16.4262 809.793 Q12.8275 808.101 9.81325 805.733 Q6.799 803.365 5.47642 801.796 Q4.15383 800.227 4.15383 799.797 Q4.15383 799.182 4.76899 799.151 Q5.07657 799.151 5.84551 799.981 Q16.1801 810.131 35.6497 810.101 Q55.1809 810.101 65.1156 800.227 Q66.1921 799.151 66.5305 799.151 Q67.1456 799.151 67.1456 799.797 Q67.1456 800.227 65.8846 801.734 Q64.6235 803.242 61.7323 805.579 Q58.8411 807.917 55.3039 809.608 Q46.7225 813.761 35.6497 813.761 Z" fill="#000000" fill-rule="evenodd" fill-opacity="1" /><path clip-path="url(#clip480)" d="M 0 0 M17.4014 782.532 Q11.7332 782.532 7.9329 779.634 Q4.13261 776.735 4.13261 772.838 Q4.13261 770.455 6.25819 768.104 Q11.3467 762.758 11.3145 755.769 Q11.3145 747.846 5.06658 743.241 Q4.13261 742.436 4.13261 741.856 Q4.13261 741.341 4.55128 740.954 Q4.93775 740.536 5.45305 740.536 Q5.83952 740.536 6.64466 741.051 L56.3061 774.416 Q57.3045 775.157 57.3045 775.737 Q57.3045 776.252 56.8858 776.671 Q56.4993 777.057 55.984 777.057 Q55.5332 777.057 54.6636 776.477 L10.5416 746.848 L10.4772 746.912 Q12.796 750.326 12.7638 755.705 Q12.7638 760.793 9.99407 765.656 Q13.4079 764.271 17.4658 764.271 Q23.0052 764.271 26.8699 766.751 Q30.7024 769.231 30.7024 772.838 Q30.7024 776.735 26.9666 779.634 Q23.1985 782.532 17.4014 782.532 M12.023 777.991 Q14.3419 778.442 17.4658 778.442 Q20.5576 778.442 22.8764 777.991 Q25.163 777.54 26.3546 776.896 Q27.5463 776.22 28.2548 775.318 Q28.9311 774.416 29.0921 773.869 Q29.2532 773.321 29.2532 772.774 Q29.2532 770.068 25.9038 768.007 Q22.5222 765.914 17.4014 765.914 Q12.3773 765.914 8.99569 768.007 Q5.58187 770.068 5.58187 772.774 Q5.58187 773.353 5.7429 773.933 Q5.90393 774.481 6.61246 775.35 Q7.28878 776.22 8.4804 776.896 Q9.67201 777.54 12.023 777.991 M43.9713 753.321 Q38.303 753.321 34.5027 750.423 Q30.7024 747.524 30.7024 743.627 Q30.7024 740.053 34.5671 737.573 Q38.4318 735.061 44.0357 735.061 Q49.5751 735.061 53.4398 737.541 Q57.3045 739.988 57.3045 743.627 Q57.3045 747.524 53.5364 750.423 Q49.7683 753.321 43.9713 753.321 M38.5929 748.78 Q40.9439 749.231 44.0357 749.231 Q47.1274 749.231 49.4463 748.78 Q51.7651 748.297 52.9567 747.653 Q54.1161 746.977 54.7924 746.107 Q55.501 745.206 55.662 744.658 Q55.8552 744.078 55.8552 743.563 Q55.8552 740.858 52.5058 738.797 Q49.1242 736.703 43.9713 736.703 Q38.9471 736.703 35.5655 738.797 Q32.1517 740.858 32.1517 743.563 Q32.1517 744.143 32.3449 744.722 Q32.506 745.27 33.2145 746.14 Q33.8908 746.977 35.0824 747.653 Q36.2418 748.297 38.5929 748.78 Z" fill="#000000" fill-rule="evenodd" fill-opacity="1" /><path clip-path="url(#clip480)" d="M 0 0 M52.538 727.211 Q51.4752 728.145 50.0904 728.145 Q48.7055 728.145 47.6749 727.243 Q46.6121 726.309 46.6121 724.635 Q46.6121 722.67 48.5123 721.543 Q50.3802 720.416 53.5364 720.416 Q56.9502 720.416 60.1064 721.801 Q63.2948 723.186 64.8084 724.538 Q66.3221 725.891 66.3221 726.438 Q66.3221 727.082 65.6136 727.082 Q65.3559 727.082 64.8729 726.632 Q59.7843 721.897 53.5364 721.865 Q52.538 721.865 52.538 721.994 L52.6668 722.155 Q53.6008 723.282 53.6008 724.635 Q53.6008 726.277 52.538 727.211 Z" fill="#000000" fill-rule="evenodd" fill-opacity="1" /><path clip-path="url(#clip480)" d="M 0 0 M36.3063 665.011 Q39.5591 665.011 42.8118 666.686 Q46.0646 668.36 48.5767 671.098 Q51.0565 673.835 52.6668 677.571 Q54.2771 681.307 54.406 685.204 L64.2287 687.716 Q66.612 688.199 66.8696 688.457 Q67.1273 688.715 67.1273 689.101 Q67.1273 689.906 66.3865 689.906 Q66.1611 689.906 60.5895 688.457 L54.406 686.911 Q54.0839 692.773 50.7023 696.186 Q47.3207 699.6 42.4576 699.6 Q39.1726 699.6 35.9198 697.925 Q32.6348 696.219 30.1549 693.481 Q27.6751 690.711 26.097 686.975 Q24.5189 683.24 24.3901 679.407 L9.15672 675.575 Q8.28716 675.381 8.06172 675.22 Q7.83628 675.059 7.83628 674.576 Q7.83628 674.222 7.99731 674.029 Q8.15834 673.835 8.31937 673.835 L8.4804 673.803 L9.41437 673.996 L24.3901 677.7 Q24.6155 674.415 25.7749 671.871 Q26.9344 669.327 28.6735 667.877 Q30.3804 666.428 32.3127 665.72 Q34.2451 665.011 36.3063 665.011 M25.8394 679.794 Q26.1614 683.336 27.9005 686.331 Q29.6396 689.326 32.2161 691.259 Q34.7604 693.191 37.8199 694.254 Q40.8473 695.317 43.8424 695.317 Q46.1935 695.317 47.997 694.544 Q49.8005 693.739 50.8311 692.418 Q51.8295 691.098 52.377 689.649 Q52.8923 688.167 52.9567 686.589 L25.8394 679.794 M34.9214 669.327 Q30.7346 669.327 28.3836 671.742 Q26.0326 674.158 25.8394 678.087 L52.9567 684.882 Q52.7313 682.016 51.5396 679.504 Q50.3158 676.959 48.5123 675.124 Q46.6765 673.288 44.4221 671.968 Q42.1355 670.647 39.7201 670.003 Q37.2724 669.327 34.9214 669.327 Z" fill="#000000" fill-rule="evenodd" fill-opacity="1" /><path clip-path="url(#clip480)" d="M 0 0 M43.5848 642.381 Q42.7796 642.317 42.7796 641.061 L42.7796 600.643 Q42.7796 598.742 43.5204 598.71 Q44.3255 598.71 44.2933 600.514 L44.2933 640.61 Q44.3255 642.381 43.5848 642.381 M30.7024 642.381 Q29.8973 642.381 29.9295 640.997 L29.9295 600.707 Q29.9295 598.742 30.7024 598.71 Q31.4432 598.71 31.4432 600.385 L31.4432 641.061 Q31.4432 642.381 30.7024 642.381 Z" fill="#000000" fill-rule="evenodd" fill-opacity="1" /><path clip-path="url(#clip480)" d="M 0 0 M15.9522 573.264 L13.891 573.264 Q13.891 565.342 9.67201 561.252 Q9.67201 560.124 9.92966 559.931 Q10.1873 559.738 11.3789 559.738 L48.3835 559.738 Q50.348 559.738 50.9599 558.772 Q51.5718 557.806 51.5718 553.587 L51.5718 551.493 L53.6008 551.493 Q53.4076 553.812 53.4076 562.186 Q53.4076 570.559 53.6008 572.846 L51.5718 572.846 L51.5718 570.752 Q51.5718 566.598 50.9921 565.599 Q50.3802 564.601 48.3835 564.601 L14.213 564.601 Q15.9522 568.047 15.9522 573.264 Z" fill="#000000" fill-rule="evenodd" fill-opacity="1" /><path clip-path="url(#clip480)" d="M 0 0 M52.538 546.352 Q51.4752 547.35 50.0904 547.35 Q48.7055 547.35 47.7071 546.352 Q46.6765 545.354 46.6765 543.84 Q46.6765 542.391 47.6427 541.425 Q48.5767 540.426 50.1226 540.426 Q51.6363 540.426 52.6346 541.489 Q53.6008 542.52 53.6008 543.84 Q53.6008 545.354 52.538 546.352 Z" fill="#000000" fill-rule="evenodd" fill-opacity="1" /><path clip-path="url(#clip480)" d="M 0 0 M53.6008 529.2 Q52.4092 529.2 52.0549 529.104 Q51.7007 528.975 51.1532 528.459 L37.047 515.803 Q29.2532 508.878 22.4577 508.878 Q18.0455 508.878 14.8894 511.197 Q11.7332 513.484 11.7332 517.703 Q11.7332 520.601 13.5045 523.049 Q15.2758 525.496 18.432 526.624 Q18.3676 526.43 18.3676 525.754 Q18.3676 524.112 19.3982 523.21 Q20.4288 522.276 21.8136 522.276 Q23.5849 522.276 24.4545 523.435 Q25.2919 524.563 25.2919 525.69 Q25.2919 526.141 25.1952 526.753 Q25.0986 527.332 24.1969 528.266 Q23.2629 529.2 21.6204 529.2 Q17.015 529.2 13.3435 525.722 Q9.67201 522.211 9.67201 516.865 Q9.67201 510.811 13.2791 506.849 Q16.8539 502.856 22.4577 502.856 Q24.4223 502.856 26.2258 503.468 Q27.9971 504.047 29.382 504.853 Q30.7669 505.625 32.9891 507.751 Q35.2113 509.877 36.7893 511.584 Q38.3674 513.29 41.7168 517.123 L48.5123 524.112 L48.5123 512.228 Q48.5123 506.431 47.997 505.98 Q47.063 505.336 42.1355 504.53 L42.1355 502.856 L53.6008 504.724 L53.6008 529.2 Z" fill="#000000" fill-rule="evenodd" fill-opacity="1" /><path clip-path="url(#clip480)" d="M 0 0 M42.9729 496.536 Q41.0083 496.536 40.2676 495.473 Q39.4946 494.411 39.4946 493.283 Q39.4946 491.77 40.4608 490.9 Q41.3948 489.998 42.7152 489.998 Q44.0357 489.998 45.0018 490.9 Q45.9358 491.77 45.9358 493.283 Q45.9358 494.024 45.807 494.411 Q48.8343 493.541 51.0243 490.9 Q53.2143 488.227 53.2143 484.717 Q53.2143 480.304 48.931 477.663 Q46.1613 476.085 39.8811 476.085 Q34.3417 476.085 31.572 477.277 Q27.353 479.113 27.353 482.881 Q27.353 488.227 31.9585 491.383 Q32.5382 491.77 32.5704 492.221 Q32.5704 492.865 32.2161 493.026 Q31.8296 493.154 30.8313 493.154 L11.3145 493.154 Q9.73643 493.154 9.73643 492.51 Q9.73643 492.253 9.92966 491.705 Q11.7654 487.551 11.7976 482.945 Q11.7976 478.211 9.86525 473.96 Q9.67201 473.638 9.67201 473.444 Q9.67201 472.8 10.4127 472.768 Q10.6704 472.768 11.4433 473.316 Q12.1841 473.831 13.1825 474.958 Q14.1486 476.085 15.0826 477.535 Q16.0166 478.984 16.6607 481.109 Q17.2726 483.203 17.2726 485.522 Q17.2726 488.291 16.403 491.126 L29.2532 491.126 Q25.9038 487.712 25.9038 482.752 Q25.9038 477.47 30.1549 473.831 Q34.4061 470.192 40.332 470.192 Q46.5477 470.192 50.7989 474.507 Q55.0501 478.791 55.0501 484.588 Q55.0501 489.869 51.282 493.219 Q47.5139 496.536 42.9729 496.536 Z" fill="#000000" fill-rule="evenodd" fill-opacity="1" /><path clip-path="url(#clip480)" d="M 0 0 M66.5305 463.418 Q66.2229 463.418 65.454 462.618 Q55.1194 452.468 35.6497 452.468 Q16.1186 452.468 6.24536 462.218 Q5.10732 463.418 4.76899 463.418 Q4.15383 463.418 4.15383 462.803 Q4.15383 462.372 5.4149 460.865 Q6.67597 459.327 9.56719 457.02 Q12.4584 454.683 15.9956 452.96 Q24.577 448.808 35.6497 448.808 Q46.2919 448.808 54.8733 452.776 Q58.472 454.467 61.4862 456.836 Q64.5005 459.204 65.8231 460.773 Q67.1456 462.341 67.1456 462.803 Q67.1456 463.418 66.5305 463.418 Z" fill="#000000" fill-rule="evenodd" fill-opacity="1" /><polyline clip-path="url(#clip482)" style="stroke:#0000ff; stroke-width:4; stroke-opacity:1; fill:none" points="
  293.767,388.336 348.446,861.788 403.125,1083.31 457.803,1183.8 512.482,1239.8 567.161,1275.18 621.84,1299.47 676.518,1317.12 731.197,1330.53 785.876,1341.04 
  840.555,1349.49 895.233,1356.45 949.912,1362.26 1004.59,1367.19 1059.27,1371.43 1113.95,1375.11 1168.63,1378.33 1223.31,1381.18 1277.98,1383.71 1332.66,1385.98 
  1387.34,1388.02 1442.02,1389.87 1496.7,1391.56 1551.38,1393.09 1606.06,1394.5 1660.74,1395.8 1715.41,1397 1770.09,1398.11 1824.77,1399.14 1879.45,1400.1 
  
  "/>
<polyline clip-path="url(#clip482)" style="stroke:#5500aa; stroke-width:4; stroke-opacity:1; fill:none" points="
  293.767,313.9 348.446,340.545 403.125,538.742 457.803,646.387 512.482,711.474 567.161,754.603 621.84,785.141 676.518,807.845 731.197,825.364 785.876,839.281 
  840.555,850.597 895.233,859.976 949.912,867.873 1004.59,874.614 1059.27,880.433 1113.95,885.508 1168.63,889.972 1223.31,893.929 1277.98,897.46 1332.66,900.631 
  1387.34,903.494 1442.02,906.092 1496.7,908.459 1551.38,910.626 1606.06,912.616 1660.74,914.451 1715.41,916.147 1770.09,917.721 1824.77,919.184 1879.45,920.548 
  
  "/>
<polyline clip-path="url(#clip482)" style="stroke:#aa0055; stroke-width:4; stroke-opacity:1; fill:none" points="
  293.767,278.918 348.446,90.4034 403.125,248.817 457.803,343.537 512.482,403.148 567.161,443.57 621.84,472.631 676.518,494.476 731.197,511.471 785.876,525.06 
  840.555,536.167 895.233,545.411 949.912,553.224 1004.59,559.913 1059.27,565.703 1113.95,570.763 1168.63,575.223 1223.31,579.184 1277.98,582.724 1332.66,585.908 
  1387.34,588.786 1442.02,591.401 1496.7,593.786 1551.38,595.971 1606.06,597.98 1660.74,599.833 1715.41,601.548 1770.09,603.14 1824.77,604.621 1879.45,606.003 
  
  "/>
<polyline clip-path="url(#clip482)" style="stroke:#ff0000; stroke-width:4; stroke-opacity:1; fill:none" points="
  293.767,278.527 348.446,86.6476 403.125,243.829 457.803,337.912 512.482,397.135 567.161,437.296 621.84,466.171 676.518,487.874 731.197,504.76 785.876,518.26 
  840.555,529.295 895.233,538.479 949.912,546.241 1004.59,552.886 1059.27,558.638 1113.95,563.665 1168.63,568.096 1223.31,572.031 1277.98,575.548 1332.66,578.711 
  1387.34,581.57 1442.02,584.167 1496.7,586.536 1551.38,588.707 1606.06,590.703 1660.74,592.544 1715.41,594.247 1770.09,595.828 1824.77,597.3 1879.45,598.672 
  
  "/>
<path clip-path="url(#clip480)" d="
M1997.24 358.253 L2352.76 358.253 L2352.76 93.6527 L1997.24 93.6527  Z
  " fill="#ffffff" fill-rule="evenodd" fill-opacity="1"/>
<polyline clip-path="url(#clip480)" style="stroke:#000000; stroke-width:4; stroke-opacity:1; fill:none" points="
  1997.24,358.253 2352.76,358.253 2352.76,93.6527 1997.24,93.6527 1997.24,358.253 
  "/>
<polyline clip-path="url(#clip480)" style="stroke:#0000ff; stroke-width:3.5; stroke-opacity:1; fill:none" points="
  2020.65,146.573 2161.08,146.573 
  "/>
<path clip-path="url(#clip480)" d="M 0 0 M2213.04 132.681 Q2213.04 133.07 2212.96 133.398 L2211.81 140.694 Q2211.75 141.247 2211.62 141.452 Q2211.52 141.657 2211.19 141.657 Q2210.68 141.657 2210.68 141.124 Q2210.68 140.817 2210.8 140.325 Q2211.15 138.009 2211.15 136.964 Q2211.15 136.267 2211.01 135.755 Q2210.89 135.222 2210.68 134.853 Q2210.5 134.484 2210.07 134.238 Q2209.64 133.992 2209.23 133.849 Q2208.82 133.705 2208.08 133.644 Q2207.34 133.562 2206.71 133.541 Q2206.07 133.521 2205.02 133.521 Q2202.75 133.521 2202.38 133.603 Q2201.99 133.705 2201.79 134.013 Q2201.6 134.3 2201.4 135.16 L2195.82 157.438 L2195.66 158.319 Q2195.66 158.811 2195.97 158.975 Q2196.27 159.139 2197.22 159.242 Q2198.57 159.344 2199.9 159.344 Q2199.94 159.344 2200.02 159.344 Q2200.47 159.344 2200.66 159.365 Q2200.84 159.365 2201.03 159.406 Q2201.21 159.446 2201.25 159.549 Q2201.32 159.631 2201.32 159.795 Q2201.32 160.184 2201.15 160.389 Q2200.99 160.574 2200.82 160.615 Q2200.68 160.635 2200.39 160.635 Q2199.82 160.635 2198.59 160.594 Q2197.36 160.553 2196.74 160.553 L2193.26 160.512 L2189.69 160.553 Q2189.14 160.553 2187.97 160.594 Q2186.8 160.635 2186.25 160.635 Q2185.53 160.635 2185.53 160.123 Q2185.53 159.549 2185.8 159.446 Q2186.09 159.344 2187.3 159.344 Q2189 159.344 2189.92 159.262 Q2190.84 159.18 2191.33 158.893 Q2191.85 158.606 2191.99 158.319 Q2192.13 158.012 2192.3 157.315 L2197.93 134.914 Q2198.1 134.423 2198.1 134.033 Q2198.1 133.828 2198.04 133.746 Q2198 133.664 2197.73 133.603 Q2197.46 133.521 2196.91 133.521 L2195.27 133.521 Q2193.59 133.521 2192.54 133.603 Q2191.52 133.664 2190.53 133.972 Q2189.57 134.279 2189 134.709 Q2188.44 135.14 2187.83 136.021 Q2187.21 136.902 2186.76 137.968 Q2186.33 139.034 2185.72 140.776 Q2185.51 141.35 2185.39 141.514 Q2185.29 141.657 2185 141.657 Q2184.8 141.657 2184.63 141.534 Q2184.49 141.391 2184.49 141.206 Q2184.69 140.53 2184.73 140.448 L2187.26 133.049 Q2187.46 132.455 2187.65 132.353 Q2187.85 132.23 2188.61 132.23 L2211.89 132.23 Q2212.26 132.23 2212.38 132.23 Q2212.51 132.23 2212.71 132.271 Q2212.92 132.312 2212.98 132.414 Q2213.04 132.517 2213.04 132.681 Z" fill="#000000" fill-rule="evenodd" fill-opacity="1" /><path clip-path="url(#clip480)" d="M 0 0 M2220.41 154.261 Q2220.45 153.749 2221.25 153.749 L2246.97 153.749 Q2248.18 153.749 2248.2 154.22 Q2248.2 154.733 2247.05 154.712 L2221.53 154.712 Q2220.41 154.733 2220.41 154.261 M2220.41 146.064 Q2220.41 145.551 2221.29 145.572 L2246.93 145.572 Q2248.18 145.572 2248.2 146.064 Q2248.2 146.535 2247.13 146.535 L2221.25 146.535 Q2220.41 146.535 2220.41 146.064 Z" fill="#000000" fill-rule="evenodd" fill-opacity="1" /><path clip-path="url(#clip480)" d="M 0 0 M2264.38 136.677 L2264.38 135.365 Q2269.42 135.365 2272.03 132.681 Q2272.74 132.681 2272.87 132.844 Q2272.99 133.008 2272.99 133.767 L2272.99 157.315 Q2272.99 158.565 2273.6 158.955 Q2274.22 159.344 2276.9 159.344 L2278.24 159.344 L2278.24 160.635 Q2276.76 160.512 2271.43 160.512 Q2266.1 160.512 2264.65 160.635 L2264.65 159.344 L2265.98 159.344 Q2268.62 159.344 2269.26 158.975 Q2269.89 158.586 2269.89 157.315 L2269.89 135.57 Q2267.7 136.677 2264.38 136.677 Z" fill="#000000" fill-rule="evenodd" fill-opacity="1" /><polyline clip-path="url(#clip480)" style="stroke:#5500aa; stroke-width:3.5; stroke-opacity:1; fill:none" points="
  2020.65,199.493 2161.08,199.493 
  "/>
<path clip-path="url(#clip480)" d="M 0 0 M2213.04 185.147 Q2213.04 185.537 2212.96 185.865 L2211.81 193.161 Q2211.75 193.714 2211.62 193.919 Q2211.52 194.124 2211.19 194.124 Q2210.68 194.124 2210.68 193.591 Q2210.68 193.284 2210.8 192.792 Q2211.15 190.476 2211.15 189.431 Q2211.15 188.734 2211.01 188.222 Q2210.89 187.689 2210.68 187.32 Q2210.5 186.951 2210.07 186.705 Q2209.64 186.459 2209.23 186.316 Q2208.82 186.172 2208.08 186.111 Q2207.34 186.029 2206.71 186.008 Q2206.07 185.988 2205.02 185.988 Q2202.75 185.988 2202.38 186.07 Q2201.99 186.172 2201.79 186.48 Q2201.6 186.766 2201.4 187.627 L2195.82 209.905 L2195.66 210.786 Q2195.66 211.278 2195.97 211.442 Q2196.27 211.606 2197.22 211.708 Q2198.57 211.811 2199.9 211.811 Q2199.94 211.811 2200.02 211.811 Q2200.47 211.811 2200.66 211.831 Q2200.84 211.831 2201.03 211.872 Q2201.21 211.913 2201.25 212.016 Q2201.32 212.098 2201.32 212.262 Q2201.32 212.651 2201.15 212.856 Q2200.99 213.041 2200.82 213.082 Q2200.68 213.102 2200.39 213.102 Q2199.82 213.102 2198.59 213.061 Q2197.36 213.02 2196.74 213.02 L2193.26 212.979 L2189.69 213.02 Q2189.14 213.02 2187.97 213.061 Q2186.8 213.102 2186.25 213.102 Q2185.53 213.102 2185.53 212.59 Q2185.53 212.016 2185.8 211.913 Q2186.09 211.811 2187.3 211.811 Q2189 211.811 2189.92 211.729 Q2190.84 211.647 2191.33 211.36 Q2191.85 211.073 2191.99 210.786 Q2192.13 210.479 2192.3 209.782 L2197.93 187.381 Q2198.1 186.889 2198.1 186.5 Q2198.1 186.295 2198.04 186.213 Q2198 186.131 2197.73 186.07 Q2197.46 185.988 2196.91 185.988 L2195.27 185.988 Q2193.59 185.988 2192.54 186.07 Q2191.52 186.131 2190.53 186.439 Q2189.57 186.746 2189 187.176 Q2188.44 187.607 2187.83 188.488 Q2187.21 189.369 2186.76 190.435 Q2186.33 191.501 2185.72 193.243 Q2185.51 193.817 2185.39 193.981 Q2185.29 194.124 2185 194.124 Q2184.8 194.124 2184.63 194.001 Q2184.49 193.858 2184.49 193.673 Q2184.69 192.997 2184.73 192.915 L2187.26 185.516 Q2187.46 184.922 2187.65 184.819 Q2187.85 184.696 2188.61 184.696 L2211.89 184.696 Q2212.26 184.696 2212.38 184.696 Q2212.51 184.696 2212.71 184.737 Q2212.92 184.778 2212.98 184.881 Q2213.04 184.983 2213.04 185.147 Z" fill="#000000" fill-rule="evenodd" fill-opacity="1" /><path clip-path="url(#clip480)" d="M 0 0 M2220.41 206.728 Q2220.45 206.216 2221.25 206.216 L2246.97 206.216 Q2248.18 206.216 2248.2 206.687 Q2248.2 207.2 2247.05 207.179 L2221.53 207.179 Q2220.41 207.2 2220.41 206.728 M2220.41 198.53 Q2220.41 198.018 2221.29 198.039 L2246.93 198.039 Q2248.18 198.039 2248.2 198.53 Q2248.2 199.002 2247.13 199.002 L2221.25 199.002 Q2220.41 199.002 2220.41 198.53 Z" fill="#000000" fill-rule="evenodd" fill-opacity="1" /><path clip-path="url(#clip480)" d="M 0 0 M2264.38 206.339 Q2264.38 205.089 2265.06 204.617 Q2265.73 204.125 2266.45 204.125 Q2267.41 204.125 2267.97 204.74 Q2268.54 205.335 2268.54 206.175 Q2268.54 207.015 2267.97 207.63 Q2267.41 208.224 2266.45 208.224 Q2265.98 208.224 2265.73 208.142 Q2266.29 210.069 2267.97 211.462 Q2269.67 212.856 2271.9 212.856 Q2274.71 212.856 2276.39 210.13 Q2277.4 208.368 2277.4 204.371 Q2277.4 200.846 2276.64 199.084 Q2275.47 196.399 2273.07 196.399 Q2269.67 196.399 2267.66 199.33 Q2267.41 199.699 2267.13 199.719 Q2266.72 199.719 2266.61 199.494 Q2266.53 199.248 2266.53 198.612 L2266.53 186.193 Q2266.53 185.188 2266.94 185.188 Q2267.11 185.188 2267.46 185.311 Q2270.1 186.48 2273.03 186.5 Q2276.04 186.5 2278.75 185.27 Q2278.95 185.147 2279.08 185.147 Q2279.49 185.147 2279.51 185.619 Q2279.51 185.783 2279.16 186.275 Q2278.83 186.746 2278.11 187.381 Q2277.4 187.996 2276.47 188.59 Q2275.55 189.185 2274.2 189.595 Q2272.87 189.984 2271.39 189.984 Q2269.63 189.984 2267.82 189.431 L2267.82 197.608 Q2270 195.477 2273.15 195.477 Q2276.51 195.477 2278.83 198.182 Q2281.15 200.887 2281.15 204.658 Q2281.15 208.614 2278.4 211.319 Q2275.67 214.024 2271.98 214.024 Q2268.62 214.024 2266.49 211.626 Q2264.38 209.229 2264.38 206.339 Z" fill="#000000" fill-rule="evenodd" fill-opacity="1" /><polyline clip-path="url(#clip480)" style="stroke:#aa0055; stroke-width:3.5; stroke-opacity:1; fill:none" points="
  2020.65,252.413 2161.08,252.413 
  "/>
<path clip-path="url(#clip480)" d="M 0 0 M2213.04 238.067 Q2213.04 238.457 2212.96 238.785 L2211.81 246.081 Q2211.75 246.634 2211.62 246.839 Q2211.52 247.044 2211.19 247.044 Q2210.68 247.044 2210.68 246.511 Q2210.68 246.204 2210.8 245.712 Q2211.15 243.396 2211.15 242.351 Q2211.15 241.654 2211.01 241.142 Q2210.89 240.609 2210.68 240.24 Q2210.5 239.871 2210.07 239.625 Q2209.64 239.379 2209.23 239.236 Q2208.82 239.092 2208.08 239.031 Q2207.34 238.949 2206.71 238.928 Q2206.07 238.908 2205.02 238.908 Q2202.75 238.908 2202.38 238.99 Q2201.99 239.092 2201.79 239.4 Q2201.6 239.686 2201.4 240.547 L2195.82 262.825 L2195.66 263.706 Q2195.66 264.198 2195.97 264.362 Q2196.27 264.526 2197.22 264.628 Q2198.57 264.731 2199.9 264.731 Q2199.94 264.731 2200.02 264.731 Q2200.47 264.731 2200.66 264.751 Q2200.84 264.751 2201.03 264.792 Q2201.21 264.833 2201.25 264.936 Q2201.32 265.018 2201.32 265.182 Q2201.32 265.571 2201.15 265.776 Q2200.99 265.961 2200.82 266.002 Q2200.68 266.022 2200.39 266.022 Q2199.82 266.022 2198.59 265.981 Q2197.36 265.94 2196.74 265.94 L2193.26 265.899 L2189.69 265.94 Q2189.14 265.94 2187.97 265.981 Q2186.8 266.022 2186.25 266.022 Q2185.53 266.022 2185.53 265.51 Q2185.53 264.936 2185.8 264.833 Q2186.09 264.731 2187.3 264.731 Q2189 264.731 2189.92 264.649 Q2190.84 264.567 2191.33 264.28 Q2191.85 263.993 2191.99 263.706 Q2192.13 263.399 2192.3 262.702 L2197.93 240.301 Q2198.1 239.809 2198.1 239.42 Q2198.1 239.215 2198.04 239.133 Q2198 239.051 2197.73 238.99 Q2197.46 238.908 2196.91 238.908 L2195.27 238.908 Q2193.59 238.908 2192.54 238.99 Q2191.52 239.051 2190.53 239.359 Q2189.57 239.666 2189 240.096 Q2188.44 240.527 2187.83 241.408 Q2187.21 242.289 2186.76 243.355 Q2186.33 244.421 2185.72 246.163 Q2185.51 246.737 2185.39 246.901 Q2185.29 247.044 2185 247.044 Q2184.8 247.044 2184.63 246.921 Q2184.49 246.778 2184.49 246.593 Q2184.69 245.917 2184.73 245.835 L2187.26 238.436 Q2187.46 237.842 2187.65 237.739 Q2187.85 237.616 2188.61 237.616 L2211.89 237.616 Q2212.26 237.616 2212.38 237.616 Q2212.51 237.616 2212.71 237.657 Q2212.92 237.698 2212.98 237.801 Q2213.04 237.903 2213.04 238.067 Z" fill="#000000" fill-rule="evenodd" fill-opacity="1" /><path clip-path="url(#clip480)" d="M 0 0 M2220.41 259.648 Q2220.45 259.136 2221.25 259.136 L2246.97 259.136 Q2248.18 259.136 2248.2 259.607 Q2248.2 260.12 2247.05 260.099 L2221.53 260.099 Q2220.41 260.12 2220.41 259.648 M2220.41 251.45 Q2220.41 250.938 2221.29 250.959 L2246.93 250.959 Q2248.18 250.959 2248.2 251.45 Q2248.2 251.922 2247.13 251.922 L2221.25 251.922 Q2220.41 251.922 2220.41 251.45 Z" fill="#000000" fill-rule="evenodd" fill-opacity="1" /><path clip-path="url(#clip480)" d="M 0 0 M2264.38 266.022 Q2264.38 265.264 2264.44 265.038 Q2264.52 264.813 2264.85 264.464 L2272.91 255.488 Q2277.31 250.528 2277.31 246.204 Q2277.31 243.396 2275.84 241.388 Q2274.38 239.379 2271.7 239.379 Q2269.85 239.379 2268.3 240.506 Q2266.74 241.633 2266.02 243.642 Q2266.14 243.601 2266.57 243.601 Q2267.62 243.601 2268.19 244.257 Q2268.79 244.913 2268.79 245.794 Q2268.79 246.921 2268.05 247.474 Q2267.33 248.007 2266.61 248.007 Q2266.33 248.007 2265.94 247.946 Q2265.57 247.884 2264.98 247.31 Q2264.38 246.716 2264.38 245.671 Q2264.38 242.74 2266.59 240.404 Q2268.83 238.067 2272.23 238.067 Q2276.08 238.067 2278.6 240.363 Q2281.15 242.638 2281.15 246.204 Q2281.15 247.454 2280.76 248.602 Q2280.39 249.729 2279.87 250.61 Q2279.38 251.491 2278.03 252.905 Q2276.68 254.32 2275.59 255.324 Q2274.51 256.328 2272.07 258.46 L2267.62 262.784 L2275.18 262.784 Q2278.87 262.784 2279.16 262.456 Q2279.57 261.862 2280.08 258.726 L2281.15 258.726 L2279.96 266.022 L2264.38 266.022 Z" fill="#000000" fill-rule="evenodd" fill-opacity="1" /><path clip-path="url(#clip480)" d="M 0 0 M2285.16 252.598 Q2285.16 246.429 2286.72 243.068 Q2288.89 238.067 2294.02 238.067 Q2295.1 238.067 2296.23 238.375 Q2297.38 238.662 2298.81 239.789 Q2300.27 240.916 2301.15 242.761 Q2302.83 246.327 2302.83 252.598 Q2302.83 258.726 2301.27 262.067 Q2299 266.944 2293.97 266.944 Q2292.09 266.944 2290.16 265.981 Q2288.26 265.018 2287.05 262.702 Q2285.16 259.238 2285.16 252.598 M2288.65 252.086 Q2288.65 258.419 2289.1 260.939 Q2289.61 263.665 2291 264.854 Q2292.42 266.022 2293.97 266.022 Q2295.66 266.022 2297.05 264.772 Q2298.46 263.501 2298.89 260.775 Q2299.37 258.091 2299.34 252.086 Q2299.34 246.245 2298.93 243.908 Q2298.38 241.183 2296.91 240.096 Q2295.45 238.99 2293.97 238.99 Q2293.42 238.99 2292.83 239.154 Q2292.25 239.318 2291.41 239.789 Q2290.57 240.26 2289.92 241.428 Q2289.28 242.597 2288.97 244.359 Q2288.65 246.634 2288.65 252.086 Z" fill="#000000" fill-rule="evenodd" fill-opacity="1" /><polyline clip-path="url(#clip480)" style="stroke:#ff0000; stroke-width:3.5; stroke-opacity:1; fill:none" points="
  2020.65,305.333 2161.08,305.333 
  "/>
<path clip-path="url(#clip480)" d="M 0 0 M2213.04 290.987 Q2213.04 291.377 2212.96 291.705 L2211.81 299.001 Q2211.75 299.554 2211.62 299.759 Q2211.52 299.964 2211.19 299.964 Q2210.68 299.964 2210.68 299.431 Q2210.68 299.124 2210.8 298.632 Q2211.15 296.316 2211.15 295.271 Q2211.15 294.574 2211.01 294.062 Q2210.89 293.529 2210.68 293.16 Q2210.5 292.791 2210.07 292.545 Q2209.64 292.299 2209.23 292.156 Q2208.82 292.012 2208.08 291.951 Q2207.34 291.869 2206.71 291.848 Q2206.07 291.828 2205.02 291.828 Q2202.75 291.828 2202.38 291.91 Q2201.99 292.012 2201.79 292.32 Q2201.6 292.606 2201.4 293.467 L2195.82 315.745 L2195.66 316.626 Q2195.66 317.118 2195.97 317.282 Q2196.27 317.446 2197.22 317.548 Q2198.57 317.651 2199.9 317.651 Q2199.94 317.651 2200.02 317.651 Q2200.47 317.651 2200.66 317.671 Q2200.84 317.671 2201.03 317.712 Q2201.21 317.753 2201.25 317.856 Q2201.32 317.938 2201.32 318.102 Q2201.32 318.491 2201.15 318.696 Q2200.99 318.881 2200.82 318.922 Q2200.68 318.942 2200.39 318.942 Q2199.82 318.942 2198.59 318.901 Q2197.36 318.86 2196.74 318.86 L2193.26 318.819 L2189.69 318.86 Q2189.14 318.86 2187.97 318.901 Q2186.8 318.942 2186.25 318.942 Q2185.53 318.942 2185.53 318.43 Q2185.53 317.856 2185.8 317.753 Q2186.09 317.651 2187.3 317.651 Q2189 317.651 2189.92 317.569 Q2190.84 317.487 2191.33 317.2 Q2191.85 316.913 2191.99 316.626 Q2192.13 316.319 2192.3 315.622 L2197.93 293.221 Q2198.1 292.729 2198.1 292.34 Q2198.1 292.135 2198.04 292.053 Q2198 291.971 2197.73 291.91 Q2197.46 291.828 2196.91 291.828 L2195.27 291.828 Q2193.59 291.828 2192.54 291.91 Q2191.52 291.971 2190.53 292.279 Q2189.57 292.586 2189 293.016 Q2188.44 293.447 2187.83 294.328 Q2187.21 295.209 2186.76 296.275 Q2186.33 297.341 2185.72 299.083 Q2185.51 299.657 2185.39 299.821 Q2185.29 299.964 2185 299.964 Q2184.8 299.964 2184.63 299.841 Q2184.49 299.698 2184.49 299.513 Q2184.69 298.837 2184.73 298.755 L2187.26 291.356 Q2187.46 290.762 2187.65 290.659 Q2187.85 290.536 2188.61 290.536 L2211.89 290.536 Q2212.26 290.536 2212.38 290.536 Q2212.51 290.536 2212.71 290.577 Q2212.92 290.618 2212.98 290.721 Q2213.04 290.823 2213.04 290.987 Z" fill="#000000" fill-rule="evenodd" fill-opacity="1" /><path clip-path="url(#clip480)" d="M 0 0 M2220.41 312.568 Q2220.45 312.056 2221.25 312.056 L2246.97 312.056 Q2248.18 312.056 2248.2 312.527 Q2248.2 313.04 2247.05 313.019 L2221.53 313.019 Q2220.41 313.04 2220.41 312.568 M2220.41 304.37 Q2220.41 303.858 2221.29 303.879 L2246.93 303.879 Q2248.18 303.879 2248.2 304.37 Q2248.2 304.842 2247.13 304.842 L2221.25 304.842 Q2220.41 304.842 2220.41 304.37 Z" fill="#000000" fill-rule="evenodd" fill-opacity="1" /><path clip-path="url(#clip480)" d="M 0 0 M2264.38 313.286 Q2264.38 312.035 2265.1 311.441 Q2265.82 310.847 2266.74 310.847 Q2267.7 310.847 2268.38 311.482 Q2269.07 312.097 2269.07 313.183 Q2269.07 314.351 2268.25 315.007 Q2267.46 315.663 2266.31 315.499 Q2267.31 317.18 2269.16 317.938 Q2271.02 318.696 2272.74 318.696 Q2274.55 318.696 2276 317.139 Q2277.48 315.581 2277.48 311.769 Q2277.48 308.531 2276.21 306.666 Q2274.96 304.801 2272.48 304.801 L2270.63 304.801 Q2270 304.801 2269.81 304.739 Q2269.63 304.678 2269.63 304.329 Q2269.63 303.919 2270.26 303.838 Q2270.9 303.838 2271.9 303.715 Q2274.34 303.633 2275.63 301.522 Q2276.8 299.554 2276.8 296.746 Q2276.8 294.185 2275.57 293.119 Q2274.36 292.033 2272.78 292.033 Q2271.31 292.033 2269.69 292.647 Q2268.07 293.262 2267.19 294.635 Q2269.79 294.635 2269.79 296.746 Q2269.79 297.669 2269.2 298.283 Q2268.62 298.878 2267.66 298.878 Q2266.74 298.878 2266.12 298.304 Q2265.51 297.71 2265.51 296.705 Q2265.51 294.308 2267.64 292.647 Q2269.79 290.987 2272.95 290.987 Q2276.06 290.987 2278.36 292.627 Q2280.67 294.267 2280.67 296.787 Q2280.67 299.267 2279.03 301.296 Q2277.4 303.325 2274.79 304.165 Q2277.99 304.801 2279.9 306.973 Q2281.8 309.125 2281.8 311.769 Q2281.8 315.048 2279.22 317.466 Q2276.64 319.864 2272.87 319.864 Q2269.38 319.864 2266.88 317.979 Q2264.38 316.093 2264.38 313.286 Z" fill="#000000" fill-rule="evenodd" fill-opacity="1" /><path clip-path="url(#clip480)" d="M 0 0 M2285.16 305.518 Q2285.16 299.349 2286.72 295.988 Q2288.89 290.987 2294.02 290.987 Q2295.1 290.987 2296.23 291.295 Q2297.38 291.582 2298.81 292.709 Q2300.27 293.836 2301.15 295.681 Q2302.83 299.247 2302.83 305.518 Q2302.83 311.646 2301.27 314.987 Q2299 319.864 2293.97 319.864 Q2292.09 319.864 2290.16 318.901 Q2288.26 317.938 2287.05 315.622 Q2285.16 312.158 2285.16 305.518 M2288.65 305.006 Q2288.65 311.339 2289.1 313.859 Q2289.61 316.585 2291 317.774 Q2292.42 318.942 2293.97 318.942 Q2295.66 318.942 2297.05 317.692 Q2298.46 316.421 2298.89 313.695 Q2299.37 311.011 2299.34 305.006 Q2299.34 299.165 2298.93 296.828 Q2298.38 294.103 2296.91 293.016 Q2295.45 291.91 2293.97 291.91 Q2293.42 291.91 2292.83 292.074 Q2292.25 292.238 2291.41 292.709 Q2290.57 293.18 2289.92 294.348 Q2289.28 295.517 2288.97 297.279 Q2288.65 299.554 2288.65 305.006 Z" fill="#000000" fill-rule="evenodd" fill-opacity="1" /></svg>
