<?xml version="1.0" encoding="utf-8"?>
<svg xmlns="http://www.w3.org/2000/svg" xmlns:xlink="http://www.w3.org/1999/xlink" width="600" height="400" viewBox="0 0 2400 1600">
<defs>
  <clipPath id="clip340">
    <rect x="0" y="0" width="2400" height="1600"/>
  </clipPath>
</defs>
<path clip-path="url(#clip340)" d="
M0 1600 L2400 1600 L2400 0 L0 0  Z
  " fill="#ffffff" fill-rule="evenodd" fill-opacity="1"/>
<defs>
  <clipPath id="clip341">
    <rect x="480" y="0" width="1681" height="1600"/>
  </clipPath>
</defs>
<defs>
  <clipPath id="clip342">
    <rect x="289" y="47" width="1464" height="1393"/>
  </clipPath>
</defs>
<path clip-path="url(#clip340)" d="
M289.626 1439.5 L1752.46 1439.5 L1752.46 47.2441 L289.626 47.2441  Z
  " fill="#ffffff" fill-rule="evenodd" fill-opacity="1"/>
<polyline clip-path="url(#clip342)" style="stroke:#000000; stroke-width:2; stroke-opacity:0.1; fill:none" points="
  330.751,1439.5 330.751,47.2441 
  "/>
<polyline clip-path="url(#clip342)" style="stroke:#000000; stroke-width:2; stroke-opacity:0.1; fill:none" points="
  606.813,1439.5 606.813,47.2441 
  "/>
<polyline clip-path="url(#clip342)" style="stroke:#000000; stroke-width:2; stroke-opacity:0.1; fill:none" points="
  882.874,1439.5 882.874,47.2441 
  "/>
<polyline clip-path="url(#clip342)" style="stroke:#000000; stroke-width:2; stroke-opacity:0.1; fill:none" points="
  1158.94,1439.5 1158.94,47.2441 
  "/>
<polyline clip-path="url(#clip342)" style="stroke:#000000; stroke-width:2; stroke-opacity:0.1; fill:none" points="
  1435,1439.5 1435,47.2441 
  "/>
<polyline clip-path="url(#clip342)" style="stroke:#000000; stroke-width:2; stroke-opacity:0.1; fill:none" points="
  1711.06,1439.5 1711.06,47.2441 
  "/>
<polyline clip-path="url(#clip340)" style="stroke:#000000; stroke-width:4; stroke-opacity:1; fill:none" points="
  289.626,1439.5 1752.46,1439.5 
  "/>
<polyline clip-path="url(#clip340)" style="stroke:#000000; stroke-width:4; stroke-opacity:1; fill:none" points="
  330.751,1439.5 330.751,1422.79 
  "/>
<polyline clip-path="url(#clip340)" style="stroke:#000000; stroke-width:4; stroke-opacity:1; fill:none" points="
  606.813,1439.5 606.813,1422.79 
  "/>
<polyline clip-path="url(#clip340)" style="stroke:#000000; stroke-width:4; stroke-opacity:1; fill:none" points="
  882.874,1439.5 882.874,1422.79 
  "/>
<polyline clip-path="url(#clip340)" style="stroke:#000000; stroke-width:4; stroke-opacity:1; fill:none" points="
  1158.94,1439.5 1158.94,1422.79 
  "/>
<polyline clip-path="url(#clip340)" style="stroke:#000000; stroke-width:4; stroke-opacity:1; fill:none" points="
  1435,1439.5 1435,1422.79 
  "/>
<polyline clip-path="url(#clip340)" style="stroke:#000000; stroke-width:4; stroke-opacity:1; fill:none" points="
  1711.06,1439.5 1711.06,1422.79 
  "/>
<path clip-path="url(#clip340)" d="M 0 0 M330.751 1468.69 Q327.14 1468.69 325.311 1472.26 Q323.506 1475.8 323.506 1482.93 Q323.506 1490.04 325.311 1493.6 Q327.14 1497.14 330.751 1497.14 Q334.385 1497.14 336.191 1493.6 Q338.02 1490.04 338.02 1482.93 Q338.02 1475.8 336.191 1472.26 Q334.385 1468.69 330.751 1468.69 M330.751 1464.99 Q336.561 1464.99 339.617 1469.6 Q342.696 1474.18 342.696 1482.93 Q342.696 1491.66 339.617 1496.26 Q336.561 1500.85 330.751 1500.85 Q324.941 1500.85 321.862 1496.26 Q318.807 1491.66 318.807 1482.93 Q318.807 1474.18 321.862 1469.6 Q324.941 1464.99 330.751 1464.99 Z" fill="#000000" fill-rule="evenodd" fill-opacity="1" /><path clip-path="url(#clip340)" d="M 0 0 M566.42 1496.24 L574.058 1496.24 L574.058 1469.87 L565.748 1471.54 L565.748 1467.28 L574.012 1465.61 L578.688 1465.61 L578.688 1496.24 L586.327 1496.24 L586.327 1500.17 L566.42 1500.17 L566.42 1496.24 Z" fill="#000000" fill-rule="evenodd" fill-opacity="1" /><path clip-path="url(#clip340)" d="M 0 0 M605.771 1468.69 Q602.16 1468.69 600.331 1472.26 Q598.526 1475.8 598.526 1482.93 Q598.526 1490.04 600.331 1493.6 Q602.16 1497.14 605.771 1497.14 Q609.405 1497.14 611.211 1493.6 Q613.04 1490.04 613.04 1482.93 Q613.04 1475.8 611.211 1472.26 Q609.405 1468.69 605.771 1468.69 M605.771 1464.99 Q611.581 1464.99 614.637 1469.6 Q617.716 1474.18 617.716 1482.93 Q617.716 1491.66 614.637 1496.26 Q611.581 1500.85 605.771 1500.85 Q599.961 1500.85 596.882 1496.26 Q593.827 1491.66 593.827 1482.93 Q593.827 1474.18 596.882 1469.6 Q599.961 1464.99 605.771 1464.99 Z" fill="#000000" fill-rule="evenodd" fill-opacity="1" /><path clip-path="url(#clip340)" d="M 0 0 M635.933 1468.69 Q632.322 1468.69 630.493 1472.26 Q628.688 1475.8 628.688 1482.93 Q628.688 1490.04 630.493 1493.6 Q632.322 1497.14 635.933 1497.14 Q639.567 1497.14 641.373 1493.6 Q643.202 1490.04 643.202 1482.93 Q643.202 1475.8 641.373 1472.26 Q639.567 1468.69 635.933 1468.69 M635.933 1464.99 Q641.743 1464.99 644.799 1469.6 Q647.877 1474.18 647.877 1482.93 Q647.877 1491.66 644.799 1496.26 Q641.743 1500.85 635.933 1500.85 Q630.123 1500.85 627.044 1496.26 Q623.989 1491.66 623.989 1482.93 Q623.989 1474.18 627.044 1469.6 Q630.123 1464.99 635.933 1464.99 Z" fill="#000000" fill-rule="evenodd" fill-opacity="1" /><path clip-path="url(#clip340)" d="M 0 0 M846.567 1496.24 L862.886 1496.24 L862.886 1500.17 L840.942 1500.17 L840.942 1496.24 Q843.604 1493.48 848.187 1488.85 Q852.794 1484.2 853.974 1482.86 Q856.22 1480.34 857.099 1478.6 Q858.002 1476.84 858.002 1475.15 Q858.002 1472.4 856.058 1470.66 Q854.136 1468.92 851.034 1468.92 Q848.835 1468.92 846.382 1469.69 Q843.951 1470.45 841.173 1472 L841.173 1467.28 Q843.997 1466.15 846.451 1465.57 Q848.905 1464.99 850.942 1464.99 Q856.312 1464.99 859.507 1467.67 Q862.701 1470.36 862.701 1474.85 Q862.701 1476.98 861.891 1478.9 Q861.104 1480.8 858.997 1483.39 Q858.419 1484.06 855.317 1487.28 Q852.215 1490.47 846.567 1496.24 Z" fill="#000000" fill-rule="evenodd" fill-opacity="1" /><path clip-path="url(#clip340)" d="M 0 0 M882.701 1468.69 Q879.09 1468.69 877.261 1472.26 Q875.456 1475.8 875.456 1482.93 Q875.456 1490.04 877.261 1493.6 Q879.09 1497.14 882.701 1497.14 Q886.335 1497.14 888.141 1493.6 Q889.969 1490.04 889.969 1482.93 Q889.969 1475.8 888.141 1472.26 Q886.335 1468.69 882.701 1468.69 M882.701 1464.99 Q888.511 1464.99 891.567 1469.6 Q894.645 1474.18 894.645 1482.93 Q894.645 1491.66 891.567 1496.26 Q888.511 1500.85 882.701 1500.85 Q876.891 1500.85 873.812 1496.26 Q870.757 1491.66 870.757 1482.93 Q870.757 1474.18 873.812 1469.6 Q876.891 1464.99 882.701 1464.99 Z" fill="#000000" fill-rule="evenodd" fill-opacity="1" /><path clip-path="url(#clip340)" d="M 0 0 M912.863 1468.69 Q909.252 1468.69 907.423 1472.26 Q905.617 1475.8 905.617 1482.93 Q905.617 1490.04 907.423 1493.6 Q909.252 1497.14 912.863 1497.14 Q916.497 1497.14 918.303 1493.6 Q920.131 1490.04 920.131 1482.93 Q920.131 1475.8 918.303 1472.26 Q916.497 1468.69 912.863 1468.69 M912.863 1464.99 Q918.673 1464.99 921.728 1469.6 Q924.807 1474.18 924.807 1482.93 Q924.807 1491.66 921.728 1496.26 Q918.673 1500.85 912.863 1500.85 Q907.053 1500.85 903.974 1496.26 Q900.918 1491.66 900.918 1482.93 Q900.918 1474.18 903.974 1469.6 Q907.053 1464.99 912.863 1464.99 Z" fill="#000000" fill-rule="evenodd" fill-opacity="1" /><path clip-path="url(#clip340)" d="M 0 0 M1132.7 1481.54 Q1136.05 1482.26 1137.93 1484.53 Q1139.83 1486.79 1139.83 1490.13 Q1139.83 1495.24 1136.31 1498.04 Q1132.79 1500.85 1126.31 1500.85 Q1124.13 1500.85 1121.82 1500.41 Q1119.53 1499.99 1117.07 1499.13 L1117.07 1494.62 Q1119.02 1495.75 1121.33 1496.33 Q1123.65 1496.91 1126.17 1496.91 Q1130.57 1496.91 1132.86 1495.17 Q1135.17 1493.44 1135.17 1490.13 Q1135.17 1487.07 1133.02 1485.36 Q1130.89 1483.62 1127.07 1483.62 L1123.05 1483.62 L1123.05 1479.78 L1127.26 1479.78 Q1130.71 1479.78 1132.54 1478.41 Q1134.36 1477.03 1134.36 1474.43 Q1134.36 1471.77 1132.47 1470.36 Q1130.59 1468.92 1127.07 1468.92 Q1125.15 1468.92 1122.95 1469.34 Q1120.75 1469.76 1118.11 1470.64 L1118.11 1466.47 Q1120.78 1465.73 1123.09 1465.36 Q1125.43 1464.99 1127.49 1464.99 Q1132.81 1464.99 1135.92 1467.42 Q1139.02 1469.83 1139.02 1473.95 Q1139.02 1476.82 1137.37 1478.81 Q1135.73 1480.78 1132.7 1481.54 Z" fill="#000000" fill-rule="evenodd" fill-opacity="1" /><path clip-path="url(#clip340)" d="M 0 0 M1158.69 1468.69 Q1155.08 1468.69 1153.25 1472.26 Q1151.45 1475.8 1151.45 1482.93 Q1151.45 1490.04 1153.25 1493.6 Q1155.08 1497.14 1158.69 1497.14 Q1162.33 1497.14 1164.13 1493.6 Q1165.96 1490.04 1165.96 1482.93 Q1165.96 1475.8 1164.13 1472.26 Q1162.33 1468.69 1158.69 1468.69 M1158.69 1464.99 Q1164.5 1464.99 1167.56 1469.6 Q1170.64 1474.18 1170.64 1482.93 Q1170.64 1491.66 1167.56 1496.26 Q1164.5 1500.85 1158.69 1500.85 Q1152.88 1500.85 1149.8 1496.26 Q1146.75 1491.66 1146.75 1482.93 Q1146.75 1474.18 1149.8 1469.6 Q1152.88 1464.99 1158.69 1464.99 Z" fill="#000000" fill-rule="evenodd" fill-opacity="1" /><path clip-path="url(#clip340)" d="M 0 0 M1188.85 1468.69 Q1185.24 1468.69 1183.42 1472.26 Q1181.61 1475.8 1181.61 1482.93 Q1181.61 1490.04 1183.42 1493.6 Q1185.24 1497.14 1188.85 1497.14 Q1192.49 1497.14 1194.29 1493.6 Q1196.12 1490.04 1196.12 1482.93 Q1196.12 1475.8 1194.29 1472.26 Q1192.49 1468.69 1188.85 1468.69 M1188.85 1464.99 Q1194.67 1464.99 1197.72 1469.6 Q1200.8 1474.18 1200.8 1482.93 Q1200.8 1491.66 1197.72 1496.26 Q1194.67 1500.85 1188.85 1500.85 Q1183.04 1500.85 1179.97 1496.26 Q1176.91 1491.66 1176.91 1482.93 Q1176.91 1474.18 1179.97 1469.6 Q1183.04 1464.99 1188.85 1464.99 Z" fill="#000000" fill-rule="evenodd" fill-opacity="1" /><path clip-path="url(#clip340)" d="M 0 0 M1408.09 1469.69 L1396.28 1488.14 L1408.09 1488.14 L1408.09 1469.69 M1406.86 1465.61 L1412.74 1465.61 L1412.74 1488.14 L1417.67 1488.14 L1417.67 1492.03 L1412.74 1492.03 L1412.74 1500.17 L1408.09 1500.17 L1408.09 1492.03 L1392.49 1492.03 L1392.49 1487.51 L1406.86 1465.61 Z" fill="#000000" fill-rule="evenodd" fill-opacity="1" /><path clip-path="url(#clip340)" d="M 0 0 M1435.4 1468.69 Q1431.79 1468.69 1429.96 1472.26 Q1428.16 1475.8 1428.16 1482.93 Q1428.16 1490.04 1429.96 1493.6 Q1431.79 1497.14 1435.4 1497.14 Q1439.04 1497.14 1440.84 1493.6 Q1442.67 1490.04 1442.67 1482.93 Q1442.67 1475.8 1440.84 1472.26 Q1439.04 1468.69 1435.4 1468.69 M1435.4 1464.99 Q1441.21 1464.99 1444.27 1469.6 Q1447.35 1474.18 1447.35 1482.93 Q1447.35 1491.66 1444.27 1496.26 Q1441.21 1500.85 1435.4 1500.85 Q1429.59 1500.85 1426.51 1496.26 Q1423.46 1491.66 1423.46 1482.93 Q1423.46 1474.18 1426.51 1469.6 Q1429.59 1464.99 1435.4 1464.99 Z" fill="#000000" fill-rule="evenodd" fill-opacity="1" /><path clip-path="url(#clip340)" d="M 0 0 M1465.56 1468.69 Q1461.95 1468.69 1460.13 1472.26 Q1458.32 1475.8 1458.32 1482.93 Q1458.32 1490.04 1460.13 1493.6 Q1461.95 1497.14 1465.56 1497.14 Q1469.2 1497.14 1471 1493.6 Q1472.83 1490.04 1472.83 1482.93 Q1472.83 1475.8 1471 1472.26 Q1469.2 1468.69 1465.56 1468.69 M1465.56 1464.99 Q1471.37 1464.99 1474.43 1469.6 Q1477.51 1474.18 1477.51 1482.93 Q1477.51 1491.66 1474.43 1496.26 Q1471.37 1500.85 1465.56 1500.85 Q1459.75 1500.85 1456.68 1496.26 Q1453.62 1491.66 1453.62 1482.93 Q1453.62 1474.18 1456.68 1469.6 Q1459.75 1464.99 1465.56 1464.99 Z" fill="#000000" fill-rule="evenodd" fill-opacity="1" /><path clip-path="url(#clip340)" d="M 0 0 M1670.68 1465.61 L1689.03 1465.61 L1689.03 1469.55 L1674.96 1469.55 L1674.96 1478.02 Q1675.98 1477.67 1677 1477.51 Q1678.02 1477.33 1679.03 1477.33 Q1684.82 1477.33 1688.2 1480.5 Q1691.58 1483.67 1691.58 1489.09 Q1691.58 1494.66 1688.11 1497.77 Q1684.64 1500.85 1678.32 1500.85 Q1676.14 1500.85 1673.87 1500.47 Q1671.63 1500.1 1669.22 1499.36 L1669.22 1494.66 Q1671.3 1495.8 1673.52 1496.35 Q1675.75 1496.91 1678.22 1496.91 Q1682.23 1496.91 1684.57 1494.8 Q1686.9 1492.7 1686.9 1489.09 Q1686.9 1485.47 1684.57 1483.37 Q1682.23 1481.26 1678.22 1481.26 Q1676.35 1481.26 1674.47 1481.68 Q1672.62 1482.1 1670.68 1482.97 L1670.68 1465.61 Z" fill="#000000" fill-rule="evenodd" fill-opacity="1" /><path clip-path="url(#clip340)" d="M 0 0 M1710.79 1468.69 Q1707.18 1468.69 1705.35 1472.26 Q1703.55 1475.8 1703.55 1482.93 Q1703.55 1490.04 1705.35 1493.6 Q1707.18 1497.14 1710.79 1497.14 Q1714.43 1497.14 1716.23 1493.6 Q1718.06 1490.04 1718.06 1482.93 Q1718.06 1475.8 1716.23 1472.26 Q1714.43 1468.69 1710.79 1468.69 M1710.79 1464.99 Q1716.6 1464.99 1719.66 1469.6 Q1722.74 1474.18 1722.74 1482.93 Q1722.74 1491.66 1719.66 1496.26 Q1716.6 1500.85 1710.79 1500.85 Q1704.98 1500.85 1701.9 1496.26 Q1698.85 1491.66 1698.85 1482.93 Q1698.85 1474.18 1701.9 1469.6 Q1704.98 1464.99 1710.79 1464.99 Z" fill="#000000" fill-rule="evenodd" fill-opacity="1" /><path clip-path="url(#clip340)" d="M 0 0 M1740.96 1468.69 Q1737.34 1468.69 1735.52 1472.26 Q1733.71 1475.8 1733.71 1482.93 Q1733.71 1490.04 1735.52 1493.6 Q1737.34 1497.14 1740.96 1497.14 Q1744.59 1497.14 1746.39 1493.6 Q1748.22 1490.04 1748.22 1482.93 Q1748.22 1475.8 1746.39 1472.26 Q1744.59 1468.69 1740.96 1468.69 M1740.96 1464.99 Q1746.77 1464.99 1749.82 1469.6 Q1752.9 1474.18 1752.9 1482.93 Q1752.9 1491.66 1749.82 1496.26 Q1746.77 1500.85 1740.96 1500.85 Q1735.15 1500.85 1732.07 1496.26 Q1729.01 1491.66 1729.01 1482.93 Q1729.01 1474.18 1732.07 1469.6 Q1735.15 1464.99 1740.96 1464.99 Z" fill="#000000" fill-rule="evenodd" fill-opacity="1" /><path clip-path="url(#clip340)" d="M 0 0 M1032.98 1535.75 Q1032.98 1541.16 1031.24 1547.24 Q1029.53 1553.3 1026.83 1558.19 Q1024.12 1563.06 1020.58 1566.28 Q1017.04 1569.47 1013.65 1569.47 Q1011.5 1569.47 1009.89 1568.27 Q1008.31 1567.05 1007.44 1565.02 Q1006.57 1562.96 1006.15 1560.71 Q1005.73 1558.42 1005.73 1555.94 Q1005.73 1552.24 1006.54 1548.21 Q1007.34 1544.15 1008.7 1540.48 Q1010.05 1536.78 1011.95 1533.43 Q1013.85 1530.05 1015.94 1527.6 Q1018.07 1525.12 1020.45 1523.67 Q1022.83 1522.22 1025.06 1522.22 Q1026.67 1522.22 1027.95 1522.93 Q1029.27 1523.6 1030.11 1524.8 Q1030.95 1525.96 1031.53 1527.34 Q1032.14 1528.73 1032.43 1530.34 Q1032.72 1531.91 1032.85 1533.23 Q1032.98 1534.52 1032.98 1535.75 M1028.63 1531.66 Q1028.63 1530.01 1028.5 1528.79 Q1028.37 1527.53 1028.02 1526.28 Q1027.66 1525.02 1026.89 1524.35 Q1026.15 1523.67 1024.99 1523.67 Q1021.61 1523.67 1017.81 1530.59 Q1016.59 1532.75 1015.49 1535.68 Q1014.4 1538.61 1014.01 1540 Q1013.62 1541.38 1012.72 1544.8 L1026.5 1544.8 Q1028.63 1536 1028.63 1531.66 M1025.93 1546.89 L1012.21 1546.89 Q1010.08 1554.94 1010.08 1559.96 Q1010.08 1564.34 1010.98 1566.18 Q1011.92 1567.98 1013.65 1567.98 Q1015.65 1567.98 1017.52 1565.99 Q1019.39 1563.96 1021.29 1560.29 Q1023.8 1555.52 1025.93 1546.89 Z" fill="#000000" fill-rule="evenodd" fill-opacity="1" /><polyline clip-path="url(#clip342)" style="stroke:#000000; stroke-width:2; stroke-opacity:0.1; fill:none" points="
  289.626,1238.52 1752.46,1238.52 
  "/>
<polyline clip-path="url(#clip342)" style="stroke:#000000; stroke-width:2; stroke-opacity:0.1; fill:none" points="
  289.626,1005.9 1752.46,1005.9 
  "/>
<polyline clip-path="url(#clip342)" style="stroke:#000000; stroke-width:2; stroke-opacity:0.1; fill:none" points="
  289.626,773.284 1752.46,773.284 
  "/>
<polyline clip-path="url(#clip342)" style="stroke:#000000; stroke-width:2; stroke-opacity:0.1; fill:none" points="
  289.626,540.666 1752.46,540.666 
  "/>
<polyline clip-path="url(#clip342)" style="stroke:#000000; stroke-width:2; stroke-opacity:0.1; fill:none" points="
  289.626,308.047 1752.46,308.047 
  "/>
<polyline clip-path="url(#clip342)" style="stroke:#000000; stroke-width:2; stroke-opacity:0.1; fill:none" points="
  289.626,75.4287 1752.46,75.4287 
  "/>
<polyline clip-path="url(#clip340)" style="stroke:#000000; stroke-width:4; stroke-opacity:1; fill:none" points="
  289.626,1439.5 289.626,47.2441 
  "/>
<polyline clip-path="url(#clip340)" style="stroke:#000000; stroke-width:4; stroke-opacity:1; fill:none" points="
  289.626,1238.52 307.18,1238.52 
  "/>
<polyline clip-path="url(#clip340)" style="stroke:#000000; stroke-width:4; stroke-opacity:1; fill:none" points="
  289.626,1005.9 307.18,1005.9 
  "/>
<polyline clip-path="url(#clip340)" style="stroke:#000000; stroke-width:4; stroke-opacity:1; fill:none" points="
  289.626,773.284 307.18,773.284 
  "/>
<polyline clip-path="url(#clip340)" style="stroke:#000000; stroke-width:4; stroke-opacity:1; fill:none" points="
  289.626,540.666 307.18,540.666 
  "/>
<polyline clip-path="url(#clip340)" style="stroke:#000000; stroke-width:4; stroke-opacity:1; fill:none" points="
  289.626,308.047 307.18,308.047 
  "/>
<polyline clip-path="url(#clip340)" style="stroke:#000000; stroke-width:4; stroke-opacity:1; fill:none" points="
  289.626,75.4287 307.18,75.4287 
  "/>
<path clip-path="url(#clip340)" d="M 0 0 M147.678 1238.97 L177.354 1238.97 L177.354 1242.91 L147.678 1242.91 L147.678 1238.97 Z" fill="#000000" fill-rule="evenodd" fill-opacity="1" /><path clip-path="url(#clip340)" d="M 0 0 M197.446 1224.32 Q193.835 1224.32 192.006 1227.88 Q190.201 1231.43 190.201 1238.56 Q190.201 1245.66 192.006 1249.23 Q193.835 1252.77 197.446 1252.77 Q201.08 1252.77 202.886 1249.23 Q204.714 1245.66 204.714 1238.56 Q204.714 1231.43 202.886 1227.88 Q201.08 1224.32 197.446 1224.32 M197.446 1220.62 Q203.256 1220.62 206.312 1225.22 Q209.39 1229.81 209.39 1238.56 Q209.39 1247.28 206.312 1251.89 Q203.256 1256.47 197.446 1256.47 Q191.636 1256.47 188.557 1251.89 Q185.502 1247.28 185.502 1238.56 Q185.502 1229.81 188.557 1225.22 Q191.636 1220.62 197.446 1220.62 Z" fill="#000000" fill-rule="evenodd" fill-opacity="1" /><path clip-path="url(#clip340)" d="M 0 0 M217.608 1249.92 L222.492 1249.92 L222.492 1255.8 L217.608 1255.8 L217.608 1249.92 Z" fill="#000000" fill-rule="evenodd" fill-opacity="1" /><path clip-path="url(#clip340)" d="M 0 0 M232.724 1221.24 L251.08 1221.24 L251.08 1225.18 L237.006 1225.18 L237.006 1233.65 Q238.024 1233.3 239.043 1233.14 Q240.062 1232.95 241.08 1232.95 Q246.867 1232.95 250.247 1236.12 Q253.626 1239.3 253.626 1244.71 Q253.626 1250.29 250.154 1253.39 Q246.682 1256.47 240.362 1256.47 Q238.187 1256.47 235.918 1256.1 Q233.673 1255.73 231.265 1254.99 L231.265 1250.29 Q233.349 1251.43 235.571 1251.98 Q237.793 1252.54 240.27 1252.54 Q244.274 1252.54 246.612 1250.43 Q248.95 1248.32 248.95 1244.71 Q248.95 1241.1 246.612 1239 Q244.274 1236.89 240.27 1236.89 Q238.395 1236.89 236.52 1237.31 Q234.668 1237.72 232.724 1238.6 L232.724 1221.24 Z" fill="#000000" fill-rule="evenodd" fill-opacity="1" /><path clip-path="url(#clip340)" d="M 0 0 M196.451 991.701 Q192.84 991.701 191.011 995.266 Q189.205 998.807 189.205 1005.94 Q189.205 1013.04 191.011 1016.61 Q192.84 1020.15 196.451 1020.15 Q200.085 1020.15 201.89 1016.61 Q203.719 1013.04 203.719 1005.94 Q203.719 998.807 201.89 995.266 Q200.085 991.701 196.451 991.701 M196.451 987.997 Q202.261 987.997 205.316 992.604 Q208.395 997.187 208.395 1005.94 Q208.395 1014.66 205.316 1019.27 Q202.261 1023.85 196.451 1023.85 Q190.64 1023.85 187.562 1019.27 Q184.506 1014.66 184.506 1005.94 Q184.506 997.187 187.562 992.604 Q190.64 987.997 196.451 987.997 Z" fill="#000000" fill-rule="evenodd" fill-opacity="1" /><path clip-path="url(#clip340)" d="M 0 0 M216.613 1017.3 L221.497 1017.3 L221.497 1023.18 L216.613 1023.18 L216.613 1017.3 Z" fill="#000000" fill-rule="evenodd" fill-opacity="1" /><path clip-path="url(#clip340)" d="M 0 0 M241.682 991.701 Q238.071 991.701 236.242 995.266 Q234.437 998.807 234.437 1005.94 Q234.437 1013.04 236.242 1016.61 Q238.071 1020.15 241.682 1020.15 Q245.316 1020.15 247.122 1016.61 Q248.95 1013.04 248.95 1005.94 Q248.95 998.807 247.122 995.266 Q245.316 991.701 241.682 991.701 M241.682 987.997 Q247.492 987.997 250.548 992.604 Q253.626 997.187 253.626 1005.94 Q253.626 1014.66 250.548 1019.27 Q247.492 1023.85 241.682 1023.85 Q235.872 1023.85 232.793 1019.27 Q229.738 1014.66 229.738 1005.94 Q229.738 997.187 232.793 992.604 Q235.872 987.997 241.682 987.997 Z" fill="#000000" fill-rule="evenodd" fill-opacity="1" /><path clip-path="url(#clip340)" d="M 0 0 M197.446 759.083 Q193.835 759.083 192.006 762.647 Q190.201 766.189 190.201 773.319 Q190.201 780.425 192.006 783.99 Q193.835 787.532 197.446 787.532 Q201.08 787.532 202.886 783.99 Q204.714 780.425 204.714 773.319 Q204.714 766.189 202.886 762.647 Q201.08 759.083 197.446 759.083 M197.446 755.379 Q203.256 755.379 206.312 759.985 Q209.39 764.569 209.39 773.319 Q209.39 782.045 206.312 786.652 Q203.256 791.235 197.446 791.235 Q191.636 791.235 188.557 786.652 Q185.502 782.045 185.502 773.319 Q185.502 764.569 188.557 759.985 Q191.636 755.379 197.446 755.379 Z" fill="#000000" fill-rule="evenodd" fill-opacity="1" /><path clip-path="url(#clip340)" d="M 0 0 M217.608 784.684 L222.492 784.684 L222.492 790.564 L217.608 790.564 L217.608 784.684 Z" fill="#000000" fill-rule="evenodd" fill-opacity="1" /><path clip-path="url(#clip340)" d="M 0 0 M232.724 756.004 L251.08 756.004 L251.08 759.939 L237.006 759.939 L237.006 768.411 Q238.024 768.064 239.043 767.902 Q240.062 767.717 241.08 767.717 Q246.867 767.717 250.247 770.888 Q253.626 774.059 253.626 779.476 Q253.626 785.055 250.154 788.157 Q246.682 791.235 240.362 791.235 Q238.187 791.235 235.918 790.865 Q233.673 790.494 231.265 789.754 L231.265 785.055 Q233.349 786.189 235.571 786.745 Q237.793 787.3 240.27 787.3 Q244.274 787.3 246.612 785.194 Q248.95 783.087 248.95 779.476 Q248.95 775.865 246.612 773.758 Q244.274 771.652 240.27 771.652 Q238.395 771.652 236.52 772.069 Q234.668 772.485 232.724 773.365 L232.724 756.004 Z" fill="#000000" fill-rule="evenodd" fill-opacity="1" /><path clip-path="url(#clip340)" d="M 0 0 M187.261 554.01 L194.9 554.01 L194.9 527.645 L186.59 529.311 L186.59 525.052 L194.853 523.386 L199.529 523.386 L199.529 554.01 L207.168 554.01 L207.168 557.946 L187.261 557.946 L187.261 554.01 Z" fill="#000000" fill-rule="evenodd" fill-opacity="1" /><path clip-path="url(#clip340)" d="M 0 0 M216.613 552.066 L221.497 552.066 L221.497 557.946 L216.613 557.946 L216.613 552.066 Z" fill="#000000" fill-rule="evenodd" fill-opacity="1" /><path clip-path="url(#clip340)" d="M 0 0 M241.682 526.464 Q238.071 526.464 236.242 530.029 Q234.437 533.571 234.437 540.7 Q234.437 547.807 236.242 551.371 Q238.071 554.913 241.682 554.913 Q245.316 554.913 247.122 551.371 Q248.95 547.807 248.95 540.7 Q248.95 533.571 247.122 530.029 Q245.316 526.464 241.682 526.464 M241.682 522.761 Q247.492 522.761 250.548 527.367 Q253.626 531.95 253.626 540.7 Q253.626 549.427 250.548 554.034 Q247.492 558.617 241.682 558.617 Q235.872 558.617 232.793 554.034 Q229.738 549.427 229.738 540.7 Q229.738 531.95 232.793 527.367 Q235.872 522.761 241.682 522.761 Z" fill="#000000" fill-rule="evenodd" fill-opacity="1" /><path clip-path="url(#clip340)" d="M 0 0 M188.256 321.392 L195.895 321.392 L195.895 295.026 L187.585 296.693 L187.585 292.434 L195.849 290.767 L200.525 290.767 L200.525 321.392 L208.164 321.392 L208.164 325.327 L188.256 325.327 L188.256 321.392 Z" fill="#000000" fill-rule="evenodd" fill-opacity="1" /><path clip-path="url(#clip340)" d="M 0 0 M217.608 319.448 L222.492 319.448 L222.492 325.327 L217.608 325.327 L217.608 319.448 Z" fill="#000000" fill-rule="evenodd" fill-opacity="1" /><path clip-path="url(#clip340)" d="M 0 0 M232.724 290.767 L251.08 290.767 L251.08 294.702 L237.006 294.702 L237.006 303.174 Q238.024 302.827 239.043 302.665 Q240.062 302.48 241.08 302.48 Q246.867 302.48 250.247 305.651 Q253.626 308.823 253.626 314.239 Q253.626 319.818 250.154 322.92 Q246.682 325.998 240.362 325.998 Q238.187 325.998 235.918 325.628 Q233.673 325.258 231.265 324.517 L231.265 319.818 Q233.349 320.952 235.571 321.508 Q237.793 322.063 240.27 322.063 Q244.274 322.063 246.612 319.957 Q248.95 317.85 248.95 314.239 Q248.95 310.628 246.612 308.522 Q244.274 306.415 240.27 306.415 Q238.395 306.415 236.52 306.832 Q234.668 307.249 232.724 308.128 L232.724 290.767 Z" fill="#000000" fill-rule="evenodd" fill-opacity="1" /><path clip-path="url(#clip340)" d="M 0 0 M190.478 88.7736 L206.798 88.7736 L206.798 92.7087 L184.853 92.7087 L184.853 88.7736 Q187.516 86.019 192.099 81.3893 Q196.705 76.7366 197.886 75.394 Q200.131 72.8709 201.011 71.1348 Q201.914 69.3755 201.914 67.6857 Q201.914 64.9311 199.969 63.195 Q198.048 61.4589 194.946 61.4589 Q192.747 61.4589 190.293 62.2228 Q187.863 62.9867 185.085 64.5376 L185.085 59.8154 Q187.909 58.6811 190.363 58.1024 Q192.816 57.5237 194.853 57.5237 Q200.224 57.5237 203.418 60.2089 Q206.613 62.8941 206.613 67.3848 Q206.613 69.5144 205.802 71.4357 Q205.015 73.3338 202.909 75.9264 Q202.33 76.5977 199.228 79.8153 Q196.127 83.0097 190.478 88.7736 Z" fill="#000000" fill-rule="evenodd" fill-opacity="1" /><path clip-path="url(#clip340)" d="M 0 0 M216.613 86.8291 L221.497 86.8291 L221.497 92.7087 L216.613 92.7087 L216.613 86.8291 Z" fill="#000000" fill-rule="evenodd" fill-opacity="1" /><path clip-path="url(#clip340)" d="M 0 0 M241.682 61.2274 Q238.071 61.2274 236.242 64.7922 Q234.437 68.3339 234.437 75.4635 Q234.437 82.5699 236.242 86.1347 Q238.071 89.6763 241.682 89.6763 Q245.316 89.6763 247.122 86.1347 Q248.95 82.5699 248.95 75.4635 Q248.95 68.3339 247.122 64.7922 Q245.316 61.2274 241.682 61.2274 M241.682 57.5237 Q247.492 57.5237 250.548 62.1302 Q253.626 66.7135 253.626 75.4635 Q253.626 84.1903 250.548 88.7967 Q247.492 93.38 241.682 93.38 Q235.872 93.38 232.793 88.7967 Q229.738 84.1903 229.738 75.4635 Q229.738 66.7135 232.793 62.1302 Q235.872 57.5237 241.682 57.5237 Z" fill="#000000" fill-rule="evenodd" fill-opacity="1" /><path clip-path="url(#clip340)" d="M 0 0 M60.857 942.374 L77.282 948.043 L77.282 1002.73 Q77.282 1003.47 77.2498 1003.76 Q77.2176 1004.05 77.0566 1004.27 Q76.8956 1004.5 76.5413 1004.5 Q76.2514 1004.5 75.5107 1003.92 L46.5576 980.506 L13.45 1004.56 Q11.9363 1004.56 11.6465 1004.31 Q11.3244 1004.05 11.3244 1002.73 L11.3244 948.043 L26.751 942.374 L26.751 944.017 Q24.7543 944.758 23.0796 945.949 Q21.3726 947.109 20.1488 948.461 Q18.925 949.782 17.9588 951.521 Q16.9604 953.228 16.3485 954.838 Q15.7044 956.416 15.2535 958.381 Q14.7704 960.345 14.545 961.923 Q14.2874 963.469 14.1585 965.402 Q14.0297 967.334 13.9975 968.558 Q13.9653 969.782 13.9653 971.327 L13.9653 997.446 L43.3693 976.03 Q44.11 975.546 44.3032 975.546 Q44.5931 975.546 45.366 976.158 L73.6428 999.024 L73.6428 971.005 Q73.6428 961.988 71.7426 955.708 Q70.2934 951.456 67.427 948.365 Q64.5607 945.241 60.857 944.017 L60.857 942.374 Z" fill="#000000" fill-rule="evenodd" fill-opacity="1" /><path clip-path="url(#clip340)" d="M 0 0 M103.424 1013.55 Q104.055 1013.55 104.213 1013.85 Q104.349 1014.14 104.349 1014.95 L104.349 1019.28 L117.965 1022.7 Q119.16 1022.98 120.174 1022.98 Q121.302 1022.98 121.798 1022.64 Q122.294 1022.28 122.294 1021.53 Q122.294 1020.07 120.964 1018.49 Q119.633 1016.89 116.387 1015.54 Q115.959 1015.36 115.869 1015.27 Q115.756 1015.15 115.756 1014.86 Q115.756 1014.3 116.207 1014.3 Q116.365 1014.3 117.086 1014.61 Q117.807 1014.9 118.867 1015.56 Q119.927 1016.19 120.918 1017.02 Q121.91 1017.84 122.632 1019.08 Q123.331 1020.32 123.331 1021.65 Q123.331 1023.52 122.136 1024.71 Q120.941 1025.88 119.07 1025.88 Q118.461 1025.88 116.522 1025.41 Q114.561 1024.94 104.349 1022.37 L104.349 1026.45 Q104.349 1027.01 104.326 1027.24 Q104.303 1027.44 104.191 1027.6 Q104.055 1027.73 103.785 1027.73 Q103.357 1027.73 103.176 1027.55 Q102.973 1027.37 102.951 1027.15 Q102.906 1026.9 102.906 1026.33 L102.906 1022.01 L95.5789 1020.2 Q94.8575 1020.02 94.4517 1019.57 Q94.0233 1019.1 93.9782 1018.83 Q93.9106 1018.56 93.9106 1018.35 Q93.9106 1017.75 94.2488 1017.38 Q94.5644 1017.02 95.1505 1017.02 Q95.4662 1017.02 102.906 1018.92 L102.906 1014.86 Q102.906 1014.34 102.928 1014.14 Q102.951 1013.91 103.064 1013.73 Q103.176 1013.55 103.424 1013.55 Z" fill="#000000" fill-rule="evenodd" fill-opacity="1" /><path clip-path="url(#clip340)" d="M 0 0 M115.801 998.419 Q115.237 998.374 115.237 997.495 L115.237 969.202 Q115.237 967.872 115.756 967.85 Q116.319 967.85 116.297 969.112 L116.297 997.179 Q116.319 998.419 115.801 998.419 M106.783 998.419 Q106.22 998.419 106.242 997.45 L106.242 969.247 Q106.242 967.872 106.783 967.85 Q107.302 967.85 107.302 969.022 L107.302 997.495 Q107.302 998.419 106.783 998.419 Z" fill="#000000" fill-rule="evenodd" fill-opacity="1" /><path clip-path="url(#clip340)" d="M 0 0 M108.046 950.037 Q101.26 950.037 97.5628 948.324 Q92.062 945.934 92.062 940.298 Q92.062 939.104 92.4002 937.864 Q92.7158 936.601 93.9557 935.023 Q95.1956 933.422 97.2246 932.453 Q101.147 930.604 108.046 930.604 Q114.786 930.604 118.461 932.318 Q123.827 934.82 123.827 940.344 Q123.827 942.418 122.767 944.537 Q121.707 946.633 119.16 947.963 Q115.35 950.037 108.046 950.037 M107.482 946.205 Q114.448 946.205 117.221 945.709 Q120.22 945.145 121.527 943.612 Q122.812 942.057 122.812 940.344 Q122.812 938.495 121.437 936.962 Q120.039 935.406 117.041 934.933 Q114.088 934.414 107.482 934.437 Q101.057 934.437 98.4871 934.888 Q95.4887 935.497 94.2939 937.12 Q93.0765 938.72 93.0765 940.344 Q93.0765 940.952 93.2568 941.606 Q93.4372 942.237 93.9557 943.162 Q94.4742 944.086 95.7592 944.807 Q97.0442 945.506 98.983 945.844 Q101.485 946.205 107.482 946.205 Z" fill="#000000" fill-rule="evenodd" fill-opacity="1" /><path clip-path="url(#clip340)" d="M 0 0 M16.8638 875.27 Q17.4757 875.27 17.991 875.399 L29.4563 877.202 Q30.3259 877.299 30.6479 877.492 Q30.97 877.653 30.97 878.168 Q30.97 878.974 30.1326 878.974 Q29.6496 878.974 28.8766 878.78 Q25.2374 878.233 23.5949 878.233 Q22.4999 878.233 21.6947 878.458 Q20.8574 878.651 20.2776 878.974 Q19.6979 879.263 19.3115 879.94 Q18.925 880.616 18.6996 881.26 Q18.4741 881.904 18.3775 883.064 Q18.2487 884.223 18.2165 885.221 Q18.1843 886.22 18.1843 887.862 Q18.1843 891.437 18.3131 892.017 Q18.4741 892.629 18.9572 892.951 Q19.4081 893.241 20.7607 893.563 L55.7685 902.323 L57.1534 902.58 Q57.9263 902.58 58.1839 902.097 Q58.4416 901.614 58.6026 900.133 Q58.7637 898.007 58.7637 895.914 Q58.7637 895.849 58.7637 895.721 Q58.7637 895.012 58.7959 894.722 Q58.7959 894.432 58.8603 894.142 Q58.9247 893.853 59.0857 893.788 Q59.2145 893.692 59.4722 893.692 Q60.0841 893.692 60.4062 893.949 Q60.696 894.207 60.7604 894.465 Q60.7926 894.69 60.7926 895.141 Q60.7926 896.043 60.7282 897.975 Q60.6638 899.907 60.6638 900.874 L60.5994 906.349 L60.6638 911.952 Q60.6638 912.822 60.7282 914.658 Q60.7926 916.493 60.7926 917.363 Q60.7926 918.49 59.9875 918.49 Q59.0857 918.49 58.9247 918.071 Q58.7637 917.621 58.7637 915.72 Q58.7637 913.047 58.6348 911.598 Q58.506 910.149 58.0551 909.376 Q57.6042 908.571 57.1534 908.345 Q56.6703 908.12 55.5753 907.862 L20.3743 899.006 Q19.6013 898.748 18.9894 898.748 Q18.6674 898.748 18.5385 898.845 Q18.4097 898.909 18.3131 899.328 Q18.1843 899.746 18.1843 900.616 L18.1843 903.192 Q18.1843 905.833 18.3131 907.476 Q18.4097 909.086 18.8928 910.632 Q19.3759 912.146 20.0522 913.047 Q20.7285 913.917 22.1134 914.883 Q23.4982 915.849 25.1729 916.558 Q26.8476 917.234 29.5851 918.2 Q30.4869 918.522 30.7446 918.716 Q30.97 918.877 30.97 919.327 Q30.97 919.65 30.7768 919.907 Q30.5513 920.133 30.2615 920.133 Q29.1987 919.811 29.0698 919.746 L17.4435 915.785 Q16.5096 915.463 16.3485 915.173 Q16.1553 914.851 16.1553 913.659 L16.1553 877.073 Q16.1553 876.494 16.1553 876.3 Q16.1553 876.107 16.2197 875.785 Q16.2841 875.463 16.4451 875.366 Q16.6062 875.27 16.8638 875.27 Z" fill="#000000" fill-rule="evenodd" fill-opacity="1" /><path clip-path="url(#clip340)" d="M 0 0 M7.94593 850.294 L8.87023 850.858 Q7.35978 854.352 4.94756 858.703 Q7.35978 863.054 8.87023 866.548 L7.94593 867.089 Q4.63194 863.279 2.08446 858.703 Q4.65449 854.081 7.94593 850.294 Z" fill="#000000" fill-rule="evenodd" fill-opacity="1" /><path clip-path="url(#clip340)" d="M 0 0 M16.5418 834.027 Q16.9604 834.027 17.2181 834.124 Q17.4757 834.189 17.6046 834.446 Q17.7012 834.672 17.7334 834.833 Q17.7656 834.961 17.7978 835.348 Q17.9266 836.926 18.3453 838.246 Q18.7318 839.567 19.5047 840.694 Q20.2776 841.789 20.7929 842.401 Q21.3082 842.981 22.3388 844.011 L23.2728 844.913 L42.0488 861.274 Q42.6929 861.853 44.11 862.208 L53.4175 864.526 Q57.2822 865.428 57.572 865.428 Q58.1517 865.428 58.345 865.106 Q58.506 864.752 58.6026 863.657 L58.7637 861.145 Q58.7637 859.663 59.0213 859.438 Q59.1823 859.309 59.4722 859.309 Q60.0841 859.309 60.4062 859.567 Q60.696 859.792 60.7604 860.018 Q60.7926 860.211 60.7926 860.565 L60.5994 869.003 L60.7926 877.312 Q60.7926 878.246 60.0519 878.246 Q59.5688 878.246 59.3112 878.182 Q59.0213 878.085 58.9247 877.795 Q58.7959 877.505 58.7959 877.28 Q58.7637 877.055 58.7637 876.443 Q58.7314 874.961 58.7314 874.22 Q58.6992 873.447 58.506 872.707 Q58.3128 871.966 58.1839 871.708 Q58.0229 871.418 57.4754 871.096 Q56.8957 870.742 56.4448 870.646 Q55.9939 870.517 54.8667 870.259 Q53.8684 870.001 48.4256 868.649 Q42.9828 867.296 42.854 867.296 Q42.4997 867.296 41.7268 867.554 L20.02 875.67 Q19.0538 876.024 18.6674 876.314 Q18.2809 876.604 18.0554 877.57 Q17.7978 878.536 17.7978 880.468 Q17.7978 881.016 17.7656 881.273 Q17.7334 881.531 17.5724 881.757 Q17.4113 881.982 17.0571 881.982 Q16.4451 881.982 16.1553 881.724 Q15.8332 881.467 15.801 881.273 Q15.7366 881.048 15.7366 880.726 Q15.7366 879.921 15.8332 877.055 Q15.9299 874.188 15.9299 873.351 L15.7366 865.042 Q15.7366 864.043 16.4774 864.043 Q17.3791 864.043 17.6046 864.398 Q17.7978 864.752 17.7978 865.621 Q17.7978 869.518 19.3759 869.518 Q19.5691 869.518 20.5031 869.132 L40.0843 861.886 L22.4676 846.588 L22.21 846.362 Q21.9524 846.169 21.7591 846.008 Q21.5659 845.847 21.2116 845.589 Q20.8574 845.332 20.5675 845.203 Q20.2776 845.042 19.9234 844.913 Q19.5691 844.784 19.3115 844.784 Q18.8284 844.784 18.5063 845.074 Q18.1521 845.364 18.0232 845.815 Q17.8944 846.266 17.8622 846.588 Q17.7978 846.91 17.7978 847.167 Q17.7978 848.166 16.9926 848.166 Q16.4129 848.166 16.1231 847.908 Q15.801 847.651 15.7688 847.457 Q15.7366 847.232 15.7366 846.91 Q15.7366 845.847 15.8332 843.625 Q15.9299 841.403 15.9299 840.308 Q15.9299 839.406 15.8332 837.57 Q15.7366 835.734 15.7366 834.897 Q15.7366 834.027 16.5418 834.027 Z" fill="#000000" fill-rule="evenodd" fill-opacity="1" /><path clip-path="url(#clip340)" d="M 0 0 M58.5788 822.834 Q59.21 822.834 59.3678 823.128 Q59.5031 823.421 59.5031 824.232 L59.5031 828.561 L73.1197 831.987 Q74.3145 832.258 75.329 832.258 Q76.4562 832.258 76.9522 831.92 Q77.4482 831.559 77.4482 830.815 Q77.4482 829.35 76.1181 827.772 Q74.788 826.171 71.5416 824.818 Q71.1133 824.638 71.0231 824.548 Q70.9104 824.435 70.9104 824.142 Q70.9104 823.578 71.3613 823.578 Q71.5191 823.578 72.2405 823.894 Q72.9619 824.187 74.0215 824.841 Q75.081 825.472 76.073 826.306 Q77.0649 827.118 77.7863 828.358 Q78.4852 829.598 78.4852 830.928 Q78.4852 832.799 77.2904 833.994 Q76.0955 835.166 74.2244 835.166 Q73.6157 835.166 71.6769 834.693 Q69.7155 834.219 59.5031 831.649 L59.5031 835.73 Q59.5031 836.293 59.4805 836.519 Q59.458 836.722 59.3453 836.879 Q59.21 837.015 58.9395 837.015 Q58.5111 837.015 58.3308 836.834 Q58.1279 836.654 58.1053 836.429 Q58.0602 836.181 58.0602 835.617 L58.0602 831.289 L50.7334 829.485 Q50.012 829.305 49.6062 828.854 Q49.1779 828.38 49.1328 828.11 Q49.0651 827.839 49.0651 827.636 Q49.0651 827.028 49.4033 826.667 Q49.7189 826.306 50.3051 826.306 Q50.6207 826.306 58.0602 828.2 L58.0602 824.142 Q58.0602 823.624 58.0828 823.421 Q58.1053 823.195 58.218 823.015 Q58.3308 822.834 58.5788 822.834 Z" fill="#000000" fill-rule="evenodd" fill-opacity="1" /><path clip-path="url(#clip340)" d="M 0 0 M42.8415 813.474 Q32.1994 813.474 23.618 809.506 Q20.0193 807.814 17.0051 805.446 Q13.9908 803.078 12.6682 801.509 Q11.3456 799.94 11.3456 799.51 Q11.3456 798.894 11.9608 798.864 Q12.2684 798.864 13.0373 799.694 Q23.3719 809.844 42.8415 809.813 Q62.3727 809.813 72.3074 799.94 Q73.384 798.864 73.7223 798.864 Q74.3374 798.864 74.3374 799.51 Q74.3374 799.94 73.0764 801.447 Q71.8153 802.954 68.9241 805.292 Q66.0329 807.63 62.4957 809.321 Q53.9143 813.474 42.8415 813.474 Z" fill="#000000" fill-rule="evenodd" fill-opacity="1" /><path clip-path="url(#clip340)" d="M 0 0 M24.5932 782.245 Q18.925 782.245 15.1247 779.347 Q11.3244 776.448 11.3244 772.551 Q11.3244 770.168 13.45 767.817 Q18.5385 762.471 18.5063 755.482 Q18.5063 747.559 12.2584 742.954 Q11.3244 742.149 11.3244 741.569 Q11.3244 741.054 11.7431 740.667 Q12.1296 740.249 12.6449 740.249 Q13.0313 740.249 13.8365 740.764 L63.4979 774.129 Q64.4963 774.87 64.4963 775.45 Q64.4963 775.965 64.0776 776.384 Q63.6911 776.77 63.1759 776.77 Q62.725 776.77 61.8554 776.19 L17.7334 746.561 L17.669 746.625 Q19.9878 750.039 19.9556 755.418 Q19.9556 760.506 17.1859 765.369 Q20.5997 763.984 24.6576 763.984 Q30.1971 763.984 34.0618 766.464 Q37.8943 768.944 37.8943 772.551 Q37.8943 776.448 34.1584 779.347 Q30.3903 782.245 24.5932 782.245 M19.2149 777.704 Q21.5337 778.155 24.6576 778.155 Q27.7494 778.155 30.0682 777.704 Q32.3548 777.253 33.5465 776.609 Q34.7381 775.933 35.4466 775.031 Q36.1229 774.129 36.284 773.582 Q36.445 773.034 36.445 772.487 Q36.445 769.781 33.0956 767.72 Q29.714 765.627 24.5932 765.627 Q19.5691 765.627 16.1875 767.72 Q12.7737 769.781 12.7737 772.487 Q12.7737 773.066 12.9347 773.646 Q13.0957 774.194 13.8043 775.063 Q14.4806 775.933 15.6722 776.609 Q16.8638 777.253 19.2149 777.704 M51.1631 753.034 Q45.4948 753.034 41.6945 750.136 Q37.8943 747.237 37.8943 743.34 Q37.8943 739.766 41.759 737.286 Q45.6237 734.774 51.2275 734.774 Q56.7669 734.774 60.6316 737.253 Q64.4963 739.701 64.4963 743.34 Q64.4963 747.237 60.7282 750.136 Q56.9601 753.034 51.1631 753.034 M45.7847 748.493 Q48.1357 748.944 51.2275 748.944 Q54.3192 748.944 56.6381 748.493 Q58.9569 748.01 60.1485 747.366 Q61.3079 746.69 61.9842 745.82 Q62.6928 744.918 62.8538 744.371 Q63.047 743.791 63.047 743.276 Q63.047 740.571 59.6976 738.51 Q56.316 736.416 51.1631 736.416 Q46.139 736.416 42.7573 738.51 Q39.3435 740.571 39.3435 743.276 Q39.3435 743.856 39.5368 744.435 Q39.6978 744.983 40.4063 745.852 Q41.0826 746.69 42.2743 747.366 Q43.4337 748.01 45.7847 748.493 Z" fill="#000000" fill-rule="evenodd" fill-opacity="1" /><path clip-path="url(#clip340)" d="M 0 0 M59.7298 726.924 Q58.667 727.858 57.2822 727.858 Q55.8973 727.858 54.8667 726.956 Q53.8039 726.022 53.8039 724.348 Q53.8039 722.383 55.7041 721.256 Q57.572 720.129 60.7282 720.129 Q64.142 720.129 67.2982 721.514 Q70.4866 722.898 72.0003 724.251 Q73.5139 725.604 73.5139 726.151 Q73.5139 726.795 72.8054 726.795 Q72.5478 726.795 72.0647 726.344 Q66.9761 721.61 60.7282 721.578 Q59.7298 721.578 59.7298 721.707 L59.8587 721.868 Q60.7926 722.995 60.7926 724.348 Q60.7926 725.99 59.7298 726.924 Z" fill="#000000" fill-rule="evenodd" fill-opacity="1" /><path clip-path="url(#clip340)" d="M 0 0 M43.4981 664.724 Q46.7509 664.724 50.0037 666.399 Q53.2564 668.073 55.7685 670.811 Q58.2484 673.548 59.8587 677.284 Q61.4689 681.02 61.5978 684.917 L71.4206 687.429 Q73.8038 687.912 74.0614 688.17 Q74.3191 688.427 74.3191 688.814 Q74.3191 689.619 73.5783 689.619 Q73.3529 689.619 67.7813 688.17 L61.5978 686.624 Q61.2757 692.485 57.8941 695.899 Q54.5125 699.313 49.6494 699.313 Q46.3644 699.313 43.1116 697.638 Q39.8266 695.931 37.3468 693.194 Q34.8669 690.424 33.2888 686.688 Q31.7107 682.952 31.5819 679.12 L16.3485 675.287 Q15.479 675.094 15.2535 674.933 Q15.0281 674.772 15.0281 674.289 Q15.0281 673.935 15.1891 673.742 Q15.3502 673.548 15.5112 673.548 L15.6722 673.516 L16.6062 673.709 L31.5819 677.413 Q31.8073 674.128 32.9668 671.584 Q34.1262 669.04 35.8653 667.59 Q37.5722 666.141 39.5045 665.432 Q41.4369 664.724 43.4981 664.724 M33.0312 679.506 Q33.3532 683.049 35.0923 686.044 Q36.8315 689.039 39.4079 690.972 Q41.9522 692.904 45.0117 693.967 Q48.0391 695.03 51.0342 695.03 Q53.3853 695.03 55.1888 694.257 Q56.9923 693.452 58.0229 692.131 Q59.0213 690.811 59.5688 689.361 Q60.0841 687.88 60.1485 686.302 L33.0312 679.506 M42.1132 669.04 Q37.9265 669.04 35.5754 671.455 Q33.2244 673.87 33.0312 677.8 L60.1485 684.595 Q59.9231 681.729 58.7314 679.217 Q57.5076 676.672 55.7041 674.837 Q53.8684 673.001 51.614 671.68 Q49.3273 670.36 46.9119 669.716 Q44.4642 669.04 42.1132 669.04 Z" fill="#000000" fill-rule="evenodd" fill-opacity="1" /><path clip-path="url(#clip340)" d="M 0 0 M50.7766 642.094 Q49.9715 642.03 49.9715 640.774 L49.9715 600.355 Q49.9715 598.455 50.7122 598.423 Q51.5173 598.423 51.4851 600.227 L51.4851 640.323 Q51.5173 642.094 50.7766 642.094 M37.8943 642.094 Q37.0891 642.094 37.1213 640.709 L37.1213 600.42 Q37.1213 598.455 37.8943 598.423 Q38.635 598.423 38.635 600.098 L38.635 640.774 Q38.635 642.094 37.8943 642.094 Z" fill="#000000" fill-rule="evenodd" fill-opacity="1" /><path clip-path="url(#clip340)" d="M 0 0 M23.144 572.977 L21.0828 572.977 Q21.0828 565.055 16.8638 560.965 Q16.8638 559.837 17.1215 559.644 Q17.3791 559.451 18.5707 559.451 L55.5753 559.451 Q57.5398 559.451 58.1517 558.485 Q58.7637 557.519 58.7637 553.3 L58.7637 551.206 L60.7926 551.206 Q60.5994 553.525 60.5994 561.899 Q60.5994 570.272 60.7926 572.559 L58.7637 572.559 L58.7637 570.465 Q58.7637 566.311 58.1839 565.312 Q57.572 564.314 55.5753 564.314 L21.4049 564.314 Q23.144 567.76 23.144 572.977 Z" fill="#000000" fill-rule="evenodd" fill-opacity="1" /><path clip-path="url(#clip340)" d="M 0 0 M59.7298 546.065 Q58.667 547.063 57.2822 547.063 Q55.8973 547.063 54.8989 546.065 Q53.8684 545.067 53.8684 543.553 Q53.8684 542.104 54.8345 541.137 Q55.7685 540.139 57.3144 540.139 Q58.8281 540.139 59.8264 541.202 Q60.7926 542.232 60.7926 543.553 Q60.7926 545.067 59.7298 546.065 Z" fill="#000000" fill-rule="evenodd" fill-opacity="1" /><path clip-path="url(#clip340)" d="M 0 0 M60.7926 528.913 Q59.601 528.913 59.2467 528.816 Q58.8925 528.688 58.345 528.172 L44.2388 515.515 Q36.445 508.591 29.6496 508.591 Q25.2374 508.591 22.0812 510.91 Q18.925 513.197 18.925 517.416 Q18.925 520.314 20.6963 522.762 Q22.4676 525.209 25.6238 526.337 Q25.5594 526.143 25.5594 525.467 Q25.5594 523.825 26.59 522.923 Q27.6206 521.989 29.0054 521.989 Q30.7768 521.989 31.6463 523.148 Q32.4837 524.275 32.4837 525.403 Q32.4837 525.854 32.3871 526.465 Q32.2904 527.045 31.3887 527.979 Q30.4547 528.913 28.8122 528.913 Q24.2068 528.913 20.5353 525.435 Q16.8638 521.924 16.8638 516.578 Q16.8638 510.524 20.4709 506.562 Q24.0457 502.569 29.6496 502.569 Q31.6141 502.569 33.4176 503.181 Q35.189 503.76 36.5738 504.565 Q37.9587 505.338 40.1809 507.464 Q42.4031 509.59 43.9812 511.296 Q45.5592 513.003 48.9087 516.836 L55.7041 523.825 L55.7041 511.941 Q55.7041 506.144 55.1888 505.693 Q54.2548 505.049 49.3273 504.243 L49.3273 502.569 L60.7926 504.437 L60.7926 528.913 Z" fill="#000000" fill-rule="evenodd" fill-opacity="1" /><path clip-path="url(#clip340)" d="M 0 0 M50.1647 496.249 Q48.2001 496.249 47.4594 495.186 Q46.6865 494.123 46.6865 492.996 Q46.6865 491.483 47.6526 490.613 Q48.5866 489.711 49.907 489.711 Q51.2275 489.711 52.1937 490.613 Q53.1276 491.483 53.1276 492.996 Q53.1276 493.737 52.9988 494.123 Q56.0262 493.254 58.2162 490.613 Q60.4062 487.94 60.4062 484.429 Q60.4062 480.017 56.1228 477.376 Q53.3531 475.798 47.0729 475.798 Q41.5335 475.798 38.7638 476.99 Q34.5448 478.826 34.5448 482.594 Q34.5448 487.94 39.1503 491.096 Q39.73 491.483 39.7622 491.933 Q39.7622 492.578 39.4079 492.739 Q39.0215 492.867 38.0231 492.867 L18.5063 492.867 Q16.9282 492.867 16.9282 492.223 Q16.9282 491.966 17.1215 491.418 Q18.9572 487.264 18.9894 482.658 Q18.9894 477.924 17.0571 473.673 Q16.8638 473.351 16.8638 473.157 Q16.8638 472.513 17.6046 472.481 Q17.8622 472.481 18.6351 473.029 Q19.3759 473.544 20.3743 474.671 Q21.3404 475.798 22.2744 477.248 Q23.2084 478.697 23.8525 480.822 Q24.4644 482.916 24.4644 485.235 Q24.4644 488.004 23.5949 490.838 L36.445 490.838 Q33.0956 487.425 33.0956 482.465 Q33.0956 477.183 37.3468 473.544 Q41.5979 469.905 47.5238 469.905 Q53.7395 469.905 57.9907 474.22 Q62.2419 478.504 62.2419 484.301 Q62.2419 489.582 58.4738 492.932 Q54.7057 496.249 50.1647 496.249 Z" fill="#000000" fill-rule="evenodd" fill-opacity="1" /><path clip-path="url(#clip340)" d="M 0 0 M73.7223 463.131 Q73.4147 463.131 72.6458 462.331 Q62.3112 452.181 42.8415 452.181 Q23.3104 452.181 13.4372 461.931 Q12.2991 463.131 11.9608 463.131 Q11.3456 463.131 11.3456 462.516 Q11.3456 462.085 12.6067 460.578 Q13.8678 459.04 16.759 456.733 Q19.6502 454.396 23.1874 452.673 Q31.7688 448.521 42.8415 448.521 Q53.4837 448.521 62.0651 452.489 Q65.6638 454.18 68.678 456.549 Q71.6923 458.917 73.0149 460.486 Q74.3374 462.054 74.3374 462.516 Q74.3374 463.131 73.7223 463.131 Z" fill="#000000" fill-rule="evenodd" fill-opacity="1" /><polyline clip-path="url(#clip342)" style="stroke:#0000ff; stroke-width:4; stroke-opacity:1; fill:none" stroke-dasharray="16, 10" points="
  331.027,890.586 1711.06,658.45 
  "/>
<polyline clip-path="url(#clip342)" style="stroke:#5500aa; stroke-width:4; stroke-opacity:1; fill:none" points="
  331.027,1400.1 1711.06,86.6476 
  "/>
<polyline clip-path="url(#clip342)" style="stroke:#aa0055; stroke-width:4; stroke-opacity:1; fill:none" stroke-dasharray="16, 10" points="
  331.027,866.131 1711.06,680.756 
  "/>
<polyline clip-path="url(#clip342)" style="stroke:#ff0000; stroke-width:4; stroke-opacity:1; fill:none" points="
  331.027,1007.96 1711.06,142.563 
  "/>
<path clip-path="url(#clip340)" d="
M1821.23 358.253 L2352.76 358.253 L2352.76 93.6527 L1821.23 93.6527  Z
  " fill="#ffffff" fill-rule="evenodd" fill-opacity="1"/>
<polyline clip-path="url(#clip340)" style="stroke:#000000; stroke-width:4; stroke-opacity:1; fill:none" points="
  1821.23,358.253 2352.76,358.253 2352.76,93.6527 1821.23,93.6527 1821.23,358.253 
  "/>
<polyline clip-path="url(#clip340)" style="stroke:#0000ff; stroke-width:3.5; stroke-opacity:1; fill:none" stroke-dasharray="14, 9" points="
  1844.16,146.573 1981.7,146.573 
  "/>
<path clip-path="url(#clip340)" d="M 0 0 M2033.17 128.673 Q2033.17 129.062 2033.09 129.39 L2031.94 136.686 Q2031.88 137.239 2031.76 137.444 Q2031.65 137.649 2031.33 137.649 Q2030.81 137.649 2030.81 137.116 Q2030.81 136.809 2030.94 136.317 Q2031.28 134.001 2031.28 132.956 Q2031.28 132.259 2031.14 131.747 Q2031.02 131.214 2030.81 130.845 Q2030.63 130.476 2030.2 130.23 Q2029.77 129.984 2029.36 129.841 Q2028.95 129.697 2028.21 129.636 Q2027.47 129.554 2026.84 129.533 Q2026.2 129.513 2025.16 129.513 Q2022.88 129.513 2022.51 129.595 Q2022.12 129.697 2021.92 130.005 Q2021.73 130.292 2021.53 131.153 L2015.95 153.43 L2015.79 154.311 Q2015.79 154.803 2016.1 154.967 Q2016.41 155.131 2017.35 155.234 Q2018.7 155.336 2020.03 155.336 Q2020.07 155.336 2020.16 155.336 Q2020.61 155.336 2020.79 155.357 Q2020.98 155.357 2021.16 155.398 Q2021.34 155.439 2021.39 155.541 Q2021.45 155.623 2021.45 155.787 Q2021.45 156.176 2021.28 156.381 Q2021.12 156.566 2020.95 156.607 Q2020.81 156.627 2020.52 156.627 Q2019.95 156.627 2018.72 156.586 Q2017.49 156.545 2016.88 156.545 L2013.39 156.504 L2009.83 156.545 Q2009.27 156.545 2008.1 156.586 Q2006.94 156.627 2006.38 156.627 Q2005.67 156.627 2005.67 156.115 Q2005.67 155.541 2005.93 155.439 Q2006.22 155.336 2007.43 155.336 Q2009.13 155.336 2010.05 155.254 Q2010.97 155.172 2011.47 154.885 Q2011.98 154.598 2012.12 154.311 Q2012.27 154.004 2012.43 153.307 L2018.07 130.907 Q2018.23 130.415 2018.23 130.025 Q2018.23 129.82 2018.17 129.738 Q2018.13 129.656 2017.86 129.595 Q2017.59 129.513 2017.04 129.513 L2015.4 129.513 Q2013.72 129.513 2012.68 129.595 Q2011.65 129.656 2010.67 129.964 Q2009.7 130.271 2009.13 130.702 Q2008.58 131.132 2007.96 132.013 Q2007.35 132.895 2006.9 133.96 Q2006.47 135.026 2005.85 136.768 Q2005.65 137.342 2005.52 137.506 Q2005.42 137.649 2005.13 137.649 Q2004.93 137.649 2004.76 137.526 Q2004.62 137.383 2004.62 137.198 Q2004.83 136.522 2004.87 136.44 L2007.39 129.042 Q2007.59 128.447 2007.78 128.345 Q2007.98 128.222 2008.74 128.222 L2032.02 128.222 Q2032.39 128.222 2032.51 128.222 Q2032.64 128.222 2032.84 128.263 Q2033.05 128.304 2033.11 128.406 Q2033.17 128.509 2033.17 128.673 Z" fill="#000000" fill-rule="evenodd" fill-opacity="1" /><path clip-path="url(#clip340)" d="M 0 0 M2040.54 150.254 Q2040.58 149.741 2041.38 149.741 L2067.1 149.741 Q2068.31 149.741 2068.33 150.213 Q2068.33 150.725 2067.18 150.704 L2041.67 150.704 Q2040.54 150.725 2040.54 150.254 M2040.54 142.056 Q2040.54 141.543 2041.42 141.564 L2067.06 141.564 Q2068.31 141.564 2068.33 142.056 Q2068.33 142.527 2067.26 142.527 L2041.38 142.527 Q2040.54 142.527 2040.54 142.056 Z" fill="#000000" fill-rule="evenodd" fill-opacity="1" /><path clip-path="url(#clip340)" d="M 0 0 M2084.51 132.669 L2084.51 131.357 Q2089.55 131.357 2092.16 128.673 Q2092.87 128.673 2093 128.837 Q2093.12 129.001 2093.12 129.759 L2093.12 153.307 Q2093.12 154.557 2093.74 154.947 Q2094.35 155.336 2097.03 155.336 L2098.37 155.336 L2098.37 156.627 Q2096.89 156.504 2091.56 156.504 Q2086.23 156.504 2084.78 156.627 L2084.78 155.336 L2086.11 155.336 Q2088.76 155.336 2089.39 154.967 Q2090.03 154.578 2090.03 153.307 L2090.03 131.562 Q2087.83 132.669 2084.51 132.669 Z" fill="#000000" fill-rule="evenodd" fill-opacity="1" /><path clip-path="url(#clip340)" d="M 0 0 M2105.89 155.951 Q2105.29 155.275 2105.29 154.393 Q2105.29 153.512 2105.87 152.856 Q2106.46 152.18 2107.53 152.18 Q2108.78 152.18 2109.5 153.389 Q2110.21 154.578 2110.21 156.586 Q2110.21 158.759 2109.33 160.767 Q2108.45 162.796 2107.59 163.76 Q2106.73 164.723 2106.38 164.723 Q2105.97 164.723 2105.97 164.272 Q2105.97 164.108 2106.26 163.801 Q2109.27 160.562 2109.29 156.586 Q2109.29 155.951 2109.21 155.951 L2109.11 156.033 Q2108.39 156.627 2107.53 156.627 Q2106.48 156.627 2105.89 155.951 Z" fill="#000000" fill-rule="evenodd" fill-opacity="1" /><path clip-path="url(#clip340)" d="M 0 0 M2144.05 150.622 Q2143.54 153.143 2142.49 154.906 Q2141.2 157.099 2139.24 157.099 Q2137.58 157.099 2136.47 155.951 Q2135.36 154.783 2135.36 152.938 Q2135.36 152.385 2135.59 151.463 Q2135.67 151.053 2135.67 150.54 Q2135.67 147.22 2128.48 146.974 Q2127.88 149.331 2127.47 150.93 Q2127.08 152.508 2126.96 152.979 Q2126.84 153.451 2126.73 153.84 Q2126.65 154.23 2126.51 154.742 Q2126.3 155.582 2126.16 155.992 Q2126.02 156.402 2125.63 156.75 Q2125.26 157.099 2124.66 157.099 Q2124.15 157.099 2123.8 156.791 Q2123.46 156.484 2123.46 155.951 Q2123.46 155.582 2123.62 154.988 L2127.47 139.596 Q2127.57 139.166 2127.78 138.859 Q2127.98 138.551 2128.17 138.408 Q2128.37 138.264 2128.62 138.182 Q2128.87 138.1 2128.97 138.1 Q2129.07 138.08 2129.15 138.08 Q2129.71 138.08 2130.03 138.387 Q2130.38 138.674 2130.38 139.207 Q2130.38 139.289 2130.24 139.863 Q2130.12 140.416 2129.91 141.256 Q2129.71 142.097 2129.62 142.486 L2128.78 145.765 Q2129.95 145.376 2131 144.679 Q2132.06 143.982 2134.15 142.179 Q2135.12 141.379 2135.69 140.928 Q2136.29 140.457 2137.27 139.822 Q2138.25 139.166 2139.2 138.859 Q2140.14 138.531 2141.04 138.531 Q2141.74 138.531 2142.15 138.859 Q2142.56 139.166 2142.64 139.453 Q2142.72 139.719 2142.72 140.006 Q2142.72 140.847 2142.06 141.564 Q2141.41 142.281 2140.45 142.281 Q2139.58 142.281 2139.22 141.81 Q2138.85 141.338 2138.85 140.806 Q2138.85 140.396 2139.05 139.883 Q2137.9 140.375 2136.92 141.092 Q2135.94 141.789 2134.24 143.244 Q2131.82 145.314 2130.38 146.093 Q2131.2 146.114 2131.82 146.175 Q2132.45 146.216 2133.52 146.36 Q2134.58 146.503 2135.36 146.81 Q2136.14 147.097 2136.9 147.548 Q2137.68 147.999 2138.09 148.737 Q2138.52 149.475 2138.52 150.418 Q2138.52 150.868 2138.31 151.791 Q2137.97 153.307 2137.97 154.148 Q2137.97 155.213 2138.29 155.685 Q2138.64 156.156 2139.32 156.156 Q2140.61 156.156 2141.43 154.824 Q2142.27 153.471 2142.97 150.971 Q2143.07 150.499 2143.17 150.356 Q2143.27 150.213 2143.56 150.213 Q2144.05 150.213 2144.05 150.622 Z" fill="#000000" fill-rule="evenodd" fill-opacity="1" /><path clip-path="url(#clip340)" d="M 0 0 M2159.03 150.254 Q2159.07 149.741 2159.87 149.741 L2185.59 149.741 Q2186.8 149.741 2186.82 150.213 Q2186.82 150.725 2185.67 150.704 L2160.16 150.704 Q2159.03 150.725 2159.03 150.254 M2159.03 142.056 Q2159.03 141.543 2159.91 141.564 L2185.55 141.564 Q2186.8 141.564 2186.82 142.056 Q2186.82 142.527 2185.75 142.527 L2159.87 142.527 Q2159.03 142.527 2159.03 142.056 Z" fill="#000000" fill-rule="evenodd" fill-opacity="1" /><path clip-path="url(#clip340)" d="M 0 0 M2203 150.971 Q2203 149.721 2203.72 149.126 Q2204.44 148.532 2205.36 148.532 Q2206.32 148.532 2207 149.167 Q2207.7 149.782 2207.7 150.868 Q2207.7 152.037 2206.88 152.692 Q2206.08 153.348 2204.93 153.184 Q2205.93 154.865 2207.78 155.623 Q2209.64 156.381 2211.36 156.381 Q2213.17 156.381 2214.62 154.824 Q2216.1 153.266 2216.1 149.454 Q2216.1 146.216 2214.83 144.351 Q2213.58 142.486 2211.1 142.486 L2209.25 142.486 Q2208.62 142.486 2208.43 142.425 Q2208.25 142.363 2208.25 142.015 Q2208.25 141.605 2208.88 141.523 Q2209.52 141.523 2210.52 141.4 Q2212.96 141.318 2214.25 139.207 Q2215.42 137.239 2215.42 134.432 Q2215.42 131.87 2214.19 130.804 Q2212.98 129.718 2211.41 129.718 Q2209.93 129.718 2208.31 130.333 Q2206.69 130.948 2205.81 132.321 Q2208.41 132.321 2208.41 134.432 Q2208.41 135.354 2207.82 135.969 Q2207.24 136.563 2206.28 136.563 Q2205.36 136.563 2204.74 135.989 Q2204.13 135.395 2204.13 134.391 Q2204.13 131.993 2206.26 130.333 Q2208.41 128.673 2211.57 128.673 Q2214.68 128.673 2216.98 130.312 Q2219.3 131.952 2219.3 134.473 Q2219.3 136.953 2217.66 138.981 Q2216.02 141.01 2213.41 141.851 Q2216.61 142.486 2218.52 144.659 Q2220.42 146.81 2220.42 149.454 Q2220.42 152.733 2217.84 155.152 Q2215.26 157.55 2211.49 157.55 Q2208 157.55 2205.5 155.664 Q2203 153.779 2203 150.971 Z" fill="#000000" fill-rule="evenodd" fill-opacity="1" /><path clip-path="url(#clip340)" d="M 0 0 M2223.78 143.203 Q2223.78 137.035 2225.34 133.673 Q2227.51 128.673 2232.64 128.673 Q2233.72 128.673 2234.85 128.98 Q2236 129.267 2237.43 130.394 Q2238.89 131.521 2239.77 133.366 Q2241.45 136.932 2241.45 143.203 Q2241.45 149.331 2239.89 152.672 Q2237.62 157.55 2232.6 157.55 Q2230.71 157.55 2228.78 156.586 Q2226.88 155.623 2225.67 153.307 Q2223.78 149.844 2223.78 143.203 M2227.27 142.691 Q2227.27 149.024 2227.72 151.545 Q2228.23 154.27 2229.62 155.459 Q2231.04 156.627 2232.6 156.627 Q2234.28 156.627 2235.67 155.377 Q2237.08 154.107 2237.51 151.381 Q2237.99 148.696 2237.97 142.691 Q2237.97 136.85 2237.56 134.514 Q2237 131.788 2235.53 130.702 Q2234.07 129.595 2232.6 129.595 Q2232.04 129.595 2231.45 129.759 Q2230.87 129.923 2230.03 130.394 Q2229.19 130.866 2228.54 132.034 Q2227.9 133.202 2227.6 134.965 Q2227.27 137.239 2227.27 142.691 Z" fill="#000000" fill-rule="evenodd" fill-opacity="1" /><polyline clip-path="url(#clip340)" style="stroke:#5500aa; stroke-width:3.5; stroke-opacity:1; fill:none" points="
  1844.16,199.493 1981.7,199.493 
  "/>
<path clip-path="url(#clip340)" d="M 0 0 M2033.17 181.593 Q2033.17 181.982 2033.09 182.31 L2031.94 189.606 Q2031.88 190.159 2031.76 190.364 Q2031.65 190.569 2031.33 190.569 Q2030.81 190.569 2030.81 190.036 Q2030.81 189.729 2030.94 189.237 Q2031.28 186.921 2031.28 185.876 Q2031.28 185.179 2031.14 184.667 Q2031.02 184.134 2030.81 183.765 Q2030.63 183.396 2030.2 183.15 Q2029.77 182.904 2029.36 182.761 Q2028.95 182.617 2028.21 182.556 Q2027.47 182.474 2026.84 182.453 Q2026.2 182.433 2025.16 182.433 Q2022.88 182.433 2022.51 182.515 Q2022.12 182.617 2021.92 182.925 Q2021.73 183.212 2021.53 184.073 L2015.95 206.35 L2015.79 207.231 Q2015.79 207.723 2016.1 207.887 Q2016.41 208.051 2017.35 208.154 Q2018.7 208.256 2020.03 208.256 Q2020.07 208.256 2020.16 208.256 Q2020.61 208.256 2020.79 208.277 Q2020.98 208.277 2021.16 208.318 Q2021.34 208.359 2021.39 208.461 Q2021.45 208.543 2021.45 208.707 Q2021.45 209.096 2021.28 209.301 Q2021.12 209.486 2020.95 209.527 Q2020.81 209.547 2020.52 209.547 Q2019.95 209.547 2018.72 209.506 Q2017.49 209.465 2016.88 209.465 L2013.39 209.424 L2009.83 209.465 Q2009.27 209.465 2008.1 209.506 Q2006.94 209.547 2006.38 209.547 Q2005.67 209.547 2005.67 209.035 Q2005.67 208.461 2005.93 208.359 Q2006.22 208.256 2007.43 208.256 Q2009.13 208.256 2010.05 208.174 Q2010.97 208.092 2011.47 207.805 Q2011.98 207.518 2012.12 207.231 Q2012.27 206.924 2012.43 206.227 L2018.07 183.827 Q2018.23 183.335 2018.23 182.945 Q2018.23 182.74 2018.17 182.658 Q2018.13 182.576 2017.86 182.515 Q2017.59 182.433 2017.04 182.433 L2015.4 182.433 Q2013.72 182.433 2012.68 182.515 Q2011.65 182.576 2010.67 182.884 Q2009.7 183.191 2009.13 183.622 Q2008.58 184.052 2007.96 184.933 Q2007.35 185.815 2006.9 186.88 Q2006.47 187.946 2005.85 189.688 Q2005.65 190.262 2005.52 190.426 Q2005.42 190.569 2005.13 190.569 Q2004.93 190.569 2004.76 190.446 Q2004.62 190.303 2004.62 190.118 Q2004.83 189.442 2004.87 189.36 L2007.39 181.962 Q2007.59 181.367 2007.78 181.265 Q2007.98 181.142 2008.74 181.142 L2032.02 181.142 Q2032.39 181.142 2032.51 181.142 Q2032.64 181.142 2032.84 181.183 Q2033.05 181.224 2033.11 181.326 Q2033.17 181.429 2033.17 181.593 Z" fill="#000000" fill-rule="evenodd" fill-opacity="1" /><path clip-path="url(#clip340)" d="M 0 0 M2040.54 203.174 Q2040.58 202.661 2041.38 202.661 L2067.1 202.661 Q2068.31 202.661 2068.33 203.133 Q2068.33 203.645 2067.18 203.624 L2041.67 203.624 Q2040.54 203.645 2040.54 203.174 M2040.54 194.976 Q2040.54 194.463 2041.42 194.484 L2067.06 194.484 Q2068.31 194.484 2068.33 194.976 Q2068.33 195.447 2067.26 195.447 L2041.38 195.447 Q2040.54 195.447 2040.54 194.976 Z" fill="#000000" fill-rule="evenodd" fill-opacity="1" /><path clip-path="url(#clip340)" d="M 0 0 M2084.51 209.547 Q2084.51 208.789 2084.57 208.564 Q2084.66 208.338 2084.98 207.99 L2093.04 199.013 Q2097.44 194.053 2097.44 189.729 Q2097.44 186.921 2095.97 184.913 Q2094.51 182.904 2091.83 182.904 Q2089.98 182.904 2088.43 184.032 Q2086.87 185.159 2086.15 187.167 Q2086.28 187.126 2086.71 187.126 Q2087.75 187.126 2088.32 187.782 Q2088.92 188.438 2088.92 189.319 Q2088.92 190.446 2088.18 191 Q2087.46 191.533 2086.75 191.533 Q2086.46 191.533 2086.07 191.471 Q2085.7 191.41 2085.11 190.836 Q2084.51 190.241 2084.51 189.196 Q2084.51 186.265 2086.73 183.929 Q2088.96 181.593 2092.36 181.593 Q2096.22 181.593 2098.74 183.888 Q2101.28 186.163 2101.28 189.729 Q2101.28 190.979 2100.89 192.127 Q2100.52 193.254 2100.01 194.135 Q2099.51 195.017 2098.16 196.431 Q2096.81 197.845 2095.72 198.849 Q2094.64 199.853 2092.2 201.985 L2087.75 206.309 L2095.31 206.309 Q2099 206.309 2099.29 205.981 Q2099.7 205.387 2100.21 202.251 L2101.28 202.251 L2100.09 209.547 L2084.51 209.547 Z" fill="#000000" fill-rule="evenodd" fill-opacity="1" /><path clip-path="url(#clip340)" d="M 0 0 M2105.29 202.784 Q2105.29 201.534 2105.97 201.063 Q2106.65 200.571 2107.36 200.571 Q2108.33 200.571 2108.88 201.186 Q2109.45 201.78 2109.45 202.62 Q2109.45 203.46 2108.88 204.075 Q2108.33 204.67 2107.36 204.67 Q2106.89 204.67 2106.65 204.588 Q2107.2 206.514 2108.88 207.908 Q2110.58 209.301 2112.82 209.301 Q2115.62 209.301 2117.3 206.576 Q2118.31 204.813 2118.31 200.817 Q2118.31 197.292 2117.55 195.529 Q2116.38 192.844 2113.98 192.844 Q2110.58 192.844 2108.57 195.775 Q2108.33 196.144 2108.04 196.164 Q2107.63 196.164 2107.53 195.939 Q2107.45 195.693 2107.45 195.058 L2107.45 182.638 Q2107.45 181.634 2107.86 181.634 Q2108.02 181.634 2108.37 181.757 Q2111.01 182.925 2113.94 182.945 Q2116.96 182.945 2119.66 181.716 Q2119.87 181.593 2119.99 181.593 Q2120.4 181.593 2120.42 182.064 Q2120.42 182.228 2120.07 182.72 Q2119.74 183.191 2119.03 183.827 Q2118.31 184.441 2117.39 185.036 Q2116.46 185.63 2115.11 186.04 Q2113.78 186.429 2112.3 186.429 Q2110.54 186.429 2108.74 185.876 L2108.74 194.053 Q2110.91 191.922 2114.07 191.922 Q2117.43 191.922 2119.74 194.627 Q2122.06 197.333 2122.06 201.104 Q2122.06 205.059 2119.31 207.764 Q2116.59 210.47 2112.9 210.47 Q2109.54 210.47 2107.4 208.072 Q2105.29 205.674 2105.29 202.784 Z" fill="#000000" fill-rule="evenodd" fill-opacity="1" /><path clip-path="url(#clip340)" d="M 0 0 M2126.08 196.123 Q2126.08 189.955 2127.63 186.593 Q2129.81 181.593 2134.93 181.593 Q2136.02 181.593 2137.14 181.9 Q2138.29 182.187 2139.72 183.314 Q2141.18 184.441 2142.06 186.286 Q2143.74 189.852 2143.74 196.123 Q2143.74 202.251 2142.18 205.592 Q2139.91 210.47 2134.89 210.47 Q2133 210.47 2131.08 209.506 Q2129.17 208.543 2127.96 206.227 Q2126.08 202.764 2126.08 196.123 M2129.56 195.611 Q2129.56 201.944 2130.01 204.465 Q2130.52 207.19 2131.92 208.379 Q2133.33 209.547 2134.89 209.547 Q2136.57 209.547 2137.96 208.297 Q2139.38 207.027 2139.81 204.301 Q2140.28 201.616 2140.26 195.611 Q2140.26 189.77 2139.85 187.434 Q2139.29 184.708 2137.82 183.622 Q2136.36 182.515 2134.89 182.515 Q2134.33 182.515 2133.74 182.679 Q2133.17 182.843 2132.33 183.314 Q2131.49 183.786 2130.83 184.954 Q2130.19 186.122 2129.89 187.885 Q2129.56 190.159 2129.56 195.611 Z" fill="#000000" fill-rule="evenodd" fill-opacity="1" /><path clip-path="url(#clip340)" d="M 0 0 M2147.45 208.871 Q2146.86 208.195 2146.86 207.313 Q2146.86 206.432 2147.43 205.776 Q2148.02 205.1 2149.09 205.1 Q2150.34 205.1 2151.06 206.309 Q2151.78 207.498 2151.78 209.506 Q2151.78 211.679 2150.89 213.687 Q2150.01 215.716 2149.15 216.68 Q2148.29 217.643 2147.94 217.643 Q2147.53 217.643 2147.53 217.192 Q2147.53 217.028 2147.82 216.721 Q2150.83 213.482 2150.85 209.506 Q2150.85 208.871 2150.77 208.871 L2150.67 208.953 Q2149.95 209.547 2149.09 209.547 Q2148.05 209.547 2147.45 208.871 Z" fill="#000000" fill-rule="evenodd" fill-opacity="1" /><path clip-path="url(#clip340)" d="M 0 0 M2185.62 203.542 Q2185.1 206.063 2184.06 207.826 Q2182.77 210.019 2180.8 210.019 Q2179.14 210.019 2178.03 208.871 Q2176.93 207.703 2176.93 205.858 Q2176.93 205.305 2177.15 204.383 Q2177.23 203.973 2177.23 203.46 Q2177.23 200.14 2170.04 199.894 Q2169.44 202.251 2169.03 203.85 Q2168.65 205.428 2168.52 205.899 Q2168.4 206.371 2168.3 206.76 Q2168.22 207.15 2168.07 207.662 Q2167.87 208.502 2167.72 208.912 Q2167.58 209.322 2167.19 209.67 Q2166.82 210.019 2166.23 210.019 Q2165.71 210.019 2165.37 209.711 Q2165.02 209.404 2165.02 208.871 Q2165.02 208.502 2165.18 207.908 L2169.03 192.516 Q2169.14 192.086 2169.34 191.779 Q2169.55 191.471 2169.73 191.328 Q2169.94 191.184 2170.18 191.102 Q2170.43 191.02 2170.53 191.02 Q2170.63 191 2170.72 191 Q2171.27 191 2171.6 191.307 Q2171.95 191.594 2171.95 192.127 Q2171.95 192.209 2171.8 192.783 Q2171.68 193.336 2171.47 194.176 Q2171.27 195.017 2171.19 195.406 L2170.35 198.685 Q2171.51 198.296 2172.56 197.599 Q2173.63 196.902 2175.72 195.099 Q2176.68 194.299 2177.25 193.848 Q2177.85 193.377 2178.83 192.742 Q2179.82 192.086 2180.76 191.779 Q2181.7 191.451 2182.6 191.451 Q2183.3 191.451 2183.71 191.779 Q2184.12 192.086 2184.2 192.373 Q2184.28 192.639 2184.28 192.926 Q2184.28 193.767 2183.63 194.484 Q2182.97 195.201 2182.01 195.201 Q2181.15 195.201 2180.78 194.73 Q2180.41 194.258 2180.41 193.726 Q2180.41 193.316 2180.61 192.803 Q2179.47 193.295 2178.48 194.012 Q2177.5 194.709 2175.8 196.164 Q2173.38 198.234 2171.95 199.013 Q2172.76 199.034 2173.38 199.095 Q2174.02 199.136 2175.08 199.28 Q2176.15 199.423 2176.93 199.73 Q2177.7 200.017 2178.46 200.468 Q2179.24 200.919 2179.65 201.657 Q2180.08 202.395 2180.08 203.338 Q2180.08 203.788 2179.88 204.711 Q2179.53 206.227 2179.53 207.068 Q2179.53 208.133 2179.86 208.605 Q2180.2 209.076 2180.88 209.076 Q2182.17 209.076 2182.99 207.744 Q2183.83 206.391 2184.53 203.891 Q2184.63 203.419 2184.73 203.276 Q2184.84 203.133 2185.12 203.133 Q2185.62 203.133 2185.62 203.542 Z" fill="#000000" fill-rule="evenodd" fill-opacity="1" /><path clip-path="url(#clip340)" d="M 0 0 M2200.59 203.174 Q2200.63 202.661 2201.43 202.661 L2227.15 202.661 Q2228.36 202.661 2228.38 203.133 Q2228.38 203.645 2227.23 203.624 L2201.72 203.624 Q2200.59 203.645 2200.59 203.174 M2200.59 194.976 Q2200.59 194.463 2201.47 194.484 L2227.11 194.484 Q2228.36 194.484 2228.38 194.976 Q2228.38 195.447 2227.32 195.447 L2201.43 195.447 Q2200.59 195.447 2200.59 194.976 Z" fill="#000000" fill-rule="evenodd" fill-opacity="1" /><path clip-path="url(#clip340)" d="M 0 0 M2244.56 203.891 Q2244.56 202.641 2245.28 202.046 Q2246 201.452 2246.92 201.452 Q2247.88 201.452 2248.56 202.087 Q2249.26 202.702 2249.26 203.788 Q2249.26 204.957 2248.44 205.612 Q2247.64 206.268 2246.49 206.104 Q2247.5 207.785 2249.34 208.543 Q2251.21 209.301 2252.93 209.301 Q2254.73 209.301 2256.19 207.744 Q2257.66 206.186 2257.66 202.374 Q2257.66 199.136 2256.39 197.271 Q2255.14 195.406 2252.66 195.406 L2250.82 195.406 Q2250.18 195.406 2250 195.345 Q2249.81 195.283 2249.81 194.935 Q2249.81 194.525 2250.45 194.443 Q2251.08 194.443 2252.09 194.32 Q2254.53 194.238 2255.82 192.127 Q2256.98 190.159 2256.98 187.352 Q2256.98 184.79 2255.75 183.724 Q2254.55 182.638 2252.97 182.638 Q2251.49 182.638 2249.87 183.253 Q2248.25 183.868 2247.37 185.241 Q2249.98 185.241 2249.98 187.352 Q2249.98 188.274 2249.38 188.889 Q2248.81 189.483 2247.84 189.483 Q2246.92 189.483 2246.31 188.909 Q2245.69 188.315 2245.69 187.311 Q2245.69 184.913 2247.82 183.253 Q2249.98 181.593 2253.13 181.593 Q2256.25 181.593 2258.54 183.232 Q2260.86 184.872 2260.86 187.393 Q2260.86 189.873 2259.22 191.901 Q2257.58 193.93 2254.98 194.771 Q2258.17 195.406 2260.08 197.579 Q2261.99 199.73 2261.99 202.374 Q2261.99 205.653 2259.4 208.072 Q2256.82 210.47 2253.05 210.47 Q2249.57 210.47 2247.07 208.584 Q2244.56 206.699 2244.56 203.891 Z" fill="#000000" fill-rule="evenodd" fill-opacity="1" /><path clip-path="url(#clip340)" d="M 0 0 M2265.35 196.123 Q2265.35 189.955 2266.9 186.593 Q2269.08 181.593 2274.2 181.593 Q2275.29 181.593 2276.41 181.9 Q2277.56 182.187 2279 183.314 Q2280.45 184.441 2281.33 186.286 Q2283.01 189.852 2283.01 196.123 Q2283.01 202.251 2281.45 205.592 Q2279.18 210.47 2274.16 210.47 Q2272.27 210.47 2270.35 209.506 Q2268.44 208.543 2267.23 206.227 Q2265.35 202.764 2265.35 196.123 M2268.83 195.611 Q2268.83 201.944 2269.28 204.465 Q2269.79 207.19 2271.19 208.379 Q2272.6 209.547 2274.16 209.547 Q2275.84 209.547 2277.23 208.297 Q2278.65 207.027 2279.08 204.301 Q2279.55 201.616 2279.53 195.611 Q2279.53 189.77 2279.12 187.434 Q2278.57 184.708 2277.09 183.622 Q2275.63 182.515 2274.16 182.515 Q2273.61 182.515 2273.01 182.679 Q2272.44 182.843 2271.6 183.314 Q2270.76 183.786 2270.1 184.954 Q2269.47 186.122 2269.16 187.885 Q2268.83 190.159 2268.83 195.611 Z" fill="#000000" fill-rule="evenodd" fill-opacity="1" /><polyline clip-path="url(#clip340)" style="stroke:#aa0055; stroke-width:3.5; stroke-opacity:1; fill:none" stroke-dasharray="14, 9" points="
  1844.16,252.413 1981.7,252.413 
  "/>
<path clip-path="url(#clip340)" d="M 0 0 M2033.17 234.513 Q2033.17 234.902 2033.09 235.23 L2031.94 242.526 Q2031.88 243.079 2031.76 243.284 Q2031.65 243.489 2031.33 243.489 Q2030.81 243.489 2030.81 242.956 Q2030.81 242.649 2030.94 242.157 Q2031.28 239.841 2031.28 238.796 Q2031.28 238.099 2031.14 237.587 Q2031.02 237.054 2030.81 236.685 Q2030.63 236.316 2030.2 236.07 Q2029.77 235.824 2029.36 235.681 Q2028.95 235.537 2028.21 235.476 Q2027.47 235.394 2026.84 235.373 Q2026.2 235.353 2025.16 235.353 Q2022.88 235.353 2022.51 235.435 Q2022.12 235.537 2021.92 235.845 Q2021.73 236.132 2021.53 236.993 L2015.95 259.27 L2015.79 260.151 Q2015.79 260.643 2016.1 260.807 Q2016.41 260.971 2017.35 261.074 Q2018.7 261.176 2020.03 261.176 Q2020.07 261.176 2020.16 261.176 Q2020.61 261.176 2020.79 261.197 Q2020.98 261.197 2021.16 261.238 Q2021.34 261.279 2021.39 261.381 Q2021.45 261.463 2021.45 261.627 Q2021.45 262.016 2021.28 262.221 Q2021.12 262.406 2020.95 262.447 Q2020.81 262.467 2020.52 262.467 Q2019.95 262.467 2018.72 262.426 Q2017.49 262.385 2016.88 262.385 L2013.39 262.344 L2009.83 262.385 Q2009.27 262.385 2008.1 262.426 Q2006.94 262.467 2006.38 262.467 Q2005.67 262.467 2005.67 261.955 Q2005.67 261.381 2005.93 261.279 Q2006.22 261.176 2007.43 261.176 Q2009.13 261.176 2010.05 261.094 Q2010.97 261.012 2011.47 260.725 Q2011.98 260.438 2012.12 260.151 Q2012.27 259.844 2012.43 259.147 L2018.07 236.747 Q2018.23 236.255 2018.23 235.865 Q2018.23 235.66 2018.17 235.578 Q2018.13 235.496 2017.86 235.435 Q2017.59 235.353 2017.04 235.353 L2015.4 235.353 Q2013.72 235.353 2012.68 235.435 Q2011.65 235.496 2010.67 235.804 Q2009.7 236.111 2009.13 236.542 Q2008.58 236.972 2007.96 237.853 Q2007.35 238.735 2006.9 239.8 Q2006.47 240.866 2005.85 242.608 Q2005.65 243.182 2005.52 243.346 Q2005.42 243.489 2005.13 243.489 Q2004.93 243.489 2004.76 243.366 Q2004.62 243.223 2004.62 243.038 Q2004.83 242.362 2004.87 242.28 L2007.39 234.882 Q2007.59 234.287 2007.78 234.185 Q2007.98 234.062 2008.74 234.062 L2032.02 234.062 Q2032.39 234.062 2032.51 234.062 Q2032.64 234.062 2032.84 234.103 Q2033.05 234.144 2033.11 234.246 Q2033.17 234.349 2033.17 234.513 Z" fill="#000000" fill-rule="evenodd" fill-opacity="1" /><path clip-path="url(#clip340)" d="M 0 0 M2040.54 256.094 Q2040.58 255.581 2041.38 255.581 L2067.1 255.581 Q2068.31 255.581 2068.33 256.053 Q2068.33 256.565 2067.18 256.544 L2041.67 256.544 Q2040.54 256.565 2040.54 256.094 M2040.54 247.896 Q2040.54 247.383 2041.42 247.404 L2067.06 247.404 Q2068.31 247.404 2068.33 247.896 Q2068.33 248.367 2067.26 248.367 L2041.38 248.367 Q2040.54 248.367 2040.54 247.896 Z" fill="#000000" fill-rule="evenodd" fill-opacity="1" /><path clip-path="url(#clip340)" d="M 0 0 M2084.51 238.509 L2084.51 237.197 Q2089.55 237.197 2092.16 234.513 Q2092.87 234.513 2093 234.677 Q2093.12 234.841 2093.12 235.599 L2093.12 259.147 Q2093.12 260.397 2093.74 260.787 Q2094.35 261.176 2097.03 261.176 L2098.37 261.176 L2098.37 262.467 Q2096.89 262.344 2091.56 262.344 Q2086.23 262.344 2084.78 262.467 L2084.78 261.176 L2086.11 261.176 Q2088.76 261.176 2089.39 260.807 Q2090.03 260.418 2090.03 259.147 L2090.03 237.402 Q2087.83 238.509 2084.51 238.509 Z" fill="#000000" fill-rule="evenodd" fill-opacity="1" /><path clip-path="url(#clip340)" d="M 0 0 M2105.89 261.791 Q2105.29 261.115 2105.29 260.233 Q2105.29 259.352 2105.87 258.696 Q2106.46 258.02 2107.53 258.02 Q2108.78 258.02 2109.5 259.229 Q2110.21 260.418 2110.21 262.426 Q2110.21 264.599 2109.33 266.607 Q2108.45 268.636 2107.59 269.6 Q2106.73 270.563 2106.38 270.563 Q2105.97 270.563 2105.97 270.112 Q2105.97 269.948 2106.26 269.641 Q2109.27 266.402 2109.29 262.426 Q2109.29 261.791 2109.21 261.791 L2109.11 261.873 Q2108.39 262.467 2107.53 262.467 Q2106.48 262.467 2105.89 261.791 Z" fill="#000000" fill-rule="evenodd" fill-opacity="1" /><path clip-path="url(#clip340)" d="M 0 0 M2144.05 256.462 Q2143.54 258.983 2142.49 260.746 Q2141.2 262.939 2139.24 262.939 Q2137.58 262.939 2136.47 261.791 Q2135.36 260.623 2135.36 258.778 Q2135.36 258.225 2135.59 257.303 Q2135.67 256.893 2135.67 256.38 Q2135.67 253.06 2128.48 252.814 Q2127.88 255.171 2127.47 256.77 Q2127.08 258.348 2126.96 258.819 Q2126.84 259.291 2126.73 259.68 Q2126.65 260.07 2126.51 260.582 Q2126.3 261.422 2126.16 261.832 Q2126.02 262.242 2125.63 262.59 Q2125.26 262.939 2124.66 262.939 Q2124.15 262.939 2123.8 262.631 Q2123.46 262.324 2123.46 261.791 Q2123.46 261.422 2123.62 260.828 L2127.47 245.436 Q2127.57 245.006 2127.78 244.699 Q2127.98 244.391 2128.17 244.248 Q2128.37 244.104 2128.62 244.022 Q2128.87 243.94 2128.97 243.94 Q2129.07 243.92 2129.15 243.92 Q2129.71 243.92 2130.03 244.227 Q2130.38 244.514 2130.38 245.047 Q2130.38 245.129 2130.24 245.703 Q2130.12 246.256 2129.91 247.096 Q2129.71 247.937 2129.62 248.326 L2128.78 251.605 Q2129.95 251.216 2131 250.519 Q2132.06 249.822 2134.15 248.019 Q2135.12 247.219 2135.69 246.768 Q2136.29 246.297 2137.27 245.662 Q2138.25 245.006 2139.2 244.699 Q2140.14 244.371 2141.04 244.371 Q2141.74 244.371 2142.15 244.699 Q2142.56 245.006 2142.64 245.293 Q2142.72 245.559 2142.72 245.846 Q2142.72 246.687 2142.06 247.404 Q2141.41 248.121 2140.45 248.121 Q2139.58 248.121 2139.22 247.65 Q2138.85 247.178 2138.85 246.646 Q2138.85 246.236 2139.05 245.723 Q2137.9 246.215 2136.92 246.932 Q2135.94 247.629 2134.24 249.084 Q2131.82 251.154 2130.38 251.933 Q2131.2 251.954 2131.82 252.015 Q2132.45 252.056 2133.52 252.2 Q2134.58 252.343 2135.36 252.65 Q2136.14 252.937 2136.9 253.388 Q2137.68 253.839 2138.09 254.577 Q2138.52 255.315 2138.52 256.258 Q2138.52 256.708 2138.31 257.631 Q2137.97 259.147 2137.97 259.988 Q2137.97 261.053 2138.29 261.525 Q2138.64 261.996 2139.32 261.996 Q2140.61 261.996 2141.43 260.664 Q2142.27 259.311 2142.97 256.811 Q2143.07 256.339 2143.17 256.196 Q2143.27 256.053 2143.56 256.053 Q2144.05 256.053 2144.05 256.462 Z" fill="#000000" fill-rule="evenodd" fill-opacity="1" /><path clip-path="url(#clip340)" d="M 0 0 M2159.03 256.094 Q2159.07 255.581 2159.87 255.581 L2185.59 255.581 Q2186.8 255.581 2186.82 256.053 Q2186.82 256.565 2185.67 256.544 L2160.16 256.544 Q2159.03 256.565 2159.03 256.094 M2159.03 247.896 Q2159.03 247.383 2159.91 247.404 L2185.55 247.404 Q2186.8 247.404 2186.82 247.896 Q2186.82 248.367 2185.75 248.367 L2159.87 248.367 Q2159.03 248.367 2159.03 247.896 Z" fill="#000000" fill-rule="evenodd" fill-opacity="1" /><path clip-path="url(#clip340)" d="M 0 0 M2203 256.811 Q2203 255.561 2203.72 254.966 Q2204.44 254.372 2205.36 254.372 Q2206.32 254.372 2207 255.007 Q2207.7 255.622 2207.7 256.708 Q2207.7 257.877 2206.88 258.532 Q2206.08 259.188 2204.93 259.024 Q2205.93 260.705 2207.78 261.463 Q2209.64 262.221 2211.36 262.221 Q2213.17 262.221 2214.62 260.664 Q2216.1 259.106 2216.1 255.294 Q2216.1 252.056 2214.83 250.191 Q2213.58 248.326 2211.1 248.326 L2209.25 248.326 Q2208.62 248.326 2208.43 248.265 Q2208.25 248.203 2208.25 247.855 Q2208.25 247.445 2208.88 247.363 Q2209.52 247.363 2210.52 247.24 Q2212.96 247.158 2214.25 245.047 Q2215.42 243.079 2215.42 240.272 Q2215.42 237.71 2214.19 236.644 Q2212.98 235.558 2211.41 235.558 Q2209.93 235.558 2208.31 236.173 Q2206.69 236.788 2205.81 238.161 Q2208.41 238.161 2208.41 240.272 Q2208.41 241.194 2207.82 241.809 Q2207.24 242.403 2206.28 242.403 Q2205.36 242.403 2204.74 241.829 Q2204.13 241.235 2204.13 240.231 Q2204.13 237.833 2206.26 236.173 Q2208.41 234.513 2211.57 234.513 Q2214.68 234.513 2216.98 236.152 Q2219.3 237.792 2219.3 240.313 Q2219.3 242.793 2217.66 244.821 Q2216.02 246.85 2213.41 247.691 Q2216.61 248.326 2218.52 250.499 Q2220.42 252.65 2220.42 255.294 Q2220.42 258.573 2217.84 260.992 Q2215.26 263.39 2211.49 263.39 Q2208 263.39 2205.5 261.504 Q2203 259.619 2203 256.811 Z" fill="#000000" fill-rule="evenodd" fill-opacity="1" /><path clip-path="url(#clip340)" d="M 0 0 M2223.78 249.043 Q2223.78 242.875 2225.34 239.513 Q2227.51 234.513 2232.64 234.513 Q2233.72 234.513 2234.85 234.82 Q2236 235.107 2237.43 236.234 Q2238.89 237.361 2239.77 239.206 Q2241.45 242.772 2241.45 249.043 Q2241.45 255.171 2239.89 258.512 Q2237.62 263.39 2232.6 263.39 Q2230.71 263.39 2228.78 262.426 Q2226.88 261.463 2225.67 259.147 Q2223.78 255.684 2223.78 249.043 M2227.27 248.531 Q2227.27 254.864 2227.72 257.385 Q2228.23 260.11 2229.62 261.299 Q2231.04 262.467 2232.6 262.467 Q2234.28 262.467 2235.67 261.217 Q2237.08 259.947 2237.51 257.221 Q2237.99 254.536 2237.97 248.531 Q2237.97 242.69 2237.56 240.354 Q2237 237.628 2235.53 236.542 Q2234.07 235.435 2232.6 235.435 Q2232.04 235.435 2231.45 235.599 Q2230.87 235.763 2230.03 236.234 Q2229.19 236.706 2228.54 237.874 Q2227.9 239.042 2227.6 240.805 Q2227.27 243.079 2227.27 248.531 Z" fill="#000000" fill-rule="evenodd" fill-opacity="1" /><path clip-path="url(#clip340)" d="M 0 0 M2244.56 249.043 Q2244.56 242.875 2246.12 239.513 Q2248.29 234.513 2253.42 234.513 Q2254.5 234.513 2255.63 234.82 Q2256.78 235.107 2258.21 236.234 Q2259.67 237.361 2260.55 239.206 Q2262.23 242.772 2262.23 249.043 Q2262.23 255.171 2260.67 258.512 Q2258.4 263.39 2253.38 263.39 Q2251.49 263.39 2249.57 262.426 Q2247.66 261.463 2246.45 259.147 Q2244.56 255.684 2244.56 249.043 M2248.05 248.531 Q2248.05 254.864 2248.5 257.385 Q2249.01 260.11 2250.41 261.299 Q2251.82 262.467 2253.38 262.467 Q2255.06 262.467 2256.45 261.217 Q2257.87 259.947 2258.3 257.221 Q2258.77 254.536 2258.75 248.531 Q2258.75 242.69 2258.34 240.354 Q2257.78 237.628 2256.31 236.542 Q2254.85 235.435 2253.38 235.435 Q2252.82 235.435 2252.23 235.599 Q2251.66 235.763 2250.82 236.234 Q2249.98 236.706 2249.32 237.874 Q2248.68 239.042 2248.38 240.805 Q2248.05 243.079 2248.05 248.531 Z" fill="#000000" fill-rule="evenodd" fill-opacity="1" /><polyline clip-path="url(#clip340)" style="stroke:#ff0000; stroke-width:3.5; stroke-opacity:1; fill:none" points="
  1844.16,305.333 1981.7,305.333 
  "/>
<path clip-path="url(#clip340)" d="M 0 0 M2033.17 287.433 Q2033.17 287.822 2033.09 288.15 L2031.94 295.446 Q2031.88 295.999 2031.76 296.204 Q2031.65 296.409 2031.33 296.409 Q2030.81 296.409 2030.81 295.876 Q2030.81 295.569 2030.94 295.077 Q2031.28 292.761 2031.28 291.716 Q2031.28 291.019 2031.14 290.507 Q2031.02 289.974 2030.81 289.605 Q2030.63 289.236 2030.2 288.99 Q2029.77 288.744 2029.36 288.601 Q2028.95 288.457 2028.21 288.396 Q2027.47 288.314 2026.84 288.293 Q2026.2 288.273 2025.16 288.273 Q2022.88 288.273 2022.51 288.355 Q2022.12 288.457 2021.92 288.765 Q2021.73 289.052 2021.53 289.913 L2015.95 312.19 L2015.79 313.071 Q2015.79 313.563 2016.1 313.727 Q2016.41 313.891 2017.35 313.994 Q2018.7 314.096 2020.03 314.096 Q2020.07 314.096 2020.16 314.096 Q2020.61 314.096 2020.79 314.117 Q2020.98 314.117 2021.16 314.158 Q2021.34 314.199 2021.39 314.301 Q2021.45 314.383 2021.45 314.547 Q2021.45 314.936 2021.28 315.141 Q2021.12 315.326 2020.95 315.367 Q2020.81 315.387 2020.52 315.387 Q2019.95 315.387 2018.72 315.346 Q2017.49 315.305 2016.88 315.305 L2013.39 315.264 L2009.83 315.305 Q2009.27 315.305 2008.1 315.346 Q2006.94 315.387 2006.38 315.387 Q2005.67 315.387 2005.67 314.875 Q2005.67 314.301 2005.93 314.199 Q2006.22 314.096 2007.43 314.096 Q2009.13 314.096 2010.05 314.014 Q2010.97 313.932 2011.47 313.645 Q2011.98 313.358 2012.12 313.071 Q2012.27 312.764 2012.43 312.067 L2018.07 289.667 Q2018.23 289.175 2018.23 288.785 Q2018.23 288.58 2018.17 288.498 Q2018.13 288.416 2017.86 288.355 Q2017.59 288.273 2017.04 288.273 L2015.4 288.273 Q2013.72 288.273 2012.68 288.355 Q2011.65 288.416 2010.67 288.724 Q2009.7 289.031 2009.13 289.462 Q2008.58 289.892 2007.96 290.773 Q2007.35 291.655 2006.9 292.72 Q2006.47 293.786 2005.85 295.528 Q2005.65 296.102 2005.52 296.266 Q2005.42 296.409 2005.13 296.409 Q2004.93 296.409 2004.76 296.286 Q2004.62 296.143 2004.62 295.958 Q2004.83 295.282 2004.87 295.2 L2007.39 287.802 Q2007.59 287.207 2007.78 287.105 Q2007.98 286.982 2008.74 286.982 L2032.02 286.982 Q2032.39 286.982 2032.51 286.982 Q2032.64 286.982 2032.84 287.023 Q2033.05 287.064 2033.11 287.166 Q2033.17 287.269 2033.17 287.433 Z" fill="#000000" fill-rule="evenodd" fill-opacity="1" /><path clip-path="url(#clip340)" d="M 0 0 M2040.54 309.014 Q2040.58 308.501 2041.38 308.501 L2067.1 308.501 Q2068.31 308.501 2068.33 308.973 Q2068.33 309.485 2067.18 309.464 L2041.67 309.464 Q2040.54 309.485 2040.54 309.014 M2040.54 300.816 Q2040.54 300.303 2041.42 300.324 L2067.06 300.324 Q2068.31 300.324 2068.33 300.816 Q2068.33 301.287 2067.26 301.287 L2041.38 301.287 Q2040.54 301.287 2040.54 300.816 Z" fill="#000000" fill-rule="evenodd" fill-opacity="1" /><path clip-path="url(#clip340)" d="M 0 0 M2084.51 315.387 Q2084.51 314.629 2084.57 314.404 Q2084.66 314.178 2084.98 313.83 L2093.04 304.853 Q2097.44 299.893 2097.44 295.569 Q2097.44 292.761 2095.97 290.753 Q2094.51 288.744 2091.83 288.744 Q2089.98 288.744 2088.43 289.872 Q2086.87 290.999 2086.15 293.007 Q2086.28 292.966 2086.71 292.966 Q2087.75 292.966 2088.32 293.622 Q2088.92 294.278 2088.92 295.159 Q2088.92 296.286 2088.18 296.84 Q2087.46 297.373 2086.75 297.373 Q2086.46 297.373 2086.07 297.311 Q2085.7 297.25 2085.11 296.676 Q2084.51 296.081 2084.51 295.036 Q2084.51 292.105 2086.73 289.769 Q2088.96 287.433 2092.36 287.433 Q2096.22 287.433 2098.74 289.728 Q2101.28 292.003 2101.28 295.569 Q2101.28 296.819 2100.89 297.967 Q2100.52 299.094 2100.01 299.975 Q2099.51 300.857 2098.16 302.271 Q2096.81 303.685 2095.72 304.689 Q2094.64 305.693 2092.2 307.825 L2087.75 312.149 L2095.31 312.149 Q2099 312.149 2099.29 311.821 Q2099.7 311.227 2100.21 308.091 L2101.28 308.091 L2100.09 315.387 L2084.51 315.387 Z" fill="#000000" fill-rule="evenodd" fill-opacity="1" /><path clip-path="url(#clip340)" d="M 0 0 M2105.29 308.624 Q2105.29 307.374 2105.97 306.903 Q2106.65 306.411 2107.36 306.411 Q2108.33 306.411 2108.88 307.026 Q2109.45 307.62 2109.45 308.46 Q2109.45 309.3 2108.88 309.915 Q2108.33 310.51 2107.36 310.51 Q2106.89 310.51 2106.65 310.428 Q2107.2 312.354 2108.88 313.748 Q2110.58 315.141 2112.82 315.141 Q2115.62 315.141 2117.3 312.416 Q2118.31 310.653 2118.31 306.657 Q2118.31 303.132 2117.55 301.369 Q2116.38 298.684 2113.98 298.684 Q2110.58 298.684 2108.57 301.615 Q2108.33 301.984 2108.04 302.004 Q2107.63 302.004 2107.53 301.779 Q2107.45 301.533 2107.45 300.898 L2107.45 288.478 Q2107.45 287.474 2107.86 287.474 Q2108.02 287.474 2108.37 287.597 Q2111.01 288.765 2113.94 288.785 Q2116.96 288.785 2119.66 287.556 Q2119.87 287.433 2119.99 287.433 Q2120.4 287.433 2120.42 287.904 Q2120.42 288.068 2120.07 288.56 Q2119.74 289.031 2119.03 289.667 Q2118.31 290.281 2117.39 290.876 Q2116.46 291.47 2115.11 291.88 Q2113.78 292.269 2112.3 292.269 Q2110.54 292.269 2108.74 291.716 L2108.74 299.893 Q2110.91 297.762 2114.07 297.762 Q2117.43 297.762 2119.74 300.467 Q2122.06 303.173 2122.06 306.944 Q2122.06 310.899 2119.31 313.604 Q2116.59 316.31 2112.9 316.31 Q2109.54 316.31 2107.4 313.912 Q2105.29 311.514 2105.29 308.624 Z" fill="#000000" fill-rule="evenodd" fill-opacity="1" /><path clip-path="url(#clip340)" d="M 0 0 M2126.08 301.963 Q2126.08 295.795 2127.63 292.433 Q2129.81 287.433 2134.93 287.433 Q2136.02 287.433 2137.14 287.74 Q2138.29 288.027 2139.72 289.154 Q2141.18 290.281 2142.06 292.126 Q2143.74 295.692 2143.74 301.963 Q2143.74 308.091 2142.18 311.432 Q2139.91 316.31 2134.89 316.31 Q2133 316.31 2131.08 315.346 Q2129.17 314.383 2127.96 312.067 Q2126.08 308.604 2126.08 301.963 M2129.56 301.451 Q2129.56 307.784 2130.01 310.305 Q2130.52 313.03 2131.92 314.219 Q2133.33 315.387 2134.89 315.387 Q2136.57 315.387 2137.96 314.137 Q2139.38 312.867 2139.81 310.141 Q2140.28 307.456 2140.26 301.451 Q2140.26 295.61 2139.85 293.274 Q2139.29 290.548 2137.82 289.462 Q2136.36 288.355 2134.89 288.355 Q2134.33 288.355 2133.74 288.519 Q2133.17 288.683 2132.33 289.154 Q2131.49 289.626 2130.83 290.794 Q2130.19 291.962 2129.89 293.725 Q2129.56 295.999 2129.56 301.451 Z" fill="#000000" fill-rule="evenodd" fill-opacity="1" /><path clip-path="url(#clip340)" d="M 0 0 M2147.45 314.711 Q2146.86 314.035 2146.86 313.153 Q2146.86 312.272 2147.43 311.616 Q2148.02 310.94 2149.09 310.94 Q2150.34 310.94 2151.06 312.149 Q2151.78 313.338 2151.78 315.346 Q2151.78 317.519 2150.89 319.527 Q2150.01 321.556 2149.15 322.52 Q2148.29 323.483 2147.94 323.483 Q2147.53 323.483 2147.53 323.032 Q2147.53 322.868 2147.82 322.561 Q2150.83 319.322 2150.85 315.346 Q2150.85 314.711 2150.77 314.711 L2150.67 314.793 Q2149.95 315.387 2149.09 315.387 Q2148.05 315.387 2147.45 314.711 Z" fill="#000000" fill-rule="evenodd" fill-opacity="1" /><path clip-path="url(#clip340)" d="M 0 0 M2185.62 309.382 Q2185.1 311.903 2184.06 313.666 Q2182.77 315.859 2180.8 315.859 Q2179.14 315.859 2178.03 314.711 Q2176.93 313.543 2176.93 311.698 Q2176.93 311.145 2177.15 310.223 Q2177.23 309.813 2177.23 309.3 Q2177.23 305.98 2170.04 305.734 Q2169.44 308.091 2169.03 309.69 Q2168.65 311.268 2168.52 311.739 Q2168.4 312.211 2168.3 312.6 Q2168.22 312.99 2168.07 313.502 Q2167.87 314.342 2167.72 314.752 Q2167.58 315.162 2167.19 315.51 Q2166.82 315.859 2166.23 315.859 Q2165.71 315.859 2165.37 315.551 Q2165.02 315.244 2165.02 314.711 Q2165.02 314.342 2165.18 313.748 L2169.03 298.356 Q2169.14 297.926 2169.34 297.619 Q2169.55 297.311 2169.73 297.168 Q2169.94 297.024 2170.18 296.942 Q2170.43 296.86 2170.53 296.86 Q2170.63 296.84 2170.72 296.84 Q2171.27 296.84 2171.6 297.147 Q2171.95 297.434 2171.95 297.967 Q2171.95 298.049 2171.8 298.623 Q2171.68 299.176 2171.47 300.016 Q2171.27 300.857 2171.19 301.246 L2170.35 304.525 Q2171.51 304.136 2172.56 303.439 Q2173.63 302.742 2175.72 300.939 Q2176.68 300.139 2177.25 299.688 Q2177.85 299.217 2178.83 298.582 Q2179.82 297.926 2180.76 297.619 Q2181.7 297.291 2182.6 297.291 Q2183.3 297.291 2183.71 297.619 Q2184.12 297.926 2184.2 298.213 Q2184.28 298.479 2184.28 298.766 Q2184.28 299.607 2183.63 300.324 Q2182.97 301.041 2182.01 301.041 Q2181.15 301.041 2180.78 300.57 Q2180.41 300.098 2180.41 299.566 Q2180.41 299.156 2180.61 298.643 Q2179.47 299.135 2178.48 299.852 Q2177.5 300.549 2175.8 302.004 Q2173.38 304.074 2171.95 304.853 Q2172.76 304.874 2173.38 304.935 Q2174.02 304.976 2175.08 305.12 Q2176.15 305.263 2176.93 305.57 Q2177.7 305.857 2178.46 306.308 Q2179.24 306.759 2179.65 307.497 Q2180.08 308.235 2180.08 309.178 Q2180.08 309.628 2179.88 310.551 Q2179.53 312.067 2179.53 312.908 Q2179.53 313.973 2179.86 314.445 Q2180.2 314.916 2180.88 314.916 Q2182.17 314.916 2182.99 313.584 Q2183.83 312.231 2184.53 309.731 Q2184.63 309.259 2184.73 309.116 Q2184.84 308.973 2185.12 308.973 Q2185.62 308.973 2185.62 309.382 Z" fill="#000000" fill-rule="evenodd" fill-opacity="1" /><path clip-path="url(#clip340)" d="M 0 0 M2200.59 309.014 Q2200.63 308.501 2201.43 308.501 L2227.15 308.501 Q2228.36 308.501 2228.38 308.973 Q2228.38 309.485 2227.23 309.464 L2201.72 309.464 Q2200.59 309.485 2200.59 309.014 M2200.59 300.816 Q2200.59 300.303 2201.47 300.324 L2227.11 300.324 Q2228.36 300.324 2228.38 300.816 Q2228.38 301.287 2227.32 301.287 L2201.43 301.287 Q2200.59 301.287 2200.59 300.816 Z" fill="#000000" fill-rule="evenodd" fill-opacity="1" /><path clip-path="url(#clip340)" d="M 0 0 M2244.56 309.731 Q2244.56 308.481 2245.28 307.886 Q2246 307.292 2246.92 307.292 Q2247.88 307.292 2248.56 307.927 Q2249.26 308.542 2249.26 309.628 Q2249.26 310.797 2248.44 311.452 Q2247.64 312.108 2246.49 311.944 Q2247.5 313.625 2249.34 314.383 Q2251.21 315.141 2252.93 315.141 Q2254.73 315.141 2256.19 313.584 Q2257.66 312.026 2257.66 308.214 Q2257.66 304.976 2256.39 303.111 Q2255.14 301.246 2252.66 301.246 L2250.82 301.246 Q2250.18 301.246 2250 301.185 Q2249.81 301.123 2249.81 300.775 Q2249.81 300.365 2250.45 300.283 Q2251.08 300.283 2252.09 300.16 Q2254.53 300.078 2255.82 297.967 Q2256.98 295.999 2256.98 293.192 Q2256.98 290.63 2255.75 289.564 Q2254.55 288.478 2252.97 288.478 Q2251.49 288.478 2249.87 289.093 Q2248.25 289.708 2247.37 291.081 Q2249.98 291.081 2249.98 293.192 Q2249.98 294.114 2249.38 294.729 Q2248.81 295.323 2247.84 295.323 Q2246.92 295.323 2246.31 294.749 Q2245.69 294.155 2245.69 293.151 Q2245.69 290.753 2247.82 289.093 Q2249.98 287.433 2253.13 287.433 Q2256.25 287.433 2258.54 289.072 Q2260.86 290.712 2260.86 293.233 Q2260.86 295.713 2259.22 297.741 Q2257.58 299.77 2254.98 300.611 Q2258.17 301.246 2260.08 303.419 Q2261.99 305.57 2261.99 308.214 Q2261.99 311.493 2259.4 313.912 Q2256.82 316.31 2253.05 316.31 Q2249.57 316.31 2247.07 314.424 Q2244.56 312.539 2244.56 309.731 Z" fill="#000000" fill-rule="evenodd" fill-opacity="1" /><path clip-path="url(#clip340)" d="M 0 0 M2265.35 301.963 Q2265.35 295.795 2266.9 292.433 Q2269.08 287.433 2274.2 287.433 Q2275.29 287.433 2276.41 287.74 Q2277.56 288.027 2279 289.154 Q2280.45 290.281 2281.33 292.126 Q2283.01 295.692 2283.01 301.963 Q2283.01 308.091 2281.45 311.432 Q2279.18 316.31 2274.16 316.31 Q2272.27 316.31 2270.35 315.346 Q2268.44 314.383 2267.23 312.067 Q2265.35 308.604 2265.35 301.963 M2268.83 301.451 Q2268.83 307.784 2269.28 310.305 Q2269.79 313.03 2271.19 314.219 Q2272.6 315.387 2274.16 315.387 Q2275.84 315.387 2277.23 314.137 Q2278.65 312.867 2279.08 310.141 Q2279.55 307.456 2279.53 301.451 Q2279.53 295.61 2279.12 293.274 Q2278.57 290.548 2277.09 289.462 Q2275.63 288.355 2274.16 288.355 Q2273.61 288.355 2273.01 288.519 Q2272.44 288.683 2271.6 289.154 Q2270.76 289.626 2270.1 290.794 Q2269.47 291.962 2269.16 293.725 Q2268.83 295.999 2268.83 301.451 Z" fill="#000000" fill-rule="evenodd" fill-opacity="1" /><path clip-path="url(#clip340)" d="M 0 0 M2286.13 301.963 Q2286.13 295.795 2287.68 292.433 Q2289.86 287.433 2294.98 287.433 Q2296.07 287.433 2297.19 287.74 Q2298.34 288.027 2299.78 289.154 Q2301.23 290.281 2302.11 292.126 Q2303.79 295.692 2303.79 301.963 Q2303.79 308.091 2302.24 311.432 Q2299.96 316.31 2294.94 316.31 Q2293.05 316.31 2291.13 315.346 Q2289.22 314.383 2288.01 312.067 Q2286.13 308.604 2286.13 301.963 M2289.61 301.451 Q2289.61 307.784 2290.06 310.305 Q2290.57 313.03 2291.97 314.219 Q2293.38 315.387 2294.94 315.387 Q2296.62 315.387 2298.01 314.137 Q2299.43 312.867 2299.86 310.141 Q2300.33 307.456 2300.31 301.451 Q2300.31 295.61 2299.9 293.274 Q2299.35 290.548 2297.87 289.462 Q2296.42 288.355 2294.94 288.355 Q2294.39 288.355 2293.79 288.519 Q2293.22 288.683 2292.38 289.154 Q2291.54 289.626 2290.88 290.794 Q2290.25 291.962 2289.94 293.725 Q2289.61 295.999 2289.61 301.451 Z" fill="#000000" fill-rule="evenodd" fill-opacity="1" /></svg>
