<?xml version="1.0" encoding="utf-8"?>
<svg xmlns="http://www.w3.org/2000/svg" xmlns:xlink="http://www.w3.org/1999/xlink" width="600" height="400" viewBox="0 0 2400 1600">
<defs>
  <clipPath id="clip170">
    <rect x="0" y="0" width="2400" height="1600"/>
  </clipPath>
</defs>
<path clip-path="url(#clip170)" d="
M0 1600 L2400 1600 L2400 0 L0 0  Z
  " fill="#ffffff" fill-rule="evenodd" fill-opacity="1"/>
<defs>
  <clipPath id="clip171">
    <rect x="480" y="0" width="1681" height="1600"/>
  </clipPath>
</defs>
<defs>
  <clipPath id="clip172">
    <rect x="297" y="47" width="2057" height="1393"/>
  </clipPath>
</defs>
<path clip-path="url(#clip170)" d="
M297.073 1439.5 L2352.76 1439.5 L2352.76 47.2441 L297.073 47.2441  Z
  " fill="#ffffff" fill-rule="evenodd" fill-opacity="1"/>
<polyline clip-path="url(#clip172)" style="stroke:#000000; stroke-width:2; stroke-opacity:0.1; fill:none" points="
  351.366,1439.5 351.366,47.2441 
  "/>
<polyline clip-path="url(#clip172)" style="stroke:#000000; stroke-width:2; stroke-opacity:0.1; fill:none" points="
  740.008,1439.5 740.008,47.2441 
  "/>
<polyline clip-path="url(#clip172)" style="stroke:#000000; stroke-width:2; stroke-opacity:0.1; fill:none" points="
  1128.65,1439.5 1128.65,47.2441 
  "/>
<polyline clip-path="url(#clip172)" style="stroke:#000000; stroke-width:2; stroke-opacity:0.1; fill:none" points="
  1517.29,1439.5 1517.29,47.2441 
  "/>
<polyline clip-path="url(#clip172)" style="stroke:#000000; stroke-width:2; stroke-opacity:0.1; fill:none" points="
  1905.93,1439.5 1905.93,47.2441 
  "/>
<polyline clip-path="url(#clip172)" style="stroke:#000000; stroke-width:2; stroke-opacity:0.1; fill:none" points="
  2294.58,1439.5 2294.58,47.2441 
  "/>
<polyline clip-path="url(#clip170)" style="stroke:#000000; stroke-width:4; stroke-opacity:1; fill:none" points="
  297.073,1439.5 2352.76,1439.5 
  "/>
<polyline clip-path="url(#clip170)" style="stroke:#000000; stroke-width:4; stroke-opacity:1; fill:none" points="
  351.366,1439.5 351.366,1422.79 
  "/>
<polyline clip-path="url(#clip170)" style="stroke:#000000; stroke-width:4; stroke-opacity:1; fill:none" points="
  740.008,1439.5 740.008,1422.79 
  "/>
<polyline clip-path="url(#clip170)" style="stroke:#000000; stroke-width:4; stroke-opacity:1; fill:none" points="
  1128.65,1439.5 1128.65,1422.79 
  "/>
<polyline clip-path="url(#clip170)" style="stroke:#000000; stroke-width:4; stroke-opacity:1; fill:none" points="
  1517.29,1439.5 1517.29,1422.79 
  "/>
<polyline clip-path="url(#clip170)" style="stroke:#000000; stroke-width:4; stroke-opacity:1; fill:none" points="
  1905.93,1439.5 1905.93,1422.79 
  "/>
<polyline clip-path="url(#clip170)" style="stroke:#000000; stroke-width:4; stroke-opacity:1; fill:none" points="
  2294.58,1439.5 2294.58,1422.79 
  "/>
<path clip-path="url(#clip170)" d="M 0 0 M351.366 1468.69 Q347.755 1468.69 345.927 1472.26 Q344.121 1475.8 344.121 1482.93 Q344.121 1490.04 345.927 1493.6 Q347.755 1497.14 351.366 1497.14 Q355.001 1497.14 356.806 1493.6 Q358.635 1490.04 358.635 1482.93 Q358.635 1475.8 356.806 1472.26 Q355.001 1468.69 351.366 1468.69 M351.366 1464.99 Q357.177 1464.99 360.232 1469.6 Q363.311 1474.18 363.311 1482.93 Q363.311 1491.66 360.232 1496.26 Q357.177 1500.85 351.366 1500.85 Q345.556 1500.85 342.478 1496.26 Q339.422 1491.66 339.422 1482.93 Q339.422 1474.18 342.478 1469.6 Q345.556 1464.99 351.366 1464.99 Z" fill="#000000" fill-rule="evenodd" fill-opacity="1" /><path clip-path="url(#clip170)" d="M 0 0 M699.615 1496.24 L707.254 1496.24 L707.254 1469.87 L698.944 1471.54 L698.944 1467.28 L707.208 1465.61 L711.884 1465.61 L711.884 1496.24 L719.522 1496.24 L719.522 1500.17 L699.615 1500.17 L699.615 1496.24 Z" fill="#000000" fill-rule="evenodd" fill-opacity="1" /><path clip-path="url(#clip170)" d="M 0 0 M738.967 1468.69 Q735.356 1468.69 733.527 1472.26 Q731.721 1475.8 731.721 1482.93 Q731.721 1490.04 733.527 1493.6 Q735.356 1497.14 738.967 1497.14 Q742.601 1497.14 744.407 1493.6 Q746.235 1490.04 746.235 1482.93 Q746.235 1475.8 744.407 1472.26 Q742.601 1468.69 738.967 1468.69 M738.967 1464.99 Q744.777 1464.99 747.832 1469.6 Q750.911 1474.18 750.911 1482.93 Q750.911 1491.66 747.832 1496.26 Q744.777 1500.85 738.967 1500.85 Q733.157 1500.85 730.078 1496.26 Q727.022 1491.66 727.022 1482.93 Q727.022 1474.18 730.078 1469.6 Q733.157 1464.99 738.967 1464.99 Z" fill="#000000" fill-rule="evenodd" fill-opacity="1" /><path clip-path="url(#clip170)" d="M 0 0 M769.129 1468.69 Q765.518 1468.69 763.689 1472.26 Q761.883 1475.8 761.883 1482.93 Q761.883 1490.04 763.689 1493.6 Q765.518 1497.14 769.129 1497.14 Q772.763 1497.14 774.568 1493.6 Q776.397 1490.04 776.397 1482.93 Q776.397 1475.8 774.568 1472.26 Q772.763 1468.69 769.129 1468.69 M769.129 1464.99 Q774.939 1464.99 777.994 1469.6 Q781.073 1474.18 781.073 1482.93 Q781.073 1491.66 777.994 1496.26 Q774.939 1500.85 769.129 1500.85 Q763.318 1500.85 760.24 1496.26 Q757.184 1491.66 757.184 1482.93 Q757.184 1474.18 760.24 1469.6 Q763.318 1464.99 769.129 1464.99 Z" fill="#000000" fill-rule="evenodd" fill-opacity="1" /><path clip-path="url(#clip170)" d="M 0 0 M1092.34 1496.24 L1108.66 1496.24 L1108.66 1500.17 L1086.72 1500.17 L1086.72 1496.24 Q1089.38 1493.48 1093.96 1488.85 Q1098.57 1484.2 1099.75 1482.86 Q1102 1480.34 1102.88 1478.6 Q1103.78 1476.84 1103.78 1475.15 Q1103.78 1472.4 1101.83 1470.66 Q1099.91 1468.92 1096.81 1468.92 Q1094.61 1468.92 1092.16 1469.69 Q1089.73 1470.45 1086.95 1472 L1086.95 1467.28 Q1089.77 1466.15 1092.23 1465.57 Q1094.68 1464.99 1096.72 1464.99 Q1102.09 1464.99 1105.28 1467.67 Q1108.48 1470.36 1108.48 1474.85 Q1108.48 1476.98 1107.67 1478.9 Q1106.88 1480.8 1104.77 1483.39 Q1104.19 1484.06 1101.09 1487.28 Q1097.99 1490.47 1092.34 1496.24 Z" fill="#000000" fill-rule="evenodd" fill-opacity="1" /><path clip-path="url(#clip170)" d="M 0 0 M1128.48 1468.69 Q1124.87 1468.69 1123.04 1472.26 Q1121.23 1475.8 1121.23 1482.93 Q1121.23 1490.04 1123.04 1493.6 Q1124.87 1497.14 1128.48 1497.14 Q1132.11 1497.14 1133.92 1493.6 Q1135.75 1490.04 1135.75 1482.93 Q1135.75 1475.8 1133.92 1472.26 Q1132.11 1468.69 1128.48 1468.69 M1128.48 1464.99 Q1134.29 1464.99 1137.34 1469.6 Q1140.42 1474.18 1140.42 1482.93 Q1140.42 1491.66 1137.34 1496.26 Q1134.29 1500.85 1128.48 1500.85 Q1122.67 1500.85 1119.59 1496.26 Q1116.53 1491.66 1116.53 1482.93 Q1116.53 1474.18 1119.59 1469.6 Q1122.67 1464.99 1128.48 1464.99 Z" fill="#000000" fill-rule="evenodd" fill-opacity="1" /><path clip-path="url(#clip170)" d="M 0 0 M1158.64 1468.69 Q1155.03 1468.69 1153.2 1472.26 Q1151.39 1475.8 1151.39 1482.93 Q1151.39 1490.04 1153.2 1493.6 Q1155.03 1497.14 1158.64 1497.14 Q1162.27 1497.14 1164.08 1493.6 Q1165.91 1490.04 1165.91 1482.93 Q1165.91 1475.8 1164.08 1472.26 Q1162.27 1468.69 1158.64 1468.69 M1158.64 1464.99 Q1164.45 1464.99 1167.5 1469.6 Q1170.58 1474.18 1170.58 1482.93 Q1170.58 1491.66 1167.5 1496.26 Q1164.45 1500.85 1158.64 1500.85 Q1152.83 1500.85 1149.75 1496.26 Q1146.69 1491.66 1146.69 1482.93 Q1146.69 1474.18 1149.75 1469.6 Q1152.83 1464.99 1158.64 1464.99 Z" fill="#000000" fill-rule="evenodd" fill-opacity="1" /><path clip-path="url(#clip170)" d="M 0 0 M1491.05 1481.54 Q1494.41 1482.26 1496.29 1484.53 Q1498.18 1486.79 1498.18 1490.13 Q1498.18 1495.24 1494.67 1498.04 Q1491.15 1500.85 1484.67 1500.85 Q1482.49 1500.85 1480.17 1500.41 Q1477.88 1499.99 1475.43 1499.13 L1475.43 1494.62 Q1477.37 1495.75 1479.69 1496.33 Q1482 1496.91 1484.53 1496.91 Q1488.92 1496.91 1491.22 1495.17 Q1493.53 1493.44 1493.53 1490.13 Q1493.53 1487.07 1491.38 1485.36 Q1489.25 1483.62 1485.43 1483.62 L1481.4 1483.62 L1481.4 1479.78 L1485.61 1479.78 Q1489.06 1479.78 1490.89 1478.41 Q1492.72 1477.03 1492.72 1474.43 Q1492.72 1471.77 1490.82 1470.36 Q1488.95 1468.92 1485.43 1468.92 Q1483.51 1468.92 1481.31 1469.34 Q1479.11 1469.76 1476.47 1470.64 L1476.47 1466.47 Q1479.13 1465.73 1481.45 1465.36 Q1483.79 1464.99 1485.85 1464.99 Q1491.17 1464.99 1494.27 1467.42 Q1497.37 1469.83 1497.37 1473.95 Q1497.37 1476.82 1495.73 1478.81 Q1494.09 1480.78 1491.05 1481.54 Z" fill="#000000" fill-rule="evenodd" fill-opacity="1" /><path clip-path="url(#clip170)" d="M 0 0 M1517.05 1468.69 Q1513.44 1468.69 1511.61 1472.26 Q1509.8 1475.8 1509.8 1482.93 Q1509.8 1490.04 1511.61 1493.6 Q1513.44 1497.14 1517.05 1497.14 Q1520.68 1497.14 1522.49 1493.6 Q1524.32 1490.04 1524.32 1482.93 Q1524.32 1475.8 1522.49 1472.26 Q1520.68 1468.69 1517.05 1468.69 M1517.05 1464.99 Q1522.86 1464.99 1525.91 1469.6 Q1528.99 1474.18 1528.99 1482.93 Q1528.99 1491.66 1525.91 1496.26 Q1522.86 1500.85 1517.05 1500.85 Q1511.24 1500.85 1508.16 1496.26 Q1505.1 1491.66 1505.1 1482.93 Q1505.1 1474.18 1508.16 1469.6 Q1511.24 1464.99 1517.05 1464.99 Z" fill="#000000" fill-rule="evenodd" fill-opacity="1" /><path clip-path="url(#clip170)" d="M 0 0 M1547.21 1468.69 Q1543.6 1468.69 1541.77 1472.26 Q1539.97 1475.8 1539.97 1482.93 Q1539.97 1490.04 1541.77 1493.6 Q1543.6 1497.14 1547.21 1497.14 Q1550.85 1497.14 1552.65 1493.6 Q1554.48 1490.04 1554.48 1482.93 Q1554.48 1475.8 1552.65 1472.26 Q1550.85 1468.69 1547.21 1468.69 M1547.21 1464.99 Q1553.02 1464.99 1556.08 1469.6 Q1559.16 1474.18 1559.16 1482.93 Q1559.16 1491.66 1556.08 1496.26 Q1553.02 1500.85 1547.21 1500.85 Q1541.4 1500.85 1538.32 1496.26 Q1535.27 1491.66 1535.27 1482.93 Q1535.27 1474.18 1538.32 1469.6 Q1541.4 1464.99 1547.21 1464.99 Z" fill="#000000" fill-rule="evenodd" fill-opacity="1" /><path clip-path="url(#clip170)" d="M 0 0 M1879.02 1469.69 L1867.22 1488.14 L1879.02 1488.14 L1879.02 1469.69 M1877.8 1465.61 L1883.68 1465.61 L1883.68 1488.14 L1888.61 1488.14 L1888.61 1492.03 L1883.68 1492.03 L1883.68 1500.17 L1879.02 1500.17 L1879.02 1492.03 L1863.42 1492.03 L1863.42 1487.51 L1877.8 1465.61 Z" fill="#000000" fill-rule="evenodd" fill-opacity="1" /><path clip-path="url(#clip170)" d="M 0 0 M1906.34 1468.69 Q1902.73 1468.69 1900.9 1472.26 Q1899.09 1475.8 1899.09 1482.93 Q1899.09 1490.04 1900.9 1493.6 Q1902.73 1497.14 1906.34 1497.14 Q1909.97 1497.14 1911.78 1493.6 Q1913.61 1490.04 1913.61 1482.93 Q1913.61 1475.8 1911.78 1472.26 Q1909.97 1468.69 1906.34 1468.69 M1906.34 1464.99 Q1912.15 1464.99 1915.21 1469.6 Q1918.28 1474.18 1918.28 1482.93 Q1918.28 1491.66 1915.21 1496.26 Q1912.15 1500.85 1906.34 1500.85 Q1900.53 1500.85 1897.45 1496.26 Q1894.39 1491.66 1894.39 1482.93 Q1894.39 1474.18 1897.45 1469.6 Q1900.53 1464.99 1906.34 1464.99 Z" fill="#000000" fill-rule="evenodd" fill-opacity="1" /><path clip-path="url(#clip170)" d="M 0 0 M1936.5 1468.69 Q1932.89 1468.69 1931.06 1472.26 Q1929.26 1475.8 1929.26 1482.93 Q1929.26 1490.04 1931.06 1493.6 Q1932.89 1497.14 1936.5 1497.14 Q1940.14 1497.14 1941.94 1493.6 Q1943.77 1490.04 1943.77 1482.93 Q1943.77 1475.8 1941.94 1472.26 Q1940.14 1468.69 1936.5 1468.69 M1936.5 1464.99 Q1942.31 1464.99 1945.37 1469.6 Q1948.45 1474.18 1948.45 1482.93 Q1948.45 1491.66 1945.37 1496.26 Q1942.31 1500.85 1936.5 1500.85 Q1930.69 1500.85 1927.61 1496.26 Q1924.56 1491.66 1924.56 1482.93 Q1924.56 1474.18 1927.61 1469.6 Q1930.69 1464.99 1936.5 1464.99 Z" fill="#000000" fill-rule="evenodd" fill-opacity="1" /><path clip-path="url(#clip170)" d="M 0 0 M2254.19 1465.61 L2272.55 1465.61 L2272.55 1469.55 L2258.48 1469.55 L2258.48 1478.02 Q2259.5 1477.67 2260.51 1477.51 Q2261.53 1477.33 2262.55 1477.33 Q2268.34 1477.33 2271.72 1480.5 Q2275.1 1483.67 2275.1 1489.09 Q2275.1 1494.66 2271.62 1497.77 Q2268.15 1500.85 2261.83 1500.85 Q2259.66 1500.85 2257.39 1500.47 Q2255.14 1500.1 2252.74 1499.36 L2252.74 1494.66 Q2254.82 1495.8 2257.04 1496.35 Q2259.26 1496.91 2261.74 1496.91 Q2265.75 1496.91 2268.08 1494.8 Q2270.42 1492.7 2270.42 1489.09 Q2270.42 1485.47 2268.08 1483.37 Q2265.75 1481.26 2261.74 1481.26 Q2259.87 1481.26 2257.99 1481.68 Q2256.14 1482.1 2254.19 1482.97 L2254.19 1465.61 Z" fill="#000000" fill-rule="evenodd" fill-opacity="1" /><path clip-path="url(#clip170)" d="M 0 0 M2294.31 1468.69 Q2290.7 1468.69 2288.87 1472.26 Q2287.06 1475.8 2287.06 1482.93 Q2287.06 1490.04 2288.87 1493.6 Q2290.7 1497.14 2294.31 1497.14 Q2297.94 1497.14 2299.75 1493.6 Q2301.58 1490.04 2301.58 1482.93 Q2301.58 1475.8 2299.75 1472.26 Q2297.94 1468.69 2294.31 1468.69 M2294.31 1464.99 Q2300.12 1464.99 2303.18 1469.6 Q2306.25 1474.18 2306.25 1482.93 Q2306.25 1491.66 2303.18 1496.26 Q2300.12 1500.85 2294.31 1500.85 Q2288.5 1500.85 2285.42 1496.26 Q2282.37 1491.66 2282.37 1482.93 Q2282.37 1474.18 2285.42 1469.6 Q2288.5 1464.99 2294.31 1464.99 Z" fill="#000000" fill-rule="evenodd" fill-opacity="1" /><path clip-path="url(#clip170)" d="M 0 0 M2324.47 1468.69 Q2320.86 1468.69 2319.03 1472.26 Q2317.23 1475.8 2317.23 1482.93 Q2317.23 1490.04 2319.03 1493.6 Q2320.86 1497.14 2324.47 1497.14 Q2328.11 1497.14 2329.91 1493.6 Q2331.74 1490.04 2331.74 1482.93 Q2331.74 1475.8 2329.91 1472.26 Q2328.11 1468.69 2324.47 1468.69 M2324.47 1464.99 Q2330.28 1464.99 2333.34 1469.6 Q2336.42 1474.18 2336.42 1482.93 Q2336.42 1491.66 2333.34 1496.26 Q2330.28 1500.85 2324.47 1500.85 Q2318.66 1500.85 2315.58 1496.26 Q2312.53 1491.66 2312.53 1482.93 Q2312.53 1474.18 2315.58 1469.6 Q2318.66 1464.99 2324.47 1464.99 Z" fill="#000000" fill-rule="evenodd" fill-opacity="1" /><path clip-path="url(#clip170)" d="M 0 0 M1336.85 1535.75 Q1336.85 1541.16 1335.11 1547.24 Q1333.4 1553.3 1330.7 1558.19 Q1327.99 1563.06 1324.45 1566.28 Q1320.91 1569.47 1317.53 1569.47 Q1315.37 1569.47 1313.76 1568.27 Q1312.18 1567.05 1311.31 1565.02 Q1310.44 1562.96 1310.02 1560.71 Q1309.6 1558.42 1309.6 1555.94 Q1309.6 1552.24 1310.41 1548.21 Q1311.21 1544.15 1312.57 1540.48 Q1313.92 1536.78 1315.82 1533.43 Q1317.72 1530.05 1319.81 1527.6 Q1321.94 1525.12 1324.32 1523.67 Q1326.7 1522.22 1328.93 1522.22 Q1330.54 1522.22 1331.83 1522.93 Q1333.15 1523.6 1333.98 1524.8 Q1334.82 1525.96 1335.4 1527.34 Q1336.01 1528.73 1336.3 1530.34 Q1336.59 1531.91 1336.72 1533.23 Q1336.85 1534.52 1336.85 1535.75 M1332.5 1531.66 Q1332.5 1530.01 1332.37 1528.79 Q1332.24 1527.53 1331.89 1526.28 Q1331.54 1525.02 1330.76 1524.35 Q1330.02 1523.67 1328.86 1523.67 Q1325.48 1523.67 1321.68 1530.59 Q1320.46 1532.75 1319.36 1535.68 Q1318.27 1538.61 1317.88 1540 Q1317.49 1541.38 1316.59 1544.8 L1330.38 1544.8 Q1332.5 1536 1332.5 1531.66 M1329.8 1546.89 L1316.08 1546.89 Q1313.95 1554.94 1313.95 1559.96 Q1313.95 1564.34 1314.85 1566.18 Q1315.79 1567.98 1317.53 1567.98 Q1319.52 1567.98 1321.39 1565.99 Q1323.26 1563.96 1325.16 1560.29 Q1327.67 1555.52 1329.8 1546.89 Z" fill="#000000" fill-rule="evenodd" fill-opacity="1" /><polyline clip-path="url(#clip172)" style="stroke:#000000; stroke-width:2; stroke-opacity:0.1; fill:none" points="
  297.073,1405.27 2352.76,1405.27 
  "/>
<polyline clip-path="url(#clip172)" style="stroke:#000000; stroke-width:2; stroke-opacity:0.1; fill:none" points="
  297.073,957.827 2352.76,957.827 
  "/>
<polyline clip-path="url(#clip172)" style="stroke:#000000; stroke-width:2; stroke-opacity:0.1; fill:none" points="
  297.073,510.386 2352.76,510.386 
  "/>
<polyline clip-path="url(#clip172)" style="stroke:#000000; stroke-width:2; stroke-opacity:0.1; fill:none" points="
  297.073,62.9448 2352.76,62.9448 
  "/>
<polyline clip-path="url(#clip170)" style="stroke:#000000; stroke-width:4; stroke-opacity:1; fill:none" points="
  297.073,1439.5 297.073,47.2441 
  "/>
<polyline clip-path="url(#clip170)" style="stroke:#000000; stroke-width:4; stroke-opacity:1; fill:none" points="
  297.073,1405.27 321.741,1405.27 
  "/>
<polyline clip-path="url(#clip170)" style="stroke:#000000; stroke-width:4; stroke-opacity:1; fill:none" points="
  297.073,957.827 321.741,957.827 
  "/>
<polyline clip-path="url(#clip170)" style="stroke:#000000; stroke-width:4; stroke-opacity:1; fill:none" points="
  297.073,510.386 321.741,510.386 
  "/>
<polyline clip-path="url(#clip170)" style="stroke:#000000; stroke-width:4; stroke-opacity:1; fill:none" points="
  297.073,62.9448 321.741,62.9448 
  "/>
<path clip-path="url(#clip170)" d="M 0 0 M249.129 1391.07 Q245.518 1391.07 243.689 1394.63 Q241.883 1398.17 241.883 1405.3 Q241.883 1412.41 243.689 1415.97 Q245.518 1419.52 249.129 1419.52 Q252.763 1419.52 254.569 1415.97 Q256.397 1412.41 256.397 1405.3 Q256.397 1398.17 254.569 1394.63 Q252.763 1391.07 249.129 1391.07 M249.129 1387.36 Q254.939 1387.36 257.994 1391.97 Q261.073 1396.55 261.073 1405.3 Q261.073 1414.03 257.994 1418.64 Q254.939 1423.22 249.129 1423.22 Q243.319 1423.22 240.24 1418.64 Q237.184 1414.03 237.184 1405.3 Q237.184 1396.55 240.24 1391.97 Q243.319 1387.36 249.129 1387.36 Z" fill="#000000" fill-rule="evenodd" fill-opacity="1" /><path clip-path="url(#clip170)" d="M 0 0 M179.615 971.172 L187.254 971.172 L187.254 944.806 L178.944 946.473 L178.944 942.214 L187.208 940.547 L191.884 940.547 L191.884 971.172 L199.523 971.172 L199.523 975.107 L179.615 975.107 L179.615 971.172 Z" fill="#000000" fill-rule="evenodd" fill-opacity="1" /><path clip-path="url(#clip170)" d="M 0 0 M218.967 943.626 Q215.356 943.626 213.527 947.191 Q211.722 950.732 211.722 957.862 Q211.722 964.968 213.527 968.533 Q215.356 972.075 218.967 972.075 Q222.601 972.075 224.407 968.533 Q226.235 964.968 226.235 957.862 Q226.235 950.732 224.407 947.191 Q222.601 943.626 218.967 943.626 M218.967 939.922 Q224.777 939.922 227.833 944.528 Q230.911 949.112 230.911 957.862 Q230.911 966.589 227.833 971.195 Q224.777 975.778 218.967 975.778 Q213.157 975.778 210.078 971.195 Q207.023 966.589 207.023 957.862 Q207.023 949.112 210.078 944.528 Q213.157 939.922 218.967 939.922 Z" fill="#000000" fill-rule="evenodd" fill-opacity="1" /><path clip-path="url(#clip170)" d="M 0 0 M249.129 943.626 Q245.518 943.626 243.689 947.191 Q241.883 950.732 241.883 957.862 Q241.883 964.968 243.689 968.533 Q245.518 972.075 249.129 972.075 Q252.763 972.075 254.569 968.533 Q256.397 964.968 256.397 957.862 Q256.397 950.732 254.569 947.191 Q252.763 943.626 249.129 943.626 M249.129 939.922 Q254.939 939.922 257.994 944.528 Q261.073 949.112 261.073 957.862 Q261.073 966.589 257.994 971.195 Q254.939 975.778 249.129 975.778 Q243.319 975.778 240.24 971.195 Q237.184 966.589 237.184 957.862 Q237.184 949.112 240.24 944.528 Q243.319 939.922 249.129 939.922 Z" fill="#000000" fill-rule="evenodd" fill-opacity="1" /><path clip-path="url(#clip170)" d="M 0 0 M182.833 523.731 L199.152 523.731 L199.152 527.666 L177.208 527.666 L177.208 523.731 Q179.87 520.976 184.453 516.347 Q189.06 511.694 190.24 510.351 Q192.486 507.828 193.365 506.092 Q194.268 504.333 194.268 502.643 Q194.268 499.888 192.324 498.152 Q190.402 496.416 187.3 496.416 Q185.101 496.416 182.648 497.18 Q180.217 497.944 177.439 499.495 L177.439 494.773 Q180.263 493.638 182.717 493.06 Q185.171 492.481 187.208 492.481 Q192.578 492.481 195.773 495.166 Q198.967 497.851 198.967 502.342 Q198.967 504.472 198.157 506.393 Q197.37 508.291 195.263 510.884 Q194.685 511.555 191.583 514.772 Q188.481 517.967 182.833 523.731 Z" fill="#000000" fill-rule="evenodd" fill-opacity="1" /><path clip-path="url(#clip170)" d="M 0 0 M218.967 496.185 Q215.356 496.185 213.527 499.749 Q211.722 503.291 211.722 510.421 Q211.722 517.527 213.527 521.092 Q215.356 524.634 218.967 524.634 Q222.601 524.634 224.407 521.092 Q226.235 517.527 226.235 510.421 Q226.235 503.291 224.407 499.749 Q222.601 496.185 218.967 496.185 M218.967 492.481 Q224.777 492.481 227.833 497.087 Q230.911 501.671 230.911 510.421 Q230.911 519.147 227.833 523.754 Q224.777 528.337 218.967 528.337 Q213.157 528.337 210.078 523.754 Q207.023 519.147 207.023 510.421 Q207.023 501.671 210.078 497.087 Q213.157 492.481 218.967 492.481 Z" fill="#000000" fill-rule="evenodd" fill-opacity="1" /><path clip-path="url(#clip170)" d="M 0 0 M249.129 496.185 Q245.518 496.185 243.689 499.749 Q241.883 503.291 241.883 510.421 Q241.883 517.527 243.689 521.092 Q245.518 524.634 249.129 524.634 Q252.763 524.634 254.569 521.092 Q256.397 517.527 256.397 510.421 Q256.397 503.291 254.569 499.749 Q252.763 496.185 249.129 496.185 M249.129 492.481 Q254.939 492.481 257.994 497.087 Q261.073 501.671 261.073 510.421 Q261.073 519.147 257.994 523.754 Q254.939 528.337 249.129 528.337 Q243.319 528.337 240.24 523.754 Q237.184 519.147 237.184 510.421 Q237.184 501.671 240.24 497.087 Q243.319 492.481 249.129 492.481 Z" fill="#000000" fill-rule="evenodd" fill-opacity="1" /><path clip-path="url(#clip170)" d="M 0 0 M192.972 61.5906 Q196.328 62.3082 198.203 64.5767 Q200.101 66.8452 200.101 70.1786 Q200.101 75.2943 196.583 78.0952 Q193.064 80.8961 186.583 80.8961 Q184.407 80.8961 182.092 80.4563 Q179.8 80.0396 177.347 79.1831 L177.347 74.6693 Q179.291 75.8035 181.606 76.3822 Q183.921 76.9609 186.444 76.9609 Q190.842 76.9609 193.134 75.2248 Q195.449 73.4887 195.449 70.1786 Q195.449 67.123 193.296 65.4101 Q191.166 63.674 187.347 63.674 L183.319 63.674 L183.319 59.8314 L187.532 59.8314 Q190.981 59.8314 192.81 58.4657 Q194.638 57.0768 194.638 54.4842 Q194.638 51.8222 192.74 50.4101 Q190.865 48.975 187.347 48.975 Q185.425 48.975 183.226 49.3916 Q181.027 49.8083 178.388 50.6879 L178.388 46.5213 Q181.05 45.7805 183.365 45.4102 Q185.703 45.0398 187.763 45.0398 Q193.087 45.0398 196.189 47.4703 Q199.291 49.8777 199.291 53.9981 Q199.291 56.8684 197.648 58.8592 Q196.004 60.8268 192.972 61.5906 Z" fill="#000000" fill-rule="evenodd" fill-opacity="1" /><path clip-path="url(#clip170)" d="M 0 0 M218.967 48.7435 Q215.356 48.7435 213.527 52.3083 Q211.722 55.8499 211.722 62.9795 Q211.722 70.086 213.527 73.6508 Q215.356 77.1924 218.967 77.1924 Q222.601 77.1924 224.407 73.6508 Q226.235 70.086 226.235 62.9795 Q226.235 55.8499 224.407 52.3083 Q222.601 48.7435 218.967 48.7435 M218.967 45.0398 Q224.777 45.0398 227.833 49.6463 Q230.911 54.2296 230.911 62.9795 Q230.911 71.7063 227.833 76.3128 Q224.777 80.8961 218.967 80.8961 Q213.157 80.8961 210.078 76.3128 Q207.023 71.7063 207.023 62.9795 Q207.023 54.2296 210.078 49.6463 Q213.157 45.0398 218.967 45.0398 Z" fill="#000000" fill-rule="evenodd" fill-opacity="1" /><path clip-path="url(#clip170)" d="M 0 0 M249.129 48.7435 Q245.518 48.7435 243.689 52.3083 Q241.883 55.8499 241.883 62.9795 Q241.883 70.086 243.689 73.6508 Q245.518 77.1924 249.129 77.1924 Q252.763 77.1924 254.569 73.6508 Q256.397 70.086 256.397 62.9795 Q256.397 55.8499 254.569 52.3083 Q252.763 48.7435 249.129 48.7435 M249.129 45.0398 Q254.939 45.0398 257.994 49.6463 Q261.073 54.2296 261.073 62.9795 Q261.073 71.7063 257.994 76.3128 Q254.939 80.8961 249.129 80.8961 Q243.319 80.8961 240.24 76.3128 Q237.184 71.7063 237.184 62.9795 Q237.184 54.2296 240.24 49.6463 Q243.319 45.0398 249.129 45.0398 Z" fill="#000000" fill-rule="evenodd" fill-opacity="1" /><path clip-path="url(#clip170)" d="M 0 0 M95.3088 791.787 L111.734 797.455 L111.734 852.141 Q111.734 852.882 111.702 853.172 Q111.669 853.461 111.508 853.687 Q111.347 853.912 110.993 853.912 Q110.703 853.912 109.963 853.333 L81.0094 829.919 L47.9018 853.977 Q46.3881 853.977 46.0983 853.719 Q45.7762 853.461 45.7762 852.141 L45.7762 797.455 L61.2028 791.787 L61.2028 793.43 Q59.2061 794.17 57.5314 795.362 Q55.8245 796.521 54.6006 797.874 Q53.3768 799.195 52.4106 800.934 Q51.4123 802.641 50.8003 804.251 Q50.1562 805.829 49.7053 807.794 Q49.2223 809.758 48.9968 811.336 Q48.7392 812.882 48.6103 814.814 Q48.4815 816.747 48.4493 817.971 Q48.4171 819.194 48.4171 820.74 L48.4171 846.859 L77.8211 825.442 Q78.5618 824.959 78.755 824.959 Q79.0449 824.959 79.8178 825.571 L108.095 848.437 L108.095 820.418 Q108.095 811.401 106.194 805.12 Q104.745 800.869 101.879 797.778 Q99.0125 794.654 95.3088 793.43 L95.3088 791.787 Z" fill="#000000" fill-rule="evenodd" fill-opacity="1" /><path clip-path="url(#clip170)" d="M 0 0 M137.876 862.965 Q138.507 862.965 138.665 863.258 Q138.8 863.551 138.8 864.363 L138.8 868.691 L152.417 872.118 Q153.612 872.388 154.626 872.388 Q155.754 872.388 156.249 872.05 Q156.745 871.689 156.745 870.945 Q156.745 869.48 155.415 867.902 Q154.085 866.301 150.839 864.949 Q150.411 864.768 150.32 864.678 Q150.208 864.565 150.208 864.272 Q150.208 863.709 150.659 863.709 Q150.816 863.709 151.538 864.024 Q152.259 864.317 153.319 864.971 Q154.378 865.602 155.37 866.437 Q156.362 867.248 157.084 868.488 Q157.782 869.728 157.782 871.058 Q157.782 872.929 156.588 874.124 Q155.393 875.296 153.522 875.296 Q152.913 875.296 150.974 874.823 Q149.013 874.35 138.8 871.78 L138.8 875.86 Q138.8 876.424 138.778 876.649 Q138.755 876.852 138.643 877.01 Q138.507 877.145 138.237 877.145 Q137.808 877.145 137.628 876.965 Q137.425 876.784 137.403 876.559 Q137.358 876.311 137.358 875.747 L137.358 871.419 L130.031 869.615 Q129.309 869.435 128.903 868.984 Q128.475 868.511 128.43 868.24 Q128.362 867.97 128.362 867.767 Q128.362 867.158 128.701 866.797 Q129.016 866.437 129.602 866.437 Q129.918 866.437 137.358 868.33 L137.358 864.272 Q137.358 863.754 137.38 863.551 Q137.403 863.326 137.515 863.145 Q137.628 862.965 137.876 862.965 Z" fill="#000000" fill-rule="evenodd" fill-opacity="1" /><path clip-path="url(#clip170)" d="M 0 0 M150.253 847.832 Q149.689 847.787 149.689 846.908 L149.689 818.615 Q149.689 817.285 150.208 817.262 Q150.771 817.262 150.749 818.525 L150.749 846.592 Q150.771 847.832 150.253 847.832 M141.235 847.832 Q140.671 847.832 140.694 846.863 L140.694 818.66 Q140.694 817.285 141.235 817.262 Q141.754 817.262 141.754 818.435 L141.754 846.908 Q141.754 847.832 141.235 847.832 Z" fill="#000000" fill-rule="evenodd" fill-opacity="1" /><path clip-path="url(#clip170)" d="M 0 0 M130.91 799.45 L129.467 799.45 Q129.467 793.904 126.514 791.041 Q126.514 790.252 126.694 790.117 Q126.875 789.982 127.709 789.982 L153.612 789.982 Q154.987 789.982 155.415 789.305 Q155.844 788.629 155.844 785.676 L155.844 784.21 L157.264 784.21 Q157.129 785.834 157.129 791.695 Q157.129 797.557 157.264 799.157 L155.844 799.157 L155.844 797.692 Q155.844 794.784 155.438 794.085 Q155.01 793.386 153.612 793.386 L129.693 793.386 Q130.91 795.798 130.91 799.45 Z" fill="#000000" fill-rule="evenodd" fill-opacity="1" /><path clip-path="url(#clip170)" d="M 0 0 M-7.72057 808.814 Q-7.29223 808.814 -6.93153 808.904 L1.09417 810.167 Q1.70286 810.234 1.9283 810.37 Q2.15375 810.482 2.15375 810.843 Q2.15375 811.407 1.5676 811.407 Q1.22944 811.407 0.688379 811.271 Q-1.85911 810.888 -3.00885 810.888 Q-3.77535 810.888 -4.33896 811.046 Q-4.9251 811.181 -5.3309 811.407 Q-5.73669 811.61 -6.00722 812.083 Q-6.27775 812.556 -6.43556 813.007 Q-6.59337 813.458 -6.661 814.27 Q-6.75118 815.081 -6.77372 815.78 Q-6.79626 816.479 -6.79626 817.629 Q-6.79626 820.131 -6.70609 820.537 Q-6.59337 820.965 -6.25521 821.191 Q-5.93959 821.394 -4.99274 821.619 L19.5127 827.751 L20.4821 827.931 Q21.0232 827.931 21.2035 827.593 Q21.3839 827.255 21.4966 826.218 Q21.6093 824.73 21.6093 823.265 Q21.6093 823.22 21.6093 823.13 Q21.6093 822.634 21.6319 822.431 Q21.6319 822.228 21.6769 822.025 Q21.722 821.822 21.8347 821.777 Q21.9249 821.709 22.1053 821.709 Q22.5336 821.709 22.7591 821.89 Q22.962 822.07 23.007 822.25 Q23.0296 822.408 23.0296 822.724 Q23.0296 823.355 22.9845 824.708 Q22.9394 826.06 22.9394 826.737 L22.8943 830.569 L22.9394 834.492 Q22.9394 835.1 22.9845 836.385 Q23.0296 837.67 23.0296 838.279 Q23.0296 839.068 22.466 839.068 Q21.8347 839.068 21.722 838.775 Q21.6093 838.46 21.6093 837.129 Q21.6093 835.258 21.5191 834.244 Q21.429 833.229 21.1133 832.688 Q20.7977 832.125 20.4821 831.967 Q20.1439 831.809 19.3774 831.629 L-5.26326 825.429 Q-5.80432 825.249 -6.23266 825.249 Q-6.4581 825.249 -6.54828 825.316 Q-6.63845 825.361 -6.70609 825.654 Q-6.79626 825.948 -6.79626 826.556 L-6.79626 828.36 Q-6.79626 830.208 -6.70609 831.358 Q-6.63845 832.485 -6.30029 833.567 Q-5.96213 834.627 -5.48871 835.258 Q-5.01528 835.867 -4.04588 836.543 Q-3.07649 837.22 -1.90419 837.716 Q-0.7319 838.189 1.18435 838.865 Q1.81558 839.091 1.99594 839.226 Q2.15375 839.339 2.15375 839.654 Q2.15375 839.88 2.01848 840.06 Q1.86067 840.218 1.65777 840.218 Q0.91382 839.993 0.823643 839.947 L-7.31478 837.175 Q-7.96856 836.949 -8.08128 836.746 Q-8.21654 836.521 -8.21654 835.687 L-8.21654 810.077 Q-8.21654 809.671 -8.21654 809.535 Q-8.21654 809.4 -8.17145 809.175 Q-8.12637 808.949 -8.01365 808.882 Q-7.90092 808.814 -7.72057 808.814 Z" fill="#000000" fill-rule="evenodd" fill-opacity="1" /><path clip-path="url(#clip170)" d="M 0 0 M58.1477 730.818 L59.072 731.381 Q57.5616 734.875 55.1494 739.226 Q57.5616 743.577 59.072 747.072 L58.1477 747.613 Q54.8338 743.803 52.2863 739.226 Q54.8563 734.605 58.1477 730.818 Z" fill="#000000" fill-rule="evenodd" fill-opacity="1" /><path clip-path="url(#clip170)" d="M 0 0 M70.4459 729.655 Q72.2494 729.655 73.28 730.783 Q74.2784 731.91 74.2784 733.198 Q74.2784 734.422 73.5699 735.066 Q72.8614 735.71 71.9596 735.71 Q70.7358 735.71 69.673 734.808 Q68.6102 733.907 68.3847 732.554 Q67.5474 733.874 67.5474 735.839 Q67.5474 737.127 68.2237 738.254 Q68.9 739.349 69.7696 740.026 Q70.6392 740.67 71.8952 741.25 Q73.119 741.797 73.8597 742.023 Q74.5683 742.216 75.3412 742.377 L84.3588 744.631 Q88.6422 745.726 90.1559 745.726 Q92.0238 745.726 93.2799 744.824 Q94.5037 743.923 94.5037 742.119 Q94.5037 741.411 94.3105 740.605 Q94.085 739.8 93.5053 738.77 Q92.8934 737.707 91.9916 736.773 Q91.0577 735.807 89.4796 734.873 Q87.9015 733.939 85.8725 733.327 Q85.164 733.134 85.164 732.49 Q85.164 731.684 85.8081 731.684 Q86.3556 731.684 87.515 732.135 Q88.6422 732.554 90.1237 733.488 Q91.573 734.39 92.8934 735.581 Q94.1816 736.773 95.0834 738.544 Q95.9852 740.316 95.9852 742.248 Q95.9852 745.018 94.5037 746.853 Q93.0222 748.689 90.961 749.365 Q91.2509 749.526 91.6374 749.752 Q92.0238 749.977 92.8934 750.654 Q93.7308 751.298 94.3749 752.039 Q94.9868 752.779 95.4699 753.939 Q95.9852 755.066 95.9852 756.29 Q95.9852 757.836 95.5343 759.22 Q95.0834 760.573 94.0528 761.539 Q93.0222 762.505 91.6052 762.505 Q90.0271 762.505 88.9321 761.443 Q87.8049 760.348 87.8049 758.866 Q87.8049 757.932 88.3524 757.191 Q88.8999 756.419 90.0915 756.419 Q91.4119 756.419 92.4103 757.32 Q93.4087 758.222 93.6663 759.51 Q94.5037 758.19 94.5037 756.225 Q94.5037 754.1 92.6358 752.425 Q90.7678 750.75 87.6438 749.945 Q80.1399 747.948 76.7905 747.175 Q73.4089 746.403 71.9596 746.403 Q70.6069 746.403 69.673 746.757 Q68.739 747.111 68.3203 747.723 Q67.8694 748.303 67.7084 748.85 Q67.5474 749.365 67.5474 749.945 Q67.5474 750.911 67.9339 752.006 Q68.3203 753.069 69.2221 754.357 Q70.0917 755.613 71.8952 756.805 Q73.6987 757.997 76.1786 758.802 Q76.9193 758.963 76.9193 759.671 Q76.8871 760.444 76.243 760.444 Q75.6955 760.444 74.5683 760.026 Q73.4089 759.575 71.9596 758.673 Q70.5103 757.739 69.2221 756.547 Q67.9017 755.324 66.9999 753.552 Q66.0981 751.749 66.0981 749.816 Q66.0981 748.947 66.2914 748.109 Q66.4524 747.24 66.9355 746.209 Q67.4186 745.146 68.4814 744.213 Q69.5442 743.279 71.09 742.699 Q70.3493 742.312 69.6408 741.797 Q68.9322 741.25 68.0627 740.412 Q67.1609 739.543 66.6456 738.351 Q66.0981 737.127 66.0981 735.775 Q66.0981 734.454 66.4524 733.166 Q66.7744 731.878 67.8372 730.783 Q68.8678 729.655 70.4459 729.655 Z" fill="#000000" fill-rule="evenodd" fill-opacity="1" /><path clip-path="url(#clip170)" d="M 0 0 M93.7649 703.932 Q94.3962 703.932 94.554 704.225 Q94.6892 704.518 94.6892 705.33 L94.6892 709.658 L108.306 713.085 Q109.501 713.356 110.515 713.356 Q111.642 713.356 112.138 713.017 Q112.634 712.657 112.634 711.913 Q112.634 710.447 111.304 708.869 Q109.974 707.269 106.728 705.916 Q106.299 705.736 106.209 705.645 Q106.097 705.533 106.097 705.24 Q106.097 704.676 106.547 704.676 Q106.705 704.676 107.427 704.992 Q108.148 705.285 109.208 705.939 Q110.267 706.57 111.259 707.404 Q112.251 708.215 112.973 709.455 Q113.671 710.695 113.671 712.025 Q113.671 713.897 112.477 715.091 Q111.282 716.264 109.411 716.264 Q108.802 716.264 106.863 715.79 Q104.902 715.317 94.6892 712.747 L94.6892 716.827 Q94.6892 717.391 94.6667 717.616 Q94.6442 717.819 94.5314 717.977 Q94.3962 718.112 94.1256 718.112 Q93.6973 718.112 93.517 717.932 Q93.3141 717.752 93.2915 717.526 Q93.2464 717.278 93.2464 716.715 L93.2464 712.386 L85.9196 710.583 Q85.1982 710.402 84.7924 709.951 Q84.364 709.478 84.319 709.207 Q84.2513 708.937 84.2513 708.734 Q84.2513 708.125 84.5895 707.765 Q84.9051 707.404 85.4913 707.404 Q85.8069 707.404 93.2464 709.298 L93.2464 705.24 Q93.2464 704.721 93.269 704.518 Q93.2915 704.293 93.4042 704.112 Q93.517 703.932 93.7649 703.932 Z" fill="#000000" fill-rule="evenodd" fill-opacity="1" /><path clip-path="url(#clip170)" d="M 0 0 M78.755 694.571 Q67.6118 694.571 58.6264 690.417 Q54.8583 688.645 51.7021 686.166 Q48.5459 683.686 47.1611 682.043 Q45.7762 680.401 45.7762 679.95 Q45.7762 679.306 46.4203 679.273 Q46.7424 679.273 47.5475 680.143 Q58.3687 690.771 78.755 690.739 Q99.2057 690.739 109.608 680.401 Q110.735 679.273 111.09 679.273 Q111.734 679.273 111.734 679.95 Q111.734 680.401 110.413 681.979 Q109.093 683.557 106.066 686.004 Q103.038 688.452 99.3346 690.223 Q90.3491 694.571 78.755 694.571 Z" fill="#000000" fill-rule="evenodd" fill-opacity="1" /><path clip-path="url(#clip170)" d="M 0 0 M59.045 669.244 Q53.3768 669.244 49.5765 666.345 Q45.7762 663.447 45.7762 659.55 Q45.7762 657.167 47.9018 654.816 Q52.9903 649.469 52.9581 642.481 Q52.9581 634.558 46.7102 629.953 Q45.7762 629.148 45.7762 628.568 Q45.7762 628.053 46.1949 627.666 Q46.5814 627.247 47.0967 627.247 Q47.4831 627.247 48.2883 627.763 L97.9497 661.128 Q98.9481 661.869 98.9481 662.448 Q98.9481 662.964 98.5294 663.382 Q98.143 663.769 97.6277 663.769 Q97.1768 663.769 96.3072 663.189 L52.1852 633.56 L52.1208 633.624 Q54.4396 637.038 54.4074 642.416 Q54.4074 647.505 51.6377 652.368 Q55.0515 650.983 59.1095 650.983 Q64.6489 650.983 68.5136 653.463 Q72.3461 655.943 72.3461 659.55 Q72.3461 663.447 68.6102 666.345 Q64.8421 669.244 59.045 669.244 M53.6667 664.703 Q55.9855 665.154 59.1095 665.154 Q62.2012 665.154 64.52 664.703 Q66.8067 664.252 67.9983 663.608 Q69.1899 662.931 69.8984 662.03 Q70.5747 661.128 70.7358 660.58 Q70.8968 660.033 70.8968 659.485 Q70.8968 656.78 67.5474 654.719 Q64.1658 652.626 59.045 652.626 Q54.0209 652.626 50.6393 654.719 Q47.2255 656.78 47.2255 659.485 Q47.2255 660.065 47.3865 660.645 Q47.5475 661.192 48.2561 662.062 Q48.9324 662.931 50.124 663.608 Q51.3156 664.252 53.6667 664.703 M85.6149 640.033 Q79.9466 640.033 76.1464 637.135 Q72.3461 634.236 72.3461 630.339 Q72.3461 626.764 76.2108 624.284 Q80.0755 621.772 85.6793 621.772 Q91.2187 621.772 95.0834 624.252 Q98.9481 626.7 98.9481 630.339 Q98.9481 634.236 95.18 637.135 Q91.4119 640.033 85.6149 640.033 M80.2365 635.492 Q82.5875 635.943 85.6793 635.943 Q88.7711 635.943 91.0899 635.492 Q93.4087 635.009 94.6003 634.365 Q95.7597 633.689 96.436 632.819 Q97.1446 631.917 97.3056 631.37 Q97.4988 630.79 97.4988 630.275 Q97.4988 627.569 94.1494 625.508 Q90.7678 623.415 85.6149 623.415 Q80.5908 623.415 77.2091 625.508 Q73.7953 627.569 73.7953 630.275 Q73.7953 630.854 73.9886 631.434 Q74.1496 631.982 74.8581 632.851 Q75.5344 633.689 76.7261 634.365 Q77.8855 635.009 80.2365 635.492 Z" fill="#000000" fill-rule="evenodd" fill-opacity="1" /><path clip-path="url(#clip170)" d="M 0 0 M111.09 614.857 Q110.768 614.857 109.963 614.02 Q99.1413 603.392 78.755 603.392 Q58.3043 603.392 47.9662 613.601 Q46.7746 614.857 46.4203 614.857 Q45.7762 614.857 45.7762 614.213 Q45.7762 613.762 47.0967 612.184 Q48.4171 610.574 51.4445 608.158 Q54.4718 605.71 58.1755 603.907 Q67.1609 599.559 78.755 599.559 Q89.8983 599.559 98.8837 603.714 Q102.652 605.485 105.808 607.965 Q108.964 610.445 110.349 612.087 Q111.734 613.73 111.734 614.213 Q111.734 614.857 111.09 614.857 Z" fill="#000000" fill-rule="evenodd" fill-opacity="1" /><polyline clip-path="url(#clip172)" style="stroke:#0000ff; stroke-width:4; stroke-opacity:1; fill:none" points="
  355.253,1400.1 570.733,1394.34 786.214,1390.13 1001.69,1385.39 1217.17,1380.95 1432.65,1377.09 1648.14,1373.8 1863.62,1370.98 2079.1,1368.57 2294.58,1366.47 
  
  "/>
<polyline clip-path="url(#clip172)" style="stroke:#3300cc; stroke-width:4; stroke-opacity:1; fill:none" points="
  355.253,1398.7 570.733,1385.08 786.214,1376.53 1001.69,1366.97 1217.17,1357.96 1432.65,1350.07 1648.14,1343.31 1863.62,1337.51 2079.1,1332.53 2294.58,1328.2 
  
  "/>
<polyline clip-path="url(#clip172)" style="stroke:#660099; stroke-width:4; stroke-opacity:1; fill:none" points="
  355.253,1397.94 570.733,1369.64 786.214,1352.46 1001.69,1333.22 1217.17,1314.92 1432.65,1298.81 1648.14,1284.94 1863.62,1273.04 2079.1,1262.77 2294.58,1253.84 
  
  "/>
<polyline clip-path="url(#clip172)" style="stroke:#990066; stroke-width:4; stroke-opacity:1; fill:none" points="
  355.253,1396.98 570.733,1335.5 786.214,1293.56 1001.69,1245.8 1217.17,1200.32 1432.65,1160.3 1648.14,1125.87 1863.62,1096.33 2079.1,1070.87 2294.58,1048.76 
  
  "/>
<polyline clip-path="url(#clip172)" style="stroke:#cc0033; stroke-width:4; stroke-opacity:1; fill:none" points="
  355.253,1396.02 570.733,1295.71 786.214,1213.62 1001.69,1120.14 1217.17,1033.08 1432.65,957.66 1648.14,893.482 1863.62,838.852 2079.1,792.035 2294.58,751.56 
  
  "/>
<polyline clip-path="url(#clip172)" style="stroke:#ff0000; stroke-width:4; stroke-opacity:1; fill:none" points="
  355.253,1394.25 570.733,1196.8 786.214,988.154 1001.69,781.712 1217.17,605.777 1432.65,460.903 1648.14,341.53 1863.62,242.128 2079.1,158.281 2294.58,86.6476 
  
  "/>
<path clip-path="url(#clip170)" d="
M365.596 517.013 L732.801 517.013 L732.801 93.6527 L365.596 93.6527  Z
  " fill="#ffffff" fill-rule="evenodd" fill-opacity="1"/>
<polyline clip-path="url(#clip170)" style="stroke:#000000; stroke-width:4; stroke-opacity:1; fill:none" points="
  365.596,517.013 732.801,517.013 732.801,93.6527 365.596,93.6527 365.596,517.013 
  "/>
<polyline clip-path="url(#clip170)" style="stroke:#0000ff; stroke-width:4; stroke-opacity:1; fill:none" points="
  388.437,154.133 525.482,154.133 
  "/>
<path clip-path="url(#clip170)" d="M 0 0 M580.951 138.255 Q580.951 138.7 580.857 139.075 L579.545 147.413 Q579.475 148.045 579.335 148.28 Q579.217 148.514 578.843 148.514 Q578.257 148.514 578.257 147.905 Q578.257 147.553 578.398 146.991 Q578.796 144.345 578.796 143.15 Q578.796 142.354 578.632 141.768 Q578.491 141.159 578.257 140.738 Q578.046 140.316 577.554 140.035 Q577.063 139.754 576.594 139.59 Q576.126 139.426 575.283 139.356 Q574.439 139.262 573.713 139.239 Q572.987 139.215 571.793 139.215 Q569.193 139.215 568.771 139.309 Q568.326 139.426 568.092 139.777 Q567.881 140.105 567.647 141.089 L561.276 166.549 L561.089 167.556 Q561.089 168.118 561.44 168.306 Q561.791 168.493 562.869 168.61 Q564.414 168.727 565.937 168.727 Q565.984 168.727 566.077 168.727 Q566.593 168.727 566.804 168.751 Q567.014 168.751 567.225 168.798 Q567.436 168.844 567.483 168.962 Q567.553 169.055 567.553 169.243 Q567.553 169.688 567.366 169.922 Q567.178 170.133 566.991 170.18 Q566.827 170.203 566.499 170.203 Q565.843 170.203 564.438 170.156 Q563.033 170.109 562.33 170.109 L558.348 170.062 L554.273 170.109 Q553.64 170.109 552.305 170.156 Q550.97 170.203 550.338 170.203 Q549.518 170.203 549.518 169.617 Q549.518 168.962 549.822 168.844 Q550.15 168.727 551.532 168.727 Q553.476 168.727 554.53 168.634 Q555.584 168.54 556.146 168.212 Q556.732 167.884 556.896 167.556 Q557.06 167.205 557.247 166.409 L563.688 140.808 Q563.876 140.246 563.876 139.801 Q563.876 139.566 563.806 139.473 Q563.759 139.379 563.454 139.309 Q563.15 139.215 562.517 139.215 L560.643 139.215 Q558.723 139.215 557.528 139.309 Q556.357 139.379 555.233 139.73 Q554.132 140.082 553.476 140.574 Q552.844 141.065 552.141 142.073 Q551.438 143.08 550.923 144.298 Q550.431 145.516 549.729 147.507 Q549.494 148.162 549.354 148.35 Q549.237 148.514 548.909 148.514 Q548.675 148.514 548.487 148.373 Q548.323 148.209 548.323 147.999 Q548.557 147.226 548.604 147.132 L551.485 138.676 Q551.72 137.997 551.93 137.88 Q552.165 137.739 553.031 137.739 L579.639 137.739 Q580.061 137.739 580.201 137.739 Q580.342 137.739 580.576 137.786 Q580.81 137.833 580.88 137.95 Q580.951 138.067 580.951 138.255 Z" fill="#000000" fill-rule="evenodd" fill-opacity="1" /><path clip-path="url(#clip170)" d="M 0 0 M589.367 162.919 Q589.414 162.333 590.328 162.333 L619.723 162.333 Q621.105 162.333 621.128 162.872 Q621.128 163.457 619.816 163.434 L590.655 163.434 Q589.367 163.457 589.367 162.919 M589.367 153.55 Q589.367 152.964 590.374 152.988 L619.676 152.988 Q621.105 152.988 621.128 153.55 Q621.128 154.088 619.91 154.088 L590.328 154.088 Q589.367 154.088 589.367 153.55 Z" fill="#000000" fill-rule="evenodd" fill-opacity="1" /><path clip-path="url(#clip170)" d="M 0 0 M639.619 142.822 L639.619 141.323 Q645.381 141.323 648.356 138.255 Q649.175 138.255 649.316 138.442 Q649.456 138.63 649.456 139.496 L649.456 166.409 Q649.456 167.837 650.159 168.282 Q650.862 168.727 653.93 168.727 L655.453 168.727 L655.453 170.203 Q653.766 170.062 647.676 170.062 Q641.586 170.062 639.923 170.203 L639.923 168.727 L641.446 168.727 Q644.467 168.727 645.193 168.306 Q645.92 167.861 645.92 166.409 L645.92 141.557 Q643.413 142.822 639.619 142.822 Z" fill="#000000" fill-rule="evenodd" fill-opacity="1" /><polyline clip-path="url(#clip170)" style="stroke:#3300cc; stroke-width:4; stroke-opacity:1; fill:none" points="
  388.437,214.613 525.482,214.613 
  "/>
<path clip-path="url(#clip170)" d="M 0 0 M580.951 198.735 Q580.951 199.18 580.857 199.555 L579.545 207.893 Q579.475 208.525 579.335 208.76 Q579.217 208.994 578.843 208.994 Q578.257 208.994 578.257 208.385 Q578.257 208.033 578.398 207.471 Q578.796 204.825 578.796 203.63 Q578.796 202.834 578.632 202.248 Q578.491 201.639 578.257 201.218 Q578.046 200.796 577.554 200.515 Q577.063 200.234 576.594 200.07 Q576.126 199.906 575.283 199.836 Q574.439 199.742 573.713 199.719 Q572.987 199.695 571.793 199.695 Q569.193 199.695 568.771 199.789 Q568.326 199.906 568.092 200.257 Q567.881 200.585 567.647 201.569 L561.276 227.029 L561.089 228.036 Q561.089 228.598 561.44 228.786 Q561.791 228.973 562.869 229.09 Q564.414 229.207 565.937 229.207 Q565.984 229.207 566.077 229.207 Q566.593 229.207 566.804 229.231 Q567.014 229.231 567.225 229.278 Q567.436 229.324 567.483 229.442 Q567.553 229.535 567.553 229.723 Q567.553 230.168 567.366 230.402 Q567.178 230.613 566.991 230.66 Q566.827 230.683 566.499 230.683 Q565.843 230.683 564.438 230.636 Q563.033 230.589 562.33 230.589 L558.348 230.542 L554.273 230.589 Q553.64 230.589 552.305 230.636 Q550.97 230.683 550.338 230.683 Q549.518 230.683 549.518 230.097 Q549.518 229.442 549.822 229.324 Q550.15 229.207 551.532 229.207 Q553.476 229.207 554.53 229.114 Q555.584 229.02 556.146 228.692 Q556.732 228.364 556.896 228.036 Q557.06 227.685 557.247 226.889 L563.688 201.288 Q563.876 200.726 563.876 200.281 Q563.876 200.046 563.806 199.953 Q563.759 199.859 563.454 199.789 Q563.15 199.695 562.517 199.695 L560.643 199.695 Q558.723 199.695 557.528 199.789 Q556.357 199.859 555.233 200.21 Q554.132 200.562 553.476 201.054 Q552.844 201.545 552.141 202.553 Q551.438 203.56 550.923 204.778 Q550.431 205.996 549.729 207.987 Q549.494 208.642 549.354 208.83 Q549.237 208.994 548.909 208.994 Q548.675 208.994 548.487 208.853 Q548.323 208.689 548.323 208.479 Q548.557 207.706 548.604 207.612 L551.485 199.156 Q551.72 198.477 551.93 198.36 Q552.165 198.219 553.031 198.219 L579.639 198.219 Q580.061 198.219 580.201 198.219 Q580.342 198.219 580.576 198.266 Q580.81 198.313 580.88 198.43 Q580.951 198.547 580.951 198.735 Z" fill="#000000" fill-rule="evenodd" fill-opacity="1" /><path clip-path="url(#clip170)" d="M 0 0 M589.367 223.399 Q589.414 222.813 590.328 222.813 L619.723 222.813 Q621.105 222.813 621.128 223.352 Q621.128 223.937 619.816 223.914 L590.655 223.914 Q589.367 223.937 589.367 223.399 M589.367 214.03 Q589.367 213.444 590.374 213.468 L619.676 213.468 Q621.105 213.468 621.128 214.03 Q621.128 214.568 619.91 214.568 L590.328 214.568 Q589.367 214.568 589.367 214.03 Z" fill="#000000" fill-rule="evenodd" fill-opacity="1" /><path clip-path="url(#clip170)" d="M 0 0 M639.619 230.683 Q639.619 229.816 639.689 229.559 Q639.783 229.301 640.158 228.903 L649.363 218.644 Q654.399 212.976 654.399 208.033 Q654.399 204.825 652.712 202.529 Q651.049 200.234 647.981 200.234 Q645.873 200.234 644.093 201.522 Q642.313 202.81 641.493 205.106 Q641.633 205.059 642.125 205.059 Q643.32 205.059 643.976 205.808 Q644.655 206.558 644.655 207.565 Q644.655 208.853 643.812 209.486 Q642.992 210.095 642.172 210.095 Q641.844 210.095 641.399 210.024 Q640.977 209.954 640.298 209.298 Q639.619 208.619 639.619 207.425 Q639.619 204.075 642.149 201.405 Q644.702 198.735 648.59 198.735 Q652.993 198.735 655.874 201.358 Q658.779 203.958 658.779 208.033 Q658.779 209.462 658.333 210.774 Q657.912 212.062 657.326 213.069 Q656.764 214.076 655.218 215.693 Q653.672 217.309 652.431 218.456 Q651.19 219.604 648.402 222.04 L643.32 226.982 L651.963 226.982 Q656.179 226.982 656.507 226.607 Q656.975 225.928 657.561 222.345 L658.779 222.345 L657.42 230.683 L639.619 230.683 Z" fill="#000000" fill-rule="evenodd" fill-opacity="1" /><polyline clip-path="url(#clip170)" style="stroke:#660099; stroke-width:4; stroke-opacity:1; fill:none" points="
  388.437,275.093 525.482,275.093 
  "/>
<path clip-path="url(#clip170)" d="M 0 0 M580.951 259.23 Q580.951 259.675 580.857 260.05 L579.545 268.389 Q579.475 269.021 579.335 269.255 Q579.217 269.489 578.843 269.489 Q578.257 269.489 578.257 268.88 Q578.257 268.529 578.398 267.967 Q578.796 265.32 578.796 264.126 Q578.796 263.329 578.632 262.744 Q578.491 262.135 578.257 261.713 Q578.046 261.292 577.554 261.011 Q577.063 260.729 576.594 260.565 Q576.126 260.402 575.283 260.331 Q574.439 260.238 573.713 260.214 Q572.987 260.191 571.793 260.191 Q569.193 260.191 568.771 260.284 Q568.326 260.402 568.092 260.753 Q567.881 261.081 567.647 262.065 L561.276 287.525 L561.089 288.532 Q561.089 289.094 561.44 289.281 Q561.791 289.469 562.869 289.586 Q564.414 289.703 565.937 289.703 Q565.984 289.703 566.077 289.703 Q566.593 289.703 566.804 289.726 Q567.014 289.726 567.225 289.773 Q567.436 289.82 567.483 289.937 Q567.553 290.031 567.553 290.218 Q567.553 290.663 567.366 290.898 Q567.178 291.108 566.991 291.155 Q566.827 291.179 566.499 291.179 Q565.843 291.179 564.438 291.132 Q563.033 291.085 562.33 291.085 L558.348 291.038 L554.273 291.085 Q553.64 291.085 552.305 291.132 Q550.97 291.179 550.338 291.179 Q549.518 291.179 549.518 290.593 Q549.518 289.937 549.822 289.82 Q550.15 289.703 551.532 289.703 Q553.476 289.703 554.53 289.609 Q555.584 289.516 556.146 289.188 Q556.732 288.86 556.896 288.532 Q557.06 288.181 557.247 287.384 L563.688 261.783 Q563.876 261.221 563.876 260.776 Q563.876 260.542 563.806 260.448 Q563.759 260.355 563.454 260.284 Q563.15 260.191 562.517 260.191 L560.643 260.191 Q558.723 260.191 557.528 260.284 Q556.357 260.355 555.233 260.706 Q554.132 261.057 553.476 261.549 Q552.844 262.041 552.141 263.048 Q551.438 264.055 550.923 265.273 Q550.431 266.491 549.729 268.482 Q549.494 269.138 549.354 269.325 Q549.237 269.489 548.909 269.489 Q548.675 269.489 548.487 269.349 Q548.323 269.185 548.323 268.974 Q548.557 268.201 548.604 268.108 L551.485 259.652 Q551.72 258.973 551.93 258.856 Q552.165 258.715 553.031 258.715 L579.639 258.715 Q580.061 258.715 580.201 258.715 Q580.342 258.715 580.576 258.762 Q580.81 258.809 580.88 258.926 Q580.951 259.043 580.951 259.23 Z" fill="#000000" fill-rule="evenodd" fill-opacity="1" /><path clip-path="url(#clip170)" d="M 0 0 M589.367 283.894 Q589.414 283.309 590.328 283.309 L619.723 283.309 Q621.105 283.309 621.128 283.847 Q621.128 284.433 619.816 284.41 L590.655 284.41 Q589.367 284.433 589.367 283.894 M589.367 274.525 Q589.367 273.94 590.374 273.963 L619.676 273.963 Q621.105 273.963 621.128 274.525 Q621.128 275.064 619.91 275.064 L590.328 275.064 Q589.367 275.064 589.367 274.525 Z" fill="#000000" fill-rule="evenodd" fill-opacity="1" /><path clip-path="url(#clip170)" d="M 0 0 M639.619 283.262 L639.619 281.786 L654.352 259.277 Q654.726 258.692 655.312 258.715 Q655.851 258.715 655.968 258.926 Q656.085 259.137 656.085 259.957 L656.085 281.786 L660.887 281.786 L660.887 283.262 L656.085 283.262 L656.085 287.431 Q656.085 288.813 656.647 289.258 Q657.233 289.703 659.715 289.703 L660.723 289.703 L660.723 291.179 Q658.755 291.038 654.211 291.038 Q649.691 291.038 647.723 291.179 L647.723 289.703 L648.73 289.703 Q651.213 289.703 651.799 289.281 Q652.384 288.836 652.384 287.431 L652.384 283.262 L639.619 283.262 M640.977 281.786 L652.665 281.786 L652.665 263.891 L640.977 281.786 Z" fill="#000000" fill-rule="evenodd" fill-opacity="1" /><polyline clip-path="url(#clip170)" style="stroke:#990066; stroke-width:4; stroke-opacity:1; fill:none" points="
  388.437,335.573 525.482,335.573 
  "/>
<path clip-path="url(#clip170)" d="M 0 0 M580.951 319.171 Q580.951 319.616 580.857 319.991 L579.545 328.33 Q579.475 328.962 579.335 329.196 Q579.217 329.43 578.843 329.43 Q578.257 329.43 578.257 328.821 Q578.257 328.47 578.398 327.908 Q578.796 325.261 578.796 324.067 Q578.796 323.27 578.632 322.685 Q578.491 322.076 578.257 321.654 Q578.046 321.233 577.554 320.951 Q577.063 320.67 576.594 320.506 Q576.126 320.342 575.283 320.272 Q574.439 320.179 573.713 320.155 Q572.987 320.132 571.793 320.132 Q569.193 320.132 568.771 320.225 Q568.326 320.342 568.092 320.694 Q567.881 321.022 567.647 322.005 L561.276 347.466 L561.089 348.473 Q561.089 349.035 561.44 349.222 Q561.791 349.41 562.869 349.527 Q564.414 349.644 565.937 349.644 Q565.984 349.644 566.077 349.644 Q566.593 349.644 566.804 349.667 Q567.014 349.667 567.225 349.714 Q567.436 349.761 567.483 349.878 Q567.553 349.972 567.553 350.159 Q567.553 350.604 567.366 350.838 Q567.178 351.049 566.991 351.096 Q566.827 351.12 566.499 351.12 Q565.843 351.12 564.438 351.073 Q563.033 351.026 562.33 351.026 L558.348 350.979 L554.273 351.026 Q553.64 351.026 552.305 351.073 Q550.97 351.12 550.338 351.12 Q549.518 351.12 549.518 350.534 Q549.518 349.878 549.822 349.761 Q550.15 349.644 551.532 349.644 Q553.476 349.644 554.53 349.55 Q555.584 349.457 556.146 349.129 Q556.732 348.801 556.896 348.473 Q557.06 348.121 557.247 347.325 L563.688 321.724 Q563.876 321.162 563.876 320.717 Q563.876 320.483 563.806 320.389 Q563.759 320.296 563.454 320.225 Q563.15 320.132 562.517 320.132 L560.643 320.132 Q558.723 320.132 557.528 320.225 Q556.357 320.296 555.233 320.647 Q554.132 320.998 553.476 321.49 Q552.844 321.982 552.141 322.989 Q551.438 323.996 550.923 325.214 Q550.431 326.432 549.729 328.423 Q549.494 329.079 549.354 329.266 Q549.237 329.43 548.909 329.43 Q548.675 329.43 548.487 329.29 Q548.323 329.126 548.323 328.915 Q548.557 328.142 548.604 328.048 L551.485 319.593 Q551.72 318.914 551.93 318.797 Q552.165 318.656 553.031 318.656 L579.639 318.656 Q580.061 318.656 580.201 318.656 Q580.342 318.656 580.576 318.703 Q580.81 318.75 580.88 318.867 Q580.951 318.984 580.951 319.171 Z" fill="#000000" fill-rule="evenodd" fill-opacity="1" /><path clip-path="url(#clip170)" d="M 0 0 M589.367 343.835 Q589.414 343.25 590.328 343.25 L619.723 343.25 Q621.105 343.25 621.128 343.788 Q621.128 344.374 619.816 344.35 L590.655 344.35 Q589.367 344.374 589.367 343.835 M589.367 334.466 Q589.367 333.881 590.374 333.904 L619.676 333.904 Q621.105 333.904 621.128 334.466 Q621.128 335.005 619.91 335.005 L590.328 335.005 Q589.367 335.005 589.367 334.466 Z" fill="#000000" fill-rule="evenodd" fill-opacity="1" /><path clip-path="url(#clip170)" d="M 0 0 M639.619 323.739 L639.619 322.24 Q645.381 322.24 648.356 319.171 Q649.175 319.171 649.316 319.359 Q649.456 319.546 649.456 320.413 L649.456 347.325 Q649.456 348.754 650.159 349.199 Q650.862 349.644 653.93 349.644 L655.453 349.644 L655.453 351.12 Q653.766 350.979 647.676 350.979 Q641.586 350.979 639.923 351.12 L639.923 349.644 L641.446 349.644 Q644.467 349.644 645.193 349.222 Q645.92 348.777 645.92 347.325 L645.92 322.474 Q643.413 323.739 639.619 323.739 Z" fill="#000000" fill-rule="evenodd" fill-opacity="1" /><path clip-path="url(#clip170)" d="M 0 0 M659.494 335.778 Q659.494 328.728 661.274 324.886 Q663.757 319.171 669.612 319.171 Q670.854 319.171 672.142 319.523 Q673.454 319.851 675.093 321.139 Q676.756 322.427 677.763 324.535 Q679.684 328.611 679.684 335.778 Q679.684 342.781 677.904 346.599 Q675.304 352.174 669.566 352.174 Q667.411 352.174 665.209 351.073 Q663.031 349.972 661.649 347.325 Q659.494 343.367 659.494 335.778 M663.476 335.192 Q663.476 342.43 663.991 345.311 Q664.577 348.426 666.169 349.784 Q667.785 351.12 669.566 351.12 Q671.486 351.12 673.079 349.691 Q674.695 348.239 675.187 345.123 Q675.726 342.055 675.702 335.192 Q675.702 328.517 675.234 325.847 Q674.601 322.732 672.915 321.49 Q671.252 320.225 669.566 320.225 Q668.933 320.225 668.254 320.413 Q667.598 320.6 666.638 321.139 Q665.677 321.678 664.928 323.013 Q664.202 324.348 663.851 326.362 Q663.476 328.962 663.476 335.192 Z" fill="#000000" fill-rule="evenodd" fill-opacity="1" /><polyline clip-path="url(#clip170)" style="stroke:#cc0033; stroke-width:4; stroke-opacity:1; fill:none" points="
  388.437,396.053 525.482,396.053 
  "/>
<path clip-path="url(#clip170)" d="M 0 0 M580.951 379.651 Q580.951 380.096 580.857 380.471 L579.545 388.81 Q579.475 389.442 579.335 389.676 Q579.217 389.91 578.843 389.91 Q578.257 389.91 578.257 389.301 Q578.257 388.95 578.398 388.388 Q578.796 385.741 578.796 384.547 Q578.796 383.75 578.632 383.165 Q578.491 382.556 578.257 382.134 Q578.046 381.713 577.554 381.431 Q577.063 381.15 576.594 380.986 Q576.126 380.822 575.283 380.752 Q574.439 380.659 573.713 380.635 Q572.987 380.612 571.793 380.612 Q569.193 380.612 568.771 380.705 Q568.326 380.822 568.092 381.174 Q567.881 381.502 567.647 382.485 L561.276 407.946 L561.089 408.953 Q561.089 409.515 561.44 409.702 Q561.791 409.89 562.869 410.007 Q564.414 410.124 565.937 410.124 Q565.984 410.124 566.077 410.124 Q566.593 410.124 566.804 410.147 Q567.014 410.147 567.225 410.194 Q567.436 410.241 567.483 410.358 Q567.553 410.452 567.553 410.639 Q567.553 411.084 567.366 411.318 Q567.178 411.529 566.991 411.576 Q566.827 411.6 566.499 411.6 Q565.843 411.6 564.438 411.553 Q563.033 411.506 562.33 411.506 L558.348 411.459 L554.273 411.506 Q553.64 411.506 552.305 411.553 Q550.97 411.6 550.338 411.6 Q549.518 411.6 549.518 411.014 Q549.518 410.358 549.822 410.241 Q550.15 410.124 551.532 410.124 Q553.476 410.124 554.53 410.03 Q555.584 409.937 556.146 409.609 Q556.732 409.281 556.896 408.953 Q557.06 408.601 557.247 407.805 L563.688 382.204 Q563.876 381.642 563.876 381.197 Q563.876 380.963 563.806 380.869 Q563.759 380.776 563.454 380.705 Q563.15 380.612 562.517 380.612 L560.643 380.612 Q558.723 380.612 557.528 380.705 Q556.357 380.776 555.233 381.127 Q554.132 381.478 553.476 381.97 Q552.844 382.462 552.141 383.469 Q551.438 384.476 550.923 385.694 Q550.431 386.912 549.729 388.903 Q549.494 389.559 549.354 389.746 Q549.237 389.91 548.909 389.91 Q548.675 389.91 548.487 389.77 Q548.323 389.606 548.323 389.395 Q548.557 388.622 548.604 388.528 L551.485 380.073 Q551.72 379.394 551.93 379.277 Q552.165 379.136 553.031 379.136 L579.639 379.136 Q580.061 379.136 580.201 379.136 Q580.342 379.136 580.576 379.183 Q580.81 379.23 580.88 379.347 Q580.951 379.464 580.951 379.651 Z" fill="#000000" fill-rule="evenodd" fill-opacity="1" /><path clip-path="url(#clip170)" d="M 0 0 M589.367 404.315 Q589.414 403.73 590.328 403.73 L619.723 403.73 Q621.105 403.73 621.128 404.268 Q621.128 404.854 619.816 404.83 L590.655 404.83 Q589.367 404.854 589.367 404.315 M589.367 394.946 Q589.367 394.361 590.374 394.384 L619.676 394.384 Q621.105 394.384 621.128 394.946 Q621.128 395.485 619.91 395.485 L590.328 395.485 Q589.367 395.485 589.367 394.946 Z" fill="#000000" fill-rule="evenodd" fill-opacity="1" /><path clip-path="url(#clip170)" d="M 0 0 M639.619 411.6 Q639.619 410.733 639.689 410.475 Q639.783 410.218 640.158 409.819 L649.363 399.56 Q654.399 393.892 654.399 388.95 Q654.399 385.741 652.712 383.446 Q651.049 381.15 647.981 381.15 Q645.873 381.15 644.093 382.439 Q642.313 383.727 641.493 386.022 Q641.633 385.975 642.125 385.975 Q643.32 385.975 643.976 386.725 Q644.655 387.474 644.655 388.482 Q644.655 389.77 643.812 390.402 Q642.992 391.011 642.172 391.011 Q641.844 391.011 641.399 390.941 Q640.977 390.871 640.298 390.215 Q639.619 389.536 639.619 388.341 Q639.619 384.992 642.149 382.322 Q644.702 379.651 648.59 379.651 Q652.993 379.651 655.874 382.275 Q658.779 384.875 658.779 388.95 Q658.779 390.379 658.333 391.69 Q657.912 392.979 657.326 393.986 Q656.764 394.993 655.218 396.609 Q653.672 398.225 652.431 399.373 Q651.19 400.521 648.402 402.957 L643.32 407.899 L651.963 407.899 Q656.179 407.899 656.507 407.524 Q656.975 406.845 657.561 403.261 L658.779 403.261 L657.42 411.6 L639.619 411.6 Z" fill="#000000" fill-rule="evenodd" fill-opacity="1" /><path clip-path="url(#clip170)" d="M 0 0 M663.369 396.258 Q663.369 389.208 665.149 385.366 Q667.632 379.651 673.487 379.651 Q674.729 379.651 676.017 380.003 Q677.329 380.331 678.968 381.619 Q680.631 382.907 681.638 385.015 Q683.559 389.091 683.559 396.258 Q683.559 403.261 681.779 407.079 Q679.179 412.654 673.441 412.654 Q671.286 412.654 669.084 411.553 Q666.906 410.452 665.524 407.805 Q663.369 403.847 663.369 396.258 M667.351 395.672 Q667.351 402.91 667.866 405.791 Q668.452 408.906 670.044 410.264 Q671.66 411.6 673.441 411.6 Q675.361 411.6 676.954 410.171 Q678.57 408.719 679.062 405.603 Q679.601 402.535 679.577 395.672 Q679.577 388.997 679.109 386.327 Q678.476 383.212 676.79 381.97 Q675.127 380.705 673.441 380.705 Q672.808 380.705 672.129 380.893 Q671.473 381.08 670.513 381.619 Q669.552 382.158 668.803 383.493 Q668.077 384.828 667.726 386.842 Q667.351 389.442 667.351 395.672 Z" fill="#000000" fill-rule="evenodd" fill-opacity="1" /><polyline clip-path="url(#clip170)" style="stroke:#ff0000; stroke-width:4; stroke-opacity:1; fill:none" points="
  388.437,456.533 525.482,456.533 
  "/>
<path clip-path="url(#clip170)" d="M 0 0 M580.951 440.131 Q580.951 440.576 580.857 440.951 L579.545 449.29 Q579.475 449.922 579.335 450.156 Q579.217 450.39 578.843 450.39 Q578.257 450.39 578.257 449.781 Q578.257 449.43 578.398 448.868 Q578.796 446.221 578.796 445.027 Q578.796 444.23 578.632 443.645 Q578.491 443.036 578.257 442.614 Q578.046 442.193 577.554 441.911 Q577.063 441.63 576.594 441.466 Q576.126 441.302 575.283 441.232 Q574.439 441.139 573.713 441.115 Q572.987 441.092 571.793 441.092 Q569.193 441.092 568.771 441.185 Q568.326 441.302 568.092 441.654 Q567.881 441.982 567.647 442.965 L561.276 468.426 L561.089 469.433 Q561.089 469.995 561.44 470.182 Q561.791 470.37 562.869 470.487 Q564.414 470.604 565.937 470.604 Q565.984 470.604 566.077 470.604 Q566.593 470.604 566.804 470.627 Q567.014 470.627 567.225 470.674 Q567.436 470.721 567.483 470.838 Q567.553 470.932 567.553 471.119 Q567.553 471.564 567.366 471.798 Q567.178 472.009 566.991 472.056 Q566.827 472.08 566.499 472.08 Q565.843 472.08 564.438 472.033 Q563.033 471.986 562.33 471.986 L558.348 471.939 L554.273 471.986 Q553.64 471.986 552.305 472.033 Q550.97 472.08 550.338 472.08 Q549.518 472.08 549.518 471.494 Q549.518 470.838 549.822 470.721 Q550.15 470.604 551.532 470.604 Q553.476 470.604 554.53 470.51 Q555.584 470.417 556.146 470.089 Q556.732 469.761 556.896 469.433 Q557.06 469.081 557.247 468.285 L563.688 442.684 Q563.876 442.122 563.876 441.677 Q563.876 441.443 563.806 441.349 Q563.759 441.256 563.454 441.185 Q563.15 441.092 562.517 441.092 L560.643 441.092 Q558.723 441.092 557.528 441.185 Q556.357 441.256 555.233 441.607 Q554.132 441.958 553.476 442.45 Q552.844 442.942 552.141 443.949 Q551.438 444.956 550.923 446.174 Q550.431 447.392 549.729 449.383 Q549.494 450.039 549.354 450.226 Q549.237 450.39 548.909 450.39 Q548.675 450.39 548.487 450.25 Q548.323 450.086 548.323 449.875 Q548.557 449.102 548.604 449.008 L551.485 440.553 Q551.72 439.874 551.93 439.757 Q552.165 439.616 553.031 439.616 L579.639 439.616 Q580.061 439.616 580.201 439.616 Q580.342 439.616 580.576 439.663 Q580.81 439.71 580.88 439.827 Q580.951 439.944 580.951 440.131 Z" fill="#000000" fill-rule="evenodd" fill-opacity="1" /><path clip-path="url(#clip170)" d="M 0 0 M589.367 464.795 Q589.414 464.21 590.328 464.21 L619.723 464.21 Q621.105 464.21 621.128 464.748 Q621.128 465.334 619.816 465.31 L590.655 465.31 Q589.367 465.334 589.367 464.795 M589.367 455.426 Q589.367 454.841 590.374 454.864 L619.676 454.864 Q621.105 454.864 621.128 455.426 Q621.128 455.965 619.91 455.965 L590.328 455.965 Q589.367 455.965 589.367 455.426 Z" fill="#000000" fill-rule="evenodd" fill-opacity="1" /><path clip-path="url(#clip170)" d="M 0 0 M639.619 464.35 Q639.619 462.921 640.392 462.383 Q641.165 461.821 641.985 461.821 Q643.085 461.821 643.718 462.523 Q644.374 463.202 644.374 464.163 Q644.374 465.123 643.718 465.826 Q643.085 466.505 641.985 466.505 Q641.446 466.505 641.165 466.411 Q641.797 468.613 643.718 470.206 Q645.662 471.798 648.215 471.798 Q651.424 471.798 653.345 468.683 Q654.492 466.669 654.492 462.102 Q654.492 458.073 653.626 456.059 Q652.29 452.99 649.55 452.99 Q645.662 452.99 643.367 456.34 Q643.085 456.761 642.758 456.785 Q642.289 456.785 642.172 456.527 Q642.078 456.246 642.078 455.52 L642.078 441.326 Q642.078 440.178 642.547 440.178 Q642.734 440.178 643.132 440.319 Q646.154 441.654 649.503 441.677 Q652.946 441.677 656.038 440.272 Q656.272 440.131 656.413 440.131 Q656.881 440.131 656.905 440.67 Q656.905 440.857 656.507 441.42 Q656.132 441.958 655.312 442.684 Q654.492 443.387 653.438 444.066 Q652.384 444.746 650.838 445.214 Q649.316 445.659 647.629 445.659 Q645.615 445.659 643.554 445.027 L643.554 454.372 Q646.037 451.936 649.644 451.936 Q653.485 451.936 656.132 455.028 Q658.779 458.12 658.779 462.43 Q658.779 466.95 655.64 470.042 Q652.525 473.134 648.309 473.134 Q644.467 473.134 642.031 470.393 Q639.619 467.653 639.619 464.35 Z" fill="#000000" fill-rule="evenodd" fill-opacity="1" /><path clip-path="url(#clip170)" d="M 0 0 M663.369 456.738 Q663.369 449.688 665.149 445.846 Q667.632 440.131 673.487 440.131 Q674.729 440.131 676.017 440.483 Q677.329 440.811 678.968 442.099 Q680.631 443.387 681.638 445.495 Q683.559 449.571 683.559 456.738 Q683.559 463.741 681.779 467.559 Q679.179 473.134 673.441 473.134 Q671.286 473.134 669.084 472.033 Q666.906 470.932 665.524 468.285 Q663.369 464.327 663.369 456.738 M667.351 456.152 Q667.351 463.39 667.866 466.271 Q668.452 469.386 670.044 470.744 Q671.66 472.08 673.441 472.08 Q675.361 472.08 676.954 470.651 Q678.57 469.199 679.062 466.083 Q679.601 463.015 679.577 456.152 Q679.577 449.477 679.109 446.807 Q678.476 443.692 676.79 442.45 Q675.127 441.185 673.441 441.185 Q672.808 441.185 672.129 441.373 Q671.473 441.56 670.513 442.099 Q669.552 442.638 668.803 443.973 Q668.077 445.308 667.726 447.322 Q667.351 449.922 667.351 456.152 Z" fill="#000000" fill-rule="evenodd" fill-opacity="1" /></svg>
