<?xml version="1.0" encoding="utf-8"?>
<svg xmlns="http://www.w3.org/2000/svg" xmlns:xlink="http://www.w3.org/1999/xlink" width="600" height="400" viewBox="0 0 2400 1600">
<defs>
  <clipPath id="clip810">
    <rect x="0" y="0" width="2400" height="1600"/>
  </clipPath>
</defs>
<path clip-path="url(#clip810)" d="
M0 1600 L2400 1600 L2400 0 L0 0  Z
  " fill="#ffffff" fill-rule="evenodd" fill-opacity="1"/>
<defs>
  <clipPath id="clip811">
    <rect x="480" y="0" width="1681" height="1600"/>
  </clipPath>
</defs>
<defs>
  <clipPath id="clip812">
    <rect x="198" y="47" width="1788" height="1397"/>
  </clipPath>
</defs>
<path clip-path="url(#clip810)" d="
M289.626 1439.5 L1723.51 1439.5 L1723.51 47.2441 L289.626 47.2441  Z
  " fill="#ffffff" fill-rule="evenodd" fill-opacity="1"/>
<defs>
  <clipPath id="clip813">
    <rect x="289" y="47" width="1435" height="1393"/>
  </clipPath>
</defs>
<polyline clip-path="url(#clip813)" style="stroke:#000000; stroke-width:2; stroke-opacity:0.1; fill:none" points="
  329.937,1439.5 329.937,47.2441 
  "/>
<polyline clip-path="url(#clip813)" style="stroke:#000000; stroke-width:2; stroke-opacity:0.1; fill:none" points="
  600.535,1439.5 600.535,47.2441 
  "/>
<polyline clip-path="url(#clip813)" style="stroke:#000000; stroke-width:2; stroke-opacity:0.1; fill:none" points="
  871.132,1439.5 871.132,47.2441 
  "/>
<polyline clip-path="url(#clip813)" style="stroke:#000000; stroke-width:2; stroke-opacity:0.1; fill:none" points="
  1141.73,1439.5 1141.73,47.2441 
  "/>
<polyline clip-path="url(#clip813)" style="stroke:#000000; stroke-width:2; stroke-opacity:0.1; fill:none" points="
  1412.33,1439.5 1412.33,47.2441 
  "/>
<polyline clip-path="url(#clip813)" style="stroke:#000000; stroke-width:2; stroke-opacity:0.1; fill:none" points="
  1682.93,1439.5 1682.93,47.2441 
  "/>
<polyline clip-path="url(#clip810)" style="stroke:#000000; stroke-width:4; stroke-opacity:1; fill:none" points="
  289.626,1439.5 1723.51,1439.5 
  "/>
<polyline clip-path="url(#clip810)" style="stroke:#000000; stroke-width:4; stroke-opacity:1; fill:none" points="
  329.937,1439.5 329.937,1422.79 
  "/>
<polyline clip-path="url(#clip810)" style="stroke:#000000; stroke-width:4; stroke-opacity:1; fill:none" points="
  600.535,1439.5 600.535,1422.79 
  "/>
<polyline clip-path="url(#clip810)" style="stroke:#000000; stroke-width:4; stroke-opacity:1; fill:none" points="
  871.132,1439.5 871.132,1422.79 
  "/>
<polyline clip-path="url(#clip810)" style="stroke:#000000; stroke-width:4; stroke-opacity:1; fill:none" points="
  1141.73,1439.5 1141.73,1422.79 
  "/>
<polyline clip-path="url(#clip810)" style="stroke:#000000; stroke-width:4; stroke-opacity:1; fill:none" points="
  1412.33,1439.5 1412.33,1422.79 
  "/>
<polyline clip-path="url(#clip810)" style="stroke:#000000; stroke-width:4; stroke-opacity:1; fill:none" points="
  1682.93,1439.5 1682.93,1422.79 
  "/>
<path clip-path="url(#clip810)" d="M 0 0 M329.937 1468.69 Q326.326 1468.69 324.497 1472.26 Q322.692 1475.8 322.692 1482.93 Q322.692 1490.04 324.497 1493.6 Q326.326 1497.14 329.937 1497.14 Q333.571 1497.14 335.377 1493.6 Q337.206 1490.04 337.206 1482.93 Q337.206 1475.8 335.377 1472.26 Q333.571 1468.69 329.937 1468.69 M329.937 1464.99 Q335.747 1464.99 338.803 1469.6 Q341.882 1474.18 341.882 1482.93 Q341.882 1491.66 338.803 1496.26 Q335.747 1500.85 329.937 1500.85 Q324.127 1500.85 321.048 1496.26 Q317.993 1491.66 317.993 1482.93 Q317.993 1474.18 321.048 1469.6 Q324.127 1464.99 329.937 1464.99 Z" fill="#000000" fill-rule="evenodd" fill-opacity="1" /><path clip-path="url(#clip810)" d="M 0 0 M560.142 1496.24 L567.78 1496.24 L567.78 1469.87 L559.47 1471.54 L559.47 1467.28 L567.734 1465.61 L572.41 1465.61 L572.41 1496.24 L580.049 1496.24 L580.049 1500.17 L560.142 1500.17 L560.142 1496.24 Z" fill="#000000" fill-rule="evenodd" fill-opacity="1" /><path clip-path="url(#clip810)" d="M 0 0 M599.493 1468.69 Q595.882 1468.69 594.053 1472.26 Q592.248 1475.8 592.248 1482.93 Q592.248 1490.04 594.053 1493.6 Q595.882 1497.14 599.493 1497.14 Q603.127 1497.14 604.933 1493.6 Q606.762 1490.04 606.762 1482.93 Q606.762 1475.8 604.933 1472.26 Q603.127 1468.69 599.493 1468.69 M599.493 1464.99 Q605.303 1464.99 608.359 1469.6 Q611.438 1474.18 611.438 1482.93 Q611.438 1491.66 608.359 1496.26 Q605.303 1500.85 599.493 1500.85 Q593.683 1500.85 590.604 1496.26 Q587.549 1491.66 587.549 1482.93 Q587.549 1474.18 590.604 1469.6 Q593.683 1464.99 599.493 1464.99 Z" fill="#000000" fill-rule="evenodd" fill-opacity="1" /><path clip-path="url(#clip810)" d="M 0 0 M629.655 1468.69 Q626.044 1468.69 624.215 1472.26 Q622.41 1475.8 622.41 1482.93 Q622.41 1490.04 624.215 1493.6 Q626.044 1497.14 629.655 1497.14 Q633.289 1497.14 635.095 1493.6 Q636.924 1490.04 636.924 1482.93 Q636.924 1475.8 635.095 1472.26 Q633.289 1468.69 629.655 1468.69 M629.655 1464.99 Q635.465 1464.99 638.521 1469.6 Q641.599 1474.18 641.599 1482.93 Q641.599 1491.66 638.521 1496.26 Q635.465 1500.85 629.655 1500.85 Q623.845 1500.85 620.766 1496.26 Q617.711 1491.66 617.711 1482.93 Q617.711 1474.18 620.766 1469.6 Q623.845 1464.99 629.655 1464.99 Z" fill="#000000" fill-rule="evenodd" fill-opacity="1" /><path clip-path="url(#clip810)" d="M 0 0 M834.825 1496.24 L851.144 1496.24 L851.144 1500.17 L829.2 1500.17 L829.2 1496.24 Q831.862 1493.48 836.445 1488.85 Q841.052 1484.2 842.232 1482.86 Q844.477 1480.34 845.357 1478.6 Q846.26 1476.84 846.26 1475.15 Q846.26 1472.4 844.315 1470.66 Q842.394 1468.92 839.292 1468.92 Q837.093 1468.92 834.64 1469.69 Q832.209 1470.45 829.431 1472 L829.431 1467.28 Q832.255 1466.15 834.709 1465.57 Q837.163 1464.99 839.2 1464.99 Q844.57 1464.99 847.764 1467.67 Q850.959 1470.36 850.959 1474.85 Q850.959 1476.98 850.149 1478.9 Q849.362 1480.8 847.255 1483.39 Q846.677 1484.06 843.575 1487.28 Q840.473 1490.47 834.825 1496.24 Z" fill="#000000" fill-rule="evenodd" fill-opacity="1" /><path clip-path="url(#clip810)" d="M 0 0 M870.959 1468.69 Q867.348 1468.69 865.519 1472.26 Q863.713 1475.8 863.713 1482.93 Q863.713 1490.04 865.519 1493.6 Q867.348 1497.14 870.959 1497.14 Q874.593 1497.14 876.399 1493.6 Q878.227 1490.04 878.227 1482.93 Q878.227 1475.8 876.399 1472.26 Q874.593 1468.69 870.959 1468.69 M870.959 1464.99 Q876.769 1464.99 879.825 1469.6 Q882.903 1474.18 882.903 1482.93 Q882.903 1491.66 879.825 1496.26 Q876.769 1500.85 870.959 1500.85 Q865.149 1500.85 862.07 1496.26 Q859.014 1491.66 859.014 1482.93 Q859.014 1474.18 862.07 1469.6 Q865.149 1464.99 870.959 1464.99 Z" fill="#000000" fill-rule="evenodd" fill-opacity="1" /><path clip-path="url(#clip810)" d="M 0 0 M901.121 1468.69 Q897.51 1468.69 895.681 1472.26 Q893.875 1475.8 893.875 1482.93 Q893.875 1490.04 895.681 1493.6 Q897.51 1497.14 901.121 1497.14 Q904.755 1497.14 906.56 1493.6 Q908.389 1490.04 908.389 1482.93 Q908.389 1475.8 906.56 1472.26 Q904.755 1468.69 901.121 1468.69 M901.121 1464.99 Q906.931 1464.99 909.986 1469.6 Q913.065 1474.18 913.065 1482.93 Q913.065 1491.66 909.986 1496.26 Q906.931 1500.85 901.121 1500.85 Q895.311 1500.85 892.232 1496.26 Q889.176 1491.66 889.176 1482.93 Q889.176 1474.18 892.232 1469.6 Q895.311 1464.99 901.121 1464.99 Z" fill="#000000" fill-rule="evenodd" fill-opacity="1" /><path clip-path="url(#clip810)" d="M 0 0 M1115.49 1481.54 Q1118.85 1482.26 1120.72 1484.53 Q1122.62 1486.79 1122.62 1490.13 Q1122.62 1495.24 1119.1 1498.04 Q1115.58 1500.85 1109.1 1500.85 Q1106.93 1500.85 1104.61 1500.41 Q1102.32 1499.99 1099.87 1499.13 L1099.87 1494.62 Q1101.81 1495.75 1104.13 1496.33 Q1106.44 1496.91 1108.96 1496.91 Q1113.36 1496.91 1115.65 1495.17 Q1117.97 1493.44 1117.97 1490.13 Q1117.97 1487.07 1115.82 1485.36 Q1113.69 1483.62 1109.87 1483.62 L1105.84 1483.62 L1105.84 1479.78 L1110.05 1479.78 Q1113.5 1479.78 1115.33 1478.41 Q1117.16 1477.03 1117.16 1474.43 Q1117.16 1471.77 1115.26 1470.36 Q1113.39 1468.92 1109.87 1468.92 Q1107.95 1468.92 1105.75 1469.34 Q1103.55 1469.76 1100.91 1470.64 L1100.91 1466.47 Q1103.57 1465.73 1105.89 1465.36 Q1108.22 1464.99 1110.28 1464.99 Q1115.61 1464.99 1118.71 1467.42 Q1121.81 1469.83 1121.81 1473.95 Q1121.81 1476.82 1120.17 1478.81 Q1118.52 1480.78 1115.49 1481.54 Z" fill="#000000" fill-rule="evenodd" fill-opacity="1" /><path clip-path="url(#clip810)" d="M 0 0 M1141.49 1468.69 Q1137.88 1468.69 1136.05 1472.26 Q1134.24 1475.8 1134.24 1482.93 Q1134.24 1490.04 1136.05 1493.6 Q1137.88 1497.14 1141.49 1497.14 Q1145.12 1497.14 1146.93 1493.6 Q1148.76 1490.04 1148.76 1482.93 Q1148.76 1475.8 1146.93 1472.26 Q1145.12 1468.69 1141.49 1468.69 M1141.49 1464.99 Q1147.3 1464.99 1150.35 1469.6 Q1153.43 1474.18 1153.43 1482.93 Q1153.43 1491.66 1150.35 1496.26 Q1147.3 1500.85 1141.49 1500.85 Q1135.68 1500.85 1132.6 1496.26 Q1129.54 1491.66 1129.54 1482.93 Q1129.54 1474.18 1132.6 1469.6 Q1135.68 1464.99 1141.49 1464.99 Z" fill="#000000" fill-rule="evenodd" fill-opacity="1" /><path clip-path="url(#clip810)" d="M 0 0 M1171.65 1468.69 Q1168.04 1468.69 1166.21 1472.26 Q1164.4 1475.8 1164.4 1482.93 Q1164.4 1490.04 1166.21 1493.6 Q1168.04 1497.14 1171.65 1497.14 Q1175.28 1497.14 1177.09 1493.6 Q1178.92 1490.04 1178.92 1482.93 Q1178.92 1475.8 1177.09 1472.26 Q1175.28 1468.69 1171.65 1468.69 M1171.65 1464.99 Q1177.46 1464.99 1180.51 1469.6 Q1183.59 1474.18 1183.59 1482.93 Q1183.59 1491.66 1180.51 1496.26 Q1177.46 1500.85 1171.65 1500.85 Q1165.84 1500.85 1162.76 1496.26 Q1159.7 1491.66 1159.7 1482.93 Q1159.7 1474.18 1162.76 1469.6 Q1165.84 1464.99 1171.65 1464.99 Z" fill="#000000" fill-rule="evenodd" fill-opacity="1" /><path clip-path="url(#clip810)" d="M 0 0 M1385.42 1469.69 L1373.61 1488.14 L1385.42 1488.14 L1385.42 1469.69 M1384.19 1465.61 L1390.07 1465.61 L1390.07 1488.14 L1395 1488.14 L1395 1492.03 L1390.07 1492.03 L1390.07 1500.17 L1385.42 1500.17 L1385.42 1492.03 L1369.82 1492.03 L1369.82 1487.51 L1384.19 1465.61 Z" fill="#000000" fill-rule="evenodd" fill-opacity="1" /><path clip-path="url(#clip810)" d="M 0 0 M1412.73 1468.69 Q1409.12 1468.69 1407.29 1472.26 Q1405.49 1475.8 1405.49 1482.93 Q1405.49 1490.04 1407.29 1493.6 Q1409.12 1497.14 1412.73 1497.14 Q1416.37 1497.14 1418.17 1493.6 Q1420 1490.04 1420 1482.93 Q1420 1475.8 1418.17 1472.26 Q1416.37 1468.69 1412.73 1468.69 M1412.73 1464.99 Q1418.54 1464.99 1421.6 1469.6 Q1424.68 1474.18 1424.68 1482.93 Q1424.68 1491.66 1421.6 1496.26 Q1418.54 1500.85 1412.73 1500.85 Q1406.92 1500.85 1403.84 1496.26 Q1400.79 1491.66 1400.79 1482.93 Q1400.79 1474.18 1403.84 1469.6 Q1406.92 1464.99 1412.73 1464.99 Z" fill="#000000" fill-rule="evenodd" fill-opacity="1" /><path clip-path="url(#clip810)" d="M 0 0 M1442.89 1468.69 Q1439.28 1468.69 1437.45 1472.26 Q1435.65 1475.8 1435.65 1482.93 Q1435.65 1490.04 1437.45 1493.6 Q1439.28 1497.14 1442.89 1497.14 Q1446.53 1497.14 1448.33 1493.6 Q1450.16 1490.04 1450.16 1482.93 Q1450.16 1475.8 1448.33 1472.26 Q1446.53 1468.69 1442.89 1468.69 M1442.89 1464.99 Q1448.7 1464.99 1451.76 1469.6 Q1454.84 1474.18 1454.84 1482.93 Q1454.84 1491.66 1451.76 1496.26 Q1448.7 1500.85 1442.89 1500.85 Q1437.08 1500.85 1434.01 1496.26 Q1430.95 1491.66 1430.95 1482.93 Q1430.95 1474.18 1434.01 1469.6 Q1437.08 1464.99 1442.89 1464.99 Z" fill="#000000" fill-rule="evenodd" fill-opacity="1" /><path clip-path="url(#clip810)" d="M 0 0 M1642.54 1465.61 L1660.9 1465.61 L1660.9 1469.55 L1646.83 1469.55 L1646.83 1478.02 Q1647.84 1477.67 1648.86 1477.51 Q1649.88 1477.33 1650.9 1477.33 Q1656.69 1477.33 1660.07 1480.5 Q1663.45 1483.67 1663.45 1489.09 Q1663.45 1494.66 1659.97 1497.77 Q1656.5 1500.85 1650.18 1500.85 Q1648.01 1500.85 1645.74 1500.47 Q1643.49 1500.1 1641.09 1499.36 L1641.09 1494.66 Q1643.17 1495.8 1645.39 1496.35 Q1647.61 1496.91 1650.09 1496.91 Q1654.09 1496.91 1656.43 1494.8 Q1658.77 1492.7 1658.77 1489.09 Q1658.77 1485.47 1656.43 1483.37 Q1654.09 1481.26 1650.09 1481.26 Q1648.21 1481.26 1646.34 1481.68 Q1644.49 1482.1 1642.54 1482.97 L1642.54 1465.61 Z" fill="#000000" fill-rule="evenodd" fill-opacity="1" /><path clip-path="url(#clip810)" d="M 0 0 M1682.66 1468.69 Q1679.05 1468.69 1677.22 1472.26 Q1675.41 1475.8 1675.41 1482.93 Q1675.41 1490.04 1677.22 1493.6 Q1679.05 1497.14 1682.66 1497.14 Q1686.29 1497.14 1688.1 1493.6 Q1689.93 1490.04 1689.93 1482.93 Q1689.93 1475.8 1688.1 1472.26 Q1686.29 1468.69 1682.66 1468.69 M1682.66 1464.99 Q1688.47 1464.99 1691.52 1469.6 Q1694.6 1474.18 1694.6 1482.93 Q1694.6 1491.66 1691.52 1496.26 Q1688.47 1500.85 1682.66 1500.85 Q1676.85 1500.85 1673.77 1496.26 Q1670.71 1491.66 1670.71 1482.93 Q1670.71 1474.18 1673.77 1469.6 Q1676.85 1464.99 1682.66 1464.99 Z" fill="#000000" fill-rule="evenodd" fill-opacity="1" /><path clip-path="url(#clip810)" d="M 0 0 M1712.82 1468.69 Q1709.21 1468.69 1707.38 1472.26 Q1705.58 1475.8 1705.58 1482.93 Q1705.58 1490.04 1707.38 1493.6 Q1709.21 1497.14 1712.82 1497.14 Q1716.46 1497.14 1718.26 1493.6 Q1720.09 1490.04 1720.09 1482.93 Q1720.09 1475.8 1718.26 1472.26 Q1716.46 1468.69 1712.82 1468.69 M1712.82 1464.99 Q1718.63 1464.99 1721.69 1469.6 Q1724.77 1474.18 1724.77 1482.93 Q1724.77 1491.66 1721.69 1496.26 Q1718.63 1500.85 1712.82 1500.85 Q1707.01 1500.85 1703.93 1496.26 Q1700.88 1491.66 1700.88 1482.93 Q1700.88 1474.18 1703.93 1469.6 Q1707.01 1464.99 1712.82 1464.99 Z" fill="#000000" fill-rule="evenodd" fill-opacity="1" /><path clip-path="url(#clip810)" d="M 0 0 M1018.5 1535.75 Q1018.5 1541.16 1016.76 1547.24 Q1015.06 1553.3 1012.35 1558.19 Q1009.64 1563.06 1006.1 1566.28 Q1002.56 1569.47 999.178 1569.47 Q997.02 1569.47 995.41 1568.27 Q993.832 1567.05 992.962 1565.02 Q992.093 1562.96 991.674 1560.71 Q991.255 1558.42 991.255 1555.94 Q991.255 1552.24 992.06 1548.21 Q992.866 1544.15 994.218 1540.48 Q995.571 1536.78 997.471 1533.43 Q999.371 1530.05 1001.46 1527.6 Q1003.59 1525.12 1005.97 1523.67 Q1008.36 1522.22 1010.58 1522.22 Q1012.19 1522.22 1013.48 1522.93 Q1014.8 1523.6 1015.64 1524.8 Q1016.47 1525.96 1017.05 1527.34 Q1017.66 1528.73 1017.95 1530.34 Q1018.24 1531.91 1018.37 1533.23 Q1018.5 1534.52 1018.5 1535.75 M1014.15 1531.66 Q1014.15 1530.01 1014.02 1528.79 Q1013.9 1527.53 1013.54 1526.28 Q1013.19 1525.02 1012.41 1524.35 Q1011.67 1523.67 1010.51 1523.67 Q1007.13 1523.67 1003.33 1530.59 Q1002.11 1532.75 1001.01 1535.68 Q999.919 1538.61 999.532 1540 Q999.146 1541.38 998.244 1544.8 L1012.03 1544.8 Q1014.15 1536 1014.15 1531.66 M1011.45 1546.89 L997.729 1546.89 Q995.603 1554.94 995.603 1559.96 Q995.603 1564.34 996.505 1566.18 Q997.439 1567.98 999.178 1567.98 Q1001.17 1567.98 1003.04 1565.99 Q1004.91 1563.96 1006.81 1560.29 Q1009.32 1555.52 1011.45 1546.89 Z" fill="#000000" fill-rule="evenodd" fill-opacity="1" /><polyline clip-path="url(#clip813)" style="stroke:#000000; stroke-width:2; stroke-opacity:0.1; fill:none" points="
  289.626,1258.75 1723.51,1258.75 
  "/>
<polyline clip-path="url(#clip813)" style="stroke:#000000; stroke-width:2; stroke-opacity:0.1; fill:none" points="
  289.626,893.293 1723.51,893.293 
  "/>
<polyline clip-path="url(#clip813)" style="stroke:#000000; stroke-width:2; stroke-opacity:0.1; fill:none" points="
  289.626,527.838 1723.51,527.838 
  "/>
<polyline clip-path="url(#clip813)" style="stroke:#000000; stroke-width:2; stroke-opacity:0.1; fill:none" points="
  289.626,162.383 1723.51,162.383 
  "/>
<polyline clip-path="url(#clip810)" style="stroke:#000000; stroke-width:4; stroke-opacity:1; fill:none" points="
  289.626,1439.5 289.626,47.2441 
  "/>
<polyline clip-path="url(#clip810)" style="stroke:#000000; stroke-width:4; stroke-opacity:1; fill:none" points="
  289.626,1258.75 306.833,1258.75 
  "/>
<polyline clip-path="url(#clip810)" style="stroke:#000000; stroke-width:4; stroke-opacity:1; fill:none" points="
  289.626,893.293 306.833,893.293 
  "/>
<polyline clip-path="url(#clip810)" style="stroke:#000000; stroke-width:4; stroke-opacity:1; fill:none" points="
  289.626,527.838 306.833,527.838 
  "/>
<polyline clip-path="url(#clip810)" style="stroke:#000000; stroke-width:4; stroke-opacity:1; fill:none" points="
  289.626,162.383 306.833,162.383 
  "/>
<path clip-path="url(#clip810)" d="M 0 0 M147.678 1259.2 L177.354 1259.2 L177.354 1263.14 L147.678 1263.14 L147.678 1259.2 Z" fill="#000000" fill-rule="evenodd" fill-opacity="1" /><path clip-path="url(#clip810)" d="M 0 0 M197.446 1244.55 Q193.835 1244.55 192.006 1248.11 Q190.201 1251.65 190.201 1258.78 Q190.201 1265.89 192.006 1269.45 Q193.835 1273 197.446 1273 Q201.08 1273 202.886 1269.45 Q204.714 1265.89 204.714 1258.78 Q204.714 1251.65 202.886 1248.11 Q201.08 1244.55 197.446 1244.55 M197.446 1240.84 Q203.256 1240.84 206.312 1245.45 Q209.39 1250.03 209.39 1258.78 Q209.39 1267.51 206.312 1272.12 Q203.256 1276.7 197.446 1276.7 Q191.636 1276.7 188.557 1272.12 Q185.502 1267.51 185.502 1258.78 Q185.502 1250.03 188.557 1245.45 Q191.636 1240.84 197.446 1240.84 Z" fill="#000000" fill-rule="evenodd" fill-opacity="1" /><path clip-path="url(#clip810)" d="M 0 0 M217.608 1270.15 L222.492 1270.15 L222.492 1276.03 L217.608 1276.03 L217.608 1270.15 Z" fill="#000000" fill-rule="evenodd" fill-opacity="1" /><path clip-path="url(#clip810)" d="M 0 0 M232.724 1241.47 L251.08 1241.47 L251.08 1245.4 L237.006 1245.4 L237.006 1253.88 Q238.024 1253.53 239.043 1253.37 Q240.062 1253.18 241.08 1253.18 Q246.867 1253.18 250.247 1256.35 Q253.626 1259.52 253.626 1264.94 Q253.626 1270.52 250.154 1273.62 Q246.682 1276.7 240.362 1276.7 Q238.187 1276.7 235.918 1276.33 Q233.673 1275.96 231.265 1275.22 L231.265 1270.52 Q233.349 1271.65 235.571 1272.21 Q237.793 1272.76 240.27 1272.76 Q244.274 1272.76 246.612 1270.66 Q248.95 1268.55 248.95 1264.94 Q248.95 1261.33 246.612 1259.22 Q244.274 1257.12 240.27 1257.12 Q238.395 1257.12 236.52 1257.53 Q234.668 1257.95 232.724 1258.83 L232.724 1241.47 Z" fill="#000000" fill-rule="evenodd" fill-opacity="1" /><path clip-path="url(#clip810)" d="M 0 0 M196.451 879.092 Q192.84 879.092 191.011 882.657 Q189.205 886.198 189.205 893.328 Q189.205 900.434 191.011 903.999 Q192.84 907.541 196.451 907.541 Q200.085 907.541 201.89 903.999 Q203.719 900.434 203.719 893.328 Q203.719 886.198 201.89 882.657 Q200.085 879.092 196.451 879.092 M196.451 875.388 Q202.261 875.388 205.316 879.995 Q208.395 884.578 208.395 893.328 Q208.395 902.055 205.316 906.661 Q202.261 911.245 196.451 911.245 Q190.64 911.245 187.562 906.661 Q184.506 902.055 184.506 893.328 Q184.506 884.578 187.562 879.995 Q190.64 875.388 196.451 875.388 Z" fill="#000000" fill-rule="evenodd" fill-opacity="1" /><path clip-path="url(#clip810)" d="M 0 0 M216.613 904.694 L221.497 904.694 L221.497 910.573 L216.613 910.573 L216.613 904.694 Z" fill="#000000" fill-rule="evenodd" fill-opacity="1" /><path clip-path="url(#clip810)" d="M 0 0 M241.682 879.092 Q238.071 879.092 236.242 882.657 Q234.437 886.198 234.437 893.328 Q234.437 900.434 236.242 903.999 Q238.071 907.541 241.682 907.541 Q245.316 907.541 247.122 903.999 Q248.95 900.434 248.95 893.328 Q248.95 886.198 247.122 882.657 Q245.316 879.092 241.682 879.092 M241.682 875.388 Q247.492 875.388 250.548 879.995 Q253.626 884.578 253.626 893.328 Q253.626 902.055 250.548 906.661 Q247.492 911.245 241.682 911.245 Q235.872 911.245 232.793 906.661 Q229.738 902.055 229.738 893.328 Q229.738 884.578 232.793 879.995 Q235.872 875.388 241.682 875.388 Z" fill="#000000" fill-rule="evenodd" fill-opacity="1" /><path clip-path="url(#clip810)" d="M 0 0 M197.446 513.637 Q193.835 513.637 192.006 517.201 Q190.201 520.743 190.201 527.873 Q190.201 534.979 192.006 538.544 Q193.835 542.086 197.446 542.086 Q201.08 542.086 202.886 538.544 Q204.714 534.979 204.714 527.873 Q204.714 520.743 202.886 517.201 Q201.08 513.637 197.446 513.637 M197.446 509.933 Q203.256 509.933 206.312 514.539 Q209.39 519.123 209.39 527.873 Q209.39 536.599 206.312 541.206 Q203.256 545.789 197.446 545.789 Q191.636 545.789 188.557 541.206 Q185.502 536.599 185.502 527.873 Q185.502 519.123 188.557 514.539 Q191.636 509.933 197.446 509.933 Z" fill="#000000" fill-rule="evenodd" fill-opacity="1" /><path clip-path="url(#clip810)" d="M 0 0 M217.608 539.238 L222.492 539.238 L222.492 545.118 L217.608 545.118 L217.608 539.238 Z" fill="#000000" fill-rule="evenodd" fill-opacity="1" /><path clip-path="url(#clip810)" d="M 0 0 M232.724 510.558 L251.08 510.558 L251.08 514.493 L237.006 514.493 L237.006 522.965 Q238.024 522.618 239.043 522.456 Q240.062 522.271 241.08 522.271 Q246.867 522.271 250.247 525.442 Q253.626 528.613 253.626 534.03 Q253.626 539.609 250.154 542.711 Q246.682 545.789 240.362 545.789 Q238.187 545.789 235.918 545.419 Q233.673 545.049 231.265 544.308 L231.265 539.609 Q233.349 540.743 235.571 541.299 Q237.793 541.854 240.27 541.854 Q244.274 541.854 246.612 539.748 Q248.95 537.641 248.95 534.03 Q248.95 530.419 246.612 528.312 Q244.274 526.206 240.27 526.206 Q238.395 526.206 236.52 526.623 Q234.668 527.039 232.724 527.919 L232.724 510.558 Z" fill="#000000" fill-rule="evenodd" fill-opacity="1" /><path clip-path="url(#clip810)" d="M 0 0 M187.261 175.727 L194.9 175.727 L194.9 149.362 L186.59 151.029 L186.59 146.769 L194.853 145.103 L199.529 145.103 L199.529 175.727 L207.168 175.727 L207.168 179.663 L187.261 179.663 L187.261 175.727 Z" fill="#000000" fill-rule="evenodd" fill-opacity="1" /><path clip-path="url(#clip810)" d="M 0 0 M216.613 173.783 L221.497 173.783 L221.497 179.663 L216.613 179.663 L216.613 173.783 Z" fill="#000000" fill-rule="evenodd" fill-opacity="1" /><path clip-path="url(#clip810)" d="M 0 0 M241.682 148.181 Q238.071 148.181 236.242 151.746 Q234.437 155.288 234.437 162.417 Q234.437 169.524 236.242 173.089 Q238.071 176.63 241.682 176.63 Q245.316 176.63 247.122 173.089 Q248.95 169.524 248.95 162.417 Q248.95 155.288 247.122 151.746 Q245.316 148.181 241.682 148.181 M241.682 144.478 Q247.492 144.478 250.548 149.084 Q253.626 153.667 253.626 162.417 Q253.626 171.144 250.548 175.751 Q247.492 180.334 241.682 180.334 Q235.872 180.334 232.793 175.751 Q229.738 171.144 229.738 162.417 Q229.738 153.667 232.793 149.084 Q235.872 144.478 241.682 144.478 Z" fill="#000000" fill-rule="evenodd" fill-opacity="1" /><path clip-path="url(#clip810)" d="M 0 0 M60.857 942.374 L77.282 948.043 L77.282 1002.73 Q77.282 1003.47 77.2498 1003.76 Q77.2176 1004.05 77.0566 1004.27 Q76.8956 1004.5 76.5413 1004.5 Q76.2514 1004.5 75.5107 1003.92 L46.5576 980.506 L13.45 1004.56 Q11.9363 1004.56 11.6465 1004.31 Q11.3244 1004.05 11.3244 1002.73 L11.3244 948.043 L26.751 942.374 L26.751 944.017 Q24.7543 944.758 23.0796 945.949 Q21.3726 947.109 20.1488 948.461 Q18.925 949.782 17.9588 951.521 Q16.9604 953.228 16.3485 954.838 Q15.7044 956.416 15.2535 958.381 Q14.7704 960.345 14.545 961.923 Q14.2874 963.469 14.1585 965.402 Q14.0297 967.334 13.9975 968.558 Q13.9653 969.782 13.9653 971.327 L13.9653 997.446 L43.3693 976.03 Q44.11 975.546 44.3032 975.546 Q44.5931 975.546 45.366 976.158 L73.6428 999.024 L73.6428 971.005 Q73.6428 961.988 71.7426 955.708 Q70.2934 951.456 67.427 948.365 Q64.5607 945.241 60.857 944.017 L60.857 942.374 Z" fill="#000000" fill-rule="evenodd" fill-opacity="1" /><path clip-path="url(#clip810)" d="M 0 0 M103.424 1013.55 Q104.055 1013.55 104.213 1013.85 Q104.349 1014.14 104.349 1014.95 L104.349 1019.28 L117.965 1022.7 Q119.16 1022.98 120.174 1022.98 Q121.302 1022.98 121.798 1022.64 Q122.294 1022.28 122.294 1021.53 Q122.294 1020.07 120.964 1018.49 Q119.633 1016.89 116.387 1015.54 Q115.959 1015.36 115.869 1015.27 Q115.756 1015.15 115.756 1014.86 Q115.756 1014.3 116.207 1014.3 Q116.365 1014.3 117.086 1014.61 Q117.807 1014.9 118.867 1015.56 Q119.927 1016.19 120.918 1017.02 Q121.91 1017.84 122.632 1019.08 Q123.331 1020.32 123.331 1021.65 Q123.331 1023.52 122.136 1024.71 Q120.941 1025.88 119.07 1025.88 Q118.461 1025.88 116.522 1025.41 Q114.561 1024.94 104.349 1022.37 L104.349 1026.45 Q104.349 1027.01 104.326 1027.24 Q104.303 1027.44 104.191 1027.6 Q104.055 1027.73 103.785 1027.73 Q103.357 1027.73 103.176 1027.55 Q102.973 1027.37 102.951 1027.15 Q102.906 1026.9 102.906 1026.33 L102.906 1022.01 L95.5789 1020.2 Q94.8575 1020.02 94.4517 1019.57 Q94.0233 1019.1 93.9782 1018.83 Q93.9106 1018.56 93.9106 1018.35 Q93.9106 1017.75 94.2488 1017.38 Q94.5644 1017.02 95.1505 1017.02 Q95.4662 1017.02 102.906 1018.92 L102.906 1014.86 Q102.906 1014.34 102.928 1014.14 Q102.951 1013.91 103.064 1013.73 Q103.176 1013.55 103.424 1013.55 Z" fill="#000000" fill-rule="evenodd" fill-opacity="1" /><path clip-path="url(#clip810)" d="M 0 0 M115.801 998.419 Q115.237 998.374 115.237 997.495 L115.237 969.202 Q115.237 967.872 115.756 967.85 Q116.319 967.85 116.297 969.112 L116.297 997.179 Q116.319 998.419 115.801 998.419 M106.783 998.419 Q106.22 998.419 106.242 997.45 L106.242 969.247 Q106.242 967.872 106.783 967.85 Q107.302 967.85 107.302 969.022 L107.302 997.495 Q107.302 998.419 106.783 998.419 Z" fill="#000000" fill-rule="evenodd" fill-opacity="1" /><path clip-path="url(#clip810)" d="M 0 0 M108.046 950.037 Q101.26 950.037 97.5628 948.324 Q92.062 945.934 92.062 940.298 Q92.062 939.104 92.4002 937.864 Q92.7158 936.601 93.9557 935.023 Q95.1956 933.422 97.2246 932.453 Q101.147 930.604 108.046 930.604 Q114.786 930.604 118.461 932.318 Q123.827 934.82 123.827 940.344 Q123.827 942.418 122.767 944.537 Q121.707 946.633 119.16 947.963 Q115.35 950.037 108.046 950.037 M107.482 946.205 Q114.448 946.205 117.221 945.709 Q120.22 945.145 121.527 943.612 Q122.812 942.057 122.812 940.344 Q122.812 938.495 121.437 936.962 Q120.039 935.406 117.041 934.933 Q114.088 934.414 107.482 934.437 Q101.057 934.437 98.4871 934.888 Q95.4887 935.497 94.2939 937.12 Q93.0765 938.72 93.0765 940.344 Q93.0765 940.952 93.2568 941.606 Q93.4372 942.237 93.9557 943.162 Q94.4742 944.086 95.7592 944.807 Q97.0442 945.506 98.983 945.844 Q101.485 946.205 107.482 946.205 Z" fill="#000000" fill-rule="evenodd" fill-opacity="1" /><path clip-path="url(#clip810)" d="M 0 0 M16.8638 875.27 Q17.4757 875.27 17.991 875.399 L29.4563 877.202 Q30.3259 877.299 30.6479 877.492 Q30.97 877.653 30.97 878.168 Q30.97 878.974 30.1326 878.974 Q29.6496 878.974 28.8766 878.78 Q25.2374 878.233 23.5949 878.233 Q22.4999 878.233 21.6947 878.458 Q20.8574 878.651 20.2776 878.974 Q19.6979 879.263 19.3115 879.94 Q18.925 880.616 18.6996 881.26 Q18.4741 881.904 18.3775 883.064 Q18.2487 884.223 18.2165 885.221 Q18.1843 886.22 18.1843 887.862 Q18.1843 891.437 18.3131 892.017 Q18.4741 892.629 18.9572 892.951 Q19.4081 893.241 20.7607 893.563 L55.7685 902.323 L57.1534 902.58 Q57.9263 902.58 58.1839 902.097 Q58.4416 901.614 58.6026 900.133 Q58.7637 898.007 58.7637 895.914 Q58.7637 895.849 58.7637 895.721 Q58.7637 895.012 58.7959 894.722 Q58.7959 894.432 58.8603 894.142 Q58.9247 893.853 59.0857 893.788 Q59.2145 893.692 59.4722 893.692 Q60.0841 893.692 60.4062 893.949 Q60.696 894.207 60.7604 894.465 Q60.7926 894.69 60.7926 895.141 Q60.7926 896.043 60.7282 897.975 Q60.6638 899.907 60.6638 900.874 L60.5994 906.349 L60.6638 911.952 Q60.6638 912.822 60.7282 914.658 Q60.7926 916.493 60.7926 917.363 Q60.7926 918.49 59.9875 918.49 Q59.0857 918.49 58.9247 918.071 Q58.7637 917.621 58.7637 915.72 Q58.7637 913.047 58.6348 911.598 Q58.506 910.149 58.0551 909.376 Q57.6042 908.571 57.1534 908.345 Q56.6703 908.12 55.5753 907.862 L20.3743 899.006 Q19.6013 898.748 18.9894 898.748 Q18.6674 898.748 18.5385 898.845 Q18.4097 898.909 18.3131 899.328 Q18.1843 899.746 18.1843 900.616 L18.1843 903.192 Q18.1843 905.833 18.3131 907.476 Q18.4097 909.086 18.8928 910.632 Q19.3759 912.146 20.0522 913.047 Q20.7285 913.917 22.1134 914.883 Q23.4982 915.849 25.1729 916.558 Q26.8476 917.234 29.5851 918.2 Q30.4869 918.522 30.7446 918.716 Q30.97 918.877 30.97 919.327 Q30.97 919.65 30.7768 919.907 Q30.5513 920.133 30.2615 920.133 Q29.1987 919.811 29.0698 919.746 L17.4435 915.785 Q16.5096 915.463 16.3485 915.173 Q16.1553 914.851 16.1553 913.659 L16.1553 877.073 Q16.1553 876.494 16.1553 876.3 Q16.1553 876.107 16.2197 875.785 Q16.2841 875.463 16.4451 875.366 Q16.6062 875.27 16.8638 875.27 Z" fill="#000000" fill-rule="evenodd" fill-opacity="1" /><path clip-path="url(#clip810)" d="M 0 0 M7.94593 850.294 L8.87023 850.858 Q7.35978 854.352 4.94756 858.703 Q7.35978 863.054 8.87023 866.548 L7.94593 867.089 Q4.63194 863.279 2.08446 858.703 Q4.65449 854.081 7.94593 850.294 Z" fill="#000000" fill-rule="evenodd" fill-opacity="1" /><path clip-path="url(#clip810)" d="M 0 0 M16.5418 834.027 Q16.9604 834.027 17.2181 834.124 Q17.4757 834.189 17.6046 834.446 Q17.7012 834.672 17.7334 834.833 Q17.7656 834.961 17.7978 835.348 Q17.9266 836.926 18.3453 838.246 Q18.7318 839.567 19.5047 840.694 Q20.2776 841.789 20.7929 842.401 Q21.3082 842.981 22.3388 844.011 L23.2728 844.913 L42.0488 861.274 Q42.6929 861.853 44.11 862.208 L53.4175 864.526 Q57.2822 865.428 57.572 865.428 Q58.1517 865.428 58.345 865.106 Q58.506 864.752 58.6026 863.657 L58.7637 861.145 Q58.7637 859.663 59.0213 859.438 Q59.1823 859.309 59.4722 859.309 Q60.0841 859.309 60.4062 859.567 Q60.696 859.792 60.7604 860.018 Q60.7926 860.211 60.7926 860.565 L60.5994 869.003 L60.7926 877.312 Q60.7926 878.246 60.0519 878.246 Q59.5688 878.246 59.3112 878.182 Q59.0213 878.085 58.9247 877.795 Q58.7959 877.505 58.7959 877.28 Q58.7637 877.055 58.7637 876.443 Q58.7314 874.961 58.7314 874.22 Q58.6992 873.447 58.506 872.707 Q58.3128 871.966 58.1839 871.708 Q58.0229 871.418 57.4754 871.096 Q56.8957 870.742 56.4448 870.646 Q55.9939 870.517 54.8667 870.259 Q53.8684 870.001 48.4256 868.649 Q42.9828 867.296 42.854 867.296 Q42.4997 867.296 41.7268 867.554 L20.02 875.67 Q19.0538 876.024 18.6674 876.314 Q18.2809 876.604 18.0554 877.57 Q17.7978 878.536 17.7978 880.468 Q17.7978 881.016 17.7656 881.273 Q17.7334 881.531 17.5724 881.757 Q17.4113 881.982 17.0571 881.982 Q16.4451 881.982 16.1553 881.724 Q15.8332 881.467 15.801 881.273 Q15.7366 881.048 15.7366 880.726 Q15.7366 879.921 15.8332 877.055 Q15.9299 874.188 15.9299 873.351 L15.7366 865.042 Q15.7366 864.043 16.4774 864.043 Q17.3791 864.043 17.6046 864.398 Q17.7978 864.752 17.7978 865.621 Q17.7978 869.518 19.3759 869.518 Q19.5691 869.518 20.5031 869.132 L40.0843 861.886 L22.4676 846.588 L22.21 846.362 Q21.9524 846.169 21.7591 846.008 Q21.5659 845.847 21.2116 845.589 Q20.8574 845.332 20.5675 845.203 Q20.2776 845.042 19.9234 844.913 Q19.5691 844.784 19.3115 844.784 Q18.8284 844.784 18.5063 845.074 Q18.1521 845.364 18.0232 845.815 Q17.8944 846.266 17.8622 846.588 Q17.7978 846.91 17.7978 847.167 Q17.7978 848.166 16.9926 848.166 Q16.4129 848.166 16.1231 847.908 Q15.801 847.651 15.7688 847.457 Q15.7366 847.232 15.7366 846.91 Q15.7366 845.847 15.8332 843.625 Q15.9299 841.403 15.9299 840.308 Q15.9299 839.406 15.8332 837.57 Q15.7366 835.734 15.7366 834.897 Q15.7366 834.027 16.5418 834.027 Z" fill="#000000" fill-rule="evenodd" fill-opacity="1" /><path clip-path="url(#clip810)" d="M 0 0 M58.5788 822.834 Q59.21 822.834 59.3678 823.128 Q59.5031 823.421 59.5031 824.232 L59.5031 828.561 L73.1197 831.987 Q74.3145 832.258 75.329 832.258 Q76.4562 832.258 76.9522 831.92 Q77.4482 831.559 77.4482 830.815 Q77.4482 829.35 76.1181 827.772 Q74.788 826.171 71.5416 824.818 Q71.1133 824.638 71.0231 824.548 Q70.9104 824.435 70.9104 824.142 Q70.9104 823.578 71.3613 823.578 Q71.5191 823.578 72.2405 823.894 Q72.9619 824.187 74.0215 824.841 Q75.081 825.472 76.073 826.306 Q77.0649 827.118 77.7863 828.358 Q78.4852 829.598 78.4852 830.928 Q78.4852 832.799 77.2904 833.994 Q76.0955 835.166 74.2244 835.166 Q73.6157 835.166 71.6769 834.693 Q69.7155 834.219 59.5031 831.649 L59.5031 835.73 Q59.5031 836.293 59.4805 836.519 Q59.458 836.722 59.3453 836.879 Q59.21 837.015 58.9395 837.015 Q58.5111 837.015 58.3308 836.834 Q58.1279 836.654 58.1053 836.429 Q58.0602 836.181 58.0602 835.617 L58.0602 831.289 L50.7334 829.485 Q50.012 829.305 49.6062 828.854 Q49.1779 828.38 49.1328 828.11 Q49.0651 827.839 49.0651 827.636 Q49.0651 827.028 49.4033 826.667 Q49.7189 826.306 50.3051 826.306 Q50.6207 826.306 58.0602 828.2 L58.0602 824.142 Q58.0602 823.624 58.0828 823.421 Q58.1053 823.195 58.218 823.015 Q58.3308 822.834 58.5788 822.834 Z" fill="#000000" fill-rule="evenodd" fill-opacity="1" /><path clip-path="url(#clip810)" d="M 0 0 M42.8415 813.474 Q32.1994 813.474 23.618 809.506 Q20.0193 807.814 17.0051 805.446 Q13.9908 803.078 12.6682 801.509 Q11.3456 799.94 11.3456 799.51 Q11.3456 798.894 11.9608 798.864 Q12.2684 798.864 13.0373 799.694 Q23.3719 809.844 42.8415 809.813 Q62.3727 809.813 72.3074 799.94 Q73.384 798.864 73.7223 798.864 Q74.3374 798.864 74.3374 799.51 Q74.3374 799.94 73.0764 801.447 Q71.8153 802.954 68.9241 805.292 Q66.0329 807.63 62.4957 809.321 Q53.9143 813.474 42.8415 813.474 Z" fill="#000000" fill-rule="evenodd" fill-opacity="1" /><path clip-path="url(#clip810)" d="M 0 0 M24.5932 782.245 Q18.925 782.245 15.1247 779.347 Q11.3244 776.448 11.3244 772.551 Q11.3244 770.168 13.45 767.817 Q18.5385 762.471 18.5063 755.482 Q18.5063 747.559 12.2584 742.954 Q11.3244 742.149 11.3244 741.569 Q11.3244 741.054 11.7431 740.667 Q12.1296 740.249 12.6449 740.249 Q13.0313 740.249 13.8365 740.764 L63.4979 774.129 Q64.4963 774.87 64.4963 775.45 Q64.4963 775.965 64.0776 776.384 Q63.6911 776.77 63.1759 776.77 Q62.725 776.77 61.8554 776.19 L17.7334 746.561 L17.669 746.625 Q19.9878 750.039 19.9556 755.418 Q19.9556 760.506 17.1859 765.369 Q20.5997 763.984 24.6576 763.984 Q30.1971 763.984 34.0618 766.464 Q37.8943 768.944 37.8943 772.551 Q37.8943 776.448 34.1584 779.347 Q30.3903 782.245 24.5932 782.245 M19.2149 777.704 Q21.5337 778.155 24.6576 778.155 Q27.7494 778.155 30.0682 777.704 Q32.3548 777.253 33.5465 776.609 Q34.7381 775.933 35.4466 775.031 Q36.1229 774.129 36.284 773.582 Q36.445 773.034 36.445 772.487 Q36.445 769.781 33.0956 767.72 Q29.714 765.627 24.5932 765.627 Q19.5691 765.627 16.1875 767.72 Q12.7737 769.781 12.7737 772.487 Q12.7737 773.066 12.9347 773.646 Q13.0957 774.194 13.8043 775.063 Q14.4806 775.933 15.6722 776.609 Q16.8638 777.253 19.2149 777.704 M51.1631 753.034 Q45.4948 753.034 41.6945 750.136 Q37.8943 747.237 37.8943 743.34 Q37.8943 739.766 41.759 737.286 Q45.6237 734.774 51.2275 734.774 Q56.7669 734.774 60.6316 737.253 Q64.4963 739.701 64.4963 743.34 Q64.4963 747.237 60.7282 750.136 Q56.9601 753.034 51.1631 753.034 M45.7847 748.493 Q48.1357 748.944 51.2275 748.944 Q54.3192 748.944 56.6381 748.493 Q58.9569 748.01 60.1485 747.366 Q61.3079 746.69 61.9842 745.82 Q62.6928 744.918 62.8538 744.371 Q63.047 743.791 63.047 743.276 Q63.047 740.571 59.6976 738.51 Q56.316 736.416 51.1631 736.416 Q46.139 736.416 42.7573 738.51 Q39.3435 740.571 39.3435 743.276 Q39.3435 743.856 39.5368 744.435 Q39.6978 744.983 40.4063 745.852 Q41.0826 746.69 42.2743 747.366 Q43.4337 748.01 45.7847 748.493 Z" fill="#000000" fill-rule="evenodd" fill-opacity="1" /><path clip-path="url(#clip810)" d="M 0 0 M59.7298 726.924 Q58.667 727.858 57.2822 727.858 Q55.8973 727.858 54.8667 726.956 Q53.8039 726.022 53.8039 724.348 Q53.8039 722.383 55.7041 721.256 Q57.572 720.129 60.7282 720.129 Q64.142 720.129 67.2982 721.514 Q70.4866 722.898 72.0003 724.251 Q73.5139 725.604 73.5139 726.151 Q73.5139 726.795 72.8054 726.795 Q72.5478 726.795 72.0647 726.344 Q66.9761 721.61 60.7282 721.578 Q59.7298 721.578 59.7298 721.707 L59.8587 721.868 Q60.7926 722.995 60.7926 724.348 Q60.7926 725.99 59.7298 726.924 Z" fill="#000000" fill-rule="evenodd" fill-opacity="1" /><path clip-path="url(#clip810)" d="M 0 0 M43.4981 664.724 Q46.7509 664.724 50.0037 666.399 Q53.2564 668.073 55.7685 670.811 Q58.2484 673.548 59.8587 677.284 Q61.4689 681.02 61.5978 684.917 L71.4206 687.429 Q73.8038 687.912 74.0614 688.17 Q74.3191 688.427 74.3191 688.814 Q74.3191 689.619 73.5783 689.619 Q73.3529 689.619 67.7813 688.17 L61.5978 686.624 Q61.2757 692.485 57.8941 695.899 Q54.5125 699.313 49.6494 699.313 Q46.3644 699.313 43.1116 697.638 Q39.8266 695.931 37.3468 693.194 Q34.8669 690.424 33.2888 686.688 Q31.7107 682.952 31.5819 679.12 L16.3485 675.287 Q15.479 675.094 15.2535 674.933 Q15.0281 674.772 15.0281 674.289 Q15.0281 673.935 15.1891 673.742 Q15.3502 673.548 15.5112 673.548 L15.6722 673.516 L16.6062 673.709 L31.5819 677.413 Q31.8073 674.128 32.9668 671.584 Q34.1262 669.04 35.8653 667.59 Q37.5722 666.141 39.5045 665.432 Q41.4369 664.724 43.4981 664.724 M33.0312 679.506 Q33.3532 683.049 35.0923 686.044 Q36.8315 689.039 39.4079 690.972 Q41.9522 692.904 45.0117 693.967 Q48.0391 695.03 51.0342 695.03 Q53.3853 695.03 55.1888 694.257 Q56.9923 693.452 58.0229 692.131 Q59.0213 690.811 59.5688 689.361 Q60.0841 687.88 60.1485 686.302 L33.0312 679.506 M42.1132 669.04 Q37.9265 669.04 35.5754 671.455 Q33.2244 673.87 33.0312 677.8 L60.1485 684.595 Q59.9231 681.729 58.7314 679.217 Q57.5076 676.672 55.7041 674.837 Q53.8684 673.001 51.614 671.68 Q49.3273 670.36 46.9119 669.716 Q44.4642 669.04 42.1132 669.04 Z" fill="#000000" fill-rule="evenodd" fill-opacity="1" /><path clip-path="url(#clip810)" d="M 0 0 M50.7766 642.094 Q49.9715 642.03 49.9715 640.774 L49.9715 600.355 Q49.9715 598.455 50.7122 598.423 Q51.5173 598.423 51.4851 600.227 L51.4851 640.323 Q51.5173 642.094 50.7766 642.094 M37.8943 642.094 Q37.0891 642.094 37.1213 640.709 L37.1213 600.42 Q37.1213 598.455 37.8943 598.423 Q38.635 598.423 38.635 600.098 L38.635 640.774 Q38.635 642.094 37.8943 642.094 Z" fill="#000000" fill-rule="evenodd" fill-opacity="1" /><path clip-path="url(#clip810)" d="M 0 0 M23.144 572.977 L21.0828 572.977 Q21.0828 565.055 16.8638 560.965 Q16.8638 559.837 17.1215 559.644 Q17.3791 559.451 18.5707 559.451 L55.5753 559.451 Q57.5398 559.451 58.1517 558.485 Q58.7637 557.519 58.7637 553.3 L58.7637 551.206 L60.7926 551.206 Q60.5994 553.525 60.5994 561.899 Q60.5994 570.272 60.7926 572.559 L58.7637 572.559 L58.7637 570.465 Q58.7637 566.311 58.1839 565.312 Q57.572 564.314 55.5753 564.314 L21.4049 564.314 Q23.144 567.76 23.144 572.977 Z" fill="#000000" fill-rule="evenodd" fill-opacity="1" /><path clip-path="url(#clip810)" d="M 0 0 M59.7298 546.065 Q58.667 547.063 57.2822 547.063 Q55.8973 547.063 54.8989 546.065 Q53.8684 545.067 53.8684 543.553 Q53.8684 542.104 54.8345 541.137 Q55.7685 540.139 57.3144 540.139 Q58.8281 540.139 59.8264 541.202 Q60.7926 542.232 60.7926 543.553 Q60.7926 545.067 59.7298 546.065 Z" fill="#000000" fill-rule="evenodd" fill-opacity="1" /><path clip-path="url(#clip810)" d="M 0 0 M60.7926 528.913 Q59.601 528.913 59.2467 528.816 Q58.8925 528.688 58.345 528.172 L44.2388 515.515 Q36.445 508.591 29.6496 508.591 Q25.2374 508.591 22.0812 510.91 Q18.925 513.197 18.925 517.416 Q18.925 520.314 20.6963 522.762 Q22.4676 525.209 25.6238 526.337 Q25.5594 526.143 25.5594 525.467 Q25.5594 523.825 26.59 522.923 Q27.6206 521.989 29.0054 521.989 Q30.7768 521.989 31.6463 523.148 Q32.4837 524.275 32.4837 525.403 Q32.4837 525.854 32.3871 526.465 Q32.2904 527.045 31.3887 527.979 Q30.4547 528.913 28.8122 528.913 Q24.2068 528.913 20.5353 525.435 Q16.8638 521.924 16.8638 516.578 Q16.8638 510.524 20.4709 506.562 Q24.0457 502.569 29.6496 502.569 Q31.6141 502.569 33.4176 503.181 Q35.189 503.76 36.5738 504.565 Q37.9587 505.338 40.1809 507.464 Q42.4031 509.59 43.9812 511.296 Q45.5592 513.003 48.9087 516.836 L55.7041 523.825 L55.7041 511.941 Q55.7041 506.144 55.1888 505.693 Q54.2548 505.049 49.3273 504.243 L49.3273 502.569 L60.7926 504.437 L60.7926 528.913 Z" fill="#000000" fill-rule="evenodd" fill-opacity="1" /><path clip-path="url(#clip810)" d="M 0 0 M50.1647 496.249 Q48.2001 496.249 47.4594 495.186 Q46.6865 494.123 46.6865 492.996 Q46.6865 491.483 47.6526 490.613 Q48.5866 489.711 49.907 489.711 Q51.2275 489.711 52.1937 490.613 Q53.1276 491.483 53.1276 492.996 Q53.1276 493.737 52.9988 494.123 Q56.0262 493.254 58.2162 490.613 Q60.4062 487.94 60.4062 484.429 Q60.4062 480.017 56.1228 477.376 Q53.3531 475.798 47.0729 475.798 Q41.5335 475.798 38.7638 476.99 Q34.5448 478.826 34.5448 482.594 Q34.5448 487.94 39.1503 491.096 Q39.73 491.483 39.7622 491.933 Q39.7622 492.578 39.4079 492.739 Q39.0215 492.867 38.0231 492.867 L18.5063 492.867 Q16.9282 492.867 16.9282 492.223 Q16.9282 491.966 17.1215 491.418 Q18.9572 487.264 18.9894 482.658 Q18.9894 477.924 17.0571 473.673 Q16.8638 473.351 16.8638 473.157 Q16.8638 472.513 17.6046 472.481 Q17.8622 472.481 18.6351 473.029 Q19.3759 473.544 20.3743 474.671 Q21.3404 475.798 22.2744 477.248 Q23.2084 478.697 23.8525 480.822 Q24.4644 482.916 24.4644 485.235 Q24.4644 488.004 23.5949 490.838 L36.445 490.838 Q33.0956 487.425 33.0956 482.465 Q33.0956 477.183 37.3468 473.544 Q41.5979 469.905 47.5238 469.905 Q53.7395 469.905 57.9907 474.22 Q62.2419 478.504 62.2419 484.301 Q62.2419 489.582 58.4738 492.932 Q54.7057 496.249 50.1647 496.249 Z" fill="#000000" fill-rule="evenodd" fill-opacity="1" /><path clip-path="url(#clip810)" d="M 0 0 M73.7223 463.131 Q73.4147 463.131 72.6458 462.331 Q62.3112 452.181 42.8415 452.181 Q23.3104 452.181 13.4372 461.931 Q12.2991 463.131 11.9608 463.131 Q11.3456 463.131 11.3456 462.516 Q11.3456 462.085 12.6067 460.578 Q13.8678 459.04 16.759 456.733 Q19.6502 454.396 23.1874 452.673 Q31.7688 448.521 42.8415 448.521 Q53.4837 448.521 62.0651 452.489 Q65.6638 454.18 68.678 456.549 Q71.6923 458.917 73.0149 460.486 Q74.3374 462.054 74.3374 462.516 Q74.3374 463.131 73.7223 463.131 Z" fill="#000000" fill-rule="evenodd" fill-opacity="1" /><polyline clip-path="url(#clip813)" style="stroke:#0000ff; stroke-width:4; stroke-opacity:1; fill:none" stroke-dasharray="16, 10" points="
  330.208,911.403 781.114,773.857 1232.02,675.439 1682.93,579.197 
  "/>
<polyline clip-path="url(#clip813)" style="stroke:#5500aa; stroke-width:4; stroke-opacity:1; fill:none" points="
  330.208,1400.1 781.114,963.583 1232.02,468.285 1682.93,86.6476 
  "/>
<polyline clip-path="url(#clip813)" style="stroke:#aa0055; stroke-width:4; stroke-opacity:1; fill:none" stroke-dasharray="16, 10" points="
  330.208,827.319 781.114,765.941 1232.02,749.85 1682.93,741.607 
  "/>
<polyline clip-path="url(#clip813)" style="stroke:#ff0000; stroke-width:4; stroke-opacity:1; fill:none" points="
  330.208,1130.74 781.114,519.207 1232.02,312.329 1682.93,208.097 
  "/>
<path clip-path="url(#clip810)" d="
M1792.28 358.253 L2352.76 358.253 L2352.76 93.6527 L1792.28 93.6527  Z
  " fill="#ffffff" fill-rule="evenodd" fill-opacity="1"/>
<polyline clip-path="url(#clip810)" style="stroke:#000000; stroke-width:4; stroke-opacity:1; fill:none" points="
  1792.28,358.253 2352.76,358.253 2352.76,93.6527 1792.28,93.6527 1792.28,358.253 
  "/>
<polyline clip-path="url(#clip810)" style="stroke:#0000ff; stroke-width:3.5; stroke-opacity:1; fill:none" stroke-dasharray="14, 9" points="
  1815.2,146.573 1952.74,146.573 
  "/>
<path clip-path="url(#clip810)" d="M 0 0 M2004.22 128.673 Q2004.22 129.062 2004.13 129.39 L2002.99 136.686 Q2002.92 137.239 2002.8 137.444 Q2002.7 137.649 2002.37 137.649 Q2001.86 137.649 2001.86 137.116 Q2001.86 136.809 2001.98 136.317 Q2002.33 134.001 2002.33 132.956 Q2002.33 132.259 2002.19 131.747 Q2002.06 131.214 2001.86 130.845 Q2001.67 130.476 2001.24 130.23 Q2000.81 129.984 2000.4 129.841 Q1999.99 129.697 1999.26 129.636 Q1998.52 129.554 1997.88 129.533 Q1997.25 129.513 1996.2 129.513 Q1993.93 129.513 1993.56 129.595 Q1993.17 129.697 1992.96 130.005 Q1992.78 130.292 1992.58 131.153 L1987 153.43 L1986.84 154.311 Q1986.84 154.803 1987.14 154.967 Q1987.45 155.131 1988.39 155.234 Q1989.75 155.336 1991.08 155.336 Q1991.12 155.336 1991.2 155.336 Q1991.65 155.336 1991.84 155.357 Q1992.02 155.357 1992.21 155.398 Q1992.39 155.439 1992.43 155.541 Q1992.49 155.623 1992.49 155.787 Q1992.49 156.176 1992.33 156.381 Q1992.17 156.566 1992 156.607 Q1991.86 156.627 1991.57 156.627 Q1991 156.627 1989.77 156.586 Q1988.54 156.545 1987.92 156.545 L1984.44 156.504 L1980.87 156.545 Q1980.32 156.545 1979.15 156.586 Q1977.98 156.627 1977.43 156.627 Q1976.71 156.627 1976.71 156.115 Q1976.71 155.541 1976.98 155.439 Q1977.27 155.336 1978.47 155.336 Q1980.18 155.336 1981.1 155.254 Q1982.02 155.172 1982.51 154.885 Q1983.02 154.598 1983.17 154.311 Q1983.31 154.004 1983.48 153.307 L1989.11 130.907 Q1989.28 130.415 1989.28 130.025 Q1989.28 129.82 1989.21 129.738 Q1989.17 129.656 1988.91 129.595 Q1988.64 129.513 1988.09 129.513 L1986.45 129.513 Q1984.77 129.513 1983.72 129.595 Q1982.7 129.656 1981.71 129.964 Q1980.75 130.271 1980.18 130.702 Q1979.62 131.132 1979.01 132.013 Q1978.39 132.895 1977.94 133.96 Q1977.51 135.026 1976.9 136.768 Q1976.69 137.342 1976.57 137.506 Q1976.47 137.649 1976.18 137.649 Q1975.97 137.649 1975.81 137.526 Q1975.67 137.383 1975.67 137.198 Q1975.87 136.522 1975.91 136.44 L1978.43 129.042 Q1978.64 128.447 1978.82 128.345 Q1979.03 128.222 1979.79 128.222 L2003.07 128.222 Q2003.44 128.222 2003.56 128.222 Q2003.68 128.222 2003.89 128.263 Q2004.09 128.304 2004.15 128.406 Q2004.22 128.509 2004.22 128.673 Z" fill="#000000" fill-rule="evenodd" fill-opacity="1" /><path clip-path="url(#clip810)" d="M 0 0 M2011.58 150.254 Q2011.63 149.741 2012.42 149.741 L2038.15 149.741 Q2039.35 149.741 2039.38 150.213 Q2039.38 150.725 2038.23 150.704 L2012.71 150.704 Q2011.58 150.725 2011.58 150.254 M2011.58 142.056 Q2011.58 141.543 2012.47 141.564 L2038.1 141.564 Q2039.35 141.564 2039.38 142.056 Q2039.38 142.527 2038.31 142.527 L2012.42 142.527 Q2011.58 142.527 2011.58 142.056 Z" fill="#000000" fill-rule="evenodd" fill-opacity="1" /><path clip-path="url(#clip810)" d="M 0 0 M2055.56 143.203 Q2055.56 137.035 2057.12 133.673 Q2059.29 128.673 2064.41 128.673 Q2065.5 128.673 2066.63 128.98 Q2067.77 129.267 2069.21 130.394 Q2070.66 131.521 2071.54 133.366 Q2073.23 136.932 2073.23 143.203 Q2073.23 149.331 2071.67 152.672 Q2069.39 157.55 2064.37 157.55 Q2062.49 157.55 2060.56 156.586 Q2058.65 155.623 2057.44 153.307 Q2055.56 149.844 2055.56 143.203 M2059.04 142.691 Q2059.04 149.024 2059.49 151.545 Q2060.01 154.27 2061.4 155.459 Q2062.81 156.627 2064.37 156.627 Q2066.05 156.627 2067.45 155.377 Q2068.86 154.107 2069.29 151.381 Q2069.76 148.696 2069.74 142.691 Q2069.74 136.85 2069.33 134.514 Q2068.78 131.788 2067.3 130.702 Q2065.85 129.595 2064.37 129.595 Q2063.82 129.595 2063.22 129.759 Q2062.65 129.923 2061.81 130.394 Q2060.97 130.866 2060.31 132.034 Q2059.68 133.202 2059.37 134.965 Q2059.04 137.239 2059.04 142.691 Z" fill="#000000" fill-rule="evenodd" fill-opacity="1" /><path clip-path="url(#clip810)" d="M 0 0 M2076.98 155.951 Q2076.34 155.275 2076.34 154.393 Q2076.34 153.512 2076.98 152.877 Q2077.61 152.221 2078.57 152.221 Q2079.5 152.221 2080.11 152.836 Q2080.75 153.43 2080.75 154.414 Q2080.75 155.377 2080.07 156.013 Q2079.41 156.627 2078.57 156.627 Q2077.61 156.627 2076.98 155.951 Z" fill="#000000" fill-rule="evenodd" fill-opacity="1" /><path clip-path="url(#clip810)" d="M 0 0 M2087.89 143.203 Q2087.89 137.035 2089.45 133.673 Q2091.62 128.673 2096.74 128.673 Q2097.83 128.673 2098.95 128.98 Q2100.1 129.267 2101.54 130.394 Q2102.99 131.521 2103.87 133.366 Q2105.55 136.932 2105.55 143.203 Q2105.55 149.331 2104 152.672 Q2101.72 157.55 2096.7 157.55 Q2094.81 157.55 2092.89 156.586 Q2090.98 155.623 2089.77 153.307 Q2087.89 149.844 2087.89 143.203 M2091.37 142.691 Q2091.37 149.024 2091.82 151.545 Q2092.33 154.27 2093.73 155.459 Q2095.14 156.627 2096.7 156.627 Q2098.38 156.627 2099.77 155.377 Q2101.19 154.107 2101.62 151.381 Q2102.09 148.696 2102.07 142.691 Q2102.07 136.85 2101.66 134.514 Q2101.11 131.788 2099.63 130.702 Q2098.18 129.595 2096.7 129.595 Q2096.15 129.595 2095.55 129.759 Q2094.98 129.923 2094.14 130.394 Q2093.3 130.866 2092.64 132.034 Q2092.01 133.202 2091.7 134.965 Q2091.37 137.239 2091.37 142.691 Z" fill="#000000" fill-rule="evenodd" fill-opacity="1" /><path clip-path="url(#clip810)" d="M 0 0 M2109.26 155.951 Q2108.67 155.275 2108.67 154.393 Q2108.67 153.512 2109.24 152.856 Q2109.84 152.18 2110.9 152.18 Q2112.15 152.18 2112.87 153.389 Q2113.59 154.578 2113.59 156.586 Q2113.59 158.759 2112.71 160.767 Q2111.83 162.796 2110.96 163.76 Q2110.1 164.723 2109.76 164.723 Q2109.35 164.723 2109.35 164.272 Q2109.35 164.108 2109.63 163.801 Q2112.64 160.562 2112.67 156.586 Q2112.67 155.951 2112.58 155.951 L2112.48 156.033 Q2111.76 156.627 2110.9 156.627 Q2109.86 156.627 2109.26 155.951 Z" fill="#000000" fill-rule="evenodd" fill-opacity="1" /><path clip-path="url(#clip810)" d="M 0 0 M2147.43 150.622 Q2146.92 153.143 2145.87 154.906 Q2144.58 157.099 2142.61 157.099 Q2140.95 157.099 2139.84 155.951 Q2138.74 154.783 2138.74 152.938 Q2138.74 152.385 2138.96 151.463 Q2139.05 151.053 2139.05 150.54 Q2139.05 147.22 2131.85 146.974 Q2131.26 149.331 2130.85 150.93 Q2130.46 152.508 2130.33 152.979 Q2130.21 153.451 2130.11 153.84 Q2130.03 154.23 2129.88 154.742 Q2129.68 155.582 2129.54 155.992 Q2129.39 156.402 2129 156.75 Q2128.63 157.099 2128.04 157.099 Q2127.53 157.099 2127.18 156.791 Q2126.83 156.484 2126.83 155.951 Q2126.83 155.582 2126.99 154.988 L2130.85 139.596 Q2130.95 139.166 2131.15 138.859 Q2131.36 138.551 2131.54 138.408 Q2131.75 138.264 2132 138.182 Q2132.24 138.1 2132.34 138.1 Q2132.45 138.08 2132.53 138.08 Q2133.08 138.08 2133.41 138.387 Q2133.76 138.674 2133.76 139.207 Q2133.76 139.289 2133.61 139.863 Q2133.49 140.416 2133.29 141.256 Q2133.08 142.097 2133 142.486 L2132.16 145.765 Q2133.33 145.376 2134.37 144.679 Q2135.44 143.982 2137.53 142.179 Q2138.49 141.379 2139.07 140.928 Q2139.66 140.457 2140.64 139.822 Q2141.63 139.166 2142.57 138.859 Q2143.51 138.531 2144.41 138.531 Q2145.11 138.531 2145.52 138.859 Q2145.93 139.166 2146.01 139.453 Q2146.1 139.719 2146.1 140.006 Q2146.1 140.847 2145.44 141.564 Q2144.78 142.281 2143.82 142.281 Q2142.96 142.281 2142.59 141.81 Q2142.22 141.338 2142.22 140.806 Q2142.22 140.396 2142.43 139.883 Q2141.28 140.375 2140.3 141.092 Q2139.31 141.789 2137.61 143.244 Q2135.19 145.314 2133.76 146.093 Q2134.58 146.114 2135.19 146.175 Q2135.83 146.216 2136.89 146.36 Q2137.96 146.503 2138.74 146.81 Q2139.52 147.097 2140.27 147.548 Q2141.05 147.999 2141.46 148.737 Q2141.89 149.475 2141.89 150.418 Q2141.89 150.868 2141.69 151.791 Q2141.34 153.307 2141.34 154.148 Q2141.34 155.213 2141.67 155.685 Q2142.02 156.156 2142.69 156.156 Q2143.98 156.156 2144.8 154.824 Q2145.64 153.471 2146.34 150.971 Q2146.44 150.499 2146.55 150.356 Q2146.65 150.213 2146.94 150.213 Q2147.43 150.213 2147.43 150.622 Z" fill="#000000" fill-rule="evenodd" fill-opacity="1" /><path clip-path="url(#clip810)" d="M 0 0 M2162.4 150.254 Q2162.44 149.741 2163.24 149.741 L2188.96 149.741 Q2190.17 149.741 2190.19 150.213 Q2190.19 150.725 2189.05 150.704 L2163.53 150.704 Q2162.4 150.725 2162.4 150.254 M2162.4 142.056 Q2162.4 141.543 2163.28 141.564 L2188.92 141.564 Q2190.17 141.564 2190.19 142.056 Q2190.19 142.527 2189.13 142.527 L2163.24 142.527 Q2162.4 142.527 2162.4 142.056 Z" fill="#000000" fill-rule="evenodd" fill-opacity="1" /><path clip-path="url(#clip810)" d="M 0 0 M2206.38 150.971 Q2206.38 149.721 2207.09 149.126 Q2207.81 148.532 2208.73 148.532 Q2209.7 148.532 2210.37 149.167 Q2211.07 149.782 2211.07 150.868 Q2211.07 152.037 2210.25 152.692 Q2209.45 153.348 2208.3 153.184 Q2209.31 154.865 2211.15 155.623 Q2213.02 156.381 2214.74 156.381 Q2216.54 156.381 2218 154.824 Q2219.47 153.266 2219.47 149.454 Q2219.47 146.216 2218.2 144.351 Q2216.95 142.486 2214.47 142.486 L2212.63 142.486 Q2211.99 142.486 2211.81 142.425 Q2211.62 142.363 2211.62 142.015 Q2211.62 141.605 2212.26 141.523 Q2212.89 141.523 2213.9 141.4 Q2216.34 141.318 2217.63 139.207 Q2218.8 137.239 2218.8 134.432 Q2218.8 131.87 2217.57 130.804 Q2216.36 129.718 2214.78 129.718 Q2213.3 129.718 2211.69 130.333 Q2210.07 130.948 2209.19 132.321 Q2211.79 132.321 2211.79 134.432 Q2211.79 135.354 2211.19 135.969 Q2210.62 136.563 2209.66 136.563 Q2208.73 136.563 2208.12 135.989 Q2207.5 135.395 2207.5 134.391 Q2207.5 131.993 2209.64 130.333 Q2211.79 128.673 2214.94 128.673 Q2218.06 128.673 2220.35 130.312 Q2222.67 131.952 2222.67 134.473 Q2222.67 136.953 2221.03 138.981 Q2219.39 141.01 2216.79 141.851 Q2219.99 142.486 2221.89 144.659 Q2223.8 146.81 2223.8 149.454 Q2223.8 152.733 2221.22 155.152 Q2218.63 157.55 2214.86 157.55 Q2211.38 157.55 2208.88 155.664 Q2206.38 153.779 2206.38 150.971 Z" fill="#000000" fill-rule="evenodd" fill-opacity="1" /><polyline clip-path="url(#clip810)" style="stroke:#5500aa; stroke-width:3.5; stroke-opacity:1; fill:none" points="
  1815.2,199.493 1952.74,199.493 
  "/>
<path clip-path="url(#clip810)" d="M 0 0 M2004.22 181.593 Q2004.22 181.982 2004.13 182.31 L2002.99 189.606 Q2002.92 190.159 2002.8 190.364 Q2002.7 190.569 2002.37 190.569 Q2001.86 190.569 2001.86 190.036 Q2001.86 189.729 2001.98 189.237 Q2002.33 186.921 2002.33 185.876 Q2002.33 185.179 2002.19 184.667 Q2002.06 184.134 2001.86 183.765 Q2001.67 183.396 2001.24 183.15 Q2000.81 182.904 2000.4 182.761 Q1999.99 182.617 1999.26 182.556 Q1998.52 182.474 1997.88 182.453 Q1997.25 182.433 1996.2 182.433 Q1993.93 182.433 1993.56 182.515 Q1993.17 182.617 1992.96 182.925 Q1992.78 183.212 1992.58 184.073 L1987 206.35 L1986.84 207.231 Q1986.84 207.723 1987.14 207.887 Q1987.45 208.051 1988.39 208.154 Q1989.75 208.256 1991.08 208.256 Q1991.12 208.256 1991.2 208.256 Q1991.65 208.256 1991.84 208.277 Q1992.02 208.277 1992.21 208.318 Q1992.39 208.359 1992.43 208.461 Q1992.49 208.543 1992.49 208.707 Q1992.49 209.096 1992.33 209.301 Q1992.17 209.486 1992 209.527 Q1991.86 209.547 1991.57 209.547 Q1991 209.547 1989.77 209.506 Q1988.54 209.465 1987.92 209.465 L1984.44 209.424 L1980.87 209.465 Q1980.32 209.465 1979.15 209.506 Q1977.98 209.547 1977.43 209.547 Q1976.71 209.547 1976.71 209.035 Q1976.71 208.461 1976.98 208.359 Q1977.27 208.256 1978.47 208.256 Q1980.18 208.256 1981.1 208.174 Q1982.02 208.092 1982.51 207.805 Q1983.02 207.518 1983.17 207.231 Q1983.31 206.924 1983.48 206.227 L1989.11 183.827 Q1989.28 183.335 1989.28 182.945 Q1989.28 182.74 1989.21 182.658 Q1989.17 182.576 1988.91 182.515 Q1988.64 182.433 1988.09 182.433 L1986.45 182.433 Q1984.77 182.433 1983.72 182.515 Q1982.7 182.576 1981.71 182.884 Q1980.75 183.191 1980.18 183.622 Q1979.62 184.052 1979.01 184.933 Q1978.39 185.815 1977.94 186.88 Q1977.51 187.946 1976.9 189.688 Q1976.69 190.262 1976.57 190.426 Q1976.47 190.569 1976.18 190.569 Q1975.97 190.569 1975.81 190.446 Q1975.67 190.303 1975.67 190.118 Q1975.87 189.442 1975.91 189.36 L1978.43 181.962 Q1978.64 181.367 1978.82 181.265 Q1979.03 181.142 1979.79 181.142 L2003.07 181.142 Q2003.44 181.142 2003.56 181.142 Q2003.68 181.142 2003.89 181.183 Q2004.09 181.224 2004.15 181.326 Q2004.22 181.429 2004.22 181.593 Z" fill="#000000" fill-rule="evenodd" fill-opacity="1" /><path clip-path="url(#clip810)" d="M 0 0 M2011.58 203.174 Q2011.63 202.661 2012.42 202.661 L2038.15 202.661 Q2039.35 202.661 2039.38 203.133 Q2039.38 203.645 2038.23 203.624 L2012.71 203.624 Q2011.58 203.645 2011.58 203.174 M2011.58 194.976 Q2011.58 194.463 2012.47 194.484 L2038.1 194.484 Q2039.35 194.484 2039.38 194.976 Q2039.38 195.447 2038.31 195.447 L2012.42 195.447 Q2011.58 195.447 2011.58 194.976 Z" fill="#000000" fill-rule="evenodd" fill-opacity="1" /><path clip-path="url(#clip810)" d="M 0 0 M2055.56 209.547 Q2055.56 208.789 2055.62 208.564 Q2055.7 208.338 2056.03 207.99 L2064.08 199.013 Q2068.49 194.053 2068.49 189.729 Q2068.49 186.921 2067.02 184.913 Q2065.56 182.904 2062.88 182.904 Q2061.03 182.904 2059.47 184.032 Q2057.92 185.159 2057.2 187.167 Q2057.32 187.126 2057.75 187.126 Q2058.8 187.126 2059.37 187.782 Q2059.97 188.438 2059.97 189.319 Q2059.97 190.446 2059.23 191 Q2058.51 191.533 2057.79 191.533 Q2057.51 191.533 2057.12 191.471 Q2056.75 191.41 2056.15 190.836 Q2055.56 190.241 2055.56 189.196 Q2055.56 186.265 2057.77 183.929 Q2060.01 181.593 2063.41 181.593 Q2067.26 181.593 2069.78 183.888 Q2072.32 186.163 2072.32 189.729 Q2072.32 190.979 2071.93 192.127 Q2071.57 193.254 2071.05 194.135 Q2070.56 195.017 2069.21 196.431 Q2067.86 197.845 2066.77 198.849 Q2065.68 199.853 2063.24 201.985 L2058.8 206.309 L2066.36 206.309 Q2070.05 206.309 2070.34 205.981 Q2070.75 205.387 2071.26 202.251 L2072.32 202.251 L2071.13 209.547 L2055.56 209.547 Z" fill="#000000" fill-rule="evenodd" fill-opacity="1" /><path clip-path="url(#clip810)" d="M 0 0 M2076.34 196.123 Q2076.34 189.955 2077.9 186.593 Q2080.07 181.593 2085.19 181.593 Q2086.28 181.593 2087.41 181.9 Q2088.56 182.187 2089.99 183.314 Q2091.44 184.441 2092.33 186.286 Q2094.01 189.852 2094.01 196.123 Q2094.01 202.251 2092.45 205.592 Q2090.17 210.47 2085.15 210.47 Q2083.27 210.47 2081.34 209.506 Q2079.43 208.543 2078.23 206.227 Q2076.34 202.764 2076.34 196.123 M2079.82 195.611 Q2079.82 201.944 2080.28 204.465 Q2080.79 207.19 2082.18 208.379 Q2083.6 209.547 2085.15 209.547 Q2086.83 209.547 2088.23 208.297 Q2089.64 207.027 2090.07 204.301 Q2090.54 201.616 2090.52 195.611 Q2090.52 189.77 2090.11 187.434 Q2089.56 184.708 2088.08 183.622 Q2086.63 182.515 2085.15 182.515 Q2084.6 182.515 2084.01 182.679 Q2083.43 182.843 2082.59 183.314 Q2081.75 183.786 2081.1 184.954 Q2080.46 186.122 2080.15 187.885 Q2079.82 190.159 2079.82 195.611 Z" fill="#000000" fill-rule="evenodd" fill-opacity="1" /><path clip-path="url(#clip810)" d="M 0 0 M2097.12 196.123 Q2097.12 189.955 2098.68 186.593 Q2100.85 181.593 2105.98 181.593 Q2107.06 181.593 2108.19 181.9 Q2109.34 182.187 2110.77 183.314 Q2112.23 184.441 2113.11 186.286 Q2114.79 189.852 2114.79 196.123 Q2114.79 202.251 2113.23 205.592 Q2110.96 210.47 2105.93 210.47 Q2104.05 210.47 2102.12 209.506 Q2100.22 208.543 2099.01 206.227 Q2097.12 202.764 2097.12 196.123 M2100.61 195.611 Q2100.61 201.944 2101.06 204.465 Q2101.57 207.19 2102.96 208.379 Q2104.38 209.547 2105.93 209.547 Q2107.61 209.547 2109.01 208.297 Q2110.42 207.027 2110.85 204.301 Q2111.32 201.616 2111.3 195.611 Q2111.3 189.77 2110.89 187.434 Q2110.34 184.708 2108.86 183.622 Q2107.41 182.515 2105.93 182.515 Q2105.38 182.515 2104.79 182.679 Q2104.21 182.843 2103.37 183.314 Q2102.53 183.786 2101.88 184.954 Q2101.24 186.122 2100.93 187.885 Q2100.61 190.159 2100.61 195.611 Z" fill="#000000" fill-rule="evenodd" fill-opacity="1" /><path clip-path="url(#clip810)" d="M 0 0 M2118.54 208.871 Q2117.9 208.195 2117.9 207.313 Q2117.9 206.432 2118.54 205.797 Q2119.17 205.141 2120.14 205.141 Q2121.06 205.141 2121.67 205.756 Q2122.31 206.35 2122.31 207.334 Q2122.31 208.297 2121.63 208.933 Q2120.98 209.547 2120.14 209.547 Q2119.17 209.547 2118.54 208.871 Z" fill="#000000" fill-rule="evenodd" fill-opacity="1" /><path clip-path="url(#clip810)" d="M 0 0 M2129.45 196.123 Q2129.45 189.955 2131.01 186.593 Q2133.18 181.593 2138.3 181.593 Q2139.39 181.593 2140.52 181.9 Q2141.66 182.187 2143.1 183.314 Q2144.55 184.441 2145.44 186.286 Q2147.12 189.852 2147.12 196.123 Q2147.12 202.251 2145.56 205.592 Q2143.28 210.47 2138.26 210.47 Q2136.38 210.47 2134.45 209.506 Q2132.54 208.543 2131.34 206.227 Q2129.45 202.764 2129.45 196.123 M2132.93 195.611 Q2132.93 201.944 2133.39 204.465 Q2133.9 207.19 2135.29 208.379 Q2136.71 209.547 2138.26 209.547 Q2139.94 209.547 2141.34 208.297 Q2142.75 207.027 2143.18 204.301 Q2143.65 201.616 2143.63 195.611 Q2143.63 189.77 2143.22 187.434 Q2142.67 184.708 2141.19 183.622 Q2139.74 182.515 2138.26 182.515 Q2137.71 182.515 2137.12 182.679 Q2136.54 182.843 2135.7 183.314 Q2134.86 183.786 2134.2 184.954 Q2133.57 186.122 2133.26 187.885 Q2132.93 190.159 2132.93 195.611 Z" fill="#000000" fill-rule="evenodd" fill-opacity="1" /><path clip-path="url(#clip810)" d="M 0 0 M2150.83 208.871 Q2150.23 208.195 2150.23 207.313 Q2150.23 206.432 2150.81 205.776 Q2151.4 205.1 2152.47 205.1 Q2153.72 205.1 2154.43 206.309 Q2155.15 207.498 2155.15 209.506 Q2155.15 211.679 2154.27 213.687 Q2153.39 215.716 2152.53 216.68 Q2151.67 217.643 2151.32 217.643 Q2150.91 217.643 2150.91 217.192 Q2150.91 217.028 2151.19 216.721 Q2154.21 213.482 2154.23 209.506 Q2154.23 208.871 2154.15 208.871 L2154.04 208.953 Q2153.33 209.547 2152.47 209.547 Q2151.42 209.547 2150.83 208.871 Z" fill="#000000" fill-rule="evenodd" fill-opacity="1" /><path clip-path="url(#clip810)" d="M 0 0 M2188.99 203.542 Q2188.48 206.063 2187.43 207.826 Q2186.14 210.019 2184.17 210.019 Q2182.51 210.019 2181.41 208.871 Q2180.3 207.703 2180.3 205.858 Q2180.3 205.305 2180.53 204.383 Q2180.61 203.973 2180.61 203.46 Q2180.61 200.14 2173.41 199.894 Q2172.82 202.251 2172.41 203.85 Q2172.02 205.428 2171.9 205.899 Q2171.77 206.371 2171.67 206.76 Q2171.59 207.15 2171.45 207.662 Q2171.24 208.502 2171.1 208.912 Q2170.95 209.322 2170.57 209.67 Q2170.2 210.019 2169.6 210.019 Q2169.09 210.019 2168.74 209.711 Q2168.39 209.404 2168.39 208.871 Q2168.39 208.502 2168.56 207.908 L2172.41 192.516 Q2172.51 192.086 2172.72 191.779 Q2172.92 191.471 2173.11 191.328 Q2173.31 191.184 2173.56 191.102 Q2173.8 191.02 2173.91 191.02 Q2174.01 191 2174.09 191 Q2174.64 191 2174.97 191.307 Q2175.32 191.594 2175.32 192.127 Q2175.32 192.209 2175.18 192.783 Q2175.05 193.336 2174.85 194.176 Q2174.64 195.017 2174.56 195.406 L2173.72 198.685 Q2174.89 198.296 2175.93 197.599 Q2177 196.902 2179.09 195.099 Q2180.05 194.299 2180.63 193.848 Q2181.22 193.377 2182.21 192.742 Q2183.19 192.086 2184.13 191.779 Q2185.08 191.451 2185.98 191.451 Q2186.67 191.451 2187.08 191.779 Q2187.49 192.086 2187.58 192.373 Q2187.66 192.639 2187.66 192.926 Q2187.66 193.767 2187 194.484 Q2186.35 195.201 2185.38 195.201 Q2184.52 195.201 2184.15 194.73 Q2183.78 194.258 2183.78 193.726 Q2183.78 193.316 2183.99 192.803 Q2182.84 193.295 2181.86 194.012 Q2180.87 194.709 2179.17 196.164 Q2176.75 198.234 2175.32 199.013 Q2176.14 199.034 2176.75 199.095 Q2177.39 199.136 2178.46 199.28 Q2179.52 199.423 2180.3 199.73 Q2181.08 200.017 2181.84 200.468 Q2182.62 200.919 2183.03 201.657 Q2183.46 202.395 2183.46 203.338 Q2183.46 203.788 2183.25 204.711 Q2182.9 206.227 2182.9 207.068 Q2182.9 208.133 2183.23 208.605 Q2183.58 209.076 2184.26 209.076 Q2185.55 209.076 2186.37 207.744 Q2187.21 206.391 2187.9 203.891 Q2188.01 203.419 2188.11 203.276 Q2188.21 203.133 2188.5 203.133 Q2188.99 203.133 2188.99 203.542 Z" fill="#000000" fill-rule="evenodd" fill-opacity="1" /><path clip-path="url(#clip810)" d="M 0 0 M2203.97 203.174 Q2204.01 202.661 2204.81 202.661 L2230.53 202.661 Q2231.74 202.661 2231.76 203.133 Q2231.76 203.645 2230.61 203.624 L2205.09 203.624 Q2203.97 203.645 2203.97 203.174 M2203.97 194.976 Q2203.97 194.463 2204.85 194.484 L2230.49 194.484 Q2231.74 194.484 2231.76 194.976 Q2231.76 195.447 2230.69 195.447 L2204.81 195.447 Q2203.97 195.447 2203.97 194.976 Z" fill="#000000" fill-rule="evenodd" fill-opacity="1" /><path clip-path="url(#clip810)" d="M 0 0 M2247.94 203.891 Q2247.94 202.641 2248.66 202.046 Q2249.37 201.452 2250.3 201.452 Q2251.26 201.452 2251.94 202.087 Q2252.63 202.702 2252.63 203.788 Q2252.63 204.957 2251.81 205.612 Q2251.01 206.268 2249.87 206.104 Q2250.87 207.785 2252.72 208.543 Q2254.58 209.301 2256.3 209.301 Q2258.11 209.301 2259.56 207.744 Q2261.04 206.186 2261.04 202.374 Q2261.04 199.136 2259.77 197.271 Q2258.52 195.406 2256.04 195.406 L2254.19 195.406 Q2253.56 195.406 2253.37 195.345 Q2253.19 195.283 2253.19 194.935 Q2253.19 194.525 2253.82 194.443 Q2254.46 194.443 2255.46 194.32 Q2257.9 194.238 2259.19 192.127 Q2260.36 190.159 2260.36 187.352 Q2260.36 184.79 2259.13 183.724 Q2257.92 182.638 2256.34 182.638 Q2254.87 182.638 2253.25 183.253 Q2251.63 183.868 2250.75 185.241 Q2253.35 185.241 2253.35 187.352 Q2253.35 188.274 2252.76 188.889 Q2252.18 189.483 2251.22 189.483 Q2250.3 189.483 2249.68 188.909 Q2249.07 188.315 2249.07 187.311 Q2249.07 184.913 2251.2 183.253 Q2253.35 181.593 2256.51 181.593 Q2259.62 181.593 2261.92 183.232 Q2264.23 184.872 2264.23 187.393 Q2264.23 189.873 2262.59 191.901 Q2260.95 193.93 2258.35 194.771 Q2261.55 195.406 2263.45 197.579 Q2265.36 199.73 2265.36 202.374 Q2265.36 205.653 2262.78 208.072 Q2260.2 210.47 2256.42 210.47 Q2252.94 210.47 2250.44 208.584 Q2247.94 206.699 2247.94 203.891 Z" fill="#000000" fill-rule="evenodd" fill-opacity="1" /><polyline clip-path="url(#clip810)" style="stroke:#aa0055; stroke-width:3.5; stroke-opacity:1; fill:none" stroke-dasharray="14, 9" points="
  1815.2,252.413 1952.74,252.413 
  "/>
<path clip-path="url(#clip810)" d="M 0 0 M2004.22 234.513 Q2004.22 234.902 2004.13 235.23 L2002.99 242.526 Q2002.92 243.079 2002.8 243.284 Q2002.7 243.489 2002.37 243.489 Q2001.86 243.489 2001.86 242.956 Q2001.86 242.649 2001.98 242.157 Q2002.33 239.841 2002.33 238.796 Q2002.33 238.099 2002.19 237.587 Q2002.06 237.054 2001.86 236.685 Q2001.67 236.316 2001.24 236.07 Q2000.81 235.824 2000.4 235.681 Q1999.99 235.537 1999.26 235.476 Q1998.52 235.394 1997.88 235.373 Q1997.25 235.353 1996.2 235.353 Q1993.93 235.353 1993.56 235.435 Q1993.17 235.537 1992.96 235.845 Q1992.78 236.132 1992.58 236.993 L1987 259.27 L1986.84 260.151 Q1986.84 260.643 1987.14 260.807 Q1987.45 260.971 1988.39 261.074 Q1989.75 261.176 1991.08 261.176 Q1991.12 261.176 1991.2 261.176 Q1991.65 261.176 1991.84 261.197 Q1992.02 261.197 1992.21 261.238 Q1992.39 261.279 1992.43 261.381 Q1992.49 261.463 1992.49 261.627 Q1992.49 262.016 1992.33 262.221 Q1992.17 262.406 1992 262.447 Q1991.86 262.467 1991.57 262.467 Q1991 262.467 1989.77 262.426 Q1988.54 262.385 1987.92 262.385 L1984.44 262.344 L1980.87 262.385 Q1980.32 262.385 1979.15 262.426 Q1977.98 262.467 1977.43 262.467 Q1976.71 262.467 1976.71 261.955 Q1976.71 261.381 1976.98 261.279 Q1977.27 261.176 1978.47 261.176 Q1980.18 261.176 1981.1 261.094 Q1982.02 261.012 1982.51 260.725 Q1983.02 260.438 1983.17 260.151 Q1983.31 259.844 1983.48 259.147 L1989.11 236.747 Q1989.28 236.255 1989.28 235.865 Q1989.28 235.66 1989.21 235.578 Q1989.17 235.496 1988.91 235.435 Q1988.64 235.353 1988.09 235.353 L1986.45 235.353 Q1984.77 235.353 1983.72 235.435 Q1982.7 235.496 1981.71 235.804 Q1980.75 236.111 1980.18 236.542 Q1979.62 236.972 1979.01 237.853 Q1978.39 238.735 1977.94 239.8 Q1977.51 240.866 1976.9 242.608 Q1976.69 243.182 1976.57 243.346 Q1976.47 243.489 1976.18 243.489 Q1975.97 243.489 1975.81 243.366 Q1975.67 243.223 1975.67 243.038 Q1975.87 242.362 1975.91 242.28 L1978.43 234.882 Q1978.64 234.287 1978.82 234.185 Q1979.03 234.062 1979.79 234.062 L2003.07 234.062 Q2003.44 234.062 2003.56 234.062 Q2003.68 234.062 2003.89 234.103 Q2004.09 234.144 2004.15 234.246 Q2004.22 234.349 2004.22 234.513 Z" fill="#000000" fill-rule="evenodd" fill-opacity="1" /><path clip-path="url(#clip810)" d="M 0 0 M2011.58 256.094 Q2011.63 255.581 2012.42 255.581 L2038.15 255.581 Q2039.35 255.581 2039.38 256.053 Q2039.38 256.565 2038.23 256.544 L2012.71 256.544 Q2011.58 256.565 2011.58 256.094 M2011.58 247.896 Q2011.58 247.383 2012.47 247.404 L2038.1 247.404 Q2039.35 247.404 2039.38 247.896 Q2039.38 248.367 2038.31 248.367 L2012.42 248.367 Q2011.58 248.367 2011.58 247.896 Z" fill="#000000" fill-rule="evenodd" fill-opacity="1" /><path clip-path="url(#clip810)" d="M 0 0 M2055.56 249.043 Q2055.56 242.875 2057.12 239.513 Q2059.29 234.513 2064.41 234.513 Q2065.5 234.513 2066.63 234.82 Q2067.77 235.107 2069.21 236.234 Q2070.66 237.361 2071.54 239.206 Q2073.23 242.772 2073.23 249.043 Q2073.23 255.171 2071.67 258.512 Q2069.39 263.39 2064.37 263.39 Q2062.49 263.39 2060.56 262.426 Q2058.65 261.463 2057.44 259.147 Q2055.56 255.684 2055.56 249.043 M2059.04 248.531 Q2059.04 254.864 2059.49 257.385 Q2060.01 260.11 2061.4 261.299 Q2062.81 262.467 2064.37 262.467 Q2066.05 262.467 2067.45 261.217 Q2068.86 259.947 2069.29 257.221 Q2069.76 254.536 2069.74 248.531 Q2069.74 242.69 2069.33 240.354 Q2068.78 237.628 2067.3 236.542 Q2065.85 235.435 2064.37 235.435 Q2063.82 235.435 2063.22 235.599 Q2062.65 235.763 2061.81 236.234 Q2060.97 236.706 2060.31 237.874 Q2059.68 239.042 2059.37 240.805 Q2059.04 243.079 2059.04 248.531 Z" fill="#000000" fill-rule="evenodd" fill-opacity="1" /><path clip-path="url(#clip810)" d="M 0 0 M2076.98 261.791 Q2076.34 261.115 2076.34 260.233 Q2076.34 259.352 2076.98 258.717 Q2077.61 258.061 2078.57 258.061 Q2079.5 258.061 2080.11 258.676 Q2080.75 259.27 2080.75 260.254 Q2080.75 261.217 2080.07 261.853 Q2079.41 262.467 2078.57 262.467 Q2077.61 262.467 2076.98 261.791 Z" fill="#000000" fill-rule="evenodd" fill-opacity="1" /><path clip-path="url(#clip810)" d="M 0 0 M2087.89 249.043 Q2087.89 242.875 2089.45 239.513 Q2091.62 234.513 2096.74 234.513 Q2097.83 234.513 2098.95 234.82 Q2100.1 235.107 2101.54 236.234 Q2102.99 237.361 2103.87 239.206 Q2105.55 242.772 2105.55 249.043 Q2105.55 255.171 2104 258.512 Q2101.72 263.39 2096.7 263.39 Q2094.81 263.39 2092.89 262.426 Q2090.98 261.463 2089.77 259.147 Q2087.89 255.684 2087.89 249.043 M2091.37 248.531 Q2091.37 254.864 2091.82 257.385 Q2092.33 260.11 2093.73 261.299 Q2095.14 262.467 2096.7 262.467 Q2098.38 262.467 2099.77 261.217 Q2101.19 259.947 2101.62 257.221 Q2102.09 254.536 2102.07 248.531 Q2102.07 242.69 2101.66 240.354 Q2101.11 237.628 2099.63 236.542 Q2098.18 235.435 2096.7 235.435 Q2096.15 235.435 2095.55 235.599 Q2094.98 235.763 2094.14 236.234 Q2093.3 236.706 2092.64 237.874 Q2092.01 239.042 2091.7 240.805 Q2091.37 243.079 2091.37 248.531 Z" fill="#000000" fill-rule="evenodd" fill-opacity="1" /><path clip-path="url(#clip810)" d="M 0 0 M2109.26 261.791 Q2108.67 261.115 2108.67 260.233 Q2108.67 259.352 2109.24 258.696 Q2109.84 258.02 2110.9 258.02 Q2112.15 258.02 2112.87 259.229 Q2113.59 260.418 2113.59 262.426 Q2113.59 264.599 2112.71 266.607 Q2111.83 268.636 2110.96 269.6 Q2110.1 270.563 2109.76 270.563 Q2109.35 270.563 2109.35 270.112 Q2109.35 269.948 2109.63 269.641 Q2112.64 266.402 2112.67 262.426 Q2112.67 261.791 2112.58 261.791 L2112.48 261.873 Q2111.76 262.467 2110.9 262.467 Q2109.86 262.467 2109.26 261.791 Z" fill="#000000" fill-rule="evenodd" fill-opacity="1" /><path clip-path="url(#clip810)" d="M 0 0 M2147.43 256.462 Q2146.92 258.983 2145.87 260.746 Q2144.58 262.939 2142.61 262.939 Q2140.95 262.939 2139.84 261.791 Q2138.74 260.623 2138.74 258.778 Q2138.74 258.225 2138.96 257.303 Q2139.05 256.893 2139.05 256.38 Q2139.05 253.06 2131.85 252.814 Q2131.26 255.171 2130.85 256.77 Q2130.46 258.348 2130.33 258.819 Q2130.21 259.291 2130.11 259.68 Q2130.03 260.07 2129.88 260.582 Q2129.68 261.422 2129.54 261.832 Q2129.39 262.242 2129 262.59 Q2128.63 262.939 2128.04 262.939 Q2127.53 262.939 2127.18 262.631 Q2126.83 262.324 2126.83 261.791 Q2126.83 261.422 2126.99 260.828 L2130.85 245.436 Q2130.95 245.006 2131.15 244.699 Q2131.36 244.391 2131.54 244.248 Q2131.75 244.104 2132 244.022 Q2132.24 243.94 2132.34 243.94 Q2132.45 243.92 2132.53 243.92 Q2133.08 243.92 2133.41 244.227 Q2133.76 244.514 2133.76 245.047 Q2133.76 245.129 2133.61 245.703 Q2133.49 246.256 2133.29 247.096 Q2133.08 247.937 2133 248.326 L2132.16 251.605 Q2133.33 251.216 2134.37 250.519 Q2135.44 249.822 2137.53 248.019 Q2138.49 247.219 2139.07 246.768 Q2139.66 246.297 2140.64 245.662 Q2141.63 245.006 2142.57 244.699 Q2143.51 244.371 2144.41 244.371 Q2145.11 244.371 2145.52 244.699 Q2145.93 245.006 2146.01 245.293 Q2146.1 245.559 2146.1 245.846 Q2146.1 246.687 2145.44 247.404 Q2144.78 248.121 2143.82 248.121 Q2142.96 248.121 2142.59 247.65 Q2142.22 247.178 2142.22 246.646 Q2142.22 246.236 2142.43 245.723 Q2141.28 246.215 2140.3 246.932 Q2139.31 247.629 2137.61 249.084 Q2135.19 251.154 2133.76 251.933 Q2134.58 251.954 2135.19 252.015 Q2135.83 252.056 2136.89 252.2 Q2137.96 252.343 2138.74 252.65 Q2139.52 252.937 2140.27 253.388 Q2141.05 253.839 2141.46 254.577 Q2141.89 255.315 2141.89 256.258 Q2141.89 256.708 2141.69 257.631 Q2141.34 259.147 2141.34 259.988 Q2141.34 261.053 2141.67 261.525 Q2142.02 261.996 2142.69 261.996 Q2143.98 261.996 2144.8 260.664 Q2145.64 259.311 2146.34 256.811 Q2146.44 256.339 2146.55 256.196 Q2146.65 256.053 2146.94 256.053 Q2147.43 256.053 2147.43 256.462 Z" fill="#000000" fill-rule="evenodd" fill-opacity="1" /><path clip-path="url(#clip810)" d="M 0 0 M2162.4 256.094 Q2162.44 255.581 2163.24 255.581 L2188.96 255.581 Q2190.17 255.581 2190.19 256.053 Q2190.19 256.565 2189.05 256.544 L2163.53 256.544 Q2162.4 256.565 2162.4 256.094 M2162.4 247.896 Q2162.4 247.383 2163.28 247.404 L2188.92 247.404 Q2190.17 247.404 2190.19 247.896 Q2190.19 248.367 2189.13 248.367 L2163.24 248.367 Q2162.4 248.367 2162.4 247.896 Z" fill="#000000" fill-rule="evenodd" fill-opacity="1" /><path clip-path="url(#clip810)" d="M 0 0 M2206.38 238.509 L2206.38 237.197 Q2211.42 237.197 2214.02 234.513 Q2214.74 234.513 2214.86 234.677 Q2214.99 234.841 2214.99 235.599 L2214.99 259.147 Q2214.99 260.397 2215.6 260.787 Q2216.21 261.176 2218.9 261.176 L2220.23 261.176 L2220.23 262.467 Q2218.76 262.344 2213.43 262.344 Q2208.1 262.344 2206.64 262.467 L2206.64 261.176 L2207.98 261.176 Q2210.62 261.176 2211.26 260.807 Q2211.89 260.418 2211.89 259.147 L2211.89 237.402 Q2209.7 238.509 2206.38 238.509 Z" fill="#000000" fill-rule="evenodd" fill-opacity="1" /><path clip-path="url(#clip810)" d="M 0 0 M2223.78 249.043 Q2223.78 242.875 2225.34 239.513 Q2227.51 234.513 2232.64 234.513 Q2233.72 234.513 2234.85 234.82 Q2236 235.107 2237.43 236.234 Q2238.89 237.361 2239.77 239.206 Q2241.45 242.772 2241.45 249.043 Q2241.45 255.171 2239.89 258.512 Q2237.62 263.39 2232.6 263.39 Q2230.71 263.39 2228.78 262.426 Q2226.88 261.463 2225.67 259.147 Q2223.78 255.684 2223.78 249.043 M2227.27 248.531 Q2227.27 254.864 2227.72 257.385 Q2228.23 260.11 2229.62 261.299 Q2231.04 262.467 2232.6 262.467 Q2234.28 262.467 2235.67 261.217 Q2237.08 259.947 2237.51 257.221 Q2237.99 254.536 2237.97 248.531 Q2237.97 242.69 2237.56 240.354 Q2237 237.628 2235.53 236.542 Q2234.07 235.435 2232.6 235.435 Q2232.04 235.435 2231.45 235.599 Q2230.87 235.763 2230.03 236.234 Q2229.19 236.706 2228.54 237.874 Q2227.9 239.042 2227.6 240.805 Q2227.27 243.079 2227.27 248.531 Z" fill="#000000" fill-rule="evenodd" fill-opacity="1" /><path clip-path="url(#clip810)" d="M 0 0 M2244.56 249.043 Q2244.56 242.875 2246.12 239.513 Q2248.29 234.513 2253.42 234.513 Q2254.5 234.513 2255.63 234.82 Q2256.78 235.107 2258.21 236.234 Q2259.67 237.361 2260.55 239.206 Q2262.23 242.772 2262.23 249.043 Q2262.23 255.171 2260.67 258.512 Q2258.4 263.39 2253.38 263.39 Q2251.49 263.39 2249.57 262.426 Q2247.66 261.463 2246.45 259.147 Q2244.56 255.684 2244.56 249.043 M2248.05 248.531 Q2248.05 254.864 2248.5 257.385 Q2249.01 260.11 2250.41 261.299 Q2251.82 262.467 2253.38 262.467 Q2255.06 262.467 2256.45 261.217 Q2257.87 259.947 2258.3 257.221 Q2258.77 254.536 2258.75 248.531 Q2258.75 242.69 2258.34 240.354 Q2257.78 237.628 2256.31 236.542 Q2254.85 235.435 2253.38 235.435 Q2252.82 235.435 2252.23 235.599 Q2251.66 235.763 2250.82 236.234 Q2249.98 236.706 2249.32 237.874 Q2248.68 239.042 2248.38 240.805 Q2248.05 243.079 2248.05 248.531 Z" fill="#000000" fill-rule="evenodd" fill-opacity="1" /><polyline clip-path="url(#clip810)" style="stroke:#ff0000; stroke-width:3.5; stroke-opacity:1; fill:none" points="
  1815.2,305.333 1952.74,305.333 
  "/>
<path clip-path="url(#clip810)" d="M 0 0 M2004.22 287.433 Q2004.22 287.822 2004.13 288.15 L2002.99 295.446 Q2002.92 295.999 2002.8 296.204 Q2002.7 296.409 2002.37 296.409 Q2001.86 296.409 2001.86 295.876 Q2001.86 295.569 2001.98 295.077 Q2002.33 292.761 2002.33 291.716 Q2002.33 291.019 2002.19 290.507 Q2002.06 289.974 2001.86 289.605 Q2001.67 289.236 2001.24 288.99 Q2000.81 288.744 2000.4 288.601 Q1999.99 288.457 1999.26 288.396 Q1998.52 288.314 1997.88 288.293 Q1997.25 288.273 1996.2 288.273 Q1993.93 288.273 1993.56 288.355 Q1993.17 288.457 1992.96 288.765 Q1992.78 289.052 1992.58 289.913 L1987 312.19 L1986.84 313.071 Q1986.84 313.563 1987.14 313.727 Q1987.45 313.891 1988.39 313.994 Q1989.75 314.096 1991.08 314.096 Q1991.12 314.096 1991.2 314.096 Q1991.65 314.096 1991.84 314.117 Q1992.02 314.117 1992.21 314.158 Q1992.39 314.199 1992.43 314.301 Q1992.49 314.383 1992.49 314.547 Q1992.49 314.936 1992.33 315.141 Q1992.17 315.326 1992 315.367 Q1991.86 315.387 1991.57 315.387 Q1991 315.387 1989.77 315.346 Q1988.54 315.305 1987.92 315.305 L1984.44 315.264 L1980.87 315.305 Q1980.32 315.305 1979.15 315.346 Q1977.98 315.387 1977.43 315.387 Q1976.71 315.387 1976.71 314.875 Q1976.71 314.301 1976.98 314.199 Q1977.27 314.096 1978.47 314.096 Q1980.18 314.096 1981.1 314.014 Q1982.02 313.932 1982.51 313.645 Q1983.02 313.358 1983.17 313.071 Q1983.31 312.764 1983.48 312.067 L1989.11 289.667 Q1989.28 289.175 1989.28 288.785 Q1989.28 288.58 1989.21 288.498 Q1989.17 288.416 1988.91 288.355 Q1988.64 288.273 1988.09 288.273 L1986.45 288.273 Q1984.77 288.273 1983.72 288.355 Q1982.7 288.416 1981.71 288.724 Q1980.75 289.031 1980.18 289.462 Q1979.62 289.892 1979.01 290.773 Q1978.39 291.655 1977.94 292.72 Q1977.51 293.786 1976.9 295.528 Q1976.69 296.102 1976.57 296.266 Q1976.47 296.409 1976.18 296.409 Q1975.97 296.409 1975.81 296.286 Q1975.67 296.143 1975.67 295.958 Q1975.87 295.282 1975.91 295.2 L1978.43 287.802 Q1978.64 287.207 1978.82 287.105 Q1979.03 286.982 1979.79 286.982 L2003.07 286.982 Q2003.44 286.982 2003.56 286.982 Q2003.68 286.982 2003.89 287.023 Q2004.09 287.064 2004.15 287.166 Q2004.22 287.269 2004.22 287.433 Z" fill="#000000" fill-rule="evenodd" fill-opacity="1" /><path clip-path="url(#clip810)" d="M 0 0 M2011.58 309.014 Q2011.63 308.501 2012.42 308.501 L2038.15 308.501 Q2039.35 308.501 2039.38 308.973 Q2039.38 309.485 2038.23 309.464 L2012.71 309.464 Q2011.58 309.485 2011.58 309.014 M2011.58 300.816 Q2011.58 300.303 2012.47 300.324 L2038.1 300.324 Q2039.35 300.324 2039.38 300.816 Q2039.38 301.287 2038.31 301.287 L2012.42 301.287 Q2011.58 301.287 2011.58 300.816 Z" fill="#000000" fill-rule="evenodd" fill-opacity="1" /><path clip-path="url(#clip810)" d="M 0 0 M2055.56 315.387 Q2055.56 314.629 2055.62 314.404 Q2055.7 314.178 2056.03 313.83 L2064.08 304.853 Q2068.49 299.893 2068.49 295.569 Q2068.49 292.761 2067.02 290.753 Q2065.56 288.744 2062.88 288.744 Q2061.03 288.744 2059.47 289.872 Q2057.92 290.999 2057.2 293.007 Q2057.32 292.966 2057.75 292.966 Q2058.8 292.966 2059.37 293.622 Q2059.97 294.278 2059.97 295.159 Q2059.97 296.286 2059.23 296.84 Q2058.51 297.373 2057.79 297.373 Q2057.51 297.373 2057.12 297.311 Q2056.75 297.25 2056.15 296.676 Q2055.56 296.081 2055.56 295.036 Q2055.56 292.105 2057.77 289.769 Q2060.01 287.433 2063.41 287.433 Q2067.26 287.433 2069.78 289.728 Q2072.32 292.003 2072.32 295.569 Q2072.32 296.819 2071.93 297.967 Q2071.57 299.094 2071.05 299.975 Q2070.56 300.857 2069.21 302.271 Q2067.86 303.685 2066.77 304.689 Q2065.68 305.693 2063.24 307.825 L2058.8 312.149 L2066.36 312.149 Q2070.05 312.149 2070.34 311.821 Q2070.75 311.227 2071.26 308.091 L2072.32 308.091 L2071.13 315.387 L2055.56 315.387 Z" fill="#000000" fill-rule="evenodd" fill-opacity="1" /><path clip-path="url(#clip810)" d="M 0 0 M2076.34 301.963 Q2076.34 295.795 2077.9 292.433 Q2080.07 287.433 2085.19 287.433 Q2086.28 287.433 2087.41 287.74 Q2088.56 288.027 2089.99 289.154 Q2091.44 290.281 2092.33 292.126 Q2094.01 295.692 2094.01 301.963 Q2094.01 308.091 2092.45 311.432 Q2090.17 316.31 2085.15 316.31 Q2083.27 316.31 2081.34 315.346 Q2079.43 314.383 2078.23 312.067 Q2076.34 308.604 2076.34 301.963 M2079.82 301.451 Q2079.82 307.784 2080.28 310.305 Q2080.79 313.03 2082.18 314.219 Q2083.6 315.387 2085.15 315.387 Q2086.83 315.387 2088.23 314.137 Q2089.64 312.867 2090.07 310.141 Q2090.54 307.456 2090.52 301.451 Q2090.52 295.61 2090.11 293.274 Q2089.56 290.548 2088.08 289.462 Q2086.63 288.355 2085.15 288.355 Q2084.6 288.355 2084.01 288.519 Q2083.43 288.683 2082.59 289.154 Q2081.75 289.626 2081.1 290.794 Q2080.46 291.962 2080.15 293.725 Q2079.82 295.999 2079.82 301.451 Z" fill="#000000" fill-rule="evenodd" fill-opacity="1" /><path clip-path="url(#clip810)" d="M 0 0 M2097.12 301.963 Q2097.12 295.795 2098.68 292.433 Q2100.85 287.433 2105.98 287.433 Q2107.06 287.433 2108.19 287.74 Q2109.34 288.027 2110.77 289.154 Q2112.23 290.281 2113.11 292.126 Q2114.79 295.692 2114.79 301.963 Q2114.79 308.091 2113.23 311.432 Q2110.96 316.31 2105.93 316.31 Q2104.05 316.31 2102.12 315.346 Q2100.22 314.383 2099.01 312.067 Q2097.12 308.604 2097.12 301.963 M2100.61 301.451 Q2100.61 307.784 2101.06 310.305 Q2101.57 313.03 2102.96 314.219 Q2104.38 315.387 2105.93 315.387 Q2107.61 315.387 2109.01 314.137 Q2110.42 312.867 2110.85 310.141 Q2111.32 307.456 2111.3 301.451 Q2111.3 295.61 2110.89 293.274 Q2110.34 290.548 2108.86 289.462 Q2107.41 288.355 2105.93 288.355 Q2105.38 288.355 2104.79 288.519 Q2104.21 288.683 2103.37 289.154 Q2102.53 289.626 2101.88 290.794 Q2101.24 291.962 2100.93 293.725 Q2100.61 295.999 2100.61 301.451 Z" fill="#000000" fill-rule="evenodd" fill-opacity="1" /><path clip-path="url(#clip810)" d="M 0 0 M2118.54 314.711 Q2117.9 314.035 2117.9 313.153 Q2117.9 312.272 2118.54 311.637 Q2119.17 310.981 2120.14 310.981 Q2121.06 310.981 2121.67 311.596 Q2122.31 312.19 2122.31 313.174 Q2122.31 314.137 2121.63 314.773 Q2120.98 315.387 2120.14 315.387 Q2119.17 315.387 2118.54 314.711 Z" fill="#000000" fill-rule="evenodd" fill-opacity="1" /><path clip-path="url(#clip810)" d="M 0 0 M2129.45 301.963 Q2129.45 295.795 2131.01 292.433 Q2133.18 287.433 2138.3 287.433 Q2139.39 287.433 2140.52 287.74 Q2141.66 288.027 2143.1 289.154 Q2144.55 290.281 2145.44 292.126 Q2147.12 295.692 2147.12 301.963 Q2147.12 308.091 2145.56 311.432 Q2143.28 316.31 2138.26 316.31 Q2136.38 316.31 2134.45 315.346 Q2132.54 314.383 2131.34 312.067 Q2129.45 308.604 2129.45 301.963 M2132.93 301.451 Q2132.93 307.784 2133.39 310.305 Q2133.9 313.03 2135.29 314.219 Q2136.71 315.387 2138.26 315.387 Q2139.94 315.387 2141.34 314.137 Q2142.75 312.867 2143.18 310.141 Q2143.65 307.456 2143.63 301.451 Q2143.63 295.61 2143.22 293.274 Q2142.67 290.548 2141.19 289.462 Q2139.74 288.355 2138.26 288.355 Q2137.71 288.355 2137.12 288.519 Q2136.54 288.683 2135.7 289.154 Q2134.86 289.626 2134.2 290.794 Q2133.57 291.962 2133.26 293.725 Q2132.93 295.999 2132.93 301.451 Z" fill="#000000" fill-rule="evenodd" fill-opacity="1" /><path clip-path="url(#clip810)" d="M 0 0 M2150.83 314.711 Q2150.23 314.035 2150.23 313.153 Q2150.23 312.272 2150.81 311.616 Q2151.4 310.94 2152.47 310.94 Q2153.72 310.94 2154.43 312.149 Q2155.15 313.338 2155.15 315.346 Q2155.15 317.519 2154.27 319.527 Q2153.39 321.556 2152.53 322.52 Q2151.67 323.483 2151.32 323.483 Q2150.91 323.483 2150.91 323.032 Q2150.91 322.868 2151.19 322.561 Q2154.21 319.322 2154.23 315.346 Q2154.23 314.711 2154.15 314.711 L2154.04 314.793 Q2153.33 315.387 2152.47 315.387 Q2151.42 315.387 2150.83 314.711 Z" fill="#000000" fill-rule="evenodd" fill-opacity="1" /><path clip-path="url(#clip810)" d="M 0 0 M2188.99 309.382 Q2188.48 311.903 2187.43 313.666 Q2186.14 315.859 2184.17 315.859 Q2182.51 315.859 2181.41 314.711 Q2180.3 313.543 2180.3 311.698 Q2180.3 311.145 2180.53 310.223 Q2180.61 309.813 2180.61 309.3 Q2180.61 305.98 2173.41 305.734 Q2172.82 308.091 2172.41 309.69 Q2172.02 311.268 2171.9 311.739 Q2171.77 312.211 2171.67 312.6 Q2171.59 312.99 2171.45 313.502 Q2171.24 314.342 2171.1 314.752 Q2170.95 315.162 2170.57 315.51 Q2170.2 315.859 2169.6 315.859 Q2169.09 315.859 2168.74 315.551 Q2168.39 315.244 2168.39 314.711 Q2168.39 314.342 2168.56 313.748 L2172.41 298.356 Q2172.51 297.926 2172.72 297.619 Q2172.92 297.311 2173.11 297.168 Q2173.31 297.024 2173.56 296.942 Q2173.8 296.86 2173.91 296.86 Q2174.01 296.84 2174.09 296.84 Q2174.64 296.84 2174.97 297.147 Q2175.32 297.434 2175.32 297.967 Q2175.32 298.049 2175.18 298.623 Q2175.05 299.176 2174.85 300.016 Q2174.64 300.857 2174.56 301.246 L2173.72 304.525 Q2174.89 304.136 2175.93 303.439 Q2177 302.742 2179.09 300.939 Q2180.05 300.139 2180.63 299.688 Q2181.22 299.217 2182.21 298.582 Q2183.19 297.926 2184.13 297.619 Q2185.08 297.291 2185.98 297.291 Q2186.67 297.291 2187.08 297.619 Q2187.49 297.926 2187.58 298.213 Q2187.66 298.479 2187.66 298.766 Q2187.66 299.607 2187 300.324 Q2186.35 301.041 2185.38 301.041 Q2184.52 301.041 2184.15 300.57 Q2183.78 300.098 2183.78 299.566 Q2183.78 299.156 2183.99 298.643 Q2182.84 299.135 2181.86 299.852 Q2180.87 300.549 2179.17 302.004 Q2176.75 304.074 2175.32 304.853 Q2176.14 304.874 2176.75 304.935 Q2177.39 304.976 2178.46 305.12 Q2179.52 305.263 2180.3 305.57 Q2181.08 305.857 2181.84 306.308 Q2182.62 306.759 2183.03 307.497 Q2183.46 308.235 2183.46 309.178 Q2183.46 309.628 2183.25 310.551 Q2182.9 312.067 2182.9 312.908 Q2182.9 313.973 2183.23 314.445 Q2183.58 314.916 2184.26 314.916 Q2185.55 314.916 2186.37 313.584 Q2187.21 312.231 2187.9 309.731 Q2188.01 309.259 2188.11 309.116 Q2188.21 308.973 2188.5 308.973 Q2188.99 308.973 2188.99 309.382 Z" fill="#000000" fill-rule="evenodd" fill-opacity="1" /><path clip-path="url(#clip810)" d="M 0 0 M2203.97 309.014 Q2204.01 308.501 2204.81 308.501 L2230.53 308.501 Q2231.74 308.501 2231.76 308.973 Q2231.76 309.485 2230.61 309.464 L2205.09 309.464 Q2203.97 309.485 2203.97 309.014 M2203.97 300.816 Q2203.97 300.303 2204.85 300.324 L2230.49 300.324 Q2231.74 300.324 2231.76 300.816 Q2231.76 301.287 2230.69 301.287 L2204.81 301.287 Q2203.97 301.287 2203.97 300.816 Z" fill="#000000" fill-rule="evenodd" fill-opacity="1" /><path clip-path="url(#clip810)" d="M 0 0 M2247.94 291.429 L2247.94 290.117 Q2252.98 290.117 2255.58 287.433 Q2256.3 287.433 2256.42 287.597 Q2256.55 287.761 2256.55 288.519 L2256.55 312.067 Q2256.55 313.317 2257.16 313.707 Q2257.78 314.096 2260.46 314.096 L2261.79 314.096 L2261.79 315.387 Q2260.32 315.264 2254.99 315.264 Q2249.66 315.264 2248.21 315.387 L2248.21 314.096 L2249.54 314.096 Q2252.18 314.096 2252.82 313.727 Q2253.45 313.338 2253.45 312.067 L2253.45 290.322 Q2251.26 291.429 2247.94 291.429 Z" fill="#000000" fill-rule="evenodd" fill-opacity="1" /><path clip-path="url(#clip810)" d="M 0 0 M2265.35 301.963 Q2265.35 295.795 2266.9 292.433 Q2269.08 287.433 2274.2 287.433 Q2275.29 287.433 2276.41 287.74 Q2277.56 288.027 2279 289.154 Q2280.45 290.281 2281.33 292.126 Q2283.01 295.692 2283.01 301.963 Q2283.01 308.091 2281.45 311.432 Q2279.18 316.31 2274.16 316.31 Q2272.27 316.31 2270.35 315.346 Q2268.44 314.383 2267.23 312.067 Q2265.35 308.604 2265.35 301.963 M2268.83 301.451 Q2268.83 307.784 2269.28 310.305 Q2269.79 313.03 2271.19 314.219 Q2272.6 315.387 2274.16 315.387 Q2275.84 315.387 2277.23 314.137 Q2278.65 312.867 2279.08 310.141 Q2279.55 307.456 2279.53 301.451 Q2279.53 295.61 2279.12 293.274 Q2278.57 290.548 2277.09 289.462 Q2275.63 288.355 2274.16 288.355 Q2273.61 288.355 2273.01 288.519 Q2272.44 288.683 2271.6 289.154 Q2270.76 289.626 2270.1 290.794 Q2269.47 291.962 2269.16 293.725 Q2268.83 295.999 2268.83 301.451 Z" fill="#000000" fill-rule="evenodd" fill-opacity="1" /><path clip-path="url(#clip810)" d="M 0 0 M2286.13 301.963 Q2286.13 295.795 2287.68 292.433 Q2289.86 287.433 2294.98 287.433 Q2296.07 287.433 2297.19 287.74 Q2298.34 288.027 2299.78 289.154 Q2301.23 290.281 2302.11 292.126 Q2303.79 295.692 2303.79 301.963 Q2303.79 308.091 2302.24 311.432 Q2299.96 316.31 2294.94 316.31 Q2293.05 316.31 2291.13 315.346 Q2289.22 314.383 2288.01 312.067 Q2286.13 308.604 2286.13 301.963 M2289.61 301.451 Q2289.61 307.784 2290.06 310.305 Q2290.57 313.03 2291.97 314.219 Q2293.38 315.387 2294.94 315.387 Q2296.62 315.387 2298.01 314.137 Q2299.43 312.867 2299.86 310.141 Q2300.33 307.456 2300.31 301.451 Q2300.31 295.61 2299.9 293.274 Q2299.35 290.548 2297.87 289.462 Q2296.42 288.355 2294.94 288.355 Q2294.39 288.355 2293.79 288.519 Q2293.22 288.683 2292.38 289.154 Q2291.54 289.626 2290.88 290.794 Q2290.25 291.962 2289.94 293.725 Q2289.61 295.999 2289.61 301.451 Z" fill="#000000" fill-rule="evenodd" fill-opacity="1" /></svg>
