<?xml version="1.0" encoding="utf-8"?>
<svg xmlns="http://www.w3.org/2000/svg" xmlns:xlink="http://www.w3.org/1999/xlink" width="600" height="400" viewBox="0 0 2400 1600">
<defs>
  <clipPath id="clip650">
    <rect x="0" y="0" width="2400" height="1600"/>
  </clipPath>
</defs>
<path clip-path="url(#clip650)" d="
M0 1600 L2400 1600 L2400 0 L0 0  Z
  " fill="#ffffff" fill-rule="evenodd" fill-opacity="1"/>
<defs>
  <clipPath id="clip651">
    <rect x="480" y="0" width="1681" height="1600"/>
  </clipPath>
</defs>
<defs>
  <clipPath id="clip652">
    <rect x="276" y="47" width="1656" height="1393"/>
  </clipPath>
</defs>
<path clip-path="url(#clip650)" d="
M246.197 1439.5 L1927.02 1439.5 L1927.02 47.2441 L246.197 47.2441  Z
  " fill="#ffffff" fill-rule="evenodd" fill-opacity="1"/>
<defs>
  <clipPath id="clip653">
    <rect x="246" y="47" width="1682" height="1393"/>
  </clipPath>
</defs>
<polyline clip-path="url(#clip653)" style="stroke:#000000; stroke-width:2; stroke-opacity:0.1; fill:none" points="
  290.59,1439.5 290.59,47.2441 
  "/>
<polyline clip-path="url(#clip653)" style="stroke:#000000; stroke-width:2; stroke-opacity:0.1; fill:none" points="
  608.362,1439.5 608.362,47.2441 
  "/>
<polyline clip-path="url(#clip653)" style="stroke:#000000; stroke-width:2; stroke-opacity:0.1; fill:none" points="
  926.134,1439.5 926.134,47.2441 
  "/>
<polyline clip-path="url(#clip653)" style="stroke:#000000; stroke-width:2; stroke-opacity:0.1; fill:none" points="
  1243.91,1439.5 1243.91,47.2441 
  "/>
<polyline clip-path="url(#clip653)" style="stroke:#000000; stroke-width:2; stroke-opacity:0.1; fill:none" points="
  1561.68,1439.5 1561.68,47.2441 
  "/>
<polyline clip-path="url(#clip653)" style="stroke:#000000; stroke-width:2; stroke-opacity:0.1; fill:none" points="
  1879.45,1439.5 1879.45,47.2441 
  "/>
<polyline clip-path="url(#clip650)" style="stroke:#000000; stroke-width:4; stroke-opacity:1; fill:none" points="
  246.197,1439.5 1927.02,1439.5 
  "/>
<polyline clip-path="url(#clip650)" style="stroke:#000000; stroke-width:4; stroke-opacity:1; fill:none" points="
  290.59,1439.5 290.59,1422.79 
  "/>
<polyline clip-path="url(#clip650)" style="stroke:#000000; stroke-width:4; stroke-opacity:1; fill:none" points="
  608.362,1439.5 608.362,1422.79 
  "/>
<polyline clip-path="url(#clip650)" style="stroke:#000000; stroke-width:4; stroke-opacity:1; fill:none" points="
  926.134,1439.5 926.134,1422.79 
  "/>
<polyline clip-path="url(#clip650)" style="stroke:#000000; stroke-width:4; stroke-opacity:1; fill:none" points="
  1243.91,1439.5 1243.91,1422.79 
  "/>
<polyline clip-path="url(#clip650)" style="stroke:#000000; stroke-width:4; stroke-opacity:1; fill:none" points="
  1561.68,1439.5 1561.68,1422.79 
  "/>
<polyline clip-path="url(#clip650)" style="stroke:#000000; stroke-width:4; stroke-opacity:1; fill:none" points="
  1879.45,1439.5 1879.45,1422.79 
  "/>
<path clip-path="url(#clip650)" d="M 0 0 M290.59 1468.69 Q286.978 1468.69 285.15 1472.26 Q283.344 1475.8 283.344 1482.93 Q283.344 1490.04 285.15 1493.6 Q286.978 1497.14 290.59 1497.14 Q294.224 1497.14 296.029 1493.6 Q297.858 1490.04 297.858 1482.93 Q297.858 1475.8 296.029 1472.26 Q294.224 1468.69 290.59 1468.69 M290.59 1464.99 Q296.4 1464.99 299.455 1469.6 Q302.534 1474.18 302.534 1482.93 Q302.534 1491.66 299.455 1496.26 Q296.4 1500.85 290.59 1500.85 Q284.779 1500.85 281.701 1496.26 Q278.645 1491.66 278.645 1482.93 Q278.645 1474.18 281.701 1469.6 Q284.779 1464.99 290.59 1464.99 Z" fill="#000000" fill-rule="evenodd" fill-opacity="1" /><path clip-path="url(#clip650)" d="M 0 0 M567.968 1496.24 L575.607 1496.24 L575.607 1469.87 L567.297 1471.54 L567.297 1467.28 L575.561 1465.61 L580.237 1465.61 L580.237 1496.24 L587.876 1496.24 L587.876 1500.17 L567.968 1500.17 L567.968 1496.24 Z" fill="#000000" fill-rule="evenodd" fill-opacity="1" /><path clip-path="url(#clip650)" d="M 0 0 M607.32 1468.69 Q603.709 1468.69 601.88 1472.26 Q600.075 1475.8 600.075 1482.93 Q600.075 1490.04 601.88 1493.6 Q603.709 1497.14 607.32 1497.14 Q610.954 1497.14 612.76 1493.6 Q614.589 1490.04 614.589 1482.93 Q614.589 1475.8 612.76 1472.26 Q610.954 1468.69 607.32 1468.69 M607.32 1464.99 Q613.13 1464.99 616.186 1469.6 Q619.264 1474.18 619.264 1482.93 Q619.264 1491.66 616.186 1496.26 Q613.13 1500.85 607.32 1500.85 Q601.51 1500.85 598.431 1496.26 Q595.376 1491.66 595.376 1482.93 Q595.376 1474.18 598.431 1469.6 Q601.51 1464.99 607.32 1464.99 Z" fill="#000000" fill-rule="evenodd" fill-opacity="1" /><path clip-path="url(#clip650)" d="M 0 0 M637.482 1468.69 Q633.871 1468.69 632.042 1472.26 Q630.237 1475.8 630.237 1482.93 Q630.237 1490.04 632.042 1493.6 Q633.871 1497.14 637.482 1497.14 Q641.116 1497.14 642.922 1493.6 Q644.75 1490.04 644.75 1482.93 Q644.75 1475.8 642.922 1472.26 Q641.116 1468.69 637.482 1468.69 M637.482 1464.99 Q643.292 1464.99 646.348 1469.6 Q649.426 1474.18 649.426 1482.93 Q649.426 1491.66 646.348 1496.26 Q643.292 1500.85 637.482 1500.85 Q631.672 1500.85 628.593 1496.26 Q625.538 1491.66 625.538 1482.93 Q625.538 1474.18 628.593 1469.6 Q631.672 1464.99 637.482 1464.99 Z" fill="#000000" fill-rule="evenodd" fill-opacity="1" /><path clip-path="url(#clip650)" d="M 0 0 M889.826 1496.24 L906.146 1496.24 L906.146 1500.17 L884.201 1500.17 L884.201 1496.24 Q886.863 1493.48 891.447 1488.85 Q896.053 1484.2 897.234 1482.86 Q899.479 1480.34 900.359 1478.6 Q901.261 1476.84 901.261 1475.15 Q901.261 1472.4 899.317 1470.66 Q897.396 1468.92 894.294 1468.92 Q892.095 1468.92 889.641 1469.69 Q887.21 1470.45 884.433 1472 L884.433 1467.28 Q887.257 1466.15 889.71 1465.57 Q892.164 1464.99 894.201 1464.99 Q899.571 1464.99 902.766 1467.67 Q905.96 1470.36 905.96 1474.85 Q905.96 1476.98 905.15 1478.9 Q904.363 1480.8 902.257 1483.39 Q901.678 1484.06 898.576 1487.28 Q895.474 1490.47 889.826 1496.24 Z" fill="#000000" fill-rule="evenodd" fill-opacity="1" /><path clip-path="url(#clip650)" d="M 0 0 M925.96 1468.69 Q922.349 1468.69 920.52 1472.26 Q918.715 1475.8 918.715 1482.93 Q918.715 1490.04 920.52 1493.6 Q922.349 1497.14 925.96 1497.14 Q929.594 1497.14 931.4 1493.6 Q933.229 1490.04 933.229 1482.93 Q933.229 1475.8 931.4 1472.26 Q929.594 1468.69 925.96 1468.69 M925.96 1464.99 Q931.77 1464.99 934.826 1469.6 Q937.905 1474.18 937.905 1482.93 Q937.905 1491.66 934.826 1496.26 Q931.77 1500.85 925.96 1500.85 Q920.15 1500.85 917.071 1496.26 Q914.016 1491.66 914.016 1482.93 Q914.016 1474.18 917.071 1469.6 Q920.15 1464.99 925.96 1464.99 Z" fill="#000000" fill-rule="evenodd" fill-opacity="1" /><path clip-path="url(#clip650)" d="M 0 0 M956.122 1468.69 Q952.511 1468.69 950.682 1472.26 Q948.877 1475.8 948.877 1482.93 Q948.877 1490.04 950.682 1493.6 Q952.511 1497.14 956.122 1497.14 Q959.756 1497.14 961.562 1493.6 Q963.391 1490.04 963.391 1482.93 Q963.391 1475.8 961.562 1472.26 Q959.756 1468.69 956.122 1468.69 M956.122 1464.99 Q961.932 1464.99 964.988 1469.6 Q968.066 1474.18 968.066 1482.93 Q968.066 1491.66 964.988 1496.26 Q961.932 1500.85 956.122 1500.85 Q950.312 1500.85 947.233 1496.26 Q944.178 1491.66 944.178 1482.93 Q944.178 1474.18 947.233 1469.6 Q950.312 1464.99 956.122 1464.99 Z" fill="#000000" fill-rule="evenodd" fill-opacity="1" /><path clip-path="url(#clip650)" d="M 0 0 M1217.67 1481.54 Q1221.02 1482.26 1222.9 1484.53 Q1224.8 1486.79 1224.8 1490.13 Q1224.8 1495.24 1221.28 1498.04 Q1217.76 1500.85 1211.28 1500.85 Q1209.1 1500.85 1206.79 1500.41 Q1204.5 1499.99 1202.04 1499.13 L1202.04 1494.62 Q1203.99 1495.75 1206.3 1496.33 Q1208.62 1496.91 1211.14 1496.91 Q1215.54 1496.91 1217.83 1495.17 Q1220.14 1493.44 1220.14 1490.13 Q1220.14 1487.07 1217.99 1485.36 Q1215.86 1483.62 1212.04 1483.62 L1208.01 1483.62 L1208.01 1479.78 L1212.23 1479.78 Q1215.68 1479.78 1217.51 1478.41 Q1219.33 1477.03 1219.33 1474.43 Q1219.33 1471.77 1217.44 1470.36 Q1215.56 1468.92 1212.04 1468.92 Q1210.12 1468.92 1207.92 1469.34 Q1205.72 1469.76 1203.08 1470.64 L1203.08 1466.47 Q1205.75 1465.73 1208.06 1465.36 Q1210.4 1464.99 1212.46 1464.99 Q1217.78 1464.99 1220.89 1467.42 Q1223.99 1469.83 1223.99 1473.95 Q1223.99 1476.82 1222.34 1478.81 Q1220.7 1480.78 1217.67 1481.54 Z" fill="#000000" fill-rule="evenodd" fill-opacity="1" /><path clip-path="url(#clip650)" d="M 0 0 M1243.66 1468.69 Q1240.05 1468.69 1238.22 1472.26 Q1236.42 1475.8 1236.42 1482.93 Q1236.42 1490.04 1238.22 1493.6 Q1240.05 1497.14 1243.66 1497.14 Q1247.3 1497.14 1249.1 1493.6 Q1250.93 1490.04 1250.93 1482.93 Q1250.93 1475.8 1249.1 1472.26 Q1247.3 1468.69 1243.66 1468.69 M1243.66 1464.99 Q1249.47 1464.99 1252.53 1469.6 Q1255.61 1474.18 1255.61 1482.93 Q1255.61 1491.66 1252.53 1496.26 Q1249.47 1500.85 1243.66 1500.85 Q1237.85 1500.85 1234.77 1496.26 Q1231.72 1491.66 1231.72 1482.93 Q1231.72 1474.18 1234.77 1469.6 Q1237.85 1464.99 1243.66 1464.99 Z" fill="#000000" fill-rule="evenodd" fill-opacity="1" /><path clip-path="url(#clip650)" d="M 0 0 M1273.82 1468.69 Q1270.21 1468.69 1268.38 1472.26 Q1266.58 1475.8 1266.58 1482.93 Q1266.58 1490.04 1268.38 1493.6 Q1270.21 1497.14 1273.82 1497.14 Q1277.46 1497.14 1279.26 1493.6 Q1281.09 1490.04 1281.09 1482.93 Q1281.09 1475.8 1279.26 1472.26 Q1277.46 1468.69 1273.82 1468.69 M1273.82 1464.99 Q1279.63 1464.99 1282.69 1469.6 Q1285.77 1474.18 1285.77 1482.93 Q1285.77 1491.66 1282.69 1496.26 Q1279.63 1500.85 1273.82 1500.85 Q1268.01 1500.85 1264.94 1496.26 Q1261.88 1491.66 1261.88 1482.93 Q1261.88 1474.18 1264.94 1469.6 Q1268.01 1464.99 1273.82 1464.99 Z" fill="#000000" fill-rule="evenodd" fill-opacity="1" /><path clip-path="url(#clip650)" d="M 0 0 M1534.77 1469.69 L1522.96 1488.14 L1534.77 1488.14 L1534.77 1469.69 M1533.54 1465.61 L1539.42 1465.61 L1539.42 1488.14 L1544.35 1488.14 L1544.35 1492.03 L1539.42 1492.03 L1539.42 1500.17 L1534.77 1500.17 L1534.77 1492.03 L1519.17 1492.03 L1519.17 1487.51 L1533.54 1465.61 Z" fill="#000000" fill-rule="evenodd" fill-opacity="1" /><path clip-path="url(#clip650)" d="M 0 0 M1562.08 1468.69 Q1558.47 1468.69 1556.64 1472.26 Q1554.84 1475.8 1554.84 1482.93 Q1554.84 1490.04 1556.64 1493.6 Q1558.47 1497.14 1562.08 1497.14 Q1565.72 1497.14 1567.52 1493.6 Q1569.35 1490.04 1569.35 1482.93 Q1569.35 1475.8 1567.52 1472.26 Q1565.72 1468.69 1562.08 1468.69 M1562.08 1464.99 Q1567.89 1464.99 1570.95 1469.6 Q1574.03 1474.18 1574.03 1482.93 Q1574.03 1491.66 1570.95 1496.26 Q1567.89 1500.85 1562.08 1500.85 Q1556.27 1500.85 1553.19 1496.26 Q1550.14 1491.66 1550.14 1482.93 Q1550.14 1474.18 1553.19 1469.6 Q1556.27 1464.99 1562.08 1464.99 Z" fill="#000000" fill-rule="evenodd" fill-opacity="1" /><path clip-path="url(#clip650)" d="M 0 0 M1592.25 1468.69 Q1588.63 1468.69 1586.81 1472.26 Q1585 1475.8 1585 1482.93 Q1585 1490.04 1586.81 1493.6 Q1588.63 1497.14 1592.25 1497.14 Q1595.88 1497.14 1597.68 1493.6 Q1599.51 1490.04 1599.51 1482.93 Q1599.51 1475.8 1597.68 1472.26 Q1595.88 1468.69 1592.25 1468.69 M1592.25 1464.99 Q1598.06 1464.99 1601.11 1469.6 Q1604.19 1474.18 1604.19 1482.93 Q1604.19 1491.66 1601.11 1496.26 Q1598.06 1500.85 1592.25 1500.85 Q1586.43 1500.85 1583.36 1496.26 Q1580.3 1491.66 1580.3 1482.93 Q1580.3 1474.18 1583.36 1469.6 Q1586.43 1464.99 1592.25 1464.99 Z" fill="#000000" fill-rule="evenodd" fill-opacity="1" /><path clip-path="url(#clip650)" d="M 0 0 M1839.07 1465.61 L1857.42 1465.61 L1857.42 1469.55 L1843.35 1469.55 L1843.35 1478.02 Q1844.37 1477.67 1845.39 1477.51 Q1846.41 1477.33 1847.42 1477.33 Q1853.21 1477.33 1856.59 1480.5 Q1859.97 1483.67 1859.97 1489.09 Q1859.97 1494.66 1856.5 1497.77 Q1853.03 1500.85 1846.71 1500.85 Q1844.53 1500.85 1842.26 1500.47 Q1840.02 1500.1 1837.61 1499.36 L1837.61 1494.66 Q1839.69 1495.8 1841.92 1496.35 Q1844.14 1496.91 1846.61 1496.91 Q1850.62 1496.91 1852.96 1494.8 Q1855.3 1492.7 1855.3 1489.09 Q1855.3 1485.47 1852.96 1483.37 Q1850.62 1481.26 1846.61 1481.26 Q1844.74 1481.26 1842.86 1481.68 Q1841.01 1482.1 1839.07 1482.97 L1839.07 1465.61 Z" fill="#000000" fill-rule="evenodd" fill-opacity="1" /><path clip-path="url(#clip650)" d="M 0 0 M1879.18 1468.69 Q1875.57 1468.69 1873.74 1472.26 Q1871.94 1475.8 1871.94 1482.93 Q1871.94 1490.04 1873.74 1493.6 Q1875.57 1497.14 1879.18 1497.14 Q1882.82 1497.14 1884.62 1493.6 Q1886.45 1490.04 1886.45 1482.93 Q1886.45 1475.8 1884.62 1472.26 Q1882.82 1468.69 1879.18 1468.69 M1879.18 1464.99 Q1884.99 1464.99 1888.05 1469.6 Q1891.13 1474.18 1891.13 1482.93 Q1891.13 1491.66 1888.05 1496.26 Q1884.99 1500.85 1879.18 1500.85 Q1873.37 1500.85 1870.3 1496.26 Q1867.24 1491.66 1867.24 1482.93 Q1867.24 1474.18 1870.3 1469.6 Q1873.37 1464.99 1879.18 1464.99 Z" fill="#000000" fill-rule="evenodd" fill-opacity="1" /><path clip-path="url(#clip650)" d="M 0 0 M1909.35 1468.69 Q1905.73 1468.69 1903.91 1472.26 Q1902.1 1475.8 1902.1 1482.93 Q1902.1 1490.04 1903.91 1493.6 Q1905.73 1497.14 1909.35 1497.14 Q1912.98 1497.14 1914.79 1493.6 Q1916.61 1490.04 1916.61 1482.93 Q1916.61 1475.8 1914.79 1472.26 Q1912.98 1468.69 1909.35 1468.69 M1909.35 1464.99 Q1915.16 1464.99 1918.21 1469.6 Q1921.29 1474.18 1921.29 1482.93 Q1921.29 1491.66 1918.21 1496.26 Q1915.16 1500.85 1909.35 1500.85 Q1903.54 1500.85 1900.46 1496.26 Q1897.4 1491.66 1897.4 1482.93 Q1897.4 1474.18 1900.46 1469.6 Q1903.54 1464.99 1909.35 1464.99 Z" fill="#000000" fill-rule="evenodd" fill-opacity="1" /><path clip-path="url(#clip650)" d="M 0 0 M1098.54 1535.75 Q1098.54 1541.16 1096.8 1547.24 Q1095.1 1553.3 1092.39 1558.19 Q1089.69 1563.06 1086.14 1566.28 Q1082.6 1569.47 1079.22 1569.47 Q1077.06 1569.47 1075.45 1568.27 Q1073.87 1567.05 1073 1565.02 Q1072.13 1562.96 1071.72 1560.71 Q1071.3 1558.42 1071.3 1555.94 Q1071.3 1552.24 1072.1 1548.21 Q1072.91 1544.15 1074.26 1540.48 Q1075.61 1536.78 1077.51 1533.43 Q1079.41 1530.05 1081.51 1527.6 Q1083.63 1525.12 1086.02 1523.67 Q1088.4 1522.22 1090.62 1522.22 Q1092.23 1522.22 1093.52 1522.93 Q1094.84 1523.6 1095.68 1524.8 Q1096.51 1525.96 1097.09 1527.34 Q1097.71 1528.73 1098 1530.34 Q1098.29 1531.91 1098.41 1533.23 Q1098.54 1534.52 1098.54 1535.75 M1094.2 1531.66 Q1094.2 1530.01 1094.07 1528.79 Q1093.94 1527.53 1093.58 1526.28 Q1093.23 1525.02 1092.46 1524.35 Q1091.72 1523.67 1090.56 1523.67 Q1087.17 1523.67 1083.37 1530.59 Q1082.15 1532.75 1081.06 1535.68 Q1079.96 1538.61 1079.57 1540 Q1079.19 1541.38 1078.29 1544.8 L1092.07 1544.8 Q1094.2 1536 1094.2 1531.66 M1091.49 1546.89 L1077.77 1546.89 Q1075.65 1554.94 1075.65 1559.96 Q1075.65 1564.34 1076.55 1566.18 Q1077.48 1567.98 1079.22 1567.98 Q1081.22 1567.98 1083.08 1565.99 Q1084.95 1563.96 1086.85 1560.29 Q1089.36 1555.52 1091.49 1546.89 Z" fill="#000000" fill-rule="evenodd" fill-opacity="1" /><polyline clip-path="url(#clip653)" style="stroke:#000000; stroke-width:2; stroke-opacity:0.1; fill:none" points="
  246.197,1208.03 1927.02,1208.03 
  "/>
<polyline clip-path="url(#clip653)" style="stroke:#000000; stroke-width:2; stroke-opacity:0.1; fill:none" points="
  246.197,832.992 1927.02,832.992 
  "/>
<polyline clip-path="url(#clip653)" style="stroke:#000000; stroke-width:2; stroke-opacity:0.1; fill:none" points="
  246.197,457.952 1927.02,457.952 
  "/>
<polyline clip-path="url(#clip653)" style="stroke:#000000; stroke-width:2; stroke-opacity:0.1; fill:none" points="
  246.197,82.9125 1927.02,82.9125 
  "/>
<polyline clip-path="url(#clip650)" style="stroke:#000000; stroke-width:4; stroke-opacity:1; fill:none" points="
  246.197,1439.5 246.197,47.2441 
  "/>
<polyline clip-path="url(#clip650)" style="stroke:#000000; stroke-width:4; stroke-opacity:1; fill:none" points="
  246.197,1208.03 266.367,1208.03 
  "/>
<polyline clip-path="url(#clip650)" style="stroke:#000000; stroke-width:4; stroke-opacity:1; fill:none" points="
  246.197,832.992 266.367,832.992 
  "/>
<polyline clip-path="url(#clip650)" style="stroke:#000000; stroke-width:4; stroke-opacity:1; fill:none" points="
  246.197,457.952 266.367,457.952 
  "/>
<polyline clip-path="url(#clip650)" style="stroke:#000000; stroke-width:4; stroke-opacity:1; fill:none" points="
  246.197,82.9125 266.367,82.9125 
  "/>
<path clip-path="url(#clip650)" d="M 0 0 M154.017 1193.83 Q150.405 1193.83 148.577 1197.39 Q146.771 1200.94 146.771 1208.07 Q146.771 1215.17 148.577 1218.74 Q150.405 1222.28 154.017 1222.28 Q157.651 1222.28 159.456 1218.74 Q161.285 1215.17 161.285 1208.07 Q161.285 1200.94 159.456 1197.39 Q157.651 1193.83 154.017 1193.83 M154.017 1190.13 Q159.827 1190.13 162.882 1194.73 Q165.961 1199.32 165.961 1208.07 Q165.961 1216.79 162.882 1221.4 Q159.827 1225.98 154.017 1225.98 Q148.206 1225.98 145.128 1221.4 Q142.072 1216.79 142.072 1208.07 Q142.072 1199.32 145.128 1194.73 Q148.206 1190.13 154.017 1190.13 Z" fill="#000000" fill-rule="evenodd" fill-opacity="1" /><path clip-path="url(#clip650)" d="M 0 0 M174.178 1219.43 L179.063 1219.43 L179.063 1225.31 L174.178 1225.31 L174.178 1219.43 Z" fill="#000000" fill-rule="evenodd" fill-opacity="1" /><path clip-path="url(#clip650)" d="M 0 0 M189.294 1190.75 L207.651 1190.75 L207.651 1194.69 L193.577 1194.69 L193.577 1203.16 Q194.595 1202.81 195.614 1202.65 Q196.632 1202.46 197.651 1202.46 Q203.438 1202.46 206.817 1205.64 Q210.197 1208.81 210.197 1214.22 Q210.197 1219.8 206.725 1222.9 Q203.252 1225.98 196.933 1225.98 Q194.757 1225.98 192.489 1225.61 Q190.243 1225.24 187.836 1224.5 L187.836 1219.8 Q189.919 1220.94 192.141 1221.49 Q194.364 1222.05 196.84 1222.05 Q200.845 1222.05 203.183 1219.94 Q205.521 1217.83 205.521 1214.22 Q205.521 1210.61 203.183 1208.51 Q200.845 1206.4 196.84 1206.4 Q194.965 1206.4 193.09 1206.82 Q191.239 1207.23 189.294 1208.11 L189.294 1190.75 Z" fill="#000000" fill-rule="evenodd" fill-opacity="1" /><path clip-path="url(#clip650)" d="M 0 0 M143.831 846.336 L151.47 846.336 L151.47 819.971 L143.16 821.638 L143.16 817.378 L151.424 815.712 L156.1 815.712 L156.1 846.336 L163.739 846.336 L163.739 850.272 L143.831 850.272 L143.831 846.336 Z" fill="#000000" fill-rule="evenodd" fill-opacity="1" /><path clip-path="url(#clip650)" d="M 0 0 M173.183 844.392 L178.067 844.392 L178.067 850.272 L173.183 850.272 L173.183 844.392 Z" fill="#000000" fill-rule="evenodd" fill-opacity="1" /><path clip-path="url(#clip650)" d="M 0 0 M198.252 818.79 Q194.641 818.79 192.813 822.355 Q191.007 825.897 191.007 833.026 Q191.007 840.133 192.813 843.698 Q194.641 847.239 198.252 847.239 Q201.887 847.239 203.692 843.698 Q205.521 840.133 205.521 833.026 Q205.521 825.897 203.692 822.355 Q201.887 818.79 198.252 818.79 M198.252 815.087 Q204.063 815.087 207.118 819.693 Q210.197 824.276 210.197 833.026 Q210.197 841.753 207.118 846.36 Q204.063 850.943 198.252 850.943 Q192.442 850.943 189.364 846.36 Q186.308 841.753 186.308 833.026 Q186.308 824.276 189.364 819.693 Q192.442 815.087 198.252 815.087 Z" fill="#000000" fill-rule="evenodd" fill-opacity="1" /><path clip-path="url(#clip650)" d="M 0 0 M144.827 471.297 L152.466 471.297 L152.466 444.931 L144.155 446.598 L144.155 442.339 L152.419 440.672 L157.095 440.672 L157.095 471.297 L164.734 471.297 L164.734 475.232 L144.827 475.232 L144.827 471.297 Z" fill="#000000" fill-rule="evenodd" fill-opacity="1" /><path clip-path="url(#clip650)" d="M 0 0 M174.178 469.352 L179.063 469.352 L179.063 475.232 L174.178 475.232 L174.178 469.352 Z" fill="#000000" fill-rule="evenodd" fill-opacity="1" /><path clip-path="url(#clip650)" d="M 0 0 M189.294 440.672 L207.651 440.672 L207.651 444.607 L193.577 444.607 L193.577 453.079 Q194.595 452.732 195.614 452.57 Q196.632 452.385 197.651 452.385 Q203.438 452.385 206.817 455.556 Q210.197 458.728 210.197 464.144 Q210.197 469.723 206.725 472.825 Q203.252 475.903 196.933 475.903 Q194.757 475.903 192.489 475.533 Q190.243 475.163 187.836 474.422 L187.836 469.723 Q189.919 470.857 192.141 471.413 Q194.364 471.968 196.84 471.968 Q200.845 471.968 203.183 469.862 Q205.521 467.755 205.521 464.144 Q205.521 460.533 203.183 458.427 Q200.845 456.32 196.84 456.32 Q194.965 456.32 193.09 456.737 Q191.239 457.153 189.294 458.033 L189.294 440.672 Z" fill="#000000" fill-rule="evenodd" fill-opacity="1" /><path clip-path="url(#clip650)" d="M 0 0 M147.049 96.2574 L163.368 96.2574 L163.368 100.193 L141.424 100.193 L141.424 96.2574 Q144.086 93.5028 148.669 88.8732 Q153.276 84.2204 154.456 82.8778 Q156.702 80.3547 157.581 78.6186 Q158.484 76.8593 158.484 75.1695 Q158.484 72.4149 156.54 70.6788 Q154.618 68.9427 151.517 68.9427 Q149.317 68.9427 146.864 69.7066 Q144.433 70.4705 141.655 72.0214 L141.655 67.2992 Q144.48 66.1649 146.933 65.5862 Q149.387 65.0075 151.424 65.0075 Q156.794 65.0075 159.989 67.6927 Q163.183 70.3779 163.183 74.8686 Q163.183 76.9982 162.373 78.9195 Q161.586 80.8176 159.479 83.4102 Q158.901 84.0815 155.799 87.2991 Q152.697 90.4935 147.049 96.2574 Z" fill="#000000" fill-rule="evenodd" fill-opacity="1" /><path clip-path="url(#clip650)" d="M 0 0 M173.183 94.3129 L178.067 94.3129 L178.067 100.193 L173.183 100.193 L173.183 94.3129 Z" fill="#000000" fill-rule="evenodd" fill-opacity="1" /><path clip-path="url(#clip650)" d="M 0 0 M198.252 68.7112 Q194.641 68.7112 192.813 72.276 Q191.007 75.8177 191.007 82.9473 Q191.007 90.0537 192.813 93.6185 Q194.641 97.1601 198.252 97.1601 Q201.887 97.1601 203.692 93.6185 Q205.521 90.0537 205.521 82.9473 Q205.521 75.8177 203.692 72.276 Q201.887 68.7112 198.252 68.7112 M198.252 65.0075 Q204.063 65.0075 207.118 69.614 Q210.197 74.1973 210.197 82.9473 Q210.197 91.6741 207.118 96.2805 Q204.063 100.864 198.252 100.864 Q192.442 100.864 189.364 96.2805 Q186.308 91.6741 186.308 82.9473 Q186.308 74.1973 189.364 69.614 Q192.442 65.0075 198.252 65.0075 Z" fill="#000000" fill-rule="evenodd" fill-opacity="1" /><path clip-path="url(#clip650)" d="M 0 0 M53.6652 943.087 L70.0902 948.756 L70.0902 1003.44 Q70.0902 1004.18 70.058 1004.47 Q70.0258 1004.76 69.8648 1004.99 Q69.7037 1005.21 69.3495 1005.21 Q69.0596 1005.21 68.3189 1004.63 L39.3658 981.219 L6.25819 1005.28 Q4.74452 1005.28 4.45466 1005.02 Q4.13261 1004.76 4.13261 1003.44 L4.13261 948.756 L19.5592 943.087 L19.5592 944.73 Q17.5624 945.471 15.8877 946.662 Q14.1808 947.822 12.957 949.174 Q11.7332 950.495 10.767 952.234 Q9.76863 953.941 9.15672 955.551 Q8.5126 957.129 8.06172 959.094 Q7.57863 961.058 7.35319 962.636 Q7.09554 964.182 6.96672 966.114 Q6.8379 968.047 6.80569 969.271 Q6.77349 970.494 6.77349 972.04 L6.77349 998.159 L36.1774 976.742 Q36.9182 976.259 37.1114 976.259 Q37.4013 976.259 38.1742 976.871 L66.4509 999.737 L66.4509 971.718 Q66.4509 962.701 64.5508 956.421 Q63.1015 952.169 60.2352 949.078 Q57.3689 945.954 53.6652 944.73 L53.6652 943.087 Z" fill="#000000" fill-rule="evenodd" fill-opacity="1" /><path clip-path="url(#clip650)" d="M 0 0 M96.2324 1014.26 Q96.8636 1014.26 97.0215 1014.56 Q97.1567 1014.85 97.1567 1015.66 L97.1567 1019.99 L110.773 1023.42 Q111.968 1023.69 112.983 1023.69 Q114.11 1023.69 114.606 1023.35 Q115.102 1022.99 115.102 1022.25 Q115.102 1020.78 113.772 1019.2 Q112.442 1017.6 109.195 1016.25 Q108.767 1016.07 108.677 1015.98 Q108.564 1015.87 108.564 1015.57 Q108.564 1015.01 109.015 1015.01 Q109.173 1015.01 109.894 1015.32 Q110.616 1015.62 111.675 1016.27 Q112.735 1016.9 113.727 1017.74 Q114.719 1018.55 115.44 1019.79 Q116.139 1021.03 116.139 1022.36 Q116.139 1024.23 114.944 1025.42 Q113.749 1026.6 111.878 1026.6 Q111.269 1026.6 109.331 1026.12 Q107.369 1025.65 97.1567 1023.08 L97.1567 1027.16 Q97.1567 1027.72 97.1342 1027.95 Q97.1116 1028.15 96.9989 1028.31 Q96.8636 1028.45 96.5931 1028.45 Q96.1648 1028.45 95.9844 1028.26 Q95.7815 1028.08 95.759 1027.86 Q95.7139 1027.61 95.7139 1027.05 L95.7139 1022.72 L88.3871 1020.92 Q87.6657 1020.74 87.2599 1020.28 Q86.8315 1019.81 86.7864 1019.54 Q86.7188 1019.27 86.7188 1019.07 Q86.7188 1018.46 87.057 1018.1 Q87.3726 1017.74 87.9587 1017.74 Q88.2743 1017.74 95.7139 1019.63 L95.7139 1015.57 Q95.7139 1015.05 95.7364 1014.85 Q95.759 1014.63 95.8717 1014.45 Q95.9844 1014.26 96.2324 1014.26 Z" fill="#000000" fill-rule="evenodd" fill-opacity="1" /><path clip-path="url(#clip650)" d="M 0 0 M108.609 999.132 Q108.046 999.087 108.046 998.208 L108.046 969.915 Q108.046 968.585 108.564 968.562 Q109.128 968.562 109.105 969.825 L109.105 997.892 Q109.128 999.132 108.609 999.132 M99.5915 999.132 Q99.0279 999.132 99.0504 998.163 L99.0504 969.96 Q99.0504 968.585 99.5915 968.562 Q100.11 968.562 100.11 969.735 L100.11 998.208 Q100.11 999.132 99.5915 999.132 Z" fill="#000000" fill-rule="evenodd" fill-opacity="1" /><path clip-path="url(#clip650)" d="M 0 0 M100.854 950.75 Q94.0682 950.75 90.3709 949.037 Q84.8702 946.647 84.8702 941.011 Q84.8702 939.816 85.2083 938.577 Q85.524 937.314 86.7639 935.736 Q88.0038 934.135 90.0328 933.166 Q93.9555 931.317 100.854 931.317 Q107.595 931.317 111.269 933.031 Q116.635 935.533 116.635 941.056 Q116.635 943.13 115.575 945.25 Q114.516 947.346 111.968 948.676 Q108.158 950.75 100.854 950.75 M100.29 946.918 Q107.256 946.918 110.029 946.422 Q113.028 945.858 114.335 944.325 Q115.62 942.77 115.62 941.056 Q115.62 939.208 114.245 937.675 Q112.847 936.119 109.849 935.646 Q106.896 935.127 100.29 935.15 Q93.8653 935.15 91.2953 935.601 Q88.2969 936.209 87.102 937.833 Q85.8847 939.433 85.8847 941.056 Q85.8847 941.665 86.065 942.319 Q86.2454 942.95 86.7639 943.874 Q87.2824 944.799 88.5674 945.52 Q89.8524 946.219 91.7912 946.557 Q94.2936 946.918 100.29 946.918 Z" fill="#000000" fill-rule="evenodd" fill-opacity="1" /><path clip-path="url(#clip650)" d="M 0 0 M9.67201 875.983 Q10.2839 875.983 10.7992 876.112 L22.2645 877.915 Q23.1341 878.012 23.4561 878.205 Q23.7782 878.366 23.7782 878.881 Q23.7782 879.686 22.9408 879.686 Q22.4577 879.686 21.6848 879.493 Q18.0455 878.946 16.403 878.946 Q15.308 878.946 14.5029 879.171 Q13.6655 879.364 13.0858 879.686 Q12.5061 879.976 12.1197 880.653 Q11.7332 881.329 11.5077 881.973 Q11.2823 882.617 11.1857 883.777 Q11.0569 884.936 11.0247 885.934 Q10.9925 886.933 10.9925 888.575 Q10.9925 892.15 11.1213 892.73 Q11.2823 893.342 11.7654 893.664 Q12.2163 893.954 13.5689 894.276 L48.5767 903.036 L49.9615 903.293 Q50.7345 903.293 50.9921 902.81 Q51.2498 902.327 51.4108 900.846 Q51.5718 898.72 51.5718 896.627 Q51.5718 896.562 51.5718 896.433 Q51.5718 895.725 51.604 895.435 Q51.604 895.145 51.6685 894.855 Q51.7329 894.566 51.8939 894.501 Q52.0227 894.405 52.2804 894.405 Q52.8923 894.405 53.2143 894.662 Q53.5042 894.92 53.5686 895.177 Q53.6008 895.403 53.6008 895.854 Q53.6008 896.756 53.5364 898.688 Q53.472 900.62 53.472 901.586 L53.4076 907.061 L53.472 912.665 Q53.472 913.535 53.5364 915.371 Q53.6008 917.206 53.6008 918.076 Q53.6008 919.203 52.7957 919.203 Q51.8939 919.203 51.7329 918.784 Q51.5718 918.333 51.5718 916.433 Q51.5718 913.76 51.443 912.311 Q51.3142 910.862 50.8633 910.089 Q50.4124 909.284 49.9615 909.058 Q49.4785 908.833 48.3835 908.575 L13.1825 899.718 Q12.4095 899.461 11.7976 899.461 Q11.4755 899.461 11.3467 899.557 Q11.2179 899.622 11.1213 900.041 Q10.9925 900.459 10.9925 901.329 L10.9925 903.905 Q10.9925 906.546 11.1213 908.189 Q11.2179 909.799 11.701 911.345 Q12.1841 912.858 12.8604 913.76 Q13.5367 914.63 14.9216 915.596 Q16.3064 916.562 17.9811 917.271 Q19.6558 917.947 22.3933 918.913 Q23.2951 919.235 23.5527 919.428 Q23.7782 919.59 23.7782 920.04 Q23.7782 920.362 23.5849 920.62 Q23.3595 920.846 23.0697 920.846 Q22.0069 920.523 21.878 920.459 L10.2517 916.498 Q9.31775 916.176 9.15672 915.886 Q8.96348 915.564 8.96348 914.372 L8.96348 877.786 Q8.96348 877.207 8.96348 877.013 Q8.96348 876.82 9.0279 876.498 Q9.09231 876.176 9.25334 876.079 Q9.41437 875.983 9.67201 875.983 Z" fill="#000000" fill-rule="evenodd" fill-opacity="1" /><path clip-path="url(#clip650)" d="M 0 0 M16.5041 851.007 L17.4284 851.571 Q15.918 855.065 13.5057 859.416 Q15.918 863.767 17.4284 867.261 L16.5041 867.802 Q13.1901 863.992 10.6426 859.416 Q13.2127 854.794 16.5041 851.007 Z" fill="#000000" fill-rule="evenodd" fill-opacity="1" /><path clip-path="url(#clip650)" d="M 0 0 M28.8023 849.845 Q30.6058 849.845 31.6364 850.972 Q32.6348 852.099 32.6348 853.388 Q32.6348 854.611 31.9263 855.256 Q31.2177 855.9 30.316 855.9 Q29.0921 855.9 28.0294 854.998 Q26.9666 854.096 26.7411 852.743 Q25.9038 854.064 25.9038 856.028 Q25.9038 857.317 26.5801 858.444 Q27.2564 859.539 28.126 860.215 Q28.9955 860.859 30.2516 861.439 Q31.4754 861.987 32.2161 862.212 Q32.9246 862.405 33.6976 862.566 L42.7152 864.821 Q46.9986 865.916 48.5123 865.916 Q50.3802 865.916 51.6363 865.014 Q52.8601 864.112 52.8601 862.309 Q52.8601 861.6 52.6668 860.795 Q52.4414 859.99 51.8617 858.959 Q51.2498 857.896 50.348 856.962 Q49.414 855.996 47.836 855.062 Q46.2579 854.128 44.2289 853.516 Q43.5204 853.323 43.5204 852.679 Q43.5204 851.874 44.1645 851.874 Q44.712 851.874 45.8714 852.325 Q46.9986 852.743 48.4801 853.677 Q49.9293 854.579 51.2498 855.771 Q52.538 856.962 53.4398 858.734 Q54.3415 860.505 54.3415 862.437 Q54.3415 865.207 52.8601 867.043 Q51.3786 868.879 49.3174 869.555 Q49.6073 869.716 49.9938 869.941 Q50.3802 870.167 51.2498 870.843 Q52.0871 871.487 52.7313 872.228 Q53.3432 872.969 53.8262 874.128 Q54.3415 875.255 54.3415 876.479 Q54.3415 878.025 53.8907 879.41 Q53.4398 880.763 52.4092 881.729 Q51.3786 882.695 49.9615 882.695 Q48.3835 882.695 47.2885 881.632 Q46.1613 880.537 46.1613 879.056 Q46.1613 878.122 46.7088 877.381 Q47.2563 876.608 48.4479 876.608 Q49.7683 876.608 50.7667 877.51 Q51.7651 878.412 52.0227 879.7 Q52.8601 878.379 52.8601 876.415 Q52.8601 874.289 50.9921 872.614 Q49.1242 870.94 46.0002 870.135 Q38.4963 868.138 35.1468 867.365 Q31.7652 866.592 30.316 866.592 Q28.9633 866.592 28.0294 866.946 Q27.0954 867.301 26.6767 867.912 Q26.2258 868.492 26.0648 869.04 Q25.9038 869.555 25.9038 870.135 Q25.9038 871.101 26.2902 872.196 Q26.6767 873.259 27.5785 874.547 Q28.448 875.803 30.2516 876.994 Q32.0551 878.186 34.5349 878.991 Q35.2757 879.152 35.2757 879.861 Q35.2435 880.634 34.5994 880.634 Q34.0519 880.634 32.9246 880.215 Q31.7652 879.764 30.316 878.862 Q28.8667 877.928 27.5785 876.737 Q26.258 875.513 25.3563 873.742 Q24.4545 871.938 24.4545 870.006 Q24.4545 869.136 24.6477 868.299 Q24.8088 867.429 25.2919 866.399 Q25.7749 865.336 26.8377 864.402 Q27.9005 863.468 29.4464 862.888 Q28.7057 862.502 27.9971 861.987 Q27.2886 861.439 26.4191 860.602 Q25.5173 859.732 25.002 858.541 Q24.4545 857.317 24.4545 855.964 Q24.4545 854.644 24.8088 853.355 Q25.1308 852.067 26.1936 850.972 Q27.2242 849.845 28.8023 849.845 Z" fill="#000000" fill-rule="evenodd" fill-opacity="1" /><path clip-path="url(#clip650)" d="M 0 0 M52.1213 824.122 Q52.7526 824.122 52.9104 824.415 Q53.0456 824.708 53.0456 825.519 L53.0456 829.848 L66.6623 833.274 Q67.8571 833.545 68.8716 833.545 Q69.9988 833.545 70.4948 833.207 Q70.9907 832.846 70.9907 832.102 Q70.9907 830.637 69.6606 829.059 Q68.3305 827.458 65.0842 826.105 Q64.6558 825.925 64.5657 825.835 Q64.4529 825.722 64.4529 825.429 Q64.4529 824.866 64.9038 824.866 Q65.0616 824.866 65.783 825.181 Q66.5045 825.474 67.564 826.128 Q68.6236 826.759 69.6155 827.593 Q70.6075 828.405 71.3289 829.645 Q72.0278 830.885 72.0278 832.215 Q72.0278 834.086 70.8329 835.281 Q69.6381 836.453 67.7669 836.453 Q67.1582 836.453 65.2194 835.98 Q63.2581 835.506 53.0456 832.936 L53.0456 837.017 Q53.0456 837.58 53.0231 837.806 Q53.0005 838.009 52.8878 838.167 Q52.7526 838.302 52.482 838.302 Q52.0537 838.302 51.8733 838.121 Q51.6704 837.941 51.6479 837.716 Q51.6028 837.468 51.6028 836.904 L51.6028 832.576 L44.276 830.772 Q43.5546 830.592 43.1488 830.141 Q42.7204 829.667 42.6753 829.397 Q42.6077 829.126 42.6077 828.923 Q42.6077 828.315 42.9459 827.954 Q43.2615 827.593 43.8476 827.593 Q44.1632 827.593 51.6028 829.487 L51.6028 825.429 Q51.6028 824.911 51.6253 824.708 Q51.6479 824.482 51.7606 824.302 Q51.8733 824.122 52.1213 824.122 Z" fill="#000000" fill-rule="evenodd" fill-opacity="1" /><path clip-path="url(#clip650)" d="M 0 0 M35.6497 814.761 Q25.0076 814.761 16.4262 810.793 Q12.8275 809.101 9.81325 806.733 Q6.799 804.365 5.47642 802.796 Q4.15383 801.227 4.15383 800.797 Q4.15383 800.182 4.76899 800.151 Q5.07657 800.151 5.84551 800.981 Q16.1801 811.131 35.6497 811.101 Q55.1809 811.101 65.1156 801.227 Q66.1921 800.151 66.5305 800.151 Q67.1456 800.151 67.1456 800.797 Q67.1456 801.227 65.8846 802.734 Q64.6235 804.242 61.7323 806.579 Q58.8411 808.917 55.3039 810.608 Q46.7225 814.761 35.6497 814.761 Z" fill="#000000" fill-rule="evenodd" fill-opacity="1" /><path clip-path="url(#clip650)" d="M 0 0 M17.4014 783.532 Q11.7332 783.532 7.9329 780.634 Q4.13261 777.735 4.13261 773.838 Q4.13261 771.455 6.25819 769.104 Q11.3467 763.758 11.3145 756.769 Q11.3145 748.846 5.06658 744.241 Q4.13261 743.436 4.13261 742.856 Q4.13261 742.341 4.55128 741.954 Q4.93775 741.536 5.45305 741.536 Q5.83952 741.536 6.64466 742.051 L56.3061 775.416 Q57.3045 776.157 57.3045 776.737 Q57.3045 777.252 56.8858 777.671 Q56.4993 778.057 55.984 778.057 Q55.5332 778.057 54.6636 777.477 L10.5416 747.848 L10.4772 747.912 Q12.796 751.326 12.7638 756.705 Q12.7638 761.793 9.99407 766.656 Q13.4079 765.271 17.4658 765.271 Q23.0052 765.271 26.8699 767.751 Q30.7024 770.231 30.7024 773.838 Q30.7024 777.735 26.9666 780.634 Q23.1985 783.532 17.4014 783.532 M12.023 778.991 Q14.3419 779.442 17.4658 779.442 Q20.5576 779.442 22.8764 778.991 Q25.163 778.54 26.3546 777.896 Q27.5463 777.22 28.2548 776.318 Q28.9311 775.416 29.0921 774.869 Q29.2532 774.321 29.2532 773.774 Q29.2532 771.068 25.9038 769.007 Q22.5222 766.914 17.4014 766.914 Q12.3773 766.914 8.99569 769.007 Q5.58187 771.068 5.58187 773.774 Q5.58187 774.353 5.7429 774.933 Q5.90393 775.481 6.61246 776.35 Q7.28878 777.22 8.4804 777.896 Q9.67201 778.54 12.023 778.991 M43.9713 754.321 Q38.303 754.321 34.5027 751.423 Q30.7024 748.524 30.7024 744.627 Q30.7024 741.053 34.5671 738.573 Q38.4318 736.061 44.0357 736.061 Q49.5751 736.061 53.4398 738.541 Q57.3045 740.988 57.3045 744.627 Q57.3045 748.524 53.5364 751.423 Q49.7683 754.321 43.9713 754.321 M38.5929 749.78 Q40.9439 750.231 44.0357 750.231 Q47.1274 750.231 49.4463 749.78 Q51.7651 749.297 52.9567 748.653 Q54.1161 747.977 54.7924 747.107 Q55.501 746.206 55.662 745.658 Q55.8552 745.078 55.8552 744.563 Q55.8552 741.858 52.5058 739.797 Q49.1242 737.703 43.9713 737.703 Q38.9471 737.703 35.5655 739.797 Q32.1517 741.858 32.1517 744.563 Q32.1517 745.143 32.3449 745.722 Q32.506 746.27 33.2145 747.14 Q33.8908 747.977 35.0824 748.653 Q36.2418 749.297 38.5929 749.78 Z" fill="#000000" fill-rule="evenodd" fill-opacity="1" /><path clip-path="url(#clip650)" d="M 0 0 M52.538 728.211 Q51.4752 729.145 50.0904 729.145 Q48.7055 729.145 47.6749 728.243 Q46.6121 727.309 46.6121 725.635 Q46.6121 723.67 48.5123 722.543 Q50.3802 721.416 53.5364 721.416 Q56.9502 721.416 60.1064 722.801 Q63.2948 724.186 64.8084 725.538 Q66.3221 726.891 66.3221 727.438 Q66.3221 728.082 65.6136 728.082 Q65.3559 728.082 64.8729 727.632 Q59.7843 722.897 53.5364 722.865 Q52.538 722.865 52.538 722.994 L52.6668 723.155 Q53.6008 724.282 53.6008 725.635 Q53.6008 727.277 52.538 728.211 Z" fill="#000000" fill-rule="evenodd" fill-opacity="1" /><path clip-path="url(#clip650)" d="M 0 0 M36.3063 666.011 Q39.5591 666.011 42.8118 667.686 Q46.0646 669.36 48.5767 672.098 Q51.0565 674.835 52.6668 678.571 Q54.2771 682.307 54.406 686.204 L64.2287 688.716 Q66.612 689.199 66.8696 689.457 Q67.1273 689.715 67.1273 690.101 Q67.1273 690.906 66.3865 690.906 Q66.1611 690.906 60.5895 689.457 L54.406 687.911 Q54.0839 693.773 50.7023 697.186 Q47.3207 700.6 42.4576 700.6 Q39.1726 700.6 35.9198 698.925 Q32.6348 697.219 30.1549 694.481 Q27.6751 691.711 26.097 687.975 Q24.5189 684.24 24.3901 680.407 L9.15672 676.575 Q8.28716 676.381 8.06172 676.22 Q7.83628 676.059 7.83628 675.576 Q7.83628 675.222 7.99731 675.029 Q8.15834 674.835 8.31937 674.835 L8.4804 674.803 L9.41437 674.996 L24.3901 678.7 Q24.6155 675.415 25.7749 672.871 Q26.9344 670.327 28.6735 668.877 Q30.3804 667.428 32.3127 666.72 Q34.2451 666.011 36.3063 666.011 M25.8394 680.794 Q26.1614 684.336 27.9005 687.331 Q29.6396 690.326 32.2161 692.259 Q34.7604 694.191 37.8199 695.254 Q40.8473 696.317 43.8424 696.317 Q46.1935 696.317 47.997 695.544 Q49.8005 694.739 50.8311 693.418 Q51.8295 692.098 52.377 690.649 Q52.8923 689.167 52.9567 687.589 L25.8394 680.794 M34.9214 670.327 Q30.7346 670.327 28.3836 672.742 Q26.0326 675.158 25.8394 679.087 L52.9567 685.882 Q52.7313 683.016 51.5396 680.504 Q50.3158 677.959 48.5123 676.124 Q46.6765 674.288 44.4221 672.968 Q42.1355 671.647 39.7201 671.003 Q37.2724 670.327 34.9214 670.327 Z" fill="#000000" fill-rule="evenodd" fill-opacity="1" /><path clip-path="url(#clip650)" d="M 0 0 M43.5848 643.381 Q42.7796 643.317 42.7796 642.061 L42.7796 601.643 Q42.7796 599.742 43.5204 599.71 Q44.3255 599.71 44.2933 601.514 L44.2933 641.61 Q44.3255 643.381 43.5848 643.381 M30.7024 643.381 Q29.8973 643.381 29.9295 641.997 L29.9295 601.707 Q29.9295 599.742 30.7024 599.71 Q31.4432 599.71 31.4432 601.385 L31.4432 642.061 Q31.4432 643.381 30.7024 643.381 Z" fill="#000000" fill-rule="evenodd" fill-opacity="1" /><path clip-path="url(#clip650)" d="M 0 0 M32.506 574.264 Q22.812 574.264 17.5302 571.817 Q9.67201 568.403 9.67201 560.352 Q9.67201 558.645 10.1551 556.873 Q10.606 555.07 12.3773 552.815 Q14.1486 550.529 17.0472 549.144 Q22.651 546.503 32.506 546.503 Q42.1355 546.503 47.3851 548.951 Q55.0501 552.525 55.0501 560.416 Q55.0501 563.379 53.5364 566.406 Q52.0227 569.401 48.3835 571.302 Q42.9407 574.264 32.506 574.264 M31.7008 568.789 Q41.6524 568.789 45.6138 568.081 Q49.8971 567.276 51.7651 565.086 Q53.6008 562.864 53.6008 560.416 Q53.6008 557.775 51.6363 555.585 Q49.6395 553.363 45.3561 552.687 Q41.1371 551.946 31.7008 551.978 Q22.5222 551.978 18.8507 552.622 Q14.5673 553.492 12.8604 555.81 Q11.1213 558.097 11.1213 560.416 Q11.1213 561.285 11.3789 562.219 Q11.6366 563.121 12.3773 564.442 Q13.118 565.762 14.9538 566.793 Q16.7895 567.791 19.5592 568.274 Q23.1341 568.789 31.7008 568.789 Z" fill="#000000" fill-rule="evenodd" fill-opacity="1" /><path clip-path="url(#clip650)" d="M 0 0 M52.538 540.602 Q51.4752 541.6 50.0904 541.6 Q48.7055 541.6 47.7071 540.602 Q46.6765 539.604 46.6765 538.09 Q46.6765 536.641 47.6427 535.675 Q48.5767 534.676 50.1226 534.676 Q51.6363 534.676 52.6346 535.739 Q53.6008 536.77 53.6008 538.09 Q53.6008 539.604 52.538 540.602 Z" fill="#000000" fill-rule="evenodd" fill-opacity="1" /><path clip-path="url(#clip650)" d="M 0 0 M22.5866 523.45 L9.0279 521.292 L9.0279 519.65 Q9.83304 519.457 10.1873 519.135 Q10.5416 518.78 10.8314 516.912 Q11.1213 515.012 11.1213 511.18 L11.1213 495.173 Q12.635 495.173 13.4401 495.753 L25.9682 504.674 Q29.9295 507.508 37.2402 508.764 Q42.1355 509.505 48.0614 509.473 L51.4108 509.473 Q55.0501 509.473 55.0501 512.532 Q55.0501 515.56 51.4108 515.56 Q38.8183 515.56 26.6123 507.444 Q25.3563 506.574 20.8797 503.386 Q16.403 500.165 16.2098 500.036 L16.2098 513.692 Q16.2098 519.682 16.5963 520.165 Q17.176 520.809 22.5866 521.808 L22.5866 523.45 Z" fill="#000000" fill-rule="evenodd" fill-opacity="1" /><path clip-path="url(#clip650)" d="M 0 0 M42.9729 495.536 Q41.0083 495.536 40.2676 494.473 Q39.4946 493.411 39.4946 492.283 Q39.4946 490.77 40.4608 489.9 Q41.3948 488.998 42.7152 488.998 Q44.0357 488.998 45.0018 489.9 Q45.9358 490.77 45.9358 492.283 Q45.9358 493.024 45.807 493.411 Q48.8343 492.541 51.0243 489.9 Q53.2143 487.227 53.2143 483.717 Q53.2143 479.304 48.931 476.663 Q46.1613 475.085 39.8811 475.085 Q34.3417 475.085 31.572 476.277 Q27.353 478.113 27.353 481.881 Q27.353 487.227 31.9585 490.383 Q32.5382 490.77 32.5704 491.221 Q32.5704 491.865 32.2161 492.026 Q31.8296 492.154 30.8313 492.154 L11.3145 492.154 Q9.73643 492.154 9.73643 491.51 Q9.73643 491.253 9.92966 490.705 Q11.7654 486.551 11.7976 481.945 Q11.7976 477.211 9.86525 472.96 Q9.67201 472.638 9.67201 472.444 Q9.67201 471.8 10.4127 471.768 Q10.6704 471.768 11.4433 472.316 Q12.1841 472.831 13.1825 473.958 Q14.1486 475.085 15.0826 476.535 Q16.0166 477.984 16.6607 480.109 Q17.2726 482.203 17.2726 484.522 Q17.2726 487.291 16.403 490.126 L29.2532 490.126 Q25.9038 486.712 25.9038 481.752 Q25.9038 476.47 30.1549 472.831 Q34.4061 469.192 40.332 469.192 Q46.5477 469.192 50.7989 473.507 Q55.0501 477.791 55.0501 483.588 Q55.0501 488.869 51.282 492.219 Q47.5139 495.536 42.9729 495.536 Z" fill="#000000" fill-rule="evenodd" fill-opacity="1" /><path clip-path="url(#clip650)" d="M 0 0 M66.5305 462.418 Q66.2229 462.418 65.454 461.618 Q55.1194 451.468 35.6497 451.468 Q16.1186 451.468 6.24536 461.218 Q5.10732 462.418 4.76899 462.418 Q4.15383 462.418 4.15383 461.803 Q4.15383 461.372 5.4149 459.865 Q6.67597 458.327 9.56719 456.02 Q12.4584 453.683 15.9956 451.96 Q24.577 447.808 35.6497 447.808 Q46.2919 447.808 54.8733 451.776 Q58.472 453.467 61.4862 455.836 Q64.5005 458.204 65.8231 459.773 Q67.1456 461.341 67.1456 461.803 Q67.1456 462.418 66.5305 462.418 Z" fill="#000000" fill-rule="evenodd" fill-opacity="1" /><polyline clip-path="url(#clip653)" style="stroke:#0000ff; stroke-width:4; stroke-opacity:1; fill:none" points="
  293.767,1334.4 377.224,1356.17 460.681,1364.95 544.138,1371.1 627.595,1375.87 711.052,1379.71 794.509,1382.88 877.966,1385.54 961.423,1387.79 1044.88,1389.73 
  1128.34,1391.4 1211.79,1392.87 1295.25,1394.15 1378.71,1395.3 1462.17,1396.31 1545.62,1397.23 1629.08,1398.05 1712.54,1398.8 1795.99,1399.48 1879.45,1400.1 
  
  "/>
<polyline clip-path="url(#clip653)" style="stroke:#ff0000; stroke-width:4; stroke-opacity:1; fill:none" points="
  293.767,1271.09 377.224,740.734 460.681,541.028 544.138,422.402 627.595,343.522 711.052,287.756 794.509,246.632 877.966,215.31 961.423,190.824 1044.88,171.263 
  1128.34,155.348 1211.79,142.193 1295.25,131.171 1378.71,121.824 1462.17,113.815 1545.62,106.886 1629.08,100.843 1712.54,95.5313 1795.99,90.8316 1879.45,86.6476 
  
  "/>
<path clip-path="url(#clip650)" d="
M1997.24 252.413 L2352.76 252.413 L2352.76 93.6527 L1997.24 93.6527  Z
  " fill="#ffffff" fill-rule="evenodd" fill-opacity="1"/>
<polyline clip-path="url(#clip650)" style="stroke:#000000; stroke-width:4; stroke-opacity:1; fill:none" points="
  1997.24,252.413 2352.76,252.413 2352.76,93.6527 1997.24,93.6527 1997.24,252.413 
  "/>
<polyline clip-path="url(#clip650)" style="stroke:#0000ff; stroke-width:3.5; stroke-opacity:1; fill:none" points="
  2020.65,146.573 2161.08,146.573 
  "/>
<path clip-path="url(#clip650)" d="M 0 0 M2213.04 132.227 Q2213.04 132.617 2212.96 132.945 L2211.81 140.241 Q2211.75 140.794 2211.62 140.999 Q2211.52 141.204 2211.19 141.204 Q2210.68 141.204 2210.68 140.671 Q2210.68 140.364 2210.8 139.872 Q2211.15 137.556 2211.15 136.511 Q2211.15 135.814 2211.01 135.302 Q2210.89 134.769 2210.68 134.4 Q2210.5 134.031 2210.07 133.785 Q2209.64 133.539 2209.23 133.396 Q2208.82 133.252 2208.08 133.191 Q2207.34 133.109 2206.71 133.088 Q2206.07 133.068 2205.02 133.068 Q2202.75 133.068 2202.38 133.15 Q2201.99 133.252 2201.79 133.56 Q2201.6 133.846 2201.4 134.707 L2195.82 156.985 L2195.66 157.866 Q2195.66 158.358 2195.97 158.522 Q2196.27 158.686 2197.22 158.788 Q2198.57 158.891 2199.9 158.891 Q2199.94 158.891 2200.02 158.891 Q2200.47 158.891 2200.66 158.911 Q2200.84 158.911 2201.03 158.952 Q2201.21 158.993 2201.25 159.096 Q2201.32 159.178 2201.32 159.342 Q2201.32 159.731 2201.15 159.936 Q2200.99 160.121 2200.82 160.162 Q2200.68 160.182 2200.39 160.182 Q2199.82 160.182 2198.59 160.141 Q2197.36 160.1 2196.74 160.1 L2193.26 160.059 L2189.69 160.1 Q2189.14 160.1 2187.97 160.141 Q2186.8 160.182 2186.25 160.182 Q2185.53 160.182 2185.53 159.67 Q2185.53 159.096 2185.8 158.993 Q2186.09 158.891 2187.3 158.891 Q2189 158.891 2189.92 158.809 Q2190.84 158.727 2191.33 158.44 Q2191.85 158.153 2191.99 157.866 Q2192.13 157.559 2192.3 156.862 L2197.93 134.461 Q2198.1 133.969 2198.1 133.58 Q2198.1 133.375 2198.04 133.293 Q2198 133.211 2197.73 133.15 Q2197.46 133.068 2196.91 133.068 L2195.27 133.068 Q2193.59 133.068 2192.54 133.15 Q2191.52 133.211 2190.53 133.519 Q2189.57 133.826 2189 134.256 Q2188.44 134.687 2187.83 135.568 Q2187.21 136.449 2186.76 137.515 Q2186.33 138.581 2185.72 140.323 Q2185.51 140.897 2185.39 141.061 Q2185.29 141.204 2185 141.204 Q2184.8 141.204 2184.63 141.081 Q2184.49 140.938 2184.49 140.753 Q2184.69 140.077 2184.73 139.995 L2187.26 132.596 Q2187.46 132.002 2187.65 131.899 Q2187.85 131.776 2188.61 131.776 L2211.89 131.776 Q2212.26 131.776 2212.38 131.776 Q2212.51 131.776 2212.71 131.817 Q2212.92 131.858 2212.98 131.961 Q2213.04 132.063 2213.04 132.227 Z" fill="#000000" fill-rule="evenodd" fill-opacity="1" /><path clip-path="url(#clip650)" d="M 0 0 M2220.41 153.808 Q2220.45 153.296 2221.25 153.296 L2246.97 153.296 Q2248.18 153.296 2248.2 153.767 Q2248.2 154.28 2247.05 154.259 L2221.53 154.259 Q2220.41 154.28 2220.41 153.808 M2220.41 145.61 Q2220.41 145.098 2221.29 145.119 L2246.93 145.119 Q2248.18 145.119 2248.2 145.61 Q2248.2 146.082 2247.13 146.082 L2221.25 146.082 Q2220.41 146.082 2220.41 145.61 Z" fill="#000000" fill-rule="evenodd" fill-opacity="1" /><path clip-path="url(#clip650)" d="M 0 0 M2264.38 146.758 Q2264.38 140.589 2265.94 137.228 Q2268.11 132.227 2273.23 132.227 Q2274.32 132.227 2275.45 132.535 Q2276.6 132.822 2278.03 133.949 Q2279.49 135.076 2280.37 136.921 Q2282.05 140.487 2282.05 146.758 Q2282.05 152.886 2280.49 156.227 Q2278.21 161.104 2273.19 161.104 Q2271.31 161.104 2269.38 160.141 Q2267.48 159.178 2266.27 156.862 Q2264.38 153.398 2264.38 146.758 M2267.87 146.246 Q2267.87 152.579 2268.32 155.099 Q2268.83 157.825 2270.22 159.014 Q2271.64 160.182 2273.19 160.182 Q2274.87 160.182 2276.27 158.932 Q2277.68 157.661 2278.11 154.935 Q2278.58 152.251 2278.56 146.246 Q2278.56 140.405 2278.15 138.068 Q2277.6 135.343 2276.12 134.256 Q2274.67 133.15 2273.19 133.15 Q2272.64 133.15 2272.05 133.314 Q2271.47 133.478 2270.63 133.949 Q2269.79 134.42 2269.14 135.588 Q2268.5 136.757 2268.19 138.519 Q2267.87 140.794 2267.87 146.246 Z" fill="#000000" fill-rule="evenodd" fill-opacity="1" /><polyline clip-path="url(#clip650)" style="stroke:#ff0000; stroke-width:3.5; stroke-opacity:1; fill:none" points="
  2020.65,199.493 2161.08,199.493 
  "/>
<path clip-path="url(#clip650)" d="M 0 0 M2213.04 185.155 Q2213.04 185.545 2212.96 185.873 L2211.81 193.169 Q2211.75 193.722 2211.62 193.927 Q2211.52 194.132 2211.19 194.132 Q2210.68 194.132 2210.68 193.599 Q2210.68 193.292 2210.8 192.8 Q2211.15 190.484 2211.15 189.439 Q2211.15 188.742 2211.01 188.229 Q2210.89 187.697 2210.68 187.328 Q2210.5 186.959 2210.07 186.713 Q2209.64 186.467 2209.23 186.323 Q2208.82 186.18 2208.08 186.118 Q2207.34 186.036 2206.71 186.016 Q2206.07 185.995 2205.02 185.995 Q2202.75 185.995 2202.38 186.077 Q2201.99 186.18 2201.79 186.487 Q2201.6 186.774 2201.4 187.635 L2195.82 209.913 L2195.66 210.794 Q2195.66 211.286 2195.97 211.45 Q2196.27 211.614 2197.22 211.716 Q2198.57 211.819 2199.9 211.819 Q2199.94 211.819 2200.02 211.819 Q2200.47 211.819 2200.66 211.839 Q2200.84 211.839 2201.03 211.88 Q2201.21 211.921 2201.25 212.024 Q2201.32 212.106 2201.32 212.27 Q2201.32 212.659 2201.15 212.864 Q2200.99 213.048 2200.82 213.089 Q2200.68 213.11 2200.39 213.11 Q2199.82 213.11 2198.59 213.069 Q2197.36 213.028 2196.74 213.028 L2193.26 212.987 L2189.69 213.028 Q2189.14 213.028 2187.97 213.069 Q2186.8 213.11 2186.25 213.11 Q2185.53 213.11 2185.53 212.598 Q2185.53 212.024 2185.8 211.921 Q2186.09 211.819 2187.3 211.819 Q2189 211.819 2189.92 211.737 Q2190.84 211.655 2191.33 211.368 Q2191.85 211.081 2191.99 210.794 Q2192.13 210.487 2192.3 209.79 L2197.93 187.389 Q2198.1 186.897 2198.1 186.508 Q2198.1 186.303 2198.04 186.221 Q2198 186.139 2197.73 186.077 Q2197.46 185.995 2196.91 185.995 L2195.27 185.995 Q2193.59 185.995 2192.54 186.077 Q2191.52 186.139 2190.53 186.446 Q2189.57 186.754 2189 187.184 Q2188.44 187.615 2187.83 188.496 Q2187.21 189.377 2186.76 190.443 Q2186.33 191.509 2185.72 193.251 Q2185.51 193.824 2185.39 193.988 Q2185.29 194.132 2185 194.132 Q2184.8 194.132 2184.63 194.009 Q2184.49 193.865 2184.49 193.681 Q2184.69 193.005 2184.73 192.923 L2187.26 185.524 Q2187.46 184.93 2187.65 184.827 Q2187.85 184.704 2188.61 184.704 L2211.89 184.704 Q2212.26 184.704 2212.38 184.704 Q2212.51 184.704 2212.71 184.745 Q2212.92 184.786 2212.98 184.889 Q2213.04 184.991 2213.04 185.155 Z" fill="#000000" fill-rule="evenodd" fill-opacity="1" /><path clip-path="url(#clip650)" d="M 0 0 M2220.41 206.736 Q2220.45 206.224 2221.25 206.224 L2246.97 206.224 Q2248.18 206.224 2248.2 206.695 Q2248.2 207.207 2247.05 207.187 L2221.53 207.187 Q2220.41 207.207 2220.41 206.736 M2220.41 198.538 Q2220.41 198.026 2221.29 198.046 L2246.93 198.046 Q2248.18 198.046 2248.2 198.538 Q2248.2 199.01 2247.13 199.01 L2221.25 199.01 Q2220.41 199.01 2220.41 198.538 Z" fill="#000000" fill-rule="evenodd" fill-opacity="1" /><path clip-path="url(#clip650)" d="M 0 0 M2264.38 206.183 L2264.38 204.892 L2277.27 185.196 Q2277.6 184.684 2278.11 184.704 Q2278.58 184.704 2278.69 184.889 Q2278.79 185.073 2278.79 185.791 L2278.79 204.892 L2282.99 204.892 L2282.99 206.183 L2278.79 206.183 L2278.79 209.831 Q2278.79 211.04 2279.28 211.429 Q2279.79 211.819 2281.97 211.819 L2282.85 211.819 L2282.85 213.11 Q2281.13 212.987 2277.15 212.987 Q2273.19 212.987 2271.47 213.11 L2271.47 211.819 L2272.35 211.819 Q2274.53 211.819 2275.04 211.45 Q2275.55 211.06 2275.55 209.831 L2275.55 206.183 L2264.38 206.183 M2265.57 204.892 L2275.8 204.892 L2275.8 189.234 L2265.57 204.892 Z" fill="#000000" fill-rule="evenodd" fill-opacity="1" /><path clip-path="url(#clip650)" d="M 0 0 M2285.16 199.686 Q2285.16 193.517 2286.72 190.156 Q2288.89 185.155 2294.02 185.155 Q2295.1 185.155 2296.23 185.463 Q2297.38 185.75 2298.81 186.877 Q2300.27 188.004 2301.15 189.848 Q2302.83 193.415 2302.83 199.686 Q2302.83 205.814 2301.27 209.154 Q2299 214.032 2293.97 214.032 Q2292.09 214.032 2290.16 213.069 Q2288.26 212.106 2287.05 209.79 Q2285.16 206.326 2285.16 199.686 M2288.65 199.174 Q2288.65 205.506 2289.1 208.027 Q2289.61 210.753 2291 211.942 Q2292.42 213.11 2293.97 213.11 Q2295.66 213.11 2297.05 211.86 Q2298.46 210.589 2298.89 207.863 Q2299.37 205.178 2299.34 199.174 Q2299.34 193.333 2298.93 190.996 Q2298.38 188.27 2296.91 187.184 Q2295.45 186.077 2293.97 186.077 Q2293.42 186.077 2292.83 186.241 Q2292.25 186.405 2291.41 186.877 Q2290.57 187.348 2289.92 188.516 Q2289.28 189.685 2288.97 191.447 Q2288.65 193.722 2288.65 199.174 Z" fill="#000000" fill-rule="evenodd" fill-opacity="1" /></svg>
