<?xml version="1.0" encoding="utf-8"?>
<svg xmlns="http://www.w3.org/2000/svg" xmlns:xlink="http://www.w3.org/1999/xlink" width="600" height="400" viewBox="0 0 2400 1600">
<defs>
  <clipPath id="clip950">
    <rect x="0" y="0" width="2400" height="1600"/>
  </clipPath>
</defs>
<path clip-path="url(#clip950)" d="
M0 1600 L2400 1600 L2400 0 L0 0  Z
  " fill="#ffffff" fill-rule="evenodd" fill-opacity="1"/>
<defs>
  <clipPath id="clip951">
    <rect x="480" y="0" width="1681" height="1600"/>
  </clipPath>
</defs>
<defs>
  <clipPath id="clip952">
    <rect x="198" y="47" width="1794" height="1397"/>
  </clipPath>
</defs>
<path clip-path="url(#clip950)" d="
M284.53 1439.5 L1932.56 1439.5 L1932.56 47.2441 L284.53 47.2441  Z
  " fill="#ffffff" fill-rule="evenodd" fill-opacity="1"/>
<defs>
  <clipPath id="clip953">
    <rect x="284" y="47" width="1649" height="1393"/>
  </clipPath>
</defs>
<polyline clip-path="url(#clip953)" style="stroke:#000000; stroke-width:2; stroke-opacity:0.1; fill:none" points="
  330.861,1439.5 330.861,47.2441 
  "/>
<polyline clip-path="url(#clip953)" style="stroke:#000000; stroke-width:2; stroke-opacity:0.1; fill:none" points="
  641.872,1439.5 641.872,47.2441 
  "/>
<polyline clip-path="url(#clip953)" style="stroke:#000000; stroke-width:2; stroke-opacity:0.1; fill:none" points="
  952.883,1439.5 952.883,47.2441 
  "/>
<polyline clip-path="url(#clip953)" style="stroke:#000000; stroke-width:2; stroke-opacity:0.1; fill:none" points="
  1263.89,1439.5 1263.89,47.2441 
  "/>
<polyline clip-path="url(#clip953)" style="stroke:#000000; stroke-width:2; stroke-opacity:0.1; fill:none" points="
  1574.9,1439.5 1574.9,47.2441 
  "/>
<polyline clip-path="url(#clip953)" style="stroke:#000000; stroke-width:2; stroke-opacity:0.1; fill:none" points="
  1885.92,1439.5 1885.92,47.2441 
  "/>
<polyline clip-path="url(#clip950)" style="stroke:#000000; stroke-width:4; stroke-opacity:1; fill:none" points="
  284.53,1439.5 1932.56,1439.5 
  "/>
<polyline clip-path="url(#clip950)" style="stroke:#000000; stroke-width:4; stroke-opacity:1; fill:none" points="
  330.861,1439.5 330.861,1422.79 
  "/>
<polyline clip-path="url(#clip950)" style="stroke:#000000; stroke-width:4; stroke-opacity:1; fill:none" points="
  641.872,1439.5 641.872,1422.79 
  "/>
<polyline clip-path="url(#clip950)" style="stroke:#000000; stroke-width:4; stroke-opacity:1; fill:none" points="
  952.883,1439.5 952.883,1422.79 
  "/>
<polyline clip-path="url(#clip950)" style="stroke:#000000; stroke-width:4; stroke-opacity:1; fill:none" points="
  1263.89,1439.5 1263.89,1422.79 
  "/>
<polyline clip-path="url(#clip950)" style="stroke:#000000; stroke-width:4; stroke-opacity:1; fill:none" points="
  1574.9,1439.5 1574.9,1422.79 
  "/>
<polyline clip-path="url(#clip950)" style="stroke:#000000; stroke-width:4; stroke-opacity:1; fill:none" points="
  1885.92,1439.5 1885.92,1422.79 
  "/>
<path clip-path="url(#clip950)" d="M 0 0 M330.861 1468.69 Q327.25 1468.69 325.421 1472.26 Q323.616 1475.8 323.616 1482.93 Q323.616 1490.04 325.421 1493.6 Q327.25 1497.14 330.861 1497.14 Q334.495 1497.14 336.301 1493.6 Q338.13 1490.04 338.13 1482.93 Q338.13 1475.8 336.301 1472.26 Q334.495 1468.69 330.861 1468.69 M330.861 1464.99 Q336.671 1464.99 339.727 1469.6 Q342.806 1474.18 342.806 1482.93 Q342.806 1491.66 339.727 1496.26 Q336.671 1500.85 330.861 1500.85 Q325.051 1500.85 321.972 1496.26 Q318.917 1491.66 318.917 1482.93 Q318.917 1474.18 321.972 1469.6 Q325.051 1464.99 330.861 1464.99 Z" fill="#000000" fill-rule="evenodd" fill-opacity="1" /><path clip-path="url(#clip950)" d="M 0 0 M601.479 1496.24 L609.118 1496.24 L609.118 1469.87 L600.807 1471.54 L600.807 1467.28 L609.071 1465.61 L613.747 1465.61 L613.747 1496.24 L621.386 1496.24 L621.386 1500.17 L601.479 1500.17 L601.479 1496.24 Z" fill="#000000" fill-rule="evenodd" fill-opacity="1" /><path clip-path="url(#clip950)" d="M 0 0 M640.83 1468.69 Q637.219 1468.69 635.391 1472.26 Q633.585 1475.8 633.585 1482.93 Q633.585 1490.04 635.391 1493.6 Q637.219 1497.14 640.83 1497.14 Q644.465 1497.14 646.27 1493.6 Q648.099 1490.04 648.099 1482.93 Q648.099 1475.8 646.27 1472.26 Q644.465 1468.69 640.83 1468.69 M640.83 1464.99 Q646.641 1464.99 649.696 1469.6 Q652.775 1474.18 652.775 1482.93 Q652.775 1491.66 649.696 1496.26 Q646.641 1500.85 640.83 1500.85 Q635.02 1500.85 631.942 1496.26 Q628.886 1491.66 628.886 1482.93 Q628.886 1474.18 631.942 1469.6 Q635.02 1464.99 640.83 1464.99 Z" fill="#000000" fill-rule="evenodd" fill-opacity="1" /><path clip-path="url(#clip950)" d="M 0 0 M670.992 1468.69 Q667.381 1468.69 665.552 1472.26 Q663.747 1475.8 663.747 1482.93 Q663.747 1490.04 665.552 1493.6 Q667.381 1497.14 670.992 1497.14 Q674.627 1497.14 676.432 1493.6 Q678.261 1490.04 678.261 1482.93 Q678.261 1475.8 676.432 1472.26 Q674.627 1468.69 670.992 1468.69 M670.992 1464.99 Q676.802 1464.99 679.858 1469.6 Q682.937 1474.18 682.937 1482.93 Q682.937 1491.66 679.858 1496.26 Q676.802 1500.85 670.992 1500.85 Q665.182 1500.85 662.103 1496.26 Q659.048 1491.66 659.048 1482.93 Q659.048 1474.18 662.103 1469.6 Q665.182 1464.99 670.992 1464.99 Z" fill="#000000" fill-rule="evenodd" fill-opacity="1" /><path clip-path="url(#clip950)" d="M 0 0 M916.575 1496.24 L932.895 1496.24 L932.895 1500.17 L910.95 1500.17 L910.95 1496.24 Q913.612 1493.48 918.196 1488.85 Q922.802 1484.2 923.983 1482.86 Q926.228 1480.34 927.108 1478.6 Q928.01 1476.84 928.01 1475.15 Q928.01 1472.4 926.066 1470.66 Q924.145 1468.92 921.043 1468.92 Q918.844 1468.92 916.39 1469.69 Q913.959 1470.45 911.182 1472 L911.182 1467.28 Q914.006 1466.15 916.459 1465.57 Q918.913 1464.99 920.95 1464.99 Q926.321 1464.99 929.515 1467.67 Q932.709 1470.36 932.709 1474.85 Q932.709 1476.98 931.899 1478.9 Q931.112 1480.8 929.006 1483.39 Q928.427 1484.06 925.325 1487.28 Q922.223 1490.47 916.575 1496.24 Z" fill="#000000" fill-rule="evenodd" fill-opacity="1" /><path clip-path="url(#clip950)" d="M 0 0 M952.709 1468.69 Q949.098 1468.69 947.27 1472.26 Q945.464 1475.8 945.464 1482.93 Q945.464 1490.04 947.27 1493.6 Q949.098 1497.14 952.709 1497.14 Q956.344 1497.14 958.149 1493.6 Q959.978 1490.04 959.978 1482.93 Q959.978 1475.8 958.149 1472.26 Q956.344 1468.69 952.709 1468.69 M952.709 1464.99 Q958.519 1464.99 961.575 1469.6 Q964.654 1474.18 964.654 1482.93 Q964.654 1491.66 961.575 1496.26 Q958.519 1500.85 952.709 1500.85 Q946.899 1500.85 943.82 1496.26 Q940.765 1491.66 940.765 1482.93 Q940.765 1474.18 943.82 1469.6 Q946.899 1464.99 952.709 1464.99 Z" fill="#000000" fill-rule="evenodd" fill-opacity="1" /><path clip-path="url(#clip950)" d="M 0 0 M982.871 1468.69 Q979.26 1468.69 977.431 1472.26 Q975.626 1475.8 975.626 1482.93 Q975.626 1490.04 977.431 1493.6 Q979.26 1497.14 982.871 1497.14 Q986.505 1497.14 988.311 1493.6 Q990.14 1490.04 990.14 1482.93 Q990.14 1475.8 988.311 1472.26 Q986.505 1468.69 982.871 1468.69 M982.871 1464.99 Q988.681 1464.99 991.737 1469.6 Q994.816 1474.18 994.816 1482.93 Q994.816 1491.66 991.737 1496.26 Q988.681 1500.85 982.871 1500.85 Q977.061 1500.85 973.982 1496.26 Q970.927 1491.66 970.927 1482.93 Q970.927 1474.18 973.982 1469.6 Q977.061 1464.99 982.871 1464.99 Z" fill="#000000" fill-rule="evenodd" fill-opacity="1" /><path clip-path="url(#clip950)" d="M 0 0 M1237.66 1481.54 Q1241.01 1482.26 1242.89 1484.53 Q1244.79 1486.79 1244.79 1490.13 Q1244.79 1495.24 1241.27 1498.04 Q1237.75 1500.85 1231.27 1500.85 Q1229.09 1500.85 1226.78 1500.41 Q1224.48 1499.99 1222.03 1499.13 L1222.03 1494.62 Q1223.97 1495.75 1226.29 1496.33 Q1228.6 1496.91 1231.13 1496.91 Q1235.53 1496.91 1237.82 1495.17 Q1240.13 1493.44 1240.13 1490.13 Q1240.13 1487.07 1237.98 1485.36 Q1235.85 1483.62 1232.03 1483.62 L1228 1483.62 L1228 1479.78 L1232.22 1479.78 Q1235.66 1479.78 1237.49 1478.41 Q1239.32 1477.03 1239.32 1474.43 Q1239.32 1471.77 1237.42 1470.36 Q1235.55 1468.92 1232.03 1468.92 Q1230.11 1468.92 1227.91 1469.34 Q1225.71 1469.76 1223.07 1470.64 L1223.07 1466.47 Q1225.73 1465.73 1228.05 1465.36 Q1230.39 1464.99 1232.45 1464.99 Q1237.77 1464.99 1240.87 1467.42 Q1243.97 1469.83 1243.97 1473.95 Q1243.97 1476.82 1242.33 1478.81 Q1240.69 1480.78 1237.66 1481.54 Z" fill="#000000" fill-rule="evenodd" fill-opacity="1" /><path clip-path="url(#clip950)" d="M 0 0 M1263.65 1468.69 Q1260.04 1468.69 1258.21 1472.26 Q1256.41 1475.8 1256.41 1482.93 Q1256.41 1490.04 1258.21 1493.6 Q1260.04 1497.14 1263.65 1497.14 Q1267.28 1497.14 1269.09 1493.6 Q1270.92 1490.04 1270.92 1482.93 Q1270.92 1475.8 1269.09 1472.26 Q1267.28 1468.69 1263.65 1468.69 M1263.65 1464.99 Q1269.46 1464.99 1272.52 1469.6 Q1275.6 1474.18 1275.6 1482.93 Q1275.6 1491.66 1272.52 1496.26 Q1269.46 1500.85 1263.65 1500.85 Q1257.84 1500.85 1254.76 1496.26 Q1251.71 1491.66 1251.71 1482.93 Q1251.71 1474.18 1254.76 1469.6 Q1257.84 1464.99 1263.65 1464.99 Z" fill="#000000" fill-rule="evenodd" fill-opacity="1" /><path clip-path="url(#clip950)" d="M 0 0 M1293.81 1468.69 Q1290.2 1468.69 1288.37 1472.26 Q1286.57 1475.8 1286.57 1482.93 Q1286.57 1490.04 1288.37 1493.6 Q1290.2 1497.14 1293.81 1497.14 Q1297.45 1497.14 1299.25 1493.6 Q1301.08 1490.04 1301.08 1482.93 Q1301.08 1475.8 1299.25 1472.26 Q1297.45 1468.69 1293.81 1468.69 M1293.81 1464.99 Q1299.62 1464.99 1302.68 1469.6 Q1305.76 1474.18 1305.76 1482.93 Q1305.76 1491.66 1302.68 1496.26 Q1299.62 1500.85 1293.81 1500.85 Q1288 1500.85 1284.92 1496.26 Q1281.87 1491.66 1281.87 1482.93 Q1281.87 1474.18 1284.92 1469.6 Q1288 1464.99 1293.81 1464.99 Z" fill="#000000" fill-rule="evenodd" fill-opacity="1" /><path clip-path="url(#clip950)" d="M 0 0 M1548 1469.69 L1536.19 1488.14 L1548 1488.14 L1548 1469.69 M1546.77 1465.61 L1552.65 1465.61 L1552.65 1488.14 L1557.58 1488.14 L1557.58 1492.03 L1552.65 1492.03 L1552.65 1500.17 L1548 1500.17 L1548 1492.03 L1532.39 1492.03 L1532.39 1487.51 L1546.77 1465.61 Z" fill="#000000" fill-rule="evenodd" fill-opacity="1" /><path clip-path="url(#clip950)" d="M 0 0 M1575.31 1468.69 Q1571.7 1468.69 1569.87 1472.26 Q1568.06 1475.8 1568.06 1482.93 Q1568.06 1490.04 1569.87 1493.6 Q1571.7 1497.14 1575.31 1497.14 Q1578.94 1497.14 1580.75 1493.6 Q1582.58 1490.04 1582.58 1482.93 Q1582.58 1475.8 1580.75 1472.26 Q1578.94 1468.69 1575.31 1468.69 M1575.31 1464.99 Q1581.12 1464.99 1584.18 1469.6 Q1587.25 1474.18 1587.25 1482.93 Q1587.25 1491.66 1584.18 1496.26 Q1581.12 1500.85 1575.31 1500.85 Q1569.5 1500.85 1566.42 1496.26 Q1563.37 1491.66 1563.37 1482.93 Q1563.37 1474.18 1566.42 1469.6 Q1569.5 1464.99 1575.31 1464.99 Z" fill="#000000" fill-rule="evenodd" fill-opacity="1" /><path clip-path="url(#clip950)" d="M 0 0 M1605.47 1468.69 Q1601.86 1468.69 1600.03 1472.26 Q1598.23 1475.8 1598.23 1482.93 Q1598.23 1490.04 1600.03 1493.6 Q1601.86 1497.14 1605.47 1497.14 Q1609.11 1497.14 1610.91 1493.6 Q1612.74 1490.04 1612.74 1482.93 Q1612.74 1475.8 1610.91 1472.26 Q1609.11 1468.69 1605.47 1468.69 M1605.47 1464.99 Q1611.28 1464.99 1614.34 1469.6 Q1617.42 1474.18 1617.42 1482.93 Q1617.42 1491.66 1614.34 1496.26 Q1611.28 1500.85 1605.47 1500.85 Q1599.66 1500.85 1596.58 1496.26 Q1593.53 1491.66 1593.53 1482.93 Q1593.53 1474.18 1596.58 1469.6 Q1599.66 1464.99 1605.47 1464.99 Z" fill="#000000" fill-rule="evenodd" fill-opacity="1" /><path clip-path="url(#clip950)" d="M 0 0 M1845.53 1465.61 L1863.89 1465.61 L1863.89 1469.55 L1849.82 1469.55 L1849.82 1478.02 Q1850.83 1477.67 1851.85 1477.51 Q1852.87 1477.33 1853.89 1477.33 Q1859.68 1477.33 1863.06 1480.5 Q1866.44 1483.67 1866.44 1489.09 Q1866.44 1494.66 1862.96 1497.77 Q1859.49 1500.85 1853.17 1500.85 Q1851 1500.85 1848.73 1500.47 Q1846.48 1500.1 1844.08 1499.36 L1844.08 1494.66 Q1846.16 1495.8 1848.38 1496.35 Q1850.6 1496.91 1853.08 1496.91 Q1857.08 1496.91 1859.42 1494.8 Q1861.76 1492.7 1861.76 1489.09 Q1861.76 1485.47 1859.42 1483.37 Q1857.08 1481.26 1853.08 1481.26 Q1851.2 1481.26 1849.33 1481.68 Q1847.48 1482.1 1845.53 1482.97 L1845.53 1465.61 Z" fill="#000000" fill-rule="evenodd" fill-opacity="1" /><path clip-path="url(#clip950)" d="M 0 0 M1885.65 1468.69 Q1882.04 1468.69 1880.21 1472.26 Q1878.4 1475.8 1878.4 1482.93 Q1878.4 1490.04 1880.21 1493.6 Q1882.04 1497.14 1885.65 1497.14 Q1889.28 1497.14 1891.09 1493.6 Q1892.92 1490.04 1892.92 1482.93 Q1892.92 1475.8 1891.09 1472.26 Q1889.28 1468.69 1885.65 1468.69 M1885.65 1464.99 Q1891.46 1464.99 1894.51 1469.6 Q1897.59 1474.18 1897.59 1482.93 Q1897.59 1491.66 1894.51 1496.26 Q1891.46 1500.85 1885.65 1500.85 Q1879.84 1500.85 1876.76 1496.26 Q1873.7 1491.66 1873.7 1482.93 Q1873.7 1474.18 1876.76 1469.6 Q1879.84 1464.99 1885.65 1464.99 Z" fill="#000000" fill-rule="evenodd" fill-opacity="1" /><path clip-path="url(#clip950)" d="M 0 0 M1915.81 1468.69 Q1912.2 1468.69 1910.37 1472.26 Q1908.57 1475.8 1908.57 1482.93 Q1908.57 1490.04 1910.37 1493.6 Q1912.2 1497.14 1915.81 1497.14 Q1919.45 1497.14 1921.25 1493.6 Q1923.08 1490.04 1923.08 1482.93 Q1923.08 1475.8 1921.25 1472.26 Q1919.45 1468.69 1915.81 1468.69 M1915.81 1464.99 Q1921.62 1464.99 1924.68 1469.6 Q1927.76 1474.18 1927.76 1482.93 Q1927.76 1491.66 1924.68 1496.26 Q1921.62 1500.85 1915.81 1500.85 Q1910 1500.85 1906.92 1496.26 Q1903.87 1491.66 1903.87 1482.93 Q1903.87 1474.18 1906.92 1469.6 Q1910 1464.99 1915.81 1464.99 Z" fill="#000000" fill-rule="evenodd" fill-opacity="1" /><path clip-path="url(#clip950)" d="M 0 0 M1120.48 1535.75 Q1120.48 1541.16 1118.74 1547.24 Q1117.03 1553.3 1114.33 1558.19 Q1111.62 1563.06 1108.08 1566.28 Q1104.54 1569.47 1101.16 1569.47 Q1099 1569.47 1097.39 1568.27 Q1095.81 1567.05 1094.94 1565.02 Q1094.07 1562.96 1093.65 1560.71 Q1093.23 1558.42 1093.23 1555.94 Q1093.23 1552.24 1094.04 1548.21 Q1094.84 1544.15 1096.2 1540.48 Q1097.55 1536.78 1099.45 1533.43 Q1101.35 1530.05 1103.44 1527.6 Q1105.57 1525.12 1107.95 1523.67 Q1110.33 1522.22 1112.56 1522.22 Q1114.17 1522.22 1115.45 1522.93 Q1116.78 1523.6 1117.61 1524.8 Q1118.45 1525.96 1119.03 1527.34 Q1119.64 1528.73 1119.93 1530.34 Q1120.22 1531.91 1120.35 1533.23 Q1120.48 1534.52 1120.48 1535.75 M1116.13 1531.66 Q1116.13 1530.01 1116 1528.79 Q1115.87 1527.53 1115.52 1526.28 Q1115.16 1525.02 1114.39 1524.35 Q1113.65 1523.67 1112.49 1523.67 Q1109.11 1523.67 1105.31 1530.59 Q1104.09 1532.75 1102.99 1535.68 Q1101.9 1538.61 1101.51 1540 Q1101.12 1541.38 1100.22 1544.8 L1114.01 1544.8 Q1116.13 1536 1116.13 1531.66 M1113.43 1546.89 L1099.71 1546.89 Q1097.58 1554.94 1097.58 1559.96 Q1097.58 1564.34 1098.48 1566.18 Q1099.42 1567.98 1101.16 1567.98 Q1103.15 1567.98 1105.02 1565.99 Q1106.89 1563.96 1108.79 1560.29 Q1111.3 1555.52 1113.43 1546.89 Z" fill="#000000" fill-rule="evenodd" fill-opacity="1" /><polyline clip-path="url(#clip953)" style="stroke:#000000; stroke-width:2; stroke-opacity:0.1; fill:none" points="
  284.53,1229.29 1932.56,1229.29 
  "/>
<polyline clip-path="url(#clip953)" style="stroke:#000000; stroke-width:2; stroke-opacity:0.1; fill:none" points="
  284.53,983.607 1932.56,983.607 
  "/>
<polyline clip-path="url(#clip953)" style="stroke:#000000; stroke-width:2; stroke-opacity:0.1; fill:none" points="
  284.53,737.928 1932.56,737.928 
  "/>
<polyline clip-path="url(#clip953)" style="stroke:#000000; stroke-width:2; stroke-opacity:0.1; fill:none" points="
  284.53,492.248 1932.56,492.248 
  "/>
<polyline clip-path="url(#clip953)" style="stroke:#000000; stroke-width:2; stroke-opacity:0.1; fill:none" points="
  284.53,246.569 1932.56,246.569 
  "/>
<polyline clip-path="url(#clip950)" style="stroke:#000000; stroke-width:4; stroke-opacity:1; fill:none" points="
  284.53,1439.5 284.53,47.2441 
  "/>
<polyline clip-path="url(#clip950)" style="stroke:#000000; stroke-width:4; stroke-opacity:1; fill:none" points="
  284.53,1229.29 304.306,1229.29 
  "/>
<polyline clip-path="url(#clip950)" style="stroke:#000000; stroke-width:4; stroke-opacity:1; fill:none" points="
  284.53,983.607 304.306,983.607 
  "/>
<polyline clip-path="url(#clip950)" style="stroke:#000000; stroke-width:4; stroke-opacity:1; fill:none" points="
  284.53,737.928 304.306,737.928 
  "/>
<polyline clip-path="url(#clip950)" style="stroke:#000000; stroke-width:4; stroke-opacity:1; fill:none" points="
  284.53,492.248 304.306,492.248 
  "/>
<polyline clip-path="url(#clip950)" style="stroke:#000000; stroke-width:4; stroke-opacity:1; fill:none" points="
  284.53,246.569 304.306,246.569 
  "/>
<path clip-path="url(#clip950)" d="M 0 0 M142.581 1229.74 L172.257 1229.74 L172.257 1233.67 L142.581 1233.67 L142.581 1229.74 Z" fill="#000000" fill-rule="evenodd" fill-opacity="1" /><path clip-path="url(#clip950)" d="M 0 0 M183.16 1242.63 L190.799 1242.63 L190.799 1216.27 L182.489 1217.93 L182.489 1213.67 L190.752 1212.01 L195.428 1212.01 L195.428 1242.63 L203.067 1242.63 L203.067 1246.57 L183.16 1246.57 L183.16 1242.63 Z" fill="#000000" fill-rule="evenodd" fill-opacity="1" /><path clip-path="url(#clip950)" d="M 0 0 M212.512 1240.69 L217.396 1240.69 L217.396 1246.57 L212.512 1246.57 L212.512 1240.69 Z" fill="#000000" fill-rule="evenodd" fill-opacity="1" /><path clip-path="url(#clip950)" d="M 0 0 M227.627 1212.01 L245.984 1212.01 L245.984 1215.94 L231.91 1215.94 L231.91 1224.41 Q232.928 1224.07 233.947 1223.91 Q234.965 1223.72 235.984 1223.72 Q241.771 1223.72 245.15 1226.89 Q248.53 1230.06 248.53 1235.48 Q248.53 1241.06 245.058 1244.16 Q241.586 1247.24 235.266 1247.24 Q233.09 1247.24 230.822 1246.87 Q228.576 1246.5 226.169 1245.76 L226.169 1241.06 Q228.252 1242.19 230.474 1242.75 Q232.697 1243.3 235.174 1243.3 Q239.178 1243.3 241.516 1241.2 Q243.854 1239.09 243.854 1235.48 Q243.854 1231.87 241.516 1229.76 Q239.178 1227.66 235.174 1227.66 Q233.299 1227.66 231.424 1228.07 Q229.572 1228.49 227.627 1229.37 L227.627 1212.01 Z" fill="#000000" fill-rule="evenodd" fill-opacity="1" /><path clip-path="url(#clip950)" d="M 0 0 M143.183 984.059 L172.859 984.059 L172.859 987.994 L143.183 987.994 L143.183 984.059 Z" fill="#000000" fill-rule="evenodd" fill-opacity="1" /><path clip-path="url(#clip950)" d="M 0 0 M183.762 996.952 L191.401 996.952 L191.401 970.587 L183.09 972.253 L183.09 967.994 L191.354 966.327 L196.03 966.327 L196.03 996.952 L203.669 996.952 L203.669 1000.89 L183.762 1000.89 L183.762 996.952 Z" fill="#000000" fill-rule="evenodd" fill-opacity="1" /><path clip-path="url(#clip950)" d="M 0 0 M213.113 995.008 L217.998 995.008 L217.998 1000.89 L213.113 1000.89 L213.113 995.008 Z" fill="#000000" fill-rule="evenodd" fill-opacity="1" /><path clip-path="url(#clip950)" d="M 0 0 M232.211 996.952 L248.53 996.952 L248.53 1000.89 L226.586 1000.89 L226.586 996.952 Q229.248 994.198 233.831 989.568 Q238.437 984.915 239.618 983.573 Q241.863 981.05 242.743 979.313 Q243.646 977.554 243.646 975.864 Q243.646 973.11 241.701 971.374 Q239.78 969.638 236.678 969.638 Q234.479 969.638 232.025 970.401 Q229.595 971.165 226.817 972.716 L226.817 967.994 Q229.641 966.86 232.095 966.281 Q234.549 965.702 236.586 965.702 Q241.956 965.702 245.15 968.388 Q248.345 971.073 248.345 975.563 Q248.345 977.693 247.535 979.614 Q246.748 981.513 244.641 984.105 Q244.062 984.776 240.961 987.994 Q237.859 991.188 232.211 996.952 Z" fill="#000000" fill-rule="evenodd" fill-opacity="1" /><path clip-path="url(#clip950)" d="M 0 0 M141.771 738.379 L171.447 738.379 L171.447 742.314 L141.771 742.314 L141.771 738.379 Z" fill="#000000" fill-rule="evenodd" fill-opacity="1" /><path clip-path="url(#clip950)" d="M 0 0 M191.539 723.726 Q187.928 723.726 186.1 727.291 Q184.294 730.833 184.294 737.963 Q184.294 745.069 186.1 748.634 Q187.928 752.175 191.539 752.175 Q195.174 752.175 196.979 748.634 Q198.808 745.069 198.808 737.963 Q198.808 730.833 196.979 727.291 Q195.174 723.726 191.539 723.726 M191.539 720.023 Q197.35 720.023 200.405 724.629 Q203.484 729.213 203.484 737.963 Q203.484 746.689 200.405 751.296 Q197.35 755.879 191.539 755.879 Q185.729 755.879 182.651 751.296 Q179.595 746.689 179.595 737.963 Q179.595 729.213 182.651 724.629 Q185.729 720.023 191.539 720.023 Z" fill="#000000" fill-rule="evenodd" fill-opacity="1" /><path clip-path="url(#clip950)" d="M 0 0 M211.701 749.328 L216.586 749.328 L216.586 755.208 L211.701 755.208 L211.701 749.328 Z" fill="#000000" fill-rule="evenodd" fill-opacity="1" /><path clip-path="url(#clip950)" d="M 0 0 M226.91 754.49 L226.91 750.231 Q228.669 751.064 230.474 751.504 Q232.28 751.944 234.016 751.944 Q238.646 751.944 241.076 748.842 Q243.53 745.717 243.877 739.375 Q242.535 741.365 240.474 742.43 Q238.414 743.495 235.914 743.495 Q230.729 743.495 227.697 740.37 Q224.687 737.222 224.687 731.782 Q224.687 726.458 227.836 723.24 Q230.984 720.023 236.215 720.023 Q242.211 720.023 245.359 724.629 Q248.53 729.213 248.53 737.963 Q248.53 746.134 244.641 751.018 Q240.775 755.879 234.224 755.879 Q232.465 755.879 230.66 755.532 Q228.854 755.185 226.91 754.49 M236.215 739.838 Q239.363 739.838 241.192 737.685 Q243.044 735.532 243.044 731.782 Q243.044 728.055 241.192 725.902 Q239.363 723.726 236.215 723.726 Q233.067 723.726 231.215 725.902 Q229.387 728.055 229.387 731.782 Q229.387 735.532 231.215 737.685 Q233.067 739.838 236.215 739.838 Z" fill="#000000" fill-rule="evenodd" fill-opacity="1" /><path clip-path="url(#clip950)" d="M 0 0 M141.424 492.7 L171.1 492.7 L171.1 496.635 L141.424 496.635 L141.424 492.7 Z" fill="#000000" fill-rule="evenodd" fill-opacity="1" /><path clip-path="url(#clip950)" d="M 0 0 M191.192 478.047 Q187.581 478.047 185.752 481.612 Q183.947 485.153 183.947 492.283 Q183.947 499.389 185.752 502.954 Q187.581 506.496 191.192 506.496 Q194.827 506.496 196.632 502.954 Q198.461 499.389 198.461 492.283 Q198.461 485.153 196.632 481.612 Q194.827 478.047 191.192 478.047 M191.192 474.343 Q197.002 474.343 200.058 478.95 Q203.137 483.533 203.137 492.283 Q203.137 501.01 200.058 505.616 Q197.002 510.199 191.192 510.199 Q185.382 510.199 182.303 505.616 Q179.248 501.01 179.248 492.283 Q179.248 483.533 182.303 478.95 Q185.382 474.343 191.192 474.343 Z" fill="#000000" fill-rule="evenodd" fill-opacity="1" /><path clip-path="url(#clip950)" d="M 0 0 M211.354 503.649 L216.238 503.649 L216.238 509.528 L211.354 509.528 L211.354 503.649 Z" fill="#000000" fill-rule="evenodd" fill-opacity="1" /><path clip-path="url(#clip950)" d="M 0 0 M237.002 490.385 Q233.854 490.385 232.002 492.538 Q230.174 494.69 230.174 498.44 Q230.174 502.167 232.002 504.343 Q233.854 506.496 237.002 506.496 Q240.15 506.496 241.979 504.343 Q243.831 502.167 243.831 498.44 Q243.831 494.69 241.979 492.538 Q240.15 490.385 237.002 490.385 M246.285 475.732 L246.285 479.991 Q244.525 479.158 242.72 478.718 Q240.937 478.278 239.178 478.278 Q234.549 478.278 232.095 481.403 Q229.664 484.528 229.317 490.848 Q230.683 488.834 232.743 487.769 Q234.803 486.681 237.28 486.681 Q242.488 486.681 245.498 489.852 Q248.53 493 248.53 498.44 Q248.53 503.764 245.382 506.982 Q242.234 510.199 237.002 510.199 Q231.007 510.199 227.836 505.616 Q224.664 501.01 224.664 492.283 Q224.664 484.088 228.553 479.227 Q232.442 474.343 238.993 474.343 Q240.752 474.343 242.535 474.69 Q244.34 475.038 246.285 475.732 Z" fill="#000000" fill-rule="evenodd" fill-opacity="1" /><path clip-path="url(#clip950)" d="M 0 0 M142.234 247.02 L171.91 247.02 L171.91 250.955 L142.234 250.955 L142.234 247.02 Z" fill="#000000" fill-rule="evenodd" fill-opacity="1" /><path clip-path="url(#clip950)" d="M 0 0 M192.002 232.367 Q188.391 232.367 186.563 235.932 Q184.757 239.474 184.757 246.603 Q184.757 253.71 186.563 257.275 Q188.391 260.816 192.002 260.816 Q195.637 260.816 197.442 257.275 Q199.271 253.71 199.271 246.603 Q199.271 239.474 197.442 235.932 Q195.637 232.367 192.002 232.367 M192.002 228.664 Q197.813 228.664 200.868 233.27 Q203.947 237.853 203.947 246.603 Q203.947 255.33 200.868 259.937 Q197.813 264.52 192.002 264.52 Q186.192 264.52 183.114 259.937 Q180.058 255.33 180.058 246.603 Q180.058 237.853 183.114 233.27 Q186.192 228.664 192.002 228.664 Z" fill="#000000" fill-rule="evenodd" fill-opacity="1" /><path clip-path="url(#clip950)" d="M 0 0 M212.164 257.969 L217.049 257.969 L217.049 263.849 L212.164 263.849 L212.164 257.969 Z" fill="#000000" fill-rule="evenodd" fill-opacity="1" /><path clip-path="url(#clip950)" d="M 0 0 M241.4 245.214 Q244.757 245.932 246.632 248.2 Q248.53 250.469 248.53 253.802 Q248.53 258.918 245.011 261.719 Q241.493 264.52 235.011 264.52 Q232.836 264.52 230.521 264.08 Q228.229 263.663 225.775 262.807 L225.775 258.293 Q227.72 259.427 230.035 260.006 Q232.349 260.585 234.873 260.585 Q239.271 260.585 241.562 258.849 Q243.877 257.112 243.877 253.802 Q243.877 250.747 241.724 249.034 Q239.595 247.298 235.775 247.298 L231.748 247.298 L231.748 243.455 L235.961 243.455 Q239.41 243.455 241.238 242.089 Q243.067 240.701 243.067 238.108 Q243.067 235.446 241.169 234.034 Q239.294 232.599 235.775 232.599 Q233.854 232.599 231.655 233.015 Q229.456 233.432 226.817 234.312 L226.817 230.145 Q229.479 229.404 231.794 229.034 Q234.132 228.664 236.192 228.664 Q241.516 228.664 244.618 231.094 Q247.72 233.501 247.72 237.622 Q247.72 240.492 246.076 242.483 Q244.433 244.451 241.4 245.214 Z" fill="#000000" fill-rule="evenodd" fill-opacity="1" /><path clip-path="url(#clip950)" d="M 0 0 M53.6652 942.087 L70.0902 947.756 L70.0902 1002.44 Q70.0902 1003.18 70.058 1003.47 Q70.0258 1003.76 69.8648 1003.99 Q69.7037 1004.21 69.3495 1004.21 Q69.0596 1004.21 68.3189 1003.63 L39.3658 980.219 L6.25819 1004.28 Q4.74452 1004.28 4.45466 1004.02 Q4.13261 1003.76 4.13261 1002.44 L4.13261 947.756 L19.5592 942.087 L19.5592 943.73 Q17.5624 944.471 15.8877 945.662 Q14.1808 946.822 12.957 948.174 Q11.7332 949.495 10.767 951.234 Q9.76863 952.941 9.15672 954.551 Q8.5126 956.129 8.06172 958.094 Q7.57863 960.058 7.35319 961.636 Q7.09554 963.182 6.96672 965.114 Q6.8379 967.047 6.80569 968.271 Q6.77349 969.494 6.77349 971.04 L6.77349 997.159 L36.1774 975.742 Q36.9182 975.259 37.1114 975.259 Q37.4013 975.259 38.1742 975.871 L66.4509 998.737 L66.4509 970.718 Q66.4509 961.701 64.5508 955.421 Q63.1015 951.169 60.2352 948.078 Q57.3689 944.954 53.6652 943.73 L53.6652 942.087 Z" fill="#000000" fill-rule="evenodd" fill-opacity="1" /><path clip-path="url(#clip950)" d="M 0 0 M96.2324 1013.26 Q96.8636 1013.26 97.0215 1013.56 Q97.1567 1013.85 97.1567 1014.66 L97.1567 1018.99 L110.773 1022.42 Q111.968 1022.69 112.983 1022.69 Q114.11 1022.69 114.606 1022.35 Q115.102 1021.99 115.102 1021.25 Q115.102 1019.78 113.772 1018.2 Q112.442 1016.6 109.195 1015.25 Q108.767 1015.07 108.677 1014.98 Q108.564 1014.87 108.564 1014.57 Q108.564 1014.01 109.015 1014.01 Q109.173 1014.01 109.894 1014.32 Q110.616 1014.62 111.675 1015.27 Q112.735 1015.9 113.727 1016.74 Q114.719 1017.55 115.44 1018.79 Q116.139 1020.03 116.139 1021.36 Q116.139 1023.23 114.944 1024.42 Q113.749 1025.6 111.878 1025.6 Q111.269 1025.6 109.331 1025.12 Q107.369 1024.65 97.1567 1022.08 L97.1567 1026.16 Q97.1567 1026.72 97.1342 1026.95 Q97.1116 1027.15 96.9989 1027.31 Q96.8636 1027.45 96.5931 1027.45 Q96.1648 1027.45 95.9844 1027.26 Q95.7815 1027.08 95.759 1026.86 Q95.7139 1026.61 95.7139 1026.05 L95.7139 1021.72 L88.3871 1019.92 Q87.6657 1019.74 87.2599 1019.28 Q86.8315 1018.81 86.7864 1018.54 Q86.7188 1018.27 86.7188 1018.07 Q86.7188 1017.46 87.057 1017.1 Q87.3726 1016.74 87.9587 1016.74 Q88.2743 1016.74 95.7139 1018.63 L95.7139 1014.57 Q95.7139 1014.05 95.7364 1013.85 Q95.759 1013.63 95.8717 1013.45 Q95.9844 1013.26 96.2324 1013.26 Z" fill="#000000" fill-rule="evenodd" fill-opacity="1" /><path clip-path="url(#clip950)" d="M 0 0 M108.609 998.132 Q108.046 998.087 108.046 997.208 L108.046 968.915 Q108.046 967.585 108.564 967.562 Q109.128 967.562 109.105 968.825 L109.105 996.892 Q109.128 998.132 108.609 998.132 M99.5915 998.132 Q99.0279 998.132 99.0504 997.163 L99.0504 968.96 Q99.0504 967.585 99.5915 967.562 Q100.11 967.562 100.11 968.735 L100.11 997.208 Q100.11 998.132 99.5915 998.132 Z" fill="#000000" fill-rule="evenodd" fill-opacity="1" /><path clip-path="url(#clip950)" d="M 0 0 M100.854 949.75 Q94.0682 949.75 90.3709 948.037 Q84.8702 945.647 84.8702 940.011 Q84.8702 938.816 85.2083 937.577 Q85.524 936.314 86.7639 934.736 Q88.0038 933.135 90.0328 932.166 Q93.9555 930.317 100.854 930.317 Q107.595 930.317 111.269 932.031 Q116.635 934.533 116.635 940.056 Q116.635 942.13 115.575 944.25 Q114.516 946.346 111.968 947.676 Q108.158 949.75 100.854 949.75 M100.29 945.918 Q107.256 945.918 110.029 945.422 Q113.028 944.858 114.335 943.325 Q115.62 941.77 115.62 940.056 Q115.62 938.208 114.245 936.675 Q112.847 935.119 109.849 934.646 Q106.896 934.127 100.29 934.15 Q93.8653 934.15 91.2953 934.601 Q88.2969 935.209 87.102 936.833 Q85.8847 938.433 85.8847 940.056 Q85.8847 940.665 86.065 941.319 Q86.2454 941.95 86.7639 942.874 Q87.2824 943.799 88.5674 944.52 Q89.8524 945.219 91.7912 945.557 Q94.2936 945.918 100.29 945.918 Z" fill="#000000" fill-rule="evenodd" fill-opacity="1" /><path clip-path="url(#clip950)" d="M 0 0 M9.67201 874.983 Q10.2839 874.983 10.7992 875.112 L22.2645 876.915 Q23.1341 877.012 23.4561 877.205 Q23.7782 877.366 23.7782 877.881 Q23.7782 878.686 22.9408 878.686 Q22.4577 878.686 21.6848 878.493 Q18.0455 877.946 16.403 877.946 Q15.308 877.946 14.5029 878.171 Q13.6655 878.364 13.0858 878.686 Q12.5061 878.976 12.1197 879.653 Q11.7332 880.329 11.5077 880.973 Q11.2823 881.617 11.1857 882.777 Q11.0569 883.936 11.0247 884.934 Q10.9925 885.933 10.9925 887.575 Q10.9925 891.15 11.1213 891.73 Q11.2823 892.342 11.7654 892.664 Q12.2163 892.954 13.5689 893.276 L48.5767 902.036 L49.9615 902.293 Q50.7345 902.293 50.9921 901.81 Q51.2498 901.327 51.4108 899.846 Q51.5718 897.72 51.5718 895.627 Q51.5718 895.562 51.5718 895.433 Q51.5718 894.725 51.604 894.435 Q51.604 894.145 51.6685 893.855 Q51.7329 893.566 51.8939 893.501 Q52.0227 893.405 52.2804 893.405 Q52.8923 893.405 53.2143 893.662 Q53.5042 893.92 53.5686 894.177 Q53.6008 894.403 53.6008 894.854 Q53.6008 895.756 53.5364 897.688 Q53.472 899.62 53.472 900.586 L53.4076 906.061 L53.472 911.665 Q53.472 912.535 53.5364 914.371 Q53.6008 916.206 53.6008 917.076 Q53.6008 918.203 52.7957 918.203 Q51.8939 918.203 51.7329 917.784 Q51.5718 917.333 51.5718 915.433 Q51.5718 912.76 51.443 911.311 Q51.3142 909.862 50.8633 909.089 Q50.4124 908.284 49.9615 908.058 Q49.4785 907.833 48.3835 907.575 L13.1825 898.718 Q12.4095 898.461 11.7976 898.461 Q11.4755 898.461 11.3467 898.557 Q11.2179 898.622 11.1213 899.041 Q10.9925 899.459 10.9925 900.329 L10.9925 902.905 Q10.9925 905.546 11.1213 907.189 Q11.2179 908.799 11.701 910.345 Q12.1841 911.858 12.8604 912.76 Q13.5367 913.63 14.9216 914.596 Q16.3064 915.562 17.9811 916.271 Q19.6558 916.947 22.3933 917.913 Q23.2951 918.235 23.5527 918.428 Q23.7782 918.59 23.7782 919.04 Q23.7782 919.362 23.5849 919.62 Q23.3595 919.846 23.0697 919.846 Q22.0069 919.523 21.878 919.459 L10.2517 915.498 Q9.31775 915.176 9.15672 914.886 Q8.96348 914.564 8.96348 913.372 L8.96348 876.786 Q8.96348 876.207 8.96348 876.013 Q8.96348 875.82 9.0279 875.498 Q9.09231 875.176 9.25334 875.079 Q9.41437 874.983 9.67201 874.983 Z" fill="#000000" fill-rule="evenodd" fill-opacity="1" /><path clip-path="url(#clip950)" d="M 0 0 M16.5041 850.007 L17.4284 850.571 Q15.918 854.065 13.5057 858.416 Q15.918 862.767 17.4284 866.261 L16.5041 866.802 Q13.1901 862.992 10.6426 858.416 Q13.2127 853.794 16.5041 850.007 Z" fill="#000000" fill-rule="evenodd" fill-opacity="1" /><path clip-path="url(#clip950)" d="M 0 0 M28.8023 848.845 Q30.6058 848.845 31.6364 849.972 Q32.6348 851.099 32.6348 852.388 Q32.6348 853.611 31.9263 854.256 Q31.2177 854.9 30.316 854.9 Q29.0921 854.9 28.0294 853.998 Q26.9666 853.096 26.7411 851.743 Q25.9038 853.064 25.9038 855.028 Q25.9038 856.317 26.5801 857.444 Q27.2564 858.539 28.126 859.215 Q28.9955 859.859 30.2516 860.439 Q31.4754 860.987 32.2161 861.212 Q32.9246 861.405 33.6976 861.566 L42.7152 863.821 Q46.9986 864.916 48.5123 864.916 Q50.3802 864.916 51.6363 864.014 Q52.8601 863.112 52.8601 861.309 Q52.8601 860.6 52.6668 859.795 Q52.4414 858.99 51.8617 857.959 Q51.2498 856.896 50.348 855.962 Q49.414 854.996 47.836 854.062 Q46.2579 853.128 44.2289 852.516 Q43.5204 852.323 43.5204 851.679 Q43.5204 850.874 44.1645 850.874 Q44.712 850.874 45.8714 851.325 Q46.9986 851.743 48.4801 852.677 Q49.9293 853.579 51.2498 854.771 Q52.538 855.962 53.4398 857.734 Q54.3415 859.505 54.3415 861.437 Q54.3415 864.207 52.8601 866.043 Q51.3786 867.879 49.3174 868.555 Q49.6073 868.716 49.9938 868.941 Q50.3802 869.167 51.2498 869.843 Q52.0871 870.487 52.7313 871.228 Q53.3432 871.969 53.8262 873.128 Q54.3415 874.255 54.3415 875.479 Q54.3415 877.025 53.8907 878.41 Q53.4398 879.763 52.4092 880.729 Q51.3786 881.695 49.9615 881.695 Q48.3835 881.695 47.2885 880.632 Q46.1613 879.537 46.1613 878.056 Q46.1613 877.122 46.7088 876.381 Q47.2563 875.608 48.4479 875.608 Q49.7683 875.608 50.7667 876.51 Q51.7651 877.412 52.0227 878.7 Q52.8601 877.379 52.8601 875.415 Q52.8601 873.289 50.9921 871.614 Q49.1242 869.94 46.0002 869.135 Q38.4963 867.138 35.1468 866.365 Q31.7652 865.592 30.316 865.592 Q28.9633 865.592 28.0294 865.946 Q27.0954 866.301 26.6767 866.912 Q26.2258 867.492 26.0648 868.04 Q25.9038 868.555 25.9038 869.135 Q25.9038 870.101 26.2902 871.196 Q26.6767 872.259 27.5785 873.547 Q28.448 874.803 30.2516 875.994 Q32.0551 877.186 34.5349 877.991 Q35.2757 878.152 35.2757 878.861 Q35.2435 879.634 34.5994 879.634 Q34.0519 879.634 32.9246 879.215 Q31.7652 878.764 30.316 877.862 Q28.8667 876.928 27.5785 875.737 Q26.258 874.513 25.3563 872.742 Q24.4545 870.938 24.4545 869.006 Q24.4545 868.136 24.6477 867.299 Q24.8088 866.429 25.2919 865.399 Q25.7749 864.336 26.8377 863.402 Q27.9005 862.468 29.4464 861.888 Q28.7057 861.502 27.9971 860.987 Q27.2886 860.439 26.4191 859.602 Q25.5173 858.732 25.002 857.541 Q24.4545 856.317 24.4545 854.964 Q24.4545 853.644 24.8088 852.355 Q25.1308 851.067 26.1936 849.972 Q27.2242 848.845 28.8023 848.845 Z" fill="#000000" fill-rule="evenodd" fill-opacity="1" /><path clip-path="url(#clip950)" d="M 0 0 M52.1213 823.122 Q52.7526 823.122 52.9104 823.415 Q53.0456 823.708 53.0456 824.519 L53.0456 828.848 L66.6623 832.274 Q67.8571 832.545 68.8716 832.545 Q69.9988 832.545 70.4948 832.207 Q70.9907 831.846 70.9907 831.102 Q70.9907 829.637 69.6606 828.059 Q68.3305 826.458 65.0842 825.105 Q64.6558 824.925 64.5657 824.835 Q64.4529 824.722 64.4529 824.429 Q64.4529 823.866 64.9038 823.866 Q65.0616 823.866 65.783 824.181 Q66.5045 824.474 67.564 825.128 Q68.6236 825.759 69.6155 826.593 Q70.6075 827.405 71.3289 828.645 Q72.0278 829.885 72.0278 831.215 Q72.0278 833.086 70.8329 834.281 Q69.6381 835.453 67.7669 835.453 Q67.1582 835.453 65.2194 834.98 Q63.2581 834.506 53.0456 831.936 L53.0456 836.017 Q53.0456 836.58 53.0231 836.806 Q53.0005 837.009 52.8878 837.167 Q52.7526 837.302 52.482 837.302 Q52.0537 837.302 51.8733 837.121 Q51.6704 836.941 51.6479 836.716 Q51.6028 836.468 51.6028 835.904 L51.6028 831.576 L44.276 829.772 Q43.5546 829.592 43.1488 829.141 Q42.7204 828.667 42.6753 828.397 Q42.6077 828.126 42.6077 827.923 Q42.6077 827.315 42.9459 826.954 Q43.2615 826.593 43.8476 826.593 Q44.1632 826.593 51.6028 828.487 L51.6028 824.429 Q51.6028 823.911 51.6253 823.708 Q51.6479 823.482 51.7606 823.302 Q51.8733 823.122 52.1213 823.122 Z" fill="#000000" fill-rule="evenodd" fill-opacity="1" /><path clip-path="url(#clip950)" d="M 0 0 M35.6497 813.761 Q25.0076 813.761 16.4262 809.793 Q12.8275 808.101 9.81325 805.733 Q6.799 803.365 5.47642 801.796 Q4.15383 800.227 4.15383 799.797 Q4.15383 799.182 4.76899 799.151 Q5.07657 799.151 5.84551 799.981 Q16.1801 810.131 35.6497 810.101 Q55.1809 810.101 65.1156 800.227 Q66.1921 799.151 66.5305 799.151 Q67.1456 799.151 67.1456 799.797 Q67.1456 800.227 65.8846 801.734 Q64.6235 803.242 61.7323 805.579 Q58.8411 807.917 55.3039 809.608 Q46.7225 813.761 35.6497 813.761 Z" fill="#000000" fill-rule="evenodd" fill-opacity="1" /><path clip-path="url(#clip950)" d="M 0 0 M17.4014 782.532 Q11.7332 782.532 7.9329 779.634 Q4.13261 776.735 4.13261 772.838 Q4.13261 770.455 6.25819 768.104 Q11.3467 762.758 11.3145 755.769 Q11.3145 747.846 5.06658 743.241 Q4.13261 742.436 4.13261 741.856 Q4.13261 741.341 4.55128 740.954 Q4.93775 740.536 5.45305 740.536 Q5.83952 740.536 6.64466 741.051 L56.3061 774.416 Q57.3045 775.157 57.3045 775.737 Q57.3045 776.252 56.8858 776.671 Q56.4993 777.057 55.984 777.057 Q55.5332 777.057 54.6636 776.477 L10.5416 746.848 L10.4772 746.912 Q12.796 750.326 12.7638 755.705 Q12.7638 760.793 9.99407 765.656 Q13.4079 764.271 17.4658 764.271 Q23.0052 764.271 26.8699 766.751 Q30.7024 769.231 30.7024 772.838 Q30.7024 776.735 26.9666 779.634 Q23.1985 782.532 17.4014 782.532 M12.023 777.991 Q14.3419 778.442 17.4658 778.442 Q20.5576 778.442 22.8764 777.991 Q25.163 777.54 26.3546 776.896 Q27.5463 776.22 28.2548 775.318 Q28.9311 774.416 29.0921 773.869 Q29.2532 773.321 29.2532 772.774 Q29.2532 770.068 25.9038 768.007 Q22.5222 765.914 17.4014 765.914 Q12.3773 765.914 8.99569 768.007 Q5.58187 770.068 5.58187 772.774 Q5.58187 773.353 5.7429 773.933 Q5.90393 774.481 6.61246 775.35 Q7.28878 776.22 8.4804 776.896 Q9.67201 777.54 12.023 777.991 M43.9713 753.321 Q38.303 753.321 34.5027 750.423 Q30.7024 747.524 30.7024 743.627 Q30.7024 740.053 34.5671 737.573 Q38.4318 735.061 44.0357 735.061 Q49.5751 735.061 53.4398 737.541 Q57.3045 739.988 57.3045 743.627 Q57.3045 747.524 53.5364 750.423 Q49.7683 753.321 43.9713 753.321 M38.5929 748.78 Q40.9439 749.231 44.0357 749.231 Q47.1274 749.231 49.4463 748.78 Q51.7651 748.297 52.9567 747.653 Q54.1161 746.977 54.7924 746.107 Q55.501 745.206 55.662 744.658 Q55.8552 744.078 55.8552 743.563 Q55.8552 740.858 52.5058 738.797 Q49.1242 736.703 43.9713 736.703 Q38.9471 736.703 35.5655 738.797 Q32.1517 740.858 32.1517 743.563 Q32.1517 744.143 32.3449 744.722 Q32.506 745.27 33.2145 746.14 Q33.8908 746.977 35.0824 747.653 Q36.2418 748.297 38.5929 748.78 Z" fill="#000000" fill-rule="evenodd" fill-opacity="1" /><path clip-path="url(#clip950)" d="M 0 0 M52.538 727.211 Q51.4752 728.145 50.0904 728.145 Q48.7055 728.145 47.6749 727.243 Q46.6121 726.309 46.6121 724.635 Q46.6121 722.67 48.5123 721.543 Q50.3802 720.416 53.5364 720.416 Q56.9502 720.416 60.1064 721.801 Q63.2948 723.186 64.8084 724.538 Q66.3221 725.891 66.3221 726.438 Q66.3221 727.082 65.6136 727.082 Q65.3559 727.082 64.8729 726.632 Q59.7843 721.897 53.5364 721.865 Q52.538 721.865 52.538 721.994 L52.6668 722.155 Q53.6008 723.282 53.6008 724.635 Q53.6008 726.277 52.538 727.211 Z" fill="#000000" fill-rule="evenodd" fill-opacity="1" /><path clip-path="url(#clip950)" d="M 0 0 M36.3063 665.011 Q39.5591 665.011 42.8118 666.686 Q46.0646 668.36 48.5767 671.098 Q51.0565 673.835 52.6668 677.571 Q54.2771 681.307 54.406 685.204 L64.2287 687.716 Q66.612 688.199 66.8696 688.457 Q67.1273 688.715 67.1273 689.101 Q67.1273 689.906 66.3865 689.906 Q66.1611 689.906 60.5895 688.457 L54.406 686.911 Q54.0839 692.773 50.7023 696.186 Q47.3207 699.6 42.4576 699.6 Q39.1726 699.6 35.9198 697.925 Q32.6348 696.219 30.1549 693.481 Q27.6751 690.711 26.097 686.975 Q24.5189 683.24 24.3901 679.407 L9.15672 675.575 Q8.28716 675.381 8.06172 675.22 Q7.83628 675.059 7.83628 674.576 Q7.83628 674.222 7.99731 674.029 Q8.15834 673.835 8.31937 673.835 L8.4804 673.803 L9.41437 673.996 L24.3901 677.7 Q24.6155 674.415 25.7749 671.871 Q26.9344 669.327 28.6735 667.877 Q30.3804 666.428 32.3127 665.72 Q34.2451 665.011 36.3063 665.011 M25.8394 679.794 Q26.1614 683.336 27.9005 686.331 Q29.6396 689.326 32.2161 691.259 Q34.7604 693.191 37.8199 694.254 Q40.8473 695.317 43.8424 695.317 Q46.1935 695.317 47.997 694.544 Q49.8005 693.739 50.8311 692.418 Q51.8295 691.098 52.377 689.649 Q52.8923 688.167 52.9567 686.589 L25.8394 679.794 M34.9214 669.327 Q30.7346 669.327 28.3836 671.742 Q26.0326 674.158 25.8394 678.087 L52.9567 684.882 Q52.7313 682.016 51.5396 679.504 Q50.3158 676.959 48.5123 675.124 Q46.6765 673.288 44.4221 671.968 Q42.1355 670.647 39.7201 670.003 Q37.2724 669.327 34.9214 669.327 Z" fill="#000000" fill-rule="evenodd" fill-opacity="1" /><path clip-path="url(#clip950)" d="M 0 0 M43.5848 642.381 Q42.7796 642.317 42.7796 641.061 L42.7796 600.643 Q42.7796 598.742 43.5204 598.71 Q44.3255 598.71 44.2933 600.514 L44.2933 640.61 Q44.3255 642.381 43.5848 642.381 M30.7024 642.381 Q29.8973 642.381 29.9295 640.997 L29.9295 600.707 Q29.9295 598.742 30.7024 598.71 Q31.4432 598.71 31.4432 600.385 L31.4432 641.061 Q31.4432 642.381 30.7024 642.381 Z" fill="#000000" fill-rule="evenodd" fill-opacity="1" /><path clip-path="url(#clip950)" d="M 0 0 M15.9522 573.264 L13.891 573.264 Q13.891 565.342 9.67201 561.252 Q9.67201 560.124 9.92966 559.931 Q10.1873 559.738 11.3789 559.738 L48.3835 559.738 Q50.348 559.738 50.9599 558.772 Q51.5718 557.806 51.5718 553.587 L51.5718 551.493 L53.6008 551.493 Q53.4076 553.812 53.4076 562.186 Q53.4076 570.559 53.6008 572.846 L51.5718 572.846 L51.5718 570.752 Q51.5718 566.598 50.9921 565.599 Q50.3802 564.601 48.3835 564.601 L14.213 564.601 Q15.9522 568.047 15.9522 573.264 Z" fill="#000000" fill-rule="evenodd" fill-opacity="1" /><path clip-path="url(#clip950)" d="M 0 0 M52.538 546.352 Q51.4752 547.35 50.0904 547.35 Q48.7055 547.35 47.7071 546.352 Q46.6765 545.354 46.6765 543.84 Q46.6765 542.391 47.6427 541.425 Q48.5767 540.426 50.1226 540.426 Q51.6363 540.426 52.6346 541.489 Q53.6008 542.52 53.6008 543.84 Q53.6008 545.354 52.538 546.352 Z" fill="#000000" fill-rule="evenodd" fill-opacity="1" /><path clip-path="url(#clip950)" d="M 0 0 M53.6008 529.2 Q52.4092 529.2 52.0549 529.104 Q51.7007 528.975 51.1532 528.459 L37.047 515.803 Q29.2532 508.878 22.4577 508.878 Q18.0455 508.878 14.8894 511.197 Q11.7332 513.484 11.7332 517.703 Q11.7332 520.601 13.5045 523.049 Q15.2758 525.496 18.432 526.624 Q18.3676 526.43 18.3676 525.754 Q18.3676 524.112 19.3982 523.21 Q20.4288 522.276 21.8136 522.276 Q23.5849 522.276 24.4545 523.435 Q25.2919 524.563 25.2919 525.69 Q25.2919 526.141 25.1952 526.753 Q25.0986 527.332 24.1969 528.266 Q23.2629 529.2 21.6204 529.2 Q17.015 529.2 13.3435 525.722 Q9.67201 522.211 9.67201 516.865 Q9.67201 510.811 13.2791 506.849 Q16.8539 502.856 22.4577 502.856 Q24.4223 502.856 26.2258 503.468 Q27.9971 504.047 29.382 504.853 Q30.7669 505.625 32.9891 507.751 Q35.2113 509.877 36.7893 511.584 Q38.3674 513.29 41.7168 517.123 L48.5123 524.112 L48.5123 512.228 Q48.5123 506.431 47.997 505.98 Q47.063 505.336 42.1355 504.53 L42.1355 502.856 L53.6008 504.724 L53.6008 529.2 Z" fill="#000000" fill-rule="evenodd" fill-opacity="1" /><path clip-path="url(#clip950)" d="M 0 0 M42.9729 496.536 Q41.0083 496.536 40.2676 495.473 Q39.4946 494.411 39.4946 493.283 Q39.4946 491.77 40.4608 490.9 Q41.3948 489.998 42.7152 489.998 Q44.0357 489.998 45.0018 490.9 Q45.9358 491.77 45.9358 493.283 Q45.9358 494.024 45.807 494.411 Q48.8343 493.541 51.0243 490.9 Q53.2143 488.227 53.2143 484.717 Q53.2143 480.304 48.931 477.663 Q46.1613 476.085 39.8811 476.085 Q34.3417 476.085 31.572 477.277 Q27.353 479.113 27.353 482.881 Q27.353 488.227 31.9585 491.383 Q32.5382 491.77 32.5704 492.221 Q32.5704 492.865 32.2161 493.026 Q31.8296 493.154 30.8313 493.154 L11.3145 493.154 Q9.73643 493.154 9.73643 492.51 Q9.73643 492.253 9.92966 491.705 Q11.7654 487.551 11.7976 482.945 Q11.7976 478.211 9.86525 473.96 Q9.67201 473.638 9.67201 473.444 Q9.67201 472.8 10.4127 472.768 Q10.6704 472.768 11.4433 473.316 Q12.1841 473.831 13.1825 474.958 Q14.1486 476.085 15.0826 477.535 Q16.0166 478.984 16.6607 481.109 Q17.2726 483.203 17.2726 485.522 Q17.2726 488.291 16.403 491.126 L29.2532 491.126 Q25.9038 487.712 25.9038 482.752 Q25.9038 477.47 30.1549 473.831 Q34.4061 470.192 40.332 470.192 Q46.5477 470.192 50.7989 474.507 Q55.0501 478.791 55.0501 484.588 Q55.0501 489.869 51.282 493.219 Q47.5139 496.536 42.9729 496.536 Z" fill="#000000" fill-rule="evenodd" fill-opacity="1" /><path clip-path="url(#clip950)" d="M 0 0 M66.5305 463.418 Q66.2229 463.418 65.454 462.618 Q55.1194 452.468 35.6497 452.468 Q16.1186 452.468 6.24536 462.218 Q5.10732 463.418 4.76899 463.418 Q4.15383 463.418 4.15383 462.803 Q4.15383 462.372 5.4149 460.865 Q6.67597 459.327 9.56719 457.02 Q12.4584 454.683 15.9956 452.96 Q24.577 448.808 35.6497 448.808 Q46.2919 448.808 54.8733 452.776 Q58.472 454.467 61.4862 456.836 Q64.5005 459.204 65.8231 460.773 Q67.1456 462.341 67.1456 462.803 Q67.1456 463.418 66.5305 463.418 Z" fill="#000000" fill-rule="evenodd" fill-opacity="1" /><polyline clip-path="url(#clip953)" style="stroke:#0000ff; stroke-width:4; stroke-opacity:1; fill:none" points="
  331.172,86.6476 413.001,112.518 494.829,123.163 576.658,130.587 658.487,136.203 740.315,140.638 822.144,144.242 903.972,147.235 985.801,149.762 1067.63,151.926 
  1149.46,153.801 1231.29,155.441 1313.12,156.888 1394.94,158.174 1476.77,159.325 1558.6,160.362 1640.43,161.3 1722.26,162.152 1804.09,162.931 1885.92,163.645 
  
  "/>
<polyline clip-path="url(#clip953)" style="stroke:#ff0000; stroke-width:4; stroke-opacity:1; fill:none" points="
  331.172,101.494 413.001,437.959 494.829,628.741 576.658,766.521 658.487,872.375 740.315,956.689 822.144,1025.58 903.972,1083 985.801,1131.62 1067.63,1173.32 
  1149.46,1209.5 1231.29,1241.19 1313.12,1269.17 1394.94,1294.06 1476.77,1316.36 1558.6,1336.43 1640.43,1354.61 1722.26,1371.14 1804.09,1386.25 1885.92,1400.1 
  
  "/>
<path clip-path="url(#clip950)" d="
M2001.5 252.413 L2352.76 252.413 L2352.76 93.6527 L2001.5 93.6527  Z
  " fill="#ffffff" fill-rule="evenodd" fill-opacity="1"/>
<polyline clip-path="url(#clip950)" style="stroke:#000000; stroke-width:4; stroke-opacity:1; fill:none" points="
  2001.5,252.413 2352.76,252.413 2352.76,93.6527 2001.5,93.6527 2001.5,252.413 
  "/>
<polyline clip-path="url(#clip950)" style="stroke:#0000ff; stroke-width:3.5; stroke-opacity:1; fill:none" points="
  2024.48,146.573 2162.36,146.573 
  "/>
<path clip-path="url(#clip950)" d="M 0 0 M2213.89 132.227 Q2213.89 132.617 2213.81 132.945 L2212.66 140.241 Q2212.6 140.794 2212.48 140.999 Q2212.37 141.204 2212.05 141.204 Q2211.53 141.204 2211.53 140.671 Q2211.53 140.364 2211.66 139.872 Q2212 137.556 2212 136.511 Q2212 135.814 2211.86 135.302 Q2211.74 134.769 2211.53 134.4 Q2211.35 134.031 2210.92 133.785 Q2210.49 133.539 2210.08 133.396 Q2209.67 133.252 2208.93 133.191 Q2208.19 133.109 2207.56 133.088 Q2206.92 133.068 2205.88 133.068 Q2203.6 133.068 2203.23 133.15 Q2202.84 133.252 2202.64 133.56 Q2202.45 133.846 2202.25 134.707 L2196.67 156.985 L2196.51 157.866 Q2196.51 158.358 2196.82 158.522 Q2197.13 158.686 2198.07 158.788 Q2199.42 158.891 2200.75 158.891 Q2200.79 158.891 2200.88 158.891 Q2201.33 158.891 2201.51 158.911 Q2201.7 158.911 2201.88 158.952 Q2202.06 158.993 2202.11 159.096 Q2202.17 159.178 2202.17 159.342 Q2202.17 159.731 2202 159.936 Q2201.84 160.121 2201.68 160.162 Q2201.53 160.182 2201.24 160.182 Q2200.67 160.182 2199.44 160.141 Q2198.21 160.1 2197.6 160.1 L2194.11 160.059 L2190.55 160.1 Q2189.99 160.1 2188.82 160.141 Q2187.66 160.182 2187.1 160.182 Q2186.39 160.182 2186.39 159.67 Q2186.39 159.096 2186.65 158.993 Q2186.94 158.891 2188.15 158.891 Q2189.85 158.891 2190.77 158.809 Q2191.69 158.727 2192.19 158.44 Q2192.7 158.153 2192.84 157.866 Q2192.99 157.559 2193.15 156.862 L2198.79 134.461 Q2198.95 133.969 2198.95 133.58 Q2198.95 133.375 2198.89 133.293 Q2198.85 133.211 2198.58 133.15 Q2198.31 133.068 2197.76 133.068 L2196.12 133.068 Q2194.44 133.068 2193.4 133.15 Q2192.37 133.211 2191.39 133.519 Q2190.42 133.826 2189.85 134.256 Q2189.3 134.687 2188.68 135.568 Q2188.07 136.449 2187.62 137.515 Q2187.19 138.581 2186.57 140.323 Q2186.37 140.897 2186.24 141.061 Q2186.14 141.204 2185.85 141.204 Q2185.65 141.204 2185.48 141.081 Q2185.34 140.938 2185.34 140.753 Q2185.55 140.077 2185.59 139.995 L2188.11 132.596 Q2188.31 132.002 2188.5 131.899 Q2188.7 131.776 2189.46 131.776 L2212.74 131.776 Q2213.11 131.776 2213.23 131.776 Q2213.36 131.776 2213.56 131.817 Q2213.77 131.858 2213.83 131.961 Q2213.89 132.063 2213.89 132.227 Z" fill="#000000" fill-rule="evenodd" fill-opacity="1" /><path clip-path="url(#clip950)" d="M 0 0 M2221.26 153.808 Q2221.3 153.296 2222.1 153.296 L2247.82 153.296 Q2249.03 153.296 2249.05 153.767 Q2249.05 154.28 2247.9 154.259 L2222.39 154.259 Q2221.26 154.28 2221.26 153.808 M2221.26 145.61 Q2221.26 145.098 2222.14 145.119 L2247.78 145.119 Q2249.03 145.119 2249.05 145.61 Q2249.05 146.082 2247.98 146.082 L2222.1 146.082 Q2221.26 146.082 2221.26 145.61 Z" fill="#000000" fill-rule="evenodd" fill-opacity="1" /><path clip-path="url(#clip950)" d="M 0 0 M2265.23 146.758 Q2265.23 140.589 2266.79 137.228 Q2268.96 132.227 2274.09 132.227 Q2275.17 132.227 2276.3 132.535 Q2277.45 132.822 2278.88 133.949 Q2280.34 135.076 2281.22 136.921 Q2282.9 140.487 2282.9 146.758 Q2282.9 152.886 2281.34 156.227 Q2279.07 161.104 2274.05 161.104 Q2272.16 161.104 2270.23 160.141 Q2268.33 159.178 2267.12 156.862 Q2265.23 153.398 2265.23 146.758 M2268.72 146.246 Q2268.72 152.579 2269.17 155.099 Q2269.68 157.825 2271.07 159.014 Q2272.49 160.182 2274.05 160.182 Q2275.73 160.182 2277.12 158.932 Q2278.53 157.661 2278.96 154.935 Q2279.44 152.251 2279.42 146.246 Q2279.42 140.405 2279.01 138.068 Q2278.45 135.343 2276.98 134.256 Q2275.52 133.15 2274.05 133.15 Q2273.49 133.15 2272.9 133.314 Q2272.32 133.478 2271.48 133.949 Q2270.64 134.42 2269.99 135.588 Q2269.35 136.757 2269.04 138.519 Q2268.72 140.794 2268.72 146.246 Z" fill="#000000" fill-rule="evenodd" fill-opacity="1" /><polyline clip-path="url(#clip950)" style="stroke:#ff0000; stroke-width:3.5; stroke-opacity:1; fill:none" points="
  2024.48,199.493 2162.36,199.493 
  "/>
<path clip-path="url(#clip950)" d="M 0 0 M2213.89 185.155 Q2213.89 185.545 2213.81 185.873 L2212.66 193.169 Q2212.6 193.722 2212.48 193.927 Q2212.37 194.132 2212.05 194.132 Q2211.53 194.132 2211.53 193.599 Q2211.53 193.292 2211.66 192.8 Q2212 190.484 2212 189.439 Q2212 188.742 2211.86 188.229 Q2211.74 187.697 2211.53 187.328 Q2211.35 186.959 2210.92 186.713 Q2210.49 186.467 2210.08 186.323 Q2209.67 186.18 2208.93 186.118 Q2208.19 186.036 2207.56 186.016 Q2206.92 185.995 2205.88 185.995 Q2203.6 185.995 2203.23 186.077 Q2202.84 186.18 2202.64 186.487 Q2202.45 186.774 2202.25 187.635 L2196.67 209.913 L2196.51 210.794 Q2196.51 211.286 2196.82 211.45 Q2197.13 211.614 2198.07 211.716 Q2199.42 211.819 2200.75 211.819 Q2200.79 211.819 2200.88 211.819 Q2201.33 211.819 2201.51 211.839 Q2201.7 211.839 2201.88 211.88 Q2202.06 211.921 2202.11 212.024 Q2202.17 212.106 2202.17 212.27 Q2202.17 212.659 2202 212.864 Q2201.84 213.048 2201.68 213.089 Q2201.53 213.11 2201.24 213.11 Q2200.67 213.11 2199.44 213.069 Q2198.21 213.028 2197.6 213.028 L2194.11 212.987 L2190.55 213.028 Q2189.99 213.028 2188.82 213.069 Q2187.66 213.11 2187.1 213.11 Q2186.39 213.11 2186.39 212.598 Q2186.39 212.024 2186.65 211.921 Q2186.94 211.819 2188.15 211.819 Q2189.85 211.819 2190.77 211.737 Q2191.69 211.655 2192.19 211.368 Q2192.7 211.081 2192.84 210.794 Q2192.99 210.487 2193.15 209.79 L2198.79 187.389 Q2198.95 186.897 2198.95 186.508 Q2198.95 186.303 2198.89 186.221 Q2198.85 186.139 2198.58 186.077 Q2198.31 185.995 2197.76 185.995 L2196.12 185.995 Q2194.44 185.995 2193.4 186.077 Q2192.37 186.139 2191.39 186.446 Q2190.42 186.754 2189.85 187.184 Q2189.3 187.615 2188.68 188.496 Q2188.07 189.377 2187.62 190.443 Q2187.19 191.509 2186.57 193.251 Q2186.37 193.824 2186.24 193.988 Q2186.14 194.132 2185.85 194.132 Q2185.65 194.132 2185.48 194.009 Q2185.34 193.865 2185.34 193.681 Q2185.55 193.005 2185.59 192.923 L2188.11 185.524 Q2188.31 184.93 2188.5 184.827 Q2188.7 184.704 2189.46 184.704 L2212.74 184.704 Q2213.11 184.704 2213.23 184.704 Q2213.36 184.704 2213.56 184.745 Q2213.77 184.786 2213.83 184.889 Q2213.89 184.991 2213.89 185.155 Z" fill="#000000" fill-rule="evenodd" fill-opacity="1" /><path clip-path="url(#clip950)" d="M 0 0 M2221.26 206.736 Q2221.3 206.224 2222.1 206.224 L2247.82 206.224 Q2249.03 206.224 2249.05 206.695 Q2249.05 207.207 2247.9 207.187 L2222.39 207.187 Q2221.26 207.207 2221.26 206.736 M2221.26 198.538 Q2221.26 198.026 2222.14 198.046 L2247.78 198.046 Q2249.03 198.046 2249.05 198.538 Q2249.05 199.01 2247.98 199.01 L2222.1 199.01 Q2221.26 199.01 2221.26 198.538 Z" fill="#000000" fill-rule="evenodd" fill-opacity="1" /><path clip-path="url(#clip950)" d="M 0 0 M2265.23 206.183 L2265.23 204.892 L2278.12 185.196 Q2278.45 184.684 2278.96 184.704 Q2279.44 184.704 2279.54 184.889 Q2279.64 185.073 2279.64 185.791 L2279.64 204.892 L2283.84 204.892 L2283.84 206.183 L2279.64 206.183 L2279.64 209.831 Q2279.64 211.04 2280.13 211.429 Q2280.64 211.819 2282.82 211.819 L2283.7 211.819 L2283.7 213.11 Q2281.98 212.987 2278 212.987 Q2274.05 212.987 2272.32 213.11 L2272.32 211.819 L2273.21 211.819 Q2275.38 211.819 2275.89 211.45 Q2276.4 211.06 2276.4 209.831 L2276.4 206.183 L2265.23 206.183 M2266.42 204.892 L2276.65 204.892 L2276.65 189.234 L2266.42 204.892 Z" fill="#000000" fill-rule="evenodd" fill-opacity="1" /><path clip-path="url(#clip950)" d="M 0 0 M2286.01 199.686 Q2286.01 193.517 2287.57 190.156 Q2289.74 185.155 2294.87 185.155 Q2295.95 185.155 2297.08 185.463 Q2298.23 185.75 2299.66 186.877 Q2301.12 188.004 2302 189.848 Q2303.68 193.415 2303.68 199.686 Q2303.68 205.814 2302.12 209.154 Q2299.85 214.032 2294.83 214.032 Q2292.94 214.032 2291.01 213.069 Q2289.11 212.106 2287.9 209.79 Q2286.01 206.326 2286.01 199.686 M2289.5 199.174 Q2289.5 205.506 2289.95 208.027 Q2290.46 210.753 2291.86 211.942 Q2293.27 213.11 2294.83 213.11 Q2296.51 213.11 2297.9 211.86 Q2299.32 210.589 2299.75 207.863 Q2300.22 205.178 2300.2 199.174 Q2300.2 193.333 2299.79 190.996 Q2299.23 188.27 2297.76 187.184 Q2296.3 186.077 2294.83 186.077 Q2294.27 186.077 2293.68 186.241 Q2293.11 186.405 2292.26 186.877 Q2291.42 187.348 2290.77 188.516 Q2290.13 189.685 2289.83 191.447 Q2289.5 193.722 2289.5 199.174 Z" fill="#000000" fill-rule="evenodd" fill-opacity="1" /></svg>
