<?xml version="1.0" encoding="utf-8"?>
<svg xmlns="http://www.w3.org/2000/svg" xmlns:xlink="http://www.w3.org/1999/xlink" width="600" height="400" viewBox="0 0 2400 1600">
<defs>
  <clipPath id="clip300">
    <rect x="0" y="0" width="2400" height="1600"/>
  </clipPath>
</defs>
<path clip-path="url(#clip300)" d="
M0 1600 L2400 1600 L2400 0 L0 0  Z
  " fill="#ffffff" fill-rule="evenodd" fill-opacity="1"/>
<defs>
  <clipPath id="clip301">
    <rect x="480" y="0" width="1681" height="1600"/>
  </clipPath>
</defs>
<defs>
  <clipPath id="clip302">
    <rect x="191" y="47" width="2162" height="1393"/>
  </clipPath>
</defs>
<path clip-path="url(#clip300)" d="
M191.558 1439.5 L2352.76 1439.5 L2352.76 47.2441 L191.558 47.2441  Z
  " fill="#ffffff" fill-rule="evenodd" fill-opacity="1"/>
<polyline clip-path="url(#clip302)" style="stroke:#000000; stroke-width:2; stroke-opacity:0.1; fill:none" points="
  250.683,1439.5 250.683,47.2441 
  "/>
<polyline clip-path="url(#clip302)" style="stroke:#000000; stroke-width:2; stroke-opacity:0.1; fill:none" points="
  760.91,1439.5 760.91,47.2441 
  "/>
<polyline clip-path="url(#clip302)" style="stroke:#000000; stroke-width:2; stroke-opacity:0.1; fill:none" points="
  1271.14,1439.5 1271.14,47.2441 
  "/>
<polyline clip-path="url(#clip302)" style="stroke:#000000; stroke-width:2; stroke-opacity:0.1; fill:none" points="
  1781.36,1439.5 1781.36,47.2441 
  "/>
<polyline clip-path="url(#clip302)" style="stroke:#000000; stroke-width:2; stroke-opacity:0.1; fill:none" points="
  2291.59,1439.5 2291.59,47.2441 
  "/>
<polyline clip-path="url(#clip300)" style="stroke:#000000; stroke-width:4; stroke-opacity:1; fill:none" points="
  191.558,1439.5 2352.76,1439.5 
  "/>
<polyline clip-path="url(#clip300)" style="stroke:#000000; stroke-width:4; stroke-opacity:1; fill:none" points="
  250.683,1439.5 250.683,1422.79 
  "/>
<polyline clip-path="url(#clip300)" style="stroke:#000000; stroke-width:4; stroke-opacity:1; fill:none" points="
  760.91,1439.5 760.91,1422.79 
  "/>
<polyline clip-path="url(#clip300)" style="stroke:#000000; stroke-width:4; stroke-opacity:1; fill:none" points="
  1271.14,1439.5 1271.14,1422.79 
  "/>
<polyline clip-path="url(#clip300)" style="stroke:#000000; stroke-width:4; stroke-opacity:1; fill:none" points="
  1781.36,1439.5 1781.36,1422.79 
  "/>
<polyline clip-path="url(#clip300)" style="stroke:#000000; stroke-width:4; stroke-opacity:1; fill:none" points="
  2291.59,1439.5 2291.59,1422.79 
  "/>
<path clip-path="url(#clip300)" d="M 0 0 M250.683 1468.69 Q247.072 1468.69 245.243 1472.26 Q243.438 1475.8 243.438 1482.93 Q243.438 1490.04 245.243 1493.6 Q247.072 1497.14 250.683 1497.14 Q254.317 1497.14 256.123 1493.6 Q257.952 1490.04 257.952 1482.93 Q257.952 1475.8 256.123 1472.26 Q254.317 1468.69 250.683 1468.69 M250.683 1464.99 Q256.493 1464.99 259.549 1469.6 Q262.628 1474.18 262.628 1482.93 Q262.628 1491.66 259.549 1496.26 Q256.493 1500.85 250.683 1500.85 Q244.873 1500.85 241.794 1496.26 Q238.739 1491.66 238.739 1482.93 Q238.739 1474.18 241.794 1469.6 Q244.873 1464.99 250.683 1464.99 Z" fill="#000000" fill-rule="evenodd" fill-opacity="1" /><path clip-path="url(#clip300)" d="M 0 0 M740.181 1496.24 L756.5 1496.24 L756.5 1500.17 L734.556 1500.17 L734.556 1496.24 Q737.218 1493.48 741.801 1488.85 Q746.408 1484.2 747.588 1482.86 Q749.834 1480.34 750.713 1478.6 Q751.616 1476.84 751.616 1475.15 Q751.616 1472.4 749.672 1470.66 Q747.75 1468.92 744.648 1468.92 Q742.449 1468.92 739.996 1469.69 Q737.565 1470.45 734.787 1472 L734.787 1467.28 Q737.611 1466.15 740.065 1465.57 Q742.519 1464.99 744.556 1464.99 Q749.926 1464.99 753.121 1467.67 Q756.315 1470.36 756.315 1474.85 Q756.315 1476.98 755.505 1478.9 Q754.718 1480.8 752.611 1483.39 Q752.033 1484.06 748.931 1487.28 Q745.829 1490.47 740.181 1496.24 Z" fill="#000000" fill-rule="evenodd" fill-opacity="1" /><path clip-path="url(#clip300)" d="M 0 0 M766.361 1465.61 L784.718 1465.61 L784.718 1469.55 L770.644 1469.55 L770.644 1478.02 Q771.662 1477.67 772.681 1477.51 Q773.699 1477.33 774.718 1477.33 Q780.505 1477.33 783.884 1480.5 Q787.264 1483.67 787.264 1489.09 Q787.264 1494.66 783.792 1497.77 Q780.32 1500.85 774 1500.85 Q771.824 1500.85 769.556 1500.47 Q767.31 1500.1 764.903 1499.36 L764.903 1494.66 Q766.986 1495.8 769.208 1496.35 Q771.431 1496.91 773.908 1496.91 Q777.912 1496.91 780.25 1494.8 Q782.588 1492.7 782.588 1489.09 Q782.588 1485.47 780.25 1483.37 Q777.912 1481.26 773.908 1481.26 Q772.033 1481.26 770.158 1481.68 Q768.306 1482.1 766.361 1482.97 L766.361 1465.61 Z" fill="#000000" fill-rule="evenodd" fill-opacity="1" /><path clip-path="url(#clip300)" d="M 0 0 M1245.84 1465.61 L1264.19 1465.61 L1264.19 1469.55 L1250.12 1469.55 L1250.12 1478.02 Q1251.14 1477.67 1252.16 1477.51 Q1253.17 1477.33 1254.19 1477.33 Q1259.98 1477.33 1263.36 1480.5 Q1266.74 1483.67 1266.74 1489.09 Q1266.74 1494.66 1263.27 1497.77 Q1259.79 1500.85 1253.47 1500.85 Q1251.3 1500.85 1249.03 1500.47 Q1246.78 1500.1 1244.38 1499.36 L1244.38 1494.66 Q1246.46 1495.8 1248.68 1496.35 Q1250.91 1496.91 1253.38 1496.91 Q1257.39 1496.91 1259.72 1494.8 Q1262.06 1492.7 1262.06 1489.09 Q1262.06 1485.47 1259.72 1483.37 Q1257.39 1481.26 1253.38 1481.26 Q1251.51 1481.26 1249.63 1481.68 Q1247.78 1482.1 1245.84 1482.97 L1245.84 1465.61 Z" fill="#000000" fill-rule="evenodd" fill-opacity="1" /><path clip-path="url(#clip300)" d="M 0 0 M1285.95 1468.69 Q1282.34 1468.69 1280.51 1472.26 Q1278.71 1475.8 1278.71 1482.93 Q1278.71 1490.04 1280.51 1493.6 Q1282.34 1497.14 1285.95 1497.14 Q1289.59 1497.14 1291.39 1493.6 Q1293.22 1490.04 1293.22 1482.93 Q1293.22 1475.8 1291.39 1472.26 Q1289.59 1468.69 1285.95 1468.69 M1285.95 1464.99 Q1291.76 1464.99 1294.82 1469.6 Q1297.9 1474.18 1297.9 1482.93 Q1297.9 1491.66 1294.82 1496.26 Q1291.76 1500.85 1285.95 1500.85 Q1280.14 1500.85 1277.06 1496.26 Q1274.01 1491.66 1274.01 1482.93 Q1274.01 1474.18 1277.06 1469.6 Q1280.14 1464.99 1285.95 1464.99 Z" fill="#000000" fill-rule="evenodd" fill-opacity="1" /><path clip-path="url(#clip300)" d="M 0 0 M1755.22 1465.61 L1777.44 1465.61 L1777.44 1467.6 L1764.89 1500.17 L1760.01 1500.17 L1771.81 1469.55 L1755.22 1469.55 L1755.22 1465.61 Z" fill="#000000" fill-rule="evenodd" fill-opacity="1" /><path clip-path="url(#clip300)" d="M 0 0 M1786.61 1465.61 L1804.96 1465.61 L1804.96 1469.55 L1790.89 1469.55 L1790.89 1478.02 Q1791.91 1477.67 1792.93 1477.51 Q1793.94 1477.33 1794.96 1477.33 Q1800.75 1477.33 1804.13 1480.5 Q1807.51 1483.67 1807.51 1489.09 Q1807.51 1494.66 1804.04 1497.77 Q1800.56 1500.85 1794.25 1500.85 Q1792.07 1500.85 1789.8 1500.47 Q1787.56 1500.1 1785.15 1499.36 L1785.15 1494.66 Q1787.23 1495.8 1789.45 1496.35 Q1791.68 1496.91 1794.15 1496.91 Q1798.16 1496.91 1800.5 1494.8 Q1802.83 1492.7 1802.83 1489.09 Q1802.83 1485.47 1800.5 1483.37 Q1798.16 1481.26 1794.15 1481.26 Q1792.28 1481.26 1790.4 1481.68 Q1788.55 1482.1 1786.61 1482.97 L1786.61 1465.61 Z" fill="#000000" fill-rule="evenodd" fill-opacity="1" /><path clip-path="url(#clip300)" d="M 0 0 M2251.2 1496.24 L2258.84 1496.24 L2258.84 1469.87 L2250.53 1471.54 L2250.53 1467.28 L2258.79 1465.61 L2263.47 1465.61 L2263.47 1496.24 L2271.1 1496.24 L2271.1 1500.17 L2251.2 1500.17 L2251.2 1496.24 Z" fill="#000000" fill-rule="evenodd" fill-opacity="1" /><path clip-path="url(#clip300)" d="M 0 0 M2290.55 1468.69 Q2286.94 1468.69 2285.11 1472.26 Q2283.3 1475.8 2283.3 1482.93 Q2283.3 1490.04 2285.11 1493.6 Q2286.94 1497.14 2290.55 1497.14 Q2294.18 1497.14 2295.99 1493.6 Q2297.82 1490.04 2297.82 1482.93 Q2297.82 1475.8 2295.99 1472.26 Q2294.18 1468.69 2290.55 1468.69 M2290.55 1464.99 Q2296.36 1464.99 2299.41 1469.6 Q2302.49 1474.18 2302.49 1482.93 Q2302.49 1491.66 2299.41 1496.26 Q2296.36 1500.85 2290.55 1500.85 Q2284.74 1500.85 2281.66 1496.26 Q2278.6 1491.66 2278.6 1482.93 Q2278.6 1474.18 2281.66 1469.6 Q2284.74 1464.99 2290.55 1464.99 Z" fill="#000000" fill-rule="evenodd" fill-opacity="1" /><path clip-path="url(#clip300)" d="M 0 0 M2320.71 1468.69 Q2317.1 1468.69 2315.27 1472.26 Q2313.46 1475.8 2313.46 1482.93 Q2313.46 1490.04 2315.27 1493.6 Q2317.1 1497.14 2320.71 1497.14 Q2324.34 1497.14 2326.15 1493.6 Q2327.98 1490.04 2327.98 1482.93 Q2327.98 1475.8 2326.15 1472.26 Q2324.34 1468.69 2320.71 1468.69 M2320.71 1464.99 Q2326.52 1464.99 2329.58 1469.6 Q2332.65 1474.18 2332.65 1482.93 Q2332.65 1491.66 2329.58 1496.26 Q2326.52 1500.85 2320.71 1500.85 Q2314.9 1500.85 2311.82 1496.26 Q2308.77 1491.66 2308.77 1482.93 Q2308.77 1474.18 2311.82 1469.6 Q2314.9 1464.99 2320.71 1464.99 Z" fill="#000000" fill-rule="evenodd" fill-opacity="1" /><path clip-path="url(#clip300)" d="M 0 0 M1284.09 1535.75 Q1284.09 1541.16 1282.35 1547.24 Q1280.65 1553.3 1277.94 1558.19 Q1275.24 1563.06 1271.69 1566.28 Q1268.15 1569.47 1264.77 1569.47 Q1262.61 1569.47 1261 1568.27 Q1259.42 1567.05 1258.55 1565.02 Q1257.68 1562.96 1257.26 1560.71 Q1256.85 1558.42 1256.85 1555.94 Q1256.85 1552.24 1257.65 1548.21 Q1258.46 1544.15 1259.81 1540.48 Q1261.16 1536.78 1263.06 1533.43 Q1264.96 1530.05 1267.06 1527.6 Q1269.18 1525.12 1271.56 1523.67 Q1273.95 1522.22 1276.17 1522.22 Q1277.78 1522.22 1279.07 1522.93 Q1280.39 1523.6 1281.23 1524.8 Q1282.06 1525.96 1282.64 1527.34 Q1283.25 1528.73 1283.54 1530.34 Q1283.83 1531.91 1283.96 1533.23 Q1284.09 1534.52 1284.09 1535.75 M1279.74 1531.66 Q1279.74 1530.01 1279.62 1528.79 Q1279.49 1527.53 1279.13 1526.28 Q1278.78 1525.02 1278.01 1524.35 Q1277.26 1523.67 1276.1 1523.67 Q1272.72 1523.67 1268.92 1530.59 Q1267.7 1532.75 1266.6 1535.68 Q1265.51 1538.61 1265.12 1540 Q1264.74 1541.38 1263.83 1544.8 L1277.62 1544.8 Q1279.74 1536 1279.74 1531.66 M1277.04 1546.89 L1263.32 1546.89 Q1261.19 1554.94 1261.19 1559.96 Q1261.19 1564.34 1262.1 1566.18 Q1263.03 1567.98 1264.77 1567.98 Q1266.77 1567.98 1268.63 1565.99 Q1270.5 1563.96 1272.4 1560.29 Q1274.91 1555.52 1277.04 1546.89 Z" fill="#000000" fill-rule="evenodd" fill-opacity="1" /><polyline clip-path="url(#clip302)" style="stroke:#000000; stroke-width:2; stroke-opacity:0.1; fill:none" points="
  191.558,1236.53 2352.76,1236.53 
  "/>
<polyline clip-path="url(#clip302)" style="stroke:#000000; stroke-width:2; stroke-opacity:0.1; fill:none" points="
  191.558,899.421 2352.76,899.421 
  "/>
<polyline clip-path="url(#clip302)" style="stroke:#000000; stroke-width:2; stroke-opacity:0.1; fill:none" points="
  191.558,562.31 2352.76,562.31 
  "/>
<polyline clip-path="url(#clip302)" style="stroke:#000000; stroke-width:2; stroke-opacity:0.1; fill:none" points="
  191.558,225.199 2352.76,225.199 
  "/>
<polyline clip-path="url(#clip300)" style="stroke:#000000; stroke-width:4; stroke-opacity:1; fill:none" points="
  191.558,1439.5 191.558,47.2441 
  "/>
<polyline clip-path="url(#clip300)" style="stroke:#000000; stroke-width:4; stroke-opacity:1; fill:none" points="
  191.558,1236.53 217.493,1236.53 
  "/>
<polyline clip-path="url(#clip300)" style="stroke:#000000; stroke-width:4; stroke-opacity:1; fill:none" points="
  191.558,899.421 217.493,899.421 
  "/>
<polyline clip-path="url(#clip300)" style="stroke:#000000; stroke-width:4; stroke-opacity:1; fill:none" points="
  191.558,562.31 217.493,562.31 
  "/>
<polyline clip-path="url(#clip300)" style="stroke:#000000; stroke-width:4; stroke-opacity:1; fill:none" points="
  191.558,225.199 217.493,225.199 
  "/>
<path clip-path="url(#clip300)" d="M 0 0 M134.655 1219.25 L153.012 1219.25 L153.012 1223.19 L138.938 1223.19 L138.938 1231.66 Q139.956 1231.31 140.975 1231.15 Q141.993 1230.96 143.012 1230.96 Q148.799 1230.96 152.179 1234.14 Q155.558 1237.31 155.558 1242.72 Q155.558 1248.3 152.086 1251.4 Q148.614 1254.48 142.294 1254.48 Q140.118 1254.48 137.85 1254.11 Q135.605 1253.74 133.197 1253 L133.197 1248.3 Q135.28 1249.44 137.503 1249.99 Q139.725 1250.55 142.202 1250.55 Q146.206 1250.55 148.544 1248.44 Q150.882 1246.34 150.882 1242.72 Q150.882 1239.11 148.544 1237.01 Q146.206 1234.9 142.202 1234.9 Q140.327 1234.9 138.452 1235.32 Q136.6 1235.73 134.655 1236.61 L134.655 1219.25 Z" fill="#000000" fill-rule="evenodd" fill-opacity="1" /><path clip-path="url(#clip300)" d="M 0 0 M104.262 912.766 L111.901 912.766 L111.901 886.4 L103.591 888.067 L103.591 883.808 L111.855 882.141 L116.531 882.141 L116.531 912.766 L124.169 912.766 L124.169 916.701 L104.262 916.701 L104.262 912.766 Z" fill="#000000" fill-rule="evenodd" fill-opacity="1" /><path clip-path="url(#clip300)" d="M 0 0 M143.614 885.22 Q140.003 885.22 138.174 888.784 Q136.368 892.326 136.368 899.456 Q136.368 906.562 138.174 910.127 Q140.003 913.669 143.614 913.669 Q147.248 913.669 149.054 910.127 Q150.882 906.562 150.882 899.456 Q150.882 892.326 149.054 888.784 Q147.248 885.22 143.614 885.22 M143.614 881.516 Q149.424 881.516 152.479 886.122 Q155.558 890.706 155.558 899.456 Q155.558 908.183 152.479 912.789 Q149.424 917.372 143.614 917.372 Q137.804 917.372 134.725 912.789 Q131.669 908.183 131.669 899.456 Q131.669 890.706 134.725 886.122 Q137.804 881.516 143.614 881.516 Z" fill="#000000" fill-rule="evenodd" fill-opacity="1" /><path clip-path="url(#clip300)" d="M 0 0 M105.258 575.655 L112.896 575.655 L112.896 549.289 L104.586 550.956 L104.586 546.697 L112.85 545.03 L117.526 545.03 L117.526 575.655 L125.165 575.655 L125.165 579.59 L105.258 579.59 L105.258 575.655 Z" fill="#000000" fill-rule="evenodd" fill-opacity="1" /><path clip-path="url(#clip300)" d="M 0 0 M134.655 545.03 L153.012 545.03 L153.012 548.965 L138.938 548.965 L138.938 557.437 Q139.956 557.09 140.975 556.928 Q141.993 556.743 143.012 556.743 Q148.799 556.743 152.179 559.914 Q155.558 563.086 155.558 568.502 Q155.558 574.081 152.086 577.183 Q148.614 580.261 142.294 580.261 Q140.118 580.261 137.85 579.891 Q135.605 579.521 133.197 578.78 L133.197 574.081 Q135.28 575.215 137.503 575.771 Q139.725 576.326 142.202 576.326 Q146.206 576.326 148.544 574.22 Q150.882 572.113 150.882 568.502 Q150.882 564.891 148.544 562.785 Q146.206 560.678 142.202 560.678 Q140.327 560.678 138.452 561.095 Q136.6 561.512 134.655 562.391 L134.655 545.03 Z" fill="#000000" fill-rule="evenodd" fill-opacity="1" /><path clip-path="url(#clip300)" d="M 0 0 M107.48 238.544 L123.799 238.544 L123.799 242.479 L101.855 242.479 L101.855 238.544 Q104.517 235.789 109.1 231.16 Q113.707 226.507 114.887 225.165 Q117.132 222.641 118.012 220.905 Q118.915 219.146 118.915 217.456 Q118.915 214.702 116.97 212.965 Q115.049 211.229 111.947 211.229 Q109.748 211.229 107.295 211.993 Q104.864 212.757 102.086 214.308 L102.086 209.586 Q104.91 208.452 107.364 207.873 Q109.818 207.294 111.855 207.294 Q117.225 207.294 120.419 209.979 Q123.614 212.665 123.614 217.155 Q123.614 219.285 122.804 221.206 Q122.017 223.104 119.91 225.697 Q119.331 226.368 116.23 229.586 Q113.128 232.78 107.48 238.544 Z" fill="#000000" fill-rule="evenodd" fill-opacity="1" /><path clip-path="url(#clip300)" d="M 0 0 M143.614 210.998 Q140.003 210.998 138.174 214.563 Q136.368 218.104 136.368 225.234 Q136.368 232.34 138.174 235.905 Q140.003 239.447 143.614 239.447 Q147.248 239.447 149.054 235.905 Q150.882 232.34 150.882 225.234 Q150.882 218.104 149.054 214.563 Q147.248 210.998 143.614 210.998 M143.614 207.294 Q149.424 207.294 152.479 211.901 Q155.558 216.484 155.558 225.234 Q155.558 233.961 152.479 238.567 Q149.424 243.151 143.614 243.151 Q137.804 243.151 134.725 238.567 Q131.669 233.961 131.669 225.234 Q131.669 216.484 134.725 211.901 Q137.804 207.294 143.614 207.294 Z" fill="#000000" fill-rule="evenodd" fill-opacity="1" /><path clip-path="url(#clip300)" d="M 0 0 M31.2507 770.566 Q25.5824 770.566 21.7821 767.668 Q17.9819 764.769 17.9819 760.873 Q17.9819 758.489 20.1074 756.138 Q25.196 750.792 25.1638 743.803 Q25.1638 735.881 18.9158 731.275 Q17.9819 730.47 17.9819 729.89 Q17.9819 729.375 18.4005 728.989 Q18.787 728.57 19.3023 728.57 Q19.6888 728.57 20.4939 729.085 L70.1553 762.451 Q71.1537 763.191 71.1537 763.771 Q71.1537 764.286 70.7351 764.705 Q70.3486 765.091 69.8333 765.091 Q69.3824 765.091 68.5128 764.512 L24.3908 734.882 L24.3264 734.947 Q26.6452 738.361 26.613 743.739 Q26.613 748.828 23.8433 753.691 Q27.2571 752.306 31.3151 752.306 Q36.8545 752.306 40.7192 754.786 Q44.5517 757.265 44.5517 760.873 Q44.5517 764.769 40.8158 767.668 Q37.0477 770.566 31.2507 770.566 M25.8723 766.025 Q28.1911 766.476 31.3151 766.476 Q34.4068 766.476 36.7257 766.025 Q39.0123 765.575 40.2039 764.93 Q41.3955 764.254 42.104 763.352 Q42.7804 762.451 42.9414 761.903 Q43.1024 761.356 43.1024 760.808 Q43.1024 758.103 39.753 756.042 Q36.3714 753.948 31.2507 753.948 Q26.2266 753.948 22.8449 756.042 Q19.4311 758.103 19.4311 760.808 Q19.4311 761.388 19.5921 761.968 Q19.7532 762.515 20.4617 763.385 Q21.138 764.254 22.3296 764.93 Q23.5213 765.575 25.8723 766.025 M57.8205 741.356 Q52.1523 741.356 48.352 738.457 Q44.5517 735.559 44.5517 731.662 Q44.5517 728.087 48.4164 725.607 Q52.2811 723.095 57.8849 723.095 Q63.4243 723.095 67.289 725.575 Q71.1537 728.023 71.1537 731.662 Q71.1537 735.559 67.3856 738.457 Q63.6176 741.356 57.8205 741.356 M52.4421 736.815 Q54.7931 737.266 57.8849 737.266 Q60.9767 737.266 63.2955 736.815 Q65.6143 736.332 66.8059 735.688 Q67.9653 735.011 68.6417 734.142 Q69.3502 733.24 69.5112 732.692 Q69.7045 732.113 69.7045 731.597 Q69.7045 728.892 66.3551 726.831 Q62.9734 724.738 57.8205 724.738 Q52.7964 724.738 49.4148 726.831 Q46.0009 728.892 46.0009 731.597 Q46.0009 732.177 46.1942 732.757 Q46.3552 733.304 47.0637 734.174 Q47.7401 735.011 48.9317 735.688 Q50.0911 736.332 52.4421 736.815 Z" fill="#000000" fill-rule="evenodd" fill-opacity="1" /><polyline clip-path="url(#clip302)" style="stroke:#0000ff; stroke-width:4; stroke-opacity:1; fill:none" points="
  252.724,1400.1 762.441,1124.95 1272.16,992.077 1781.87,898.984 2291.59,827.572 
  "/>
<polyline clip-path="url(#clip302)" style="stroke:#4000bf; stroke-width:4; stroke-opacity:1; fill:none" points="
  252.724,1399.12 762.441,909.934 1272.16,614.775 1781.87,395.13 2291.59,221.946 
  "/>
<polyline clip-path="url(#clip302)" style="stroke:#7f0080; stroke-width:4; stroke-opacity:1; fill:none" points="
  252.724,1398.94 762.441,870.19 1272.16,544.705 1781.87,301.069 2291.59,108.427 
  "/>
<polyline clip-path="url(#clip302)" style="stroke:#bf0040; stroke-width:4; stroke-opacity:1; fill:none" points="
  252.724,1398.9 762.441,862.567 1272.16,531.264 1781.87,283.024 2291.59,86.6476 
  "/>
<path clip-path="url(#clip300)" d="
M263.598 396.053 L679.474 396.053 L679.474 93.6527 L263.598 93.6527  Z
  " fill="#ffffff" fill-rule="evenodd" fill-opacity="1"/>
<polyline clip-path="url(#clip300)" style="stroke:#000000; stroke-width:4; stroke-opacity:1; fill:none" points="
  263.598,396.053 679.474,396.053 679.474,93.6527 263.598,93.6527 263.598,396.053 
  "/>
<polyline clip-path="url(#clip300)" style="stroke:#0000ff; stroke-width:4; stroke-opacity:1; fill:none" points="
  287.611,154.133 431.691,154.133 
  "/>
<path clip-path="url(#clip300)" d="M 0 0 M488.332 137.731 Q488.332 138.176 488.238 138.551 L486.927 146.89 Q486.856 147.522 486.716 147.756 Q486.599 147.99 486.224 147.99 Q485.638 147.99 485.638 147.381 Q485.638 147.03 485.779 146.468 Q486.177 143.821 486.177 142.627 Q486.177 141.83 486.013 141.245 Q485.873 140.636 485.638 140.214 Q485.428 139.793 484.936 139.511 Q484.444 139.23 483.975 139.066 Q483.507 138.902 482.664 138.832 Q481.821 138.739 481.094 138.715 Q480.368 138.692 479.174 138.692 Q476.574 138.692 476.152 138.785 Q475.707 138.902 475.473 139.254 Q475.262 139.582 475.028 140.565 L468.657 166.026 L468.47 167.033 Q468.47 167.595 468.821 167.782 Q469.172 167.97 470.25 168.087 Q471.796 168.204 473.318 168.204 Q473.365 168.204 473.459 168.204 Q473.974 168.204 474.185 168.227 Q474.396 168.227 474.606 168.274 Q474.817 168.321 474.864 168.438 Q474.934 168.532 474.934 168.719 Q474.934 169.164 474.747 169.398 Q474.56 169.609 474.372 169.656 Q474.208 169.68 473.88 169.68 Q473.225 169.68 471.819 169.633 Q470.414 169.586 469.711 169.586 L465.729 169.539 L461.654 169.586 Q461.021 169.586 459.686 169.633 Q458.351 169.68 457.719 169.68 Q456.899 169.68 456.899 169.094 Q456.899 168.438 457.204 168.321 Q457.531 168.204 458.913 168.204 Q460.857 168.204 461.911 168.11 Q462.966 168.017 463.528 167.689 Q464.113 167.361 464.277 167.033 Q464.441 166.681 464.628 165.885 L471.07 140.284 Q471.257 139.722 471.257 139.277 Q471.257 139.043 471.187 138.949 Q471.14 138.856 470.835 138.785 Q470.531 138.692 469.899 138.692 L468.025 138.692 Q466.104 138.692 464.91 138.785 Q463.738 138.856 462.614 139.207 Q461.513 139.558 460.857 140.05 Q460.225 140.542 459.522 141.549 Q458.82 142.556 458.304 143.774 Q457.813 144.992 457.11 146.983 Q456.876 147.639 456.735 147.826 Q456.618 147.99 456.29 147.99 Q456.056 147.99 455.869 147.85 Q455.705 147.686 455.705 147.475 Q455.939 146.702 455.986 146.608 L458.867 138.153 Q459.101 137.474 459.312 137.357 Q459.546 137.216 460.412 137.216 L487.02 137.216 Q487.442 137.216 487.582 137.216 Q487.723 137.216 487.957 137.263 Q488.191 137.31 488.262 137.427 Q488.332 137.544 488.332 137.731 Z" fill="#000000" fill-rule="evenodd" fill-opacity="1" /><path clip-path="url(#clip300)" d="M 0 0 M496.749 162.395 Q496.795 161.81 497.709 161.81 L527.104 161.81 Q528.486 161.81 528.509 162.348 Q528.509 162.934 527.198 162.91 L498.037 162.91 Q496.749 162.934 496.749 162.395 M496.749 153.026 Q496.749 152.441 497.756 152.464 L527.057 152.464 Q528.486 152.464 528.509 153.026 Q528.509 153.565 527.291 153.565 L497.709 153.565 Q496.749 153.565 496.749 153.026 Z" fill="#000000" fill-rule="evenodd" fill-opacity="1" /><path clip-path="url(#clip300)" d="M 0 0 M547 161.95 Q547 160.521 547.773 159.983 Q548.546 159.421 549.366 159.421 Q550.467 159.421 551.099 160.123 Q551.755 160.802 551.755 161.763 Q551.755 162.723 551.099 163.426 Q550.467 164.105 549.366 164.105 Q548.827 164.105 548.546 164.011 Q549.179 166.213 551.099 167.806 Q553.043 169.398 555.596 169.398 Q558.805 169.398 560.726 166.283 Q561.873 164.269 561.873 159.702 Q561.873 155.673 561.007 153.659 Q559.672 150.59 556.931 150.59 Q553.043 150.59 550.748 153.94 Q550.467 154.361 550.139 154.385 Q549.67 154.385 549.553 154.127 Q549.46 153.846 549.46 153.12 L549.46 138.926 Q549.46 137.778 549.928 137.778 Q550.115 137.778 550.514 137.919 Q553.535 139.254 556.884 139.277 Q560.328 139.277 563.419 137.872 Q563.654 137.731 563.794 137.731 Q564.263 137.731 564.286 138.27 Q564.286 138.457 563.888 139.02 Q563.513 139.558 562.693 140.284 Q561.873 140.987 560.819 141.666 Q559.765 142.346 558.22 142.814 Q556.697 143.259 555.011 143.259 Q552.996 143.259 550.935 142.627 L550.935 151.972 Q553.418 149.536 557.025 149.536 Q560.866 149.536 563.513 152.628 Q566.16 155.72 566.16 160.03 Q566.16 164.55 563.021 167.642 Q559.906 170.734 555.69 170.734 Q551.849 170.734 549.413 167.993 Q547 165.253 547 161.95 Z" fill="#000000" fill-rule="evenodd" fill-opacity="1" /><path clip-path="url(#clip300)" d="M 0 0 M571.476 168.907 Q570.75 168.134 570.75 167.127 Q570.75 166.119 571.476 165.393 Q572.202 164.644 573.303 164.644 Q574.357 164.644 575.06 165.346 Q575.786 166.026 575.786 167.15 Q575.786 168.251 575.013 168.977 Q574.264 169.68 573.303 169.68 Q572.202 169.68 571.476 168.907 Z" fill="#000000" fill-rule="evenodd" fill-opacity="1" /><path clip-path="url(#clip300)" d="M 0 0 M583.947 154.338 Q583.947 147.288 585.727 143.446 Q588.21 137.731 594.066 137.731 Q595.307 137.731 596.595 138.083 Q597.907 138.411 599.547 139.699 Q601.21 140.987 602.217 143.095 Q604.137 147.171 604.137 154.338 Q604.137 161.341 602.357 165.159 Q599.757 170.734 594.019 170.734 Q591.864 170.734 589.662 169.633 Q587.484 168.532 586.102 165.885 Q583.947 161.927 583.947 154.338 M587.929 153.752 Q587.929 160.99 588.444 163.871 Q589.03 166.986 590.623 168.344 Q592.239 169.68 594.019 169.68 Q595.94 169.68 597.532 168.251 Q599.148 166.799 599.64 163.683 Q600.179 160.615 600.156 153.752 Q600.156 147.077 599.687 144.407 Q599.055 141.292 597.368 140.05 Q595.705 138.785 594.019 138.785 Q593.386 138.785 592.707 138.973 Q592.051 139.16 591.091 139.699 Q590.131 140.238 589.381 141.573 Q588.655 142.908 588.304 144.922 Q587.929 147.522 587.929 153.752 Z" fill="#000000" fill-rule="evenodd" fill-opacity="1" /><polyline clip-path="url(#clip300)" style="stroke:#4000bf; stroke-width:4; stroke-opacity:1; fill:none" points="
  287.611,214.613 431.691,214.613 
  "/>
<path clip-path="url(#clip300)" d="M 0 0 M488.332 198.211 Q488.332 198.656 488.238 199.031 L486.927 207.37 Q486.856 208.002 486.716 208.236 Q486.599 208.47 486.224 208.47 Q485.638 208.47 485.638 207.861 Q485.638 207.51 485.779 206.948 Q486.177 204.301 486.177 203.107 Q486.177 202.31 486.013 201.725 Q485.873 201.116 485.638 200.694 Q485.428 200.273 484.936 199.991 Q484.444 199.71 483.975 199.546 Q483.507 199.382 482.664 199.312 Q481.821 199.219 481.094 199.195 Q480.368 199.172 479.174 199.172 Q476.574 199.172 476.152 199.265 Q475.707 199.382 475.473 199.734 Q475.262 200.062 475.028 201.045 L468.657 226.506 L468.47 227.513 Q468.47 228.075 468.821 228.262 Q469.172 228.45 470.25 228.567 Q471.796 228.684 473.318 228.684 Q473.365 228.684 473.459 228.684 Q473.974 228.684 474.185 228.707 Q474.396 228.707 474.606 228.754 Q474.817 228.801 474.864 228.918 Q474.934 229.012 474.934 229.199 Q474.934 229.644 474.747 229.878 Q474.56 230.089 474.372 230.136 Q474.208 230.16 473.88 230.16 Q473.225 230.16 471.819 230.113 Q470.414 230.066 469.711 230.066 L465.729 230.019 L461.654 230.066 Q461.021 230.066 459.686 230.113 Q458.351 230.16 457.719 230.16 Q456.899 230.16 456.899 229.574 Q456.899 228.918 457.204 228.801 Q457.531 228.684 458.913 228.684 Q460.857 228.684 461.911 228.59 Q462.966 228.497 463.528 228.169 Q464.113 227.841 464.277 227.513 Q464.441 227.161 464.628 226.365 L471.07 200.764 Q471.257 200.202 471.257 199.757 Q471.257 199.523 471.187 199.429 Q471.14 199.336 470.835 199.265 Q470.531 199.172 469.899 199.172 L468.025 199.172 Q466.104 199.172 464.91 199.265 Q463.738 199.336 462.614 199.687 Q461.513 200.038 460.857 200.53 Q460.225 201.022 459.522 202.029 Q458.82 203.036 458.304 204.254 Q457.813 205.472 457.11 207.463 Q456.876 208.119 456.735 208.306 Q456.618 208.47 456.29 208.47 Q456.056 208.47 455.869 208.33 Q455.705 208.166 455.705 207.955 Q455.939 207.182 455.986 207.088 L458.867 198.633 Q459.101 197.954 459.312 197.837 Q459.546 197.696 460.412 197.696 L487.02 197.696 Q487.442 197.696 487.582 197.696 Q487.723 197.696 487.957 197.743 Q488.191 197.79 488.262 197.907 Q488.332 198.024 488.332 198.211 Z" fill="#000000" fill-rule="evenodd" fill-opacity="1" /><path clip-path="url(#clip300)" d="M 0 0 M496.749 222.875 Q496.795 222.29 497.709 222.29 L527.104 222.29 Q528.486 222.29 528.509 222.828 Q528.509 223.414 527.198 223.39 L498.037 223.39 Q496.749 223.414 496.749 222.875 M496.749 213.506 Q496.749 212.921 497.756 212.944 L527.057 212.944 Q528.486 212.944 528.509 213.506 Q528.509 214.045 527.291 214.045 L497.709 214.045 Q496.749 214.045 496.749 213.506 Z" fill="#000000" fill-rule="evenodd" fill-opacity="1" /><path clip-path="url(#clip300)" d="M 0 0 M547 230.16 Q547 229.293 547.07 229.035 Q547.164 228.778 547.539 228.379 L556.744 218.12 Q561.78 212.452 561.78 207.51 Q561.78 204.301 560.093 202.006 Q558.43 199.71 555.362 199.71 Q553.254 199.71 551.474 200.999 Q549.694 202.287 548.874 204.582 Q549.015 204.535 549.506 204.535 Q550.701 204.535 551.357 205.285 Q552.036 206.034 552.036 207.042 Q552.036 208.33 551.193 208.962 Q550.373 209.571 549.553 209.571 Q549.225 209.571 548.78 209.501 Q548.359 209.431 547.679 208.775 Q547 208.096 547 206.901 Q547 203.552 549.53 200.882 Q552.083 198.211 555.971 198.211 Q560.374 198.211 563.255 200.835 Q566.16 203.435 566.16 207.51 Q566.16 208.939 565.715 210.25 Q565.293 211.539 564.708 212.546 Q564.145 213.553 562.6 215.169 Q561.054 216.785 559.812 217.933 Q558.571 219.081 555.784 221.517 L550.701 226.459 L559.344 226.459 Q563.56 226.459 563.888 226.084 Q564.356 225.405 564.942 221.821 L566.16 221.821 L564.801 230.16 L547 230.16 Z" fill="#000000" fill-rule="evenodd" fill-opacity="1" /><path clip-path="url(#clip300)" d="M 0 0 M570.75 214.818 Q570.75 207.768 572.53 203.926 Q575.013 198.211 580.869 198.211 Q582.11 198.211 583.398 198.563 Q584.71 198.891 586.35 200.179 Q588.013 201.467 589.02 203.575 Q590.94 207.651 590.94 214.818 Q590.94 221.821 589.16 225.639 Q586.56 231.214 580.822 231.214 Q578.667 231.214 576.465 230.113 Q574.287 229.012 572.905 226.365 Q570.75 222.407 570.75 214.818 M574.732 214.232 Q574.732 221.47 575.247 224.351 Q575.833 227.466 577.426 228.824 Q579.042 230.16 580.822 230.16 Q582.743 230.16 584.335 228.731 Q585.951 227.279 586.443 224.163 Q586.982 221.095 586.959 214.232 Q586.959 207.557 586.49 204.887 Q585.858 201.772 584.171 200.53 Q582.508 199.265 580.822 199.265 Q580.189 199.265 579.51 199.453 Q578.854 199.64 577.894 200.179 Q576.934 200.718 576.184 202.053 Q575.458 203.388 575.107 205.402 Q574.732 208.002 574.732 214.232 Z" fill="#000000" fill-rule="evenodd" fill-opacity="1" /><path clip-path="url(#clip300)" d="M 0 0 M595.226 229.387 Q594.5 228.614 594.5 227.607 Q594.5 226.599 595.226 225.873 Q595.952 225.124 597.053 225.124 Q598.107 225.124 598.81 225.826 Q599.536 226.506 599.536 227.63 Q599.536 228.731 598.763 229.457 Q598.014 230.16 597.053 230.16 Q595.952 230.16 595.226 229.387 Z" fill="#000000" fill-rule="evenodd" fill-opacity="1" /><path clip-path="url(#clip300)" d="M 0 0 M607.697 214.818 Q607.697 207.768 609.477 203.926 Q611.96 198.211 617.816 198.211 Q619.057 198.211 620.345 198.563 Q621.657 198.891 623.297 200.179 Q624.96 201.467 625.967 203.575 Q627.887 207.651 627.887 214.818 Q627.887 221.821 626.107 225.639 Q623.507 231.214 617.769 231.214 Q615.614 231.214 613.412 230.113 Q611.234 229.012 609.852 226.365 Q607.697 222.407 607.697 214.818 M611.679 214.232 Q611.679 221.47 612.194 224.351 Q612.78 227.466 614.373 228.824 Q615.989 230.16 617.769 230.16 Q619.69 230.16 621.282 228.731 Q622.898 227.279 623.39 224.163 Q623.929 221.095 623.906 214.232 Q623.906 207.557 623.437 204.887 Q622.805 201.772 621.118 200.53 Q619.455 199.265 617.769 199.265 Q617.136 199.265 616.457 199.453 Q615.801 199.64 614.841 200.179 Q613.881 200.718 613.131 202.053 Q612.405 203.388 612.054 205.402 Q611.679 208.002 611.679 214.232 Z" fill="#000000" fill-rule="evenodd" fill-opacity="1" /><polyline clip-path="url(#clip300)" style="stroke:#7f0080; stroke-width:4; stroke-opacity:1; fill:none" points="
  287.611,275.093 431.691,275.093 
  "/>
<path clip-path="url(#clip300)" d="M 0 0 M488.332 258.691 Q488.332 259.136 488.238 259.511 L486.927 267.85 Q486.856 268.482 486.716 268.716 Q486.599 268.95 486.224 268.95 Q485.638 268.95 485.638 268.341 Q485.638 267.99 485.779 267.428 Q486.177 264.781 486.177 263.587 Q486.177 262.79 486.013 262.205 Q485.873 261.596 485.638 261.174 Q485.428 260.753 484.936 260.471 Q484.444 260.19 483.975 260.026 Q483.507 259.862 482.664 259.792 Q481.821 259.699 481.094 259.675 Q480.368 259.652 479.174 259.652 Q476.574 259.652 476.152 259.745 Q475.707 259.862 475.473 260.214 Q475.262 260.542 475.028 261.525 L468.657 286.986 L468.47 287.993 Q468.47 288.555 468.821 288.742 Q469.172 288.93 470.25 289.047 Q471.796 289.164 473.318 289.164 Q473.365 289.164 473.459 289.164 Q473.974 289.164 474.185 289.187 Q474.396 289.187 474.606 289.234 Q474.817 289.281 474.864 289.398 Q474.934 289.492 474.934 289.679 Q474.934 290.124 474.747 290.358 Q474.56 290.569 474.372 290.616 Q474.208 290.64 473.88 290.64 Q473.225 290.64 471.819 290.593 Q470.414 290.546 469.711 290.546 L465.729 290.499 L461.654 290.546 Q461.021 290.546 459.686 290.593 Q458.351 290.64 457.719 290.64 Q456.899 290.64 456.899 290.054 Q456.899 289.398 457.204 289.281 Q457.531 289.164 458.913 289.164 Q460.857 289.164 461.911 289.07 Q462.966 288.977 463.528 288.649 Q464.113 288.321 464.277 287.993 Q464.441 287.641 464.628 286.845 L471.07 261.244 Q471.257 260.682 471.257 260.237 Q471.257 260.003 471.187 259.909 Q471.14 259.816 470.835 259.745 Q470.531 259.652 469.899 259.652 L468.025 259.652 Q466.104 259.652 464.91 259.745 Q463.738 259.816 462.614 260.167 Q461.513 260.518 460.857 261.01 Q460.225 261.502 459.522 262.509 Q458.82 263.516 458.304 264.734 Q457.813 265.952 457.11 267.943 Q456.876 268.599 456.735 268.786 Q456.618 268.95 456.29 268.95 Q456.056 268.95 455.869 268.81 Q455.705 268.646 455.705 268.435 Q455.939 267.662 455.986 267.568 L458.867 259.113 Q459.101 258.434 459.312 258.317 Q459.546 258.176 460.412 258.176 L487.02 258.176 Q487.442 258.176 487.582 258.176 Q487.723 258.176 487.957 258.223 Q488.191 258.27 488.262 258.387 Q488.332 258.504 488.332 258.691 Z" fill="#000000" fill-rule="evenodd" fill-opacity="1" /><path clip-path="url(#clip300)" d="M 0 0 M496.749 283.355 Q496.795 282.77 497.709 282.77 L527.104 282.77 Q528.486 282.77 528.509 283.308 Q528.509 283.894 527.198 283.87 L498.037 283.87 Q496.749 283.894 496.749 283.355 M496.749 273.986 Q496.749 273.401 497.756 273.424 L527.057 273.424 Q528.486 273.424 528.509 273.986 Q528.509 274.525 527.291 274.525 L497.709 274.525 Q496.749 274.525 496.749 273.986 Z" fill="#000000" fill-rule="evenodd" fill-opacity="1" /><path clip-path="url(#clip300)" d="M 0 0 M547 284.175 Q547 282.746 547.82 282.067 Q548.64 281.388 549.694 281.388 Q550.795 281.388 551.568 282.114 Q552.364 282.816 552.364 284.058 Q552.364 285.393 551.427 286.142 Q550.514 286.892 549.202 286.705 Q550.35 288.625 552.458 289.492 Q554.589 290.358 556.557 290.358 Q558.618 290.358 560.281 288.578 Q561.967 286.798 561.967 282.442 Q561.967 278.741 560.515 276.61 Q559.086 274.478 556.252 274.478 L554.144 274.478 Q553.418 274.478 553.207 274.408 Q552.996 274.338 552.996 273.939 Q552.996 273.471 553.722 273.377 Q554.449 273.377 555.596 273.237 Q558.384 273.143 559.859 270.73 Q561.194 268.482 561.194 265.273 Q561.194 262.345 559.789 261.127 Q558.407 259.886 556.603 259.886 Q554.917 259.886 553.067 260.589 Q551.216 261.291 550.209 262.861 Q553.184 262.861 553.184 265.273 Q553.184 266.327 552.505 267.03 Q551.849 267.709 550.748 267.709 Q549.694 267.709 548.991 267.053 Q548.288 266.374 548.288 265.226 Q548.288 262.486 550.724 260.589 Q553.184 258.691 556.791 258.691 Q560.351 258.691 562.974 260.565 Q565.621 262.439 565.621 265.32 Q565.621 268.154 563.747 270.473 Q561.873 272.792 558.899 273.752 Q562.553 274.478 564.731 276.961 Q566.909 279.42 566.909 282.442 Q566.909 286.189 563.958 288.953 Q561.007 291.694 556.697 291.694 Q552.715 291.694 549.858 289.539 Q547 287.384 547 284.175 Z" fill="#000000" fill-rule="evenodd" fill-opacity="1" /><path clip-path="url(#clip300)" d="M 0 0 M570.75 282.91 Q570.75 281.481 571.523 280.943 Q572.296 280.381 573.116 280.381 Q574.217 280.381 574.849 281.083 Q575.505 281.762 575.505 282.723 Q575.505 283.683 574.849 284.386 Q574.217 285.065 573.116 285.065 Q572.577 285.065 572.296 284.971 Q572.929 287.173 574.849 288.766 Q576.793 290.358 579.346 290.358 Q582.555 290.358 584.476 287.243 Q585.623 285.229 585.623 280.662 Q585.623 276.633 584.757 274.619 Q583.422 271.55 580.681 271.55 Q576.793 271.55 574.498 274.9 Q574.217 275.321 573.889 275.345 Q573.42 275.345 573.303 275.087 Q573.21 274.806 573.21 274.08 L573.21 259.886 Q573.21 258.738 573.678 258.738 Q573.865 258.738 574.264 258.879 Q577.285 260.214 580.634 260.237 Q584.078 260.237 587.169 258.832 Q587.404 258.691 587.544 258.691 Q588.013 258.691 588.036 259.23 Q588.036 259.417 587.638 259.98 Q587.263 260.518 586.443 261.244 Q585.623 261.947 584.569 262.626 Q583.515 263.306 581.97 263.774 Q580.447 264.219 578.761 264.219 Q576.746 264.219 574.685 263.587 L574.685 272.932 Q577.168 270.496 580.775 270.496 Q584.616 270.496 587.263 273.588 Q589.91 276.68 589.91 280.99 Q589.91 285.51 586.771 288.602 Q583.656 291.694 579.44 291.694 Q575.599 291.694 573.163 288.953 Q570.75 286.213 570.75 282.91 Z" fill="#000000" fill-rule="evenodd" fill-opacity="1" /><path clip-path="url(#clip300)" d="M 0 0 M595.226 289.867 Q594.5 289.094 594.5 288.087 Q594.5 287.079 595.226 286.353 Q595.952 285.604 597.053 285.604 Q598.107 285.604 598.81 286.306 Q599.536 286.986 599.536 288.11 Q599.536 289.211 598.763 289.937 Q598.014 290.64 597.053 290.64 Q595.952 290.64 595.226 289.867 Z" fill="#000000" fill-rule="evenodd" fill-opacity="1" /><path clip-path="url(#clip300)" d="M 0 0 M607.697 275.298 Q607.697 268.248 609.477 264.406 Q611.96 258.691 617.816 258.691 Q619.057 258.691 620.345 259.043 Q621.657 259.371 623.297 260.659 Q624.96 261.947 625.967 264.055 Q627.887 268.131 627.887 275.298 Q627.887 282.301 626.107 286.119 Q623.507 291.694 617.769 291.694 Q615.614 291.694 613.412 290.593 Q611.234 289.492 609.852 286.845 Q607.697 282.887 607.697 275.298 M611.679 274.712 Q611.679 281.95 612.194 284.831 Q612.78 287.946 614.373 289.304 Q615.989 290.64 617.769 290.64 Q619.69 290.64 621.282 289.211 Q622.898 287.759 623.39 284.643 Q623.929 281.575 623.906 274.712 Q623.906 268.037 623.437 265.367 Q622.805 262.252 621.118 261.01 Q619.455 259.745 617.769 259.745 Q617.136 259.745 616.457 259.933 Q615.801 260.12 614.841 260.659 Q613.881 261.198 613.131 262.533 Q612.405 263.868 612.054 265.882 Q611.679 268.482 611.679 274.712 Z" fill="#000000" fill-rule="evenodd" fill-opacity="1" /><polyline clip-path="url(#clip300)" style="stroke:#bf0040; stroke-width:4; stroke-opacity:1; fill:none" points="
  287.611,335.573 431.691,335.573 
  "/>
<path clip-path="url(#clip300)" d="M 0 0 M488.332 319.171 Q488.332 319.616 488.238 319.991 L486.927 328.33 Q486.856 328.962 486.716 329.196 Q486.599 329.43 486.224 329.43 Q485.638 329.43 485.638 328.821 Q485.638 328.47 485.779 327.908 Q486.177 325.261 486.177 324.067 Q486.177 323.27 486.013 322.685 Q485.873 322.076 485.638 321.654 Q485.428 321.233 484.936 320.951 Q484.444 320.67 483.975 320.506 Q483.507 320.342 482.664 320.272 Q481.821 320.179 481.094 320.155 Q480.368 320.132 479.174 320.132 Q476.574 320.132 476.152 320.225 Q475.707 320.342 475.473 320.694 Q475.262 321.022 475.028 322.005 L468.657 347.466 L468.47 348.473 Q468.47 349.035 468.821 349.222 Q469.172 349.41 470.25 349.527 Q471.796 349.644 473.318 349.644 Q473.365 349.644 473.459 349.644 Q473.974 349.644 474.185 349.667 Q474.396 349.667 474.606 349.714 Q474.817 349.761 474.864 349.878 Q474.934 349.972 474.934 350.159 Q474.934 350.604 474.747 350.838 Q474.56 351.049 474.372 351.096 Q474.208 351.12 473.88 351.12 Q473.225 351.12 471.819 351.073 Q470.414 351.026 469.711 351.026 L465.729 350.979 L461.654 351.026 Q461.021 351.026 459.686 351.073 Q458.351 351.12 457.719 351.12 Q456.899 351.12 456.899 350.534 Q456.899 349.878 457.204 349.761 Q457.531 349.644 458.913 349.644 Q460.857 349.644 461.911 349.55 Q462.966 349.457 463.528 349.129 Q464.113 348.801 464.277 348.473 Q464.441 348.121 464.628 347.325 L471.07 321.724 Q471.257 321.162 471.257 320.717 Q471.257 320.483 471.187 320.389 Q471.14 320.296 470.835 320.225 Q470.531 320.132 469.899 320.132 L468.025 320.132 Q466.104 320.132 464.91 320.225 Q463.738 320.296 462.614 320.647 Q461.513 320.998 460.857 321.49 Q460.225 321.982 459.522 322.989 Q458.82 323.996 458.304 325.214 Q457.813 326.432 457.11 328.423 Q456.876 329.079 456.735 329.266 Q456.618 329.43 456.29 329.43 Q456.056 329.43 455.869 329.29 Q455.705 329.126 455.705 328.915 Q455.939 328.142 455.986 328.048 L458.867 319.593 Q459.101 318.914 459.312 318.797 Q459.546 318.656 460.412 318.656 L487.02 318.656 Q487.442 318.656 487.582 318.656 Q487.723 318.656 487.957 318.703 Q488.191 318.75 488.262 318.867 Q488.332 318.984 488.332 319.171 Z" fill="#000000" fill-rule="evenodd" fill-opacity="1" /><path clip-path="url(#clip300)" d="M 0 0 M496.749 343.835 Q496.795 343.25 497.709 343.25 L527.104 343.25 Q528.486 343.25 528.509 343.788 Q528.509 344.374 527.198 344.35 L498.037 344.35 Q496.749 344.374 496.749 343.835 M496.749 334.466 Q496.749 333.881 497.756 333.904 L527.057 333.904 Q528.486 333.904 528.509 334.466 Q528.509 335.005 527.291 335.005 L497.709 335.005 Q496.749 335.005 496.749 334.466 Z" fill="#000000" fill-rule="evenodd" fill-opacity="1" /><path clip-path="url(#clip300)" d="M 0 0 M547 343.39 Q547 341.961 547.773 341.423 Q548.546 340.861 549.366 340.861 Q550.467 340.861 551.099 341.563 Q551.755 342.242 551.755 343.203 Q551.755 344.163 551.099 344.866 Q550.467 345.545 549.366 345.545 Q548.827 345.545 548.546 345.451 Q549.179 347.653 551.099 349.246 Q553.043 350.838 555.596 350.838 Q558.805 350.838 560.726 347.723 Q561.873 345.709 561.873 341.142 Q561.873 337.113 561.007 335.099 Q559.672 332.03 556.931 332.03 Q553.043 332.03 550.748 335.38 Q550.467 335.801 550.139 335.825 Q549.67 335.825 549.553 335.567 Q549.46 335.286 549.46 334.56 L549.46 320.366 Q549.46 319.218 549.928 319.218 Q550.115 319.218 550.514 319.359 Q553.535 320.694 556.884 320.717 Q560.328 320.717 563.419 319.312 Q563.654 319.171 563.794 319.171 Q564.263 319.171 564.286 319.71 Q564.286 319.897 563.888 320.46 Q563.513 320.998 562.693 321.724 Q561.873 322.427 560.819 323.106 Q559.765 323.786 558.22 324.254 Q556.697 324.699 555.011 324.699 Q552.996 324.699 550.935 324.067 L550.935 333.412 Q553.418 330.976 557.025 330.976 Q560.866 330.976 563.513 334.068 Q566.16 337.16 566.16 341.47 Q566.16 345.99 563.021 349.082 Q559.906 352.174 555.69 352.174 Q551.849 352.174 549.413 349.433 Q547 346.693 547 343.39 Z" fill="#000000" fill-rule="evenodd" fill-opacity="1" /><path clip-path="url(#clip300)" d="M 0 0 M570.75 335.778 Q570.75 328.728 572.53 324.886 Q575.013 319.171 580.869 319.171 Q582.11 319.171 583.398 319.523 Q584.71 319.851 586.35 321.139 Q588.013 322.427 589.02 324.535 Q590.94 328.611 590.94 335.778 Q590.94 342.781 589.16 346.599 Q586.56 352.174 580.822 352.174 Q578.667 352.174 576.465 351.073 Q574.287 349.972 572.905 347.325 Q570.75 343.367 570.75 335.778 M574.732 335.192 Q574.732 342.43 575.247 345.311 Q575.833 348.426 577.426 349.784 Q579.042 351.12 580.822 351.12 Q582.743 351.12 584.335 349.691 Q585.951 348.239 586.443 345.123 Q586.982 342.055 586.959 335.192 Q586.959 328.517 586.49 325.847 Q585.858 322.732 584.171 321.49 Q582.508 320.225 580.822 320.225 Q580.189 320.225 579.51 320.413 Q578.854 320.6 577.894 321.139 Q576.934 321.678 576.184 323.013 Q575.458 324.348 575.107 326.362 Q574.732 328.962 574.732 335.192 Z" fill="#000000" fill-rule="evenodd" fill-opacity="1" /><path clip-path="url(#clip300)" d="M 0 0 M595.226 350.347 Q594.5 349.574 594.5 348.567 Q594.5 347.559 595.226 346.833 Q595.952 346.084 597.053 346.084 Q598.107 346.084 598.81 346.786 Q599.536 347.466 599.536 348.59 Q599.536 349.691 598.763 350.417 Q598.014 351.12 597.053 351.12 Q595.952 351.12 595.226 350.347 Z" fill="#000000" fill-rule="evenodd" fill-opacity="1" /><path clip-path="url(#clip300)" d="M 0 0 M607.697 335.778 Q607.697 328.728 609.477 324.886 Q611.96 319.171 617.816 319.171 Q619.057 319.171 620.345 319.523 Q621.657 319.851 623.297 321.139 Q624.96 322.427 625.967 324.535 Q627.887 328.611 627.887 335.778 Q627.887 342.781 626.107 346.599 Q623.507 352.174 617.769 352.174 Q615.614 352.174 613.412 351.073 Q611.234 349.972 609.852 347.325 Q607.697 343.367 607.697 335.778 M611.679 335.192 Q611.679 342.43 612.194 345.311 Q612.78 348.426 614.373 349.784 Q615.989 351.12 617.769 351.12 Q619.69 351.12 621.282 349.691 Q622.898 348.239 623.39 345.123 Q623.929 342.055 623.906 335.192 Q623.906 328.517 623.437 325.847 Q622.805 322.732 621.118 321.49 Q619.455 320.225 617.769 320.225 Q617.136 320.225 616.457 320.413 Q615.801 320.6 614.841 321.139 Q613.881 321.678 613.131 323.013 Q612.405 324.348 612.054 326.362 Q611.679 328.962 611.679 335.192 Z" fill="#000000" fill-rule="evenodd" fill-opacity="1" /></svg>
