<?xml version="1.0" encoding="utf-8"?>
<svg xmlns="http://www.w3.org/2000/svg" xmlns:xlink="http://www.w3.org/1999/xlink" width="600" height="400" viewBox="0 0 2400 1600">
<defs>
  <clipPath id="clip330">
    <rect x="0" y="0" width="2400" height="1600"/>
  </clipPath>
</defs>
<path clip-path="url(#clip330)" d="
M0 1600 L2400 1600 L2400 0 L0 0  Z
  " fill="#ffffff" fill-rule="evenodd" fill-opacity="1"/>
<defs>
  <clipPath id="clip331">
    <rect x="480" y="0" width="1681" height="1600"/>
  </clipPath>
</defs>
<defs>
  <clipPath id="clip332">
    <rect x="290" y="47" width="1716" height="1397"/>
  </clipPath>
</defs>
<path clip-path="url(#clip330)" d="
M259.553 1439.5 L1928.95 1439.5 L1928.95 47.2441 L259.553 47.2441  Z
  " fill="#ffffff" fill-rule="evenodd" fill-opacity="1"/>
<defs>
  <clipPath id="clip333">
    <rect x="259" y="47" width="1670" height="1393"/>
  </clipPath>
</defs>
<polyline clip-path="url(#clip333)" style="stroke:#000000; stroke-width:2; stroke-opacity:0.1; fill:none" points="
  280.107,1439.5 280.107,47.2441 
  "/>
<polyline clip-path="url(#clip333)" style="stroke:#000000; stroke-width:2; stroke-opacity:0.1; fill:none" points="
  813.972,1439.5 813.972,47.2441 
  "/>
<polyline clip-path="url(#clip333)" style="stroke:#000000; stroke-width:2; stroke-opacity:0.1; fill:none" points="
  1347.84,1439.5 1347.84,47.2441 
  "/>
<polyline clip-path="url(#clip333)" style="stroke:#000000; stroke-width:2; stroke-opacity:0.1; fill:none" points="
  1881.7,1439.5 1881.7,47.2441 
  "/>
<polyline clip-path="url(#clip330)" style="stroke:#000000; stroke-width:4; stroke-opacity:1; fill:none" points="
  259.553,1439.5 1928.95,1439.5 
  "/>
<polyline clip-path="url(#clip330)" style="stroke:#000000; stroke-width:4; stroke-opacity:1; fill:none" points="
  280.107,1439.5 280.107,1422.79 
  "/>
<polyline clip-path="url(#clip330)" style="stroke:#000000; stroke-width:4; stroke-opacity:1; fill:none" points="
  813.972,1439.5 813.972,1422.79 
  "/>
<polyline clip-path="url(#clip330)" style="stroke:#000000; stroke-width:4; stroke-opacity:1; fill:none" points="
  1347.84,1439.5 1347.84,1422.79 
  "/>
<polyline clip-path="url(#clip330)" style="stroke:#000000; stroke-width:4; stroke-opacity:1; fill:none" points="
  1881.7,1439.5 1881.7,1422.79 
  "/>
<path clip-path="url(#clip330)" d="M 0 0 M280.107 1468.69 Q276.496 1468.69 274.667 1472.26 Q272.862 1475.8 272.862 1482.93 Q272.862 1490.04 274.667 1493.6 Q276.496 1497.14 280.107 1497.14 Q283.741 1497.14 285.547 1493.6 Q287.375 1490.04 287.375 1482.93 Q287.375 1475.8 285.547 1472.26 Q283.741 1468.69 280.107 1468.69 M280.107 1464.99 Q285.917 1464.99 288.973 1469.6 Q292.051 1474.18 292.051 1482.93 Q292.051 1491.66 288.973 1496.26 Q285.917 1500.85 280.107 1500.85 Q274.297 1500.85 271.218 1496.26 Q268.163 1491.66 268.163 1482.93 Q268.163 1474.18 271.218 1469.6 Q274.297 1464.99 280.107 1464.99 Z" fill="#000000" fill-rule="evenodd" fill-opacity="1" /><path clip-path="url(#clip330)" d="M 0 0 M773.579 1496.24 L781.218 1496.24 L781.218 1469.87 L772.908 1471.54 L772.908 1467.28 L781.172 1465.61 L785.847 1465.61 L785.847 1496.24 L793.486 1496.24 L793.486 1500.17 L773.579 1500.17 L773.579 1496.24 Z" fill="#000000" fill-rule="evenodd" fill-opacity="1" /><path clip-path="url(#clip330)" d="M 0 0 M812.931 1468.69 Q809.32 1468.69 807.491 1472.26 Q805.685 1475.8 805.685 1482.93 Q805.685 1490.04 807.491 1493.6 Q809.32 1497.14 812.931 1497.14 Q816.565 1497.14 818.37 1493.6 Q820.199 1490.04 820.199 1482.93 Q820.199 1475.8 818.37 1472.26 Q816.565 1468.69 812.931 1468.69 M812.931 1464.99 Q818.741 1464.99 821.796 1469.6 Q824.875 1474.18 824.875 1482.93 Q824.875 1491.66 821.796 1496.26 Q818.741 1500.85 812.931 1500.85 Q807.12 1500.85 804.042 1496.26 Q800.986 1491.66 800.986 1482.93 Q800.986 1474.18 804.042 1469.6 Q807.12 1464.99 812.931 1464.99 Z" fill="#000000" fill-rule="evenodd" fill-opacity="1" /><path clip-path="url(#clip330)" d="M 0 0 M843.093 1468.69 Q839.481 1468.69 837.653 1472.26 Q835.847 1475.8 835.847 1482.93 Q835.847 1490.04 837.653 1493.6 Q839.481 1497.14 843.093 1497.14 Q846.727 1497.14 848.532 1493.6 Q850.361 1490.04 850.361 1482.93 Q850.361 1475.8 848.532 1472.26 Q846.727 1468.69 843.093 1468.69 M843.093 1464.99 Q848.903 1464.99 851.958 1469.6 Q855.037 1474.18 855.037 1482.93 Q855.037 1491.66 851.958 1496.26 Q848.903 1500.85 843.093 1500.85 Q837.282 1500.85 834.204 1496.26 Q831.148 1491.66 831.148 1482.93 Q831.148 1474.18 834.204 1469.6 Q837.282 1464.99 843.093 1464.99 Z" fill="#000000" fill-rule="evenodd" fill-opacity="1" /><path clip-path="url(#clip330)" d="M 0 0 M1311.53 1496.24 L1327.85 1496.24 L1327.85 1500.17 L1305.9 1500.17 L1305.9 1496.24 Q1308.57 1493.48 1313.15 1488.85 Q1317.76 1484.2 1318.94 1482.86 Q1321.18 1480.34 1322.06 1478.6 Q1322.97 1476.84 1322.97 1475.15 Q1322.97 1472.4 1321.02 1470.66 Q1319.1 1468.92 1316 1468.92 Q1313.8 1468.92 1311.34 1469.69 Q1308.91 1470.45 1306.14 1472 L1306.14 1467.28 Q1308.96 1466.15 1311.41 1465.57 Q1313.87 1464.99 1315.9 1464.99 Q1321.28 1464.99 1324.47 1467.67 Q1327.66 1470.36 1327.66 1474.85 Q1327.66 1476.98 1326.85 1478.9 Q1326.07 1480.8 1323.96 1483.39 Q1323.38 1484.06 1320.28 1487.28 Q1317.18 1490.47 1311.53 1496.24 Z" fill="#000000" fill-rule="evenodd" fill-opacity="1" /><path clip-path="url(#clip330)" d="M 0 0 M1347.66 1468.69 Q1344.05 1468.69 1342.22 1472.26 Q1340.42 1475.8 1340.42 1482.93 Q1340.42 1490.04 1342.22 1493.6 Q1344.05 1497.14 1347.66 1497.14 Q1351.3 1497.14 1353.1 1493.6 Q1354.93 1490.04 1354.93 1482.93 Q1354.93 1475.8 1353.1 1472.26 Q1351.3 1468.69 1347.66 1468.69 M1347.66 1464.99 Q1353.47 1464.99 1356.53 1469.6 Q1359.61 1474.18 1359.61 1482.93 Q1359.61 1491.66 1356.53 1496.26 Q1353.47 1500.85 1347.66 1500.85 Q1341.85 1500.85 1338.78 1496.26 Q1335.72 1491.66 1335.72 1482.93 Q1335.72 1474.18 1338.78 1469.6 Q1341.85 1464.99 1347.66 1464.99 Z" fill="#000000" fill-rule="evenodd" fill-opacity="1" /><path clip-path="url(#clip330)" d="M 0 0 M1377.83 1468.69 Q1374.21 1468.69 1372.39 1472.26 Q1370.58 1475.8 1370.58 1482.93 Q1370.58 1490.04 1372.39 1493.6 Q1374.21 1497.14 1377.83 1497.14 Q1381.46 1497.14 1383.27 1493.6 Q1385.09 1490.04 1385.09 1482.93 Q1385.09 1475.8 1383.27 1472.26 Q1381.46 1468.69 1377.83 1468.69 M1377.83 1464.99 Q1383.64 1464.99 1386.69 1469.6 Q1389.77 1474.18 1389.77 1482.93 Q1389.77 1491.66 1386.69 1496.26 Q1383.64 1500.85 1377.83 1500.85 Q1372.02 1500.85 1368.94 1496.26 Q1365.88 1491.66 1365.88 1482.93 Q1365.88 1474.18 1368.94 1469.6 Q1372.02 1464.99 1377.83 1464.99 Z" fill="#000000" fill-rule="evenodd" fill-opacity="1" /><path clip-path="url(#clip330)" d="M 0 0 M1855.46 1481.54 Q1858.82 1482.26 1860.7 1484.53 Q1862.59 1486.79 1862.59 1490.13 Q1862.59 1495.24 1859.08 1498.04 Q1855.56 1500.85 1849.08 1500.85 Q1846.9 1500.85 1844.59 1500.41 Q1842.29 1499.99 1839.84 1499.13 L1839.84 1494.62 Q1841.78 1495.75 1844.1 1496.33 Q1846.41 1496.91 1848.94 1496.91 Q1853.33 1496.91 1855.63 1495.17 Q1857.94 1493.44 1857.94 1490.13 Q1857.94 1487.07 1855.79 1485.36 Q1853.66 1483.62 1849.84 1483.62 L1845.81 1483.62 L1845.81 1479.78 L1850.02 1479.78 Q1853.47 1479.78 1855.3 1478.41 Q1857.13 1477.03 1857.13 1474.43 Q1857.13 1471.77 1855.23 1470.36 Q1853.36 1468.92 1849.84 1468.92 Q1847.92 1468.92 1845.72 1469.34 Q1843.52 1469.76 1840.88 1470.64 L1840.88 1466.47 Q1843.54 1465.73 1845.86 1465.36 Q1848.2 1464.99 1850.26 1464.99 Q1855.58 1464.99 1858.68 1467.42 Q1861.78 1469.83 1861.78 1473.95 Q1861.78 1476.82 1860.14 1478.81 Q1858.5 1480.78 1855.46 1481.54 Z" fill="#000000" fill-rule="evenodd" fill-opacity="1" /><path clip-path="url(#clip330)" d="M 0 0 M1881.46 1468.69 Q1877.85 1468.69 1876.02 1472.26 Q1874.21 1475.8 1874.21 1482.93 Q1874.21 1490.04 1876.02 1493.6 Q1877.85 1497.14 1881.46 1497.14 Q1885.09 1497.14 1886.9 1493.6 Q1888.73 1490.04 1888.73 1482.93 Q1888.73 1475.8 1886.9 1472.26 Q1885.09 1468.69 1881.46 1468.69 M1881.46 1464.99 Q1887.27 1464.99 1890.33 1469.6 Q1893.4 1474.18 1893.4 1482.93 Q1893.4 1491.66 1890.33 1496.26 Q1887.27 1500.85 1881.46 1500.85 Q1875.65 1500.85 1872.57 1496.26 Q1869.52 1491.66 1869.52 1482.93 Q1869.52 1474.18 1872.57 1469.6 Q1875.65 1464.99 1881.46 1464.99 Z" fill="#000000" fill-rule="evenodd" fill-opacity="1" /><path clip-path="url(#clip330)" d="M 0 0 M1911.62 1468.69 Q1908.01 1468.69 1906.18 1472.26 Q1904.38 1475.8 1904.38 1482.93 Q1904.38 1490.04 1906.18 1493.6 Q1908.01 1497.14 1911.62 1497.14 Q1915.26 1497.14 1917.06 1493.6 Q1918.89 1490.04 1918.89 1482.93 Q1918.89 1475.8 1917.06 1472.26 Q1915.26 1468.69 1911.62 1468.69 M1911.62 1464.99 Q1917.43 1464.99 1920.49 1469.6 Q1923.57 1474.18 1923.57 1482.93 Q1923.57 1491.66 1920.49 1496.26 Q1917.43 1500.85 1911.62 1500.85 Q1905.81 1500.85 1902.73 1496.26 Q1899.68 1491.66 1899.68 1482.93 Q1899.68 1474.18 1902.73 1469.6 Q1905.81 1464.99 1911.62 1464.99 Z" fill="#000000" fill-rule="evenodd" fill-opacity="1" /><path clip-path="url(#clip330)" d="M 0 0 M1106.19 1535.75 Q1106.19 1541.16 1104.45 1547.24 Q1102.74 1553.3 1100.04 1558.19 Q1097.33 1563.06 1093.79 1566.28 Q1090.24 1569.47 1086.86 1569.47 Q1084.71 1569.47 1083.09 1568.27 Q1081.52 1567.05 1080.65 1565.02 Q1079.78 1562.96 1079.36 1560.71 Q1078.94 1558.42 1078.94 1555.94 Q1078.94 1552.24 1079.75 1548.21 Q1080.55 1544.15 1081.9 1540.48 Q1083.26 1536.78 1085.16 1533.43 Q1087.06 1530.05 1089.15 1527.6 Q1091.28 1525.12 1093.66 1523.67 Q1096.04 1522.22 1098.26 1522.22 Q1099.87 1522.22 1101.16 1522.93 Q1102.48 1523.6 1103.32 1524.8 Q1104.16 1525.96 1104.74 1527.34 Q1105.35 1528.73 1105.64 1530.34 Q1105.93 1531.91 1106.06 1533.23 Q1106.19 1534.52 1106.19 1535.75 M1101.84 1531.66 Q1101.84 1530.01 1101.71 1528.79 Q1101.58 1527.53 1101.23 1526.28 Q1100.87 1525.02 1100.1 1524.35 Q1099.36 1523.67 1098.2 1523.67 Q1094.82 1523.67 1091.02 1530.59 Q1089.79 1532.75 1088.7 1535.68 Q1087.6 1538.61 1087.22 1540 Q1086.83 1541.38 1085.93 1544.8 L1099.71 1544.8 Q1101.84 1536 1101.84 1531.66 M1099.13 1546.89 L1085.41 1546.89 Q1083.29 1554.94 1083.29 1559.96 Q1083.29 1564.34 1084.19 1566.18 Q1085.12 1567.98 1086.86 1567.98 Q1088.86 1567.98 1090.73 1565.99 Q1092.6 1563.96 1094.5 1560.29 Q1097.01 1555.52 1099.13 1546.89 Z" fill="#000000" fill-rule="evenodd" fill-opacity="1" /><polyline clip-path="url(#clip333)" style="stroke:#000000; stroke-width:2; stroke-opacity:0.1; fill:none" points="
  259.553,1399.9 1928.95,1399.9 
  "/>
<polyline clip-path="url(#clip333)" style="stroke:#000000; stroke-width:2; stroke-opacity:0.1; fill:none" points="
  259.553,962.905 1928.95,962.905 
  "/>
<polyline clip-path="url(#clip333)" style="stroke:#000000; stroke-width:2; stroke-opacity:0.1; fill:none" points="
  259.553,525.911 1928.95,525.911 
  "/>
<polyline clip-path="url(#clip333)" style="stroke:#000000; stroke-width:2; stroke-opacity:0.1; fill:none" points="
  259.553,88.9172 1928.95,88.9172 
  "/>
<polyline clip-path="url(#clip330)" style="stroke:#000000; stroke-width:4; stroke-opacity:1; fill:none" points="
  259.553,1439.5 259.553,47.2441 
  "/>
<polyline clip-path="url(#clip330)" style="stroke:#000000; stroke-width:4; stroke-opacity:1; fill:none" points="
  259.553,1399.9 279.586,1399.9 
  "/>
<polyline clip-path="url(#clip330)" style="stroke:#000000; stroke-width:4; stroke-opacity:1; fill:none" points="
  259.553,962.905 279.586,962.905 
  "/>
<polyline clip-path="url(#clip330)" style="stroke:#000000; stroke-width:4; stroke-opacity:1; fill:none" points="
  259.553,525.911 279.586,525.911 
  "/>
<polyline clip-path="url(#clip330)" style="stroke:#000000; stroke-width:4; stroke-opacity:1; fill:none" points="
  259.553,88.9172 279.586,88.9172 
  "/>
<path clip-path="url(#clip330)" d="M 0 0 M211.609 1385.7 Q207.998 1385.7 206.169 1389.26 Q204.363 1392.8 204.363 1399.93 Q204.363 1407.04 206.169 1410.6 Q207.998 1414.15 211.609 1414.15 Q215.243 1414.15 217.049 1410.6 Q218.877 1407.04 218.877 1399.93 Q218.877 1392.8 217.049 1389.26 Q215.243 1385.7 211.609 1385.7 M211.609 1381.99 Q217.419 1381.99 220.475 1386.6 Q223.553 1391.18 223.553 1399.93 Q223.553 1408.66 220.475 1413.27 Q217.419 1417.85 211.609 1417.85 Q205.799 1417.85 202.72 1413.27 Q199.664 1408.66 199.664 1399.93 Q199.664 1391.18 202.72 1386.6 Q205.799 1381.99 211.609 1381.99 Z" fill="#000000" fill-rule="evenodd" fill-opacity="1" /><path clip-path="url(#clip330)" d="M 0 0 M171.493 945.625 L189.85 945.625 L189.85 949.56 L175.776 949.56 L175.776 958.032 Q176.794 957.685 177.813 957.523 Q178.831 957.338 179.85 957.338 Q185.637 957.338 189.016 960.509 Q192.396 963.68 192.396 969.097 Q192.396 974.676 188.924 977.777 Q185.452 980.856 179.132 980.856 Q176.956 980.856 174.688 980.486 Q172.442 980.115 170.035 979.375 L170.035 974.676 Q172.118 975.81 174.341 976.365 Q176.563 976.921 179.04 976.921 Q183.044 976.921 185.382 974.814 Q187.72 972.708 187.72 969.097 Q187.72 965.486 185.382 963.379 Q183.044 961.273 179.04 961.273 Q177.165 961.273 175.29 961.69 Q173.438 962.106 171.493 962.986 L171.493 945.625 Z" fill="#000000" fill-rule="evenodd" fill-opacity="1" /><path clip-path="url(#clip330)" d="M 0 0 M211.609 948.703 Q207.998 948.703 206.169 952.268 Q204.363 955.81 204.363 962.94 Q204.363 970.046 206.169 973.611 Q207.998 977.152 211.609 977.152 Q215.243 977.152 217.049 973.611 Q218.877 970.046 218.877 962.94 Q218.877 955.81 217.049 952.268 Q215.243 948.703 211.609 948.703 M211.609 945 Q217.419 945 220.475 949.606 Q223.553 954.19 223.553 962.94 Q223.553 971.666 220.475 976.273 Q217.419 980.856 211.609 980.856 Q205.799 980.856 202.72 976.273 Q199.664 971.666 199.664 962.94 Q199.664 954.19 202.72 949.606 Q205.799 945 211.609 945 Z" fill="#000000" fill-rule="evenodd" fill-opacity="1" /><path clip-path="url(#clip330)" d="M 0 0 M142.095 539.256 L149.734 539.256 L149.734 512.89 L141.424 514.557 L141.424 510.298 L149.688 508.631 L154.364 508.631 L154.364 539.256 L162.003 539.256 L162.003 543.191 L142.095 543.191 L142.095 539.256 Z" fill="#000000" fill-rule="evenodd" fill-opacity="1" /><path clip-path="url(#clip330)" d="M 0 0 M181.447 511.71 Q177.836 511.71 176.007 515.274 Q174.202 518.816 174.202 525.946 Q174.202 533.052 176.007 536.617 Q177.836 540.159 181.447 540.159 Q185.081 540.159 186.887 536.617 Q188.715 533.052 188.715 525.946 Q188.715 518.816 186.887 515.274 Q185.081 511.71 181.447 511.71 M181.447 508.006 Q187.257 508.006 190.313 512.612 Q193.391 517.196 193.391 525.946 Q193.391 534.673 190.313 539.279 Q187.257 543.862 181.447 543.862 Q175.637 543.862 172.558 539.279 Q169.503 534.673 169.503 525.946 Q169.503 517.196 172.558 512.612 Q175.637 508.006 181.447 508.006 Z" fill="#000000" fill-rule="evenodd" fill-opacity="1" /><path clip-path="url(#clip330)" d="M 0 0 M211.609 511.71 Q207.998 511.71 206.169 515.274 Q204.363 518.816 204.363 525.946 Q204.363 533.052 206.169 536.617 Q207.998 540.159 211.609 540.159 Q215.243 540.159 217.049 536.617 Q218.877 533.052 218.877 525.946 Q218.877 518.816 217.049 515.274 Q215.243 511.71 211.609 511.71 M211.609 508.006 Q217.419 508.006 220.475 512.612 Q223.553 517.196 223.553 525.946 Q223.553 534.673 220.475 539.279 Q217.419 543.862 211.609 543.862 Q205.799 543.862 202.72 539.279 Q199.664 534.673 199.664 525.946 Q199.664 517.196 202.72 512.612 Q205.799 508.006 211.609 508.006 Z" fill="#000000" fill-rule="evenodd" fill-opacity="1" /><path clip-path="url(#clip330)" d="M 0 0 M142.095 102.262 L149.734 102.262 L149.734 75.8965 L141.424 77.5631 L141.424 73.3039 L149.688 71.6372 L154.364 71.6372 L154.364 102.262 L162.003 102.262 L162.003 106.197 L142.095 106.197 L142.095 102.262 Z" fill="#000000" fill-rule="evenodd" fill-opacity="1" /><path clip-path="url(#clip330)" d="M 0 0 M171.493 71.6372 L189.85 71.6372 L189.85 75.5724 L175.776 75.5724 L175.776 84.0446 Q176.794 83.6974 177.813 83.5353 Q178.831 83.3501 179.85 83.3501 Q185.637 83.3501 189.016 86.5214 Q192.396 89.6927 192.396 95.1093 Q192.396 100.688 188.924 103.79 Q185.452 106.869 179.132 106.869 Q176.956 106.869 174.688 106.498 Q172.442 106.128 170.035 105.387 L170.035 100.688 Q172.118 101.822 174.341 102.378 Q176.563 102.933 179.04 102.933 Q183.044 102.933 185.382 100.827 Q187.72 98.7204 187.72 95.1093 Q187.72 91.4982 185.382 89.3918 Q183.044 87.2853 179.04 87.2853 Q177.165 87.2853 175.29 87.702 Q173.438 88.1186 171.493 88.9982 L171.493 71.6372 Z" fill="#000000" fill-rule="evenodd" fill-opacity="1" /><path clip-path="url(#clip330)" d="M 0 0 M211.609 74.7159 Q207.998 74.7159 206.169 78.2807 Q204.363 81.8224 204.363 88.952 Q204.363 96.0584 206.169 99.6232 Q207.998 103.165 211.609 103.165 Q215.243 103.165 217.049 99.6232 Q218.877 96.0584 218.877 88.952 Q218.877 81.8224 217.049 78.2807 Q215.243 74.7159 211.609 74.7159 M211.609 71.0122 Q217.419 71.0122 220.475 75.6187 Q223.553 80.202 223.553 88.952 Q223.553 97.6788 220.475 102.285 Q217.419 106.869 211.609 106.869 Q205.799 106.869 202.72 102.285 Q199.664 97.6788 199.664 88.952 Q199.664 80.202 202.72 75.6187 Q205.799 71.0122 211.609 71.0122 Z" fill="#000000" fill-rule="evenodd" fill-opacity="1" /><path clip-path="url(#clip330)" d="M 0 0 M53.6652 929.833 L70.0902 935.502 L70.0902 990.187 Q70.0902 990.928 70.058 991.218 Q70.0258 991.508 69.8648 991.733 Q69.7037 991.958 69.3495 991.958 Q69.0596 991.958 68.3189 991.379 L39.3658 967.965 L6.25819 992.023 Q4.74452 992.023 4.45466 991.765 Q4.13261 991.508 4.13261 990.187 L4.13261 935.502 L19.5592 929.833 L19.5592 931.476 Q17.5624 932.217 15.8877 933.408 Q14.1808 934.568 12.957 935.92 Q11.7332 937.241 10.767 938.98 Q9.76863 940.687 9.15672 942.297 Q8.5126 943.875 8.06172 945.84 Q7.57863 947.804 7.35319 949.382 Q7.09554 950.928 6.96672 952.861 Q6.8379 954.793 6.80569 956.017 Q6.77349 957.241 6.77349 958.786 L6.77349 984.905 L36.1774 963.489 Q36.9182 963.005 37.1114 963.005 Q37.4013 963.005 38.1742 963.617 L66.4509 986.483 L66.4509 958.464 Q66.4509 949.447 64.5508 943.167 Q63.1015 938.915 60.2352 935.824 Q57.3689 932.7 53.6652 931.476 L53.6652 929.833 Z" fill="#000000" fill-rule="evenodd" fill-opacity="1" /><path clip-path="url(#clip330)" d="M 0 0 M96.2324 1001.01 Q96.8636 1001.01 97.0215 1001.3 Q97.1567 1001.6 97.1567 1002.41 L97.1567 1006.74 L110.773 1010.16 Q111.968 1010.43 112.983 1010.43 Q114.11 1010.43 114.606 1010.1 Q115.102 1009.74 115.102 1008.99 Q115.102 1007.53 113.772 1005.95 Q112.442 1004.35 109.195 1002.99 Q108.767 1002.81 108.677 1002.72 Q108.564 1002.61 108.564 1002.32 Q108.564 1001.75 109.015 1001.75 Q109.173 1001.75 109.894 1002.07 Q110.616 1002.36 111.675 1003.02 Q112.735 1003.65 113.727 1004.48 Q114.719 1005.29 115.44 1006.53 Q116.139 1007.77 116.139 1009.1 Q116.139 1010.98 114.944 1012.17 Q113.749 1013.34 111.878 1013.34 Q111.269 1013.34 109.331 1012.87 Q107.369 1012.4 97.1567 1009.83 L97.1567 1013.91 Q97.1567 1014.47 97.1342 1014.7 Q97.1116 1014.9 96.9989 1015.06 Q96.8636 1015.19 96.5931 1015.19 Q96.1648 1015.19 95.9844 1015.01 Q95.7815 1014.83 95.759 1014.61 Q95.7139 1014.36 95.7139 1013.79 L95.7139 1009.47 L88.3871 1007.66 Q87.6657 1007.48 87.2599 1007.03 Q86.8315 1006.56 86.7864 1006.29 Q86.7188 1006.02 86.7188 1005.81 Q86.7188 1005.2 87.057 1004.84 Q87.3726 1004.48 87.9587 1004.48 Q88.2743 1004.48 95.7139 1006.38 L95.7139 1002.32 Q95.7139 1001.8 95.7364 1001.6 Q95.759 1001.37 95.8717 1001.19 Q95.9844 1001.01 96.2324 1001.01 Z" fill="#000000" fill-rule="evenodd" fill-opacity="1" /><path clip-path="url(#clip330)" d="M 0 0 M108.609 985.878 Q108.046 985.833 108.046 984.954 L108.046 956.661 Q108.046 955.331 108.564 955.309 Q109.128 955.309 109.105 956.571 L109.105 984.638 Q109.128 985.878 108.609 985.878 M99.5915 985.878 Q99.0279 985.878 99.0504 984.909 L99.0504 956.706 Q99.0504 955.331 99.5915 955.309 Q100.11 955.309 100.11 956.481 L100.11 984.954 Q100.11 985.878 99.5915 985.878 Z" fill="#000000" fill-rule="evenodd" fill-opacity="1" /><path clip-path="url(#clip330)" d="M 0 0 M100.854 937.496 Q94.0682 937.496 90.3709 935.783 Q84.8702 933.393 84.8702 927.757 Q84.8702 926.563 85.2083 925.323 Q85.524 924.06 86.7639 922.482 Q88.0038 920.881 90.0328 919.912 Q93.9555 918.063 100.854 918.063 Q107.595 918.063 111.269 919.777 Q116.635 922.279 116.635 927.803 Q116.635 929.877 115.575 931.996 Q114.516 934.092 111.968 935.422 Q108.158 937.496 100.854 937.496 M100.29 933.664 Q107.256 933.664 110.029 933.168 Q113.028 932.604 114.335 931.071 Q115.62 929.516 115.62 927.803 Q115.62 925.954 114.245 924.421 Q112.847 922.865 109.849 922.392 Q106.896 921.873 100.29 921.896 Q93.8653 921.896 91.2953 922.347 Q88.2969 922.956 87.102 924.579 Q85.8847 926.179 85.8847 927.803 Q85.8847 928.411 86.065 929.065 Q86.2454 929.696 86.7639 930.621 Q87.2824 931.545 88.5674 932.266 Q89.8524 932.965 91.7912 933.303 Q94.2936 933.664 100.29 933.664 Z" fill="#000000" fill-rule="evenodd" fill-opacity="1" /><path clip-path="url(#clip330)" d="M 0 0 M9.67201 862.729 Q10.2839 862.729 10.7992 862.858 L22.2645 864.661 Q23.1341 864.758 23.4561 864.951 Q23.7782 865.112 23.7782 865.627 Q23.7782 866.433 22.9408 866.433 Q22.4577 866.433 21.6848 866.239 Q18.0455 865.692 16.403 865.692 Q15.308 865.692 14.5029 865.917 Q13.6655 866.11 13.0858 866.433 Q12.5061 866.722 12.1197 867.399 Q11.7332 868.075 11.5077 868.719 Q11.2823 869.363 11.1857 870.523 Q11.0569 871.682 11.0247 872.68 Q10.9925 873.679 10.9925 875.321 Q10.9925 878.896 11.1213 879.476 Q11.2823 880.088 11.7654 880.41 Q12.2163 880.7 13.5689 881.022 L48.5767 889.782 L49.9615 890.039 Q50.7345 890.039 50.9921 889.556 Q51.2498 889.073 51.4108 887.592 Q51.5718 885.466 51.5718 883.373 Q51.5718 883.308 51.5718 883.18 Q51.5718 882.471 51.604 882.181 Q51.604 881.891 51.6685 881.601 Q51.7329 881.312 51.8939 881.247 Q52.0227 881.151 52.2804 881.151 Q52.8923 881.151 53.2143 881.408 Q53.5042 881.666 53.5686 881.924 Q53.6008 882.149 53.6008 882.6 Q53.6008 883.502 53.5364 885.434 Q53.472 887.366 53.472 888.333 L53.4076 893.808 L53.472 899.411 Q53.472 900.281 53.5364 902.117 Q53.6008 903.952 53.6008 904.822 Q53.6008 905.949 52.7957 905.949 Q51.8939 905.949 51.7329 905.53 Q51.5718 905.08 51.5718 903.179 Q51.5718 900.506 51.443 899.057 Q51.3142 897.608 50.8633 896.835 Q50.4124 896.03 49.9615 895.804 Q49.4785 895.579 48.3835 895.321 L13.1825 886.465 Q12.4095 886.207 11.7976 886.207 Q11.4755 886.207 11.3467 886.304 Q11.2179 886.368 11.1213 886.787 Q10.9925 887.205 10.9925 888.075 L10.9925 890.651 Q10.9925 893.292 11.1213 894.935 Q11.2179 896.545 11.701 898.091 Q12.1841 899.605 12.8604 900.506 Q13.5367 901.376 14.9216 902.342 Q16.3064 903.308 17.9811 904.017 Q19.6558 904.693 22.3933 905.659 Q23.2951 905.981 23.5527 906.175 Q23.7782 906.336 23.7782 906.786 Q23.7782 907.109 23.5849 907.366 Q23.3595 907.592 23.0697 907.592 Q22.0069 907.27 21.878 907.205 L10.2517 903.244 Q9.31775 902.922 9.15672 902.632 Q8.96348 902.31 8.96348 901.118 L8.96348 864.532 Q8.96348 863.953 8.96348 863.759 Q8.96348 863.566 9.0279 863.244 Q9.09231 862.922 9.25334 862.825 Q9.41437 862.729 9.67201 862.729 Z" fill="#000000" fill-rule="evenodd" fill-opacity="1" /><path clip-path="url(#clip330)" d="M 0 0 M16.5041 837.753 L17.4284 838.317 Q15.918 841.811 13.5057 846.162 Q15.918 850.513 17.4284 854.007 L16.5041 854.548 Q13.1901 850.738 10.6426 846.162 Q13.2127 841.541 16.5041 837.753 Z" fill="#000000" fill-rule="evenodd" fill-opacity="1" /><path clip-path="url(#clip330)" d="M 0 0 M28.8023 836.591 Q30.6058 836.591 31.6364 837.718 Q32.6348 838.845 32.6348 840.134 Q32.6348 841.358 31.9263 842.002 Q31.2177 842.646 30.316 842.646 Q29.0921 842.646 28.0294 841.744 Q26.9666 840.842 26.7411 839.49 Q25.9038 840.81 25.9038 842.775 Q25.9038 844.063 26.5801 845.19 Q27.2564 846.285 28.126 846.961 Q28.9955 847.605 30.2516 848.185 Q31.4754 848.733 32.2161 848.958 Q32.9246 849.151 33.6976 849.312 L42.7152 851.567 Q46.9986 852.662 48.5123 852.662 Q50.3802 852.662 51.6363 851.76 Q52.8601 850.858 52.8601 849.055 Q52.8601 848.346 52.6668 847.541 Q52.4414 846.736 51.8617 845.705 Q51.2498 844.643 50.348 843.709 Q49.414 842.742 47.836 841.808 Q46.2579 840.874 44.2289 840.263 Q43.5204 840.069 43.5204 839.425 Q43.5204 838.62 44.1645 838.62 Q44.712 838.62 45.8714 839.071 Q46.9986 839.49 48.4801 840.424 Q49.9293 841.325 51.2498 842.517 Q52.538 843.709 53.4398 845.48 Q54.3415 847.251 54.3415 849.184 Q54.3415 851.953 52.8601 853.789 Q51.3786 855.625 49.3174 856.301 Q49.6073 856.462 49.9938 856.688 Q50.3802 856.913 51.2498 857.589 Q52.0871 858.233 52.7313 858.974 Q53.3432 859.715 53.8262 860.874 Q54.3415 862.001 54.3415 863.225 Q54.3415 864.771 53.8907 866.156 Q53.4398 867.509 52.4092 868.475 Q51.3786 869.441 49.9615 869.441 Q48.3835 869.441 47.2885 868.378 Q46.1613 867.283 46.1613 865.802 Q46.1613 864.868 46.7088 864.127 Q47.2563 863.354 48.4479 863.354 Q49.7683 863.354 50.7667 864.256 Q51.7651 865.158 52.0227 866.446 Q52.8601 865.125 52.8601 863.161 Q52.8601 861.035 50.9921 859.361 Q49.1242 857.686 46.0002 856.881 Q38.4963 854.884 35.1468 854.111 Q31.7652 853.338 30.316 853.338 Q28.9633 853.338 28.0294 853.692 Q27.0954 854.047 26.6767 854.659 Q26.2258 855.238 26.0648 855.786 Q25.9038 856.301 25.9038 856.881 Q25.9038 857.847 26.2902 858.942 Q26.6767 860.005 27.5785 861.293 Q28.448 862.549 30.2516 863.741 Q32.0551 864.932 34.5349 865.737 Q35.2757 865.898 35.2757 866.607 Q35.2435 867.38 34.5994 867.38 Q34.0519 867.38 32.9246 866.961 Q31.7652 866.51 30.316 865.609 Q28.8667 864.675 27.5785 863.483 Q26.258 862.259 25.3563 860.488 Q24.4545 858.684 24.4545 856.752 Q24.4545 855.882 24.6477 855.045 Q24.8088 854.175 25.2919 853.145 Q25.7749 852.082 26.8377 851.148 Q27.9005 850.214 29.4464 849.634 Q28.7057 849.248 27.9971 848.733 Q27.2886 848.185 26.4191 847.348 Q25.5173 846.478 25.002 845.287 Q24.4545 844.063 24.4545 842.71 Q24.4545 841.39 24.8088 840.101 Q25.1308 838.813 26.1936 837.718 Q27.2242 836.591 28.8023 836.591 Z" fill="#000000" fill-rule="evenodd" fill-opacity="1" /><path clip-path="url(#clip330)" d="M 0 0 M52.1213 810.868 Q52.7526 810.868 52.9104 811.161 Q53.0456 811.454 53.0456 812.265 L53.0456 816.594 L66.6623 820.021 Q67.8571 820.291 68.8716 820.291 Q69.9988 820.291 70.4948 819.953 Q70.9907 819.592 70.9907 818.848 Q70.9907 817.383 69.6606 815.805 Q68.3305 814.204 65.0842 812.852 Q64.6558 812.671 64.5657 812.581 Q64.4529 812.468 64.4529 812.175 Q64.4529 811.612 64.9038 811.612 Q65.0616 811.612 65.783 811.927 Q66.5045 812.22 67.564 812.874 Q68.6236 813.505 69.6155 814.339 Q70.6075 815.151 71.3289 816.391 Q72.0278 817.631 72.0278 818.961 Q72.0278 820.832 70.8329 822.027 Q69.6381 823.199 67.7669 823.199 Q67.1582 823.199 65.2194 822.726 Q63.2581 822.252 53.0456 819.682 L53.0456 823.763 Q53.0456 824.326 53.0231 824.552 Q53.0005 824.755 52.8878 824.913 Q52.7526 825.048 52.482 825.048 Q52.0537 825.048 51.8733 824.868 Q51.6704 824.687 51.6479 824.462 Q51.6028 824.214 51.6028 823.65 L51.6028 819.322 L44.276 817.518 Q43.5546 817.338 43.1488 816.887 Q42.7204 816.414 42.6753 816.143 Q42.6077 815.872 42.6077 815.67 Q42.6077 815.061 42.9459 814.7 Q43.2615 814.339 43.8476 814.339 Q44.1632 814.339 51.6028 816.233 L51.6028 812.175 Q51.6028 811.657 51.6253 811.454 Q51.6479 811.228 51.7606 811.048 Q51.8733 810.868 52.1213 810.868 Z" fill="#000000" fill-rule="evenodd" fill-opacity="1" /><path clip-path="url(#clip330)" d="M 0 0 M35.6497 801.507 Q25.0076 801.507 16.4262 797.539 Q12.8275 795.847 9.81325 793.479 Q6.799 791.111 5.47642 789.542 Q4.15383 787.973 4.15383 787.543 Q4.15383 786.928 4.76899 786.897 Q5.07657 786.897 5.84551 787.727 Q16.1801 797.877 35.6497 797.847 Q55.1809 797.847 65.1156 787.973 Q66.1921 786.897 66.5305 786.897 Q67.1456 786.897 67.1456 787.543 Q67.1456 787.973 65.8846 789.481 Q64.6235 790.988 61.7323 793.325 Q58.8411 795.663 55.3039 797.355 Q46.7225 801.507 35.6497 801.507 Z" fill="#000000" fill-rule="evenodd" fill-opacity="1" /><path clip-path="url(#clip330)" d="M 0 0 M17.4014 770.278 Q11.7332 770.278 7.9329 767.38 Q4.13261 764.481 4.13261 760.584 Q4.13261 758.201 6.25819 755.85 Q11.3467 750.504 11.3145 743.515 Q11.3145 735.593 5.06658 730.987 Q4.13261 730.182 4.13261 729.602 Q4.13261 729.087 4.55128 728.7 Q4.93775 728.282 5.45305 728.282 Q5.83952 728.282 6.64466 728.797 L56.3061 762.162 Q57.3045 762.903 57.3045 763.483 Q57.3045 763.998 56.8858 764.417 Q56.4993 764.803 55.984 764.803 Q55.5332 764.803 54.6636 764.224 L10.5416 734.594 L10.4772 734.659 Q12.796 738.072 12.7638 743.451 Q12.7638 748.539 9.99407 753.402 Q13.4079 752.018 17.4658 752.018 Q23.0052 752.018 26.8699 754.497 Q30.7024 756.977 30.7024 760.584 Q30.7024 764.481 26.9666 767.38 Q23.1985 770.278 17.4014 770.278 M12.023 765.737 Q14.3419 766.188 17.4658 766.188 Q20.5576 766.188 22.8764 765.737 Q25.163 765.286 26.3546 764.642 Q27.5463 763.966 28.2548 763.064 Q28.9311 762.162 29.0921 761.615 Q29.2532 761.067 29.2532 760.52 Q29.2532 757.815 25.9038 755.753 Q22.5222 753.66 17.4014 753.66 Q12.3773 753.66 8.99569 755.753 Q5.58187 757.815 5.58187 760.52 Q5.58187 761.1 5.7429 761.679 Q5.90393 762.227 6.61246 763.096 Q7.28878 763.966 8.4804 764.642 Q9.67201 765.286 12.023 765.737 M43.9713 741.068 Q38.303 741.068 34.5027 738.169 Q30.7024 735.27 30.7024 731.374 Q30.7024 727.799 34.5671 725.319 Q38.4318 722.807 44.0357 722.807 Q49.5751 722.807 53.4398 725.287 Q57.3045 727.734 57.3045 731.374 Q57.3045 735.27 53.5364 738.169 Q49.7683 741.068 43.9713 741.068 M38.5929 736.527 Q40.9439 736.977 44.0357 736.977 Q47.1274 736.977 49.4463 736.527 Q51.7651 736.043 52.9567 735.399 Q54.1161 734.723 54.7924 733.853 Q55.501 732.952 55.662 732.404 Q55.8552 731.824 55.8552 731.309 Q55.8552 728.604 52.5058 726.543 Q49.1242 724.449 43.9713 724.449 Q38.9471 724.449 35.5655 726.543 Q32.1517 728.604 32.1517 731.309 Q32.1517 731.889 32.3449 732.469 Q32.506 733.016 33.2145 733.886 Q33.8908 734.723 35.0824 735.399 Q36.2418 736.043 38.5929 736.527 Z" fill="#000000" fill-rule="evenodd" fill-opacity="1" /><path clip-path="url(#clip330)" d="M 0 0 M52.538 714.957 Q51.4752 715.891 50.0904 715.891 Q48.7055 715.891 47.6749 714.99 Q46.6121 714.056 46.6121 712.381 Q46.6121 710.416 48.5123 709.289 Q50.3802 708.162 53.5364 708.162 Q56.9502 708.162 60.1064 709.547 Q63.2948 710.932 64.8084 712.284 Q66.3221 713.637 66.3221 714.184 Q66.3221 714.829 65.6136 714.829 Q65.3559 714.829 64.8729 714.378 Q59.7843 709.643 53.5364 709.611 Q52.538 709.611 52.538 709.74 L52.6668 709.901 Q53.6008 711.028 53.6008 712.381 Q53.6008 714.023 52.538 714.957 Z" fill="#000000" fill-rule="evenodd" fill-opacity="1" /><path clip-path="url(#clip330)" d="M 0 0 M36.3063 652.757 Q39.5591 652.757 42.8118 654.432 Q46.0646 656.107 48.5767 658.844 Q51.0565 661.582 52.6668 665.317 Q54.2771 669.053 54.406 672.95 L64.2287 675.462 Q66.612 675.945 66.8696 676.203 Q67.1273 676.461 67.1273 676.847 Q67.1273 677.652 66.3865 677.652 Q66.1611 677.652 60.5895 676.203 L54.406 674.657 Q54.0839 680.519 50.7023 683.932 Q47.3207 687.346 42.4576 687.346 Q39.1726 687.346 35.9198 685.672 Q32.6348 683.965 30.1549 681.227 Q27.6751 678.457 26.097 674.722 Q24.5189 670.986 24.3901 667.153 L9.15672 663.321 Q8.28716 663.127 8.06172 662.966 Q7.83628 662.805 7.83628 662.322 Q7.83628 661.968 7.99731 661.775 Q8.15834 661.582 8.31937 661.582 L8.4804 661.549 L9.41437 661.743 L24.3901 665.446 Q24.6155 662.161 25.7749 659.617 Q26.9344 657.073 28.6735 655.623 Q30.3804 654.174 32.3127 653.466 Q34.2451 652.757 36.3063 652.757 M25.8394 667.54 Q26.1614 671.082 27.9005 674.077 Q29.6396 677.073 32.2161 679.005 Q34.7604 680.937 37.8199 682 Q40.8473 683.063 43.8424 683.063 Q46.1935 683.063 47.997 682.29 Q49.8005 681.485 50.8311 680.164 Q51.8295 678.844 52.377 677.395 Q52.8923 675.913 52.9567 674.335 L25.8394 667.54 M34.9214 657.073 Q30.7346 657.073 28.3836 659.488 Q26.0326 661.904 25.8394 665.833 L52.9567 672.628 Q52.7313 669.762 51.5396 667.25 Q50.3158 664.706 48.5123 662.87 Q46.6765 661.034 44.4221 659.714 Q42.1355 658.393 39.7201 657.749 Q37.2724 657.073 34.9214 657.073 Z" fill="#000000" fill-rule="evenodd" fill-opacity="1" /><path clip-path="url(#clip330)" d="M 0 0 M43.5848 630.127 Q42.7796 630.063 42.7796 628.807 L42.7796 588.389 Q42.7796 586.489 43.5204 586.456 Q44.3255 586.456 44.2933 588.26 L44.2933 628.356 Q44.3255 630.127 43.5848 630.127 M30.7024 630.127 Q29.8973 630.127 29.9295 628.743 L29.9295 588.453 Q29.9295 586.489 30.7024 586.456 Q31.4432 586.456 31.4432 588.131 L31.4432 628.807 Q31.4432 630.127 30.7024 630.127 Z" fill="#000000" fill-rule="evenodd" fill-opacity="1" /><path clip-path="url(#clip330)" d="M 0 0 M32.506 561.011 Q22.812 561.011 17.5302 558.563 Q9.67201 555.149 9.67201 547.098 Q9.67201 545.391 10.1551 543.619 Q10.606 541.816 12.3773 539.561 Q14.1486 537.275 17.0472 535.89 Q22.651 533.249 32.506 533.249 Q42.1355 533.249 47.3851 535.697 Q55.0501 539.272 55.0501 547.162 Q55.0501 550.125 53.5364 553.152 Q52.0227 556.147 48.3835 558.048 Q42.9407 561.011 32.506 561.011 M31.7008 555.536 Q41.6524 555.536 45.6138 554.827 Q49.8971 554.022 51.7651 551.832 Q53.6008 549.61 53.6008 547.162 Q53.6008 544.521 51.6363 542.331 Q49.6395 540.109 45.3561 539.433 Q41.1371 538.692 31.7008 538.724 Q22.5222 538.724 18.8507 539.368 Q14.5673 540.238 12.8604 542.557 Q11.1213 544.843 11.1213 547.162 Q11.1213 548.032 11.3789 548.966 Q11.6366 549.867 12.3773 551.188 Q13.118 552.508 14.9538 553.539 Q16.7895 554.537 19.5592 555.02 Q23.1341 555.536 31.7008 555.536 Z" fill="#000000" fill-rule="evenodd" fill-opacity="1" /><path clip-path="url(#clip330)" d="M 0 0 M52.538 527.348 Q51.4752 528.346 50.0904 528.346 Q48.7055 528.346 47.7071 527.348 Q46.6765 526.35 46.6765 524.836 Q46.6765 523.387 47.6427 522.421 Q48.5767 521.422 50.1226 521.422 Q51.6363 521.422 52.6346 522.485 Q53.6008 523.516 53.6008 524.836 Q53.6008 526.35 52.538 527.348 Z" fill="#000000" fill-rule="evenodd" fill-opacity="1" /><path clip-path="url(#clip330)" d="M 0 0 M32.506 510.196 Q22.812 510.196 17.5302 507.749 Q9.67201 504.335 9.67201 496.283 Q9.67201 494.576 10.1551 492.805 Q10.606 491.002 12.3773 488.747 Q14.1486 486.461 17.0472 485.076 Q22.651 482.435 32.506 482.435 Q42.1355 482.435 47.3851 484.882 Q55.0501 488.457 55.0501 496.348 Q55.0501 499.311 53.5364 502.338 Q52.0227 505.333 48.3835 507.233 Q42.9407 510.196 32.506 510.196 M31.7008 504.721 Q41.6524 504.721 45.6138 504.013 Q49.8971 503.208 51.7651 501.018 Q53.6008 498.795 53.6008 496.348 Q53.6008 493.707 51.6363 491.517 Q49.6395 489.295 45.3561 488.618 Q41.1371 487.878 31.7008 487.91 Q22.5222 487.91 18.8507 488.554 Q14.5673 489.423 12.8604 491.742 Q11.1213 494.029 11.1213 496.348 Q11.1213 497.217 11.3789 498.151 Q11.6366 499.053 12.3773 500.373 Q13.118 501.694 14.9538 502.724 Q16.7895 503.723 19.5592 504.206 Q23.1341 504.721 31.7008 504.721 Z" fill="#000000" fill-rule="evenodd" fill-opacity="1" /><path clip-path="url(#clip330)" d="M 0 0 M66.5305 475.672 Q66.2229 475.672 65.454 474.872 Q55.1194 464.722 35.6497 464.722 Q16.1186 464.722 6.24536 474.472 Q5.10732 475.672 4.76899 475.672 Q4.15383 475.672 4.15383 475.057 Q4.15383 474.626 5.4149 473.119 Q6.67597 471.581 9.56719 469.274 Q12.4584 466.937 15.9956 465.214 Q24.577 461.062 35.6497 461.062 Q46.2919 461.062 54.8733 465.03 Q58.472 466.721 61.4862 469.09 Q64.5005 471.458 65.8231 473.027 Q67.1456 474.595 67.1456 475.057 Q67.1456 475.672 66.5305 475.672 Z" fill="#000000" fill-rule="evenodd" fill-opacity="1" /><polyline clip-path="url(#clip333)" style="stroke:#0000ff; stroke-width:4; stroke-opacity:1; fill:none" points="
  306.8,1399.83 700.526,1129.58 1094.25,1382.33 1487.98,1392.37 1881.7,1394.84 
  "/>
<polyline clip-path="url(#clip333)" style="stroke:#7f0080; stroke-width:4; stroke-opacity:1; fill:none" points="
  306.8,1399.98 700.526,218.127 1094.25,1296.57 1487.98,1352.6 1881.7,1367.21 
  "/>
<polyline clip-path="url(#clip333)" style="stroke:#ff0000; stroke-width:4; stroke-opacity:1; fill:none" points="
  306.8,1400.1 700.526,86.6476 1094.25,1271.16 1487.98,1338.01 1881.7,1356.07 
  "/>
<path clip-path="url(#clip330)" d="
M1998.72 305.333 L2352.76 305.333 L2352.76 93.6527 L1998.72 93.6527  Z
  " fill="#ffffff" fill-rule="evenodd" fill-opacity="1"/>
<polyline clip-path="url(#clip330)" style="stroke:#000000; stroke-width:4; stroke-opacity:1; fill:none" points="
  1998.72,305.333 2352.76,305.333 2352.76,93.6527 1998.72,93.6527 1998.72,305.333 
  "/>
<polyline clip-path="url(#clip330)" style="stroke:#0000ff; stroke-width:3.5; stroke-opacity:1; fill:none" points="
  2021.98,146.573 2161.53,146.573 
  "/>
<path clip-path="url(#clip330)" d="M 0 0 M2213.33 132.227 Q2213.33 132.617 2213.25 132.945 L2212.11 140.241 Q2212.04 140.794 2211.92 140.999 Q2211.82 141.204 2211.49 141.204 Q2210.98 141.204 2210.98 140.671 Q2210.98 140.364 2211.1 139.872 Q2211.45 137.556 2211.45 136.511 Q2211.45 135.814 2211.31 135.302 Q2211.18 134.769 2210.98 134.4 Q2210.79 134.031 2210.36 133.785 Q2209.93 133.539 2209.52 133.396 Q2209.11 133.252 2208.38 133.191 Q2207.64 133.109 2207 133.088 Q2206.37 133.068 2205.32 133.068 Q2203.05 133.068 2202.68 133.15 Q2202.29 133.252 2202.08 133.56 Q2201.9 133.846 2201.69 134.707 L2196.12 156.985 L2195.96 157.866 Q2195.96 158.358 2196.26 158.522 Q2196.57 158.686 2197.51 158.788 Q2198.87 158.891 2200.2 158.891 Q2200.24 158.891 2200.32 158.891 Q2200.77 158.891 2200.96 158.911 Q2201.14 158.911 2201.33 158.952 Q2201.51 158.993 2201.55 159.096 Q2201.61 159.178 2201.61 159.342 Q2201.61 159.731 2201.45 159.936 Q2201.28 160.121 2201.12 160.162 Q2200.98 160.182 2200.69 160.182 Q2200.12 160.182 2198.89 160.141 Q2197.66 160.1 2197.04 160.1 L2193.56 160.059 L2189.99 160.1 Q2189.44 160.1 2188.27 160.141 Q2187.1 160.182 2186.55 160.182 Q2185.83 160.182 2185.83 159.67 Q2185.83 159.096 2186.1 158.993 Q2186.38 158.891 2187.59 158.891 Q2189.29 158.891 2190.22 158.809 Q2191.14 158.727 2191.63 158.44 Q2192.14 158.153 2192.29 157.866 Q2192.43 157.559 2192.59 156.862 L2198.23 134.461 Q2198.39 133.969 2198.39 133.58 Q2198.39 133.375 2198.33 133.293 Q2198.29 133.211 2198.03 133.15 Q2197.76 133.068 2197.21 133.068 L2195.57 133.068 Q2193.89 133.068 2192.84 133.15 Q2191.82 133.211 2190.83 133.519 Q2189.87 133.826 2189.29 134.256 Q2188.74 134.687 2188.13 135.568 Q2187.51 136.449 2187.06 137.515 Q2186.63 138.581 2186.02 140.323 Q2185.81 140.897 2185.69 141.061 Q2185.59 141.204 2185.3 141.204 Q2185.09 141.204 2184.93 141.081 Q2184.79 140.938 2184.79 140.753 Q2184.99 140.077 2185.03 139.995 L2187.55 132.596 Q2187.76 132.002 2187.94 131.899 Q2188.15 131.776 2188.91 131.776 L2212.19 131.776 Q2212.56 131.776 2212.68 131.776 Q2212.8 131.776 2213.01 131.817 Q2213.21 131.858 2213.27 131.961 Q2213.33 132.063 2213.33 132.227 Z" fill="#000000" fill-rule="evenodd" fill-opacity="1" /><path clip-path="url(#clip330)" d="M 0 0 M2220.7 153.808 Q2220.74 153.296 2221.54 153.296 L2247.26 153.296 Q2248.47 153.296 2248.49 153.767 Q2248.49 154.28 2247.35 154.259 L2221.83 154.259 Q2220.7 154.28 2220.7 153.808 M2220.7 145.61 Q2220.7 145.098 2221.58 145.119 L2247.22 145.119 Q2248.47 145.119 2248.49 145.61 Q2248.49 146.082 2247.43 146.082 L2221.54 146.082 Q2220.7 146.082 2220.7 145.61 Z" fill="#000000" fill-rule="evenodd" fill-opacity="1" /><path clip-path="url(#clip330)" d="M 0 0 M2264.68 146.758 Q2264.68 140.589 2266.24 137.228 Q2268.41 132.227 2273.53 132.227 Q2274.62 132.227 2275.74 132.535 Q2276.89 132.822 2278.33 133.949 Q2279.78 135.076 2280.66 136.921 Q2282.34 140.487 2282.34 146.758 Q2282.34 152.886 2280.79 156.227 Q2278.51 161.104 2273.49 161.104 Q2271.6 161.104 2269.68 160.141 Q2267.77 159.178 2266.56 156.862 Q2264.68 153.398 2264.68 146.758 M2268.16 146.246 Q2268.16 152.579 2268.61 155.099 Q2269.13 157.825 2270.52 159.014 Q2271.93 160.182 2273.49 160.182 Q2275.17 160.182 2276.56 158.932 Q2277.98 157.661 2278.41 154.935 Q2278.88 152.251 2278.86 146.246 Q2278.86 140.405 2278.45 138.068 Q2277.9 135.343 2276.42 134.256 Q2274.97 133.15 2273.49 133.15 Q2272.94 133.15 2272.34 133.314 Q2271.77 133.478 2270.93 133.949 Q2270.09 134.42 2269.43 135.588 Q2268.8 136.757 2268.49 138.519 Q2268.16 140.794 2268.16 146.246 Z" fill="#000000" fill-rule="evenodd" fill-opacity="1" /><polyline clip-path="url(#clip330)" style="stroke:#7f0080; stroke-width:3.5; stroke-opacity:1; fill:none" points="
  2021.98,199.493 2161.53,199.493 
  "/>
<path clip-path="url(#clip330)" d="M 0 0 M2213.33 185.147 Q2213.33 185.537 2213.25 185.865 L2212.11 193.161 Q2212.04 193.714 2211.92 193.919 Q2211.82 194.124 2211.49 194.124 Q2210.98 194.124 2210.98 193.591 Q2210.98 193.284 2211.1 192.792 Q2211.45 190.476 2211.45 189.431 Q2211.45 188.734 2211.31 188.222 Q2211.18 187.689 2210.98 187.32 Q2210.79 186.951 2210.36 186.705 Q2209.93 186.459 2209.52 186.316 Q2209.11 186.172 2208.38 186.111 Q2207.64 186.029 2207 186.008 Q2206.37 185.988 2205.32 185.988 Q2203.05 185.988 2202.68 186.07 Q2202.29 186.172 2202.08 186.48 Q2201.9 186.766 2201.69 187.627 L2196.12 209.905 L2195.96 210.786 Q2195.96 211.278 2196.26 211.442 Q2196.57 211.606 2197.51 211.708 Q2198.87 211.811 2200.2 211.811 Q2200.24 211.811 2200.32 211.811 Q2200.77 211.811 2200.96 211.831 Q2201.14 211.831 2201.33 211.872 Q2201.51 211.913 2201.55 212.016 Q2201.61 212.098 2201.61 212.262 Q2201.61 212.651 2201.45 212.856 Q2201.28 213.041 2201.12 213.082 Q2200.98 213.102 2200.69 213.102 Q2200.12 213.102 2198.89 213.061 Q2197.66 213.02 2197.04 213.02 L2193.56 212.979 L2189.99 213.02 Q2189.44 213.02 2188.27 213.061 Q2187.1 213.102 2186.55 213.102 Q2185.83 213.102 2185.83 212.59 Q2185.83 212.016 2186.1 211.913 Q2186.38 211.811 2187.59 211.811 Q2189.29 211.811 2190.22 211.729 Q2191.14 211.647 2191.63 211.36 Q2192.14 211.073 2192.29 210.786 Q2192.43 210.479 2192.59 209.782 L2198.23 187.381 Q2198.39 186.889 2198.39 186.5 Q2198.39 186.295 2198.33 186.213 Q2198.29 186.131 2198.03 186.07 Q2197.76 185.988 2197.21 185.988 L2195.57 185.988 Q2193.89 185.988 2192.84 186.07 Q2191.82 186.131 2190.83 186.439 Q2189.87 186.746 2189.29 187.176 Q2188.74 187.607 2188.13 188.488 Q2187.51 189.369 2187.06 190.435 Q2186.63 191.501 2186.02 193.243 Q2185.81 193.817 2185.69 193.981 Q2185.59 194.124 2185.3 194.124 Q2185.09 194.124 2184.93 194.001 Q2184.79 193.858 2184.79 193.673 Q2184.99 192.997 2185.03 192.915 L2187.55 185.516 Q2187.76 184.922 2187.94 184.819 Q2188.15 184.696 2188.91 184.696 L2212.19 184.696 Q2212.56 184.696 2212.68 184.696 Q2212.8 184.696 2213.01 184.737 Q2213.21 184.778 2213.27 184.881 Q2213.33 184.983 2213.33 185.147 Z" fill="#000000" fill-rule="evenodd" fill-opacity="1" /><path clip-path="url(#clip330)" d="M 0 0 M2220.7 206.728 Q2220.74 206.216 2221.54 206.216 L2247.26 206.216 Q2248.47 206.216 2248.49 206.687 Q2248.49 207.2 2247.35 207.179 L2221.83 207.179 Q2220.7 207.2 2220.7 206.728 M2220.7 198.53 Q2220.7 198.018 2221.58 198.039 L2247.22 198.039 Q2248.47 198.039 2248.49 198.53 Q2248.49 199.002 2247.43 199.002 L2221.54 199.002 Q2220.7 199.002 2220.7 198.53 Z" fill="#000000" fill-rule="evenodd" fill-opacity="1" /><path clip-path="url(#clip330)" d="M 0 0 M2264.68 206.339 Q2264.68 205.089 2265.35 204.617 Q2266.03 204.125 2266.75 204.125 Q2267.71 204.125 2268.26 204.74 Q2268.84 205.335 2268.84 206.175 Q2268.84 207.015 2268.26 207.63 Q2267.71 208.224 2266.75 208.224 Q2266.28 208.224 2266.03 208.142 Q2266.58 210.069 2268.26 211.462 Q2269.97 212.856 2272.2 212.856 Q2275.01 212.856 2276.69 210.13 Q2277.69 208.368 2277.69 204.371 Q2277.69 200.846 2276.93 199.084 Q2275.77 196.399 2273.37 196.399 Q2269.97 196.399 2267.96 199.33 Q2267.71 199.699 2267.42 199.719 Q2267.01 199.719 2266.91 199.494 Q2266.83 199.248 2266.83 198.612 L2266.83 186.193 Q2266.83 185.188 2267.24 185.188 Q2267.4 185.188 2267.75 185.311 Q2270.4 186.48 2273.33 186.5 Q2276.34 186.5 2279.04 185.27 Q2279.25 185.147 2279.37 185.147 Q2279.78 185.147 2279.8 185.619 Q2279.8 185.783 2279.45 186.275 Q2279.13 186.746 2278.41 187.381 Q2277.69 187.996 2276.77 188.59 Q2275.85 189.185 2274.49 189.595 Q2273.16 189.984 2271.69 189.984 Q2269.92 189.984 2268.12 189.431 L2268.12 197.608 Q2270.29 195.477 2273.45 195.477 Q2276.81 195.477 2279.13 198.182 Q2281.44 200.887 2281.44 204.658 Q2281.44 208.614 2278.7 211.319 Q2275.97 214.024 2272.28 214.024 Q2268.92 214.024 2266.79 211.626 Q2264.68 209.229 2264.68 206.339 Z" fill="#000000" fill-rule="evenodd" fill-opacity="1" /><polyline clip-path="url(#clip330)" style="stroke:#ff0000; stroke-width:3.5; stroke-opacity:1; fill:none" points="
  2021.98,252.413 2161.53,252.413 
  "/>
<path clip-path="url(#clip330)" d="M 0 0 M2213.33 238.067 Q2213.33 238.457 2213.25 238.785 L2212.11 246.081 Q2212.04 246.634 2211.92 246.839 Q2211.82 247.044 2211.49 247.044 Q2210.98 247.044 2210.98 246.511 Q2210.98 246.204 2211.1 245.712 Q2211.45 243.396 2211.45 242.351 Q2211.45 241.654 2211.31 241.142 Q2211.18 240.609 2210.98 240.24 Q2210.79 239.871 2210.36 239.625 Q2209.93 239.379 2209.52 239.236 Q2209.11 239.092 2208.38 239.031 Q2207.64 238.949 2207 238.928 Q2206.37 238.908 2205.32 238.908 Q2203.05 238.908 2202.68 238.99 Q2202.29 239.092 2202.08 239.4 Q2201.9 239.686 2201.69 240.547 L2196.12 262.825 L2195.96 263.706 Q2195.96 264.198 2196.26 264.362 Q2196.57 264.526 2197.51 264.628 Q2198.87 264.731 2200.2 264.731 Q2200.24 264.731 2200.32 264.731 Q2200.77 264.731 2200.96 264.751 Q2201.14 264.751 2201.33 264.792 Q2201.51 264.833 2201.55 264.936 Q2201.61 265.018 2201.61 265.182 Q2201.61 265.571 2201.45 265.776 Q2201.28 265.961 2201.12 266.002 Q2200.98 266.022 2200.69 266.022 Q2200.12 266.022 2198.89 265.981 Q2197.66 265.94 2197.04 265.94 L2193.56 265.899 L2189.99 265.94 Q2189.44 265.94 2188.27 265.981 Q2187.1 266.022 2186.55 266.022 Q2185.83 266.022 2185.83 265.51 Q2185.83 264.936 2186.1 264.833 Q2186.38 264.731 2187.59 264.731 Q2189.29 264.731 2190.22 264.649 Q2191.14 264.567 2191.63 264.28 Q2192.14 263.993 2192.29 263.706 Q2192.43 263.399 2192.59 262.702 L2198.23 240.301 Q2198.39 239.809 2198.39 239.42 Q2198.39 239.215 2198.33 239.133 Q2198.29 239.051 2198.03 238.99 Q2197.76 238.908 2197.21 238.908 L2195.57 238.908 Q2193.89 238.908 2192.84 238.99 Q2191.82 239.051 2190.83 239.359 Q2189.87 239.666 2189.29 240.096 Q2188.74 240.527 2188.13 241.408 Q2187.51 242.289 2187.06 243.355 Q2186.63 244.421 2186.02 246.163 Q2185.81 246.737 2185.69 246.901 Q2185.59 247.044 2185.3 247.044 Q2185.09 247.044 2184.93 246.921 Q2184.79 246.778 2184.79 246.593 Q2184.99 245.917 2185.03 245.835 L2187.55 238.436 Q2187.76 237.842 2187.94 237.739 Q2188.15 237.616 2188.91 237.616 L2212.19 237.616 Q2212.56 237.616 2212.68 237.616 Q2212.8 237.616 2213.01 237.657 Q2213.21 237.698 2213.27 237.801 Q2213.33 237.903 2213.33 238.067 Z" fill="#000000" fill-rule="evenodd" fill-opacity="1" /><path clip-path="url(#clip330)" d="M 0 0 M2220.7 259.648 Q2220.74 259.136 2221.54 259.136 L2247.26 259.136 Q2248.47 259.136 2248.49 259.607 Q2248.49 260.12 2247.35 260.099 L2221.83 260.099 Q2220.7 260.12 2220.7 259.648 M2220.7 251.45 Q2220.7 250.938 2221.58 250.959 L2247.22 250.959 Q2248.47 250.959 2248.49 251.45 Q2248.49 251.922 2247.43 251.922 L2221.54 251.922 Q2220.7 251.922 2220.7 251.45 Z" fill="#000000" fill-rule="evenodd" fill-opacity="1" /><path clip-path="url(#clip330)" d="M 0 0 M2264.68 260.366 Q2264.68 259.115 2265.4 258.521 Q2266.11 257.927 2267.03 257.927 Q2268 257.927 2268.67 258.562 Q2269.37 259.177 2269.37 260.263 Q2269.37 261.431 2268.55 262.087 Q2267.75 262.743 2266.6 262.579 Q2267.61 264.26 2269.45 265.018 Q2271.32 265.776 2273.04 265.776 Q2274.84 265.776 2276.3 264.219 Q2277.77 262.661 2277.77 258.849 Q2277.77 255.611 2276.5 253.746 Q2275.25 251.881 2272.77 251.881 L2270.93 251.881 Q2270.29 251.881 2270.11 251.819 Q2269.92 251.758 2269.92 251.409 Q2269.92 250.999 2270.56 250.918 Q2271.2 250.918 2272.2 250.795 Q2274.64 250.713 2275.93 248.602 Q2277.1 246.634 2277.1 243.826 Q2277.1 241.265 2275.87 240.199 Q2274.66 239.113 2273.08 239.113 Q2271.6 239.113 2269.99 239.727 Q2268.37 240.342 2267.49 241.715 Q2270.09 241.715 2270.09 243.826 Q2270.09 244.749 2269.49 245.363 Q2268.92 245.958 2267.96 245.958 Q2267.03 245.958 2266.42 245.384 Q2265.8 244.79 2265.8 243.785 Q2265.8 241.388 2267.94 239.727 Q2270.09 238.067 2273.24 238.067 Q2276.36 238.067 2278.66 239.707 Q2280.97 241.347 2280.97 243.867 Q2280.97 246.347 2279.33 248.376 Q2277.69 250.405 2275.09 251.245 Q2278.29 251.881 2280.19 254.053 Q2282.1 256.205 2282.1 258.849 Q2282.1 262.128 2279.52 264.546 Q2276.93 266.944 2273.16 266.944 Q2269.68 266.944 2267.18 265.059 Q2264.68 263.173 2264.68 260.366 Z" fill="#000000" fill-rule="evenodd" fill-opacity="1" /><path clip-path="url(#clip330)" d="M 0 0 M2285.46 252.598 Q2285.46 246.429 2287.02 243.068 Q2289.19 238.067 2294.31 238.067 Q2295.4 238.067 2296.53 238.375 Q2297.67 238.662 2299.11 239.789 Q2300.56 240.916 2301.44 242.761 Q2303.13 246.327 2303.13 252.598 Q2303.13 258.726 2301.57 262.067 Q2299.29 266.944 2294.27 266.944 Q2292.39 266.944 2290.46 265.981 Q2288.55 265.018 2287.34 262.702 Q2285.46 259.238 2285.46 252.598 M2288.94 252.086 Q2288.94 258.419 2289.39 260.939 Q2289.91 263.665 2291.3 264.854 Q2292.71 266.022 2294.27 266.022 Q2295.95 266.022 2297.35 264.772 Q2298.76 263.501 2299.19 260.775 Q2299.66 258.091 2299.64 252.086 Q2299.64 246.245 2299.23 243.908 Q2298.68 241.183 2297.2 240.096 Q2295.75 238.99 2294.27 238.99 Q2293.72 238.99 2293.12 239.154 Q2292.55 239.318 2291.71 239.789 Q2290.87 240.26 2290.21 241.428 Q2289.58 242.597 2289.27 244.359 Q2288.94 246.634 2288.94 252.086 Z" fill="#000000" fill-rule="evenodd" fill-opacity="1" /></svg>
