<?xml version="1.0" encoding="utf-8"?>
<svg xmlns="http://www.w3.org/2000/svg" xmlns:xlink="http://www.w3.org/1999/xlink" width="600" height="400" viewBox="0 0 2400 1600">
<defs>
  <clipPath id="clip130">
    <rect x="0" y="0" width="2400" height="1600"/>
  </clipPath>
</defs>
<path clip-path="url(#clip130)" d="
M0 1600 L2400 1600 L2400 0 L0 0  Z
  " fill="#ffffff" fill-rule="evenodd" fill-opacity="1"/>
<defs>
  <clipPath id="clip131">
    <rect x="480" y="0" width="1681" height="1600"/>
  </clipPath>
</defs>
<defs>
  <clipPath id="clip132">
    <rect x="274" y="47" width="1722" height="1397"/>
  </clipPath>
</defs>
<path clip-path="url(#clip130)" d="
M237.381 1439.5 L1765.7 1439.5 L1765.7 47.2441 L237.381 47.2441  Z
  " fill="#ffffff" fill-rule="evenodd" fill-opacity="1"/>
<defs>
  <clipPath id="clip133">
    <rect x="237" y="47" width="1529" height="1393"/>
  </clipPath>
</defs>
<polyline clip-path="url(#clip133)" style="stroke:#000000; stroke-width:2; stroke-opacity:0.1; fill:none" points="
  280.347,1439.5 280.347,47.2441 
  "/>
<polyline clip-path="url(#clip133)" style="stroke:#000000; stroke-width:2; stroke-opacity:0.1; fill:none" points="
  568.766,1439.5 568.766,47.2441 
  "/>
<polyline clip-path="url(#clip133)" style="stroke:#000000; stroke-width:2; stroke-opacity:0.1; fill:none" points="
  857.185,1439.5 857.185,47.2441 
  "/>
<polyline clip-path="url(#clip133)" style="stroke:#000000; stroke-width:2; stroke-opacity:0.1; fill:none" points="
  1145.6,1439.5 1145.6,47.2441 
  "/>
<polyline clip-path="url(#clip133)" style="stroke:#000000; stroke-width:2; stroke-opacity:0.1; fill:none" points="
  1434.02,1439.5 1434.02,47.2441 
  "/>
<polyline clip-path="url(#clip133)" style="stroke:#000000; stroke-width:2; stroke-opacity:0.1; fill:none" points="
  1722.44,1439.5 1722.44,47.2441 
  "/>
<polyline clip-path="url(#clip130)" style="stroke:#000000; stroke-width:4; stroke-opacity:1; fill:none" points="
  237.381,1439.5 1765.7,1439.5 
  "/>
<polyline clip-path="url(#clip130)" style="stroke:#000000; stroke-width:4; stroke-opacity:1; fill:none" points="
  280.347,1439.5 280.347,1422.79 
  "/>
<polyline clip-path="url(#clip130)" style="stroke:#000000; stroke-width:4; stroke-opacity:1; fill:none" points="
  568.766,1439.5 568.766,1422.79 
  "/>
<polyline clip-path="url(#clip130)" style="stroke:#000000; stroke-width:4; stroke-opacity:1; fill:none" points="
  857.185,1439.5 857.185,1422.79 
  "/>
<polyline clip-path="url(#clip130)" style="stroke:#000000; stroke-width:4; stroke-opacity:1; fill:none" points="
  1145.6,1439.5 1145.6,1422.79 
  "/>
<polyline clip-path="url(#clip130)" style="stroke:#000000; stroke-width:4; stroke-opacity:1; fill:none" points="
  1434.02,1439.5 1434.02,1422.79 
  "/>
<polyline clip-path="url(#clip130)" style="stroke:#000000; stroke-width:4; stroke-opacity:1; fill:none" points="
  1722.44,1439.5 1722.44,1422.79 
  "/>
<path clip-path="url(#clip130)" d="M 0 0 M280.347 1468.69 Q276.736 1468.69 274.907 1472.26 Q273.102 1475.8 273.102 1482.93 Q273.102 1490.04 274.907 1493.6 Q276.736 1497.14 280.347 1497.14 Q283.981 1497.14 285.787 1493.6 Q287.615 1490.04 287.615 1482.93 Q287.615 1475.8 285.787 1472.26 Q283.981 1468.69 280.347 1468.69 M280.347 1464.99 Q286.157 1464.99 289.213 1469.6 Q292.291 1474.18 292.291 1482.93 Q292.291 1491.66 289.213 1496.26 Q286.157 1500.85 280.347 1500.85 Q274.537 1500.85 271.458 1496.26 Q268.403 1491.66 268.403 1482.93 Q268.403 1474.18 271.458 1469.6 Q274.537 1464.99 280.347 1464.99 Z" fill="#000000" fill-rule="evenodd" fill-opacity="1" /><path clip-path="url(#clip130)" d="M 0 0 M528.372 1496.24 L536.011 1496.24 L536.011 1469.87 L527.701 1471.54 L527.701 1467.28 L535.965 1465.61 L540.641 1465.61 L540.641 1496.24 L548.28 1496.24 L548.28 1500.17 L528.372 1500.17 L528.372 1496.24 Z" fill="#000000" fill-rule="evenodd" fill-opacity="1" /><path clip-path="url(#clip130)" d="M 0 0 M567.724 1468.69 Q564.113 1468.69 562.284 1472.26 Q560.479 1475.8 560.479 1482.93 Q560.479 1490.04 562.284 1493.6 Q564.113 1497.14 567.724 1497.14 Q571.358 1497.14 573.164 1493.6 Q574.993 1490.04 574.993 1482.93 Q574.993 1475.8 573.164 1472.26 Q571.358 1468.69 567.724 1468.69 M567.724 1464.99 Q573.534 1464.99 576.59 1469.6 Q579.668 1474.18 579.668 1482.93 Q579.668 1491.66 576.59 1496.26 Q573.534 1500.85 567.724 1500.85 Q561.914 1500.85 558.835 1496.26 Q555.78 1491.66 555.78 1482.93 Q555.78 1474.18 558.835 1469.6 Q561.914 1464.99 567.724 1464.99 Z" fill="#000000" fill-rule="evenodd" fill-opacity="1" /><path clip-path="url(#clip130)" d="M 0 0 M597.886 1468.69 Q594.275 1468.69 592.446 1472.26 Q590.641 1475.8 590.641 1482.93 Q590.641 1490.04 592.446 1493.6 Q594.275 1497.14 597.886 1497.14 Q601.52 1497.14 603.326 1493.6 Q605.154 1490.04 605.154 1482.93 Q605.154 1475.8 603.326 1472.26 Q601.52 1468.69 597.886 1468.69 M597.886 1464.99 Q603.696 1464.99 606.752 1469.6 Q609.83 1474.18 609.83 1482.93 Q609.83 1491.66 606.752 1496.26 Q603.696 1500.85 597.886 1500.85 Q592.076 1500.85 588.997 1496.26 Q585.942 1491.66 585.942 1482.93 Q585.942 1474.18 588.997 1469.6 Q592.076 1464.99 597.886 1464.99 Z" fill="#000000" fill-rule="evenodd" fill-opacity="1" /><path clip-path="url(#clip130)" d="M 0 0 M820.877 1496.24 L837.196 1496.24 L837.196 1500.17 L815.252 1500.17 L815.252 1496.24 Q817.914 1493.48 822.497 1488.85 Q827.104 1484.2 828.284 1482.86 Q830.53 1480.34 831.409 1478.6 Q832.312 1476.84 832.312 1475.15 Q832.312 1472.4 830.368 1470.66 Q828.446 1468.92 825.344 1468.92 Q823.145 1468.92 820.692 1469.69 Q818.261 1470.45 815.483 1472 L815.483 1467.28 Q818.307 1466.15 820.761 1465.57 Q823.215 1464.99 825.252 1464.99 Q830.622 1464.99 833.817 1467.67 Q837.011 1470.36 837.011 1474.85 Q837.011 1476.98 836.201 1478.9 Q835.414 1480.8 833.307 1483.39 Q832.729 1484.06 829.627 1487.28 Q826.525 1490.47 820.877 1496.24 Z" fill="#000000" fill-rule="evenodd" fill-opacity="1" /><path clip-path="url(#clip130)" d="M 0 0 M857.011 1468.69 Q853.4 1468.69 851.571 1472.26 Q849.766 1475.8 849.766 1482.93 Q849.766 1490.04 851.571 1493.6 Q853.4 1497.14 857.011 1497.14 Q860.645 1497.14 862.451 1493.6 Q864.279 1490.04 864.279 1482.93 Q864.279 1475.8 862.451 1472.26 Q860.645 1468.69 857.011 1468.69 M857.011 1464.99 Q862.821 1464.99 865.877 1469.6 Q868.955 1474.18 868.955 1482.93 Q868.955 1491.66 865.877 1496.26 Q862.821 1500.85 857.011 1500.85 Q851.201 1500.85 848.122 1496.26 Q845.067 1491.66 845.067 1482.93 Q845.067 1474.18 848.122 1469.6 Q851.201 1464.99 857.011 1464.99 Z" fill="#000000" fill-rule="evenodd" fill-opacity="1" /><path clip-path="url(#clip130)" d="M 0 0 M887.173 1468.69 Q883.562 1468.69 881.733 1472.26 Q879.927 1475.8 879.927 1482.93 Q879.927 1490.04 881.733 1493.6 Q883.562 1497.14 887.173 1497.14 Q890.807 1497.14 892.613 1493.6 Q894.441 1490.04 894.441 1482.93 Q894.441 1475.8 892.613 1472.26 Q890.807 1468.69 887.173 1468.69 M887.173 1464.99 Q892.983 1464.99 896.039 1469.6 Q899.117 1474.18 899.117 1482.93 Q899.117 1491.66 896.039 1496.26 Q892.983 1500.85 887.173 1500.85 Q881.363 1500.85 878.284 1496.26 Q875.228 1491.66 875.228 1482.93 Q875.228 1474.18 878.284 1469.6 Q881.363 1464.99 887.173 1464.99 Z" fill="#000000" fill-rule="evenodd" fill-opacity="1" /><path clip-path="url(#clip130)" d="M 0 0 M1119.37 1481.54 Q1122.72 1482.26 1124.6 1484.53 Q1126.49 1486.79 1126.49 1490.13 Q1126.49 1495.24 1122.98 1498.04 Q1119.46 1500.85 1112.98 1500.85 Q1110.8 1500.85 1108.49 1500.41 Q1106.19 1499.99 1103.74 1499.13 L1103.74 1494.62 Q1105.68 1495.75 1108 1496.33 Q1110.31 1496.91 1112.84 1496.91 Q1117.24 1496.91 1119.53 1495.17 Q1121.84 1493.44 1121.84 1490.13 Q1121.84 1487.07 1119.69 1485.36 Q1117.56 1483.62 1113.74 1483.62 L1109.71 1483.62 L1109.71 1479.78 L1113.93 1479.78 Q1117.37 1479.78 1119.2 1478.41 Q1121.03 1477.03 1121.03 1474.43 Q1121.03 1471.77 1119.13 1470.36 Q1117.26 1468.92 1113.74 1468.92 Q1111.82 1468.92 1109.62 1469.34 Q1107.42 1469.76 1104.78 1470.64 L1104.78 1466.47 Q1107.44 1465.73 1109.76 1465.36 Q1112.1 1464.99 1114.16 1464.99 Q1119.48 1464.99 1122.58 1467.42 Q1125.68 1469.83 1125.68 1473.95 Q1125.68 1476.82 1124.04 1478.81 Q1122.4 1480.78 1119.37 1481.54 Z" fill="#000000" fill-rule="evenodd" fill-opacity="1" /><path clip-path="url(#clip130)" d="M 0 0 M1145.36 1468.69 Q1141.75 1468.69 1139.92 1472.26 Q1138.11 1475.8 1138.11 1482.93 Q1138.11 1490.04 1139.92 1493.6 Q1141.75 1497.14 1145.36 1497.14 Q1148.99 1497.14 1150.8 1493.6 Q1152.63 1490.04 1152.63 1482.93 Q1152.63 1475.8 1150.8 1472.26 Q1148.99 1468.69 1145.36 1468.69 M1145.36 1464.99 Q1151.17 1464.99 1154.23 1469.6 Q1157.3 1474.18 1157.3 1482.93 Q1157.3 1491.66 1154.23 1496.26 Q1151.17 1500.85 1145.36 1500.85 Q1139.55 1500.85 1136.47 1496.26 Q1133.42 1491.66 1133.42 1482.93 Q1133.42 1474.18 1136.47 1469.6 Q1139.55 1464.99 1145.36 1464.99 Z" fill="#000000" fill-rule="evenodd" fill-opacity="1" /><path clip-path="url(#clip130)" d="M 0 0 M1175.52 1468.69 Q1171.91 1468.69 1170.08 1472.26 Q1168.28 1475.8 1168.28 1482.93 Q1168.28 1490.04 1170.08 1493.6 Q1171.91 1497.14 1175.52 1497.14 Q1179.16 1497.14 1180.96 1493.6 Q1182.79 1490.04 1182.79 1482.93 Q1182.79 1475.8 1180.96 1472.26 Q1179.16 1468.69 1175.52 1468.69 M1175.52 1464.99 Q1181.33 1464.99 1184.39 1469.6 Q1187.47 1474.18 1187.47 1482.93 Q1187.47 1491.66 1184.39 1496.26 Q1181.33 1500.85 1175.52 1500.85 Q1169.71 1500.85 1166.63 1496.26 Q1163.58 1491.66 1163.58 1482.93 Q1163.58 1474.18 1166.63 1469.6 Q1169.71 1464.99 1175.52 1464.99 Z" fill="#000000" fill-rule="evenodd" fill-opacity="1" /><path clip-path="url(#clip130)" d="M 0 0 M1407.11 1469.69 L1395.31 1488.14 L1407.11 1488.14 L1407.11 1469.69 M1405.89 1465.61 L1411.77 1465.61 L1411.77 1488.14 L1416.7 1488.14 L1416.7 1492.03 L1411.77 1492.03 L1411.77 1500.17 L1407.11 1500.17 L1407.11 1492.03 L1391.51 1492.03 L1391.51 1487.51 L1405.89 1465.61 Z" fill="#000000" fill-rule="evenodd" fill-opacity="1" /><path clip-path="url(#clip130)" d="M 0 0 M1434.43 1468.69 Q1430.82 1468.69 1428.99 1472.26 Q1427.18 1475.8 1427.18 1482.93 Q1427.18 1490.04 1428.99 1493.6 Q1430.82 1497.14 1434.43 1497.14 Q1438.06 1497.14 1439.87 1493.6 Q1441.7 1490.04 1441.7 1482.93 Q1441.7 1475.8 1439.87 1472.26 Q1438.06 1468.69 1434.43 1468.69 M1434.43 1464.99 Q1440.24 1464.99 1443.29 1469.6 Q1446.37 1474.18 1446.37 1482.93 Q1446.37 1491.66 1443.29 1496.26 Q1440.24 1500.85 1434.43 1500.85 Q1428.62 1500.85 1425.54 1496.26 Q1422.48 1491.66 1422.48 1482.93 Q1422.48 1474.18 1425.54 1469.6 Q1428.62 1464.99 1434.43 1464.99 Z" fill="#000000" fill-rule="evenodd" fill-opacity="1" /><path clip-path="url(#clip130)" d="M 0 0 M1464.59 1468.69 Q1460.98 1468.69 1459.15 1472.26 Q1457.34 1475.8 1457.34 1482.93 Q1457.34 1490.04 1459.15 1493.6 Q1460.98 1497.14 1464.59 1497.14 Q1468.22 1497.14 1470.03 1493.6 Q1471.86 1490.04 1471.86 1482.93 Q1471.86 1475.8 1470.03 1472.26 Q1468.22 1468.69 1464.59 1468.69 M1464.59 1464.99 Q1470.4 1464.99 1473.45 1469.6 Q1476.53 1474.18 1476.53 1482.93 Q1476.53 1491.66 1473.45 1496.26 Q1470.4 1500.85 1464.59 1500.85 Q1458.78 1500.85 1455.7 1496.26 Q1452.64 1491.66 1452.64 1482.93 Q1452.64 1474.18 1455.7 1469.6 Q1458.78 1464.99 1464.59 1464.99 Z" fill="#000000" fill-rule="evenodd" fill-opacity="1" /><path clip-path="url(#clip130)" d="M 0 0 M1682.06 1465.61 L1700.42 1465.61 L1700.42 1469.55 L1686.34 1469.55 L1686.34 1478.02 Q1687.36 1477.67 1688.38 1477.51 Q1689.4 1477.33 1690.42 1477.33 Q1696.2 1477.33 1699.58 1480.5 Q1702.96 1483.67 1702.96 1489.09 Q1702.96 1494.66 1699.49 1497.77 Q1696.02 1500.85 1689.7 1500.85 Q1687.52 1500.85 1685.25 1500.47 Q1683.01 1500.1 1680.6 1499.36 L1680.6 1494.66 Q1682.68 1495.8 1684.91 1496.35 Q1687.13 1496.91 1689.61 1496.91 Q1693.61 1496.91 1695.95 1494.8 Q1698.29 1492.7 1698.29 1489.09 Q1698.29 1485.47 1695.95 1483.37 Q1693.61 1481.26 1689.61 1481.26 Q1687.73 1481.26 1685.86 1481.68 Q1684 1482.1 1682.06 1482.97 L1682.06 1465.61 Z" fill="#000000" fill-rule="evenodd" fill-opacity="1" /><path clip-path="url(#clip130)" d="M 0 0 M1722.17 1468.69 Q1718.56 1468.69 1716.74 1472.26 Q1714.93 1475.8 1714.93 1482.93 Q1714.93 1490.04 1716.74 1493.6 Q1718.56 1497.14 1722.17 1497.14 Q1725.81 1497.14 1727.61 1493.6 Q1729.44 1490.04 1729.44 1482.93 Q1729.44 1475.8 1727.61 1472.26 Q1725.81 1468.69 1722.17 1468.69 M1722.17 1464.99 Q1727.98 1464.99 1731.04 1469.6 Q1734.12 1474.18 1734.12 1482.93 Q1734.12 1491.66 1731.04 1496.26 Q1727.98 1500.85 1722.17 1500.85 Q1716.36 1500.85 1713.29 1496.26 Q1710.23 1491.66 1710.23 1482.93 Q1710.23 1474.18 1713.29 1469.6 Q1716.36 1464.99 1722.17 1464.99 Z" fill="#000000" fill-rule="evenodd" fill-opacity="1" /><path clip-path="url(#clip130)" d="M 0 0 M1752.34 1468.69 Q1748.73 1468.69 1746.9 1472.26 Q1745.09 1475.8 1745.09 1482.93 Q1745.09 1490.04 1746.9 1493.6 Q1748.73 1497.14 1752.34 1497.14 Q1755.97 1497.14 1757.78 1493.6 Q1759.61 1490.04 1759.61 1482.93 Q1759.61 1475.8 1757.78 1472.26 Q1755.97 1468.69 1752.34 1468.69 M1752.34 1464.99 Q1758.15 1464.99 1761.2 1469.6 Q1764.28 1474.18 1764.28 1482.93 Q1764.28 1491.66 1761.2 1496.26 Q1758.15 1500.85 1752.34 1500.85 Q1746.53 1500.85 1743.45 1496.26 Q1740.39 1491.66 1740.39 1482.93 Q1740.39 1474.18 1743.45 1469.6 Q1746.53 1464.99 1752.34 1464.99 Z" fill="#000000" fill-rule="evenodd" fill-opacity="1" /><path clip-path="url(#clip130)" d="M 0 0 M1013.47 1535.75 Q1013.47 1541.16 1011.73 1547.24 Q1010.03 1553.3 1007.32 1558.19 Q1004.62 1563.06 1001.07 1566.28 Q997.531 1569.47 994.15 1569.47 Q991.992 1569.47 990.381 1568.27 Q988.803 1567.05 987.934 1565.02 Q987.064 1562.96 986.646 1560.71 Q986.227 1558.42 986.227 1555.94 Q986.227 1552.24 987.032 1548.21 Q987.837 1544.15 989.19 1540.48 Q990.542 1536.78 992.443 1533.43 Q994.343 1530.05 996.436 1527.6 Q998.562 1525.12 1000.94 1523.67 Q1003.33 1522.22 1005.55 1522.22 Q1007.16 1522.22 1008.45 1522.93 Q1009.77 1523.6 1010.61 1524.8 Q1011.44 1525.96 1012.02 1527.34 Q1012.64 1528.73 1012.93 1530.34 Q1013.22 1531.91 1013.34 1533.23 Q1013.47 1534.52 1013.47 1535.75 M1009.13 1531.66 Q1009.13 1530.01 1009 1528.79 Q1008.87 1527.53 1008.51 1526.28 Q1008.16 1525.02 1007.39 1524.35 Q1006.65 1523.67 1005.49 1523.67 Q1002.1 1523.67 998.304 1530.59 Q997.08 1532.75 995.985 1535.68 Q994.89 1538.61 994.504 1540 Q994.117 1541.38 993.216 1544.8 L1007 1544.8 Q1009.13 1536 1009.13 1531.66 M1006.42 1546.89 L992.7 1546.89 Q990.575 1554.94 990.575 1559.96 Q990.575 1564.34 991.476 1566.18 Q992.41 1567.98 994.15 1567.98 Q996.146 1567.98 998.014 1565.99 Q999.882 1563.96 1001.78 1560.29 Q1004.29 1555.52 1006.42 1546.89 Z" fill="#000000" fill-rule="evenodd" fill-opacity="1" /><polyline clip-path="url(#clip133)" style="stroke:#000000; stroke-width:2; stroke-opacity:0.1; fill:none" points="
  237.381,1410.07 1765.7,1410.07 
  "/>
<polyline clip-path="url(#clip133)" style="stroke:#000000; stroke-width:2; stroke-opacity:0.1; fill:none" points="
  237.381,1019.26 1765.7,1019.26 
  "/>
<polyline clip-path="url(#clip133)" style="stroke:#000000; stroke-width:2; stroke-opacity:0.1; fill:none" points="
  237.381,628.439 1765.7,628.439 
  "/>
<polyline clip-path="url(#clip133)" style="stroke:#000000; stroke-width:2; stroke-opacity:0.1; fill:none" points="
  237.381,237.62 1765.7,237.62 
  "/>
<polyline clip-path="url(#clip130)" style="stroke:#000000; stroke-width:4; stroke-opacity:1; fill:none" points="
  237.381,1439.5 237.381,47.2441 
  "/>
<polyline clip-path="url(#clip130)" style="stroke:#000000; stroke-width:4; stroke-opacity:1; fill:none" points="
  237.381,1410.07 255.721,1410.07 
  "/>
<polyline clip-path="url(#clip130)" style="stroke:#000000; stroke-width:4; stroke-opacity:1; fill:none" points="
  237.381,1019.26 255.721,1019.26 
  "/>
<polyline clip-path="url(#clip130)" style="stroke:#000000; stroke-width:4; stroke-opacity:1; fill:none" points="
  237.381,628.439 255.721,628.439 
  "/>
<polyline clip-path="url(#clip130)" style="stroke:#000000; stroke-width:4; stroke-opacity:1; fill:none" points="
  237.381,237.62 255.721,237.62 
  "/>
<path clip-path="url(#clip130)" d="M 0 0 M189.437 1395.87 Q185.826 1395.87 183.997 1399.44 Q182.191 1402.98 182.191 1410.11 Q182.191 1417.22 183.997 1420.78 Q185.826 1424.32 189.437 1424.32 Q193.071 1424.32 194.877 1420.78 Q196.705 1417.22 196.705 1410.11 Q196.705 1402.98 194.877 1399.44 Q193.071 1395.87 189.437 1395.87 M189.437 1392.17 Q195.247 1392.17 198.302 1396.78 Q201.381 1401.36 201.381 1410.11 Q201.381 1418.84 198.302 1423.44 Q195.247 1428.03 189.437 1428.03 Q183.627 1428.03 180.548 1423.44 Q177.492 1418.84 177.492 1410.11 Q177.492 1401.36 180.548 1396.78 Q183.627 1392.17 189.437 1392.17 Z" fill="#000000" fill-rule="evenodd" fill-opacity="1" /><path clip-path="url(#clip130)" d="M 0 0 M150.085 1032.6 L157.724 1032.6 L157.724 1006.24 L149.414 1007.9 L149.414 1003.64 L157.678 1001.98 L162.354 1001.98 L162.354 1032.6 L169.992 1032.6 L169.992 1036.54 L150.085 1036.54 L150.085 1032.6 Z" fill="#000000" fill-rule="evenodd" fill-opacity="1" /><path clip-path="url(#clip130)" d="M 0 0 M189.437 1005.06 Q185.826 1005.06 183.997 1008.62 Q182.191 1012.16 182.191 1019.29 Q182.191 1026.4 183.997 1029.96 Q185.826 1033.5 189.437 1033.5 Q193.071 1033.5 194.877 1029.96 Q196.705 1026.4 196.705 1019.29 Q196.705 1012.16 194.877 1008.62 Q193.071 1005.06 189.437 1005.06 M189.437 1001.35 Q195.247 1001.35 198.302 1005.96 Q201.381 1010.54 201.381 1019.29 Q201.381 1028.02 198.302 1032.62 Q195.247 1037.21 189.437 1037.21 Q183.627 1037.21 180.548 1032.62 Q177.492 1028.02 177.492 1019.29 Q177.492 1010.54 180.548 1005.96 Q183.627 1001.35 189.437 1001.35 Z" fill="#000000" fill-rule="evenodd" fill-opacity="1" /><path clip-path="url(#clip130)" d="M 0 0 M153.303 641.783 L169.622 641.783 L169.622 645.719 L147.678 645.719 L147.678 641.783 Q150.34 639.029 154.923 634.399 Q159.53 629.746 160.71 628.404 Q162.955 625.881 163.835 624.145 Q164.738 622.385 164.738 620.695 Q164.738 617.941 162.793 616.205 Q160.872 614.469 157.77 614.469 Q155.571 614.469 153.118 615.233 Q150.687 615.996 147.909 617.547 L147.909 612.825 Q150.733 611.691 153.187 611.112 Q155.641 610.534 157.678 610.534 Q163.048 610.534 166.242 613.219 Q169.437 615.904 169.437 620.395 Q169.437 622.524 168.627 624.445 Q167.84 626.344 165.733 628.936 Q165.155 629.607 162.053 632.825 Q158.951 636.019 153.303 641.783 Z" fill="#000000" fill-rule="evenodd" fill-opacity="1" /><path clip-path="url(#clip130)" d="M 0 0 M189.437 614.237 Q185.826 614.237 183.997 617.802 Q182.191 621.344 182.191 628.473 Q182.191 635.58 183.997 639.144 Q185.826 642.686 189.437 642.686 Q193.071 642.686 194.877 639.144 Q196.705 635.58 196.705 628.473 Q196.705 621.344 194.877 617.802 Q193.071 614.237 189.437 614.237 M189.437 610.534 Q195.247 610.534 198.302 615.14 Q201.381 619.723 201.381 628.473 Q201.381 637.2 198.302 641.806 Q195.247 646.39 189.437 646.39 Q183.627 646.39 180.548 641.806 Q177.492 637.2 177.492 628.473 Q177.492 619.723 180.548 615.14 Q183.627 610.534 189.437 610.534 Z" fill="#000000" fill-rule="evenodd" fill-opacity="1" /><path clip-path="url(#clip130)" d="M 0 0 M163.442 236.266 Q166.798 236.984 168.673 239.252 Q170.571 241.521 170.571 244.854 Q170.571 249.97 167.053 252.771 Q163.534 255.572 157.053 255.572 Q154.877 255.572 152.562 255.132 Q150.27 254.715 147.817 253.859 L147.817 249.345 Q149.761 250.479 152.076 251.058 Q154.391 251.636 156.914 251.636 Q161.312 251.636 163.604 249.9 Q165.918 248.164 165.918 244.854 Q165.918 241.799 163.766 240.086 Q161.636 238.35 157.817 238.35 L153.789 238.35 L153.789 234.507 L158.002 234.507 Q161.451 234.507 163.28 233.141 Q165.108 231.752 165.108 229.16 Q165.108 226.498 163.21 225.086 Q161.335 223.651 157.817 223.651 Q155.895 223.651 153.696 224.067 Q151.497 224.484 148.858 225.363 L148.858 221.197 Q151.52 220.456 153.835 220.086 Q156.173 219.715 158.233 219.715 Q163.557 219.715 166.659 222.146 Q169.761 224.553 169.761 228.674 Q169.761 231.544 168.117 233.535 Q166.474 235.502 163.442 236.266 Z" fill="#000000" fill-rule="evenodd" fill-opacity="1" /><path clip-path="url(#clip130)" d="M 0 0 M189.437 223.419 Q185.826 223.419 183.997 226.984 Q182.191 230.525 182.191 237.655 Q182.191 244.762 183.997 248.326 Q185.826 251.868 189.437 251.868 Q193.071 251.868 194.877 248.326 Q196.705 244.762 196.705 237.655 Q196.705 230.525 194.877 226.984 Q193.071 223.419 189.437 223.419 M189.437 219.715 Q195.247 219.715 198.302 224.322 Q201.381 228.905 201.381 237.655 Q201.381 246.382 198.302 250.988 Q195.247 255.572 189.437 255.572 Q183.627 255.572 180.548 250.988 Q177.492 246.382 177.492 237.655 Q177.492 228.905 180.548 224.322 Q183.627 219.715 189.437 219.715 Z" fill="#000000" fill-rule="evenodd" fill-opacity="1" /><path clip-path="url(#clip130)" d="M 0 0 M60.857 943.374 L77.282 949.043 L77.282 1003.73 Q77.282 1004.47 77.2498 1004.76 Q77.2176 1005.05 77.0566 1005.27 Q76.8956 1005.5 76.5413 1005.5 Q76.2514 1005.5 75.5107 1004.92 L46.5576 981.506 L13.45 1005.56 Q11.9363 1005.56 11.6465 1005.31 Q11.3244 1005.05 11.3244 1003.73 L11.3244 949.043 L26.751 943.374 L26.751 945.017 Q24.7543 945.758 23.0796 946.949 Q21.3726 948.109 20.1488 949.461 Q18.925 950.782 17.9588 952.521 Q16.9604 954.228 16.3485 955.838 Q15.7044 957.416 15.2535 959.381 Q14.7704 961.345 14.545 962.923 Q14.2874 964.469 14.1585 966.402 Q14.0297 968.334 13.9975 969.558 Q13.9653 970.782 13.9653 972.327 L13.9653 998.446 L43.3693 977.03 Q44.11 976.546 44.3032 976.546 Q44.5931 976.546 45.366 977.158 L73.6428 1000.02 L73.6428 972.005 Q73.6428 962.988 71.7426 956.708 Q70.2934 952.456 67.427 949.365 Q64.5607 946.241 60.857 945.017 L60.857 943.374 Z" fill="#000000" fill-rule="evenodd" fill-opacity="1" /><path clip-path="url(#clip130)" d="M 0 0 M103.424 1014.55 Q104.055 1014.55 104.213 1014.85 Q104.349 1015.14 104.349 1015.95 L104.349 1020.28 L117.965 1023.7 Q119.16 1023.98 120.174 1023.98 Q121.302 1023.98 121.798 1023.64 Q122.294 1023.28 122.294 1022.53 Q122.294 1021.07 120.964 1019.49 Q119.633 1017.89 116.387 1016.54 Q115.959 1016.36 115.869 1016.27 Q115.756 1016.15 115.756 1015.86 Q115.756 1015.3 116.207 1015.3 Q116.365 1015.3 117.086 1015.61 Q117.807 1015.9 118.867 1016.56 Q119.927 1017.19 120.918 1018.02 Q121.91 1018.84 122.632 1020.08 Q123.331 1021.32 123.331 1022.65 Q123.331 1024.52 122.136 1025.71 Q120.941 1026.88 119.07 1026.88 Q118.461 1026.88 116.522 1026.41 Q114.561 1025.94 104.349 1023.37 L104.349 1027.45 Q104.349 1028.01 104.326 1028.24 Q104.303 1028.44 104.191 1028.6 Q104.055 1028.73 103.785 1028.73 Q103.357 1028.73 103.176 1028.55 Q102.973 1028.37 102.951 1028.15 Q102.906 1027.9 102.906 1027.33 L102.906 1023.01 L95.5789 1021.2 Q94.8575 1021.02 94.4517 1020.57 Q94.0233 1020.1 93.9782 1019.83 Q93.9106 1019.56 93.9106 1019.35 Q93.9106 1018.75 94.2488 1018.38 Q94.5644 1018.02 95.1505 1018.02 Q95.4662 1018.02 102.906 1019.92 L102.906 1015.86 Q102.906 1015.34 102.928 1015.14 Q102.951 1014.91 103.064 1014.73 Q103.176 1014.55 103.424 1014.55 Z" fill="#000000" fill-rule="evenodd" fill-opacity="1" /><path clip-path="url(#clip130)" d="M 0 0 M115.801 999.419 Q115.237 999.374 115.237 998.495 L115.237 970.202 Q115.237 968.872 115.756 968.85 Q116.319 968.85 116.297 970.112 L116.297 998.179 Q116.319 999.419 115.801 999.419 M106.783 999.419 Q106.22 999.419 106.242 998.45 L106.242 970.247 Q106.242 968.872 106.783 968.85 Q107.302 968.85 107.302 970.022 L107.302 998.495 Q107.302 999.419 106.783 999.419 Z" fill="#000000" fill-rule="evenodd" fill-opacity="1" /><path clip-path="url(#clip130)" d="M 0 0 M108.046 951.037 Q101.26 951.037 97.5628 949.324 Q92.062 946.934 92.062 941.298 Q92.062 940.104 92.4002 938.864 Q92.7158 937.601 93.9557 936.023 Q95.1956 934.422 97.2246 933.453 Q101.147 931.604 108.046 931.604 Q114.786 931.604 118.461 933.318 Q123.827 935.82 123.827 941.344 Q123.827 943.418 122.767 945.537 Q121.707 947.633 119.16 948.963 Q115.35 951.037 108.046 951.037 M107.482 947.205 Q114.448 947.205 117.221 946.709 Q120.22 946.145 121.527 944.612 Q122.812 943.057 122.812 941.344 Q122.812 939.495 121.437 937.962 Q120.039 936.406 117.041 935.933 Q114.088 935.414 107.482 935.437 Q101.057 935.437 98.4871 935.888 Q95.4887 936.497 94.2939 938.12 Q93.0765 939.72 93.0765 941.344 Q93.0765 941.952 93.2568 942.606 Q93.4372 943.237 93.9557 944.162 Q94.4742 945.086 95.7592 945.807 Q97.0442 946.506 98.983 946.844 Q101.485 947.205 107.482 947.205 Z" fill="#000000" fill-rule="evenodd" fill-opacity="1" /><path clip-path="url(#clip130)" d="M 0 0 M16.8638 876.27 Q17.4757 876.27 17.991 876.399 L29.4563 878.202 Q30.3259 878.299 30.6479 878.492 Q30.97 878.653 30.97 879.168 Q30.97 879.974 30.1326 879.974 Q29.6496 879.974 28.8766 879.78 Q25.2374 879.233 23.5949 879.233 Q22.4999 879.233 21.6947 879.458 Q20.8574 879.651 20.2776 879.974 Q19.6979 880.263 19.3115 880.94 Q18.925 881.616 18.6996 882.26 Q18.4741 882.904 18.3775 884.064 Q18.2487 885.223 18.2165 886.221 Q18.1843 887.22 18.1843 888.862 Q18.1843 892.437 18.3131 893.017 Q18.4741 893.629 18.9572 893.951 Q19.4081 894.241 20.7607 894.563 L55.7685 903.323 L57.1534 903.58 Q57.9263 903.58 58.1839 903.097 Q58.4416 902.614 58.6026 901.133 Q58.7637 899.007 58.7637 896.914 Q58.7637 896.849 58.7637 896.721 Q58.7637 896.012 58.7959 895.722 Q58.7959 895.432 58.8603 895.142 Q58.9247 894.853 59.0857 894.788 Q59.2145 894.692 59.4722 894.692 Q60.0841 894.692 60.4062 894.949 Q60.696 895.207 60.7604 895.465 Q60.7926 895.69 60.7926 896.141 Q60.7926 897.043 60.7282 898.975 Q60.6638 900.907 60.6638 901.874 L60.5994 907.349 L60.6638 912.952 Q60.6638 913.822 60.7282 915.658 Q60.7926 917.493 60.7926 918.363 Q60.7926 919.49 59.9875 919.49 Q59.0857 919.49 58.9247 919.071 Q58.7637 918.621 58.7637 916.72 Q58.7637 914.047 58.6348 912.598 Q58.506 911.149 58.0551 910.376 Q57.6042 909.571 57.1534 909.345 Q56.6703 909.12 55.5753 908.862 L20.3743 900.006 Q19.6013 899.748 18.9894 899.748 Q18.6674 899.748 18.5385 899.845 Q18.4097 899.909 18.3131 900.328 Q18.1843 900.746 18.1843 901.616 L18.1843 904.192 Q18.1843 906.833 18.3131 908.476 Q18.4097 910.086 18.8928 911.632 Q19.3759 913.146 20.0522 914.047 Q20.7285 914.917 22.1134 915.883 Q23.4982 916.849 25.1729 917.558 Q26.8476 918.234 29.5851 919.2 Q30.4869 919.522 30.7446 919.716 Q30.97 919.877 30.97 920.327 Q30.97 920.65 30.7768 920.907 Q30.5513 921.133 30.2615 921.133 Q29.1987 920.811 29.0698 920.746 L17.4435 916.785 Q16.5096 916.463 16.3485 916.173 Q16.1553 915.851 16.1553 914.659 L16.1553 878.073 Q16.1553 877.494 16.1553 877.3 Q16.1553 877.107 16.2197 876.785 Q16.2841 876.463 16.4451 876.366 Q16.6062 876.27 16.8638 876.27 Z" fill="#000000" fill-rule="evenodd" fill-opacity="1" /><path clip-path="url(#clip130)" d="M 0 0 M7.94593 851.294 L8.87023 851.858 Q7.35978 855.352 4.94756 859.703 Q7.35978 864.054 8.87023 867.548 L7.94593 868.089 Q4.63194 864.279 2.08446 859.703 Q4.65449 855.081 7.94593 851.294 Z" fill="#000000" fill-rule="evenodd" fill-opacity="1" /><path clip-path="url(#clip130)" d="M 0 0 M16.5418 835.027 Q16.9604 835.027 17.2181 835.124 Q17.4757 835.189 17.6046 835.446 Q17.7012 835.672 17.7334 835.833 Q17.7656 835.961 17.7978 836.348 Q17.9266 837.926 18.3453 839.246 Q18.7318 840.567 19.5047 841.694 Q20.2776 842.789 20.7929 843.401 Q21.3082 843.981 22.3388 845.011 L23.2728 845.913 L42.0488 862.274 Q42.6929 862.853 44.11 863.208 L53.4175 865.526 Q57.2822 866.428 57.572 866.428 Q58.1517 866.428 58.345 866.106 Q58.506 865.752 58.6026 864.657 L58.7637 862.145 Q58.7637 860.663 59.0213 860.438 Q59.1823 860.309 59.4722 860.309 Q60.0841 860.309 60.4062 860.567 Q60.696 860.792 60.7604 861.018 Q60.7926 861.211 60.7926 861.565 L60.5994 870.003 L60.7926 878.312 Q60.7926 879.246 60.0519 879.246 Q59.5688 879.246 59.3112 879.182 Q59.0213 879.085 58.9247 878.795 Q58.7959 878.505 58.7959 878.28 Q58.7637 878.055 58.7637 877.443 Q58.7314 875.961 58.7314 875.22 Q58.6992 874.447 58.506 873.707 Q58.3128 872.966 58.1839 872.708 Q58.0229 872.418 57.4754 872.096 Q56.8957 871.742 56.4448 871.646 Q55.9939 871.517 54.8667 871.259 Q53.8684 871.001 48.4256 869.649 Q42.9828 868.296 42.854 868.296 Q42.4997 868.296 41.7268 868.554 L20.02 876.67 Q19.0538 877.024 18.6674 877.314 Q18.2809 877.604 18.0554 878.57 Q17.7978 879.536 17.7978 881.468 Q17.7978 882.016 17.7656 882.273 Q17.7334 882.531 17.5724 882.757 Q17.4113 882.982 17.0571 882.982 Q16.4451 882.982 16.1553 882.724 Q15.8332 882.467 15.801 882.273 Q15.7366 882.048 15.7366 881.726 Q15.7366 880.921 15.8332 878.055 Q15.9299 875.188 15.9299 874.351 L15.7366 866.042 Q15.7366 865.043 16.4774 865.043 Q17.3791 865.043 17.6046 865.398 Q17.7978 865.752 17.7978 866.621 Q17.7978 870.518 19.3759 870.518 Q19.5691 870.518 20.5031 870.132 L40.0843 862.886 L22.4676 847.588 L22.21 847.362 Q21.9524 847.169 21.7591 847.008 Q21.5659 846.847 21.2116 846.589 Q20.8574 846.332 20.5675 846.203 Q20.2776 846.042 19.9234 845.913 Q19.5691 845.784 19.3115 845.784 Q18.8284 845.784 18.5063 846.074 Q18.1521 846.364 18.0232 846.815 Q17.8944 847.266 17.8622 847.588 Q17.7978 847.91 17.7978 848.167 Q17.7978 849.166 16.9926 849.166 Q16.4129 849.166 16.1231 848.908 Q15.801 848.651 15.7688 848.457 Q15.7366 848.232 15.7366 847.91 Q15.7366 846.847 15.8332 844.625 Q15.9299 842.403 15.9299 841.308 Q15.9299 840.406 15.8332 838.57 Q15.7366 836.734 15.7366 835.897 Q15.7366 835.027 16.5418 835.027 Z" fill="#000000" fill-rule="evenodd" fill-opacity="1" /><path clip-path="url(#clip130)" d="M 0 0 M58.5788 823.834 Q59.21 823.834 59.3678 824.128 Q59.5031 824.421 59.5031 825.232 L59.5031 829.561 L73.1197 832.987 Q74.3145 833.258 75.329 833.258 Q76.4562 833.258 76.9522 832.92 Q77.4482 832.559 77.4482 831.815 Q77.4482 830.35 76.1181 828.772 Q74.788 827.171 71.5416 825.818 Q71.1133 825.638 71.0231 825.548 Q70.9104 825.435 70.9104 825.142 Q70.9104 824.578 71.3613 824.578 Q71.5191 824.578 72.2405 824.894 Q72.9619 825.187 74.0215 825.841 Q75.081 826.472 76.073 827.306 Q77.0649 828.118 77.7863 829.358 Q78.4852 830.598 78.4852 831.928 Q78.4852 833.799 77.2904 834.994 Q76.0955 836.166 74.2244 836.166 Q73.6157 836.166 71.6769 835.693 Q69.7155 835.219 59.5031 832.649 L59.5031 836.73 Q59.5031 837.293 59.4805 837.519 Q59.458 837.722 59.3453 837.879 Q59.21 838.015 58.9395 838.015 Q58.5111 838.015 58.3308 837.834 Q58.1279 837.654 58.1053 837.429 Q58.0602 837.181 58.0602 836.617 L58.0602 832.289 L50.7334 830.485 Q50.012 830.305 49.6062 829.854 Q49.1779 829.38 49.1328 829.11 Q49.0651 828.839 49.0651 828.636 Q49.0651 828.028 49.4033 827.667 Q49.7189 827.306 50.3051 827.306 Q50.6207 827.306 58.0602 829.2 L58.0602 825.142 Q58.0602 824.624 58.0828 824.421 Q58.1053 824.195 58.218 824.015 Q58.3308 823.834 58.5788 823.834 Z" fill="#000000" fill-rule="evenodd" fill-opacity="1" /><path clip-path="url(#clip130)" d="M 0 0 M42.8415 814.474 Q32.1994 814.474 23.618 810.506 Q20.0193 808.814 17.0051 806.446 Q13.9908 804.078 12.6682 802.509 Q11.3456 800.94 11.3456 800.51 Q11.3456 799.894 11.9608 799.864 Q12.2684 799.864 13.0373 800.694 Q23.3719 810.844 42.8415 810.813 Q62.3727 810.813 72.3074 800.94 Q73.384 799.864 73.7223 799.864 Q74.3374 799.864 74.3374 800.51 Q74.3374 800.94 73.0764 802.447 Q71.8153 803.954 68.9241 806.292 Q66.0329 808.63 62.4957 810.321 Q53.9143 814.474 42.8415 814.474 Z" fill="#000000" fill-rule="evenodd" fill-opacity="1" /><path clip-path="url(#clip130)" d="M 0 0 M24.5932 783.245 Q18.925 783.245 15.1247 780.347 Q11.3244 777.448 11.3244 773.551 Q11.3244 771.168 13.45 768.817 Q18.5385 763.471 18.5063 756.482 Q18.5063 748.559 12.2584 743.954 Q11.3244 743.149 11.3244 742.569 Q11.3244 742.054 11.7431 741.667 Q12.1296 741.249 12.6449 741.249 Q13.0313 741.249 13.8365 741.764 L63.4979 775.129 Q64.4963 775.87 64.4963 776.45 Q64.4963 776.965 64.0776 777.384 Q63.6911 777.77 63.1759 777.77 Q62.725 777.77 61.8554 777.19 L17.7334 747.561 L17.669 747.625 Q19.9878 751.039 19.9556 756.418 Q19.9556 761.506 17.1859 766.369 Q20.5997 764.984 24.6576 764.984 Q30.1971 764.984 34.0618 767.464 Q37.8943 769.944 37.8943 773.551 Q37.8943 777.448 34.1584 780.347 Q30.3903 783.245 24.5932 783.245 M19.2149 778.704 Q21.5337 779.155 24.6576 779.155 Q27.7494 779.155 30.0682 778.704 Q32.3548 778.253 33.5465 777.609 Q34.7381 776.933 35.4466 776.031 Q36.1229 775.129 36.284 774.582 Q36.445 774.034 36.445 773.487 Q36.445 770.781 33.0956 768.72 Q29.714 766.627 24.5932 766.627 Q19.5691 766.627 16.1875 768.72 Q12.7737 770.781 12.7737 773.487 Q12.7737 774.066 12.9347 774.646 Q13.0957 775.194 13.8043 776.063 Q14.4806 776.933 15.6722 777.609 Q16.8638 778.253 19.2149 778.704 M51.1631 754.034 Q45.4948 754.034 41.6945 751.136 Q37.8943 748.237 37.8943 744.34 Q37.8943 740.766 41.759 738.286 Q45.6237 735.774 51.2275 735.774 Q56.7669 735.774 60.6316 738.253 Q64.4963 740.701 64.4963 744.34 Q64.4963 748.237 60.7282 751.136 Q56.9601 754.034 51.1631 754.034 M45.7847 749.493 Q48.1357 749.944 51.2275 749.944 Q54.3192 749.944 56.6381 749.493 Q58.9569 749.01 60.1485 748.366 Q61.3079 747.69 61.9842 746.82 Q62.6928 745.918 62.8538 745.371 Q63.047 744.791 63.047 744.276 Q63.047 741.571 59.6976 739.51 Q56.316 737.416 51.1631 737.416 Q46.139 737.416 42.7573 739.51 Q39.3435 741.571 39.3435 744.276 Q39.3435 744.856 39.5368 745.435 Q39.6978 745.983 40.4063 746.852 Q41.0826 747.69 42.2743 748.366 Q43.4337 749.01 45.7847 749.493 Z" fill="#000000" fill-rule="evenodd" fill-opacity="1" /><path clip-path="url(#clip130)" d="M 0 0 M59.7298 727.924 Q58.667 728.858 57.2822 728.858 Q55.8973 728.858 54.8667 727.956 Q53.8039 727.022 53.8039 725.348 Q53.8039 723.383 55.7041 722.256 Q57.572 721.129 60.7282 721.129 Q64.142 721.129 67.2982 722.514 Q70.4866 723.898 72.0003 725.251 Q73.5139 726.604 73.5139 727.151 Q73.5139 727.795 72.8054 727.795 Q72.5478 727.795 72.0647 727.344 Q66.9761 722.61 60.7282 722.578 Q59.7298 722.578 59.7298 722.707 L59.8587 722.868 Q60.7926 723.995 60.7926 725.348 Q60.7926 726.99 59.7298 727.924 Z" fill="#000000" fill-rule="evenodd" fill-opacity="1" /><path clip-path="url(#clip130)" d="M 0 0 M43.4981 665.724 Q46.7509 665.724 50.0037 667.399 Q53.2564 669.073 55.7685 671.811 Q58.2484 674.548 59.8587 678.284 Q61.4689 682.02 61.5978 685.917 L71.4206 688.429 Q73.8038 688.912 74.0614 689.17 Q74.3191 689.427 74.3191 689.814 Q74.3191 690.619 73.5783 690.619 Q73.3529 690.619 67.7813 689.17 L61.5978 687.624 Q61.2757 693.485 57.8941 696.899 Q54.5125 700.313 49.6494 700.313 Q46.3644 700.313 43.1116 698.638 Q39.8266 696.931 37.3468 694.194 Q34.8669 691.424 33.2888 687.688 Q31.7107 683.952 31.5819 680.12 L16.3485 676.287 Q15.479 676.094 15.2535 675.933 Q15.0281 675.772 15.0281 675.289 Q15.0281 674.935 15.1891 674.742 Q15.3502 674.548 15.5112 674.548 L15.6722 674.516 L16.6062 674.709 L31.5819 678.413 Q31.8073 675.128 32.9668 672.584 Q34.1262 670.04 35.8653 668.59 Q37.5722 667.141 39.5045 666.432 Q41.4369 665.724 43.4981 665.724 M33.0312 680.506 Q33.3532 684.049 35.0923 687.044 Q36.8315 690.039 39.4079 691.972 Q41.9522 693.904 45.0117 694.967 Q48.0391 696.03 51.0342 696.03 Q53.3853 696.03 55.1888 695.257 Q56.9923 694.452 58.0229 693.131 Q59.0213 691.811 59.5688 690.361 Q60.0841 688.88 60.1485 687.302 L33.0312 680.506 M42.1132 670.04 Q37.9265 670.04 35.5754 672.455 Q33.2244 674.87 33.0312 678.8 L60.1485 685.595 Q59.9231 682.729 58.7314 680.217 Q57.5076 677.672 55.7041 675.837 Q53.8684 674.001 51.614 672.68 Q49.3273 671.36 46.9119 670.716 Q44.4642 670.04 42.1132 670.04 Z" fill="#000000" fill-rule="evenodd" fill-opacity="1" /><path clip-path="url(#clip130)" d="M 0 0 M50.7766 643.094 Q49.9715 643.03 49.9715 641.774 L49.9715 601.355 Q49.9715 599.455 50.7122 599.423 Q51.5173 599.423 51.4851 601.227 L51.4851 641.323 Q51.5173 643.094 50.7766 643.094 M37.8943 643.094 Q37.0891 643.094 37.1213 641.709 L37.1213 601.42 Q37.1213 599.455 37.8943 599.423 Q38.635 599.423 38.635 601.098 L38.635 641.774 Q38.635 643.094 37.8943 643.094 Z" fill="#000000" fill-rule="evenodd" fill-opacity="1" /><path clip-path="url(#clip130)" d="M 0 0 M39.6978 573.977 Q30.0038 573.977 24.7221 571.53 Q16.8638 568.116 16.8638 560.064 Q16.8638 558.358 17.3469 556.586 Q17.7978 554.783 19.5691 552.528 Q21.3404 550.242 24.239 548.857 Q29.8428 546.216 39.6978 546.216 Q49.3273 546.216 54.5769 548.664 Q62.2419 552.238 62.2419 560.129 Q62.2419 563.092 60.7282 566.119 Q59.2145 569.114 55.5753 571.014 Q50.1325 573.977 39.6978 573.977 M38.8926 568.502 Q48.8442 568.502 52.8056 567.794 Q57.0889 566.989 58.9569 564.799 Q60.7926 562.576 60.7926 560.129 Q60.7926 557.488 58.8281 555.298 Q56.8313 553.076 52.5479 552.399 Q48.329 551.659 38.8926 551.691 Q29.714 551.691 26.0425 552.335 Q21.7591 553.205 20.0522 555.523 Q18.3131 557.81 18.3131 560.129 Q18.3131 560.998 18.5707 561.932 Q18.8284 562.834 19.5691 564.155 Q20.3099 565.475 22.1456 566.506 Q23.9813 567.504 26.751 567.987 Q30.3259 568.502 38.8926 568.502 Z" fill="#000000" fill-rule="evenodd" fill-opacity="1" /><path clip-path="url(#clip130)" d="M 0 0 M59.7298 540.315 Q58.667 541.313 57.2822 541.313 Q55.8973 541.313 54.8989 540.315 Q53.8684 539.317 53.8684 537.803 Q53.8684 536.354 54.8345 535.387 Q55.7685 534.389 57.3144 534.389 Q58.8281 534.389 59.8264 535.452 Q60.7926 536.482 60.7926 537.803 Q60.7926 539.317 59.7298 540.315 Z" fill="#000000" fill-rule="evenodd" fill-opacity="1" /><path clip-path="url(#clip130)" d="M 0 0 M29.7784 523.163 L16.2197 521.005 L16.2197 519.363 Q17.0249 519.17 17.3791 518.847 Q17.7334 518.493 18.0232 516.625 Q18.3131 514.725 18.3131 510.893 L18.3131 494.886 Q19.8268 494.886 20.6319 495.466 L33.16 504.387 Q37.1213 507.221 44.432 508.477 Q49.3273 509.218 55.2532 509.186 L58.6026 509.186 Q62.2419 509.186 62.2419 512.245 Q62.2419 515.273 58.6026 515.273 Q46.0101 515.273 33.8041 507.157 Q32.5481 506.287 28.0715 503.099 Q23.5949 499.878 23.4016 499.749 L23.4016 513.405 Q23.4016 519.395 23.7881 519.878 Q24.3678 520.522 29.7784 521.521 L29.7784 523.163 Z" fill="#000000" fill-rule="evenodd" fill-opacity="1" /><path clip-path="url(#clip130)" d="M 0 0 M50.1647 495.249 Q48.2001 495.249 47.4594 494.186 Q46.6865 493.123 46.6865 491.996 Q46.6865 490.483 47.6526 489.613 Q48.5866 488.711 49.907 488.711 Q51.2275 488.711 52.1937 489.613 Q53.1276 490.483 53.1276 491.996 Q53.1276 492.737 52.9988 493.123 Q56.0262 492.254 58.2162 489.613 Q60.4062 486.94 60.4062 483.429 Q60.4062 479.017 56.1228 476.376 Q53.3531 474.798 47.0729 474.798 Q41.5335 474.798 38.7638 475.99 Q34.5448 477.826 34.5448 481.594 Q34.5448 486.94 39.1503 490.096 Q39.73 490.483 39.7622 490.933 Q39.7622 491.578 39.4079 491.739 Q39.0215 491.867 38.0231 491.867 L18.5063 491.867 Q16.9282 491.867 16.9282 491.223 Q16.9282 490.966 17.1215 490.418 Q18.9572 486.264 18.9894 481.658 Q18.9894 476.924 17.0571 472.673 Q16.8638 472.351 16.8638 472.157 Q16.8638 471.513 17.6046 471.481 Q17.8622 471.481 18.6351 472.029 Q19.3759 472.544 20.3743 473.671 Q21.3404 474.798 22.2744 476.248 Q23.2084 477.697 23.8525 479.822 Q24.4644 481.916 24.4644 484.235 Q24.4644 487.004 23.5949 489.838 L36.445 489.838 Q33.0956 486.425 33.0956 481.465 Q33.0956 476.183 37.3468 472.544 Q41.5979 468.905 47.5238 468.905 Q53.7395 468.905 57.9907 473.22 Q62.2419 477.504 62.2419 483.301 Q62.2419 488.582 58.4738 491.932 Q54.7057 495.249 50.1647 495.249 Z" fill="#000000" fill-rule="evenodd" fill-opacity="1" /><path clip-path="url(#clip130)" d="M 0 0 M73.7223 462.131 Q73.4147 462.131 72.6458 461.331 Q62.3112 451.181 42.8415 451.181 Q23.3104 451.181 13.4372 460.931 Q12.2991 462.131 11.9608 462.131 Q11.3456 462.131 11.3456 461.516 Q11.3456 461.085 12.6067 459.578 Q13.8678 458.04 16.759 455.733 Q19.6502 453.396 23.1874 451.673 Q31.7688 447.521 42.8415 447.521 Q53.4837 447.521 62.0651 451.489 Q65.6638 453.18 68.678 455.549 Q71.6923 457.917 73.0149 459.486 Q74.3374 461.054 74.3374 461.516 Q74.3374 462.131 73.7223 462.131 Z" fill="#000000" fill-rule="evenodd" fill-opacity="1" /><polyline clip-path="url(#clip133)" style="stroke:#0000ff; stroke-width:4; stroke-opacity:1; fill:none" stroke-dasharray="16, 10" points="
  280.635,839.496 641.087,1365.06 1001.54,1375.45 1361.99,1379.46 1722.44,1381.69 
  "/>
<polyline clip-path="url(#clip133)" style="stroke:#3300cc; stroke-width:4; stroke-opacity:1; fill:none" points="
  280.635,86.6476 641.087,1341.53 1001.54,1345.79 1361.99,1347.29 1722.44,1348.08 
  "/>
<polyline clip-path="url(#clip133)" style="stroke:#660099; stroke-width:4; stroke-opacity:1; fill:none" stroke-dasharray="16, 10" points="
  280.635,1341.53 641.087,1394.82 1001.54,1397.1 1361.99,1397.96 1722.44,1398.41 
  "/>
<polyline clip-path="url(#clip133)" style="stroke:#990066; stroke-width:4; stroke-opacity:1; fill:none" points="
  280.635,1335.35 641.087,1362.73 1001.54,1360.99 1361.99,1360.03 1722.44,1359.35 
  "/>
<polyline clip-path="url(#clip133)" style="stroke:#cc0033; stroke-width:4; stroke-opacity:1; fill:none" stroke-dasharray="16, 10" points="
  280.635,1391.93 641.087,1398.63 1001.54,1399.48 1361.99,1399.87 1722.44,1400.1 
  "/>
<polyline clip-path="url(#clip133)" style="stroke:#ff0000; stroke-width:4; stroke-opacity:1; fill:none" points="
  280.635,1389.42 641.087,1367.36 1001.54,1362.61 1361.99,1360.33 1722.44,1359.02 
  "/>
<path clip-path="url(#clip130)" d="
M1836.21 464.093 L2352.76 464.093 L2352.76 93.6527 L1836.21 93.6527  Z
  " fill="#ffffff" fill-rule="evenodd" fill-opacity="1"/>
<polyline clip-path="url(#clip130)" style="stroke:#000000; stroke-width:4; stroke-opacity:1; fill:none" points="
  1836.21,464.093 2352.76,464.093 2352.76,93.6527 1836.21,93.6527 1836.21,464.093 
  "/>
<polyline clip-path="url(#clip130)" style="stroke:#0000ff; stroke-width:3.5; stroke-opacity:1; fill:none" stroke-dasharray="14, 9" points="
  1859.71,146.573 2000.74,146.573 
  "/>
<path clip-path="url(#clip130)" d="M 0 0 M2052.79 128.673 Q2052.79 129.062 2052.71 129.39 L2051.56 136.686 Q2051.5 137.239 2051.38 137.444 Q2051.27 137.649 2050.95 137.649 Q2050.43 137.649 2050.43 137.116 Q2050.43 136.809 2050.56 136.317 Q2050.9 134.001 2050.9 132.956 Q2050.9 132.259 2050.76 131.747 Q2050.64 131.214 2050.43 130.845 Q2050.25 130.476 2049.82 130.23 Q2049.39 129.984 2048.98 129.841 Q2048.57 129.697 2047.83 129.636 Q2047.09 129.554 2046.46 129.533 Q2045.82 129.513 2044.78 129.513 Q2042.5 129.513 2042.13 129.595 Q2041.74 129.697 2041.54 130.005 Q2041.35 130.292 2041.15 131.153 L2035.57 153.43 L2035.41 154.311 Q2035.41 154.803 2035.72 154.967 Q2036.03 155.131 2036.97 155.234 Q2038.32 155.336 2039.65 155.336 Q2039.69 155.336 2039.78 155.336 Q2040.23 155.336 2040.41 155.357 Q2040.6 155.357 2040.78 155.398 Q2040.96 155.439 2041.01 155.541 Q2041.07 155.623 2041.07 155.787 Q2041.07 156.176 2040.9 156.381 Q2040.74 156.566 2040.58 156.607 Q2040.43 156.627 2040.14 156.627 Q2039.57 156.627 2038.34 156.586 Q2037.11 156.545 2036.5 156.545 L2033.01 156.504 L2029.45 156.545 Q2028.89 156.545 2027.73 156.586 Q2026.56 156.627 2026 156.627 Q2025.29 156.627 2025.29 156.115 Q2025.29 155.541 2025.55 155.439 Q2025.84 155.336 2027.05 155.336 Q2028.75 155.336 2029.67 155.254 Q2030.59 155.172 2031.09 154.885 Q2031.6 154.598 2031.74 154.311 Q2031.89 154.004 2032.05 153.307 L2037.69 130.907 Q2037.85 130.415 2037.85 130.025 Q2037.85 129.82 2037.79 129.738 Q2037.75 129.656 2037.48 129.595 Q2037.21 129.513 2036.66 129.513 L2035.02 129.513 Q2033.34 129.513 2032.3 129.595 Q2031.27 129.656 2030.29 129.964 Q2029.32 130.271 2028.75 130.702 Q2028.2 131.132 2027.58 132.013 Q2026.97 132.895 2026.52 133.96 Q2026.09 135.026 2025.47 136.768 Q2025.27 137.342 2025.14 137.506 Q2025.04 137.649 2024.75 137.649 Q2024.55 137.649 2024.38 137.526 Q2024.24 137.383 2024.24 137.198 Q2024.45 136.522 2024.49 136.44 L2027.01 129.042 Q2027.21 128.447 2027.4 128.345 Q2027.6 128.222 2028.36 128.222 L2051.64 128.222 Q2052.01 128.222 2052.13 128.222 Q2052.26 128.222 2052.46 128.263 Q2052.67 128.304 2052.73 128.406 Q2052.79 128.509 2052.79 128.673 Z" fill="#000000" fill-rule="evenodd" fill-opacity="1" /><path clip-path="url(#clip130)" d="M 0 0 M2060.16 150.254 Q2060.2 149.741 2061 149.741 L2086.72 149.741 Q2087.93 149.741 2087.95 150.213 Q2087.95 150.725 2086.8 150.704 L2061.29 150.704 Q2060.16 150.725 2060.16 150.254 M2060.16 142.056 Q2060.16 141.543 2061.04 141.564 L2086.68 141.564 Q2087.93 141.564 2087.95 142.056 Q2087.95 142.527 2086.88 142.527 L2061 142.527 Q2060.16 142.527 2060.16 142.056 Z" fill="#000000" fill-rule="evenodd" fill-opacity="1" /><path clip-path="url(#clip130)" d="M 0 0 M2104.13 143.203 Q2104.13 137.035 2105.69 133.673 Q2107.86 128.673 2112.99 128.673 Q2114.07 128.673 2115.2 128.98 Q2116.35 129.267 2117.78 130.394 Q2119.24 131.521 2120.12 133.366 Q2121.8 136.932 2121.8 143.203 Q2121.8 149.331 2120.24 152.672 Q2117.97 157.55 2112.95 157.55 Q2111.06 157.55 2109.13 156.586 Q2107.23 155.623 2106.02 153.307 Q2104.13 149.844 2104.13 143.203 M2107.62 142.691 Q2107.62 149.024 2108.07 151.545 Q2108.58 154.27 2109.97 155.459 Q2111.39 156.627 2112.95 156.627 Q2114.63 156.627 2116.02 155.377 Q2117.43 154.107 2117.86 151.381 Q2118.34 148.696 2118.32 142.691 Q2118.32 136.85 2117.91 134.514 Q2117.35 131.788 2115.88 130.702 Q2114.42 129.595 2112.95 129.595 Q2112.39 129.595 2111.8 129.759 Q2111.22 129.923 2110.38 130.394 Q2109.54 130.866 2108.89 132.034 Q2108.25 133.202 2107.94 134.965 Q2107.62 137.239 2107.62 142.691 Z" fill="#000000" fill-rule="evenodd" fill-opacity="1" /><path clip-path="url(#clip130)" d="M 0 0 M2125.51 155.951 Q2124.91 155.275 2124.91 154.393 Q2124.91 153.512 2125.49 152.856 Q2126.08 152.18 2127.15 152.18 Q2128.4 152.18 2129.12 153.389 Q2129.83 154.578 2129.83 156.586 Q2129.83 158.759 2128.95 160.767 Q2128.07 162.796 2127.21 163.76 Q2126.35 164.723 2126 164.723 Q2125.59 164.723 2125.59 164.272 Q2125.59 164.108 2125.88 163.801 Q2128.89 160.562 2128.91 156.586 Q2128.91 155.951 2128.83 155.951 L2128.73 156.033 Q2128.01 156.627 2127.15 156.627 Q2126.1 156.627 2125.51 155.951 Z" fill="#000000" fill-rule="evenodd" fill-opacity="1" /><path clip-path="url(#clip130)" d="M 0 0 M2163.67 150.622 Q2163.16 153.143 2162.12 154.906 Q2160.82 157.099 2158.86 157.099 Q2157.2 157.099 2156.09 155.951 Q2154.98 154.783 2154.98 152.938 Q2154.98 152.385 2155.21 151.463 Q2155.29 151.053 2155.29 150.54 Q2155.29 147.22 2148.1 146.974 Q2147.5 149.331 2147.09 150.93 Q2146.7 152.508 2146.58 152.979 Q2146.46 153.451 2146.35 153.84 Q2146.27 154.23 2146.13 154.742 Q2145.92 155.582 2145.78 155.992 Q2145.64 156.402 2145.25 156.75 Q2144.88 157.099 2144.28 157.099 Q2143.77 157.099 2143.42 156.791 Q2143.08 156.484 2143.08 155.951 Q2143.08 155.582 2143.24 154.988 L2147.09 139.596 Q2147.2 139.166 2147.4 138.859 Q2147.6 138.551 2147.79 138.408 Q2147.99 138.264 2148.24 138.182 Q2148.49 138.1 2148.59 138.1 Q2148.69 138.08 2148.77 138.08 Q2149.33 138.08 2149.65 138.387 Q2150 138.674 2150 139.207 Q2150 139.289 2149.86 139.863 Q2149.74 140.416 2149.53 141.256 Q2149.33 142.097 2149.24 142.486 L2148.4 145.765 Q2149.57 145.376 2150.62 144.679 Q2151.68 143.982 2153.77 142.179 Q2154.74 141.379 2155.31 140.928 Q2155.91 140.457 2156.89 139.822 Q2157.87 139.166 2158.82 138.859 Q2159.76 138.531 2160.66 138.531 Q2161.36 138.531 2161.77 138.859 Q2162.18 139.166 2162.26 139.453 Q2162.34 139.719 2162.34 140.006 Q2162.34 140.847 2161.68 141.564 Q2161.03 142.281 2160.07 142.281 Q2159.2 142.281 2158.84 141.81 Q2158.47 141.338 2158.47 140.806 Q2158.47 140.396 2158.67 139.883 Q2157.52 140.375 2156.54 141.092 Q2155.56 141.789 2153.86 143.244 Q2151.44 145.314 2150 146.093 Q2150.82 146.114 2151.44 146.175 Q2152.07 146.216 2153.14 146.36 Q2154.2 146.503 2154.98 146.81 Q2155.76 147.097 2156.52 147.548 Q2157.3 147.999 2157.71 148.737 Q2158.14 149.475 2158.14 150.418 Q2158.14 150.868 2157.93 151.791 Q2157.59 153.307 2157.59 154.148 Q2157.59 155.213 2157.91 155.685 Q2158.26 156.156 2158.94 156.156 Q2160.23 156.156 2161.05 154.824 Q2161.89 153.471 2162.59 150.971 Q2162.69 150.499 2162.79 150.356 Q2162.89 150.213 2163.18 150.213 Q2163.67 150.213 2163.67 150.622 Z" fill="#000000" fill-rule="evenodd" fill-opacity="1" /><path clip-path="url(#clip130)" d="M 0 0 M2178.65 150.254 Q2178.69 149.741 2179.49 149.741 L2205.21 149.741 Q2206.42 149.741 2206.44 150.213 Q2206.44 150.725 2205.29 150.704 L2179.78 150.704 Q2178.65 150.725 2178.65 150.254 M2178.65 142.056 Q2178.65 141.543 2179.53 141.564 L2205.17 141.564 Q2206.42 141.564 2206.44 142.056 Q2206.44 142.527 2205.37 142.527 L2179.49 142.527 Q2178.65 142.527 2178.65 142.056 Z" fill="#000000" fill-rule="evenodd" fill-opacity="1" /><path clip-path="url(#clip130)" d="M 0 0 M2222.62 150.971 Q2222.62 149.721 2223.34 149.126 Q2224.06 148.532 2224.98 148.532 Q2225.94 148.532 2226.62 149.167 Q2227.32 149.782 2227.32 150.868 Q2227.32 152.037 2226.5 152.692 Q2225.7 153.348 2224.55 153.184 Q2225.55 154.865 2227.4 155.623 Q2229.26 156.381 2230.98 156.381 Q2232.79 156.381 2234.24 154.824 Q2235.72 153.266 2235.72 149.454 Q2235.72 146.216 2234.45 144.351 Q2233.2 142.486 2230.72 142.486 L2228.87 142.486 Q2228.24 142.486 2228.05 142.425 Q2227.87 142.363 2227.87 142.015 Q2227.87 141.605 2228.5 141.523 Q2229.14 141.523 2230.14 141.4 Q2232.58 141.318 2233.87 139.207 Q2235.04 137.239 2235.04 134.432 Q2235.04 131.87 2233.81 130.804 Q2232.6 129.718 2231.03 129.718 Q2229.55 129.718 2227.93 130.333 Q2226.31 130.948 2225.43 132.321 Q2228.03 132.321 2228.03 134.432 Q2228.03 135.354 2227.44 135.969 Q2226.86 136.563 2225.9 136.563 Q2224.98 136.563 2224.36 135.989 Q2223.75 135.395 2223.75 134.391 Q2223.75 131.993 2225.88 130.333 Q2228.03 128.673 2231.19 128.673 Q2234.3 128.673 2236.6 130.312 Q2238.92 131.952 2238.92 134.473 Q2238.92 136.953 2237.28 138.981 Q2235.64 141.01 2233.03 141.851 Q2236.23 142.486 2238.14 144.659 Q2240.04 146.81 2240.04 149.454 Q2240.04 152.733 2237.46 155.152 Q2234.88 157.55 2231.11 157.55 Q2227.62 157.55 2225.12 155.664 Q2222.62 153.779 2222.62 150.971 Z" fill="#000000" fill-rule="evenodd" fill-opacity="1" /><polyline clip-path="url(#clip130)" style="stroke:#3300cc; stroke-width:3.5; stroke-opacity:1; fill:none" points="
  1859.71,199.493 2000.74,199.493 
  "/>
<path clip-path="url(#clip130)" d="M 0 0 M2052.79 181.593 Q2052.79 181.982 2052.71 182.31 L2051.56 189.606 Q2051.5 190.159 2051.38 190.364 Q2051.27 190.569 2050.95 190.569 Q2050.43 190.569 2050.43 190.036 Q2050.43 189.729 2050.56 189.237 Q2050.9 186.921 2050.9 185.876 Q2050.9 185.179 2050.76 184.667 Q2050.64 184.134 2050.43 183.765 Q2050.25 183.396 2049.82 183.15 Q2049.39 182.904 2048.98 182.761 Q2048.57 182.617 2047.83 182.556 Q2047.09 182.474 2046.46 182.453 Q2045.82 182.433 2044.78 182.433 Q2042.5 182.433 2042.13 182.515 Q2041.74 182.617 2041.54 182.925 Q2041.35 183.212 2041.15 184.073 L2035.57 206.35 L2035.41 207.231 Q2035.41 207.723 2035.72 207.887 Q2036.03 208.051 2036.97 208.154 Q2038.32 208.256 2039.65 208.256 Q2039.69 208.256 2039.78 208.256 Q2040.23 208.256 2040.41 208.277 Q2040.6 208.277 2040.78 208.318 Q2040.96 208.359 2041.01 208.461 Q2041.07 208.543 2041.07 208.707 Q2041.07 209.096 2040.9 209.301 Q2040.74 209.486 2040.58 209.527 Q2040.43 209.547 2040.14 209.547 Q2039.57 209.547 2038.34 209.506 Q2037.11 209.465 2036.5 209.465 L2033.01 209.424 L2029.45 209.465 Q2028.89 209.465 2027.73 209.506 Q2026.56 209.547 2026 209.547 Q2025.29 209.547 2025.29 209.035 Q2025.29 208.461 2025.55 208.359 Q2025.84 208.256 2027.05 208.256 Q2028.75 208.256 2029.67 208.174 Q2030.59 208.092 2031.09 207.805 Q2031.6 207.518 2031.74 207.231 Q2031.89 206.924 2032.05 206.227 L2037.69 183.827 Q2037.85 183.335 2037.85 182.945 Q2037.85 182.74 2037.79 182.658 Q2037.75 182.576 2037.48 182.515 Q2037.21 182.433 2036.66 182.433 L2035.02 182.433 Q2033.34 182.433 2032.3 182.515 Q2031.27 182.576 2030.29 182.884 Q2029.32 183.191 2028.75 183.622 Q2028.2 184.052 2027.58 184.933 Q2026.97 185.815 2026.52 186.88 Q2026.09 187.946 2025.47 189.688 Q2025.27 190.262 2025.14 190.426 Q2025.04 190.569 2024.75 190.569 Q2024.55 190.569 2024.38 190.446 Q2024.24 190.303 2024.24 190.118 Q2024.45 189.442 2024.49 189.36 L2027.01 181.962 Q2027.21 181.367 2027.4 181.265 Q2027.6 181.142 2028.36 181.142 L2051.64 181.142 Q2052.01 181.142 2052.13 181.142 Q2052.26 181.142 2052.46 181.183 Q2052.67 181.224 2052.73 181.326 Q2052.79 181.429 2052.79 181.593 Z" fill="#000000" fill-rule="evenodd" fill-opacity="1" /><path clip-path="url(#clip130)" d="M 0 0 M2060.16 203.174 Q2060.2 202.661 2061 202.661 L2086.72 202.661 Q2087.93 202.661 2087.95 203.133 Q2087.95 203.645 2086.8 203.624 L2061.29 203.624 Q2060.16 203.645 2060.16 203.174 M2060.16 194.976 Q2060.16 194.463 2061.04 194.484 L2086.68 194.484 Q2087.93 194.484 2087.95 194.976 Q2087.95 195.447 2086.88 195.447 L2061 195.447 Q2060.16 195.447 2060.16 194.976 Z" fill="#000000" fill-rule="evenodd" fill-opacity="1" /><path clip-path="url(#clip130)" d="M 0 0 M2104.13 203.215 Q2104.13 198.521 2110.18 195.488 Q2107.58 193.726 2107.1 193.213 Q2105.26 191.164 2105.26 188.602 Q2105.26 185.671 2107.47 183.642 Q2109.71 181.593 2112.86 181.593 Q2115.88 181.593 2118.15 183.335 Q2120.43 185.077 2120.43 187.844 Q2120.43 191.738 2115.34 194.361 Q2118.7 196.451 2119.5 197.333 Q2121.55 199.607 2121.55 202.497 Q2121.55 205.858 2118.97 208.174 Q2116.39 210.47 2112.82 210.47 Q2109.34 210.47 2106.74 208.441 Q2104.13 206.412 2104.13 203.215 M2106.22 203.215 Q2106.22 205.817 2108.17 207.559 Q2110.14 209.301 2112.86 209.301 Q2115.51 209.301 2117.47 207.785 Q2119.46 206.268 2119.46 204.014 Q2119.46 203.133 2119.16 202.374 Q2118.87 201.616 2118.27 201.022 Q2117.7 200.407 2117.33 200.14 Q2116.98 199.853 2116.31 199.382 L2111.14 196.123 Q2106.22 198.849 2106.22 203.215 M2107.1 186.962 Q2107.1 188.971 2109.22 190.364 L2114.42 193.726 Q2118.58 191.287 2118.58 187.844 Q2118.58 185.61 2116.88 184.134 Q2115.18 182.638 2112.82 182.638 Q2110.51 182.638 2108.81 183.868 Q2107.1 185.077 2107.1 186.962 Z" fill="#000000" fill-rule="evenodd" fill-opacity="1" /><path clip-path="url(#clip130)" d="M 0 0 M2124.91 196.123 Q2124.91 189.955 2126.47 186.593 Q2128.64 181.593 2133.77 181.593 Q2134.85 181.593 2135.98 181.9 Q2137.13 182.187 2138.56 183.314 Q2140.02 184.441 2140.9 186.286 Q2142.58 189.852 2142.58 196.123 Q2142.58 202.251 2141.02 205.592 Q2138.75 210.47 2133.73 210.47 Q2131.84 210.47 2129.91 209.506 Q2128.01 208.543 2126.8 206.227 Q2124.91 202.764 2124.91 196.123 M2128.4 195.611 Q2128.4 201.944 2128.85 204.465 Q2129.36 207.19 2130.76 208.379 Q2132.17 209.547 2133.73 209.547 Q2135.41 209.547 2136.8 208.297 Q2138.22 207.027 2138.65 204.301 Q2139.12 201.616 2139.1 195.611 Q2139.1 189.77 2138.69 187.434 Q2138.13 184.708 2136.66 183.622 Q2135.2 182.515 2133.73 182.515 Q2133.17 182.515 2132.58 182.679 Q2132.01 182.843 2131.17 183.314 Q2130.32 183.786 2129.67 184.954 Q2129.03 186.122 2128.73 187.885 Q2128.4 190.159 2128.4 195.611 Z" fill="#000000" fill-rule="evenodd" fill-opacity="1" /><path clip-path="url(#clip130)" d="M 0 0 M2146.29 208.871 Q2145.7 208.195 2145.7 207.313 Q2145.7 206.432 2146.27 205.776 Q2146.86 205.1 2147.93 205.1 Q2149.18 205.1 2149.9 206.309 Q2150.61 207.498 2150.61 209.506 Q2150.61 211.679 2149.73 213.687 Q2148.85 215.716 2147.99 216.68 Q2147.13 217.643 2146.78 217.643 Q2146.37 217.643 2146.37 217.192 Q2146.37 217.028 2146.66 216.721 Q2149.67 213.482 2149.69 209.506 Q2149.69 208.871 2149.61 208.871 L2149.51 208.953 Q2148.79 209.547 2147.93 209.547 Q2146.88 209.547 2146.29 208.871 Z" fill="#000000" fill-rule="evenodd" fill-opacity="1" /><path clip-path="url(#clip130)" d="M 0 0 M2184.45 203.542 Q2183.94 206.063 2182.9 207.826 Q2181.61 210.019 2179.64 210.019 Q2177.98 210.019 2176.87 208.871 Q2175.76 207.703 2175.76 205.858 Q2175.76 205.305 2175.99 204.383 Q2176.07 203.973 2176.07 203.46 Q2176.07 200.14 2168.88 199.894 Q2168.28 202.251 2167.87 203.85 Q2167.48 205.428 2167.36 205.899 Q2167.24 206.371 2167.14 206.76 Q2167.05 207.15 2166.91 207.662 Q2166.71 208.502 2166.56 208.912 Q2166.42 209.322 2166.03 209.67 Q2165.66 210.019 2165.07 210.019 Q2164.55 210.019 2164.21 209.711 Q2163.86 209.404 2163.86 208.871 Q2163.86 208.502 2164.02 207.908 L2167.87 192.516 Q2167.98 192.086 2168.18 191.779 Q2168.39 191.471 2168.57 191.328 Q2168.78 191.184 2169.02 191.102 Q2169.27 191.02 2169.37 191.02 Q2169.47 191 2169.55 191 Q2170.11 191 2170.44 191.307 Q2170.78 191.594 2170.78 192.127 Q2170.78 192.209 2170.64 192.783 Q2170.52 193.336 2170.31 194.176 Q2170.11 195.017 2170.03 195.406 L2169.19 198.685 Q2170.35 198.296 2171.4 197.599 Q2172.46 196.902 2174.56 195.099 Q2175.52 194.299 2176.09 193.848 Q2176.69 193.377 2177.67 192.742 Q2178.65 192.086 2179.6 191.779 Q2180.54 191.451 2181.44 191.451 Q2182.14 191.451 2182.55 191.779 Q2182.96 192.086 2183.04 192.373 Q2183.12 192.639 2183.12 192.926 Q2183.12 193.767 2182.47 194.484 Q2181.81 195.201 2180.85 195.201 Q2179.99 195.201 2179.62 194.73 Q2179.25 194.258 2179.25 193.726 Q2179.25 193.316 2179.45 192.803 Q2178.31 193.295 2177.32 194.012 Q2176.34 194.709 2174.64 196.164 Q2172.22 198.234 2170.78 199.013 Q2171.6 199.034 2172.22 199.095 Q2172.85 199.136 2173.92 199.28 Q2174.99 199.423 2175.76 199.73 Q2176.54 200.017 2177.3 200.468 Q2178.08 200.919 2178.49 201.657 Q2178.92 202.395 2178.92 203.338 Q2178.92 203.788 2178.72 204.711 Q2178.37 206.227 2178.37 207.068 Q2178.37 208.133 2178.7 208.605 Q2179.04 209.076 2179.72 209.076 Q2181.01 209.076 2181.83 207.744 Q2182.67 206.391 2183.37 203.891 Q2183.47 203.419 2183.57 203.276 Q2183.68 203.133 2183.96 203.133 Q2184.45 203.133 2184.45 203.542 Z" fill="#000000" fill-rule="evenodd" fill-opacity="1" /><path clip-path="url(#clip130)" d="M 0 0 M2199.43 203.174 Q2199.47 202.661 2200.27 202.661 L2225.99 202.661 Q2227.2 202.661 2227.22 203.133 Q2227.22 203.645 2226.07 203.624 L2200.56 203.624 Q2199.43 203.645 2199.43 203.174 M2199.43 194.976 Q2199.43 194.463 2200.31 194.484 L2225.95 194.484 Q2227.2 194.484 2227.22 194.976 Q2227.22 195.447 2226.15 195.447 L2200.27 195.447 Q2199.43 195.447 2199.43 194.976 Z" fill="#000000" fill-rule="evenodd" fill-opacity="1" /><path clip-path="url(#clip130)" d="M 0 0 M2243.4 203.891 Q2243.4 202.641 2244.12 202.046 Q2244.84 201.452 2245.76 201.452 Q2246.72 201.452 2247.4 202.087 Q2248.1 202.702 2248.1 203.788 Q2248.1 204.957 2247.28 205.612 Q2246.48 206.268 2245.33 206.104 Q2246.33 207.785 2248.18 208.543 Q2250.04 209.301 2251.77 209.301 Q2253.57 209.301 2255.02 207.744 Q2256.5 206.186 2256.5 202.374 Q2256.5 199.136 2255.23 197.271 Q2253.98 195.406 2251.5 195.406 L2249.65 195.406 Q2249.02 195.406 2248.83 195.345 Q2248.65 195.283 2248.65 194.935 Q2248.65 194.525 2249.29 194.443 Q2249.92 194.443 2250.93 194.32 Q2253.36 194.238 2254.66 192.127 Q2255.82 190.159 2255.82 187.352 Q2255.82 184.79 2254.59 183.724 Q2253.38 182.638 2251.81 182.638 Q2250.33 182.638 2248.71 183.253 Q2247.09 183.868 2246.21 185.241 Q2248.81 185.241 2248.81 187.352 Q2248.81 188.274 2248.22 188.889 Q2247.65 189.483 2246.68 189.483 Q2245.76 189.483 2245.15 188.909 Q2244.53 188.315 2244.53 187.311 Q2244.53 184.913 2246.66 183.253 Q2248.81 181.593 2251.97 181.593 Q2255.09 181.593 2257.38 183.232 Q2259.7 184.872 2259.7 187.393 Q2259.7 189.873 2258.06 191.901 Q2256.42 193.93 2253.82 194.771 Q2257.01 195.406 2258.92 197.579 Q2260.82 199.73 2260.82 202.374 Q2260.82 205.653 2258.24 208.072 Q2255.66 210.47 2251.89 210.47 Q2248.4 210.47 2245.9 208.584 Q2243.4 206.699 2243.4 203.891 Z" fill="#000000" fill-rule="evenodd" fill-opacity="1" /><polyline clip-path="url(#clip130)" style="stroke:#660099; stroke-width:3.5; stroke-opacity:1; fill:none" stroke-dasharray="14, 9" points="
  1859.71,252.413 2000.74,252.413 
  "/>
<path clip-path="url(#clip130)" d="M 0 0 M2052.79 234.513 Q2052.79 234.902 2052.71 235.23 L2051.56 242.526 Q2051.5 243.079 2051.38 243.284 Q2051.27 243.489 2050.95 243.489 Q2050.43 243.489 2050.43 242.956 Q2050.43 242.649 2050.56 242.157 Q2050.9 239.841 2050.9 238.796 Q2050.9 238.099 2050.76 237.587 Q2050.64 237.054 2050.43 236.685 Q2050.25 236.316 2049.82 236.07 Q2049.39 235.824 2048.98 235.681 Q2048.57 235.537 2047.83 235.476 Q2047.09 235.394 2046.46 235.373 Q2045.82 235.353 2044.78 235.353 Q2042.5 235.353 2042.13 235.435 Q2041.74 235.537 2041.54 235.845 Q2041.35 236.132 2041.15 236.993 L2035.57 259.27 L2035.41 260.151 Q2035.41 260.643 2035.72 260.807 Q2036.03 260.971 2036.97 261.074 Q2038.32 261.176 2039.65 261.176 Q2039.69 261.176 2039.78 261.176 Q2040.23 261.176 2040.41 261.197 Q2040.6 261.197 2040.78 261.238 Q2040.96 261.279 2041.01 261.381 Q2041.07 261.463 2041.07 261.627 Q2041.07 262.016 2040.9 262.221 Q2040.74 262.406 2040.58 262.447 Q2040.43 262.467 2040.14 262.467 Q2039.57 262.467 2038.34 262.426 Q2037.11 262.385 2036.5 262.385 L2033.01 262.344 L2029.45 262.385 Q2028.89 262.385 2027.73 262.426 Q2026.56 262.467 2026 262.467 Q2025.29 262.467 2025.29 261.955 Q2025.29 261.381 2025.55 261.279 Q2025.84 261.176 2027.05 261.176 Q2028.75 261.176 2029.67 261.094 Q2030.59 261.012 2031.09 260.725 Q2031.6 260.438 2031.74 260.151 Q2031.89 259.844 2032.05 259.147 L2037.69 236.747 Q2037.85 236.255 2037.85 235.865 Q2037.85 235.66 2037.79 235.578 Q2037.75 235.496 2037.48 235.435 Q2037.21 235.353 2036.66 235.353 L2035.02 235.353 Q2033.34 235.353 2032.3 235.435 Q2031.27 235.496 2030.29 235.804 Q2029.32 236.111 2028.75 236.542 Q2028.2 236.972 2027.58 237.853 Q2026.97 238.735 2026.52 239.8 Q2026.09 240.866 2025.47 242.608 Q2025.27 243.182 2025.14 243.346 Q2025.04 243.489 2024.75 243.489 Q2024.55 243.489 2024.38 243.366 Q2024.24 243.223 2024.24 243.038 Q2024.45 242.362 2024.49 242.28 L2027.01 234.882 Q2027.21 234.287 2027.4 234.185 Q2027.6 234.062 2028.36 234.062 L2051.64 234.062 Q2052.01 234.062 2052.13 234.062 Q2052.26 234.062 2052.46 234.103 Q2052.67 234.144 2052.73 234.246 Q2052.79 234.349 2052.79 234.513 Z" fill="#000000" fill-rule="evenodd" fill-opacity="1" /><path clip-path="url(#clip130)" d="M 0 0 M2060.16 256.094 Q2060.2 255.581 2061 255.581 L2086.72 255.581 Q2087.93 255.581 2087.95 256.053 Q2087.95 256.565 2086.8 256.544 L2061.29 256.544 Q2060.16 256.565 2060.16 256.094 M2060.16 247.896 Q2060.16 247.383 2061.04 247.404 L2086.68 247.404 Q2087.93 247.404 2087.95 247.896 Q2087.95 248.367 2086.88 248.367 L2061 248.367 Q2060.16 248.367 2060.16 247.896 Z" fill="#000000" fill-rule="evenodd" fill-opacity="1" /><path clip-path="url(#clip130)" d="M 0 0 M2104.13 249.043 Q2104.13 242.875 2105.69 239.513 Q2107.86 234.513 2112.99 234.513 Q2114.07 234.513 2115.2 234.82 Q2116.35 235.107 2117.78 236.234 Q2119.24 237.361 2120.12 239.206 Q2121.8 242.772 2121.8 249.043 Q2121.8 255.171 2120.24 258.512 Q2117.97 263.39 2112.95 263.39 Q2111.06 263.39 2109.13 262.426 Q2107.23 261.463 2106.02 259.147 Q2104.13 255.684 2104.13 249.043 M2107.62 248.531 Q2107.62 254.864 2108.07 257.385 Q2108.58 260.11 2109.97 261.299 Q2111.39 262.467 2112.95 262.467 Q2114.63 262.467 2116.02 261.217 Q2117.43 259.947 2117.86 257.221 Q2118.34 254.536 2118.32 248.531 Q2118.32 242.69 2117.91 240.354 Q2117.35 237.628 2115.88 236.542 Q2114.42 235.435 2112.95 235.435 Q2112.39 235.435 2111.8 235.599 Q2111.22 235.763 2110.38 236.234 Q2109.54 236.706 2108.89 237.874 Q2108.25 239.042 2107.94 240.805 Q2107.62 243.079 2107.62 248.531 Z" fill="#000000" fill-rule="evenodd" fill-opacity="1" /><path clip-path="url(#clip130)" d="M 0 0 M2125.51 261.791 Q2124.91 261.115 2124.91 260.233 Q2124.91 259.352 2125.49 258.696 Q2126.08 258.02 2127.15 258.02 Q2128.4 258.02 2129.12 259.229 Q2129.83 260.418 2129.83 262.426 Q2129.83 264.599 2128.95 266.607 Q2128.07 268.636 2127.21 269.6 Q2126.35 270.563 2126 270.563 Q2125.59 270.563 2125.59 270.112 Q2125.59 269.948 2125.88 269.641 Q2128.89 266.402 2128.91 262.426 Q2128.91 261.791 2128.83 261.791 L2128.73 261.873 Q2128.01 262.467 2127.15 262.467 Q2126.1 262.467 2125.51 261.791 Z" fill="#000000" fill-rule="evenodd" fill-opacity="1" /><path clip-path="url(#clip130)" d="M 0 0 M2163.67 256.462 Q2163.16 258.983 2162.12 260.746 Q2160.82 262.939 2158.86 262.939 Q2157.2 262.939 2156.09 261.791 Q2154.98 260.623 2154.98 258.778 Q2154.98 258.225 2155.21 257.303 Q2155.29 256.893 2155.29 256.38 Q2155.29 253.06 2148.1 252.814 Q2147.5 255.171 2147.09 256.77 Q2146.7 258.348 2146.58 258.819 Q2146.46 259.291 2146.35 259.68 Q2146.27 260.07 2146.13 260.582 Q2145.92 261.422 2145.78 261.832 Q2145.64 262.242 2145.25 262.59 Q2144.88 262.939 2144.28 262.939 Q2143.77 262.939 2143.42 262.631 Q2143.08 262.324 2143.08 261.791 Q2143.08 261.422 2143.24 260.828 L2147.09 245.436 Q2147.2 245.006 2147.4 244.699 Q2147.6 244.391 2147.79 244.248 Q2147.99 244.104 2148.24 244.022 Q2148.49 243.94 2148.59 243.94 Q2148.69 243.92 2148.77 243.92 Q2149.33 243.92 2149.65 244.227 Q2150 244.514 2150 245.047 Q2150 245.129 2149.86 245.703 Q2149.74 246.256 2149.53 247.096 Q2149.33 247.937 2149.24 248.326 L2148.4 251.605 Q2149.57 251.216 2150.62 250.519 Q2151.68 249.822 2153.77 248.019 Q2154.74 247.219 2155.31 246.768 Q2155.91 246.297 2156.89 245.662 Q2157.87 245.006 2158.82 244.699 Q2159.76 244.371 2160.66 244.371 Q2161.36 244.371 2161.77 244.699 Q2162.18 245.006 2162.26 245.293 Q2162.34 245.559 2162.34 245.846 Q2162.34 246.687 2161.68 247.404 Q2161.03 248.121 2160.07 248.121 Q2159.2 248.121 2158.84 247.65 Q2158.47 247.178 2158.47 246.646 Q2158.47 246.236 2158.67 245.723 Q2157.52 246.215 2156.54 246.932 Q2155.56 247.629 2153.86 249.084 Q2151.44 251.154 2150 251.933 Q2150.82 251.954 2151.44 252.015 Q2152.07 252.056 2153.14 252.2 Q2154.2 252.343 2154.98 252.65 Q2155.76 252.937 2156.52 253.388 Q2157.3 253.839 2157.71 254.577 Q2158.14 255.315 2158.14 256.258 Q2158.14 256.708 2157.93 257.631 Q2157.59 259.147 2157.59 259.988 Q2157.59 261.053 2157.91 261.525 Q2158.26 261.996 2158.94 261.996 Q2160.23 261.996 2161.05 260.664 Q2161.89 259.311 2162.59 256.811 Q2162.69 256.339 2162.79 256.196 Q2162.89 256.053 2163.18 256.053 Q2163.67 256.053 2163.67 256.462 Z" fill="#000000" fill-rule="evenodd" fill-opacity="1" /><path clip-path="url(#clip130)" d="M 0 0 M2178.65 256.094 Q2178.69 255.581 2179.49 255.581 L2205.21 255.581 Q2206.42 255.581 2206.44 256.053 Q2206.44 256.565 2205.29 256.544 L2179.78 256.544 Q2178.65 256.565 2178.65 256.094 M2178.65 247.896 Q2178.65 247.383 2179.53 247.404 L2205.17 247.404 Q2206.42 247.404 2206.44 247.896 Q2206.44 248.367 2205.37 248.367 L2179.49 248.367 Q2178.65 248.367 2178.65 247.896 Z" fill="#000000" fill-rule="evenodd" fill-opacity="1" /><path clip-path="url(#clip130)" d="M 0 0 M2222.62 256.811 Q2222.62 255.561 2223.34 254.966 Q2224.06 254.372 2224.98 254.372 Q2225.94 254.372 2226.62 255.007 Q2227.32 255.622 2227.32 256.708 Q2227.32 257.877 2226.5 258.532 Q2225.7 259.188 2224.55 259.024 Q2225.55 260.705 2227.4 261.463 Q2229.26 262.221 2230.98 262.221 Q2232.79 262.221 2234.24 260.664 Q2235.72 259.106 2235.72 255.294 Q2235.72 252.056 2234.45 250.191 Q2233.2 248.326 2230.72 248.326 L2228.87 248.326 Q2228.24 248.326 2228.05 248.265 Q2227.87 248.203 2227.87 247.855 Q2227.87 247.445 2228.5 247.363 Q2229.14 247.363 2230.14 247.24 Q2232.58 247.158 2233.87 245.047 Q2235.04 243.079 2235.04 240.272 Q2235.04 237.71 2233.81 236.644 Q2232.6 235.558 2231.03 235.558 Q2229.55 235.558 2227.93 236.173 Q2226.31 236.788 2225.43 238.161 Q2228.03 238.161 2228.03 240.272 Q2228.03 241.194 2227.44 241.809 Q2226.86 242.403 2225.9 242.403 Q2224.98 242.403 2224.36 241.829 Q2223.75 241.235 2223.75 240.231 Q2223.75 237.833 2225.88 236.173 Q2228.03 234.513 2231.19 234.513 Q2234.3 234.513 2236.6 236.152 Q2238.92 237.792 2238.92 240.313 Q2238.92 242.793 2237.28 244.821 Q2235.64 246.85 2233.03 247.691 Q2236.23 248.326 2238.14 250.499 Q2240.04 252.65 2240.04 255.294 Q2240.04 258.573 2237.46 260.992 Q2234.88 263.39 2231.11 263.39 Q2227.62 263.39 2225.12 261.504 Q2222.62 259.619 2222.62 256.811 Z" fill="#000000" fill-rule="evenodd" fill-opacity="1" /><path clip-path="url(#clip130)" d="M 0 0 M2243.4 249.043 Q2243.4 242.875 2244.96 239.513 Q2247.13 234.513 2252.26 234.513 Q2253.34 234.513 2254.47 234.82 Q2255.62 235.107 2257.05 236.234 Q2258.51 237.361 2259.39 239.206 Q2261.07 242.772 2261.07 249.043 Q2261.07 255.171 2259.51 258.512 Q2257.24 263.39 2252.22 263.39 Q2250.33 263.39 2248.4 262.426 Q2246.5 261.463 2245.29 259.147 Q2243.4 255.684 2243.4 249.043 M2246.89 248.531 Q2246.89 254.864 2247.34 257.385 Q2247.85 260.11 2249.24 261.299 Q2250.66 262.467 2252.22 262.467 Q2253.9 262.467 2255.29 261.217 Q2256.7 259.947 2257.14 257.221 Q2257.61 254.536 2257.59 248.531 Q2257.59 242.69 2257.18 240.354 Q2256.62 237.628 2255.15 236.542 Q2253.69 235.435 2252.22 235.435 Q2251.66 235.435 2251.07 235.599 Q2250.49 235.763 2249.65 236.234 Q2248.81 236.706 2248.16 237.874 Q2247.52 239.042 2247.22 240.805 Q2246.89 243.079 2246.89 248.531 Z" fill="#000000" fill-rule="evenodd" fill-opacity="1" /><polyline clip-path="url(#clip130)" style="stroke:#990066; stroke-width:3.5; stroke-opacity:1; fill:none" points="
  1859.71,305.333 2000.74,305.333 
  "/>
<path clip-path="url(#clip130)" d="M 0 0 M2052.79 287.433 Q2052.79 287.822 2052.71 288.15 L2051.56 295.446 Q2051.5 295.999 2051.38 296.204 Q2051.27 296.409 2050.95 296.409 Q2050.43 296.409 2050.43 295.876 Q2050.43 295.569 2050.56 295.077 Q2050.9 292.761 2050.9 291.716 Q2050.9 291.019 2050.76 290.507 Q2050.64 289.974 2050.43 289.605 Q2050.25 289.236 2049.82 288.99 Q2049.39 288.744 2048.98 288.601 Q2048.57 288.457 2047.83 288.396 Q2047.09 288.314 2046.46 288.293 Q2045.82 288.273 2044.78 288.273 Q2042.5 288.273 2042.13 288.355 Q2041.74 288.457 2041.54 288.765 Q2041.35 289.052 2041.15 289.913 L2035.57 312.19 L2035.41 313.071 Q2035.41 313.563 2035.72 313.727 Q2036.03 313.891 2036.97 313.994 Q2038.32 314.096 2039.65 314.096 Q2039.69 314.096 2039.78 314.096 Q2040.23 314.096 2040.41 314.117 Q2040.6 314.117 2040.78 314.158 Q2040.96 314.199 2041.01 314.301 Q2041.07 314.383 2041.07 314.547 Q2041.07 314.936 2040.9 315.141 Q2040.74 315.326 2040.58 315.367 Q2040.43 315.387 2040.14 315.387 Q2039.57 315.387 2038.34 315.346 Q2037.11 315.305 2036.5 315.305 L2033.01 315.264 L2029.45 315.305 Q2028.89 315.305 2027.73 315.346 Q2026.56 315.387 2026 315.387 Q2025.29 315.387 2025.29 314.875 Q2025.29 314.301 2025.55 314.199 Q2025.84 314.096 2027.05 314.096 Q2028.75 314.096 2029.67 314.014 Q2030.59 313.932 2031.09 313.645 Q2031.6 313.358 2031.74 313.071 Q2031.89 312.764 2032.05 312.067 L2037.69 289.667 Q2037.85 289.175 2037.85 288.785 Q2037.85 288.58 2037.79 288.498 Q2037.75 288.416 2037.48 288.355 Q2037.21 288.273 2036.66 288.273 L2035.02 288.273 Q2033.34 288.273 2032.3 288.355 Q2031.27 288.416 2030.29 288.724 Q2029.32 289.031 2028.75 289.462 Q2028.2 289.892 2027.58 290.773 Q2026.97 291.655 2026.52 292.72 Q2026.09 293.786 2025.47 295.528 Q2025.27 296.102 2025.14 296.266 Q2025.04 296.409 2024.75 296.409 Q2024.55 296.409 2024.38 296.286 Q2024.24 296.143 2024.24 295.958 Q2024.45 295.282 2024.49 295.2 L2027.01 287.802 Q2027.21 287.207 2027.4 287.105 Q2027.6 286.982 2028.36 286.982 L2051.64 286.982 Q2052.01 286.982 2052.13 286.982 Q2052.26 286.982 2052.46 287.023 Q2052.67 287.064 2052.73 287.166 Q2052.79 287.269 2052.79 287.433 Z" fill="#000000" fill-rule="evenodd" fill-opacity="1" /><path clip-path="url(#clip130)" d="M 0 0 M2060.16 309.014 Q2060.2 308.501 2061 308.501 L2086.72 308.501 Q2087.93 308.501 2087.95 308.973 Q2087.95 309.485 2086.8 309.464 L2061.29 309.464 Q2060.16 309.485 2060.16 309.014 M2060.16 300.816 Q2060.16 300.303 2061.04 300.324 L2086.68 300.324 Q2087.93 300.324 2087.95 300.816 Q2087.95 301.287 2086.88 301.287 L2061 301.287 Q2060.16 301.287 2060.16 300.816 Z" fill="#000000" fill-rule="evenodd" fill-opacity="1" /><path clip-path="url(#clip130)" d="M 0 0 M2104.13 309.055 Q2104.13 304.361 2110.18 301.328 Q2107.58 299.566 2107.1 299.053 Q2105.26 297.004 2105.26 294.442 Q2105.26 291.511 2107.47 289.482 Q2109.71 287.433 2112.86 287.433 Q2115.88 287.433 2118.15 289.175 Q2120.43 290.917 2120.43 293.684 Q2120.43 297.578 2115.34 300.201 Q2118.7 302.291 2119.5 303.173 Q2121.55 305.447 2121.55 308.337 Q2121.55 311.698 2118.97 314.014 Q2116.39 316.31 2112.82 316.31 Q2109.34 316.31 2106.74 314.281 Q2104.13 312.252 2104.13 309.055 M2106.22 309.055 Q2106.22 311.657 2108.17 313.399 Q2110.14 315.141 2112.86 315.141 Q2115.51 315.141 2117.47 313.625 Q2119.46 312.108 2119.46 309.854 Q2119.46 308.973 2119.16 308.214 Q2118.87 307.456 2118.27 306.862 Q2117.7 306.247 2117.33 305.98 Q2116.98 305.693 2116.31 305.222 L2111.14 301.963 Q2106.22 304.689 2106.22 309.055 M2107.1 292.802 Q2107.1 294.811 2109.22 296.204 L2114.42 299.566 Q2118.58 297.127 2118.58 293.684 Q2118.58 291.45 2116.88 289.974 Q2115.18 288.478 2112.82 288.478 Q2110.51 288.478 2108.81 289.708 Q2107.1 290.917 2107.1 292.802 Z" fill="#000000" fill-rule="evenodd" fill-opacity="1" /><path clip-path="url(#clip130)" d="M 0 0 M2124.91 301.963 Q2124.91 295.795 2126.47 292.433 Q2128.64 287.433 2133.77 287.433 Q2134.85 287.433 2135.98 287.74 Q2137.13 288.027 2138.56 289.154 Q2140.02 290.281 2140.9 292.126 Q2142.58 295.692 2142.58 301.963 Q2142.58 308.091 2141.02 311.432 Q2138.75 316.31 2133.73 316.31 Q2131.84 316.31 2129.91 315.346 Q2128.01 314.383 2126.8 312.067 Q2124.91 308.604 2124.91 301.963 M2128.4 301.451 Q2128.4 307.784 2128.85 310.305 Q2129.36 313.03 2130.76 314.219 Q2132.17 315.387 2133.73 315.387 Q2135.41 315.387 2136.8 314.137 Q2138.22 312.867 2138.65 310.141 Q2139.12 307.456 2139.1 301.451 Q2139.1 295.61 2138.69 293.274 Q2138.13 290.548 2136.66 289.462 Q2135.2 288.355 2133.73 288.355 Q2133.17 288.355 2132.58 288.519 Q2132.01 288.683 2131.17 289.154 Q2130.32 289.626 2129.67 290.794 Q2129.03 291.962 2128.73 293.725 Q2128.4 295.999 2128.4 301.451 Z" fill="#000000" fill-rule="evenodd" fill-opacity="1" /><path clip-path="url(#clip130)" d="M 0 0 M2146.29 314.711 Q2145.7 314.035 2145.7 313.153 Q2145.7 312.272 2146.27 311.616 Q2146.86 310.94 2147.93 310.94 Q2149.18 310.94 2149.9 312.149 Q2150.61 313.338 2150.61 315.346 Q2150.61 317.519 2149.73 319.527 Q2148.85 321.556 2147.99 322.52 Q2147.13 323.483 2146.78 323.483 Q2146.37 323.483 2146.37 323.032 Q2146.37 322.868 2146.66 322.561 Q2149.67 319.322 2149.69 315.346 Q2149.69 314.711 2149.61 314.711 L2149.51 314.793 Q2148.79 315.387 2147.93 315.387 Q2146.88 315.387 2146.29 314.711 Z" fill="#000000" fill-rule="evenodd" fill-opacity="1" /><path clip-path="url(#clip130)" d="M 0 0 M2184.45 309.382 Q2183.94 311.903 2182.9 313.666 Q2181.61 315.859 2179.64 315.859 Q2177.98 315.859 2176.87 314.711 Q2175.76 313.543 2175.76 311.698 Q2175.76 311.145 2175.99 310.223 Q2176.07 309.813 2176.07 309.3 Q2176.07 305.98 2168.88 305.734 Q2168.28 308.091 2167.87 309.69 Q2167.48 311.268 2167.36 311.739 Q2167.24 312.211 2167.14 312.6 Q2167.05 312.99 2166.91 313.502 Q2166.71 314.342 2166.56 314.752 Q2166.42 315.162 2166.03 315.51 Q2165.66 315.859 2165.07 315.859 Q2164.55 315.859 2164.21 315.551 Q2163.86 315.244 2163.86 314.711 Q2163.86 314.342 2164.02 313.748 L2167.87 298.356 Q2167.98 297.926 2168.18 297.619 Q2168.39 297.311 2168.57 297.168 Q2168.78 297.024 2169.02 296.942 Q2169.27 296.86 2169.37 296.86 Q2169.47 296.84 2169.55 296.84 Q2170.11 296.84 2170.44 297.147 Q2170.78 297.434 2170.78 297.967 Q2170.78 298.049 2170.64 298.623 Q2170.52 299.176 2170.31 300.016 Q2170.11 300.857 2170.03 301.246 L2169.19 304.525 Q2170.35 304.136 2171.4 303.439 Q2172.46 302.742 2174.56 300.939 Q2175.52 300.139 2176.09 299.688 Q2176.69 299.217 2177.67 298.582 Q2178.65 297.926 2179.6 297.619 Q2180.54 297.291 2181.44 297.291 Q2182.14 297.291 2182.55 297.619 Q2182.96 297.926 2183.04 298.213 Q2183.12 298.479 2183.12 298.766 Q2183.12 299.607 2182.47 300.324 Q2181.81 301.041 2180.85 301.041 Q2179.99 301.041 2179.62 300.57 Q2179.25 300.098 2179.25 299.566 Q2179.25 299.156 2179.45 298.643 Q2178.31 299.135 2177.32 299.852 Q2176.34 300.549 2174.64 302.004 Q2172.22 304.074 2170.78 304.853 Q2171.6 304.874 2172.22 304.935 Q2172.85 304.976 2173.92 305.12 Q2174.99 305.263 2175.76 305.57 Q2176.54 305.857 2177.3 306.308 Q2178.08 306.759 2178.49 307.497 Q2178.92 308.235 2178.92 309.178 Q2178.92 309.628 2178.72 310.551 Q2178.37 312.067 2178.37 312.908 Q2178.37 313.973 2178.7 314.445 Q2179.04 314.916 2179.72 314.916 Q2181.01 314.916 2181.83 313.584 Q2182.67 312.231 2183.37 309.731 Q2183.47 309.259 2183.57 309.116 Q2183.68 308.973 2183.96 308.973 Q2184.45 308.973 2184.45 309.382 Z" fill="#000000" fill-rule="evenodd" fill-opacity="1" /><path clip-path="url(#clip130)" d="M 0 0 M2199.43 309.014 Q2199.47 308.501 2200.27 308.501 L2225.99 308.501 Q2227.2 308.501 2227.22 308.973 Q2227.22 309.485 2226.07 309.464 L2200.56 309.464 Q2199.43 309.485 2199.43 309.014 M2199.43 300.816 Q2199.43 300.303 2200.31 300.324 L2225.95 300.324 Q2227.2 300.324 2227.22 300.816 Q2227.22 301.287 2226.15 301.287 L2200.27 301.287 Q2199.43 301.287 2199.43 300.816 Z" fill="#000000" fill-rule="evenodd" fill-opacity="1" /><path clip-path="url(#clip130)" d="M 0 0 M2243.4 309.731 Q2243.4 308.481 2244.12 307.886 Q2244.84 307.292 2245.76 307.292 Q2246.72 307.292 2247.4 307.927 Q2248.1 308.542 2248.1 309.628 Q2248.1 310.797 2247.28 311.452 Q2246.48 312.108 2245.33 311.944 Q2246.33 313.625 2248.18 314.383 Q2250.04 315.141 2251.77 315.141 Q2253.57 315.141 2255.02 313.584 Q2256.5 312.026 2256.5 308.214 Q2256.5 304.976 2255.23 303.111 Q2253.98 301.246 2251.5 301.246 L2249.65 301.246 Q2249.02 301.246 2248.83 301.185 Q2248.65 301.123 2248.65 300.775 Q2248.65 300.365 2249.29 300.283 Q2249.92 300.283 2250.93 300.16 Q2253.36 300.078 2254.66 297.967 Q2255.82 295.999 2255.82 293.192 Q2255.82 290.63 2254.59 289.564 Q2253.38 288.478 2251.81 288.478 Q2250.33 288.478 2248.71 289.093 Q2247.09 289.708 2246.21 291.081 Q2248.81 291.081 2248.81 293.192 Q2248.81 294.114 2248.22 294.729 Q2247.65 295.323 2246.68 295.323 Q2245.76 295.323 2245.15 294.749 Q2244.53 294.155 2244.53 293.151 Q2244.53 290.753 2246.66 289.093 Q2248.81 287.433 2251.97 287.433 Q2255.09 287.433 2257.38 289.072 Q2259.7 290.712 2259.7 293.233 Q2259.7 295.713 2258.06 297.741 Q2256.42 299.77 2253.82 300.611 Q2257.01 301.246 2258.92 303.419 Q2260.82 305.57 2260.82 308.214 Q2260.82 311.493 2258.24 313.912 Q2255.66 316.31 2251.89 316.31 Q2248.4 316.31 2245.9 314.424 Q2243.4 312.539 2243.4 309.731 Z" fill="#000000" fill-rule="evenodd" fill-opacity="1" /><path clip-path="url(#clip130)" d="M 0 0 M2264.19 301.963 Q2264.19 295.795 2265.74 292.433 Q2267.92 287.433 2273.04 287.433 Q2274.12 287.433 2275.25 287.74 Q2276.4 288.027 2277.83 289.154 Q2279.29 290.281 2280.17 292.126 Q2281.85 295.692 2281.85 301.963 Q2281.85 308.091 2280.29 311.432 Q2278.02 316.31 2273 316.31 Q2271.11 316.31 2269.19 315.346 Q2267.28 314.383 2266.07 312.067 Q2264.19 308.604 2264.19 301.963 M2267.67 301.451 Q2267.67 307.784 2268.12 310.305 Q2268.63 313.03 2270.03 314.219 Q2271.44 315.387 2273 315.387 Q2274.68 315.387 2276.07 314.137 Q2277.49 312.867 2277.92 310.141 Q2278.39 307.456 2278.37 301.451 Q2278.37 295.61 2277.96 293.274 Q2277.4 290.548 2275.93 289.462 Q2274.47 288.355 2273 288.355 Q2272.44 288.355 2271.85 288.519 Q2271.28 288.683 2270.44 289.154 Q2269.6 289.626 2268.94 290.794 Q2268.3 291.962 2268 293.725 Q2267.67 295.999 2267.67 301.451 Z" fill="#000000" fill-rule="evenodd" fill-opacity="1" /><polyline clip-path="url(#clip130)" style="stroke:#cc0033; stroke-width:3.5; stroke-opacity:1; fill:none" stroke-dasharray="14, 9" points="
  1859.71,358.253 2000.74,358.253 
  "/>
<path clip-path="url(#clip130)" d="M 0 0 M2052.79 340.353 Q2052.79 340.742 2052.71 341.07 L2051.56 348.366 Q2051.5 348.919 2051.38 349.124 Q2051.27 349.329 2050.95 349.329 Q2050.43 349.329 2050.43 348.796 Q2050.43 348.489 2050.56 347.997 Q2050.9 345.681 2050.9 344.636 Q2050.9 343.939 2050.76 343.427 Q2050.64 342.894 2050.43 342.525 Q2050.25 342.156 2049.82 341.91 Q2049.39 341.664 2048.98 341.521 Q2048.57 341.377 2047.83 341.316 Q2047.09 341.234 2046.46 341.213 Q2045.82 341.193 2044.78 341.193 Q2042.5 341.193 2042.13 341.275 Q2041.74 341.377 2041.54 341.685 Q2041.35 341.972 2041.15 342.833 L2035.57 365.11 L2035.41 365.991 Q2035.41 366.483 2035.72 366.647 Q2036.03 366.811 2036.97 366.914 Q2038.32 367.016 2039.65 367.016 Q2039.69 367.016 2039.78 367.016 Q2040.23 367.016 2040.41 367.037 Q2040.6 367.037 2040.78 367.078 Q2040.96 367.119 2041.01 367.221 Q2041.07 367.303 2041.07 367.467 Q2041.07 367.856 2040.9 368.061 Q2040.74 368.246 2040.58 368.287 Q2040.43 368.307 2040.14 368.307 Q2039.57 368.307 2038.34 368.266 Q2037.11 368.225 2036.5 368.225 L2033.01 368.184 L2029.45 368.225 Q2028.89 368.225 2027.73 368.266 Q2026.56 368.307 2026 368.307 Q2025.29 368.307 2025.29 367.795 Q2025.29 367.221 2025.55 367.119 Q2025.84 367.016 2027.05 367.016 Q2028.75 367.016 2029.67 366.934 Q2030.59 366.852 2031.09 366.565 Q2031.6 366.278 2031.74 365.991 Q2031.89 365.684 2032.05 364.987 L2037.69 342.587 Q2037.85 342.095 2037.85 341.705 Q2037.85 341.5 2037.79 341.418 Q2037.75 341.336 2037.48 341.275 Q2037.21 341.193 2036.66 341.193 L2035.02 341.193 Q2033.34 341.193 2032.3 341.275 Q2031.27 341.336 2030.29 341.644 Q2029.32 341.951 2028.75 342.382 Q2028.2 342.812 2027.58 343.693 Q2026.97 344.575 2026.52 345.64 Q2026.09 346.706 2025.47 348.448 Q2025.27 349.022 2025.14 349.186 Q2025.04 349.329 2024.75 349.329 Q2024.55 349.329 2024.38 349.206 Q2024.24 349.063 2024.24 348.878 Q2024.45 348.202 2024.49 348.12 L2027.01 340.722 Q2027.21 340.127 2027.4 340.025 Q2027.6 339.902 2028.36 339.902 L2051.64 339.902 Q2052.01 339.902 2052.13 339.902 Q2052.26 339.902 2052.46 339.943 Q2052.67 339.984 2052.73 340.086 Q2052.79 340.189 2052.79 340.353 Z" fill="#000000" fill-rule="evenodd" fill-opacity="1" /><path clip-path="url(#clip130)" d="M 0 0 M2060.16 361.934 Q2060.2 361.421 2061 361.421 L2086.72 361.421 Q2087.93 361.421 2087.95 361.893 Q2087.95 362.405 2086.8 362.384 L2061.29 362.384 Q2060.16 362.405 2060.16 361.934 M2060.16 353.736 Q2060.16 353.223 2061.04 353.244 L2086.68 353.244 Q2087.93 353.244 2087.95 353.736 Q2087.95 354.207 2086.88 354.207 L2061 354.207 Q2060.16 354.207 2060.16 353.736 Z" fill="#000000" fill-rule="evenodd" fill-opacity="1" /><path clip-path="url(#clip130)" d="M 0 0 M2104.13 354.883 Q2104.13 348.715 2105.69 345.353 Q2107.86 340.353 2112.99 340.353 Q2114.07 340.353 2115.2 340.66 Q2116.35 340.947 2117.78 342.074 Q2119.24 343.201 2120.12 345.046 Q2121.8 348.612 2121.8 354.883 Q2121.8 361.011 2120.24 364.352 Q2117.97 369.23 2112.95 369.23 Q2111.06 369.23 2109.13 368.266 Q2107.23 367.303 2106.02 364.987 Q2104.13 361.524 2104.13 354.883 M2107.62 354.371 Q2107.62 360.704 2108.07 363.225 Q2108.58 365.95 2109.97 367.139 Q2111.39 368.307 2112.95 368.307 Q2114.63 368.307 2116.02 367.057 Q2117.43 365.787 2117.86 363.061 Q2118.34 360.376 2118.32 354.371 Q2118.32 348.53 2117.91 346.194 Q2117.35 343.468 2115.88 342.382 Q2114.42 341.275 2112.95 341.275 Q2112.39 341.275 2111.8 341.439 Q2111.22 341.603 2110.38 342.074 Q2109.54 342.546 2108.89 343.714 Q2108.25 344.882 2107.94 346.645 Q2107.62 348.919 2107.62 354.371 Z" fill="#000000" fill-rule="evenodd" fill-opacity="1" /><path clip-path="url(#clip130)" d="M 0 0 M2125.51 367.631 Q2124.91 366.955 2124.91 366.073 Q2124.91 365.192 2125.49 364.536 Q2126.08 363.86 2127.15 363.86 Q2128.4 363.86 2129.12 365.069 Q2129.83 366.258 2129.83 368.266 Q2129.83 370.439 2128.95 372.447 Q2128.07 374.476 2127.21 375.44 Q2126.35 376.403 2126 376.403 Q2125.59 376.403 2125.59 375.952 Q2125.59 375.788 2125.88 375.481 Q2128.89 372.242 2128.91 368.266 Q2128.91 367.631 2128.83 367.631 L2128.73 367.713 Q2128.01 368.307 2127.15 368.307 Q2126.1 368.307 2125.51 367.631 Z" fill="#000000" fill-rule="evenodd" fill-opacity="1" /><path clip-path="url(#clip130)" d="M 0 0 M2163.67 362.302 Q2163.16 364.823 2162.12 366.586 Q2160.82 368.779 2158.86 368.779 Q2157.2 368.779 2156.09 367.631 Q2154.98 366.463 2154.98 364.618 Q2154.98 364.065 2155.21 363.143 Q2155.29 362.733 2155.29 362.22 Q2155.29 358.9 2148.1 358.654 Q2147.5 361.011 2147.09 362.61 Q2146.7 364.188 2146.58 364.659 Q2146.46 365.131 2146.35 365.52 Q2146.27 365.91 2146.13 366.422 Q2145.92 367.262 2145.78 367.672 Q2145.64 368.082 2145.25 368.43 Q2144.88 368.779 2144.28 368.779 Q2143.77 368.779 2143.42 368.471 Q2143.08 368.164 2143.08 367.631 Q2143.08 367.262 2143.24 366.668 L2147.09 351.276 Q2147.2 350.846 2147.4 350.539 Q2147.6 350.231 2147.79 350.088 Q2147.99 349.944 2148.24 349.862 Q2148.49 349.78 2148.59 349.78 Q2148.69 349.76 2148.77 349.76 Q2149.33 349.76 2149.65 350.067 Q2150 350.354 2150 350.887 Q2150 350.969 2149.86 351.543 Q2149.74 352.096 2149.53 352.936 Q2149.33 353.777 2149.24 354.166 L2148.4 357.445 Q2149.57 357.056 2150.62 356.359 Q2151.68 355.662 2153.77 353.859 Q2154.74 353.059 2155.31 352.608 Q2155.91 352.137 2156.89 351.502 Q2157.87 350.846 2158.82 350.539 Q2159.76 350.211 2160.66 350.211 Q2161.36 350.211 2161.77 350.539 Q2162.18 350.846 2162.26 351.133 Q2162.34 351.399 2162.34 351.686 Q2162.34 352.527 2161.68 353.244 Q2161.03 353.961 2160.07 353.961 Q2159.2 353.961 2158.84 353.49 Q2158.47 353.018 2158.47 352.486 Q2158.47 352.076 2158.67 351.563 Q2157.52 352.055 2156.54 352.772 Q2155.56 353.469 2153.86 354.924 Q2151.44 356.994 2150 357.773 Q2150.82 357.794 2151.44 357.855 Q2152.07 357.896 2153.14 358.04 Q2154.2 358.183 2154.98 358.49 Q2155.76 358.777 2156.52 359.228 Q2157.3 359.679 2157.71 360.417 Q2158.14 361.155 2158.14 362.098 Q2158.14 362.548 2157.93 363.471 Q2157.59 364.987 2157.59 365.828 Q2157.59 366.893 2157.91 367.365 Q2158.26 367.836 2158.94 367.836 Q2160.23 367.836 2161.05 366.504 Q2161.89 365.151 2162.59 362.651 Q2162.69 362.179 2162.79 362.036 Q2162.89 361.893 2163.18 361.893 Q2163.67 361.893 2163.67 362.302 Z" fill="#000000" fill-rule="evenodd" fill-opacity="1" /><path clip-path="url(#clip130)" d="M 0 0 M2178.65 361.934 Q2178.69 361.421 2179.49 361.421 L2205.21 361.421 Q2206.42 361.421 2206.44 361.893 Q2206.44 362.405 2205.29 362.384 L2179.78 362.384 Q2178.65 362.405 2178.65 361.934 M2178.65 353.736 Q2178.65 353.223 2179.53 353.244 L2205.17 353.244 Q2206.42 353.244 2206.44 353.736 Q2206.44 354.207 2205.37 354.207 L2179.49 354.207 Q2178.65 354.207 2178.65 353.736 Z" fill="#000000" fill-rule="evenodd" fill-opacity="1" /><path clip-path="url(#clip130)" d="M 0 0 M2222.62 362.651 Q2222.62 361.401 2223.34 360.806 Q2224.06 360.212 2224.98 360.212 Q2225.94 360.212 2226.62 360.847 Q2227.32 361.462 2227.32 362.548 Q2227.32 363.717 2226.5 364.372 Q2225.7 365.028 2224.55 364.864 Q2225.55 366.545 2227.4 367.303 Q2229.26 368.061 2230.98 368.061 Q2232.79 368.061 2234.24 366.504 Q2235.72 364.946 2235.72 361.134 Q2235.72 357.896 2234.45 356.031 Q2233.2 354.166 2230.72 354.166 L2228.87 354.166 Q2228.24 354.166 2228.05 354.105 Q2227.87 354.043 2227.87 353.695 Q2227.87 353.285 2228.5 353.203 Q2229.14 353.203 2230.14 353.08 Q2232.58 352.998 2233.87 350.887 Q2235.04 348.919 2235.04 346.112 Q2235.04 343.55 2233.81 342.484 Q2232.6 341.398 2231.03 341.398 Q2229.55 341.398 2227.93 342.013 Q2226.31 342.628 2225.43 344.001 Q2228.03 344.001 2228.03 346.112 Q2228.03 347.034 2227.44 347.649 Q2226.86 348.243 2225.9 348.243 Q2224.98 348.243 2224.36 347.669 Q2223.75 347.075 2223.75 346.071 Q2223.75 343.673 2225.88 342.013 Q2228.03 340.353 2231.19 340.353 Q2234.3 340.353 2236.6 341.992 Q2238.92 343.632 2238.92 346.153 Q2238.92 348.633 2237.28 350.661 Q2235.64 352.69 2233.03 353.531 Q2236.23 354.166 2238.14 356.339 Q2240.04 358.49 2240.04 361.134 Q2240.04 364.413 2237.46 366.832 Q2234.88 369.23 2231.11 369.23 Q2227.62 369.23 2225.12 367.344 Q2222.62 365.459 2222.62 362.651 Z" fill="#000000" fill-rule="evenodd" fill-opacity="1" /><path clip-path="url(#clip130)" d="M 0 0 M2243.4 354.883 Q2243.4 348.715 2244.96 345.353 Q2247.13 340.353 2252.26 340.353 Q2253.34 340.353 2254.47 340.66 Q2255.62 340.947 2257.05 342.074 Q2258.51 343.201 2259.39 345.046 Q2261.07 348.612 2261.07 354.883 Q2261.07 361.011 2259.51 364.352 Q2257.24 369.23 2252.22 369.23 Q2250.33 369.23 2248.4 368.266 Q2246.5 367.303 2245.29 364.987 Q2243.4 361.524 2243.4 354.883 M2246.89 354.371 Q2246.89 360.704 2247.34 363.225 Q2247.85 365.95 2249.24 367.139 Q2250.66 368.307 2252.22 368.307 Q2253.9 368.307 2255.29 367.057 Q2256.7 365.787 2257.14 363.061 Q2257.61 360.376 2257.59 354.371 Q2257.59 348.53 2257.18 346.194 Q2256.62 343.468 2255.15 342.382 Q2253.69 341.275 2252.22 341.275 Q2251.66 341.275 2251.07 341.439 Q2250.49 341.603 2249.65 342.074 Q2248.81 342.546 2248.16 343.714 Q2247.52 344.882 2247.22 346.645 Q2246.89 348.919 2246.89 354.371 Z" fill="#000000" fill-rule="evenodd" fill-opacity="1" /><path clip-path="url(#clip130)" d="M 0 0 M2264.19 354.883 Q2264.19 348.715 2265.74 345.353 Q2267.92 340.353 2273.04 340.353 Q2274.12 340.353 2275.25 340.66 Q2276.4 340.947 2277.83 342.074 Q2279.29 343.201 2280.17 345.046 Q2281.85 348.612 2281.85 354.883 Q2281.85 361.011 2280.29 364.352 Q2278.02 369.23 2273 369.23 Q2271.11 369.23 2269.19 368.266 Q2267.28 367.303 2266.07 364.987 Q2264.19 361.524 2264.19 354.883 M2267.67 354.371 Q2267.67 360.704 2268.12 363.225 Q2268.63 365.95 2270.03 367.139 Q2271.44 368.307 2273 368.307 Q2274.68 368.307 2276.07 367.057 Q2277.49 365.787 2277.92 363.061 Q2278.39 360.376 2278.37 354.371 Q2278.37 348.53 2277.96 346.194 Q2277.4 343.468 2275.93 342.382 Q2274.47 341.275 2273 341.275 Q2272.44 341.275 2271.85 341.439 Q2271.28 341.603 2270.44 342.074 Q2269.6 342.546 2268.94 343.714 Q2268.3 344.882 2268 346.645 Q2267.67 348.919 2267.67 354.371 Z" fill="#000000" fill-rule="evenodd" fill-opacity="1" /><polyline clip-path="url(#clip130)" style="stroke:#ff0000; stroke-width:3.5; stroke-opacity:1; fill:none" points="
  1859.71,411.173 2000.74,411.173 
  "/>
<path clip-path="url(#clip130)" d="M 0 0 M2052.79 393.273 Q2052.79 393.662 2052.71 393.99 L2051.56 401.286 Q2051.5 401.839 2051.38 402.044 Q2051.27 402.249 2050.95 402.249 Q2050.43 402.249 2050.43 401.716 Q2050.43 401.409 2050.56 400.917 Q2050.9 398.601 2050.9 397.556 Q2050.9 396.859 2050.76 396.347 Q2050.64 395.814 2050.43 395.445 Q2050.25 395.076 2049.82 394.83 Q2049.39 394.584 2048.98 394.441 Q2048.57 394.297 2047.83 394.236 Q2047.09 394.154 2046.46 394.133 Q2045.82 394.113 2044.78 394.113 Q2042.5 394.113 2042.13 394.195 Q2041.74 394.297 2041.54 394.605 Q2041.35 394.892 2041.15 395.753 L2035.57 418.03 L2035.41 418.911 Q2035.41 419.403 2035.72 419.567 Q2036.03 419.731 2036.97 419.834 Q2038.32 419.936 2039.65 419.936 Q2039.69 419.936 2039.78 419.936 Q2040.23 419.936 2040.41 419.957 Q2040.6 419.957 2040.78 419.998 Q2040.96 420.039 2041.01 420.141 Q2041.07 420.223 2041.07 420.387 Q2041.07 420.776 2040.9 420.981 Q2040.74 421.166 2040.58 421.207 Q2040.43 421.227 2040.14 421.227 Q2039.57 421.227 2038.34 421.186 Q2037.11 421.145 2036.5 421.145 L2033.01 421.104 L2029.45 421.145 Q2028.89 421.145 2027.73 421.186 Q2026.56 421.227 2026 421.227 Q2025.29 421.227 2025.29 420.715 Q2025.29 420.141 2025.55 420.039 Q2025.84 419.936 2027.05 419.936 Q2028.75 419.936 2029.67 419.854 Q2030.59 419.772 2031.09 419.485 Q2031.6 419.198 2031.74 418.911 Q2031.89 418.604 2032.05 417.907 L2037.69 395.507 Q2037.85 395.015 2037.85 394.625 Q2037.85 394.42 2037.79 394.338 Q2037.75 394.256 2037.48 394.195 Q2037.21 394.113 2036.66 394.113 L2035.02 394.113 Q2033.34 394.113 2032.3 394.195 Q2031.27 394.256 2030.29 394.564 Q2029.32 394.871 2028.75 395.302 Q2028.2 395.732 2027.58 396.613 Q2026.97 397.495 2026.52 398.56 Q2026.09 399.626 2025.47 401.368 Q2025.27 401.942 2025.14 402.106 Q2025.04 402.249 2024.75 402.249 Q2024.55 402.249 2024.38 402.126 Q2024.24 401.983 2024.24 401.798 Q2024.45 401.122 2024.49 401.04 L2027.01 393.642 Q2027.21 393.047 2027.4 392.945 Q2027.6 392.822 2028.36 392.822 L2051.64 392.822 Q2052.01 392.822 2052.13 392.822 Q2052.26 392.822 2052.46 392.863 Q2052.67 392.904 2052.73 393.006 Q2052.79 393.109 2052.79 393.273 Z" fill="#000000" fill-rule="evenodd" fill-opacity="1" /><path clip-path="url(#clip130)" d="M 0 0 M2060.16 414.854 Q2060.2 414.341 2061 414.341 L2086.72 414.341 Q2087.93 414.341 2087.95 414.813 Q2087.95 415.325 2086.8 415.304 L2061.29 415.304 Q2060.16 415.325 2060.16 414.854 M2060.16 406.656 Q2060.16 406.143 2061.04 406.164 L2086.68 406.164 Q2087.93 406.164 2087.95 406.656 Q2087.95 407.127 2086.88 407.127 L2061 407.127 Q2060.16 407.127 2060.16 406.656 Z" fill="#000000" fill-rule="evenodd" fill-opacity="1" /><path clip-path="url(#clip130)" d="M 0 0 M2104.13 414.895 Q2104.13 410.201 2110.18 407.168 Q2107.58 405.406 2107.1 404.893 Q2105.26 402.844 2105.26 400.282 Q2105.26 397.351 2107.47 395.322 Q2109.71 393.273 2112.86 393.273 Q2115.88 393.273 2118.15 395.015 Q2120.43 396.757 2120.43 399.524 Q2120.43 403.418 2115.34 406.041 Q2118.7 408.131 2119.5 409.013 Q2121.55 411.287 2121.55 414.177 Q2121.55 417.538 2118.97 419.854 Q2116.39 422.15 2112.82 422.15 Q2109.34 422.15 2106.74 420.121 Q2104.13 418.092 2104.13 414.895 M2106.22 414.895 Q2106.22 417.497 2108.17 419.239 Q2110.14 420.981 2112.86 420.981 Q2115.51 420.981 2117.47 419.465 Q2119.46 417.948 2119.46 415.694 Q2119.46 414.813 2119.16 414.054 Q2118.87 413.296 2118.27 412.702 Q2117.7 412.087 2117.33 411.82 Q2116.98 411.533 2116.31 411.062 L2111.14 407.803 Q2106.22 410.529 2106.22 414.895 M2107.1 398.642 Q2107.1 400.651 2109.22 402.044 L2114.42 405.406 Q2118.58 402.967 2118.58 399.524 Q2118.58 397.29 2116.88 395.814 Q2115.18 394.318 2112.82 394.318 Q2110.51 394.318 2108.81 395.548 Q2107.1 396.757 2107.1 398.642 Z" fill="#000000" fill-rule="evenodd" fill-opacity="1" /><path clip-path="url(#clip130)" d="M 0 0 M2124.91 407.803 Q2124.91 401.635 2126.47 398.273 Q2128.64 393.273 2133.77 393.273 Q2134.85 393.273 2135.98 393.58 Q2137.13 393.867 2138.56 394.994 Q2140.02 396.121 2140.9 397.966 Q2142.58 401.532 2142.58 407.803 Q2142.58 413.931 2141.02 417.272 Q2138.75 422.15 2133.73 422.15 Q2131.84 422.15 2129.91 421.186 Q2128.01 420.223 2126.8 417.907 Q2124.91 414.444 2124.91 407.803 M2128.4 407.291 Q2128.4 413.624 2128.85 416.145 Q2129.36 418.87 2130.76 420.059 Q2132.17 421.227 2133.73 421.227 Q2135.41 421.227 2136.8 419.977 Q2138.22 418.707 2138.65 415.981 Q2139.12 413.296 2139.1 407.291 Q2139.1 401.45 2138.69 399.114 Q2138.13 396.388 2136.66 395.302 Q2135.2 394.195 2133.73 394.195 Q2133.17 394.195 2132.58 394.359 Q2132.01 394.523 2131.17 394.994 Q2130.32 395.466 2129.67 396.634 Q2129.03 397.802 2128.73 399.565 Q2128.4 401.839 2128.4 407.291 Z" fill="#000000" fill-rule="evenodd" fill-opacity="1" /><path clip-path="url(#clip130)" d="M 0 0 M2146.29 420.551 Q2145.7 419.875 2145.7 418.993 Q2145.7 418.112 2146.27 417.456 Q2146.86 416.78 2147.93 416.78 Q2149.18 416.78 2149.9 417.989 Q2150.61 419.178 2150.61 421.186 Q2150.61 423.359 2149.73 425.367 Q2148.85 427.396 2147.99 428.36 Q2147.13 429.323 2146.78 429.323 Q2146.37 429.323 2146.37 428.872 Q2146.37 428.708 2146.66 428.401 Q2149.67 425.162 2149.69 421.186 Q2149.69 420.551 2149.61 420.551 L2149.51 420.633 Q2148.79 421.227 2147.93 421.227 Q2146.88 421.227 2146.29 420.551 Z" fill="#000000" fill-rule="evenodd" fill-opacity="1" /><path clip-path="url(#clip130)" d="M 0 0 M2184.45 415.222 Q2183.94 417.743 2182.9 419.506 Q2181.61 421.699 2179.64 421.699 Q2177.98 421.699 2176.87 420.551 Q2175.76 419.383 2175.76 417.538 Q2175.76 416.985 2175.99 416.063 Q2176.07 415.653 2176.07 415.14 Q2176.07 411.82 2168.88 411.574 Q2168.28 413.931 2167.87 415.53 Q2167.48 417.108 2167.36 417.579 Q2167.24 418.051 2167.14 418.44 Q2167.05 418.83 2166.91 419.342 Q2166.71 420.182 2166.56 420.592 Q2166.42 421.002 2166.03 421.35 Q2165.66 421.699 2165.07 421.699 Q2164.55 421.699 2164.21 421.391 Q2163.86 421.084 2163.86 420.551 Q2163.86 420.182 2164.02 419.588 L2167.87 404.196 Q2167.98 403.766 2168.18 403.459 Q2168.39 403.151 2168.57 403.008 Q2168.78 402.864 2169.02 402.782 Q2169.27 402.7 2169.37 402.7 Q2169.47 402.68 2169.55 402.68 Q2170.11 402.68 2170.44 402.987 Q2170.78 403.274 2170.78 403.807 Q2170.78 403.889 2170.64 404.463 Q2170.52 405.016 2170.31 405.856 Q2170.11 406.697 2170.03 407.086 L2169.19 410.365 Q2170.35 409.976 2171.4 409.279 Q2172.46 408.582 2174.56 406.779 Q2175.52 405.979 2176.09 405.528 Q2176.69 405.057 2177.67 404.422 Q2178.65 403.766 2179.6 403.459 Q2180.54 403.131 2181.44 403.131 Q2182.14 403.131 2182.55 403.459 Q2182.96 403.766 2183.04 404.053 Q2183.12 404.319 2183.12 404.606 Q2183.12 405.447 2182.47 406.164 Q2181.81 406.881 2180.85 406.881 Q2179.99 406.881 2179.62 406.41 Q2179.25 405.938 2179.25 405.406 Q2179.25 404.996 2179.45 404.483 Q2178.31 404.975 2177.32 405.692 Q2176.34 406.389 2174.64 407.844 Q2172.22 409.914 2170.78 410.693 Q2171.6 410.714 2172.22 410.775 Q2172.85 410.816 2173.92 410.96 Q2174.99 411.103 2175.76 411.41 Q2176.54 411.697 2177.3 412.148 Q2178.08 412.599 2178.49 413.337 Q2178.92 414.075 2178.92 415.018 Q2178.92 415.468 2178.72 416.391 Q2178.37 417.907 2178.37 418.748 Q2178.37 419.813 2178.7 420.285 Q2179.04 420.756 2179.72 420.756 Q2181.01 420.756 2181.83 419.424 Q2182.67 418.071 2183.37 415.571 Q2183.47 415.099 2183.57 414.956 Q2183.68 414.813 2183.96 414.813 Q2184.45 414.813 2184.45 415.222 Z" fill="#000000" fill-rule="evenodd" fill-opacity="1" /><path clip-path="url(#clip130)" d="M 0 0 M2199.43 414.854 Q2199.47 414.341 2200.27 414.341 L2225.99 414.341 Q2227.2 414.341 2227.22 414.813 Q2227.22 415.325 2226.07 415.304 L2200.56 415.304 Q2199.43 415.325 2199.43 414.854 M2199.43 406.656 Q2199.43 406.143 2200.31 406.164 L2225.95 406.164 Q2227.2 406.164 2227.22 406.656 Q2227.22 407.127 2226.15 407.127 L2200.27 407.127 Q2199.43 407.127 2199.43 406.656 Z" fill="#000000" fill-rule="evenodd" fill-opacity="1" /><path clip-path="url(#clip130)" d="M 0 0 M2243.4 415.571 Q2243.4 414.321 2244.12 413.726 Q2244.84 413.132 2245.76 413.132 Q2246.72 413.132 2247.4 413.767 Q2248.1 414.382 2248.1 415.468 Q2248.1 416.637 2247.28 417.292 Q2246.48 417.948 2245.33 417.784 Q2246.33 419.465 2248.18 420.223 Q2250.04 420.981 2251.77 420.981 Q2253.57 420.981 2255.02 419.424 Q2256.5 417.866 2256.5 414.054 Q2256.5 410.816 2255.23 408.951 Q2253.98 407.086 2251.5 407.086 L2249.65 407.086 Q2249.02 407.086 2248.83 407.025 Q2248.65 406.963 2248.65 406.615 Q2248.65 406.205 2249.29 406.123 Q2249.92 406.123 2250.93 406 Q2253.36 405.918 2254.66 403.807 Q2255.82 401.839 2255.82 399.032 Q2255.82 396.47 2254.59 395.404 Q2253.38 394.318 2251.81 394.318 Q2250.33 394.318 2248.71 394.933 Q2247.09 395.548 2246.21 396.921 Q2248.81 396.921 2248.81 399.032 Q2248.81 399.954 2248.22 400.569 Q2247.65 401.163 2246.68 401.163 Q2245.76 401.163 2245.15 400.589 Q2244.53 399.995 2244.53 398.991 Q2244.53 396.593 2246.66 394.933 Q2248.81 393.273 2251.97 393.273 Q2255.09 393.273 2257.38 394.912 Q2259.7 396.552 2259.7 399.073 Q2259.7 401.553 2258.06 403.581 Q2256.42 405.61 2253.82 406.451 Q2257.01 407.086 2258.92 409.259 Q2260.82 411.41 2260.82 414.054 Q2260.82 417.333 2258.24 419.752 Q2255.66 422.15 2251.89 422.15 Q2248.4 422.15 2245.9 420.264 Q2243.4 418.379 2243.4 415.571 Z" fill="#000000" fill-rule="evenodd" fill-opacity="1" /><path clip-path="url(#clip130)" d="M 0 0 M2264.19 407.803 Q2264.19 401.635 2265.74 398.273 Q2267.92 393.273 2273.04 393.273 Q2274.12 393.273 2275.25 393.58 Q2276.4 393.867 2277.83 394.994 Q2279.29 396.121 2280.17 397.966 Q2281.85 401.532 2281.85 407.803 Q2281.85 413.931 2280.29 417.272 Q2278.02 422.15 2273 422.15 Q2271.11 422.15 2269.19 421.186 Q2267.28 420.223 2266.07 417.907 Q2264.19 414.444 2264.19 407.803 M2267.67 407.291 Q2267.67 413.624 2268.12 416.145 Q2268.63 418.87 2270.03 420.059 Q2271.44 421.227 2273 421.227 Q2274.68 421.227 2276.07 419.977 Q2277.49 418.707 2277.92 415.981 Q2278.39 413.296 2278.37 407.291 Q2278.37 401.45 2277.96 399.114 Q2277.4 396.388 2275.93 395.302 Q2274.47 394.195 2273 394.195 Q2272.44 394.195 2271.85 394.359 Q2271.28 394.523 2270.44 394.994 Q2269.6 395.466 2268.94 396.634 Q2268.3 397.802 2268 399.565 Q2267.67 401.839 2267.67 407.291 Z" fill="#000000" fill-rule="evenodd" fill-opacity="1" /><path clip-path="url(#clip130)" d="M 0 0 M2284.97 407.803 Q2284.97 401.635 2286.52 398.273 Q2288.7 393.273 2293.82 393.273 Q2294.91 393.273 2296.03 393.58 Q2297.18 393.867 2298.62 394.994 Q2300.07 396.121 2300.95 397.966 Q2302.63 401.532 2302.63 407.803 Q2302.63 413.931 2301.08 417.272 Q2298.8 422.15 2293.78 422.15 Q2291.89 422.15 2289.97 421.186 Q2288.06 420.223 2286.85 417.907 Q2284.97 414.444 2284.97 407.803 M2288.45 407.291 Q2288.45 413.624 2288.9 416.145 Q2289.41 418.87 2290.81 420.059 Q2292.22 421.227 2293.78 421.227 Q2295.46 421.227 2296.85 419.977 Q2298.27 418.707 2298.7 415.981 Q2299.17 413.296 2299.15 407.291 Q2299.15 401.45 2298.74 399.114 Q2298.19 396.388 2296.71 395.302 Q2295.25 394.195 2293.78 394.195 Q2293.23 394.195 2292.63 394.359 Q2292.06 394.523 2291.22 394.994 Q2290.38 395.466 2289.72 396.634 Q2289.09 397.802 2288.78 399.565 Q2288.45 401.839 2288.45 407.291 Z" fill="#000000" fill-rule="evenodd" fill-opacity="1" /></svg>
