<?xml version="1.0" encoding="utf-8"?>
<svg xmlns="http://www.w3.org/2000/svg" xmlns:xlink="http://www.w3.org/1999/xlink" width="600" height="400" viewBox="0 0 2400 1600">
<defs>
  <clipPath id="clip440">
    <rect x="0" y="0" width="2400" height="1600"/>
  </clipPath>
</defs>
<path clip-path="url(#clip440)" d="
M0 1600 L2400 1600 L2400 0 L0 0  Z
  " fill="#ffffff" fill-rule="evenodd" fill-opacity="1"/>
<defs>
  <clipPath id="clip441">
    <rect x="480" y="0" width="1681" height="1600"/>
  </clipPath>
</defs>
<defs>
  <clipPath id="clip442">
    <rect x="252" y="47" width="1467" height="1393"/>
  </clipPath>
</defs>
<path clip-path="url(#clip440)" d="
M252.451 1439.5 L1718.14 1439.5 L1718.14 47.2441 L252.451 47.2441  Z
  " fill="#ffffff" fill-rule="evenodd" fill-opacity="1"/>
<polyline clip-path="url(#clip442)" style="stroke:#000000; stroke-width:2; stroke-opacity:0.1; fill:none" points="
  292.548,1439.5 292.548,47.2441 
  "/>
<polyline clip-path="url(#clip442)" style="stroke:#000000; stroke-width:2; stroke-opacity:0.1; fill:none" points="
  638.575,1439.5 638.575,47.2441 
  "/>
<polyline clip-path="url(#clip442)" style="stroke:#000000; stroke-width:2; stroke-opacity:0.1; fill:none" points="
  984.602,1439.5 984.602,47.2441 
  "/>
<polyline clip-path="url(#clip442)" style="stroke:#000000; stroke-width:2; stroke-opacity:0.1; fill:none" points="
  1330.63,1439.5 1330.63,47.2441 
  "/>
<polyline clip-path="url(#clip442)" style="stroke:#000000; stroke-width:2; stroke-opacity:0.1; fill:none" points="
  1676.66,1439.5 1676.66,47.2441 
  "/>
<polyline clip-path="url(#clip440)" style="stroke:#000000; stroke-width:4; stroke-opacity:1; fill:none" points="
  252.451,1439.5 1718.14,1439.5 
  "/>
<polyline clip-path="url(#clip440)" style="stroke:#000000; stroke-width:4; stroke-opacity:1; fill:none" points="
  292.548,1439.5 292.548,1422.79 
  "/>
<polyline clip-path="url(#clip440)" style="stroke:#000000; stroke-width:4; stroke-opacity:1; fill:none" points="
  638.575,1439.5 638.575,1422.79 
  "/>
<polyline clip-path="url(#clip440)" style="stroke:#000000; stroke-width:4; stroke-opacity:1; fill:none" points="
  984.602,1439.5 984.602,1422.79 
  "/>
<polyline clip-path="url(#clip440)" style="stroke:#000000; stroke-width:4; stroke-opacity:1; fill:none" points="
  1330.63,1439.5 1330.63,1422.79 
  "/>
<polyline clip-path="url(#clip440)" style="stroke:#000000; stroke-width:4; stroke-opacity:1; fill:none" points="
  1676.66,1439.5 1676.66,1422.79 
  "/>
<path clip-path="url(#clip440)" d="M 0 0 M292.548 1468.69 Q288.937 1468.69 287.108 1472.26 Q285.303 1475.8 285.303 1482.93 Q285.303 1490.04 287.108 1493.6 Q288.937 1497.14 292.548 1497.14 Q296.182 1497.14 297.988 1493.6 Q299.817 1490.04 299.817 1482.93 Q299.817 1475.8 297.988 1472.26 Q296.182 1468.69 292.548 1468.69 M292.548 1464.99 Q298.358 1464.99 301.414 1469.6 Q304.493 1474.18 304.493 1482.93 Q304.493 1491.66 301.414 1496.26 Q298.358 1500.85 292.548 1500.85 Q286.738 1500.85 283.659 1496.26 Q280.604 1491.66 280.604 1482.93 Q280.604 1474.18 283.659 1469.6 Q286.738 1464.99 292.548 1464.99 Z" fill="#000000" fill-rule="evenodd" fill-opacity="1" /><path clip-path="url(#clip440)" d="M 0 0 M617.846 1496.24 L634.165 1496.24 L634.165 1500.17 L612.221 1500.17 L612.221 1496.24 Q614.883 1493.48 619.466 1488.85 Q624.073 1484.2 625.253 1482.86 Q627.499 1480.34 628.378 1478.6 Q629.281 1476.84 629.281 1475.15 Q629.281 1472.4 627.337 1470.66 Q625.415 1468.92 622.313 1468.92 Q620.114 1468.92 617.661 1469.69 Q615.23 1470.45 612.452 1472 L612.452 1467.28 Q615.276 1466.15 617.73 1465.57 Q620.184 1464.99 622.221 1464.99 Q627.591 1464.99 630.786 1467.67 Q633.98 1470.36 633.98 1474.85 Q633.98 1476.98 633.17 1478.9 Q632.383 1480.8 630.276 1483.39 Q629.698 1484.06 626.596 1487.28 Q623.494 1490.47 617.846 1496.24 Z" fill="#000000" fill-rule="evenodd" fill-opacity="1" /><path clip-path="url(#clip440)" d="M 0 0 M644.026 1465.61 L662.383 1465.61 L662.383 1469.55 L648.309 1469.55 L648.309 1478.02 Q649.327 1477.67 650.346 1477.51 Q651.364 1477.33 652.383 1477.33 Q658.17 1477.33 661.549 1480.5 Q664.929 1483.67 664.929 1489.09 Q664.929 1494.66 661.457 1497.77 Q657.985 1500.85 651.665 1500.85 Q649.489 1500.85 647.221 1500.47 Q644.975 1500.1 642.568 1499.36 L642.568 1494.66 Q644.651 1495.8 646.873 1496.35 Q649.096 1496.91 651.573 1496.91 Q655.577 1496.91 657.915 1494.8 Q660.253 1492.7 660.253 1489.09 Q660.253 1485.47 657.915 1483.37 Q655.577 1481.26 651.573 1481.26 Q649.698 1481.26 647.823 1481.68 Q645.971 1482.1 644.026 1482.97 L644.026 1465.61 Z" fill="#000000" fill-rule="evenodd" fill-opacity="1" /><path clip-path="url(#clip440)" d="M 0 0 M959.301 1465.61 L977.657 1465.61 L977.657 1469.55 L963.583 1469.55 L963.583 1478.02 Q964.602 1477.67 965.62 1477.51 Q966.639 1477.33 967.657 1477.33 Q973.444 1477.33 976.824 1480.5 Q980.204 1483.67 980.204 1489.09 Q980.204 1494.66 976.731 1497.77 Q973.259 1500.85 966.94 1500.85 Q964.764 1500.85 962.495 1500.47 Q960.25 1500.1 957.843 1499.36 L957.843 1494.66 Q959.926 1495.8 962.148 1496.35 Q964.37 1496.91 966.847 1496.91 Q970.852 1496.91 973.19 1494.8 Q975.528 1492.7 975.528 1489.09 Q975.528 1485.47 973.19 1483.37 Q970.852 1481.26 966.847 1481.26 Q964.972 1481.26 963.097 1481.68 Q961.245 1482.1 959.301 1482.97 L959.301 1465.61 Z" fill="#000000" fill-rule="evenodd" fill-opacity="1" /><path clip-path="url(#clip440)" d="M 0 0 M999.416 1468.69 Q995.805 1468.69 993.977 1472.26 Q992.171 1475.8 992.171 1482.93 Q992.171 1490.04 993.977 1493.6 Q995.805 1497.14 999.416 1497.14 Q1003.05 1497.14 1004.86 1493.6 Q1006.68 1490.04 1006.68 1482.93 Q1006.68 1475.8 1004.86 1472.26 Q1003.05 1468.69 999.416 1468.69 M999.416 1464.99 Q1005.23 1464.99 1008.28 1469.6 Q1011.36 1474.18 1011.36 1482.93 Q1011.36 1491.66 1008.28 1496.26 Q1005.23 1500.85 999.416 1500.85 Q993.606 1500.85 990.528 1496.26 Q987.472 1491.66 987.472 1482.93 Q987.472 1474.18 990.528 1469.6 Q993.606 1464.99 999.416 1464.99 Z" fill="#000000" fill-rule="evenodd" fill-opacity="1" /><path clip-path="url(#clip440)" d="M 0 0 M1304.48 1465.61 L1326.7 1465.61 L1326.7 1467.6 L1314.16 1500.17 L1309.27 1500.17 L1321.08 1469.55 L1304.48 1469.55 L1304.48 1465.61 Z" fill="#000000" fill-rule="evenodd" fill-opacity="1" /><path clip-path="url(#clip440)" d="M 0 0 M1335.87 1465.61 L1354.23 1465.61 L1354.23 1469.55 L1340.15 1469.55 L1340.15 1478.02 Q1341.17 1477.67 1342.19 1477.51 Q1343.21 1477.33 1344.23 1477.33 Q1350.01 1477.33 1353.39 1480.5 Q1356.77 1483.67 1356.77 1489.09 Q1356.77 1494.66 1353.3 1497.77 Q1349.83 1500.85 1343.51 1500.85 Q1341.33 1500.85 1339.07 1500.47 Q1336.82 1500.1 1334.41 1499.36 L1334.41 1494.66 Q1336.5 1495.8 1338.72 1496.35 Q1340.94 1496.91 1343.42 1496.91 Q1347.42 1496.91 1349.76 1494.8 Q1352.1 1492.7 1352.1 1489.09 Q1352.1 1485.47 1349.76 1483.37 Q1347.42 1481.26 1343.42 1481.26 Q1341.54 1481.26 1339.67 1481.68 Q1337.82 1482.1 1335.87 1482.97 L1335.87 1465.61 Z" fill="#000000" fill-rule="evenodd" fill-opacity="1" /><path clip-path="url(#clip440)" d="M 0 0 M1636.26 1496.24 L1643.9 1496.24 L1643.9 1469.87 L1635.59 1471.54 L1635.59 1467.28 L1643.85 1465.61 L1648.53 1465.61 L1648.53 1496.24 L1656.17 1496.24 L1656.17 1500.17 L1636.26 1500.17 L1636.26 1496.24 Z" fill="#000000" fill-rule="evenodd" fill-opacity="1" /><path clip-path="url(#clip440)" d="M 0 0 M1675.61 1468.69 Q1672 1468.69 1670.17 1472.26 Q1668.37 1475.8 1668.37 1482.93 Q1668.37 1490.04 1670.17 1493.6 Q1672 1497.14 1675.61 1497.14 Q1679.25 1497.14 1681.05 1493.6 Q1682.88 1490.04 1682.88 1482.93 Q1682.88 1475.8 1681.05 1472.26 Q1679.25 1468.69 1675.61 1468.69 M1675.61 1464.99 Q1681.42 1464.99 1684.48 1469.6 Q1687.56 1474.18 1687.56 1482.93 Q1687.56 1491.66 1684.48 1496.26 Q1681.42 1500.85 1675.61 1500.85 Q1669.8 1500.85 1666.72 1496.26 Q1663.67 1491.66 1663.67 1482.93 Q1663.67 1474.18 1666.72 1469.6 Q1669.8 1464.99 1675.61 1464.99 Z" fill="#000000" fill-rule="evenodd" fill-opacity="1" /><path clip-path="url(#clip440)" d="M 0 0 M1705.78 1468.69 Q1702.16 1468.69 1700.34 1472.26 Q1698.53 1475.8 1698.53 1482.93 Q1698.53 1490.04 1700.34 1493.6 Q1702.16 1497.14 1705.78 1497.14 Q1709.41 1497.14 1711.22 1493.6 Q1713.04 1490.04 1713.04 1482.93 Q1713.04 1475.8 1711.22 1472.26 Q1709.41 1468.69 1705.78 1468.69 M1705.78 1464.99 Q1711.59 1464.99 1714.64 1469.6 Q1717.72 1474.18 1717.72 1482.93 Q1717.72 1491.66 1714.64 1496.26 Q1711.59 1500.85 1705.78 1500.85 Q1699.97 1500.85 1696.89 1496.26 Q1693.83 1491.66 1693.83 1482.93 Q1693.83 1474.18 1696.89 1469.6 Q1699.97 1464.99 1705.78 1464.99 Z" fill="#000000" fill-rule="evenodd" fill-opacity="1" /><path clip-path="url(#clip440)" d="M 0 0 M997.229 1535.75 Q997.229 1541.16 995.49 1547.24 Q993.783 1553.3 991.077 1558.19 Q988.372 1563.06 984.829 1566.28 Q981.287 1569.47 977.905 1569.47 Q975.747 1569.47 974.137 1568.27 Q972.559 1567.05 971.689 1565.02 Q970.82 1562.96 970.401 1560.71 Q969.982 1558.42 969.982 1555.94 Q969.982 1552.24 970.788 1548.21 Q971.593 1544.15 972.945 1540.48 Q974.298 1536.78 976.198 1533.43 Q978.098 1530.05 980.192 1527.6 Q982.317 1525.12 984.701 1523.67 Q987.084 1522.22 989.306 1522.22 Q990.916 1522.22 992.205 1522.93 Q993.525 1523.6 994.362 1524.8 Q995.2 1525.96 995.779 1527.34 Q996.391 1528.73 996.681 1530.34 Q996.971 1531.91 997.1 1533.23 Q997.229 1534.52 997.229 1535.75 M992.881 1531.66 Q992.881 1530.01 992.752 1528.79 Q992.623 1527.53 992.269 1526.28 Q991.915 1525.02 991.142 1524.35 Q990.401 1523.67 989.242 1523.67 Q985.86 1523.67 982.06 1530.59 Q980.836 1532.75 979.741 1535.68 Q978.646 1538.61 978.259 1540 Q977.873 1541.38 976.971 1544.8 L990.755 1544.8 Q992.881 1536 992.881 1531.66 M990.176 1546.89 L976.456 1546.89 Q974.33 1554.94 974.33 1559.96 Q974.33 1564.34 975.232 1566.18 Q976.166 1567.98 977.905 1567.98 Q979.902 1567.98 981.77 1565.99 Q983.638 1563.96 985.538 1560.29 Q988.05 1555.52 990.176 1546.89 Z" fill="#000000" fill-rule="evenodd" fill-opacity="1" /><polyline clip-path="url(#clip442)" style="stroke:#000000; stroke-width:2; stroke-opacity:0.1; fill:none" points="
  252.451,1257.03 1718.14,1257.03 
  "/>
<polyline clip-path="url(#clip442)" style="stroke:#000000; stroke-width:2; stroke-opacity:0.1; fill:none" points="
  252.451,1047.63 1718.14,1047.63 
  "/>
<polyline clip-path="url(#clip442)" style="stroke:#000000; stroke-width:2; stroke-opacity:0.1; fill:none" points="
  252.451,838.224 1718.14,838.224 
  "/>
<polyline clip-path="url(#clip442)" style="stroke:#000000; stroke-width:2; stroke-opacity:0.1; fill:none" points="
  252.451,628.822 1718.14,628.822 
  "/>
<polyline clip-path="url(#clip442)" style="stroke:#000000; stroke-width:2; stroke-opacity:0.1; fill:none" points="
  252.451,419.421 1718.14,419.421 
  "/>
<polyline clip-path="url(#clip442)" style="stroke:#000000; stroke-width:2; stroke-opacity:0.1; fill:none" points="
  252.451,210.019 1718.14,210.019 
  "/>
<polyline clip-path="url(#clip440)" style="stroke:#000000; stroke-width:4; stroke-opacity:1; fill:none" points="
  252.451,1439.5 252.451,47.2441 
  "/>
<polyline clip-path="url(#clip440)" style="stroke:#000000; stroke-width:4; stroke-opacity:1; fill:none" points="
  252.451,1257.03 270.039,1257.03 
  "/>
<polyline clip-path="url(#clip440)" style="stroke:#000000; stroke-width:4; stroke-opacity:1; fill:none" points="
  252.451,1047.63 270.039,1047.63 
  "/>
<polyline clip-path="url(#clip440)" style="stroke:#000000; stroke-width:4; stroke-opacity:1; fill:none" points="
  252.451,838.224 270.039,838.224 
  "/>
<polyline clip-path="url(#clip440)" style="stroke:#000000; stroke-width:4; stroke-opacity:1; fill:none" points="
  252.451,628.822 270.039,628.822 
  "/>
<polyline clip-path="url(#clip440)" style="stroke:#000000; stroke-width:4; stroke-opacity:1; fill:none" points="
  252.451,419.421 270.039,419.421 
  "/>
<polyline clip-path="url(#clip440)" style="stroke:#000000; stroke-width:4; stroke-opacity:1; fill:none" points="
  252.451,210.019 270.039,210.019 
  "/>
<path clip-path="url(#clip440)" d="M 0 0 M160.27 1242.83 Q156.659 1242.83 154.831 1246.39 Q153.025 1249.93 153.025 1257.06 Q153.025 1264.17 154.831 1267.73 Q156.659 1271.28 160.27 1271.28 Q163.905 1271.28 165.71 1267.73 Q167.539 1264.17 167.539 1257.06 Q167.539 1249.93 165.71 1246.39 Q163.905 1242.83 160.27 1242.83 M160.27 1239.12 Q166.08 1239.12 169.136 1243.73 Q172.215 1248.31 172.215 1257.06 Q172.215 1265.79 169.136 1270.4 Q166.08 1274.98 160.27 1274.98 Q154.46 1274.98 151.381 1270.4 Q148.326 1265.79 148.326 1257.06 Q148.326 1248.31 151.381 1243.73 Q154.46 1239.12 160.27 1239.12 Z" fill="#000000" fill-rule="evenodd" fill-opacity="1" /><path clip-path="url(#clip440)" d="M 0 0 M180.432 1268.43 L185.316 1268.43 L185.316 1274.31 L180.432 1274.31 L180.432 1268.43 Z" fill="#000000" fill-rule="evenodd" fill-opacity="1" /><path clip-path="url(#clip440)" d="M 0 0 M195.548 1239.75 L213.904 1239.75 L213.904 1243.68 L199.83 1243.68 L199.83 1252.16 Q200.849 1251.81 201.867 1251.65 Q202.886 1251.46 203.904 1251.46 Q209.691 1251.46 213.071 1254.63 Q216.451 1257.8 216.451 1263.22 Q216.451 1268.8 212.978 1271.9 Q209.506 1274.98 203.187 1274.98 Q201.011 1274.98 198.742 1274.61 Q196.497 1274.24 194.09 1273.5 L194.09 1268.8 Q196.173 1269.93 198.395 1270.49 Q200.617 1271.04 203.094 1271.04 Q207.099 1271.04 209.437 1268.94 Q211.775 1266.83 211.775 1263.22 Q211.775 1259.61 209.437 1257.5 Q207.099 1255.4 203.094 1255.4 Q201.219 1255.4 199.344 1255.81 Q197.492 1256.23 195.548 1257.11 L195.548 1239.75 Z" fill="#000000" fill-rule="evenodd" fill-opacity="1" /><path clip-path="url(#clip440)" d="M 0 0 M150.085 1060.97 L157.724 1060.97 L157.724 1034.61 L149.414 1036.27 L149.414 1032.01 L157.678 1030.35 L162.354 1030.35 L162.354 1060.97 L169.992 1060.97 L169.992 1064.91 L150.085 1064.91 L150.085 1060.97 Z" fill="#000000" fill-rule="evenodd" fill-opacity="1" /><path clip-path="url(#clip440)" d="M 0 0 M179.437 1059.03 L184.321 1059.03 L184.321 1064.91 L179.437 1064.91 L179.437 1059.03 Z" fill="#000000" fill-rule="evenodd" fill-opacity="1" /><path clip-path="url(#clip440)" d="M 0 0 M204.506 1033.43 Q200.895 1033.43 199.066 1036.99 Q197.261 1040.53 197.261 1047.66 Q197.261 1054.77 199.066 1058.33 Q200.895 1061.87 204.506 1061.87 Q208.14 1061.87 209.946 1058.33 Q211.775 1054.77 211.775 1047.66 Q211.775 1040.53 209.946 1036.99 Q208.14 1033.43 204.506 1033.43 M204.506 1029.72 Q210.316 1029.72 213.372 1034.33 Q216.451 1038.91 216.451 1047.66 Q216.451 1056.39 213.372 1060.99 Q210.316 1065.58 204.506 1065.58 Q198.696 1065.58 195.617 1060.99 Q192.562 1056.39 192.562 1047.66 Q192.562 1038.91 195.617 1034.33 Q198.696 1029.72 204.506 1029.72 Z" fill="#000000" fill-rule="evenodd" fill-opacity="1" /><path clip-path="url(#clip440)" d="M 0 0 M151.081 851.569 L158.719 851.569 L158.719 825.204 L150.409 826.87 L150.409 822.611 L158.673 820.944 L163.349 820.944 L163.349 851.569 L170.988 851.569 L170.988 855.504 L151.081 855.504 L151.081 851.569 Z" fill="#000000" fill-rule="evenodd" fill-opacity="1" /><path clip-path="url(#clip440)" d="M 0 0 M180.432 849.625 L185.316 849.625 L185.316 855.504 L180.432 855.504 L180.432 849.625 Z" fill="#000000" fill-rule="evenodd" fill-opacity="1" /><path clip-path="url(#clip440)" d="M 0 0 M195.548 820.944 L213.904 820.944 L213.904 824.88 L199.83 824.88 L199.83 833.352 Q200.849 833.005 201.867 832.843 Q202.886 832.657 203.904 832.657 Q209.691 832.657 213.071 835.829 Q216.451 839 216.451 844.417 Q216.451 849.995 212.978 853.097 Q209.506 856.176 203.187 856.176 Q201.011 856.176 198.742 855.805 Q196.497 855.435 194.09 854.694 L194.09 849.995 Q196.173 851.129 198.395 851.685 Q200.617 852.241 203.094 852.241 Q207.099 852.241 209.437 850.134 Q211.775 848.028 211.775 844.417 Q211.775 840.805 209.437 838.699 Q207.099 836.592 203.094 836.592 Q201.219 836.592 199.344 837.009 Q197.492 837.426 195.548 838.305 L195.548 820.944 Z" fill="#000000" fill-rule="evenodd" fill-opacity="1" /><path clip-path="url(#clip440)" d="M 0 0 M153.303 642.167 L169.622 642.167 L169.622 646.102 L147.678 646.102 L147.678 642.167 Q150.34 639.413 154.923 634.783 Q159.53 630.13 160.71 628.788 Q162.955 626.265 163.835 624.529 Q164.738 622.769 164.738 621.079 Q164.738 618.325 162.793 616.589 Q160.872 614.853 157.77 614.853 Q155.571 614.853 153.118 615.617 Q150.687 616.38 147.909 617.931 L147.909 613.209 Q150.733 612.075 153.187 611.496 Q155.641 610.917 157.678 610.917 Q163.048 610.917 166.242 613.603 Q169.437 616.288 169.437 620.779 Q169.437 622.908 168.627 624.829 Q167.84 626.728 165.733 629.32 Q165.155 629.991 162.053 633.209 Q158.951 636.403 153.303 642.167 Z" fill="#000000" fill-rule="evenodd" fill-opacity="1" /><path clip-path="url(#clip440)" d="M 0 0 M179.437 640.223 L184.321 640.223 L184.321 646.102 L179.437 646.102 L179.437 640.223 Z" fill="#000000" fill-rule="evenodd" fill-opacity="1" /><path clip-path="url(#clip440)" d="M 0 0 M204.506 614.621 Q200.895 614.621 199.066 618.186 Q197.261 621.728 197.261 628.857 Q197.261 635.964 199.066 639.528 Q200.895 643.07 204.506 643.07 Q208.14 643.07 209.946 639.528 Q211.775 635.964 211.775 628.857 Q211.775 621.728 209.946 618.186 Q208.14 614.621 204.506 614.621 M204.506 610.917 Q210.316 610.917 213.372 615.524 Q216.451 620.107 216.451 628.857 Q216.451 637.584 213.372 642.19 Q210.316 646.774 204.506 646.774 Q198.696 646.774 195.617 642.19 Q192.562 637.584 192.562 628.857 Q192.562 620.107 195.617 615.524 Q198.696 610.917 204.506 610.917 Z" fill="#000000" fill-rule="evenodd" fill-opacity="1" /><path clip-path="url(#clip440)" d="M 0 0 M154.298 432.765 L170.617 432.765 L170.617 436.701 L148.673 436.701 L148.673 432.765 Q151.335 430.011 155.918 425.381 Q160.525 420.728 161.705 419.386 Q163.951 416.863 164.83 415.127 Q165.733 413.367 165.733 411.678 Q165.733 408.923 163.789 407.187 Q161.868 405.451 158.766 405.451 Q156.567 405.451 154.113 406.215 Q151.682 406.978 148.905 408.529 L148.905 403.807 Q151.729 402.673 154.182 402.094 Q156.636 401.516 158.673 401.516 Q164.043 401.516 167.238 404.201 Q170.432 406.886 170.432 411.377 Q170.432 413.506 169.622 415.428 Q168.835 417.326 166.729 419.918 Q166.15 420.59 163.048 423.807 Q159.946 427.002 154.298 432.765 Z" fill="#000000" fill-rule="evenodd" fill-opacity="1" /><path clip-path="url(#clip440)" d="M 0 0 M180.432 430.821 L185.316 430.821 L185.316 436.701 L180.432 436.701 L180.432 430.821 Z" fill="#000000" fill-rule="evenodd" fill-opacity="1" /><path clip-path="url(#clip440)" d="M 0 0 M195.548 402.141 L213.904 402.141 L213.904 406.076 L199.83 406.076 L199.83 414.548 Q200.849 414.201 201.867 414.039 Q202.886 413.853 203.904 413.853 Q209.691 413.853 213.071 417.025 Q216.451 420.196 216.451 425.613 Q216.451 431.191 212.978 434.293 Q209.506 437.372 203.187 437.372 Q201.011 437.372 198.742 437.001 Q196.497 436.631 194.09 435.89 L194.09 431.191 Q196.173 432.326 198.395 432.881 Q200.617 433.437 203.094 433.437 Q207.099 433.437 209.437 431.33 Q211.775 429.224 211.775 425.613 Q211.775 422.002 209.437 419.895 Q207.099 417.789 203.094 417.789 Q201.219 417.789 199.344 418.205 Q197.492 418.622 195.548 419.502 L195.548 402.141 Z" fill="#000000" fill-rule="evenodd" fill-opacity="1" /><path clip-path="url(#clip440)" d="M 0 0 M163.442 208.664 Q166.798 209.382 168.673 211.651 Q170.571 213.919 170.571 217.252 Q170.571 222.368 167.053 225.169 Q163.534 227.97 157.053 227.97 Q154.877 227.97 152.562 227.53 Q150.27 227.113 147.817 226.257 L147.817 221.743 Q149.761 222.877 152.076 223.456 Q154.391 224.035 156.914 224.035 Q161.312 224.035 163.604 222.299 Q165.918 220.563 165.918 217.252 Q165.918 214.197 163.766 212.484 Q161.636 210.748 157.817 210.748 L153.789 210.748 L153.789 206.905 L158.002 206.905 Q161.451 206.905 163.28 205.539 Q165.108 204.151 165.108 201.558 Q165.108 198.896 163.21 197.484 Q161.335 196.049 157.817 196.049 Q155.895 196.049 153.696 196.465 Q151.497 196.882 148.858 197.762 L148.858 193.595 Q151.52 192.854 153.835 192.484 Q156.173 192.114 158.233 192.114 Q163.557 192.114 166.659 194.544 Q169.761 196.952 169.761 201.072 Q169.761 203.942 168.117 205.933 Q166.474 207.901 163.442 208.664 Z" fill="#000000" fill-rule="evenodd" fill-opacity="1" /><path clip-path="url(#clip440)" d="M 0 0 M179.437 221.419 L184.321 221.419 L184.321 227.299 L179.437 227.299 L179.437 221.419 Z" fill="#000000" fill-rule="evenodd" fill-opacity="1" /><path clip-path="url(#clip440)" d="M 0 0 M204.506 195.817 Q200.895 195.817 199.066 199.382 Q197.261 202.924 197.261 210.053 Q197.261 217.16 199.066 220.725 Q200.895 224.266 204.506 224.266 Q208.14 224.266 209.946 220.725 Q211.775 217.16 211.775 210.053 Q211.775 202.924 209.946 199.382 Q208.14 195.817 204.506 195.817 M204.506 192.114 Q210.316 192.114 213.372 196.72 Q216.451 201.303 216.451 210.053 Q216.451 218.78 213.372 223.387 Q210.316 227.97 204.506 227.97 Q198.696 227.97 195.617 223.387 Q192.562 218.78 192.562 210.053 Q192.562 201.303 195.617 196.72 Q198.696 192.114 204.506 192.114 Z" fill="#000000" fill-rule="evenodd" fill-opacity="1" /><path clip-path="url(#clip440)" d="M 0 0 M60.857 942.374 L77.282 948.043 L77.282 1002.73 Q77.282 1003.47 77.2498 1003.76 Q77.2176 1004.05 77.0566 1004.27 Q76.8956 1004.5 76.5413 1004.5 Q76.2514 1004.5 75.5107 1003.92 L46.5576 980.506 L13.45 1004.56 Q11.9363 1004.56 11.6465 1004.31 Q11.3244 1004.05 11.3244 1002.73 L11.3244 948.043 L26.751 942.374 L26.751 944.017 Q24.7543 944.758 23.0796 945.949 Q21.3726 947.109 20.1488 948.461 Q18.925 949.782 17.9588 951.521 Q16.9604 953.228 16.3485 954.838 Q15.7044 956.416 15.2535 958.381 Q14.7704 960.345 14.545 961.923 Q14.2874 963.469 14.1585 965.402 Q14.0297 967.334 13.9975 968.558 Q13.9653 969.782 13.9653 971.327 L13.9653 997.446 L43.3693 976.03 Q44.11 975.546 44.3032 975.546 Q44.5931 975.546 45.366 976.158 L73.6428 999.024 L73.6428 971.005 Q73.6428 961.988 71.7426 955.708 Q70.2934 951.456 67.427 948.365 Q64.5607 945.241 60.857 944.017 L60.857 942.374 Z" fill="#000000" fill-rule="evenodd" fill-opacity="1" /><path clip-path="url(#clip440)" d="M 0 0 M103.424 1013.55 Q104.055 1013.55 104.213 1013.85 Q104.349 1014.14 104.349 1014.95 L104.349 1019.28 L117.965 1022.7 Q119.16 1022.98 120.174 1022.98 Q121.302 1022.98 121.798 1022.64 Q122.294 1022.28 122.294 1021.53 Q122.294 1020.07 120.964 1018.49 Q119.633 1016.89 116.387 1015.54 Q115.959 1015.36 115.869 1015.27 Q115.756 1015.15 115.756 1014.86 Q115.756 1014.3 116.207 1014.3 Q116.365 1014.3 117.086 1014.61 Q117.807 1014.9 118.867 1015.56 Q119.927 1016.19 120.918 1017.02 Q121.91 1017.84 122.632 1019.08 Q123.331 1020.32 123.331 1021.65 Q123.331 1023.52 122.136 1024.71 Q120.941 1025.88 119.07 1025.88 Q118.461 1025.88 116.522 1025.41 Q114.561 1024.94 104.349 1022.37 L104.349 1026.45 Q104.349 1027.01 104.326 1027.24 Q104.303 1027.44 104.191 1027.6 Q104.055 1027.73 103.785 1027.73 Q103.357 1027.73 103.176 1027.55 Q102.973 1027.37 102.951 1027.15 Q102.906 1026.9 102.906 1026.33 L102.906 1022.01 L95.5789 1020.2 Q94.8575 1020.02 94.4517 1019.57 Q94.0233 1019.1 93.9782 1018.83 Q93.9106 1018.56 93.9106 1018.35 Q93.9106 1017.75 94.2488 1017.38 Q94.5644 1017.02 95.1505 1017.02 Q95.4662 1017.02 102.906 1018.92 L102.906 1014.86 Q102.906 1014.34 102.928 1014.14 Q102.951 1013.91 103.064 1013.73 Q103.176 1013.55 103.424 1013.55 Z" fill="#000000" fill-rule="evenodd" fill-opacity="1" /><path clip-path="url(#clip440)" d="M 0 0 M115.801 998.419 Q115.237 998.374 115.237 997.495 L115.237 969.202 Q115.237 967.872 115.756 967.85 Q116.319 967.85 116.297 969.112 L116.297 997.179 Q116.319 998.419 115.801 998.419 M106.783 998.419 Q106.22 998.419 106.242 997.45 L106.242 969.247 Q106.242 967.872 106.783 967.85 Q107.302 967.85 107.302 969.022 L107.302 997.495 Q107.302 998.419 106.783 998.419 Z" fill="#000000" fill-rule="evenodd" fill-opacity="1" /><path clip-path="url(#clip440)" d="M 0 0 M108.046 950.037 Q101.26 950.037 97.5628 948.324 Q92.062 945.934 92.062 940.298 Q92.062 939.104 92.4002 937.864 Q92.7158 936.601 93.9557 935.023 Q95.1956 933.422 97.2246 932.453 Q101.147 930.604 108.046 930.604 Q114.786 930.604 118.461 932.318 Q123.827 934.82 123.827 940.344 Q123.827 942.418 122.767 944.537 Q121.707 946.633 119.16 947.963 Q115.35 950.037 108.046 950.037 M107.482 946.205 Q114.448 946.205 117.221 945.709 Q120.22 945.145 121.527 943.612 Q122.812 942.057 122.812 940.344 Q122.812 938.495 121.437 936.962 Q120.039 935.406 117.041 934.933 Q114.088 934.414 107.482 934.437 Q101.057 934.437 98.4871 934.888 Q95.4887 935.497 94.2939 937.12 Q93.0765 938.72 93.0765 940.344 Q93.0765 940.952 93.2568 941.606 Q93.4372 942.237 93.9557 943.162 Q94.4742 944.086 95.7592 944.807 Q97.0442 945.506 98.983 945.844 Q101.485 946.205 107.482 946.205 Z" fill="#000000" fill-rule="evenodd" fill-opacity="1" /><path clip-path="url(#clip440)" d="M 0 0 M16.8638 875.27 Q17.4757 875.27 17.991 875.399 L29.4563 877.202 Q30.3259 877.299 30.6479 877.492 Q30.97 877.653 30.97 878.168 Q30.97 878.974 30.1326 878.974 Q29.6496 878.974 28.8766 878.78 Q25.2374 878.233 23.5949 878.233 Q22.4999 878.233 21.6947 878.458 Q20.8574 878.651 20.2776 878.974 Q19.6979 879.263 19.3115 879.94 Q18.925 880.616 18.6996 881.26 Q18.4741 881.904 18.3775 883.064 Q18.2487 884.223 18.2165 885.221 Q18.1843 886.22 18.1843 887.862 Q18.1843 891.437 18.3131 892.017 Q18.4741 892.629 18.9572 892.951 Q19.4081 893.241 20.7607 893.563 L55.7685 902.323 L57.1534 902.58 Q57.9263 902.58 58.1839 902.097 Q58.4416 901.614 58.6026 900.133 Q58.7637 898.007 58.7637 895.914 Q58.7637 895.849 58.7637 895.721 Q58.7637 895.012 58.7959 894.722 Q58.7959 894.432 58.8603 894.142 Q58.9247 893.853 59.0857 893.788 Q59.2145 893.692 59.4722 893.692 Q60.0841 893.692 60.4062 893.949 Q60.696 894.207 60.7604 894.465 Q60.7926 894.69 60.7926 895.141 Q60.7926 896.043 60.7282 897.975 Q60.6638 899.907 60.6638 900.874 L60.5994 906.349 L60.6638 911.952 Q60.6638 912.822 60.7282 914.658 Q60.7926 916.493 60.7926 917.363 Q60.7926 918.49 59.9875 918.49 Q59.0857 918.49 58.9247 918.071 Q58.7637 917.621 58.7637 915.72 Q58.7637 913.047 58.6348 911.598 Q58.506 910.149 58.0551 909.376 Q57.6042 908.571 57.1534 908.345 Q56.6703 908.12 55.5753 907.862 L20.3743 899.006 Q19.6013 898.748 18.9894 898.748 Q18.6674 898.748 18.5385 898.845 Q18.4097 898.909 18.3131 899.328 Q18.1843 899.746 18.1843 900.616 L18.1843 903.192 Q18.1843 905.833 18.3131 907.476 Q18.4097 909.086 18.8928 910.632 Q19.3759 912.146 20.0522 913.047 Q20.7285 913.917 22.1134 914.883 Q23.4982 915.849 25.1729 916.558 Q26.8476 917.234 29.5851 918.2 Q30.4869 918.522 30.7446 918.716 Q30.97 918.877 30.97 919.327 Q30.97 919.65 30.7768 919.907 Q30.5513 920.133 30.2615 920.133 Q29.1987 919.811 29.0698 919.746 L17.4435 915.785 Q16.5096 915.463 16.3485 915.173 Q16.1553 914.851 16.1553 913.659 L16.1553 877.073 Q16.1553 876.494 16.1553 876.3 Q16.1553 876.107 16.2197 875.785 Q16.2841 875.463 16.4451 875.366 Q16.6062 875.27 16.8638 875.27 Z" fill="#000000" fill-rule="evenodd" fill-opacity="1" /><path clip-path="url(#clip440)" d="M 0 0 M7.94593 850.294 L8.87023 850.858 Q7.35978 854.352 4.94756 858.703 Q7.35978 863.054 8.87023 866.548 L7.94593 867.089 Q4.63194 863.279 2.08446 858.703 Q4.65449 854.081 7.94593 850.294 Z" fill="#000000" fill-rule="evenodd" fill-opacity="1" /><path clip-path="url(#clip440)" d="M 0 0 M16.5418 834.027 Q16.9604 834.027 17.2181 834.124 Q17.4757 834.189 17.6046 834.446 Q17.7012 834.672 17.7334 834.833 Q17.7656 834.961 17.7978 835.348 Q17.9266 836.926 18.3453 838.246 Q18.7318 839.567 19.5047 840.694 Q20.2776 841.789 20.7929 842.401 Q21.3082 842.981 22.3388 844.011 L23.2728 844.913 L42.0488 861.274 Q42.6929 861.853 44.11 862.208 L53.4175 864.526 Q57.2822 865.428 57.572 865.428 Q58.1517 865.428 58.345 865.106 Q58.506 864.752 58.6026 863.657 L58.7637 861.145 Q58.7637 859.663 59.0213 859.438 Q59.1823 859.309 59.4722 859.309 Q60.0841 859.309 60.4062 859.567 Q60.696 859.792 60.7604 860.018 Q60.7926 860.211 60.7926 860.565 L60.5994 869.003 L60.7926 877.312 Q60.7926 878.246 60.0519 878.246 Q59.5688 878.246 59.3112 878.182 Q59.0213 878.085 58.9247 877.795 Q58.7959 877.505 58.7959 877.28 Q58.7637 877.055 58.7637 876.443 Q58.7314 874.961 58.7314 874.22 Q58.6992 873.447 58.506 872.707 Q58.3128 871.966 58.1839 871.708 Q58.0229 871.418 57.4754 871.096 Q56.8957 870.742 56.4448 870.646 Q55.9939 870.517 54.8667 870.259 Q53.8684 870.001 48.4256 868.649 Q42.9828 867.296 42.854 867.296 Q42.4997 867.296 41.7268 867.554 L20.02 875.67 Q19.0538 876.024 18.6674 876.314 Q18.2809 876.604 18.0554 877.57 Q17.7978 878.536 17.7978 880.468 Q17.7978 881.016 17.7656 881.273 Q17.7334 881.531 17.5724 881.757 Q17.4113 881.982 17.0571 881.982 Q16.4451 881.982 16.1553 881.724 Q15.8332 881.467 15.801 881.273 Q15.7366 881.048 15.7366 880.726 Q15.7366 879.921 15.8332 877.055 Q15.9299 874.188 15.9299 873.351 L15.7366 865.042 Q15.7366 864.043 16.4774 864.043 Q17.3791 864.043 17.6046 864.398 Q17.7978 864.752 17.7978 865.621 Q17.7978 869.518 19.3759 869.518 Q19.5691 869.518 20.5031 869.132 L40.0843 861.886 L22.4676 846.588 L22.21 846.362 Q21.9524 846.169 21.7591 846.008 Q21.5659 845.847 21.2116 845.589 Q20.8574 845.332 20.5675 845.203 Q20.2776 845.042 19.9234 844.913 Q19.5691 844.784 19.3115 844.784 Q18.8284 844.784 18.5063 845.074 Q18.1521 845.364 18.0232 845.815 Q17.8944 846.266 17.8622 846.588 Q17.7978 846.91 17.7978 847.167 Q17.7978 848.166 16.9926 848.166 Q16.4129 848.166 16.1231 847.908 Q15.801 847.651 15.7688 847.457 Q15.7366 847.232 15.7366 846.91 Q15.7366 845.847 15.8332 843.625 Q15.9299 841.403 15.9299 840.308 Q15.9299 839.406 15.8332 837.57 Q15.7366 835.734 15.7366 834.897 Q15.7366 834.027 16.5418 834.027 Z" fill="#000000" fill-rule="evenodd" fill-opacity="1" /><path clip-path="url(#clip440)" d="M 0 0 M58.5788 822.834 Q59.21 822.834 59.3678 823.128 Q59.5031 823.421 59.5031 824.232 L59.5031 828.561 L73.1197 831.987 Q74.3145 832.258 75.329 832.258 Q76.4562 832.258 76.9522 831.92 Q77.4482 831.559 77.4482 830.815 Q77.4482 829.35 76.1181 827.772 Q74.788 826.171 71.5416 824.818 Q71.1133 824.638 71.0231 824.548 Q70.9104 824.435 70.9104 824.142 Q70.9104 823.578 71.3613 823.578 Q71.5191 823.578 72.2405 823.894 Q72.9619 824.187 74.0215 824.841 Q75.081 825.472 76.073 826.306 Q77.0649 827.118 77.7863 828.358 Q78.4852 829.598 78.4852 830.928 Q78.4852 832.799 77.2904 833.994 Q76.0955 835.166 74.2244 835.166 Q73.6157 835.166 71.6769 834.693 Q69.7155 834.219 59.5031 831.649 L59.5031 835.73 Q59.5031 836.293 59.4805 836.519 Q59.458 836.722 59.3453 836.879 Q59.21 837.015 58.9395 837.015 Q58.5111 837.015 58.3308 836.834 Q58.1279 836.654 58.1053 836.429 Q58.0602 836.181 58.0602 835.617 L58.0602 831.289 L50.7334 829.485 Q50.012 829.305 49.6062 828.854 Q49.1779 828.38 49.1328 828.11 Q49.0651 827.839 49.0651 827.636 Q49.0651 827.028 49.4033 826.667 Q49.7189 826.306 50.3051 826.306 Q50.6207 826.306 58.0602 828.2 L58.0602 824.142 Q58.0602 823.624 58.0828 823.421 Q58.1053 823.195 58.218 823.015 Q58.3308 822.834 58.5788 822.834 Z" fill="#000000" fill-rule="evenodd" fill-opacity="1" /><path clip-path="url(#clip440)" d="M 0 0 M42.8415 813.474 Q32.1994 813.474 23.618 809.506 Q20.0193 807.814 17.0051 805.446 Q13.9908 803.078 12.6682 801.509 Q11.3456 799.94 11.3456 799.51 Q11.3456 798.894 11.9608 798.864 Q12.2684 798.864 13.0373 799.694 Q23.3719 809.844 42.8415 809.813 Q62.3727 809.813 72.3074 799.94 Q73.384 798.864 73.7223 798.864 Q74.3374 798.864 74.3374 799.51 Q74.3374 799.94 73.0764 801.447 Q71.8153 802.954 68.9241 805.292 Q66.0329 807.63 62.4957 809.321 Q53.9143 813.474 42.8415 813.474 Z" fill="#000000" fill-rule="evenodd" fill-opacity="1" /><path clip-path="url(#clip440)" d="M 0 0 M24.5932 782.245 Q18.925 782.245 15.1247 779.347 Q11.3244 776.448 11.3244 772.551 Q11.3244 770.168 13.45 767.817 Q18.5385 762.471 18.5063 755.482 Q18.5063 747.559 12.2584 742.954 Q11.3244 742.149 11.3244 741.569 Q11.3244 741.054 11.7431 740.667 Q12.1296 740.249 12.6449 740.249 Q13.0313 740.249 13.8365 740.764 L63.4979 774.129 Q64.4963 774.87 64.4963 775.45 Q64.4963 775.965 64.0776 776.384 Q63.6911 776.77 63.1759 776.77 Q62.725 776.77 61.8554 776.19 L17.7334 746.561 L17.669 746.625 Q19.9878 750.039 19.9556 755.418 Q19.9556 760.506 17.1859 765.369 Q20.5997 763.984 24.6576 763.984 Q30.1971 763.984 34.0618 766.464 Q37.8943 768.944 37.8943 772.551 Q37.8943 776.448 34.1584 779.347 Q30.3903 782.245 24.5932 782.245 M19.2149 777.704 Q21.5337 778.155 24.6576 778.155 Q27.7494 778.155 30.0682 777.704 Q32.3548 777.253 33.5465 776.609 Q34.7381 775.933 35.4466 775.031 Q36.1229 774.129 36.284 773.582 Q36.445 773.034 36.445 772.487 Q36.445 769.781 33.0956 767.72 Q29.714 765.627 24.5932 765.627 Q19.5691 765.627 16.1875 767.72 Q12.7737 769.781 12.7737 772.487 Q12.7737 773.066 12.9347 773.646 Q13.0957 774.194 13.8043 775.063 Q14.4806 775.933 15.6722 776.609 Q16.8638 777.253 19.2149 777.704 M51.1631 753.034 Q45.4948 753.034 41.6945 750.136 Q37.8943 747.237 37.8943 743.34 Q37.8943 739.766 41.759 737.286 Q45.6237 734.774 51.2275 734.774 Q56.7669 734.774 60.6316 737.253 Q64.4963 739.701 64.4963 743.34 Q64.4963 747.237 60.7282 750.136 Q56.9601 753.034 51.1631 753.034 M45.7847 748.493 Q48.1357 748.944 51.2275 748.944 Q54.3192 748.944 56.6381 748.493 Q58.9569 748.01 60.1485 747.366 Q61.3079 746.69 61.9842 745.82 Q62.6928 744.918 62.8538 744.371 Q63.047 743.791 63.047 743.276 Q63.047 740.571 59.6976 738.51 Q56.316 736.416 51.1631 736.416 Q46.139 736.416 42.7573 738.51 Q39.3435 740.571 39.3435 743.276 Q39.3435 743.856 39.5368 744.435 Q39.6978 744.983 40.4063 745.852 Q41.0826 746.69 42.2743 747.366 Q43.4337 748.01 45.7847 748.493 Z" fill="#000000" fill-rule="evenodd" fill-opacity="1" /><path clip-path="url(#clip440)" d="M 0 0 M59.7298 726.924 Q58.667 727.858 57.2822 727.858 Q55.8973 727.858 54.8667 726.956 Q53.8039 726.022 53.8039 724.348 Q53.8039 722.383 55.7041 721.256 Q57.572 720.129 60.7282 720.129 Q64.142 720.129 67.2982 721.514 Q70.4866 722.898 72.0003 724.251 Q73.5139 725.604 73.5139 726.151 Q73.5139 726.795 72.8054 726.795 Q72.5478 726.795 72.0647 726.344 Q66.9761 721.61 60.7282 721.578 Q59.7298 721.578 59.7298 721.707 L59.8587 721.868 Q60.7926 722.995 60.7926 724.348 Q60.7926 725.99 59.7298 726.924 Z" fill="#000000" fill-rule="evenodd" fill-opacity="1" /><path clip-path="url(#clip440)" d="M 0 0 M43.4981 664.724 Q46.7509 664.724 50.0037 666.399 Q53.2564 668.073 55.7685 670.811 Q58.2484 673.548 59.8587 677.284 Q61.4689 681.02 61.5978 684.917 L71.4206 687.429 Q73.8038 687.912 74.0614 688.17 Q74.3191 688.427 74.3191 688.814 Q74.3191 689.619 73.5783 689.619 Q73.3529 689.619 67.7813 688.17 L61.5978 686.624 Q61.2757 692.485 57.8941 695.899 Q54.5125 699.313 49.6494 699.313 Q46.3644 699.313 43.1116 697.638 Q39.8266 695.931 37.3468 693.194 Q34.8669 690.424 33.2888 686.688 Q31.7107 682.952 31.5819 679.12 L16.3485 675.287 Q15.479 675.094 15.2535 674.933 Q15.0281 674.772 15.0281 674.289 Q15.0281 673.935 15.1891 673.742 Q15.3502 673.548 15.5112 673.548 L15.6722 673.516 L16.6062 673.709 L31.5819 677.413 Q31.8073 674.128 32.9668 671.584 Q34.1262 669.04 35.8653 667.59 Q37.5722 666.141 39.5045 665.432 Q41.4369 664.724 43.4981 664.724 M33.0312 679.506 Q33.3532 683.049 35.0923 686.044 Q36.8315 689.039 39.4079 690.972 Q41.9522 692.904 45.0117 693.967 Q48.0391 695.03 51.0342 695.03 Q53.3853 695.03 55.1888 694.257 Q56.9923 693.452 58.0229 692.131 Q59.0213 690.811 59.5688 689.361 Q60.0841 687.88 60.1485 686.302 L33.0312 679.506 M42.1132 669.04 Q37.9265 669.04 35.5754 671.455 Q33.2244 673.87 33.0312 677.8 L60.1485 684.595 Q59.9231 681.729 58.7314 679.217 Q57.5076 676.672 55.7041 674.837 Q53.8684 673.001 51.614 671.68 Q49.3273 670.36 46.9119 669.716 Q44.4642 669.04 42.1132 669.04 Z" fill="#000000" fill-rule="evenodd" fill-opacity="1" /><path clip-path="url(#clip440)" d="M 0 0 M50.7766 642.094 Q49.9715 642.03 49.9715 640.774 L49.9715 600.355 Q49.9715 598.455 50.7122 598.423 Q51.5173 598.423 51.4851 600.227 L51.4851 640.323 Q51.5173 642.094 50.7766 642.094 M37.8943 642.094 Q37.0891 642.094 37.1213 640.709 L37.1213 600.42 Q37.1213 598.455 37.8943 598.423 Q38.635 598.423 38.635 600.098 L38.635 640.774 Q38.635 642.094 37.8943 642.094 Z" fill="#000000" fill-rule="evenodd" fill-opacity="1" /><path clip-path="url(#clip440)" d="M 0 0 M23.144 572.977 L21.0828 572.977 Q21.0828 565.055 16.8638 560.965 Q16.8638 559.837 17.1215 559.644 Q17.3791 559.451 18.5707 559.451 L55.5753 559.451 Q57.5398 559.451 58.1517 558.485 Q58.7637 557.519 58.7637 553.3 L58.7637 551.206 L60.7926 551.206 Q60.5994 553.525 60.5994 561.899 Q60.5994 570.272 60.7926 572.559 L58.7637 572.559 L58.7637 570.465 Q58.7637 566.311 58.1839 565.312 Q57.572 564.314 55.5753 564.314 L21.4049 564.314 Q23.144 567.76 23.144 572.977 Z" fill="#000000" fill-rule="evenodd" fill-opacity="1" /><path clip-path="url(#clip440)" d="M 0 0 M59.7298 546.065 Q58.667 547.063 57.2822 547.063 Q55.8973 547.063 54.8989 546.065 Q53.8684 545.067 53.8684 543.553 Q53.8684 542.104 54.8345 541.137 Q55.7685 540.139 57.3144 540.139 Q58.8281 540.139 59.8264 541.202 Q60.7926 542.232 60.7926 543.553 Q60.7926 545.067 59.7298 546.065 Z" fill="#000000" fill-rule="evenodd" fill-opacity="1" /><path clip-path="url(#clip440)" d="M 0 0 M60.7926 528.913 Q59.601 528.913 59.2467 528.816 Q58.8925 528.688 58.345 528.172 L44.2388 515.515 Q36.445 508.591 29.6496 508.591 Q25.2374 508.591 22.0812 510.91 Q18.925 513.197 18.925 517.416 Q18.925 520.314 20.6963 522.762 Q22.4676 525.209 25.6238 526.337 Q25.5594 526.143 25.5594 525.467 Q25.5594 523.825 26.59 522.923 Q27.6206 521.989 29.0054 521.989 Q30.7768 521.989 31.6463 523.148 Q32.4837 524.275 32.4837 525.403 Q32.4837 525.854 32.3871 526.465 Q32.2904 527.045 31.3887 527.979 Q30.4547 528.913 28.8122 528.913 Q24.2068 528.913 20.5353 525.435 Q16.8638 521.924 16.8638 516.578 Q16.8638 510.524 20.4709 506.562 Q24.0457 502.569 29.6496 502.569 Q31.6141 502.569 33.4176 503.181 Q35.189 503.76 36.5738 504.565 Q37.9587 505.338 40.1809 507.464 Q42.4031 509.59 43.9812 511.296 Q45.5592 513.003 48.9087 516.836 L55.7041 523.825 L55.7041 511.941 Q55.7041 506.144 55.1888 505.693 Q54.2548 505.049 49.3273 504.243 L49.3273 502.569 L60.7926 504.437 L60.7926 528.913 Z" fill="#000000" fill-rule="evenodd" fill-opacity="1" /><path clip-path="url(#clip440)" d="M 0 0 M50.1647 496.249 Q48.2001 496.249 47.4594 495.186 Q46.6865 494.123 46.6865 492.996 Q46.6865 491.483 47.6526 490.613 Q48.5866 489.711 49.907 489.711 Q51.2275 489.711 52.1937 490.613 Q53.1276 491.483 53.1276 492.996 Q53.1276 493.737 52.9988 494.123 Q56.0262 493.254 58.2162 490.613 Q60.4062 487.94 60.4062 484.429 Q60.4062 480.017 56.1228 477.376 Q53.3531 475.798 47.0729 475.798 Q41.5335 475.798 38.7638 476.99 Q34.5448 478.826 34.5448 482.594 Q34.5448 487.94 39.1503 491.096 Q39.73 491.483 39.7622 491.933 Q39.7622 492.578 39.4079 492.739 Q39.0215 492.867 38.0231 492.867 L18.5063 492.867 Q16.9282 492.867 16.9282 492.223 Q16.9282 491.966 17.1215 491.418 Q18.9572 487.264 18.9894 482.658 Q18.9894 477.924 17.0571 473.673 Q16.8638 473.351 16.8638 473.157 Q16.8638 472.513 17.6046 472.481 Q17.8622 472.481 18.6351 473.029 Q19.3759 473.544 20.3743 474.671 Q21.3404 475.798 22.2744 477.248 Q23.2084 478.697 23.8525 480.822 Q24.4644 482.916 24.4644 485.235 Q24.4644 488.004 23.5949 490.838 L36.445 490.838 Q33.0956 487.425 33.0956 482.465 Q33.0956 477.183 37.3468 473.544 Q41.5979 469.905 47.5238 469.905 Q53.7395 469.905 57.9907 474.22 Q62.2419 478.504 62.2419 484.301 Q62.2419 489.582 58.4738 492.932 Q54.7057 496.249 50.1647 496.249 Z" fill="#000000" fill-rule="evenodd" fill-opacity="1" /><path clip-path="url(#clip440)" d="M 0 0 M73.7223 463.131 Q73.4147 463.131 72.6458 462.331 Q62.3112 452.181 42.8415 452.181 Q23.3104 452.181 13.4372 461.931 Q12.2991 463.131 11.9608 463.131 Q11.3456 463.131 11.3456 462.516 Q11.3456 462.085 12.6067 460.578 Q13.8678 459.04 16.759 456.733 Q19.6502 454.396 23.1874 452.673 Q31.7688 448.521 42.8415 448.521 Q53.4837 448.521 62.0651 452.489 Q65.6638 454.18 68.678 456.549 Q71.6923 458.917 73.0149 460.486 Q74.3374 462.054 74.3374 462.516 Q74.3374 463.131 73.7223 463.131 Z" fill="#000000" fill-rule="evenodd" fill-opacity="1" /><polyline clip-path="url(#clip442)" style="stroke:#0000ff; stroke-width:4; stroke-opacity:1; fill:none" points="
  293.932,86.6476 985.294,1397.03 1676.66,1353.32 
  "/>
<polyline clip-path="url(#clip442)" style="stroke:#7f0080; stroke-width:4; stroke-opacity:1; fill:none" points="
  293.932,565.096 985.294,1400.1 1676.66,1358.87 
  "/>
<polyline clip-path="url(#clip442)" style="stroke:#ff0000; stroke-width:4; stroke-opacity:1; fill:none" points="
  293.932,849.728 985.294,1368.37 1676.66,1333.46 
  "/>
<path clip-path="url(#clip440)" d="
M1788.15 305.333 L2352.76 305.333 L2352.76 93.6527 L1788.15 93.6527  Z
  " fill="#ffffff" fill-rule="evenodd" fill-opacity="1"/>
<polyline clip-path="url(#clip440)" style="stroke:#000000; stroke-width:4; stroke-opacity:1; fill:none" points="
  1788.15,305.333 2352.76,305.333 2352.76,93.6527 1788.15,93.6527 1788.15,305.333 
  "/>
<polyline clip-path="url(#clip440)" style="stroke:#0000ff; stroke-width:3.5; stroke-opacity:1; fill:none" points="
  1811.48,146.573 1951.5,146.573 
  "/>
<path clip-path="url(#clip440)" d="M 0 0 M2003.39 128.673 Q2003.39 129.062 2003.31 129.39 L2002.16 136.686 Q2002.1 137.239 2001.98 137.444 Q2001.87 137.649 2001.55 137.649 Q2001.03 137.649 2001.03 137.116 Q2001.03 136.809 2001.16 136.317 Q2001.5 134.001 2001.5 132.956 Q2001.5 132.259 2001.36 131.747 Q2001.24 131.214 2001.03 130.845 Q2000.85 130.476 2000.42 130.23 Q1999.99 129.984 1999.58 129.841 Q1999.17 129.697 1998.43 129.636 Q1997.69 129.554 1997.06 129.533 Q1996.42 129.513 1995.38 129.513 Q1993.1 129.513 1992.73 129.595 Q1992.34 129.697 1992.14 130.005 Q1991.95 130.292 1991.75 131.153 L1986.17 153.43 L1986.01 154.311 Q1986.01 154.803 1986.32 154.967 Q1986.63 155.131 1987.57 155.234 Q1988.92 155.336 1990.25 155.336 Q1990.29 155.336 1990.38 155.336 Q1990.83 155.336 1991.01 155.357 Q1991.2 155.357 1991.38 155.398 Q1991.56 155.439 1991.61 155.541 Q1991.67 155.623 1991.67 155.787 Q1991.67 156.176 1991.5 156.381 Q1991.34 156.566 1991.18 156.607 Q1991.03 156.627 1990.74 156.627 Q1990.17 156.627 1988.94 156.586 Q1987.71 156.545 1987.1 156.545 L1983.61 156.504 L1980.05 156.545 Q1979.49 156.545 1978.33 156.586 Q1977.16 156.627 1976.6 156.627 Q1975.89 156.627 1975.89 156.115 Q1975.89 155.541 1976.15 155.439 Q1976.44 155.336 1977.65 155.336 Q1979.35 155.336 1980.27 155.254 Q1981.19 155.172 1981.69 154.885 Q1982.2 154.598 1982.34 154.311 Q1982.49 154.004 1982.65 153.307 L1988.29 130.907 Q1988.45 130.415 1988.45 130.025 Q1988.45 129.82 1988.39 129.738 Q1988.35 129.656 1988.08 129.595 Q1987.81 129.513 1987.26 129.513 L1985.62 129.513 Q1983.94 129.513 1982.9 129.595 Q1981.87 129.656 1980.89 129.964 Q1979.92 130.271 1979.35 130.702 Q1978.8 131.132 1978.18 132.013 Q1977.57 132.895 1977.12 133.96 Q1976.69 135.026 1976.07 136.768 Q1975.87 137.342 1975.74 137.506 Q1975.64 137.649 1975.35 137.649 Q1975.15 137.649 1974.98 137.526 Q1974.84 137.383 1974.84 137.198 Q1975.05 136.522 1975.09 136.44 L1977.61 129.042 Q1977.81 128.447 1978 128.345 Q1978.2 128.222 1978.96 128.222 L2002.24 128.222 Q2002.61 128.222 2002.73 128.222 Q2002.86 128.222 2003.06 128.263 Q2003.27 128.304 2003.33 128.406 Q2003.39 128.509 2003.39 128.673 Z" fill="#000000" fill-rule="evenodd" fill-opacity="1" /><path clip-path="url(#clip440)" d="M 0 0 M2010.76 150.254 Q2010.8 149.741 2011.6 149.741 L2037.32 149.741 Q2038.53 149.741 2038.55 150.213 Q2038.55 150.725 2037.4 150.704 L2011.89 150.704 Q2010.76 150.725 2010.76 150.254 M2010.76 142.056 Q2010.76 141.543 2011.64 141.564 L2037.28 141.564 Q2038.53 141.564 2038.55 142.056 Q2038.55 142.527 2037.48 142.527 L2011.6 142.527 Q2010.76 142.527 2010.76 142.056 Z" fill="#000000" fill-rule="evenodd" fill-opacity="1" /><path clip-path="url(#clip440)" d="M 0 0 M2054.73 149.864 Q2054.73 148.614 2055.41 148.143 Q2056.09 147.651 2056.8 147.651 Q2057.77 147.651 2058.32 148.266 Q2058.89 148.86 2058.89 149.7 Q2058.89 150.54 2058.32 151.155 Q2057.77 151.75 2056.8 151.75 Q2056.33 151.75 2056.09 151.668 Q2056.64 153.594 2058.32 154.988 Q2060.02 156.381 2062.25 156.381 Q2065.06 156.381 2066.74 153.656 Q2067.75 151.893 2067.75 147.897 Q2067.75 144.372 2066.99 142.609 Q2065.82 139.924 2063.42 139.924 Q2060.02 139.924 2058.01 142.855 Q2057.77 143.224 2057.48 143.244 Q2057.07 143.244 2056.97 143.019 Q2056.88 142.773 2056.88 142.138 L2056.88 129.718 Q2056.88 128.714 2057.29 128.714 Q2057.46 128.714 2057.81 128.837 Q2060.45 130.005 2063.38 130.025 Q2066.39 130.025 2069.1 128.796 Q2069.3 128.673 2069.43 128.673 Q2069.84 128.673 2069.86 129.144 Q2069.86 129.308 2069.51 129.8 Q2069.18 130.271 2068.46 130.907 Q2067.75 131.521 2066.82 132.116 Q2065.9 132.71 2064.55 133.12 Q2063.22 133.509 2061.74 133.509 Q2059.98 133.509 2058.18 132.956 L2058.18 141.133 Q2060.35 139.002 2063.5 139.002 Q2066.87 139.002 2069.18 141.707 Q2071.5 144.413 2071.5 148.184 Q2071.5 152.139 2068.75 154.844 Q2066.03 157.55 2062.34 157.55 Q2058.98 157.55 2056.84 155.152 Q2054.73 152.754 2054.73 149.864 Z" fill="#000000" fill-rule="evenodd" fill-opacity="1" /><path clip-path="url(#clip440)" d="M 0 0 M2075.51 143.203 Q2075.51 137.035 2077.07 133.673 Q2079.24 128.673 2084.37 128.673 Q2085.45 128.673 2086.58 128.98 Q2087.73 129.267 2089.16 130.394 Q2090.62 131.521 2091.5 133.366 Q2093.18 136.932 2093.18 143.203 Q2093.18 149.331 2091.62 152.672 Q2089.35 157.55 2084.33 157.55 Q2082.44 157.55 2080.51 156.586 Q2078.61 155.623 2077.4 153.307 Q2075.51 149.844 2075.51 143.203 M2079 142.691 Q2079 149.024 2079.45 151.545 Q2079.96 154.27 2081.36 155.459 Q2082.77 156.627 2084.33 156.627 Q2086.01 156.627 2087.4 155.377 Q2088.82 154.107 2089.25 151.381 Q2089.72 148.696 2089.7 142.691 Q2089.7 136.85 2089.29 134.514 Q2088.73 131.788 2087.26 130.702 Q2085.8 129.595 2084.33 129.595 Q2083.77 129.595 2083.18 129.759 Q2082.61 129.923 2081.77 130.394 Q2080.92 130.866 2080.27 132.034 Q2079.63 133.202 2079.33 134.965 Q2079 137.239 2079 142.691 Z" fill="#000000" fill-rule="evenodd" fill-opacity="1" /><path clip-path="url(#clip440)" d="M 0 0 M2096.3 143.203 Q2096.3 137.035 2097.85 133.673 Q2100.03 128.673 2105.15 128.673 Q2106.24 128.673 2107.36 128.98 Q2108.51 129.267 2109.94 130.394 Q2111.4 131.521 2112.28 133.366 Q2113.96 136.932 2113.96 143.203 Q2113.96 149.331 2112.4 152.672 Q2110.13 157.55 2105.11 157.55 Q2103.22 157.55 2101.3 156.586 Q2099.39 155.623 2098.18 153.307 Q2096.3 149.844 2096.3 143.203 M2099.78 142.691 Q2099.78 149.024 2100.23 151.545 Q2100.74 154.27 2102.14 155.459 Q2103.55 156.627 2105.11 156.627 Q2106.79 156.627 2108.18 155.377 Q2109.6 154.107 2110.03 151.381 Q2110.5 148.696 2110.48 142.691 Q2110.48 136.85 2110.07 134.514 Q2109.51 131.788 2108.04 130.702 Q2106.58 129.595 2105.11 129.595 Q2104.55 129.595 2103.96 129.759 Q2103.39 129.923 2102.55 130.394 Q2101.71 130.866 2101.05 132.034 Q2100.41 133.202 2100.11 134.965 Q2099.78 137.239 2099.78 142.691 Z" fill="#000000" fill-rule="evenodd" fill-opacity="1" /><path clip-path="url(#clip440)" d="M 0 0 M2117.71 155.951 Q2117.08 155.275 2117.08 154.393 Q2117.08 153.512 2117.71 152.877 Q2118.35 152.221 2119.31 152.221 Q2120.23 152.221 2120.85 152.836 Q2121.48 153.43 2121.48 154.414 Q2121.48 155.377 2120.81 156.013 Q2120.15 156.627 2119.31 156.627 Q2118.35 156.627 2117.71 155.951 Z" fill="#000000" fill-rule="evenodd" fill-opacity="1" /><path clip-path="url(#clip440)" d="M 0 0 M2128.62 143.203 Q2128.62 137.035 2130.18 133.673 Q2132.35 128.673 2137.48 128.673 Q2138.56 128.673 2139.69 128.98 Q2140.84 129.267 2142.27 130.394 Q2143.73 131.521 2144.61 133.366 Q2146.29 136.932 2146.29 143.203 Q2146.29 149.331 2144.73 152.672 Q2142.46 157.55 2137.44 157.55 Q2135.55 157.55 2133.62 156.586 Q2131.72 155.623 2130.51 153.307 Q2128.62 149.844 2128.62 143.203 M2132.11 142.691 Q2132.11 149.024 2132.56 151.545 Q2133.07 154.27 2134.47 155.459 Q2135.88 156.627 2137.44 156.627 Q2139.12 156.627 2140.51 155.377 Q2141.93 154.107 2142.36 151.381 Q2142.83 148.696 2142.81 142.691 Q2142.81 136.85 2142.4 134.514 Q2141.84 131.788 2140.37 130.702 Q2138.91 129.595 2137.44 129.595 Q2136.88 129.595 2136.29 129.759 Q2135.72 129.923 2134.87 130.394 Q2134.03 130.866 2133.38 132.034 Q2132.74 133.202 2132.44 134.965 Q2132.11 137.239 2132.11 142.691 Z" fill="#000000" fill-rule="evenodd" fill-opacity="1" /><path clip-path="url(#clip440)" d="M 0 0 M2150 155.951 Q2149.41 155.275 2149.41 154.393 Q2149.41 153.512 2149.98 152.856 Q2150.57 152.18 2151.64 152.18 Q2152.89 152.18 2153.61 153.389 Q2154.32 154.578 2154.32 156.586 Q2154.32 158.759 2153.44 160.767 Q2152.56 162.796 2151.7 163.76 Q2150.84 164.723 2150.49 164.723 Q2150.08 164.723 2150.08 164.272 Q2150.08 164.108 2150.37 163.801 Q2153.38 160.562 2153.4 156.586 Q2153.4 155.951 2153.32 155.951 L2153.22 156.033 Q2152.5 156.627 2151.64 156.627 Q2150.59 156.627 2150 155.951 Z" fill="#000000" fill-rule="evenodd" fill-opacity="1" /><path clip-path="url(#clip440)" d="M 0 0 M2188.16 150.622 Q2187.65 153.143 2186.61 154.906 Q2185.32 157.099 2183.35 157.099 Q2181.69 157.099 2180.58 155.951 Q2179.47 154.783 2179.47 152.938 Q2179.47 152.385 2179.7 151.463 Q2179.78 151.053 2179.78 150.54 Q2179.78 147.22 2172.59 146.974 Q2171.99 149.331 2171.58 150.93 Q2171.19 152.508 2171.07 152.979 Q2170.95 153.451 2170.85 153.84 Q2170.76 154.23 2170.62 154.742 Q2170.42 155.582 2170.27 155.992 Q2170.13 156.402 2169.74 156.75 Q2169.37 157.099 2168.78 157.099 Q2168.26 157.099 2167.92 156.791 Q2167.57 156.484 2167.57 155.951 Q2167.57 155.582 2167.73 154.988 L2171.58 139.596 Q2171.69 139.166 2171.89 138.859 Q2172.1 138.551 2172.28 138.408 Q2172.49 138.264 2172.73 138.182 Q2172.98 138.1 2173.08 138.1 Q2173.18 138.08 2173.26 138.08 Q2173.82 138.08 2174.15 138.387 Q2174.49 138.674 2174.49 139.207 Q2174.49 139.289 2174.35 139.863 Q2174.23 140.416 2174.02 141.256 Q2173.82 142.097 2173.74 142.486 L2172.9 145.765 Q2174.06 145.376 2175.11 144.679 Q2176.17 143.982 2178.26 142.179 Q2179.23 141.379 2179.8 140.928 Q2180.4 140.457 2181.38 139.822 Q2182.36 139.166 2183.31 138.859 Q2184.25 138.531 2185.15 138.531 Q2185.85 138.531 2186.26 138.859 Q2186.67 139.166 2186.75 139.453 Q2186.83 139.719 2186.83 140.006 Q2186.83 140.847 2186.18 141.564 Q2185.52 142.281 2184.56 142.281 Q2183.7 142.281 2183.33 141.81 Q2182.96 141.338 2182.96 140.806 Q2182.96 140.396 2183.16 139.883 Q2182.02 140.375 2181.03 141.092 Q2180.05 141.789 2178.35 143.244 Q2175.93 145.314 2174.49 146.093 Q2175.31 146.114 2175.93 146.175 Q2176.56 146.216 2177.63 146.36 Q2178.7 146.503 2179.47 146.81 Q2180.25 147.097 2181.01 147.548 Q2181.79 147.999 2182.2 148.737 Q2182.63 149.475 2182.63 150.418 Q2182.63 150.868 2182.43 151.791 Q2182.08 153.307 2182.08 154.148 Q2182.08 155.213 2182.4 155.685 Q2182.75 156.156 2183.43 156.156 Q2184.72 156.156 2185.54 154.824 Q2186.38 153.471 2187.08 150.971 Q2187.18 150.499 2187.28 150.356 Q2187.39 150.213 2187.67 150.213 Q2188.16 150.213 2188.16 150.622 Z" fill="#000000" fill-rule="evenodd" fill-opacity="1" /><path clip-path="url(#clip440)" d="M 0 0 M2203.14 150.254 Q2203.18 149.741 2203.98 149.741 L2229.7 149.741 Q2230.91 149.741 2230.93 150.213 Q2230.93 150.725 2229.78 150.704 L2204.27 150.704 Q2203.14 150.725 2203.14 150.254 M2203.14 142.056 Q2203.14 141.543 2204.02 141.564 L2229.66 141.564 Q2230.91 141.564 2230.93 142.056 Q2230.93 142.527 2229.86 142.527 L2203.98 142.527 Q2203.14 142.527 2203.14 142.056 Z" fill="#000000" fill-rule="evenodd" fill-opacity="1" /><path clip-path="url(#clip440)" d="M 0 0 M2247.11 150.971 Q2247.11 149.721 2247.83 149.126 Q2248.55 148.532 2249.47 148.532 Q2250.43 148.532 2251.11 149.167 Q2251.81 149.782 2251.81 150.868 Q2251.81 152.037 2250.99 152.692 Q2250.19 153.348 2249.04 153.184 Q2250.04 154.865 2251.89 155.623 Q2253.75 156.381 2255.48 156.381 Q2257.28 156.381 2258.73 154.824 Q2260.21 153.266 2260.21 149.454 Q2260.21 146.216 2258.94 144.351 Q2257.69 142.486 2255.21 142.486 L2253.36 142.486 Q2252.73 142.486 2252.54 142.425 Q2252.36 142.363 2252.36 142.015 Q2252.36 141.605 2253 141.523 Q2253.63 141.523 2254.64 141.4 Q2257.07 141.318 2258.37 139.207 Q2259.53 137.239 2259.53 134.432 Q2259.53 131.87 2258.3 130.804 Q2257.09 129.718 2255.52 129.718 Q2254.04 129.718 2252.42 130.333 Q2250.8 130.948 2249.92 132.321 Q2252.52 132.321 2252.52 134.432 Q2252.52 135.354 2251.93 135.969 Q2251.36 136.563 2250.39 136.563 Q2249.47 136.563 2248.86 135.989 Q2248.24 135.395 2248.24 134.391 Q2248.24 131.993 2250.37 130.333 Q2252.52 128.673 2255.68 128.673 Q2258.8 128.673 2261.09 130.312 Q2263.41 131.952 2263.41 134.473 Q2263.41 136.953 2261.77 138.981 Q2260.13 141.01 2257.52 141.851 Q2260.72 142.486 2262.63 144.659 Q2264.53 146.81 2264.53 149.454 Q2264.53 152.733 2261.95 155.152 Q2259.37 157.55 2255.6 157.55 Q2252.11 157.55 2249.61 155.664 Q2247.11 153.779 2247.11 150.971 Z" fill="#000000" fill-rule="evenodd" fill-opacity="1" /><polyline clip-path="url(#clip440)" style="stroke:#7f0080; stroke-width:3.5; stroke-opacity:1; fill:none" points="
  1811.48,199.493 1951.5,199.493 
  "/>
<path clip-path="url(#clip440)" d="M 0 0 M2003.39 181.593 Q2003.39 181.982 2003.31 182.31 L2002.16 189.606 Q2002.1 190.159 2001.98 190.364 Q2001.87 190.569 2001.55 190.569 Q2001.03 190.569 2001.03 190.036 Q2001.03 189.729 2001.16 189.237 Q2001.5 186.921 2001.5 185.876 Q2001.5 185.179 2001.36 184.667 Q2001.24 184.134 2001.03 183.765 Q2000.85 183.396 2000.42 183.15 Q1999.99 182.904 1999.58 182.761 Q1999.17 182.617 1998.43 182.556 Q1997.69 182.474 1997.06 182.453 Q1996.42 182.433 1995.38 182.433 Q1993.1 182.433 1992.73 182.515 Q1992.34 182.617 1992.14 182.925 Q1991.95 183.212 1991.75 184.073 L1986.17 206.35 L1986.01 207.231 Q1986.01 207.723 1986.32 207.887 Q1986.63 208.051 1987.57 208.154 Q1988.92 208.256 1990.25 208.256 Q1990.29 208.256 1990.38 208.256 Q1990.83 208.256 1991.01 208.277 Q1991.2 208.277 1991.38 208.318 Q1991.56 208.359 1991.61 208.461 Q1991.67 208.543 1991.67 208.707 Q1991.67 209.096 1991.5 209.301 Q1991.34 209.486 1991.18 209.527 Q1991.03 209.547 1990.74 209.547 Q1990.17 209.547 1988.94 209.506 Q1987.71 209.465 1987.1 209.465 L1983.61 209.424 L1980.05 209.465 Q1979.49 209.465 1978.33 209.506 Q1977.16 209.547 1976.6 209.547 Q1975.89 209.547 1975.89 209.035 Q1975.89 208.461 1976.15 208.359 Q1976.44 208.256 1977.65 208.256 Q1979.35 208.256 1980.27 208.174 Q1981.19 208.092 1981.69 207.805 Q1982.2 207.518 1982.34 207.231 Q1982.49 206.924 1982.65 206.227 L1988.29 183.827 Q1988.45 183.335 1988.45 182.945 Q1988.45 182.74 1988.39 182.658 Q1988.35 182.576 1988.08 182.515 Q1987.81 182.433 1987.26 182.433 L1985.62 182.433 Q1983.94 182.433 1982.9 182.515 Q1981.87 182.576 1980.89 182.884 Q1979.92 183.191 1979.35 183.622 Q1978.8 184.052 1978.18 184.933 Q1977.57 185.815 1977.12 186.88 Q1976.69 187.946 1976.07 189.688 Q1975.87 190.262 1975.74 190.426 Q1975.64 190.569 1975.35 190.569 Q1975.15 190.569 1974.98 190.446 Q1974.84 190.303 1974.84 190.118 Q1975.05 189.442 1975.09 189.36 L1977.61 181.962 Q1977.81 181.367 1978 181.265 Q1978.2 181.142 1978.96 181.142 L2002.24 181.142 Q2002.61 181.142 2002.73 181.142 Q2002.86 181.142 2003.06 181.183 Q2003.27 181.224 2003.33 181.326 Q2003.39 181.429 2003.39 181.593 Z" fill="#000000" fill-rule="evenodd" fill-opacity="1" /><path clip-path="url(#clip440)" d="M 0 0 M2010.76 203.174 Q2010.8 202.661 2011.6 202.661 L2037.32 202.661 Q2038.53 202.661 2038.55 203.133 Q2038.55 203.645 2037.4 203.624 L2011.89 203.624 Q2010.76 203.645 2010.76 203.174 M2010.76 194.976 Q2010.76 194.463 2011.64 194.484 L2037.28 194.484 Q2038.53 194.484 2038.55 194.976 Q2038.55 195.447 2037.48 195.447 L2011.6 195.447 Q2010.76 195.447 2010.76 194.976 Z" fill="#000000" fill-rule="evenodd" fill-opacity="1" /><path clip-path="url(#clip440)" d="M 0 0 M2054.73 202.784 Q2054.73 201.534 2055.41 201.063 Q2056.09 200.571 2056.8 200.571 Q2057.77 200.571 2058.32 201.186 Q2058.89 201.78 2058.89 202.62 Q2058.89 203.46 2058.32 204.075 Q2057.77 204.67 2056.8 204.67 Q2056.33 204.67 2056.09 204.588 Q2056.64 206.514 2058.32 207.908 Q2060.02 209.301 2062.25 209.301 Q2065.06 209.301 2066.74 206.576 Q2067.75 204.813 2067.75 200.817 Q2067.75 197.292 2066.99 195.529 Q2065.82 192.844 2063.42 192.844 Q2060.02 192.844 2058.01 195.775 Q2057.77 196.144 2057.48 196.164 Q2057.07 196.164 2056.97 195.939 Q2056.88 195.693 2056.88 195.058 L2056.88 182.638 Q2056.88 181.634 2057.29 181.634 Q2057.46 181.634 2057.81 181.757 Q2060.45 182.925 2063.38 182.945 Q2066.39 182.945 2069.1 181.716 Q2069.3 181.593 2069.43 181.593 Q2069.84 181.593 2069.86 182.064 Q2069.86 182.228 2069.51 182.72 Q2069.18 183.191 2068.46 183.827 Q2067.75 184.441 2066.82 185.036 Q2065.9 185.63 2064.55 186.04 Q2063.22 186.429 2061.74 186.429 Q2059.98 186.429 2058.18 185.876 L2058.18 194.053 Q2060.35 191.922 2063.5 191.922 Q2066.87 191.922 2069.18 194.627 Q2071.5 197.333 2071.5 201.104 Q2071.5 205.059 2068.75 207.764 Q2066.03 210.47 2062.34 210.47 Q2058.98 210.47 2056.84 208.072 Q2054.73 205.674 2054.73 202.784 Z" fill="#000000" fill-rule="evenodd" fill-opacity="1" /><path clip-path="url(#clip440)" d="M 0 0 M2075.51 196.123 Q2075.51 189.955 2077.07 186.593 Q2079.24 181.593 2084.37 181.593 Q2085.45 181.593 2086.58 181.9 Q2087.73 182.187 2089.16 183.314 Q2090.62 184.441 2091.5 186.286 Q2093.18 189.852 2093.18 196.123 Q2093.18 202.251 2091.62 205.592 Q2089.35 210.47 2084.33 210.47 Q2082.44 210.47 2080.51 209.506 Q2078.61 208.543 2077.4 206.227 Q2075.51 202.764 2075.51 196.123 M2079 195.611 Q2079 201.944 2079.45 204.465 Q2079.96 207.19 2081.36 208.379 Q2082.77 209.547 2084.33 209.547 Q2086.01 209.547 2087.4 208.297 Q2088.82 207.027 2089.25 204.301 Q2089.72 201.616 2089.7 195.611 Q2089.7 189.77 2089.29 187.434 Q2088.73 184.708 2087.26 183.622 Q2085.8 182.515 2084.33 182.515 Q2083.77 182.515 2083.18 182.679 Q2082.61 182.843 2081.77 183.314 Q2080.92 183.786 2080.27 184.954 Q2079.63 186.122 2079.33 187.885 Q2079 190.159 2079 195.611 Z" fill="#000000" fill-rule="evenodd" fill-opacity="1" /><path clip-path="url(#clip440)" d="M 0 0 M2096.3 196.123 Q2096.3 189.955 2097.85 186.593 Q2100.03 181.593 2105.15 181.593 Q2106.24 181.593 2107.36 181.9 Q2108.51 182.187 2109.94 183.314 Q2111.4 184.441 2112.28 186.286 Q2113.96 189.852 2113.96 196.123 Q2113.96 202.251 2112.4 205.592 Q2110.13 210.47 2105.11 210.47 Q2103.22 210.47 2101.3 209.506 Q2099.39 208.543 2098.18 206.227 Q2096.3 202.764 2096.3 196.123 M2099.78 195.611 Q2099.78 201.944 2100.23 204.465 Q2100.74 207.19 2102.14 208.379 Q2103.55 209.547 2105.11 209.547 Q2106.79 209.547 2108.18 208.297 Q2109.6 207.027 2110.03 204.301 Q2110.5 201.616 2110.48 195.611 Q2110.48 189.77 2110.07 187.434 Q2109.51 184.708 2108.04 183.622 Q2106.58 182.515 2105.11 182.515 Q2104.55 182.515 2103.96 182.679 Q2103.39 182.843 2102.55 183.314 Q2101.71 183.786 2101.05 184.954 Q2100.41 186.122 2100.11 187.885 Q2099.78 190.159 2099.78 195.611 Z" fill="#000000" fill-rule="evenodd" fill-opacity="1" /><path clip-path="url(#clip440)" d="M 0 0 M2117.71 208.871 Q2117.08 208.195 2117.08 207.313 Q2117.08 206.432 2117.71 205.797 Q2118.35 205.141 2119.31 205.141 Q2120.23 205.141 2120.85 205.756 Q2121.48 206.35 2121.48 207.334 Q2121.48 208.297 2120.81 208.933 Q2120.15 209.547 2119.31 209.547 Q2118.35 209.547 2117.71 208.871 Z" fill="#000000" fill-rule="evenodd" fill-opacity="1" /><path clip-path="url(#clip440)" d="M 0 0 M2128.62 196.123 Q2128.62 189.955 2130.18 186.593 Q2132.35 181.593 2137.48 181.593 Q2138.56 181.593 2139.69 181.9 Q2140.84 182.187 2142.27 183.314 Q2143.73 184.441 2144.61 186.286 Q2146.29 189.852 2146.29 196.123 Q2146.29 202.251 2144.73 205.592 Q2142.46 210.47 2137.44 210.47 Q2135.55 210.47 2133.62 209.506 Q2131.72 208.543 2130.51 206.227 Q2128.62 202.764 2128.62 196.123 M2132.11 195.611 Q2132.11 201.944 2132.56 204.465 Q2133.07 207.19 2134.47 208.379 Q2135.88 209.547 2137.44 209.547 Q2139.12 209.547 2140.51 208.297 Q2141.93 207.027 2142.36 204.301 Q2142.83 201.616 2142.81 195.611 Q2142.81 189.77 2142.4 187.434 Q2141.84 184.708 2140.37 183.622 Q2138.91 182.515 2137.44 182.515 Q2136.88 182.515 2136.29 182.679 Q2135.72 182.843 2134.87 183.314 Q2134.03 183.786 2133.38 184.954 Q2132.74 186.122 2132.44 187.885 Q2132.11 190.159 2132.11 195.611 Z" fill="#000000" fill-rule="evenodd" fill-opacity="1" /><path clip-path="url(#clip440)" d="M 0 0 M2150 208.871 Q2149.41 208.195 2149.41 207.313 Q2149.41 206.432 2149.98 205.776 Q2150.57 205.1 2151.64 205.1 Q2152.89 205.1 2153.61 206.309 Q2154.32 207.498 2154.32 209.506 Q2154.32 211.679 2153.44 213.687 Q2152.56 215.716 2151.7 216.68 Q2150.84 217.643 2150.49 217.643 Q2150.08 217.643 2150.08 217.192 Q2150.08 217.028 2150.37 216.721 Q2153.38 213.482 2153.4 209.506 Q2153.4 208.871 2153.32 208.871 L2153.22 208.953 Q2152.5 209.547 2151.64 209.547 Q2150.59 209.547 2150 208.871 Z" fill="#000000" fill-rule="evenodd" fill-opacity="1" /><path clip-path="url(#clip440)" d="M 0 0 M2188.16 203.542 Q2187.65 206.063 2186.61 207.826 Q2185.32 210.019 2183.35 210.019 Q2181.69 210.019 2180.58 208.871 Q2179.47 207.703 2179.47 205.858 Q2179.47 205.305 2179.7 204.383 Q2179.78 203.973 2179.78 203.46 Q2179.78 200.14 2172.59 199.894 Q2171.99 202.251 2171.58 203.85 Q2171.19 205.428 2171.07 205.899 Q2170.95 206.371 2170.85 206.76 Q2170.76 207.15 2170.62 207.662 Q2170.42 208.502 2170.27 208.912 Q2170.13 209.322 2169.74 209.67 Q2169.37 210.019 2168.78 210.019 Q2168.26 210.019 2167.92 209.711 Q2167.57 209.404 2167.57 208.871 Q2167.57 208.502 2167.73 207.908 L2171.58 192.516 Q2171.69 192.086 2171.89 191.779 Q2172.1 191.471 2172.28 191.328 Q2172.49 191.184 2172.73 191.102 Q2172.98 191.02 2173.08 191.02 Q2173.18 191 2173.26 191 Q2173.82 191 2174.15 191.307 Q2174.49 191.594 2174.49 192.127 Q2174.49 192.209 2174.35 192.783 Q2174.23 193.336 2174.02 194.176 Q2173.82 195.017 2173.74 195.406 L2172.9 198.685 Q2174.06 198.296 2175.11 197.599 Q2176.17 196.902 2178.26 195.099 Q2179.23 194.299 2179.8 193.848 Q2180.4 193.377 2181.38 192.742 Q2182.36 192.086 2183.31 191.779 Q2184.25 191.451 2185.15 191.451 Q2185.85 191.451 2186.26 191.779 Q2186.67 192.086 2186.75 192.373 Q2186.83 192.639 2186.83 192.926 Q2186.83 193.767 2186.18 194.484 Q2185.52 195.201 2184.56 195.201 Q2183.7 195.201 2183.33 194.73 Q2182.96 194.258 2182.96 193.726 Q2182.96 193.316 2183.16 192.803 Q2182.02 193.295 2181.03 194.012 Q2180.05 194.709 2178.35 196.164 Q2175.93 198.234 2174.49 199.013 Q2175.31 199.034 2175.93 199.095 Q2176.56 199.136 2177.63 199.28 Q2178.7 199.423 2179.47 199.73 Q2180.25 200.017 2181.01 200.468 Q2181.79 200.919 2182.2 201.657 Q2182.63 202.395 2182.63 203.338 Q2182.63 203.788 2182.43 204.711 Q2182.08 206.227 2182.08 207.068 Q2182.08 208.133 2182.4 208.605 Q2182.75 209.076 2183.43 209.076 Q2184.72 209.076 2185.54 207.744 Q2186.38 206.391 2187.08 203.891 Q2187.18 203.419 2187.28 203.276 Q2187.39 203.133 2187.67 203.133 Q2188.16 203.133 2188.16 203.542 Z" fill="#000000" fill-rule="evenodd" fill-opacity="1" /><path clip-path="url(#clip440)" d="M 0 0 M2203.14 203.174 Q2203.18 202.661 2203.98 202.661 L2229.7 202.661 Q2230.91 202.661 2230.93 203.133 Q2230.93 203.645 2229.78 203.624 L2204.27 203.624 Q2203.14 203.645 2203.14 203.174 M2203.14 194.976 Q2203.14 194.463 2204.02 194.484 L2229.66 194.484 Q2230.91 194.484 2230.93 194.976 Q2230.93 195.447 2229.86 195.447 L2203.98 195.447 Q2203.14 195.447 2203.14 194.976 Z" fill="#000000" fill-rule="evenodd" fill-opacity="1" /><path clip-path="url(#clip440)" d="M 0 0 M2247.11 185.589 L2247.11 184.277 Q2252.16 184.277 2254.76 181.593 Q2255.48 181.593 2255.6 181.757 Q2255.72 181.921 2255.72 182.679 L2255.72 206.227 Q2255.72 207.477 2256.34 207.867 Q2256.95 208.256 2259.64 208.256 L2260.97 208.256 L2260.97 209.547 Q2259.49 209.424 2254.16 209.424 Q2248.84 209.424 2247.38 209.547 L2247.38 208.256 L2248.71 208.256 Q2251.36 208.256 2251.99 207.887 Q2252.63 207.498 2252.63 206.227 L2252.63 184.482 Q2250.43 185.589 2247.11 185.589 Z" fill="#000000" fill-rule="evenodd" fill-opacity="1" /><path clip-path="url(#clip440)" d="M 0 0 M2264.52 196.123 Q2264.52 189.955 2266.08 186.593 Q2268.25 181.593 2273.37 181.593 Q2274.46 181.593 2275.59 181.9 Q2276.73 182.187 2278.17 183.314 Q2279.62 184.441 2280.51 186.286 Q2282.19 189.852 2282.19 196.123 Q2282.19 202.251 2280.63 205.592 Q2278.35 210.47 2273.33 210.47 Q2271.45 210.47 2269.52 209.506 Q2267.61 208.543 2266.41 206.227 Q2264.52 202.764 2264.52 196.123 M2268 195.611 Q2268 201.944 2268.45 204.465 Q2268.97 207.19 2270.36 208.379 Q2271.78 209.547 2273.33 209.547 Q2275.01 209.547 2276.41 208.297 Q2277.82 207.027 2278.25 204.301 Q2278.72 201.616 2278.7 195.611 Q2278.7 189.77 2278.29 187.434 Q2277.74 184.708 2276.26 183.622 Q2274.81 182.515 2273.33 182.515 Q2272.78 182.515 2272.18 182.679 Q2271.61 182.843 2270.77 183.314 Q2269.93 183.786 2269.27 184.954 Q2268.64 186.122 2268.33 187.885 Q2268 190.159 2268 195.611 Z" fill="#000000" fill-rule="evenodd" fill-opacity="1" /><polyline clip-path="url(#clip440)" style="stroke:#ff0000; stroke-width:3.5; stroke-opacity:1; fill:none" points="
  1811.48,252.413 1951.5,252.413 
  "/>
<path clip-path="url(#clip440)" d="M 0 0 M2003.39 234.513 Q2003.39 234.902 2003.31 235.23 L2002.16 242.526 Q2002.1 243.079 2001.98 243.284 Q2001.87 243.489 2001.55 243.489 Q2001.03 243.489 2001.03 242.956 Q2001.03 242.649 2001.16 242.157 Q2001.5 239.841 2001.5 238.796 Q2001.5 238.099 2001.36 237.587 Q2001.24 237.054 2001.03 236.685 Q2000.85 236.316 2000.42 236.07 Q1999.99 235.824 1999.58 235.681 Q1999.17 235.537 1998.43 235.476 Q1997.69 235.394 1997.06 235.373 Q1996.42 235.353 1995.38 235.353 Q1993.1 235.353 1992.73 235.435 Q1992.34 235.537 1992.14 235.845 Q1991.95 236.132 1991.75 236.993 L1986.17 259.27 L1986.01 260.151 Q1986.01 260.643 1986.32 260.807 Q1986.63 260.971 1987.57 261.074 Q1988.92 261.176 1990.25 261.176 Q1990.29 261.176 1990.38 261.176 Q1990.83 261.176 1991.01 261.197 Q1991.2 261.197 1991.38 261.238 Q1991.56 261.279 1991.61 261.381 Q1991.67 261.463 1991.67 261.627 Q1991.67 262.016 1991.5 262.221 Q1991.34 262.406 1991.18 262.447 Q1991.03 262.467 1990.74 262.467 Q1990.17 262.467 1988.94 262.426 Q1987.71 262.385 1987.1 262.385 L1983.61 262.344 L1980.05 262.385 Q1979.49 262.385 1978.33 262.426 Q1977.16 262.467 1976.6 262.467 Q1975.89 262.467 1975.89 261.955 Q1975.89 261.381 1976.15 261.279 Q1976.44 261.176 1977.65 261.176 Q1979.35 261.176 1980.27 261.094 Q1981.19 261.012 1981.69 260.725 Q1982.2 260.438 1982.34 260.151 Q1982.49 259.844 1982.65 259.147 L1988.29 236.747 Q1988.45 236.255 1988.45 235.865 Q1988.45 235.66 1988.39 235.578 Q1988.35 235.496 1988.08 235.435 Q1987.81 235.353 1987.26 235.353 L1985.62 235.353 Q1983.94 235.353 1982.9 235.435 Q1981.87 235.496 1980.89 235.804 Q1979.92 236.111 1979.35 236.542 Q1978.8 236.972 1978.18 237.853 Q1977.57 238.735 1977.12 239.8 Q1976.69 240.866 1976.07 242.608 Q1975.87 243.182 1975.74 243.346 Q1975.64 243.489 1975.35 243.489 Q1975.15 243.489 1974.98 243.366 Q1974.84 243.223 1974.84 243.038 Q1975.05 242.362 1975.09 242.28 L1977.61 234.882 Q1977.81 234.287 1978 234.185 Q1978.2 234.062 1978.96 234.062 L2002.24 234.062 Q2002.61 234.062 2002.73 234.062 Q2002.86 234.062 2003.06 234.103 Q2003.27 234.144 2003.33 234.246 Q2003.39 234.349 2003.39 234.513 Z" fill="#000000" fill-rule="evenodd" fill-opacity="1" /><path clip-path="url(#clip440)" d="M 0 0 M2010.76 256.094 Q2010.8 255.581 2011.6 255.581 L2037.32 255.581 Q2038.53 255.581 2038.55 256.053 Q2038.55 256.565 2037.4 256.544 L2011.89 256.544 Q2010.76 256.565 2010.76 256.094 M2010.76 247.896 Q2010.76 247.383 2011.64 247.404 L2037.28 247.404 Q2038.53 247.404 2038.55 247.896 Q2038.55 248.367 2037.48 248.367 L2011.6 248.367 Q2010.76 248.367 2010.76 247.896 Z" fill="#000000" fill-rule="evenodd" fill-opacity="1" /><path clip-path="url(#clip440)" d="M 0 0 M2054.73 255.704 Q2054.73 254.454 2055.41 253.983 Q2056.09 253.491 2056.8 253.491 Q2057.77 253.491 2058.32 254.106 Q2058.89 254.7 2058.89 255.54 Q2058.89 256.38 2058.32 256.995 Q2057.77 257.59 2056.8 257.59 Q2056.33 257.59 2056.09 257.508 Q2056.64 259.434 2058.32 260.828 Q2060.02 262.221 2062.25 262.221 Q2065.06 262.221 2066.74 259.496 Q2067.75 257.733 2067.75 253.737 Q2067.75 250.212 2066.99 248.449 Q2065.82 245.764 2063.42 245.764 Q2060.02 245.764 2058.01 248.695 Q2057.77 249.064 2057.48 249.084 Q2057.07 249.084 2056.97 248.859 Q2056.88 248.613 2056.88 247.978 L2056.88 235.558 Q2056.88 234.554 2057.29 234.554 Q2057.46 234.554 2057.81 234.677 Q2060.45 235.845 2063.38 235.865 Q2066.39 235.865 2069.1 234.636 Q2069.3 234.513 2069.43 234.513 Q2069.84 234.513 2069.86 234.984 Q2069.86 235.148 2069.51 235.64 Q2069.18 236.111 2068.46 236.747 Q2067.75 237.361 2066.82 237.956 Q2065.9 238.55 2064.55 238.96 Q2063.22 239.349 2061.74 239.349 Q2059.98 239.349 2058.18 238.796 L2058.18 246.973 Q2060.35 244.842 2063.5 244.842 Q2066.87 244.842 2069.18 247.547 Q2071.5 250.253 2071.5 254.024 Q2071.5 257.979 2068.75 260.684 Q2066.03 263.39 2062.34 263.39 Q2058.98 263.39 2056.84 260.992 Q2054.73 258.594 2054.73 255.704 Z" fill="#000000" fill-rule="evenodd" fill-opacity="1" /><path clip-path="url(#clip440)" d="M 0 0 M2075.51 249.043 Q2075.51 242.875 2077.07 239.513 Q2079.24 234.513 2084.37 234.513 Q2085.45 234.513 2086.58 234.82 Q2087.73 235.107 2089.16 236.234 Q2090.62 237.361 2091.5 239.206 Q2093.18 242.772 2093.18 249.043 Q2093.18 255.171 2091.62 258.512 Q2089.35 263.39 2084.33 263.39 Q2082.44 263.39 2080.51 262.426 Q2078.61 261.463 2077.4 259.147 Q2075.51 255.684 2075.51 249.043 M2079 248.531 Q2079 254.864 2079.45 257.385 Q2079.96 260.11 2081.36 261.299 Q2082.77 262.467 2084.33 262.467 Q2086.01 262.467 2087.4 261.217 Q2088.82 259.947 2089.25 257.221 Q2089.72 254.536 2089.7 248.531 Q2089.7 242.69 2089.29 240.354 Q2088.73 237.628 2087.26 236.542 Q2085.8 235.435 2084.33 235.435 Q2083.77 235.435 2083.18 235.599 Q2082.61 235.763 2081.77 236.234 Q2080.92 236.706 2080.27 237.874 Q2079.63 239.042 2079.33 240.805 Q2079 243.079 2079 248.531 Z" fill="#000000" fill-rule="evenodd" fill-opacity="1" /><path clip-path="url(#clip440)" d="M 0 0 M2096.3 249.043 Q2096.3 242.875 2097.85 239.513 Q2100.03 234.513 2105.15 234.513 Q2106.24 234.513 2107.36 234.82 Q2108.51 235.107 2109.94 236.234 Q2111.4 237.361 2112.28 239.206 Q2113.96 242.772 2113.96 249.043 Q2113.96 255.171 2112.4 258.512 Q2110.13 263.39 2105.11 263.39 Q2103.22 263.39 2101.3 262.426 Q2099.39 261.463 2098.18 259.147 Q2096.3 255.684 2096.3 249.043 M2099.78 248.531 Q2099.78 254.864 2100.23 257.385 Q2100.74 260.11 2102.14 261.299 Q2103.55 262.467 2105.11 262.467 Q2106.79 262.467 2108.18 261.217 Q2109.6 259.947 2110.03 257.221 Q2110.5 254.536 2110.48 248.531 Q2110.48 242.69 2110.07 240.354 Q2109.51 237.628 2108.04 236.542 Q2106.58 235.435 2105.11 235.435 Q2104.55 235.435 2103.96 235.599 Q2103.39 235.763 2102.55 236.234 Q2101.71 236.706 2101.05 237.874 Q2100.41 239.042 2100.11 240.805 Q2099.78 243.079 2099.78 248.531 Z" fill="#000000" fill-rule="evenodd" fill-opacity="1" /><path clip-path="url(#clip440)" d="M 0 0 M2117.71 261.791 Q2117.08 261.115 2117.08 260.233 Q2117.08 259.352 2117.71 258.717 Q2118.35 258.061 2119.31 258.061 Q2120.23 258.061 2120.85 258.676 Q2121.48 259.27 2121.48 260.254 Q2121.48 261.217 2120.81 261.853 Q2120.15 262.467 2119.31 262.467 Q2118.35 262.467 2117.71 261.791 Z" fill="#000000" fill-rule="evenodd" fill-opacity="1" /><path clip-path="url(#clip440)" d="M 0 0 M2128.62 249.043 Q2128.62 242.875 2130.18 239.513 Q2132.35 234.513 2137.48 234.513 Q2138.56 234.513 2139.69 234.82 Q2140.84 235.107 2142.27 236.234 Q2143.73 237.361 2144.61 239.206 Q2146.29 242.772 2146.29 249.043 Q2146.29 255.171 2144.73 258.512 Q2142.46 263.39 2137.44 263.39 Q2135.55 263.39 2133.62 262.426 Q2131.72 261.463 2130.51 259.147 Q2128.62 255.684 2128.62 249.043 M2132.11 248.531 Q2132.11 254.864 2132.56 257.385 Q2133.07 260.11 2134.47 261.299 Q2135.88 262.467 2137.44 262.467 Q2139.12 262.467 2140.51 261.217 Q2141.93 259.947 2142.36 257.221 Q2142.83 254.536 2142.81 248.531 Q2142.81 242.69 2142.4 240.354 Q2141.84 237.628 2140.37 236.542 Q2138.91 235.435 2137.44 235.435 Q2136.88 235.435 2136.29 235.599 Q2135.72 235.763 2134.87 236.234 Q2134.03 236.706 2133.38 237.874 Q2132.74 239.042 2132.44 240.805 Q2132.11 243.079 2132.11 248.531 Z" fill="#000000" fill-rule="evenodd" fill-opacity="1" /><path clip-path="url(#clip440)" d="M 0 0 M2150 261.791 Q2149.41 261.115 2149.41 260.233 Q2149.41 259.352 2149.98 258.696 Q2150.57 258.02 2151.64 258.02 Q2152.89 258.02 2153.61 259.229 Q2154.32 260.418 2154.32 262.426 Q2154.32 264.599 2153.44 266.607 Q2152.56 268.636 2151.7 269.6 Q2150.84 270.563 2150.49 270.563 Q2150.08 270.563 2150.08 270.112 Q2150.08 269.948 2150.37 269.641 Q2153.38 266.402 2153.4 262.426 Q2153.4 261.791 2153.32 261.791 L2153.22 261.873 Q2152.5 262.467 2151.64 262.467 Q2150.59 262.467 2150 261.791 Z" fill="#000000" fill-rule="evenodd" fill-opacity="1" /><path clip-path="url(#clip440)" d="M 0 0 M2188.16 256.462 Q2187.65 258.983 2186.61 260.746 Q2185.32 262.939 2183.35 262.939 Q2181.69 262.939 2180.58 261.791 Q2179.47 260.623 2179.47 258.778 Q2179.47 258.225 2179.7 257.303 Q2179.78 256.893 2179.78 256.38 Q2179.78 253.06 2172.59 252.814 Q2171.99 255.171 2171.58 256.77 Q2171.19 258.348 2171.07 258.819 Q2170.95 259.291 2170.85 259.68 Q2170.76 260.07 2170.62 260.582 Q2170.42 261.422 2170.27 261.832 Q2170.13 262.242 2169.74 262.59 Q2169.37 262.939 2168.78 262.939 Q2168.26 262.939 2167.92 262.631 Q2167.57 262.324 2167.57 261.791 Q2167.57 261.422 2167.73 260.828 L2171.58 245.436 Q2171.69 245.006 2171.89 244.699 Q2172.1 244.391 2172.28 244.248 Q2172.49 244.104 2172.73 244.022 Q2172.98 243.94 2173.08 243.94 Q2173.18 243.92 2173.26 243.92 Q2173.82 243.92 2174.15 244.227 Q2174.49 244.514 2174.49 245.047 Q2174.49 245.129 2174.35 245.703 Q2174.23 246.256 2174.02 247.096 Q2173.82 247.937 2173.74 248.326 L2172.9 251.605 Q2174.06 251.216 2175.11 250.519 Q2176.17 249.822 2178.26 248.019 Q2179.23 247.219 2179.8 246.768 Q2180.4 246.297 2181.38 245.662 Q2182.36 245.006 2183.31 244.699 Q2184.25 244.371 2185.15 244.371 Q2185.85 244.371 2186.26 244.699 Q2186.67 245.006 2186.75 245.293 Q2186.83 245.559 2186.83 245.846 Q2186.83 246.687 2186.18 247.404 Q2185.52 248.121 2184.56 248.121 Q2183.7 248.121 2183.33 247.65 Q2182.96 247.178 2182.96 246.646 Q2182.96 246.236 2183.16 245.723 Q2182.02 246.215 2181.03 246.932 Q2180.05 247.629 2178.35 249.084 Q2175.93 251.154 2174.49 251.933 Q2175.31 251.954 2175.93 252.015 Q2176.56 252.056 2177.63 252.2 Q2178.7 252.343 2179.47 252.65 Q2180.25 252.937 2181.01 253.388 Q2181.79 253.839 2182.2 254.577 Q2182.63 255.315 2182.63 256.258 Q2182.63 256.708 2182.43 257.631 Q2182.08 259.147 2182.08 259.988 Q2182.08 261.053 2182.4 261.525 Q2182.75 261.996 2183.43 261.996 Q2184.72 261.996 2185.54 260.664 Q2186.38 259.311 2187.08 256.811 Q2187.18 256.339 2187.28 256.196 Q2187.39 256.053 2187.67 256.053 Q2188.16 256.053 2188.16 256.462 Z" fill="#000000" fill-rule="evenodd" fill-opacity="1" /><path clip-path="url(#clip440)" d="M 0 0 M2203.14 256.094 Q2203.18 255.581 2203.98 255.581 L2229.7 255.581 Q2230.91 255.581 2230.93 256.053 Q2230.93 256.565 2229.78 256.544 L2204.27 256.544 Q2203.14 256.565 2203.14 256.094 M2203.14 247.896 Q2203.14 247.383 2204.02 247.404 L2229.66 247.404 Q2230.91 247.404 2230.93 247.896 Q2230.93 248.367 2229.86 248.367 L2203.98 248.367 Q2203.14 248.367 2203.14 247.896 Z" fill="#000000" fill-rule="evenodd" fill-opacity="1" /><path clip-path="url(#clip440)" d="M 0 0 M2247.11 238.509 L2247.11 237.197 Q2252.16 237.197 2254.76 234.513 Q2255.48 234.513 2255.6 234.677 Q2255.72 234.841 2255.72 235.599 L2255.72 259.147 Q2255.72 260.397 2256.34 260.787 Q2256.95 261.176 2259.64 261.176 L2260.97 261.176 L2260.97 262.467 Q2259.49 262.344 2254.16 262.344 Q2248.84 262.344 2247.38 262.467 L2247.38 261.176 L2248.71 261.176 Q2251.36 261.176 2251.99 260.807 Q2252.63 260.418 2252.63 259.147 L2252.63 237.402 Q2250.43 238.509 2247.11 238.509 Z" fill="#000000" fill-rule="evenodd" fill-opacity="1" /><path clip-path="url(#clip440)" d="M 0 0 M2264.52 249.043 Q2264.52 242.875 2266.08 239.513 Q2268.25 234.513 2273.37 234.513 Q2274.46 234.513 2275.59 234.82 Q2276.73 235.107 2278.17 236.234 Q2279.62 237.361 2280.51 239.206 Q2282.19 242.772 2282.19 249.043 Q2282.19 255.171 2280.63 258.512 Q2278.35 263.39 2273.33 263.39 Q2271.45 263.39 2269.52 262.426 Q2267.61 261.463 2266.41 259.147 Q2264.52 255.684 2264.52 249.043 M2268 248.531 Q2268 254.864 2268.45 257.385 Q2268.97 260.11 2270.36 261.299 Q2271.78 262.467 2273.33 262.467 Q2275.01 262.467 2276.41 261.217 Q2277.82 259.947 2278.25 257.221 Q2278.72 254.536 2278.7 248.531 Q2278.7 242.69 2278.29 240.354 Q2277.74 237.628 2276.26 236.542 Q2274.81 235.435 2273.33 235.435 Q2272.78 235.435 2272.18 235.599 Q2271.61 235.763 2270.77 236.234 Q2269.93 236.706 2269.27 237.874 Q2268.64 239.042 2268.33 240.805 Q2268 243.079 2268 248.531 Z" fill="#000000" fill-rule="evenodd" fill-opacity="1" /><path clip-path="url(#clip440)" d="M 0 0 M2285.3 249.043 Q2285.3 242.875 2286.86 239.513 Q2289.03 234.513 2294.15 234.513 Q2295.24 234.513 2296.37 234.82 Q2297.52 235.107 2298.95 236.234 Q2300.41 237.361 2301.29 239.206 Q2302.97 242.772 2302.97 249.043 Q2302.97 255.171 2301.41 258.512 Q2299.14 263.39 2294.11 263.39 Q2292.23 263.39 2290.3 262.426 Q2288.4 261.463 2287.19 259.147 Q2285.3 255.684 2285.3 249.043 M2288.79 248.531 Q2288.79 254.864 2289.24 257.385 Q2289.75 260.11 2291.14 261.299 Q2292.56 262.467 2294.11 262.467 Q2295.79 262.467 2297.19 261.217 Q2298.6 259.947 2299.03 257.221 Q2299.5 254.536 2299.48 248.531 Q2299.48 242.69 2299.07 240.354 Q2298.52 237.628 2297.04 236.542 Q2295.59 235.435 2294.11 235.435 Q2293.56 235.435 2292.97 235.599 Q2292.39 235.763 2291.55 236.234 Q2290.71 236.706 2290.06 237.874 Q2289.42 239.042 2289.11 240.805 Q2288.79 243.079 2288.79 248.531 Z" fill="#000000" fill-rule="evenodd" fill-opacity="1" /></svg>
