<?xml version="1.0" encoding="utf-8"?>
<svg xmlns="http://www.w3.org/2000/svg" xmlns:xlink="http://www.w3.org/1999/xlink" width="600" height="400" viewBox="0 0 2400 1600">
<defs>
  <clipPath id="clip870">
    <rect x="0" y="0" width="2400" height="1600"/>
  </clipPath>
</defs>
<path clip-path="url(#clip870)" d="
M0 1600 L2400 1600 L2400 0 L0 0  Z
  " fill="#ffffff" fill-rule="evenodd" fill-opacity="1"/>
<defs>
  <clipPath id="clip871">
    <rect x="480" y="0" width="1681" height="1600"/>
  </clipPath>
</defs>
<defs>
  <clipPath id="clip872">
    <rect x="253" y="47" width="1498" height="1393"/>
  </clipPath>
</defs>
<path clip-path="url(#clip870)" d="
M253.284 1439.5 L1750.59 1439.5 L1750.59 47.2441 L253.284 47.2441  Z
  " fill="#ffffff" fill-rule="evenodd" fill-opacity="1"/>
<polyline clip-path="url(#clip872)" style="stroke:#000000; stroke-width:2; stroke-opacity:0.1; fill:none" points="
  295.378,1439.5 295.378,47.2441 
  "/>
<polyline clip-path="url(#clip872)" style="stroke:#000000; stroke-width:2; stroke-opacity:0.1; fill:none" points="
  577.944,1439.5 577.944,47.2441 
  "/>
<polyline clip-path="url(#clip872)" style="stroke:#000000; stroke-width:2; stroke-opacity:0.1; fill:none" points="
  860.51,1439.5 860.51,47.2441 
  "/>
<polyline clip-path="url(#clip872)" style="stroke:#000000; stroke-width:2; stroke-opacity:0.1; fill:none" points="
  1143.08,1439.5 1143.08,47.2441 
  "/>
<polyline clip-path="url(#clip872)" style="stroke:#000000; stroke-width:2; stroke-opacity:0.1; fill:none" points="
  1425.64,1439.5 1425.64,47.2441 
  "/>
<polyline clip-path="url(#clip872)" style="stroke:#000000; stroke-width:2; stroke-opacity:0.1; fill:none" points="
  1708.21,1439.5 1708.21,47.2441 
  "/>
<polyline clip-path="url(#clip870)" style="stroke:#000000; stroke-width:4; stroke-opacity:1; fill:none" points="
  253.284,1439.5 1750.59,1439.5 
  "/>
<polyline clip-path="url(#clip870)" style="stroke:#000000; stroke-width:4; stroke-opacity:1; fill:none" points="
  295.378,1439.5 295.378,1422.79 
  "/>
<polyline clip-path="url(#clip870)" style="stroke:#000000; stroke-width:4; stroke-opacity:1; fill:none" points="
  577.944,1439.5 577.944,1422.79 
  "/>
<polyline clip-path="url(#clip870)" style="stroke:#000000; stroke-width:4; stroke-opacity:1; fill:none" points="
  860.51,1439.5 860.51,1422.79 
  "/>
<polyline clip-path="url(#clip870)" style="stroke:#000000; stroke-width:4; stroke-opacity:1; fill:none" points="
  1143.08,1439.5 1143.08,1422.79 
  "/>
<polyline clip-path="url(#clip870)" style="stroke:#000000; stroke-width:4; stroke-opacity:1; fill:none" points="
  1425.64,1439.5 1425.64,1422.79 
  "/>
<polyline clip-path="url(#clip870)" style="stroke:#000000; stroke-width:4; stroke-opacity:1; fill:none" points="
  1708.21,1439.5 1708.21,1422.79 
  "/>
<path clip-path="url(#clip870)" d="M 0 0 M295.378 1468.69 Q291.767 1468.69 289.938 1472.26 Q288.132 1475.8 288.132 1482.93 Q288.132 1490.04 289.938 1493.6 Q291.767 1497.14 295.378 1497.14 Q299.012 1497.14 300.818 1493.6 Q302.646 1490.04 302.646 1482.93 Q302.646 1475.8 300.818 1472.26 Q299.012 1468.69 295.378 1468.69 M295.378 1464.99 Q301.188 1464.99 304.243 1469.6 Q307.322 1474.18 307.322 1482.93 Q307.322 1491.66 304.243 1496.26 Q301.188 1500.85 295.378 1500.85 Q289.568 1500.85 286.489 1496.26 Q283.433 1491.66 283.433 1482.93 Q283.433 1474.18 286.489 1469.6 Q289.568 1464.99 295.378 1464.99 Z" fill="#000000" fill-rule="evenodd" fill-opacity="1" /><path clip-path="url(#clip870)" d="M 0 0 M537.551 1496.24 L545.19 1496.24 L545.19 1469.87 L536.88 1471.54 L536.88 1467.28 L545.143 1465.61 L549.819 1465.61 L549.819 1496.24 L557.458 1496.24 L557.458 1500.17 L537.551 1500.17 L537.551 1496.24 Z" fill="#000000" fill-rule="evenodd" fill-opacity="1" /><path clip-path="url(#clip870)" d="M 0 0 M576.902 1468.69 Q573.291 1468.69 571.463 1472.26 Q569.657 1475.8 569.657 1482.93 Q569.657 1490.04 571.463 1493.6 Q573.291 1497.14 576.902 1497.14 Q580.537 1497.14 582.342 1493.6 Q584.171 1490.04 584.171 1482.93 Q584.171 1475.8 582.342 1472.26 Q580.537 1468.69 576.902 1468.69 M576.902 1464.99 Q582.713 1464.99 585.768 1469.6 Q588.847 1474.18 588.847 1482.93 Q588.847 1491.66 585.768 1496.26 Q582.713 1500.85 576.902 1500.85 Q571.092 1500.85 568.014 1496.26 Q564.958 1491.66 564.958 1482.93 Q564.958 1474.18 568.014 1469.6 Q571.092 1464.99 576.902 1464.99 Z" fill="#000000" fill-rule="evenodd" fill-opacity="1" /><path clip-path="url(#clip870)" d="M 0 0 M607.064 1468.69 Q603.453 1468.69 601.625 1472.26 Q599.819 1475.8 599.819 1482.93 Q599.819 1490.04 601.625 1493.6 Q603.453 1497.14 607.064 1497.14 Q610.699 1497.14 612.504 1493.6 Q614.333 1490.04 614.333 1482.93 Q614.333 1475.8 612.504 1472.26 Q610.699 1468.69 607.064 1468.69 M607.064 1464.99 Q612.874 1464.99 615.93 1469.6 Q619.009 1474.18 619.009 1482.93 Q619.009 1491.66 615.93 1496.26 Q612.874 1500.85 607.064 1500.85 Q601.254 1500.85 598.175 1496.26 Q595.12 1491.66 595.12 1482.93 Q595.12 1474.18 598.175 1469.6 Q601.254 1464.99 607.064 1464.99 Z" fill="#000000" fill-rule="evenodd" fill-opacity="1" /><path clip-path="url(#clip870)" d="M 0 0 M824.203 1496.24 L840.522 1496.24 L840.522 1500.17 L818.578 1500.17 L818.578 1496.24 Q821.24 1493.48 825.823 1488.85 Q830.43 1484.2 831.61 1482.86 Q833.856 1480.34 834.735 1478.6 Q835.638 1476.84 835.638 1475.15 Q835.638 1472.4 833.693 1470.66 Q831.772 1468.92 828.67 1468.92 Q826.471 1468.92 824.018 1469.69 Q821.587 1470.45 818.809 1472 L818.809 1467.28 Q821.633 1466.15 824.087 1465.57 Q826.541 1464.99 828.578 1464.99 Q833.948 1464.99 837.143 1467.67 Q840.337 1470.36 840.337 1474.85 Q840.337 1476.98 839.527 1478.9 Q838.74 1480.8 836.633 1483.39 Q836.055 1484.06 832.953 1487.28 Q829.851 1490.47 824.203 1496.24 Z" fill="#000000" fill-rule="evenodd" fill-opacity="1" /><path clip-path="url(#clip870)" d="M 0 0 M860.337 1468.69 Q856.726 1468.69 854.897 1472.26 Q853.092 1475.8 853.092 1482.93 Q853.092 1490.04 854.897 1493.6 Q856.726 1497.14 860.337 1497.14 Q863.971 1497.14 865.777 1493.6 Q867.605 1490.04 867.605 1482.93 Q867.605 1475.8 865.777 1472.26 Q863.971 1468.69 860.337 1468.69 M860.337 1464.99 Q866.147 1464.99 869.203 1469.6 Q872.281 1474.18 872.281 1482.93 Q872.281 1491.66 869.203 1496.26 Q866.147 1500.85 860.337 1500.85 Q854.527 1500.85 851.448 1496.26 Q848.392 1491.66 848.392 1482.93 Q848.392 1474.18 851.448 1469.6 Q854.527 1464.99 860.337 1464.99 Z" fill="#000000" fill-rule="evenodd" fill-opacity="1" /><path clip-path="url(#clip870)" d="M 0 0 M890.499 1468.69 Q886.888 1468.69 885.059 1472.26 Q883.253 1475.8 883.253 1482.93 Q883.253 1490.04 885.059 1493.6 Q886.888 1497.14 890.499 1497.14 Q894.133 1497.14 895.939 1493.6 Q897.767 1490.04 897.767 1482.93 Q897.767 1475.8 895.939 1472.26 Q894.133 1468.69 890.499 1468.69 M890.499 1464.99 Q896.309 1464.99 899.364 1469.6 Q902.443 1474.18 902.443 1482.93 Q902.443 1491.66 899.364 1496.26 Q896.309 1500.85 890.499 1500.85 Q884.689 1500.85 881.61 1496.26 Q878.554 1491.66 878.554 1482.93 Q878.554 1474.18 881.61 1469.6 Q884.689 1464.99 890.499 1464.99 Z" fill="#000000" fill-rule="evenodd" fill-opacity="1" /><path clip-path="url(#clip870)" d="M 0 0 M1116.84 1481.54 Q1120.19 1482.26 1122.07 1484.53 Q1123.97 1486.79 1123.97 1490.13 Q1123.97 1495.24 1120.45 1498.04 Q1116.93 1500.85 1110.45 1500.85 Q1108.27 1500.85 1105.96 1500.41 Q1103.67 1499.99 1101.21 1499.13 L1101.21 1494.62 Q1103.16 1495.75 1105.47 1496.33 Q1107.79 1496.91 1110.31 1496.91 Q1114.71 1496.91 1117 1495.17 Q1119.32 1493.44 1119.32 1490.13 Q1119.32 1487.07 1117.16 1485.36 Q1115.03 1483.62 1111.21 1483.62 L1107.19 1483.62 L1107.19 1479.78 L1111.4 1479.78 Q1114.85 1479.78 1116.68 1478.41 Q1118.51 1477.03 1118.51 1474.43 Q1118.51 1471.77 1116.61 1470.36 Q1114.73 1468.92 1111.21 1468.92 Q1109.29 1468.92 1107.09 1469.34 Q1104.89 1469.76 1102.26 1470.64 L1102.26 1466.47 Q1104.92 1465.73 1107.23 1465.36 Q1109.57 1464.99 1111.63 1464.99 Q1116.95 1464.99 1120.06 1467.42 Q1123.16 1469.83 1123.16 1473.95 Q1123.16 1476.82 1121.51 1478.81 Q1119.87 1480.78 1116.84 1481.54 Z" fill="#000000" fill-rule="evenodd" fill-opacity="1" /><path clip-path="url(#clip870)" d="M 0 0 M1142.83 1468.69 Q1139.22 1468.69 1137.39 1472.26 Q1135.59 1475.8 1135.59 1482.93 Q1135.59 1490.04 1137.39 1493.6 Q1139.22 1497.14 1142.83 1497.14 Q1146.47 1497.14 1148.27 1493.6 Q1150.1 1490.04 1150.1 1482.93 Q1150.1 1475.8 1148.27 1472.26 Q1146.47 1468.69 1142.83 1468.69 M1142.83 1464.99 Q1148.64 1464.99 1151.7 1469.6 Q1154.78 1474.18 1154.78 1482.93 Q1154.78 1491.66 1151.7 1496.26 Q1148.64 1500.85 1142.83 1500.85 Q1137.02 1500.85 1133.94 1496.26 Q1130.89 1491.66 1130.89 1482.93 Q1130.89 1474.18 1133.94 1469.6 Q1137.02 1464.99 1142.83 1464.99 Z" fill="#000000" fill-rule="evenodd" fill-opacity="1" /><path clip-path="url(#clip870)" d="M 0 0 M1173 1468.69 Q1169.38 1468.69 1167.56 1472.26 Q1165.75 1475.8 1165.75 1482.93 Q1165.75 1490.04 1167.56 1493.6 Q1169.38 1497.14 1173 1497.14 Q1176.63 1497.14 1178.44 1493.6 Q1180.26 1490.04 1180.26 1482.93 Q1180.26 1475.8 1178.44 1472.26 Q1176.63 1468.69 1173 1468.69 M1173 1464.99 Q1178.81 1464.99 1181.86 1469.6 Q1184.94 1474.18 1184.94 1482.93 Q1184.94 1491.66 1181.86 1496.26 Q1178.81 1500.85 1173 1500.85 Q1167.19 1500.85 1164.11 1496.26 Q1161.05 1491.66 1161.05 1482.93 Q1161.05 1474.18 1164.11 1469.6 Q1167.19 1464.99 1173 1464.99 Z" fill="#000000" fill-rule="evenodd" fill-opacity="1" /><path clip-path="url(#clip870)" d="M 0 0 M1398.73 1469.69 L1386.93 1488.14 L1398.73 1488.14 L1398.73 1469.69 M1397.51 1465.61 L1403.39 1465.61 L1403.39 1488.14 L1408.32 1488.14 L1408.32 1492.03 L1403.39 1492.03 L1403.39 1500.17 L1398.73 1500.17 L1398.73 1492.03 L1383.13 1492.03 L1383.13 1487.51 L1397.51 1465.61 Z" fill="#000000" fill-rule="evenodd" fill-opacity="1" /><path clip-path="url(#clip870)" d="M 0 0 M1426.05 1468.69 Q1422.44 1468.69 1420.61 1472.26 Q1418.8 1475.8 1418.8 1482.93 Q1418.8 1490.04 1420.61 1493.6 Q1422.44 1497.14 1426.05 1497.14 Q1429.68 1497.14 1431.49 1493.6 Q1433.32 1490.04 1433.32 1482.93 Q1433.32 1475.8 1431.49 1472.26 Q1429.68 1468.69 1426.05 1468.69 M1426.05 1464.99 Q1431.86 1464.99 1434.91 1469.6 Q1437.99 1474.18 1437.99 1482.93 Q1437.99 1491.66 1434.91 1496.26 Q1431.86 1500.85 1426.05 1500.85 Q1420.24 1500.85 1417.16 1496.26 Q1414.1 1491.66 1414.1 1482.93 Q1414.1 1474.18 1417.16 1469.6 Q1420.24 1464.99 1426.05 1464.99 Z" fill="#000000" fill-rule="evenodd" fill-opacity="1" /><path clip-path="url(#clip870)" d="M 0 0 M1456.21 1468.69 Q1452.6 1468.69 1450.77 1472.26 Q1448.96 1475.8 1448.96 1482.93 Q1448.96 1490.04 1450.77 1493.6 Q1452.6 1497.14 1456.21 1497.14 Q1459.84 1497.14 1461.65 1493.6 Q1463.48 1490.04 1463.48 1482.93 Q1463.48 1475.8 1461.65 1472.26 Q1459.84 1468.69 1456.21 1468.69 M1456.21 1464.99 Q1462.02 1464.99 1465.08 1469.6 Q1468.15 1474.18 1468.15 1482.93 Q1468.15 1491.66 1465.08 1496.26 Q1462.02 1500.85 1456.21 1500.85 Q1450.4 1500.85 1447.32 1496.26 Q1444.27 1491.66 1444.27 1482.93 Q1444.27 1474.18 1447.32 1469.6 Q1450.4 1464.99 1456.21 1464.99 Z" fill="#000000" fill-rule="evenodd" fill-opacity="1" /><path clip-path="url(#clip870)" d="M 0 0 M1667.83 1465.61 L1686.18 1465.61 L1686.18 1469.55 L1672.11 1469.55 L1672.11 1478.02 Q1673.13 1477.67 1674.15 1477.51 Q1675.17 1477.33 1676.18 1477.33 Q1681.97 1477.33 1685.35 1480.5 Q1688.73 1483.67 1688.73 1489.09 Q1688.73 1494.66 1685.26 1497.77 Q1681.79 1500.85 1675.47 1500.85 Q1673.29 1500.85 1671.02 1500.47 Q1668.78 1500.1 1666.37 1499.36 L1666.37 1494.66 Q1668.45 1495.8 1670.67 1496.35 Q1672.9 1496.91 1675.37 1496.91 Q1679.38 1496.91 1681.72 1494.8 Q1684.05 1492.7 1684.05 1489.09 Q1684.05 1485.47 1681.72 1483.37 Q1679.38 1481.26 1675.37 1481.26 Q1673.5 1481.26 1671.62 1481.68 Q1669.77 1482.1 1667.83 1482.97 L1667.83 1465.61 Z" fill="#000000" fill-rule="evenodd" fill-opacity="1" /><path clip-path="url(#clip870)" d="M 0 0 M1707.94 1468.69 Q1704.33 1468.69 1702.5 1472.26 Q1700.7 1475.8 1700.7 1482.93 Q1700.7 1490.04 1702.5 1493.6 Q1704.33 1497.14 1707.94 1497.14 Q1711.58 1497.14 1713.38 1493.6 Q1715.21 1490.04 1715.21 1482.93 Q1715.21 1475.8 1713.38 1472.26 Q1711.58 1468.69 1707.94 1468.69 M1707.94 1464.99 Q1713.75 1464.99 1716.81 1469.6 Q1719.89 1474.18 1719.89 1482.93 Q1719.89 1491.66 1716.81 1496.26 Q1713.75 1500.85 1707.94 1500.85 Q1702.13 1500.85 1699.05 1496.26 Q1696 1491.66 1696 1482.93 Q1696 1474.18 1699.05 1469.6 Q1702.13 1464.99 1707.94 1464.99 Z" fill="#000000" fill-rule="evenodd" fill-opacity="1" /><path clip-path="url(#clip870)" d="M 0 0 M1738.11 1468.69 Q1734.49 1468.69 1732.67 1472.26 Q1730.86 1475.8 1730.86 1482.93 Q1730.86 1490.04 1732.67 1493.6 Q1734.49 1497.14 1738.11 1497.14 Q1741.74 1497.14 1743.54 1493.6 Q1745.37 1490.04 1745.37 1482.93 Q1745.37 1475.8 1743.54 1472.26 Q1741.74 1468.69 1738.11 1468.69 M1738.11 1464.99 Q1743.92 1464.99 1746.97 1469.6 Q1750.05 1474.18 1750.05 1482.93 Q1750.05 1491.66 1746.97 1496.26 Q1743.92 1500.85 1738.11 1500.85 Q1732.3 1500.85 1729.22 1496.26 Q1726.16 1491.66 1726.16 1482.93 Q1726.16 1474.18 1729.22 1469.6 Q1732.3 1464.99 1738.11 1464.99 Z" fill="#000000" fill-rule="evenodd" fill-opacity="1" /><path clip-path="url(#clip870)" d="M 0 0 M1013.87 1535.75 Q1013.87 1541.16 1012.13 1547.24 Q1010.42 1553.3 1007.72 1558.19 Q1005.01 1563.06 1001.47 1566.28 Q997.928 1569.47 994.546 1569.47 Q992.389 1569.47 990.778 1568.27 Q989.2 1567.05 988.331 1565.02 Q987.461 1562.96 987.042 1560.71 Q986.624 1558.42 986.624 1555.94 Q986.624 1552.24 987.429 1548.21 Q988.234 1544.15 989.587 1540.48 Q990.939 1536.78 992.839 1533.43 Q994.74 1530.05 996.833 1527.6 Q998.958 1525.12 1001.34 1523.67 Q1003.72 1522.22 1005.95 1522.22 Q1007.56 1522.22 1008.85 1522.93 Q1010.17 1523.6 1011 1524.8 Q1011.84 1525.96 1012.42 1527.34 Q1013.03 1528.73 1013.32 1530.34 Q1013.61 1531.91 1013.74 1533.23 Q1013.87 1534.52 1013.87 1535.75 M1009.52 1531.66 Q1009.52 1530.01 1009.39 1528.79 Q1009.26 1527.53 1008.91 1526.28 Q1008.56 1525.02 1007.78 1524.35 Q1007.04 1523.67 1005.88 1523.67 Q1002.5 1523.67 998.701 1530.59 Q997.477 1532.75 996.382 1535.68 Q995.287 1538.61 994.901 1540 Q994.514 1541.38 993.612 1544.8 L1007.4 1544.8 Q1009.52 1536 1009.52 1531.66 M1006.82 1546.89 L993.097 1546.89 Q990.971 1554.94 990.971 1559.96 Q990.971 1564.34 991.873 1566.18 Q992.807 1567.98 994.546 1567.98 Q996.543 1567.98 998.411 1565.99 Q1000.28 1563.96 1002.18 1560.29 Q1004.69 1555.52 1006.82 1546.89 Z" fill="#000000" fill-rule="evenodd" fill-opacity="1" /><polyline clip-path="url(#clip872)" style="stroke:#000000; stroke-width:2; stroke-opacity:0.1; fill:none" points="
  253.284,1201.41 1750.59,1201.41 
  "/>
<polyline clip-path="url(#clip872)" style="stroke:#000000; stroke-width:2; stroke-opacity:0.1; fill:none" points="
  253.284,848.246 1750.59,848.246 
  "/>
<polyline clip-path="url(#clip872)" style="stroke:#000000; stroke-width:2; stroke-opacity:0.1; fill:none" points="
  253.284,495.08 1750.59,495.08 
  "/>
<polyline clip-path="url(#clip872)" style="stroke:#000000; stroke-width:2; stroke-opacity:0.1; fill:none" points="
  253.284,141.913 1750.59,141.913 
  "/>
<polyline clip-path="url(#clip870)" style="stroke:#000000; stroke-width:4; stroke-opacity:1; fill:none" points="
  253.284,1439.5 253.284,47.2441 
  "/>
<polyline clip-path="url(#clip870)" style="stroke:#000000; stroke-width:4; stroke-opacity:1; fill:none" points="
  253.284,1201.41 271.251,1201.41 
  "/>
<polyline clip-path="url(#clip870)" style="stroke:#000000; stroke-width:4; stroke-opacity:1; fill:none" points="
  253.284,848.246 271.251,848.246 
  "/>
<polyline clip-path="url(#clip870)" style="stroke:#000000; stroke-width:4; stroke-opacity:1; fill:none" points="
  253.284,495.08 271.251,495.08 
  "/>
<polyline clip-path="url(#clip870)" style="stroke:#000000; stroke-width:4; stroke-opacity:1; fill:none" points="
  253.284,141.913 271.251,141.913 
  "/>
<path clip-path="url(#clip870)" d="M 0 0 M161.705 1187.21 Q158.094 1187.21 156.266 1190.78 Q154.46 1194.32 154.46 1201.45 Q154.46 1208.55 156.266 1212.12 Q158.094 1215.66 161.705 1215.66 Q165.34 1215.66 167.145 1212.12 Q168.974 1208.55 168.974 1201.45 Q168.974 1194.32 167.145 1190.78 Q165.34 1187.21 161.705 1187.21 M161.705 1183.51 Q167.516 1183.51 170.571 1188.11 Q173.65 1192.7 173.65 1201.45 Q173.65 1210.17 170.571 1214.78 Q167.516 1219.36 161.705 1219.36 Q155.895 1219.36 152.817 1214.78 Q149.761 1210.17 149.761 1201.45 Q149.761 1192.7 152.817 1188.11 Q155.895 1183.51 161.705 1183.51 Z" fill="#000000" fill-rule="evenodd" fill-opacity="1" /><path clip-path="url(#clip870)" d="M 0 0 M181.867 1212.81 L186.752 1212.81 L186.752 1218.69 L181.867 1218.69 L181.867 1212.81 Z" fill="#000000" fill-rule="evenodd" fill-opacity="1" /><path clip-path="url(#clip870)" d="M 0 0 M200.965 1214.76 L217.284 1214.76 L217.284 1218.69 L195.34 1218.69 L195.34 1214.76 Q198.002 1212 202.585 1207.37 Q207.191 1202.72 208.372 1201.38 Q210.617 1198.85 211.497 1197.12 Q212.4 1195.36 212.4 1193.67 Q212.4 1190.92 210.455 1189.18 Q208.534 1187.44 205.432 1187.44 Q203.233 1187.44 200.779 1188.21 Q198.349 1188.97 195.571 1190.52 L195.571 1185.8 Q198.395 1184.67 200.849 1184.09 Q203.302 1183.51 205.339 1183.51 Q210.71 1183.51 213.904 1186.19 Q217.099 1188.88 217.099 1193.37 Q217.099 1195.5 216.289 1197.42 Q215.501 1199.32 213.395 1201.91 Q212.816 1202.58 209.714 1205.8 Q206.613 1208.99 200.965 1214.76 Z" fill="#000000" fill-rule="evenodd" fill-opacity="1" /><path clip-path="url(#clip870)" d="M 0 0 M160.756 834.045 Q157.145 834.045 155.317 837.61 Q153.511 841.151 153.511 848.281 Q153.511 855.387 155.317 858.952 Q157.145 862.494 160.756 862.494 Q164.391 862.494 166.196 858.952 Q168.025 855.387 168.025 848.281 Q168.025 841.151 166.196 837.61 Q164.391 834.045 160.756 834.045 M160.756 830.341 Q166.567 830.341 169.622 834.948 Q172.701 839.531 172.701 848.281 Q172.701 857.008 169.622 861.614 Q166.567 866.197 160.756 866.197 Q154.946 866.197 151.868 861.614 Q148.812 857.008 148.812 848.281 Q148.812 839.531 151.868 834.948 Q154.946 830.341 160.756 830.341 Z" fill="#000000" fill-rule="evenodd" fill-opacity="1" /><path clip-path="url(#clip870)" d="M 0 0 M180.918 859.647 L185.803 859.647 L185.803 865.526 L180.918 865.526 L180.918 859.647 Z" fill="#000000" fill-rule="evenodd" fill-opacity="1" /><path clip-path="url(#clip870)" d="M 0 0 M210.154 846.892 Q213.511 847.61 215.386 849.878 Q217.284 852.147 217.284 855.48 Q217.284 860.596 213.765 863.397 Q210.247 866.197 203.765 866.197 Q201.59 866.197 199.275 865.758 Q196.983 865.341 194.529 864.485 L194.529 859.971 Q196.474 861.105 198.789 861.684 Q201.103 862.262 203.627 862.262 Q208.025 862.262 210.316 860.526 Q212.631 858.79 212.631 855.48 Q212.631 852.424 210.478 850.711 Q208.349 848.975 204.529 848.975 L200.502 848.975 L200.502 845.133 L204.714 845.133 Q208.164 845.133 209.992 843.767 Q211.821 842.378 211.821 839.786 Q211.821 837.124 209.923 835.712 Q208.048 834.276 204.529 834.276 Q202.608 834.276 200.409 834.693 Q198.21 835.11 195.571 835.989 L195.571 831.823 Q198.233 831.082 200.548 830.712 Q202.886 830.341 204.946 830.341 Q210.27 830.341 213.372 832.772 Q216.474 835.179 216.474 839.299 Q216.474 842.17 214.83 844.161 Q213.187 846.128 210.154 846.892 Z" fill="#000000" fill-rule="evenodd" fill-opacity="1" /><path clip-path="url(#clip870)" d="M 0 0 M159.622 480.878 Q156.011 480.878 154.182 484.443 Q152.377 487.985 152.377 495.114 Q152.377 502.221 154.182 505.786 Q156.011 509.327 159.622 509.327 Q163.256 509.327 165.062 505.786 Q166.891 502.221 166.891 495.114 Q166.891 487.985 165.062 484.443 Q163.256 480.878 159.622 480.878 M159.622 477.175 Q165.432 477.175 168.488 481.781 Q171.567 486.364 171.567 495.114 Q171.567 503.841 168.488 508.448 Q165.432 513.031 159.622 513.031 Q153.812 513.031 150.733 508.448 Q147.678 503.841 147.678 495.114 Q147.678 486.364 150.733 481.781 Q153.812 477.175 159.622 477.175 Z" fill="#000000" fill-rule="evenodd" fill-opacity="1" /><path clip-path="url(#clip870)" d="M 0 0 M179.784 506.48 L184.668 506.48 L184.668 512.36 L179.784 512.36 L179.784 506.48 Z" fill="#000000" fill-rule="evenodd" fill-opacity="1" /><path clip-path="url(#clip870)" d="M 0 0 M207.701 481.874 L195.895 500.323 L207.701 500.323 L207.701 481.874 M206.474 477.8 L212.353 477.8 L212.353 500.323 L217.284 500.323 L217.284 504.212 L212.353 504.212 L212.353 512.36 L207.701 512.36 L207.701 504.212 L192.099 504.212 L192.099 499.698 L206.474 477.8 Z" fill="#000000" fill-rule="evenodd" fill-opacity="1" /><path clip-path="url(#clip870)" d="M 0 0 M161.104 127.712 Q157.493 127.712 155.664 131.277 Q153.858 134.818 153.858 141.948 Q153.858 149.054 155.664 152.619 Q157.493 156.161 161.104 156.161 Q164.738 156.161 166.543 152.619 Q168.372 149.054 168.372 141.948 Q168.372 134.818 166.543 131.277 Q164.738 127.712 161.104 127.712 M161.104 124.008 Q166.914 124.008 169.969 128.615 Q173.048 133.198 173.048 141.948 Q173.048 150.675 169.969 155.281 Q166.914 159.864 161.104 159.864 Q155.293 159.864 152.215 155.281 Q149.159 150.675 149.159 141.948 Q149.159 133.198 152.215 128.615 Q155.293 124.008 161.104 124.008 Z" fill="#000000" fill-rule="evenodd" fill-opacity="1" /><path clip-path="url(#clip870)" d="M 0 0 M181.266 153.314 L186.15 153.314 L186.15 159.193 L181.266 159.193 L181.266 153.314 Z" fill="#000000" fill-rule="evenodd" fill-opacity="1" /><path clip-path="url(#clip870)" d="M 0 0 M196.381 124.633 L214.738 124.633 L214.738 128.568 L200.664 128.568 L200.664 137.04 Q201.682 136.693 202.701 136.531 Q203.719 136.346 204.738 136.346 Q210.525 136.346 213.904 139.517 Q217.284 142.689 217.284 148.105 Q217.284 153.684 213.812 156.786 Q210.339 159.864 204.02 159.864 Q201.844 159.864 199.576 159.494 Q197.33 159.124 194.923 158.383 L194.923 153.684 Q197.006 154.818 199.228 155.374 Q201.451 155.929 203.927 155.929 Q207.932 155.929 210.27 153.823 Q212.608 151.716 212.608 148.105 Q212.608 144.494 210.27 142.388 Q207.932 140.281 203.927 140.281 Q202.052 140.281 200.177 140.698 Q198.326 141.115 196.381 141.994 L196.381 124.633 Z" fill="#000000" fill-rule="evenodd" fill-opacity="1" /><path clip-path="url(#clip870)" d="M 0 0 M60.857 942.374 L77.282 948.043 L77.282 1002.73 Q77.282 1003.47 77.2498 1003.76 Q77.2176 1004.05 77.0566 1004.27 Q76.8956 1004.5 76.5413 1004.5 Q76.2514 1004.5 75.5107 1003.92 L46.5576 980.506 L13.45 1004.56 Q11.9363 1004.56 11.6465 1004.31 Q11.3244 1004.05 11.3244 1002.73 L11.3244 948.043 L26.751 942.374 L26.751 944.017 Q24.7543 944.758 23.0796 945.949 Q21.3726 947.109 20.1488 948.461 Q18.925 949.782 17.9588 951.521 Q16.9604 953.228 16.3485 954.838 Q15.7044 956.416 15.2535 958.381 Q14.7704 960.345 14.545 961.923 Q14.2874 963.469 14.1585 965.402 Q14.0297 967.334 13.9975 968.558 Q13.9653 969.782 13.9653 971.327 L13.9653 997.446 L43.3693 976.03 Q44.11 975.546 44.3032 975.546 Q44.5931 975.546 45.366 976.158 L73.6428 999.024 L73.6428 971.005 Q73.6428 961.988 71.7426 955.708 Q70.2934 951.456 67.427 948.365 Q64.5607 945.241 60.857 944.017 L60.857 942.374 Z" fill="#000000" fill-rule="evenodd" fill-opacity="1" /><path clip-path="url(#clip870)" d="M 0 0 M103.424 1013.55 Q104.055 1013.55 104.213 1013.85 Q104.349 1014.14 104.349 1014.95 L104.349 1019.28 L117.965 1022.7 Q119.16 1022.98 120.174 1022.98 Q121.302 1022.98 121.798 1022.64 Q122.294 1022.28 122.294 1021.53 Q122.294 1020.07 120.964 1018.49 Q119.633 1016.89 116.387 1015.54 Q115.959 1015.36 115.869 1015.27 Q115.756 1015.15 115.756 1014.86 Q115.756 1014.3 116.207 1014.3 Q116.365 1014.3 117.086 1014.61 Q117.807 1014.9 118.867 1015.56 Q119.927 1016.19 120.918 1017.02 Q121.91 1017.84 122.632 1019.08 Q123.331 1020.32 123.331 1021.65 Q123.331 1023.52 122.136 1024.71 Q120.941 1025.88 119.07 1025.88 Q118.461 1025.88 116.522 1025.41 Q114.561 1024.94 104.349 1022.37 L104.349 1026.45 Q104.349 1027.01 104.326 1027.24 Q104.303 1027.44 104.191 1027.6 Q104.055 1027.73 103.785 1027.73 Q103.357 1027.73 103.176 1027.55 Q102.973 1027.37 102.951 1027.15 Q102.906 1026.9 102.906 1026.33 L102.906 1022.01 L95.5789 1020.2 Q94.8575 1020.02 94.4517 1019.57 Q94.0233 1019.1 93.9782 1018.83 Q93.9106 1018.56 93.9106 1018.35 Q93.9106 1017.75 94.2488 1017.38 Q94.5644 1017.02 95.1505 1017.02 Q95.4662 1017.02 102.906 1018.92 L102.906 1014.86 Q102.906 1014.34 102.928 1014.14 Q102.951 1013.91 103.064 1013.73 Q103.176 1013.55 103.424 1013.55 Z" fill="#000000" fill-rule="evenodd" fill-opacity="1" /><path clip-path="url(#clip870)" d="M 0 0 M115.801 998.419 Q115.237 998.374 115.237 997.495 L115.237 969.202 Q115.237 967.872 115.756 967.85 Q116.319 967.85 116.297 969.112 L116.297 997.179 Q116.319 998.419 115.801 998.419 M106.783 998.419 Q106.22 998.419 106.242 997.45 L106.242 969.247 Q106.242 967.872 106.783 967.85 Q107.302 967.85 107.302 969.022 L107.302 997.495 Q107.302 998.419 106.783 998.419 Z" fill="#000000" fill-rule="evenodd" fill-opacity="1" /><path clip-path="url(#clip870)" d="M 0 0 M108.046 950.037 Q101.26 950.037 97.5628 948.324 Q92.062 945.934 92.062 940.298 Q92.062 939.104 92.4002 937.864 Q92.7158 936.601 93.9557 935.023 Q95.1956 933.422 97.2246 932.453 Q101.147 930.604 108.046 930.604 Q114.786 930.604 118.461 932.318 Q123.827 934.82 123.827 940.344 Q123.827 942.418 122.767 944.537 Q121.707 946.633 119.16 947.963 Q115.35 950.037 108.046 950.037 M107.482 946.205 Q114.448 946.205 117.221 945.709 Q120.22 945.145 121.527 943.612 Q122.812 942.057 122.812 940.344 Q122.812 938.495 121.437 936.962 Q120.039 935.406 117.041 934.933 Q114.088 934.414 107.482 934.437 Q101.057 934.437 98.4871 934.888 Q95.4887 935.497 94.2939 937.12 Q93.0765 938.72 93.0765 940.344 Q93.0765 940.952 93.2568 941.606 Q93.4372 942.237 93.9557 943.162 Q94.4742 944.086 95.7592 944.807 Q97.0442 945.506 98.983 945.844 Q101.485 946.205 107.482 946.205 Z" fill="#000000" fill-rule="evenodd" fill-opacity="1" /><path clip-path="url(#clip870)" d="M 0 0 M16.8638 875.27 Q17.4757 875.27 17.991 875.399 L29.4563 877.202 Q30.3259 877.299 30.6479 877.492 Q30.97 877.653 30.97 878.168 Q30.97 878.974 30.1326 878.974 Q29.6496 878.974 28.8766 878.78 Q25.2374 878.233 23.5949 878.233 Q22.4999 878.233 21.6947 878.458 Q20.8574 878.651 20.2776 878.974 Q19.6979 879.263 19.3115 879.94 Q18.925 880.616 18.6996 881.26 Q18.4741 881.904 18.3775 883.064 Q18.2487 884.223 18.2165 885.221 Q18.1843 886.22 18.1843 887.862 Q18.1843 891.437 18.3131 892.017 Q18.4741 892.629 18.9572 892.951 Q19.4081 893.241 20.7607 893.563 L55.7685 902.323 L57.1534 902.58 Q57.9263 902.58 58.1839 902.097 Q58.4416 901.614 58.6026 900.133 Q58.7637 898.007 58.7637 895.914 Q58.7637 895.849 58.7637 895.721 Q58.7637 895.012 58.7959 894.722 Q58.7959 894.432 58.8603 894.142 Q58.9247 893.853 59.0857 893.788 Q59.2145 893.692 59.4722 893.692 Q60.0841 893.692 60.4062 893.949 Q60.696 894.207 60.7604 894.465 Q60.7926 894.69 60.7926 895.141 Q60.7926 896.043 60.7282 897.975 Q60.6638 899.907 60.6638 900.874 L60.5994 906.349 L60.6638 911.952 Q60.6638 912.822 60.7282 914.658 Q60.7926 916.493 60.7926 917.363 Q60.7926 918.49 59.9875 918.49 Q59.0857 918.49 58.9247 918.071 Q58.7637 917.621 58.7637 915.72 Q58.7637 913.047 58.6348 911.598 Q58.506 910.149 58.0551 909.376 Q57.6042 908.571 57.1534 908.345 Q56.6703 908.12 55.5753 907.862 L20.3743 899.006 Q19.6013 898.748 18.9894 898.748 Q18.6674 898.748 18.5385 898.845 Q18.4097 898.909 18.3131 899.328 Q18.1843 899.746 18.1843 900.616 L18.1843 903.192 Q18.1843 905.833 18.3131 907.476 Q18.4097 909.086 18.8928 910.632 Q19.3759 912.146 20.0522 913.047 Q20.7285 913.917 22.1134 914.883 Q23.4982 915.849 25.1729 916.558 Q26.8476 917.234 29.5851 918.2 Q30.4869 918.522 30.7446 918.716 Q30.97 918.877 30.97 919.327 Q30.97 919.65 30.7768 919.907 Q30.5513 920.133 30.2615 920.133 Q29.1987 919.811 29.0698 919.746 L17.4435 915.785 Q16.5096 915.463 16.3485 915.173 Q16.1553 914.851 16.1553 913.659 L16.1553 877.073 Q16.1553 876.494 16.1553 876.3 Q16.1553 876.107 16.2197 875.785 Q16.2841 875.463 16.4451 875.366 Q16.6062 875.27 16.8638 875.27 Z" fill="#000000" fill-rule="evenodd" fill-opacity="1" /><path clip-path="url(#clip870)" d="M 0 0 M7.94593 850.294 L8.87023 850.858 Q7.35978 854.352 4.94756 858.703 Q7.35978 863.054 8.87023 866.548 L7.94593 867.089 Q4.63194 863.279 2.08446 858.703 Q4.65449 854.081 7.94593 850.294 Z" fill="#000000" fill-rule="evenodd" fill-opacity="1" /><path clip-path="url(#clip870)" d="M 0 0 M16.5418 834.027 Q16.9604 834.027 17.2181 834.124 Q17.4757 834.189 17.6046 834.446 Q17.7012 834.672 17.7334 834.833 Q17.7656 834.961 17.7978 835.348 Q17.9266 836.926 18.3453 838.246 Q18.7318 839.567 19.5047 840.694 Q20.2776 841.789 20.7929 842.401 Q21.3082 842.981 22.3388 844.011 L23.2728 844.913 L42.0488 861.274 Q42.6929 861.853 44.11 862.208 L53.4175 864.526 Q57.2822 865.428 57.572 865.428 Q58.1517 865.428 58.345 865.106 Q58.506 864.752 58.6026 863.657 L58.7637 861.145 Q58.7637 859.663 59.0213 859.438 Q59.1823 859.309 59.4722 859.309 Q60.0841 859.309 60.4062 859.567 Q60.696 859.792 60.7604 860.018 Q60.7926 860.211 60.7926 860.565 L60.5994 869.003 L60.7926 877.312 Q60.7926 878.246 60.0519 878.246 Q59.5688 878.246 59.3112 878.182 Q59.0213 878.085 58.9247 877.795 Q58.7959 877.505 58.7959 877.28 Q58.7637 877.055 58.7637 876.443 Q58.7314 874.961 58.7314 874.22 Q58.6992 873.447 58.506 872.707 Q58.3128 871.966 58.1839 871.708 Q58.0229 871.418 57.4754 871.096 Q56.8957 870.742 56.4448 870.646 Q55.9939 870.517 54.8667 870.259 Q53.8684 870.001 48.4256 868.649 Q42.9828 867.296 42.854 867.296 Q42.4997 867.296 41.7268 867.554 L20.02 875.67 Q19.0538 876.024 18.6674 876.314 Q18.2809 876.604 18.0554 877.57 Q17.7978 878.536 17.7978 880.468 Q17.7978 881.016 17.7656 881.273 Q17.7334 881.531 17.5724 881.757 Q17.4113 881.982 17.0571 881.982 Q16.4451 881.982 16.1553 881.724 Q15.8332 881.467 15.801 881.273 Q15.7366 881.048 15.7366 880.726 Q15.7366 879.921 15.8332 877.055 Q15.9299 874.188 15.9299 873.351 L15.7366 865.042 Q15.7366 864.043 16.4774 864.043 Q17.3791 864.043 17.6046 864.398 Q17.7978 864.752 17.7978 865.621 Q17.7978 869.518 19.3759 869.518 Q19.5691 869.518 20.5031 869.132 L40.0843 861.886 L22.4676 846.588 L22.21 846.362 Q21.9524 846.169 21.7591 846.008 Q21.5659 845.847 21.2116 845.589 Q20.8574 845.332 20.5675 845.203 Q20.2776 845.042 19.9234 844.913 Q19.5691 844.784 19.3115 844.784 Q18.8284 844.784 18.5063 845.074 Q18.1521 845.364 18.0232 845.815 Q17.8944 846.266 17.8622 846.588 Q17.7978 846.91 17.7978 847.167 Q17.7978 848.166 16.9926 848.166 Q16.4129 848.166 16.1231 847.908 Q15.801 847.651 15.7688 847.457 Q15.7366 847.232 15.7366 846.91 Q15.7366 845.847 15.8332 843.625 Q15.9299 841.403 15.9299 840.308 Q15.9299 839.406 15.8332 837.57 Q15.7366 835.734 15.7366 834.897 Q15.7366 834.027 16.5418 834.027 Z" fill="#000000" fill-rule="evenodd" fill-opacity="1" /><path clip-path="url(#clip870)" d="M 0 0 M58.5788 822.834 Q59.21 822.834 59.3678 823.128 Q59.5031 823.421 59.5031 824.232 L59.5031 828.561 L73.1197 831.987 Q74.3145 832.258 75.329 832.258 Q76.4562 832.258 76.9522 831.92 Q77.4482 831.559 77.4482 830.815 Q77.4482 829.35 76.1181 827.772 Q74.788 826.171 71.5416 824.818 Q71.1133 824.638 71.0231 824.548 Q70.9104 824.435 70.9104 824.142 Q70.9104 823.578 71.3613 823.578 Q71.5191 823.578 72.2405 823.894 Q72.9619 824.187 74.0215 824.841 Q75.081 825.472 76.073 826.306 Q77.0649 827.118 77.7863 828.358 Q78.4852 829.598 78.4852 830.928 Q78.4852 832.799 77.2904 833.994 Q76.0955 835.166 74.2244 835.166 Q73.6157 835.166 71.6769 834.693 Q69.7155 834.219 59.5031 831.649 L59.5031 835.73 Q59.5031 836.293 59.4805 836.519 Q59.458 836.722 59.3453 836.879 Q59.21 837.015 58.9395 837.015 Q58.5111 837.015 58.3308 836.834 Q58.1279 836.654 58.1053 836.429 Q58.0602 836.181 58.0602 835.617 L58.0602 831.289 L50.7334 829.485 Q50.012 829.305 49.6062 828.854 Q49.1779 828.38 49.1328 828.11 Q49.0651 827.839 49.0651 827.636 Q49.0651 827.028 49.4033 826.667 Q49.7189 826.306 50.3051 826.306 Q50.6207 826.306 58.0602 828.2 L58.0602 824.142 Q58.0602 823.624 58.0828 823.421 Q58.1053 823.195 58.218 823.015 Q58.3308 822.834 58.5788 822.834 Z" fill="#000000" fill-rule="evenodd" fill-opacity="1" /><path clip-path="url(#clip870)" d="M 0 0 M42.8415 813.474 Q32.1994 813.474 23.618 809.506 Q20.0193 807.814 17.0051 805.446 Q13.9908 803.078 12.6682 801.509 Q11.3456 799.94 11.3456 799.51 Q11.3456 798.894 11.9608 798.864 Q12.2684 798.864 13.0373 799.694 Q23.3719 809.844 42.8415 809.813 Q62.3727 809.813 72.3074 799.94 Q73.384 798.864 73.7223 798.864 Q74.3374 798.864 74.3374 799.51 Q74.3374 799.94 73.0764 801.447 Q71.8153 802.954 68.9241 805.292 Q66.0329 807.63 62.4957 809.321 Q53.9143 813.474 42.8415 813.474 Z" fill="#000000" fill-rule="evenodd" fill-opacity="1" /><path clip-path="url(#clip870)" d="M 0 0 M24.5932 782.245 Q18.925 782.245 15.1247 779.347 Q11.3244 776.448 11.3244 772.551 Q11.3244 770.168 13.45 767.817 Q18.5385 762.471 18.5063 755.482 Q18.5063 747.559 12.2584 742.954 Q11.3244 742.149 11.3244 741.569 Q11.3244 741.054 11.7431 740.667 Q12.1296 740.249 12.6449 740.249 Q13.0313 740.249 13.8365 740.764 L63.4979 774.129 Q64.4963 774.87 64.4963 775.45 Q64.4963 775.965 64.0776 776.384 Q63.6911 776.77 63.1759 776.77 Q62.725 776.77 61.8554 776.19 L17.7334 746.561 L17.669 746.625 Q19.9878 750.039 19.9556 755.418 Q19.9556 760.506 17.1859 765.369 Q20.5997 763.984 24.6576 763.984 Q30.1971 763.984 34.0618 766.464 Q37.8943 768.944 37.8943 772.551 Q37.8943 776.448 34.1584 779.347 Q30.3903 782.245 24.5932 782.245 M19.2149 777.704 Q21.5337 778.155 24.6576 778.155 Q27.7494 778.155 30.0682 777.704 Q32.3548 777.253 33.5465 776.609 Q34.7381 775.933 35.4466 775.031 Q36.1229 774.129 36.284 773.582 Q36.445 773.034 36.445 772.487 Q36.445 769.781 33.0956 767.72 Q29.714 765.627 24.5932 765.627 Q19.5691 765.627 16.1875 767.72 Q12.7737 769.781 12.7737 772.487 Q12.7737 773.066 12.9347 773.646 Q13.0957 774.194 13.8043 775.063 Q14.4806 775.933 15.6722 776.609 Q16.8638 777.253 19.2149 777.704 M51.1631 753.034 Q45.4948 753.034 41.6945 750.136 Q37.8943 747.237 37.8943 743.34 Q37.8943 739.766 41.759 737.286 Q45.6237 734.774 51.2275 734.774 Q56.7669 734.774 60.6316 737.253 Q64.4963 739.701 64.4963 743.34 Q64.4963 747.237 60.7282 750.136 Q56.9601 753.034 51.1631 753.034 M45.7847 748.493 Q48.1357 748.944 51.2275 748.944 Q54.3192 748.944 56.6381 748.493 Q58.9569 748.01 60.1485 747.366 Q61.3079 746.69 61.9842 745.82 Q62.6928 744.918 62.8538 744.371 Q63.047 743.791 63.047 743.276 Q63.047 740.571 59.6976 738.51 Q56.316 736.416 51.1631 736.416 Q46.139 736.416 42.7573 738.51 Q39.3435 740.571 39.3435 743.276 Q39.3435 743.856 39.5368 744.435 Q39.6978 744.983 40.4063 745.852 Q41.0826 746.69 42.2743 747.366 Q43.4337 748.01 45.7847 748.493 Z" fill="#000000" fill-rule="evenodd" fill-opacity="1" /><path clip-path="url(#clip870)" d="M 0 0 M59.7298 726.924 Q58.667 727.858 57.2822 727.858 Q55.8973 727.858 54.8667 726.956 Q53.8039 726.022 53.8039 724.348 Q53.8039 722.383 55.7041 721.256 Q57.572 720.129 60.7282 720.129 Q64.142 720.129 67.2982 721.514 Q70.4866 722.898 72.0003 724.251 Q73.5139 725.604 73.5139 726.151 Q73.5139 726.795 72.8054 726.795 Q72.5478 726.795 72.0647 726.344 Q66.9761 721.61 60.7282 721.578 Q59.7298 721.578 59.7298 721.707 L59.8587 721.868 Q60.7926 722.995 60.7926 724.348 Q60.7926 725.99 59.7298 726.924 Z" fill="#000000" fill-rule="evenodd" fill-opacity="1" /><path clip-path="url(#clip870)" d="M 0 0 M43.4981 664.724 Q46.7509 664.724 50.0037 666.399 Q53.2564 668.073 55.7685 670.811 Q58.2484 673.548 59.8587 677.284 Q61.4689 681.02 61.5978 684.917 L71.4206 687.429 Q73.8038 687.912 74.0614 688.17 Q74.3191 688.427 74.3191 688.814 Q74.3191 689.619 73.5783 689.619 Q73.3529 689.619 67.7813 688.17 L61.5978 686.624 Q61.2757 692.485 57.8941 695.899 Q54.5125 699.313 49.6494 699.313 Q46.3644 699.313 43.1116 697.638 Q39.8266 695.931 37.3468 693.194 Q34.8669 690.424 33.2888 686.688 Q31.7107 682.952 31.5819 679.12 L16.3485 675.287 Q15.479 675.094 15.2535 674.933 Q15.0281 674.772 15.0281 674.289 Q15.0281 673.935 15.1891 673.742 Q15.3502 673.548 15.5112 673.548 L15.6722 673.516 L16.6062 673.709 L31.5819 677.413 Q31.8073 674.128 32.9668 671.584 Q34.1262 669.04 35.8653 667.59 Q37.5722 666.141 39.5045 665.432 Q41.4369 664.724 43.4981 664.724 M33.0312 679.506 Q33.3532 683.049 35.0923 686.044 Q36.8315 689.039 39.4079 690.972 Q41.9522 692.904 45.0117 693.967 Q48.0391 695.03 51.0342 695.03 Q53.3853 695.03 55.1888 694.257 Q56.9923 693.452 58.0229 692.131 Q59.0213 690.811 59.5688 689.361 Q60.0841 687.88 60.1485 686.302 L33.0312 679.506 M42.1132 669.04 Q37.9265 669.04 35.5754 671.455 Q33.2244 673.87 33.0312 677.8 L60.1485 684.595 Q59.9231 681.729 58.7314 679.217 Q57.5076 676.672 55.7041 674.837 Q53.8684 673.001 51.614 671.68 Q49.3273 670.36 46.9119 669.716 Q44.4642 669.04 42.1132 669.04 Z" fill="#000000" fill-rule="evenodd" fill-opacity="1" /><path clip-path="url(#clip870)" d="M 0 0 M50.7766 642.094 Q49.9715 642.03 49.9715 640.774 L49.9715 600.355 Q49.9715 598.455 50.7122 598.423 Q51.5173 598.423 51.4851 600.227 L51.4851 640.323 Q51.5173 642.094 50.7766 642.094 M37.8943 642.094 Q37.0891 642.094 37.1213 640.709 L37.1213 600.42 Q37.1213 598.455 37.8943 598.423 Q38.635 598.423 38.635 600.098 L38.635 640.774 Q38.635 642.094 37.8943 642.094 Z" fill="#000000" fill-rule="evenodd" fill-opacity="1" /><path clip-path="url(#clip870)" d="M 0 0 M23.144 572.977 L21.0828 572.977 Q21.0828 565.055 16.8638 560.965 Q16.8638 559.837 17.1215 559.644 Q17.3791 559.451 18.5707 559.451 L55.5753 559.451 Q57.5398 559.451 58.1517 558.485 Q58.7637 557.519 58.7637 553.3 L58.7637 551.206 L60.7926 551.206 Q60.5994 553.525 60.5994 561.899 Q60.5994 570.272 60.7926 572.559 L58.7637 572.559 L58.7637 570.465 Q58.7637 566.311 58.1839 565.312 Q57.572 564.314 55.5753 564.314 L21.4049 564.314 Q23.144 567.76 23.144 572.977 Z" fill="#000000" fill-rule="evenodd" fill-opacity="1" /><path clip-path="url(#clip870)" d="M 0 0 M59.7298 546.065 Q58.667 547.063 57.2822 547.063 Q55.8973 547.063 54.8989 546.065 Q53.8684 545.067 53.8684 543.553 Q53.8684 542.104 54.8345 541.137 Q55.7685 540.139 57.3144 540.139 Q58.8281 540.139 59.8264 541.202 Q60.7926 542.232 60.7926 543.553 Q60.7926 545.067 59.7298 546.065 Z" fill="#000000" fill-rule="evenodd" fill-opacity="1" /><path clip-path="url(#clip870)" d="M 0 0 M60.7926 528.913 Q59.601 528.913 59.2467 528.816 Q58.8925 528.688 58.345 528.172 L44.2388 515.515 Q36.445 508.591 29.6496 508.591 Q25.2374 508.591 22.0812 510.91 Q18.925 513.197 18.925 517.416 Q18.925 520.314 20.6963 522.762 Q22.4676 525.209 25.6238 526.337 Q25.5594 526.143 25.5594 525.467 Q25.5594 523.825 26.59 522.923 Q27.6206 521.989 29.0054 521.989 Q30.7768 521.989 31.6463 523.148 Q32.4837 524.275 32.4837 525.403 Q32.4837 525.854 32.3871 526.465 Q32.2904 527.045 31.3887 527.979 Q30.4547 528.913 28.8122 528.913 Q24.2068 528.913 20.5353 525.435 Q16.8638 521.924 16.8638 516.578 Q16.8638 510.524 20.4709 506.562 Q24.0457 502.569 29.6496 502.569 Q31.6141 502.569 33.4176 503.181 Q35.189 503.76 36.5738 504.565 Q37.9587 505.338 40.1809 507.464 Q42.4031 509.59 43.9812 511.296 Q45.5592 513.003 48.9087 516.836 L55.7041 523.825 L55.7041 511.941 Q55.7041 506.144 55.1888 505.693 Q54.2548 505.049 49.3273 504.243 L49.3273 502.569 L60.7926 504.437 L60.7926 528.913 Z" fill="#000000" fill-rule="evenodd" fill-opacity="1" /><path clip-path="url(#clip870)" d="M 0 0 M50.1647 496.249 Q48.2001 496.249 47.4594 495.186 Q46.6865 494.123 46.6865 492.996 Q46.6865 491.483 47.6526 490.613 Q48.5866 489.711 49.907 489.711 Q51.2275 489.711 52.1937 490.613 Q53.1276 491.483 53.1276 492.996 Q53.1276 493.737 52.9988 494.123 Q56.0262 493.254 58.2162 490.613 Q60.4062 487.94 60.4062 484.429 Q60.4062 480.017 56.1228 477.376 Q53.3531 475.798 47.0729 475.798 Q41.5335 475.798 38.7638 476.99 Q34.5448 478.826 34.5448 482.594 Q34.5448 487.94 39.1503 491.096 Q39.73 491.483 39.7622 491.933 Q39.7622 492.578 39.4079 492.739 Q39.0215 492.867 38.0231 492.867 L18.5063 492.867 Q16.9282 492.867 16.9282 492.223 Q16.9282 491.966 17.1215 491.418 Q18.9572 487.264 18.9894 482.658 Q18.9894 477.924 17.0571 473.673 Q16.8638 473.351 16.8638 473.157 Q16.8638 472.513 17.6046 472.481 Q17.8622 472.481 18.6351 473.029 Q19.3759 473.544 20.3743 474.671 Q21.3404 475.798 22.2744 477.248 Q23.2084 478.697 23.8525 480.822 Q24.4644 482.916 24.4644 485.235 Q24.4644 488.004 23.5949 490.838 L36.445 490.838 Q33.0956 487.425 33.0956 482.465 Q33.0956 477.183 37.3468 473.544 Q41.5979 469.905 47.5238 469.905 Q53.7395 469.905 57.9907 474.22 Q62.2419 478.504 62.2419 484.301 Q62.2419 489.582 58.4738 492.932 Q54.7057 496.249 50.1647 496.249 Z" fill="#000000" fill-rule="evenodd" fill-opacity="1" /><path clip-path="url(#clip870)" d="M 0 0 M73.7223 463.131 Q73.4147 463.131 72.6458 462.331 Q62.3112 452.181 42.8415 452.181 Q23.3104 452.181 13.4372 461.931 Q12.2991 463.131 11.9608 463.131 Q11.3456 463.131 11.3456 462.516 Q11.3456 462.085 12.6067 460.578 Q13.8678 459.04 16.759 456.733 Q19.6502 454.396 23.1874 452.673 Q31.7688 448.521 42.8415 448.521 Q53.4837 448.521 62.0651 452.489 Q65.6638 454.18 68.678 456.549 Q71.6923 458.917 73.0149 460.486 Q74.3374 462.054 74.3374 462.516 Q74.3374 463.131 73.7223 463.131 Z" fill="#000000" fill-rule="evenodd" fill-opacity="1" /><polyline clip-path="url(#clip872)" style="stroke:#0000ff; stroke-width:4; stroke-opacity:1; fill:none" points="
  295.66,1400.1 1708.21,86.6476 
  "/>
<polyline clip-path="url(#clip872)" style="stroke:#ff0000; stroke-width:4; stroke-opacity:1; fill:none" points="
  295.66,1164.22 1708.21,498.778 
  "/>
<path clip-path="url(#clip870)" d="
M1820.57 252.413 L2352.76 252.413 L2352.76 93.6527 L1820.57 93.6527  Z
  " fill="#ffffff" fill-rule="evenodd" fill-opacity="1"/>
<polyline clip-path="url(#clip870)" style="stroke:#000000; stroke-width:4; stroke-opacity:1; fill:none" points="
  1820.57,252.413 2352.76,252.413 2352.76,93.6527 1820.57,93.6527 1820.57,252.413 
  "/>
<polyline clip-path="url(#clip870)" style="stroke:#0000ff; stroke-width:3.5; stroke-opacity:1; fill:none" points="
  1843.9,146.573 1983.86,146.573 
  "/>
<path clip-path="url(#clip870)" d="M 0 0 M2035.74 128.673 Q2035.74 129.062 2035.66 129.39 L2034.51 136.686 Q2034.45 137.239 2034.32 137.444 Q2034.22 137.649 2033.89 137.649 Q2033.38 137.649 2033.38 137.116 Q2033.38 136.809 2033.5 136.317 Q2033.85 134.001 2033.85 132.956 Q2033.85 132.259 2033.71 131.747 Q2033.59 131.214 2033.38 130.845 Q2033.2 130.476 2032.77 130.23 Q2032.34 129.984 2031.93 129.841 Q2031.52 129.697 2030.78 129.636 Q2030.04 129.554 2029.4 129.533 Q2028.77 129.513 2027.72 129.513 Q2025.45 129.513 2025.08 129.595 Q2024.69 129.697 2024.49 130.005 Q2024.3 130.292 2024.1 131.153 L2018.52 153.43 L2018.36 154.311 Q2018.36 154.803 2018.67 154.967 Q2018.97 155.131 2019.92 155.234 Q2021.27 155.336 2022.6 155.336 Q2022.64 155.336 2022.72 155.336 Q2023.17 155.336 2023.36 155.357 Q2023.54 155.357 2023.73 155.398 Q2023.91 155.439 2023.95 155.541 Q2024.01 155.623 2024.01 155.787 Q2024.01 156.176 2023.85 156.381 Q2023.69 156.566 2023.52 156.607 Q2023.38 156.627 2023.09 156.627 Q2022.52 156.627 2021.29 156.586 Q2020.06 156.545 2019.44 156.545 L2015.96 156.504 L2012.39 156.545 Q2011.84 156.545 2010.67 156.586 Q2009.5 156.627 2008.95 156.627 Q2008.23 156.627 2008.23 156.115 Q2008.23 155.541 2008.5 155.439 Q2008.79 155.336 2010 155.336 Q2011.7 155.336 2012.62 155.254 Q2013.54 155.172 2014.03 154.885 Q2014.55 154.598 2014.69 154.311 Q2014.83 154.004 2015 153.307 L2020.63 130.907 Q2020.8 130.415 2020.8 130.025 Q2020.8 129.82 2020.74 129.738 Q2020.69 129.656 2020.43 129.595 Q2020.16 129.513 2019.61 129.513 L2017.97 129.513 Q2016.29 129.513 2015.24 129.595 Q2014.22 129.656 2013.23 129.964 Q2012.27 130.271 2011.7 130.702 Q2011.14 131.132 2010.53 132.013 Q2009.91 132.895 2009.46 133.96 Q2009.03 135.026 2008.42 136.768 Q2008.21 137.342 2008.09 137.506 Q2007.99 137.649 2007.7 137.649 Q2007.5 137.649 2007.33 137.526 Q2007.19 137.383 2007.19 137.198 Q2007.39 136.522 2007.43 136.44 L2009.95 129.042 Q2010.16 128.447 2010.34 128.345 Q2010.55 128.222 2011.31 128.222 L2034.59 128.222 Q2034.96 128.222 2035.08 128.222 Q2035.2 128.222 2035.41 128.263 Q2035.61 128.304 2035.68 128.406 Q2035.74 128.509 2035.74 128.673 Z" fill="#000000" fill-rule="evenodd" fill-opacity="1" /><path clip-path="url(#clip870)" d="M 0 0 M2043.11 150.254 Q2043.15 149.741 2043.95 149.741 L2069.67 149.741 Q2070.88 149.741 2070.9 150.213 Q2070.9 150.725 2069.75 150.704 L2044.23 150.704 Q2043.11 150.725 2043.11 150.254 M2043.11 142.056 Q2043.11 141.543 2043.99 141.564 L2069.63 141.564 Q2070.88 141.564 2070.9 142.056 Q2070.9 142.527 2069.83 142.527 L2043.95 142.527 Q2043.11 142.527 2043.11 142.056 Z" fill="#000000" fill-rule="evenodd" fill-opacity="1" /><path clip-path="url(#clip870)" d="M 0 0 M2087.08 143.203 Q2087.08 137.035 2088.64 133.673 Q2090.81 128.673 2095.93 128.673 Q2097.02 128.673 2098.15 128.98 Q2099.29 129.267 2100.73 130.394 Q2102.18 131.521 2103.07 133.366 Q2104.75 136.932 2104.75 143.203 Q2104.75 149.331 2103.19 152.672 Q2100.91 157.55 2095.89 157.55 Q2094.01 157.55 2092.08 156.586 Q2090.17 155.623 2088.97 153.307 Q2087.08 149.844 2087.08 143.203 M2090.56 142.691 Q2090.56 149.024 2091.02 151.545 Q2091.53 154.27 2092.92 155.459 Q2094.34 156.627 2095.89 156.627 Q2097.57 156.627 2098.97 155.377 Q2100.38 154.107 2100.81 151.381 Q2101.28 148.696 2101.26 142.691 Q2101.26 136.85 2100.85 134.514 Q2100.3 131.788 2098.82 130.702 Q2097.37 129.595 2095.89 129.595 Q2095.34 129.595 2094.75 129.759 Q2094.17 129.923 2093.33 130.394 Q2092.49 130.866 2091.83 132.034 Q2091.2 133.202 2090.89 134.965 Q2090.56 137.239 2090.56 142.691 Z" fill="#000000" fill-rule="evenodd" fill-opacity="1" /><path clip-path="url(#clip870)" d="M 0 0 M2108.46 155.951 Q2107.86 155.275 2107.86 154.393 Q2107.86 153.512 2108.44 152.856 Q2109.03 152.18 2110.1 152.18 Q2111.35 152.18 2112.06 153.389 Q2112.78 154.578 2112.78 156.586 Q2112.78 158.759 2111.9 160.767 Q2111.02 162.796 2110.16 163.76 Q2109.3 164.723 2108.95 164.723 Q2108.54 164.723 2108.54 164.272 Q2108.54 164.108 2108.82 163.801 Q2111.84 160.562 2111.86 156.586 Q2111.86 155.951 2111.78 155.951 L2111.67 156.033 Q2110.96 156.627 2110.1 156.627 Q2109.05 156.627 2108.46 155.951 Z" fill="#000000" fill-rule="evenodd" fill-opacity="1" /><path clip-path="url(#clip870)" d="M 0 0 M2146.62 150.622 Q2146.11 153.143 2145.06 154.906 Q2143.77 157.099 2141.8 157.099 Q2140.14 157.099 2139.04 155.951 Q2137.93 154.783 2137.93 152.938 Q2137.93 152.385 2138.16 151.463 Q2138.24 151.053 2138.24 150.54 Q2138.24 147.22 2131.04 146.974 Q2130.45 149.331 2130.04 150.93 Q2129.65 152.508 2129.53 152.979 Q2129.4 153.451 2129.3 153.84 Q2129.22 154.23 2129.08 154.742 Q2128.87 155.582 2128.73 155.992 Q2128.58 156.402 2128.2 156.75 Q2127.83 157.099 2127.23 157.099 Q2126.72 157.099 2126.37 156.791 Q2126.02 156.484 2126.02 155.951 Q2126.02 155.582 2126.19 154.988 L2130.04 139.596 Q2130.14 139.166 2130.35 138.859 Q2130.55 138.551 2130.74 138.408 Q2130.94 138.264 2131.19 138.182 Q2131.43 138.1 2131.54 138.1 Q2131.64 138.08 2131.72 138.08 Q2132.27 138.08 2132.6 138.387 Q2132.95 138.674 2132.95 139.207 Q2132.95 139.289 2132.81 139.863 Q2132.68 140.416 2132.48 141.256 Q2132.27 142.097 2132.19 142.486 L2131.35 145.765 Q2132.52 145.376 2133.56 144.679 Q2134.63 143.982 2136.72 142.179 Q2137.68 141.379 2138.26 140.928 Q2138.85 140.457 2139.84 139.822 Q2140.82 139.166 2141.76 138.859 Q2142.71 138.531 2143.61 138.531 Q2144.3 138.531 2144.71 138.859 Q2145.12 139.166 2145.21 139.453 Q2145.29 139.719 2145.29 140.006 Q2145.29 140.847 2144.63 141.564 Q2143.98 142.281 2143.01 142.281 Q2142.15 142.281 2141.78 141.81 Q2141.41 141.338 2141.41 140.806 Q2141.41 140.396 2141.62 139.883 Q2140.47 140.375 2139.49 141.092 Q2138.5 141.789 2136.8 143.244 Q2134.38 145.314 2132.95 146.093 Q2133.77 146.114 2134.38 146.175 Q2135.02 146.216 2136.09 146.36 Q2137.15 146.503 2137.93 146.81 Q2138.71 147.097 2139.47 147.548 Q2140.25 147.999 2140.66 148.737 Q2141.09 149.475 2141.09 150.418 Q2141.09 150.868 2140.88 151.791 Q2140.53 153.307 2140.53 154.148 Q2140.53 155.213 2140.86 155.685 Q2141.21 156.156 2141.89 156.156 Q2143.18 156.156 2144 154.824 Q2144.84 153.471 2145.53 150.971 Q2145.64 150.499 2145.74 150.356 Q2145.84 150.213 2146.13 150.213 Q2146.62 150.213 2146.62 150.622 Z" fill="#000000" fill-rule="evenodd" fill-opacity="1" /><path clip-path="url(#clip870)" d="M 0 0 M2161.6 150.254 Q2161.64 149.741 2162.44 149.741 L2188.16 149.741 Q2189.37 149.741 2189.39 150.213 Q2189.39 150.725 2188.24 150.704 L2162.72 150.704 Q2161.6 150.725 2161.6 150.254 M2161.6 142.056 Q2161.6 141.543 2162.48 141.564 L2188.12 141.564 Q2189.37 141.564 2189.39 142.056 Q2189.39 142.527 2188.32 142.527 L2162.44 142.527 Q2161.6 142.527 2161.6 142.056 Z" fill="#000000" fill-rule="evenodd" fill-opacity="1" /><path clip-path="url(#clip870)" d="M 0 0 M2205.57 132.669 L2205.57 131.357 Q2210.61 131.357 2213.21 128.673 Q2213.93 128.673 2214.05 128.837 Q2214.18 129.001 2214.18 129.759 L2214.18 153.307 Q2214.18 154.557 2214.79 154.947 Q2215.41 155.336 2218.09 155.336 L2219.42 155.336 L2219.42 156.627 Q2217.95 156.504 2212.62 156.504 Q2207.29 156.504 2205.84 156.627 L2205.84 155.336 L2207.17 155.336 Q2209.81 155.336 2210.45 154.967 Q2211.08 154.578 2211.08 153.307 L2211.08 131.562 Q2208.89 132.669 2205.57 132.669 Z" fill="#000000" fill-rule="evenodd" fill-opacity="1" /><path clip-path="url(#clip870)" d="M 0 0 M2222.98 143.203 Q2222.98 137.035 2224.53 133.673 Q2226.71 128.673 2231.83 128.673 Q2232.92 128.673 2234.04 128.98 Q2235.19 129.267 2236.63 130.394 Q2238.08 131.521 2238.96 133.366 Q2240.64 136.932 2240.64 143.203 Q2240.64 149.331 2239.08 152.672 Q2236.81 157.55 2231.79 157.55 Q2229.9 157.55 2227.98 156.586 Q2226.07 155.623 2224.86 153.307 Q2222.98 149.844 2222.98 143.203 M2226.46 142.691 Q2226.46 149.024 2226.91 151.545 Q2227.42 154.27 2228.82 155.459 Q2230.23 156.627 2231.79 156.627 Q2233.47 156.627 2234.86 155.377 Q2236.28 154.107 2236.71 151.381 Q2237.18 148.696 2237.16 142.691 Q2237.16 136.85 2236.75 134.514 Q2236.2 131.788 2234.72 130.702 Q2233.26 129.595 2231.79 129.595 Q2231.24 129.595 2230.64 129.759 Q2230.07 129.923 2229.23 130.394 Q2228.39 130.866 2227.73 132.034 Q2227.1 133.202 2226.79 134.965 Q2226.46 137.239 2226.46 142.691 Z" fill="#000000" fill-rule="evenodd" fill-opacity="1" /><polyline clip-path="url(#clip870)" style="stroke:#ff0000; stroke-width:3.5; stroke-opacity:1; fill:none" points="
  1843.9,199.493 1983.86,199.493 
  "/>
<path clip-path="url(#clip870)" d="M 0 0 M2035.74 181.593 Q2035.74 181.982 2035.66 182.31 L2034.51 189.606 Q2034.45 190.159 2034.32 190.364 Q2034.22 190.569 2033.89 190.569 Q2033.38 190.569 2033.38 190.036 Q2033.38 189.729 2033.5 189.237 Q2033.85 186.921 2033.85 185.876 Q2033.85 185.179 2033.71 184.667 Q2033.59 184.134 2033.38 183.765 Q2033.2 183.396 2032.77 183.15 Q2032.34 182.904 2031.93 182.761 Q2031.52 182.617 2030.78 182.556 Q2030.04 182.474 2029.4 182.453 Q2028.77 182.433 2027.72 182.433 Q2025.45 182.433 2025.08 182.515 Q2024.69 182.617 2024.49 182.925 Q2024.3 183.212 2024.1 184.073 L2018.52 206.35 L2018.36 207.231 Q2018.36 207.723 2018.67 207.887 Q2018.97 208.051 2019.92 208.154 Q2021.27 208.256 2022.6 208.256 Q2022.64 208.256 2022.72 208.256 Q2023.17 208.256 2023.36 208.277 Q2023.54 208.277 2023.73 208.318 Q2023.91 208.359 2023.95 208.461 Q2024.01 208.543 2024.01 208.707 Q2024.01 209.096 2023.85 209.301 Q2023.69 209.486 2023.52 209.527 Q2023.38 209.547 2023.09 209.547 Q2022.52 209.547 2021.29 209.506 Q2020.06 209.465 2019.44 209.465 L2015.96 209.424 L2012.39 209.465 Q2011.84 209.465 2010.67 209.506 Q2009.5 209.547 2008.95 209.547 Q2008.23 209.547 2008.23 209.035 Q2008.23 208.461 2008.5 208.359 Q2008.79 208.256 2010 208.256 Q2011.7 208.256 2012.62 208.174 Q2013.54 208.092 2014.03 207.805 Q2014.55 207.518 2014.69 207.231 Q2014.83 206.924 2015 206.227 L2020.63 183.827 Q2020.8 183.335 2020.8 182.945 Q2020.8 182.74 2020.74 182.658 Q2020.69 182.576 2020.43 182.515 Q2020.16 182.433 2019.61 182.433 L2017.97 182.433 Q2016.29 182.433 2015.24 182.515 Q2014.22 182.576 2013.23 182.884 Q2012.27 183.191 2011.7 183.622 Q2011.14 184.052 2010.53 184.933 Q2009.91 185.815 2009.46 186.88 Q2009.03 187.946 2008.42 189.688 Q2008.21 190.262 2008.09 190.426 Q2007.99 190.569 2007.7 190.569 Q2007.5 190.569 2007.33 190.446 Q2007.19 190.303 2007.19 190.118 Q2007.39 189.442 2007.43 189.36 L2009.95 181.962 Q2010.16 181.367 2010.34 181.265 Q2010.55 181.142 2011.31 181.142 L2034.59 181.142 Q2034.96 181.142 2035.08 181.142 Q2035.2 181.142 2035.41 181.183 Q2035.61 181.224 2035.68 181.326 Q2035.74 181.429 2035.74 181.593 Z" fill="#000000" fill-rule="evenodd" fill-opacity="1" /><path clip-path="url(#clip870)" d="M 0 0 M2043.11 203.174 Q2043.15 202.661 2043.95 202.661 L2069.67 202.661 Q2070.88 202.661 2070.9 203.133 Q2070.9 203.645 2069.75 203.624 L2044.23 203.624 Q2043.11 203.645 2043.11 203.174 M2043.11 194.976 Q2043.11 194.463 2043.99 194.484 L2069.63 194.484 Q2070.88 194.484 2070.9 194.976 Q2070.9 195.447 2069.83 195.447 L2043.95 195.447 Q2043.11 195.447 2043.11 194.976 Z" fill="#000000" fill-rule="evenodd" fill-opacity="1" /><path clip-path="url(#clip870)" d="M 0 0 M2087.08 196.123 Q2087.08 189.955 2088.64 186.593 Q2090.81 181.593 2095.93 181.593 Q2097.02 181.593 2098.15 181.9 Q2099.29 182.187 2100.73 183.314 Q2102.18 184.441 2103.07 186.286 Q2104.75 189.852 2104.75 196.123 Q2104.75 202.251 2103.19 205.592 Q2100.91 210.47 2095.89 210.47 Q2094.01 210.47 2092.08 209.506 Q2090.17 208.543 2088.97 206.227 Q2087.08 202.764 2087.08 196.123 M2090.56 195.611 Q2090.56 201.944 2091.02 204.465 Q2091.53 207.19 2092.92 208.379 Q2094.34 209.547 2095.89 209.547 Q2097.57 209.547 2098.97 208.297 Q2100.38 207.027 2100.81 204.301 Q2101.28 201.616 2101.26 195.611 Q2101.26 189.77 2100.85 187.434 Q2100.3 184.708 2098.82 183.622 Q2097.37 182.515 2095.89 182.515 Q2095.34 182.515 2094.75 182.679 Q2094.17 182.843 2093.33 183.314 Q2092.49 183.786 2091.83 184.954 Q2091.2 186.122 2090.89 187.885 Q2090.56 190.159 2090.56 195.611 Z" fill="#000000" fill-rule="evenodd" fill-opacity="1" /><path clip-path="url(#clip870)" d="M 0 0 M2108.46 208.871 Q2107.86 208.195 2107.86 207.313 Q2107.86 206.432 2108.44 205.776 Q2109.03 205.1 2110.1 205.1 Q2111.35 205.1 2112.06 206.309 Q2112.78 207.498 2112.78 209.506 Q2112.78 211.679 2111.9 213.687 Q2111.02 215.716 2110.16 216.68 Q2109.3 217.643 2108.95 217.643 Q2108.54 217.643 2108.54 217.192 Q2108.54 217.028 2108.82 216.721 Q2111.84 213.482 2111.86 209.506 Q2111.86 208.871 2111.78 208.871 L2111.67 208.953 Q2110.96 209.547 2110.1 209.547 Q2109.05 209.547 2108.46 208.871 Z" fill="#000000" fill-rule="evenodd" fill-opacity="1" /><path clip-path="url(#clip870)" d="M 0 0 M2146.62 203.542 Q2146.11 206.063 2145.06 207.826 Q2143.77 210.019 2141.8 210.019 Q2140.14 210.019 2139.04 208.871 Q2137.93 207.703 2137.93 205.858 Q2137.93 205.305 2138.16 204.383 Q2138.24 203.973 2138.24 203.46 Q2138.24 200.14 2131.04 199.894 Q2130.45 202.251 2130.04 203.85 Q2129.65 205.428 2129.53 205.899 Q2129.4 206.371 2129.3 206.76 Q2129.22 207.15 2129.08 207.662 Q2128.87 208.502 2128.73 208.912 Q2128.58 209.322 2128.2 209.67 Q2127.83 210.019 2127.23 210.019 Q2126.72 210.019 2126.37 209.711 Q2126.02 209.404 2126.02 208.871 Q2126.02 208.502 2126.19 207.908 L2130.04 192.516 Q2130.14 192.086 2130.35 191.779 Q2130.55 191.471 2130.74 191.328 Q2130.94 191.184 2131.19 191.102 Q2131.43 191.02 2131.54 191.02 Q2131.64 191 2131.72 191 Q2132.27 191 2132.6 191.307 Q2132.95 191.594 2132.95 192.127 Q2132.95 192.209 2132.81 192.783 Q2132.68 193.336 2132.48 194.176 Q2132.27 195.017 2132.19 195.406 L2131.35 198.685 Q2132.52 198.296 2133.56 197.599 Q2134.63 196.902 2136.72 195.099 Q2137.68 194.299 2138.26 193.848 Q2138.85 193.377 2139.84 192.742 Q2140.82 192.086 2141.76 191.779 Q2142.71 191.451 2143.61 191.451 Q2144.3 191.451 2144.71 191.779 Q2145.12 192.086 2145.21 192.373 Q2145.29 192.639 2145.29 192.926 Q2145.29 193.767 2144.63 194.484 Q2143.98 195.201 2143.01 195.201 Q2142.15 195.201 2141.78 194.73 Q2141.41 194.258 2141.41 193.726 Q2141.41 193.316 2141.62 192.803 Q2140.47 193.295 2139.49 194.012 Q2138.5 194.709 2136.8 196.164 Q2134.38 198.234 2132.95 199.013 Q2133.77 199.034 2134.38 199.095 Q2135.02 199.136 2136.09 199.28 Q2137.15 199.423 2137.93 199.73 Q2138.71 200.017 2139.47 200.468 Q2140.25 200.919 2140.66 201.657 Q2141.09 202.395 2141.09 203.338 Q2141.09 203.788 2140.88 204.711 Q2140.53 206.227 2140.53 207.068 Q2140.53 208.133 2140.86 208.605 Q2141.21 209.076 2141.89 209.076 Q2143.18 209.076 2144 207.744 Q2144.84 206.391 2145.53 203.891 Q2145.64 203.419 2145.74 203.276 Q2145.84 203.133 2146.13 203.133 Q2146.62 203.133 2146.62 203.542 Z" fill="#000000" fill-rule="evenodd" fill-opacity="1" /><path clip-path="url(#clip870)" d="M 0 0 M2161.6 203.174 Q2161.64 202.661 2162.44 202.661 L2188.16 202.661 Q2189.37 202.661 2189.39 203.133 Q2189.39 203.645 2188.24 203.624 L2162.72 203.624 Q2161.6 203.645 2161.6 203.174 M2161.6 194.976 Q2161.6 194.463 2162.48 194.484 L2188.12 194.484 Q2189.37 194.484 2189.39 194.976 Q2189.39 195.447 2188.32 195.447 L2162.44 195.447 Q2161.6 195.447 2161.6 194.976 Z" fill="#000000" fill-rule="evenodd" fill-opacity="1" /><path clip-path="url(#clip870)" d="M 0 0 M2205.57 185.589 L2205.57 184.277 Q2210.61 184.277 2213.21 181.593 Q2213.93 181.593 2214.05 181.757 Q2214.18 181.921 2214.18 182.679 L2214.18 206.227 Q2214.18 207.477 2214.79 207.867 Q2215.41 208.256 2218.09 208.256 L2219.42 208.256 L2219.42 209.547 Q2217.95 209.424 2212.62 209.424 Q2207.29 209.424 2205.84 209.547 L2205.84 208.256 L2207.17 208.256 Q2209.81 208.256 2210.45 207.887 Q2211.08 207.498 2211.08 206.227 L2211.08 184.482 Q2208.89 185.589 2205.57 185.589 Z" fill="#000000" fill-rule="evenodd" fill-opacity="1" /><path clip-path="url(#clip870)" d="M 0 0 M2222.98 196.123 Q2222.98 189.955 2224.53 186.593 Q2226.71 181.593 2231.83 181.593 Q2232.92 181.593 2234.04 181.9 Q2235.19 182.187 2236.63 183.314 Q2238.08 184.441 2238.96 186.286 Q2240.64 189.852 2240.64 196.123 Q2240.64 202.251 2239.08 205.592 Q2236.81 210.47 2231.79 210.47 Q2229.9 210.47 2227.98 209.506 Q2226.07 208.543 2224.86 206.227 Q2222.98 202.764 2222.98 196.123 M2226.46 195.611 Q2226.46 201.944 2226.91 204.465 Q2227.42 207.19 2228.82 208.379 Q2230.23 209.547 2231.79 209.547 Q2233.47 209.547 2234.86 208.297 Q2236.28 207.027 2236.71 204.301 Q2237.18 201.616 2237.16 195.611 Q2237.16 189.77 2236.75 187.434 Q2236.2 184.708 2234.72 183.622 Q2233.26 182.515 2231.79 182.515 Q2231.24 182.515 2230.64 182.679 Q2230.07 182.843 2229.23 183.314 Q2228.39 183.786 2227.73 184.954 Q2227.1 186.122 2226.79 187.885 Q2226.46 190.159 2226.46 195.611 Z" fill="#000000" fill-rule="evenodd" fill-opacity="1" /><path clip-path="url(#clip870)" d="M 0 0 M2243.76 196.123 Q2243.76 189.955 2245.31 186.593 Q2247.49 181.593 2252.61 181.593 Q2253.7 181.593 2254.82 181.9 Q2255.97 182.187 2257.41 183.314 Q2258.86 184.441 2259.74 186.286 Q2261.42 189.852 2261.42 196.123 Q2261.42 202.251 2259.87 205.592 Q2257.59 210.47 2252.57 210.47 Q2250.68 210.47 2248.76 209.506 Q2246.85 208.543 2245.64 206.227 Q2243.76 202.764 2243.76 196.123 M2247.24 195.611 Q2247.24 201.944 2247.69 204.465 Q2248.2 207.19 2249.6 208.379 Q2251.01 209.547 2252.57 209.547 Q2254.25 209.547 2255.64 208.297 Q2257.06 207.027 2257.49 204.301 Q2257.96 201.616 2257.94 195.611 Q2257.94 189.77 2257.53 187.434 Q2256.98 184.708 2255.5 183.622 Q2254.05 182.515 2252.57 182.515 Q2252.02 182.515 2251.42 182.679 Q2250.85 182.843 2250.01 183.314 Q2249.17 183.786 2248.51 184.954 Q2247.88 186.122 2247.57 187.885 Q2247.24 190.159 2247.24 195.611 Z" fill="#000000" fill-rule="evenodd" fill-opacity="1" /><path clip-path="url(#clip870)" d="M 0 0 M2264.54 196.123 Q2264.54 189.955 2266.1 186.593 Q2268.27 181.593 2273.39 181.593 Q2274.48 181.593 2275.61 181.9 Q2276.75 182.187 2278.19 183.314 Q2279.64 184.441 2280.52 186.286 Q2282.2 189.852 2282.2 196.123 Q2282.2 202.251 2280.65 205.592 Q2278.37 210.47 2273.35 210.47 Q2271.47 210.47 2269.54 209.506 Q2267.63 208.543 2266.42 206.227 Q2264.54 202.764 2264.54 196.123 M2268.02 195.611 Q2268.02 201.944 2268.47 204.465 Q2268.99 207.19 2270.38 208.379 Q2271.79 209.547 2273.35 209.547 Q2275.03 209.547 2276.43 208.297 Q2277.84 207.027 2278.27 204.301 Q2278.74 201.616 2278.72 195.611 Q2278.72 189.77 2278.31 187.434 Q2277.76 184.708 2276.28 183.622 Q2274.83 182.515 2273.35 182.515 Q2272.8 182.515 2272.2 182.679 Q2271.63 182.843 2270.79 183.314 Q2269.95 183.786 2269.29 184.954 Q2268.66 186.122 2268.35 187.885 Q2268.02 190.159 2268.02 195.611 Z" fill="#000000" fill-rule="evenodd" fill-opacity="1" /><path clip-path="url(#clip870)" d="M 0 0 M2285.32 196.123 Q2285.32 189.955 2286.88 186.593 Q2289.05 181.593 2294.17 181.593 Q2295.26 181.593 2296.39 181.9 Q2297.53 182.187 2298.97 183.314 Q2300.42 184.441 2301.31 186.286 Q2302.99 189.852 2302.99 196.123 Q2302.99 202.251 2301.43 205.592 Q2299.15 210.47 2294.13 210.47 Q2292.25 210.47 2290.32 209.506 Q2288.41 208.543 2287.21 206.227 Q2285.32 202.764 2285.32 196.123 M2288.8 195.611 Q2288.8 201.944 2289.25 204.465 Q2289.77 207.19 2291.16 208.379 Q2292.57 209.547 2294.13 209.547 Q2295.81 209.547 2297.21 208.297 Q2298.62 207.027 2299.05 204.301 Q2299.52 201.616 2299.5 195.611 Q2299.5 189.77 2299.09 187.434 Q2298.54 184.708 2297.06 183.622 Q2295.61 182.515 2294.13 182.515 Q2293.58 182.515 2292.98 182.679 Q2292.41 182.843 2291.57 183.314 Q2290.73 183.786 2290.07 184.954 Q2289.44 186.122 2289.13 187.885 Q2288.8 190.159 2288.8 195.611 Z" fill="#000000" fill-rule="evenodd" fill-opacity="1" /></svg>
