<?xml version="1.0" encoding="utf-8"?>
<svg xmlns="http://www.w3.org/2000/svg" xmlns:xlink="http://www.w3.org/1999/xlink" width="600" height="400" viewBox="0 0 2400 1600">
<defs>
  <clipPath id="clip330">
    <rect x="0" y="0" width="2400" height="1600"/>
  </clipPath>
</defs>
<path clip-path="url(#clip330)" d="
M0 1600 L2400 1600 L2400 0 L0 0  Z
  " fill="#ffffff" fill-rule="evenodd" fill-opacity="1"/>
<defs>
  <clipPath id="clip331">
    <rect x="480" y="0" width="1681" height="1600"/>
  </clipPath>
</defs>
<defs>
  <clipPath id="clip332">
    <rect x="275" y="47" width="2079" height="1393"/>
  </clipPath>
</defs>
<path clip-path="url(#clip330)" d="
M280.548 1439.5 L2352.76 1439.5 L2352.76 47.2441 L280.548 47.2441  Z
  " fill="#ffffff" fill-rule="evenodd" fill-opacity="1"/>
<defs>
  <clipPath id="clip333">
    <rect x="280" y="47" width="2073" height="1393"/>
  </clipPath>
</defs>
<polyline clip-path="url(#clip333)" style="stroke:#000000; stroke-width:2; stroke-opacity:0.1; fill:none" points="
  338.805,1439.5 338.805,47.2441 
  "/>
<polyline clip-path="url(#clip333)" style="stroke:#000000; stroke-width:2; stroke-opacity:0.1; fill:none" points="
  729.865,1439.5 729.865,47.2441 
  "/>
<polyline clip-path="url(#clip333)" style="stroke:#000000; stroke-width:2; stroke-opacity:0.1; fill:none" points="
  1120.93,1439.5 1120.93,47.2441 
  "/>
<polyline clip-path="url(#clip333)" style="stroke:#000000; stroke-width:2; stroke-opacity:0.1; fill:none" points="
  1511.99,1439.5 1511.99,47.2441 
  "/>
<polyline clip-path="url(#clip333)" style="stroke:#000000; stroke-width:2; stroke-opacity:0.1; fill:none" points="
  1903.05,1439.5 1903.05,47.2441 
  "/>
<polyline clip-path="url(#clip333)" style="stroke:#000000; stroke-width:2; stroke-opacity:0.1; fill:none" points="
  2294.11,1439.5 2294.11,47.2441 
  "/>
<polyline clip-path="url(#clip330)" style="stroke:#000000; stroke-width:4; stroke-opacity:1; fill:none" points="
  280.548,1439.5 2352.76,1439.5 
  "/>
<polyline clip-path="url(#clip330)" style="stroke:#000000; stroke-width:4; stroke-opacity:1; fill:none" points="
  338.805,1439.5 338.805,1422.79 
  "/>
<polyline clip-path="url(#clip330)" style="stroke:#000000; stroke-width:4; stroke-opacity:1; fill:none" points="
  729.865,1439.5 729.865,1422.79 
  "/>
<polyline clip-path="url(#clip330)" style="stroke:#000000; stroke-width:4; stroke-opacity:1; fill:none" points="
  1120.93,1439.5 1120.93,1422.79 
  "/>
<polyline clip-path="url(#clip330)" style="stroke:#000000; stroke-width:4; stroke-opacity:1; fill:none" points="
  1511.99,1439.5 1511.99,1422.79 
  "/>
<polyline clip-path="url(#clip330)" style="stroke:#000000; stroke-width:4; stroke-opacity:1; fill:none" points="
  1903.05,1439.5 1903.05,1422.79 
  "/>
<polyline clip-path="url(#clip330)" style="stroke:#000000; stroke-width:4; stroke-opacity:1; fill:none" points="
  2294.11,1439.5 2294.11,1422.79 
  "/>
<path clip-path="url(#clip330)" d="M 0 0 M338.805 1468.69 Q335.193 1468.69 333.365 1472.26 Q331.559 1475.8 331.559 1482.93 Q331.559 1490.04 333.365 1493.6 Q335.193 1497.14 338.805 1497.14 Q342.439 1497.14 344.244 1493.6 Q346.073 1490.04 346.073 1482.93 Q346.073 1475.8 344.244 1472.26 Q342.439 1468.69 338.805 1468.69 M338.805 1464.99 Q344.615 1464.99 347.67 1469.6 Q350.749 1474.18 350.749 1482.93 Q350.749 1491.66 347.67 1496.26 Q344.615 1500.85 338.805 1500.85 Q332.994 1500.85 329.916 1496.26 Q326.86 1491.66 326.86 1482.93 Q326.86 1474.18 329.916 1469.6 Q332.994 1464.99 338.805 1464.99 Z" fill="#000000" fill-rule="evenodd" fill-opacity="1" /><path clip-path="url(#clip330)" d="M 0 0 M689.472 1496.24 L697.111 1496.24 L697.111 1469.87 L688.801 1471.54 L688.801 1467.28 L697.065 1465.61 L701.74 1465.61 L701.74 1496.24 L709.379 1496.24 L709.379 1500.17 L689.472 1500.17 L689.472 1496.24 Z" fill="#000000" fill-rule="evenodd" fill-opacity="1" /><path clip-path="url(#clip330)" d="M 0 0 M728.824 1468.69 Q725.213 1468.69 723.384 1472.26 Q721.578 1475.8 721.578 1482.93 Q721.578 1490.04 723.384 1493.6 Q725.213 1497.14 728.824 1497.14 Q732.458 1497.14 734.263 1493.6 Q736.092 1490.04 736.092 1482.93 Q736.092 1475.8 734.263 1472.26 Q732.458 1468.69 728.824 1468.69 M728.824 1464.99 Q734.634 1464.99 737.689 1469.6 Q740.768 1474.18 740.768 1482.93 Q740.768 1491.66 737.689 1496.26 Q734.634 1500.85 728.824 1500.85 Q723.014 1500.85 719.935 1496.26 Q716.879 1491.66 716.879 1482.93 Q716.879 1474.18 719.935 1469.6 Q723.014 1464.99 728.824 1464.99 Z" fill="#000000" fill-rule="evenodd" fill-opacity="1" /><path clip-path="url(#clip330)" d="M 0 0 M758.986 1468.69 Q755.374 1468.69 753.546 1472.26 Q751.74 1475.8 751.74 1482.93 Q751.74 1490.04 753.546 1493.6 Q755.374 1497.14 758.986 1497.14 Q762.62 1497.14 764.425 1493.6 Q766.254 1490.04 766.254 1482.93 Q766.254 1475.8 764.425 1472.26 Q762.62 1468.69 758.986 1468.69 M758.986 1464.99 Q764.796 1464.99 767.851 1469.6 Q770.93 1474.18 770.93 1482.93 Q770.93 1491.66 767.851 1496.26 Q764.796 1500.85 758.986 1500.85 Q753.175 1500.85 750.097 1496.26 Q747.041 1491.66 747.041 1482.93 Q747.041 1474.18 750.097 1469.6 Q753.175 1464.99 758.986 1464.99 Z" fill="#000000" fill-rule="evenodd" fill-opacity="1" /><path clip-path="url(#clip330)" d="M 0 0 M1084.62 1496.24 L1100.94 1496.24 L1100.94 1500.17 L1078.99 1500.17 L1078.99 1496.24 Q1081.66 1493.48 1086.24 1488.85 Q1090.85 1484.2 1092.03 1482.86 Q1094.27 1480.34 1095.15 1478.6 Q1096.05 1476.84 1096.05 1475.15 Q1096.05 1472.4 1094.11 1470.66 Q1092.19 1468.92 1089.09 1468.92 Q1086.89 1468.92 1084.43 1469.69 Q1082 1470.45 1079.22 1472 L1079.22 1467.28 Q1082.05 1466.15 1084.5 1465.57 Q1086.96 1464.99 1088.99 1464.99 Q1094.36 1464.99 1097.56 1467.67 Q1100.75 1470.36 1100.75 1474.85 Q1100.75 1476.98 1099.94 1478.9 Q1099.16 1480.8 1097.05 1483.39 Q1096.47 1484.06 1093.37 1487.28 Q1090.27 1490.47 1084.62 1496.24 Z" fill="#000000" fill-rule="evenodd" fill-opacity="1" /><path clip-path="url(#clip330)" d="M 0 0 M1120.75 1468.69 Q1117.14 1468.69 1115.31 1472.26 Q1113.51 1475.8 1113.51 1482.93 Q1113.51 1490.04 1115.31 1493.6 Q1117.14 1497.14 1120.75 1497.14 Q1124.39 1497.14 1126.19 1493.6 Q1128.02 1490.04 1128.02 1482.93 Q1128.02 1475.8 1126.19 1472.26 Q1124.39 1468.69 1120.75 1468.69 M1120.75 1464.99 Q1126.56 1464.99 1129.62 1469.6 Q1132.7 1474.18 1132.7 1482.93 Q1132.7 1491.66 1129.62 1496.26 Q1126.56 1500.85 1120.75 1500.85 Q1114.94 1500.85 1111.86 1496.26 Q1108.81 1491.66 1108.81 1482.93 Q1108.81 1474.18 1111.86 1469.6 Q1114.94 1464.99 1120.75 1464.99 Z" fill="#000000" fill-rule="evenodd" fill-opacity="1" /><path clip-path="url(#clip330)" d="M 0 0 M1150.91 1468.69 Q1147.3 1468.69 1145.47 1472.26 Q1143.67 1475.8 1143.67 1482.93 Q1143.67 1490.04 1145.47 1493.6 Q1147.3 1497.14 1150.91 1497.14 Q1154.55 1497.14 1156.35 1493.6 Q1158.18 1490.04 1158.18 1482.93 Q1158.18 1475.8 1156.35 1472.26 Q1154.55 1468.69 1150.91 1468.69 M1150.91 1464.99 Q1156.72 1464.99 1159.78 1469.6 Q1162.86 1474.18 1162.86 1482.93 Q1162.86 1491.66 1159.78 1496.26 Q1156.72 1500.85 1150.91 1500.85 Q1145.1 1500.85 1142.03 1496.26 Q1138.97 1491.66 1138.97 1482.93 Q1138.97 1474.18 1142.03 1469.6 Q1145.1 1464.99 1150.91 1464.99 Z" fill="#000000" fill-rule="evenodd" fill-opacity="1" /><path clip-path="url(#clip330)" d="M 0 0 M1485.75 1481.54 Q1489.11 1482.26 1490.98 1484.53 Q1492.88 1486.79 1492.88 1490.13 Q1492.88 1495.24 1489.36 1498.04 Q1485.84 1500.85 1479.36 1500.85 Q1477.18 1500.85 1474.87 1500.41 Q1472.58 1499.99 1470.12 1499.13 L1470.12 1494.62 Q1472.07 1495.75 1474.38 1496.33 Q1476.7 1496.91 1479.22 1496.91 Q1483.62 1496.91 1485.91 1495.17 Q1488.23 1493.44 1488.23 1490.13 Q1488.23 1487.07 1486.07 1485.36 Q1483.94 1483.62 1480.12 1483.62 L1476.1 1483.62 L1476.1 1479.78 L1480.31 1479.78 Q1483.76 1479.78 1485.59 1478.41 Q1487.42 1477.03 1487.42 1474.43 Q1487.42 1471.77 1485.52 1470.36 Q1483.64 1468.92 1480.12 1468.92 Q1478.2 1468.92 1476 1469.34 Q1473.8 1469.76 1471.17 1470.64 L1471.17 1466.47 Q1473.83 1465.73 1476.14 1465.36 Q1478.48 1464.99 1480.54 1464.99 Q1485.86 1464.99 1488.97 1467.42 Q1492.07 1469.83 1492.07 1473.95 Q1492.07 1476.82 1490.42 1478.81 Q1488.78 1480.78 1485.75 1481.54 Z" fill="#000000" fill-rule="evenodd" fill-opacity="1" /><path clip-path="url(#clip330)" d="M 0 0 M1511.74 1468.69 Q1508.13 1468.69 1506.3 1472.26 Q1504.5 1475.8 1504.5 1482.93 Q1504.5 1490.04 1506.3 1493.6 Q1508.13 1497.14 1511.74 1497.14 Q1515.38 1497.14 1517.18 1493.6 Q1519.01 1490.04 1519.01 1482.93 Q1519.01 1475.8 1517.18 1472.26 Q1515.38 1468.69 1511.74 1468.69 M1511.74 1464.99 Q1517.55 1464.99 1520.61 1469.6 Q1523.69 1474.18 1523.69 1482.93 Q1523.69 1491.66 1520.61 1496.26 Q1517.55 1500.85 1511.74 1500.85 Q1505.93 1500.85 1502.86 1496.26 Q1499.8 1491.66 1499.8 1482.93 Q1499.8 1474.18 1502.86 1469.6 Q1505.93 1464.99 1511.74 1464.99 Z" fill="#000000" fill-rule="evenodd" fill-opacity="1" /><path clip-path="url(#clip330)" d="M 0 0 M1541.91 1468.69 Q1538.29 1468.69 1536.47 1472.26 Q1534.66 1475.8 1534.66 1482.93 Q1534.66 1490.04 1536.47 1493.6 Q1538.29 1497.14 1541.91 1497.14 Q1545.54 1497.14 1547.35 1493.6 Q1549.17 1490.04 1549.17 1482.93 Q1549.17 1475.8 1547.35 1472.26 Q1545.54 1468.69 1541.91 1468.69 M1541.91 1464.99 Q1547.72 1464.99 1550.77 1469.6 Q1553.85 1474.18 1553.85 1482.93 Q1553.85 1491.66 1550.77 1496.26 Q1547.72 1500.85 1541.91 1500.85 Q1536.1 1500.85 1533.02 1496.26 Q1529.96 1491.66 1529.96 1482.93 Q1529.96 1474.18 1533.02 1469.6 Q1536.1 1464.99 1541.91 1464.99 Z" fill="#000000" fill-rule="evenodd" fill-opacity="1" /><path clip-path="url(#clip330)" d="M 0 0 M1876.14 1469.69 L1864.33 1488.14 L1876.14 1488.14 L1876.14 1469.69 M1874.91 1465.61 L1880.79 1465.61 L1880.79 1488.14 L1885.72 1488.14 L1885.72 1492.03 L1880.79 1492.03 L1880.79 1500.17 L1876.14 1500.17 L1876.14 1492.03 L1860.54 1492.03 L1860.54 1487.51 L1874.91 1465.61 Z" fill="#000000" fill-rule="evenodd" fill-opacity="1" /><path clip-path="url(#clip330)" d="M 0 0 M1903.45 1468.69 Q1899.84 1468.69 1898.01 1472.26 Q1896.21 1475.8 1896.21 1482.93 Q1896.21 1490.04 1898.01 1493.6 Q1899.84 1497.14 1903.45 1497.14 Q1907.09 1497.14 1908.89 1493.6 Q1910.72 1490.04 1910.72 1482.93 Q1910.72 1475.8 1908.89 1472.26 Q1907.09 1468.69 1903.45 1468.69 M1903.45 1464.99 Q1909.26 1464.99 1912.32 1469.6 Q1915.4 1474.18 1915.4 1482.93 Q1915.4 1491.66 1912.32 1496.26 Q1909.26 1500.85 1903.45 1500.85 Q1897.64 1500.85 1894.56 1496.26 Q1891.51 1491.66 1891.51 1482.93 Q1891.51 1474.18 1894.56 1469.6 Q1897.64 1464.99 1903.45 1464.99 Z" fill="#000000" fill-rule="evenodd" fill-opacity="1" /><path clip-path="url(#clip330)" d="M 0 0 M1933.61 1468.69 Q1930 1468.69 1928.17 1472.26 Q1926.37 1475.8 1926.37 1482.93 Q1926.37 1490.04 1928.17 1493.6 Q1930 1497.14 1933.61 1497.14 Q1937.25 1497.14 1939.05 1493.6 Q1940.88 1490.04 1940.88 1482.93 Q1940.88 1475.8 1939.05 1472.26 Q1937.25 1468.69 1933.61 1468.69 M1933.61 1464.99 Q1939.42 1464.99 1942.48 1469.6 Q1945.56 1474.18 1945.56 1482.93 Q1945.56 1491.66 1942.48 1496.26 Q1939.42 1500.85 1933.61 1500.85 Q1927.8 1500.85 1924.73 1496.26 Q1921.67 1491.66 1921.67 1482.93 Q1921.67 1474.18 1924.73 1469.6 Q1927.8 1464.99 1933.61 1464.99 Z" fill="#000000" fill-rule="evenodd" fill-opacity="1" /><path clip-path="url(#clip330)" d="M 0 0 M2253.73 1465.61 L2272.08 1465.61 L2272.08 1469.55 L2258.01 1469.55 L2258.01 1478.02 Q2259.03 1477.67 2260.05 1477.51 Q2261.06 1477.33 2262.08 1477.33 Q2267.87 1477.33 2271.25 1480.5 Q2274.63 1483.67 2274.63 1489.09 Q2274.63 1494.66 2271.16 1497.77 Q2267.69 1500.85 2261.37 1500.85 Q2259.19 1500.85 2256.92 1500.47 Q2254.68 1500.1 2252.27 1499.36 L2252.27 1494.66 Q2254.35 1495.8 2256.57 1496.35 Q2258.8 1496.91 2261.27 1496.91 Q2265.28 1496.91 2267.62 1494.8 Q2269.95 1492.7 2269.95 1489.09 Q2269.95 1485.47 2267.62 1483.37 Q2265.28 1481.26 2261.27 1481.26 Q2259.4 1481.26 2257.52 1481.68 Q2255.67 1482.1 2253.73 1482.97 L2253.73 1465.61 Z" fill="#000000" fill-rule="evenodd" fill-opacity="1" /><path clip-path="url(#clip330)" d="M 0 0 M2293.84 1468.69 Q2290.23 1468.69 2288.4 1472.26 Q2286.6 1475.8 2286.6 1482.93 Q2286.6 1490.04 2288.4 1493.6 Q2290.23 1497.14 2293.84 1497.14 Q2297.48 1497.14 2299.28 1493.6 Q2301.11 1490.04 2301.11 1482.93 Q2301.11 1475.8 2299.28 1472.26 Q2297.48 1468.69 2293.84 1468.69 M2293.84 1464.99 Q2299.65 1464.99 2302.71 1469.6 Q2305.79 1474.18 2305.79 1482.93 Q2305.79 1491.66 2302.71 1496.26 Q2299.65 1500.85 2293.84 1500.85 Q2288.03 1500.85 2284.95 1496.26 Q2281.9 1491.66 2281.9 1482.93 Q2281.9 1474.18 2284.95 1469.6 Q2288.03 1464.99 2293.84 1464.99 Z" fill="#000000" fill-rule="evenodd" fill-opacity="1" /><path clip-path="url(#clip330)" d="M 0 0 M2324 1468.69 Q2320.39 1468.69 2318.56 1472.26 Q2316.76 1475.8 2316.76 1482.93 Q2316.76 1490.04 2318.56 1493.6 Q2320.39 1497.14 2324 1497.14 Q2327.64 1497.14 2329.44 1493.6 Q2331.27 1490.04 2331.27 1482.93 Q2331.27 1475.8 2329.44 1472.26 Q2327.64 1468.69 2324 1468.69 M2324 1464.99 Q2329.81 1464.99 2332.87 1469.6 Q2335.95 1474.18 2335.95 1482.93 Q2335.95 1491.66 2332.87 1496.26 Q2329.81 1500.85 2324 1500.85 Q2318.19 1500.85 2315.12 1496.26 Q2312.06 1491.66 2312.06 1482.93 Q2312.06 1474.18 2315.12 1469.6 Q2318.19 1464.99 2324 1464.99 Z" fill="#000000" fill-rule="evenodd" fill-opacity="1" /><path clip-path="url(#clip330)" d="M 0 0 M1328.59 1535.75 Q1328.59 1541.16 1326.85 1547.24 Q1325.14 1553.3 1322.44 1558.19 Q1319.73 1563.06 1316.19 1566.28 Q1312.65 1569.47 1309.26 1569.47 Q1307.11 1569.47 1305.5 1568.27 Q1303.92 1567.05 1303.05 1565.02 Q1302.18 1562.96 1301.76 1560.71 Q1301.34 1558.42 1301.34 1555.94 Q1301.34 1552.24 1302.15 1548.21 Q1302.95 1544.15 1304.3 1540.48 Q1305.66 1536.78 1307.56 1533.43 Q1309.46 1530.05 1311.55 1527.6 Q1313.68 1525.12 1316.06 1523.67 Q1318.44 1522.22 1320.66 1522.22 Q1322.27 1522.22 1323.56 1522.93 Q1324.88 1523.6 1325.72 1524.8 Q1326.56 1525.96 1327.14 1527.34 Q1327.75 1528.73 1328.04 1530.34 Q1328.33 1531.91 1328.46 1533.23 Q1328.59 1534.52 1328.59 1535.75 M1324.24 1531.66 Q1324.24 1530.01 1324.11 1528.79 Q1323.98 1527.53 1323.63 1526.28 Q1323.27 1525.02 1322.5 1524.35 Q1321.76 1523.67 1320.6 1523.67 Q1317.22 1523.67 1313.42 1530.59 Q1312.19 1532.75 1311.1 1535.68 Q1310 1538.61 1309.62 1540 Q1309.23 1541.38 1308.33 1544.8 L1322.11 1544.8 Q1324.24 1536 1324.24 1531.66 M1321.53 1546.89 L1307.81 1546.89 Q1305.69 1554.94 1305.69 1559.96 Q1305.69 1564.34 1306.59 1566.18 Q1307.52 1567.98 1309.26 1567.98 Q1311.26 1567.98 1313.13 1565.99 Q1315 1563.96 1316.9 1560.29 Q1319.41 1555.52 1321.53 1546.89 Z" fill="#000000" fill-rule="evenodd" fill-opacity="1" /><polyline clip-path="url(#clip333)" style="stroke:#000000; stroke-width:2; stroke-opacity:0.1; fill:none" points="
  280.548,1264.54 2352.76,1264.54 
  "/>
<polyline clip-path="url(#clip333)" style="stroke:#000000; stroke-width:2; stroke-opacity:0.1; fill:none" points="
  280.548,978.854 2352.76,978.854 
  "/>
<polyline clip-path="url(#clip333)" style="stroke:#000000; stroke-width:2; stroke-opacity:0.1; fill:none" points="
  280.548,693.171 2352.76,693.171 
  "/>
<polyline clip-path="url(#clip333)" style="stroke:#000000; stroke-width:2; stroke-opacity:0.1; fill:none" points="
  280.548,407.488 2352.76,407.488 
  "/>
<polyline clip-path="url(#clip333)" style="stroke:#000000; stroke-width:2; stroke-opacity:0.1; fill:none" points="
  280.548,121.806 2352.76,121.806 
  "/>
<polyline clip-path="url(#clip330)" style="stroke:#000000; stroke-width:4; stroke-opacity:1; fill:none" points="
  280.548,1439.5 280.548,47.2441 
  "/>
<polyline clip-path="url(#clip330)" style="stroke:#000000; stroke-width:4; stroke-opacity:1; fill:none" points="
  280.548,1264.54 305.415,1264.54 
  "/>
<polyline clip-path="url(#clip330)" style="stroke:#000000; stroke-width:4; stroke-opacity:1; fill:none" points="
  280.548,978.854 305.415,978.854 
  "/>
<polyline clip-path="url(#clip330)" style="stroke:#000000; stroke-width:4; stroke-opacity:1; fill:none" points="
  280.548,693.171 305.415,693.171 
  "/>
<polyline clip-path="url(#clip330)" style="stroke:#000000; stroke-width:4; stroke-opacity:1; fill:none" points="
  280.548,407.488 305.415,407.488 
  "/>
<polyline clip-path="url(#clip330)" style="stroke:#000000; stroke-width:4; stroke-opacity:1; fill:none" points="
  280.548,121.806 305.415,121.806 
  "/>
<path clip-path="url(#clip330)" d="M 0 0 M187.373 1250.33 Q183.761 1250.33 181.933 1253.9 Q180.127 1257.44 180.127 1264.57 Q180.127 1271.68 181.933 1275.24 Q183.761 1278.78 187.373 1278.78 Q191.007 1278.78 192.812 1275.24 Q194.641 1271.68 194.641 1264.57 Q194.641 1257.44 192.812 1253.9 Q191.007 1250.33 187.373 1250.33 M187.373 1246.63 Q193.183 1246.63 196.238 1251.24 Q199.317 1255.82 199.317 1264.57 Q199.317 1273.3 196.238 1277.9 Q193.183 1282.49 187.373 1282.49 Q181.562 1282.49 178.484 1277.9 Q175.428 1273.3 175.428 1264.57 Q175.428 1255.82 178.484 1251.24 Q181.562 1246.63 187.373 1246.63 Z" fill="#000000" fill-rule="evenodd" fill-opacity="1" /><path clip-path="url(#clip330)" d="M 0 0 M207.534 1275.94 L212.419 1275.94 L212.419 1281.82 L207.534 1281.82 L207.534 1275.94 Z" fill="#000000" fill-rule="evenodd" fill-opacity="1" /><path clip-path="url(#clip330)" d="M 0 0 M232.604 1250.33 Q228.993 1250.33 227.164 1253.9 Q225.358 1257.44 225.358 1264.57 Q225.358 1271.68 227.164 1275.24 Q228.993 1278.78 232.604 1278.78 Q236.238 1278.78 238.044 1275.24 Q239.872 1271.68 239.872 1264.57 Q239.872 1257.44 238.044 1253.9 Q236.238 1250.33 232.604 1250.33 M232.604 1246.63 Q238.414 1246.63 241.47 1251.24 Q244.548 1255.82 244.548 1264.57 Q244.548 1273.3 241.47 1277.9 Q238.414 1282.49 232.604 1282.49 Q226.794 1282.49 223.715 1277.9 Q220.659 1273.3 220.659 1264.57 Q220.659 1255.82 223.715 1251.24 Q226.794 1246.63 232.604 1246.63 Z" fill="#000000" fill-rule="evenodd" fill-opacity="1" /><path clip-path="url(#clip330)" d="M 0 0 M182.396 992.198 L198.715 992.198 L198.715 996.134 L176.771 996.134 L176.771 992.198 Q179.433 989.444 184.016 984.814 Q188.623 980.161 189.803 978.819 Q192.048 976.296 192.928 974.56 Q193.831 972.8 193.831 971.111 Q193.831 968.356 191.886 966.62 Q189.965 964.884 186.863 964.884 Q184.664 964.884 182.211 965.648 Q179.78 966.412 177.002 967.962 L177.002 963.24 Q179.826 962.106 182.28 961.527 Q184.734 960.949 186.771 960.949 Q192.141 960.949 195.335 963.634 Q198.53 966.319 198.53 970.81 Q198.53 972.939 197.72 974.861 Q196.933 976.759 194.826 979.351 Q194.248 980.023 191.146 983.24 Q188.044 986.435 182.396 992.198 Z" fill="#000000" fill-rule="evenodd" fill-opacity="1" /><path clip-path="url(#clip330)" d="M 0 0 M208.53 990.254 L213.414 990.254 L213.414 996.134 L208.53 996.134 L208.53 990.254 Z" fill="#000000" fill-rule="evenodd" fill-opacity="1" /><path clip-path="url(#clip330)" d="M 0 0 M223.646 961.574 L242.002 961.574 L242.002 965.509 L227.928 965.509 L227.928 973.981 Q228.946 973.634 229.965 973.472 Q230.983 973.286 232.002 973.286 Q237.789 973.286 241.169 976.458 Q244.548 979.629 244.548 985.046 Q244.548 990.624 241.076 993.726 Q237.604 996.805 231.284 996.805 Q229.108 996.805 226.84 996.434 Q224.595 996.064 222.187 995.323 L222.187 990.624 Q224.271 991.759 226.493 992.314 Q228.715 992.87 231.192 992.87 Q235.196 992.87 237.534 990.763 Q239.872 988.657 239.872 985.046 Q239.872 981.435 237.534 979.328 Q235.196 977.222 231.192 977.222 Q229.317 977.222 227.442 977.638 Q225.59 978.055 223.646 978.935 L223.646 961.574 Z" fill="#000000" fill-rule="evenodd" fill-opacity="1" /><path clip-path="url(#clip330)" d="M 0 0 M177.419 675.891 L195.775 675.891 L195.775 679.826 L181.701 679.826 L181.701 688.298 Q182.72 687.951 183.738 687.789 Q184.757 687.604 185.775 687.604 Q191.562 687.604 194.942 690.775 Q198.322 693.946 198.322 699.363 Q198.322 704.942 194.849 708.044 Q191.377 711.122 185.058 711.122 Q182.882 711.122 180.613 710.752 Q178.368 710.381 175.961 709.641 L175.961 704.942 Q178.044 706.076 180.266 706.631 Q182.488 707.187 184.965 707.187 Q188.97 707.187 191.308 705.081 Q193.646 702.974 193.646 699.363 Q193.646 695.752 191.308 693.645 Q188.97 691.539 184.965 691.539 Q183.09 691.539 181.215 691.956 Q179.363 692.372 177.419 693.252 L177.419 675.891 Z" fill="#000000" fill-rule="evenodd" fill-opacity="1" /><path clip-path="url(#clip330)" d="M 0 0 M207.534 704.571 L212.419 704.571 L212.419 710.451 L207.534 710.451 L207.534 704.571 Z" fill="#000000" fill-rule="evenodd" fill-opacity="1" /><path clip-path="url(#clip330)" d="M 0 0 M232.604 678.97 Q228.993 678.97 227.164 682.534 Q225.358 686.076 225.358 693.206 Q225.358 700.312 227.164 703.877 Q228.993 707.419 232.604 707.419 Q236.238 707.419 238.044 703.877 Q239.872 700.312 239.872 693.206 Q239.872 686.076 238.044 682.534 Q236.238 678.97 232.604 678.97 M232.604 675.266 Q238.414 675.266 241.47 679.872 Q244.548 684.456 244.548 693.206 Q244.548 701.932 241.47 706.539 Q238.414 711.122 232.604 711.122 Q226.794 711.122 223.715 706.539 Q220.659 701.932 220.659 693.206 Q220.659 684.456 223.715 679.872 Q226.794 675.266 232.604 675.266 Z" fill="#000000" fill-rule="evenodd" fill-opacity="1" /><path clip-path="url(#clip330)" d="M 0 0 M177.187 390.208 L199.41 390.208 L199.41 392.199 L186.863 424.768 L181.979 424.768 L193.785 394.143 L177.187 394.143 L177.187 390.208 Z" fill="#000000" fill-rule="evenodd" fill-opacity="1" /><path clip-path="url(#clip330)" d="M 0 0 M208.53 418.889 L213.414 418.889 L213.414 424.768 L208.53 424.768 L208.53 418.889 Z" fill="#000000" fill-rule="evenodd" fill-opacity="1" /><path clip-path="url(#clip330)" d="M 0 0 M223.646 390.208 L242.002 390.208 L242.002 394.143 L227.928 394.143 L227.928 402.616 Q228.946 402.268 229.965 402.106 Q230.983 401.921 232.002 401.921 Q237.789 401.921 241.169 405.092 Q244.548 408.264 244.548 413.68 Q244.548 419.259 241.076 422.361 Q237.604 425.44 231.284 425.44 Q229.108 425.44 226.84 425.069 Q224.595 424.699 222.187 423.958 L222.187 419.259 Q224.271 420.393 226.493 420.949 Q228.715 421.504 231.192 421.504 Q235.196 421.504 237.534 419.398 Q239.872 417.291 239.872 413.68 Q239.872 410.069 237.534 407.963 Q235.196 405.856 231.192 405.856 Q229.317 405.856 227.442 406.273 Q225.59 406.69 223.646 407.569 L223.646 390.208 Z" fill="#000000" fill-rule="evenodd" fill-opacity="1" /><path clip-path="url(#clip330)" d="M 0 0 M148.021 135.15 L155.66 135.15 L155.66 108.785 L147.35 110.451 L147.35 106.192 L155.613 104.526 L160.289 104.526 L160.289 135.15 L167.928 135.15 L167.928 139.086 L148.021 139.086 L148.021 135.15 Z" fill="#000000" fill-rule="evenodd" fill-opacity="1" /><path clip-path="url(#clip330)" d="M 0 0 M187.373 107.604 Q183.761 107.604 181.933 111.169 Q180.127 114.711 180.127 121.84 Q180.127 128.947 181.933 132.512 Q183.761 136.053 187.373 136.053 Q191.007 136.053 192.812 132.512 Q194.641 128.947 194.641 121.84 Q194.641 114.711 192.812 111.169 Q191.007 107.604 187.373 107.604 M187.373 103.901 Q193.183 103.901 196.238 108.507 Q199.317 113.09 199.317 121.84 Q199.317 130.567 196.238 135.174 Q193.183 139.757 187.373 139.757 Q181.562 139.757 178.484 135.174 Q175.428 130.567 175.428 121.84 Q175.428 113.09 178.484 108.507 Q181.562 103.901 187.373 103.901 Z" fill="#000000" fill-rule="evenodd" fill-opacity="1" /><path clip-path="url(#clip330)" d="M 0 0 M207.534 133.206 L212.419 133.206 L212.419 139.086 L207.534 139.086 L207.534 133.206 Z" fill="#000000" fill-rule="evenodd" fill-opacity="1" /><path clip-path="url(#clip330)" d="M 0 0 M232.604 107.604 Q228.993 107.604 227.164 111.169 Q225.358 114.711 225.358 121.84 Q225.358 128.947 227.164 132.512 Q228.993 136.053 232.604 136.053 Q236.238 136.053 238.044 132.512 Q239.872 128.947 239.872 121.84 Q239.872 114.711 238.044 111.169 Q236.238 107.604 232.604 107.604 M232.604 103.901 Q238.414 103.901 241.47 108.507 Q244.548 113.09 244.548 121.84 Q244.548 130.567 241.47 135.174 Q238.414 139.757 232.604 139.757 Q226.794 139.757 223.715 135.174 Q220.659 130.567 220.659 121.84 Q220.659 113.09 223.715 108.507 Q226.794 103.901 232.604 103.901 Z" fill="#000000" fill-rule="evenodd" fill-opacity="1" /><path clip-path="url(#clip330)" d="M 0 0 M60.9719 807.63 L77.3969 813.298 L77.3969 867.983 Q77.3969 868.724 77.3647 869.014 Q77.3325 869.304 77.1714 869.529 Q77.0104 869.755 76.6561 869.755 Q76.3663 869.755 75.6255 869.175 L46.6725 845.761 L13.5648 869.819 Q12.0512 869.819 11.7613 869.561 Q11.4393 869.304 11.4393 867.983 L11.4393 813.298 L26.8659 807.63 L26.8659 809.272 Q24.8691 810.013 23.1944 811.204 Q21.4875 812.364 20.2637 813.717 Q19.0398 815.037 18.0737 816.776 Q17.0753 818.483 16.4634 820.093 Q15.8193 821.671 15.3684 823.636 Q14.8853 825.6 14.6598 827.179 Q14.4022 828.724 14.2734 830.657 Q14.1446 832.589 14.1123 833.813 Q14.0801 835.037 14.0801 836.583 L14.0801 862.702 L43.4841 841.285 Q44.2248 840.802 44.4181 840.802 Q44.7079 840.802 45.4809 841.414 L73.7576 864.28 L73.7576 836.261 Q73.7576 827.243 71.8575 820.963 Q70.4082 816.712 67.5419 813.62 Q64.6756 810.496 60.9719 809.272 L60.9719 807.63 Z" fill="#000000" fill-rule="evenodd" fill-opacity="1" /><path clip-path="url(#clip330)" d="M 0 0 M103.539 878.807 Q104.17 878.807 104.328 879.1 Q104.463 879.393 104.463 880.205 L104.463 884.533 L118.08 887.96 Q119.275 888.231 120.289 888.231 Q121.417 888.231 121.913 887.892 Q122.408 887.532 122.408 886.788 Q122.408 885.322 121.078 883.744 Q119.748 882.144 116.502 880.791 Q116.074 880.611 115.983 880.521 Q115.871 880.408 115.871 880.115 Q115.871 879.551 116.322 879.551 Q116.479 879.551 117.201 879.867 Q117.922 880.16 118.982 880.814 Q120.041 881.445 121.033 882.279 Q122.025 883.091 122.747 884.331 Q123.446 885.57 123.446 886.901 Q123.446 888.772 122.251 889.967 Q121.056 891.139 119.185 891.139 Q118.576 891.139 116.637 890.665 Q114.676 890.192 104.463 887.622 L104.463 891.702 Q104.463 892.266 104.441 892.491 Q104.418 892.694 104.306 892.852 Q104.17 892.987 103.9 892.987 Q103.471 892.987 103.291 892.807 Q103.088 892.627 103.066 892.401 Q103.021 892.153 103.021 891.59 L103.021 887.261 L95.6937 885.458 Q94.9723 885.277 94.5665 884.826 Q94.1382 884.353 94.0931 884.083 Q94.0255 883.812 94.0255 883.609 Q94.0255 883 94.3636 882.64 Q94.6792 882.279 95.2654 882.279 Q95.581 882.279 103.021 884.173 L103.021 880.115 Q103.021 879.596 103.043 879.393 Q103.066 879.168 103.178 878.988 Q103.291 878.807 103.539 878.807 Z" fill="#000000" fill-rule="evenodd" fill-opacity="1" /><path clip-path="url(#clip330)" d="M 0 0 M115.916 863.675 Q115.352 863.629 115.352 862.75 L115.352 834.457 Q115.352 833.127 115.871 833.105 Q116.434 833.105 116.412 834.367 L116.412 862.435 Q116.434 863.675 115.916 863.675 M106.898 863.675 Q106.335 863.675 106.357 862.705 L106.357 834.502 Q106.357 833.127 106.898 833.105 Q107.417 833.105 107.417 834.277 L107.417 862.75 Q107.417 863.675 106.898 863.675 Z" fill="#000000" fill-rule="evenodd" fill-opacity="1" /><path clip-path="url(#clip330)" d="M 0 0 M96.5729 815.293 L95.1301 815.293 Q95.1301 809.747 92.1768 806.884 Q92.1768 806.095 92.3572 805.959 Q92.5375 805.824 93.3717 805.824 L119.275 805.824 Q120.65 805.824 121.078 805.148 Q121.507 804.472 121.507 801.518 L121.507 800.053 L122.927 800.053 Q122.792 801.676 122.792 807.538 Q122.792 813.399 122.927 815 L121.507 815 L121.507 813.534 Q121.507 810.626 121.101 809.927 Q120.673 809.228 119.275 809.228 L95.3556 809.228 Q96.5729 811.641 96.5729 815.293 Z" fill="#000000" fill-rule="evenodd" fill-opacity="1" /><path clip-path="url(#clip330)" d="M 0 0 M16.9787 740.525 Q17.5906 740.525 18.1059 740.654 L29.5712 742.457 Q30.4407 742.554 30.7628 742.747 Q31.0848 742.908 31.0848 743.424 Q31.0848 744.229 30.2475 744.229 Q29.7644 744.229 28.9915 744.036 Q25.3522 743.488 23.7097 743.488 Q22.6147 743.488 21.8095 743.713 Q20.9722 743.907 20.3925 744.229 Q19.8128 744.519 19.4263 745.195 Q19.0398 745.871 18.8144 746.515 Q18.589 747.159 18.4923 748.319 Q18.3635 749.478 18.3313 750.477 Q18.2991 751.475 18.2991 753.118 Q18.2991 756.692 18.4279 757.272 Q18.589 757.884 19.0721 758.206 Q19.5229 758.496 20.8756 758.818 L55.8834 767.578 L57.2682 767.836 Q58.0411 767.836 58.2988 767.353 Q58.5564 766.869 58.7175 765.388 Q58.8785 763.262 58.8785 761.169 Q58.8785 761.105 58.8785 760.976 Q58.8785 760.267 58.9107 759.977 Q58.9107 759.688 58.9751 759.398 Q59.0395 759.108 59.2006 759.043 Q59.3294 758.947 59.587 758.947 Q60.1989 758.947 60.521 759.204 Q60.8108 759.462 60.8753 759.72 Q60.9075 759.945 60.9075 760.396 Q60.9075 761.298 60.8431 763.23 Q60.7786 765.163 60.7786 766.129 L60.7142 771.604 L60.7786 777.208 Q60.7786 778.077 60.8431 779.913 Q60.9075 781.749 60.9075 782.618 Q60.9075 783.745 60.1023 783.745 Q59.2006 783.745 59.0395 783.327 Q58.8785 782.876 58.8785 780.976 Q58.8785 778.303 58.7497 776.853 Q58.6208 775.404 58.17 774.631 Q57.7191 773.826 57.2682 773.601 Q56.7851 773.375 55.6901 773.117 L20.4891 764.261 Q19.7162 764.003 19.1043 764.003 Q18.7822 764.003 18.6534 764.1 Q18.5246 764.164 18.4279 764.583 Q18.2991 765.002 18.2991 765.871 L18.2991 768.448 Q18.2991 771.088 18.4279 772.731 Q18.5246 774.341 19.0076 775.887 Q19.4907 777.401 20.1671 778.303 Q20.8434 779.172 22.2282 780.138 Q23.6131 781.104 25.2878 781.813 Q26.9625 782.489 29.7 783.455 Q30.6017 783.778 30.8594 783.971 Q31.0848 784.132 31.0848 784.583 Q31.0848 784.905 30.8916 785.162 Q30.6662 785.388 30.3763 785.388 Q29.3135 785.066 29.1847 785.001 L17.5584 781.04 Q16.6244 780.718 16.4634 780.428 Q16.2701 780.106 16.2701 778.914 L16.2701 742.329 Q16.2701 741.749 16.2701 741.556 Q16.2701 741.362 16.3346 741.04 Q16.399 740.718 16.56 740.622 Q16.721 740.525 16.9787 740.525 Z" fill="#000000" fill-rule="evenodd" fill-opacity="1" /><path clip-path="url(#clip330)" d="M 0 0 M8.06077 715.549 L8.98508 716.113 Q7.47462 719.607 5.0624 723.958 Q7.47462 728.309 8.98508 731.804 L8.06077 732.345 Q4.74679 728.535 2.1993 723.958 Q4.76933 719.337 8.06077 715.549 Z" fill="#000000" fill-rule="evenodd" fill-opacity="1" /><path clip-path="url(#clip330)" d="M 0 0 M16.6566 699.283 Q17.0753 699.283 17.3329 699.379 Q17.5906 699.444 17.7194 699.701 Q17.816 699.927 17.8482 700.088 Q17.8804 700.217 17.9126 700.603 Q18.0415 702.181 18.4601 703.502 Q18.8466 704.822 19.6196 705.949 Q20.3925 707.044 20.9078 707.656 Q21.4231 708.236 22.4537 709.267 L23.3876 710.168 L42.1637 726.529 Q42.8078 727.109 44.2248 727.463 L53.5323 729.782 Q57.397 730.683 57.6869 730.683 Q58.2666 730.683 58.4598 730.361 Q58.6208 730.007 58.7175 728.912 L58.8785 726.4 Q58.8785 724.919 59.1361 724.693 Q59.2972 724.564 59.587 724.564 Q60.1989 724.564 60.521 724.822 Q60.8108 725.047 60.8753 725.273 Q60.9075 725.466 60.9075 725.82 L60.7142 734.258 L60.9075 742.567 Q60.9075 743.501 60.1667 743.501 Q59.6836 743.501 59.426 743.437 Q59.1361 743.34 59.0395 743.05 Q58.9107 742.761 58.9107 742.535 Q58.8785 742.31 58.8785 741.698 Q58.8463 740.216 58.8463 739.476 Q58.8141 738.703 58.6208 737.962 Q58.4276 737.221 58.2988 736.964 Q58.1378 736.674 57.5903 736.352 Q57.0106 735.997 56.5597 735.901 Q56.1088 735.772 54.9816 735.514 Q53.9832 735.257 48.5404 733.904 Q43.0976 732.551 42.9688 732.551 Q42.6145 732.551 41.8416 732.809 L20.1348 740.925 Q19.1687 741.279 18.7822 741.569 Q18.3957 741.859 18.1703 742.825 Q17.9126 743.791 17.9126 745.724 Q17.9126 746.271 17.8804 746.529 Q17.8482 746.786 17.6872 747.012 Q17.5262 747.237 17.1719 747.237 Q16.56 747.237 16.2701 746.98 Q15.9481 746.722 15.9159 746.529 Q15.8515 746.303 15.8515 745.981 Q15.8515 745.176 15.9481 742.31 Q16.0447 739.443 16.0447 738.606 L15.8515 730.297 Q15.8515 729.299 16.5922 729.299 Q17.494 729.299 17.7194 729.653 Q17.9126 730.007 17.9126 730.877 Q17.9126 734.774 19.4907 734.774 Q19.684 734.774 20.6179 734.387 L40.1991 727.141 L22.5825 711.843 L22.3248 711.618 Q22.0672 711.424 21.874 711.263 Q21.6807 711.102 21.3265 710.845 Q20.9722 710.587 20.6823 710.458 Q20.3925 710.297 20.0382 710.168 Q19.684 710.039 19.4263 710.039 Q18.9432 710.039 18.6212 710.329 Q18.2669 710.619 18.1381 711.07 Q18.0093 711.521 17.9771 711.843 Q17.9126 712.165 17.9126 712.423 Q17.9126 713.421 17.1075 713.421 Q16.5278 713.421 16.2379 713.163 Q15.9159 712.906 15.8837 712.713 Q15.8515 712.487 15.8515 712.165 Q15.8515 711.102 15.9481 708.88 Q16.0447 706.658 16.0447 705.563 Q16.0447 704.661 15.9481 702.825 Q15.8515 700.99 15.8515 700.152 Q15.8515 699.283 16.6566 699.283 Z" fill="#000000" fill-rule="evenodd" fill-opacity="1" /><path clip-path="url(#clip330)" d="M 0 0 M58.6936 688.09 Q59.3248 688.09 59.4826 688.383 Q59.6179 688.676 59.6179 689.487 L59.6179 693.816 L73.2345 697.243 Q74.4294 697.513 75.4439 697.513 Q76.5711 697.513 77.067 697.175 Q77.563 696.814 77.563 696.07 Q77.563 694.605 76.2329 693.027 Q74.9028 691.426 71.6565 690.074 Q71.2281 689.893 71.1379 689.803 Q71.0252 689.69 71.0252 689.397 Q71.0252 688.834 71.4761 688.834 Q71.6339 688.834 72.3553 689.149 Q73.0767 689.442 74.1363 690.096 Q75.1959 690.727 76.1878 691.561 Q77.1798 692.373 77.9012 693.613 Q78.6 694.853 78.6 696.183 Q78.6 698.054 77.4052 699.249 Q76.2104 700.421 74.3392 700.421 Q73.7305 700.421 71.7917 699.948 Q69.8304 699.474 59.6179 696.904 L59.6179 700.985 Q59.6179 701.549 59.5954 701.774 Q59.5728 701.977 59.4601 702.135 Q59.3248 702.27 59.0543 702.27 Q58.626 702.27 58.4456 702.09 Q58.2427 701.909 58.2202 701.684 Q58.1751 701.436 58.1751 700.872 L58.1751 696.544 L50.8483 694.74 Q50.1268 694.56 49.721 694.109 Q49.2927 693.636 49.2476 693.365 Q49.18 693.094 49.18 692.892 Q49.18 692.283 49.5181 691.922 Q49.8338 691.561 50.4199 691.561 Q50.7355 691.561 58.1751 693.455 L58.1751 689.397 Q58.1751 688.879 58.1976 688.676 Q58.2202 688.45 58.3329 688.27 Q58.4456 688.09 58.6936 688.09 Z" fill="#000000" fill-rule="evenodd" fill-opacity="1" /><path clip-path="url(#clip330)" d="M 0 0 M44.4181 678.729 Q33.2748 678.729 24.2894 674.574 Q20.5213 672.803 17.3651 670.323 Q14.209 667.843 12.8241 666.201 Q11.4393 664.558 11.4393 664.107 Q11.4393 663.463 12.0834 663.431 Q12.4054 663.431 13.2106 664.301 Q24.0318 674.929 44.4181 674.896 Q64.8688 674.896 75.2713 664.558 Q76.3985 663.431 76.7527 663.431 Q77.3969 663.431 77.3969 664.107 Q77.3969 664.558 76.0764 666.136 Q74.756 667.714 71.7286 670.162 Q68.7013 672.61 64.9976 674.381 Q56.0122 678.729 44.4181 678.729 Z" fill="#000000" fill-rule="evenodd" fill-opacity="1" /><path clip-path="url(#clip330)" d="M 0 0 M24.7081 653.401 Q19.0398 653.401 15.2396 650.503 Q11.4393 647.604 11.4393 643.707 Q11.4393 641.324 13.5648 638.973 Q18.6534 633.627 18.6212 626.638 Q18.6212 618.716 12.3732 614.11 Q11.4393 613.305 11.4393 612.725 Q11.4393 612.21 11.8579 611.824 Q12.2444 611.405 12.7597 611.405 Q13.1462 611.405 13.9513 611.92 L63.6128 645.286 Q64.6111 646.026 64.6111 646.606 Q64.6111 647.121 64.1925 647.54 Q63.806 647.926 63.2907 647.926 Q62.8398 647.926 61.9703 647.347 L17.8482 617.717 L17.7838 617.782 Q20.1026 621.196 20.0704 626.574 Q20.0704 631.662 17.3007 636.526 Q20.7145 635.141 24.7725 635.141 Q30.3119 635.141 34.1766 637.621 Q38.0091 640.1 38.0091 643.707 Q38.0091 647.604 34.2732 650.503 Q30.5051 653.401 24.7081 653.401 M19.3297 648.86 Q21.6485 649.311 24.7725 649.311 Q27.8643 649.311 30.1831 648.86 Q32.4697 648.41 33.6613 647.765 Q34.8529 647.089 35.5615 646.187 Q36.2378 645.286 36.3988 644.738 Q36.5598 644.191 36.5598 643.643 Q36.5598 640.938 33.2104 638.877 Q29.8288 636.783 24.7081 636.783 Q19.684 636.783 16.3023 638.877 Q12.8885 640.938 12.8885 643.643 Q12.8885 644.223 13.0496 644.802 Q13.2106 645.35 13.9191 646.22 Q14.5954 647.089 15.7871 647.765 Q16.9787 648.41 19.3297 648.86 M51.2779 624.191 Q45.6097 624.191 41.8094 621.292 Q38.0091 618.394 38.0091 614.497 Q38.0091 610.922 41.8738 608.442 Q45.7385 605.93 51.3423 605.93 Q56.8817 605.93 60.7464 608.41 Q64.6111 610.857 64.6111 614.497 Q64.6111 618.394 60.8431 621.292 Q57.075 624.191 51.2779 624.191 M45.8995 619.65 Q48.2506 620.101 51.3423 620.101 Q54.4341 620.101 56.7529 619.65 Q59.0717 619.167 60.2633 618.522 Q61.4228 617.846 62.0991 616.977 Q62.8076 616.075 62.9686 615.527 Q63.1619 614.948 63.1619 614.432 Q63.1619 611.727 59.8125 609.666 Q56.4309 607.572 51.2779 607.572 Q46.2538 607.572 42.8722 609.666 Q39.4584 611.727 39.4584 614.432 Q39.4584 615.012 39.6516 615.592 Q39.8126 616.139 40.5212 617.009 Q41.1975 617.846 42.3891 618.522 Q43.5485 619.167 45.8995 619.65 Z" fill="#000000" fill-rule="evenodd" fill-opacity="1" /><path clip-path="url(#clip330)" d="M 0 0 M76.7527 599.015 Q76.4307 599.015 75.6255 598.177 Q64.8044 587.549 44.4181 587.549 Q23.9673 587.549 13.6293 597.758 Q12.4376 599.015 12.0834 599.015 Q11.4393 599.015 11.4393 598.37 Q11.4393 597.92 12.7597 596.341 Q14.0801 594.731 17.1075 592.316 Q20.1348 589.868 23.8385 588.065 Q32.824 583.717 44.4181 583.717 Q55.5613 583.717 64.5467 587.871 Q68.3148 589.643 71.471 592.122 Q74.6272 594.602 76.012 596.245 Q77.3969 597.887 77.3969 598.37 Q77.3969 599.015 76.7527 599.015 Z" fill="#000000" fill-rule="evenodd" fill-opacity="1" /><polyline clip-path="url(#clip333)" style="stroke:#0000ff; stroke-width:4; stroke-opacity:1; fill:none" points="
  339.196,1400.1 827.924,1179.05 1316.65,931.438 1805.38,719.982 2294.11,86.6476 
  "/>
<polyline clip-path="url(#clip333)" style="stroke:#5500aa; stroke-width:4; stroke-opacity:1; fill:none" points="
  339.196,1224.31 827.924,1097.52 1316.65,1033.57 1805.38,989.272 2294.11,956.469 
  "/>
<polyline clip-path="url(#clip333)" style="stroke:#aa0055; stroke-width:4; stroke-opacity:1; fill:none" points="
  339.196,1155.5 827.924,1074.67 1316.65,1048.53 1805.38,1034.31 2294.11,1025.16 
  "/>
<polyline clip-path="url(#clip333)" style="stroke:#ff0000; stroke-width:4; stroke-opacity:1; fill:none" points="
  339.196,1140.25 827.924,1070.44 1316.65,1049.88 1805.38,1039.13 2294.11,1032.49 
  "/>
<path clip-path="url(#clip330)" d="
M1722.2 1393.09 L2283.68 1393.09 L2283.68 1128.49 L1722.2 1128.49  Z
  " fill="#ffffff" fill-rule="evenodd" fill-opacity="1"/>
<polyline clip-path="url(#clip330)" style="stroke:#000000; stroke-width:4; stroke-opacity:1; fill:none" points="
  1722.2,1393.09 2283.68,1393.09 2283.68,1128.49 1722.2,1128.49 1722.2,1393.09 
  "/>
<polyline clip-path="url(#clip330)" style="stroke:#0000ff; stroke-width:3.5; stroke-opacity:1; fill:none" points="
  1745.22,1181.41 1883.37,1181.41 
  "/>
<path clip-path="url(#clip330)" d="M 0 0 M1934.94 1163.51 Q1934.94 1163.9 1934.86 1164.23 L1933.71 1171.53 Q1933.65 1172.08 1933.53 1172.29 Q1933.42 1172.49 1933.1 1172.49 Q1932.58 1172.49 1932.58 1171.96 Q1932.58 1171.65 1932.71 1171.16 Q1933.06 1168.84 1933.06 1167.8 Q1933.06 1167.1 1932.91 1166.59 Q1932.79 1166.05 1932.58 1165.69 Q1932.4 1165.32 1931.97 1165.07 Q1931.54 1164.82 1931.13 1164.68 Q1930.72 1164.54 1929.98 1164.48 Q1929.24 1164.39 1928.61 1164.37 Q1927.97 1164.35 1926.93 1164.35 Q1924.65 1164.35 1924.28 1164.44 Q1923.89 1164.54 1923.69 1164.85 Q1923.5 1165.13 1923.3 1165.99 L1917.73 1188.27 L1917.56 1189.15 Q1917.56 1189.64 1917.87 1189.81 Q1918.18 1189.97 1919.12 1190.07 Q1920.47 1190.18 1921.8 1190.18 Q1921.84 1190.18 1921.93 1190.18 Q1922.38 1190.18 1922.56 1190.2 Q1922.75 1190.2 1922.93 1190.24 Q1923.12 1190.28 1923.16 1190.38 Q1923.22 1190.46 1923.22 1190.63 Q1923.22 1191.02 1923.05 1191.22 Q1922.89 1191.41 1922.73 1191.45 Q1922.58 1191.47 1922.3 1191.47 Q1921.72 1191.47 1920.49 1191.43 Q1919.26 1191.39 1918.65 1191.39 L1915.16 1191.35 L1911.6 1191.39 Q1911.04 1191.39 1909.88 1191.43 Q1908.71 1191.47 1908.15 1191.47 Q1907.44 1191.47 1907.44 1190.96 Q1907.44 1190.38 1907.7 1190.28 Q1907.99 1190.18 1909.2 1190.18 Q1910.9 1190.18 1911.82 1190.09 Q1912.75 1190.01 1913.24 1189.73 Q1913.75 1189.44 1913.89 1189.15 Q1914.04 1188.84 1914.2 1188.15 L1919.84 1165.75 Q1920 1165.26 1920 1164.87 Q1920 1164.66 1919.94 1164.58 Q1919.9 1164.5 1919.63 1164.44 Q1919.36 1164.35 1918.81 1164.35 L1917.17 1164.35 Q1915.49 1164.35 1914.45 1164.44 Q1913.42 1164.5 1912.44 1164.8 Q1911.47 1165.11 1910.9 1165.54 Q1910.35 1165.97 1909.73 1166.85 Q1909.12 1167.74 1908.67 1168.8 Q1908.24 1169.87 1907.62 1171.61 Q1907.42 1172.18 1907.29 1172.35 Q1907.19 1172.49 1906.9 1172.49 Q1906.7 1172.49 1906.54 1172.37 Q1906.39 1172.22 1906.39 1172.04 Q1906.6 1171.36 1906.64 1171.28 L1909.16 1163.88 Q1909.36 1163.29 1909.55 1163.19 Q1909.75 1163.06 1910.51 1163.06 L1933.79 1163.06 Q1934.16 1163.06 1934.28 1163.06 Q1934.41 1163.06 1934.61 1163.1 Q1934.82 1163.14 1934.88 1163.25 Q1934.94 1163.35 1934.94 1163.51 Z" fill="#000000" fill-rule="evenodd" fill-opacity="1" /><path clip-path="url(#clip330)" d="M 0 0 M1942.31 1185.09 Q1942.35 1184.58 1943.15 1184.58 L1968.87 1184.58 Q1970.08 1184.58 1970.1 1185.05 Q1970.1 1185.57 1968.95 1185.55 L1943.44 1185.55 Q1942.31 1185.57 1942.31 1185.09 M1942.31 1176.9 Q1942.31 1176.38 1943.19 1176.4 L1968.83 1176.4 Q1970.08 1176.4 1970.1 1176.9 Q1970.1 1177.37 1969.03 1177.37 L1943.15 1177.37 Q1942.31 1177.37 1942.31 1176.9 Z" fill="#000000" fill-rule="evenodd" fill-opacity="1" /><path clip-path="url(#clip330)" d="M 0 0 M1986.28 1167.51 L1986.28 1166.2 Q1991.33 1166.2 1993.93 1163.51 Q1994.65 1163.51 1994.77 1163.68 Q1994.89 1163.84 1994.89 1164.6 L1994.89 1188.15 Q1994.89 1189.4 1995.51 1189.79 Q1996.12 1190.18 1998.81 1190.18 L2000.14 1190.18 L2000.14 1191.47 Q1998.66 1191.35 1993.33 1191.35 Q1988.01 1191.35 1986.55 1191.47 L1986.55 1190.18 L1987.88 1190.18 Q1990.53 1190.18 1991.16 1189.81 Q1991.8 1189.42 1991.8 1188.15 L1991.8 1166.4 Q1989.6 1167.51 1986.28 1167.51 Z" fill="#000000" fill-rule="evenodd" fill-opacity="1" /><path clip-path="url(#clip330)" d="M 0 0 M2007.66 1190.79 Q2007.06 1190.12 2007.06 1189.23 Q2007.06 1188.35 2007.64 1187.7 Q2008.23 1187.02 2009.3 1187.02 Q2010.55 1187.02 2011.27 1188.23 Q2011.98 1189.42 2011.98 1191.43 Q2011.98 1193.6 2011.1 1195.61 Q2010.22 1197.64 2009.36 1198.6 Q2008.5 1199.56 2008.15 1199.56 Q2007.74 1199.56 2007.74 1199.11 Q2007.74 1198.95 2008.03 1198.64 Q2011.04 1195.4 2011.06 1191.43 Q2011.06 1190.79 2010.98 1190.79 L2010.88 1190.87 Q2010.16 1191.47 2009.3 1191.47 Q2008.25 1191.47 2007.66 1190.79 Z" fill="#000000" fill-rule="evenodd" fill-opacity="1" /><path clip-path="url(#clip330)" d="M 0 0 M2045.82 1185.46 Q2045.31 1187.98 2044.27 1189.75 Q2042.97 1191.94 2041.01 1191.94 Q2039.35 1191.94 2038.24 1190.79 Q2037.13 1189.62 2037.13 1187.78 Q2037.13 1187.23 2037.36 1186.3 Q2037.44 1185.89 2037.44 1185.38 Q2037.44 1182.06 2030.25 1181.82 Q2029.65 1184.17 2029.24 1185.77 Q2028.85 1187.35 2028.73 1187.82 Q2028.61 1188.29 2028.51 1188.68 Q2028.42 1189.07 2028.28 1189.58 Q2028.08 1190.42 2027.93 1190.83 Q2027.79 1191.24 2027.4 1191.59 Q2027.03 1191.94 2026.44 1191.94 Q2025.92 1191.94 2025.57 1191.63 Q2025.23 1191.32 2025.23 1190.79 Q2025.23 1190.42 2025.39 1189.83 L2029.24 1174.44 Q2029.35 1174.01 2029.55 1173.7 Q2029.76 1173.39 2029.94 1173.25 Q2030.15 1173.1 2030.39 1173.02 Q2030.64 1172.94 2030.74 1172.94 Q2030.84 1172.92 2030.92 1172.92 Q2031.48 1172.92 2031.81 1173.23 Q2032.15 1173.51 2032.15 1174.05 Q2032.15 1174.13 2032.01 1174.7 Q2031.89 1175.26 2031.68 1176.1 Q2031.48 1176.94 2031.4 1177.33 L2030.56 1180.61 Q2031.72 1180.22 2032.77 1179.52 Q2033.83 1178.82 2035.92 1177.02 Q2036.89 1176.22 2037.46 1175.77 Q2038.06 1175.3 2039.04 1174.66 Q2040.02 1174.01 2040.97 1173.7 Q2041.91 1173.37 2042.81 1173.37 Q2043.51 1173.37 2043.92 1173.7 Q2044.33 1174.01 2044.41 1174.29 Q2044.49 1174.56 2044.49 1174.85 Q2044.49 1175.69 2043.84 1176.4 Q2043.18 1177.12 2042.22 1177.12 Q2041.36 1177.12 2040.99 1176.65 Q2040.62 1176.18 2040.62 1175.65 Q2040.62 1175.24 2040.82 1174.72 Q2039.68 1175.22 2038.69 1175.93 Q2037.71 1176.63 2036.01 1178.09 Q2033.59 1180.15 2032.15 1180.93 Q2032.97 1180.95 2033.59 1181.02 Q2034.22 1181.06 2035.29 1181.2 Q2036.36 1181.34 2037.13 1181.65 Q2037.91 1181.94 2038.67 1182.39 Q2039.45 1182.84 2039.86 1183.58 Q2040.29 1184.32 2040.29 1185.26 Q2040.29 1185.71 2040.09 1186.63 Q2039.74 1188.15 2039.74 1188.99 Q2039.74 1190.05 2040.06 1190.53 Q2040.41 1191 2041.09 1191 Q2042.38 1191 2043.2 1189.66 Q2044.04 1188.31 2044.74 1185.81 Q2044.84 1185.34 2044.94 1185.2 Q2045.04 1185.05 2045.33 1185.05 Q2045.82 1185.05 2045.82 1185.46 Z" fill="#000000" fill-rule="evenodd" fill-opacity="1" /><path clip-path="url(#clip330)" d="M 0 0 M2060.8 1185.09 Q2060.84 1184.58 2061.64 1184.58 L2087.36 1184.58 Q2088.57 1184.58 2088.59 1185.05 Q2088.59 1185.57 2087.44 1185.55 L2061.93 1185.55 Q2060.8 1185.57 2060.8 1185.09 M2060.8 1176.9 Q2060.8 1176.38 2061.68 1176.4 L2087.32 1176.4 Q2088.57 1176.4 2088.59 1176.9 Q2088.59 1177.37 2087.52 1177.37 L2061.64 1177.37 Q2060.8 1177.37 2060.8 1176.9 Z" fill="#000000" fill-rule="evenodd" fill-opacity="1" /><path clip-path="url(#clip330)" d="M 0 0 M2104.77 1167.51 L2104.77 1166.2 Q2109.82 1166.2 2112.42 1163.51 Q2113.14 1163.51 2113.26 1163.68 Q2113.38 1163.84 2113.38 1164.6 L2113.38 1188.15 Q2113.38 1189.4 2114 1189.79 Q2114.61 1190.18 2117.3 1190.18 L2118.63 1190.18 L2118.63 1191.47 Q2117.15 1191.35 2111.82 1191.35 Q2106.49 1191.35 2105.04 1191.47 L2105.04 1190.18 L2106.37 1190.18 Q2109.02 1190.18 2109.65 1189.81 Q2110.29 1189.42 2110.29 1188.15 L2110.29 1166.4 Q2108.09 1167.51 2104.77 1167.51 Z" fill="#000000" fill-rule="evenodd" fill-opacity="1" /><path clip-path="url(#clip330)" d="M 0 0 M2121.94 1190.79 Q2121.3 1190.12 2121.3 1189.23 Q2121.3 1188.35 2121.94 1187.72 Q2122.58 1187.06 2123.54 1187.06 Q2124.46 1187.06 2125.08 1187.68 Q2125.71 1188.27 2125.71 1189.25 Q2125.71 1190.22 2125.03 1190.85 Q2124.38 1191.47 2123.54 1191.47 Q2122.58 1191.47 2121.94 1190.79 Z" fill="#000000" fill-rule="evenodd" fill-opacity="1" /><path clip-path="url(#clip330)" d="M 0 0 M2132.85 1178.04 Q2132.85 1171.88 2134.41 1168.51 Q2136.58 1163.51 2141.71 1163.51 Q2142.79 1163.51 2143.92 1163.82 Q2145.07 1164.11 2146.5 1165.23 Q2147.96 1166.36 2148.84 1168.21 Q2150.52 1171.77 2150.52 1178.04 Q2150.52 1184.17 2148.96 1187.51 Q2146.69 1192.39 2141.66 1192.39 Q2139.78 1192.39 2137.85 1191.43 Q2135.95 1190.46 2134.74 1188.15 Q2132.85 1184.68 2132.85 1178.04 M2136.34 1177.53 Q2136.34 1183.86 2136.79 1186.39 Q2137.3 1189.11 2138.69 1190.3 Q2140.11 1191.47 2141.66 1191.47 Q2143.35 1191.47 2144.74 1190.22 Q2146.15 1188.95 2146.58 1186.22 Q2147.05 1183.54 2147.03 1177.53 Q2147.03 1171.69 2146.62 1169.35 Q2146.07 1166.63 2144.6 1165.54 Q2143.14 1164.44 2141.66 1164.44 Q2141.11 1164.44 2140.52 1164.6 Q2139.94 1164.76 2139.1 1165.23 Q2138.26 1165.71 2137.61 1166.87 Q2136.97 1168.04 2136.66 1169.81 Q2136.34 1172.08 2136.34 1177.53 Z" fill="#000000" fill-rule="evenodd" fill-opacity="1" /><polyline clip-path="url(#clip330)" style="stroke:#5500aa; stroke-width:3.5; stroke-opacity:1; fill:none" points="
  1745.22,1234.33 1883.37,1234.33 
  "/>
<path clip-path="url(#clip330)" d="M 0 0 M1934.94 1216.43 Q1934.94 1216.82 1934.86 1217.15 L1933.71 1224.45 Q1933.65 1225 1933.53 1225.21 Q1933.42 1225.41 1933.1 1225.41 Q1932.58 1225.41 1932.58 1224.88 Q1932.58 1224.57 1932.71 1224.08 Q1933.06 1221.76 1933.06 1220.72 Q1933.06 1220.02 1932.91 1219.51 Q1932.79 1218.97 1932.58 1218.61 Q1932.4 1218.24 1931.97 1217.99 Q1931.54 1217.74 1931.13 1217.6 Q1930.72 1217.46 1929.98 1217.4 Q1929.24 1217.31 1928.61 1217.29 Q1927.97 1217.27 1926.93 1217.27 Q1924.65 1217.27 1924.28 1217.36 Q1923.89 1217.46 1923.69 1217.77 Q1923.5 1218.05 1923.3 1218.91 L1917.73 1241.19 L1917.56 1242.07 Q1917.56 1242.56 1917.87 1242.73 Q1918.18 1242.89 1919.12 1242.99 Q1920.47 1243.1 1921.8 1243.1 Q1921.84 1243.1 1921.93 1243.1 Q1922.38 1243.1 1922.56 1243.12 Q1922.75 1243.12 1922.93 1243.16 Q1923.12 1243.2 1923.16 1243.3 Q1923.22 1243.38 1923.22 1243.55 Q1923.22 1243.94 1923.05 1244.14 Q1922.89 1244.33 1922.73 1244.37 Q1922.58 1244.39 1922.3 1244.39 Q1921.72 1244.39 1920.49 1244.35 Q1919.26 1244.31 1918.65 1244.31 L1915.16 1244.27 L1911.6 1244.31 Q1911.04 1244.31 1909.88 1244.35 Q1908.71 1244.39 1908.15 1244.39 Q1907.44 1244.39 1907.44 1243.88 Q1907.44 1243.3 1907.7 1243.2 Q1907.99 1243.1 1909.2 1243.1 Q1910.9 1243.1 1911.82 1243.01 Q1912.75 1242.93 1913.24 1242.65 Q1913.75 1242.36 1913.89 1242.07 Q1914.04 1241.76 1914.2 1241.07 L1919.84 1218.67 Q1920 1218.18 1920 1217.79 Q1920 1217.58 1919.94 1217.5 Q1919.9 1217.42 1919.63 1217.36 Q1919.36 1217.27 1918.81 1217.27 L1917.17 1217.27 Q1915.49 1217.27 1914.45 1217.36 Q1913.42 1217.42 1912.44 1217.72 Q1911.47 1218.03 1910.9 1218.46 Q1910.35 1218.89 1909.73 1219.77 Q1909.12 1220.66 1908.67 1221.72 Q1908.24 1222.79 1907.62 1224.53 Q1907.42 1225.1 1907.29 1225.27 Q1907.19 1225.41 1906.9 1225.41 Q1906.7 1225.41 1906.54 1225.29 Q1906.39 1225.14 1906.39 1224.96 Q1906.6 1224.28 1906.64 1224.2 L1909.16 1216.8 Q1909.36 1216.21 1909.55 1216.11 Q1909.75 1215.98 1910.51 1215.98 L1933.79 1215.98 Q1934.16 1215.98 1934.28 1215.98 Q1934.41 1215.98 1934.61 1216.02 Q1934.82 1216.06 1934.88 1216.17 Q1934.94 1216.27 1934.94 1216.43 Z" fill="#000000" fill-rule="evenodd" fill-opacity="1" /><path clip-path="url(#clip330)" d="M 0 0 M1942.31 1238.01 Q1942.35 1237.5 1943.15 1237.5 L1968.87 1237.5 Q1970.08 1237.5 1970.1 1237.97 Q1970.1 1238.49 1968.95 1238.47 L1943.44 1238.47 Q1942.31 1238.49 1942.31 1238.01 M1942.31 1229.82 Q1942.31 1229.3 1943.19 1229.32 L1968.83 1229.32 Q1970.08 1229.32 1970.1 1229.82 Q1970.1 1230.29 1969.03 1230.29 L1943.15 1230.29 Q1942.31 1230.29 1942.31 1229.82 Z" fill="#000000" fill-rule="evenodd" fill-opacity="1" /><path clip-path="url(#clip330)" d="M 0 0 M1986.28 1220.43 L1986.28 1219.12 Q1991.33 1219.12 1993.93 1216.43 Q1994.65 1216.43 1994.77 1216.6 Q1994.89 1216.76 1994.89 1217.52 L1994.89 1241.07 Q1994.89 1242.32 1995.51 1242.71 Q1996.12 1243.1 1998.81 1243.1 L2000.14 1243.1 L2000.14 1244.39 Q1998.66 1244.27 1993.33 1244.27 Q1988.01 1244.27 1986.55 1244.39 L1986.55 1243.1 L1987.88 1243.1 Q1990.53 1243.1 1991.16 1242.73 Q1991.8 1242.34 1991.8 1241.07 L1991.8 1219.32 Q1989.6 1220.43 1986.28 1220.43 Z" fill="#000000" fill-rule="evenodd" fill-opacity="1" /><path clip-path="url(#clip330)" d="M 0 0 M2007.66 1243.71 Q2007.06 1243.04 2007.06 1242.15 Q2007.06 1241.27 2007.64 1240.62 Q2008.23 1239.94 2009.3 1239.94 Q2010.55 1239.94 2011.27 1241.15 Q2011.98 1242.34 2011.98 1244.35 Q2011.98 1246.52 2011.1 1248.53 Q2010.22 1250.56 2009.36 1251.52 Q2008.5 1252.48 2008.15 1252.48 Q2007.74 1252.48 2007.74 1252.03 Q2007.74 1251.87 2008.03 1251.56 Q2011.04 1248.32 2011.06 1244.35 Q2011.06 1243.71 2010.98 1243.71 L2010.88 1243.79 Q2010.16 1244.39 2009.3 1244.39 Q2008.25 1244.39 2007.66 1243.71 Z" fill="#000000" fill-rule="evenodd" fill-opacity="1" /><path clip-path="url(#clip330)" d="M 0 0 M2045.82 1238.38 Q2045.31 1240.9 2044.27 1242.67 Q2042.97 1244.86 2041.01 1244.86 Q2039.35 1244.86 2038.24 1243.71 Q2037.13 1242.54 2037.13 1240.7 Q2037.13 1240.15 2037.36 1239.22 Q2037.44 1238.81 2037.44 1238.3 Q2037.44 1234.98 2030.25 1234.74 Q2029.65 1237.09 2029.24 1238.69 Q2028.85 1240.27 2028.73 1240.74 Q2028.61 1241.21 2028.51 1241.6 Q2028.42 1241.99 2028.28 1242.5 Q2028.08 1243.34 2027.93 1243.75 Q2027.79 1244.16 2027.4 1244.51 Q2027.03 1244.86 2026.44 1244.86 Q2025.92 1244.86 2025.57 1244.55 Q2025.23 1244.24 2025.23 1243.71 Q2025.23 1243.34 2025.39 1242.75 L2029.24 1227.36 Q2029.35 1226.93 2029.55 1226.62 Q2029.76 1226.31 2029.94 1226.17 Q2030.15 1226.02 2030.39 1225.94 Q2030.64 1225.86 2030.74 1225.86 Q2030.84 1225.84 2030.92 1225.84 Q2031.48 1225.84 2031.81 1226.15 Q2032.15 1226.43 2032.15 1226.97 Q2032.15 1227.05 2032.01 1227.62 Q2031.89 1228.18 2031.68 1229.02 Q2031.48 1229.86 2031.4 1230.25 L2030.56 1233.53 Q2031.72 1233.14 2032.77 1232.44 Q2033.83 1231.74 2035.92 1229.94 Q2036.89 1229.14 2037.46 1228.69 Q2038.06 1228.22 2039.04 1227.58 Q2040.02 1226.93 2040.97 1226.62 Q2041.91 1226.29 2042.81 1226.29 Q2043.51 1226.29 2043.92 1226.62 Q2044.33 1226.93 2044.41 1227.21 Q2044.49 1227.48 2044.49 1227.77 Q2044.49 1228.61 2043.84 1229.32 Q2043.18 1230.04 2042.22 1230.04 Q2041.36 1230.04 2040.99 1229.57 Q2040.62 1229.1 2040.62 1228.57 Q2040.62 1228.16 2040.82 1227.64 Q2039.68 1228.14 2038.69 1228.85 Q2037.71 1229.55 2036.01 1231.01 Q2033.59 1233.07 2032.15 1233.85 Q2032.97 1233.87 2033.59 1233.94 Q2034.22 1233.98 2035.29 1234.12 Q2036.36 1234.26 2037.13 1234.57 Q2037.91 1234.86 2038.67 1235.31 Q2039.45 1235.76 2039.86 1236.5 Q2040.29 1237.24 2040.29 1238.18 Q2040.29 1238.63 2040.09 1239.55 Q2039.74 1241.07 2039.74 1241.91 Q2039.74 1242.97 2040.06 1243.45 Q2040.41 1243.92 2041.09 1243.92 Q2042.38 1243.92 2043.2 1242.58 Q2044.04 1241.23 2044.74 1238.73 Q2044.84 1238.26 2044.94 1238.12 Q2045.04 1237.97 2045.33 1237.97 Q2045.82 1237.97 2045.82 1238.38 Z" fill="#000000" fill-rule="evenodd" fill-opacity="1" /><path clip-path="url(#clip330)" d="M 0 0 M2060.8 1238.01 Q2060.84 1237.5 2061.64 1237.5 L2087.36 1237.5 Q2088.57 1237.5 2088.59 1237.97 Q2088.59 1238.49 2087.44 1238.47 L2061.93 1238.47 Q2060.8 1238.49 2060.8 1238.01 M2060.8 1229.82 Q2060.8 1229.3 2061.68 1229.32 L2087.32 1229.32 Q2088.57 1229.32 2088.59 1229.82 Q2088.59 1230.29 2087.52 1230.29 L2061.64 1230.29 Q2060.8 1230.29 2060.8 1229.82 Z" fill="#000000" fill-rule="evenodd" fill-opacity="1" /><path clip-path="url(#clip330)" d="M 0 0 M2104.77 1220.43 L2104.77 1219.12 Q2109.82 1219.12 2112.42 1216.43 Q2113.14 1216.43 2113.26 1216.6 Q2113.38 1216.76 2113.38 1217.52 L2113.38 1241.07 Q2113.38 1242.32 2114 1242.71 Q2114.61 1243.1 2117.3 1243.1 L2118.63 1243.1 L2118.63 1244.39 Q2117.15 1244.27 2111.82 1244.27 Q2106.49 1244.27 2105.04 1244.39 L2105.04 1243.1 L2106.37 1243.1 Q2109.02 1243.1 2109.65 1242.73 Q2110.29 1242.34 2110.29 1241.07 L2110.29 1219.32 Q2108.09 1220.43 2104.77 1220.43 Z" fill="#000000" fill-rule="evenodd" fill-opacity="1" /><path clip-path="url(#clip330)" d="M 0 0 M2122.18 1230.96 Q2122.18 1224.8 2123.74 1221.43 Q2125.91 1216.43 2131.03 1216.43 Q2132.12 1216.43 2133.25 1216.74 Q2134.39 1217.03 2135.83 1218.15 Q2137.28 1219.28 2138.17 1221.13 Q2139.85 1224.69 2139.85 1230.96 Q2139.85 1237.09 2138.29 1240.43 Q2136.01 1245.31 2130.99 1245.31 Q2129.11 1245.31 2127.18 1244.35 Q2125.27 1243.38 2124.07 1241.07 Q2122.18 1237.6 2122.18 1230.96 M2125.66 1230.45 Q2125.66 1236.78 2126.11 1239.31 Q2126.63 1242.03 2128.02 1243.22 Q2129.43 1244.39 2130.99 1244.39 Q2132.67 1244.39 2134.07 1243.14 Q2135.48 1241.87 2135.91 1239.14 Q2136.38 1236.46 2136.36 1230.45 Q2136.36 1224.61 2135.95 1222.27 Q2135.4 1219.55 2133.92 1218.46 Q2132.47 1217.36 2130.99 1217.36 Q2130.44 1217.36 2129.84 1217.52 Q2129.27 1217.68 2128.43 1218.15 Q2127.59 1218.63 2126.93 1219.79 Q2126.3 1220.96 2125.99 1222.73 Q2125.66 1225 2125.66 1230.45 Z" fill="#000000" fill-rule="evenodd" fill-opacity="1" /><path clip-path="url(#clip330)" d="M 0 0 M2143.6 1243.71 Q2142.96 1243.04 2142.96 1242.15 Q2142.96 1241.27 2143.6 1240.64 Q2144.23 1239.98 2145.19 1239.98 Q2146.12 1239.98 2146.73 1240.6 Q2147.37 1241.19 2147.37 1242.17 Q2147.37 1243.14 2146.69 1243.77 Q2146.04 1244.39 2145.19 1244.39 Q2144.23 1244.39 2143.6 1243.71 Z" fill="#000000" fill-rule="evenodd" fill-opacity="1" /><path clip-path="url(#clip330)" d="M 0 0 M2154.51 1230.96 Q2154.51 1224.8 2156.07 1221.43 Q2158.24 1216.43 2163.36 1216.43 Q2164.45 1216.43 2165.58 1216.74 Q2166.72 1217.03 2168.16 1218.15 Q2169.61 1219.28 2170.49 1221.13 Q2172.17 1224.69 2172.17 1230.96 Q2172.17 1237.09 2170.62 1240.43 Q2168.34 1245.31 2163.32 1245.31 Q2161.44 1245.31 2159.51 1244.35 Q2157.6 1243.38 2156.39 1241.07 Q2154.51 1237.6 2154.51 1230.96 M2157.99 1230.45 Q2157.99 1236.78 2158.44 1239.31 Q2158.96 1242.03 2160.35 1243.22 Q2161.76 1244.39 2163.32 1244.39 Q2165 1244.39 2166.4 1243.14 Q2167.81 1241.87 2168.24 1239.14 Q2168.71 1236.46 2168.69 1230.45 Q2168.69 1224.61 2168.28 1222.27 Q2167.73 1219.55 2166.25 1218.46 Q2164.8 1217.36 2163.32 1217.36 Q2162.77 1217.36 2162.17 1217.52 Q2161.6 1217.68 2160.76 1218.15 Q2159.92 1218.63 2159.26 1219.79 Q2158.63 1220.96 2158.32 1222.73 Q2157.99 1225 2157.99 1230.45 Z" fill="#000000" fill-rule="evenodd" fill-opacity="1" /><polyline clip-path="url(#clip330)" style="stroke:#aa0055; stroke-width:3.5; stroke-opacity:1; fill:none" points="
  1745.22,1287.25 1883.37,1287.25 
  "/>
<path clip-path="url(#clip330)" d="M 0 0 M1934.94 1269.35 Q1934.94 1269.74 1934.86 1270.07 L1933.71 1277.37 Q1933.65 1277.92 1933.53 1278.13 Q1933.42 1278.33 1933.1 1278.33 Q1932.58 1278.33 1932.58 1277.8 Q1932.58 1277.49 1932.71 1277 Q1933.06 1274.68 1933.06 1273.64 Q1933.06 1272.94 1932.91 1272.43 Q1932.79 1271.89 1932.58 1271.53 Q1932.4 1271.16 1931.97 1270.91 Q1931.54 1270.66 1931.13 1270.52 Q1930.72 1270.38 1929.98 1270.32 Q1929.24 1270.23 1928.61 1270.21 Q1927.97 1270.19 1926.93 1270.19 Q1924.65 1270.19 1924.28 1270.28 Q1923.89 1270.38 1923.69 1270.69 Q1923.5 1270.97 1923.3 1271.83 L1917.73 1294.11 L1917.56 1294.99 Q1917.56 1295.48 1917.87 1295.65 Q1918.18 1295.81 1919.12 1295.91 Q1920.47 1296.02 1921.8 1296.02 Q1921.84 1296.02 1921.93 1296.02 Q1922.38 1296.02 1922.56 1296.04 Q1922.75 1296.04 1922.93 1296.08 Q1923.12 1296.12 1923.16 1296.22 Q1923.22 1296.3 1923.22 1296.47 Q1923.22 1296.86 1923.05 1297.06 Q1922.89 1297.25 1922.73 1297.29 Q1922.58 1297.31 1922.3 1297.31 Q1921.72 1297.31 1920.49 1297.27 Q1919.26 1297.23 1918.65 1297.23 L1915.16 1297.19 L1911.6 1297.23 Q1911.04 1297.23 1909.88 1297.27 Q1908.71 1297.31 1908.15 1297.31 Q1907.44 1297.31 1907.44 1296.8 Q1907.44 1296.22 1907.7 1296.12 Q1907.99 1296.02 1909.2 1296.02 Q1910.9 1296.02 1911.82 1295.93 Q1912.75 1295.85 1913.24 1295.57 Q1913.75 1295.28 1913.89 1294.99 Q1914.04 1294.68 1914.2 1293.99 L1919.84 1271.59 Q1920 1271.1 1920 1270.71 Q1920 1270.5 1919.94 1270.42 Q1919.9 1270.34 1919.63 1270.28 Q1919.36 1270.19 1918.81 1270.19 L1917.17 1270.19 Q1915.49 1270.19 1914.45 1270.28 Q1913.42 1270.34 1912.44 1270.64 Q1911.47 1270.95 1910.9 1271.38 Q1910.35 1271.81 1909.73 1272.69 Q1909.12 1273.58 1908.67 1274.64 Q1908.24 1275.71 1907.62 1277.45 Q1907.42 1278.02 1907.29 1278.19 Q1907.19 1278.33 1906.9 1278.33 Q1906.7 1278.33 1906.54 1278.21 Q1906.39 1278.06 1906.39 1277.88 Q1906.6 1277.2 1906.64 1277.12 L1909.16 1269.72 Q1909.36 1269.13 1909.55 1269.03 Q1909.75 1268.9 1910.51 1268.9 L1933.79 1268.9 Q1934.16 1268.9 1934.28 1268.9 Q1934.41 1268.9 1934.61 1268.94 Q1934.82 1268.98 1934.88 1269.09 Q1934.94 1269.19 1934.94 1269.35 Z" fill="#000000" fill-rule="evenodd" fill-opacity="1" /><path clip-path="url(#clip330)" d="M 0 0 M1942.31 1290.93 Q1942.35 1290.42 1943.15 1290.42 L1968.87 1290.42 Q1970.08 1290.42 1970.1 1290.89 Q1970.1 1291.41 1968.95 1291.39 L1943.44 1291.39 Q1942.31 1291.41 1942.31 1290.93 M1942.31 1282.74 Q1942.31 1282.22 1943.19 1282.24 L1968.83 1282.24 Q1970.08 1282.24 1970.1 1282.74 Q1970.1 1283.21 1969.03 1283.21 L1943.15 1283.21 Q1942.31 1283.21 1942.31 1282.74 Z" fill="#000000" fill-rule="evenodd" fill-opacity="1" /><path clip-path="url(#clip330)" d="M 0 0 M1986.28 1273.35 L1986.28 1272.04 Q1991.33 1272.04 1993.93 1269.35 Q1994.65 1269.35 1994.77 1269.52 Q1994.89 1269.68 1994.89 1270.44 L1994.89 1293.99 Q1994.89 1295.24 1995.51 1295.63 Q1996.12 1296.02 1998.81 1296.02 L2000.14 1296.02 L2000.14 1297.31 Q1998.66 1297.19 1993.33 1297.19 Q1988.01 1297.19 1986.55 1297.31 L1986.55 1296.02 L1987.88 1296.02 Q1990.53 1296.02 1991.16 1295.65 Q1991.8 1295.26 1991.8 1293.99 L1991.8 1272.24 Q1989.6 1273.35 1986.28 1273.35 Z" fill="#000000" fill-rule="evenodd" fill-opacity="1" /><path clip-path="url(#clip330)" d="M 0 0 M2007.66 1296.63 Q2007.06 1295.96 2007.06 1295.07 Q2007.06 1294.19 2007.64 1293.54 Q2008.23 1292.86 2009.3 1292.86 Q2010.55 1292.86 2011.27 1294.07 Q2011.98 1295.26 2011.98 1297.27 Q2011.98 1299.44 2011.1 1301.45 Q2010.22 1303.48 2009.36 1304.44 Q2008.5 1305.4 2008.15 1305.4 Q2007.74 1305.4 2007.74 1304.95 Q2007.74 1304.79 2008.03 1304.48 Q2011.04 1301.24 2011.06 1297.27 Q2011.06 1296.63 2010.98 1296.63 L2010.88 1296.71 Q2010.16 1297.31 2009.3 1297.31 Q2008.25 1297.31 2007.66 1296.63 Z" fill="#000000" fill-rule="evenodd" fill-opacity="1" /><path clip-path="url(#clip330)" d="M 0 0 M2045.82 1291.3 Q2045.31 1293.82 2044.27 1295.59 Q2042.97 1297.78 2041.01 1297.78 Q2039.35 1297.78 2038.24 1296.63 Q2037.13 1295.46 2037.13 1293.62 Q2037.13 1293.07 2037.36 1292.14 Q2037.44 1291.73 2037.44 1291.22 Q2037.44 1287.9 2030.25 1287.66 Q2029.65 1290.01 2029.24 1291.61 Q2028.85 1293.19 2028.73 1293.66 Q2028.61 1294.13 2028.51 1294.52 Q2028.42 1294.91 2028.28 1295.42 Q2028.08 1296.26 2027.93 1296.67 Q2027.79 1297.08 2027.4 1297.43 Q2027.03 1297.78 2026.44 1297.78 Q2025.92 1297.78 2025.57 1297.47 Q2025.23 1297.16 2025.23 1296.63 Q2025.23 1296.26 2025.39 1295.67 L2029.24 1280.28 Q2029.35 1279.85 2029.55 1279.54 Q2029.76 1279.23 2029.94 1279.09 Q2030.15 1278.94 2030.39 1278.86 Q2030.64 1278.78 2030.74 1278.78 Q2030.84 1278.76 2030.92 1278.76 Q2031.48 1278.76 2031.81 1279.07 Q2032.15 1279.35 2032.15 1279.89 Q2032.15 1279.97 2032.01 1280.54 Q2031.89 1281.1 2031.68 1281.94 Q2031.48 1282.78 2031.4 1283.17 L2030.56 1286.45 Q2031.72 1286.06 2032.77 1285.36 Q2033.83 1284.66 2035.92 1282.86 Q2036.89 1282.06 2037.46 1281.61 Q2038.06 1281.14 2039.04 1280.5 Q2040.02 1279.85 2040.97 1279.54 Q2041.91 1279.21 2042.81 1279.21 Q2043.51 1279.21 2043.92 1279.54 Q2044.33 1279.85 2044.41 1280.13 Q2044.49 1280.4 2044.49 1280.69 Q2044.49 1281.53 2043.84 1282.24 Q2043.18 1282.96 2042.22 1282.96 Q2041.36 1282.96 2040.99 1282.49 Q2040.62 1282.02 2040.62 1281.49 Q2040.62 1281.08 2040.82 1280.56 Q2039.68 1281.06 2038.69 1281.77 Q2037.71 1282.47 2036.01 1283.93 Q2033.59 1285.99 2032.15 1286.77 Q2032.97 1286.79 2033.59 1286.86 Q2034.22 1286.9 2035.29 1287.04 Q2036.36 1287.18 2037.13 1287.49 Q2037.91 1287.78 2038.67 1288.23 Q2039.45 1288.68 2039.86 1289.42 Q2040.29 1290.16 2040.29 1291.1 Q2040.29 1291.55 2040.09 1292.47 Q2039.74 1293.99 2039.74 1294.83 Q2039.74 1295.89 2040.06 1296.37 Q2040.41 1296.84 2041.09 1296.84 Q2042.38 1296.84 2043.2 1295.5 Q2044.04 1294.15 2044.74 1291.65 Q2044.84 1291.18 2044.94 1291.04 Q2045.04 1290.89 2045.33 1290.89 Q2045.82 1290.89 2045.82 1291.3 Z" fill="#000000" fill-rule="evenodd" fill-opacity="1" /><path clip-path="url(#clip330)" d="M 0 0 M2060.8 1290.93 Q2060.84 1290.42 2061.64 1290.42 L2087.36 1290.42 Q2088.57 1290.42 2088.59 1290.89 Q2088.59 1291.41 2087.44 1291.39 L2061.93 1291.39 Q2060.8 1291.41 2060.8 1290.93 M2060.8 1282.74 Q2060.8 1282.22 2061.68 1282.24 L2087.32 1282.24 Q2088.57 1282.24 2088.59 1282.74 Q2088.59 1283.21 2087.52 1283.21 L2061.64 1283.21 Q2060.8 1283.21 2060.8 1282.74 Z" fill="#000000" fill-rule="evenodd" fill-opacity="1" /><path clip-path="url(#clip330)" d="M 0 0 M2104.77 1273.35 L2104.77 1272.04 Q2109.82 1272.04 2112.42 1269.35 Q2113.14 1269.35 2113.26 1269.52 Q2113.38 1269.68 2113.38 1270.44 L2113.38 1293.99 Q2113.38 1295.24 2114 1295.63 Q2114.61 1296.02 2117.3 1296.02 L2118.63 1296.02 L2118.63 1297.31 Q2117.15 1297.19 2111.82 1297.19 Q2106.49 1297.19 2105.04 1297.31 L2105.04 1296.02 L2106.37 1296.02 Q2109.02 1296.02 2109.65 1295.65 Q2110.29 1295.26 2110.29 1293.99 L2110.29 1272.24 Q2108.09 1273.35 2104.77 1273.35 Z" fill="#000000" fill-rule="evenodd" fill-opacity="1" /><path clip-path="url(#clip330)" d="M 0 0 M2122.18 1283.88 Q2122.18 1277.72 2123.74 1274.35 Q2125.91 1269.35 2131.03 1269.35 Q2132.12 1269.35 2133.25 1269.66 Q2134.39 1269.95 2135.83 1271.07 Q2137.28 1272.2 2138.17 1274.05 Q2139.85 1277.61 2139.85 1283.88 Q2139.85 1290.01 2138.29 1293.35 Q2136.01 1298.23 2130.99 1298.23 Q2129.11 1298.23 2127.18 1297.27 Q2125.27 1296.3 2124.07 1293.99 Q2122.18 1290.52 2122.18 1283.88 M2125.66 1283.37 Q2125.66 1289.7 2126.11 1292.23 Q2126.63 1294.95 2128.02 1296.14 Q2129.43 1297.31 2130.99 1297.31 Q2132.67 1297.31 2134.07 1296.06 Q2135.48 1294.79 2135.91 1292.06 Q2136.38 1289.38 2136.36 1283.37 Q2136.36 1277.53 2135.95 1275.19 Q2135.4 1272.47 2133.92 1271.38 Q2132.47 1270.28 2130.99 1270.28 Q2130.44 1270.28 2129.84 1270.44 Q2129.27 1270.6 2128.43 1271.07 Q2127.59 1271.55 2126.93 1272.71 Q2126.3 1273.88 2125.99 1275.65 Q2125.66 1277.92 2125.66 1283.37 Z" fill="#000000" fill-rule="evenodd" fill-opacity="1" /><path clip-path="url(#clip330)" d="M 0 0 M2142.96 1283.88 Q2142.96 1277.72 2144.52 1274.35 Q2146.69 1269.35 2151.81 1269.35 Q2152.9 1269.35 2154.03 1269.66 Q2155.18 1269.95 2156.61 1271.07 Q2158.07 1272.2 2158.95 1274.05 Q2160.63 1277.61 2160.63 1283.88 Q2160.63 1290.01 2159.07 1293.35 Q2156.79 1298.23 2151.77 1298.23 Q2149.89 1298.23 2147.96 1297.27 Q2146.06 1296.3 2144.85 1293.99 Q2142.96 1290.52 2142.96 1283.88 M2146.44 1283.37 Q2146.44 1289.7 2146.9 1292.23 Q2147.41 1294.95 2148.8 1296.14 Q2150.22 1297.31 2151.77 1297.31 Q2153.45 1297.31 2154.85 1296.06 Q2156.26 1294.79 2156.69 1292.06 Q2157.16 1289.38 2157.14 1283.37 Q2157.14 1277.53 2156.73 1275.19 Q2156.18 1272.47 2154.7 1271.38 Q2153.25 1270.28 2151.77 1270.28 Q2151.22 1270.28 2150.63 1270.44 Q2150.05 1270.6 2149.21 1271.07 Q2148.37 1271.55 2147.72 1272.71 Q2147.08 1273.88 2146.77 1275.65 Q2146.44 1277.92 2146.44 1283.37 Z" fill="#000000" fill-rule="evenodd" fill-opacity="1" /><path clip-path="url(#clip330)" d="M 0 0 M2164.38 1296.63 Q2163.74 1295.96 2163.74 1295.07 Q2163.74 1294.19 2164.38 1293.56 Q2165.01 1292.9 2165.98 1292.9 Q2166.9 1292.9 2167.51 1293.52 Q2168.15 1294.11 2168.15 1295.09 Q2168.15 1296.06 2167.47 1296.69 Q2166.82 1297.31 2165.98 1297.31 Q2165.01 1297.31 2164.38 1296.63 Z" fill="#000000" fill-rule="evenodd" fill-opacity="1" /><path clip-path="url(#clip330)" d="M 0 0 M2175.29 1283.88 Q2175.29 1277.72 2176.85 1274.35 Q2179.02 1269.35 2184.14 1269.35 Q2185.23 1269.35 2186.36 1269.66 Q2187.5 1269.95 2188.94 1271.07 Q2190.39 1272.2 2191.28 1274.05 Q2192.96 1277.61 2192.96 1283.88 Q2192.96 1290.01 2191.4 1293.35 Q2189.12 1298.23 2184.1 1298.23 Q2182.22 1298.23 2180.29 1297.27 Q2178.38 1296.3 2177.18 1293.99 Q2175.29 1290.52 2175.29 1283.88 M2178.77 1283.37 Q2178.77 1289.7 2179.22 1292.23 Q2179.74 1294.95 2181.13 1296.14 Q2182.54 1297.31 2184.1 1297.31 Q2185.78 1297.31 2187.18 1296.06 Q2188.59 1294.79 2189.02 1292.06 Q2189.49 1289.38 2189.47 1283.37 Q2189.47 1277.53 2189.06 1275.19 Q2188.51 1272.47 2187.03 1271.38 Q2185.58 1270.28 2184.1 1270.28 Q2183.55 1270.28 2182.95 1270.44 Q2182.38 1270.6 2181.54 1271.07 Q2180.7 1271.55 2180.04 1272.71 Q2179.41 1273.88 2179.1 1275.65 Q2178.77 1277.92 2178.77 1283.37 Z" fill="#000000" fill-rule="evenodd" fill-opacity="1" /><polyline clip-path="url(#clip330)" style="stroke:#ff0000; stroke-width:3.5; stroke-opacity:1; fill:none" points="
  1745.22,1340.17 1883.37,1340.17 
  "/>
<path clip-path="url(#clip330)" d="M 0 0 M1934.94 1322.27 Q1934.94 1322.66 1934.86 1322.99 L1933.71 1330.29 Q1933.65 1330.84 1933.53 1331.05 Q1933.42 1331.25 1933.1 1331.25 Q1932.58 1331.25 1932.58 1330.72 Q1932.58 1330.41 1932.71 1329.92 Q1933.06 1327.6 1933.06 1326.56 Q1933.06 1325.86 1932.91 1325.35 Q1932.79 1324.81 1932.58 1324.45 Q1932.4 1324.08 1931.97 1323.83 Q1931.54 1323.58 1931.13 1323.44 Q1930.72 1323.3 1929.98 1323.24 Q1929.24 1323.15 1928.61 1323.13 Q1927.97 1323.11 1926.93 1323.11 Q1924.65 1323.11 1924.28 1323.2 Q1923.89 1323.3 1923.69 1323.61 Q1923.5 1323.89 1923.3 1324.75 L1917.73 1347.03 L1917.56 1347.91 Q1917.56 1348.4 1917.87 1348.57 Q1918.18 1348.73 1919.12 1348.83 Q1920.47 1348.94 1921.8 1348.94 Q1921.84 1348.94 1921.93 1348.94 Q1922.38 1348.94 1922.56 1348.96 Q1922.75 1348.96 1922.93 1349 Q1923.12 1349.04 1923.16 1349.14 Q1923.22 1349.22 1923.22 1349.39 Q1923.22 1349.78 1923.05 1349.98 Q1922.89 1350.17 1922.73 1350.21 Q1922.58 1350.23 1922.3 1350.23 Q1921.72 1350.23 1920.49 1350.19 Q1919.26 1350.15 1918.65 1350.15 L1915.16 1350.11 L1911.6 1350.15 Q1911.04 1350.15 1909.88 1350.19 Q1908.71 1350.23 1908.15 1350.23 Q1907.44 1350.23 1907.44 1349.72 Q1907.44 1349.14 1907.7 1349.04 Q1907.99 1348.94 1909.2 1348.94 Q1910.9 1348.94 1911.82 1348.85 Q1912.75 1348.77 1913.24 1348.49 Q1913.75 1348.2 1913.89 1347.91 Q1914.04 1347.6 1914.2 1346.91 L1919.84 1324.51 Q1920 1324.02 1920 1323.63 Q1920 1323.42 1919.94 1323.34 Q1919.9 1323.26 1919.63 1323.2 Q1919.36 1323.11 1918.81 1323.11 L1917.17 1323.11 Q1915.49 1323.11 1914.45 1323.2 Q1913.42 1323.26 1912.44 1323.56 Q1911.47 1323.87 1910.9 1324.3 Q1910.35 1324.73 1909.73 1325.61 Q1909.12 1326.5 1908.67 1327.56 Q1908.24 1328.63 1907.62 1330.37 Q1907.42 1330.94 1907.29 1331.11 Q1907.19 1331.25 1906.9 1331.25 Q1906.7 1331.25 1906.54 1331.13 Q1906.39 1330.98 1906.39 1330.8 Q1906.6 1330.12 1906.64 1330.04 L1909.16 1322.64 Q1909.36 1322.05 1909.55 1321.95 Q1909.75 1321.82 1910.51 1321.82 L1933.79 1321.82 Q1934.16 1321.82 1934.28 1321.82 Q1934.41 1321.82 1934.61 1321.86 Q1934.82 1321.9 1934.88 1322.01 Q1934.94 1322.11 1934.94 1322.27 Z" fill="#000000" fill-rule="evenodd" fill-opacity="1" /><path clip-path="url(#clip330)" d="M 0 0 M1942.31 1343.85 Q1942.35 1343.34 1943.15 1343.34 L1968.87 1343.34 Q1970.08 1343.34 1970.1 1343.81 Q1970.1 1344.33 1968.95 1344.31 L1943.44 1344.31 Q1942.31 1344.33 1942.31 1343.85 M1942.31 1335.66 Q1942.31 1335.14 1943.19 1335.16 L1968.83 1335.16 Q1970.08 1335.16 1970.1 1335.66 Q1970.1 1336.13 1969.03 1336.13 L1943.15 1336.13 Q1942.31 1336.13 1942.31 1335.66 Z" fill="#000000" fill-rule="evenodd" fill-opacity="1" /><path clip-path="url(#clip330)" d="M 0 0 M1986.28 1326.27 L1986.28 1324.96 Q1991.33 1324.96 1993.93 1322.27 Q1994.65 1322.27 1994.77 1322.44 Q1994.89 1322.6 1994.89 1323.36 L1994.89 1346.91 Q1994.89 1348.16 1995.51 1348.55 Q1996.12 1348.94 1998.81 1348.94 L2000.14 1348.94 L2000.14 1350.23 Q1998.66 1350.11 1993.33 1350.11 Q1988.01 1350.11 1986.55 1350.23 L1986.55 1348.94 L1987.88 1348.94 Q1990.53 1348.94 1991.16 1348.57 Q1991.8 1348.18 1991.8 1346.91 L1991.8 1325.16 Q1989.6 1326.27 1986.28 1326.27 Z" fill="#000000" fill-rule="evenodd" fill-opacity="1" /><path clip-path="url(#clip330)" d="M 0 0 M2007.66 1349.55 Q2007.06 1348.88 2007.06 1347.99 Q2007.06 1347.11 2007.64 1346.46 Q2008.23 1345.78 2009.3 1345.78 Q2010.55 1345.78 2011.27 1346.99 Q2011.98 1348.18 2011.98 1350.19 Q2011.98 1352.36 2011.1 1354.37 Q2010.22 1356.4 2009.36 1357.36 Q2008.5 1358.32 2008.15 1358.32 Q2007.74 1358.32 2007.74 1357.87 Q2007.74 1357.71 2008.03 1357.4 Q2011.04 1354.16 2011.06 1350.19 Q2011.06 1349.55 2010.98 1349.55 L2010.88 1349.63 Q2010.16 1350.23 2009.3 1350.23 Q2008.25 1350.23 2007.66 1349.55 Z" fill="#000000" fill-rule="evenodd" fill-opacity="1" /><path clip-path="url(#clip330)" d="M 0 0 M2045.82 1344.22 Q2045.31 1346.74 2044.27 1348.51 Q2042.97 1350.7 2041.01 1350.7 Q2039.35 1350.7 2038.24 1349.55 Q2037.13 1348.38 2037.13 1346.54 Q2037.13 1345.99 2037.36 1345.06 Q2037.44 1344.65 2037.44 1344.14 Q2037.44 1340.82 2030.25 1340.58 Q2029.65 1342.93 2029.24 1344.53 Q2028.85 1346.11 2028.73 1346.58 Q2028.61 1347.05 2028.51 1347.44 Q2028.42 1347.83 2028.28 1348.34 Q2028.08 1349.18 2027.93 1349.59 Q2027.79 1350 2027.4 1350.35 Q2027.03 1350.7 2026.44 1350.7 Q2025.92 1350.7 2025.57 1350.39 Q2025.23 1350.08 2025.23 1349.55 Q2025.23 1349.18 2025.39 1348.59 L2029.24 1333.2 Q2029.35 1332.77 2029.55 1332.46 Q2029.76 1332.15 2029.94 1332.01 Q2030.15 1331.86 2030.39 1331.78 Q2030.64 1331.7 2030.74 1331.7 Q2030.84 1331.68 2030.92 1331.68 Q2031.48 1331.68 2031.81 1331.99 Q2032.15 1332.27 2032.15 1332.81 Q2032.15 1332.89 2032.01 1333.46 Q2031.89 1334.02 2031.68 1334.86 Q2031.48 1335.7 2031.4 1336.09 L2030.56 1339.37 Q2031.72 1338.98 2032.77 1338.28 Q2033.83 1337.58 2035.92 1335.78 Q2036.89 1334.98 2037.46 1334.53 Q2038.06 1334.06 2039.04 1333.42 Q2040.02 1332.77 2040.97 1332.46 Q2041.91 1332.13 2042.81 1332.13 Q2043.51 1332.13 2043.92 1332.46 Q2044.33 1332.77 2044.41 1333.05 Q2044.49 1333.32 2044.49 1333.61 Q2044.49 1334.45 2043.84 1335.16 Q2043.18 1335.88 2042.22 1335.88 Q2041.36 1335.88 2040.99 1335.41 Q2040.62 1334.94 2040.62 1334.41 Q2040.62 1334 2040.82 1333.48 Q2039.68 1333.98 2038.69 1334.69 Q2037.71 1335.39 2036.01 1336.85 Q2033.59 1338.91 2032.15 1339.69 Q2032.97 1339.71 2033.59 1339.78 Q2034.22 1339.82 2035.29 1339.96 Q2036.36 1340.1 2037.13 1340.41 Q2037.91 1340.7 2038.67 1341.15 Q2039.45 1341.6 2039.86 1342.34 Q2040.29 1343.08 2040.29 1344.02 Q2040.29 1344.47 2040.09 1345.39 Q2039.74 1346.91 2039.74 1347.75 Q2039.74 1348.81 2040.06 1349.29 Q2040.41 1349.76 2041.09 1349.76 Q2042.38 1349.76 2043.2 1348.42 Q2044.04 1347.07 2044.74 1344.57 Q2044.84 1344.1 2044.94 1343.96 Q2045.04 1343.81 2045.33 1343.81 Q2045.82 1343.81 2045.82 1344.22 Z" fill="#000000" fill-rule="evenodd" fill-opacity="1" /><path clip-path="url(#clip330)" d="M 0 0 M2060.8 1343.85 Q2060.84 1343.34 2061.64 1343.34 L2087.36 1343.34 Q2088.57 1343.34 2088.59 1343.81 Q2088.59 1344.33 2087.44 1344.31 L2061.93 1344.31 Q2060.8 1344.33 2060.8 1343.85 M2060.8 1335.66 Q2060.8 1335.14 2061.68 1335.16 L2087.32 1335.16 Q2088.57 1335.16 2088.59 1335.66 Q2088.59 1336.13 2087.52 1336.13 L2061.64 1336.13 Q2060.8 1336.13 2060.8 1335.66 Z" fill="#000000" fill-rule="evenodd" fill-opacity="1" /><path clip-path="url(#clip330)" d="M 0 0 M2104.77 1326.27 L2104.77 1324.96 Q2109.82 1324.96 2112.42 1322.27 Q2113.14 1322.27 2113.26 1322.44 Q2113.38 1322.6 2113.38 1323.36 L2113.38 1346.91 Q2113.38 1348.16 2114 1348.55 Q2114.61 1348.94 2117.3 1348.94 L2118.63 1348.94 L2118.63 1350.23 Q2117.15 1350.11 2111.82 1350.11 Q2106.49 1350.11 2105.04 1350.23 L2105.04 1348.94 L2106.37 1348.94 Q2109.02 1348.94 2109.65 1348.57 Q2110.29 1348.18 2110.29 1346.91 L2110.29 1325.16 Q2108.09 1326.27 2104.77 1326.27 Z" fill="#000000" fill-rule="evenodd" fill-opacity="1" /><path clip-path="url(#clip330)" d="M 0 0 M2122.18 1336.8 Q2122.18 1330.64 2123.74 1327.27 Q2125.91 1322.27 2131.03 1322.27 Q2132.12 1322.27 2133.25 1322.58 Q2134.39 1322.87 2135.83 1323.99 Q2137.28 1325.12 2138.17 1326.97 Q2139.85 1330.53 2139.85 1336.8 Q2139.85 1342.93 2138.29 1346.27 Q2136.01 1351.15 2130.99 1351.15 Q2129.11 1351.15 2127.18 1350.19 Q2125.27 1349.22 2124.07 1346.91 Q2122.18 1343.44 2122.18 1336.8 M2125.66 1336.29 Q2125.66 1342.62 2126.11 1345.15 Q2126.63 1347.87 2128.02 1349.06 Q2129.43 1350.23 2130.99 1350.23 Q2132.67 1350.23 2134.07 1348.98 Q2135.48 1347.71 2135.91 1344.98 Q2136.38 1342.3 2136.36 1336.29 Q2136.36 1330.45 2135.95 1328.11 Q2135.4 1325.39 2133.92 1324.3 Q2132.47 1323.2 2130.99 1323.2 Q2130.44 1323.2 2129.84 1323.36 Q2129.27 1323.52 2128.43 1323.99 Q2127.59 1324.47 2126.93 1325.63 Q2126.3 1326.8 2125.99 1328.57 Q2125.66 1330.84 2125.66 1336.29 Z" fill="#000000" fill-rule="evenodd" fill-opacity="1" /><path clip-path="url(#clip330)" d="M 0 0 M2142.96 1336.8 Q2142.96 1330.64 2144.52 1327.27 Q2146.69 1322.27 2151.81 1322.27 Q2152.9 1322.27 2154.03 1322.58 Q2155.18 1322.87 2156.61 1323.99 Q2158.07 1325.12 2158.95 1326.97 Q2160.63 1330.53 2160.63 1336.8 Q2160.63 1342.93 2159.07 1346.27 Q2156.79 1351.15 2151.77 1351.15 Q2149.89 1351.15 2147.96 1350.19 Q2146.06 1349.22 2144.85 1346.91 Q2142.96 1343.44 2142.96 1336.8 M2146.44 1336.29 Q2146.44 1342.62 2146.9 1345.15 Q2147.41 1347.87 2148.8 1349.06 Q2150.22 1350.23 2151.77 1350.23 Q2153.45 1350.23 2154.85 1348.98 Q2156.26 1347.71 2156.69 1344.98 Q2157.16 1342.3 2157.14 1336.29 Q2157.14 1330.45 2156.73 1328.11 Q2156.18 1325.39 2154.7 1324.3 Q2153.25 1323.2 2151.77 1323.2 Q2151.22 1323.2 2150.63 1323.36 Q2150.05 1323.52 2149.21 1323.99 Q2148.37 1324.47 2147.72 1325.63 Q2147.08 1326.8 2146.77 1328.57 Q2146.44 1330.84 2146.44 1336.29 Z" fill="#000000" fill-rule="evenodd" fill-opacity="1" /><path clip-path="url(#clip330)" d="M 0 0 M2163.74 1336.8 Q2163.74 1330.64 2165.3 1327.27 Q2167.47 1322.27 2172.6 1322.27 Q2173.68 1322.27 2174.81 1322.58 Q2175.96 1322.87 2177.39 1323.99 Q2178.85 1325.12 2179.73 1326.97 Q2181.41 1330.53 2181.41 1336.8 Q2181.41 1342.93 2179.85 1346.27 Q2177.58 1351.15 2172.55 1351.15 Q2170.67 1351.15 2168.74 1350.19 Q2166.84 1349.22 2165.63 1346.91 Q2163.74 1343.44 2163.74 1336.8 M2167.23 1336.29 Q2167.23 1342.62 2167.68 1345.15 Q2168.19 1347.87 2169.58 1349.06 Q2171 1350.23 2172.55 1350.23 Q2174.24 1350.23 2175.63 1348.98 Q2177.04 1347.71 2177.47 1344.98 Q2177.94 1342.3 2177.92 1336.29 Q2177.92 1330.45 2177.51 1328.11 Q2176.96 1325.39 2175.49 1324.3 Q2174.03 1323.2 2172.55 1323.2 Q2172 1323.2 2171.41 1323.36 Q2170.83 1323.52 2169.99 1323.99 Q2169.15 1324.47 2168.5 1325.63 Q2167.86 1326.8 2167.55 1328.57 Q2167.23 1330.84 2167.23 1336.29 Z" fill="#000000" fill-rule="evenodd" fill-opacity="1" /><path clip-path="url(#clip330)" d="M 0 0 M2184.52 1336.8 Q2184.52 1330.64 2186.08 1327.27 Q2188.25 1322.27 2193.38 1322.27 Q2194.46 1322.27 2195.59 1322.58 Q2196.74 1322.87 2198.17 1323.99 Q2199.63 1325.12 2200.51 1326.97 Q2202.19 1330.53 2202.19 1336.8 Q2202.19 1342.93 2200.63 1346.27 Q2198.36 1351.15 2193.34 1351.15 Q2191.45 1351.15 2189.52 1350.19 Q2187.62 1349.22 2186.41 1346.91 Q2184.52 1343.44 2184.52 1336.8 M2188.01 1336.29 Q2188.01 1342.62 2188.46 1345.15 Q2188.97 1347.87 2190.36 1349.06 Q2191.78 1350.23 2193.34 1350.23 Q2195.02 1350.23 2196.41 1348.98 Q2197.82 1347.71 2198.25 1344.98 Q2198.73 1342.3 2198.71 1336.29 Q2198.71 1330.45 2198.3 1328.11 Q2197.74 1325.39 2196.27 1324.3 Q2194.81 1323.2 2193.34 1323.2 Q2192.78 1323.2 2192.19 1323.36 Q2191.61 1323.52 2190.77 1323.99 Q2189.93 1324.47 2189.28 1325.63 Q2188.64 1326.8 2188.34 1328.57 Q2188.01 1330.84 2188.01 1336.29 Z" fill="#000000" fill-rule="evenodd" fill-opacity="1" /><path clip-path="url(#clip330)" d="M 0 0 M2205.94 1349.55 Q2205.3 1348.88 2205.3 1347.99 Q2205.3 1347.11 2205.94 1346.48 Q2206.58 1345.82 2207.54 1345.82 Q2208.46 1345.82 2209.08 1346.44 Q2209.71 1347.03 2209.71 1348.01 Q2209.71 1348.98 2209.03 1349.61 Q2208.38 1350.23 2207.54 1350.23 Q2206.58 1350.23 2205.94 1349.55 Z" fill="#000000" fill-rule="evenodd" fill-opacity="1" /><path clip-path="url(#clip330)" d="M 0 0 M2216.85 1336.8 Q2216.85 1330.64 2218.41 1327.27 Q2220.58 1322.27 2225.71 1322.27 Q2226.79 1322.27 2227.92 1322.58 Q2229.07 1322.87 2230.5 1323.99 Q2231.96 1325.12 2232.84 1326.97 Q2234.52 1330.53 2234.52 1336.8 Q2234.52 1342.93 2232.96 1346.27 Q2230.69 1351.15 2225.66 1351.15 Q2223.78 1351.15 2221.85 1350.19 Q2219.95 1349.22 2218.74 1346.91 Q2216.85 1343.44 2216.85 1336.8 M2220.34 1336.29 Q2220.34 1342.62 2220.79 1345.15 Q2221.3 1347.87 2222.69 1349.06 Q2224.11 1350.23 2225.66 1350.23 Q2227.35 1350.23 2228.74 1348.98 Q2230.15 1347.71 2230.58 1344.98 Q2231.05 1342.3 2231.03 1336.29 Q2231.03 1330.45 2230.62 1328.11 Q2230.07 1325.39 2228.6 1324.3 Q2227.14 1323.2 2225.66 1323.2 Q2225.11 1323.2 2224.52 1323.36 Q2223.94 1323.52 2223.1 1323.99 Q2222.26 1324.47 2221.61 1325.63 Q2220.97 1326.8 2220.66 1328.57 Q2220.34 1330.84 2220.34 1336.29 Z" fill="#000000" fill-rule="evenodd" fill-opacity="1" /></svg>
