<?xml version="1.0" encoding="utf-8"?>
<svg xmlns="http://www.w3.org/2000/svg" xmlns:xlink="http://www.w3.org/1999/xlink" width="600" height="400" viewBox="0 0 2400 1600">
<defs>
  <clipPath id="clip120">
    <rect x="0" y="0" width="2400" height="1600"/>
  </clipPath>
</defs>
<path clip-path="url(#clip120)" d="
M0 1600 L2400 1600 L2400 0 L0 0  Z
  " fill="#ffffff" fill-rule="evenodd" fill-opacity="1"/>
<defs>
  <clipPath id="clip121">
    <rect x="480" y="0" width="1681" height="1600"/>
  </clipPath>
</defs>
<defs>
  <clipPath id="clip122">
    <rect x="161" y="47" width="1826" height="1397"/>
  </clipPath>
</defs>
<path clip-path="url(#clip120)" d="
M252.956 1439.5 L1718.21 1439.5 L1718.21 47.2441 L252.956 47.2441  Z
  " fill="#ffffff" fill-rule="evenodd" fill-opacity="1"/>
<defs>
  <clipPath id="clip123">
    <rect x="252" y="47" width="1466" height="1393"/>
  </clipPath>
</defs>
<polyline clip-path="url(#clip123)" style="stroke:#000000; stroke-width:2; stroke-opacity:0.1; fill:none" points="
  294.149,1439.5 294.149,47.2441 
  "/>
<polyline clip-path="url(#clip123)" style="stroke:#000000; stroke-width:2; stroke-opacity:0.1; fill:none" points="
  570.667,1439.5 570.667,47.2441 
  "/>
<polyline clip-path="url(#clip123)" style="stroke:#000000; stroke-width:2; stroke-opacity:0.1; fill:none" points="
  847.185,1439.5 847.185,47.2441 
  "/>
<polyline clip-path="url(#clip123)" style="stroke:#000000; stroke-width:2; stroke-opacity:0.1; fill:none" points="
  1123.7,1439.5 1123.7,47.2441 
  "/>
<polyline clip-path="url(#clip123)" style="stroke:#000000; stroke-width:2; stroke-opacity:0.1; fill:none" points="
  1400.22,1439.5 1400.22,47.2441 
  "/>
<polyline clip-path="url(#clip123)" style="stroke:#000000; stroke-width:2; stroke-opacity:0.1; fill:none" points="
  1676.74,1439.5 1676.74,47.2441 
  "/>
<polyline clip-path="url(#clip120)" style="stroke:#000000; stroke-width:4; stroke-opacity:1; fill:none" points="
  252.956,1439.5 1718.21,1439.5 
  "/>
<polyline clip-path="url(#clip120)" style="stroke:#000000; stroke-width:4; stroke-opacity:1; fill:none" points="
  294.149,1439.5 294.149,1422.79 
  "/>
<polyline clip-path="url(#clip120)" style="stroke:#000000; stroke-width:4; stroke-opacity:1; fill:none" points="
  570.667,1439.5 570.667,1422.79 
  "/>
<polyline clip-path="url(#clip120)" style="stroke:#000000; stroke-width:4; stroke-opacity:1; fill:none" points="
  847.185,1439.5 847.185,1422.79 
  "/>
<polyline clip-path="url(#clip120)" style="stroke:#000000; stroke-width:4; stroke-opacity:1; fill:none" points="
  1123.7,1439.5 1123.7,1422.79 
  "/>
<polyline clip-path="url(#clip120)" style="stroke:#000000; stroke-width:4; stroke-opacity:1; fill:none" points="
  1400.22,1439.5 1400.22,1422.79 
  "/>
<polyline clip-path="url(#clip120)" style="stroke:#000000; stroke-width:4; stroke-opacity:1; fill:none" points="
  1676.74,1439.5 1676.74,1422.79 
  "/>
<path clip-path="url(#clip120)" d="M 0 0 M294.149 1468.69 Q290.538 1468.69 288.709 1472.26 Q286.903 1475.8 286.903 1482.93 Q286.903 1490.04 288.709 1493.6 Q290.538 1497.14 294.149 1497.14 Q297.783 1497.14 299.588 1493.6 Q301.417 1490.04 301.417 1482.93 Q301.417 1475.8 299.588 1472.26 Q297.783 1468.69 294.149 1468.69 M294.149 1464.99 Q299.959 1464.99 303.014 1469.6 Q306.093 1474.18 306.093 1482.93 Q306.093 1491.66 303.014 1496.26 Q299.959 1500.85 294.149 1500.85 Q288.339 1500.85 285.26 1496.26 Q282.204 1491.66 282.204 1482.93 Q282.204 1474.18 285.26 1469.6 Q288.339 1464.99 294.149 1464.99 Z" fill="#000000" fill-rule="evenodd" fill-opacity="1" /><path clip-path="url(#clip120)" d="M 0 0 M530.274 1496.24 L537.913 1496.24 L537.913 1469.87 L529.602 1471.54 L529.602 1467.28 L537.866 1465.61 L542.542 1465.61 L542.542 1496.24 L550.181 1496.24 L550.181 1500.17 L530.274 1500.17 L530.274 1496.24 Z" fill="#000000" fill-rule="evenodd" fill-opacity="1" /><path clip-path="url(#clip120)" d="M 0 0 M569.625 1468.69 Q566.014 1468.69 564.186 1472.26 Q562.38 1475.8 562.38 1482.93 Q562.38 1490.04 564.186 1493.6 Q566.014 1497.14 569.625 1497.14 Q573.26 1497.14 575.065 1493.6 Q576.894 1490.04 576.894 1482.93 Q576.894 1475.8 575.065 1472.26 Q573.26 1468.69 569.625 1468.69 M569.625 1464.99 Q575.436 1464.99 578.491 1469.6 Q581.57 1474.18 581.57 1482.93 Q581.57 1491.66 578.491 1496.26 Q575.436 1500.85 569.625 1500.85 Q563.815 1500.85 560.737 1496.26 Q557.681 1491.66 557.681 1482.93 Q557.681 1474.18 560.737 1469.6 Q563.815 1464.99 569.625 1464.99 Z" fill="#000000" fill-rule="evenodd" fill-opacity="1" /><path clip-path="url(#clip120)" d="M 0 0 M599.787 1468.69 Q596.176 1468.69 594.347 1472.26 Q592.542 1475.8 592.542 1482.93 Q592.542 1490.04 594.347 1493.6 Q596.176 1497.14 599.787 1497.14 Q603.422 1497.14 605.227 1493.6 Q607.056 1490.04 607.056 1482.93 Q607.056 1475.8 605.227 1472.26 Q603.422 1468.69 599.787 1468.69 M599.787 1464.99 Q605.597 1464.99 608.653 1469.6 Q611.732 1474.18 611.732 1482.93 Q611.732 1491.66 608.653 1496.26 Q605.597 1500.85 599.787 1500.85 Q593.977 1500.85 590.898 1496.26 Q587.843 1491.66 587.843 1482.93 Q587.843 1474.18 590.898 1469.6 Q593.977 1464.99 599.787 1464.99 Z" fill="#000000" fill-rule="evenodd" fill-opacity="1" /><path clip-path="url(#clip120)" d="M 0 0 M810.878 1496.24 L827.197 1496.24 L827.197 1500.17 L805.253 1500.17 L805.253 1496.24 Q807.915 1493.48 812.498 1488.85 Q817.105 1484.2 818.285 1482.86 Q820.53 1480.34 821.41 1478.6 Q822.313 1476.84 822.313 1475.15 Q822.313 1472.4 820.368 1470.66 Q818.447 1468.92 815.345 1468.92 Q813.146 1468.92 810.693 1469.69 Q808.262 1470.45 805.484 1472 L805.484 1467.28 Q808.308 1466.15 810.762 1465.57 Q813.216 1464.99 815.253 1464.99 Q820.623 1464.99 823.817 1467.67 Q827.012 1470.36 827.012 1474.85 Q827.012 1476.98 826.202 1478.9 Q825.415 1480.8 823.308 1483.39 Q822.73 1484.06 819.628 1487.28 Q816.526 1490.47 810.878 1496.24 Z" fill="#000000" fill-rule="evenodd" fill-opacity="1" /><path clip-path="url(#clip120)" d="M 0 0 M847.012 1468.69 Q843.401 1468.69 841.572 1472.26 Q839.766 1475.8 839.766 1482.93 Q839.766 1490.04 841.572 1493.6 Q843.401 1497.14 847.012 1497.14 Q850.646 1497.14 852.452 1493.6 Q854.28 1490.04 854.28 1482.93 Q854.28 1475.8 852.452 1472.26 Q850.646 1468.69 847.012 1468.69 M847.012 1464.99 Q852.822 1464.99 855.877 1469.6 Q858.956 1474.18 858.956 1482.93 Q858.956 1491.66 855.877 1496.26 Q852.822 1500.85 847.012 1500.85 Q841.202 1500.85 838.123 1496.26 Q835.067 1491.66 835.067 1482.93 Q835.067 1474.18 838.123 1469.6 Q841.202 1464.99 847.012 1464.99 Z" fill="#000000" fill-rule="evenodd" fill-opacity="1" /><path clip-path="url(#clip120)" d="M 0 0 M877.174 1468.69 Q873.563 1468.69 871.734 1472.26 Q869.928 1475.8 869.928 1482.93 Q869.928 1490.04 871.734 1493.6 Q873.563 1497.14 877.174 1497.14 Q880.808 1497.14 882.613 1493.6 Q884.442 1490.04 884.442 1482.93 Q884.442 1475.8 882.613 1472.26 Q880.808 1468.69 877.174 1468.69 M877.174 1464.99 Q882.984 1464.99 886.039 1469.6 Q889.118 1474.18 889.118 1482.93 Q889.118 1491.66 886.039 1496.26 Q882.984 1500.85 877.174 1500.85 Q871.364 1500.85 868.285 1496.26 Q865.229 1491.66 865.229 1482.93 Q865.229 1474.18 868.285 1469.6 Q871.364 1464.99 877.174 1464.99 Z" fill="#000000" fill-rule="evenodd" fill-opacity="1" /><path clip-path="url(#clip120)" d="M 0 0 M1097.47 1481.54 Q1100.82 1482.26 1102.7 1484.53 Q1104.6 1486.79 1104.6 1490.13 Q1104.6 1495.24 1101.08 1498.04 Q1097.56 1500.85 1091.08 1500.85 Q1088.9 1500.85 1086.59 1500.41 Q1084.29 1499.99 1081.84 1499.13 L1081.84 1494.62 Q1083.79 1495.75 1086.1 1496.33 Q1088.41 1496.91 1090.94 1496.91 Q1095.34 1496.91 1097.63 1495.17 Q1099.94 1493.44 1099.94 1490.13 Q1099.94 1487.07 1097.79 1485.36 Q1095.66 1483.62 1091.84 1483.62 L1087.81 1483.62 L1087.81 1479.78 L1092.03 1479.78 Q1095.47 1479.78 1097.3 1478.41 Q1099.13 1477.03 1099.13 1474.43 Q1099.13 1471.77 1097.23 1470.36 Q1095.36 1468.92 1091.84 1468.92 Q1089.92 1468.92 1087.72 1469.34 Q1085.52 1469.76 1082.88 1470.64 L1082.88 1466.47 Q1085.54 1465.73 1087.86 1465.36 Q1090.2 1464.99 1092.26 1464.99 Q1097.58 1464.99 1100.68 1467.42 Q1103.78 1469.83 1103.78 1473.95 Q1103.78 1476.82 1102.14 1478.81 Q1100.5 1480.78 1097.47 1481.54 Z" fill="#000000" fill-rule="evenodd" fill-opacity="1" /><path clip-path="url(#clip120)" d="M 0 0 M1123.46 1468.69 Q1119.85 1468.69 1118.02 1472.26 Q1116.22 1475.8 1116.22 1482.93 Q1116.22 1490.04 1118.02 1493.6 Q1119.85 1497.14 1123.46 1497.14 Q1127.09 1497.14 1128.9 1493.6 Q1130.73 1490.04 1130.73 1482.93 Q1130.73 1475.8 1128.9 1472.26 Q1127.09 1468.69 1123.46 1468.69 M1123.46 1464.99 Q1129.27 1464.99 1132.33 1469.6 Q1135.41 1474.18 1135.41 1482.93 Q1135.41 1491.66 1132.33 1496.26 Q1129.27 1500.85 1123.46 1500.85 Q1117.65 1500.85 1114.57 1496.26 Q1111.52 1491.66 1111.52 1482.93 Q1111.52 1474.18 1114.57 1469.6 Q1117.65 1464.99 1123.46 1464.99 Z" fill="#000000" fill-rule="evenodd" fill-opacity="1" /><path clip-path="url(#clip120)" d="M 0 0 M1153.62 1468.69 Q1150.01 1468.69 1148.18 1472.26 Q1146.38 1475.8 1146.38 1482.93 Q1146.38 1490.04 1148.18 1493.6 Q1150.01 1497.14 1153.62 1497.14 Q1157.26 1497.14 1159.06 1493.6 Q1160.89 1490.04 1160.89 1482.93 Q1160.89 1475.8 1159.06 1472.26 Q1157.26 1468.69 1153.62 1468.69 M1153.62 1464.99 Q1159.43 1464.99 1162.49 1469.6 Q1165.57 1474.18 1165.57 1482.93 Q1165.57 1491.66 1162.49 1496.26 Q1159.43 1500.85 1153.62 1500.85 Q1147.81 1500.85 1144.73 1496.26 Q1141.68 1491.66 1141.68 1482.93 Q1141.68 1474.18 1144.73 1469.6 Q1147.81 1464.99 1153.62 1464.99 Z" fill="#000000" fill-rule="evenodd" fill-opacity="1" /><path clip-path="url(#clip120)" d="M 0 0 M1373.31 1469.69 L1361.51 1488.14 L1373.31 1488.14 L1373.31 1469.69 M1372.09 1465.61 L1377.97 1465.61 L1377.97 1488.14 L1382.9 1488.14 L1382.9 1492.03 L1377.97 1492.03 L1377.97 1500.17 L1373.31 1500.17 L1373.31 1492.03 L1357.71 1492.03 L1357.71 1487.51 L1372.09 1465.61 Z" fill="#000000" fill-rule="evenodd" fill-opacity="1" /><path clip-path="url(#clip120)" d="M 0 0 M1400.63 1468.69 Q1397.02 1468.69 1395.19 1472.26 Q1393.38 1475.8 1393.38 1482.93 Q1393.38 1490.04 1395.19 1493.6 Q1397.02 1497.14 1400.63 1497.14 Q1404.26 1497.14 1406.07 1493.6 Q1407.9 1490.04 1407.9 1482.93 Q1407.9 1475.8 1406.07 1472.26 Q1404.26 1468.69 1400.63 1468.69 M1400.63 1464.99 Q1406.44 1464.99 1409.49 1469.6 Q1412.57 1474.18 1412.57 1482.93 Q1412.57 1491.66 1409.49 1496.26 Q1406.44 1500.85 1400.63 1500.85 Q1394.82 1500.85 1391.74 1496.26 Q1388.68 1491.66 1388.68 1482.93 Q1388.68 1474.18 1391.74 1469.6 Q1394.82 1464.99 1400.63 1464.99 Z" fill="#000000" fill-rule="evenodd" fill-opacity="1" /><path clip-path="url(#clip120)" d="M 0 0 M1430.79 1468.69 Q1427.18 1468.69 1425.35 1472.26 Q1423.54 1475.8 1423.54 1482.93 Q1423.54 1490.04 1425.35 1493.6 Q1427.18 1497.14 1430.79 1497.14 Q1434.42 1497.14 1436.23 1493.6 Q1438.06 1490.04 1438.06 1482.93 Q1438.06 1475.8 1436.23 1472.26 Q1434.42 1468.69 1430.79 1468.69 M1430.79 1464.99 Q1436.6 1464.99 1439.65 1469.6 Q1442.73 1474.18 1442.73 1482.93 Q1442.73 1491.66 1439.65 1496.26 Q1436.6 1500.85 1430.79 1500.85 Q1424.98 1500.85 1421.9 1496.26 Q1418.84 1491.66 1418.84 1482.93 Q1418.84 1474.18 1421.9 1469.6 Q1424.98 1464.99 1430.79 1464.99 Z" fill="#000000" fill-rule="evenodd" fill-opacity="1" /><path clip-path="url(#clip120)" d="M 0 0 M1636.36 1465.61 L1654.72 1465.61 L1654.72 1469.55 L1640.64 1469.55 L1640.64 1478.02 Q1641.66 1477.67 1642.68 1477.51 Q1643.7 1477.33 1644.72 1477.33 Q1650.5 1477.33 1653.88 1480.5 Q1657.26 1483.67 1657.26 1489.09 Q1657.26 1494.66 1653.79 1497.77 Q1650.32 1500.85 1644 1500.85 Q1641.82 1500.85 1639.55 1500.47 Q1637.31 1500.1 1634.9 1499.36 L1634.9 1494.66 Q1636.98 1495.8 1639.21 1496.35 Q1641.43 1496.91 1643.91 1496.91 Q1647.91 1496.91 1650.25 1494.8 Q1652.59 1492.7 1652.59 1489.09 Q1652.59 1485.47 1650.25 1483.37 Q1647.91 1481.26 1643.91 1481.26 Q1642.03 1481.26 1640.16 1481.68 Q1638.3 1482.1 1636.36 1482.97 L1636.36 1465.61 Z" fill="#000000" fill-rule="evenodd" fill-opacity="1" /><path clip-path="url(#clip120)" d="M 0 0 M1676.47 1468.69 Q1672.86 1468.69 1671.03 1472.26 Q1669.23 1475.8 1669.23 1482.93 Q1669.23 1490.04 1671.03 1493.6 Q1672.86 1497.14 1676.47 1497.14 Q1680.11 1497.14 1681.91 1493.6 Q1683.74 1490.04 1683.74 1482.93 Q1683.74 1475.8 1681.91 1472.26 Q1680.11 1468.69 1676.47 1468.69 M1676.47 1464.99 Q1682.28 1464.99 1685.34 1469.6 Q1688.42 1474.18 1688.42 1482.93 Q1688.42 1491.66 1685.34 1496.26 Q1682.28 1500.85 1676.47 1500.85 Q1670.66 1500.85 1667.59 1496.26 Q1664.53 1491.66 1664.53 1482.93 Q1664.53 1474.18 1667.59 1469.6 Q1670.66 1464.99 1676.47 1464.99 Z" fill="#000000" fill-rule="evenodd" fill-opacity="1" /><path clip-path="url(#clip120)" d="M 0 0 M1706.64 1468.69 Q1703.03 1468.69 1701.2 1472.26 Q1699.39 1475.8 1699.39 1482.93 Q1699.39 1490.04 1701.2 1493.6 Q1703.03 1497.14 1706.64 1497.14 Q1710.27 1497.14 1712.08 1493.6 Q1713.9 1490.04 1713.9 1482.93 Q1713.9 1475.8 1712.08 1472.26 Q1710.27 1468.69 1706.64 1468.69 M1706.64 1464.99 Q1712.45 1464.99 1715.5 1469.6 Q1718.58 1474.18 1718.58 1482.93 Q1718.58 1491.66 1715.5 1496.26 Q1712.45 1500.85 1706.64 1500.85 Q1700.83 1500.85 1697.75 1496.26 Q1694.69 1491.66 1694.69 1482.93 Q1694.69 1474.18 1697.75 1469.6 Q1700.83 1464.99 1706.64 1464.99 Z" fill="#000000" fill-rule="evenodd" fill-opacity="1" /><path clip-path="url(#clip120)" d="M 0 0 M997.518 1535.75 Q997.518 1541.16 995.779 1547.24 Q994.072 1553.3 991.366 1558.19 Q988.661 1563.06 985.118 1566.28 Q981.576 1569.47 978.194 1569.47 Q976.036 1569.47 974.426 1568.27 Q972.848 1567.05 971.978 1565.02 Q971.109 1562.96 970.69 1560.71 Q970.272 1558.42 970.272 1555.94 Q970.272 1552.24 971.077 1548.21 Q971.882 1544.15 973.235 1540.48 Q974.587 1536.78 976.487 1533.43 Q978.387 1530.05 980.481 1527.6 Q982.606 1525.12 984.99 1523.67 Q987.373 1522.22 989.595 1522.22 Q991.205 1522.22 992.494 1522.93 Q993.814 1523.6 994.651 1524.8 Q995.489 1525.96 996.068 1527.34 Q996.68 1528.73 996.97 1530.34 Q997.26 1531.91 997.389 1533.23 Q997.518 1534.52 997.518 1535.75 M993.17 1531.66 Q993.17 1530.01 993.041 1528.79 Q992.912 1527.53 992.558 1526.28 Q992.204 1525.02 991.431 1524.35 Q990.69 1523.67 989.531 1523.67 Q986.149 1523.67 982.349 1530.59 Q981.125 1532.75 980.03 1535.68 Q978.935 1538.61 978.548 1540 Q978.162 1541.38 977.26 1544.8 L991.044 1544.8 Q993.17 1536 993.17 1531.66 M990.465 1546.89 L976.745 1546.89 Q974.619 1554.94 974.619 1559.96 Q974.619 1564.34 975.521 1566.18 Q976.455 1567.98 978.194 1567.98 Q980.191 1567.98 982.059 1565.99 Q983.927 1563.96 985.827 1560.29 Q988.339 1555.52 990.465 1546.89 Z" fill="#000000" fill-rule="evenodd" fill-opacity="1" /><polyline clip-path="url(#clip123)" style="stroke:#000000; stroke-width:2; stroke-opacity:0.1; fill:none" points="
  252.956,1214.8 1718.21,1214.8 
  "/>
<polyline clip-path="url(#clip123)" style="stroke:#000000; stroke-width:2; stroke-opacity:0.1; fill:none" points="
  252.956,936.798 1718.21,936.798 
  "/>
<polyline clip-path="url(#clip123)" style="stroke:#000000; stroke-width:2; stroke-opacity:0.1; fill:none" points="
  252.956,658.8 1718.21,658.8 
  "/>
<polyline clip-path="url(#clip123)" style="stroke:#000000; stroke-width:2; stroke-opacity:0.1; fill:none" points="
  252.956,380.802 1718.21,380.802 
  "/>
<polyline clip-path="url(#clip123)" style="stroke:#000000; stroke-width:2; stroke-opacity:0.1; fill:none" points="
  252.956,102.804 1718.21,102.804 
  "/>
<polyline clip-path="url(#clip120)" style="stroke:#000000; stroke-width:4; stroke-opacity:1; fill:none" points="
  252.956,1439.5 252.956,47.2441 
  "/>
<polyline clip-path="url(#clip120)" style="stroke:#000000; stroke-width:4; stroke-opacity:1; fill:none" points="
  252.956,1214.8 270.539,1214.8 
  "/>
<polyline clip-path="url(#clip120)" style="stroke:#000000; stroke-width:4; stroke-opacity:1; fill:none" points="
  252.956,936.798 270.539,936.798 
  "/>
<polyline clip-path="url(#clip120)" style="stroke:#000000; stroke-width:4; stroke-opacity:1; fill:none" points="
  252.956,658.8 270.539,658.8 
  "/>
<polyline clip-path="url(#clip120)" style="stroke:#000000; stroke-width:4; stroke-opacity:1; fill:none" points="
  252.956,380.802 270.539,380.802 
  "/>
<polyline clip-path="url(#clip120)" style="stroke:#000000; stroke-width:4; stroke-opacity:1; fill:none" points="
  252.956,102.804 270.539,102.804 
  "/>
<path clip-path="url(#clip120)" d="M 0 0 M159.294 1200.6 Q155.683 1200.6 153.854 1204.16 Q152.049 1207.7 152.049 1214.83 Q152.049 1221.94 153.854 1225.5 Q155.683 1229.04 159.294 1229.04 Q162.928 1229.04 164.734 1225.5 Q166.562 1221.94 166.562 1214.83 Q166.562 1207.7 164.734 1204.16 Q162.928 1200.6 159.294 1200.6 M159.294 1196.89 Q165.104 1196.89 168.16 1201.5 Q171.238 1206.08 171.238 1214.83 Q171.238 1223.56 168.16 1228.16 Q165.104 1232.75 159.294 1232.75 Q153.484 1232.75 150.405 1228.16 Q147.35 1223.56 147.35 1214.83 Q147.35 1206.08 150.405 1201.5 Q153.484 1196.89 159.294 1196.89 Z" fill="#000000" fill-rule="evenodd" fill-opacity="1" /><path clip-path="url(#clip120)" d="M 0 0 M179.456 1226.2 L184.34 1226.2 L184.34 1232.08 L179.456 1232.08 L179.456 1226.2 Z" fill="#000000" fill-rule="evenodd" fill-opacity="1" /><path clip-path="url(#clip120)" d="M 0 0 M207.372 1201.59 L195.567 1220.04 L207.372 1220.04 L207.372 1201.59 M206.146 1197.52 L212.025 1197.52 L212.025 1220.04 L216.956 1220.04 L216.956 1223.93 L212.025 1223.93 L212.025 1232.08 L207.372 1232.08 L207.372 1223.93 L191.771 1223.93 L191.771 1219.41 L206.146 1197.52 Z" fill="#000000" fill-rule="evenodd" fill-opacity="1" /><path clip-path="url(#clip120)" d="M 0 0 M159.618 922.597 Q156.007 922.597 154.178 926.162 Q152.373 929.703 152.373 936.833 Q152.373 943.939 154.178 947.504 Q156.007 951.046 159.618 951.046 Q163.252 951.046 165.058 947.504 Q166.887 943.939 166.887 936.833 Q166.887 929.703 165.058 926.162 Q163.252 922.597 159.618 922.597 M159.618 918.893 Q165.428 918.893 168.484 923.5 Q171.562 928.083 171.562 936.833 Q171.562 945.56 168.484 950.166 Q165.428 954.75 159.618 954.75 Q153.808 954.75 150.729 950.166 Q147.674 945.56 147.674 936.833 Q147.674 928.083 150.729 923.5 Q153.808 918.893 159.618 918.893 Z" fill="#000000" fill-rule="evenodd" fill-opacity="1" /><path clip-path="url(#clip120)" d="M 0 0 M179.78 948.199 L184.664 948.199 L184.664 954.078 L179.78 954.078 L179.78 948.199 Z" fill="#000000" fill-rule="evenodd" fill-opacity="1" /><path clip-path="url(#clip120)" d="M 0 0 M205.428 934.935 Q202.28 934.935 200.428 937.088 Q198.599 939.24 198.599 942.99 Q198.599 946.717 200.428 948.893 Q202.28 951.046 205.428 951.046 Q208.576 951.046 210.405 948.893 Q212.257 946.717 212.257 942.99 Q212.257 939.24 210.405 937.088 Q208.576 934.935 205.428 934.935 M214.71 920.282 L214.71 924.541 Q212.951 923.708 211.146 923.268 Q209.363 922.828 207.604 922.828 Q202.974 922.828 200.521 925.953 Q198.09 929.078 197.743 935.398 Q199.109 933.384 201.169 932.319 Q203.229 931.231 205.706 931.231 Q210.914 931.231 213.923 934.402 Q216.956 937.551 216.956 942.99 Q216.956 948.314 213.808 951.532 Q210.659 954.75 205.428 954.75 Q199.433 954.75 196.261 950.166 Q193.09 945.56 193.09 936.833 Q193.09 928.639 196.979 923.778 Q200.868 918.893 207.419 918.893 Q209.178 918.893 210.96 919.241 Q212.766 919.588 214.71 920.282 Z" fill="#000000" fill-rule="evenodd" fill-opacity="1" /><path clip-path="url(#clip120)" d="M 0 0 M159.873 644.599 Q156.262 644.599 154.433 648.164 Q152.627 651.705 152.627 658.835 Q152.627 665.941 154.433 669.506 Q156.262 673.048 159.873 673.048 Q163.507 673.048 165.313 669.506 Q167.141 665.941 167.141 658.835 Q167.141 651.705 165.313 648.164 Q163.507 644.599 159.873 644.599 M159.873 640.895 Q165.683 640.895 168.738 645.502 Q171.817 650.085 171.817 658.835 Q171.817 667.562 168.738 672.168 Q165.683 676.751 159.873 676.751 Q154.063 676.751 150.984 672.168 Q147.928 667.562 147.928 658.835 Q147.928 650.085 150.984 645.502 Q154.063 640.895 159.873 640.895 Z" fill="#000000" fill-rule="evenodd" fill-opacity="1" /><path clip-path="url(#clip120)" d="M 0 0 M180.035 670.201 L184.919 670.201 L184.919 676.08 L180.035 676.08 L180.035 670.201 Z" fill="#000000" fill-rule="evenodd" fill-opacity="1" /><path clip-path="url(#clip120)" d="M 0 0 M205.104 659.668 Q201.771 659.668 199.849 661.451 Q197.951 663.233 197.951 666.358 Q197.951 669.483 199.849 671.265 Q201.771 673.048 205.104 673.048 Q208.437 673.048 210.359 671.265 Q212.28 669.46 212.28 666.358 Q212.28 663.233 210.359 661.451 Q208.46 659.668 205.104 659.668 M200.428 657.677 Q197.419 656.937 195.729 654.877 Q194.062 652.816 194.062 649.853 Q194.062 645.71 197.002 643.303 Q199.965 640.895 205.104 640.895 Q210.266 640.895 213.206 643.303 Q216.146 645.71 216.146 649.853 Q216.146 652.816 214.456 654.877 Q212.789 656.937 209.803 657.677 Q213.183 658.464 215.058 660.756 Q216.956 663.048 216.956 666.358 Q216.956 671.381 213.877 674.066 Q210.822 676.751 205.104 676.751 Q199.386 676.751 196.308 674.066 Q193.252 671.381 193.252 666.358 Q193.252 663.048 195.15 660.756 Q197.048 658.464 200.428 657.677 M198.715 650.293 Q198.715 652.978 200.382 654.483 Q202.072 655.988 205.104 655.988 Q208.113 655.988 209.803 654.483 Q211.516 652.978 211.516 650.293 Q211.516 647.608 209.803 646.103 Q208.113 644.599 205.104 644.599 Q202.072 644.599 200.382 646.103 Q198.715 647.608 198.715 650.293 Z" fill="#000000" fill-rule="evenodd" fill-opacity="1" /><path clip-path="url(#clip120)" d="M 0 0 M150.59 394.147 L158.229 394.147 L158.229 367.781 L149.919 369.448 L149.919 365.189 L158.183 363.522 L162.859 363.522 L162.859 394.147 L170.498 394.147 L170.498 398.082 L150.59 398.082 L150.59 394.147 Z" fill="#000000" fill-rule="evenodd" fill-opacity="1" /><path clip-path="url(#clip120)" d="M 0 0 M179.942 392.202 L184.826 392.202 L184.826 398.082 L179.942 398.082 L179.942 392.202 Z" fill="#000000" fill-rule="evenodd" fill-opacity="1" /><path clip-path="url(#clip120)" d="M 0 0 M205.011 366.601 Q201.4 366.601 199.572 370.165 Q197.766 373.707 197.766 380.837 Q197.766 387.943 199.572 391.508 Q201.4 395.05 205.011 395.05 Q208.646 395.05 210.451 391.508 Q212.28 387.943 212.28 380.837 Q212.28 373.707 210.451 370.165 Q208.646 366.601 205.011 366.601 M205.011 362.897 Q210.822 362.897 213.877 367.503 Q216.956 372.087 216.956 380.837 Q216.956 389.563 213.877 394.17 Q210.822 398.753 205.011 398.753 Q199.201 398.753 196.123 394.17 Q193.067 389.563 193.067 380.837 Q193.067 372.087 196.123 367.503 Q199.201 362.897 205.011 362.897 Z" fill="#000000" fill-rule="evenodd" fill-opacity="1" /><path clip-path="url(#clip120)" d="M 0 0 M152.188 116.149 L159.826 116.149 L159.826 89.783 L151.516 91.4496 L151.516 87.1904 L159.78 85.5238 L164.456 85.5238 L164.456 116.149 L172.095 116.149 L172.095 120.084 L152.188 120.084 L152.188 116.149 Z" fill="#000000" fill-rule="evenodd" fill-opacity="1" /><path clip-path="url(#clip120)" d="M 0 0 M181.539 114.204 L186.424 114.204 L186.424 120.084 L181.539 120.084 L181.539 114.204 Z" fill="#000000" fill-rule="evenodd" fill-opacity="1" /><path clip-path="url(#clip120)" d="M 0 0 M200.636 116.149 L216.956 116.149 L216.956 120.084 L195.011 120.084 L195.011 116.149 Q197.673 113.394 202.257 108.764 Q206.863 104.112 208.044 102.769 Q210.289 100.246 211.169 98.5098 Q212.072 96.7505 212.072 95.0607 Q212.072 92.3061 210.127 90.57 Q208.206 88.8339 205.104 88.8339 Q202.905 88.8339 200.451 89.5978 Q198.021 90.3617 195.243 91.9126 L195.243 87.1904 Q198.067 86.0562 200.521 85.4775 Q202.974 84.8988 205.011 84.8988 Q210.382 84.8988 213.576 87.5839 Q216.771 90.2691 216.771 94.7598 Q216.771 96.8894 215.96 98.8107 Q215.173 100.709 213.067 103.301 Q212.488 103.973 209.386 107.19 Q206.285 110.385 200.636 116.149 Z" fill="#000000" fill-rule="evenodd" fill-opacity="1" /><path clip-path="url(#clip120)" d="M 0 0 M60.9719 942.374 L77.3969 948.043 L77.3969 1002.73 Q77.3969 1003.47 77.3647 1003.76 Q77.3325 1004.05 77.1714 1004.27 Q77.0104 1004.5 76.6561 1004.5 Q76.3663 1004.5 75.6255 1003.92 L46.6725 980.506 L13.5648 1004.56 Q12.0512 1004.56 11.7613 1004.31 Q11.4393 1004.05 11.4393 1002.73 L11.4393 948.043 L26.8659 942.374 L26.8659 944.017 Q24.8691 944.758 23.1944 945.949 Q21.4875 947.109 20.2637 948.461 Q19.0398 949.782 18.0737 951.521 Q17.0753 953.228 16.4634 954.838 Q15.8193 956.416 15.3684 958.381 Q14.8853 960.345 14.6598 961.923 Q14.4022 963.469 14.2734 965.402 Q14.1446 967.334 14.1123 968.558 Q14.0801 969.782 14.0801 971.327 L14.0801 997.446 L43.4841 976.03 Q44.2248 975.546 44.4181 975.546 Q44.7079 975.546 45.4809 976.158 L73.7576 999.024 L73.7576 971.005 Q73.7576 961.988 71.8575 955.708 Q70.4082 951.456 67.5419 948.365 Q64.6756 945.241 60.9719 944.017 L60.9719 942.374 Z" fill="#000000" fill-rule="evenodd" fill-opacity="1" /><path clip-path="url(#clip120)" d="M 0 0 M103.539 1013.55 Q104.17 1013.55 104.328 1013.85 Q104.463 1014.14 104.463 1014.95 L104.463 1019.28 L118.08 1022.7 Q119.275 1022.98 120.289 1022.98 Q121.417 1022.98 121.913 1022.64 Q122.408 1022.28 122.408 1021.53 Q122.408 1020.07 121.078 1018.49 Q119.748 1016.89 116.502 1015.54 Q116.074 1015.36 115.983 1015.27 Q115.871 1015.15 115.871 1014.86 Q115.871 1014.3 116.322 1014.3 Q116.479 1014.3 117.201 1014.61 Q117.922 1014.9 118.982 1015.56 Q120.041 1016.19 121.033 1017.02 Q122.025 1017.84 122.747 1019.08 Q123.446 1020.32 123.446 1021.65 Q123.446 1023.52 122.251 1024.71 Q121.056 1025.88 119.185 1025.88 Q118.576 1025.88 116.637 1025.41 Q114.676 1024.94 104.463 1022.37 L104.463 1026.45 Q104.463 1027.01 104.441 1027.24 Q104.418 1027.44 104.306 1027.6 Q104.17 1027.73 103.9 1027.73 Q103.471 1027.73 103.291 1027.55 Q103.088 1027.37 103.066 1027.15 Q103.021 1026.9 103.021 1026.33 L103.021 1022.01 L95.6937 1020.2 Q94.9723 1020.02 94.5665 1019.57 Q94.1382 1019.1 94.0931 1018.83 Q94.0255 1018.56 94.0255 1018.35 Q94.0255 1017.75 94.3636 1017.38 Q94.6792 1017.02 95.2654 1017.02 Q95.581 1017.02 103.021 1018.92 L103.021 1014.86 Q103.021 1014.34 103.043 1014.14 Q103.066 1013.91 103.178 1013.73 Q103.291 1013.55 103.539 1013.55 Z" fill="#000000" fill-rule="evenodd" fill-opacity="1" /><path clip-path="url(#clip120)" d="M 0 0 M115.916 998.419 Q115.352 998.374 115.352 997.495 L115.352 969.202 Q115.352 967.872 115.871 967.85 Q116.434 967.85 116.412 969.112 L116.412 997.179 Q116.434 998.419 115.916 998.419 M106.898 998.419 Q106.335 998.419 106.357 997.45 L106.357 969.247 Q106.357 967.872 106.898 967.85 Q107.417 967.85 107.417 969.022 L107.417 997.495 Q107.417 998.419 106.898 998.419 Z" fill="#000000" fill-rule="evenodd" fill-opacity="1" /><path clip-path="url(#clip120)" d="M 0 0 M96.5729 950.037 L95.1301 950.037 Q95.1301 944.492 92.1768 941.629 Q92.1768 940.839 92.3572 940.704 Q92.5375 940.569 93.3717 940.569 L119.275 940.569 Q120.65 940.569 121.078 939.893 Q121.507 939.216 121.507 936.263 L121.507 934.798 L122.927 934.798 Q122.792 936.421 122.792 942.282 Q122.792 948.144 122.927 949.744 L121.507 949.744 L121.507 948.279 Q121.507 945.371 121.101 944.672 Q120.673 943.973 119.275 943.973 L95.3556 943.973 Q96.5729 946.385 96.5729 950.037 Z" fill="#000000" fill-rule="evenodd" fill-opacity="1" /><path clip-path="url(#clip120)" d="M 0 0 M16.9787 875.27 Q17.5906 875.27 18.1059 875.399 L29.5712 877.202 Q30.4407 877.299 30.7628 877.492 Q31.0848 877.653 31.0848 878.168 Q31.0848 878.974 30.2475 878.974 Q29.7644 878.974 28.9915 878.78 Q25.3522 878.233 23.7097 878.233 Q22.6147 878.233 21.8095 878.458 Q20.9722 878.651 20.3925 878.974 Q19.8128 879.263 19.4263 879.94 Q19.0398 880.616 18.8144 881.26 Q18.589 881.904 18.4923 883.064 Q18.3635 884.223 18.3313 885.221 Q18.2991 886.22 18.2991 887.862 Q18.2991 891.437 18.4279 892.017 Q18.589 892.629 19.0721 892.951 Q19.5229 893.241 20.8756 893.563 L55.8834 902.323 L57.2682 902.58 Q58.0411 902.58 58.2988 902.097 Q58.5564 901.614 58.7175 900.133 Q58.8785 898.007 58.8785 895.914 Q58.8785 895.849 58.8785 895.721 Q58.8785 895.012 58.9107 894.722 Q58.9107 894.432 58.9751 894.142 Q59.0395 893.853 59.2006 893.788 Q59.3294 893.692 59.587 893.692 Q60.1989 893.692 60.521 893.949 Q60.8108 894.207 60.8753 894.465 Q60.9075 894.69 60.9075 895.141 Q60.9075 896.043 60.8431 897.975 Q60.7786 899.907 60.7786 900.874 L60.7142 906.349 L60.7786 911.952 Q60.7786 912.822 60.8431 914.658 Q60.9075 916.493 60.9075 917.363 Q60.9075 918.49 60.1023 918.49 Q59.2006 918.49 59.0395 918.071 Q58.8785 917.621 58.8785 915.72 Q58.8785 913.047 58.7497 911.598 Q58.6208 910.149 58.17 909.376 Q57.7191 908.571 57.2682 908.345 Q56.7851 908.12 55.6901 907.862 L20.4891 899.006 Q19.7162 898.748 19.1043 898.748 Q18.7822 898.748 18.6534 898.845 Q18.5246 898.909 18.4279 899.328 Q18.2991 899.746 18.2991 900.616 L18.2991 903.192 Q18.2991 905.833 18.4279 907.476 Q18.5246 909.086 19.0076 910.632 Q19.4907 912.146 20.1671 913.047 Q20.8434 913.917 22.2282 914.883 Q23.6131 915.849 25.2878 916.558 Q26.9625 917.234 29.7 918.2 Q30.6017 918.522 30.8594 918.716 Q31.0848 918.877 31.0848 919.327 Q31.0848 919.65 30.8916 919.907 Q30.6662 920.133 30.3763 920.133 Q29.3135 919.811 29.1847 919.746 L17.5584 915.785 Q16.6244 915.463 16.4634 915.173 Q16.2701 914.851 16.2701 913.659 L16.2701 877.073 Q16.2701 876.494 16.2701 876.3 Q16.2701 876.107 16.3346 875.785 Q16.399 875.463 16.56 875.366 Q16.721 875.27 16.9787 875.27 Z" fill="#000000" fill-rule="evenodd" fill-opacity="1" /><path clip-path="url(#clip120)" d="M 0 0 M8.06077 850.294 L8.98508 850.858 Q7.47462 854.352 5.0624 858.703 Q7.47462 863.054 8.98508 866.548 L8.06077 867.089 Q4.74679 863.279 2.1993 858.703 Q4.76933 854.081 8.06077 850.294 Z" fill="#000000" fill-rule="evenodd" fill-opacity="1" /><path clip-path="url(#clip120)" d="M 0 0 M16.6566 834.027 Q17.0753 834.027 17.3329 834.124 Q17.5906 834.189 17.7194 834.446 Q17.816 834.672 17.8482 834.833 Q17.8804 834.961 17.9126 835.348 Q18.0415 836.926 18.4601 838.246 Q18.8466 839.567 19.6196 840.694 Q20.3925 841.789 20.9078 842.401 Q21.4231 842.981 22.4537 844.011 L23.3876 844.913 L42.1637 861.274 Q42.8078 861.853 44.2248 862.208 L53.5323 864.526 Q57.397 865.428 57.6869 865.428 Q58.2666 865.428 58.4598 865.106 Q58.6208 864.752 58.7175 863.657 L58.8785 861.145 Q58.8785 859.663 59.1361 859.438 Q59.2972 859.309 59.587 859.309 Q60.1989 859.309 60.521 859.567 Q60.8108 859.792 60.8753 860.018 Q60.9075 860.211 60.9075 860.565 L60.7142 869.003 L60.9075 877.312 Q60.9075 878.246 60.1667 878.246 Q59.6836 878.246 59.426 878.182 Q59.1361 878.085 59.0395 877.795 Q58.9107 877.505 58.9107 877.28 Q58.8785 877.055 58.8785 876.443 Q58.8463 874.961 58.8463 874.22 Q58.8141 873.447 58.6208 872.707 Q58.4276 871.966 58.2988 871.708 Q58.1378 871.418 57.5903 871.096 Q57.0106 870.742 56.5597 870.646 Q56.1088 870.517 54.9816 870.259 Q53.9832 870.001 48.5404 868.649 Q43.0976 867.296 42.9688 867.296 Q42.6145 867.296 41.8416 867.554 L20.1348 875.67 Q19.1687 876.024 18.7822 876.314 Q18.3957 876.604 18.1703 877.57 Q17.9126 878.536 17.9126 880.468 Q17.9126 881.016 17.8804 881.273 Q17.8482 881.531 17.6872 881.757 Q17.5262 881.982 17.1719 881.982 Q16.56 881.982 16.2701 881.724 Q15.9481 881.467 15.9159 881.273 Q15.8515 881.048 15.8515 880.726 Q15.8515 879.921 15.9481 877.055 Q16.0447 874.188 16.0447 873.351 L15.8515 865.042 Q15.8515 864.043 16.5922 864.043 Q17.494 864.043 17.7194 864.398 Q17.9126 864.752 17.9126 865.621 Q17.9126 869.518 19.4907 869.518 Q19.684 869.518 20.6179 869.132 L40.1991 861.886 L22.5825 846.588 L22.3248 846.362 Q22.0672 846.169 21.874 846.008 Q21.6807 845.847 21.3265 845.589 Q20.9722 845.332 20.6823 845.203 Q20.3925 845.042 20.0382 844.913 Q19.684 844.784 19.4263 844.784 Q18.9432 844.784 18.6212 845.074 Q18.2669 845.364 18.1381 845.815 Q18.0093 846.266 17.9771 846.588 Q17.9126 846.91 17.9126 847.167 Q17.9126 848.166 17.1075 848.166 Q16.5278 848.166 16.2379 847.908 Q15.9159 847.651 15.8837 847.457 Q15.8515 847.232 15.8515 846.91 Q15.8515 845.847 15.9481 843.625 Q16.0447 841.403 16.0447 840.308 Q16.0447 839.406 15.9481 837.57 Q15.8515 835.734 15.8515 834.897 Q15.8515 834.027 16.6566 834.027 Z" fill="#000000" fill-rule="evenodd" fill-opacity="1" /><path clip-path="url(#clip120)" d="M 0 0 M58.6936 822.834 Q59.3248 822.834 59.4826 823.128 Q59.6179 823.421 59.6179 824.232 L59.6179 828.561 L73.2345 831.987 Q74.4294 832.258 75.4439 832.258 Q76.5711 832.258 77.067 831.92 Q77.563 831.559 77.563 830.815 Q77.563 829.35 76.2329 827.772 Q74.9028 826.171 71.6565 824.818 Q71.2281 824.638 71.1379 824.548 Q71.0252 824.435 71.0252 824.142 Q71.0252 823.578 71.4761 823.578 Q71.6339 823.578 72.3553 823.894 Q73.0767 824.187 74.1363 824.841 Q75.1959 825.472 76.1878 826.306 Q77.1798 827.118 77.9012 828.358 Q78.6 829.598 78.6 830.928 Q78.6 832.799 77.4052 833.994 Q76.2104 835.166 74.3392 835.166 Q73.7305 835.166 71.7917 834.693 Q69.8304 834.219 59.6179 831.649 L59.6179 835.73 Q59.6179 836.293 59.5954 836.519 Q59.5728 836.722 59.4601 836.879 Q59.3248 837.015 59.0543 837.015 Q58.626 837.015 58.4456 836.834 Q58.2427 836.654 58.2202 836.429 Q58.1751 836.181 58.1751 835.617 L58.1751 831.289 L50.8483 829.485 Q50.1268 829.305 49.721 828.854 Q49.2927 828.38 49.2476 828.11 Q49.18 827.839 49.18 827.636 Q49.18 827.028 49.5181 826.667 Q49.8338 826.306 50.4199 826.306 Q50.7355 826.306 58.1751 828.2 L58.1751 824.142 Q58.1751 823.624 58.1976 823.421 Q58.2202 823.195 58.3329 823.015 Q58.4456 822.834 58.6936 822.834 Z" fill="#000000" fill-rule="evenodd" fill-opacity="1" /><path clip-path="url(#clip120)" d="M 0 0 M42.9564 813.474 Q32.3142 813.474 23.7328 809.506 Q20.1342 807.814 17.1199 805.446 Q14.1057 803.078 12.7831 801.509 Q11.4605 799.94 11.4605 799.51 Q11.4605 798.894 12.0756 798.864 Q12.3832 798.864 13.1522 799.694 Q23.4868 809.844 42.9564 809.813 Q62.4875 809.813 72.4223 799.94 Q73.4988 798.864 73.8371 798.864 Q74.4523 798.864 74.4523 799.51 Q74.4523 799.94 73.1912 801.447 Q71.9302 802.954 69.0389 805.292 Q66.1477 807.63 62.6106 809.321 Q54.0292 813.474 42.9564 813.474 Z" fill="#000000" fill-rule="evenodd" fill-opacity="1" /><path clip-path="url(#clip120)" d="M 0 0 M24.7081 782.245 Q19.0398 782.245 15.2396 779.347 Q11.4393 776.448 11.4393 772.551 Q11.4393 770.168 13.5648 767.817 Q18.6534 762.471 18.6212 755.482 Q18.6212 747.559 12.3732 742.954 Q11.4393 742.149 11.4393 741.569 Q11.4393 741.054 11.8579 740.667 Q12.2444 740.249 12.7597 740.249 Q13.1462 740.249 13.9513 740.764 L63.6128 774.129 Q64.6111 774.87 64.6111 775.45 Q64.6111 775.965 64.1925 776.384 Q63.806 776.77 63.2907 776.77 Q62.8398 776.77 61.9703 776.19 L17.8482 746.561 L17.7838 746.625 Q20.1026 750.039 20.0704 755.418 Q20.0704 760.506 17.3007 765.369 Q20.7145 763.984 24.7725 763.984 Q30.3119 763.984 34.1766 766.464 Q38.0091 768.944 38.0091 772.551 Q38.0091 776.448 34.2732 779.347 Q30.5051 782.245 24.7081 782.245 M19.3297 777.704 Q21.6485 778.155 24.7725 778.155 Q27.8643 778.155 30.1831 777.704 Q32.4697 777.253 33.6613 776.609 Q34.8529 775.933 35.5615 775.031 Q36.2378 774.129 36.3988 773.582 Q36.5598 773.034 36.5598 772.487 Q36.5598 769.781 33.2104 767.72 Q29.8288 765.627 24.7081 765.627 Q19.684 765.627 16.3023 767.72 Q12.8885 769.781 12.8885 772.487 Q12.8885 773.066 13.0496 773.646 Q13.2106 774.194 13.9191 775.063 Q14.5954 775.933 15.7871 776.609 Q16.9787 777.253 19.3297 777.704 M51.2779 753.034 Q45.6097 753.034 41.8094 750.136 Q38.0091 747.237 38.0091 743.34 Q38.0091 739.766 41.8738 737.286 Q45.7385 734.774 51.3423 734.774 Q56.8817 734.774 60.7464 737.253 Q64.6111 739.701 64.6111 743.34 Q64.6111 747.237 60.8431 750.136 Q57.075 753.034 51.2779 753.034 M45.8995 748.493 Q48.2506 748.944 51.3423 748.944 Q54.4341 748.944 56.7529 748.493 Q59.0717 748.01 60.2633 747.366 Q61.4228 746.69 62.0991 745.82 Q62.8076 744.918 62.9686 744.371 Q63.1619 743.791 63.1619 743.276 Q63.1619 740.571 59.8125 738.51 Q56.4309 736.416 51.2779 736.416 Q46.2538 736.416 42.8722 738.51 Q39.4584 740.571 39.4584 743.276 Q39.4584 743.856 39.6516 744.435 Q39.8126 744.983 40.5212 745.852 Q41.1975 746.69 42.3891 747.366 Q43.5485 748.01 45.8995 748.493 Z" fill="#000000" fill-rule="evenodd" fill-opacity="1" /><path clip-path="url(#clip120)" d="M 0 0 M59.8447 726.924 Q58.7819 727.858 57.397 727.858 Q56.0122 727.858 54.9816 726.956 Q53.9188 726.022 53.9188 724.348 Q53.9188 722.383 55.8189 721.256 Q57.6869 720.129 60.8431 720.129 Q64.2569 720.129 67.413 721.514 Q70.6014 722.898 72.1151 724.251 Q73.6288 725.604 73.6288 726.151 Q73.6288 726.795 72.9203 726.795 Q72.6626 726.795 72.1795 726.344 Q67.091 721.61 60.8431 721.578 Q59.8447 721.578 59.8447 721.707 L59.9735 721.868 Q60.9075 722.995 60.9075 724.348 Q60.9075 725.99 59.8447 726.924 Z" fill="#000000" fill-rule="evenodd" fill-opacity="1" /><path clip-path="url(#clip120)" d="M 0 0 M43.6129 664.724 Q46.8657 664.724 50.1185 666.399 Q53.3713 668.073 55.8834 670.811 Q58.3632 673.548 59.9735 677.284 Q61.5838 681.02 61.7126 684.917 L71.5354 687.429 Q73.9186 687.912 74.1763 688.17 Q74.4339 688.427 74.4339 688.814 Q74.4339 689.619 73.6932 689.619 Q73.4678 689.619 67.8961 688.17 L61.7126 686.624 Q61.3906 692.485 58.0089 695.899 Q54.6273 699.313 49.7642 699.313 Q46.4792 699.313 43.2264 697.638 Q39.9414 695.931 37.4616 693.194 Q34.9817 690.424 33.4037 686.688 Q31.8256 682.952 31.6967 679.12 L16.4634 675.287 Q15.5938 675.094 15.3684 674.933 Q15.1429 674.772 15.1429 674.289 Q15.1429 673.935 15.304 673.742 Q15.465 673.548 15.626 673.548 L15.7871 673.516 L16.721 673.709 L31.6967 677.413 Q31.9222 674.128 33.0816 671.584 Q34.241 669.04 35.9801 667.59 Q37.687 666.141 39.6194 665.432 Q41.5517 664.724 43.6129 664.724 M33.146 679.506 Q33.4681 683.049 35.2072 686.044 Q36.9463 689.039 39.5228 690.972 Q42.067 692.904 45.1266 693.967 Q48.1539 695.03 51.1491 695.03 Q53.5001 695.03 55.3036 694.257 Q57.1072 693.452 58.1378 692.131 Q59.1361 690.811 59.6836 689.361 Q60.1989 687.88 60.2633 686.302 L33.146 679.506 M42.2281 669.04 Q38.0413 669.04 35.6903 671.455 Q33.3392 673.87 33.146 677.8 L60.2633 684.595 Q60.0379 681.729 58.8463 679.217 Q57.6225 676.672 55.8189 674.837 Q53.9832 673.001 51.7288 671.68 Q49.4422 670.36 47.0267 669.716 Q44.5791 669.04 42.2281 669.04 Z" fill="#000000" fill-rule="evenodd" fill-opacity="1" /><path clip-path="url(#clip120)" d="M 0 0 M50.8914 642.094 Q50.0863 642.03 50.0863 640.774 L50.0863 600.355 Q50.0863 598.455 50.827 598.423 Q51.6322 598.423 51.6 600.227 L51.6 640.323 Q51.6322 642.094 50.8914 642.094 M38.0091 642.094 Q37.204 642.094 37.2362 640.709 L37.2362 600.42 Q37.2362 598.455 38.0091 598.423 Q38.7498 598.423 38.7498 600.098 L38.7498 640.774 Q38.7498 642.094 38.0091 642.094 Z" fill="#000000" fill-rule="evenodd" fill-opacity="1" /><path clip-path="url(#clip120)" d="M 0 0 M23.2588 572.977 L21.1976 572.977 Q21.1976 565.055 16.9787 560.965 Q16.9787 559.837 17.2363 559.644 Q17.494 559.451 18.6856 559.451 L55.6901 559.451 Q57.6547 559.451 58.2666 558.485 Q58.8785 557.519 58.8785 553.3 L58.8785 551.206 L60.9075 551.206 Q60.7142 553.525 60.7142 561.899 Q60.7142 570.272 60.9075 572.559 L58.8785 572.559 L58.8785 570.465 Q58.8785 566.311 58.2988 565.312 Q57.6869 564.314 55.6901 564.314 L21.5197 564.314 Q23.2588 567.76 23.2588 572.977 Z" fill="#000000" fill-rule="evenodd" fill-opacity="1" /><path clip-path="url(#clip120)" d="M 0 0 M59.8447 546.065 Q58.7819 547.063 57.397 547.063 Q56.0122 547.063 55.0138 546.065 Q53.9832 545.067 53.9832 543.553 Q53.9832 542.104 54.9494 541.137 Q55.8834 540.139 57.4292 540.139 Q58.9429 540.139 59.9413 541.202 Q60.9075 542.232 60.9075 543.553 Q60.9075 545.067 59.8447 546.065 Z" fill="#000000" fill-rule="evenodd" fill-opacity="1" /><path clip-path="url(#clip120)" d="M 0 0 M60.9075 528.913 Q59.7158 528.913 59.3616 528.816 Q59.0073 528.688 58.4598 528.172 L44.3537 515.515 Q36.5598 508.591 29.7644 508.591 Q25.3522 508.591 22.196 510.91 Q19.0398 513.197 19.0398 517.416 Q19.0398 520.314 20.8112 522.762 Q22.5825 525.209 25.7387 526.337 Q25.6743 526.143 25.6743 525.467 Q25.6743 523.825 26.7048 522.923 Q27.7354 521.989 29.1203 521.989 Q30.8916 521.989 31.7612 523.148 Q32.5985 524.275 32.5985 525.403 Q32.5985 525.854 32.5019 526.465 Q32.4053 527.045 31.5035 527.979 Q30.5695 528.913 28.927 528.913 Q24.3216 528.913 20.6501 525.435 Q16.9787 521.924 16.9787 516.578 Q16.9787 510.524 20.5857 506.562 Q24.1606 502.569 29.7644 502.569 Q31.729 502.569 33.5325 503.181 Q35.3038 503.76 36.6887 504.565 Q38.0735 505.338 40.2957 507.464 Q42.5179 509.59 44.096 511.296 Q45.6741 513.003 49.0235 516.836 L55.8189 523.825 L55.8189 511.941 Q55.8189 506.144 55.3036 505.693 Q54.3697 505.049 49.4422 504.243 L49.4422 502.569 L60.9075 504.437 L60.9075 528.913 Z" fill="#000000" fill-rule="evenodd" fill-opacity="1" /><path clip-path="url(#clip120)" d="M 0 0 M50.2795 496.249 Q48.315 496.249 47.5742 495.186 Q46.8013 494.123 46.8013 492.996 Q46.8013 491.483 47.7675 490.613 Q48.7014 489.711 50.0219 489.711 Q51.3423 489.711 52.3085 490.613 Q53.2425 491.483 53.2425 492.996 Q53.2425 493.737 53.1136 494.123 Q56.141 493.254 58.331 490.613 Q60.521 487.94 60.521 484.429 Q60.521 480.017 56.2376 477.376 Q53.4679 475.798 47.1878 475.798 Q41.6484 475.798 38.8787 476.99 Q34.6597 478.826 34.6597 482.594 Q34.6597 487.94 39.2651 491.096 Q39.8448 491.483 39.877 491.933 Q39.877 492.578 39.5228 492.739 Q39.1363 492.867 38.1379 492.867 L18.6212 492.867 Q17.0431 492.867 17.0431 492.223 Q17.0431 491.966 17.2363 491.418 Q19.0721 487.264 19.1043 482.658 Q19.1043 477.924 17.1719 473.673 Q16.9787 473.351 16.9787 473.157 Q16.9787 472.513 17.7194 472.481 Q17.9771 472.481 18.75 473.029 Q19.4907 473.544 20.4891 474.671 Q21.4553 475.798 22.3893 477.248 Q23.3232 478.697 23.9673 480.822 Q24.5793 482.916 24.5793 485.235 Q24.5793 488.004 23.7097 490.838 L36.5598 490.838 Q33.2104 487.425 33.2104 482.465 Q33.2104 477.183 37.4616 473.544 Q41.7128 469.905 47.6386 469.905 Q53.8544 469.905 58.1056 474.22 Q62.3567 478.504 62.3567 484.301 Q62.3567 489.582 58.5886 492.932 Q54.8206 496.249 50.2795 496.249 Z" fill="#000000" fill-rule="evenodd" fill-opacity="1" /><path clip-path="url(#clip120)" d="M 0 0 M73.8371 463.131 Q73.5296 463.131 72.7606 462.331 Q62.426 452.181 42.9564 452.181 Q23.4252 452.181 13.552 461.931 Q12.414 463.131 12.0756 463.131 Q11.4605 463.131 11.4605 462.516 Q11.4605 462.085 12.7216 460.578 Q13.9826 459.04 16.8738 456.733 Q19.7651 454.396 23.3022 452.673 Q31.8836 448.521 42.9564 448.521 Q53.5986 448.521 62.18 452.489 Q65.7786 454.18 68.7929 456.549 Q71.8071 458.917 73.1297 460.486 Q74.4523 462.054 74.4523 462.516 Q74.4523 463.131 73.8371 463.131 Z" fill="#000000" fill-rule="evenodd" fill-opacity="1" /><polyline clip-path="url(#clip123)" style="stroke:#0000ff; stroke-width:4; stroke-opacity:1; fill:none" points="
  294.425,86.6476 985.583,1365.06 1676.74,158.643 
  "/>
<polyline clip-path="url(#clip123)" style="stroke:#7f0080; stroke-width:4; stroke-opacity:1; fill:none" points="
  294.425,1004.36 985.583,1400.1 1676.74,1145.88 
  "/>
<polyline clip-path="url(#clip123)" style="stroke:#ff0000; stroke-width:4; stroke-opacity:1; fill:none" points="
  294.425,1370.89 985.583,1344.85 1676.74,1217.42 
  "/>
<path clip-path="url(#clip120)" d="
M1788.2 305.333 L2352.76 305.333 L2352.76 93.6527 L1788.2 93.6527  Z
  " fill="#ffffff" fill-rule="evenodd" fill-opacity="1"/>
<polyline clip-path="url(#clip120)" style="stroke:#000000; stroke-width:4; stroke-opacity:1; fill:none" points="
  1788.2,305.333 2352.76,305.333 2352.76,93.6527 1788.2,93.6527 1788.2,305.333 
  "/>
<polyline clip-path="url(#clip120)" style="stroke:#0000ff; stroke-width:3.5; stroke-opacity:1; fill:none" points="
  1811.53,146.573 1951.52,146.573 
  "/>
<path clip-path="url(#clip120)" d="M 0 0 M2003.4 128.673 Q2003.4 129.062 2003.32 129.39 L2002.17 136.686 Q2002.11 137.239 2001.99 137.444 Q2001.88 137.649 2001.56 137.649 Q2001.04 137.649 2001.04 137.116 Q2001.04 136.809 2001.17 136.317 Q2001.52 134.001 2001.52 132.956 Q2001.52 132.259 2001.37 131.747 Q2001.25 131.214 2001.04 130.845 Q2000.86 130.476 2000.43 130.23 Q2000 129.984 1999.59 129.841 Q1999.18 129.697 1998.44 129.636 Q1997.7 129.554 1997.07 129.533 Q1996.43 129.513 1995.39 129.513 Q1993.11 129.513 1992.74 129.595 Q1992.35 129.697 1992.15 130.005 Q1991.97 130.292 1991.76 131.153 L1986.19 153.43 L1986.02 154.311 Q1986.02 154.803 1986.33 154.967 Q1986.64 155.131 1987.58 155.234 Q1988.93 155.336 1990.26 155.336 Q1990.31 155.336 1990.39 155.336 Q1990.84 155.336 1991.02 155.357 Q1991.21 155.357 1991.39 155.398 Q1991.58 155.439 1991.62 155.541 Q1991.68 155.623 1991.68 155.787 Q1991.68 156.176 1991.51 156.381 Q1991.35 156.566 1991.19 156.607 Q1991.04 156.627 1990.76 156.627 Q1990.18 156.627 1988.95 156.586 Q1987.72 156.545 1987.11 156.545 L1983.62 156.504 L1980.06 156.545 Q1979.5 156.545 1978.34 156.586 Q1977.17 156.627 1976.61 156.627 Q1975.9 156.627 1975.9 156.115 Q1975.9 155.541 1976.16 155.439 Q1976.45 155.336 1977.66 155.336 Q1979.36 155.336 1980.28 155.254 Q1981.21 155.172 1981.7 154.885 Q1982.21 154.598 1982.35 154.311 Q1982.5 154.004 1982.66 153.307 L1988.3 130.907 Q1988.46 130.415 1988.46 130.025 Q1988.46 129.82 1988.4 129.738 Q1988.36 129.656 1988.09 129.595 Q1987.83 129.513 1987.27 129.513 L1985.63 129.513 Q1983.95 129.513 1982.91 129.595 Q1981.88 129.656 1980.9 129.964 Q1979.93 130.271 1979.36 130.702 Q1978.81 131.132 1978.19 132.013 Q1977.58 132.895 1977.13 133.96 Q1976.7 135.026 1976.08 136.768 Q1975.88 137.342 1975.75 137.506 Q1975.65 137.649 1975.36 137.649 Q1975.16 137.649 1975 137.526 Q1974.85 137.383 1974.85 137.198 Q1975.06 136.522 1975.1 136.44 L1977.62 129.042 Q1977.82 128.447 1978.01 128.345 Q1978.21 128.222 1978.97 128.222 L2002.25 128.222 Q2002.62 128.222 2002.75 128.222 Q2002.87 128.222 2003.07 128.263 Q2003.28 128.304 2003.34 128.406 Q2003.4 128.509 2003.4 128.673 Z" fill="#000000" fill-rule="evenodd" fill-opacity="1" /><path clip-path="url(#clip120)" d="M 0 0 M2010.77 150.254 Q2010.81 149.741 2011.61 149.741 L2037.33 149.741 Q2038.54 149.741 2038.56 150.213 Q2038.56 150.725 2037.41 150.704 L2011.9 150.704 Q2010.77 150.725 2010.77 150.254 M2010.77 142.056 Q2010.77 141.543 2011.65 141.564 L2037.29 141.564 Q2038.54 141.564 2038.56 142.056 Q2038.56 142.527 2037.49 142.527 L2011.61 142.527 Q2010.77 142.527 2010.77 142.056 Z" fill="#000000" fill-rule="evenodd" fill-opacity="1" /><path clip-path="url(#clip120)" d="M 0 0 M2054.74 150.971 Q2054.74 149.721 2055.46 149.126 Q2056.18 148.532 2057.1 148.532 Q2058.06 148.532 2058.74 149.167 Q2059.44 149.782 2059.44 150.868 Q2059.44 152.037 2058.62 152.692 Q2057.82 153.348 2056.67 153.184 Q2057.67 154.865 2059.52 155.623 Q2061.38 156.381 2063.11 156.381 Q2064.91 156.381 2066.36 154.824 Q2067.84 153.266 2067.84 149.454 Q2067.84 146.216 2066.57 144.351 Q2065.32 142.486 2062.84 142.486 L2060.99 142.486 Q2060.36 142.486 2060.18 142.425 Q2059.99 142.363 2059.99 142.015 Q2059.99 141.605 2060.63 141.523 Q2061.26 141.523 2062.27 141.4 Q2064.7 141.318 2066 139.207 Q2067.16 137.239 2067.16 134.432 Q2067.16 131.87 2065.93 130.804 Q2064.73 129.718 2063.15 129.718 Q2061.67 129.718 2060.05 130.333 Q2058.43 130.948 2057.55 132.321 Q2060.15 132.321 2060.15 134.432 Q2060.15 135.354 2059.56 135.969 Q2058.99 136.563 2058.02 136.563 Q2057.1 136.563 2056.49 135.989 Q2055.87 135.395 2055.87 134.391 Q2055.87 131.993 2058 130.333 Q2060.15 128.673 2063.31 128.673 Q2066.43 128.673 2068.72 130.312 Q2071.04 131.952 2071.04 134.473 Q2071.04 136.953 2069.4 138.981 Q2067.76 141.01 2065.16 141.851 Q2068.35 142.486 2070.26 144.659 Q2072.16 146.81 2072.16 149.454 Q2072.16 152.733 2069.58 155.152 Q2067 157.55 2063.23 157.55 Q2059.74 157.55 2057.24 155.664 Q2054.74 153.779 2054.74 150.971 Z" fill="#000000" fill-rule="evenodd" fill-opacity="1" /><path clip-path="url(#clip120)" d="M 0 0 M2075.53 143.203 Q2075.53 137.035 2077.08 133.673 Q2079.26 128.673 2084.38 128.673 Q2085.47 128.673 2086.59 128.98 Q2087.74 129.267 2089.17 130.394 Q2090.63 131.521 2091.51 133.366 Q2093.19 136.932 2093.19 143.203 Q2093.19 149.331 2091.63 152.672 Q2089.36 157.55 2084.34 157.55 Q2082.45 157.55 2080.53 156.586 Q2078.62 155.623 2077.41 153.307 Q2075.53 149.844 2075.53 143.203 M2079.01 142.691 Q2079.01 149.024 2079.46 151.545 Q2079.97 154.27 2081.37 155.459 Q2082.78 156.627 2084.34 156.627 Q2086.02 156.627 2087.41 155.377 Q2088.83 154.107 2089.26 151.381 Q2089.73 148.696 2089.71 142.691 Q2089.71 136.85 2089.3 134.514 Q2088.74 131.788 2087.27 130.702 Q2085.81 129.595 2084.34 129.595 Q2083.78 129.595 2083.19 129.759 Q2082.62 129.923 2081.78 130.394 Q2080.94 130.866 2080.28 132.034 Q2079.64 133.202 2079.34 134.965 Q2079.01 137.239 2079.01 142.691 Z" fill="#000000" fill-rule="evenodd" fill-opacity="1" /><path clip-path="url(#clip120)" d="M 0 0 M2096.31 143.203 Q2096.31 137.035 2097.86 133.673 Q2100.04 128.673 2105.16 128.673 Q2106.25 128.673 2107.37 128.98 Q2108.52 129.267 2109.96 130.394 Q2111.41 131.521 2112.29 133.366 Q2113.97 136.932 2113.97 143.203 Q2113.97 149.331 2112.42 152.672 Q2110.14 157.55 2105.12 157.55 Q2103.23 157.55 2101.31 156.586 Q2099.4 155.623 2098.19 153.307 Q2096.31 149.844 2096.31 143.203 M2099.79 142.691 Q2099.79 149.024 2100.24 151.545 Q2100.75 154.27 2102.15 155.459 Q2103.56 156.627 2105.12 156.627 Q2106.8 156.627 2108.19 155.377 Q2109.61 154.107 2110.04 151.381 Q2110.51 148.696 2110.49 142.691 Q2110.49 136.85 2110.08 134.514 Q2109.53 131.788 2108.05 130.702 Q2106.59 129.595 2105.12 129.595 Q2104.57 129.595 2103.97 129.759 Q2103.4 129.923 2102.56 130.394 Q2101.72 130.866 2101.06 132.034 Q2100.43 133.202 2100.12 134.965 Q2099.79 137.239 2099.79 142.691 Z" fill="#000000" fill-rule="evenodd" fill-opacity="1" /><path clip-path="url(#clip120)" d="M 0 0 M2117.72 155.951 Q2117.09 155.275 2117.09 154.393 Q2117.09 153.512 2117.72 152.877 Q2118.36 152.221 2119.32 152.221 Q2120.24 152.221 2120.86 152.836 Q2121.49 153.43 2121.49 154.414 Q2121.49 155.377 2120.82 156.013 Q2120.16 156.627 2119.32 156.627 Q2118.36 156.627 2117.72 155.951 Z" fill="#000000" fill-rule="evenodd" fill-opacity="1" /><path clip-path="url(#clip120)" d="M 0 0 M2128.64 143.203 Q2128.64 137.035 2130.19 133.673 Q2132.37 128.673 2137.49 128.673 Q2138.58 128.673 2139.7 128.98 Q2140.85 129.267 2142.28 130.394 Q2143.74 131.521 2144.62 133.366 Q2146.3 136.932 2146.3 143.203 Q2146.3 149.331 2144.74 152.672 Q2142.47 157.55 2137.45 157.55 Q2135.56 157.55 2133.64 156.586 Q2131.73 155.623 2130.52 153.307 Q2128.64 149.844 2128.64 143.203 M2132.12 142.691 Q2132.12 149.024 2132.57 151.545 Q2133.08 154.27 2134.48 155.459 Q2135.89 156.627 2137.45 156.627 Q2139.13 156.627 2140.52 155.377 Q2141.94 154.107 2142.37 151.381 Q2142.84 148.696 2142.82 142.691 Q2142.82 136.85 2142.41 134.514 Q2141.85 131.788 2140.38 130.702 Q2138.92 129.595 2137.45 129.595 Q2136.89 129.595 2136.3 129.759 Q2135.73 129.923 2134.89 130.394 Q2134.05 130.866 2133.39 132.034 Q2132.75 133.202 2132.45 134.965 Q2132.12 137.239 2132.12 142.691 Z" fill="#000000" fill-rule="evenodd" fill-opacity="1" /><path clip-path="url(#clip120)" d="M 0 0 M2150.01 155.951 Q2149.42 155.275 2149.42 154.393 Q2149.42 153.512 2149.99 152.856 Q2150.58 152.18 2151.65 152.18 Q2152.9 152.18 2153.62 153.389 Q2154.34 154.578 2154.34 156.586 Q2154.34 158.759 2153.45 160.767 Q2152.57 162.796 2151.71 163.76 Q2150.85 164.723 2150.5 164.723 Q2150.09 164.723 2150.09 164.272 Q2150.09 164.108 2150.38 163.801 Q2153.39 160.562 2153.41 156.586 Q2153.41 155.951 2153.33 155.951 L2153.23 156.033 Q2152.51 156.627 2151.65 156.627 Q2150.61 156.627 2150.01 155.951 Z" fill="#000000" fill-rule="evenodd" fill-opacity="1" /><path clip-path="url(#clip120)" d="M 0 0 M2188.18 150.622 Q2187.66 153.143 2186.62 154.906 Q2185.33 157.099 2183.36 157.099 Q2181.7 157.099 2180.59 155.951 Q2179.49 154.783 2179.49 152.938 Q2179.49 152.385 2179.71 151.463 Q2179.79 151.053 2179.79 150.54 Q2179.79 147.22 2172.6 146.974 Q2172 149.331 2171.59 150.93 Q2171.21 152.508 2171.08 152.979 Q2170.96 153.451 2170.86 153.84 Q2170.78 154.23 2170.63 154.742 Q2170.43 155.582 2170.28 155.992 Q2170.14 156.402 2169.75 156.75 Q2169.38 157.099 2168.79 157.099 Q2168.27 157.099 2167.93 156.791 Q2167.58 156.484 2167.58 155.951 Q2167.58 155.582 2167.74 154.988 L2171.59 139.596 Q2171.7 139.166 2171.9 138.859 Q2172.11 138.551 2172.29 138.408 Q2172.5 138.264 2172.74 138.182 Q2172.99 138.1 2173.09 138.1 Q2173.19 138.08 2173.28 138.08 Q2173.83 138.08 2174.16 138.387 Q2174.51 138.674 2174.51 139.207 Q2174.51 139.289 2174.36 139.863 Q2174.24 140.416 2174.03 141.256 Q2173.83 142.097 2173.75 142.486 L2172.91 145.765 Q2174.07 145.376 2175.12 144.679 Q2176.19 143.982 2178.28 142.179 Q2179.24 141.379 2179.81 140.928 Q2180.41 140.457 2181.39 139.822 Q2182.38 139.166 2183.32 138.859 Q2184.26 138.531 2185.16 138.531 Q2185.86 138.531 2186.27 138.859 Q2186.68 139.166 2186.76 139.453 Q2186.84 139.719 2186.84 140.006 Q2186.84 140.847 2186.19 141.564 Q2185.53 142.281 2184.57 142.281 Q2183.71 142.281 2183.34 141.81 Q2182.97 141.338 2182.97 140.806 Q2182.97 140.396 2183.17 139.883 Q2182.03 140.375 2181.04 141.092 Q2180.06 141.789 2178.36 143.244 Q2175.94 145.314 2174.51 146.093 Q2175.32 146.114 2175.94 146.175 Q2176.58 146.216 2177.64 146.36 Q2178.71 146.503 2179.49 146.81 Q2180.26 147.097 2181.02 147.548 Q2181.8 147.999 2182.21 148.737 Q2182.64 149.475 2182.64 150.418 Q2182.64 150.868 2182.44 151.791 Q2182.09 153.307 2182.09 154.148 Q2182.09 155.213 2182.42 155.685 Q2182.76 156.156 2183.44 156.156 Q2184.73 156.156 2185.55 154.824 Q2186.39 153.471 2187.09 150.971 Q2187.19 150.499 2187.29 150.356 Q2187.4 150.213 2187.68 150.213 Q2188.18 150.213 2188.18 150.622 Z" fill="#000000" fill-rule="evenodd" fill-opacity="1" /><path clip-path="url(#clip120)" d="M 0 0 M2203.15 150.254 Q2203.19 149.741 2203.99 149.741 L2229.71 149.741 Q2230.92 149.741 2230.94 150.213 Q2230.94 150.725 2229.79 150.704 L2204.28 150.704 Q2203.15 150.725 2203.15 150.254 M2203.15 142.056 Q2203.15 141.543 2204.03 141.564 L2229.67 141.564 Q2230.92 141.564 2230.94 142.056 Q2230.94 142.527 2229.88 142.527 L2203.99 142.527 Q2203.15 142.527 2203.15 142.056 Z" fill="#000000" fill-rule="evenodd" fill-opacity="1" /><path clip-path="url(#clip120)" d="M 0 0 M2247.12 132.669 L2247.12 131.357 Q2252.17 131.357 2254.77 128.673 Q2255.49 128.673 2255.61 128.837 Q2255.73 129.001 2255.73 129.759 L2255.73 153.307 Q2255.73 154.557 2256.35 154.947 Q2256.96 155.336 2259.65 155.336 L2260.98 155.336 L2260.98 156.627 Q2259.5 156.504 2254.18 156.504 Q2248.85 156.504 2247.39 156.627 L2247.39 155.336 L2248.72 155.336 Q2251.37 155.336 2252 154.967 Q2252.64 154.578 2252.64 153.307 L2252.64 131.562 Q2250.45 132.669 2247.12 132.669 Z" fill="#000000" fill-rule="evenodd" fill-opacity="1" /><polyline clip-path="url(#clip120)" style="stroke:#7f0080; stroke-width:3.5; stroke-opacity:1; fill:none" points="
  1811.53,199.493 1951.52,199.493 
  "/>
<path clip-path="url(#clip120)" d="M 0 0 M2003.4 181.593 Q2003.4 181.982 2003.32 182.31 L2002.17 189.606 Q2002.11 190.159 2001.99 190.364 Q2001.88 190.569 2001.56 190.569 Q2001.04 190.569 2001.04 190.036 Q2001.04 189.729 2001.17 189.237 Q2001.52 186.921 2001.52 185.876 Q2001.52 185.179 2001.37 184.667 Q2001.25 184.134 2001.04 183.765 Q2000.86 183.396 2000.43 183.15 Q2000 182.904 1999.59 182.761 Q1999.18 182.617 1998.44 182.556 Q1997.7 182.474 1997.07 182.453 Q1996.43 182.433 1995.39 182.433 Q1993.11 182.433 1992.74 182.515 Q1992.35 182.617 1992.15 182.925 Q1991.97 183.212 1991.76 184.073 L1986.19 206.35 L1986.02 207.231 Q1986.02 207.723 1986.33 207.887 Q1986.64 208.051 1987.58 208.154 Q1988.93 208.256 1990.26 208.256 Q1990.31 208.256 1990.39 208.256 Q1990.84 208.256 1991.02 208.277 Q1991.21 208.277 1991.39 208.318 Q1991.58 208.359 1991.62 208.461 Q1991.68 208.543 1991.68 208.707 Q1991.68 209.096 1991.51 209.301 Q1991.35 209.486 1991.19 209.527 Q1991.04 209.547 1990.76 209.547 Q1990.18 209.547 1988.95 209.506 Q1987.72 209.465 1987.11 209.465 L1983.62 209.424 L1980.06 209.465 Q1979.5 209.465 1978.34 209.506 Q1977.17 209.547 1976.61 209.547 Q1975.9 209.547 1975.9 209.035 Q1975.9 208.461 1976.16 208.359 Q1976.45 208.256 1977.66 208.256 Q1979.36 208.256 1980.28 208.174 Q1981.21 208.092 1981.7 207.805 Q1982.21 207.518 1982.35 207.231 Q1982.5 206.924 1982.66 206.227 L1988.3 183.827 Q1988.46 183.335 1988.46 182.945 Q1988.46 182.74 1988.4 182.658 Q1988.36 182.576 1988.09 182.515 Q1987.83 182.433 1987.27 182.433 L1985.63 182.433 Q1983.95 182.433 1982.91 182.515 Q1981.88 182.576 1980.9 182.884 Q1979.93 183.191 1979.36 183.622 Q1978.81 184.052 1978.19 184.933 Q1977.58 185.815 1977.13 186.88 Q1976.7 187.946 1976.08 189.688 Q1975.88 190.262 1975.75 190.426 Q1975.65 190.569 1975.36 190.569 Q1975.16 190.569 1975 190.446 Q1974.85 190.303 1974.85 190.118 Q1975.06 189.442 1975.1 189.36 L1977.62 181.962 Q1977.82 181.367 1978.01 181.265 Q1978.21 181.142 1978.97 181.142 L2002.25 181.142 Q2002.62 181.142 2002.75 181.142 Q2002.87 181.142 2003.07 181.183 Q2003.28 181.224 2003.34 181.326 Q2003.4 181.429 2003.4 181.593 Z" fill="#000000" fill-rule="evenodd" fill-opacity="1" /><path clip-path="url(#clip120)" d="M 0 0 M2010.77 203.174 Q2010.81 202.661 2011.61 202.661 L2037.33 202.661 Q2038.54 202.661 2038.56 203.133 Q2038.56 203.645 2037.41 203.624 L2011.9 203.624 Q2010.77 203.645 2010.77 203.174 M2010.77 194.976 Q2010.77 194.463 2011.65 194.484 L2037.29 194.484 Q2038.54 194.484 2038.56 194.976 Q2038.56 195.447 2037.49 195.447 L2011.61 195.447 Q2010.77 195.447 2010.77 194.976 Z" fill="#000000" fill-rule="evenodd" fill-opacity="1" /><path clip-path="url(#clip120)" d="M 0 0 M2054.74 203.891 Q2054.74 202.641 2055.46 202.046 Q2056.18 201.452 2057.1 201.452 Q2058.06 201.452 2058.74 202.087 Q2059.44 202.702 2059.44 203.788 Q2059.44 204.957 2058.62 205.612 Q2057.82 206.268 2056.67 206.104 Q2057.67 207.785 2059.52 208.543 Q2061.38 209.301 2063.11 209.301 Q2064.91 209.301 2066.36 207.744 Q2067.84 206.186 2067.84 202.374 Q2067.84 199.136 2066.57 197.271 Q2065.32 195.406 2062.84 195.406 L2060.99 195.406 Q2060.36 195.406 2060.18 195.345 Q2059.99 195.283 2059.99 194.935 Q2059.99 194.525 2060.63 194.443 Q2061.26 194.443 2062.27 194.32 Q2064.7 194.238 2066 192.127 Q2067.16 190.159 2067.16 187.352 Q2067.16 184.79 2065.93 183.724 Q2064.73 182.638 2063.15 182.638 Q2061.67 182.638 2060.05 183.253 Q2058.43 183.868 2057.55 185.241 Q2060.15 185.241 2060.15 187.352 Q2060.15 188.274 2059.56 188.889 Q2058.99 189.483 2058.02 189.483 Q2057.1 189.483 2056.49 188.909 Q2055.87 188.315 2055.87 187.311 Q2055.87 184.913 2058 183.253 Q2060.15 181.593 2063.31 181.593 Q2066.43 181.593 2068.72 183.232 Q2071.04 184.872 2071.04 187.393 Q2071.04 189.873 2069.4 191.901 Q2067.76 193.93 2065.16 194.771 Q2068.35 195.406 2070.26 197.579 Q2072.16 199.73 2072.16 202.374 Q2072.16 205.653 2069.58 208.072 Q2067 210.47 2063.23 210.47 Q2059.74 210.47 2057.24 208.584 Q2054.74 206.699 2054.74 203.891 Z" fill="#000000" fill-rule="evenodd" fill-opacity="1" /><path clip-path="url(#clip120)" d="M 0 0 M2075.53 196.123 Q2075.53 189.955 2077.08 186.593 Q2079.26 181.593 2084.38 181.593 Q2085.47 181.593 2086.59 181.9 Q2087.74 182.187 2089.17 183.314 Q2090.63 184.441 2091.51 186.286 Q2093.19 189.852 2093.19 196.123 Q2093.19 202.251 2091.63 205.592 Q2089.36 210.47 2084.34 210.47 Q2082.45 210.47 2080.53 209.506 Q2078.62 208.543 2077.41 206.227 Q2075.53 202.764 2075.53 196.123 M2079.01 195.611 Q2079.01 201.944 2079.46 204.465 Q2079.97 207.19 2081.37 208.379 Q2082.78 209.547 2084.34 209.547 Q2086.02 209.547 2087.41 208.297 Q2088.83 207.027 2089.26 204.301 Q2089.73 201.616 2089.71 195.611 Q2089.71 189.77 2089.3 187.434 Q2088.74 184.708 2087.27 183.622 Q2085.81 182.515 2084.34 182.515 Q2083.78 182.515 2083.19 182.679 Q2082.62 182.843 2081.78 183.314 Q2080.94 183.786 2080.28 184.954 Q2079.64 186.122 2079.34 187.885 Q2079.01 190.159 2079.01 195.611 Z" fill="#000000" fill-rule="evenodd" fill-opacity="1" /><path clip-path="url(#clip120)" d="M 0 0 M2096.31 196.123 Q2096.31 189.955 2097.86 186.593 Q2100.04 181.593 2105.16 181.593 Q2106.25 181.593 2107.37 181.9 Q2108.52 182.187 2109.96 183.314 Q2111.41 184.441 2112.29 186.286 Q2113.97 189.852 2113.97 196.123 Q2113.97 202.251 2112.42 205.592 Q2110.14 210.47 2105.12 210.47 Q2103.23 210.47 2101.31 209.506 Q2099.4 208.543 2098.19 206.227 Q2096.31 202.764 2096.31 196.123 M2099.79 195.611 Q2099.79 201.944 2100.24 204.465 Q2100.75 207.19 2102.15 208.379 Q2103.56 209.547 2105.12 209.547 Q2106.8 209.547 2108.19 208.297 Q2109.61 207.027 2110.04 204.301 Q2110.51 201.616 2110.49 195.611 Q2110.49 189.77 2110.08 187.434 Q2109.53 184.708 2108.05 183.622 Q2106.59 182.515 2105.12 182.515 Q2104.57 182.515 2103.97 182.679 Q2103.4 182.843 2102.56 183.314 Q2101.72 183.786 2101.06 184.954 Q2100.43 186.122 2100.12 187.885 Q2099.79 190.159 2099.79 195.611 Z" fill="#000000" fill-rule="evenodd" fill-opacity="1" /><path clip-path="url(#clip120)" d="M 0 0 M2117.72 208.871 Q2117.09 208.195 2117.09 207.313 Q2117.09 206.432 2117.72 205.797 Q2118.36 205.141 2119.32 205.141 Q2120.24 205.141 2120.86 205.756 Q2121.49 206.35 2121.49 207.334 Q2121.49 208.297 2120.82 208.933 Q2120.16 209.547 2119.32 209.547 Q2118.36 209.547 2117.72 208.871 Z" fill="#000000" fill-rule="evenodd" fill-opacity="1" /><path clip-path="url(#clip120)" d="M 0 0 M2128.64 196.123 Q2128.64 189.955 2130.19 186.593 Q2132.37 181.593 2137.49 181.593 Q2138.58 181.593 2139.7 181.9 Q2140.85 182.187 2142.28 183.314 Q2143.74 184.441 2144.62 186.286 Q2146.3 189.852 2146.3 196.123 Q2146.3 202.251 2144.74 205.592 Q2142.47 210.47 2137.45 210.47 Q2135.56 210.47 2133.64 209.506 Q2131.73 208.543 2130.52 206.227 Q2128.64 202.764 2128.64 196.123 M2132.12 195.611 Q2132.12 201.944 2132.57 204.465 Q2133.08 207.19 2134.48 208.379 Q2135.89 209.547 2137.45 209.547 Q2139.13 209.547 2140.52 208.297 Q2141.94 207.027 2142.37 204.301 Q2142.84 201.616 2142.82 195.611 Q2142.82 189.77 2142.41 187.434 Q2141.85 184.708 2140.38 183.622 Q2138.92 182.515 2137.45 182.515 Q2136.89 182.515 2136.3 182.679 Q2135.73 182.843 2134.89 183.314 Q2134.05 183.786 2133.39 184.954 Q2132.75 186.122 2132.45 187.885 Q2132.12 190.159 2132.12 195.611 Z" fill="#000000" fill-rule="evenodd" fill-opacity="1" /><path clip-path="url(#clip120)" d="M 0 0 M2150.01 208.871 Q2149.42 208.195 2149.42 207.313 Q2149.42 206.432 2149.99 205.776 Q2150.58 205.1 2151.65 205.1 Q2152.9 205.1 2153.62 206.309 Q2154.34 207.498 2154.34 209.506 Q2154.34 211.679 2153.45 213.687 Q2152.57 215.716 2151.71 216.68 Q2150.85 217.643 2150.5 217.643 Q2150.09 217.643 2150.09 217.192 Q2150.09 217.028 2150.38 216.721 Q2153.39 213.482 2153.41 209.506 Q2153.41 208.871 2153.33 208.871 L2153.23 208.953 Q2152.51 209.547 2151.65 209.547 Q2150.61 209.547 2150.01 208.871 Z" fill="#000000" fill-rule="evenodd" fill-opacity="1" /><path clip-path="url(#clip120)" d="M 0 0 M2188.18 203.542 Q2187.66 206.063 2186.62 207.826 Q2185.33 210.019 2183.36 210.019 Q2181.7 210.019 2180.59 208.871 Q2179.49 207.703 2179.49 205.858 Q2179.49 205.305 2179.71 204.383 Q2179.79 203.973 2179.79 203.46 Q2179.79 200.14 2172.6 199.894 Q2172 202.251 2171.59 203.85 Q2171.21 205.428 2171.08 205.899 Q2170.96 206.371 2170.86 206.76 Q2170.78 207.15 2170.63 207.662 Q2170.43 208.502 2170.28 208.912 Q2170.14 209.322 2169.75 209.67 Q2169.38 210.019 2168.79 210.019 Q2168.27 210.019 2167.93 209.711 Q2167.58 209.404 2167.58 208.871 Q2167.58 208.502 2167.74 207.908 L2171.59 192.516 Q2171.7 192.086 2171.9 191.779 Q2172.11 191.471 2172.29 191.328 Q2172.5 191.184 2172.74 191.102 Q2172.99 191.02 2173.09 191.02 Q2173.19 191 2173.28 191 Q2173.83 191 2174.16 191.307 Q2174.51 191.594 2174.51 192.127 Q2174.51 192.209 2174.36 192.783 Q2174.24 193.336 2174.03 194.176 Q2173.83 195.017 2173.75 195.406 L2172.91 198.685 Q2174.07 198.296 2175.12 197.599 Q2176.19 196.902 2178.28 195.099 Q2179.24 194.299 2179.81 193.848 Q2180.41 193.377 2181.39 192.742 Q2182.38 192.086 2183.32 191.779 Q2184.26 191.451 2185.16 191.451 Q2185.86 191.451 2186.27 191.779 Q2186.68 192.086 2186.76 192.373 Q2186.84 192.639 2186.84 192.926 Q2186.84 193.767 2186.19 194.484 Q2185.53 195.201 2184.57 195.201 Q2183.71 195.201 2183.34 194.73 Q2182.97 194.258 2182.97 193.726 Q2182.97 193.316 2183.17 192.803 Q2182.03 193.295 2181.04 194.012 Q2180.06 194.709 2178.36 196.164 Q2175.94 198.234 2174.51 199.013 Q2175.32 199.034 2175.94 199.095 Q2176.58 199.136 2177.64 199.28 Q2178.71 199.423 2179.49 199.73 Q2180.26 200.017 2181.02 200.468 Q2181.8 200.919 2182.21 201.657 Q2182.64 202.395 2182.64 203.338 Q2182.64 203.788 2182.44 204.711 Q2182.09 206.227 2182.09 207.068 Q2182.09 208.133 2182.42 208.605 Q2182.76 209.076 2183.44 209.076 Q2184.73 209.076 2185.55 207.744 Q2186.39 206.391 2187.09 203.891 Q2187.19 203.419 2187.29 203.276 Q2187.4 203.133 2187.68 203.133 Q2188.18 203.133 2188.18 203.542 Z" fill="#000000" fill-rule="evenodd" fill-opacity="1" /><path clip-path="url(#clip120)" d="M 0 0 M2203.15 203.174 Q2203.19 202.661 2203.99 202.661 L2229.71 202.661 Q2230.92 202.661 2230.94 203.133 Q2230.94 203.645 2229.79 203.624 L2204.28 203.624 Q2203.15 203.645 2203.15 203.174 M2203.15 194.976 Q2203.15 194.463 2204.03 194.484 L2229.67 194.484 Q2230.92 194.484 2230.94 194.976 Q2230.94 195.447 2229.88 195.447 L2203.99 195.447 Q2203.15 195.447 2203.15 194.976 Z" fill="#000000" fill-rule="evenodd" fill-opacity="1" /><path clip-path="url(#clip120)" d="M 0 0 M2247.12 185.589 L2247.12 184.277 Q2252.17 184.277 2254.77 181.593 Q2255.49 181.593 2255.61 181.757 Q2255.73 181.921 2255.73 182.679 L2255.73 206.227 Q2255.73 207.477 2256.35 207.867 Q2256.96 208.256 2259.65 208.256 L2260.98 208.256 L2260.98 209.547 Q2259.5 209.424 2254.18 209.424 Q2248.85 209.424 2247.39 209.547 L2247.39 208.256 L2248.72 208.256 Q2251.37 208.256 2252 207.887 Q2252.64 207.498 2252.64 206.227 L2252.64 184.482 Q2250.45 185.589 2247.12 185.589 Z" fill="#000000" fill-rule="evenodd" fill-opacity="1" /><path clip-path="url(#clip120)" d="M 0 0 M2264.53 196.123 Q2264.53 189.955 2266.09 186.593 Q2268.26 181.593 2273.38 181.593 Q2274.47 181.593 2275.6 181.9 Q2276.75 182.187 2278.18 183.314 Q2279.64 184.441 2280.52 186.286 Q2282.2 189.852 2282.2 196.123 Q2282.2 202.251 2280.64 205.592 Q2278.37 210.47 2273.34 210.47 Q2271.46 210.47 2269.53 209.506 Q2267.63 208.543 2266.42 206.227 Q2264.53 202.764 2264.53 196.123 M2268.02 195.611 Q2268.02 201.944 2268.47 204.465 Q2268.98 207.19 2270.37 208.379 Q2271.79 209.547 2273.34 209.547 Q2275.02 209.547 2276.42 208.297 Q2277.83 207.027 2278.26 204.301 Q2278.73 201.616 2278.71 195.611 Q2278.71 189.77 2278.3 187.434 Q2277.75 184.708 2276.27 183.622 Q2274.82 182.515 2273.34 182.515 Q2272.79 182.515 2272.2 182.679 Q2271.62 182.843 2270.78 183.314 Q2269.94 183.786 2269.29 184.954 Q2268.65 186.122 2268.34 187.885 Q2268.02 190.159 2268.02 195.611 Z" fill="#000000" fill-rule="evenodd" fill-opacity="1" /><polyline clip-path="url(#clip120)" style="stroke:#ff0000; stroke-width:3.5; stroke-opacity:1; fill:none" points="
  1811.53,252.413 1951.52,252.413 
  "/>
<path clip-path="url(#clip120)" d="M 0 0 M2003.4 234.513 Q2003.4 234.902 2003.32 235.23 L2002.17 242.526 Q2002.11 243.079 2001.99 243.284 Q2001.88 243.489 2001.56 243.489 Q2001.04 243.489 2001.04 242.956 Q2001.04 242.649 2001.17 242.157 Q2001.52 239.841 2001.52 238.796 Q2001.52 238.099 2001.37 237.587 Q2001.25 237.054 2001.04 236.685 Q2000.86 236.316 2000.43 236.07 Q2000 235.824 1999.59 235.681 Q1999.18 235.537 1998.44 235.476 Q1997.7 235.394 1997.07 235.373 Q1996.43 235.353 1995.39 235.353 Q1993.11 235.353 1992.74 235.435 Q1992.35 235.537 1992.15 235.845 Q1991.97 236.132 1991.76 236.993 L1986.19 259.27 L1986.02 260.151 Q1986.02 260.643 1986.33 260.807 Q1986.64 260.971 1987.58 261.074 Q1988.93 261.176 1990.26 261.176 Q1990.31 261.176 1990.39 261.176 Q1990.84 261.176 1991.02 261.197 Q1991.21 261.197 1991.39 261.238 Q1991.58 261.279 1991.62 261.381 Q1991.68 261.463 1991.68 261.627 Q1991.68 262.016 1991.51 262.221 Q1991.35 262.406 1991.19 262.447 Q1991.04 262.467 1990.76 262.467 Q1990.18 262.467 1988.95 262.426 Q1987.72 262.385 1987.11 262.385 L1983.62 262.344 L1980.06 262.385 Q1979.5 262.385 1978.34 262.426 Q1977.17 262.467 1976.61 262.467 Q1975.9 262.467 1975.9 261.955 Q1975.9 261.381 1976.16 261.279 Q1976.45 261.176 1977.66 261.176 Q1979.36 261.176 1980.28 261.094 Q1981.21 261.012 1981.7 260.725 Q1982.21 260.438 1982.35 260.151 Q1982.5 259.844 1982.66 259.147 L1988.3 236.747 Q1988.46 236.255 1988.46 235.865 Q1988.46 235.66 1988.4 235.578 Q1988.36 235.496 1988.09 235.435 Q1987.83 235.353 1987.27 235.353 L1985.63 235.353 Q1983.95 235.353 1982.91 235.435 Q1981.88 235.496 1980.9 235.804 Q1979.93 236.111 1979.36 236.542 Q1978.81 236.972 1978.19 237.853 Q1977.58 238.735 1977.13 239.8 Q1976.7 240.866 1976.08 242.608 Q1975.88 243.182 1975.75 243.346 Q1975.65 243.489 1975.36 243.489 Q1975.16 243.489 1975 243.366 Q1974.85 243.223 1974.85 243.038 Q1975.06 242.362 1975.1 242.28 L1977.62 234.882 Q1977.82 234.287 1978.01 234.185 Q1978.21 234.062 1978.97 234.062 L2002.25 234.062 Q2002.62 234.062 2002.75 234.062 Q2002.87 234.062 2003.07 234.103 Q2003.28 234.144 2003.34 234.246 Q2003.4 234.349 2003.4 234.513 Z" fill="#000000" fill-rule="evenodd" fill-opacity="1" /><path clip-path="url(#clip120)" d="M 0 0 M2010.77 256.094 Q2010.81 255.581 2011.61 255.581 L2037.33 255.581 Q2038.54 255.581 2038.56 256.053 Q2038.56 256.565 2037.41 256.544 L2011.9 256.544 Q2010.77 256.565 2010.77 256.094 M2010.77 247.896 Q2010.77 247.383 2011.65 247.404 L2037.29 247.404 Q2038.54 247.404 2038.56 247.896 Q2038.56 248.367 2037.49 248.367 L2011.61 248.367 Q2010.77 248.367 2010.77 247.896 Z" fill="#000000" fill-rule="evenodd" fill-opacity="1" /><path clip-path="url(#clip120)" d="M 0 0 M2054.74 256.811 Q2054.74 255.561 2055.46 254.966 Q2056.18 254.372 2057.1 254.372 Q2058.06 254.372 2058.74 255.007 Q2059.44 255.622 2059.44 256.708 Q2059.44 257.877 2058.62 258.532 Q2057.82 259.188 2056.67 259.024 Q2057.67 260.705 2059.52 261.463 Q2061.38 262.221 2063.11 262.221 Q2064.91 262.221 2066.36 260.664 Q2067.84 259.106 2067.84 255.294 Q2067.84 252.056 2066.57 250.191 Q2065.32 248.326 2062.84 248.326 L2060.99 248.326 Q2060.36 248.326 2060.18 248.265 Q2059.99 248.203 2059.99 247.855 Q2059.99 247.445 2060.63 247.363 Q2061.26 247.363 2062.27 247.24 Q2064.7 247.158 2066 245.047 Q2067.16 243.079 2067.16 240.272 Q2067.16 237.71 2065.93 236.644 Q2064.73 235.558 2063.15 235.558 Q2061.67 235.558 2060.05 236.173 Q2058.43 236.788 2057.55 238.161 Q2060.15 238.161 2060.15 240.272 Q2060.15 241.194 2059.56 241.809 Q2058.99 242.403 2058.02 242.403 Q2057.1 242.403 2056.49 241.829 Q2055.87 241.235 2055.87 240.231 Q2055.87 237.833 2058 236.173 Q2060.15 234.513 2063.31 234.513 Q2066.43 234.513 2068.72 236.152 Q2071.04 237.792 2071.04 240.313 Q2071.04 242.793 2069.4 244.821 Q2067.76 246.85 2065.16 247.691 Q2068.35 248.326 2070.26 250.499 Q2072.16 252.65 2072.16 255.294 Q2072.16 258.573 2069.58 260.992 Q2067 263.39 2063.23 263.39 Q2059.74 263.39 2057.24 261.504 Q2054.74 259.619 2054.74 256.811 Z" fill="#000000" fill-rule="evenodd" fill-opacity="1" /><path clip-path="url(#clip120)" d="M 0 0 M2075.53 249.043 Q2075.53 242.875 2077.08 239.513 Q2079.26 234.513 2084.38 234.513 Q2085.47 234.513 2086.59 234.82 Q2087.74 235.107 2089.17 236.234 Q2090.63 237.361 2091.51 239.206 Q2093.19 242.772 2093.19 249.043 Q2093.19 255.171 2091.63 258.512 Q2089.36 263.39 2084.34 263.39 Q2082.45 263.39 2080.53 262.426 Q2078.62 261.463 2077.41 259.147 Q2075.53 255.684 2075.53 249.043 M2079.01 248.531 Q2079.01 254.864 2079.46 257.385 Q2079.97 260.11 2081.37 261.299 Q2082.78 262.467 2084.34 262.467 Q2086.02 262.467 2087.41 261.217 Q2088.83 259.947 2089.26 257.221 Q2089.73 254.536 2089.71 248.531 Q2089.71 242.69 2089.3 240.354 Q2088.74 237.628 2087.27 236.542 Q2085.81 235.435 2084.34 235.435 Q2083.78 235.435 2083.19 235.599 Q2082.62 235.763 2081.78 236.234 Q2080.94 236.706 2080.28 237.874 Q2079.64 239.042 2079.34 240.805 Q2079.01 243.079 2079.01 248.531 Z" fill="#000000" fill-rule="evenodd" fill-opacity="1" /><path clip-path="url(#clip120)" d="M 0 0 M2096.31 249.043 Q2096.31 242.875 2097.86 239.513 Q2100.04 234.513 2105.16 234.513 Q2106.25 234.513 2107.37 234.82 Q2108.52 235.107 2109.96 236.234 Q2111.41 237.361 2112.29 239.206 Q2113.97 242.772 2113.97 249.043 Q2113.97 255.171 2112.42 258.512 Q2110.14 263.39 2105.12 263.39 Q2103.23 263.39 2101.31 262.426 Q2099.4 261.463 2098.19 259.147 Q2096.31 255.684 2096.31 249.043 M2099.79 248.531 Q2099.79 254.864 2100.24 257.385 Q2100.75 260.11 2102.15 261.299 Q2103.56 262.467 2105.12 262.467 Q2106.8 262.467 2108.19 261.217 Q2109.61 259.947 2110.04 257.221 Q2110.51 254.536 2110.49 248.531 Q2110.49 242.69 2110.08 240.354 Q2109.53 237.628 2108.05 236.542 Q2106.59 235.435 2105.12 235.435 Q2104.57 235.435 2103.97 235.599 Q2103.4 235.763 2102.56 236.234 Q2101.72 236.706 2101.06 237.874 Q2100.43 239.042 2100.12 240.805 Q2099.79 243.079 2099.79 248.531 Z" fill="#000000" fill-rule="evenodd" fill-opacity="1" /><path clip-path="url(#clip120)" d="M 0 0 M2117.72 261.791 Q2117.09 261.115 2117.09 260.233 Q2117.09 259.352 2117.72 258.717 Q2118.36 258.061 2119.32 258.061 Q2120.24 258.061 2120.86 258.676 Q2121.49 259.27 2121.49 260.254 Q2121.49 261.217 2120.82 261.853 Q2120.16 262.467 2119.32 262.467 Q2118.36 262.467 2117.72 261.791 Z" fill="#000000" fill-rule="evenodd" fill-opacity="1" /><path clip-path="url(#clip120)" d="M 0 0 M2128.64 249.043 Q2128.64 242.875 2130.19 239.513 Q2132.37 234.513 2137.49 234.513 Q2138.58 234.513 2139.7 234.82 Q2140.85 235.107 2142.28 236.234 Q2143.74 237.361 2144.62 239.206 Q2146.3 242.772 2146.3 249.043 Q2146.3 255.171 2144.74 258.512 Q2142.47 263.39 2137.45 263.39 Q2135.56 263.39 2133.64 262.426 Q2131.73 261.463 2130.52 259.147 Q2128.64 255.684 2128.64 249.043 M2132.12 248.531 Q2132.12 254.864 2132.57 257.385 Q2133.08 260.11 2134.48 261.299 Q2135.89 262.467 2137.45 262.467 Q2139.13 262.467 2140.52 261.217 Q2141.94 259.947 2142.37 257.221 Q2142.84 254.536 2142.82 248.531 Q2142.82 242.69 2142.41 240.354 Q2141.85 237.628 2140.38 236.542 Q2138.92 235.435 2137.45 235.435 Q2136.89 235.435 2136.3 235.599 Q2135.73 235.763 2134.89 236.234 Q2134.05 236.706 2133.39 237.874 Q2132.75 239.042 2132.45 240.805 Q2132.12 243.079 2132.12 248.531 Z" fill="#000000" fill-rule="evenodd" fill-opacity="1" /><path clip-path="url(#clip120)" d="M 0 0 M2150.01 261.791 Q2149.42 261.115 2149.42 260.233 Q2149.42 259.352 2149.99 258.696 Q2150.58 258.02 2151.65 258.02 Q2152.9 258.02 2153.62 259.229 Q2154.34 260.418 2154.34 262.426 Q2154.34 264.599 2153.45 266.607 Q2152.57 268.636 2151.71 269.6 Q2150.85 270.563 2150.5 270.563 Q2150.09 270.563 2150.09 270.112 Q2150.09 269.948 2150.38 269.641 Q2153.39 266.402 2153.41 262.426 Q2153.41 261.791 2153.33 261.791 L2153.23 261.873 Q2152.51 262.467 2151.65 262.467 Q2150.61 262.467 2150.01 261.791 Z" fill="#000000" fill-rule="evenodd" fill-opacity="1" /><path clip-path="url(#clip120)" d="M 0 0 M2188.18 256.462 Q2187.66 258.983 2186.62 260.746 Q2185.33 262.939 2183.36 262.939 Q2181.7 262.939 2180.59 261.791 Q2179.49 260.623 2179.49 258.778 Q2179.49 258.225 2179.71 257.303 Q2179.79 256.893 2179.79 256.38 Q2179.79 253.06 2172.6 252.814 Q2172 255.171 2171.59 256.77 Q2171.21 258.348 2171.08 258.819 Q2170.96 259.291 2170.86 259.68 Q2170.78 260.07 2170.63 260.582 Q2170.43 261.422 2170.28 261.832 Q2170.14 262.242 2169.75 262.59 Q2169.38 262.939 2168.79 262.939 Q2168.27 262.939 2167.93 262.631 Q2167.58 262.324 2167.58 261.791 Q2167.58 261.422 2167.74 260.828 L2171.59 245.436 Q2171.7 245.006 2171.9 244.699 Q2172.11 244.391 2172.29 244.248 Q2172.5 244.104 2172.74 244.022 Q2172.99 243.94 2173.09 243.94 Q2173.19 243.92 2173.28 243.92 Q2173.83 243.92 2174.16 244.227 Q2174.51 244.514 2174.51 245.047 Q2174.51 245.129 2174.36 245.703 Q2174.24 246.256 2174.03 247.096 Q2173.83 247.937 2173.75 248.326 L2172.91 251.605 Q2174.07 251.216 2175.12 250.519 Q2176.19 249.822 2178.28 248.019 Q2179.24 247.219 2179.81 246.768 Q2180.41 246.297 2181.39 245.662 Q2182.38 245.006 2183.32 244.699 Q2184.26 244.371 2185.16 244.371 Q2185.86 244.371 2186.27 244.699 Q2186.68 245.006 2186.76 245.293 Q2186.84 245.559 2186.84 245.846 Q2186.84 246.687 2186.19 247.404 Q2185.53 248.121 2184.57 248.121 Q2183.71 248.121 2183.34 247.65 Q2182.97 247.178 2182.97 246.646 Q2182.97 246.236 2183.17 245.723 Q2182.03 246.215 2181.04 246.932 Q2180.06 247.629 2178.36 249.084 Q2175.94 251.154 2174.51 251.933 Q2175.32 251.954 2175.94 252.015 Q2176.58 252.056 2177.64 252.2 Q2178.71 252.343 2179.49 252.65 Q2180.26 252.937 2181.02 253.388 Q2181.8 253.839 2182.21 254.577 Q2182.64 255.315 2182.64 256.258 Q2182.64 256.708 2182.44 257.631 Q2182.09 259.147 2182.09 259.988 Q2182.09 261.053 2182.42 261.525 Q2182.76 261.996 2183.44 261.996 Q2184.73 261.996 2185.55 260.664 Q2186.39 259.311 2187.09 256.811 Q2187.19 256.339 2187.29 256.196 Q2187.4 256.053 2187.68 256.053 Q2188.18 256.053 2188.18 256.462 Z" fill="#000000" fill-rule="evenodd" fill-opacity="1" /><path clip-path="url(#clip120)" d="M 0 0 M2203.15 256.094 Q2203.19 255.581 2203.99 255.581 L2229.71 255.581 Q2230.92 255.581 2230.94 256.053 Q2230.94 256.565 2229.79 256.544 L2204.28 256.544 Q2203.15 256.565 2203.15 256.094 M2203.15 247.896 Q2203.15 247.383 2204.03 247.404 L2229.67 247.404 Q2230.92 247.404 2230.94 247.896 Q2230.94 248.367 2229.88 248.367 L2203.99 248.367 Q2203.15 248.367 2203.15 247.896 Z" fill="#000000" fill-rule="evenodd" fill-opacity="1" /><path clip-path="url(#clip120)" d="M 0 0 M2247.12 238.509 L2247.12 237.197 Q2252.17 237.197 2254.77 234.513 Q2255.49 234.513 2255.61 234.677 Q2255.73 234.841 2255.73 235.599 L2255.73 259.147 Q2255.73 260.397 2256.35 260.787 Q2256.96 261.176 2259.65 261.176 L2260.98 261.176 L2260.98 262.467 Q2259.5 262.344 2254.18 262.344 Q2248.85 262.344 2247.39 262.467 L2247.39 261.176 L2248.72 261.176 Q2251.37 261.176 2252 260.807 Q2252.64 260.418 2252.64 259.147 L2252.64 237.402 Q2250.45 238.509 2247.12 238.509 Z" fill="#000000" fill-rule="evenodd" fill-opacity="1" /><path clip-path="url(#clip120)" d="M 0 0 M2264.53 249.043 Q2264.53 242.875 2266.09 239.513 Q2268.26 234.513 2273.38 234.513 Q2274.47 234.513 2275.6 234.82 Q2276.75 235.107 2278.18 236.234 Q2279.64 237.361 2280.52 239.206 Q2282.2 242.772 2282.2 249.043 Q2282.2 255.171 2280.64 258.512 Q2278.37 263.39 2273.34 263.39 Q2271.46 263.39 2269.53 262.426 Q2267.63 261.463 2266.42 259.147 Q2264.53 255.684 2264.53 249.043 M2268.02 248.531 Q2268.02 254.864 2268.47 257.385 Q2268.98 260.11 2270.37 261.299 Q2271.79 262.467 2273.34 262.467 Q2275.02 262.467 2276.42 261.217 Q2277.83 259.947 2278.26 257.221 Q2278.73 254.536 2278.71 248.531 Q2278.71 242.69 2278.3 240.354 Q2277.75 237.628 2276.27 236.542 Q2274.82 235.435 2273.34 235.435 Q2272.79 235.435 2272.2 235.599 Q2271.62 235.763 2270.78 236.234 Q2269.94 236.706 2269.29 237.874 Q2268.65 239.042 2268.34 240.805 Q2268.02 243.079 2268.02 248.531 Z" fill="#000000" fill-rule="evenodd" fill-opacity="1" /><path clip-path="url(#clip120)" d="M 0 0 M2285.31 249.043 Q2285.31 242.875 2286.87 239.513 Q2289.04 234.513 2294.17 234.513 Q2295.25 234.513 2296.38 234.82 Q2297.53 235.107 2298.96 236.234 Q2300.42 237.361 2301.3 239.206 Q2302.98 242.772 2302.98 249.043 Q2302.98 255.171 2301.42 258.512 Q2299.15 263.39 2294.13 263.39 Q2292.24 263.39 2290.31 262.426 Q2288.41 261.463 2287.2 259.147 Q2285.31 255.684 2285.31 249.043 M2288.8 248.531 Q2288.8 254.864 2289.25 257.385 Q2289.76 260.11 2291.15 261.299 Q2292.57 262.467 2294.13 262.467 Q2295.81 262.467 2297.2 261.217 Q2298.61 259.947 2299.04 257.221 Q2299.52 254.536 2299.49 248.531 Q2299.49 242.69 2299.08 240.354 Q2298.53 237.628 2297.06 236.542 Q2295.6 235.435 2294.13 235.435 Q2293.57 235.435 2292.98 235.599 Q2292.4 235.763 2291.56 236.234 Q2290.72 236.706 2290.07 237.874 Q2289.43 239.042 2289.12 240.805 Q2288.8 243.079 2288.8 248.531 Z" fill="#000000" fill-rule="evenodd" fill-opacity="1" /></svg>
