<?xml version="1.0" encoding="utf-8"?>
<svg xmlns="http://www.w3.org/2000/svg" xmlns:xlink="http://www.w3.org/1999/xlink" width="600" height="400" viewBox="0 0 2400 1600">
<defs>
  <clipPath id="clip690">
    <rect x="0" y="0" width="2400" height="1600"/>
  </clipPath>
</defs>
<path clip-path="url(#clip690)" d="
M0 1600 L2400 1600 L2400 0 L0 0  Z
  " fill="#ffffff" fill-rule="evenodd" fill-opacity="1"/>
<defs>
  <clipPath id="clip691">
    <rect x="480" y="0" width="1681" height="1600"/>
  </clipPath>
</defs>
<defs>
  <clipPath id="clip692">
    <rect x="244" y="47" width="1759" height="1397"/>
  </clipPath>
</defs>
<path clip-path="url(#clip690)" d="
M280.876 1439.5 L1771.98 1439.5 L1771.98 47.2441 L280.876 47.2441  Z
  " fill="#ffffff" fill-rule="evenodd" fill-opacity="1"/>
<defs>
  <clipPath id="clip693">
    <rect x="280" y="47" width="1492" height="1393"/>
  </clipPath>
</defs>
<polyline clip-path="url(#clip693)" style="stroke:#000000; stroke-width:2; stroke-opacity:0.1; fill:none" points="
  322.796,1439.5 322.796,47.2441 
  "/>
<polyline clip-path="url(#clip693)" style="stroke:#000000; stroke-width:2; stroke-opacity:0.1; fill:none" points="
  604.192,1439.5 604.192,47.2441 
  "/>
<polyline clip-path="url(#clip693)" style="stroke:#000000; stroke-width:2; stroke-opacity:0.1; fill:none" points="
  885.588,1439.5 885.588,47.2441 
  "/>
<polyline clip-path="url(#clip693)" style="stroke:#000000; stroke-width:2; stroke-opacity:0.1; fill:none" points="
  1166.98,1439.5 1166.98,47.2441 
  "/>
<polyline clip-path="url(#clip693)" style="stroke:#000000; stroke-width:2; stroke-opacity:0.1; fill:none" points="
  1448.38,1439.5 1448.38,47.2441 
  "/>
<polyline clip-path="url(#clip693)" style="stroke:#000000; stroke-width:2; stroke-opacity:0.1; fill:none" points="
  1729.78,1439.5 1729.78,47.2441 
  "/>
<polyline clip-path="url(#clip690)" style="stroke:#000000; stroke-width:4; stroke-opacity:1; fill:none" points="
  280.876,1439.5 1771.98,1439.5 
  "/>
<polyline clip-path="url(#clip690)" style="stroke:#000000; stroke-width:4; stroke-opacity:1; fill:none" points="
  322.796,1439.5 322.796,1422.79 
  "/>
<polyline clip-path="url(#clip690)" style="stroke:#000000; stroke-width:4; stroke-opacity:1; fill:none" points="
  604.192,1439.5 604.192,1422.79 
  "/>
<polyline clip-path="url(#clip690)" style="stroke:#000000; stroke-width:4; stroke-opacity:1; fill:none" points="
  885.588,1439.5 885.588,1422.79 
  "/>
<polyline clip-path="url(#clip690)" style="stroke:#000000; stroke-width:4; stroke-opacity:1; fill:none" points="
  1166.98,1439.5 1166.98,1422.79 
  "/>
<polyline clip-path="url(#clip690)" style="stroke:#000000; stroke-width:4; stroke-opacity:1; fill:none" points="
  1448.38,1439.5 1448.38,1422.79 
  "/>
<polyline clip-path="url(#clip690)" style="stroke:#000000; stroke-width:4; stroke-opacity:1; fill:none" points="
  1729.78,1439.5 1729.78,1422.79 
  "/>
<path clip-path="url(#clip690)" d="M 0 0 M322.796 1468.69 Q319.185 1468.69 317.356 1472.26 Q315.551 1475.8 315.551 1482.93 Q315.551 1490.04 317.356 1493.6 Q319.185 1497.14 322.796 1497.14 Q326.43 1497.14 328.236 1493.6 Q330.064 1490.04 330.064 1482.93 Q330.064 1475.8 328.236 1472.26 Q326.43 1468.69 322.796 1468.69 M322.796 1464.99 Q328.606 1464.99 331.662 1469.6 Q334.74 1474.18 334.74 1482.93 Q334.74 1491.66 331.662 1496.26 Q328.606 1500.85 322.796 1500.85 Q316.986 1500.85 313.907 1496.26 Q310.852 1491.66 310.852 1482.93 Q310.852 1474.18 313.907 1469.6 Q316.986 1464.99 322.796 1464.99 Z" fill="#000000" fill-rule="evenodd" fill-opacity="1" /><path clip-path="url(#clip690)" d="M 0 0 M563.799 1496.24 L571.438 1496.24 L571.438 1469.87 L563.127 1471.54 L563.127 1467.28 L571.391 1465.61 L576.067 1465.61 L576.067 1496.24 L583.706 1496.24 L583.706 1500.17 L563.799 1500.17 L563.799 1496.24 Z" fill="#000000" fill-rule="evenodd" fill-opacity="1" /><path clip-path="url(#clip690)" d="M 0 0 M603.15 1468.69 Q599.539 1468.69 597.711 1472.26 Q595.905 1475.8 595.905 1482.93 Q595.905 1490.04 597.711 1493.6 Q599.539 1497.14 603.15 1497.14 Q606.785 1497.14 608.59 1493.6 Q610.419 1490.04 610.419 1482.93 Q610.419 1475.8 608.59 1472.26 Q606.785 1468.69 603.15 1468.69 M603.15 1464.99 Q608.961 1464.99 612.016 1469.6 Q615.095 1474.18 615.095 1482.93 Q615.095 1491.66 612.016 1496.26 Q608.961 1500.85 603.15 1500.85 Q597.34 1500.85 594.262 1496.26 Q591.206 1491.66 591.206 1482.93 Q591.206 1474.18 594.262 1469.6 Q597.34 1464.99 603.15 1464.99 Z" fill="#000000" fill-rule="evenodd" fill-opacity="1" /><path clip-path="url(#clip690)" d="M 0 0 M633.312 1468.69 Q629.701 1468.69 627.873 1472.26 Q626.067 1475.8 626.067 1482.93 Q626.067 1490.04 627.873 1493.6 Q629.701 1497.14 633.312 1497.14 Q636.947 1497.14 638.752 1493.6 Q640.581 1490.04 640.581 1482.93 Q640.581 1475.8 638.752 1472.26 Q636.947 1468.69 633.312 1468.69 M633.312 1464.99 Q639.122 1464.99 642.178 1469.6 Q645.257 1474.18 645.257 1482.93 Q645.257 1491.66 642.178 1496.26 Q639.122 1500.85 633.312 1500.85 Q627.502 1500.85 624.423 1496.26 Q621.368 1491.66 621.368 1482.93 Q621.368 1474.18 624.423 1469.6 Q627.502 1464.99 633.312 1464.99 Z" fill="#000000" fill-rule="evenodd" fill-opacity="1" /><path clip-path="url(#clip690)" d="M 0 0 M849.281 1496.24 L865.6 1496.24 L865.6 1500.17 L843.656 1500.17 L843.656 1496.24 Q846.318 1493.48 850.901 1488.85 Q855.507 1484.2 856.688 1482.86 Q858.933 1480.34 859.813 1478.6 Q860.716 1476.84 860.716 1475.15 Q860.716 1472.4 858.771 1470.66 Q856.85 1468.92 853.748 1468.92 Q851.549 1468.92 849.095 1469.69 Q846.665 1470.45 843.887 1472 L843.887 1467.28 Q846.711 1466.15 849.165 1465.57 Q851.619 1464.99 853.656 1464.99 Q859.026 1464.99 862.22 1467.67 Q865.415 1470.36 865.415 1474.85 Q865.415 1476.98 864.605 1478.9 Q863.818 1480.8 861.711 1483.39 Q861.132 1484.06 858.031 1487.28 Q854.929 1490.47 849.281 1496.24 Z" fill="#000000" fill-rule="evenodd" fill-opacity="1" /><path clip-path="url(#clip690)" d="M 0 0 M885.415 1468.69 Q881.804 1468.69 879.975 1472.26 Q878.169 1475.8 878.169 1482.93 Q878.169 1490.04 879.975 1493.6 Q881.804 1497.14 885.415 1497.14 Q889.049 1497.14 890.854 1493.6 Q892.683 1490.04 892.683 1482.93 Q892.683 1475.8 890.854 1472.26 Q889.049 1468.69 885.415 1468.69 M885.415 1464.99 Q891.225 1464.99 894.28 1469.6 Q897.359 1474.18 897.359 1482.93 Q897.359 1491.66 894.28 1496.26 Q891.225 1500.85 885.415 1500.85 Q879.605 1500.85 876.526 1496.26 Q873.47 1491.66 873.47 1482.93 Q873.47 1474.18 876.526 1469.6 Q879.605 1464.99 885.415 1464.99 Z" fill="#000000" fill-rule="evenodd" fill-opacity="1" /><path clip-path="url(#clip690)" d="M 0 0 M915.577 1468.69 Q911.965 1468.69 910.137 1472.26 Q908.331 1475.8 908.331 1482.93 Q908.331 1490.04 910.137 1493.6 Q911.965 1497.14 915.577 1497.14 Q919.211 1497.14 921.016 1493.6 Q922.845 1490.04 922.845 1482.93 Q922.845 1475.8 921.016 1472.26 Q919.211 1468.69 915.577 1468.69 M915.577 1464.99 Q921.387 1464.99 924.442 1469.6 Q927.521 1474.18 927.521 1482.93 Q927.521 1491.66 924.442 1496.26 Q921.387 1500.85 915.577 1500.85 Q909.766 1500.85 906.688 1496.26 Q903.632 1491.66 903.632 1482.93 Q903.632 1474.18 906.688 1469.6 Q909.766 1464.99 915.577 1464.99 Z" fill="#000000" fill-rule="evenodd" fill-opacity="1" /><path clip-path="url(#clip690)" d="M 0 0 M1140.75 1481.54 Q1144.1 1482.26 1145.98 1484.53 Q1147.88 1486.79 1147.88 1490.13 Q1147.88 1495.24 1144.36 1498.04 Q1140.84 1500.85 1134.36 1500.85 Q1132.18 1500.85 1129.87 1500.41 Q1127.57 1499.99 1125.12 1499.13 L1125.12 1494.62 Q1127.07 1495.75 1129.38 1496.33 Q1131.7 1496.91 1134.22 1496.91 Q1138.62 1496.91 1140.91 1495.17 Q1143.22 1493.44 1143.22 1490.13 Q1143.22 1487.07 1141.07 1485.36 Q1138.94 1483.62 1135.12 1483.62 L1131.09 1483.62 L1131.09 1479.78 L1135.31 1479.78 Q1138.76 1479.78 1140.58 1478.41 Q1142.41 1477.03 1142.41 1474.43 Q1142.41 1471.77 1140.51 1470.36 Q1138.64 1468.92 1135.12 1468.92 Q1133.2 1468.92 1131 1469.34 Q1128.8 1469.76 1126.16 1470.64 L1126.16 1466.47 Q1128.82 1465.73 1131.14 1465.36 Q1133.48 1464.99 1135.54 1464.99 Q1140.86 1464.99 1143.96 1467.42 Q1147.07 1469.83 1147.07 1473.95 Q1147.07 1476.82 1145.42 1478.81 Q1143.78 1480.78 1140.75 1481.54 Z" fill="#000000" fill-rule="evenodd" fill-opacity="1" /><path clip-path="url(#clip690)" d="M 0 0 M1166.74 1468.69 Q1163.13 1468.69 1161.3 1472.26 Q1159.5 1475.8 1159.5 1482.93 Q1159.5 1490.04 1161.3 1493.6 Q1163.13 1497.14 1166.74 1497.14 Q1170.38 1497.14 1172.18 1493.6 Q1174.01 1490.04 1174.01 1482.93 Q1174.01 1475.8 1172.18 1472.26 Q1170.38 1468.69 1166.74 1468.69 M1166.74 1464.99 Q1172.55 1464.99 1175.61 1469.6 Q1178.69 1474.18 1178.69 1482.93 Q1178.69 1491.66 1175.61 1496.26 Q1172.55 1500.85 1166.74 1500.85 Q1160.93 1500.85 1157.85 1496.26 Q1154.8 1491.66 1154.8 1482.93 Q1154.8 1474.18 1157.85 1469.6 Q1160.93 1464.99 1166.74 1464.99 Z" fill="#000000" fill-rule="evenodd" fill-opacity="1" /><path clip-path="url(#clip690)" d="M 0 0 M1196.9 1468.69 Q1193.29 1468.69 1191.46 1472.26 Q1189.66 1475.8 1189.66 1482.93 Q1189.66 1490.04 1191.46 1493.6 Q1193.29 1497.14 1196.9 1497.14 Q1200.54 1497.14 1202.34 1493.6 Q1204.17 1490.04 1204.17 1482.93 Q1204.17 1475.8 1202.34 1472.26 Q1200.54 1468.69 1196.9 1468.69 M1196.9 1464.99 Q1202.71 1464.99 1205.77 1469.6 Q1208.85 1474.18 1208.85 1482.93 Q1208.85 1491.66 1205.77 1496.26 Q1202.71 1500.85 1196.9 1500.85 Q1191.09 1500.85 1188.01 1496.26 Q1184.96 1491.66 1184.96 1482.93 Q1184.96 1474.18 1188.01 1469.6 Q1191.09 1464.99 1196.9 1464.99 Z" fill="#000000" fill-rule="evenodd" fill-opacity="1" /><path clip-path="url(#clip690)" d="M 0 0 M1421.47 1469.69 L1409.67 1488.14 L1421.47 1488.14 L1421.47 1469.69 M1420.24 1465.61 L1426.12 1465.61 L1426.12 1488.14 L1431.05 1488.14 L1431.05 1492.03 L1426.12 1492.03 L1426.12 1500.17 L1421.47 1500.17 L1421.47 1492.03 L1405.87 1492.03 L1405.87 1487.51 L1420.24 1465.61 Z" fill="#000000" fill-rule="evenodd" fill-opacity="1" /><path clip-path="url(#clip690)" d="M 0 0 M1448.79 1468.69 Q1445.17 1468.69 1443.35 1472.26 Q1441.54 1475.8 1441.54 1482.93 Q1441.54 1490.04 1443.35 1493.6 Q1445.17 1497.14 1448.79 1497.14 Q1452.42 1497.14 1454.23 1493.6 Q1456.05 1490.04 1456.05 1482.93 Q1456.05 1475.8 1454.23 1472.26 Q1452.42 1468.69 1448.79 1468.69 M1448.79 1464.99 Q1454.6 1464.99 1457.65 1469.6 Q1460.73 1474.18 1460.73 1482.93 Q1460.73 1491.66 1457.65 1496.26 Q1454.6 1500.85 1448.79 1500.85 Q1442.98 1500.85 1439.9 1496.26 Q1436.84 1491.66 1436.84 1482.93 Q1436.84 1474.18 1439.9 1469.6 Q1442.98 1464.99 1448.79 1464.99 Z" fill="#000000" fill-rule="evenodd" fill-opacity="1" /><path clip-path="url(#clip690)" d="M 0 0 M1478.95 1468.69 Q1475.34 1468.69 1473.51 1472.26 Q1471.7 1475.8 1471.7 1482.93 Q1471.7 1490.04 1473.51 1493.6 Q1475.34 1497.14 1478.95 1497.14 Q1482.58 1497.14 1484.39 1493.6 Q1486.22 1490.04 1486.22 1482.93 Q1486.22 1475.8 1484.39 1472.26 Q1482.58 1468.69 1478.95 1468.69 M1478.95 1464.99 Q1484.76 1464.99 1487.81 1469.6 Q1490.89 1474.18 1490.89 1482.93 Q1490.89 1491.66 1487.81 1496.26 Q1484.76 1500.85 1478.95 1500.85 Q1473.14 1500.85 1470.06 1496.26 Q1467 1491.66 1467 1482.93 Q1467 1474.18 1470.06 1469.6 Q1473.14 1464.99 1478.95 1464.99 Z" fill="#000000" fill-rule="evenodd" fill-opacity="1" /><path clip-path="url(#clip690)" d="M 0 0 M1689.4 1465.61 L1707.75 1465.61 L1707.75 1469.55 L1693.68 1469.55 L1693.68 1478.02 Q1694.7 1477.67 1695.71 1477.51 Q1696.73 1477.33 1697.75 1477.33 Q1703.54 1477.33 1706.92 1480.5 Q1710.3 1483.67 1710.3 1489.09 Q1710.3 1494.66 1706.83 1497.77 Q1703.35 1500.85 1697.03 1500.85 Q1694.86 1500.85 1692.59 1500.47 Q1690.34 1500.1 1687.94 1499.36 L1687.94 1494.66 Q1690.02 1495.8 1692.24 1496.35 Q1694.46 1496.91 1696.94 1496.91 Q1700.95 1496.91 1703.28 1494.8 Q1705.62 1492.7 1705.62 1489.09 Q1705.62 1485.47 1703.28 1483.37 Q1700.95 1481.26 1696.94 1481.26 Q1695.07 1481.26 1693.19 1481.68 Q1691.34 1482.1 1689.4 1482.97 L1689.4 1465.61 Z" fill="#000000" fill-rule="evenodd" fill-opacity="1" /><path clip-path="url(#clip690)" d="M 0 0 M1729.51 1468.69 Q1725.9 1468.69 1724.07 1472.26 Q1722.27 1475.8 1722.27 1482.93 Q1722.27 1490.04 1724.07 1493.6 Q1725.9 1497.14 1729.51 1497.14 Q1733.14 1497.14 1734.95 1493.6 Q1736.78 1490.04 1736.78 1482.93 Q1736.78 1475.8 1734.95 1472.26 Q1733.14 1468.69 1729.51 1468.69 M1729.51 1464.99 Q1735.32 1464.99 1738.38 1469.6 Q1741.46 1474.18 1741.46 1482.93 Q1741.46 1491.66 1738.38 1496.26 Q1735.32 1500.85 1729.51 1500.85 Q1723.7 1500.85 1720.62 1496.26 Q1717.57 1491.66 1717.57 1482.93 Q1717.57 1474.18 1720.62 1469.6 Q1723.7 1464.99 1729.51 1464.99 Z" fill="#000000" fill-rule="evenodd" fill-opacity="1" /><path clip-path="url(#clip690)" d="M 0 0 M1759.67 1468.69 Q1756.06 1468.69 1754.23 1472.26 Q1752.43 1475.8 1752.43 1482.93 Q1752.43 1490.04 1754.23 1493.6 Q1756.06 1497.14 1759.67 1497.14 Q1763.31 1497.14 1765.11 1493.6 Q1766.94 1490.04 1766.94 1482.93 Q1766.94 1475.8 1765.11 1472.26 Q1763.31 1468.69 1759.67 1468.69 M1759.67 1464.99 Q1765.48 1464.99 1768.54 1469.6 Q1771.62 1474.18 1771.62 1482.93 Q1771.62 1491.66 1768.54 1496.26 Q1765.48 1500.85 1759.67 1500.85 Q1753.86 1500.85 1750.78 1496.26 Q1747.73 1491.66 1747.73 1482.93 Q1747.73 1474.18 1750.78 1469.6 Q1753.86 1464.99 1759.67 1464.99 Z" fill="#000000" fill-rule="evenodd" fill-opacity="1" /><path clip-path="url(#clip690)" d="M 0 0 M1038.36 1535.75 Q1038.36 1541.16 1036.62 1547.24 Q1034.92 1553.3 1032.21 1558.19 Q1029.51 1563.06 1025.96 1566.28 Q1022.42 1569.47 1019.04 1569.47 Q1016.88 1569.47 1015.27 1568.27 Q1013.69 1567.05 1012.82 1565.02 Q1011.95 1562.96 1011.53 1560.71 Q1011.12 1558.42 1011.12 1555.94 Q1011.12 1552.24 1011.92 1548.21 Q1012.73 1544.15 1014.08 1540.48 Q1015.43 1536.78 1017.33 1533.43 Q1019.23 1530.05 1021.33 1527.6 Q1023.45 1525.12 1025.83 1523.67 Q1028.22 1522.22 1030.44 1522.22 Q1032.05 1522.22 1033.34 1522.93 Q1034.66 1523.6 1035.5 1524.8 Q1036.33 1525.96 1036.91 1527.34 Q1037.52 1528.73 1037.81 1530.34 Q1038.1 1531.91 1038.23 1533.23 Q1038.36 1534.52 1038.36 1535.75 M1034.01 1531.66 Q1034.01 1530.01 1033.89 1528.79 Q1033.76 1527.53 1033.4 1526.28 Q1033.05 1525.02 1032.28 1524.35 Q1031.53 1523.67 1030.37 1523.67 Q1026.99 1523.67 1023.19 1530.59 Q1021.97 1532.75 1020.87 1535.68 Q1019.78 1538.61 1019.39 1540 Q1019.01 1541.38 1018.1 1544.8 L1031.89 1544.8 Q1034.01 1536 1034.01 1531.66 M1031.31 1546.89 L1017.59 1546.89 Q1015.46 1554.94 1015.46 1559.96 Q1015.46 1564.34 1016.37 1566.18 Q1017.3 1567.98 1019.04 1567.98 Q1021.04 1567.98 1022.9 1565.99 Q1024.77 1563.96 1026.67 1560.29 Q1029.18 1555.52 1031.31 1546.89 Z" fill="#000000" fill-rule="evenodd" fill-opacity="1" /><polyline clip-path="url(#clip693)" style="stroke:#000000; stroke-width:2; stroke-opacity:0.1; fill:none" points="
  280.876,1433.95 1771.98,1433.95 
  "/>
<polyline clip-path="url(#clip693)" style="stroke:#000000; stroke-width:2; stroke-opacity:0.1; fill:none" points="
  280.876,1100.32 1771.98,1100.32 
  "/>
<polyline clip-path="url(#clip693)" style="stroke:#000000; stroke-width:2; stroke-opacity:0.1; fill:none" points="
  280.876,766.688 1771.98,766.688 
  "/>
<polyline clip-path="url(#clip693)" style="stroke:#000000; stroke-width:2; stroke-opacity:0.1; fill:none" points="
  280.876,433.054 1771.98,433.054 
  "/>
<polyline clip-path="url(#clip693)" style="stroke:#000000; stroke-width:2; stroke-opacity:0.1; fill:none" points="
  280.876,99.4212 1771.98,99.4212 
  "/>
<polyline clip-path="url(#clip690)" style="stroke:#000000; stroke-width:4; stroke-opacity:1; fill:none" points="
  280.876,1439.5 280.876,47.2441 
  "/>
<polyline clip-path="url(#clip690)" style="stroke:#000000; stroke-width:4; stroke-opacity:1; fill:none" points="
  280.876,1433.95 298.77,1433.95 
  "/>
<polyline clip-path="url(#clip690)" style="stroke:#000000; stroke-width:4; stroke-opacity:1; fill:none" points="
  280.876,1100.32 298.77,1100.32 
  "/>
<polyline clip-path="url(#clip690)" style="stroke:#000000; stroke-width:4; stroke-opacity:1; fill:none" points="
  280.876,766.688 298.77,766.688 
  "/>
<polyline clip-path="url(#clip690)" style="stroke:#000000; stroke-width:4; stroke-opacity:1; fill:none" points="
  280.876,433.054 298.77,433.054 
  "/>
<polyline clip-path="url(#clip690)" style="stroke:#000000; stroke-width:4; stroke-opacity:1; fill:none" points="
  280.876,99.4212 298.77,99.4212 
  "/>
<path clip-path="url(#clip690)" d="M 0 0 M187.701 1419.75 Q184.09 1419.75 182.261 1423.32 Q180.455 1426.86 180.455 1433.99 Q180.455 1441.1 182.261 1444.66 Q184.09 1448.2 187.701 1448.2 Q191.335 1448.2 193.14 1444.66 Q194.969 1441.1 194.969 1433.99 Q194.969 1426.86 193.14 1423.32 Q191.335 1419.75 187.701 1419.75 M187.701 1416.05 Q193.511 1416.05 196.566 1420.66 Q199.645 1425.24 199.645 1433.99 Q199.645 1442.72 196.566 1447.32 Q193.511 1451.91 187.701 1451.91 Q181.891 1451.91 178.812 1447.32 Q175.756 1442.72 175.756 1433.99 Q175.756 1425.24 178.812 1420.66 Q181.891 1416.05 187.701 1416.05 Z" fill="#000000" fill-rule="evenodd" fill-opacity="1" /><path clip-path="url(#clip690)" d="M 0 0 M207.863 1445.35 L212.747 1445.35 L212.747 1451.23 L207.863 1451.23 L207.863 1445.35 Z" fill="#000000" fill-rule="evenodd" fill-opacity="1" /><path clip-path="url(#clip690)" d="M 0 0 M232.932 1419.75 Q229.321 1419.75 227.492 1423.32 Q225.687 1426.86 225.687 1433.99 Q225.687 1441.1 227.492 1444.66 Q229.321 1448.2 232.932 1448.2 Q236.566 1448.2 238.372 1444.66 Q240.2 1441.1 240.2 1433.99 Q240.2 1426.86 238.372 1423.32 Q236.566 1419.75 232.932 1419.75 M232.932 1416.05 Q238.742 1416.05 241.798 1420.66 Q244.876 1425.24 244.876 1433.99 Q244.876 1442.72 241.798 1447.32 Q238.742 1451.91 232.932 1451.91 Q227.122 1451.91 224.043 1447.32 Q220.988 1442.72 220.988 1433.99 Q220.988 1425.24 224.043 1420.66 Q227.122 1416.05 232.932 1416.05 Z" fill="#000000" fill-rule="evenodd" fill-opacity="1" /><path clip-path="url(#clip690)" d="M 0 0 M182.724 1113.67 L199.043 1113.67 L199.043 1117.6 L177.099 1117.6 L177.099 1113.67 Q179.761 1110.91 184.344 1106.28 Q188.951 1101.63 190.131 1100.29 Q192.377 1097.76 193.256 1096.03 Q194.159 1094.27 194.159 1092.58 Q194.159 1089.82 192.215 1088.09 Q190.293 1086.35 187.191 1086.35 Q184.992 1086.35 182.539 1087.11 Q180.108 1087.88 177.33 1089.43 L177.33 1084.71 Q180.154 1083.57 182.608 1082.99 Q185.062 1082.42 187.099 1082.42 Q192.469 1082.42 195.664 1085.1 Q198.858 1087.79 198.858 1092.28 Q198.858 1094.41 198.048 1096.33 Q197.261 1098.23 195.154 1100.82 Q194.576 1101.49 191.474 1104.71 Q188.372 1107.9 182.724 1113.67 Z" fill="#000000" fill-rule="evenodd" fill-opacity="1" /><path clip-path="url(#clip690)" d="M 0 0 M208.858 1111.72 L213.742 1111.72 L213.742 1117.6 L208.858 1117.6 L208.858 1111.72 Z" fill="#000000" fill-rule="evenodd" fill-opacity="1" /><path clip-path="url(#clip690)" d="M 0 0 M223.974 1083.04 L242.33 1083.04 L242.33 1086.98 L228.256 1086.98 L228.256 1095.45 Q229.275 1095.1 230.293 1094.94 Q231.312 1094.75 232.33 1094.75 Q238.117 1094.75 241.497 1097.92 Q244.876 1101.1 244.876 1106.51 Q244.876 1112.09 241.404 1115.19 Q237.932 1118.27 231.612 1118.27 Q229.437 1118.27 227.168 1117.9 Q224.923 1117.53 222.515 1116.79 L222.515 1112.09 Q224.599 1113.23 226.821 1113.78 Q229.043 1114.34 231.52 1114.34 Q235.525 1114.34 237.862 1112.23 Q240.2 1110.12 240.2 1106.51 Q240.2 1102.9 237.862 1100.8 Q235.525 1098.69 231.52 1098.69 Q229.645 1098.69 227.77 1099.11 Q225.918 1099.52 223.974 1100.4 L223.974 1083.04 Z" fill="#000000" fill-rule="evenodd" fill-opacity="1" /><path clip-path="url(#clip690)" d="M 0 0 M177.747 749.408 L196.103 749.408 L196.103 753.343 L182.029 753.343 L182.029 761.815 Q183.048 761.468 184.066 761.306 Q185.085 761.12 186.103 761.12 Q191.89 761.12 195.27 764.292 Q198.65 767.463 198.65 772.88 Q198.65 778.458 195.178 781.56 Q191.705 784.639 185.386 784.639 Q183.21 784.639 180.941 784.268 Q178.696 783.898 176.289 783.157 L176.289 778.458 Q178.372 779.593 180.594 780.148 Q182.816 780.704 185.293 780.704 Q189.298 780.704 191.636 778.597 Q193.974 776.491 193.974 772.88 Q193.974 769.269 191.636 767.162 Q189.298 765.056 185.293 765.056 Q183.418 765.056 181.543 765.472 Q179.691 765.889 177.747 766.769 L177.747 749.408 Z" fill="#000000" fill-rule="evenodd" fill-opacity="1" /><path clip-path="url(#clip690)" d="M 0 0 M207.863 778.088 L212.747 778.088 L212.747 783.968 L207.863 783.968 L207.863 778.088 Z" fill="#000000" fill-rule="evenodd" fill-opacity="1" /><path clip-path="url(#clip690)" d="M 0 0 M232.932 752.486 Q229.321 752.486 227.492 756.051 Q225.687 759.593 225.687 766.722 Q225.687 773.829 227.492 777.393 Q229.321 780.935 232.932 780.935 Q236.566 780.935 238.372 777.393 Q240.2 773.829 240.2 766.722 Q240.2 759.593 238.372 756.051 Q236.566 752.486 232.932 752.486 M232.932 748.783 Q238.742 748.783 241.798 753.389 Q244.876 757.972 244.876 766.722 Q244.876 775.449 241.798 780.055 Q238.742 784.639 232.932 784.639 Q227.122 784.639 224.043 780.055 Q220.988 775.449 220.988 766.722 Q220.988 757.972 224.043 753.389 Q227.122 748.783 232.932 748.783 Z" fill="#000000" fill-rule="evenodd" fill-opacity="1" /><path clip-path="url(#clip690)" d="M 0 0 M177.516 415.774 L199.738 415.774 L199.738 417.765 L187.191 450.334 L182.307 450.334 L194.113 419.71 L177.516 419.71 L177.516 415.774 Z" fill="#000000" fill-rule="evenodd" fill-opacity="1" /><path clip-path="url(#clip690)" d="M 0 0 M208.858 444.455 L213.742 444.455 L213.742 450.334 L208.858 450.334 L208.858 444.455 Z" fill="#000000" fill-rule="evenodd" fill-opacity="1" /><path clip-path="url(#clip690)" d="M 0 0 M223.974 415.774 L242.33 415.774 L242.33 419.71 L228.256 419.71 L228.256 428.182 Q229.275 427.834 230.293 427.672 Q231.312 427.487 232.33 427.487 Q238.117 427.487 241.497 430.659 Q244.876 433.83 244.876 439.246 Q244.876 444.825 241.404 447.927 Q237.932 451.006 231.612 451.006 Q229.437 451.006 227.168 450.635 Q224.923 450.265 222.515 449.524 L222.515 444.825 Q224.599 445.959 226.821 446.515 Q229.043 447.07 231.52 447.07 Q235.525 447.07 237.862 444.964 Q240.2 442.858 240.2 439.246 Q240.2 435.635 237.862 433.529 Q235.525 431.422 231.52 431.422 Q229.645 431.422 227.77 431.839 Q225.918 432.256 223.974 433.135 L223.974 415.774 Z" fill="#000000" fill-rule="evenodd" fill-opacity="1" /><path clip-path="url(#clip690)" d="M 0 0 M148.349 112.766 L155.988 112.766 L155.988 86.4004 L147.678 88.0671 L147.678 83.8078 L155.942 82.1412 L160.618 82.1412 L160.618 112.766 L168.256 112.766 L168.256 116.701 L148.349 116.701 L148.349 112.766 Z" fill="#000000" fill-rule="evenodd" fill-opacity="1" /><path clip-path="url(#clip690)" d="M 0 0 M187.701 85.2199 Q184.09 85.2199 182.261 88.7846 Q180.455 92.3263 180.455 99.4559 Q180.455 106.562 182.261 110.127 Q184.09 113.669 187.701 113.669 Q191.335 113.669 193.14 110.127 Q194.969 106.562 194.969 99.4559 Q194.969 92.3263 193.14 88.7846 Q191.335 85.2199 187.701 85.2199 M187.701 81.5162 Q193.511 81.5162 196.566 86.1226 Q199.645 90.7059 199.645 99.4559 Q199.645 108.183 196.566 112.789 Q193.511 117.372 187.701 117.372 Q181.891 117.372 178.812 112.789 Q175.756 108.183 175.756 99.4559 Q175.756 90.7059 178.812 86.1226 Q181.891 81.5162 187.701 81.5162 Z" fill="#000000" fill-rule="evenodd" fill-opacity="1" /><path clip-path="url(#clip690)" d="M 0 0 M207.863 110.822 L212.747 110.822 L212.747 116.701 L207.863 116.701 L207.863 110.822 Z" fill="#000000" fill-rule="evenodd" fill-opacity="1" /><path clip-path="url(#clip690)" d="M 0 0 M232.932 85.2199 Q229.321 85.2199 227.492 88.7846 Q225.687 92.3263 225.687 99.4559 Q225.687 106.562 227.492 110.127 Q229.321 113.669 232.932 113.669 Q236.566 113.669 238.372 110.127 Q240.2 106.562 240.2 99.4559 Q240.2 92.3263 238.372 88.7846 Q236.566 85.2199 232.932 85.2199 M232.932 81.5162 Q238.742 81.5162 241.798 86.1226 Q244.876 90.7059 244.876 99.4559 Q244.876 108.183 241.798 112.789 Q238.742 117.372 232.932 117.372 Q227.122 117.372 224.043 112.789 Q220.988 108.183 220.988 99.4559 Q220.988 90.7059 224.043 86.1226 Q227.122 81.5162 232.932 81.5162 Z" fill="#000000" fill-rule="evenodd" fill-opacity="1" /><path clip-path="url(#clip690)" d="M 0 0 M60.857 943.374 L77.282 949.043 L77.282 1003.73 Q77.282 1004.47 77.2498 1004.76 Q77.2176 1005.05 77.0566 1005.27 Q76.8956 1005.5 76.5413 1005.5 Q76.2514 1005.5 75.5107 1004.92 L46.5576 981.506 L13.45 1005.56 Q11.9363 1005.56 11.6465 1005.31 Q11.3244 1005.05 11.3244 1003.73 L11.3244 949.043 L26.751 943.374 L26.751 945.017 Q24.7543 945.758 23.0796 946.949 Q21.3726 948.109 20.1488 949.461 Q18.925 950.782 17.9588 952.521 Q16.9604 954.228 16.3485 955.838 Q15.7044 957.416 15.2535 959.381 Q14.7704 961.345 14.545 962.923 Q14.2874 964.469 14.1585 966.402 Q14.0297 968.334 13.9975 969.558 Q13.9653 970.782 13.9653 972.327 L13.9653 998.446 L43.3693 977.03 Q44.11 976.546 44.3032 976.546 Q44.5931 976.546 45.366 977.158 L73.6428 1000.02 L73.6428 972.005 Q73.6428 962.988 71.7426 956.708 Q70.2934 952.456 67.427 949.365 Q64.5607 946.241 60.857 945.017 L60.857 943.374 Z" fill="#000000" fill-rule="evenodd" fill-opacity="1" /><path clip-path="url(#clip690)" d="M 0 0 M103.424 1014.55 Q104.055 1014.55 104.213 1014.85 Q104.349 1015.14 104.349 1015.95 L104.349 1020.28 L117.965 1023.7 Q119.16 1023.98 120.174 1023.98 Q121.302 1023.98 121.798 1023.64 Q122.294 1023.28 122.294 1022.53 Q122.294 1021.07 120.964 1019.49 Q119.633 1017.89 116.387 1016.54 Q115.959 1016.36 115.869 1016.27 Q115.756 1016.15 115.756 1015.86 Q115.756 1015.3 116.207 1015.3 Q116.365 1015.3 117.086 1015.61 Q117.807 1015.9 118.867 1016.56 Q119.927 1017.19 120.918 1018.02 Q121.91 1018.84 122.632 1020.08 Q123.331 1021.32 123.331 1022.65 Q123.331 1024.52 122.136 1025.71 Q120.941 1026.88 119.07 1026.88 Q118.461 1026.88 116.522 1026.41 Q114.561 1025.94 104.349 1023.37 L104.349 1027.45 Q104.349 1028.01 104.326 1028.24 Q104.303 1028.44 104.191 1028.6 Q104.055 1028.73 103.785 1028.73 Q103.357 1028.73 103.176 1028.55 Q102.973 1028.37 102.951 1028.15 Q102.906 1027.9 102.906 1027.33 L102.906 1023.01 L95.5789 1021.2 Q94.8575 1021.02 94.4517 1020.57 Q94.0233 1020.1 93.9782 1019.83 Q93.9106 1019.56 93.9106 1019.35 Q93.9106 1018.75 94.2488 1018.38 Q94.5644 1018.02 95.1505 1018.02 Q95.4662 1018.02 102.906 1019.92 L102.906 1015.86 Q102.906 1015.34 102.928 1015.14 Q102.951 1014.91 103.064 1014.73 Q103.176 1014.55 103.424 1014.55 Z" fill="#000000" fill-rule="evenodd" fill-opacity="1" /><path clip-path="url(#clip690)" d="M 0 0 M115.801 999.419 Q115.237 999.374 115.237 998.495 L115.237 970.202 Q115.237 968.872 115.756 968.85 Q116.319 968.85 116.297 970.112 L116.297 998.179 Q116.319 999.419 115.801 999.419 M106.783 999.419 Q106.22 999.419 106.242 998.45 L106.242 970.247 Q106.242 968.872 106.783 968.85 Q107.302 968.85 107.302 970.022 L107.302 998.495 Q107.302 999.419 106.783 999.419 Z" fill="#000000" fill-rule="evenodd" fill-opacity="1" /><path clip-path="url(#clip690)" d="M 0 0 M108.046 951.037 Q101.26 951.037 97.5628 949.324 Q92.062 946.934 92.062 941.298 Q92.062 940.104 92.4002 938.864 Q92.7158 937.601 93.9557 936.023 Q95.1956 934.422 97.2246 933.453 Q101.147 931.604 108.046 931.604 Q114.786 931.604 118.461 933.318 Q123.827 935.82 123.827 941.344 Q123.827 943.418 122.767 945.537 Q121.707 947.633 119.16 948.963 Q115.35 951.037 108.046 951.037 M107.482 947.205 Q114.448 947.205 117.221 946.709 Q120.22 946.145 121.527 944.612 Q122.812 943.057 122.812 941.344 Q122.812 939.495 121.437 937.962 Q120.039 936.406 117.041 935.933 Q114.088 935.414 107.482 935.437 Q101.057 935.437 98.4871 935.888 Q95.4887 936.497 94.2939 938.12 Q93.0765 939.72 93.0765 941.344 Q93.0765 941.952 93.2568 942.606 Q93.4372 943.237 93.9557 944.162 Q94.4742 945.086 95.7592 945.807 Q97.0442 946.506 98.983 946.844 Q101.485 947.205 107.482 947.205 Z" fill="#000000" fill-rule="evenodd" fill-opacity="1" /><path clip-path="url(#clip690)" d="M 0 0 M16.8638 876.27 Q17.4757 876.27 17.991 876.399 L29.4563 878.202 Q30.3259 878.299 30.6479 878.492 Q30.97 878.653 30.97 879.168 Q30.97 879.974 30.1326 879.974 Q29.6496 879.974 28.8766 879.78 Q25.2374 879.233 23.5949 879.233 Q22.4999 879.233 21.6947 879.458 Q20.8574 879.651 20.2776 879.974 Q19.6979 880.263 19.3115 880.94 Q18.925 881.616 18.6996 882.26 Q18.4741 882.904 18.3775 884.064 Q18.2487 885.223 18.2165 886.221 Q18.1843 887.22 18.1843 888.862 Q18.1843 892.437 18.3131 893.017 Q18.4741 893.629 18.9572 893.951 Q19.4081 894.241 20.7607 894.563 L55.7685 903.323 L57.1534 903.58 Q57.9263 903.58 58.1839 903.097 Q58.4416 902.614 58.6026 901.133 Q58.7637 899.007 58.7637 896.914 Q58.7637 896.849 58.7637 896.721 Q58.7637 896.012 58.7959 895.722 Q58.7959 895.432 58.8603 895.142 Q58.9247 894.853 59.0857 894.788 Q59.2145 894.692 59.4722 894.692 Q60.0841 894.692 60.4062 894.949 Q60.696 895.207 60.7604 895.465 Q60.7926 895.69 60.7926 896.141 Q60.7926 897.043 60.7282 898.975 Q60.6638 900.907 60.6638 901.874 L60.5994 907.349 L60.6638 912.952 Q60.6638 913.822 60.7282 915.658 Q60.7926 917.493 60.7926 918.363 Q60.7926 919.49 59.9875 919.49 Q59.0857 919.49 58.9247 919.071 Q58.7637 918.621 58.7637 916.72 Q58.7637 914.047 58.6348 912.598 Q58.506 911.149 58.0551 910.376 Q57.6042 909.571 57.1534 909.345 Q56.6703 909.12 55.5753 908.862 L20.3743 900.006 Q19.6013 899.748 18.9894 899.748 Q18.6674 899.748 18.5385 899.845 Q18.4097 899.909 18.3131 900.328 Q18.1843 900.746 18.1843 901.616 L18.1843 904.192 Q18.1843 906.833 18.3131 908.476 Q18.4097 910.086 18.8928 911.632 Q19.3759 913.146 20.0522 914.047 Q20.7285 914.917 22.1134 915.883 Q23.4982 916.849 25.1729 917.558 Q26.8476 918.234 29.5851 919.2 Q30.4869 919.522 30.7446 919.716 Q30.97 919.877 30.97 920.327 Q30.97 920.65 30.7768 920.907 Q30.5513 921.133 30.2615 921.133 Q29.1987 920.811 29.0698 920.746 L17.4435 916.785 Q16.5096 916.463 16.3485 916.173 Q16.1553 915.851 16.1553 914.659 L16.1553 878.073 Q16.1553 877.494 16.1553 877.3 Q16.1553 877.107 16.2197 876.785 Q16.2841 876.463 16.4451 876.366 Q16.6062 876.27 16.8638 876.27 Z" fill="#000000" fill-rule="evenodd" fill-opacity="1" /><path clip-path="url(#clip690)" d="M 0 0 M7.94593 851.294 L8.87023 851.858 Q7.35978 855.352 4.94756 859.703 Q7.35978 864.054 8.87023 867.548 L7.94593 868.089 Q4.63194 864.279 2.08446 859.703 Q4.65449 855.081 7.94593 851.294 Z" fill="#000000" fill-rule="evenodd" fill-opacity="1" /><path clip-path="url(#clip690)" d="M 0 0 M16.5418 835.027 Q16.9604 835.027 17.2181 835.124 Q17.4757 835.189 17.6046 835.446 Q17.7012 835.672 17.7334 835.833 Q17.7656 835.961 17.7978 836.348 Q17.9266 837.926 18.3453 839.246 Q18.7318 840.567 19.5047 841.694 Q20.2776 842.789 20.7929 843.401 Q21.3082 843.981 22.3388 845.011 L23.2728 845.913 L42.0488 862.274 Q42.6929 862.853 44.11 863.208 L53.4175 865.526 Q57.2822 866.428 57.572 866.428 Q58.1517 866.428 58.345 866.106 Q58.506 865.752 58.6026 864.657 L58.7637 862.145 Q58.7637 860.663 59.0213 860.438 Q59.1823 860.309 59.4722 860.309 Q60.0841 860.309 60.4062 860.567 Q60.696 860.792 60.7604 861.018 Q60.7926 861.211 60.7926 861.565 L60.5994 870.003 L60.7926 878.312 Q60.7926 879.246 60.0519 879.246 Q59.5688 879.246 59.3112 879.182 Q59.0213 879.085 58.9247 878.795 Q58.7959 878.505 58.7959 878.28 Q58.7637 878.055 58.7637 877.443 Q58.7314 875.961 58.7314 875.22 Q58.6992 874.447 58.506 873.707 Q58.3128 872.966 58.1839 872.708 Q58.0229 872.418 57.4754 872.096 Q56.8957 871.742 56.4448 871.646 Q55.9939 871.517 54.8667 871.259 Q53.8684 871.001 48.4256 869.649 Q42.9828 868.296 42.854 868.296 Q42.4997 868.296 41.7268 868.554 L20.02 876.67 Q19.0538 877.024 18.6674 877.314 Q18.2809 877.604 18.0554 878.57 Q17.7978 879.536 17.7978 881.468 Q17.7978 882.016 17.7656 882.273 Q17.7334 882.531 17.5724 882.757 Q17.4113 882.982 17.0571 882.982 Q16.4451 882.982 16.1553 882.724 Q15.8332 882.467 15.801 882.273 Q15.7366 882.048 15.7366 881.726 Q15.7366 880.921 15.8332 878.055 Q15.9299 875.188 15.9299 874.351 L15.7366 866.042 Q15.7366 865.043 16.4774 865.043 Q17.3791 865.043 17.6046 865.398 Q17.7978 865.752 17.7978 866.621 Q17.7978 870.518 19.3759 870.518 Q19.5691 870.518 20.5031 870.132 L40.0843 862.886 L22.4676 847.588 L22.21 847.362 Q21.9524 847.169 21.7591 847.008 Q21.5659 846.847 21.2116 846.589 Q20.8574 846.332 20.5675 846.203 Q20.2776 846.042 19.9234 845.913 Q19.5691 845.784 19.3115 845.784 Q18.8284 845.784 18.5063 846.074 Q18.1521 846.364 18.0232 846.815 Q17.8944 847.266 17.8622 847.588 Q17.7978 847.91 17.7978 848.167 Q17.7978 849.166 16.9926 849.166 Q16.4129 849.166 16.1231 848.908 Q15.801 848.651 15.7688 848.457 Q15.7366 848.232 15.7366 847.91 Q15.7366 846.847 15.8332 844.625 Q15.9299 842.403 15.9299 841.308 Q15.9299 840.406 15.8332 838.57 Q15.7366 836.734 15.7366 835.897 Q15.7366 835.027 16.5418 835.027 Z" fill="#000000" fill-rule="evenodd" fill-opacity="1" /><path clip-path="url(#clip690)" d="M 0 0 M58.5788 823.834 Q59.21 823.834 59.3678 824.128 Q59.5031 824.421 59.5031 825.232 L59.5031 829.561 L73.1197 832.987 Q74.3145 833.258 75.329 833.258 Q76.4562 833.258 76.9522 832.92 Q77.4482 832.559 77.4482 831.815 Q77.4482 830.35 76.1181 828.772 Q74.788 827.171 71.5416 825.818 Q71.1133 825.638 71.0231 825.548 Q70.9104 825.435 70.9104 825.142 Q70.9104 824.578 71.3613 824.578 Q71.5191 824.578 72.2405 824.894 Q72.9619 825.187 74.0215 825.841 Q75.081 826.472 76.073 827.306 Q77.0649 828.118 77.7863 829.358 Q78.4852 830.598 78.4852 831.928 Q78.4852 833.799 77.2904 834.994 Q76.0955 836.166 74.2244 836.166 Q73.6157 836.166 71.6769 835.693 Q69.7155 835.219 59.5031 832.649 L59.5031 836.73 Q59.5031 837.293 59.4805 837.519 Q59.458 837.722 59.3453 837.879 Q59.21 838.015 58.9395 838.015 Q58.5111 838.015 58.3308 837.834 Q58.1279 837.654 58.1053 837.429 Q58.0602 837.181 58.0602 836.617 L58.0602 832.289 L50.7334 830.485 Q50.012 830.305 49.6062 829.854 Q49.1779 829.38 49.1328 829.11 Q49.0651 828.839 49.0651 828.636 Q49.0651 828.028 49.4033 827.667 Q49.7189 827.306 50.3051 827.306 Q50.6207 827.306 58.0602 829.2 L58.0602 825.142 Q58.0602 824.624 58.0828 824.421 Q58.1053 824.195 58.218 824.015 Q58.3308 823.834 58.5788 823.834 Z" fill="#000000" fill-rule="evenodd" fill-opacity="1" /><path clip-path="url(#clip690)" d="M 0 0 M42.8415 814.474 Q32.1994 814.474 23.618 810.506 Q20.0193 808.814 17.0051 806.446 Q13.9908 804.078 12.6682 802.509 Q11.3456 800.94 11.3456 800.51 Q11.3456 799.894 11.9608 799.864 Q12.2684 799.864 13.0373 800.694 Q23.3719 810.844 42.8415 810.813 Q62.3727 810.813 72.3074 800.94 Q73.384 799.864 73.7223 799.864 Q74.3374 799.864 74.3374 800.51 Q74.3374 800.94 73.0764 802.447 Q71.8153 803.954 68.9241 806.292 Q66.0329 808.63 62.4957 810.321 Q53.9143 814.474 42.8415 814.474 Z" fill="#000000" fill-rule="evenodd" fill-opacity="1" /><path clip-path="url(#clip690)" d="M 0 0 M24.5932 783.245 Q18.925 783.245 15.1247 780.347 Q11.3244 777.448 11.3244 773.551 Q11.3244 771.168 13.45 768.817 Q18.5385 763.471 18.5063 756.482 Q18.5063 748.559 12.2584 743.954 Q11.3244 743.149 11.3244 742.569 Q11.3244 742.054 11.7431 741.667 Q12.1296 741.249 12.6449 741.249 Q13.0313 741.249 13.8365 741.764 L63.4979 775.129 Q64.4963 775.87 64.4963 776.45 Q64.4963 776.965 64.0776 777.384 Q63.6911 777.77 63.1759 777.77 Q62.725 777.77 61.8554 777.19 L17.7334 747.561 L17.669 747.625 Q19.9878 751.039 19.9556 756.418 Q19.9556 761.506 17.1859 766.369 Q20.5997 764.984 24.6576 764.984 Q30.1971 764.984 34.0618 767.464 Q37.8943 769.944 37.8943 773.551 Q37.8943 777.448 34.1584 780.347 Q30.3903 783.245 24.5932 783.245 M19.2149 778.704 Q21.5337 779.155 24.6576 779.155 Q27.7494 779.155 30.0682 778.704 Q32.3548 778.253 33.5465 777.609 Q34.7381 776.933 35.4466 776.031 Q36.1229 775.129 36.284 774.582 Q36.445 774.034 36.445 773.487 Q36.445 770.781 33.0956 768.72 Q29.714 766.627 24.5932 766.627 Q19.5691 766.627 16.1875 768.72 Q12.7737 770.781 12.7737 773.487 Q12.7737 774.066 12.9347 774.646 Q13.0957 775.194 13.8043 776.063 Q14.4806 776.933 15.6722 777.609 Q16.8638 778.253 19.2149 778.704 M51.1631 754.034 Q45.4948 754.034 41.6945 751.136 Q37.8943 748.237 37.8943 744.34 Q37.8943 740.766 41.759 738.286 Q45.6237 735.774 51.2275 735.774 Q56.7669 735.774 60.6316 738.253 Q64.4963 740.701 64.4963 744.34 Q64.4963 748.237 60.7282 751.136 Q56.9601 754.034 51.1631 754.034 M45.7847 749.493 Q48.1357 749.944 51.2275 749.944 Q54.3192 749.944 56.6381 749.493 Q58.9569 749.01 60.1485 748.366 Q61.3079 747.69 61.9842 746.82 Q62.6928 745.918 62.8538 745.371 Q63.047 744.791 63.047 744.276 Q63.047 741.571 59.6976 739.51 Q56.316 737.416 51.1631 737.416 Q46.139 737.416 42.7573 739.51 Q39.3435 741.571 39.3435 744.276 Q39.3435 744.856 39.5368 745.435 Q39.6978 745.983 40.4063 746.852 Q41.0826 747.69 42.2743 748.366 Q43.4337 749.01 45.7847 749.493 Z" fill="#000000" fill-rule="evenodd" fill-opacity="1" /><path clip-path="url(#clip690)" d="M 0 0 M59.7298 727.924 Q58.667 728.858 57.2822 728.858 Q55.8973 728.858 54.8667 727.956 Q53.8039 727.022 53.8039 725.348 Q53.8039 723.383 55.7041 722.256 Q57.572 721.129 60.7282 721.129 Q64.142 721.129 67.2982 722.514 Q70.4866 723.898 72.0003 725.251 Q73.5139 726.604 73.5139 727.151 Q73.5139 727.795 72.8054 727.795 Q72.5478 727.795 72.0647 727.344 Q66.9761 722.61 60.7282 722.578 Q59.7298 722.578 59.7298 722.707 L59.8587 722.868 Q60.7926 723.995 60.7926 725.348 Q60.7926 726.99 59.7298 727.924 Z" fill="#000000" fill-rule="evenodd" fill-opacity="1" /><path clip-path="url(#clip690)" d="M 0 0 M43.4981 665.724 Q46.7509 665.724 50.0037 667.399 Q53.2564 669.073 55.7685 671.811 Q58.2484 674.548 59.8587 678.284 Q61.4689 682.02 61.5978 685.917 L71.4206 688.429 Q73.8038 688.912 74.0614 689.17 Q74.3191 689.427 74.3191 689.814 Q74.3191 690.619 73.5783 690.619 Q73.3529 690.619 67.7813 689.17 L61.5978 687.624 Q61.2757 693.485 57.8941 696.899 Q54.5125 700.313 49.6494 700.313 Q46.3644 700.313 43.1116 698.638 Q39.8266 696.931 37.3468 694.194 Q34.8669 691.424 33.2888 687.688 Q31.7107 683.952 31.5819 680.12 L16.3485 676.287 Q15.479 676.094 15.2535 675.933 Q15.0281 675.772 15.0281 675.289 Q15.0281 674.935 15.1891 674.742 Q15.3502 674.548 15.5112 674.548 L15.6722 674.516 L16.6062 674.709 L31.5819 678.413 Q31.8073 675.128 32.9668 672.584 Q34.1262 670.04 35.8653 668.59 Q37.5722 667.141 39.5045 666.432 Q41.4369 665.724 43.4981 665.724 M33.0312 680.506 Q33.3532 684.049 35.0923 687.044 Q36.8315 690.039 39.4079 691.972 Q41.9522 693.904 45.0117 694.967 Q48.0391 696.03 51.0342 696.03 Q53.3853 696.03 55.1888 695.257 Q56.9923 694.452 58.0229 693.131 Q59.0213 691.811 59.5688 690.361 Q60.0841 688.88 60.1485 687.302 L33.0312 680.506 M42.1132 670.04 Q37.9265 670.04 35.5754 672.455 Q33.2244 674.87 33.0312 678.8 L60.1485 685.595 Q59.9231 682.729 58.7314 680.217 Q57.5076 677.672 55.7041 675.837 Q53.8684 674.001 51.614 672.68 Q49.3273 671.36 46.9119 670.716 Q44.4642 670.04 42.1132 670.04 Z" fill="#000000" fill-rule="evenodd" fill-opacity="1" /><path clip-path="url(#clip690)" d="M 0 0 M50.7766 643.094 Q49.9715 643.03 49.9715 641.774 L49.9715 601.355 Q49.9715 599.455 50.7122 599.423 Q51.5173 599.423 51.4851 601.227 L51.4851 641.323 Q51.5173 643.094 50.7766 643.094 M37.8943 643.094 Q37.0891 643.094 37.1213 641.709 L37.1213 601.42 Q37.1213 599.455 37.8943 599.423 Q38.635 599.423 38.635 601.098 L38.635 641.774 Q38.635 643.094 37.8943 643.094 Z" fill="#000000" fill-rule="evenodd" fill-opacity="1" /><path clip-path="url(#clip690)" d="M 0 0 M39.6978 573.977 Q30.0038 573.977 24.7221 571.53 Q16.8638 568.116 16.8638 560.064 Q16.8638 558.358 17.3469 556.586 Q17.7978 554.783 19.5691 552.528 Q21.3404 550.242 24.239 548.857 Q29.8428 546.216 39.6978 546.216 Q49.3273 546.216 54.5769 548.664 Q62.2419 552.238 62.2419 560.129 Q62.2419 563.092 60.7282 566.119 Q59.2145 569.114 55.5753 571.014 Q50.1325 573.977 39.6978 573.977 M38.8926 568.502 Q48.8442 568.502 52.8056 567.794 Q57.0889 566.989 58.9569 564.799 Q60.7926 562.576 60.7926 560.129 Q60.7926 557.488 58.8281 555.298 Q56.8313 553.076 52.5479 552.399 Q48.329 551.659 38.8926 551.691 Q29.714 551.691 26.0425 552.335 Q21.7591 553.205 20.0522 555.523 Q18.3131 557.81 18.3131 560.129 Q18.3131 560.998 18.5707 561.932 Q18.8284 562.834 19.5691 564.155 Q20.3099 565.475 22.1456 566.506 Q23.9813 567.504 26.751 567.987 Q30.3259 568.502 38.8926 568.502 Z" fill="#000000" fill-rule="evenodd" fill-opacity="1" /><path clip-path="url(#clip690)" d="M 0 0 M59.7298 540.315 Q58.667 541.313 57.2822 541.313 Q55.8973 541.313 54.8989 540.315 Q53.8684 539.317 53.8684 537.803 Q53.8684 536.354 54.8345 535.387 Q55.7685 534.389 57.3144 534.389 Q58.8281 534.389 59.8264 535.452 Q60.7926 536.482 60.7926 537.803 Q60.7926 539.317 59.7298 540.315 Z" fill="#000000" fill-rule="evenodd" fill-opacity="1" /><path clip-path="url(#clip690)" d="M 0 0 M29.7784 523.163 L16.2197 521.005 L16.2197 519.363 Q17.0249 519.17 17.3791 518.847 Q17.7334 518.493 18.0232 516.625 Q18.3131 514.725 18.3131 510.893 L18.3131 494.886 Q19.8268 494.886 20.6319 495.466 L33.16 504.387 Q37.1213 507.221 44.432 508.477 Q49.3273 509.218 55.2532 509.186 L58.6026 509.186 Q62.2419 509.186 62.2419 512.245 Q62.2419 515.273 58.6026 515.273 Q46.0101 515.273 33.8041 507.157 Q32.5481 506.287 28.0715 503.099 Q23.5949 499.878 23.4016 499.749 L23.4016 513.405 Q23.4016 519.395 23.7881 519.878 Q24.3678 520.522 29.7784 521.521 L29.7784 523.163 Z" fill="#000000" fill-rule="evenodd" fill-opacity="1" /><path clip-path="url(#clip690)" d="M 0 0 M50.1647 495.249 Q48.2001 495.249 47.4594 494.186 Q46.6865 493.123 46.6865 491.996 Q46.6865 490.483 47.6526 489.613 Q48.5866 488.711 49.907 488.711 Q51.2275 488.711 52.1937 489.613 Q53.1276 490.483 53.1276 491.996 Q53.1276 492.737 52.9988 493.123 Q56.0262 492.254 58.2162 489.613 Q60.4062 486.94 60.4062 483.429 Q60.4062 479.017 56.1228 476.376 Q53.3531 474.798 47.0729 474.798 Q41.5335 474.798 38.7638 475.99 Q34.5448 477.826 34.5448 481.594 Q34.5448 486.94 39.1503 490.096 Q39.73 490.483 39.7622 490.933 Q39.7622 491.578 39.4079 491.739 Q39.0215 491.867 38.0231 491.867 L18.5063 491.867 Q16.9282 491.867 16.9282 491.223 Q16.9282 490.966 17.1215 490.418 Q18.9572 486.264 18.9894 481.658 Q18.9894 476.924 17.0571 472.673 Q16.8638 472.351 16.8638 472.157 Q16.8638 471.513 17.6046 471.481 Q17.8622 471.481 18.6351 472.029 Q19.3759 472.544 20.3743 473.671 Q21.3404 474.798 22.2744 476.248 Q23.2084 477.697 23.8525 479.822 Q24.4644 481.916 24.4644 484.235 Q24.4644 487.004 23.5949 489.838 L36.445 489.838 Q33.0956 486.425 33.0956 481.465 Q33.0956 476.183 37.3468 472.544 Q41.5979 468.905 47.5238 468.905 Q53.7395 468.905 57.9907 473.22 Q62.2419 477.504 62.2419 483.301 Q62.2419 488.582 58.4738 491.932 Q54.7057 495.249 50.1647 495.249 Z" fill="#000000" fill-rule="evenodd" fill-opacity="1" /><path clip-path="url(#clip690)" d="M 0 0 M73.7223 462.131 Q73.4147 462.131 72.6458 461.331 Q62.3112 451.181 42.8415 451.181 Q23.3104 451.181 13.4372 460.931 Q12.2991 462.131 11.9608 462.131 Q11.3456 462.131 11.3456 461.516 Q11.3456 461.085 12.6067 459.578 Q13.8678 458.04 16.759 455.733 Q19.6502 453.396 23.1874 451.673 Q31.7688 447.521 42.8415 447.521 Q53.4837 447.521 62.0651 451.489 Q65.6638 453.18 68.678 455.549 Q71.6923 457.917 73.0149 459.486 Q74.3374 461.054 74.3374 461.516 Q74.3374 462.131 73.7223 462.131 Z" fill="#000000" fill-rule="evenodd" fill-opacity="1" /><polyline clip-path="url(#clip693)" style="stroke:#0000ff; stroke-width:4; stroke-opacity:1; fill:none" stroke-dasharray="16, 10" points="
  323.077,701.289 674.752,1288.5 1026.43,1318.94 1378.1,1331.32 1729.78,1338.4 
  "/>
<polyline clip-path="url(#clip693)" style="stroke:#5500aa; stroke-width:4; stroke-opacity:1; fill:none" points="
  323.077,86.6476 674.752,1225.67 1026.43,1222.34 1378.1,1221.6 1729.78,1221.55 
  "/>
<polyline clip-path="url(#clip693)" style="stroke:#aa0055; stroke-width:4; stroke-opacity:1; fill:none" stroke-dasharray="16, 10" points="
  323.077,1386.66 674.752,1396.17 1026.43,1398.24 1378.1,1399.37 1729.78,1400.1 
  "/>
<polyline clip-path="url(#clip693)" style="stroke:#ff0000; stroke-width:4; stroke-opacity:1; fill:none" points="
  323.077,1385.57 674.752,1289.32 1026.43,1267.4 1378.1,1257.81 1729.78,1252.68 
  "/>
<path clip-path="url(#clip690)" d="
M1841.04 358.253 L2352.76 358.253 L2352.76 93.6527 L1841.04 93.6527  Z
  " fill="#ffffff" fill-rule="evenodd" fill-opacity="1"/>
<polyline clip-path="url(#clip690)" style="stroke:#000000; stroke-width:4; stroke-opacity:1; fill:none" points="
  1841.04,358.253 2352.76,358.253 2352.76,93.6527 1841.04,93.6527 1841.04,358.253 
  "/>
<polyline clip-path="url(#clip690)" style="stroke:#0000ff; stroke-width:3.5; stroke-opacity:1; fill:none" stroke-dasharray="14, 9" points="
  1864.06,146.573 2002.19,146.573 
  "/>
<path clip-path="url(#clip690)" d="M 0 0 M2053.76 128.673 Q2053.76 129.062 2053.67 129.39 L2052.53 136.686 Q2052.47 137.239 2052.34 137.444 Q2052.24 137.649 2051.91 137.649 Q2051.4 137.649 2051.4 137.116 Q2051.4 136.809 2051.52 136.317 Q2051.87 134.001 2051.87 132.956 Q2051.87 132.259 2051.73 131.747 Q2051.6 131.214 2051.4 130.845 Q2051.22 130.476 2050.78 130.23 Q2050.35 129.984 2049.94 129.841 Q2049.53 129.697 2048.8 129.636 Q2048.06 129.554 2047.42 129.533 Q2046.79 129.513 2045.74 129.513 Q2043.47 129.513 2043.1 129.595 Q2042.71 129.697 2042.51 130.005 Q2042.32 130.292 2042.12 131.153 L2036.54 153.43 L2036.38 154.311 Q2036.38 154.803 2036.68 154.967 Q2036.99 155.131 2037.93 155.234 Q2039.29 155.336 2040.62 155.336 Q2040.66 155.336 2040.74 155.336 Q2041.19 155.336 2041.38 155.357 Q2041.56 155.357 2041.75 155.398 Q2041.93 155.439 2041.97 155.541 Q2042.03 155.623 2042.03 155.787 Q2042.03 156.176 2041.87 156.381 Q2041.71 156.566 2041.54 156.607 Q2041.4 156.627 2041.11 156.627 Q2040.54 156.627 2039.31 156.586 Q2038.08 156.545 2037.46 156.545 L2033.98 156.504 L2030.41 156.545 Q2029.86 156.545 2028.69 156.586 Q2027.52 156.627 2026.97 156.627 Q2026.25 156.627 2026.25 156.115 Q2026.25 155.541 2026.52 155.439 Q2026.81 155.336 2028.02 155.336 Q2029.72 155.336 2030.64 155.254 Q2031.56 155.172 2032.05 154.885 Q2032.57 154.598 2032.71 154.311 Q2032.85 154.004 2033.02 153.307 L2038.65 130.907 Q2038.82 130.415 2038.82 130.025 Q2038.82 129.82 2038.75 129.738 Q2038.71 129.656 2038.45 129.595 Q2038.18 129.513 2037.63 129.513 L2035.99 129.513 Q2034.31 129.513 2033.26 129.595 Q2032.24 129.656 2031.25 129.964 Q2030.29 130.271 2029.72 130.702 Q2029.16 131.132 2028.55 132.013 Q2027.93 132.895 2027.48 133.96 Q2027.05 135.026 2026.44 136.768 Q2026.23 137.342 2026.11 137.506 Q2026.01 137.649 2025.72 137.649 Q2025.51 137.649 2025.35 137.526 Q2025.21 137.383 2025.21 137.198 Q2025.41 136.522 2025.45 136.44 L2027.97 129.042 Q2028.18 128.447 2028.36 128.345 Q2028.57 128.222 2029.33 128.222 L2052.61 128.222 Q2052.98 128.222 2053.1 128.222 Q2053.22 128.222 2053.43 128.263 Q2053.63 128.304 2053.7 128.406 Q2053.76 128.509 2053.76 128.673 Z" fill="#000000" fill-rule="evenodd" fill-opacity="1" /><path clip-path="url(#clip690)" d="M 0 0 M2061.13 150.254 Q2061.17 149.741 2061.97 149.741 L2087.69 149.741 Q2088.9 149.741 2088.92 150.213 Q2088.92 150.725 2087.77 150.704 L2062.25 150.704 Q2061.13 150.725 2061.13 150.254 M2061.13 142.056 Q2061.13 141.543 2062.01 141.564 L2087.65 141.564 Q2088.9 141.564 2088.92 142.056 Q2088.92 142.527 2087.85 142.527 L2061.97 142.527 Q2061.13 142.527 2061.13 142.056 Z" fill="#000000" fill-rule="evenodd" fill-opacity="1" /><path clip-path="url(#clip690)" d="M 0 0 M2105.1 143.203 Q2105.1 137.035 2106.66 133.673 Q2108.83 128.673 2113.95 128.673 Q2115.04 128.673 2116.17 128.98 Q2117.31 129.267 2118.75 130.394 Q2120.2 131.521 2121.09 133.366 Q2122.77 136.932 2122.77 143.203 Q2122.77 149.331 2121.21 152.672 Q2118.93 157.55 2113.91 157.55 Q2112.03 157.55 2110.1 156.586 Q2108.19 155.623 2106.98 153.307 Q2105.1 149.844 2105.1 143.203 M2108.58 142.691 Q2108.58 149.024 2109.03 151.545 Q2109.55 154.27 2110.94 155.459 Q2112.35 156.627 2113.91 156.627 Q2115.59 156.627 2116.99 155.377 Q2118.4 154.107 2118.83 151.381 Q2119.3 148.696 2119.28 142.691 Q2119.28 136.85 2118.87 134.514 Q2118.32 131.788 2116.84 130.702 Q2115.39 129.595 2113.91 129.595 Q2113.36 129.595 2112.76 129.759 Q2112.19 129.923 2111.35 130.394 Q2110.51 130.866 2109.85 132.034 Q2109.22 133.202 2108.91 134.965 Q2108.58 137.239 2108.58 142.691 Z" fill="#000000" fill-rule="evenodd" fill-opacity="1" /><path clip-path="url(#clip690)" d="M 0 0 M2126.48 155.951 Q2125.88 155.275 2125.88 154.393 Q2125.88 153.512 2126.45 152.856 Q2127.05 152.18 2128.11 152.18 Q2129.36 152.18 2130.08 153.389 Q2130.8 154.578 2130.8 156.586 Q2130.8 158.759 2129.92 160.767 Q2129.04 162.796 2128.18 163.76 Q2127.32 164.723 2126.97 164.723 Q2126.56 164.723 2126.56 164.272 Q2126.56 164.108 2126.84 163.801 Q2129.86 160.562 2129.88 156.586 Q2129.88 155.951 2129.8 155.951 L2129.69 156.033 Q2128.98 156.627 2128.11 156.627 Q2127.07 156.627 2126.48 155.951 Z" fill="#000000" fill-rule="evenodd" fill-opacity="1" /><path clip-path="url(#clip690)" d="M 0 0 M2164.64 150.622 Q2164.13 153.143 2163.08 154.906 Q2161.79 157.099 2159.82 157.099 Q2158.16 157.099 2157.06 155.951 Q2155.95 154.783 2155.95 152.938 Q2155.95 152.385 2156.18 151.463 Q2156.26 151.053 2156.26 150.54 Q2156.26 147.22 2149.06 146.974 Q2148.47 149.331 2148.06 150.93 Q2147.67 152.508 2147.55 152.979 Q2147.42 153.451 2147.32 153.84 Q2147.24 154.23 2147.1 154.742 Q2146.89 155.582 2146.75 155.992 Q2146.6 156.402 2146.21 156.75 Q2145.85 157.099 2145.25 157.099 Q2144.74 157.099 2144.39 156.791 Q2144.04 156.484 2144.04 155.951 Q2144.04 155.582 2144.21 154.988 L2148.06 139.596 Q2148.16 139.166 2148.37 138.859 Q2148.57 138.551 2148.76 138.408 Q2148.96 138.264 2149.21 138.182 Q2149.45 138.1 2149.56 138.1 Q2149.66 138.08 2149.74 138.08 Q2150.29 138.08 2150.62 138.387 Q2150.97 138.674 2150.97 139.207 Q2150.97 139.289 2150.83 139.863 Q2150.7 140.416 2150.5 141.256 Q2150.29 142.097 2150.21 142.486 L2149.37 145.765 Q2150.54 145.376 2151.58 144.679 Q2152.65 143.982 2154.74 142.179 Q2155.7 141.379 2156.28 140.928 Q2156.87 140.457 2157.86 139.822 Q2158.84 139.166 2159.78 138.859 Q2160.72 138.531 2161.63 138.531 Q2162.32 138.531 2162.73 138.859 Q2163.14 139.166 2163.23 139.453 Q2163.31 139.719 2163.31 140.006 Q2163.31 140.847 2162.65 141.564 Q2162 142.281 2161.03 142.281 Q2160.17 142.281 2159.8 141.81 Q2159.43 141.338 2159.43 140.806 Q2159.43 140.396 2159.64 139.883 Q2158.49 140.375 2157.51 141.092 Q2156.52 141.789 2154.82 143.244 Q2152.4 145.314 2150.97 146.093 Q2151.79 146.114 2152.4 146.175 Q2153.04 146.216 2154.11 146.36 Q2155.17 146.503 2155.95 146.81 Q2156.73 147.097 2157.49 147.548 Q2158.27 147.999 2158.68 148.737 Q2159.11 149.475 2159.11 150.418 Q2159.11 150.868 2158.9 151.791 Q2158.55 153.307 2158.55 154.148 Q2158.55 155.213 2158.88 155.685 Q2159.23 156.156 2159.91 156.156 Q2161.2 156.156 2162.02 154.824 Q2162.86 153.471 2163.55 150.971 Q2163.66 150.499 2163.76 150.356 Q2163.86 150.213 2164.15 150.213 Q2164.64 150.213 2164.64 150.622 Z" fill="#000000" fill-rule="evenodd" fill-opacity="1" /><path clip-path="url(#clip690)" d="M 0 0 M2179.61 150.254 Q2179.66 149.741 2180.46 149.741 L2206.18 149.741 Q2207.39 149.741 2207.41 150.213 Q2207.41 150.725 2206.26 150.704 L2180.74 150.704 Q2179.61 150.725 2179.61 150.254 M2179.61 142.056 Q2179.61 141.543 2180.5 141.564 L2206.13 141.564 Q2207.39 141.564 2207.41 142.056 Q2207.41 142.527 2206.34 142.527 L2180.46 142.527 Q2179.61 142.527 2179.61 142.056 Z" fill="#000000" fill-rule="evenodd" fill-opacity="1" /><path clip-path="url(#clip690)" d="M 0 0 M2223.59 150.971 Q2223.59 149.721 2224.31 149.126 Q2225.02 148.532 2225.95 148.532 Q2226.91 148.532 2227.59 149.167 Q2228.28 149.782 2228.28 150.868 Q2228.28 152.037 2227.46 152.692 Q2226.66 153.348 2225.52 153.184 Q2226.52 154.865 2228.36 155.623 Q2230.23 156.381 2231.95 156.381 Q2233.75 156.381 2235.21 154.824 Q2236.69 153.266 2236.69 149.454 Q2236.69 146.216 2235.41 144.351 Q2234.16 142.486 2231.68 142.486 L2229.84 142.486 Q2229.2 142.486 2229.02 142.425 Q2228.84 142.363 2228.84 142.015 Q2228.84 141.605 2229.47 141.523 Q2230.11 141.523 2231.11 141.4 Q2233.55 141.318 2234.84 139.207 Q2236.01 137.239 2236.01 134.432 Q2236.01 131.87 2234.78 130.804 Q2233.57 129.718 2231.99 129.718 Q2230.52 129.718 2228.9 130.333 Q2227.28 130.948 2226.4 132.321 Q2229 132.321 2229 134.432 Q2229 135.354 2228.41 135.969 Q2227.83 136.563 2226.87 136.563 Q2225.95 136.563 2225.33 135.989 Q2224.72 135.395 2224.72 134.391 Q2224.72 131.993 2226.85 130.333 Q2229 128.673 2232.16 128.673 Q2235.27 128.673 2237.57 130.312 Q2239.88 131.952 2239.88 134.473 Q2239.88 136.953 2238.24 138.981 Q2236.6 141.01 2234 141.851 Q2237.2 142.486 2239.1 144.659 Q2241.01 146.81 2241.01 149.454 Q2241.01 152.733 2238.43 155.152 Q2235.84 157.55 2232.07 157.55 Q2228.59 157.55 2226.09 155.664 Q2223.59 153.779 2223.59 150.971 Z" fill="#000000" fill-rule="evenodd" fill-opacity="1" /><polyline clip-path="url(#clip690)" style="stroke:#5500aa; stroke-width:3.5; stroke-opacity:1; fill:none" points="
  1864.06,199.493 2002.19,199.493 
  "/>
<path clip-path="url(#clip690)" d="M 0 0 M2053.76 181.593 Q2053.76 181.982 2053.67 182.31 L2052.53 189.606 Q2052.47 190.159 2052.34 190.364 Q2052.24 190.569 2051.91 190.569 Q2051.4 190.569 2051.4 190.036 Q2051.4 189.729 2051.52 189.237 Q2051.87 186.921 2051.87 185.876 Q2051.87 185.179 2051.73 184.667 Q2051.6 184.134 2051.4 183.765 Q2051.22 183.396 2050.78 183.15 Q2050.35 182.904 2049.94 182.761 Q2049.53 182.617 2048.8 182.556 Q2048.06 182.474 2047.42 182.453 Q2046.79 182.433 2045.74 182.433 Q2043.47 182.433 2043.1 182.515 Q2042.71 182.617 2042.51 182.925 Q2042.32 183.212 2042.12 184.073 L2036.54 206.35 L2036.38 207.231 Q2036.38 207.723 2036.68 207.887 Q2036.99 208.051 2037.93 208.154 Q2039.29 208.256 2040.62 208.256 Q2040.66 208.256 2040.74 208.256 Q2041.19 208.256 2041.38 208.277 Q2041.56 208.277 2041.75 208.318 Q2041.93 208.359 2041.97 208.461 Q2042.03 208.543 2042.03 208.707 Q2042.03 209.096 2041.87 209.301 Q2041.71 209.486 2041.54 209.527 Q2041.4 209.547 2041.11 209.547 Q2040.54 209.547 2039.31 209.506 Q2038.08 209.465 2037.46 209.465 L2033.98 209.424 L2030.41 209.465 Q2029.86 209.465 2028.69 209.506 Q2027.52 209.547 2026.97 209.547 Q2026.25 209.547 2026.25 209.035 Q2026.25 208.461 2026.52 208.359 Q2026.81 208.256 2028.02 208.256 Q2029.72 208.256 2030.64 208.174 Q2031.56 208.092 2032.05 207.805 Q2032.57 207.518 2032.71 207.231 Q2032.85 206.924 2033.02 206.227 L2038.65 183.827 Q2038.82 183.335 2038.82 182.945 Q2038.82 182.74 2038.75 182.658 Q2038.71 182.576 2038.45 182.515 Q2038.18 182.433 2037.63 182.433 L2035.99 182.433 Q2034.31 182.433 2033.26 182.515 Q2032.24 182.576 2031.25 182.884 Q2030.29 183.191 2029.72 183.622 Q2029.16 184.052 2028.55 184.933 Q2027.93 185.815 2027.48 186.88 Q2027.05 187.946 2026.44 189.688 Q2026.23 190.262 2026.11 190.426 Q2026.01 190.569 2025.72 190.569 Q2025.51 190.569 2025.35 190.446 Q2025.21 190.303 2025.21 190.118 Q2025.41 189.442 2025.45 189.36 L2027.97 181.962 Q2028.18 181.367 2028.36 181.265 Q2028.57 181.142 2029.33 181.142 L2052.61 181.142 Q2052.98 181.142 2053.1 181.142 Q2053.22 181.142 2053.43 181.183 Q2053.63 181.224 2053.7 181.326 Q2053.76 181.429 2053.76 181.593 Z" fill="#000000" fill-rule="evenodd" fill-opacity="1" /><path clip-path="url(#clip690)" d="M 0 0 M2061.13 203.174 Q2061.17 202.661 2061.97 202.661 L2087.69 202.661 Q2088.9 202.661 2088.92 203.133 Q2088.92 203.645 2087.77 203.624 L2062.25 203.624 Q2061.13 203.645 2061.13 203.174 M2061.13 194.976 Q2061.13 194.463 2062.01 194.484 L2087.65 194.484 Q2088.9 194.484 2088.92 194.976 Q2088.92 195.447 2087.85 195.447 L2061.97 195.447 Q2061.13 195.447 2061.13 194.976 Z" fill="#000000" fill-rule="evenodd" fill-opacity="1" /><path clip-path="url(#clip690)" d="M 0 0 M2105.1 196.287 Q2105.1 189.688 2108.46 185.651 Q2111.82 181.593 2116.15 181.593 Q2118.67 181.593 2120.06 182.884 Q2121.47 184.155 2121.47 186.122 Q2121.47 187.208 2120.84 187.68 Q2120.2 188.151 2119.55 188.151 Q2118.79 188.151 2118.2 187.639 Q2117.6 187.126 2117.6 186.204 Q2117.6 184.318 2119.92 184.318 Q2118.83 182.638 2116.23 182.638 Q2115.43 182.638 2114.61 182.884 Q2113.79 183.109 2112.72 183.888 Q2111.66 184.667 2110.84 185.897 Q2110.02 187.126 2109.44 189.442 Q2108.87 191.758 2108.87 194.771 L2108.87 195.775 Q2110.59 191.615 2114.12 191.635 Q2117.64 191.635 2120.08 194.32 Q2122.52 197.005 2122.52 200.981 Q2122.52 205.059 2119.98 207.764 Q2117.44 210.47 2113.87 210.47 Q2112.27 210.47 2110.82 209.793 Q2109.38 209.137 2108.03 207.621 Q2106.7 206.104 2105.9 203.194 Q2105.1 200.284 2105.1 196.287 M2108.95 200.058 Q2108.95 204.178 2109.71 206.145 Q2109.83 206.473 2110.1 206.924 Q2110.39 207.375 2110.86 207.969 Q2111.35 208.543 2112.15 208.933 Q2112.95 209.301 2113.87 209.301 Q2116.68 209.301 2118.03 206.576 Q2118.75 205.059 2118.75 200.94 Q2118.75 196.738 2117.99 195.201 Q2116.7 192.598 2114.08 192.598 Q2112.31 192.598 2111.08 193.807 Q2109.87 195.017 2109.4 196.636 Q2108.95 198.255 2108.95 200.058 Z" fill="#000000" fill-rule="evenodd" fill-opacity="1" /><path clip-path="url(#clip690)" d="M 0 0 M2125.88 196.123 Q2125.88 189.955 2127.44 186.593 Q2129.61 181.593 2134.73 181.593 Q2135.82 181.593 2136.95 181.9 Q2138.1 182.187 2139.53 183.314 Q2140.99 184.441 2141.87 186.286 Q2143.55 189.852 2143.55 196.123 Q2143.55 202.251 2141.99 205.592 Q2139.71 210.47 2134.69 210.47 Q2132.81 210.47 2130.88 209.506 Q2128.98 208.543 2127.77 206.227 Q2125.88 202.764 2125.88 196.123 M2129.36 195.611 Q2129.36 201.944 2129.82 204.465 Q2130.33 207.19 2131.72 208.379 Q2133.14 209.547 2134.69 209.547 Q2136.37 209.547 2137.77 208.297 Q2139.18 207.027 2139.61 204.301 Q2140.08 201.616 2140.06 195.611 Q2140.06 189.77 2139.65 187.434 Q2139.1 184.708 2137.62 183.622 Q2136.17 182.515 2134.69 182.515 Q2134.14 182.515 2133.55 182.679 Q2132.97 182.843 2132.13 183.314 Q2131.29 183.786 2130.64 184.954 Q2130 186.122 2129.69 187.885 Q2129.36 190.159 2129.36 195.611 Z" fill="#000000" fill-rule="evenodd" fill-opacity="1" /><path clip-path="url(#clip690)" d="M 0 0 M2147.26 208.871 Q2146.66 208.195 2146.66 207.313 Q2146.66 206.432 2147.24 205.776 Q2147.83 205.1 2148.9 205.1 Q2150.15 205.1 2150.86 206.309 Q2151.58 207.498 2151.58 209.506 Q2151.58 211.679 2150.7 213.687 Q2149.82 215.716 2148.96 216.68 Q2148.1 217.643 2147.75 217.643 Q2147.34 217.643 2147.34 217.192 Q2147.34 217.028 2147.63 216.721 Q2150.64 213.482 2150.66 209.506 Q2150.66 208.871 2150.58 208.871 L2150.47 208.953 Q2149.76 209.547 2148.9 209.547 Q2147.85 209.547 2147.26 208.871 Z" fill="#000000" fill-rule="evenodd" fill-opacity="1" /><path clip-path="url(#clip690)" d="M 0 0 M2185.42 203.542 Q2184.91 206.063 2183.86 207.826 Q2182.57 210.019 2180.6 210.019 Q2178.94 210.019 2177.84 208.871 Q2176.73 207.703 2176.73 205.858 Q2176.73 205.305 2176.96 204.383 Q2177.04 203.973 2177.04 203.46 Q2177.04 200.14 2169.84 199.894 Q2169.25 202.251 2168.84 203.85 Q2168.45 205.428 2168.33 205.899 Q2168.21 206.371 2168.1 206.76 Q2168.02 207.15 2167.88 207.662 Q2167.67 208.502 2167.53 208.912 Q2167.39 209.322 2167 209.67 Q2166.63 210.019 2166.03 210.019 Q2165.52 210.019 2165.17 209.711 Q2164.82 209.404 2164.82 208.871 Q2164.82 208.502 2164.99 207.908 L2168.84 192.516 Q2168.94 192.086 2169.15 191.779 Q2169.35 191.471 2169.54 191.328 Q2169.74 191.184 2169.99 191.102 Q2170.23 191.02 2170.34 191.02 Q2170.44 191 2170.52 191 Q2171.07 191 2171.4 191.307 Q2171.75 191.594 2171.75 192.127 Q2171.75 192.209 2171.61 192.783 Q2171.48 193.336 2171.28 194.176 Q2171.07 195.017 2170.99 195.406 L2170.15 198.685 Q2171.32 198.296 2172.37 197.599 Q2173.43 196.902 2175.52 195.099 Q2176.48 194.299 2177.06 193.848 Q2177.65 193.377 2178.64 192.742 Q2179.62 192.086 2180.56 191.779 Q2181.51 191.451 2182.41 191.451 Q2183.1 191.451 2183.51 191.779 Q2183.92 192.086 2184.01 192.373 Q2184.09 192.639 2184.09 192.926 Q2184.09 193.767 2183.43 194.484 Q2182.78 195.201 2181.81 195.201 Q2180.95 195.201 2180.58 194.73 Q2180.21 194.258 2180.21 193.726 Q2180.21 193.316 2180.42 192.803 Q2179.27 193.295 2178.29 194.012 Q2177.3 194.709 2175.6 196.164 Q2173.19 198.234 2171.75 199.013 Q2172.57 199.034 2173.19 199.095 Q2173.82 199.136 2174.89 199.28 Q2175.95 199.423 2176.73 199.73 Q2177.51 200.017 2178.27 200.468 Q2179.05 200.919 2179.46 201.657 Q2179.89 202.395 2179.89 203.338 Q2179.89 203.788 2179.68 204.711 Q2179.33 206.227 2179.33 207.068 Q2179.33 208.133 2179.66 208.605 Q2180.01 209.076 2180.69 209.076 Q2181.98 209.076 2182.8 207.744 Q2183.64 206.391 2184.33 203.891 Q2184.44 203.419 2184.54 203.276 Q2184.64 203.133 2184.93 203.133 Q2185.42 203.133 2185.42 203.542 Z" fill="#000000" fill-rule="evenodd" fill-opacity="1" /><path clip-path="url(#clip690)" d="M 0 0 M2200.4 203.174 Q2200.44 202.661 2201.24 202.661 L2226.96 202.661 Q2228.17 202.661 2228.19 203.133 Q2228.19 203.645 2227.04 203.624 L2201.52 203.624 Q2200.4 203.645 2200.4 203.174 M2200.4 194.976 Q2200.4 194.463 2201.28 194.484 L2226.92 194.484 Q2228.17 194.484 2228.19 194.976 Q2228.19 195.447 2227.12 195.447 L2201.24 195.447 Q2200.4 195.447 2200.4 194.976 Z" fill="#000000" fill-rule="evenodd" fill-opacity="1" /><path clip-path="url(#clip690)" d="M 0 0 M2244.37 203.891 Q2244.37 202.641 2245.09 202.046 Q2245.81 201.452 2246.73 201.452 Q2247.69 201.452 2248.37 202.087 Q2249.06 202.702 2249.06 203.788 Q2249.06 204.957 2248.24 205.612 Q2247.44 206.268 2246.3 206.104 Q2247.3 207.785 2249.15 208.543 Q2251.01 209.301 2252.73 209.301 Q2254.54 209.301 2255.99 207.744 Q2257.47 206.186 2257.47 202.374 Q2257.47 199.136 2256.2 197.271 Q2254.95 195.406 2252.47 195.406 L2250.62 195.406 Q2249.99 195.406 2249.8 195.345 Q2249.62 195.283 2249.62 194.935 Q2249.62 194.525 2250.25 194.443 Q2250.89 194.443 2251.89 194.32 Q2254.33 194.238 2255.62 192.127 Q2256.79 190.159 2256.79 187.352 Q2256.79 184.79 2255.56 183.724 Q2254.35 182.638 2252.77 182.638 Q2251.3 182.638 2249.68 183.253 Q2248.06 183.868 2247.18 185.241 Q2249.78 185.241 2249.78 187.352 Q2249.78 188.274 2249.19 188.889 Q2248.61 189.483 2247.65 189.483 Q2246.73 189.483 2246.11 188.909 Q2245.5 188.315 2245.5 187.311 Q2245.5 184.913 2247.63 183.253 Q2249.78 181.593 2252.94 181.593 Q2256.05 181.593 2258.35 183.232 Q2260.66 184.872 2260.66 187.393 Q2260.66 189.873 2259.02 191.901 Q2257.38 193.93 2254.78 194.771 Q2257.98 195.406 2259.88 197.579 Q2261.79 199.73 2261.79 202.374 Q2261.79 205.653 2259.21 208.072 Q2256.63 210.47 2252.86 210.47 Q2249.37 210.47 2246.87 208.584 Q2244.37 206.699 2244.37 203.891 Z" fill="#000000" fill-rule="evenodd" fill-opacity="1" /><polyline clip-path="url(#clip690)" style="stroke:#aa0055; stroke-width:3.5; stroke-opacity:1; fill:none" stroke-dasharray="14, 9" points="
  1864.06,252.413 2002.19,252.413 
  "/>
<path clip-path="url(#clip690)" d="M 0 0 M2053.76 234.513 Q2053.76 234.902 2053.67 235.23 L2052.53 242.526 Q2052.47 243.079 2052.34 243.284 Q2052.24 243.489 2051.91 243.489 Q2051.4 243.489 2051.4 242.956 Q2051.4 242.649 2051.52 242.157 Q2051.87 239.841 2051.87 238.796 Q2051.87 238.099 2051.73 237.587 Q2051.6 237.054 2051.4 236.685 Q2051.22 236.316 2050.78 236.07 Q2050.35 235.824 2049.94 235.681 Q2049.53 235.537 2048.8 235.476 Q2048.06 235.394 2047.42 235.373 Q2046.79 235.353 2045.74 235.353 Q2043.47 235.353 2043.1 235.435 Q2042.71 235.537 2042.51 235.845 Q2042.32 236.132 2042.12 236.993 L2036.54 259.27 L2036.38 260.151 Q2036.38 260.643 2036.68 260.807 Q2036.99 260.971 2037.93 261.074 Q2039.29 261.176 2040.62 261.176 Q2040.66 261.176 2040.74 261.176 Q2041.19 261.176 2041.38 261.197 Q2041.56 261.197 2041.75 261.238 Q2041.93 261.279 2041.97 261.381 Q2042.03 261.463 2042.03 261.627 Q2042.03 262.016 2041.87 262.221 Q2041.71 262.406 2041.54 262.447 Q2041.4 262.467 2041.11 262.467 Q2040.54 262.467 2039.31 262.426 Q2038.08 262.385 2037.46 262.385 L2033.98 262.344 L2030.41 262.385 Q2029.86 262.385 2028.69 262.426 Q2027.52 262.467 2026.97 262.467 Q2026.25 262.467 2026.25 261.955 Q2026.25 261.381 2026.52 261.279 Q2026.81 261.176 2028.02 261.176 Q2029.72 261.176 2030.64 261.094 Q2031.56 261.012 2032.05 260.725 Q2032.57 260.438 2032.71 260.151 Q2032.85 259.844 2033.02 259.147 L2038.65 236.747 Q2038.82 236.255 2038.82 235.865 Q2038.82 235.66 2038.75 235.578 Q2038.71 235.496 2038.45 235.435 Q2038.18 235.353 2037.63 235.353 L2035.99 235.353 Q2034.31 235.353 2033.26 235.435 Q2032.24 235.496 2031.25 235.804 Q2030.29 236.111 2029.72 236.542 Q2029.16 236.972 2028.55 237.853 Q2027.93 238.735 2027.48 239.8 Q2027.05 240.866 2026.44 242.608 Q2026.23 243.182 2026.11 243.346 Q2026.01 243.489 2025.72 243.489 Q2025.51 243.489 2025.35 243.366 Q2025.21 243.223 2025.21 243.038 Q2025.41 242.362 2025.45 242.28 L2027.97 234.882 Q2028.18 234.287 2028.36 234.185 Q2028.57 234.062 2029.33 234.062 L2052.61 234.062 Q2052.98 234.062 2053.1 234.062 Q2053.22 234.062 2053.43 234.103 Q2053.63 234.144 2053.7 234.246 Q2053.76 234.349 2053.76 234.513 Z" fill="#000000" fill-rule="evenodd" fill-opacity="1" /><path clip-path="url(#clip690)" d="M 0 0 M2061.13 256.094 Q2061.17 255.581 2061.97 255.581 L2087.69 255.581 Q2088.9 255.581 2088.92 256.053 Q2088.92 256.565 2087.77 256.544 L2062.25 256.544 Q2061.13 256.565 2061.13 256.094 M2061.13 247.896 Q2061.13 247.383 2062.01 247.404 L2087.65 247.404 Q2088.9 247.404 2088.92 247.896 Q2088.92 248.367 2087.85 248.367 L2061.97 248.367 Q2061.13 248.367 2061.13 247.896 Z" fill="#000000" fill-rule="evenodd" fill-opacity="1" /><path clip-path="url(#clip690)" d="M 0 0 M2105.1 249.043 Q2105.1 242.875 2106.66 239.513 Q2108.83 234.513 2113.95 234.513 Q2115.04 234.513 2116.17 234.82 Q2117.31 235.107 2118.75 236.234 Q2120.2 237.361 2121.09 239.206 Q2122.77 242.772 2122.77 249.043 Q2122.77 255.171 2121.21 258.512 Q2118.93 263.39 2113.91 263.39 Q2112.03 263.39 2110.1 262.426 Q2108.19 261.463 2106.98 259.147 Q2105.1 255.684 2105.1 249.043 M2108.58 248.531 Q2108.58 254.864 2109.03 257.385 Q2109.55 260.11 2110.94 261.299 Q2112.35 262.467 2113.91 262.467 Q2115.59 262.467 2116.99 261.217 Q2118.4 259.947 2118.83 257.221 Q2119.3 254.536 2119.28 248.531 Q2119.28 242.69 2118.87 240.354 Q2118.32 237.628 2116.84 236.542 Q2115.39 235.435 2113.91 235.435 Q2113.36 235.435 2112.76 235.599 Q2112.19 235.763 2111.35 236.234 Q2110.51 236.706 2109.85 237.874 Q2109.22 239.042 2108.91 240.805 Q2108.58 243.079 2108.58 248.531 Z" fill="#000000" fill-rule="evenodd" fill-opacity="1" /><path clip-path="url(#clip690)" d="M 0 0 M2126.48 261.791 Q2125.88 261.115 2125.88 260.233 Q2125.88 259.352 2126.45 258.696 Q2127.05 258.02 2128.11 258.02 Q2129.36 258.02 2130.08 259.229 Q2130.8 260.418 2130.8 262.426 Q2130.8 264.599 2129.92 266.607 Q2129.04 268.636 2128.18 269.6 Q2127.32 270.563 2126.97 270.563 Q2126.56 270.563 2126.56 270.112 Q2126.56 269.948 2126.84 269.641 Q2129.86 266.402 2129.88 262.426 Q2129.88 261.791 2129.8 261.791 L2129.69 261.873 Q2128.98 262.467 2128.11 262.467 Q2127.07 262.467 2126.48 261.791 Z" fill="#000000" fill-rule="evenodd" fill-opacity="1" /><path clip-path="url(#clip690)" d="M 0 0 M2164.64 256.462 Q2164.13 258.983 2163.08 260.746 Q2161.79 262.939 2159.82 262.939 Q2158.16 262.939 2157.06 261.791 Q2155.95 260.623 2155.95 258.778 Q2155.95 258.225 2156.18 257.303 Q2156.26 256.893 2156.26 256.38 Q2156.26 253.06 2149.06 252.814 Q2148.47 255.171 2148.06 256.77 Q2147.67 258.348 2147.55 258.819 Q2147.42 259.291 2147.32 259.68 Q2147.24 260.07 2147.1 260.582 Q2146.89 261.422 2146.75 261.832 Q2146.6 262.242 2146.21 262.59 Q2145.85 262.939 2145.25 262.939 Q2144.74 262.939 2144.39 262.631 Q2144.04 262.324 2144.04 261.791 Q2144.04 261.422 2144.21 260.828 L2148.06 245.436 Q2148.16 245.006 2148.37 244.699 Q2148.57 244.391 2148.76 244.248 Q2148.96 244.104 2149.21 244.022 Q2149.45 243.94 2149.56 243.94 Q2149.66 243.92 2149.74 243.92 Q2150.29 243.92 2150.62 244.227 Q2150.97 244.514 2150.97 245.047 Q2150.97 245.129 2150.83 245.703 Q2150.7 246.256 2150.5 247.096 Q2150.29 247.937 2150.21 248.326 L2149.37 251.605 Q2150.54 251.216 2151.58 250.519 Q2152.65 249.822 2154.74 248.019 Q2155.7 247.219 2156.28 246.768 Q2156.87 246.297 2157.86 245.662 Q2158.84 245.006 2159.78 244.699 Q2160.72 244.371 2161.63 244.371 Q2162.32 244.371 2162.73 244.699 Q2163.14 245.006 2163.23 245.293 Q2163.31 245.559 2163.31 245.846 Q2163.31 246.687 2162.65 247.404 Q2162 248.121 2161.03 248.121 Q2160.17 248.121 2159.8 247.65 Q2159.43 247.178 2159.43 246.646 Q2159.43 246.236 2159.64 245.723 Q2158.49 246.215 2157.51 246.932 Q2156.52 247.629 2154.82 249.084 Q2152.4 251.154 2150.97 251.933 Q2151.79 251.954 2152.4 252.015 Q2153.04 252.056 2154.11 252.2 Q2155.17 252.343 2155.95 252.65 Q2156.73 252.937 2157.49 253.388 Q2158.27 253.839 2158.68 254.577 Q2159.11 255.315 2159.11 256.258 Q2159.11 256.708 2158.9 257.631 Q2158.55 259.147 2158.55 259.988 Q2158.55 261.053 2158.88 261.525 Q2159.23 261.996 2159.91 261.996 Q2161.2 261.996 2162.02 260.664 Q2162.86 259.311 2163.55 256.811 Q2163.66 256.339 2163.76 256.196 Q2163.86 256.053 2164.15 256.053 Q2164.64 256.053 2164.64 256.462 Z" fill="#000000" fill-rule="evenodd" fill-opacity="1" /><path clip-path="url(#clip690)" d="M 0 0 M2179.61 256.094 Q2179.66 255.581 2180.46 255.581 L2206.18 255.581 Q2207.39 255.581 2207.41 256.053 Q2207.41 256.565 2206.26 256.544 L2180.74 256.544 Q2179.61 256.565 2179.61 256.094 M2179.61 247.896 Q2179.61 247.383 2180.5 247.404 L2206.13 247.404 Q2207.39 247.404 2207.41 247.896 Q2207.41 248.367 2206.34 248.367 L2180.46 248.367 Q2179.61 248.367 2179.61 247.896 Z" fill="#000000" fill-rule="evenodd" fill-opacity="1" /><path clip-path="url(#clip690)" d="M 0 0 M2223.59 256.811 Q2223.59 255.561 2224.31 254.966 Q2225.02 254.372 2225.95 254.372 Q2226.91 254.372 2227.59 255.007 Q2228.28 255.622 2228.28 256.708 Q2228.28 257.877 2227.46 258.532 Q2226.66 259.188 2225.52 259.024 Q2226.52 260.705 2228.36 261.463 Q2230.23 262.221 2231.95 262.221 Q2233.75 262.221 2235.21 260.664 Q2236.69 259.106 2236.69 255.294 Q2236.69 252.056 2235.41 250.191 Q2234.16 248.326 2231.68 248.326 L2229.84 248.326 Q2229.2 248.326 2229.02 248.265 Q2228.84 248.203 2228.84 247.855 Q2228.84 247.445 2229.47 247.363 Q2230.11 247.363 2231.11 247.24 Q2233.55 247.158 2234.84 245.047 Q2236.01 243.079 2236.01 240.272 Q2236.01 237.71 2234.78 236.644 Q2233.57 235.558 2231.99 235.558 Q2230.52 235.558 2228.9 236.173 Q2227.28 236.788 2226.4 238.161 Q2229 238.161 2229 240.272 Q2229 241.194 2228.41 241.809 Q2227.83 242.403 2226.87 242.403 Q2225.95 242.403 2225.33 241.829 Q2224.72 241.235 2224.72 240.231 Q2224.72 237.833 2226.85 236.173 Q2229 234.513 2232.16 234.513 Q2235.27 234.513 2237.57 236.152 Q2239.88 237.792 2239.88 240.313 Q2239.88 242.793 2238.24 244.821 Q2236.6 246.85 2234 247.691 Q2237.2 248.326 2239.1 250.499 Q2241.01 252.65 2241.01 255.294 Q2241.01 258.573 2238.43 260.992 Q2235.84 263.39 2232.07 263.39 Q2228.59 263.39 2226.09 261.504 Q2223.59 259.619 2223.59 256.811 Z" fill="#000000" fill-rule="evenodd" fill-opacity="1" /><path clip-path="url(#clip690)" d="M 0 0 M2244.37 249.043 Q2244.37 242.875 2245.93 239.513 Q2248.1 234.513 2253.22 234.513 Q2254.31 234.513 2255.44 234.82 Q2256.59 235.107 2258.02 236.234 Q2259.47 237.361 2260.36 239.206 Q2262.04 242.772 2262.04 249.043 Q2262.04 255.171 2260.48 258.512 Q2258.2 263.39 2253.18 263.39 Q2251.3 263.39 2249.37 262.426 Q2247.47 261.463 2246.26 259.147 Q2244.37 255.684 2244.37 249.043 M2247.85 248.531 Q2247.85 254.864 2248.31 257.385 Q2248.82 260.11 2250.21 261.299 Q2251.63 262.467 2253.18 262.467 Q2254.86 262.467 2256.26 261.217 Q2257.67 259.947 2258.1 257.221 Q2258.57 254.536 2258.55 248.531 Q2258.55 242.69 2258.14 240.354 Q2257.59 237.628 2256.11 236.542 Q2254.66 235.435 2253.18 235.435 Q2252.63 235.435 2252.04 235.599 Q2251.46 235.763 2250.62 236.234 Q2249.78 236.706 2249.13 237.874 Q2248.49 239.042 2248.18 240.805 Q2247.85 243.079 2247.85 248.531 Z" fill="#000000" fill-rule="evenodd" fill-opacity="1" /><path clip-path="url(#clip690)" d="M 0 0 M2265.15 249.043 Q2265.15 242.875 2266.71 239.513 Q2268.88 234.513 2274.01 234.513 Q2275.09 234.513 2276.22 234.82 Q2277.37 235.107 2278.8 236.234 Q2280.26 237.361 2281.14 239.206 Q2282.82 242.772 2282.82 249.043 Q2282.82 255.171 2281.26 258.512 Q2278.99 263.39 2273.96 263.39 Q2272.08 263.39 2270.15 262.426 Q2268.25 261.463 2267.04 259.147 Q2265.15 255.684 2265.15 249.043 M2268.64 248.531 Q2268.64 254.864 2269.09 257.385 Q2269.6 260.11 2270.99 261.299 Q2272.41 262.467 2273.96 262.467 Q2275.64 262.467 2277.04 261.217 Q2278.45 259.947 2278.88 257.221 Q2279.35 254.536 2279.33 248.531 Q2279.33 242.69 2278.92 240.354 Q2278.37 237.628 2276.9 236.542 Q2275.44 235.435 2273.96 235.435 Q2273.41 235.435 2272.82 235.599 Q2272.24 235.763 2271.4 236.234 Q2270.56 236.706 2269.91 237.874 Q2269.27 239.042 2268.96 240.805 Q2268.64 243.079 2268.64 248.531 Z" fill="#000000" fill-rule="evenodd" fill-opacity="1" /><polyline clip-path="url(#clip690)" style="stroke:#ff0000; stroke-width:3.5; stroke-opacity:1; fill:none" points="
  1864.06,305.333 2002.19,305.333 
  "/>
<path clip-path="url(#clip690)" d="M 0 0 M2053.76 287.433 Q2053.76 287.822 2053.67 288.15 L2052.53 295.446 Q2052.47 295.999 2052.34 296.204 Q2052.24 296.409 2051.91 296.409 Q2051.4 296.409 2051.4 295.876 Q2051.4 295.569 2051.52 295.077 Q2051.87 292.761 2051.87 291.716 Q2051.87 291.019 2051.73 290.507 Q2051.6 289.974 2051.4 289.605 Q2051.22 289.236 2050.78 288.99 Q2050.35 288.744 2049.94 288.601 Q2049.53 288.457 2048.8 288.396 Q2048.06 288.314 2047.42 288.293 Q2046.79 288.273 2045.74 288.273 Q2043.47 288.273 2043.1 288.355 Q2042.71 288.457 2042.51 288.765 Q2042.32 289.052 2042.12 289.913 L2036.54 312.19 L2036.38 313.071 Q2036.38 313.563 2036.68 313.727 Q2036.99 313.891 2037.93 313.994 Q2039.29 314.096 2040.62 314.096 Q2040.66 314.096 2040.74 314.096 Q2041.19 314.096 2041.38 314.117 Q2041.56 314.117 2041.75 314.158 Q2041.93 314.199 2041.97 314.301 Q2042.03 314.383 2042.03 314.547 Q2042.03 314.936 2041.87 315.141 Q2041.71 315.326 2041.54 315.367 Q2041.4 315.387 2041.11 315.387 Q2040.54 315.387 2039.31 315.346 Q2038.08 315.305 2037.46 315.305 L2033.98 315.264 L2030.41 315.305 Q2029.86 315.305 2028.69 315.346 Q2027.52 315.387 2026.97 315.387 Q2026.25 315.387 2026.25 314.875 Q2026.25 314.301 2026.52 314.199 Q2026.81 314.096 2028.02 314.096 Q2029.72 314.096 2030.64 314.014 Q2031.56 313.932 2032.05 313.645 Q2032.57 313.358 2032.71 313.071 Q2032.85 312.764 2033.02 312.067 L2038.65 289.667 Q2038.82 289.175 2038.82 288.785 Q2038.82 288.58 2038.75 288.498 Q2038.71 288.416 2038.45 288.355 Q2038.18 288.273 2037.63 288.273 L2035.99 288.273 Q2034.31 288.273 2033.26 288.355 Q2032.24 288.416 2031.25 288.724 Q2030.29 289.031 2029.72 289.462 Q2029.16 289.892 2028.55 290.773 Q2027.93 291.655 2027.48 292.72 Q2027.05 293.786 2026.44 295.528 Q2026.23 296.102 2026.11 296.266 Q2026.01 296.409 2025.72 296.409 Q2025.51 296.409 2025.35 296.286 Q2025.21 296.143 2025.21 295.958 Q2025.41 295.282 2025.45 295.2 L2027.97 287.802 Q2028.18 287.207 2028.36 287.105 Q2028.57 286.982 2029.33 286.982 L2052.61 286.982 Q2052.98 286.982 2053.1 286.982 Q2053.22 286.982 2053.43 287.023 Q2053.63 287.064 2053.7 287.166 Q2053.76 287.269 2053.76 287.433 Z" fill="#000000" fill-rule="evenodd" fill-opacity="1" /><path clip-path="url(#clip690)" d="M 0 0 M2061.13 309.014 Q2061.17 308.501 2061.97 308.501 L2087.69 308.501 Q2088.9 308.501 2088.92 308.973 Q2088.92 309.485 2087.77 309.464 L2062.25 309.464 Q2061.13 309.485 2061.13 309.014 M2061.13 300.816 Q2061.13 300.303 2062.01 300.324 L2087.65 300.324 Q2088.9 300.324 2088.92 300.816 Q2088.92 301.287 2087.85 301.287 L2061.97 301.287 Q2061.13 301.287 2061.13 300.816 Z" fill="#000000" fill-rule="evenodd" fill-opacity="1" /><path clip-path="url(#clip690)" d="M 0 0 M2105.1 302.127 Q2105.1 295.528 2108.46 291.491 Q2111.82 287.433 2116.15 287.433 Q2118.67 287.433 2120.06 288.724 Q2121.47 289.995 2121.47 291.962 Q2121.47 293.048 2120.84 293.52 Q2120.2 293.991 2119.55 293.991 Q2118.79 293.991 2118.2 293.479 Q2117.6 292.966 2117.6 292.044 Q2117.6 290.158 2119.92 290.158 Q2118.83 288.478 2116.23 288.478 Q2115.43 288.478 2114.61 288.724 Q2113.79 288.949 2112.72 289.728 Q2111.66 290.507 2110.84 291.737 Q2110.02 292.966 2109.44 295.282 Q2108.87 297.598 2108.87 300.611 L2108.87 301.615 Q2110.59 297.455 2114.12 297.475 Q2117.64 297.475 2120.08 300.16 Q2122.52 302.845 2122.52 306.821 Q2122.52 310.899 2119.98 313.604 Q2117.44 316.31 2113.87 316.31 Q2112.27 316.31 2110.82 315.633 Q2109.38 314.977 2108.03 313.461 Q2106.7 311.944 2105.9 309.034 Q2105.1 306.124 2105.1 302.127 M2108.95 305.898 Q2108.95 310.018 2109.71 311.985 Q2109.83 312.313 2110.1 312.764 Q2110.39 313.215 2110.86 313.809 Q2111.35 314.383 2112.15 314.773 Q2112.95 315.141 2113.87 315.141 Q2116.68 315.141 2118.03 312.416 Q2118.75 310.899 2118.75 306.78 Q2118.75 302.578 2117.99 301.041 Q2116.7 298.438 2114.08 298.438 Q2112.31 298.438 2111.08 299.647 Q2109.87 300.857 2109.4 302.476 Q2108.95 304.095 2108.95 305.898 Z" fill="#000000" fill-rule="evenodd" fill-opacity="1" /><path clip-path="url(#clip690)" d="M 0 0 M2125.88 301.963 Q2125.88 295.795 2127.44 292.433 Q2129.61 287.433 2134.73 287.433 Q2135.82 287.433 2136.95 287.74 Q2138.1 288.027 2139.53 289.154 Q2140.99 290.281 2141.87 292.126 Q2143.55 295.692 2143.55 301.963 Q2143.55 308.091 2141.99 311.432 Q2139.71 316.31 2134.69 316.31 Q2132.81 316.31 2130.88 315.346 Q2128.98 314.383 2127.77 312.067 Q2125.88 308.604 2125.88 301.963 M2129.36 301.451 Q2129.36 307.784 2129.82 310.305 Q2130.33 313.03 2131.72 314.219 Q2133.14 315.387 2134.69 315.387 Q2136.37 315.387 2137.77 314.137 Q2139.18 312.867 2139.61 310.141 Q2140.08 307.456 2140.06 301.451 Q2140.06 295.61 2139.65 293.274 Q2139.1 290.548 2137.62 289.462 Q2136.17 288.355 2134.69 288.355 Q2134.14 288.355 2133.55 288.519 Q2132.97 288.683 2132.13 289.154 Q2131.29 289.626 2130.64 290.794 Q2130 291.962 2129.69 293.725 Q2129.36 295.999 2129.36 301.451 Z" fill="#000000" fill-rule="evenodd" fill-opacity="1" /><path clip-path="url(#clip690)" d="M 0 0 M2147.26 314.711 Q2146.66 314.035 2146.66 313.153 Q2146.66 312.272 2147.24 311.616 Q2147.83 310.94 2148.9 310.94 Q2150.15 310.94 2150.86 312.149 Q2151.58 313.338 2151.58 315.346 Q2151.58 317.519 2150.7 319.527 Q2149.82 321.556 2148.96 322.52 Q2148.1 323.483 2147.75 323.483 Q2147.34 323.483 2147.34 323.032 Q2147.34 322.868 2147.63 322.561 Q2150.64 319.322 2150.66 315.346 Q2150.66 314.711 2150.58 314.711 L2150.47 314.793 Q2149.76 315.387 2148.9 315.387 Q2147.85 315.387 2147.26 314.711 Z" fill="#000000" fill-rule="evenodd" fill-opacity="1" /><path clip-path="url(#clip690)" d="M 0 0 M2185.42 309.382 Q2184.91 311.903 2183.86 313.666 Q2182.57 315.859 2180.6 315.859 Q2178.94 315.859 2177.84 314.711 Q2176.73 313.543 2176.73 311.698 Q2176.73 311.145 2176.96 310.223 Q2177.04 309.813 2177.04 309.3 Q2177.04 305.98 2169.84 305.734 Q2169.25 308.091 2168.84 309.69 Q2168.45 311.268 2168.33 311.739 Q2168.21 312.211 2168.1 312.6 Q2168.02 312.99 2167.88 313.502 Q2167.67 314.342 2167.53 314.752 Q2167.39 315.162 2167 315.51 Q2166.63 315.859 2166.03 315.859 Q2165.52 315.859 2165.17 315.551 Q2164.82 315.244 2164.82 314.711 Q2164.82 314.342 2164.99 313.748 L2168.84 298.356 Q2168.94 297.926 2169.15 297.619 Q2169.35 297.311 2169.54 297.168 Q2169.74 297.024 2169.99 296.942 Q2170.23 296.86 2170.34 296.86 Q2170.44 296.84 2170.52 296.84 Q2171.07 296.84 2171.4 297.147 Q2171.75 297.434 2171.75 297.967 Q2171.75 298.049 2171.61 298.623 Q2171.48 299.176 2171.28 300.016 Q2171.07 300.857 2170.99 301.246 L2170.15 304.525 Q2171.32 304.136 2172.37 303.439 Q2173.43 302.742 2175.52 300.939 Q2176.48 300.139 2177.06 299.688 Q2177.65 299.217 2178.64 298.582 Q2179.62 297.926 2180.56 297.619 Q2181.51 297.291 2182.41 297.291 Q2183.1 297.291 2183.51 297.619 Q2183.92 297.926 2184.01 298.213 Q2184.09 298.479 2184.09 298.766 Q2184.09 299.607 2183.43 300.324 Q2182.78 301.041 2181.81 301.041 Q2180.95 301.041 2180.58 300.57 Q2180.21 300.098 2180.21 299.566 Q2180.21 299.156 2180.42 298.643 Q2179.27 299.135 2178.29 299.852 Q2177.3 300.549 2175.6 302.004 Q2173.19 304.074 2171.75 304.853 Q2172.57 304.874 2173.19 304.935 Q2173.82 304.976 2174.89 305.12 Q2175.95 305.263 2176.73 305.57 Q2177.51 305.857 2178.27 306.308 Q2179.05 306.759 2179.46 307.497 Q2179.89 308.235 2179.89 309.178 Q2179.89 309.628 2179.68 310.551 Q2179.33 312.067 2179.33 312.908 Q2179.33 313.973 2179.66 314.445 Q2180.01 314.916 2180.69 314.916 Q2181.98 314.916 2182.8 313.584 Q2183.64 312.231 2184.33 309.731 Q2184.44 309.259 2184.54 309.116 Q2184.64 308.973 2184.93 308.973 Q2185.42 308.973 2185.42 309.382 Z" fill="#000000" fill-rule="evenodd" fill-opacity="1" /><path clip-path="url(#clip690)" d="M 0 0 M2200.4 309.014 Q2200.44 308.501 2201.24 308.501 L2226.96 308.501 Q2228.17 308.501 2228.19 308.973 Q2228.19 309.485 2227.04 309.464 L2201.52 309.464 Q2200.4 309.485 2200.4 309.014 M2200.4 300.816 Q2200.4 300.303 2201.28 300.324 L2226.92 300.324 Q2228.17 300.324 2228.19 300.816 Q2228.19 301.287 2227.12 301.287 L2201.24 301.287 Q2200.4 301.287 2200.4 300.816 Z" fill="#000000" fill-rule="evenodd" fill-opacity="1" /><path clip-path="url(#clip690)" d="M 0 0 M2244.37 309.731 Q2244.37 308.481 2245.09 307.886 Q2245.81 307.292 2246.73 307.292 Q2247.69 307.292 2248.37 307.927 Q2249.06 308.542 2249.06 309.628 Q2249.06 310.797 2248.24 311.452 Q2247.44 312.108 2246.3 311.944 Q2247.3 313.625 2249.15 314.383 Q2251.01 315.141 2252.73 315.141 Q2254.54 315.141 2255.99 313.584 Q2257.47 312.026 2257.47 308.214 Q2257.47 304.976 2256.2 303.111 Q2254.95 301.246 2252.47 301.246 L2250.62 301.246 Q2249.99 301.246 2249.8 301.185 Q2249.62 301.123 2249.62 300.775 Q2249.62 300.365 2250.25 300.283 Q2250.89 300.283 2251.89 300.16 Q2254.33 300.078 2255.62 297.967 Q2256.79 295.999 2256.79 293.192 Q2256.79 290.63 2255.56 289.564 Q2254.35 288.478 2252.77 288.478 Q2251.3 288.478 2249.68 289.093 Q2248.06 289.708 2247.18 291.081 Q2249.78 291.081 2249.78 293.192 Q2249.78 294.114 2249.19 294.729 Q2248.61 295.323 2247.65 295.323 Q2246.73 295.323 2246.11 294.749 Q2245.5 294.155 2245.5 293.151 Q2245.5 290.753 2247.63 289.093 Q2249.78 287.433 2252.94 287.433 Q2256.05 287.433 2258.35 289.072 Q2260.66 290.712 2260.66 293.233 Q2260.66 295.713 2259.02 297.741 Q2257.38 299.77 2254.78 300.611 Q2257.98 301.246 2259.88 303.419 Q2261.79 305.57 2261.79 308.214 Q2261.79 311.493 2259.21 313.912 Q2256.63 316.31 2252.86 316.31 Q2249.37 316.31 2246.87 314.424 Q2244.37 312.539 2244.37 309.731 Z" fill="#000000" fill-rule="evenodd" fill-opacity="1" /><path clip-path="url(#clip690)" d="M 0 0 M2265.15 301.963 Q2265.15 295.795 2266.71 292.433 Q2268.88 287.433 2274.01 287.433 Q2275.09 287.433 2276.22 287.74 Q2277.37 288.027 2278.8 289.154 Q2280.26 290.281 2281.14 292.126 Q2282.82 295.692 2282.82 301.963 Q2282.82 308.091 2281.26 311.432 Q2278.99 316.31 2273.96 316.31 Q2272.08 316.31 2270.15 315.346 Q2268.25 314.383 2267.04 312.067 Q2265.15 308.604 2265.15 301.963 M2268.64 301.451 Q2268.64 307.784 2269.09 310.305 Q2269.6 313.03 2270.99 314.219 Q2272.41 315.387 2273.96 315.387 Q2275.64 315.387 2277.04 314.137 Q2278.45 312.867 2278.88 310.141 Q2279.35 307.456 2279.33 301.451 Q2279.33 295.61 2278.92 293.274 Q2278.37 290.548 2276.9 289.462 Q2275.44 288.355 2273.96 288.355 Q2273.41 288.355 2272.82 288.519 Q2272.24 288.683 2271.4 289.154 Q2270.56 289.626 2269.91 290.794 Q2269.27 291.962 2268.96 293.725 Q2268.64 295.999 2268.64 301.451 Z" fill="#000000" fill-rule="evenodd" fill-opacity="1" /><path clip-path="url(#clip690)" d="M 0 0 M2285.93 301.963 Q2285.93 295.795 2287.49 292.433 Q2289.66 287.433 2294.79 287.433 Q2295.87 287.433 2297 287.74 Q2298.15 288.027 2299.58 289.154 Q2301.04 290.281 2301.92 292.126 Q2303.6 295.692 2303.6 301.963 Q2303.6 308.091 2302.04 311.432 Q2299.77 316.31 2294.75 316.31 Q2292.86 316.31 2290.93 315.346 Q2289.03 314.383 2287.82 312.067 Q2285.93 308.604 2285.93 301.963 M2289.42 301.451 Q2289.42 307.784 2289.87 310.305 Q2290.38 313.03 2291.77 314.219 Q2293.19 315.387 2294.75 315.387 Q2296.43 315.387 2297.82 314.137 Q2299.23 312.867 2299.66 310.141 Q2300.14 307.456 2300.12 301.451 Q2300.12 295.61 2299.71 293.274 Q2299.15 290.548 2297.68 289.462 Q2296.22 288.355 2294.75 288.355 Q2294.19 288.355 2293.6 288.519 Q2293.02 288.683 2292.18 289.154 Q2291.34 289.626 2290.69 290.794 Q2290.05 291.962 2289.74 293.725 Q2289.42 295.999 2289.42 301.451 Z" fill="#000000" fill-rule="evenodd" fill-opacity="1" /></svg>
