<?xml version="1.0" encoding="utf-8"?>
<svg xmlns="http://www.w3.org/2000/svg" xmlns:xlink="http://www.w3.org/1999/xlink" width="600" height="400" viewBox="0 0 2400 1600">
<defs>
  <clipPath id="clip140">
    <rect x="0" y="0" width="2400" height="1600"/>
  </clipPath>
</defs>
<path clip-path="url(#clip140)" d="
M0 1600 L2400 1600 L2400 0 L0 0  Z
  " fill="#ffffff" fill-rule="evenodd" fill-opacity="1"/>
<defs>
  <clipPath id="clip141">
    <rect x="480" y="0" width="1681" height="1600"/>
  </clipPath>
</defs>
<path clip-path="url(#clip140)" d="
M275.224 1439.5 L2352.76 1439.5 L2352.76 47.2441 L275.224 47.2441  Z
  " fill="#ffffff" fill-rule="evenodd" fill-opacity="1"/>
<defs>
  <clipPath id="clip142">
    <rect x="275" y="47" width="2079" height="1393"/>
  </clipPath>
</defs>
<polyline clip-path="url(#clip142)" style="stroke:#000000; stroke-width:2; stroke-opacity:0.1; fill:none" points="
  333.63,1439.5 333.63,47.2441 
  "/>
<polyline clip-path="url(#clip142)" style="stroke:#000000; stroke-width:2; stroke-opacity:0.1; fill:none" points="
  725.696,1439.5 725.696,47.2441 
  "/>
<polyline clip-path="url(#clip142)" style="stroke:#000000; stroke-width:2; stroke-opacity:0.1; fill:none" points="
  1117.76,1439.5 1117.76,47.2441 
  "/>
<polyline clip-path="url(#clip142)" style="stroke:#000000; stroke-width:2; stroke-opacity:0.1; fill:none" points="
  1509.83,1439.5 1509.83,47.2441 
  "/>
<polyline clip-path="url(#clip142)" style="stroke:#000000; stroke-width:2; stroke-opacity:0.1; fill:none" points="
  1901.89,1439.5 1901.89,47.2441 
  "/>
<polyline clip-path="url(#clip142)" style="stroke:#000000; stroke-width:2; stroke-opacity:0.1; fill:none" points="
  2293.96,1439.5 2293.96,47.2441 
  "/>
<polyline clip-path="url(#clip140)" style="stroke:#000000; stroke-width:4; stroke-opacity:1; fill:none" points="
  275.224,1439.5 2352.76,1439.5 
  "/>
<polyline clip-path="url(#clip140)" style="stroke:#000000; stroke-width:4; stroke-opacity:1; fill:none" points="
  333.63,1439.5 333.63,1422.79 
  "/>
<polyline clip-path="url(#clip140)" style="stroke:#000000; stroke-width:4; stroke-opacity:1; fill:none" points="
  725.696,1439.5 725.696,1422.79 
  "/>
<polyline clip-path="url(#clip140)" style="stroke:#000000; stroke-width:4; stroke-opacity:1; fill:none" points="
  1117.76,1439.5 1117.76,1422.79 
  "/>
<polyline clip-path="url(#clip140)" style="stroke:#000000; stroke-width:4; stroke-opacity:1; fill:none" points="
  1509.83,1439.5 1509.83,1422.79 
  "/>
<polyline clip-path="url(#clip140)" style="stroke:#000000; stroke-width:4; stroke-opacity:1; fill:none" points="
  1901.89,1439.5 1901.89,1422.79 
  "/>
<polyline clip-path="url(#clip140)" style="stroke:#000000; stroke-width:4; stroke-opacity:1; fill:none" points="
  2293.96,1439.5 2293.96,1422.79 
  "/>
<path clip-path="url(#clip140)" d="M 0 0 M333.63 1468.69 Q330.019 1468.69 328.19 1472.26 Q326.385 1475.8 326.385 1482.93 Q326.385 1490.04 328.19 1493.6 Q330.019 1497.14 333.63 1497.14 Q337.264 1497.14 339.07 1493.6 Q340.899 1490.04 340.899 1482.93 Q340.899 1475.8 339.07 1472.26 Q337.264 1468.69 333.63 1468.69 M333.63 1464.99 Q339.44 1464.99 342.496 1469.6 Q345.575 1474.18 345.575 1482.93 Q345.575 1491.66 342.496 1496.26 Q339.44 1500.85 333.63 1500.85 Q327.82 1500.85 324.741 1496.26 Q321.686 1491.66 321.686 1482.93 Q321.686 1474.18 324.741 1469.6 Q327.82 1464.99 333.63 1464.99 Z" fill="#000000" fill-rule="evenodd" fill-opacity="1" /><path clip-path="url(#clip140)" d="M 0 0 M685.302 1496.24 L692.941 1496.24 L692.941 1469.87 L684.631 1471.54 L684.631 1467.28 L692.895 1465.61 L697.571 1465.61 L697.571 1496.24 L705.21 1496.24 L705.21 1500.17 L685.302 1500.17 L685.302 1496.24 Z" fill="#000000" fill-rule="evenodd" fill-opacity="1" /><path clip-path="url(#clip140)" d="M 0 0 M724.654 1468.69 Q721.043 1468.69 719.214 1472.26 Q717.409 1475.8 717.409 1482.93 Q717.409 1490.04 719.214 1493.6 Q721.043 1497.14 724.654 1497.14 Q728.288 1497.14 730.094 1493.6 Q731.923 1490.04 731.923 1482.93 Q731.923 1475.8 730.094 1472.26 Q728.288 1468.69 724.654 1468.69 M724.654 1464.99 Q730.464 1464.99 733.52 1469.6 Q736.598 1474.18 736.598 1482.93 Q736.598 1491.66 733.52 1496.26 Q730.464 1500.85 724.654 1500.85 Q718.844 1500.85 715.765 1496.26 Q712.71 1491.66 712.71 1482.93 Q712.71 1474.18 715.765 1469.6 Q718.844 1464.99 724.654 1464.99 Z" fill="#000000" fill-rule="evenodd" fill-opacity="1" /><path clip-path="url(#clip140)" d="M 0 0 M754.816 1468.69 Q751.205 1468.69 749.376 1472.26 Q747.571 1475.8 747.571 1482.93 Q747.571 1490.04 749.376 1493.6 Q751.205 1497.14 754.816 1497.14 Q758.45 1497.14 760.256 1493.6 Q762.084 1490.04 762.084 1482.93 Q762.084 1475.8 760.256 1472.26 Q758.45 1468.69 754.816 1468.69 M754.816 1464.99 Q760.626 1464.99 763.682 1469.6 Q766.76 1474.18 766.76 1482.93 Q766.76 1491.66 763.682 1496.26 Q760.626 1500.85 754.816 1500.85 Q749.006 1500.85 745.927 1496.26 Q742.872 1491.66 742.872 1482.93 Q742.872 1474.18 745.927 1469.6 Q749.006 1464.99 754.816 1464.99 Z" fill="#000000" fill-rule="evenodd" fill-opacity="1" /><path clip-path="url(#clip140)" d="M 0 0 M1081.45 1496.24 L1097.77 1496.24 L1097.77 1500.17 L1075.83 1500.17 L1075.83 1496.24 Q1078.49 1493.48 1083.07 1488.85 Q1087.68 1484.2 1088.86 1482.86 Q1091.11 1480.34 1091.99 1478.6 Q1092.89 1476.84 1092.89 1475.15 Q1092.89 1472.4 1090.94 1470.66 Q1089.02 1468.92 1085.92 1468.92 Q1083.72 1468.92 1081.27 1469.69 Q1078.84 1470.45 1076.06 1472 L1076.06 1467.28 Q1078.88 1466.15 1081.34 1465.57 Q1083.79 1464.99 1085.83 1464.99 Q1091.2 1464.99 1094.39 1467.67 Q1097.59 1470.36 1097.59 1474.85 Q1097.59 1476.98 1096.78 1478.9 Q1095.99 1480.8 1093.88 1483.39 Q1093.31 1484.06 1090.2 1487.28 Q1087.1 1490.47 1081.45 1496.24 Z" fill="#000000" fill-rule="evenodd" fill-opacity="1" /><path clip-path="url(#clip140)" d="M 0 0 M1117.59 1468.69 Q1113.98 1468.69 1112.15 1472.26 Q1110.34 1475.8 1110.34 1482.93 Q1110.34 1490.04 1112.15 1493.6 Q1113.98 1497.14 1117.59 1497.14 Q1121.22 1497.14 1123.03 1493.6 Q1124.86 1490.04 1124.86 1482.93 Q1124.86 1475.8 1123.03 1472.26 Q1121.22 1468.69 1117.59 1468.69 M1117.59 1464.99 Q1123.4 1464.99 1126.45 1469.6 Q1129.53 1474.18 1129.53 1482.93 Q1129.53 1491.66 1126.45 1496.26 Q1123.4 1500.85 1117.59 1500.85 Q1111.78 1500.85 1108.7 1496.26 Q1105.64 1491.66 1105.64 1482.93 Q1105.64 1474.18 1108.7 1469.6 Q1111.78 1464.99 1117.59 1464.99 Z" fill="#000000" fill-rule="evenodd" fill-opacity="1" /><path clip-path="url(#clip140)" d="M 0 0 M1147.75 1468.69 Q1144.14 1468.69 1142.31 1472.26 Q1140.5 1475.8 1140.5 1482.93 Q1140.5 1490.04 1142.31 1493.6 Q1144.14 1497.14 1147.75 1497.14 Q1151.38 1497.14 1153.19 1493.6 Q1155.02 1490.04 1155.02 1482.93 Q1155.02 1475.8 1153.19 1472.26 Q1151.38 1468.69 1147.75 1468.69 M1147.75 1464.99 Q1153.56 1464.99 1156.62 1469.6 Q1159.69 1474.18 1159.69 1482.93 Q1159.69 1491.66 1156.62 1496.26 Q1153.56 1500.85 1147.75 1500.85 Q1141.94 1500.85 1138.86 1496.26 Q1135.81 1491.66 1135.81 1482.93 Q1135.81 1474.18 1138.86 1469.6 Q1141.94 1464.99 1147.75 1464.99 Z" fill="#000000" fill-rule="evenodd" fill-opacity="1" /><path clip-path="url(#clip140)" d="M 0 0 M1483.59 1481.54 Q1486.94 1482.26 1488.82 1484.53 Q1490.72 1486.79 1490.72 1490.13 Q1490.72 1495.24 1487.2 1498.04 Q1483.68 1500.85 1477.2 1500.85 Q1475.02 1500.85 1472.71 1500.41 Q1470.42 1499.99 1467.96 1499.13 L1467.96 1494.62 Q1469.91 1495.75 1472.22 1496.33 Q1474.54 1496.91 1477.06 1496.91 Q1481.46 1496.91 1483.75 1495.17 Q1486.07 1493.44 1486.07 1490.13 Q1486.07 1487.07 1483.91 1485.36 Q1481.78 1483.62 1477.96 1483.62 L1473.94 1483.62 L1473.94 1479.78 L1478.15 1479.78 Q1481.6 1479.78 1483.43 1478.41 Q1485.26 1477.03 1485.26 1474.43 Q1485.26 1471.77 1483.36 1470.36 Q1481.48 1468.92 1477.96 1468.92 Q1476.04 1468.92 1473.84 1469.34 Q1471.64 1469.76 1469.01 1470.64 L1469.01 1466.47 Q1471.67 1465.73 1473.98 1465.36 Q1476.32 1464.99 1478.38 1464.99 Q1483.7 1464.99 1486.81 1467.42 Q1489.91 1469.83 1489.91 1473.95 Q1489.91 1476.82 1488.26 1478.81 Q1486.62 1480.78 1483.59 1481.54 Z" fill="#000000" fill-rule="evenodd" fill-opacity="1" /><path clip-path="url(#clip140)" d="M 0 0 M1509.58 1468.69 Q1505.97 1468.69 1504.14 1472.26 Q1502.34 1475.8 1502.34 1482.93 Q1502.34 1490.04 1504.14 1493.6 Q1505.97 1497.14 1509.58 1497.14 Q1513.22 1497.14 1515.02 1493.6 Q1516.85 1490.04 1516.85 1482.93 Q1516.85 1475.8 1515.02 1472.26 Q1513.22 1468.69 1509.58 1468.69 M1509.58 1464.99 Q1515.39 1464.99 1518.45 1469.6 Q1521.53 1474.18 1521.53 1482.93 Q1521.53 1491.66 1518.45 1496.26 Q1515.39 1500.85 1509.58 1500.85 Q1503.77 1500.85 1500.69 1496.26 Q1497.64 1491.66 1497.64 1482.93 Q1497.64 1474.18 1500.69 1469.6 Q1503.77 1464.99 1509.58 1464.99 Z" fill="#000000" fill-rule="evenodd" fill-opacity="1" /><path clip-path="url(#clip140)" d="M 0 0 M1539.75 1468.69 Q1536.13 1468.69 1534.31 1472.26 Q1532.5 1475.8 1532.5 1482.93 Q1532.5 1490.04 1534.31 1493.6 Q1536.13 1497.14 1539.75 1497.14 Q1543.38 1497.14 1545.19 1493.6 Q1547.01 1490.04 1547.01 1482.93 Q1547.01 1475.8 1545.19 1472.26 Q1543.38 1468.69 1539.75 1468.69 M1539.75 1464.99 Q1545.56 1464.99 1548.61 1469.6 Q1551.69 1474.18 1551.69 1482.93 Q1551.69 1491.66 1548.61 1496.26 Q1545.56 1500.85 1539.75 1500.85 Q1533.94 1500.85 1530.86 1496.26 Q1527.8 1491.66 1527.8 1482.93 Q1527.8 1474.18 1530.86 1469.6 Q1533.94 1464.99 1539.75 1464.99 Z" fill="#000000" fill-rule="evenodd" fill-opacity="1" /><path clip-path="url(#clip140)" d="M 0 0 M1874.98 1469.69 L1863.18 1488.14 L1874.98 1488.14 L1874.98 1469.69 M1873.76 1465.61 L1879.64 1465.61 L1879.64 1488.14 L1884.57 1488.14 L1884.57 1492.03 L1879.64 1492.03 L1879.64 1500.17 L1874.98 1500.17 L1874.98 1492.03 L1859.38 1492.03 L1859.38 1487.51 L1873.76 1465.61 Z" fill="#000000" fill-rule="evenodd" fill-opacity="1" /><path clip-path="url(#clip140)" d="M 0 0 M1902.3 1468.69 Q1898.69 1468.69 1896.86 1472.26 Q1895.05 1475.8 1895.05 1482.93 Q1895.05 1490.04 1896.86 1493.6 Q1898.69 1497.14 1902.3 1497.14 Q1905.93 1497.14 1907.74 1493.6 Q1909.57 1490.04 1909.57 1482.93 Q1909.57 1475.8 1907.74 1472.26 Q1905.93 1468.69 1902.3 1468.69 M1902.3 1464.99 Q1908.11 1464.99 1911.16 1469.6 Q1914.24 1474.18 1914.24 1482.93 Q1914.24 1491.66 1911.16 1496.26 Q1908.11 1500.85 1902.3 1500.85 Q1896.49 1500.85 1893.41 1496.26 Q1890.35 1491.66 1890.35 1482.93 Q1890.35 1474.18 1893.41 1469.6 Q1896.49 1464.99 1902.3 1464.99 Z" fill="#000000" fill-rule="evenodd" fill-opacity="1" /><path clip-path="url(#clip140)" d="M 0 0 M1932.46 1468.69 Q1928.85 1468.69 1927.02 1472.26 Q1925.21 1475.8 1925.21 1482.93 Q1925.21 1490.04 1927.02 1493.6 Q1928.85 1497.14 1932.46 1497.14 Q1936.09 1497.14 1937.9 1493.6 Q1939.73 1490.04 1939.73 1482.93 Q1939.73 1475.8 1937.9 1472.26 Q1936.09 1468.69 1932.46 1468.69 M1932.46 1464.99 Q1938.27 1464.99 1941.32 1469.6 Q1944.4 1474.18 1944.4 1482.93 Q1944.4 1491.66 1941.32 1496.26 Q1938.27 1500.85 1932.46 1500.85 Q1926.65 1500.85 1923.57 1496.26 Q1920.51 1491.66 1920.51 1482.93 Q1920.51 1474.18 1923.57 1469.6 Q1926.65 1464.99 1932.46 1464.99 Z" fill="#000000" fill-rule="evenodd" fill-opacity="1" /><path clip-path="url(#clip140)" d="M 0 0 M2253.58 1465.61 L2271.93 1465.61 L2271.93 1469.55 L2257.86 1469.55 L2257.86 1478.02 Q2258.88 1477.67 2259.9 1477.51 Q2260.91 1477.33 2261.93 1477.33 Q2267.72 1477.33 2271.1 1480.5 Q2274.48 1483.67 2274.48 1489.09 Q2274.48 1494.66 2271.01 1497.77 Q2267.53 1500.85 2261.21 1500.85 Q2259.04 1500.85 2256.77 1500.47 Q2254.53 1500.1 2252.12 1499.36 L2252.12 1494.66 Q2254.2 1495.8 2256.42 1496.35 Q2258.65 1496.91 2261.12 1496.91 Q2265.13 1496.91 2267.46 1494.8 Q2269.8 1492.7 2269.8 1489.09 Q2269.8 1485.47 2267.46 1483.37 Q2265.13 1481.26 2261.12 1481.26 Q2259.25 1481.26 2257.37 1481.68 Q2255.52 1482.1 2253.58 1482.97 L2253.58 1465.61 Z" fill="#000000" fill-rule="evenodd" fill-opacity="1" /><path clip-path="url(#clip140)" d="M 0 0 M2293.69 1468.69 Q2290.08 1468.69 2288.25 1472.26 Q2286.45 1475.8 2286.45 1482.93 Q2286.45 1490.04 2288.25 1493.6 Q2290.08 1497.14 2293.69 1497.14 Q2297.33 1497.14 2299.13 1493.6 Q2300.96 1490.04 2300.96 1482.93 Q2300.96 1475.8 2299.13 1472.26 Q2297.33 1468.69 2293.69 1468.69 M2293.69 1464.99 Q2299.5 1464.99 2302.56 1469.6 Q2305.64 1474.18 2305.64 1482.93 Q2305.64 1491.66 2302.56 1496.26 Q2299.5 1500.85 2293.69 1500.85 Q2287.88 1500.85 2284.8 1496.26 Q2281.75 1491.66 2281.75 1482.93 Q2281.75 1474.18 2284.8 1469.6 Q2287.88 1464.99 2293.69 1464.99 Z" fill="#000000" fill-rule="evenodd" fill-opacity="1" /><path clip-path="url(#clip140)" d="M 0 0 M2323.85 1468.69 Q2320.24 1468.69 2318.41 1472.26 Q2316.61 1475.8 2316.61 1482.93 Q2316.61 1490.04 2318.41 1493.6 Q2320.24 1497.14 2323.85 1497.14 Q2327.49 1497.14 2329.29 1493.6 Q2331.12 1490.04 2331.12 1482.93 Q2331.12 1475.8 2329.29 1472.26 Q2327.49 1468.69 2323.85 1468.69 M2323.85 1464.99 Q2329.66 1464.99 2332.72 1469.6 Q2335.8 1474.18 2335.8 1482.93 Q2335.8 1491.66 2332.72 1496.26 Q2329.66 1500.85 2323.85 1500.85 Q2318.04 1500.85 2314.96 1496.26 Q2311.91 1491.66 2311.91 1482.93 Q2311.91 1474.18 2314.96 1469.6 Q2318.04 1464.99 2323.85 1464.99 Z" fill="#000000" fill-rule="evenodd" fill-opacity="1" /><path clip-path="url(#clip140)" d="M 0 0 M1325.92 1535.75 Q1325.92 1541.16 1324.19 1547.24 Q1322.48 1553.3 1319.77 1558.19 Q1317.07 1563.06 1313.53 1566.28 Q1309.98 1569.47 1306.6 1569.47 Q1304.44 1569.47 1302.83 1568.27 Q1301.26 1567.05 1300.39 1565.02 Q1299.52 1562.96 1299.1 1560.71 Q1298.68 1558.42 1298.68 1555.94 Q1298.68 1552.24 1299.48 1548.21 Q1300.29 1544.15 1301.64 1540.48 Q1302.99 1536.78 1304.89 1533.43 Q1306.79 1530.05 1308.89 1527.6 Q1311.01 1525.12 1313.4 1523.67 Q1315.78 1522.22 1318 1522.22 Q1319.61 1522.22 1320.9 1522.93 Q1322.22 1523.6 1323.06 1524.8 Q1323.9 1525.96 1324.48 1527.34 Q1325.09 1528.73 1325.38 1530.34 Q1325.67 1531.91 1325.8 1533.23 Q1325.92 1534.52 1325.92 1535.75 M1321.58 1531.66 Q1321.58 1530.01 1321.45 1528.79 Q1321.32 1527.53 1320.97 1526.28 Q1320.61 1525.02 1319.84 1524.35 Q1319.1 1523.67 1317.94 1523.67 Q1314.56 1523.67 1310.76 1530.59 Q1309.53 1532.75 1308.44 1535.68 Q1307.34 1538.61 1306.96 1540 Q1306.57 1541.38 1305.67 1544.8 L1319.45 1544.8 Q1321.58 1536 1321.58 1531.66 M1318.87 1546.89 L1305.15 1546.89 Q1303.03 1554.94 1303.03 1559.96 Q1303.03 1564.34 1303.93 1566.18 Q1304.86 1567.98 1306.6 1567.98 Q1308.6 1567.98 1310.47 1565.99 Q1312.33 1563.96 1314.23 1560.29 Q1316.75 1555.52 1318.87 1546.89 Z" fill="#000000" fill-rule="evenodd" fill-opacity="1" /><polyline clip-path="url(#clip142)" style="stroke:#000000; stroke-width:2; stroke-opacity:0.1; fill:none" points="
  275.224,1312.22 2352.76,1312.22 
  "/>
<polyline clip-path="url(#clip142)" style="stroke:#000000; stroke-width:2; stroke-opacity:0.1; fill:none" points="
  275.224,1039.4 2352.76,1039.4 
  "/>
<polyline clip-path="url(#clip142)" style="stroke:#000000; stroke-width:2; stroke-opacity:0.1; fill:none" points="
  275.224,766.591 2352.76,766.591 
  "/>
<polyline clip-path="url(#clip142)" style="stroke:#000000; stroke-width:2; stroke-opacity:0.1; fill:none" points="
  275.224,493.776 2352.76,493.776 
  "/>
<polyline clip-path="url(#clip142)" style="stroke:#000000; stroke-width:2; stroke-opacity:0.1; fill:none" points="
  275.224,220.962 2352.76,220.962 
  "/>
<polyline clip-path="url(#clip140)" style="stroke:#000000; stroke-width:4; stroke-opacity:1; fill:none" points="
  275.224,1439.5 275.224,47.2441 
  "/>
<polyline clip-path="url(#clip140)" style="stroke:#000000; stroke-width:4; stroke-opacity:1; fill:none" points="
  275.224,1312.22 300.155,1312.22 
  "/>
<polyline clip-path="url(#clip140)" style="stroke:#000000; stroke-width:4; stroke-opacity:1; fill:none" points="
  275.224,1039.4 300.155,1039.4 
  "/>
<polyline clip-path="url(#clip140)" style="stroke:#000000; stroke-width:4; stroke-opacity:1; fill:none" points="
  275.224,766.591 300.155,766.591 
  "/>
<polyline clip-path="url(#clip140)" style="stroke:#000000; stroke-width:4; stroke-opacity:1; fill:none" points="
  275.224,493.776 300.155,493.776 
  "/>
<polyline clip-path="url(#clip140)" style="stroke:#000000; stroke-width:4; stroke-opacity:1; fill:none" points="
  275.224,220.962 300.155,220.962 
  "/>
<path clip-path="url(#clip140)" d="M 0 0 M147.35 1312.67 L177.025 1312.67 L177.025 1316.61 L147.35 1316.61 L147.35 1312.67 Z" fill="#000000" fill-rule="evenodd" fill-opacity="1" /><path clip-path="url(#clip140)" d="M 0 0 M201.285 1310.86 Q204.641 1311.58 206.516 1313.85 Q208.414 1316.12 208.414 1319.45 Q208.414 1324.57 204.896 1327.37 Q201.377 1330.17 194.896 1330.17 Q192.72 1330.17 190.405 1329.73 Q188.113 1329.31 185.66 1328.46 L185.66 1323.94 Q187.604 1325.08 189.919 1325.66 Q192.234 1326.24 194.757 1326.24 Q199.155 1326.24 201.447 1324.5 Q203.761 1322.76 203.761 1319.45 Q203.761 1316.4 201.609 1314.68 Q199.479 1312.95 195.66 1312.95 L191.632 1312.95 L191.632 1309.11 L195.845 1309.11 Q199.294 1309.11 201.122 1307.74 Q202.951 1306.35 202.951 1303.76 Q202.951 1301.1 201.053 1299.68 Q199.178 1298.25 195.66 1298.25 Q193.738 1298.25 191.539 1298.67 Q189.34 1299.08 186.701 1299.96 L186.701 1295.8 Q189.363 1295.05 191.678 1294.68 Q194.016 1294.31 196.076 1294.31 Q201.4 1294.31 204.502 1296.74 Q207.604 1299.15 207.604 1303.27 Q207.604 1306.14 205.96 1308.13 Q204.317 1310.1 201.285 1310.86 Z" fill="#000000" fill-rule="evenodd" fill-opacity="1" /><path clip-path="url(#clip140)" d="M 0 0 M227.28 1298.02 Q223.669 1298.02 221.84 1301.58 Q220.034 1305.12 220.034 1312.25 Q220.034 1319.36 221.84 1322.93 Q223.669 1326.47 227.28 1326.47 Q230.914 1326.47 232.72 1322.93 Q234.548 1319.36 234.548 1312.25 Q234.548 1305.12 232.72 1301.58 Q230.914 1298.02 227.28 1298.02 M227.28 1294.31 Q233.09 1294.31 236.145 1298.92 Q239.224 1303.5 239.224 1312.25 Q239.224 1320.98 236.145 1325.59 Q233.09 1330.17 227.28 1330.17 Q221.47 1330.17 218.391 1325.59 Q215.335 1320.98 215.335 1312.25 Q215.335 1303.5 218.391 1298.92 Q221.47 1294.31 227.28 1294.31 Z" fill="#000000" fill-rule="evenodd" fill-opacity="1" /><path clip-path="url(#clip140)" d="M 0 0 M147.35 1039.86 L177.025 1039.86 L177.025 1043.79 L147.35 1043.79 L147.35 1039.86 Z" fill="#000000" fill-rule="evenodd" fill-opacity="1" /><path clip-path="url(#clip140)" d="M 0 0 M191.146 1052.75 L207.465 1052.75 L207.465 1056.68 L185.521 1056.68 L185.521 1052.75 Q188.183 1050 192.766 1045.37 Q197.373 1040.71 198.553 1039.37 Q200.798 1036.85 201.678 1035.11 Q202.581 1033.35 202.581 1031.66 Q202.581 1028.91 200.636 1027.17 Q198.715 1025.44 195.613 1025.44 Q193.414 1025.44 190.961 1026.2 Q188.53 1026.96 185.752 1028.51 L185.752 1023.79 Q188.576 1022.66 191.03 1022.08 Q193.484 1021.5 195.521 1021.5 Q200.891 1021.5 204.085 1024.19 Q207.28 1026.87 207.28 1031.36 Q207.28 1033.49 206.47 1035.41 Q205.683 1037.31 203.576 1039.9 Q202.997 1040.57 199.896 1043.79 Q196.794 1046.99 191.146 1052.75 Z" fill="#000000" fill-rule="evenodd" fill-opacity="1" /><path clip-path="url(#clip140)" d="M 0 0 M227.28 1025.2 Q223.669 1025.2 221.84 1028.77 Q220.034 1032.31 220.034 1039.44 Q220.034 1046.55 221.84 1050.11 Q223.669 1053.65 227.28 1053.65 Q230.914 1053.65 232.72 1050.11 Q234.548 1046.55 234.548 1039.44 Q234.548 1032.31 232.72 1028.77 Q230.914 1025.2 227.28 1025.2 M227.28 1021.5 Q233.09 1021.5 236.145 1026.11 Q239.224 1030.69 239.224 1039.44 Q239.224 1048.17 236.145 1052.77 Q233.09 1057.36 227.28 1057.36 Q221.47 1057.36 218.391 1052.77 Q215.335 1048.17 215.335 1039.44 Q215.335 1030.69 218.391 1026.11 Q221.47 1021.5 227.28 1021.5 Z" fill="#000000" fill-rule="evenodd" fill-opacity="1" /><path clip-path="url(#clip140)" d="M 0 0 M147.35 767.042 L177.025 767.042 L177.025 770.977 L147.35 770.977 L147.35 767.042 Z" fill="#000000" fill-rule="evenodd" fill-opacity="1" /><path clip-path="url(#clip140)" d="M 0 0 M187.928 779.935 L195.567 779.935 L195.567 753.57 L187.257 755.237 L187.257 750.977 L195.521 749.311 L200.197 749.311 L200.197 779.935 L207.835 779.935 L207.835 783.871 L187.928 783.871 L187.928 779.935 Z" fill="#000000" fill-rule="evenodd" fill-opacity="1" /><path clip-path="url(#clip140)" d="M 0 0 M227.28 752.389 Q223.669 752.389 221.84 755.954 Q220.034 759.496 220.034 766.625 Q220.034 773.732 221.84 777.297 Q223.669 780.838 227.28 780.838 Q230.914 780.838 232.72 777.297 Q234.548 773.732 234.548 766.625 Q234.548 759.496 232.72 755.954 Q230.914 752.389 227.28 752.389 M227.28 748.686 Q233.09 748.686 236.145 753.292 Q239.224 757.875 239.224 766.625 Q239.224 775.352 236.145 779.959 Q233.09 784.542 227.28 784.542 Q221.47 784.542 218.391 779.959 Q215.335 775.352 215.335 766.625 Q215.335 757.875 218.391 753.292 Q221.47 748.686 227.28 748.686 Z" fill="#000000" fill-rule="evenodd" fill-opacity="1" /><path clip-path="url(#clip140)" d="M 0 0 M227.28 479.575 Q223.669 479.575 221.84 483.14 Q220.034 486.681 220.034 493.811 Q220.034 500.918 221.84 504.482 Q223.669 508.024 227.28 508.024 Q230.914 508.024 232.72 504.482 Q234.548 500.918 234.548 493.811 Q234.548 486.681 232.72 483.14 Q230.914 479.575 227.28 479.575 M227.28 475.871 Q233.09 475.871 236.145 480.478 Q239.224 485.061 239.224 493.811 Q239.224 502.538 236.145 507.144 Q233.09 511.728 227.28 511.728 Q221.47 511.728 218.391 507.144 Q215.335 502.538 215.335 493.811 Q215.335 485.061 218.391 480.478 Q221.47 475.871 227.28 475.871 Z" fill="#000000" fill-rule="evenodd" fill-opacity="1" /><path clip-path="url(#clip140)" d="M 0 0 M187.928 234.307 L195.567 234.307 L195.567 207.941 L187.257 209.608 L187.257 205.349 L195.521 203.682 L200.197 203.682 L200.197 234.307 L207.835 234.307 L207.835 238.242 L187.928 238.242 L187.928 234.307 Z" fill="#000000" fill-rule="evenodd" fill-opacity="1" /><path clip-path="url(#clip140)" d="M 0 0 M227.28 206.761 Q223.669 206.761 221.84 210.326 Q220.034 213.867 220.034 220.997 Q220.034 228.103 221.84 231.668 Q223.669 235.21 227.28 235.21 Q230.914 235.21 232.72 231.668 Q234.548 228.103 234.548 220.997 Q234.548 213.867 232.72 210.326 Q230.914 206.761 227.28 206.761 M227.28 203.057 Q233.09 203.057 236.145 207.664 Q239.224 212.247 239.224 220.997 Q239.224 229.724 236.145 234.33 Q233.09 238.913 227.28 238.913 Q221.47 238.913 218.391 234.33 Q215.335 229.724 215.335 220.997 Q215.335 212.247 218.391 207.664 Q221.47 203.057 227.28 203.057 Z" fill="#000000" fill-rule="evenodd" fill-opacity="1" /><path clip-path="url(#clip140)" d="M 0 0 M60.9719 807.63 L77.3969 813.298 L77.3969 867.983 Q77.3969 868.724 77.3647 869.014 Q77.3325 869.304 77.1714 869.529 Q77.0104 869.755 76.6561 869.755 Q76.3663 869.755 75.6255 869.175 L46.6725 845.761 L13.5648 869.819 Q12.0512 869.819 11.7613 869.561 Q11.4393 869.304 11.4393 867.983 L11.4393 813.298 L26.8659 807.63 L26.8659 809.272 Q24.8691 810.013 23.1944 811.204 Q21.4875 812.364 20.2637 813.717 Q19.0398 815.037 18.0737 816.776 Q17.0753 818.483 16.4634 820.093 Q15.8193 821.671 15.3684 823.636 Q14.8853 825.6 14.6598 827.179 Q14.4022 828.724 14.2734 830.657 Q14.1446 832.589 14.1123 833.813 Q14.0801 835.037 14.0801 836.583 L14.0801 862.702 L43.4841 841.285 Q44.2248 840.802 44.4181 840.802 Q44.7079 840.802 45.4809 841.414 L73.7576 864.28 L73.7576 836.261 Q73.7576 827.243 71.8575 820.963 Q70.4082 816.712 67.5419 813.62 Q64.6756 810.496 60.9719 809.272 L60.9719 807.63 Z" fill="#000000" fill-rule="evenodd" fill-opacity="1" /><path clip-path="url(#clip140)" d="M 0 0 M103.539 878.807 Q104.17 878.807 104.328 879.1 Q104.463 879.393 104.463 880.205 L104.463 884.533 L118.08 887.96 Q119.275 888.231 120.289 888.231 Q121.417 888.231 121.913 887.892 Q122.408 887.532 122.408 886.788 Q122.408 885.322 121.078 883.744 Q119.748 882.144 116.502 880.791 Q116.074 880.611 115.983 880.521 Q115.871 880.408 115.871 880.115 Q115.871 879.551 116.322 879.551 Q116.479 879.551 117.201 879.867 Q117.922 880.16 118.982 880.814 Q120.041 881.445 121.033 882.279 Q122.025 883.091 122.747 884.331 Q123.446 885.57 123.446 886.901 Q123.446 888.772 122.251 889.967 Q121.056 891.139 119.185 891.139 Q118.576 891.139 116.637 890.665 Q114.676 890.192 104.463 887.622 L104.463 891.702 Q104.463 892.266 104.441 892.491 Q104.418 892.694 104.306 892.852 Q104.17 892.987 103.9 892.987 Q103.471 892.987 103.291 892.807 Q103.088 892.627 103.066 892.401 Q103.021 892.153 103.021 891.59 L103.021 887.261 L95.6937 885.458 Q94.9723 885.277 94.5665 884.826 Q94.1382 884.353 94.0931 884.083 Q94.0255 883.812 94.0255 883.609 Q94.0255 883 94.3636 882.64 Q94.6792 882.279 95.2654 882.279 Q95.581 882.279 103.021 884.173 L103.021 880.115 Q103.021 879.596 103.043 879.393 Q103.066 879.168 103.178 878.988 Q103.291 878.807 103.539 878.807 Z" fill="#000000" fill-rule="evenodd" fill-opacity="1" /><path clip-path="url(#clip140)" d="M 0 0 M115.916 863.675 Q115.352 863.629 115.352 862.75 L115.352 834.457 Q115.352 833.127 115.871 833.105 Q116.434 833.105 116.412 834.367 L116.412 862.435 Q116.434 863.675 115.916 863.675 M106.898 863.675 Q106.335 863.675 106.357 862.705 L106.357 834.502 Q106.357 833.127 106.898 833.105 Q107.417 833.105 107.417 834.277 L107.417 862.75 Q107.417 863.675 106.898 863.675 Z" fill="#000000" fill-rule="evenodd" fill-opacity="1" /><path clip-path="url(#clip140)" d="M 0 0 M96.5729 815.293 L95.1301 815.293 Q95.1301 809.747 92.1768 806.884 Q92.1768 806.095 92.3572 805.959 Q92.5375 805.824 93.3717 805.824 L119.275 805.824 Q120.65 805.824 121.078 805.148 Q121.507 804.472 121.507 801.518 L121.507 800.053 L122.927 800.053 Q122.792 801.676 122.792 807.538 Q122.792 813.399 122.927 815 L121.507 815 L121.507 813.534 Q121.507 810.626 121.101 809.927 Q120.673 809.228 119.275 809.228 L95.3556 809.228 Q96.5729 811.641 96.5729 815.293 Z" fill="#000000" fill-rule="evenodd" fill-opacity="1" /><path clip-path="url(#clip140)" d="M 0 0 M16.9787 740.525 Q17.5906 740.525 18.1059 740.654 L29.5712 742.457 Q30.4407 742.554 30.7628 742.747 Q31.0848 742.908 31.0848 743.424 Q31.0848 744.229 30.2475 744.229 Q29.7644 744.229 28.9915 744.036 Q25.3522 743.488 23.7097 743.488 Q22.6147 743.488 21.8095 743.713 Q20.9722 743.907 20.3925 744.229 Q19.8128 744.519 19.4263 745.195 Q19.0398 745.871 18.8144 746.515 Q18.589 747.159 18.4923 748.319 Q18.3635 749.478 18.3313 750.477 Q18.2991 751.475 18.2991 753.118 Q18.2991 756.692 18.4279 757.272 Q18.589 757.884 19.0721 758.206 Q19.5229 758.496 20.8756 758.818 L55.8834 767.578 L57.2682 767.836 Q58.0411 767.836 58.2988 767.353 Q58.5564 766.869 58.7175 765.388 Q58.8785 763.262 58.8785 761.169 Q58.8785 761.105 58.8785 760.976 Q58.8785 760.267 58.9107 759.977 Q58.9107 759.688 58.9751 759.398 Q59.0395 759.108 59.2006 759.043 Q59.3294 758.947 59.587 758.947 Q60.1989 758.947 60.521 759.204 Q60.8108 759.462 60.8753 759.72 Q60.9075 759.945 60.9075 760.396 Q60.9075 761.298 60.8431 763.23 Q60.7786 765.163 60.7786 766.129 L60.7142 771.604 L60.7786 777.208 Q60.7786 778.077 60.8431 779.913 Q60.9075 781.749 60.9075 782.618 Q60.9075 783.745 60.1023 783.745 Q59.2006 783.745 59.0395 783.327 Q58.8785 782.876 58.8785 780.976 Q58.8785 778.303 58.7497 776.853 Q58.6208 775.404 58.17 774.631 Q57.7191 773.826 57.2682 773.601 Q56.7851 773.375 55.6901 773.117 L20.4891 764.261 Q19.7162 764.003 19.1043 764.003 Q18.7822 764.003 18.6534 764.1 Q18.5246 764.164 18.4279 764.583 Q18.2991 765.002 18.2991 765.871 L18.2991 768.448 Q18.2991 771.088 18.4279 772.731 Q18.5246 774.341 19.0076 775.887 Q19.4907 777.401 20.1671 778.303 Q20.8434 779.172 22.2282 780.138 Q23.6131 781.104 25.2878 781.813 Q26.9625 782.489 29.7 783.455 Q30.6017 783.778 30.8594 783.971 Q31.0848 784.132 31.0848 784.583 Q31.0848 784.905 30.8916 785.162 Q30.6662 785.388 30.3763 785.388 Q29.3135 785.066 29.1847 785.001 L17.5584 781.04 Q16.6244 780.718 16.4634 780.428 Q16.2701 780.106 16.2701 778.914 L16.2701 742.329 Q16.2701 741.749 16.2701 741.556 Q16.2701 741.362 16.3346 741.04 Q16.399 740.718 16.56 740.622 Q16.721 740.525 16.9787 740.525 Z" fill="#000000" fill-rule="evenodd" fill-opacity="1" /><path clip-path="url(#clip140)" d="M 0 0 M8.06077 715.549 L8.98508 716.113 Q7.47462 719.607 5.0624 723.958 Q7.47462 728.309 8.98508 731.804 L8.06077 732.345 Q4.74679 728.535 2.1993 723.958 Q4.76933 719.337 8.06077 715.549 Z" fill="#000000" fill-rule="evenodd" fill-opacity="1" /><path clip-path="url(#clip140)" d="M 0 0 M16.6566 699.283 Q17.0753 699.283 17.3329 699.379 Q17.5906 699.444 17.7194 699.701 Q17.816 699.927 17.8482 700.088 Q17.8804 700.217 17.9126 700.603 Q18.0415 702.181 18.4601 703.502 Q18.8466 704.822 19.6196 705.949 Q20.3925 707.044 20.9078 707.656 Q21.4231 708.236 22.4537 709.267 L23.3876 710.168 L42.1637 726.529 Q42.8078 727.109 44.2248 727.463 L53.5323 729.782 Q57.397 730.683 57.6869 730.683 Q58.2666 730.683 58.4598 730.361 Q58.6208 730.007 58.7175 728.912 L58.8785 726.4 Q58.8785 724.919 59.1361 724.693 Q59.2972 724.564 59.587 724.564 Q60.1989 724.564 60.521 724.822 Q60.8108 725.047 60.8753 725.273 Q60.9075 725.466 60.9075 725.82 L60.7142 734.258 L60.9075 742.567 Q60.9075 743.501 60.1667 743.501 Q59.6836 743.501 59.426 743.437 Q59.1361 743.34 59.0395 743.05 Q58.9107 742.761 58.9107 742.535 Q58.8785 742.31 58.8785 741.698 Q58.8463 740.216 58.8463 739.476 Q58.8141 738.703 58.6208 737.962 Q58.4276 737.221 58.2988 736.964 Q58.1378 736.674 57.5903 736.352 Q57.0106 735.997 56.5597 735.901 Q56.1088 735.772 54.9816 735.514 Q53.9832 735.257 48.5404 733.904 Q43.0976 732.551 42.9688 732.551 Q42.6145 732.551 41.8416 732.809 L20.1348 740.925 Q19.1687 741.279 18.7822 741.569 Q18.3957 741.859 18.1703 742.825 Q17.9126 743.791 17.9126 745.724 Q17.9126 746.271 17.8804 746.529 Q17.8482 746.786 17.6872 747.012 Q17.5262 747.237 17.1719 747.237 Q16.56 747.237 16.2701 746.98 Q15.9481 746.722 15.9159 746.529 Q15.8515 746.303 15.8515 745.981 Q15.8515 745.176 15.9481 742.31 Q16.0447 739.443 16.0447 738.606 L15.8515 730.297 Q15.8515 729.299 16.5922 729.299 Q17.494 729.299 17.7194 729.653 Q17.9126 730.007 17.9126 730.877 Q17.9126 734.774 19.4907 734.774 Q19.684 734.774 20.6179 734.387 L40.1991 727.141 L22.5825 711.843 L22.3248 711.618 Q22.0672 711.424 21.874 711.263 Q21.6807 711.102 21.3265 710.845 Q20.9722 710.587 20.6823 710.458 Q20.3925 710.297 20.0382 710.168 Q19.684 710.039 19.4263 710.039 Q18.9432 710.039 18.6212 710.329 Q18.2669 710.619 18.1381 711.07 Q18.0093 711.521 17.9771 711.843 Q17.9126 712.165 17.9126 712.423 Q17.9126 713.421 17.1075 713.421 Q16.5278 713.421 16.2379 713.163 Q15.9159 712.906 15.8837 712.713 Q15.8515 712.487 15.8515 712.165 Q15.8515 711.102 15.9481 708.88 Q16.0447 706.658 16.0447 705.563 Q16.0447 704.661 15.9481 702.825 Q15.8515 700.99 15.8515 700.152 Q15.8515 699.283 16.6566 699.283 Z" fill="#000000" fill-rule="evenodd" fill-opacity="1" /><path clip-path="url(#clip140)" d="M 0 0 M58.6936 688.09 Q59.3248 688.09 59.4826 688.383 Q59.6179 688.676 59.6179 689.487 L59.6179 693.816 L73.2345 697.243 Q74.4294 697.513 75.4439 697.513 Q76.5711 697.513 77.067 697.175 Q77.563 696.814 77.563 696.07 Q77.563 694.605 76.2329 693.027 Q74.9028 691.426 71.6565 690.074 Q71.2281 689.893 71.1379 689.803 Q71.0252 689.69 71.0252 689.397 Q71.0252 688.834 71.4761 688.834 Q71.6339 688.834 72.3553 689.149 Q73.0767 689.442 74.1363 690.096 Q75.1959 690.727 76.1878 691.561 Q77.1798 692.373 77.9012 693.613 Q78.6 694.853 78.6 696.183 Q78.6 698.054 77.4052 699.249 Q76.2104 700.421 74.3392 700.421 Q73.7305 700.421 71.7917 699.948 Q69.8304 699.474 59.6179 696.904 L59.6179 700.985 Q59.6179 701.549 59.5954 701.774 Q59.5728 701.977 59.4601 702.135 Q59.3248 702.27 59.0543 702.27 Q58.626 702.27 58.4456 702.09 Q58.2427 701.909 58.2202 701.684 Q58.1751 701.436 58.1751 700.872 L58.1751 696.544 L50.8483 694.74 Q50.1268 694.56 49.721 694.109 Q49.2927 693.636 49.2476 693.365 Q49.18 693.094 49.18 692.892 Q49.18 692.283 49.5181 691.922 Q49.8338 691.561 50.4199 691.561 Q50.7355 691.561 58.1751 693.455 L58.1751 689.397 Q58.1751 688.879 58.1976 688.676 Q58.2202 688.45 58.3329 688.27 Q58.4456 688.09 58.6936 688.09 Z" fill="#000000" fill-rule="evenodd" fill-opacity="1" /><path clip-path="url(#clip140)" d="M 0 0 M44.4181 678.729 Q33.2748 678.729 24.2894 674.574 Q20.5213 672.803 17.3651 670.323 Q14.209 667.843 12.8241 666.201 Q11.4393 664.558 11.4393 664.107 Q11.4393 663.463 12.0834 663.431 Q12.4054 663.431 13.2106 664.301 Q24.0318 674.929 44.4181 674.896 Q64.8688 674.896 75.2713 664.558 Q76.3985 663.431 76.7527 663.431 Q77.3969 663.431 77.3969 664.107 Q77.3969 664.558 76.0764 666.136 Q74.756 667.714 71.7286 670.162 Q68.7013 672.61 64.9976 674.381 Q56.0122 678.729 44.4181 678.729 Z" fill="#000000" fill-rule="evenodd" fill-opacity="1" /><path clip-path="url(#clip140)" d="M 0 0 M24.7081 653.401 Q19.0398 653.401 15.2396 650.503 Q11.4393 647.604 11.4393 643.707 Q11.4393 641.324 13.5648 638.973 Q18.6534 633.627 18.6212 626.638 Q18.6212 618.716 12.3732 614.11 Q11.4393 613.305 11.4393 612.725 Q11.4393 612.21 11.8579 611.824 Q12.2444 611.405 12.7597 611.405 Q13.1462 611.405 13.9513 611.92 L63.6128 645.286 Q64.6111 646.026 64.6111 646.606 Q64.6111 647.121 64.1925 647.54 Q63.806 647.926 63.2907 647.926 Q62.8398 647.926 61.9703 647.347 L17.8482 617.717 L17.7838 617.782 Q20.1026 621.196 20.0704 626.574 Q20.0704 631.662 17.3007 636.526 Q20.7145 635.141 24.7725 635.141 Q30.3119 635.141 34.1766 637.621 Q38.0091 640.1 38.0091 643.707 Q38.0091 647.604 34.2732 650.503 Q30.5051 653.401 24.7081 653.401 M19.3297 648.86 Q21.6485 649.311 24.7725 649.311 Q27.8643 649.311 30.1831 648.86 Q32.4697 648.41 33.6613 647.765 Q34.8529 647.089 35.5615 646.187 Q36.2378 645.286 36.3988 644.738 Q36.5598 644.191 36.5598 643.643 Q36.5598 640.938 33.2104 638.877 Q29.8288 636.783 24.7081 636.783 Q19.684 636.783 16.3023 638.877 Q12.8885 640.938 12.8885 643.643 Q12.8885 644.223 13.0496 644.802 Q13.2106 645.35 13.9191 646.22 Q14.5954 647.089 15.7871 647.765 Q16.9787 648.41 19.3297 648.86 M51.2779 624.191 Q45.6097 624.191 41.8094 621.292 Q38.0091 618.394 38.0091 614.497 Q38.0091 610.922 41.8738 608.442 Q45.7385 605.93 51.3423 605.93 Q56.8817 605.93 60.7464 608.41 Q64.6111 610.857 64.6111 614.497 Q64.6111 618.394 60.8431 621.292 Q57.075 624.191 51.2779 624.191 M45.8995 619.65 Q48.2506 620.101 51.3423 620.101 Q54.4341 620.101 56.7529 619.65 Q59.0717 619.167 60.2633 618.522 Q61.4228 617.846 62.0991 616.977 Q62.8076 616.075 62.9686 615.527 Q63.1619 614.948 63.1619 614.432 Q63.1619 611.727 59.8125 609.666 Q56.4309 607.572 51.2779 607.572 Q46.2538 607.572 42.8722 609.666 Q39.4584 611.727 39.4584 614.432 Q39.4584 615.012 39.6516 615.592 Q39.8126 616.139 40.5212 617.009 Q41.1975 617.846 42.3891 618.522 Q43.5485 619.167 45.8995 619.65 Z" fill="#000000" fill-rule="evenodd" fill-opacity="1" /><path clip-path="url(#clip140)" d="M 0 0 M76.7527 599.015 Q76.4307 599.015 75.6255 598.177 Q64.8044 587.549 44.4181 587.549 Q23.9673 587.549 13.6293 597.758 Q12.4376 599.015 12.0834 599.015 Q11.4393 599.015 11.4393 598.37 Q11.4393 597.92 12.7597 596.341 Q14.0801 594.731 17.1075 592.316 Q20.1348 589.868 23.8385 588.065 Q32.824 583.717 44.4181 583.717 Q55.5613 583.717 64.5467 587.871 Q68.3148 589.643 71.471 592.122 Q74.6272 594.602 76.012 596.245 Q77.3969 597.887 77.3969 598.37 Q77.3969 599.015 76.7527 599.015 Z" fill="#000000" fill-rule="evenodd" fill-opacity="1" /><polyline clip-path="url(#clip142)" style="stroke:#0000ff; stroke-width:4; stroke-opacity:1; fill:none" points="
  334.022,1400.1 551.793,1316.85 769.563,1182.23 987.334,1037.97 1205.1,879.388 1422.88,688.972 1640.65,495.943 1858.42,373.417 2076.19,381.608 2293.96,276.306 
  
  "/>
<polyline clip-path="url(#clip142)" style="stroke:#7f0080; stroke-width:4; stroke-opacity:1; fill:none" points="
  334.022,537.975 551.793,376.517 769.563,291.487 987.334,234.543 1205.1,193.012 1422.88,161.368 1640.65,136.536 1858.42,116.591 2076.19,100.255 2293.96,86.6476 
  
  "/>
<polyline clip-path="url(#clip142)" style="stroke:#ff0000; stroke-width:4; stroke-opacity:1; fill:none" points="
  334.022,456.947 551.793,316.42 769.563,245.236 987.334,199.465 1205.1,167.338 1422.88,143.523 1640.65,125.164 1858.42,110.582 2076.19,98.7217 2293.96,88.8879 
  
  "/>
<path clip-path="url(#clip140)" d="
M1778.1 1393.09 L2283.5 1393.09 L2283.5 1241.89 L1778.1 1241.89  Z
  " fill="#ffffff" fill-rule="evenodd" fill-opacity="1"/>
<polyline clip-path="url(#clip140)" style="stroke:#000000; stroke-width:4; stroke-opacity:1; fill:none" points="
  1778.1,1393.09 2283.5,1393.09 2283.5,1241.89 1778.1,1241.89 1778.1,1393.09 
  "/>
<polyline clip-path="url(#clip140)" style="stroke:#0000ff; stroke-width:2.5; stroke-opacity:1; fill:none" points="
  1801.19,1279.69 1939.69,1279.69 
  "/>
<path clip-path="url(#clip140)" d="M 0 0 M1983.16 1266.91 Q1983.16 1267.19 1983.11 1267.43 L1982.29 1272.64 Q1982.24 1273.03 1982.15 1273.18 Q1982.08 1273.33 1981.85 1273.33 Q1981.48 1273.33 1981.48 1272.94 Q1981.48 1272.72 1981.57 1272.37 Q1981.82 1270.72 1981.82 1269.97 Q1981.82 1269.48 1981.72 1269.11 Q1981.63 1268.73 1981.48 1268.46 Q1981.35 1268.2 1981.04 1268.03 Q1980.73 1267.85 1980.44 1267.75 Q1980.15 1267.65 1979.62 1267.6 Q1979.09 1267.54 1978.64 1267.53 Q1978.19 1267.51 1977.44 1267.51 Q1975.82 1267.51 1975.55 1267.57 Q1975.27 1267.65 1975.13 1267.86 Q1975 1268.07 1974.85 1268.68 L1970.87 1284.6 L1970.75 1285.23 Q1970.75 1285.58 1970.97 1285.7 Q1971.19 1285.81 1971.86 1285.89 Q1972.83 1285.96 1973.78 1285.96 Q1973.81 1285.96 1973.87 1285.96 Q1974.19 1285.96 1974.32 1285.97 Q1974.45 1285.97 1974.59 1286 Q1974.72 1286.03 1974.75 1286.1 Q1974.79 1286.16 1974.79 1286.28 Q1974.79 1286.56 1974.67 1286.71 Q1974.56 1286.84 1974.44 1286.87 Q1974.34 1286.88 1974.13 1286.88 Q1973.72 1286.88 1972.84 1286.85 Q1971.97 1286.82 1971.53 1286.82 L1969.04 1286.79 L1966.49 1286.82 Q1966.1 1286.82 1965.26 1286.85 Q1964.43 1286.88 1964.03 1286.88 Q1963.52 1286.88 1963.52 1286.51 Q1963.52 1286.1 1963.71 1286.03 Q1963.91 1285.96 1964.78 1285.96 Q1965.99 1285.96 1966.65 1285.9 Q1967.31 1285.84 1967.66 1285.64 Q1968.03 1285.43 1968.13 1285.23 Q1968.23 1285.01 1968.35 1284.51 L1972.38 1268.51 Q1972.49 1268.16 1972.49 1267.88 Q1972.49 1267.73 1972.45 1267.67 Q1972.42 1267.62 1972.23 1267.57 Q1972.04 1267.51 1971.64 1267.51 L1970.47 1267.51 Q1969.27 1267.51 1968.53 1267.57 Q1967.79 1267.62 1967.09 1267.84 Q1966.4 1268.06 1965.99 1268.36 Q1965.6 1268.67 1965.16 1269.3 Q1964.72 1269.93 1964.4 1270.69 Q1964.09 1271.45 1963.65 1272.7 Q1963.5 1273.11 1963.42 1273.22 Q1963.34 1273.33 1963.14 1273.33 Q1962.99 1273.33 1962.87 1273.24 Q1962.77 1273.13 1962.77 1273 Q1962.92 1272.52 1962.95 1272.46 L1964.75 1267.18 Q1964.89 1266.75 1965.03 1266.68 Q1965.17 1266.59 1965.71 1266.59 L1982.34 1266.59 Q1982.61 1266.59 1982.7 1266.59 Q1982.78 1266.59 1982.93 1266.62 Q1983.08 1266.65 1983.12 1266.72 Q1983.16 1266.8 1983.16 1266.91 Z" fill="#000000" fill-rule="evenodd" fill-opacity="1" /><path clip-path="url(#clip140)" d="M 0 0 M1988.43 1282.33 Q1988.46 1281.96 1989.03 1281.96 L2007.4 1281.96 Q2008.26 1281.96 2008.28 1282.3 Q2008.28 1282.66 2007.46 1282.65 L1989.23 1282.65 Q1988.43 1282.66 1988.43 1282.33 M1988.43 1276.47 Q1988.43 1276.11 1989.06 1276.12 L2007.37 1276.12 Q2008.26 1276.12 2008.28 1276.47 Q2008.28 1276.81 2007.52 1276.81 L1989.03 1276.81 Q1988.43 1276.81 1988.43 1276.47 Z" fill="#000000" fill-rule="evenodd" fill-opacity="1" /><path clip-path="url(#clip140)" d="M 0 0 M2019.83 1282.84 Q2019.83 1281.95 2020.35 1281.52 Q2020.86 1281.1 2021.52 1281.1 Q2022.21 1281.1 2022.69 1281.55 Q2023.19 1281.99 2023.19 1282.77 Q2023.19 1283.6 2022.6 1284.07 Q2022.03 1284.54 2021.21 1284.42 Q2021.93 1285.62 2023.25 1286.16 Q2024.58 1286.71 2025.81 1286.71 Q2027.1 1286.71 2028.14 1285.59 Q2029.19 1284.48 2029.19 1281.76 Q2029.19 1279.44 2028.28 1278.11 Q2027.39 1276.78 2025.62 1276.78 L2024.3 1276.78 Q2023.85 1276.78 2023.71 1276.74 Q2023.58 1276.69 2023.58 1276.44 Q2023.58 1276.15 2024.04 1276.09 Q2024.49 1276.09 2025.21 1276 Q2026.95 1275.95 2027.87 1274.44 Q2028.71 1273.03 2028.71 1271.03 Q2028.71 1269.2 2027.83 1268.44 Q2026.96 1267.66 2025.84 1267.66 Q2024.78 1267.66 2023.63 1268.1 Q2022.47 1268.54 2021.84 1269.52 Q2023.7 1269.52 2023.7 1271.03 Q2023.7 1271.69 2023.27 1272.12 Q2022.87 1272.55 2022.18 1272.55 Q2021.52 1272.55 2021.08 1272.14 Q2020.64 1271.71 2020.64 1271 Q2020.64 1269.28 2022.16 1268.1 Q2023.7 1266.91 2025.95 1266.91 Q2028.18 1266.91 2029.82 1268.08 Q2031.47 1269.26 2031.47 1271.06 Q2031.47 1272.83 2030.3 1274.28 Q2029.13 1275.73 2027.27 1276.33 Q2029.56 1276.78 2030.92 1278.33 Q2032.28 1279.87 2032.28 1281.76 Q2032.28 1284.1 2030.43 1285.83 Q2028.59 1287.54 2025.9 1287.54 Q2023.41 1287.54 2021.62 1286.19 Q2019.83 1284.85 2019.83 1282.84 Z" fill="#000000" fill-rule="evenodd" fill-opacity="1" /><path clip-path="url(#clip140)" d="M 0 0 M2034.68 1277.29 Q2034.68 1272.89 2035.79 1270.49 Q2037.34 1266.91 2041 1266.91 Q2041.78 1266.91 2042.58 1267.13 Q2043.4 1267.34 2044.43 1268.14 Q2045.47 1268.95 2046.1 1270.27 Q2047.3 1272.81 2047.3 1277.29 Q2047.3 1281.67 2046.18 1284.06 Q2044.56 1287.54 2040.97 1287.54 Q2039.63 1287.54 2038.25 1286.85 Q2036.89 1286.16 2036.03 1284.51 Q2034.68 1282.04 2034.68 1277.29 M2037.17 1276.93 Q2037.17 1281.45 2037.49 1283.25 Q2037.86 1285.2 2038.85 1286.05 Q2039.86 1286.88 2040.97 1286.88 Q2042.17 1286.88 2043.17 1285.99 Q2044.18 1285.08 2044.49 1283.13 Q2044.82 1281.22 2044.81 1276.93 Q2044.81 1272.75 2044.52 1271.09 Q2044.12 1269.14 2043.07 1268.36 Q2042.03 1267.57 2040.97 1267.57 Q2040.58 1267.57 2040.15 1267.69 Q2039.74 1267.81 2039.14 1268.14 Q2038.54 1268.48 2038.07 1269.31 Q2037.62 1270.15 2037.4 1271.41 Q2037.17 1273.03 2037.17 1276.93 Z" fill="#000000" fill-rule="evenodd" fill-opacity="1" /><path clip-path="url(#clip140)" d="M 0 0 M2049.98 1286.4 Q2049.52 1285.91 2049.52 1285.29 Q2049.52 1284.66 2049.98 1284.2 Q2050.43 1283.73 2051.12 1283.73 Q2051.78 1283.73 2052.22 1284.17 Q2052.67 1284.6 2052.67 1285.3 Q2052.67 1285.99 2052.19 1286.44 Q2051.72 1286.88 2051.12 1286.88 Q2050.43 1286.88 2049.98 1286.4 Z" fill="#000000" fill-rule="evenodd" fill-opacity="1" /><path clip-path="url(#clip140)" d="M 0 0 M2057.77 1277.29 Q2057.77 1272.89 2058.88 1270.49 Q2060.43 1266.91 2064.09 1266.91 Q2064.87 1266.91 2065.68 1267.13 Q2066.5 1267.34 2067.52 1268.14 Q2068.56 1268.95 2069.19 1270.27 Q2070.39 1272.81 2070.39 1277.29 Q2070.39 1281.67 2069.28 1284.06 Q2067.65 1287.54 2064.07 1287.54 Q2062.72 1287.54 2061.34 1286.85 Q2059.98 1286.16 2059.12 1284.51 Q2057.77 1282.04 2057.77 1277.29 M2060.26 1276.93 Q2060.26 1281.45 2060.58 1283.25 Q2060.95 1285.2 2061.94 1286.05 Q2062.95 1286.88 2064.07 1286.88 Q2065.27 1286.88 2066.26 1285.99 Q2067.27 1285.08 2067.58 1283.13 Q2067.92 1281.22 2067.9 1276.93 Q2067.9 1272.75 2067.61 1271.09 Q2067.21 1269.14 2066.16 1268.36 Q2065.12 1267.57 2064.07 1267.57 Q2063.67 1267.57 2063.25 1267.69 Q2062.84 1267.81 2062.24 1268.14 Q2061.64 1268.48 2061.17 1269.31 Q2060.71 1270.15 2060.49 1271.41 Q2060.26 1273.03 2060.26 1276.93 Z" fill="#000000" fill-rule="evenodd" fill-opacity="1" /><path clip-path="url(#clip140)" d="M 0 0 M2073.04 1286.4 Q2072.61 1285.91 2072.61 1285.29 Q2072.61 1284.66 2073.02 1284.19 Q2073.45 1283.7 2074.21 1283.7 Q2075.1 1283.7 2075.62 1284.57 Q2076.13 1285.42 2076.13 1286.85 Q2076.13 1288.4 2075.5 1289.84 Q2074.87 1291.29 2074.25 1291.98 Q2073.64 1292.66 2073.39 1292.66 Q2073.1 1292.66 2073.1 1292.34 Q2073.1 1292.22 2073.3 1292 Q2075.45 1289.69 2075.47 1286.85 Q2075.47 1286.4 2075.41 1286.4 L2075.34 1286.46 Q2074.82 1286.88 2074.21 1286.88 Q2073.46 1286.88 2073.04 1286.4 Z" fill="#000000" fill-rule="evenodd" fill-opacity="1" /><path clip-path="url(#clip140)" d="M 0 0 M2100.3 1282.59 Q2099.93 1284.39 2099.19 1285.65 Q2098.26 1287.22 2096.86 1287.22 Q2095.67 1287.22 2094.88 1286.4 Q2094.09 1285.56 2094.09 1284.25 Q2094.09 1283.85 2094.25 1283.19 Q2094.31 1282.9 2094.31 1282.53 Q2094.31 1280.16 2089.17 1279.99 Q2088.75 1281.67 2088.45 1282.81 Q2088.18 1283.94 2088.09 1284.28 Q2088 1284.61 2087.93 1284.89 Q2087.87 1285.17 2087.77 1285.53 Q2087.62 1286.13 2087.52 1286.43 Q2087.42 1286.72 2087.14 1286.97 Q2086.87 1287.22 2086.45 1287.22 Q2086.08 1287.22 2085.83 1287 Q2085.59 1286.78 2085.59 1286.4 Q2085.59 1286.13 2085.7 1285.71 L2088.45 1274.72 Q2088.53 1274.41 2088.67 1274.19 Q2088.82 1273.97 2088.95 1273.87 Q2089.1 1273.76 2089.27 1273.71 Q2089.45 1273.65 2089.52 1273.65 Q2089.6 1273.63 2089.66 1273.63 Q2090.05 1273.63 2090.28 1273.85 Q2090.53 1274.06 2090.53 1274.44 Q2090.53 1274.5 2090.43 1274.91 Q2090.34 1275.3 2090.2 1275.9 Q2090.05 1276.5 2089.99 1276.78 L2089.39 1279.12 Q2090.23 1278.84 2090.97 1278.35 Q2091.73 1277.85 2093.23 1276.56 Q2093.92 1275.99 2094.33 1275.67 Q2094.75 1275.33 2095.45 1274.88 Q2096.16 1274.41 2096.83 1274.19 Q2097.5 1273.95 2098.15 1273.95 Q2098.64 1273.95 2098.94 1274.19 Q2099.23 1274.41 2099.29 1274.61 Q2099.35 1274.8 2099.35 1275.01 Q2099.35 1275.61 2098.88 1276.12 Q2098.41 1276.63 2097.72 1276.63 Q2097.11 1276.63 2096.84 1276.3 Q2096.58 1275.96 2096.58 1275.58 Q2096.58 1275.29 2096.73 1274.92 Q2095.91 1275.27 2095.2 1275.78 Q2094.5 1276.28 2093.29 1277.32 Q2091.56 1278.8 2090.53 1279.36 Q2091.12 1279.37 2091.56 1279.41 Q2092.01 1279.44 2092.77 1279.55 Q2093.53 1279.65 2094.09 1279.87 Q2094.65 1280.07 2095.19 1280.4 Q2095.75 1280.72 2096.04 1281.24 Q2096.35 1281.77 2096.35 1282.45 Q2096.35 1282.77 2096.2 1283.43 Q2095.95 1284.51 2095.95 1285.11 Q2095.95 1285.87 2096.18 1286.21 Q2096.43 1286.54 2096.92 1286.54 Q2097.84 1286.54 2098.42 1285.59 Q2099.02 1284.63 2099.52 1282.84 Q2099.6 1282.5 2099.67 1282.4 Q2099.74 1282.3 2099.95 1282.3 Q2100.3 1282.3 2100.3 1282.59 Z" fill="#000000" fill-rule="evenodd" fill-opacity="1" /><path clip-path="url(#clip140)" d="M 0 0 M2110.99 1282.33 Q2111.02 1281.96 2111.59 1281.96 L2129.97 1281.96 Q2130.83 1281.96 2130.84 1282.3 Q2130.84 1282.66 2130.02 1282.65 L2111.8 1282.65 Q2110.99 1282.66 2110.99 1282.33 M2110.99 1276.47 Q2110.99 1276.11 2111.62 1276.12 L2129.94 1276.12 Q2130.83 1276.12 2130.84 1276.47 Q2130.84 1276.81 2130.08 1276.81 L2111.59 1276.81 Q2110.99 1276.81 2110.99 1276.47 Z" fill="#000000" fill-rule="evenodd" fill-opacity="1" /><path clip-path="url(#clip140)" d="M 0 0 M2142.4 1269.77 L2142.4 1268.83 Q2146 1268.83 2147.86 1266.91 Q2148.37 1266.91 2148.46 1267.03 Q2148.55 1267.15 2148.55 1267.69 L2148.55 1284.51 Q2148.55 1285.4 2148.99 1285.68 Q2149.43 1285.96 2151.35 1285.96 L2152.3 1285.96 L2152.3 1286.88 Q2151.24 1286.79 2147.44 1286.79 Q2143.63 1286.79 2142.59 1286.88 L2142.59 1285.96 L2143.54 1285.96 Q2145.43 1285.96 2145.89 1285.7 Q2146.34 1285.42 2146.34 1284.51 L2146.34 1268.98 Q2144.77 1269.77 2142.4 1269.77 Z" fill="#000000" fill-rule="evenodd" fill-opacity="1" /><path clip-path="url(#clip140)" d="M 0 0 M2154.7 1286.4 Q2154.25 1285.91 2154.25 1285.29 Q2154.25 1284.66 2154.7 1284.2 Q2155.15 1283.73 2155.84 1283.73 Q2156.5 1283.73 2156.94 1284.17 Q2157.39 1284.6 2157.39 1285.3 Q2157.39 1285.99 2156.91 1286.44 Q2156.44 1286.88 2155.84 1286.88 Q2155.15 1286.88 2154.7 1286.4 Z" fill="#000000" fill-rule="evenodd" fill-opacity="1" /><path clip-path="url(#clip140)" d="M 0 0 M2162.49 1277.29 Q2162.49 1272.89 2163.61 1270.49 Q2165.16 1266.91 2168.82 1266.91 Q2169.59 1266.91 2170.4 1267.13 Q2171.22 1267.34 2172.24 1268.14 Q2173.28 1268.95 2173.91 1270.27 Q2175.11 1272.81 2175.11 1277.29 Q2175.11 1281.67 2174 1284.06 Q2172.38 1287.54 2168.79 1287.54 Q2167.44 1287.54 2166.07 1286.85 Q2164.7 1286.16 2163.84 1284.51 Q2162.49 1282.04 2162.49 1277.29 M2164.98 1276.93 Q2164.98 1281.45 2165.3 1283.25 Q2165.67 1285.2 2166.67 1286.05 Q2167.68 1286.88 2168.79 1286.88 Q2169.99 1286.88 2170.98 1285.99 Q2171.99 1285.08 2172.3 1283.13 Q2172.64 1281.22 2172.62 1276.93 Q2172.62 1272.75 2172.33 1271.09 Q2171.94 1269.14 2170.88 1268.36 Q2169.84 1267.57 2168.79 1267.57 Q2168.39 1267.57 2167.97 1267.69 Q2167.56 1267.81 2166.96 1268.14 Q2166.36 1268.48 2165.89 1269.31 Q2165.44 1270.15 2165.22 1271.41 Q2164.98 1273.03 2164.98 1276.93 Z" fill="#000000" fill-rule="evenodd" fill-opacity="1" /><polyline clip-path="url(#clip140)" style="stroke:#7f0080; stroke-width:2.5; stroke-opacity:1; fill:none" points="
  1801.19,1317.49 1939.69,1317.49 
  "/>
<path clip-path="url(#clip140)" d="M 0 0 M1983.16 1304.71 Q1983.16 1304.99 1983.11 1305.23 L1982.29 1310.44 Q1982.24 1310.83 1982.15 1310.98 Q1982.08 1311.13 1981.85 1311.13 Q1981.48 1311.13 1981.48 1310.74 Q1981.48 1310.52 1981.57 1310.17 Q1981.82 1308.52 1981.82 1307.77 Q1981.82 1307.28 1981.72 1306.91 Q1981.63 1306.53 1981.48 1306.26 Q1981.35 1306 1981.04 1305.83 Q1980.73 1305.65 1980.44 1305.55 Q1980.15 1305.45 1979.62 1305.4 Q1979.09 1305.34 1978.64 1305.33 Q1978.19 1305.31 1977.44 1305.31 Q1975.82 1305.31 1975.55 1305.37 Q1975.27 1305.45 1975.13 1305.66 Q1975 1305.87 1974.85 1306.48 L1970.87 1322.4 L1970.75 1323.03 Q1970.75 1323.38 1970.97 1323.5 Q1971.19 1323.61 1971.86 1323.69 Q1972.83 1323.76 1973.78 1323.76 Q1973.81 1323.76 1973.87 1323.76 Q1974.19 1323.76 1974.32 1323.77 Q1974.45 1323.77 1974.59 1323.8 Q1974.72 1323.83 1974.75 1323.9 Q1974.79 1323.96 1974.79 1324.08 Q1974.79 1324.36 1974.67 1324.51 Q1974.56 1324.64 1974.44 1324.67 Q1974.34 1324.68 1974.13 1324.68 Q1973.72 1324.68 1972.84 1324.65 Q1971.97 1324.62 1971.53 1324.62 L1969.04 1324.59 L1966.49 1324.62 Q1966.1 1324.62 1965.26 1324.65 Q1964.43 1324.68 1964.03 1324.68 Q1963.52 1324.68 1963.52 1324.31 Q1963.52 1323.9 1963.71 1323.83 Q1963.91 1323.76 1964.78 1323.76 Q1965.99 1323.76 1966.65 1323.7 Q1967.31 1323.64 1967.66 1323.44 Q1968.03 1323.23 1968.13 1323.03 Q1968.23 1322.81 1968.35 1322.31 L1972.38 1306.31 Q1972.49 1305.96 1972.49 1305.68 Q1972.49 1305.53 1972.45 1305.47 Q1972.42 1305.42 1972.23 1305.37 Q1972.04 1305.31 1971.64 1305.31 L1970.47 1305.31 Q1969.27 1305.31 1968.53 1305.37 Q1967.79 1305.42 1967.09 1305.64 Q1966.4 1305.86 1965.99 1306.16 Q1965.6 1306.47 1965.16 1307.1 Q1964.72 1307.73 1964.4 1308.49 Q1964.09 1309.25 1963.65 1310.5 Q1963.5 1310.91 1963.42 1311.02 Q1963.34 1311.13 1963.14 1311.13 Q1962.99 1311.13 1962.87 1311.04 Q1962.77 1310.93 1962.77 1310.8 Q1962.92 1310.32 1962.95 1310.26 L1964.75 1304.98 Q1964.89 1304.55 1965.03 1304.48 Q1965.17 1304.39 1965.71 1304.39 L1982.34 1304.39 Q1982.61 1304.39 1982.7 1304.39 Q1982.78 1304.39 1982.93 1304.42 Q1983.08 1304.45 1983.12 1304.52 Q1983.16 1304.6 1983.16 1304.71 Z" fill="#000000" fill-rule="evenodd" fill-opacity="1" /><path clip-path="url(#clip140)" d="M 0 0 M1988.43 1320.13 Q1988.46 1319.76 1989.03 1319.76 L2007.4 1319.76 Q2008.26 1319.76 2008.28 1320.1 Q2008.28 1320.46 2007.46 1320.45 L1989.23 1320.45 Q1988.43 1320.46 1988.43 1320.13 M1988.43 1314.27 Q1988.43 1313.91 1989.06 1313.92 L2007.37 1313.92 Q2008.26 1313.92 2008.28 1314.27 Q2008.28 1314.61 2007.52 1314.61 L1989.03 1314.61 Q1988.43 1314.61 1988.43 1314.27 Z" fill="#000000" fill-rule="evenodd" fill-opacity="1" /><path clip-path="url(#clip140)" d="M 0 0 M2019.83 1320.64 Q2019.83 1319.75 2020.35 1319.32 Q2020.86 1318.9 2021.52 1318.9 Q2022.21 1318.9 2022.69 1319.35 Q2023.19 1319.79 2023.19 1320.57 Q2023.19 1321.4 2022.6 1321.87 Q2022.03 1322.34 2021.21 1322.22 Q2021.93 1323.42 2023.25 1323.96 Q2024.58 1324.51 2025.81 1324.51 Q2027.1 1324.51 2028.14 1323.39 Q2029.19 1322.28 2029.19 1319.56 Q2029.19 1317.24 2028.28 1315.91 Q2027.39 1314.58 2025.62 1314.58 L2024.3 1314.58 Q2023.85 1314.58 2023.71 1314.54 Q2023.58 1314.49 2023.58 1314.24 Q2023.58 1313.95 2024.04 1313.89 Q2024.49 1313.89 2025.21 1313.8 Q2026.95 1313.75 2027.87 1312.24 Q2028.71 1310.83 2028.71 1308.83 Q2028.71 1307 2027.83 1306.24 Q2026.96 1305.46 2025.84 1305.46 Q2024.78 1305.46 2023.63 1305.9 Q2022.47 1306.34 2021.84 1307.32 Q2023.7 1307.32 2023.7 1308.83 Q2023.7 1309.49 2023.27 1309.92 Q2022.87 1310.35 2022.18 1310.35 Q2021.52 1310.35 2021.08 1309.94 Q2020.64 1309.51 2020.64 1308.8 Q2020.64 1307.08 2022.16 1305.9 Q2023.7 1304.71 2025.95 1304.71 Q2028.18 1304.71 2029.82 1305.88 Q2031.47 1307.06 2031.47 1308.86 Q2031.47 1310.63 2030.3 1312.08 Q2029.13 1313.53 2027.27 1314.13 Q2029.56 1314.58 2030.92 1316.13 Q2032.28 1317.67 2032.28 1319.56 Q2032.28 1321.9 2030.43 1323.63 Q2028.59 1325.34 2025.9 1325.34 Q2023.41 1325.34 2021.62 1323.99 Q2019.83 1322.65 2019.83 1320.64 Z" fill="#000000" fill-rule="evenodd" fill-opacity="1" /><path clip-path="url(#clip140)" d="M 0 0 M2034.68 1315.09 Q2034.68 1310.69 2035.79 1308.29 Q2037.34 1304.71 2041 1304.71 Q2041.78 1304.71 2042.58 1304.93 Q2043.4 1305.14 2044.43 1305.94 Q2045.47 1306.75 2046.1 1308.07 Q2047.3 1310.61 2047.3 1315.09 Q2047.3 1319.47 2046.18 1321.86 Q2044.56 1325.34 2040.97 1325.34 Q2039.63 1325.34 2038.25 1324.65 Q2036.89 1323.96 2036.03 1322.31 Q2034.68 1319.84 2034.68 1315.09 M2037.17 1314.73 Q2037.17 1319.25 2037.49 1321.05 Q2037.86 1323 2038.85 1323.85 Q2039.86 1324.68 2040.97 1324.68 Q2042.17 1324.68 2043.17 1323.79 Q2044.18 1322.88 2044.49 1320.93 Q2044.82 1319.02 2044.81 1314.73 Q2044.81 1310.55 2044.52 1308.89 Q2044.12 1306.94 2043.07 1306.16 Q2042.03 1305.37 2040.97 1305.37 Q2040.58 1305.37 2040.15 1305.49 Q2039.74 1305.61 2039.14 1305.94 Q2038.54 1306.28 2038.07 1307.11 Q2037.62 1307.95 2037.4 1309.21 Q2037.17 1310.83 2037.17 1314.73 Z" fill="#000000" fill-rule="evenodd" fill-opacity="1" /><path clip-path="url(#clip140)" d="M 0 0 M2049.98 1324.2 Q2049.52 1323.71 2049.52 1323.09 Q2049.52 1322.46 2049.98 1322 Q2050.43 1321.53 2051.12 1321.53 Q2051.78 1321.53 2052.22 1321.97 Q2052.67 1322.4 2052.67 1323.1 Q2052.67 1323.79 2052.19 1324.24 Q2051.72 1324.68 2051.12 1324.68 Q2050.43 1324.68 2049.98 1324.2 Z" fill="#000000" fill-rule="evenodd" fill-opacity="1" /><path clip-path="url(#clip140)" d="M 0 0 M2057.77 1315.09 Q2057.77 1310.69 2058.88 1308.29 Q2060.43 1304.71 2064.09 1304.71 Q2064.87 1304.71 2065.68 1304.93 Q2066.5 1305.14 2067.52 1305.94 Q2068.56 1306.75 2069.19 1308.07 Q2070.39 1310.61 2070.39 1315.09 Q2070.39 1319.47 2069.28 1321.86 Q2067.65 1325.34 2064.07 1325.34 Q2062.72 1325.34 2061.34 1324.65 Q2059.98 1323.96 2059.12 1322.31 Q2057.77 1319.84 2057.77 1315.09 M2060.26 1314.73 Q2060.26 1319.25 2060.58 1321.05 Q2060.95 1323 2061.94 1323.85 Q2062.95 1324.68 2064.07 1324.68 Q2065.27 1324.68 2066.26 1323.79 Q2067.27 1322.88 2067.58 1320.93 Q2067.92 1319.02 2067.9 1314.73 Q2067.9 1310.55 2067.61 1308.89 Q2067.21 1306.94 2066.16 1306.16 Q2065.12 1305.37 2064.07 1305.37 Q2063.67 1305.37 2063.25 1305.49 Q2062.84 1305.61 2062.24 1305.94 Q2061.64 1306.28 2061.17 1307.11 Q2060.71 1307.95 2060.49 1309.21 Q2060.26 1310.83 2060.26 1314.73 Z" fill="#000000" fill-rule="evenodd" fill-opacity="1" /><path clip-path="url(#clip140)" d="M 0 0 M2073.04 1324.2 Q2072.61 1323.71 2072.61 1323.09 Q2072.61 1322.46 2073.02 1321.99 Q2073.45 1321.5 2074.21 1321.5 Q2075.1 1321.5 2075.62 1322.37 Q2076.13 1323.22 2076.13 1324.65 Q2076.13 1326.2 2075.5 1327.64 Q2074.87 1329.09 2074.25 1329.78 Q2073.64 1330.46 2073.39 1330.46 Q2073.1 1330.46 2073.1 1330.14 Q2073.1 1330.02 2073.3 1329.8 Q2075.45 1327.49 2075.47 1324.65 Q2075.47 1324.2 2075.41 1324.2 L2075.34 1324.26 Q2074.82 1324.68 2074.21 1324.68 Q2073.46 1324.68 2073.04 1324.2 Z" fill="#000000" fill-rule="evenodd" fill-opacity="1" /><path clip-path="url(#clip140)" d="M 0 0 M2100.3 1320.39 Q2099.93 1322.19 2099.19 1323.45 Q2098.26 1325.02 2096.86 1325.02 Q2095.67 1325.02 2094.88 1324.2 Q2094.09 1323.36 2094.09 1322.05 Q2094.09 1321.65 2094.25 1320.99 Q2094.31 1320.7 2094.31 1320.33 Q2094.31 1317.96 2089.17 1317.79 Q2088.75 1319.47 2088.45 1320.61 Q2088.18 1321.74 2088.09 1322.08 Q2088 1322.41 2087.93 1322.69 Q2087.87 1322.97 2087.77 1323.33 Q2087.62 1323.93 2087.52 1324.23 Q2087.42 1324.52 2087.14 1324.77 Q2086.87 1325.02 2086.45 1325.02 Q2086.08 1325.02 2085.83 1324.8 Q2085.59 1324.58 2085.59 1324.2 Q2085.59 1323.93 2085.7 1323.51 L2088.45 1312.52 Q2088.53 1312.21 2088.67 1311.99 Q2088.82 1311.77 2088.95 1311.67 Q2089.1 1311.56 2089.27 1311.51 Q2089.45 1311.45 2089.52 1311.45 Q2089.6 1311.43 2089.66 1311.43 Q2090.05 1311.43 2090.28 1311.65 Q2090.53 1311.86 2090.53 1312.24 Q2090.53 1312.3 2090.43 1312.71 Q2090.34 1313.1 2090.2 1313.7 Q2090.05 1314.3 2089.99 1314.58 L2089.39 1316.92 Q2090.23 1316.64 2090.97 1316.15 Q2091.73 1315.65 2093.23 1314.36 Q2093.92 1313.79 2094.33 1313.47 Q2094.75 1313.13 2095.45 1312.68 Q2096.16 1312.21 2096.83 1311.99 Q2097.5 1311.75 2098.15 1311.75 Q2098.64 1311.75 2098.94 1311.99 Q2099.23 1312.21 2099.29 1312.41 Q2099.35 1312.6 2099.35 1312.81 Q2099.35 1313.41 2098.88 1313.92 Q2098.41 1314.43 2097.72 1314.43 Q2097.11 1314.43 2096.84 1314.1 Q2096.58 1313.76 2096.58 1313.38 Q2096.58 1313.09 2096.73 1312.72 Q2095.91 1313.07 2095.2 1313.58 Q2094.5 1314.08 2093.29 1315.12 Q2091.56 1316.6 2090.53 1317.16 Q2091.12 1317.17 2091.56 1317.21 Q2092.01 1317.24 2092.77 1317.35 Q2093.53 1317.45 2094.09 1317.67 Q2094.65 1317.87 2095.19 1318.2 Q2095.75 1318.52 2096.04 1319.04 Q2096.35 1319.57 2096.35 1320.25 Q2096.35 1320.57 2096.2 1321.23 Q2095.95 1322.31 2095.95 1322.91 Q2095.95 1323.67 2096.18 1324.01 Q2096.43 1324.34 2096.92 1324.34 Q2097.84 1324.34 2098.42 1323.39 Q2099.02 1322.43 2099.52 1320.64 Q2099.6 1320.3 2099.67 1320.2 Q2099.74 1320.1 2099.95 1320.1 Q2100.3 1320.1 2100.3 1320.39 Z" fill="#000000" fill-rule="evenodd" fill-opacity="1" /><path clip-path="url(#clip140)" d="M 0 0 M2110.99 1320.13 Q2111.02 1319.76 2111.59 1319.76 L2129.97 1319.76 Q2130.83 1319.76 2130.84 1320.1 Q2130.84 1320.46 2130.02 1320.45 L2111.8 1320.45 Q2110.99 1320.46 2110.99 1320.13 M2110.99 1314.27 Q2110.99 1313.91 2111.62 1313.92 L2129.94 1313.92 Q2130.83 1313.92 2130.84 1314.27 Q2130.84 1314.61 2130.08 1314.61 L2111.59 1314.61 Q2110.99 1314.61 2110.99 1314.27 Z" fill="#000000" fill-rule="evenodd" fill-opacity="1" /><path clip-path="url(#clip140)" d="M 0 0 M2142.4 1307.57 L2142.4 1306.63 Q2146 1306.63 2147.86 1304.71 Q2148.37 1304.71 2148.46 1304.83 Q2148.55 1304.95 2148.55 1305.49 L2148.55 1322.31 Q2148.55 1323.2 2148.99 1323.48 Q2149.43 1323.76 2151.35 1323.76 L2152.3 1323.76 L2152.3 1324.68 Q2151.24 1324.59 2147.44 1324.59 Q2143.63 1324.59 2142.59 1324.68 L2142.59 1323.76 L2143.54 1323.76 Q2145.43 1323.76 2145.89 1323.5 Q2146.34 1323.22 2146.34 1322.31 L2146.34 1306.78 Q2144.77 1307.57 2142.4 1307.57 Z" fill="#000000" fill-rule="evenodd" fill-opacity="1" /><path clip-path="url(#clip140)" d="M 0 0 M2154.87 1315.09 Q2154.87 1310.69 2155.98 1308.29 Q2157.53 1304.71 2161.19 1304.71 Q2161.97 1304.71 2162.78 1304.93 Q2163.6 1305.14 2164.62 1305.94 Q2165.66 1306.75 2166.29 1308.07 Q2167.49 1310.61 2167.49 1315.09 Q2167.49 1319.47 2166.38 1321.86 Q2164.75 1325.34 2161.17 1325.34 Q2159.82 1325.34 2158.44 1324.65 Q2157.08 1323.96 2156.22 1322.31 Q2154.87 1319.84 2154.87 1315.09 M2157.36 1314.73 Q2157.36 1319.25 2157.68 1321.05 Q2158.05 1323 2159.04 1323.85 Q2160.05 1324.68 2161.17 1324.68 Q2162.37 1324.68 2163.36 1323.79 Q2164.37 1322.88 2164.68 1320.93 Q2165.02 1319.02 2165 1314.73 Q2165 1310.55 2164.71 1308.89 Q2164.31 1306.94 2163.26 1306.16 Q2162.22 1305.37 2161.17 1305.37 Q2160.77 1305.37 2160.35 1305.49 Q2159.94 1305.61 2159.34 1305.94 Q2158.74 1306.28 2158.27 1307.11 Q2157.81 1307.95 2157.59 1309.21 Q2157.36 1310.83 2157.36 1314.73 Z" fill="#000000" fill-rule="evenodd" fill-opacity="1" /><path clip-path="url(#clip140)" d="M 0 0 M2169.71 1315.09 Q2169.71 1310.69 2170.83 1308.29 Q2172.38 1304.71 2176.04 1304.71 Q2176.81 1304.71 2177.62 1304.93 Q2178.44 1305.14 2179.46 1305.94 Q2180.5 1306.75 2181.13 1308.07 Q2182.33 1310.61 2182.33 1315.09 Q2182.33 1319.47 2181.22 1321.86 Q2179.6 1325.34 2176.01 1325.34 Q2174.66 1325.34 2173.29 1324.65 Q2171.92 1323.96 2171.06 1322.31 Q2169.71 1319.84 2169.71 1315.09 M2172.2 1314.73 Q2172.2 1319.25 2172.53 1321.05 Q2172.89 1323 2173.89 1323.85 Q2174.9 1324.68 2176.01 1324.68 Q2177.21 1324.68 2178.2 1323.79 Q2179.22 1322.88 2179.52 1320.93 Q2179.86 1319.02 2179.84 1314.73 Q2179.84 1310.55 2179.55 1308.89 Q2179.16 1306.94 2178.1 1306.16 Q2177.06 1305.37 2176.01 1305.37 Q2175.61 1305.37 2175.19 1305.49 Q2174.78 1305.61 2174.18 1305.94 Q2173.58 1306.28 2173.11 1307.11 Q2172.66 1307.95 2172.44 1309.21 Q2172.2 1310.83 2172.2 1314.73 Z" fill="#000000" fill-rule="evenodd" fill-opacity="1" /><path clip-path="url(#clip140)" d="M 0 0 M2185.01 1324.2 Q2184.56 1323.71 2184.56 1323.09 Q2184.56 1322.46 2185.01 1322 Q2185.47 1321.53 2186.15 1321.53 Q2186.81 1321.53 2187.25 1321.97 Q2187.71 1322.4 2187.71 1323.1 Q2187.71 1323.79 2187.22 1324.24 Q2186.75 1324.68 2186.15 1324.68 Q2185.47 1324.68 2185.01 1324.2 Z" fill="#000000" fill-rule="evenodd" fill-opacity="1" /><path clip-path="url(#clip140)" d="M 0 0 M2192.81 1315.09 Q2192.81 1310.69 2193.92 1308.29 Q2195.47 1304.71 2199.13 1304.71 Q2199.91 1304.71 2200.71 1304.93 Q2201.53 1305.14 2202.56 1305.94 Q2203.6 1306.75 2204.22 1308.07 Q2205.43 1310.61 2205.43 1315.09 Q2205.43 1319.47 2204.31 1321.86 Q2202.69 1325.34 2199.1 1325.34 Q2197.75 1325.34 2196.38 1324.65 Q2195.02 1323.96 2194.15 1322.31 Q2192.81 1319.84 2192.81 1315.09 M2195.29 1314.73 Q2195.29 1319.25 2195.62 1321.05 Q2195.98 1323 2196.98 1323.85 Q2197.99 1324.68 2199.1 1324.68 Q2200.3 1324.68 2201.3 1323.79 Q2202.31 1322.88 2202.61 1320.93 Q2202.95 1319.02 2202.94 1314.73 Q2202.94 1310.55 2202.64 1308.89 Q2202.25 1306.94 2201.19 1306.16 Q2200.16 1305.37 2199.1 1305.37 Q2198.71 1305.37 2198.28 1305.49 Q2197.87 1305.61 2197.27 1305.94 Q2196.67 1306.28 2196.2 1307.11 Q2195.75 1307.95 2195.53 1309.21 Q2195.29 1310.83 2195.29 1314.73 Z" fill="#000000" fill-rule="evenodd" fill-opacity="1" /><polyline clip-path="url(#clip140)" style="stroke:#ff0000; stroke-width:2.5; stroke-opacity:1; fill:none" points="
  1801.19,1355.29 1939.69,1355.29 
  "/>
<path clip-path="url(#clip140)" d="M 0 0 M1983.16 1342.51 Q1983.16 1342.79 1983.11 1343.03 L1982.29 1348.24 Q1982.24 1348.63 1982.15 1348.78 Q1982.08 1348.93 1981.85 1348.93 Q1981.48 1348.93 1981.48 1348.54 Q1981.48 1348.32 1981.57 1347.97 Q1981.82 1346.32 1981.82 1345.57 Q1981.82 1345.08 1981.72 1344.71 Q1981.63 1344.33 1981.48 1344.06 Q1981.35 1343.8 1981.04 1343.63 Q1980.73 1343.45 1980.44 1343.35 Q1980.15 1343.25 1979.62 1343.2 Q1979.09 1343.14 1978.64 1343.13 Q1978.19 1343.11 1977.44 1343.11 Q1975.82 1343.11 1975.55 1343.17 Q1975.27 1343.25 1975.13 1343.46 Q1975 1343.67 1974.85 1344.28 L1970.87 1360.2 L1970.75 1360.83 Q1970.75 1361.18 1970.97 1361.3 Q1971.19 1361.41 1971.86 1361.49 Q1972.83 1361.56 1973.78 1361.56 Q1973.81 1361.56 1973.87 1361.56 Q1974.19 1361.56 1974.32 1361.57 Q1974.45 1361.57 1974.59 1361.6 Q1974.72 1361.63 1974.75 1361.7 Q1974.79 1361.76 1974.79 1361.88 Q1974.79 1362.16 1974.67 1362.31 Q1974.56 1362.44 1974.44 1362.47 Q1974.34 1362.48 1974.13 1362.48 Q1973.72 1362.48 1972.84 1362.45 Q1971.97 1362.42 1971.53 1362.42 L1969.04 1362.39 L1966.49 1362.42 Q1966.1 1362.42 1965.26 1362.45 Q1964.43 1362.48 1964.03 1362.48 Q1963.52 1362.48 1963.52 1362.11 Q1963.52 1361.7 1963.71 1361.63 Q1963.91 1361.56 1964.78 1361.56 Q1965.99 1361.56 1966.65 1361.5 Q1967.31 1361.44 1967.66 1361.24 Q1968.03 1361.03 1968.13 1360.83 Q1968.23 1360.61 1968.35 1360.11 L1972.38 1344.11 Q1972.49 1343.76 1972.49 1343.48 Q1972.49 1343.33 1972.45 1343.27 Q1972.42 1343.22 1972.23 1343.17 Q1972.04 1343.11 1971.64 1343.11 L1970.47 1343.11 Q1969.27 1343.11 1968.53 1343.17 Q1967.79 1343.22 1967.09 1343.44 Q1966.4 1343.66 1965.99 1343.96 Q1965.6 1344.27 1965.16 1344.9 Q1964.72 1345.53 1964.4 1346.29 Q1964.09 1347.05 1963.65 1348.3 Q1963.5 1348.71 1963.42 1348.82 Q1963.34 1348.93 1963.14 1348.93 Q1962.99 1348.93 1962.87 1348.84 Q1962.77 1348.73 1962.77 1348.6 Q1962.92 1348.12 1962.95 1348.06 L1964.75 1342.78 Q1964.89 1342.35 1965.03 1342.28 Q1965.17 1342.19 1965.71 1342.19 L1982.34 1342.19 Q1982.61 1342.19 1982.7 1342.19 Q1982.78 1342.19 1982.93 1342.22 Q1983.08 1342.25 1983.12 1342.32 Q1983.16 1342.4 1983.16 1342.51 Z" fill="#000000" fill-rule="evenodd" fill-opacity="1" /><path clip-path="url(#clip140)" d="M 0 0 M1988.43 1357.93 Q1988.46 1357.56 1989.03 1357.56 L2007.4 1357.56 Q2008.26 1357.56 2008.28 1357.9 Q2008.28 1358.26 2007.46 1358.25 L1989.23 1358.25 Q1988.43 1358.26 1988.43 1357.93 M1988.43 1352.07 Q1988.43 1351.71 1989.06 1351.72 L2007.37 1351.72 Q2008.26 1351.72 2008.28 1352.07 Q2008.28 1352.41 2007.52 1352.41 L1989.03 1352.41 Q1988.43 1352.41 1988.43 1352.07 Z" fill="#000000" fill-rule="evenodd" fill-opacity="1" /><path clip-path="url(#clip140)" d="M 0 0 M2019.83 1358.44 Q2019.83 1357.55 2020.35 1357.12 Q2020.86 1356.7 2021.52 1356.7 Q2022.21 1356.7 2022.69 1357.15 Q2023.19 1357.59 2023.19 1358.37 Q2023.19 1359.2 2022.6 1359.67 Q2022.03 1360.14 2021.21 1360.02 Q2021.93 1361.22 2023.25 1361.76 Q2024.58 1362.31 2025.81 1362.31 Q2027.1 1362.31 2028.14 1361.19 Q2029.19 1360.08 2029.19 1357.36 Q2029.19 1355.04 2028.28 1353.71 Q2027.39 1352.38 2025.62 1352.38 L2024.3 1352.38 Q2023.85 1352.38 2023.71 1352.34 Q2023.58 1352.29 2023.58 1352.04 Q2023.58 1351.75 2024.04 1351.69 Q2024.49 1351.69 2025.21 1351.6 Q2026.95 1351.55 2027.87 1350.04 Q2028.71 1348.63 2028.71 1346.63 Q2028.71 1344.8 2027.83 1344.04 Q2026.96 1343.26 2025.84 1343.26 Q2024.78 1343.26 2023.63 1343.7 Q2022.47 1344.14 2021.84 1345.12 Q2023.7 1345.12 2023.7 1346.63 Q2023.7 1347.29 2023.27 1347.72 Q2022.87 1348.15 2022.18 1348.15 Q2021.52 1348.15 2021.08 1347.74 Q2020.64 1347.31 2020.64 1346.6 Q2020.64 1344.88 2022.16 1343.7 Q2023.7 1342.51 2025.95 1342.51 Q2028.18 1342.51 2029.82 1343.68 Q2031.47 1344.86 2031.47 1346.66 Q2031.47 1348.43 2030.3 1349.88 Q2029.13 1351.33 2027.27 1351.93 Q2029.56 1352.38 2030.92 1353.93 Q2032.28 1355.47 2032.28 1357.36 Q2032.28 1359.7 2030.43 1361.43 Q2028.59 1363.14 2025.9 1363.14 Q2023.41 1363.14 2021.62 1361.79 Q2019.83 1360.45 2019.83 1358.44 Z" fill="#000000" fill-rule="evenodd" fill-opacity="1" /><path clip-path="url(#clip140)" d="M 0 0 M2034.68 1352.89 Q2034.68 1348.49 2035.79 1346.09 Q2037.34 1342.51 2041 1342.51 Q2041.78 1342.51 2042.58 1342.73 Q2043.4 1342.94 2044.43 1343.74 Q2045.47 1344.55 2046.1 1345.87 Q2047.3 1348.41 2047.3 1352.89 Q2047.3 1357.27 2046.18 1359.66 Q2044.56 1363.14 2040.97 1363.14 Q2039.63 1363.14 2038.25 1362.45 Q2036.89 1361.76 2036.03 1360.11 Q2034.68 1357.64 2034.68 1352.89 M2037.17 1352.53 Q2037.17 1357.05 2037.49 1358.85 Q2037.86 1360.8 2038.85 1361.65 Q2039.86 1362.48 2040.97 1362.48 Q2042.17 1362.48 2043.17 1361.59 Q2044.18 1360.68 2044.49 1358.73 Q2044.82 1356.82 2044.81 1352.53 Q2044.81 1348.35 2044.52 1346.69 Q2044.12 1344.74 2043.07 1343.96 Q2042.03 1343.17 2040.97 1343.17 Q2040.58 1343.17 2040.15 1343.29 Q2039.74 1343.41 2039.14 1343.74 Q2038.54 1344.08 2038.07 1344.91 Q2037.62 1345.75 2037.4 1347.01 Q2037.17 1348.63 2037.17 1352.53 Z" fill="#000000" fill-rule="evenodd" fill-opacity="1" /><path clip-path="url(#clip140)" d="M 0 0 M2049.98 1362 Q2049.52 1361.51 2049.52 1360.89 Q2049.52 1360.26 2049.98 1359.8 Q2050.43 1359.33 2051.12 1359.33 Q2051.78 1359.33 2052.22 1359.77 Q2052.67 1360.2 2052.67 1360.9 Q2052.67 1361.59 2052.19 1362.04 Q2051.72 1362.48 2051.12 1362.48 Q2050.43 1362.48 2049.98 1362 Z" fill="#000000" fill-rule="evenodd" fill-opacity="1" /><path clip-path="url(#clip140)" d="M 0 0 M2057.77 1352.89 Q2057.77 1348.49 2058.88 1346.09 Q2060.43 1342.51 2064.09 1342.51 Q2064.87 1342.51 2065.68 1342.73 Q2066.5 1342.94 2067.52 1343.74 Q2068.56 1344.55 2069.19 1345.87 Q2070.39 1348.41 2070.39 1352.89 Q2070.39 1357.27 2069.28 1359.66 Q2067.65 1363.14 2064.07 1363.14 Q2062.72 1363.14 2061.34 1362.45 Q2059.98 1361.76 2059.12 1360.11 Q2057.77 1357.64 2057.77 1352.89 M2060.26 1352.53 Q2060.26 1357.05 2060.58 1358.85 Q2060.95 1360.8 2061.94 1361.65 Q2062.95 1362.48 2064.07 1362.48 Q2065.27 1362.48 2066.26 1361.59 Q2067.27 1360.68 2067.58 1358.73 Q2067.92 1356.82 2067.9 1352.53 Q2067.9 1348.35 2067.61 1346.69 Q2067.21 1344.74 2066.16 1343.96 Q2065.12 1343.17 2064.07 1343.17 Q2063.67 1343.17 2063.25 1343.29 Q2062.84 1343.41 2062.24 1343.74 Q2061.64 1344.08 2061.17 1344.91 Q2060.71 1345.75 2060.49 1347.01 Q2060.26 1348.63 2060.26 1352.53 Z" fill="#000000" fill-rule="evenodd" fill-opacity="1" /><path clip-path="url(#clip140)" d="M 0 0 M2073.04 1362 Q2072.61 1361.51 2072.61 1360.89 Q2072.61 1360.26 2073.02 1359.79 Q2073.45 1359.3 2074.21 1359.3 Q2075.1 1359.3 2075.62 1360.17 Q2076.13 1361.02 2076.13 1362.45 Q2076.13 1364 2075.5 1365.44 Q2074.87 1366.89 2074.25 1367.58 Q2073.64 1368.26 2073.39 1368.26 Q2073.1 1368.26 2073.1 1367.94 Q2073.1 1367.82 2073.3 1367.6 Q2075.45 1365.29 2075.47 1362.45 Q2075.47 1362 2075.41 1362 L2075.34 1362.06 Q2074.82 1362.48 2074.21 1362.48 Q2073.46 1362.48 2073.04 1362 Z" fill="#000000" fill-rule="evenodd" fill-opacity="1" /><path clip-path="url(#clip140)" d="M 0 0 M2100.3 1358.19 Q2099.93 1359.99 2099.19 1361.25 Q2098.26 1362.82 2096.86 1362.82 Q2095.67 1362.82 2094.88 1362 Q2094.09 1361.16 2094.09 1359.85 Q2094.09 1359.45 2094.25 1358.79 Q2094.31 1358.5 2094.31 1358.13 Q2094.31 1355.76 2089.17 1355.59 Q2088.75 1357.27 2088.45 1358.41 Q2088.18 1359.54 2088.09 1359.88 Q2088 1360.21 2087.93 1360.49 Q2087.87 1360.77 2087.77 1361.13 Q2087.62 1361.73 2087.52 1362.03 Q2087.42 1362.32 2087.14 1362.57 Q2086.87 1362.82 2086.45 1362.82 Q2086.08 1362.82 2085.83 1362.6 Q2085.59 1362.38 2085.59 1362 Q2085.59 1361.73 2085.7 1361.31 L2088.45 1350.32 Q2088.53 1350.01 2088.67 1349.79 Q2088.82 1349.57 2088.95 1349.47 Q2089.1 1349.36 2089.27 1349.31 Q2089.45 1349.25 2089.52 1349.25 Q2089.6 1349.23 2089.66 1349.23 Q2090.05 1349.23 2090.28 1349.45 Q2090.53 1349.66 2090.53 1350.04 Q2090.53 1350.1 2090.43 1350.51 Q2090.34 1350.9 2090.2 1351.5 Q2090.05 1352.1 2089.99 1352.38 L2089.39 1354.72 Q2090.23 1354.44 2090.97 1353.95 Q2091.73 1353.45 2093.23 1352.16 Q2093.92 1351.59 2094.33 1351.27 Q2094.75 1350.93 2095.45 1350.48 Q2096.16 1350.01 2096.83 1349.79 Q2097.5 1349.55 2098.15 1349.55 Q2098.64 1349.55 2098.94 1349.79 Q2099.23 1350.01 2099.29 1350.21 Q2099.35 1350.4 2099.35 1350.61 Q2099.35 1351.21 2098.88 1351.72 Q2098.41 1352.23 2097.72 1352.23 Q2097.11 1352.23 2096.84 1351.9 Q2096.58 1351.56 2096.58 1351.18 Q2096.58 1350.89 2096.73 1350.52 Q2095.91 1350.87 2095.2 1351.38 Q2094.5 1351.88 2093.29 1352.92 Q2091.56 1354.4 2090.53 1354.96 Q2091.12 1354.97 2091.56 1355.01 Q2092.01 1355.04 2092.77 1355.15 Q2093.53 1355.25 2094.09 1355.47 Q2094.65 1355.67 2095.19 1356 Q2095.75 1356.32 2096.04 1356.84 Q2096.35 1357.37 2096.35 1358.05 Q2096.35 1358.37 2096.2 1359.03 Q2095.95 1360.11 2095.95 1360.71 Q2095.95 1361.47 2096.18 1361.81 Q2096.43 1362.14 2096.92 1362.14 Q2097.84 1362.14 2098.42 1361.19 Q2099.02 1360.23 2099.52 1358.44 Q2099.6 1358.1 2099.67 1358 Q2099.74 1357.9 2099.95 1357.9 Q2100.3 1357.9 2100.3 1358.19 Z" fill="#000000" fill-rule="evenodd" fill-opacity="1" /><path clip-path="url(#clip140)" d="M 0 0 M2110.99 1357.93 Q2111.02 1357.56 2111.59 1357.56 L2129.97 1357.56 Q2130.83 1357.56 2130.84 1357.9 Q2130.84 1358.26 2130.02 1358.25 L2111.8 1358.25 Q2110.99 1358.26 2110.99 1357.93 M2110.99 1352.07 Q2110.99 1351.71 2111.62 1351.72 L2129.94 1351.72 Q2130.83 1351.72 2130.84 1352.07 Q2130.84 1352.41 2130.08 1352.41 L2111.59 1352.41 Q2110.99 1352.41 2110.99 1352.07 Z" fill="#000000" fill-rule="evenodd" fill-opacity="1" /><path clip-path="url(#clip140)" d="M 0 0 M2142.4 1345.37 L2142.4 1344.43 Q2146 1344.43 2147.86 1342.51 Q2148.37 1342.51 2148.46 1342.63 Q2148.55 1342.75 2148.55 1343.29 L2148.55 1360.11 Q2148.55 1361 2148.99 1361.28 Q2149.43 1361.56 2151.35 1361.56 L2152.3 1361.56 L2152.3 1362.48 Q2151.24 1362.39 2147.44 1362.39 Q2143.63 1362.39 2142.59 1362.48 L2142.59 1361.56 L2143.54 1361.56 Q2145.43 1361.56 2145.89 1361.3 Q2146.34 1361.02 2146.34 1360.11 L2146.34 1344.58 Q2144.77 1345.37 2142.4 1345.37 Z" fill="#000000" fill-rule="evenodd" fill-opacity="1" /><path clip-path="url(#clip140)" d="M 0 0 M2154.87 1352.89 Q2154.87 1348.49 2155.98 1346.09 Q2157.53 1342.51 2161.19 1342.51 Q2161.97 1342.51 2162.78 1342.73 Q2163.6 1342.94 2164.62 1343.74 Q2165.66 1344.55 2166.29 1345.87 Q2167.49 1348.41 2167.49 1352.89 Q2167.49 1357.27 2166.38 1359.66 Q2164.75 1363.14 2161.17 1363.14 Q2159.82 1363.14 2158.44 1362.45 Q2157.08 1361.76 2156.22 1360.11 Q2154.87 1357.64 2154.87 1352.89 M2157.36 1352.53 Q2157.36 1357.05 2157.68 1358.85 Q2158.05 1360.8 2159.04 1361.65 Q2160.05 1362.48 2161.17 1362.48 Q2162.37 1362.48 2163.36 1361.59 Q2164.37 1360.68 2164.68 1358.73 Q2165.02 1356.82 2165 1352.53 Q2165 1348.35 2164.71 1346.69 Q2164.31 1344.74 2163.26 1343.96 Q2162.22 1343.17 2161.17 1343.17 Q2160.77 1343.17 2160.35 1343.29 Q2159.94 1343.41 2159.34 1343.74 Q2158.74 1344.08 2158.27 1344.91 Q2157.81 1345.75 2157.59 1347.01 Q2157.36 1348.63 2157.36 1352.53 Z" fill="#000000" fill-rule="evenodd" fill-opacity="1" /><path clip-path="url(#clip140)" d="M 0 0 M2169.71 1352.89 Q2169.71 1348.49 2170.83 1346.09 Q2172.38 1342.51 2176.04 1342.51 Q2176.81 1342.51 2177.62 1342.73 Q2178.44 1342.94 2179.46 1343.74 Q2180.5 1344.55 2181.13 1345.87 Q2182.33 1348.41 2182.33 1352.89 Q2182.33 1357.27 2181.22 1359.66 Q2179.6 1363.14 2176.01 1363.14 Q2174.66 1363.14 2173.29 1362.45 Q2171.92 1361.76 2171.06 1360.11 Q2169.71 1357.64 2169.71 1352.89 M2172.2 1352.53 Q2172.2 1357.05 2172.53 1358.85 Q2172.89 1360.8 2173.89 1361.65 Q2174.9 1362.48 2176.01 1362.48 Q2177.21 1362.48 2178.2 1361.59 Q2179.22 1360.68 2179.52 1358.73 Q2179.86 1356.82 2179.84 1352.53 Q2179.84 1348.35 2179.55 1346.69 Q2179.16 1344.74 2178.1 1343.96 Q2177.06 1343.17 2176.01 1343.17 Q2175.61 1343.17 2175.19 1343.29 Q2174.78 1343.41 2174.18 1343.74 Q2173.58 1344.08 2173.11 1344.91 Q2172.66 1345.75 2172.44 1347.01 Q2172.2 1348.63 2172.2 1352.53 Z" fill="#000000" fill-rule="evenodd" fill-opacity="1" /><path clip-path="url(#clip140)" d="M 0 0 M2184.56 1352.89 Q2184.56 1348.49 2185.67 1346.09 Q2187.22 1342.51 2190.88 1342.51 Q2191.66 1342.51 2192.46 1342.73 Q2193.28 1342.94 2194.31 1343.74 Q2195.35 1344.55 2195.98 1345.87 Q2197.18 1348.41 2197.18 1352.89 Q2197.18 1357.27 2196.06 1359.66 Q2194.44 1363.14 2190.85 1363.14 Q2189.51 1363.14 2188.13 1362.45 Q2186.77 1361.76 2185.9 1360.11 Q2184.56 1357.64 2184.56 1352.89 M2187.05 1352.53 Q2187.05 1357.05 2187.37 1358.85 Q2187.73 1360.8 2188.73 1361.65 Q2189.74 1362.48 2190.85 1362.48 Q2192.05 1362.48 2193.05 1361.59 Q2194.06 1360.68 2194.37 1358.73 Q2194.7 1356.82 2194.69 1352.53 Q2194.69 1348.35 2194.4 1346.69 Q2194 1344.74 2192.95 1343.96 Q2191.91 1343.17 2190.85 1343.17 Q2190.46 1343.17 2190.03 1343.29 Q2189.62 1343.41 2189.02 1343.74 Q2188.42 1344.08 2187.95 1344.91 Q2187.5 1345.75 2187.28 1347.01 Q2187.05 1348.63 2187.05 1352.53 Z" fill="#000000" fill-rule="evenodd" fill-opacity="1" /><path clip-path="url(#clip140)" d="M 0 0 M2199.4 1352.89 Q2199.4 1348.49 2200.51 1346.09 Q2202.07 1342.51 2205.73 1342.51 Q2206.5 1342.51 2207.31 1342.73 Q2208.13 1342.94 2209.15 1343.74 Q2210.19 1344.55 2210.82 1345.87 Q2212.02 1348.41 2212.02 1352.89 Q2212.02 1357.27 2210.91 1359.66 Q2209.28 1363.14 2205.7 1363.14 Q2204.35 1363.14 2202.97 1362.45 Q2201.61 1361.76 2200.75 1360.11 Q2199.4 1357.64 2199.4 1352.89 M2201.89 1352.53 Q2201.89 1357.05 2202.21 1358.85 Q2202.58 1360.8 2203.57 1361.65 Q2204.58 1362.48 2205.7 1362.48 Q2206.9 1362.48 2207.89 1361.59 Q2208.9 1360.68 2209.21 1358.73 Q2209.55 1356.82 2209.53 1352.53 Q2209.53 1348.35 2209.24 1346.69 Q2208.84 1344.74 2207.79 1343.96 Q2206.75 1343.17 2205.7 1343.17 Q2205.3 1343.17 2204.88 1343.29 Q2204.47 1343.41 2203.87 1343.74 Q2203.27 1344.08 2202.8 1344.91 Q2202.34 1345.75 2202.12 1347.01 Q2201.89 1348.63 2201.89 1352.53 Z" fill="#000000" fill-rule="evenodd" fill-opacity="1" /><path clip-path="url(#clip140)" d="M 0 0 M2214.7 1362 Q2214.25 1361.51 2214.25 1360.89 Q2214.25 1360.26 2214.7 1359.8 Q2215.15 1359.33 2215.84 1359.33 Q2216.5 1359.33 2216.94 1359.77 Q2217.39 1360.2 2217.39 1360.9 Q2217.39 1361.59 2216.91 1362.04 Q2216.44 1362.48 2215.84 1362.48 Q2215.15 1362.48 2214.7 1362 Z" fill="#000000" fill-rule="evenodd" fill-opacity="1" /><path clip-path="url(#clip140)" d="M 0 0 M2222.49 1352.89 Q2222.49 1348.49 2223.61 1346.09 Q2225.16 1342.51 2228.82 1342.51 Q2229.59 1342.51 2230.4 1342.73 Q2231.22 1342.94 2232.24 1343.74 Q2233.28 1344.55 2233.91 1345.87 Q2235.11 1348.41 2235.11 1352.89 Q2235.11 1357.27 2234 1359.66 Q2232.38 1363.14 2228.79 1363.14 Q2227.44 1363.14 2226.07 1362.45 Q2224.7 1361.76 2223.84 1360.11 Q2222.49 1357.64 2222.49 1352.89 M2224.98 1352.53 Q2224.98 1357.05 2225.3 1358.85 Q2225.67 1360.8 2226.67 1361.65 Q2227.68 1362.48 2228.79 1362.48 Q2229.99 1362.48 2230.98 1361.59 Q2231.99 1360.68 2232.3 1358.73 Q2232.64 1356.82 2232.62 1352.53 Q2232.62 1348.35 2232.33 1346.69 Q2231.94 1344.74 2230.88 1343.96 Q2229.84 1343.17 2228.79 1343.17 Q2228.39 1343.17 2227.97 1343.29 Q2227.56 1343.41 2226.96 1343.74 Q2226.36 1344.08 2225.89 1344.91 Q2225.44 1345.75 2225.22 1347.01 Q2224.98 1348.63 2224.98 1352.53 Z" fill="#000000" fill-rule="evenodd" fill-opacity="1" /></svg>
