<?xml version="1.0" encoding="utf-8"?>
<svg xmlns="http://www.w3.org/2000/svg" xmlns:xlink="http://www.w3.org/1999/xlink" width="600" height="400" viewBox="0 0 2400 1600">
<defs>
  <clipPath id="clip070">
    <rect x="0" y="0" width="2400" height="1600"/>
  </clipPath>
</defs>
<path clip-path="url(#clip070)" d="
M0 1600 L2400 1600 L2400 0 L0 0  Z
  " fill="#ffffff" fill-rule="evenodd" fill-opacity="1"/>
<defs>
  <clipPath id="clip071">
    <rect x="480" y="0" width="1681" height="1600"/>
  </clipPath>
</defs>
<defs>
  <clipPath id="clip072">
    <rect x="229" y="47" width="2124" height="1397"/>
  </clipPath>
</defs>
<path clip-path="url(#clip070)" d="
M194.615 1442.95 L2352.76 1442.95 L2352.76 47.2441 L194.615 47.2441  Z
  " fill="#ffffff" fill-rule="evenodd" fill-opacity="1"/>
<defs>
  <clipPath id="clip073">
    <rect x="194" y="47" width="2159" height="1397"/>
  </clipPath>
</defs>
<polyline clip-path="url(#clip073)" style="stroke:#000000; stroke-width:2; stroke-opacity:0.1; fill:none" points="
  255.694,1442.95 255.694,47.2441 
  "/>
<polyline clip-path="url(#clip073)" style="stroke:#000000; stroke-width:2; stroke-opacity:0.1; fill:none" points="
  934.355,1442.95 934.355,47.2441 
  "/>
<polyline clip-path="url(#clip073)" style="stroke:#000000; stroke-width:2; stroke-opacity:0.1; fill:none" points="
  1613.02,1442.95 1613.02,47.2441 
  "/>
<polyline clip-path="url(#clip073)" style="stroke:#000000; stroke-width:2; stroke-opacity:0.1; fill:none" points="
  2291.68,1442.95 2291.68,47.2441 
  "/>
<polyline clip-path="url(#clip070)" style="stroke:#000000; stroke-width:4; stroke-opacity:1; fill:none" points="
  194.615,1442.95 2352.76,1442.95 
  "/>
<polyline clip-path="url(#clip070)" style="stroke:#000000; stroke-width:4; stroke-opacity:1; fill:none" points="
  255.694,1442.95 255.694,1426.2 
  "/>
<polyline clip-path="url(#clip070)" style="stroke:#000000; stroke-width:4; stroke-opacity:1; fill:none" points="
  934.355,1442.95 934.355,1426.2 
  "/>
<polyline clip-path="url(#clip070)" style="stroke:#000000; stroke-width:4; stroke-opacity:1; fill:none" points="
  1613.02,1442.95 1613.02,1426.2 
  "/>
<polyline clip-path="url(#clip070)" style="stroke:#000000; stroke-width:4; stroke-opacity:1; fill:none" points="
  2291.68,1442.95 2291.68,1426.2 
  "/>
<path clip-path="url(#clip070)" d="M 0 0 M255.694 1472.14 Q252.083 1472.14 250.254 1475.71 Q248.449 1479.25 248.449 1486.38 Q248.449 1493.48 250.254 1497.05 Q252.083 1500.59 255.694 1500.59 Q259.328 1500.59 261.134 1497.05 Q262.963 1493.48 262.963 1486.38 Q262.963 1479.25 261.134 1475.71 Q259.328 1472.14 255.694 1472.14 M255.694 1468.44 Q261.504 1468.44 264.56 1473.04 Q267.639 1477.63 267.639 1486.38 Q267.639 1495.1 264.56 1499.71 Q261.504 1504.29 255.694 1504.29 Q249.884 1504.29 246.805 1499.71 Q243.75 1495.1 243.75 1486.38 Q243.75 1477.63 246.805 1473.04 Q249.884 1468.44 255.694 1468.44 Z" fill="#000000" fill-rule="evenodd" fill-opacity="1" /><path clip-path="url(#clip070)" d="M 0 0 M909.043 1499.69 L916.681 1499.69 L916.681 1473.32 L908.371 1474.99 L908.371 1470.73 L916.635 1469.06 L921.311 1469.06 L921.311 1499.69 L928.95 1499.69 L928.95 1503.62 L909.043 1503.62 L909.043 1499.69 Z" fill="#000000" fill-rule="evenodd" fill-opacity="1" /><path clip-path="url(#clip070)" d="M 0 0 M948.394 1472.14 Q944.783 1472.14 942.954 1475.71 Q941.149 1479.25 941.149 1486.38 Q941.149 1493.48 942.954 1497.05 Q944.783 1500.59 948.394 1500.59 Q952.028 1500.59 953.834 1497.05 Q955.663 1493.48 955.663 1486.38 Q955.663 1479.25 953.834 1475.71 Q952.028 1472.14 948.394 1472.14 M948.394 1468.44 Q954.204 1468.44 957.26 1473.04 Q960.339 1477.63 960.339 1486.38 Q960.339 1495.1 957.26 1499.71 Q954.204 1504.29 948.394 1504.29 Q942.584 1504.29 939.505 1499.71 Q936.45 1495.1 936.45 1486.38 Q936.45 1477.63 939.505 1473.04 Q942.584 1468.44 948.394 1468.44 Z" fill="#000000" fill-rule="evenodd" fill-opacity="1" /><path clip-path="url(#clip070)" d="M 0 0 M1591.79 1499.69 L1608.11 1499.69 L1608.11 1503.62 L1586.16 1503.62 L1586.16 1499.69 Q1588.83 1496.93 1593.41 1492.3 Q1598.02 1487.65 1599.2 1486.31 Q1601.44 1483.78 1602.32 1482.05 Q1603.22 1480.29 1603.22 1478.6 Q1603.22 1475.84 1601.28 1474.11 Q1599.36 1472.37 1596.26 1472.37 Q1594.06 1472.37 1591.6 1473.14 Q1589.17 1473.9 1586.4 1475.45 L1586.4 1470.73 Q1589.22 1469.59 1591.67 1469.02 Q1594.13 1468.44 1596.16 1468.44 Q1601.53 1468.44 1604.73 1471.12 Q1607.92 1473.81 1607.92 1478.3 Q1607.92 1480.43 1607.11 1482.35 Q1606.33 1484.25 1604.22 1486.84 Q1603.64 1487.51 1600.54 1490.73 Q1597.44 1493.92 1591.79 1499.69 Z" fill="#000000" fill-rule="evenodd" fill-opacity="1" /><path clip-path="url(#clip070)" d="M 0 0 M1627.92 1472.14 Q1624.31 1472.14 1622.48 1475.71 Q1620.68 1479.25 1620.68 1486.38 Q1620.68 1493.48 1622.48 1497.05 Q1624.31 1500.59 1627.92 1500.59 Q1631.56 1500.59 1633.36 1497.05 Q1635.19 1493.48 1635.19 1486.38 Q1635.19 1479.25 1633.36 1475.71 Q1631.56 1472.14 1627.92 1472.14 M1627.92 1468.44 Q1633.73 1468.44 1636.79 1473.04 Q1639.87 1477.63 1639.87 1486.38 Q1639.87 1495.1 1636.79 1499.71 Q1633.73 1504.29 1627.92 1504.29 Q1622.11 1504.29 1619.03 1499.71 Q1615.98 1495.1 1615.98 1486.38 Q1615.98 1477.63 1619.03 1473.04 Q1622.11 1468.44 1627.92 1468.44 Z" fill="#000000" fill-rule="evenodd" fill-opacity="1" /><path clip-path="url(#clip070)" d="M 0 0 M2280.52 1484.99 Q2283.88 1485.71 2285.75 1487.97 Q2287.65 1490.24 2287.65 1493.58 Q2287.65 1498.69 2284.13 1501.49 Q2280.61 1504.29 2274.13 1504.29 Q2271.95 1504.29 2269.64 1503.85 Q2267.35 1503.44 2264.89 1502.58 L2264.89 1498.07 Q2266.84 1499.2 2269.15 1499.78 Q2271.47 1500.36 2273.99 1500.36 Q2278.39 1500.36 2280.68 1498.62 Q2283 1496.89 2283 1493.58 Q2283 1490.52 2280.84 1488.81 Q2278.71 1487.07 2274.89 1487.07 L2270.87 1487.07 L2270.87 1483.23 L2275.08 1483.23 Q2278.53 1483.23 2280.36 1481.86 Q2282.19 1480.47 2282.19 1477.88 Q2282.19 1475.22 2280.29 1473.81 Q2278.41 1472.37 2274.89 1472.37 Q2272.97 1472.37 2270.77 1472.79 Q2268.57 1473.21 2265.94 1474.08 L2265.94 1469.92 Q2268.6 1469.18 2270.91 1468.81 Q2273.25 1468.44 2275.31 1468.44 Q2280.63 1468.44 2283.74 1470.87 Q2286.84 1473.27 2286.84 1477.4 Q2286.84 1480.27 2285.19 1482.26 Q2283.55 1484.22 2280.52 1484.99 Z" fill="#000000" fill-rule="evenodd" fill-opacity="1" /><path clip-path="url(#clip070)" d="M 0 0 M2306.51 1472.14 Q2302.9 1472.14 2301.07 1475.71 Q2299.27 1479.25 2299.27 1486.38 Q2299.27 1493.48 2301.07 1497.05 Q2302.9 1500.59 2306.51 1500.59 Q2310.15 1500.59 2311.95 1497.05 Q2313.78 1493.48 2313.78 1486.38 Q2313.78 1479.25 2311.95 1475.71 Q2310.15 1472.14 2306.51 1472.14 M2306.51 1468.44 Q2312.32 1468.44 2315.38 1473.04 Q2318.46 1477.63 2318.46 1486.38 Q2318.46 1495.1 2315.38 1499.71 Q2312.32 1504.29 2306.51 1504.29 Q2300.7 1504.29 2297.63 1499.71 Q2294.57 1495.1 2294.57 1486.38 Q2294.57 1477.63 2297.63 1473.04 Q2300.7 1468.44 2306.51 1468.44 Z" fill="#000000" fill-rule="evenodd" fill-opacity="1" /><path clip-path="url(#clip070)" d="M 0 0 M1282.16 1539.82 Q1282.16 1540.72 1281.74 1540.95 Q1281.32 1541.14 1280.16 1541.14 L1273.98 1541.14 L1269.08 1560.59 Q1268.69 1562.3 1268.69 1563.75 Q1268.69 1565.36 1269.18 1566.07 Q1269.69 1566.78 1270.76 1566.78 Q1272.85 1566.78 1275.1 1564.88 Q1277.39 1562.98 1279.32 1558.34 Q1279.58 1557.73 1279.71 1557.6 Q1279.87 1557.44 1280.29 1557.44 Q1281.09 1557.44 1281.09 1558.08 Q1281.09 1558.31 1280.64 1559.34 Q1280.22 1560.37 1279.29 1561.88 Q1278.39 1563.4 1277.2 1564.81 Q1276.04 1566.23 1274.27 1567.26 Q1272.49 1568.26 1270.59 1568.26 Q1267.92 1568.26 1266.21 1566.55 Q1264.54 1564.84 1264.54 1562.17 Q1264.54 1561.3 1265.22 1558.53 Q1265.89 1555.73 1269.56 1541.14 L1263.73 1541.14 Q1262.93 1541.14 1262.61 1541.11 Q1262.32 1541.08 1262.09 1540.92 Q1261.9 1540.72 1261.9 1540.34 Q1261.9 1539.72 1262.16 1539.47 Q1262.41 1539.18 1262.74 1539.14 Q1263.09 1539.08 1263.9 1539.08 L1270.08 1539.08 L1272.66 1528.61 Q1272.91 1527.58 1273.56 1527 Q1274.23 1526.39 1274.62 1526.33 Q1275.01 1526.23 1275.3 1526.23 Q1276.17 1526.23 1276.68 1526.71 Q1277.2 1527.16 1277.2 1528 Q1277.2 1528.45 1274.49 1539.08 L1280.29 1539.08 Q1281.03 1539.08 1281.32 1539.11 Q1281.64 1539.14 1281.9 1539.31 Q1282.16 1539.47 1282.16 1539.82 Z" fill="#000000" fill-rule="evenodd" fill-opacity="1" /><polyline clip-path="url(#clip073)" style="stroke:#000000; stroke-width:2; stroke-opacity:0.1; fill:none" points="
  194.615,1394.73 2352.76,1394.73 
  "/>
<polyline clip-path="url(#clip073)" style="stroke:#000000; stroke-width:2; stroke-opacity:0.1; fill:none" points="
  194.615,1073.06 2352.76,1073.06 
  "/>
<polyline clip-path="url(#clip073)" style="stroke:#000000; stroke-width:2; stroke-opacity:0.1; fill:none" points="
  194.615,751.399 2352.76,751.399 
  "/>
<polyline clip-path="url(#clip073)" style="stroke:#000000; stroke-width:2; stroke-opacity:0.1; fill:none" points="
  194.615,429.736 2352.76,429.736 
  "/>
<polyline clip-path="url(#clip073)" style="stroke:#000000; stroke-width:2; stroke-opacity:0.1; fill:none" points="
  194.615,108.073 2352.76,108.073 
  "/>
<polyline clip-path="url(#clip070)" style="stroke:#000000; stroke-width:4; stroke-opacity:1; fill:none" points="
  194.615,1442.95 194.615,47.2441 
  "/>
<polyline clip-path="url(#clip070)" style="stroke:#000000; stroke-width:4; stroke-opacity:1; fill:none" points="
  194.615,1394.73 220.512,1394.73 
  "/>
<polyline clip-path="url(#clip070)" style="stroke:#000000; stroke-width:4; stroke-opacity:1; fill:none" points="
  194.615,1073.06 220.512,1073.06 
  "/>
<polyline clip-path="url(#clip070)" style="stroke:#000000; stroke-width:4; stroke-opacity:1; fill:none" points="
  194.615,751.399 220.512,751.399 
  "/>
<polyline clip-path="url(#clip070)" style="stroke:#000000; stroke-width:4; stroke-opacity:1; fill:none" points="
  194.615,429.736 220.512,429.736 
  "/>
<polyline clip-path="url(#clip070)" style="stroke:#000000; stroke-width:4; stroke-opacity:1; fill:none" points="
  194.615,108.073 220.512,108.073 
  "/>
<path clip-path="url(#clip070)" d="M 0 0 M66.7402 1395.18 L96.4159 1395.18 L96.4159 1399.11 L66.7402 1399.11 L66.7402 1395.18 Z" fill="#000000" fill-rule="evenodd" fill-opacity="1" /><path clip-path="url(#clip070)" d="M 0 0 M116.508 1395.59 Q113.175 1395.59 111.254 1397.38 Q109.356 1399.16 109.356 1402.28 Q109.356 1405.41 111.254 1407.19 Q113.175 1408.97 116.508 1408.97 Q119.842 1408.97 121.763 1407.19 Q123.684 1405.39 123.684 1402.28 Q123.684 1399.16 121.763 1397.38 Q119.865 1395.59 116.508 1395.59 M111.833 1393.6 Q108.823 1392.86 107.133 1390.8 Q105.467 1388.74 105.467 1385.78 Q105.467 1381.64 108.407 1379.23 Q111.37 1376.82 116.508 1376.82 Q121.67 1376.82 124.61 1379.23 Q127.55 1381.64 127.55 1385.78 Q127.55 1388.74 125.86 1390.8 Q124.194 1392.86 121.207 1393.6 Q124.587 1394.39 126.462 1396.68 Q128.36 1398.97 128.36 1402.28 Q128.36 1407.31 125.282 1409.99 Q122.226 1412.68 116.508 1412.68 Q110.791 1412.68 107.712 1409.99 Q104.657 1407.31 104.657 1402.28 Q104.657 1398.97 106.555 1396.68 Q108.453 1394.39 111.833 1393.6 M110.12 1386.22 Q110.12 1388.9 111.786 1390.41 Q113.476 1391.91 116.508 1391.91 Q119.518 1391.91 121.207 1390.41 Q122.92 1388.9 122.92 1386.22 Q122.92 1383.53 121.207 1382.03 Q119.518 1380.52 116.508 1380.52 Q113.476 1380.52 111.786 1382.03 Q110.12 1383.53 110.12 1386.22 Z" fill="#000000" fill-rule="evenodd" fill-opacity="1" /><path clip-path="url(#clip070)" d="M 0 0 M146.67 1380.52 Q143.059 1380.52 141.23 1384.09 Q139.425 1387.63 139.425 1394.76 Q139.425 1401.87 141.23 1405.43 Q143.059 1408.97 146.67 1408.97 Q150.305 1408.97 152.11 1405.43 Q153.939 1401.87 153.939 1394.76 Q153.939 1387.63 152.11 1384.09 Q150.305 1380.52 146.67 1380.52 M146.67 1376.82 Q152.48 1376.82 155.536 1381.43 Q158.615 1386.01 158.615 1394.76 Q158.615 1403.49 155.536 1408.09 Q152.48 1412.68 146.67 1412.68 Q140.86 1412.68 137.781 1408.09 Q134.726 1403.49 134.726 1394.76 Q134.726 1386.01 137.781 1381.43 Q140.86 1376.82 146.67 1376.82 Z" fill="#000000" fill-rule="evenodd" fill-opacity="1" /><path clip-path="url(#clip070)" d="M 0 0 M66.7402 1073.51 L96.4159 1073.51 L96.4159 1077.45 L66.7402 1077.45 L66.7402 1073.51 Z" fill="#000000" fill-rule="evenodd" fill-opacity="1" /><path clip-path="url(#clip070)" d="M 0 0 M117.087 1071.2 Q113.939 1071.2 112.087 1073.35 Q110.258 1075.5 110.258 1079.25 Q110.258 1082.98 112.087 1085.16 Q113.939 1087.31 117.087 1087.31 Q120.235 1087.31 122.064 1085.16 Q123.916 1082.98 123.916 1079.25 Q123.916 1075.5 122.064 1073.35 Q120.235 1071.2 117.087 1071.2 M126.369 1056.55 L126.369 1060.81 Q124.61 1059.97 122.805 1059.53 Q121.022 1059.09 119.263 1059.09 Q114.633 1059.09 112.18 1062.22 Q109.749 1065.34 109.402 1071.66 Q110.768 1069.65 112.828 1068.58 Q114.888 1067.5 117.365 1067.5 Q122.573 1067.5 125.582 1070.67 Q128.615 1073.81 128.615 1079.25 Q128.615 1084.58 125.467 1087.8 Q122.319 1091.01 117.087 1091.01 Q111.092 1091.01 107.92 1086.43 Q104.749 1081.82 104.749 1073.1 Q104.749 1064.9 108.638 1060.04 Q112.527 1055.16 119.078 1055.16 Q120.837 1055.16 122.619 1055.5 Q124.425 1055.85 126.369 1056.55 Z" fill="#000000" fill-rule="evenodd" fill-opacity="1" /><path clip-path="url(#clip070)" d="M 0 0 M146.67 1058.86 Q143.059 1058.86 141.23 1062.43 Q139.425 1065.97 139.425 1073.1 Q139.425 1080.2 141.23 1083.77 Q143.059 1087.31 146.67 1087.31 Q150.305 1087.31 152.11 1083.77 Q153.939 1080.2 153.939 1073.1 Q153.939 1065.97 152.11 1062.43 Q150.305 1058.86 146.67 1058.86 M146.67 1055.16 Q152.48 1055.16 155.536 1059.76 Q158.615 1064.35 158.615 1073.1 Q158.615 1081.82 155.536 1086.43 Q152.48 1091.01 146.67 1091.01 Q140.86 1091.01 137.781 1086.43 Q134.726 1081.82 134.726 1073.1 Q134.726 1064.35 137.781 1059.76 Q140.86 1055.16 146.67 1055.16 Z" fill="#000000" fill-rule="evenodd" fill-opacity="1" /><path clip-path="url(#clip070)" d="M 0 0 M66.7402 751.851 L96.4159 751.851 L96.4159 755.786 L66.7402 755.786 L66.7402 751.851 Z" fill="#000000" fill-rule="evenodd" fill-opacity="1" /><path clip-path="url(#clip070)" d="M 0 0 M119.356 738.193 L107.55 756.642 L119.356 756.642 L119.356 738.193 M118.129 734.119 L124.008 734.119 L124.008 756.642 L128.939 756.642 L128.939 760.531 L124.008 760.531 L124.008 768.679 L119.356 768.679 L119.356 760.531 L103.754 760.531 L103.754 756.017 L118.129 734.119 Z" fill="#000000" fill-rule="evenodd" fill-opacity="1" /><path clip-path="url(#clip070)" d="M 0 0 M146.67 737.198 Q143.059 737.198 141.23 740.763 Q139.425 744.304 139.425 751.434 Q139.425 758.54 141.23 762.105 Q143.059 765.647 146.67 765.647 Q150.305 765.647 152.11 762.105 Q153.939 758.54 153.939 751.434 Q153.939 744.304 152.11 740.763 Q150.305 737.198 146.67 737.198 M146.67 733.494 Q152.48 733.494 155.536 738.101 Q158.615 742.684 158.615 751.434 Q158.615 760.161 155.536 764.767 Q152.48 769.35 146.67 769.35 Q140.86 769.35 137.781 764.767 Q134.726 760.161 134.726 751.434 Q134.726 742.684 137.781 738.101 Q140.86 733.494 146.67 733.494 Z" fill="#000000" fill-rule="evenodd" fill-opacity="1" /><path clip-path="url(#clip070)" d="M 0 0 M66.7402 430.187 L96.4159 430.187 L96.4159 434.123 L66.7402 434.123 L66.7402 430.187 Z" fill="#000000" fill-rule="evenodd" fill-opacity="1" /><path clip-path="url(#clip070)" d="M 0 0 M110.536 443.081 L126.856 443.081 L126.856 447.016 L104.911 447.016 L104.911 443.081 Q107.573 440.326 112.157 435.697 Q116.763 431.044 117.944 429.701 Q120.189 427.178 121.069 425.442 Q121.971 423.683 121.971 421.993 Q121.971 419.238 120.027 417.502 Q118.106 415.766 115.004 415.766 Q112.805 415.766 110.351 416.53 Q107.92 417.294 105.143 418.845 L105.143 414.123 Q107.967 412.988 110.42 412.41 Q112.874 411.831 114.911 411.831 Q120.282 411.831 123.476 414.516 Q126.67 417.201 126.67 421.692 Q126.67 423.822 125.86 425.743 Q125.073 427.641 122.967 430.234 Q122.388 430.905 119.286 434.123 Q116.184 437.317 110.536 443.081 Z" fill="#000000" fill-rule="evenodd" fill-opacity="1" /><path clip-path="url(#clip070)" d="M 0 0 M146.67 415.535 Q143.059 415.535 141.23 419.1 Q139.425 422.641 139.425 429.771 Q139.425 436.877 141.23 440.442 Q143.059 443.984 146.67 443.984 Q150.305 443.984 152.11 440.442 Q153.939 436.877 153.939 429.771 Q153.939 422.641 152.11 419.1 Q150.305 415.535 146.67 415.535 M146.67 411.831 Q152.48 411.831 155.536 416.437 Q158.615 421.021 158.615 429.771 Q158.615 438.498 155.536 443.104 Q152.48 447.687 146.67 447.687 Q140.86 447.687 137.781 443.104 Q134.726 438.498 134.726 429.771 Q134.726 421.021 137.781 416.437 Q140.86 411.831 146.67 411.831 Z" fill="#000000" fill-rule="evenodd" fill-opacity="1" /><path clip-path="url(#clip070)" d="M 0 0 M146.67 93.8716 Q143.059 93.8716 141.23 97.4364 Q139.425 100.978 139.425 108.108 Q139.425 115.214 141.23 118.779 Q143.059 122.321 146.67 122.321 Q150.305 122.321 152.11 118.779 Q153.939 115.214 153.939 108.108 Q153.939 100.978 152.11 97.4364 Q150.305 93.8716 146.67 93.8716 M146.67 90.1679 Q152.48 90.1679 155.536 94.7744 Q158.615 99.3577 158.615 108.108 Q158.615 116.834 155.536 121.441 Q152.48 126.024 146.67 126.024 Q140.86 126.024 137.781 121.441 Q134.726 116.834 134.726 108.108 Q134.726 99.3577 137.781 94.7744 Q140.86 90.1679 146.67 90.1679 Z" fill="#000000" fill-rule="evenodd" fill-opacity="1" /><polyline clip-path="url(#clip073)" style="stroke:#0000ff; stroke-width:4; stroke-opacity:1; fill:none" points="
  255.694,129.667 295.615,86.7452 335.537,109.942 375.458,108.235 415.379,108.005 455.3,108.027 495.221,108.039 535.143,108.046 575.064,108.047 614.985,108.049 
  654.906,108.05 694.828,108.051 734.749,108.052 774.67,108.053 814.591,108.053 854.512,108.053 894.434,108.054 934.355,108.054 974.276,108.054 1014.2,108.054 
  1054.12,108.054 1094.04,108.054 1133.96,108.054 1173.88,108.054 1213.8,108.054 1253.72,108.054 1293.65,108.054 1333.57,108.054 1373.49,108.054 1413.41,108.054 
  1453.33,108.054 1493.25,108.054 1533.17,108.054 1573.09,108.054 1613.02,108.054 1652.94,108.054 1692.86,108.054 1732.78,108.054 1772.7,108.054 1812.62,108.054 
  1852.54,108.054 1892.46,108.054 1932.39,108.054 1972.31,108.054 2012.23,108.054 2052.15,108.054 2092.07,108.054 2131.99,108.054 2171.91,108.054 2211.83,108.054 
  2251.76,108.053 2291.68,108.059 
  "/>
<polyline clip-path="url(#clip073)" style="stroke:#4000bf; stroke-width:4; stroke-opacity:1; fill:none" points="
  255.694,1403.45 295.615,1386.48 335.537,1180.42 375.458,1029.16 415.379,900.619 455.3,789.356 495.221,692.771 535.143,609.029 575.064,536.598 614.985,474.107 
  654.906,420.314 694.828,374.096 734.749,334.445 774.67,300.468 814.591,271.381 854.512,246.498 894.434,225.228 934.355,207.06 974.276,191.553 1014.2,178.329 
  1054.12,167.063 1094.04,157.473 1133.96,149.319 1173.88,142.393 1213.8,136.516 1253.72,131.534 1293.65,127.315 1333.57,123.745 1373.49,120.724 1413.41,118.17 
  1453.33,116.011 1493.25,114.186 1533.17,112.641 1573.09,111.333 1613.02,110.225 1652.94,109.285 1692.86,108.487 1732.78,107.811 1772.7,107.239 1812.62,106.76 
  1852.54,106.365 1892.46,106.048 1932.39,105.807 1972.31,105.643 2012.23,105.558 2052.15,105.558 2092.07,105.648 2131.99,105.835 2171.91,106.124 2211.83,106.522 
  2251.76,107.03 2291.68,107.649 
  "/>
<polyline clip-path="url(#clip073)" style="stroke:#7f0080; stroke-width:4; stroke-opacity:1; fill:none" points="
  255.694,1259.06 295.615,1235.9 335.537,1130 375.458,1028.04 415.379,935.294 455.3,851.205 495.221,774.966 535.143,705.886 575.064,643.362 614.985,586.852 
  654.906,535.852 694.828,489.893 734.749,448.534 774.67,411.365 814.591,378.001 854.512,348.087 894.434,321.294 934.355,297.319 974.276,275.883 1014.2,256.734 
  1054.12,239.64 1094.04,224.389 1133.96,210.792 1173.88,198.676 1213.8,187.886 1253.72,178.281 1293.65,169.735 1333.57,162.136 1373.49,155.382 1413.41,149.382 
  1453.33,144.055 1493.25,139.328 1533.17,135.137 1573.09,131.424 1613.02,128.137 1652.94,125.232 1692.86,122.666 1732.78,120.405 1772.7,118.416 1812.62,116.67 
  1852.54,115.144 1892.46,113.814 1932.39,112.661 1972.31,111.669 2012.23,110.821 2052.15,110.107 2092.07,109.513 2131.99,109.031 2171.91,108.652 2211.83,108.37 
  2251.76,108.178 2291.68,108.073 
  "/>
<polyline clip-path="url(#clip073)" style="stroke:#bf0040; stroke-width:4; stroke-opacity:1; fill:none" points="
  255.694,735.791 295.615,722.943 335.537,674.334 375.458,625.114 415.379,579.323 455.3,537.224 495.221,498.607 535.143,463.216 575.064,430.806 614.985,401.146 
  654.906,374.022 694.828,349.233 734.749,326.591 774.67,305.924 814.591,287.07 854.512,269.878 894.434,254.211 934.355,239.941 974.276,226.949 1014.2,215.126 
  1054.12,204.372 1094.04,194.595 1133.96,185.709 1173.88,177.638 1213.8,170.31 1253.72,163.66 1293.65,157.628 1333.57,152.16 1373.49,147.205 1413.41,142.72 
  1453.33,138.661 1493.25,134.992 1533.17,131.679 1573.09,128.689 1613.02,125.996 1652.94,123.573 1692.86,121.397 1732.78,119.448 1772.7,117.705 1812.62,116.152 
  1852.54,114.774 1892.46,113.557 1932.39,112.488 1972.31,111.557 2012.23,110.752 2052.15,110.066 2092.07,109.491 2131.99,109.021 2171.91,108.648 2211.83,108.368 
  2251.76,108.178 2291.68,108.073 
  "/>
<polyline clip-path="url(#clip073)" style="stroke:#ff0000; stroke-width:4; stroke-opacity:1; fill:none" points="
  255.694,552.941 295.615,545.416 335.537,514.355 375.458,482.466 415.379,452.515 455.3,424.728 495.221,399.001 535.143,375.196 575.064,353.179 614.985,332.825 
  654.906,314.017 694.828,296.644 734.749,280.603 774.67,265.8 814.591,252.145 854.512,239.553 894.434,227.948 934.355,217.256 974.276,207.41 1014.2,198.347 
  1054.12,190.009 1094.04,182.34 1133.96,175.291 1173.88,168.815 1213.8,162.869 1253.72,157.411 1293.65,152.406 1333.57,147.817 1373.49,143.615 1413.41,139.769 
  1453.33,136.253 1493.25,133.041 1533.17,130.11 1573.09,127.44 1613.02,125.011 1652.94,122.805 1692.86,120.806 1732.78,118.999 1772.7,117.37 1812.62,115.908 
  1852.54,114.599 1892.46,113.435 1932.39,112.406 1972.31,111.503 2012.23,110.719 2052.15,110.047 2092.07,109.481 2131.99,109.016 2171.91,108.646 2211.83,108.368 
  2251.76,108.178 2291.68,108.073 
  "/>
<path clip-path="url(#clip070)" d="
M1875.63 456.648 L2280.82 456.648 L2280.82 93.7676 L1875.63 93.7676  Z
  " fill="#ffffff" fill-rule="evenodd" fill-opacity="1"/>
<polyline clip-path="url(#clip070)" style="stroke:#000000; stroke-width:4; stroke-opacity:1; fill:none" points="
  1875.63,456.648 2280.82,456.648 2280.82,93.7676 1875.63,93.7676 1875.63,456.648 
  "/>
<polyline clip-path="url(#clip070)" style="stroke:#0000ff; stroke-width:4; stroke-opacity:1; fill:none" points="
  1899.61,154.248 2043.49,154.248 
  "/>
<path clip-path="url(#clip070)" d="M 0 0 M2087.28 146.482 Q2087.28 150.417 2086.02 154.844 Q2084.77 159.247 2082.81 162.807 Q2080.84 166.344 2078.26 168.686 Q2075.69 171.005 2073.23 171.005 Q2071.66 171.005 2070.49 170.138 Q2069.34 169.248 2068.71 167.773 Q2068.07 166.274 2067.77 164.634 Q2067.47 162.971 2067.47 161.168 Q2067.47 158.474 2068.05 155.546 Q2068.64 152.595 2069.62 149.925 Q2070.6 147.231 2071.99 144.795 Q2073.37 142.336 2074.89 140.556 Q2076.44 138.752 2078.17 137.698 Q2079.9 136.644 2081.52 136.644 Q2082.69 136.644 2083.63 137.16 Q2084.59 137.652 2085.2 138.518 Q2085.8 139.361 2086.23 140.369 Q2086.67 141.376 2086.88 142.547 Q2087.09 143.695 2087.19 144.655 Q2087.28 145.592 2087.28 146.482 M2084.12 143.507 Q2084.12 142.313 2084.02 141.423 Q2083.93 140.509 2083.67 139.596 Q2083.42 138.682 2082.85 138.19 Q2082.31 137.698 2081.47 137.698 Q2079.01 137.698 2076.25 142.734 Q2075.36 144.303 2074.56 146.435 Q2073.77 148.566 2073.48 149.574 Q2073.2 150.581 2072.55 153.063 L2082.57 153.063 Q2084.12 146.669 2084.12 143.507 M2082.15 154.586 L2072.17 154.586 Q2070.63 160.442 2070.63 164.095 Q2070.63 167.281 2071.28 168.616 Q2071.96 169.928 2073.23 169.928 Q2074.68 169.928 2076.04 168.475 Q2077.4 167 2078.78 164.33 Q2080.61 160.863 2082.15 154.586 Z" fill="#000000" fill-rule="evenodd" fill-opacity="1" /><path clip-path="url(#clip070)" d="M 0 0 M2103.04 163.182 Q2103.08 162.596 2104 162.596 L2133.39 162.596 Q2134.77 162.596 2134.8 163.135 Q2134.8 163.721 2133.48 163.697 L2104.32 163.697 Q2103.04 163.721 2103.04 163.182 M2103.04 153.813 Q2103.04 153.227 2104.04 153.251 L2133.34 153.251 Q2134.77 153.251 2134.8 153.813 Q2134.8 154.352 2133.58 154.352 L2104 154.352 Q2103.04 154.352 2103.04 153.813 Z" fill="#000000" fill-rule="evenodd" fill-opacity="1" /><path clip-path="url(#clip070)" d="M 0 0 M2153.29 155.125 Q2153.29 148.075 2155.07 144.233 Q2157.55 138.518 2163.41 138.518 Q2164.65 138.518 2165.94 138.869 Q2167.25 139.197 2168.89 140.486 Q2170.55 141.774 2171.56 143.882 Q2173.48 147.957 2173.48 155.125 Q2173.48 162.128 2171.7 165.946 Q2169.1 171.52 2163.36 171.52 Q2161.2 171.52 2159 170.42 Q2156.82 169.319 2155.44 166.672 Q2153.29 162.714 2153.29 155.125 M2157.27 154.539 Q2157.27 161.777 2157.78 164.658 Q2158.37 167.773 2159.96 169.131 Q2161.58 170.466 2163.36 170.466 Q2165.28 170.466 2166.87 169.038 Q2168.49 167.585 2168.98 164.47 Q2169.52 161.402 2169.5 154.539 Q2169.5 147.864 2169.03 145.194 Q2168.39 142.078 2166.71 140.837 Q2165.05 139.572 2163.36 139.572 Q2162.73 139.572 2162.05 139.76 Q2161.39 139.947 2160.43 140.486 Q2159.47 141.024 2158.72 142.359 Q2158 143.695 2157.64 145.709 Q2157.27 148.309 2157.27 154.539 Z" fill="#000000" fill-rule="evenodd" fill-opacity="1" /><path clip-path="url(#clip070)" d="M 0 0 M2177.76 169.693 Q2177.04 168.92 2177.04 167.913 Q2177.04 166.906 2177.76 166.18 Q2178.49 165.431 2179.59 165.431 Q2180.64 165.431 2181.35 166.133 Q2182.07 166.812 2182.07 167.937 Q2182.07 169.038 2181.3 169.764 Q2180.55 170.466 2179.59 170.466 Q2178.49 170.466 2177.76 169.693 Z" fill="#000000" fill-rule="evenodd" fill-opacity="1" /><path clip-path="url(#clip070)" d="M 0 0 M2185.36 143.086 L2185.36 141.586 Q2191.12 141.586 2194.1 138.518 Q2194.92 138.518 2195.06 138.706 Q2195.2 138.893 2195.2 139.76 L2195.2 166.672 Q2195.2 168.101 2195.9 168.546 Q2196.6 168.991 2199.67 168.991 L2201.19 168.991 L2201.19 170.466 Q2199.51 170.326 2193.42 170.326 Q2187.33 170.326 2185.66 170.466 L2185.66 168.991 L2187.19 168.991 Q2190.21 168.991 2190.93 168.569 Q2191.66 168.124 2191.66 166.672 L2191.66 141.821 Q2189.15 143.086 2185.36 143.086 Z" fill="#000000" fill-rule="evenodd" fill-opacity="1" /><polyline clip-path="url(#clip070)" style="stroke:#4000bf; stroke-width:4; stroke-opacity:1; fill:none" points="
  1899.61,214.728 2043.49,214.728 
  "/>
<path clip-path="url(#clip070)" d="M 0 0 M2087.28 206.962 Q2087.28 210.897 2086.02 215.324 Q2084.77 219.727 2082.81 223.287 Q2080.84 226.824 2078.26 229.166 Q2075.69 231.485 2073.23 231.485 Q2071.66 231.485 2070.49 230.618 Q2069.34 229.728 2068.71 228.253 Q2068.07 226.754 2067.77 225.114 Q2067.47 223.451 2067.47 221.648 Q2067.47 218.954 2068.05 216.026 Q2068.64 213.075 2069.62 210.405 Q2070.6 207.711 2071.99 205.275 Q2073.37 202.816 2074.89 201.036 Q2076.44 199.232 2078.17 198.178 Q2079.9 197.124 2081.52 197.124 Q2082.69 197.124 2083.63 197.64 Q2084.59 198.132 2085.2 198.998 Q2085.8 199.841 2086.23 200.849 Q2086.67 201.856 2086.88 203.027 Q2087.09 204.175 2087.19 205.135 Q2087.28 206.072 2087.28 206.962 M2084.12 203.987 Q2084.12 202.793 2084.02 201.903 Q2083.93 200.989 2083.67 200.076 Q2083.42 199.162 2082.85 198.67 Q2082.31 198.178 2081.47 198.178 Q2079.01 198.178 2076.25 203.214 Q2075.36 204.783 2074.56 206.915 Q2073.77 209.046 2073.48 210.054 Q2073.2 211.061 2072.55 213.543 L2082.57 213.543 Q2084.12 207.149 2084.12 203.987 M2082.15 215.066 L2072.17 215.066 Q2070.63 220.922 2070.63 224.575 Q2070.63 227.761 2071.28 229.096 Q2071.96 230.408 2073.23 230.408 Q2074.68 230.408 2076.04 228.955 Q2077.4 227.48 2078.78 224.81 Q2080.61 221.343 2082.15 215.066 Z" fill="#000000" fill-rule="evenodd" fill-opacity="1" /><path clip-path="url(#clip070)" d="M 0 0 M2103.04 223.662 Q2103.08 223.076 2104 223.076 L2133.39 223.076 Q2134.77 223.076 2134.8 223.615 Q2134.8 224.201 2133.48 224.177 L2104.32 224.177 Q2103.04 224.201 2103.04 223.662 M2103.04 214.293 Q2103.04 213.707 2104.04 213.731 L2133.34 213.731 Q2134.77 213.731 2134.8 214.293 Q2134.8 214.832 2133.58 214.832 L2104 214.832 Q2103.04 214.832 2103.04 214.293 Z" fill="#000000" fill-rule="evenodd" fill-opacity="1" /><path clip-path="url(#clip070)" d="M 0 0 M2153.29 230.946 Q2153.29 230.08 2153.36 229.822 Q2153.45 229.564 2153.83 229.166 L2163.03 218.907 Q2168.07 213.239 2168.07 208.297 Q2168.07 205.088 2166.38 202.793 Q2164.72 200.497 2161.65 200.497 Q2159.54 200.497 2157.76 201.785 Q2155.98 203.074 2155.16 205.369 Q2155.3 205.322 2155.79 205.322 Q2156.99 205.322 2157.64 206.072 Q2158.32 206.821 2158.32 207.828 Q2158.32 209.117 2157.48 209.749 Q2156.66 210.358 2155.84 210.358 Q2155.51 210.358 2155.07 210.288 Q2154.65 210.218 2153.97 209.562 Q2153.29 208.882 2153.29 207.688 Q2153.29 204.338 2155.82 201.668 Q2158.37 198.998 2162.26 198.998 Q2166.66 198.998 2169.54 201.621 Q2172.45 204.221 2172.45 208.297 Q2172.45 209.726 2172 211.037 Q2171.58 212.326 2170.99 213.333 Q2170.43 214.34 2168.89 215.956 Q2167.34 217.572 2166.1 218.72 Q2164.86 219.868 2162.07 222.303 L2156.99 227.246 L2165.63 227.246 Q2169.85 227.246 2170.17 226.871 Q2170.64 226.192 2171.23 222.608 L2172.45 222.608 L2171.09 230.946 L2153.29 230.946 Z" fill="#000000" fill-rule="evenodd" fill-opacity="1" /><path clip-path="url(#clip070)" d="M 0 0 M2177.04 215.605 Q2177.04 208.555 2178.82 204.713 Q2181.3 198.998 2187.16 198.998 Q2188.4 198.998 2189.69 199.349 Q2191 199.677 2192.64 200.966 Q2194.3 202.254 2195.31 204.362 Q2197.23 208.437 2197.23 215.605 Q2197.23 222.608 2195.45 226.426 Q2192.85 232 2187.11 232 Q2184.95 232 2182.75 230.9 Q2180.57 229.799 2179.19 227.152 Q2177.04 223.194 2177.04 215.605 M2181.02 215.019 Q2181.02 222.257 2181.53 225.138 Q2182.12 228.253 2183.71 229.611 Q2185.33 230.946 2187.11 230.946 Q2189.03 230.946 2190.62 229.518 Q2192.24 228.065 2192.73 224.95 Q2193.27 221.882 2193.25 215.019 Q2193.25 208.344 2192.78 205.674 Q2192.14 202.558 2190.46 201.317 Q2188.8 200.052 2187.11 200.052 Q2186.48 200.052 2185.8 200.24 Q2185.14 200.427 2184.18 200.966 Q2183.22 201.504 2182.47 202.839 Q2181.75 204.175 2181.39 206.189 Q2181.02 208.789 2181.02 215.019 Z" fill="#000000" fill-rule="evenodd" fill-opacity="1" /><path clip-path="url(#clip070)" d="M 0 0 M2201.51 230.173 Q2200.79 229.4 2200.79 228.393 Q2200.79 227.386 2201.51 226.66 Q2202.24 225.911 2203.34 225.911 Q2204.39 225.911 2205.1 226.613 Q2205.82 227.292 2205.82 228.417 Q2205.82 229.518 2205.05 230.244 Q2204.3 230.946 2203.34 230.946 Q2202.24 230.946 2201.51 230.173 Z" fill="#000000" fill-rule="evenodd" fill-opacity="1" /><path clip-path="url(#clip070)" d="M 0 0 M2209.11 203.566 L2209.11 202.066 Q2214.87 202.066 2217.85 198.998 Q2218.67 198.998 2218.81 199.186 Q2218.95 199.373 2218.95 200.24 L2218.95 227.152 Q2218.95 228.581 2219.65 229.026 Q2220.35 229.471 2223.42 229.471 L2224.94 229.471 L2224.94 230.946 Q2223.26 230.806 2217.17 230.806 Q2211.08 230.806 2209.41 230.946 L2209.41 229.471 L2210.94 229.471 Q2213.96 229.471 2214.68 229.049 Q2215.41 228.604 2215.41 227.152 L2215.41 202.301 Q2212.9 203.566 2209.11 203.566 Z" fill="#000000" fill-rule="evenodd" fill-opacity="1" /><polyline clip-path="url(#clip070)" style="stroke:#7f0080; stroke-width:4; stroke-opacity:1; fill:none" points="
  1899.61,275.208 2043.49,275.208 
  "/>
<path clip-path="url(#clip070)" d="M 0 0 M2087.28 267.442 Q2087.28 271.377 2086.02 275.804 Q2084.77 280.207 2082.81 283.767 Q2080.84 287.304 2078.26 289.646 Q2075.69 291.965 2073.23 291.965 Q2071.66 291.965 2070.49 291.098 Q2069.34 290.208 2068.71 288.733 Q2068.07 287.234 2067.77 285.594 Q2067.47 283.931 2067.47 282.128 Q2067.47 279.434 2068.05 276.506 Q2068.64 273.555 2069.62 270.885 Q2070.6 268.191 2071.99 265.755 Q2073.37 263.296 2074.89 261.516 Q2076.44 259.712 2078.17 258.658 Q2079.9 257.604 2081.52 257.604 Q2082.69 257.604 2083.63 258.12 Q2084.59 258.612 2085.2 259.478 Q2085.8 260.321 2086.23 261.329 Q2086.67 262.336 2086.88 263.507 Q2087.09 264.655 2087.19 265.615 Q2087.28 266.552 2087.28 267.442 M2084.12 264.467 Q2084.12 263.273 2084.02 262.383 Q2083.93 261.469 2083.67 260.556 Q2083.42 259.642 2082.85 259.15 Q2082.31 258.658 2081.47 258.658 Q2079.01 258.658 2076.25 263.694 Q2075.36 265.263 2074.56 267.395 Q2073.77 269.526 2073.48 270.534 Q2073.2 271.541 2072.55 274.023 L2082.57 274.023 Q2084.12 267.629 2084.12 264.467 M2082.15 275.546 L2072.17 275.546 Q2070.63 281.402 2070.63 285.055 Q2070.63 288.241 2071.28 289.576 Q2071.96 290.888 2073.23 290.888 Q2074.68 290.888 2076.04 289.435 Q2077.4 287.96 2078.78 285.29 Q2080.61 281.823 2082.15 275.546 Z" fill="#000000" fill-rule="evenodd" fill-opacity="1" /><path clip-path="url(#clip070)" d="M 0 0 M2103.04 284.142 Q2103.08 283.556 2104 283.556 L2133.39 283.556 Q2134.77 283.556 2134.8 284.095 Q2134.8 284.681 2133.48 284.657 L2104.32 284.657 Q2103.04 284.681 2103.04 284.142 M2103.04 274.773 Q2103.04 274.187 2104.04 274.211 L2133.34 274.211 Q2134.77 274.211 2134.8 274.773 Q2134.8 275.312 2133.58 275.312 L2104 275.312 Q2103.04 275.312 2103.04 274.773 Z" fill="#000000" fill-rule="evenodd" fill-opacity="1" /><path clip-path="url(#clip070)" d="M 0 0 M2153.29 283.51 L2153.29 282.034 L2168.02 259.525 Q2168.39 258.939 2168.98 258.963 Q2169.52 258.963 2169.64 259.174 Q2169.75 259.384 2169.75 260.204 L2169.75 282.034 L2174.55 282.034 L2174.55 283.51 L2169.75 283.51 L2169.75 287.679 Q2169.75 289.061 2170.32 289.506 Q2170.9 289.951 2173.38 289.951 L2174.39 289.951 L2174.39 291.426 Q2172.42 291.286 2167.88 291.286 Q2163.36 291.286 2161.39 291.426 L2161.39 289.951 L2162.4 289.951 Q2164.88 289.951 2165.47 289.529 Q2166.05 289.084 2166.05 287.679 L2166.05 283.51 L2153.29 283.51 M2154.65 282.034 L2166.33 282.034 L2166.33 264.139 L2154.65 282.034 Z" fill="#000000" fill-rule="evenodd" fill-opacity="1" /><path clip-path="url(#clip070)" d="M 0 0 M2177.04 276.085 Q2177.04 269.035 2178.82 265.193 Q2181.3 259.478 2187.16 259.478 Q2188.4 259.478 2189.69 259.829 Q2191 260.157 2192.64 261.446 Q2194.3 262.734 2195.31 264.842 Q2197.23 268.917 2197.23 276.085 Q2197.23 283.088 2195.45 286.906 Q2192.85 292.48 2187.11 292.48 Q2184.95 292.48 2182.75 291.38 Q2180.57 290.279 2179.19 287.632 Q2177.04 283.674 2177.04 276.085 M2181.02 275.499 Q2181.02 282.737 2181.53 285.618 Q2182.12 288.733 2183.71 290.091 Q2185.33 291.426 2187.11 291.426 Q2189.03 291.426 2190.62 289.998 Q2192.24 288.545 2192.73 285.43 Q2193.27 282.362 2193.25 275.499 Q2193.25 268.824 2192.78 266.154 Q2192.14 263.038 2190.46 261.797 Q2188.8 260.532 2187.11 260.532 Q2186.48 260.532 2185.8 260.72 Q2185.14 260.907 2184.18 261.446 Q2183.22 261.984 2182.47 263.319 Q2181.75 264.655 2181.39 266.669 Q2181.02 269.269 2181.02 275.499 Z" fill="#000000" fill-rule="evenodd" fill-opacity="1" /><path clip-path="url(#clip070)" d="M 0 0 M2201.51 290.653 Q2200.79 289.88 2200.79 288.873 Q2200.79 287.866 2201.51 287.14 Q2202.24 286.391 2203.34 286.391 Q2204.39 286.391 2205.1 287.093 Q2205.82 287.772 2205.82 288.897 Q2205.82 289.998 2205.05 290.724 Q2204.3 291.426 2203.34 291.426 Q2202.24 291.426 2201.51 290.653 Z" fill="#000000" fill-rule="evenodd" fill-opacity="1" /><path clip-path="url(#clip070)" d="M 0 0 M2209.11 264.046 L2209.11 262.546 Q2214.87 262.546 2217.85 259.478 Q2218.67 259.478 2218.81 259.666 Q2218.95 259.853 2218.95 260.72 L2218.95 287.632 Q2218.95 289.061 2219.65 289.506 Q2220.35 289.951 2223.42 289.951 L2224.94 289.951 L2224.94 291.426 Q2223.26 291.286 2217.17 291.286 Q2211.08 291.286 2209.41 291.426 L2209.41 289.951 L2210.94 289.951 Q2213.96 289.951 2214.68 289.529 Q2215.41 289.084 2215.41 287.632 L2215.41 262.781 Q2212.9 264.046 2209.11 264.046 Z" fill="#000000" fill-rule="evenodd" fill-opacity="1" /><polyline clip-path="url(#clip070)" style="stroke:#bf0040; stroke-width:4; stroke-opacity:1; fill:none" points="
  1899.61,335.688 2043.49,335.688 
  "/>
<path clip-path="url(#clip070)" d="M 0 0 M2087.28 327.922 Q2087.28 331.857 2086.02 336.284 Q2084.77 340.687 2082.81 344.247 Q2080.84 347.784 2078.26 350.126 Q2075.69 352.445 2073.23 352.445 Q2071.66 352.445 2070.49 351.578 Q2069.34 350.688 2068.71 349.213 Q2068.07 347.714 2067.77 346.074 Q2067.47 344.411 2067.47 342.608 Q2067.47 339.914 2068.05 336.986 Q2068.64 334.035 2069.62 331.365 Q2070.6 328.671 2071.99 326.235 Q2073.37 323.776 2074.89 321.996 Q2076.44 320.192 2078.17 319.138 Q2079.9 318.084 2081.52 318.084 Q2082.69 318.084 2083.63 318.6 Q2084.59 319.092 2085.2 319.958 Q2085.8 320.801 2086.23 321.809 Q2086.67 322.816 2086.88 323.987 Q2087.09 325.135 2087.19 326.095 Q2087.28 327.032 2087.28 327.922 M2084.12 324.947 Q2084.12 323.753 2084.02 322.863 Q2083.93 321.949 2083.67 321.036 Q2083.42 320.122 2082.85 319.63 Q2082.31 319.138 2081.47 319.138 Q2079.01 319.138 2076.25 324.174 Q2075.36 325.743 2074.56 327.875 Q2073.77 330.006 2073.48 331.014 Q2073.2 332.021 2072.55 334.503 L2082.57 334.503 Q2084.12 328.109 2084.12 324.947 M2082.15 336.026 L2072.17 336.026 Q2070.63 341.882 2070.63 345.535 Q2070.63 348.721 2071.28 350.056 Q2071.96 351.368 2073.23 351.368 Q2074.68 351.368 2076.04 349.915 Q2077.4 348.44 2078.78 345.77 Q2080.61 342.303 2082.15 336.026 Z" fill="#000000" fill-rule="evenodd" fill-opacity="1" /><path clip-path="url(#clip070)" d="M 0 0 M2103.04 344.622 Q2103.08 344.036 2104 344.036 L2133.39 344.036 Q2134.77 344.036 2134.8 344.575 Q2134.8 345.161 2133.48 345.137 L2104.32 345.137 Q2103.04 345.161 2103.04 344.622 M2103.04 335.253 Q2103.04 334.667 2104.04 334.691 L2133.34 334.691 Q2134.77 334.691 2134.8 335.253 Q2134.8 335.792 2133.58 335.792 L2104 335.792 Q2103.04 335.792 2103.04 335.253 Z" fill="#000000" fill-rule="evenodd" fill-opacity="1" /><path clip-path="url(#clip070)" d="M 0 0 M2153.29 336.752 Q2153.29 329.21 2157.13 324.596 Q2160.97 319.958 2165.91 319.958 Q2168.79 319.958 2170.39 321.434 Q2172 322.886 2172 325.135 Q2172 326.376 2171.28 326.915 Q2170.55 327.453 2169.8 327.453 Q2168.93 327.453 2168.25 326.868 Q2167.57 326.282 2167.57 325.228 Q2167.57 323.073 2170.22 323.073 Q2168.98 321.153 2166.01 321.153 Q2165.09 321.153 2164.16 321.434 Q2163.22 321.691 2162 322.581 Q2160.78 323.472 2159.85 324.877 Q2158.91 326.282 2158.25 328.929 Q2157.6 331.576 2157.6 335.019 L2157.6 336.166 Q2159.56 331.412 2163.59 331.435 Q2167.62 331.435 2170.41 334.503 Q2173.2 337.572 2173.2 342.116 Q2173.2 346.777 2170.29 349.869 Q2167.39 352.96 2163.31 352.96 Q2161.49 352.96 2159.82 352.187 Q2158.18 351.438 2156.64 349.705 Q2155.11 347.971 2154.2 344.645 Q2153.29 341.319 2153.29 336.752 M2157.69 341.062 Q2157.69 345.77 2158.56 348.018 Q2158.7 348.393 2159 348.908 Q2159.33 349.424 2159.87 350.103 Q2160.43 350.759 2161.34 351.204 Q2162.26 351.625 2163.31 351.625 Q2166.52 351.625 2168.07 348.51 Q2168.89 346.777 2168.89 342.069 Q2168.89 337.267 2168.02 335.511 Q2166.54 332.536 2163.55 332.536 Q2161.53 332.536 2160.13 333.918 Q2158.74 335.3 2158.21 337.15 Q2157.69 339.001 2157.69 341.062 Z" fill="#000000" fill-rule="evenodd" fill-opacity="1" /><path clip-path="url(#clip070)" d="M 0 0 M2177.04 336.565 Q2177.04 329.515 2178.82 325.673 Q2181.3 319.958 2187.16 319.958 Q2188.4 319.958 2189.69 320.309 Q2191 320.637 2192.64 321.926 Q2194.3 323.214 2195.31 325.322 Q2197.23 329.397 2197.23 336.565 Q2197.23 343.568 2195.45 347.386 Q2192.85 352.96 2187.11 352.96 Q2184.95 352.96 2182.75 351.86 Q2180.57 350.759 2179.19 348.112 Q2177.04 344.154 2177.04 336.565 M2181.02 335.979 Q2181.02 343.217 2181.53 346.098 Q2182.12 349.213 2183.71 350.571 Q2185.33 351.906 2187.11 351.906 Q2189.03 351.906 2190.62 350.478 Q2192.24 349.025 2192.73 345.91 Q2193.27 342.842 2193.25 335.979 Q2193.25 329.304 2192.78 326.634 Q2192.14 323.518 2190.46 322.277 Q2188.8 321.012 2187.11 321.012 Q2186.48 321.012 2185.8 321.2 Q2185.14 321.387 2184.18 321.926 Q2183.22 322.464 2182.47 323.799 Q2181.75 325.135 2181.39 327.149 Q2181.02 329.749 2181.02 335.979 Z" fill="#000000" fill-rule="evenodd" fill-opacity="1" /><path clip-path="url(#clip070)" d="M 0 0 M2201.51 351.133 Q2200.79 350.36 2200.79 349.353 Q2200.79 348.346 2201.51 347.62 Q2202.24 346.871 2203.34 346.871 Q2204.39 346.871 2205.1 347.573 Q2205.82 348.252 2205.82 349.377 Q2205.82 350.478 2205.05 351.204 Q2204.3 351.906 2203.34 351.906 Q2202.24 351.906 2201.51 351.133 Z" fill="#000000" fill-rule="evenodd" fill-opacity="1" /><path clip-path="url(#clip070)" d="M 0 0 M2209.11 324.526 L2209.11 323.026 Q2214.87 323.026 2217.85 319.958 Q2218.67 319.958 2218.81 320.146 Q2218.95 320.333 2218.95 321.2 L2218.95 348.112 Q2218.95 349.541 2219.65 349.986 Q2220.35 350.431 2223.42 350.431 L2224.94 350.431 L2224.94 351.906 Q2223.26 351.766 2217.17 351.766 Q2211.08 351.766 2209.41 351.906 L2209.41 350.431 L2210.94 350.431 Q2213.96 350.431 2214.68 350.009 Q2215.41 349.564 2215.41 348.112 L2215.41 323.261 Q2212.9 324.526 2209.11 324.526 Z" fill="#000000" fill-rule="evenodd" fill-opacity="1" /><polyline clip-path="url(#clip070)" style="stroke:#ff0000; stroke-width:4; stroke-opacity:1; fill:none" points="
  1899.61,396.168 2043.49,396.168 
  "/>
<path clip-path="url(#clip070)" d="M 0 0 M2087.28 388.402 Q2087.28 392.337 2086.02 396.764 Q2084.77 401.167 2082.81 404.727 Q2080.84 408.264 2078.26 410.606 Q2075.69 412.925 2073.23 412.925 Q2071.66 412.925 2070.49 412.058 Q2069.34 411.168 2068.71 409.693 Q2068.07 408.194 2067.77 406.554 Q2067.47 404.891 2067.47 403.088 Q2067.47 400.394 2068.05 397.466 Q2068.64 394.515 2069.62 391.845 Q2070.6 389.151 2071.99 386.715 Q2073.37 384.256 2074.89 382.476 Q2076.44 380.672 2078.17 379.618 Q2079.9 378.564 2081.52 378.564 Q2082.69 378.564 2083.63 379.08 Q2084.59 379.572 2085.2 380.438 Q2085.8 381.281 2086.23 382.289 Q2086.67 383.296 2086.88 384.467 Q2087.09 385.615 2087.19 386.575 Q2087.28 387.512 2087.28 388.402 M2084.12 385.427 Q2084.12 384.233 2084.02 383.343 Q2083.93 382.429 2083.67 381.516 Q2083.42 380.602 2082.85 380.11 Q2082.31 379.618 2081.47 379.618 Q2079.01 379.618 2076.25 384.654 Q2075.36 386.223 2074.56 388.355 Q2073.77 390.486 2073.48 391.494 Q2073.2 392.501 2072.55 394.983 L2082.57 394.983 Q2084.12 388.589 2084.12 385.427 M2082.15 396.506 L2072.17 396.506 Q2070.63 402.362 2070.63 406.015 Q2070.63 409.201 2071.28 410.536 Q2071.96 411.848 2073.23 411.848 Q2074.68 411.848 2076.04 410.395 Q2077.4 408.92 2078.78 406.25 Q2080.61 402.783 2082.15 396.506 Z" fill="#000000" fill-rule="evenodd" fill-opacity="1" /><path clip-path="url(#clip070)" d="M 0 0 M2103.04 405.102 Q2103.08 404.516 2104 404.516 L2133.39 404.516 Q2134.77 404.516 2134.8 405.055 Q2134.8 405.641 2133.48 405.617 L2104.32 405.617 Q2103.04 405.641 2103.04 405.102 M2103.04 395.733 Q2103.04 395.147 2104.04 395.171 L2133.34 395.171 Q2134.77 395.171 2134.8 395.733 Q2134.8 396.272 2133.58 396.272 L2104 396.272 Q2103.04 396.272 2103.04 395.733 Z" fill="#000000" fill-rule="evenodd" fill-opacity="1" /><path clip-path="url(#clip070)" d="M 0 0 M2153.29 405.149 Q2153.29 399.785 2160.2 396.319 Q2157.22 394.304 2156.68 393.719 Q2154.58 391.376 2154.58 388.449 Q2154.58 385.099 2157.11 382.78 Q2159.66 380.438 2163.27 380.438 Q2166.71 380.438 2169.31 382.429 Q2171.91 384.42 2171.91 387.582 Q2171.91 392.032 2166.1 395.03 Q2169.94 397.419 2170.85 398.427 Q2173.2 401.026 2173.2 404.329 Q2173.2 408.17 2170.24 410.817 Q2167.29 413.44 2163.22 413.44 Q2159.24 413.44 2156.26 411.122 Q2153.29 408.803 2153.29 405.149 M2155.68 405.149 Q2155.68 408.123 2157.9 410.114 Q2160.15 412.105 2163.27 412.105 Q2166.29 412.105 2168.54 410.372 Q2170.81 408.639 2170.81 406.062 Q2170.81 405.055 2170.46 404.189 Q2170.13 403.322 2169.45 402.643 Q2168.79 401.94 2168.37 401.635 Q2167.97 401.308 2167.2 400.769 L2161.3 397.045 Q2155.68 400.16 2155.68 405.149 M2156.68 386.575 Q2156.68 388.87 2159.1 390.463 L2165.05 394.304 Q2169.8 391.517 2169.8 387.582 Q2169.8 385.029 2167.86 383.343 Q2165.91 381.633 2163.22 381.633 Q2160.57 381.633 2158.63 383.038 Q2156.68 384.42 2156.68 386.575 Z" fill="#000000" fill-rule="evenodd" fill-opacity="1" /><path clip-path="url(#clip070)" d="M 0 0 M2177.04 397.045 Q2177.04 389.995 2178.82 386.153 Q2181.3 380.438 2187.16 380.438 Q2188.4 380.438 2189.69 380.789 Q2191 381.117 2192.64 382.406 Q2194.3 383.694 2195.31 385.802 Q2197.23 389.877 2197.23 397.045 Q2197.23 404.048 2195.45 407.866 Q2192.85 413.44 2187.11 413.44 Q2184.95 413.44 2182.75 412.34 Q2180.57 411.239 2179.19 408.592 Q2177.04 404.634 2177.04 397.045 M2181.02 396.459 Q2181.02 403.697 2181.53 406.578 Q2182.12 409.693 2183.71 411.051 Q2185.33 412.386 2187.11 412.386 Q2189.03 412.386 2190.62 410.958 Q2192.24 409.505 2192.73 406.39 Q2193.27 403.322 2193.25 396.459 Q2193.25 389.784 2192.78 387.114 Q2192.14 383.998 2190.46 382.757 Q2188.8 381.492 2187.11 381.492 Q2186.48 381.492 2185.8 381.68 Q2185.14 381.867 2184.18 382.406 Q2183.22 382.944 2182.47 384.279 Q2181.75 385.615 2181.39 387.629 Q2181.02 390.229 2181.02 396.459 Z" fill="#000000" fill-rule="evenodd" fill-opacity="1" /><path clip-path="url(#clip070)" d="M 0 0 M2201.51 411.613 Q2200.79 410.84 2200.79 409.833 Q2200.79 408.826 2201.51 408.1 Q2202.24 407.351 2203.34 407.351 Q2204.39 407.351 2205.1 408.053 Q2205.82 408.732 2205.82 409.857 Q2205.82 410.958 2205.05 411.684 Q2204.3 412.386 2203.34 412.386 Q2202.24 412.386 2201.51 411.613 Z" fill="#000000" fill-rule="evenodd" fill-opacity="1" /><path clip-path="url(#clip070)" d="M 0 0 M2209.11 385.006 L2209.11 383.506 Q2214.87 383.506 2217.85 380.438 Q2218.67 380.438 2218.81 380.626 Q2218.95 380.813 2218.95 381.68 L2218.95 408.592 Q2218.95 410.021 2219.65 410.466 Q2220.35 410.911 2223.42 410.911 L2224.94 410.911 L2224.94 412.386 Q2223.26 412.246 2217.17 412.246 Q2211.08 412.246 2209.41 412.386 L2209.41 410.911 L2210.94 410.911 Q2213.96 410.911 2214.68 410.489 Q2215.41 410.044 2215.41 408.592 L2215.41 383.741 Q2212.9 385.006 2209.11 385.006 Z" fill="#000000" fill-rule="evenodd" fill-opacity="1" /></svg>
