<?xml version="1.0" encoding="utf-8"?>
<svg xmlns="http://www.w3.org/2000/svg" xmlns:xlink="http://www.w3.org/1999/xlink" width="600" height="400" viewBox="0 0 2400 1600">
<defs>
  <clipPath id="clip210">
    <rect x="0" y="0" width="2400" height="1600"/>
  </clipPath>
</defs>
<path clip-path="url(#clip210)" d="
M0 1600 L2400 1600 L2400 0 L0 0  Z
  " fill="#ffffff" fill-rule="evenodd" fill-opacity="1"/>
<defs>
  <clipPath id="clip211">
    <rect x="480" y="0" width="1681" height="1600"/>
  </clipPath>
</defs>
<path clip-path="url(#clip210)" d="
M275.224 1439.5 L2352.76 1439.5 L2352.76 47.2441 L275.224 47.2441  Z
  " fill="#ffffff" fill-rule="evenodd" fill-opacity="1"/>
<defs>
  <clipPath id="clip212">
    <rect x="275" y="47" width="2079" height="1393"/>
  </clipPath>
</defs>
<polyline clip-path="url(#clip212)" style="stroke:#000000; stroke-width:2; stroke-opacity:0.1; fill:none" points="
  333.63,1439.5 333.63,47.2441 
  "/>
<polyline clip-path="url(#clip212)" style="stroke:#000000; stroke-width:2; stroke-opacity:0.1; fill:none" points="
  725.696,1439.5 725.696,47.2441 
  "/>
<polyline clip-path="url(#clip212)" style="stroke:#000000; stroke-width:2; stroke-opacity:0.1; fill:none" points="
  1117.76,1439.5 1117.76,47.2441 
  "/>
<polyline clip-path="url(#clip212)" style="stroke:#000000; stroke-width:2; stroke-opacity:0.1; fill:none" points="
  1509.83,1439.5 1509.83,47.2441 
  "/>
<polyline clip-path="url(#clip212)" style="stroke:#000000; stroke-width:2; stroke-opacity:0.1; fill:none" points="
  1901.89,1439.5 1901.89,47.2441 
  "/>
<polyline clip-path="url(#clip212)" style="stroke:#000000; stroke-width:2; stroke-opacity:0.1; fill:none" points="
  2293.96,1439.5 2293.96,47.2441 
  "/>
<polyline clip-path="url(#clip210)" style="stroke:#000000; stroke-width:4; stroke-opacity:1; fill:none" points="
  275.224,1439.5 2352.76,1439.5 
  "/>
<polyline clip-path="url(#clip210)" style="stroke:#000000; stroke-width:4; stroke-opacity:1; fill:none" points="
  333.63,1439.5 333.63,1422.79 
  "/>
<polyline clip-path="url(#clip210)" style="stroke:#000000; stroke-width:4; stroke-opacity:1; fill:none" points="
  725.696,1439.5 725.696,1422.79 
  "/>
<polyline clip-path="url(#clip210)" style="stroke:#000000; stroke-width:4; stroke-opacity:1; fill:none" points="
  1117.76,1439.5 1117.76,1422.79 
  "/>
<polyline clip-path="url(#clip210)" style="stroke:#000000; stroke-width:4; stroke-opacity:1; fill:none" points="
  1509.83,1439.5 1509.83,1422.79 
  "/>
<polyline clip-path="url(#clip210)" style="stroke:#000000; stroke-width:4; stroke-opacity:1; fill:none" points="
  1901.89,1439.5 1901.89,1422.79 
  "/>
<polyline clip-path="url(#clip210)" style="stroke:#000000; stroke-width:4; stroke-opacity:1; fill:none" points="
  2293.96,1439.5 2293.96,1422.79 
  "/>
<path clip-path="url(#clip210)" d="M 0 0 M333.63 1468.69 Q330.019 1468.69 328.19 1472.26 Q326.385 1475.8 326.385 1482.93 Q326.385 1490.04 328.19 1493.6 Q330.019 1497.14 333.63 1497.14 Q337.264 1497.14 339.07 1493.6 Q340.899 1490.04 340.899 1482.93 Q340.899 1475.8 339.07 1472.26 Q337.264 1468.69 333.63 1468.69 M333.63 1464.99 Q339.44 1464.99 342.496 1469.6 Q345.575 1474.18 345.575 1482.93 Q345.575 1491.66 342.496 1496.26 Q339.44 1500.85 333.63 1500.85 Q327.82 1500.85 324.741 1496.26 Q321.686 1491.66 321.686 1482.93 Q321.686 1474.18 324.741 1469.6 Q327.82 1464.99 333.63 1464.99 Z" fill="#000000" fill-rule="evenodd" fill-opacity="1" /><path clip-path="url(#clip210)" d="M 0 0 M685.302 1496.24 L692.941 1496.24 L692.941 1469.87 L684.631 1471.54 L684.631 1467.28 L692.895 1465.61 L697.571 1465.61 L697.571 1496.24 L705.21 1496.24 L705.21 1500.17 L685.302 1500.17 L685.302 1496.24 Z" fill="#000000" fill-rule="evenodd" fill-opacity="1" /><path clip-path="url(#clip210)" d="M 0 0 M724.654 1468.69 Q721.043 1468.69 719.214 1472.26 Q717.409 1475.8 717.409 1482.93 Q717.409 1490.04 719.214 1493.6 Q721.043 1497.14 724.654 1497.14 Q728.288 1497.14 730.094 1493.6 Q731.923 1490.04 731.923 1482.93 Q731.923 1475.8 730.094 1472.26 Q728.288 1468.69 724.654 1468.69 M724.654 1464.99 Q730.464 1464.99 733.52 1469.6 Q736.598 1474.18 736.598 1482.93 Q736.598 1491.66 733.52 1496.26 Q730.464 1500.85 724.654 1500.85 Q718.844 1500.85 715.765 1496.26 Q712.71 1491.66 712.71 1482.93 Q712.71 1474.18 715.765 1469.6 Q718.844 1464.99 724.654 1464.99 Z" fill="#000000" fill-rule="evenodd" fill-opacity="1" /><path clip-path="url(#clip210)" d="M 0 0 M754.816 1468.69 Q751.205 1468.69 749.376 1472.26 Q747.571 1475.8 747.571 1482.93 Q747.571 1490.04 749.376 1493.6 Q751.205 1497.14 754.816 1497.14 Q758.45 1497.14 760.256 1493.6 Q762.084 1490.04 762.084 1482.93 Q762.084 1475.8 760.256 1472.26 Q758.45 1468.69 754.816 1468.69 M754.816 1464.99 Q760.626 1464.99 763.682 1469.6 Q766.76 1474.18 766.76 1482.93 Q766.76 1491.66 763.682 1496.26 Q760.626 1500.85 754.816 1500.85 Q749.006 1500.85 745.927 1496.26 Q742.872 1491.66 742.872 1482.93 Q742.872 1474.18 745.927 1469.6 Q749.006 1464.99 754.816 1464.99 Z" fill="#000000" fill-rule="evenodd" fill-opacity="1" /><path clip-path="url(#clip210)" d="M 0 0 M1081.45 1496.24 L1097.77 1496.24 L1097.77 1500.17 L1075.83 1500.17 L1075.83 1496.24 Q1078.49 1493.48 1083.07 1488.85 Q1087.68 1484.2 1088.86 1482.86 Q1091.11 1480.34 1091.99 1478.6 Q1092.89 1476.84 1092.89 1475.15 Q1092.89 1472.4 1090.94 1470.66 Q1089.02 1468.92 1085.92 1468.92 Q1083.72 1468.92 1081.27 1469.69 Q1078.84 1470.45 1076.06 1472 L1076.06 1467.28 Q1078.88 1466.15 1081.34 1465.57 Q1083.79 1464.99 1085.83 1464.99 Q1091.2 1464.99 1094.39 1467.67 Q1097.59 1470.36 1097.59 1474.85 Q1097.59 1476.98 1096.78 1478.9 Q1095.99 1480.8 1093.88 1483.39 Q1093.31 1484.06 1090.2 1487.28 Q1087.1 1490.47 1081.45 1496.24 Z" fill="#000000" fill-rule="evenodd" fill-opacity="1" /><path clip-path="url(#clip210)" d="M 0 0 M1117.59 1468.69 Q1113.98 1468.69 1112.15 1472.26 Q1110.34 1475.8 1110.34 1482.93 Q1110.34 1490.04 1112.15 1493.6 Q1113.98 1497.14 1117.59 1497.14 Q1121.22 1497.14 1123.03 1493.6 Q1124.86 1490.04 1124.86 1482.93 Q1124.86 1475.8 1123.03 1472.26 Q1121.22 1468.69 1117.59 1468.69 M1117.59 1464.99 Q1123.4 1464.99 1126.45 1469.6 Q1129.53 1474.18 1129.53 1482.93 Q1129.53 1491.66 1126.45 1496.26 Q1123.4 1500.85 1117.59 1500.85 Q1111.78 1500.85 1108.7 1496.26 Q1105.64 1491.66 1105.64 1482.93 Q1105.64 1474.18 1108.7 1469.6 Q1111.78 1464.99 1117.59 1464.99 Z" fill="#000000" fill-rule="evenodd" fill-opacity="1" /><path clip-path="url(#clip210)" d="M 0 0 M1147.75 1468.69 Q1144.14 1468.69 1142.31 1472.26 Q1140.5 1475.8 1140.5 1482.93 Q1140.5 1490.04 1142.31 1493.6 Q1144.14 1497.14 1147.75 1497.14 Q1151.38 1497.14 1153.19 1493.6 Q1155.02 1490.04 1155.02 1482.93 Q1155.02 1475.8 1153.19 1472.26 Q1151.38 1468.69 1147.75 1468.69 M1147.75 1464.99 Q1153.56 1464.99 1156.62 1469.6 Q1159.69 1474.18 1159.69 1482.93 Q1159.69 1491.66 1156.62 1496.26 Q1153.56 1500.85 1147.75 1500.85 Q1141.94 1500.85 1138.86 1496.26 Q1135.81 1491.66 1135.81 1482.93 Q1135.81 1474.18 1138.86 1469.6 Q1141.94 1464.99 1147.75 1464.99 Z" fill="#000000" fill-rule="evenodd" fill-opacity="1" /><path clip-path="url(#clip210)" d="M 0 0 M1483.59 1481.54 Q1486.94 1482.26 1488.82 1484.53 Q1490.72 1486.79 1490.72 1490.13 Q1490.72 1495.24 1487.2 1498.04 Q1483.68 1500.85 1477.2 1500.85 Q1475.02 1500.85 1472.71 1500.41 Q1470.42 1499.99 1467.96 1499.13 L1467.96 1494.62 Q1469.91 1495.75 1472.22 1496.33 Q1474.54 1496.91 1477.06 1496.91 Q1481.46 1496.91 1483.75 1495.17 Q1486.07 1493.44 1486.07 1490.13 Q1486.07 1487.07 1483.91 1485.36 Q1481.78 1483.62 1477.96 1483.62 L1473.94 1483.62 L1473.94 1479.78 L1478.15 1479.78 Q1481.6 1479.78 1483.43 1478.41 Q1485.26 1477.03 1485.26 1474.43 Q1485.26 1471.77 1483.36 1470.36 Q1481.48 1468.92 1477.96 1468.92 Q1476.04 1468.92 1473.84 1469.34 Q1471.64 1469.76 1469.01 1470.64 L1469.01 1466.47 Q1471.67 1465.73 1473.98 1465.36 Q1476.32 1464.99 1478.38 1464.99 Q1483.7 1464.99 1486.81 1467.42 Q1489.91 1469.83 1489.91 1473.95 Q1489.91 1476.82 1488.26 1478.81 Q1486.62 1480.78 1483.59 1481.54 Z" fill="#000000" fill-rule="evenodd" fill-opacity="1" /><path clip-path="url(#clip210)" d="M 0 0 M1509.58 1468.69 Q1505.97 1468.69 1504.14 1472.26 Q1502.34 1475.8 1502.34 1482.93 Q1502.34 1490.04 1504.14 1493.6 Q1505.97 1497.14 1509.58 1497.14 Q1513.22 1497.14 1515.02 1493.6 Q1516.85 1490.04 1516.85 1482.93 Q1516.85 1475.8 1515.02 1472.26 Q1513.22 1468.69 1509.58 1468.69 M1509.58 1464.99 Q1515.39 1464.99 1518.45 1469.6 Q1521.53 1474.18 1521.53 1482.93 Q1521.53 1491.66 1518.45 1496.26 Q1515.39 1500.85 1509.58 1500.85 Q1503.77 1500.85 1500.69 1496.26 Q1497.64 1491.66 1497.64 1482.93 Q1497.64 1474.18 1500.69 1469.6 Q1503.77 1464.99 1509.58 1464.99 Z" fill="#000000" fill-rule="evenodd" fill-opacity="1" /><path clip-path="url(#clip210)" d="M 0 0 M1539.75 1468.69 Q1536.13 1468.69 1534.31 1472.26 Q1532.5 1475.8 1532.5 1482.93 Q1532.5 1490.04 1534.31 1493.6 Q1536.13 1497.14 1539.75 1497.14 Q1543.38 1497.14 1545.19 1493.6 Q1547.01 1490.04 1547.01 1482.93 Q1547.01 1475.8 1545.19 1472.26 Q1543.38 1468.69 1539.75 1468.69 M1539.75 1464.99 Q1545.56 1464.99 1548.61 1469.6 Q1551.69 1474.18 1551.69 1482.93 Q1551.69 1491.66 1548.61 1496.26 Q1545.56 1500.85 1539.75 1500.85 Q1533.94 1500.85 1530.86 1496.26 Q1527.8 1491.66 1527.8 1482.93 Q1527.8 1474.18 1530.86 1469.6 Q1533.94 1464.99 1539.75 1464.99 Z" fill="#000000" fill-rule="evenodd" fill-opacity="1" /><path clip-path="url(#clip210)" d="M 0 0 M1874.98 1469.69 L1863.18 1488.14 L1874.98 1488.14 L1874.98 1469.69 M1873.76 1465.61 L1879.64 1465.61 L1879.64 1488.14 L1884.57 1488.14 L1884.57 1492.03 L1879.64 1492.03 L1879.64 1500.17 L1874.98 1500.17 L1874.98 1492.03 L1859.38 1492.03 L1859.38 1487.51 L1873.76 1465.61 Z" fill="#000000" fill-rule="evenodd" fill-opacity="1" /><path clip-path="url(#clip210)" d="M 0 0 M1902.3 1468.69 Q1898.69 1468.69 1896.86 1472.26 Q1895.05 1475.8 1895.05 1482.93 Q1895.05 1490.04 1896.86 1493.6 Q1898.69 1497.14 1902.3 1497.14 Q1905.93 1497.14 1907.74 1493.6 Q1909.57 1490.04 1909.57 1482.93 Q1909.57 1475.8 1907.74 1472.26 Q1905.93 1468.69 1902.3 1468.69 M1902.3 1464.99 Q1908.11 1464.99 1911.16 1469.6 Q1914.24 1474.18 1914.24 1482.93 Q1914.24 1491.66 1911.16 1496.26 Q1908.11 1500.85 1902.3 1500.85 Q1896.49 1500.85 1893.41 1496.26 Q1890.35 1491.66 1890.35 1482.93 Q1890.35 1474.18 1893.41 1469.6 Q1896.49 1464.99 1902.3 1464.99 Z" fill="#000000" fill-rule="evenodd" fill-opacity="1" /><path clip-path="url(#clip210)" d="M 0 0 M1932.46 1468.69 Q1928.85 1468.69 1927.02 1472.26 Q1925.21 1475.8 1925.21 1482.93 Q1925.21 1490.04 1927.02 1493.6 Q1928.85 1497.14 1932.46 1497.14 Q1936.09 1497.14 1937.9 1493.6 Q1939.73 1490.04 1939.73 1482.93 Q1939.73 1475.8 1937.9 1472.26 Q1936.09 1468.69 1932.46 1468.69 M1932.46 1464.99 Q1938.27 1464.99 1941.32 1469.6 Q1944.4 1474.18 1944.4 1482.93 Q1944.4 1491.66 1941.32 1496.26 Q1938.27 1500.85 1932.46 1500.85 Q1926.65 1500.85 1923.57 1496.26 Q1920.51 1491.66 1920.51 1482.93 Q1920.51 1474.18 1923.57 1469.6 Q1926.65 1464.99 1932.46 1464.99 Z" fill="#000000" fill-rule="evenodd" fill-opacity="1" /><path clip-path="url(#clip210)" d="M 0 0 M2253.58 1465.61 L2271.93 1465.61 L2271.93 1469.55 L2257.86 1469.55 L2257.86 1478.02 Q2258.88 1477.67 2259.9 1477.51 Q2260.91 1477.33 2261.93 1477.33 Q2267.72 1477.33 2271.1 1480.5 Q2274.48 1483.67 2274.48 1489.09 Q2274.48 1494.66 2271.01 1497.77 Q2267.53 1500.85 2261.21 1500.85 Q2259.04 1500.85 2256.77 1500.47 Q2254.53 1500.1 2252.12 1499.36 L2252.12 1494.66 Q2254.2 1495.8 2256.42 1496.35 Q2258.65 1496.91 2261.12 1496.91 Q2265.13 1496.91 2267.46 1494.8 Q2269.8 1492.7 2269.8 1489.09 Q2269.8 1485.47 2267.46 1483.37 Q2265.13 1481.26 2261.12 1481.26 Q2259.25 1481.26 2257.37 1481.68 Q2255.52 1482.1 2253.58 1482.97 L2253.58 1465.61 Z" fill="#000000" fill-rule="evenodd" fill-opacity="1" /><path clip-path="url(#clip210)" d="M 0 0 M2293.69 1468.69 Q2290.08 1468.69 2288.25 1472.26 Q2286.45 1475.8 2286.45 1482.93 Q2286.45 1490.04 2288.25 1493.6 Q2290.08 1497.14 2293.69 1497.14 Q2297.33 1497.14 2299.13 1493.6 Q2300.96 1490.04 2300.96 1482.93 Q2300.96 1475.8 2299.13 1472.26 Q2297.33 1468.69 2293.69 1468.69 M2293.69 1464.99 Q2299.5 1464.99 2302.56 1469.6 Q2305.64 1474.18 2305.64 1482.93 Q2305.64 1491.66 2302.56 1496.26 Q2299.5 1500.85 2293.69 1500.85 Q2287.88 1500.85 2284.8 1496.26 Q2281.75 1491.66 2281.75 1482.93 Q2281.75 1474.18 2284.8 1469.6 Q2287.88 1464.99 2293.69 1464.99 Z" fill="#000000" fill-rule="evenodd" fill-opacity="1" /><path clip-path="url(#clip210)" d="M 0 0 M2323.85 1468.69 Q2320.24 1468.69 2318.41 1472.26 Q2316.61 1475.8 2316.61 1482.93 Q2316.61 1490.04 2318.41 1493.6 Q2320.24 1497.14 2323.85 1497.14 Q2327.49 1497.14 2329.29 1493.6 Q2331.12 1490.04 2331.12 1482.93 Q2331.12 1475.8 2329.29 1472.26 Q2327.49 1468.69 2323.85 1468.69 M2323.85 1464.99 Q2329.66 1464.99 2332.72 1469.6 Q2335.8 1474.18 2335.8 1482.93 Q2335.8 1491.66 2332.72 1496.26 Q2329.66 1500.85 2323.85 1500.85 Q2318.04 1500.85 2314.96 1496.26 Q2311.91 1491.66 2311.91 1482.93 Q2311.91 1474.18 2314.96 1469.6 Q2318.04 1464.99 2323.85 1464.99 Z" fill="#000000" fill-rule="evenodd" fill-opacity="1" /><path clip-path="url(#clip210)" d="M 0 0 M1325.92 1535.75 Q1325.92 1541.16 1324.19 1547.24 Q1322.48 1553.3 1319.77 1558.19 Q1317.07 1563.06 1313.53 1566.28 Q1309.98 1569.47 1306.6 1569.47 Q1304.44 1569.47 1302.83 1568.27 Q1301.26 1567.05 1300.39 1565.02 Q1299.52 1562.96 1299.1 1560.71 Q1298.68 1558.42 1298.68 1555.94 Q1298.68 1552.24 1299.48 1548.21 Q1300.29 1544.15 1301.64 1540.48 Q1302.99 1536.78 1304.89 1533.43 Q1306.79 1530.05 1308.89 1527.6 Q1311.01 1525.12 1313.4 1523.67 Q1315.78 1522.22 1318 1522.22 Q1319.61 1522.22 1320.9 1522.93 Q1322.22 1523.6 1323.06 1524.8 Q1323.9 1525.96 1324.48 1527.34 Q1325.09 1528.73 1325.38 1530.34 Q1325.67 1531.91 1325.8 1533.23 Q1325.92 1534.52 1325.92 1535.75 M1321.58 1531.66 Q1321.58 1530.01 1321.45 1528.79 Q1321.32 1527.53 1320.97 1526.28 Q1320.61 1525.02 1319.84 1524.35 Q1319.1 1523.67 1317.94 1523.67 Q1314.56 1523.67 1310.76 1530.59 Q1309.53 1532.75 1308.44 1535.68 Q1307.34 1538.61 1306.96 1540 Q1306.57 1541.38 1305.67 1544.8 L1319.45 1544.8 Q1321.58 1536 1321.58 1531.66 M1318.87 1546.89 L1305.15 1546.89 Q1303.03 1554.94 1303.03 1559.96 Q1303.03 1564.34 1303.93 1566.18 Q1304.86 1567.98 1306.6 1567.98 Q1308.6 1567.98 1310.47 1565.99 Q1312.33 1563.96 1314.23 1560.29 Q1316.75 1555.52 1318.87 1546.89 Z" fill="#000000" fill-rule="evenodd" fill-opacity="1" /><polyline clip-path="url(#clip212)" style="stroke:#000000; stroke-width:2; stroke-opacity:0.1; fill:none" points="
  275.224,1270.5 2352.76,1270.5 
  "/>
<polyline clip-path="url(#clip212)" style="stroke:#000000; stroke-width:2; stroke-opacity:0.1; fill:none" points="
  275.224,930.471 2352.76,930.471 
  "/>
<polyline clip-path="url(#clip212)" style="stroke:#000000; stroke-width:2; stroke-opacity:0.1; fill:none" points="
  275.224,590.438 2352.76,590.438 
  "/>
<polyline clip-path="url(#clip212)" style="stroke:#000000; stroke-width:2; stroke-opacity:0.1; fill:none" points="
  275.224,250.406 2352.76,250.406 
  "/>
<polyline clip-path="url(#clip210)" style="stroke:#000000; stroke-width:4; stroke-opacity:1; fill:none" points="
  275.224,1439.5 275.224,47.2441 
  "/>
<polyline clip-path="url(#clip210)" style="stroke:#000000; stroke-width:4; stroke-opacity:1; fill:none" points="
  275.224,1270.5 300.155,1270.5 
  "/>
<polyline clip-path="url(#clip210)" style="stroke:#000000; stroke-width:4; stroke-opacity:1; fill:none" points="
  275.224,930.471 300.155,930.471 
  "/>
<polyline clip-path="url(#clip210)" style="stroke:#000000; stroke-width:4; stroke-opacity:1; fill:none" points="
  275.224,590.438 300.155,590.438 
  "/>
<polyline clip-path="url(#clip210)" style="stroke:#000000; stroke-width:4; stroke-opacity:1; fill:none" points="
  275.224,250.406 300.155,250.406 
  "/>
<path clip-path="url(#clip210)" d="M 0 0 M147.35 1270.95 L177.025 1270.95 L177.025 1274.89 L147.35 1274.89 L147.35 1270.95 Z" fill="#000000" fill-rule="evenodd" fill-opacity="1" /><path clip-path="url(#clip210)" d="M 0 0 M191.146 1283.85 L207.465 1283.85 L207.465 1287.78 L185.521 1287.78 L185.521 1283.85 Q188.183 1281.09 192.766 1276.46 Q197.373 1271.81 198.553 1270.47 Q200.798 1267.94 201.678 1266.21 Q202.581 1264.45 202.581 1262.76 Q202.581 1260.01 200.636 1258.27 Q198.715 1256.53 195.613 1256.53 Q193.414 1256.53 190.961 1257.3 Q188.53 1258.06 185.752 1259.61 L185.752 1254.89 Q188.576 1253.76 191.03 1253.18 Q193.484 1252.6 195.521 1252.6 Q200.891 1252.6 204.085 1255.28 Q207.28 1257.97 207.28 1262.46 Q207.28 1264.59 206.47 1266.51 Q205.683 1268.41 203.576 1271 Q202.997 1271.67 199.896 1274.89 Q196.794 1278.08 191.146 1283.85 Z" fill="#000000" fill-rule="evenodd" fill-opacity="1" /><path clip-path="url(#clip210)" d="M 0 0 M227.28 1256.3 Q223.669 1256.3 221.84 1259.87 Q220.034 1263.41 220.034 1270.54 Q220.034 1277.64 221.84 1281.21 Q223.669 1284.75 227.28 1284.75 Q230.914 1284.75 232.72 1281.21 Q234.548 1277.64 234.548 1270.54 Q234.548 1263.41 232.72 1259.87 Q230.914 1256.3 227.28 1256.3 M227.28 1252.6 Q233.09 1252.6 236.145 1257.2 Q239.224 1261.79 239.224 1270.54 Q239.224 1279.26 236.145 1283.87 Q233.09 1288.45 227.28 1288.45 Q221.47 1288.45 218.391 1283.87 Q215.335 1279.26 215.335 1270.54 Q215.335 1261.79 218.391 1257.2 Q221.47 1252.6 227.28 1252.6 Z" fill="#000000" fill-rule="evenodd" fill-opacity="1" /><path clip-path="url(#clip210)" d="M 0 0 M147.35 930.922 L177.025 930.922 L177.025 934.857 L147.35 934.857 L147.35 930.922 Z" fill="#000000" fill-rule="evenodd" fill-opacity="1" /><path clip-path="url(#clip210)" d="M 0 0 M187.928 943.815 L195.567 943.815 L195.567 917.45 L187.257 919.116 L187.257 914.857 L195.521 913.191 L200.197 913.191 L200.197 943.815 L207.835 943.815 L207.835 947.751 L187.928 947.751 L187.928 943.815 Z" fill="#000000" fill-rule="evenodd" fill-opacity="1" /><path clip-path="url(#clip210)" d="M 0 0 M227.28 916.269 Q223.669 916.269 221.84 919.834 Q220.034 923.376 220.034 930.505 Q220.034 937.612 221.84 941.177 Q223.669 944.718 227.28 944.718 Q230.914 944.718 232.72 941.177 Q234.548 937.612 234.548 930.505 Q234.548 923.376 232.72 919.834 Q230.914 916.269 227.28 916.269 M227.28 912.566 Q233.09 912.566 236.145 917.172 Q239.224 921.755 239.224 930.505 Q239.224 939.232 236.145 943.839 Q233.09 948.422 227.28 948.422 Q221.47 948.422 218.391 943.839 Q215.335 939.232 215.335 930.505 Q215.335 921.755 218.391 917.172 Q221.47 912.566 227.28 912.566 Z" fill="#000000" fill-rule="evenodd" fill-opacity="1" /><path clip-path="url(#clip210)" d="M 0 0 M227.28 576.237 Q223.669 576.237 221.84 579.802 Q220.034 583.344 220.034 590.473 Q220.034 597.58 221.84 601.144 Q223.669 604.686 227.28 604.686 Q230.914 604.686 232.72 601.144 Q234.548 597.58 234.548 590.473 Q234.548 583.344 232.72 579.802 Q230.914 576.237 227.28 576.237 M227.28 572.533 Q233.09 572.533 236.145 577.14 Q239.224 581.723 239.224 590.473 Q239.224 599.2 236.145 603.806 Q233.09 608.39 227.28 608.39 Q221.47 608.39 218.391 603.806 Q215.335 599.2 215.335 590.473 Q215.335 581.723 218.391 577.14 Q221.47 572.533 227.28 572.533 Z" fill="#000000" fill-rule="evenodd" fill-opacity="1" /><path clip-path="url(#clip210)" d="M 0 0 M187.928 263.751 L195.567 263.751 L195.567 237.386 L187.257 239.052 L187.257 234.793 L195.521 233.126 L200.197 233.126 L200.197 263.751 L207.835 263.751 L207.835 267.686 L187.928 267.686 L187.928 263.751 Z" fill="#000000" fill-rule="evenodd" fill-opacity="1" /><path clip-path="url(#clip210)" d="M 0 0 M227.28 236.205 Q223.669 236.205 221.84 239.77 Q220.034 243.311 220.034 250.441 Q220.034 257.548 221.84 261.112 Q223.669 264.654 227.28 264.654 Q230.914 264.654 232.72 261.112 Q234.548 257.548 234.548 250.441 Q234.548 243.311 232.72 239.77 Q230.914 236.205 227.28 236.205 M227.28 232.501 Q233.09 232.501 236.145 237.108 Q239.224 241.691 239.224 250.441 Q239.224 259.168 236.145 263.774 Q233.09 268.358 227.28 268.358 Q221.47 268.358 218.391 263.774 Q215.335 259.168 215.335 250.441 Q215.335 241.691 218.391 237.108 Q221.47 232.501 227.28 232.501 Z" fill="#000000" fill-rule="evenodd" fill-opacity="1" /><path clip-path="url(#clip210)" d="M 0 0 M60.9719 807.63 L77.3969 813.298 L77.3969 867.983 Q77.3969 868.724 77.3647 869.014 Q77.3325 869.304 77.1714 869.529 Q77.0104 869.755 76.6561 869.755 Q76.3663 869.755 75.6255 869.175 L46.6725 845.761 L13.5648 869.819 Q12.0512 869.819 11.7613 869.561 Q11.4393 869.304 11.4393 867.983 L11.4393 813.298 L26.8659 807.63 L26.8659 809.272 Q24.8691 810.013 23.1944 811.204 Q21.4875 812.364 20.2637 813.717 Q19.0398 815.037 18.0737 816.776 Q17.0753 818.483 16.4634 820.093 Q15.8193 821.671 15.3684 823.636 Q14.8853 825.6 14.6598 827.179 Q14.4022 828.724 14.2734 830.657 Q14.1446 832.589 14.1123 833.813 Q14.0801 835.037 14.0801 836.583 L14.0801 862.702 L43.4841 841.285 Q44.2248 840.802 44.4181 840.802 Q44.7079 840.802 45.4809 841.414 L73.7576 864.28 L73.7576 836.261 Q73.7576 827.243 71.8575 820.963 Q70.4082 816.712 67.5419 813.62 Q64.6756 810.496 60.9719 809.272 L60.9719 807.63 Z" fill="#000000" fill-rule="evenodd" fill-opacity="1" /><path clip-path="url(#clip210)" d="M 0 0 M103.539 878.807 Q104.17 878.807 104.328 879.1 Q104.463 879.393 104.463 880.205 L104.463 884.533 L118.08 887.96 Q119.275 888.231 120.289 888.231 Q121.417 888.231 121.913 887.892 Q122.408 887.532 122.408 886.788 Q122.408 885.322 121.078 883.744 Q119.748 882.144 116.502 880.791 Q116.074 880.611 115.983 880.521 Q115.871 880.408 115.871 880.115 Q115.871 879.551 116.322 879.551 Q116.479 879.551 117.201 879.867 Q117.922 880.16 118.982 880.814 Q120.041 881.445 121.033 882.279 Q122.025 883.091 122.747 884.331 Q123.446 885.57 123.446 886.901 Q123.446 888.772 122.251 889.967 Q121.056 891.139 119.185 891.139 Q118.576 891.139 116.637 890.665 Q114.676 890.192 104.463 887.622 L104.463 891.702 Q104.463 892.266 104.441 892.491 Q104.418 892.694 104.306 892.852 Q104.17 892.987 103.9 892.987 Q103.471 892.987 103.291 892.807 Q103.088 892.627 103.066 892.401 Q103.021 892.153 103.021 891.59 L103.021 887.261 L95.6937 885.458 Q94.9723 885.277 94.5665 884.826 Q94.1382 884.353 94.0931 884.083 Q94.0255 883.812 94.0255 883.609 Q94.0255 883 94.3636 882.64 Q94.6792 882.279 95.2654 882.279 Q95.581 882.279 103.021 884.173 L103.021 880.115 Q103.021 879.596 103.043 879.393 Q103.066 879.168 103.178 878.988 Q103.291 878.807 103.539 878.807 Z" fill="#000000" fill-rule="evenodd" fill-opacity="1" /><path clip-path="url(#clip210)" d="M 0 0 M115.916 863.675 Q115.352 863.629 115.352 862.75 L115.352 834.457 Q115.352 833.127 115.871 833.105 Q116.434 833.105 116.412 834.367 L116.412 862.435 Q116.434 863.675 115.916 863.675 M106.898 863.675 Q106.335 863.675 106.357 862.705 L106.357 834.502 Q106.357 833.127 106.898 833.105 Q107.417 833.105 107.417 834.277 L107.417 862.75 Q107.417 863.675 106.898 863.675 Z" fill="#000000" fill-rule="evenodd" fill-opacity="1" /><path clip-path="url(#clip210)" d="M 0 0 M96.5729 815.293 L95.1301 815.293 Q95.1301 809.747 92.1768 806.884 Q92.1768 806.095 92.3572 805.959 Q92.5375 805.824 93.3717 805.824 L119.275 805.824 Q120.65 805.824 121.078 805.148 Q121.507 804.472 121.507 801.518 L121.507 800.053 L122.927 800.053 Q122.792 801.676 122.792 807.538 Q122.792 813.399 122.927 815 L121.507 815 L121.507 813.534 Q121.507 810.626 121.101 809.927 Q120.673 809.228 119.275 809.228 L95.3556 809.228 Q96.5729 811.641 96.5729 815.293 Z" fill="#000000" fill-rule="evenodd" fill-opacity="1" /><path clip-path="url(#clip210)" d="M 0 0 M16.9787 740.525 Q17.5906 740.525 18.1059 740.654 L29.5712 742.457 Q30.4407 742.554 30.7628 742.747 Q31.0848 742.908 31.0848 743.424 Q31.0848 744.229 30.2475 744.229 Q29.7644 744.229 28.9915 744.036 Q25.3522 743.488 23.7097 743.488 Q22.6147 743.488 21.8095 743.713 Q20.9722 743.907 20.3925 744.229 Q19.8128 744.519 19.4263 745.195 Q19.0398 745.871 18.8144 746.515 Q18.589 747.159 18.4923 748.319 Q18.3635 749.478 18.3313 750.477 Q18.2991 751.475 18.2991 753.118 Q18.2991 756.692 18.4279 757.272 Q18.589 757.884 19.0721 758.206 Q19.5229 758.496 20.8756 758.818 L55.8834 767.578 L57.2682 767.836 Q58.0411 767.836 58.2988 767.353 Q58.5564 766.869 58.7175 765.388 Q58.8785 763.262 58.8785 761.169 Q58.8785 761.105 58.8785 760.976 Q58.8785 760.267 58.9107 759.977 Q58.9107 759.688 58.9751 759.398 Q59.0395 759.108 59.2006 759.043 Q59.3294 758.947 59.587 758.947 Q60.1989 758.947 60.521 759.204 Q60.8108 759.462 60.8753 759.72 Q60.9075 759.945 60.9075 760.396 Q60.9075 761.298 60.8431 763.23 Q60.7786 765.163 60.7786 766.129 L60.7142 771.604 L60.7786 777.208 Q60.7786 778.077 60.8431 779.913 Q60.9075 781.749 60.9075 782.618 Q60.9075 783.745 60.1023 783.745 Q59.2006 783.745 59.0395 783.327 Q58.8785 782.876 58.8785 780.976 Q58.8785 778.303 58.7497 776.853 Q58.6208 775.404 58.17 774.631 Q57.7191 773.826 57.2682 773.601 Q56.7851 773.375 55.6901 773.117 L20.4891 764.261 Q19.7162 764.003 19.1043 764.003 Q18.7822 764.003 18.6534 764.1 Q18.5246 764.164 18.4279 764.583 Q18.2991 765.002 18.2991 765.871 L18.2991 768.448 Q18.2991 771.088 18.4279 772.731 Q18.5246 774.341 19.0076 775.887 Q19.4907 777.401 20.1671 778.303 Q20.8434 779.172 22.2282 780.138 Q23.6131 781.104 25.2878 781.813 Q26.9625 782.489 29.7 783.455 Q30.6017 783.778 30.8594 783.971 Q31.0848 784.132 31.0848 784.583 Q31.0848 784.905 30.8916 785.162 Q30.6662 785.388 30.3763 785.388 Q29.3135 785.066 29.1847 785.001 L17.5584 781.04 Q16.6244 780.718 16.4634 780.428 Q16.2701 780.106 16.2701 778.914 L16.2701 742.329 Q16.2701 741.749 16.2701 741.556 Q16.2701 741.362 16.3346 741.04 Q16.399 740.718 16.56 740.622 Q16.721 740.525 16.9787 740.525 Z" fill="#000000" fill-rule="evenodd" fill-opacity="1" /><path clip-path="url(#clip210)" d="M 0 0 M8.06077 715.549 L8.98508 716.113 Q7.47462 719.607 5.0624 723.958 Q7.47462 728.309 8.98508 731.804 L8.06077 732.345 Q4.74679 728.535 2.1993 723.958 Q4.76933 719.337 8.06077 715.549 Z" fill="#000000" fill-rule="evenodd" fill-opacity="1" /><path clip-path="url(#clip210)" d="M 0 0 M16.6566 699.283 Q17.0753 699.283 17.3329 699.379 Q17.5906 699.444 17.7194 699.701 Q17.816 699.927 17.8482 700.088 Q17.8804 700.217 17.9126 700.603 Q18.0415 702.181 18.4601 703.502 Q18.8466 704.822 19.6196 705.949 Q20.3925 707.044 20.9078 707.656 Q21.4231 708.236 22.4537 709.267 L23.3876 710.168 L42.1637 726.529 Q42.8078 727.109 44.2248 727.463 L53.5323 729.782 Q57.397 730.683 57.6869 730.683 Q58.2666 730.683 58.4598 730.361 Q58.6208 730.007 58.7175 728.912 L58.8785 726.4 Q58.8785 724.919 59.1361 724.693 Q59.2972 724.564 59.587 724.564 Q60.1989 724.564 60.521 724.822 Q60.8108 725.047 60.8753 725.273 Q60.9075 725.466 60.9075 725.82 L60.7142 734.258 L60.9075 742.567 Q60.9075 743.501 60.1667 743.501 Q59.6836 743.501 59.426 743.437 Q59.1361 743.34 59.0395 743.05 Q58.9107 742.761 58.9107 742.535 Q58.8785 742.31 58.8785 741.698 Q58.8463 740.216 58.8463 739.476 Q58.8141 738.703 58.6208 737.962 Q58.4276 737.221 58.2988 736.964 Q58.1378 736.674 57.5903 736.352 Q57.0106 735.997 56.5597 735.901 Q56.1088 735.772 54.9816 735.514 Q53.9832 735.257 48.5404 733.904 Q43.0976 732.551 42.9688 732.551 Q42.6145 732.551 41.8416 732.809 L20.1348 740.925 Q19.1687 741.279 18.7822 741.569 Q18.3957 741.859 18.1703 742.825 Q17.9126 743.791 17.9126 745.724 Q17.9126 746.271 17.8804 746.529 Q17.8482 746.786 17.6872 747.012 Q17.5262 747.237 17.1719 747.237 Q16.56 747.237 16.2701 746.98 Q15.9481 746.722 15.9159 746.529 Q15.8515 746.303 15.8515 745.981 Q15.8515 745.176 15.9481 742.31 Q16.0447 739.443 16.0447 738.606 L15.8515 730.297 Q15.8515 729.299 16.5922 729.299 Q17.494 729.299 17.7194 729.653 Q17.9126 730.007 17.9126 730.877 Q17.9126 734.774 19.4907 734.774 Q19.684 734.774 20.6179 734.387 L40.1991 727.141 L22.5825 711.843 L22.3248 711.618 Q22.0672 711.424 21.874 711.263 Q21.6807 711.102 21.3265 710.845 Q20.9722 710.587 20.6823 710.458 Q20.3925 710.297 20.0382 710.168 Q19.684 710.039 19.4263 710.039 Q18.9432 710.039 18.6212 710.329 Q18.2669 710.619 18.1381 711.07 Q18.0093 711.521 17.9771 711.843 Q17.9126 712.165 17.9126 712.423 Q17.9126 713.421 17.1075 713.421 Q16.5278 713.421 16.2379 713.163 Q15.9159 712.906 15.8837 712.713 Q15.8515 712.487 15.8515 712.165 Q15.8515 711.102 15.9481 708.88 Q16.0447 706.658 16.0447 705.563 Q16.0447 704.661 15.9481 702.825 Q15.8515 700.99 15.8515 700.152 Q15.8515 699.283 16.6566 699.283 Z" fill="#000000" fill-rule="evenodd" fill-opacity="1" /><path clip-path="url(#clip210)" d="M 0 0 M58.6936 688.09 Q59.3248 688.09 59.4826 688.383 Q59.6179 688.676 59.6179 689.487 L59.6179 693.816 L73.2345 697.243 Q74.4294 697.513 75.4439 697.513 Q76.5711 697.513 77.067 697.175 Q77.563 696.814 77.563 696.07 Q77.563 694.605 76.2329 693.027 Q74.9028 691.426 71.6565 690.074 Q71.2281 689.893 71.1379 689.803 Q71.0252 689.69 71.0252 689.397 Q71.0252 688.834 71.4761 688.834 Q71.6339 688.834 72.3553 689.149 Q73.0767 689.442 74.1363 690.096 Q75.1959 690.727 76.1878 691.561 Q77.1798 692.373 77.9012 693.613 Q78.6 694.853 78.6 696.183 Q78.6 698.054 77.4052 699.249 Q76.2104 700.421 74.3392 700.421 Q73.7305 700.421 71.7917 699.948 Q69.8304 699.474 59.6179 696.904 L59.6179 700.985 Q59.6179 701.549 59.5954 701.774 Q59.5728 701.977 59.4601 702.135 Q59.3248 702.27 59.0543 702.27 Q58.626 702.27 58.4456 702.09 Q58.2427 701.909 58.2202 701.684 Q58.1751 701.436 58.1751 700.872 L58.1751 696.544 L50.8483 694.74 Q50.1268 694.56 49.721 694.109 Q49.2927 693.636 49.2476 693.365 Q49.18 693.094 49.18 692.892 Q49.18 692.283 49.5181 691.922 Q49.8338 691.561 50.4199 691.561 Q50.7355 691.561 58.1751 693.455 L58.1751 689.397 Q58.1751 688.879 58.1976 688.676 Q58.2202 688.45 58.3329 688.27 Q58.4456 688.09 58.6936 688.09 Z" fill="#000000" fill-rule="evenodd" fill-opacity="1" /><path clip-path="url(#clip210)" d="M 0 0 M44.4181 678.729 Q33.2748 678.729 24.2894 674.574 Q20.5213 672.803 17.3651 670.323 Q14.209 667.843 12.8241 666.201 Q11.4393 664.558 11.4393 664.107 Q11.4393 663.463 12.0834 663.431 Q12.4054 663.431 13.2106 664.301 Q24.0318 674.929 44.4181 674.896 Q64.8688 674.896 75.2713 664.558 Q76.3985 663.431 76.7527 663.431 Q77.3969 663.431 77.3969 664.107 Q77.3969 664.558 76.0764 666.136 Q74.756 667.714 71.7286 670.162 Q68.7013 672.61 64.9976 674.381 Q56.0122 678.729 44.4181 678.729 Z" fill="#000000" fill-rule="evenodd" fill-opacity="1" /><path clip-path="url(#clip210)" d="M 0 0 M24.7081 653.401 Q19.0398 653.401 15.2396 650.503 Q11.4393 647.604 11.4393 643.707 Q11.4393 641.324 13.5648 638.973 Q18.6534 633.627 18.6212 626.638 Q18.6212 618.716 12.3732 614.11 Q11.4393 613.305 11.4393 612.725 Q11.4393 612.21 11.8579 611.824 Q12.2444 611.405 12.7597 611.405 Q13.1462 611.405 13.9513 611.92 L63.6128 645.286 Q64.6111 646.026 64.6111 646.606 Q64.6111 647.121 64.1925 647.54 Q63.806 647.926 63.2907 647.926 Q62.8398 647.926 61.9703 647.347 L17.8482 617.717 L17.7838 617.782 Q20.1026 621.196 20.0704 626.574 Q20.0704 631.662 17.3007 636.526 Q20.7145 635.141 24.7725 635.141 Q30.3119 635.141 34.1766 637.621 Q38.0091 640.1 38.0091 643.707 Q38.0091 647.604 34.2732 650.503 Q30.5051 653.401 24.7081 653.401 M19.3297 648.86 Q21.6485 649.311 24.7725 649.311 Q27.8643 649.311 30.1831 648.86 Q32.4697 648.41 33.6613 647.765 Q34.8529 647.089 35.5615 646.187 Q36.2378 645.286 36.3988 644.738 Q36.5598 644.191 36.5598 643.643 Q36.5598 640.938 33.2104 638.877 Q29.8288 636.783 24.7081 636.783 Q19.684 636.783 16.3023 638.877 Q12.8885 640.938 12.8885 643.643 Q12.8885 644.223 13.0496 644.802 Q13.2106 645.35 13.9191 646.22 Q14.5954 647.089 15.7871 647.765 Q16.9787 648.41 19.3297 648.86 M51.2779 624.191 Q45.6097 624.191 41.8094 621.292 Q38.0091 618.394 38.0091 614.497 Q38.0091 610.922 41.8738 608.442 Q45.7385 605.93 51.3423 605.93 Q56.8817 605.93 60.7464 608.41 Q64.6111 610.857 64.6111 614.497 Q64.6111 618.394 60.8431 621.292 Q57.075 624.191 51.2779 624.191 M45.8995 619.65 Q48.2506 620.101 51.3423 620.101 Q54.4341 620.101 56.7529 619.65 Q59.0717 619.167 60.2633 618.522 Q61.4228 617.846 62.0991 616.977 Q62.8076 616.075 62.9686 615.527 Q63.1619 614.948 63.1619 614.432 Q63.1619 611.727 59.8125 609.666 Q56.4309 607.572 51.2779 607.572 Q46.2538 607.572 42.8722 609.666 Q39.4584 611.727 39.4584 614.432 Q39.4584 615.012 39.6516 615.592 Q39.8126 616.139 40.5212 617.009 Q41.1975 617.846 42.3891 618.522 Q43.5485 619.167 45.8995 619.65 Z" fill="#000000" fill-rule="evenodd" fill-opacity="1" /><path clip-path="url(#clip210)" d="M 0 0 M76.7527 599.015 Q76.4307 599.015 75.6255 598.177 Q64.8044 587.549 44.4181 587.549 Q23.9673 587.549 13.6293 597.758 Q12.4376 599.015 12.0834 599.015 Q11.4393 599.015 11.4393 598.37 Q11.4393 597.92 12.7597 596.341 Q14.0801 594.731 17.1075 592.316 Q20.1348 589.868 23.8385 588.065 Q32.824 583.717 44.4181 583.717 Q55.5613 583.717 64.5467 587.871 Q68.3148 589.643 71.471 592.122 Q74.6272 594.602 76.012 596.245 Q77.3969 597.887 77.3969 598.37 Q77.3969 599.015 76.7527 599.015 Z" fill="#000000" fill-rule="evenodd" fill-opacity="1" /><polyline clip-path="url(#clip212)" style="stroke:#0000ff; stroke-width:4; stroke-opacity:1; fill:none" points="
  334.022,1400.1 824.006,1226.28 1313.99,818.625 1803.97,532.626 2293.96,86.6476 
  "/>
<polyline clip-path="url(#clip212)" style="stroke:#4000bf; stroke-width:4; stroke-opacity:1; fill:none" points="
  334.022,1156.5 824.006,846.429 1313.99,568.525 1803.97,369.529 2293.96,233.784 
  "/>
<polyline clip-path="url(#clip212)" style="stroke:#7f0080; stroke-width:4; stroke-opacity:1; fill:none" points="
  334.022,695.073 824.006,467.472 1313.99,363.949 1803.97,305.977 2293.96,268.346 
  "/>
<polyline clip-path="url(#clip212)" style="stroke:#bf0040; stroke-width:4; stroke-opacity:1; fill:none" points="
  334.022,547.843 824.006,390.806 1313.99,327.02 1803.97,293.116 2293.96,271.993 
  "/>
<polyline clip-path="url(#clip212)" style="stroke:#ff0000; stroke-width:4; stroke-opacity:1; fill:none" points="
  334.022,527.102 824.006,381.104 1313.99,322.467 1803.97,291.549 2293.96,272.403 
  "/>
<path clip-path="url(#clip210)" d="
M1706.5 1393.09 L2283.5 1393.09 L2283.5 1075.57 L1706.5 1075.57  Z
  " fill="#ffffff" fill-rule="evenodd" fill-opacity="1"/>
<polyline clip-path="url(#clip210)" style="stroke:#000000; stroke-width:4; stroke-opacity:1; fill:none" points="
  1706.5,1393.09 2283.5,1393.09 2283.5,1075.57 1706.5,1075.57 1706.5,1393.09 
  "/>
<polyline clip-path="url(#clip210)" style="stroke:#0000ff; stroke-width:3.5; stroke-opacity:1; fill:none" points="
  1729.59,1128.49 1868.09,1128.49 
  "/>
<path clip-path="url(#clip210)" d="M 0 0 M1919.72 1110.59 Q1919.72 1110.98 1919.64 1111.31 L1918.49 1118.61 Q1918.43 1119.16 1918.31 1119.37 Q1918.21 1119.57 1917.88 1119.57 Q1917.37 1119.57 1917.37 1119.04 Q1917.37 1118.73 1917.49 1118.24 Q1917.84 1115.92 1917.84 1114.88 Q1917.84 1114.18 1917.69 1113.67 Q1917.57 1113.13 1917.37 1112.77 Q1917.18 1112.4 1916.75 1112.15 Q1916.32 1111.9 1915.91 1111.76 Q1915.5 1111.62 1914.76 1111.56 Q1914.03 1111.47 1913.39 1111.45 Q1912.75 1111.43 1911.71 1111.43 Q1909.43 1111.43 1909.07 1111.52 Q1908.68 1111.62 1908.47 1111.93 Q1908.29 1112.21 1908.08 1113.07 L1902.51 1135.35 L1902.34 1136.23 Q1902.34 1136.72 1902.65 1136.89 Q1902.96 1137.05 1903.9 1137.15 Q1905.25 1137.26 1906.59 1137.26 Q1906.63 1137.26 1906.71 1137.26 Q1907.16 1137.26 1907.34 1137.28 Q1907.53 1137.28 1907.71 1137.32 Q1907.9 1137.36 1907.94 1137.46 Q1908 1137.54 1908 1137.71 Q1908 1138.1 1907.84 1138.3 Q1907.67 1138.49 1907.51 1138.53 Q1907.36 1138.55 1907.08 1138.55 Q1906.5 1138.55 1905.27 1138.51 Q1904.04 1138.47 1903.43 1138.47 L1899.95 1138.43 L1896.38 1138.47 Q1895.83 1138.47 1894.66 1138.51 Q1893.49 1138.55 1892.94 1138.55 Q1892.22 1138.55 1892.22 1138.04 Q1892.22 1137.46 1892.49 1137.36 Q1892.77 1137.26 1893.98 1137.26 Q1895.68 1137.26 1896.6 1137.17 Q1897.53 1137.09 1898.02 1136.81 Q1898.53 1136.52 1898.67 1136.23 Q1898.82 1135.92 1898.98 1135.23 L1904.62 1112.83 Q1904.78 1112.34 1904.78 1111.95 Q1904.78 1111.74 1904.72 1111.66 Q1904.68 1111.58 1904.41 1111.52 Q1904.15 1111.43 1903.59 1111.43 L1901.95 1111.43 Q1900.27 1111.43 1899.23 1111.52 Q1898.2 1111.58 1897.22 1111.88 Q1896.26 1112.19 1895.68 1112.62 Q1895.13 1113.05 1894.51 1113.93 Q1893.9 1114.82 1893.45 1115.88 Q1893.02 1116.95 1892.4 1118.69 Q1892.2 1119.26 1892.08 1119.43 Q1891.97 1119.57 1891.69 1119.57 Q1891.48 1119.57 1891.32 1119.45 Q1891.17 1119.3 1891.17 1119.12 Q1891.38 1118.44 1891.42 1118.36 L1893.94 1110.96 Q1894.15 1110.37 1894.33 1110.27 Q1894.53 1110.14 1895.29 1110.14 L1918.57 1110.14 Q1918.94 1110.14 1919.07 1110.14 Q1919.19 1110.14 1919.39 1110.18 Q1919.6 1110.22 1919.66 1110.33 Q1919.72 1110.43 1919.72 1110.59 Z" fill="#000000" fill-rule="evenodd" fill-opacity="1" /><path clip-path="url(#clip210)" d="M 0 0 M1927.09 1132.17 Q1927.13 1131.66 1927.93 1131.66 L1953.65 1131.66 Q1954.86 1131.66 1954.88 1132.13 Q1954.88 1132.65 1953.73 1132.63 L1928.22 1132.63 Q1927.09 1132.65 1927.09 1132.17 M1927.09 1123.98 Q1927.09 1123.46 1927.97 1123.48 L1953.61 1123.48 Q1954.86 1123.48 1954.88 1123.98 Q1954.88 1124.45 1953.82 1124.45 L1927.93 1124.45 Q1927.09 1124.45 1927.09 1123.98 Z" fill="#000000" fill-rule="evenodd" fill-opacity="1" /><path clip-path="url(#clip210)" d="M 0 0 M1971.07 1131.78 Q1971.07 1130.53 1971.74 1130.06 Q1972.42 1129.57 1973.14 1129.57 Q1974.1 1129.57 1974.65 1130.19 Q1975.23 1130.78 1975.23 1131.62 Q1975.23 1132.46 1974.65 1133.08 Q1974.1 1133.67 1973.14 1133.67 Q1972.66 1133.67 1972.42 1133.59 Q1972.97 1135.51 1974.65 1136.91 Q1976.35 1138.3 1978.59 1138.3 Q1981.39 1138.3 1983.08 1135.58 Q1984.08 1133.81 1984.08 1129.82 Q1984.08 1126.29 1983.32 1124.53 Q1982.15 1121.84 1979.76 1121.84 Q1976.35 1121.84 1974.34 1124.78 Q1974.1 1125.14 1973.81 1125.17 Q1973.4 1125.17 1973.3 1124.94 Q1973.22 1124.69 1973.22 1124.06 L1973.22 1111.64 Q1973.22 1110.63 1973.63 1110.63 Q1973.79 1110.63 1974.14 1110.76 Q1976.78 1111.93 1979.71 1111.95 Q1982.73 1111.95 1985.43 1110.72 Q1985.64 1110.59 1985.76 1110.59 Q1986.17 1110.59 1986.19 1111.06 Q1986.19 1111.23 1985.84 1111.72 Q1985.51 1112.19 1984.8 1112.83 Q1984.08 1113.44 1983.16 1114.04 Q1982.24 1114.63 1980.88 1115.04 Q1979.55 1115.43 1978.07 1115.43 Q1976.31 1115.43 1974.51 1114.88 L1974.51 1123.05 Q1976.68 1120.92 1979.84 1120.92 Q1983.2 1120.92 1985.51 1123.63 Q1987.83 1126.33 1987.83 1130.1 Q1987.83 1134.06 1985.08 1136.76 Q1982.36 1139.47 1978.67 1139.47 Q1975.31 1139.47 1973.18 1137.07 Q1971.07 1134.67 1971.07 1131.78 Z" fill="#000000" fill-rule="evenodd" fill-opacity="1" /><path clip-path="url(#clip210)" d="M 0 0 M1991.85 1125.12 Q1991.85 1118.96 1993.4 1115.59 Q1995.58 1110.59 2000.7 1110.59 Q2001.79 1110.59 2002.91 1110.9 Q2004.06 1111.19 2005.5 1112.31 Q2006.95 1113.44 2007.83 1115.29 Q2009.51 1118.85 2009.51 1125.12 Q2009.51 1131.25 2007.96 1134.59 Q2005.68 1139.47 2000.66 1139.47 Q1998.77 1139.47 1996.85 1138.51 Q1994.94 1137.54 1993.73 1135.23 Q1991.85 1131.76 1991.85 1125.12 M1995.33 1124.61 Q1995.33 1130.94 1995.78 1133.47 Q1996.29 1136.19 1997.69 1137.38 Q1999.1 1138.55 2000.66 1138.55 Q2002.34 1138.55 2003.73 1137.3 Q2005.15 1136.03 2005.58 1133.3 Q2006.05 1130.62 2006.03 1124.61 Q2006.03 1118.77 2005.62 1116.43 Q2005.07 1113.71 2003.59 1112.62 Q2002.14 1111.52 2000.66 1111.52 Q2000.11 1111.52 1999.51 1111.68 Q1998.94 1111.84 1998.1 1112.31 Q1997.26 1112.79 1996.6 1113.95 Q1995.97 1115.12 1995.66 1116.89 Q1995.33 1119.16 1995.33 1124.61 Z" fill="#000000" fill-rule="evenodd" fill-opacity="1" /><path clip-path="url(#clip210)" d="M 0 0 M2013.26 1137.87 Q2012.63 1137.2 2012.63 1136.31 Q2012.63 1135.43 2013.26 1134.8 Q2013.9 1134.14 2014.86 1134.14 Q2015.78 1134.14 2016.4 1134.76 Q2017.03 1135.35 2017.03 1136.33 Q2017.03 1137.3 2016.36 1137.93 Q2015.7 1138.55 2014.86 1138.55 Q2013.9 1138.55 2013.26 1137.87 Z" fill="#000000" fill-rule="evenodd" fill-opacity="1" /><path clip-path="url(#clip210)" d="M 0 0 M2024.18 1125.12 Q2024.18 1118.96 2025.73 1115.59 Q2027.91 1110.59 2033.03 1110.59 Q2034.12 1110.59 2035.24 1110.9 Q2036.39 1111.19 2037.82 1112.31 Q2039.28 1113.44 2040.16 1115.29 Q2041.84 1118.85 2041.84 1125.12 Q2041.84 1131.25 2040.28 1134.59 Q2038.01 1139.47 2032.99 1139.47 Q2031.1 1139.47 2029.18 1138.51 Q2027.27 1137.54 2026.06 1135.23 Q2024.18 1131.76 2024.18 1125.12 M2027.66 1124.61 Q2027.66 1130.94 2028.11 1133.47 Q2028.62 1136.19 2030.02 1137.38 Q2031.43 1138.55 2032.99 1138.55 Q2034.67 1138.55 2036.06 1137.3 Q2037.48 1136.03 2037.91 1133.3 Q2038.38 1130.62 2038.36 1124.61 Q2038.36 1118.77 2037.95 1116.43 Q2037.39 1113.71 2035.92 1112.62 Q2034.46 1111.52 2032.99 1111.52 Q2032.43 1111.52 2031.84 1111.68 Q2031.27 1111.84 2030.43 1112.31 Q2029.59 1112.79 2028.93 1113.95 Q2028.29 1115.12 2027.99 1116.89 Q2027.66 1119.16 2027.66 1124.61 Z" fill="#000000" fill-rule="evenodd" fill-opacity="1" /><path clip-path="url(#clip210)" d="M 0 0 M2045.55 1137.87 Q2044.96 1137.2 2044.96 1136.31 Q2044.96 1135.43 2045.53 1134.78 Q2046.12 1134.1 2047.19 1134.1 Q2048.44 1134.1 2049.16 1135.31 Q2049.88 1136.5 2049.88 1138.51 Q2049.88 1140.68 2048.99 1142.69 Q2048.11 1144.72 2047.25 1145.68 Q2046.39 1146.64 2046.04 1146.64 Q2045.63 1146.64 2045.63 1146.19 Q2045.63 1146.03 2045.92 1145.72 Q2048.93 1142.48 2048.95 1138.51 Q2048.95 1137.87 2048.87 1137.87 L2048.77 1137.95 Q2048.05 1138.55 2047.19 1138.55 Q2046.15 1138.55 2045.55 1137.87 Z" fill="#000000" fill-rule="evenodd" fill-opacity="1" /><path clip-path="url(#clip210)" d="M 0 0 M2083.72 1132.54 Q2083.2 1135.06 2082.16 1136.83 Q2080.87 1139.02 2078.9 1139.02 Q2077.24 1139.02 2076.13 1137.87 Q2075.03 1136.7 2075.03 1134.86 Q2075.03 1134.31 2075.25 1133.38 Q2075.33 1132.97 2075.33 1132.46 Q2075.33 1129.14 2068.14 1128.9 Q2067.55 1131.25 2067.14 1132.85 Q2066.75 1134.43 2066.62 1134.9 Q2066.5 1135.37 2066.4 1135.76 Q2066.32 1136.15 2066.17 1136.66 Q2065.97 1137.5 2065.82 1137.91 Q2065.68 1138.32 2065.29 1138.67 Q2064.92 1139.02 2064.33 1139.02 Q2063.81 1139.02 2063.47 1138.71 Q2063.12 1138.4 2063.12 1137.87 Q2063.12 1137.5 2063.28 1136.91 L2067.14 1121.52 Q2067.24 1121.09 2067.44 1120.78 Q2067.65 1120.47 2067.83 1120.33 Q2068.04 1120.18 2068.28 1120.1 Q2068.53 1120.02 2068.63 1120.02 Q2068.73 1120 2068.82 1120 Q2069.37 1120 2069.7 1120.31 Q2070.05 1120.59 2070.05 1121.13 Q2070.05 1121.21 2069.9 1121.78 Q2069.78 1122.34 2069.57 1123.18 Q2069.37 1124.02 2069.29 1124.41 L2068.45 1127.69 Q2069.61 1127.3 2070.66 1126.6 Q2071.73 1125.9 2073.82 1124.1 Q2074.78 1123.3 2075.35 1122.85 Q2075.95 1122.38 2076.93 1121.74 Q2077.92 1121.09 2078.86 1120.78 Q2079.8 1120.45 2080.7 1120.45 Q2081.4 1120.45 2081.81 1120.78 Q2082.22 1121.09 2082.3 1121.37 Q2082.38 1121.64 2082.38 1121.93 Q2082.38 1122.77 2081.73 1123.48 Q2081.07 1124.2 2080.11 1124.2 Q2079.25 1124.2 2078.88 1123.73 Q2078.51 1123.26 2078.51 1122.73 Q2078.51 1122.32 2078.71 1121.8 Q2077.57 1122.3 2076.58 1123.01 Q2075.6 1123.71 2073.9 1125.17 Q2071.48 1127.23 2070.05 1128.01 Q2070.87 1128.03 2071.48 1128.1 Q2072.12 1128.14 2073.18 1128.28 Q2074.25 1128.42 2075.03 1128.73 Q2075.8 1129.02 2076.56 1129.47 Q2077.34 1129.92 2077.75 1130.66 Q2078.18 1131.4 2078.18 1132.34 Q2078.18 1132.79 2077.98 1133.71 Q2077.63 1135.23 2077.63 1136.07 Q2077.63 1137.13 2077.96 1137.61 Q2078.3 1138.08 2078.98 1138.08 Q2080.27 1138.08 2081.09 1136.74 Q2081.93 1135.39 2082.63 1132.89 Q2082.73 1132.42 2082.83 1132.28 Q2082.94 1132.13 2083.22 1132.13 Q2083.72 1132.13 2083.72 1132.54 Z" fill="#000000" fill-rule="evenodd" fill-opacity="1" /><path clip-path="url(#clip210)" d="M 0 0 M2098.69 1132.17 Q2098.73 1131.66 2099.53 1131.66 L2125.25 1131.66 Q2126.46 1131.66 2126.48 1132.13 Q2126.48 1132.65 2125.33 1132.63 L2099.82 1132.63 Q2098.69 1132.65 2098.69 1132.17 M2098.69 1123.98 Q2098.69 1123.46 2099.57 1123.48 L2125.21 1123.48 Q2126.46 1123.48 2126.48 1123.98 Q2126.48 1124.45 2125.42 1124.45 L2099.53 1124.45 Q2098.69 1124.45 2098.69 1123.98 Z" fill="#000000" fill-rule="evenodd" fill-opacity="1" /><path clip-path="url(#clip210)" d="M 0 0 M2142.67 1114.59 L2142.67 1113.28 Q2147.71 1113.28 2150.31 1110.59 Q2151.03 1110.59 2151.15 1110.76 Q2151.27 1110.92 2151.27 1111.68 L2151.27 1135.23 Q2151.27 1136.48 2151.89 1136.87 Q2152.5 1137.26 2155.19 1137.26 L2156.52 1137.26 L2156.52 1138.55 Q2155.04 1138.43 2149.72 1138.43 Q2144.39 1138.43 2142.93 1138.55 L2142.93 1137.26 L2144.26 1137.26 Q2146.91 1137.26 2147.54 1136.89 Q2148.18 1136.5 2148.18 1135.23 L2148.18 1113.48 Q2145.99 1114.59 2142.67 1114.59 Z" fill="#000000" fill-rule="evenodd" fill-opacity="1" /><path clip-path="url(#clip210)" d="M 0 0 M2159.83 1137.87 Q2159.2 1137.2 2159.2 1136.31 Q2159.2 1135.43 2159.83 1134.8 Q2160.47 1134.14 2161.43 1134.14 Q2162.35 1134.14 2162.97 1134.76 Q2163.6 1135.35 2163.6 1136.33 Q2163.6 1137.3 2162.93 1137.93 Q2162.27 1138.55 2161.43 1138.55 Q2160.47 1138.55 2159.83 1137.87 Z" fill="#000000" fill-rule="evenodd" fill-opacity="1" /><path clip-path="url(#clip210)" d="M 0 0 M2166.49 1114.59 L2166.49 1113.28 Q2171.54 1113.28 2174.14 1110.59 Q2174.86 1110.59 2174.98 1110.76 Q2175.1 1110.92 2175.1 1111.68 L2175.1 1135.23 Q2175.1 1136.48 2175.72 1136.87 Q2176.33 1137.26 2179.02 1137.26 L2180.35 1137.26 L2180.35 1138.55 Q2178.87 1138.43 2173.54 1138.43 Q2168.22 1138.43 2166.76 1138.55 L2166.76 1137.26 L2168.09 1137.26 Q2170.74 1137.26 2171.37 1136.89 Q2172.01 1136.5 2172.01 1135.23 L2172.01 1113.48 Q2169.81 1114.59 2166.49 1114.59 Z" fill="#000000" fill-rule="evenodd" fill-opacity="1" /><polyline clip-path="url(#clip210)" style="stroke:#4000bf; stroke-width:3.5; stroke-opacity:1; fill:none" points="
  1729.59,1181.41 1868.09,1181.41 
  "/>
<path clip-path="url(#clip210)" d="M 0 0 M1919.72 1163.51 Q1919.72 1163.9 1919.64 1164.23 L1918.49 1171.53 Q1918.43 1172.08 1918.31 1172.29 Q1918.21 1172.49 1917.88 1172.49 Q1917.37 1172.49 1917.37 1171.96 Q1917.37 1171.65 1917.49 1171.16 Q1917.84 1168.84 1917.84 1167.8 Q1917.84 1167.1 1917.69 1166.59 Q1917.57 1166.05 1917.37 1165.69 Q1917.18 1165.32 1916.75 1165.07 Q1916.32 1164.82 1915.91 1164.68 Q1915.5 1164.54 1914.76 1164.48 Q1914.03 1164.39 1913.39 1164.37 Q1912.75 1164.35 1911.71 1164.35 Q1909.43 1164.35 1909.07 1164.44 Q1908.68 1164.54 1908.47 1164.85 Q1908.29 1165.13 1908.08 1165.99 L1902.51 1188.27 L1902.34 1189.15 Q1902.34 1189.64 1902.65 1189.81 Q1902.96 1189.97 1903.9 1190.07 Q1905.25 1190.18 1906.59 1190.18 Q1906.63 1190.18 1906.71 1190.18 Q1907.16 1190.18 1907.34 1190.2 Q1907.53 1190.2 1907.71 1190.24 Q1907.9 1190.28 1907.94 1190.38 Q1908 1190.46 1908 1190.63 Q1908 1191.02 1907.84 1191.22 Q1907.67 1191.41 1907.51 1191.45 Q1907.36 1191.47 1907.08 1191.47 Q1906.5 1191.47 1905.27 1191.43 Q1904.04 1191.39 1903.43 1191.39 L1899.95 1191.35 L1896.38 1191.39 Q1895.83 1191.39 1894.66 1191.43 Q1893.49 1191.47 1892.94 1191.47 Q1892.22 1191.47 1892.22 1190.96 Q1892.22 1190.38 1892.49 1190.28 Q1892.77 1190.18 1893.98 1190.18 Q1895.68 1190.18 1896.6 1190.09 Q1897.53 1190.01 1898.02 1189.73 Q1898.53 1189.44 1898.67 1189.15 Q1898.82 1188.84 1898.98 1188.15 L1904.62 1165.75 Q1904.78 1165.26 1904.78 1164.87 Q1904.78 1164.66 1904.72 1164.58 Q1904.68 1164.5 1904.41 1164.44 Q1904.15 1164.35 1903.59 1164.35 L1901.95 1164.35 Q1900.27 1164.35 1899.23 1164.44 Q1898.2 1164.5 1897.22 1164.8 Q1896.26 1165.11 1895.68 1165.54 Q1895.13 1165.97 1894.51 1166.85 Q1893.9 1167.74 1893.45 1168.8 Q1893.02 1169.87 1892.4 1171.61 Q1892.2 1172.18 1892.08 1172.35 Q1891.97 1172.49 1891.69 1172.49 Q1891.48 1172.49 1891.32 1172.37 Q1891.17 1172.22 1891.17 1172.04 Q1891.38 1171.36 1891.42 1171.28 L1893.94 1163.88 Q1894.15 1163.29 1894.33 1163.19 Q1894.53 1163.06 1895.29 1163.06 L1918.57 1163.06 Q1918.94 1163.06 1919.07 1163.06 Q1919.19 1163.06 1919.39 1163.1 Q1919.6 1163.14 1919.66 1163.25 Q1919.72 1163.35 1919.72 1163.51 Z" fill="#000000" fill-rule="evenodd" fill-opacity="1" /><path clip-path="url(#clip210)" d="M 0 0 M1927.09 1185.09 Q1927.13 1184.58 1927.93 1184.58 L1953.65 1184.58 Q1954.86 1184.58 1954.88 1185.05 Q1954.88 1185.57 1953.73 1185.55 L1928.22 1185.55 Q1927.09 1185.57 1927.09 1185.09 M1927.09 1176.9 Q1927.09 1176.38 1927.97 1176.4 L1953.61 1176.4 Q1954.86 1176.4 1954.88 1176.9 Q1954.88 1177.37 1953.82 1177.37 L1927.93 1177.37 Q1927.09 1177.37 1927.09 1176.9 Z" fill="#000000" fill-rule="evenodd" fill-opacity="1" /><path clip-path="url(#clip210)" d="M 0 0 M1971.07 1184.7 Q1971.07 1183.45 1971.74 1182.98 Q1972.42 1182.49 1973.14 1182.49 Q1974.1 1182.49 1974.65 1183.11 Q1975.23 1183.7 1975.23 1184.54 Q1975.23 1185.38 1974.65 1186 Q1974.1 1186.59 1973.14 1186.59 Q1972.66 1186.59 1972.42 1186.51 Q1972.97 1188.43 1974.65 1189.83 Q1976.35 1191.22 1978.59 1191.22 Q1981.39 1191.22 1983.08 1188.5 Q1984.08 1186.73 1984.08 1182.74 Q1984.08 1179.21 1983.32 1177.45 Q1982.15 1174.76 1979.76 1174.76 Q1976.35 1174.76 1974.34 1177.7 Q1974.1 1178.06 1973.81 1178.09 Q1973.4 1178.09 1973.3 1177.86 Q1973.22 1177.61 1973.22 1176.98 L1973.22 1164.56 Q1973.22 1163.55 1973.63 1163.55 Q1973.79 1163.55 1974.14 1163.68 Q1976.78 1164.85 1979.71 1164.87 Q1982.73 1164.87 1985.43 1163.64 Q1985.64 1163.51 1985.76 1163.51 Q1986.17 1163.51 1986.19 1163.98 Q1986.19 1164.15 1985.84 1164.64 Q1985.51 1165.11 1984.8 1165.75 Q1984.08 1166.36 1983.16 1166.96 Q1982.24 1167.55 1980.88 1167.96 Q1979.55 1168.35 1978.07 1168.35 Q1976.31 1168.35 1974.51 1167.8 L1974.51 1175.97 Q1976.68 1173.84 1979.84 1173.84 Q1983.2 1173.84 1985.51 1176.55 Q1987.83 1179.25 1987.83 1183.02 Q1987.83 1186.98 1985.08 1189.68 Q1982.36 1192.39 1978.67 1192.39 Q1975.31 1192.39 1973.18 1189.99 Q1971.07 1187.59 1971.07 1184.7 Z" fill="#000000" fill-rule="evenodd" fill-opacity="1" /><path clip-path="url(#clip210)" d="M 0 0 M1991.85 1178.04 Q1991.85 1171.88 1993.4 1168.51 Q1995.58 1163.51 2000.7 1163.51 Q2001.79 1163.51 2002.91 1163.82 Q2004.06 1164.11 2005.5 1165.23 Q2006.95 1166.36 2007.83 1168.21 Q2009.51 1171.77 2009.51 1178.04 Q2009.51 1184.17 2007.96 1187.51 Q2005.68 1192.39 2000.66 1192.39 Q1998.77 1192.39 1996.85 1191.43 Q1994.94 1190.46 1993.73 1188.15 Q1991.85 1184.68 1991.85 1178.04 M1995.33 1177.53 Q1995.33 1183.86 1995.78 1186.39 Q1996.29 1189.11 1997.69 1190.3 Q1999.1 1191.47 2000.66 1191.47 Q2002.34 1191.47 2003.73 1190.22 Q2005.15 1188.95 2005.58 1186.22 Q2006.05 1183.54 2006.03 1177.53 Q2006.03 1171.69 2005.62 1169.35 Q2005.07 1166.63 2003.59 1165.54 Q2002.14 1164.44 2000.66 1164.44 Q2000.11 1164.44 1999.51 1164.6 Q1998.94 1164.76 1998.1 1165.23 Q1997.26 1165.71 1996.6 1166.87 Q1995.97 1168.04 1995.66 1169.81 Q1995.33 1172.08 1995.33 1177.53 Z" fill="#000000" fill-rule="evenodd" fill-opacity="1" /><path clip-path="url(#clip210)" d="M 0 0 M2013.26 1190.79 Q2012.63 1190.12 2012.63 1189.23 Q2012.63 1188.35 2013.26 1187.72 Q2013.9 1187.06 2014.86 1187.06 Q2015.78 1187.06 2016.4 1187.68 Q2017.03 1188.27 2017.03 1189.25 Q2017.03 1190.22 2016.36 1190.85 Q2015.7 1191.47 2014.86 1191.47 Q2013.9 1191.47 2013.26 1190.79 Z" fill="#000000" fill-rule="evenodd" fill-opacity="1" /><path clip-path="url(#clip210)" d="M 0 0 M2024.18 1178.04 Q2024.18 1171.88 2025.73 1168.51 Q2027.91 1163.51 2033.03 1163.51 Q2034.12 1163.51 2035.24 1163.82 Q2036.39 1164.11 2037.82 1165.23 Q2039.28 1166.36 2040.16 1168.21 Q2041.84 1171.77 2041.84 1178.04 Q2041.84 1184.17 2040.28 1187.51 Q2038.01 1192.39 2032.99 1192.39 Q2031.1 1192.39 2029.18 1191.43 Q2027.27 1190.46 2026.06 1188.15 Q2024.18 1184.68 2024.18 1178.04 M2027.66 1177.53 Q2027.66 1183.86 2028.11 1186.39 Q2028.62 1189.11 2030.02 1190.3 Q2031.43 1191.47 2032.99 1191.47 Q2034.67 1191.47 2036.06 1190.22 Q2037.48 1188.95 2037.91 1186.22 Q2038.38 1183.54 2038.36 1177.53 Q2038.36 1171.69 2037.95 1169.35 Q2037.39 1166.63 2035.92 1165.54 Q2034.46 1164.44 2032.99 1164.44 Q2032.43 1164.44 2031.84 1164.6 Q2031.27 1164.76 2030.43 1165.23 Q2029.59 1165.71 2028.93 1166.87 Q2028.29 1168.04 2027.99 1169.81 Q2027.66 1172.08 2027.66 1177.53 Z" fill="#000000" fill-rule="evenodd" fill-opacity="1" /><path clip-path="url(#clip210)" d="M 0 0 M2045.55 1190.79 Q2044.96 1190.12 2044.96 1189.23 Q2044.96 1188.35 2045.53 1187.7 Q2046.12 1187.02 2047.19 1187.02 Q2048.44 1187.02 2049.16 1188.23 Q2049.88 1189.42 2049.88 1191.43 Q2049.88 1193.6 2048.99 1195.61 Q2048.11 1197.64 2047.25 1198.6 Q2046.39 1199.56 2046.04 1199.56 Q2045.63 1199.56 2045.63 1199.11 Q2045.63 1198.95 2045.92 1198.64 Q2048.93 1195.4 2048.95 1191.43 Q2048.95 1190.79 2048.87 1190.79 L2048.77 1190.87 Q2048.05 1191.47 2047.19 1191.47 Q2046.15 1191.47 2045.55 1190.79 Z" fill="#000000" fill-rule="evenodd" fill-opacity="1" /><path clip-path="url(#clip210)" d="M 0 0 M2083.72 1185.46 Q2083.2 1187.98 2082.16 1189.75 Q2080.87 1191.94 2078.9 1191.94 Q2077.24 1191.94 2076.13 1190.79 Q2075.03 1189.62 2075.03 1187.78 Q2075.03 1187.23 2075.25 1186.3 Q2075.33 1185.89 2075.33 1185.38 Q2075.33 1182.06 2068.14 1181.82 Q2067.55 1184.17 2067.14 1185.77 Q2066.75 1187.35 2066.62 1187.82 Q2066.5 1188.29 2066.4 1188.68 Q2066.32 1189.07 2066.17 1189.58 Q2065.97 1190.42 2065.82 1190.83 Q2065.68 1191.24 2065.29 1191.59 Q2064.92 1191.94 2064.33 1191.94 Q2063.81 1191.94 2063.47 1191.63 Q2063.12 1191.32 2063.12 1190.79 Q2063.12 1190.42 2063.28 1189.83 L2067.14 1174.44 Q2067.24 1174.01 2067.44 1173.7 Q2067.65 1173.39 2067.83 1173.25 Q2068.04 1173.1 2068.28 1173.02 Q2068.53 1172.94 2068.63 1172.94 Q2068.73 1172.92 2068.82 1172.92 Q2069.37 1172.92 2069.7 1173.23 Q2070.05 1173.51 2070.05 1174.05 Q2070.05 1174.13 2069.9 1174.7 Q2069.78 1175.26 2069.57 1176.1 Q2069.37 1176.94 2069.29 1177.33 L2068.45 1180.61 Q2069.61 1180.22 2070.66 1179.52 Q2071.73 1178.82 2073.82 1177.02 Q2074.78 1176.22 2075.35 1175.77 Q2075.95 1175.3 2076.93 1174.66 Q2077.92 1174.01 2078.86 1173.7 Q2079.8 1173.37 2080.7 1173.37 Q2081.4 1173.37 2081.81 1173.7 Q2082.22 1174.01 2082.3 1174.29 Q2082.38 1174.56 2082.38 1174.85 Q2082.38 1175.69 2081.73 1176.4 Q2081.07 1177.12 2080.11 1177.12 Q2079.25 1177.12 2078.88 1176.65 Q2078.51 1176.18 2078.51 1175.65 Q2078.51 1175.24 2078.71 1174.72 Q2077.57 1175.22 2076.58 1175.93 Q2075.6 1176.63 2073.9 1178.09 Q2071.48 1180.15 2070.05 1180.93 Q2070.87 1180.95 2071.48 1181.02 Q2072.12 1181.06 2073.18 1181.2 Q2074.25 1181.34 2075.03 1181.65 Q2075.8 1181.94 2076.56 1182.39 Q2077.34 1182.84 2077.75 1183.58 Q2078.18 1184.32 2078.18 1185.26 Q2078.18 1185.71 2077.98 1186.63 Q2077.63 1188.15 2077.63 1188.99 Q2077.63 1190.05 2077.96 1190.53 Q2078.3 1191 2078.98 1191 Q2080.27 1191 2081.09 1189.66 Q2081.93 1188.31 2082.63 1185.81 Q2082.73 1185.34 2082.83 1185.2 Q2082.94 1185.05 2083.22 1185.05 Q2083.72 1185.05 2083.72 1185.46 Z" fill="#000000" fill-rule="evenodd" fill-opacity="1" /><path clip-path="url(#clip210)" d="M 0 0 M2098.69 1185.09 Q2098.73 1184.58 2099.53 1184.58 L2125.25 1184.58 Q2126.46 1184.58 2126.48 1185.05 Q2126.48 1185.57 2125.33 1185.55 L2099.82 1185.55 Q2098.69 1185.57 2098.69 1185.09 M2098.69 1176.9 Q2098.69 1176.38 2099.57 1176.4 L2125.21 1176.4 Q2126.46 1176.4 2126.48 1176.9 Q2126.48 1177.37 2125.42 1177.37 L2099.53 1177.37 Q2098.69 1177.37 2098.69 1176.9 Z" fill="#000000" fill-rule="evenodd" fill-opacity="1" /><path clip-path="url(#clip210)" d="M 0 0 M2142.67 1184.7 Q2142.67 1183.45 2143.34 1182.98 Q2144.02 1182.49 2144.74 1182.49 Q2145.7 1182.49 2146.25 1183.11 Q2146.83 1183.7 2146.83 1184.54 Q2146.83 1185.38 2146.25 1186 Q2145.7 1186.59 2144.74 1186.59 Q2144.26 1186.59 2144.02 1186.51 Q2144.57 1188.43 2146.25 1189.83 Q2147.95 1191.22 2150.19 1191.22 Q2152.99 1191.22 2154.67 1188.5 Q2155.68 1186.73 2155.68 1182.74 Q2155.68 1179.21 2154.92 1177.45 Q2153.75 1174.76 2151.35 1174.76 Q2147.95 1174.76 2145.94 1177.7 Q2145.7 1178.06 2145.41 1178.09 Q2145 1178.09 2144.9 1177.86 Q2144.82 1177.61 2144.82 1176.98 L2144.82 1164.56 Q2144.82 1163.55 2145.23 1163.55 Q2145.39 1163.55 2145.74 1163.68 Q2148.38 1164.85 2151.31 1164.87 Q2154.33 1164.87 2157.03 1163.64 Q2157.24 1163.51 2157.36 1163.51 Q2157.77 1163.51 2157.79 1163.98 Q2157.79 1164.15 2157.44 1164.64 Q2157.11 1165.11 2156.4 1165.75 Q2155.68 1166.36 2154.76 1166.96 Q2153.83 1167.55 2152.48 1167.96 Q2151.15 1168.35 2149.67 1168.35 Q2147.91 1168.35 2146.11 1167.8 L2146.11 1175.97 Q2148.28 1173.84 2151.44 1173.84 Q2154.8 1173.84 2157.11 1176.55 Q2159.43 1179.25 2159.43 1183.02 Q2159.43 1186.98 2156.68 1189.68 Q2153.96 1192.39 2150.27 1192.39 Q2146.91 1192.39 2144.78 1189.99 Q2142.67 1187.59 2142.67 1184.7 Z" fill="#000000" fill-rule="evenodd" fill-opacity="1" /><path clip-path="url(#clip210)" d="M 0 0 M2164.08 1190.79 Q2163.45 1190.12 2163.45 1189.23 Q2163.45 1188.35 2164.08 1187.72 Q2164.72 1187.06 2165.68 1187.06 Q2166.6 1187.06 2167.22 1187.68 Q2167.85 1188.27 2167.85 1189.25 Q2167.85 1190.22 2167.18 1190.85 Q2166.52 1191.47 2165.68 1191.47 Q2164.72 1191.47 2164.08 1190.79 Z" fill="#000000" fill-rule="evenodd" fill-opacity="1" /><path clip-path="url(#clip210)" d="M 0 0 M2174.99 1178.04 Q2174.99 1171.88 2176.55 1168.51 Q2178.72 1163.51 2183.85 1163.51 Q2184.93 1163.51 2186.06 1163.82 Q2187.21 1164.11 2188.64 1165.23 Q2190.1 1166.36 2190.98 1168.21 Q2192.66 1171.77 2192.66 1178.04 Q2192.66 1184.17 2191.1 1187.51 Q2188.83 1192.39 2183.81 1192.39 Q2181.92 1192.39 2179.99 1191.43 Q2178.09 1190.46 2176.88 1188.15 Q2174.99 1184.68 2174.99 1178.04 M2178.48 1177.53 Q2178.48 1183.86 2178.93 1186.39 Q2179.44 1189.11 2180.83 1190.3 Q2182.25 1191.47 2183.81 1191.47 Q2185.49 1191.47 2186.88 1190.22 Q2188.29 1188.95 2188.73 1186.22 Q2189.2 1183.54 2189.18 1177.53 Q2189.18 1171.69 2188.77 1169.35 Q2188.21 1166.63 2186.74 1165.54 Q2185.28 1164.44 2183.81 1164.44 Q2183.25 1164.44 2182.66 1164.6 Q2182.08 1164.76 2181.24 1165.23 Q2180.4 1165.71 2179.75 1166.87 Q2179.11 1168.04 2178.81 1169.81 Q2178.48 1172.08 2178.48 1177.53 Z" fill="#000000" fill-rule="evenodd" fill-opacity="1" /><polyline clip-path="url(#clip210)" style="stroke:#7f0080; stroke-width:3.5; stroke-opacity:1; fill:none" points="
  1729.59,1234.33 1868.09,1234.33 
  "/>
<path clip-path="url(#clip210)" d="M 0 0 M1919.72 1216.43 Q1919.72 1216.82 1919.64 1217.15 L1918.49 1224.45 Q1918.43 1225 1918.31 1225.21 Q1918.21 1225.41 1917.88 1225.41 Q1917.37 1225.41 1917.37 1224.88 Q1917.37 1224.57 1917.49 1224.08 Q1917.84 1221.76 1917.84 1220.72 Q1917.84 1220.02 1917.69 1219.51 Q1917.57 1218.97 1917.37 1218.61 Q1917.18 1218.24 1916.75 1217.99 Q1916.32 1217.74 1915.91 1217.6 Q1915.5 1217.46 1914.76 1217.4 Q1914.03 1217.31 1913.39 1217.29 Q1912.75 1217.27 1911.71 1217.27 Q1909.43 1217.27 1909.07 1217.36 Q1908.68 1217.46 1908.47 1217.77 Q1908.29 1218.05 1908.08 1218.91 L1902.51 1241.19 L1902.34 1242.07 Q1902.34 1242.56 1902.65 1242.73 Q1902.96 1242.89 1903.9 1242.99 Q1905.25 1243.1 1906.59 1243.1 Q1906.63 1243.1 1906.71 1243.1 Q1907.16 1243.1 1907.34 1243.12 Q1907.53 1243.12 1907.71 1243.16 Q1907.9 1243.2 1907.94 1243.3 Q1908 1243.38 1908 1243.55 Q1908 1243.94 1907.84 1244.14 Q1907.67 1244.33 1907.51 1244.37 Q1907.36 1244.39 1907.08 1244.39 Q1906.5 1244.39 1905.27 1244.35 Q1904.04 1244.31 1903.43 1244.31 L1899.95 1244.27 L1896.38 1244.31 Q1895.83 1244.31 1894.66 1244.35 Q1893.49 1244.39 1892.94 1244.39 Q1892.22 1244.39 1892.22 1243.88 Q1892.22 1243.3 1892.49 1243.2 Q1892.77 1243.1 1893.98 1243.1 Q1895.68 1243.1 1896.6 1243.01 Q1897.53 1242.93 1898.02 1242.65 Q1898.53 1242.36 1898.67 1242.07 Q1898.82 1241.76 1898.98 1241.07 L1904.62 1218.67 Q1904.78 1218.18 1904.78 1217.79 Q1904.78 1217.58 1904.72 1217.5 Q1904.68 1217.42 1904.41 1217.36 Q1904.15 1217.27 1903.59 1217.27 L1901.95 1217.27 Q1900.27 1217.27 1899.23 1217.36 Q1898.2 1217.42 1897.22 1217.72 Q1896.26 1218.03 1895.68 1218.46 Q1895.13 1218.89 1894.51 1219.77 Q1893.9 1220.66 1893.45 1221.72 Q1893.02 1222.79 1892.4 1224.53 Q1892.2 1225.1 1892.08 1225.27 Q1891.97 1225.41 1891.69 1225.41 Q1891.48 1225.41 1891.32 1225.29 Q1891.17 1225.14 1891.17 1224.96 Q1891.38 1224.28 1891.42 1224.2 L1893.94 1216.8 Q1894.15 1216.21 1894.33 1216.11 Q1894.53 1215.98 1895.29 1215.98 L1918.57 1215.98 Q1918.94 1215.98 1919.07 1215.98 Q1919.19 1215.98 1919.39 1216.02 Q1919.6 1216.06 1919.66 1216.17 Q1919.72 1216.27 1919.72 1216.43 Z" fill="#000000" fill-rule="evenodd" fill-opacity="1" /><path clip-path="url(#clip210)" d="M 0 0 M1927.09 1238.01 Q1927.13 1237.5 1927.93 1237.5 L1953.65 1237.5 Q1954.86 1237.5 1954.88 1237.97 Q1954.88 1238.49 1953.73 1238.47 L1928.22 1238.47 Q1927.09 1238.49 1927.09 1238.01 M1927.09 1229.82 Q1927.09 1229.3 1927.97 1229.32 L1953.61 1229.32 Q1954.86 1229.32 1954.88 1229.82 Q1954.88 1230.29 1953.82 1230.29 L1927.93 1230.29 Q1927.09 1230.29 1927.09 1229.82 Z" fill="#000000" fill-rule="evenodd" fill-opacity="1" /><path clip-path="url(#clip210)" d="M 0 0 M1971.07 1237.62 Q1971.07 1236.37 1971.74 1235.9 Q1972.42 1235.41 1973.14 1235.41 Q1974.1 1235.41 1974.65 1236.03 Q1975.23 1236.62 1975.23 1237.46 Q1975.23 1238.3 1974.65 1238.92 Q1974.1 1239.51 1973.14 1239.51 Q1972.66 1239.51 1972.42 1239.43 Q1972.97 1241.35 1974.65 1242.75 Q1976.35 1244.14 1978.59 1244.14 Q1981.39 1244.14 1983.08 1241.42 Q1984.08 1239.65 1984.08 1235.66 Q1984.08 1232.13 1983.32 1230.37 Q1982.15 1227.68 1979.76 1227.68 Q1976.35 1227.68 1974.34 1230.62 Q1974.1 1230.98 1973.81 1231.01 Q1973.4 1231.01 1973.3 1230.78 Q1973.22 1230.53 1973.22 1229.9 L1973.22 1217.48 Q1973.22 1216.47 1973.63 1216.47 Q1973.79 1216.47 1974.14 1216.6 Q1976.78 1217.77 1979.71 1217.79 Q1982.73 1217.79 1985.43 1216.56 Q1985.64 1216.43 1985.76 1216.43 Q1986.17 1216.43 1986.19 1216.9 Q1986.19 1217.07 1985.84 1217.56 Q1985.51 1218.03 1984.8 1218.67 Q1984.08 1219.28 1983.16 1219.88 Q1982.24 1220.47 1980.88 1220.88 Q1979.55 1221.27 1978.07 1221.27 Q1976.31 1221.27 1974.51 1220.72 L1974.51 1228.89 Q1976.68 1226.76 1979.84 1226.76 Q1983.2 1226.76 1985.51 1229.47 Q1987.83 1232.17 1987.83 1235.94 Q1987.83 1239.9 1985.08 1242.6 Q1982.36 1245.31 1978.67 1245.31 Q1975.31 1245.31 1973.18 1242.91 Q1971.07 1240.51 1971.07 1237.62 Z" fill="#000000" fill-rule="evenodd" fill-opacity="1" /><path clip-path="url(#clip210)" d="M 0 0 M1991.85 1230.96 Q1991.85 1224.8 1993.4 1221.43 Q1995.58 1216.43 2000.7 1216.43 Q2001.79 1216.43 2002.91 1216.74 Q2004.06 1217.03 2005.5 1218.15 Q2006.95 1219.28 2007.83 1221.13 Q2009.51 1224.69 2009.51 1230.96 Q2009.51 1237.09 2007.96 1240.43 Q2005.68 1245.31 2000.66 1245.31 Q1998.77 1245.31 1996.85 1244.35 Q1994.94 1243.38 1993.73 1241.07 Q1991.85 1237.6 1991.85 1230.96 M1995.33 1230.45 Q1995.33 1236.78 1995.78 1239.31 Q1996.29 1242.03 1997.69 1243.22 Q1999.1 1244.39 2000.66 1244.39 Q2002.34 1244.39 2003.73 1243.14 Q2005.15 1241.87 2005.58 1239.14 Q2006.05 1236.46 2006.03 1230.45 Q2006.03 1224.61 2005.62 1222.27 Q2005.07 1219.55 2003.59 1218.46 Q2002.14 1217.36 2000.66 1217.36 Q2000.11 1217.36 1999.51 1217.52 Q1998.94 1217.68 1998.1 1218.15 Q1997.26 1218.63 1996.6 1219.79 Q1995.97 1220.96 1995.66 1222.73 Q1995.33 1225 1995.33 1230.45 Z" fill="#000000" fill-rule="evenodd" fill-opacity="1" /><path clip-path="url(#clip210)" d="M 0 0 M2013.26 1243.71 Q2012.63 1243.04 2012.63 1242.15 Q2012.63 1241.27 2013.26 1240.64 Q2013.9 1239.98 2014.86 1239.98 Q2015.78 1239.98 2016.4 1240.6 Q2017.03 1241.19 2017.03 1242.17 Q2017.03 1243.14 2016.36 1243.77 Q2015.7 1244.39 2014.86 1244.39 Q2013.9 1244.39 2013.26 1243.71 Z" fill="#000000" fill-rule="evenodd" fill-opacity="1" /><path clip-path="url(#clip210)" d="M 0 0 M2024.18 1230.96 Q2024.18 1224.8 2025.73 1221.43 Q2027.91 1216.43 2033.03 1216.43 Q2034.12 1216.43 2035.24 1216.74 Q2036.39 1217.03 2037.82 1218.15 Q2039.28 1219.28 2040.16 1221.13 Q2041.84 1224.69 2041.84 1230.96 Q2041.84 1237.09 2040.28 1240.43 Q2038.01 1245.31 2032.99 1245.31 Q2031.1 1245.31 2029.18 1244.35 Q2027.27 1243.38 2026.06 1241.07 Q2024.18 1237.6 2024.18 1230.96 M2027.66 1230.45 Q2027.66 1236.78 2028.11 1239.31 Q2028.62 1242.03 2030.02 1243.22 Q2031.43 1244.39 2032.99 1244.39 Q2034.67 1244.39 2036.06 1243.14 Q2037.48 1241.87 2037.91 1239.14 Q2038.38 1236.46 2038.36 1230.45 Q2038.36 1224.61 2037.95 1222.27 Q2037.39 1219.55 2035.92 1218.46 Q2034.46 1217.36 2032.99 1217.36 Q2032.43 1217.36 2031.84 1217.52 Q2031.27 1217.68 2030.43 1218.15 Q2029.59 1218.63 2028.93 1219.79 Q2028.29 1220.96 2027.99 1222.73 Q2027.66 1225 2027.66 1230.45 Z" fill="#000000" fill-rule="evenodd" fill-opacity="1" /><path clip-path="url(#clip210)" d="M 0 0 M2045.55 1243.71 Q2044.96 1243.04 2044.96 1242.15 Q2044.96 1241.27 2045.53 1240.62 Q2046.12 1239.94 2047.19 1239.94 Q2048.44 1239.94 2049.16 1241.15 Q2049.88 1242.34 2049.88 1244.35 Q2049.88 1246.52 2048.99 1248.53 Q2048.11 1250.56 2047.25 1251.52 Q2046.39 1252.48 2046.04 1252.48 Q2045.63 1252.48 2045.63 1252.03 Q2045.63 1251.87 2045.92 1251.56 Q2048.93 1248.32 2048.95 1244.35 Q2048.95 1243.71 2048.87 1243.71 L2048.77 1243.79 Q2048.05 1244.39 2047.19 1244.39 Q2046.15 1244.39 2045.55 1243.71 Z" fill="#000000" fill-rule="evenodd" fill-opacity="1" /><path clip-path="url(#clip210)" d="M 0 0 M2083.72 1238.38 Q2083.2 1240.9 2082.16 1242.67 Q2080.87 1244.86 2078.9 1244.86 Q2077.24 1244.86 2076.13 1243.71 Q2075.03 1242.54 2075.03 1240.7 Q2075.03 1240.15 2075.25 1239.22 Q2075.33 1238.81 2075.33 1238.3 Q2075.33 1234.98 2068.14 1234.74 Q2067.55 1237.09 2067.14 1238.69 Q2066.75 1240.27 2066.62 1240.74 Q2066.5 1241.21 2066.4 1241.6 Q2066.32 1241.99 2066.17 1242.5 Q2065.97 1243.34 2065.82 1243.75 Q2065.68 1244.16 2065.29 1244.51 Q2064.92 1244.86 2064.33 1244.86 Q2063.81 1244.86 2063.47 1244.55 Q2063.12 1244.24 2063.12 1243.71 Q2063.12 1243.34 2063.28 1242.75 L2067.14 1227.36 Q2067.24 1226.93 2067.44 1226.62 Q2067.65 1226.31 2067.83 1226.17 Q2068.04 1226.02 2068.28 1225.94 Q2068.53 1225.86 2068.63 1225.86 Q2068.73 1225.84 2068.82 1225.84 Q2069.37 1225.84 2069.7 1226.15 Q2070.05 1226.43 2070.05 1226.97 Q2070.05 1227.05 2069.9 1227.62 Q2069.78 1228.18 2069.57 1229.02 Q2069.37 1229.86 2069.29 1230.25 L2068.45 1233.53 Q2069.61 1233.14 2070.66 1232.44 Q2071.73 1231.74 2073.82 1229.94 Q2074.78 1229.14 2075.35 1228.69 Q2075.95 1228.22 2076.93 1227.58 Q2077.92 1226.93 2078.86 1226.62 Q2079.8 1226.29 2080.7 1226.29 Q2081.4 1226.29 2081.81 1226.62 Q2082.22 1226.93 2082.3 1227.21 Q2082.38 1227.48 2082.38 1227.77 Q2082.38 1228.61 2081.73 1229.32 Q2081.07 1230.04 2080.11 1230.04 Q2079.25 1230.04 2078.88 1229.57 Q2078.51 1229.1 2078.51 1228.57 Q2078.51 1228.16 2078.71 1227.64 Q2077.57 1228.14 2076.58 1228.85 Q2075.6 1229.55 2073.9 1231.01 Q2071.48 1233.07 2070.05 1233.85 Q2070.87 1233.87 2071.48 1233.94 Q2072.12 1233.98 2073.18 1234.12 Q2074.25 1234.26 2075.03 1234.57 Q2075.8 1234.86 2076.56 1235.31 Q2077.34 1235.76 2077.75 1236.5 Q2078.18 1237.24 2078.18 1238.18 Q2078.18 1238.63 2077.98 1239.55 Q2077.63 1241.07 2077.63 1241.91 Q2077.63 1242.97 2077.96 1243.45 Q2078.3 1243.92 2078.98 1243.92 Q2080.27 1243.92 2081.09 1242.58 Q2081.93 1241.23 2082.63 1238.73 Q2082.73 1238.26 2082.83 1238.12 Q2082.94 1237.97 2083.22 1237.97 Q2083.72 1237.97 2083.72 1238.38 Z" fill="#000000" fill-rule="evenodd" fill-opacity="1" /><path clip-path="url(#clip210)" d="M 0 0 M2098.69 1238.01 Q2098.73 1237.5 2099.53 1237.5 L2125.25 1237.5 Q2126.46 1237.5 2126.48 1237.97 Q2126.48 1238.49 2125.33 1238.47 L2099.82 1238.47 Q2098.69 1238.49 2098.69 1238.01 M2098.69 1229.82 Q2098.69 1229.3 2099.57 1229.32 L2125.21 1229.32 Q2126.46 1229.32 2126.48 1229.82 Q2126.48 1230.29 2125.42 1230.29 L2099.53 1230.29 Q2098.69 1230.29 2098.69 1229.82 Z" fill="#000000" fill-rule="evenodd" fill-opacity="1" /><path clip-path="url(#clip210)" d="M 0 0 M2142.67 1237.62 Q2142.67 1236.37 2143.34 1235.9 Q2144.02 1235.41 2144.74 1235.41 Q2145.7 1235.41 2146.25 1236.03 Q2146.83 1236.62 2146.83 1237.46 Q2146.83 1238.3 2146.25 1238.92 Q2145.7 1239.51 2144.74 1239.51 Q2144.26 1239.51 2144.02 1239.43 Q2144.57 1241.35 2146.25 1242.75 Q2147.95 1244.14 2150.19 1244.14 Q2152.99 1244.14 2154.67 1241.42 Q2155.68 1239.65 2155.68 1235.66 Q2155.68 1232.13 2154.92 1230.37 Q2153.75 1227.68 2151.35 1227.68 Q2147.95 1227.68 2145.94 1230.62 Q2145.7 1230.98 2145.41 1231.01 Q2145 1231.01 2144.9 1230.78 Q2144.82 1230.53 2144.82 1229.9 L2144.82 1217.48 Q2144.82 1216.47 2145.23 1216.47 Q2145.39 1216.47 2145.74 1216.6 Q2148.38 1217.77 2151.31 1217.79 Q2154.33 1217.79 2157.03 1216.56 Q2157.24 1216.43 2157.36 1216.43 Q2157.77 1216.43 2157.79 1216.9 Q2157.79 1217.07 2157.44 1217.56 Q2157.11 1218.03 2156.4 1218.67 Q2155.68 1219.28 2154.76 1219.88 Q2153.83 1220.47 2152.48 1220.88 Q2151.15 1221.27 2149.67 1221.27 Q2147.91 1221.27 2146.11 1220.72 L2146.11 1228.89 Q2148.28 1226.76 2151.44 1226.76 Q2154.8 1226.76 2157.11 1229.47 Q2159.43 1232.17 2159.43 1235.94 Q2159.43 1239.9 2156.68 1242.6 Q2153.96 1245.31 2150.27 1245.31 Q2146.91 1245.31 2144.78 1242.91 Q2142.67 1240.51 2142.67 1237.62 Z" fill="#000000" fill-rule="evenodd" fill-opacity="1" /><path clip-path="url(#clip210)" d="M 0 0 M2163.45 1230.96 Q2163.45 1224.8 2165 1221.43 Q2167.18 1216.43 2172.3 1216.43 Q2173.39 1216.43 2174.51 1216.74 Q2175.66 1217.03 2177.1 1218.15 Q2178.55 1219.28 2179.43 1221.13 Q2181.11 1224.69 2181.11 1230.96 Q2181.11 1237.09 2179.56 1240.43 Q2177.28 1245.31 2172.26 1245.31 Q2170.37 1245.31 2168.45 1244.35 Q2166.54 1243.38 2165.33 1241.07 Q2163.45 1237.6 2163.45 1230.96 M2166.93 1230.45 Q2166.93 1236.78 2167.38 1239.31 Q2167.89 1242.03 2169.29 1243.22 Q2170.7 1244.39 2172.26 1244.39 Q2173.94 1244.39 2175.33 1243.14 Q2176.75 1241.87 2177.18 1239.14 Q2177.65 1236.46 2177.63 1230.45 Q2177.63 1224.61 2177.22 1222.27 Q2176.67 1219.55 2175.19 1218.46 Q2173.73 1217.36 2172.26 1217.36 Q2171.71 1217.36 2171.11 1217.52 Q2170.54 1217.68 2169.7 1218.15 Q2168.86 1218.63 2168.2 1219.79 Q2167.57 1220.96 2167.26 1222.73 Q2166.93 1225 2166.93 1230.45 Z" fill="#000000" fill-rule="evenodd" fill-opacity="1" /><path clip-path="url(#clip210)" d="M 0 0 M2184.86 1243.71 Q2184.23 1243.04 2184.23 1242.15 Q2184.23 1241.27 2184.86 1240.64 Q2185.5 1239.98 2186.46 1239.98 Q2187.38 1239.98 2188 1240.6 Q2188.63 1241.19 2188.63 1242.17 Q2188.63 1243.14 2187.96 1243.77 Q2187.3 1244.39 2186.46 1244.39 Q2185.5 1244.39 2184.86 1243.71 Z" fill="#000000" fill-rule="evenodd" fill-opacity="1" /><path clip-path="url(#clip210)" d="M 0 0 M2195.77 1230.96 Q2195.77 1224.8 2197.33 1221.43 Q2199.5 1216.43 2204.63 1216.43 Q2205.71 1216.43 2206.84 1216.74 Q2207.99 1217.03 2209.42 1218.15 Q2210.88 1219.28 2211.76 1221.13 Q2213.44 1224.69 2213.44 1230.96 Q2213.44 1237.09 2211.88 1240.43 Q2209.61 1245.31 2204.59 1245.31 Q2202.7 1245.31 2200.78 1244.35 Q2198.87 1243.38 2197.66 1241.07 Q2195.77 1237.6 2195.77 1230.96 M2199.26 1230.45 Q2199.26 1236.78 2199.71 1239.31 Q2200.22 1242.03 2201.62 1243.22 Q2203.03 1244.39 2204.59 1244.39 Q2206.27 1244.39 2207.66 1243.14 Q2209.08 1241.87 2209.51 1239.14 Q2209.98 1236.46 2209.96 1230.45 Q2209.96 1224.61 2209.55 1222.27 Q2208.99 1219.55 2207.52 1218.46 Q2206.06 1217.36 2204.59 1217.36 Q2204.03 1217.36 2203.44 1217.52 Q2202.87 1217.68 2202.03 1218.15 Q2201.19 1218.63 2200.53 1219.79 Q2199.89 1220.96 2199.59 1222.73 Q2199.26 1225 2199.26 1230.45 Z" fill="#000000" fill-rule="evenodd" fill-opacity="1" /><polyline clip-path="url(#clip210)" style="stroke:#bf0040; stroke-width:3.5; stroke-opacity:1; fill:none" points="
  1729.59,1287.25 1868.09,1287.25 
  "/>
<path clip-path="url(#clip210)" d="M 0 0 M1919.72 1269.35 Q1919.72 1269.74 1919.64 1270.07 L1918.49 1277.37 Q1918.43 1277.92 1918.31 1278.13 Q1918.21 1278.33 1917.88 1278.33 Q1917.37 1278.33 1917.37 1277.8 Q1917.37 1277.49 1917.49 1277 Q1917.84 1274.68 1917.84 1273.64 Q1917.84 1272.94 1917.69 1272.43 Q1917.57 1271.89 1917.37 1271.53 Q1917.18 1271.16 1916.75 1270.91 Q1916.32 1270.66 1915.91 1270.52 Q1915.5 1270.38 1914.76 1270.32 Q1914.03 1270.23 1913.39 1270.21 Q1912.75 1270.19 1911.71 1270.19 Q1909.43 1270.19 1909.07 1270.28 Q1908.68 1270.38 1908.47 1270.69 Q1908.29 1270.97 1908.08 1271.83 L1902.51 1294.11 L1902.34 1294.99 Q1902.34 1295.48 1902.65 1295.65 Q1902.96 1295.81 1903.9 1295.91 Q1905.25 1296.02 1906.59 1296.02 Q1906.63 1296.02 1906.71 1296.02 Q1907.16 1296.02 1907.34 1296.04 Q1907.53 1296.04 1907.71 1296.08 Q1907.9 1296.12 1907.94 1296.22 Q1908 1296.3 1908 1296.47 Q1908 1296.86 1907.84 1297.06 Q1907.67 1297.25 1907.51 1297.29 Q1907.36 1297.31 1907.08 1297.31 Q1906.5 1297.31 1905.27 1297.27 Q1904.04 1297.23 1903.43 1297.23 L1899.95 1297.19 L1896.38 1297.23 Q1895.83 1297.23 1894.66 1297.27 Q1893.49 1297.31 1892.94 1297.31 Q1892.22 1297.31 1892.22 1296.8 Q1892.22 1296.22 1892.49 1296.12 Q1892.77 1296.02 1893.98 1296.02 Q1895.68 1296.02 1896.6 1295.93 Q1897.53 1295.85 1898.02 1295.57 Q1898.53 1295.28 1898.67 1294.99 Q1898.82 1294.68 1898.98 1293.99 L1904.62 1271.59 Q1904.78 1271.1 1904.78 1270.71 Q1904.78 1270.5 1904.72 1270.42 Q1904.68 1270.34 1904.41 1270.28 Q1904.15 1270.19 1903.59 1270.19 L1901.95 1270.19 Q1900.27 1270.19 1899.23 1270.28 Q1898.2 1270.34 1897.22 1270.64 Q1896.26 1270.95 1895.68 1271.38 Q1895.13 1271.81 1894.51 1272.69 Q1893.9 1273.58 1893.45 1274.64 Q1893.02 1275.71 1892.4 1277.45 Q1892.2 1278.02 1892.08 1278.19 Q1891.97 1278.33 1891.69 1278.33 Q1891.48 1278.33 1891.32 1278.21 Q1891.17 1278.06 1891.17 1277.88 Q1891.38 1277.2 1891.42 1277.12 L1893.94 1269.72 Q1894.15 1269.13 1894.33 1269.03 Q1894.53 1268.9 1895.29 1268.9 L1918.57 1268.9 Q1918.94 1268.9 1919.07 1268.9 Q1919.19 1268.9 1919.39 1268.94 Q1919.6 1268.98 1919.66 1269.09 Q1919.72 1269.19 1919.72 1269.35 Z" fill="#000000" fill-rule="evenodd" fill-opacity="1" /><path clip-path="url(#clip210)" d="M 0 0 M1927.09 1290.93 Q1927.13 1290.42 1927.93 1290.42 L1953.65 1290.42 Q1954.86 1290.42 1954.88 1290.89 Q1954.88 1291.41 1953.73 1291.39 L1928.22 1291.39 Q1927.09 1291.41 1927.09 1290.93 M1927.09 1282.74 Q1927.09 1282.22 1927.97 1282.24 L1953.61 1282.24 Q1954.86 1282.24 1954.88 1282.74 Q1954.88 1283.21 1953.82 1283.21 L1927.93 1283.21 Q1927.09 1283.21 1927.09 1282.74 Z" fill="#000000" fill-rule="evenodd" fill-opacity="1" /><path clip-path="url(#clip210)" d="M 0 0 M1971.07 1290.54 Q1971.07 1289.29 1971.74 1288.82 Q1972.42 1288.33 1973.14 1288.33 Q1974.1 1288.33 1974.65 1288.95 Q1975.23 1289.54 1975.23 1290.38 Q1975.23 1291.22 1974.65 1291.84 Q1974.1 1292.43 1973.14 1292.43 Q1972.66 1292.43 1972.42 1292.35 Q1972.97 1294.27 1974.65 1295.67 Q1976.35 1297.06 1978.59 1297.06 Q1981.39 1297.06 1983.08 1294.34 Q1984.08 1292.57 1984.08 1288.58 Q1984.08 1285.05 1983.32 1283.29 Q1982.15 1280.6 1979.76 1280.6 Q1976.35 1280.6 1974.34 1283.54 Q1974.1 1283.9 1973.81 1283.93 Q1973.4 1283.93 1973.3 1283.7 Q1973.22 1283.45 1973.22 1282.82 L1973.22 1270.4 Q1973.22 1269.39 1973.63 1269.39 Q1973.79 1269.39 1974.14 1269.52 Q1976.78 1270.69 1979.71 1270.71 Q1982.73 1270.71 1985.43 1269.48 Q1985.64 1269.35 1985.76 1269.35 Q1986.17 1269.35 1986.19 1269.82 Q1986.19 1269.99 1985.84 1270.48 Q1985.51 1270.95 1984.8 1271.59 Q1984.08 1272.2 1983.16 1272.8 Q1982.24 1273.39 1980.88 1273.8 Q1979.55 1274.19 1978.07 1274.19 Q1976.31 1274.19 1974.51 1273.64 L1974.51 1281.81 Q1976.68 1279.68 1979.84 1279.68 Q1983.2 1279.68 1985.51 1282.39 Q1987.83 1285.09 1987.83 1288.86 Q1987.83 1292.82 1985.08 1295.52 Q1982.36 1298.23 1978.67 1298.23 Q1975.31 1298.23 1973.18 1295.83 Q1971.07 1293.43 1971.07 1290.54 Z" fill="#000000" fill-rule="evenodd" fill-opacity="1" /><path clip-path="url(#clip210)" d="M 0 0 M1991.85 1283.88 Q1991.85 1277.72 1993.4 1274.35 Q1995.58 1269.35 2000.7 1269.35 Q2001.79 1269.35 2002.91 1269.66 Q2004.06 1269.95 2005.5 1271.07 Q2006.95 1272.2 2007.83 1274.05 Q2009.51 1277.61 2009.51 1283.88 Q2009.51 1290.01 2007.96 1293.35 Q2005.68 1298.23 2000.66 1298.23 Q1998.77 1298.23 1996.85 1297.27 Q1994.94 1296.3 1993.73 1293.99 Q1991.85 1290.52 1991.85 1283.88 M1995.33 1283.37 Q1995.33 1289.7 1995.78 1292.23 Q1996.29 1294.95 1997.69 1296.14 Q1999.1 1297.31 2000.66 1297.31 Q2002.34 1297.31 2003.73 1296.06 Q2005.15 1294.79 2005.58 1292.06 Q2006.05 1289.38 2006.03 1283.37 Q2006.03 1277.53 2005.62 1275.19 Q2005.07 1272.47 2003.59 1271.38 Q2002.14 1270.28 2000.66 1270.28 Q2000.11 1270.28 1999.51 1270.44 Q1998.94 1270.6 1998.1 1271.07 Q1997.26 1271.55 1996.6 1272.71 Q1995.97 1273.88 1995.66 1275.65 Q1995.33 1277.92 1995.33 1283.37 Z" fill="#000000" fill-rule="evenodd" fill-opacity="1" /><path clip-path="url(#clip210)" d="M 0 0 M2013.26 1296.63 Q2012.63 1295.96 2012.63 1295.07 Q2012.63 1294.19 2013.26 1293.56 Q2013.9 1292.9 2014.86 1292.9 Q2015.78 1292.9 2016.4 1293.52 Q2017.03 1294.11 2017.03 1295.09 Q2017.03 1296.06 2016.36 1296.69 Q2015.7 1297.31 2014.86 1297.31 Q2013.9 1297.31 2013.26 1296.63 Z" fill="#000000" fill-rule="evenodd" fill-opacity="1" /><path clip-path="url(#clip210)" d="M 0 0 M2024.18 1283.88 Q2024.18 1277.72 2025.73 1274.35 Q2027.91 1269.35 2033.03 1269.35 Q2034.12 1269.35 2035.24 1269.66 Q2036.39 1269.95 2037.82 1271.07 Q2039.28 1272.2 2040.16 1274.05 Q2041.84 1277.61 2041.84 1283.88 Q2041.84 1290.01 2040.28 1293.35 Q2038.01 1298.23 2032.99 1298.23 Q2031.1 1298.23 2029.18 1297.27 Q2027.27 1296.3 2026.06 1293.99 Q2024.18 1290.52 2024.18 1283.88 M2027.66 1283.37 Q2027.66 1289.7 2028.11 1292.23 Q2028.62 1294.95 2030.02 1296.14 Q2031.43 1297.31 2032.99 1297.31 Q2034.67 1297.31 2036.06 1296.06 Q2037.48 1294.79 2037.91 1292.06 Q2038.38 1289.38 2038.36 1283.37 Q2038.36 1277.53 2037.95 1275.19 Q2037.39 1272.47 2035.92 1271.38 Q2034.46 1270.28 2032.99 1270.28 Q2032.43 1270.28 2031.84 1270.44 Q2031.27 1270.6 2030.43 1271.07 Q2029.59 1271.55 2028.93 1272.71 Q2028.29 1273.88 2027.99 1275.65 Q2027.66 1277.92 2027.66 1283.37 Z" fill="#000000" fill-rule="evenodd" fill-opacity="1" /><path clip-path="url(#clip210)" d="M 0 0 M2045.55 1296.63 Q2044.96 1295.96 2044.96 1295.07 Q2044.96 1294.19 2045.53 1293.54 Q2046.12 1292.86 2047.19 1292.86 Q2048.44 1292.86 2049.16 1294.07 Q2049.88 1295.26 2049.88 1297.27 Q2049.88 1299.44 2048.99 1301.45 Q2048.11 1303.48 2047.25 1304.44 Q2046.39 1305.4 2046.04 1305.4 Q2045.63 1305.4 2045.63 1304.95 Q2045.63 1304.79 2045.92 1304.48 Q2048.93 1301.24 2048.95 1297.27 Q2048.95 1296.63 2048.87 1296.63 L2048.77 1296.71 Q2048.05 1297.31 2047.19 1297.31 Q2046.15 1297.31 2045.55 1296.63 Z" fill="#000000" fill-rule="evenodd" fill-opacity="1" /><path clip-path="url(#clip210)" d="M 0 0 M2083.72 1291.3 Q2083.2 1293.82 2082.16 1295.59 Q2080.87 1297.78 2078.9 1297.78 Q2077.24 1297.78 2076.13 1296.63 Q2075.03 1295.46 2075.03 1293.62 Q2075.03 1293.07 2075.25 1292.14 Q2075.33 1291.73 2075.33 1291.22 Q2075.33 1287.9 2068.14 1287.66 Q2067.55 1290.01 2067.14 1291.61 Q2066.75 1293.19 2066.62 1293.66 Q2066.5 1294.13 2066.4 1294.52 Q2066.32 1294.91 2066.17 1295.42 Q2065.97 1296.26 2065.82 1296.67 Q2065.68 1297.08 2065.29 1297.43 Q2064.92 1297.78 2064.33 1297.78 Q2063.81 1297.78 2063.47 1297.47 Q2063.12 1297.16 2063.12 1296.63 Q2063.12 1296.26 2063.28 1295.67 L2067.14 1280.28 Q2067.24 1279.85 2067.44 1279.54 Q2067.65 1279.23 2067.83 1279.09 Q2068.04 1278.94 2068.28 1278.86 Q2068.53 1278.78 2068.63 1278.78 Q2068.73 1278.76 2068.82 1278.76 Q2069.37 1278.76 2069.7 1279.07 Q2070.05 1279.35 2070.05 1279.89 Q2070.05 1279.97 2069.9 1280.54 Q2069.78 1281.1 2069.57 1281.94 Q2069.37 1282.78 2069.29 1283.17 L2068.45 1286.45 Q2069.61 1286.06 2070.66 1285.36 Q2071.73 1284.66 2073.82 1282.86 Q2074.78 1282.06 2075.35 1281.61 Q2075.95 1281.14 2076.93 1280.5 Q2077.92 1279.85 2078.86 1279.54 Q2079.8 1279.21 2080.7 1279.21 Q2081.4 1279.21 2081.81 1279.54 Q2082.22 1279.85 2082.3 1280.13 Q2082.38 1280.4 2082.38 1280.69 Q2082.38 1281.53 2081.73 1282.24 Q2081.07 1282.96 2080.11 1282.96 Q2079.25 1282.96 2078.88 1282.49 Q2078.51 1282.02 2078.51 1281.49 Q2078.51 1281.08 2078.71 1280.56 Q2077.57 1281.06 2076.58 1281.77 Q2075.6 1282.47 2073.9 1283.93 Q2071.48 1285.99 2070.05 1286.77 Q2070.87 1286.79 2071.48 1286.86 Q2072.12 1286.9 2073.18 1287.04 Q2074.25 1287.18 2075.03 1287.49 Q2075.8 1287.78 2076.56 1288.23 Q2077.34 1288.68 2077.75 1289.42 Q2078.18 1290.16 2078.18 1291.1 Q2078.18 1291.55 2077.98 1292.47 Q2077.63 1293.99 2077.63 1294.83 Q2077.63 1295.89 2077.96 1296.37 Q2078.3 1296.84 2078.98 1296.84 Q2080.27 1296.84 2081.09 1295.5 Q2081.93 1294.15 2082.63 1291.65 Q2082.73 1291.18 2082.83 1291.04 Q2082.94 1290.89 2083.22 1290.89 Q2083.72 1290.89 2083.72 1291.3 Z" fill="#000000" fill-rule="evenodd" fill-opacity="1" /><path clip-path="url(#clip210)" d="M 0 0 M2098.69 1290.93 Q2098.73 1290.42 2099.53 1290.42 L2125.25 1290.42 Q2126.46 1290.42 2126.48 1290.89 Q2126.48 1291.41 2125.33 1291.39 L2099.82 1291.39 Q2098.69 1291.41 2098.69 1290.93 M2098.69 1282.74 Q2098.69 1282.22 2099.57 1282.24 L2125.21 1282.24 Q2126.46 1282.24 2126.48 1282.74 Q2126.48 1283.21 2125.42 1283.21 L2099.53 1283.21 Q2098.69 1283.21 2098.69 1282.74 Z" fill="#000000" fill-rule="evenodd" fill-opacity="1" /><path clip-path="url(#clip210)" d="M 0 0 M2142.67 1290.54 Q2142.67 1289.29 2143.34 1288.82 Q2144.02 1288.33 2144.74 1288.33 Q2145.7 1288.33 2146.25 1288.95 Q2146.83 1289.54 2146.83 1290.38 Q2146.83 1291.22 2146.25 1291.84 Q2145.7 1292.43 2144.74 1292.43 Q2144.26 1292.43 2144.02 1292.35 Q2144.57 1294.27 2146.25 1295.67 Q2147.95 1297.06 2150.19 1297.06 Q2152.99 1297.06 2154.67 1294.34 Q2155.68 1292.57 2155.68 1288.58 Q2155.68 1285.05 2154.92 1283.29 Q2153.75 1280.6 2151.35 1280.6 Q2147.95 1280.6 2145.94 1283.54 Q2145.7 1283.9 2145.41 1283.93 Q2145 1283.93 2144.9 1283.7 Q2144.82 1283.45 2144.82 1282.82 L2144.82 1270.4 Q2144.82 1269.39 2145.23 1269.39 Q2145.39 1269.39 2145.74 1269.52 Q2148.38 1270.69 2151.31 1270.71 Q2154.33 1270.71 2157.03 1269.48 Q2157.24 1269.35 2157.36 1269.35 Q2157.77 1269.35 2157.79 1269.82 Q2157.79 1269.99 2157.44 1270.48 Q2157.11 1270.95 2156.4 1271.59 Q2155.68 1272.2 2154.76 1272.8 Q2153.83 1273.39 2152.48 1273.8 Q2151.15 1274.19 2149.67 1274.19 Q2147.91 1274.19 2146.11 1273.64 L2146.11 1281.81 Q2148.28 1279.68 2151.44 1279.68 Q2154.8 1279.68 2157.11 1282.39 Q2159.43 1285.09 2159.43 1288.86 Q2159.43 1292.82 2156.68 1295.52 Q2153.96 1298.23 2150.27 1298.23 Q2146.91 1298.23 2144.78 1295.83 Q2142.67 1293.43 2142.67 1290.54 Z" fill="#000000" fill-rule="evenodd" fill-opacity="1" /><path clip-path="url(#clip210)" d="M 0 0 M2163.45 1283.88 Q2163.45 1277.72 2165 1274.35 Q2167.18 1269.35 2172.3 1269.35 Q2173.39 1269.35 2174.51 1269.66 Q2175.66 1269.95 2177.1 1271.07 Q2178.55 1272.2 2179.43 1274.05 Q2181.11 1277.61 2181.11 1283.88 Q2181.11 1290.01 2179.56 1293.35 Q2177.28 1298.23 2172.26 1298.23 Q2170.37 1298.23 2168.45 1297.27 Q2166.54 1296.3 2165.33 1293.99 Q2163.45 1290.52 2163.45 1283.88 M2166.93 1283.37 Q2166.93 1289.7 2167.38 1292.23 Q2167.89 1294.95 2169.29 1296.14 Q2170.7 1297.31 2172.26 1297.31 Q2173.94 1297.31 2175.33 1296.06 Q2176.75 1294.79 2177.18 1292.06 Q2177.65 1289.38 2177.63 1283.37 Q2177.63 1277.53 2177.22 1275.19 Q2176.67 1272.47 2175.19 1271.38 Q2173.73 1270.28 2172.26 1270.28 Q2171.71 1270.28 2171.11 1270.44 Q2170.54 1270.6 2169.7 1271.07 Q2168.86 1271.55 2168.2 1272.71 Q2167.57 1273.88 2167.26 1275.65 Q2166.93 1277.92 2166.93 1283.37 Z" fill="#000000" fill-rule="evenodd" fill-opacity="1" /><path clip-path="url(#clip210)" d="M 0 0 M2184.23 1283.88 Q2184.23 1277.72 2185.79 1274.35 Q2187.96 1269.35 2193.08 1269.35 Q2194.17 1269.35 2195.29 1269.66 Q2196.44 1269.95 2197.88 1271.07 Q2199.33 1272.2 2200.21 1274.05 Q2201.89 1277.61 2201.89 1283.88 Q2201.89 1290.01 2200.34 1293.35 Q2198.06 1298.23 2193.04 1298.23 Q2191.15 1298.23 2189.23 1297.27 Q2187.32 1296.3 2186.11 1293.99 Q2184.23 1290.52 2184.23 1283.88 M2187.71 1283.37 Q2187.71 1289.7 2188.16 1292.23 Q2188.67 1294.95 2190.07 1296.14 Q2191.48 1297.31 2193.04 1297.31 Q2194.72 1297.31 2196.11 1296.06 Q2197.53 1294.79 2197.96 1292.06 Q2198.43 1289.38 2198.41 1283.37 Q2198.41 1277.53 2198 1275.19 Q2197.45 1272.47 2195.97 1271.38 Q2194.52 1270.28 2193.04 1270.28 Q2192.49 1270.28 2191.89 1270.44 Q2191.32 1270.6 2190.48 1271.07 Q2189.64 1271.55 2188.98 1272.71 Q2188.35 1273.88 2188.04 1275.65 Q2187.71 1277.92 2187.71 1283.37 Z" fill="#000000" fill-rule="evenodd" fill-opacity="1" /><path clip-path="url(#clip210)" d="M 0 0 M2205.64 1296.63 Q2205.01 1295.96 2205.01 1295.07 Q2205.01 1294.19 2205.64 1293.56 Q2206.28 1292.9 2207.24 1292.9 Q2208.17 1292.9 2208.78 1293.52 Q2209.42 1294.11 2209.42 1295.09 Q2209.42 1296.06 2208.74 1296.69 Q2208.08 1297.31 2207.24 1297.31 Q2206.28 1297.31 2205.64 1296.63 Z" fill="#000000" fill-rule="evenodd" fill-opacity="1" /><path clip-path="url(#clip210)" d="M 0 0 M2216.56 1283.88 Q2216.56 1277.72 2218.11 1274.35 Q2220.29 1269.35 2225.41 1269.35 Q2226.5 1269.35 2227.62 1269.66 Q2228.77 1269.95 2230.21 1271.07 Q2231.66 1272.2 2232.54 1274.05 Q2234.22 1277.61 2234.22 1283.88 Q2234.22 1290.01 2232.67 1293.35 Q2230.39 1298.23 2225.37 1298.23 Q2223.48 1298.23 2221.56 1297.27 Q2219.65 1296.3 2218.44 1293.99 Q2216.56 1290.52 2216.56 1283.88 M2220.04 1283.37 Q2220.04 1289.7 2220.49 1292.23 Q2221 1294.95 2222.4 1296.14 Q2223.81 1297.31 2225.37 1297.31 Q2227.05 1297.31 2228.44 1296.06 Q2229.86 1294.79 2230.29 1292.06 Q2230.76 1289.38 2230.74 1283.37 Q2230.74 1277.53 2230.33 1275.19 Q2229.78 1272.47 2228.3 1271.38 Q2226.84 1270.28 2225.37 1270.28 Q2224.82 1270.28 2224.22 1270.44 Q2223.65 1270.6 2222.81 1271.07 Q2221.97 1271.55 2221.31 1272.71 Q2220.68 1273.88 2220.37 1275.65 Q2220.04 1277.92 2220.04 1283.37 Z" fill="#000000" fill-rule="evenodd" fill-opacity="1" /><polyline clip-path="url(#clip210)" style="stroke:#ff0000; stroke-width:3.5; stroke-opacity:1; fill:none" points="
  1729.59,1340.17 1868.09,1340.17 
  "/>
<path clip-path="url(#clip210)" d="M 0 0 M1919.72 1322.27 Q1919.72 1322.66 1919.64 1322.99 L1918.49 1330.29 Q1918.43 1330.84 1918.31 1331.05 Q1918.21 1331.25 1917.88 1331.25 Q1917.37 1331.25 1917.37 1330.72 Q1917.37 1330.41 1917.49 1329.92 Q1917.84 1327.6 1917.84 1326.56 Q1917.84 1325.86 1917.69 1325.35 Q1917.57 1324.81 1917.37 1324.45 Q1917.18 1324.08 1916.75 1323.83 Q1916.32 1323.58 1915.91 1323.44 Q1915.5 1323.3 1914.76 1323.24 Q1914.03 1323.15 1913.39 1323.13 Q1912.75 1323.11 1911.71 1323.11 Q1909.43 1323.11 1909.07 1323.2 Q1908.68 1323.3 1908.47 1323.61 Q1908.29 1323.89 1908.08 1324.75 L1902.51 1347.03 L1902.34 1347.91 Q1902.34 1348.4 1902.65 1348.57 Q1902.96 1348.73 1903.9 1348.83 Q1905.25 1348.94 1906.59 1348.94 Q1906.63 1348.94 1906.71 1348.94 Q1907.16 1348.94 1907.34 1348.96 Q1907.53 1348.96 1907.71 1349 Q1907.9 1349.04 1907.94 1349.14 Q1908 1349.22 1908 1349.39 Q1908 1349.78 1907.84 1349.98 Q1907.67 1350.17 1907.51 1350.21 Q1907.36 1350.23 1907.08 1350.23 Q1906.5 1350.23 1905.27 1350.19 Q1904.04 1350.15 1903.43 1350.15 L1899.95 1350.11 L1896.38 1350.15 Q1895.83 1350.15 1894.66 1350.19 Q1893.49 1350.23 1892.94 1350.23 Q1892.22 1350.23 1892.22 1349.72 Q1892.22 1349.14 1892.49 1349.04 Q1892.77 1348.94 1893.98 1348.94 Q1895.68 1348.94 1896.6 1348.85 Q1897.53 1348.77 1898.02 1348.49 Q1898.53 1348.2 1898.67 1347.91 Q1898.82 1347.6 1898.98 1346.91 L1904.62 1324.51 Q1904.78 1324.02 1904.78 1323.63 Q1904.78 1323.42 1904.72 1323.34 Q1904.68 1323.26 1904.41 1323.2 Q1904.15 1323.11 1903.59 1323.11 L1901.95 1323.11 Q1900.27 1323.11 1899.23 1323.2 Q1898.2 1323.26 1897.22 1323.56 Q1896.26 1323.87 1895.68 1324.3 Q1895.13 1324.73 1894.51 1325.61 Q1893.9 1326.5 1893.45 1327.56 Q1893.02 1328.63 1892.4 1330.37 Q1892.2 1330.94 1892.08 1331.11 Q1891.97 1331.25 1891.69 1331.25 Q1891.48 1331.25 1891.32 1331.13 Q1891.17 1330.98 1891.17 1330.8 Q1891.38 1330.12 1891.42 1330.04 L1893.94 1322.64 Q1894.15 1322.05 1894.33 1321.95 Q1894.53 1321.82 1895.29 1321.82 L1918.57 1321.82 Q1918.94 1321.82 1919.07 1321.82 Q1919.19 1321.82 1919.39 1321.86 Q1919.6 1321.9 1919.66 1322.01 Q1919.72 1322.11 1919.72 1322.27 Z" fill="#000000" fill-rule="evenodd" fill-opacity="1" /><path clip-path="url(#clip210)" d="M 0 0 M1927.09 1343.85 Q1927.13 1343.34 1927.93 1343.34 L1953.65 1343.34 Q1954.86 1343.34 1954.88 1343.81 Q1954.88 1344.33 1953.73 1344.31 L1928.22 1344.31 Q1927.09 1344.33 1927.09 1343.85 M1927.09 1335.66 Q1927.09 1335.14 1927.97 1335.16 L1953.61 1335.16 Q1954.86 1335.16 1954.88 1335.66 Q1954.88 1336.13 1953.82 1336.13 L1927.93 1336.13 Q1927.09 1336.13 1927.09 1335.66 Z" fill="#000000" fill-rule="evenodd" fill-opacity="1" /><path clip-path="url(#clip210)" d="M 0 0 M1971.07 1343.46 Q1971.07 1342.21 1971.74 1341.74 Q1972.42 1341.25 1973.14 1341.25 Q1974.1 1341.25 1974.65 1341.87 Q1975.23 1342.46 1975.23 1343.3 Q1975.23 1344.14 1974.65 1344.76 Q1974.1 1345.35 1973.14 1345.35 Q1972.66 1345.35 1972.42 1345.27 Q1972.97 1347.19 1974.65 1348.59 Q1976.35 1349.98 1978.59 1349.98 Q1981.39 1349.98 1983.08 1347.26 Q1984.08 1345.49 1984.08 1341.5 Q1984.08 1337.97 1983.32 1336.21 Q1982.15 1333.52 1979.76 1333.52 Q1976.35 1333.52 1974.34 1336.46 Q1974.1 1336.82 1973.81 1336.85 Q1973.4 1336.85 1973.3 1336.62 Q1973.22 1336.37 1973.22 1335.74 L1973.22 1323.32 Q1973.22 1322.31 1973.63 1322.31 Q1973.79 1322.31 1974.14 1322.44 Q1976.78 1323.61 1979.71 1323.63 Q1982.73 1323.63 1985.43 1322.4 Q1985.64 1322.27 1985.76 1322.27 Q1986.17 1322.27 1986.19 1322.74 Q1986.19 1322.91 1985.84 1323.4 Q1985.51 1323.87 1984.8 1324.51 Q1984.08 1325.12 1983.16 1325.72 Q1982.24 1326.31 1980.88 1326.72 Q1979.55 1327.11 1978.07 1327.11 Q1976.31 1327.11 1974.51 1326.56 L1974.51 1334.73 Q1976.68 1332.6 1979.84 1332.6 Q1983.2 1332.6 1985.51 1335.31 Q1987.83 1338.01 1987.83 1341.78 Q1987.83 1345.74 1985.08 1348.44 Q1982.36 1351.15 1978.67 1351.15 Q1975.31 1351.15 1973.18 1348.75 Q1971.07 1346.35 1971.07 1343.46 Z" fill="#000000" fill-rule="evenodd" fill-opacity="1" /><path clip-path="url(#clip210)" d="M 0 0 M1991.85 1336.8 Q1991.85 1330.64 1993.4 1327.27 Q1995.58 1322.27 2000.7 1322.27 Q2001.79 1322.27 2002.91 1322.58 Q2004.06 1322.87 2005.5 1323.99 Q2006.95 1325.12 2007.83 1326.97 Q2009.51 1330.53 2009.51 1336.8 Q2009.51 1342.93 2007.96 1346.27 Q2005.68 1351.15 2000.66 1351.15 Q1998.77 1351.15 1996.85 1350.19 Q1994.94 1349.22 1993.73 1346.91 Q1991.85 1343.44 1991.85 1336.8 M1995.33 1336.29 Q1995.33 1342.62 1995.78 1345.15 Q1996.29 1347.87 1997.69 1349.06 Q1999.1 1350.23 2000.66 1350.23 Q2002.34 1350.23 2003.73 1348.98 Q2005.15 1347.71 2005.58 1344.98 Q2006.05 1342.3 2006.03 1336.29 Q2006.03 1330.45 2005.62 1328.11 Q2005.07 1325.39 2003.59 1324.3 Q2002.14 1323.2 2000.66 1323.2 Q2000.11 1323.2 1999.51 1323.36 Q1998.94 1323.52 1998.1 1323.99 Q1997.26 1324.47 1996.6 1325.63 Q1995.97 1326.8 1995.66 1328.57 Q1995.33 1330.84 1995.33 1336.29 Z" fill="#000000" fill-rule="evenodd" fill-opacity="1" /><path clip-path="url(#clip210)" d="M 0 0 M2013.26 1349.55 Q2012.63 1348.88 2012.63 1347.99 Q2012.63 1347.11 2013.26 1346.48 Q2013.9 1345.82 2014.86 1345.82 Q2015.78 1345.82 2016.4 1346.44 Q2017.03 1347.03 2017.03 1348.01 Q2017.03 1348.98 2016.36 1349.61 Q2015.7 1350.23 2014.86 1350.23 Q2013.9 1350.23 2013.26 1349.55 Z" fill="#000000" fill-rule="evenodd" fill-opacity="1" /><path clip-path="url(#clip210)" d="M 0 0 M2024.18 1336.8 Q2024.18 1330.64 2025.73 1327.27 Q2027.91 1322.27 2033.03 1322.27 Q2034.12 1322.27 2035.24 1322.58 Q2036.39 1322.87 2037.82 1323.99 Q2039.28 1325.12 2040.16 1326.97 Q2041.84 1330.53 2041.84 1336.8 Q2041.84 1342.93 2040.28 1346.27 Q2038.01 1351.15 2032.99 1351.15 Q2031.1 1351.15 2029.18 1350.19 Q2027.27 1349.22 2026.06 1346.91 Q2024.18 1343.44 2024.18 1336.8 M2027.66 1336.29 Q2027.66 1342.62 2028.11 1345.15 Q2028.62 1347.87 2030.02 1349.06 Q2031.43 1350.23 2032.99 1350.23 Q2034.67 1350.23 2036.06 1348.98 Q2037.48 1347.71 2037.91 1344.98 Q2038.38 1342.3 2038.36 1336.29 Q2038.36 1330.45 2037.95 1328.11 Q2037.39 1325.39 2035.92 1324.3 Q2034.46 1323.2 2032.99 1323.2 Q2032.43 1323.2 2031.84 1323.36 Q2031.27 1323.52 2030.43 1323.99 Q2029.59 1324.47 2028.93 1325.63 Q2028.29 1326.8 2027.99 1328.57 Q2027.66 1330.84 2027.66 1336.29 Z" fill="#000000" fill-rule="evenodd" fill-opacity="1" /><path clip-path="url(#clip210)" d="M 0 0 M2045.55 1349.55 Q2044.96 1348.88 2044.96 1347.99 Q2044.96 1347.11 2045.53 1346.46 Q2046.12 1345.78 2047.19 1345.78 Q2048.44 1345.78 2049.16 1346.99 Q2049.88 1348.18 2049.88 1350.19 Q2049.88 1352.36 2048.99 1354.37 Q2048.11 1356.4 2047.25 1357.36 Q2046.39 1358.32 2046.04 1358.32 Q2045.63 1358.32 2045.63 1357.87 Q2045.63 1357.71 2045.92 1357.4 Q2048.93 1354.16 2048.95 1350.19 Q2048.95 1349.55 2048.87 1349.55 L2048.77 1349.63 Q2048.05 1350.23 2047.19 1350.23 Q2046.15 1350.23 2045.55 1349.55 Z" fill="#000000" fill-rule="evenodd" fill-opacity="1" /><path clip-path="url(#clip210)" d="M 0 0 M2083.72 1344.22 Q2083.2 1346.74 2082.16 1348.51 Q2080.87 1350.7 2078.9 1350.7 Q2077.24 1350.7 2076.13 1349.55 Q2075.03 1348.38 2075.03 1346.54 Q2075.03 1345.99 2075.25 1345.06 Q2075.33 1344.65 2075.33 1344.14 Q2075.33 1340.82 2068.14 1340.58 Q2067.55 1342.93 2067.14 1344.53 Q2066.75 1346.11 2066.62 1346.58 Q2066.5 1347.05 2066.4 1347.44 Q2066.32 1347.83 2066.17 1348.34 Q2065.97 1349.18 2065.82 1349.59 Q2065.68 1350 2065.29 1350.35 Q2064.92 1350.7 2064.33 1350.7 Q2063.81 1350.7 2063.47 1350.39 Q2063.12 1350.08 2063.12 1349.55 Q2063.12 1349.18 2063.28 1348.59 L2067.14 1333.2 Q2067.24 1332.77 2067.44 1332.46 Q2067.65 1332.15 2067.83 1332.01 Q2068.04 1331.86 2068.28 1331.78 Q2068.53 1331.7 2068.63 1331.7 Q2068.73 1331.68 2068.82 1331.68 Q2069.37 1331.68 2069.7 1331.99 Q2070.05 1332.27 2070.05 1332.81 Q2070.05 1332.89 2069.9 1333.46 Q2069.78 1334.02 2069.57 1334.86 Q2069.37 1335.7 2069.29 1336.09 L2068.45 1339.37 Q2069.61 1338.98 2070.66 1338.28 Q2071.73 1337.58 2073.82 1335.78 Q2074.78 1334.98 2075.35 1334.53 Q2075.95 1334.06 2076.93 1333.42 Q2077.92 1332.77 2078.86 1332.46 Q2079.8 1332.13 2080.7 1332.13 Q2081.4 1332.13 2081.81 1332.46 Q2082.22 1332.77 2082.3 1333.05 Q2082.38 1333.32 2082.38 1333.61 Q2082.38 1334.45 2081.73 1335.16 Q2081.07 1335.88 2080.11 1335.88 Q2079.25 1335.88 2078.88 1335.41 Q2078.51 1334.94 2078.51 1334.41 Q2078.51 1334 2078.71 1333.48 Q2077.57 1333.98 2076.58 1334.69 Q2075.6 1335.39 2073.9 1336.85 Q2071.48 1338.91 2070.05 1339.69 Q2070.87 1339.71 2071.48 1339.78 Q2072.12 1339.82 2073.18 1339.96 Q2074.25 1340.1 2075.03 1340.41 Q2075.8 1340.7 2076.56 1341.15 Q2077.34 1341.6 2077.75 1342.34 Q2078.18 1343.08 2078.18 1344.02 Q2078.18 1344.47 2077.98 1345.39 Q2077.63 1346.91 2077.63 1347.75 Q2077.63 1348.81 2077.96 1349.29 Q2078.3 1349.76 2078.98 1349.76 Q2080.27 1349.76 2081.09 1348.42 Q2081.93 1347.07 2082.63 1344.57 Q2082.73 1344.1 2082.83 1343.96 Q2082.94 1343.81 2083.22 1343.81 Q2083.72 1343.81 2083.72 1344.22 Z" fill="#000000" fill-rule="evenodd" fill-opacity="1" /><path clip-path="url(#clip210)" d="M 0 0 M2098.69 1343.85 Q2098.73 1343.34 2099.53 1343.34 L2125.25 1343.34 Q2126.46 1343.34 2126.48 1343.81 Q2126.48 1344.33 2125.33 1344.31 L2099.82 1344.31 Q2098.69 1344.33 2098.69 1343.85 M2098.69 1335.66 Q2098.69 1335.14 2099.57 1335.16 L2125.21 1335.16 Q2126.46 1335.16 2126.48 1335.66 Q2126.48 1336.13 2125.42 1336.13 L2099.53 1336.13 Q2098.69 1336.13 2098.69 1335.66 Z" fill="#000000" fill-rule="evenodd" fill-opacity="1" /><path clip-path="url(#clip210)" d="M 0 0 M2142.67 1343.46 Q2142.67 1342.21 2143.34 1341.74 Q2144.02 1341.25 2144.74 1341.25 Q2145.7 1341.25 2146.25 1341.87 Q2146.83 1342.46 2146.83 1343.3 Q2146.83 1344.14 2146.25 1344.76 Q2145.7 1345.35 2144.74 1345.35 Q2144.26 1345.35 2144.02 1345.27 Q2144.57 1347.19 2146.25 1348.59 Q2147.95 1349.98 2150.19 1349.98 Q2152.99 1349.98 2154.67 1347.26 Q2155.68 1345.49 2155.68 1341.5 Q2155.68 1337.97 2154.92 1336.21 Q2153.75 1333.52 2151.35 1333.52 Q2147.95 1333.52 2145.94 1336.46 Q2145.7 1336.82 2145.41 1336.85 Q2145 1336.85 2144.9 1336.62 Q2144.82 1336.37 2144.82 1335.74 L2144.82 1323.32 Q2144.82 1322.31 2145.23 1322.31 Q2145.39 1322.31 2145.74 1322.44 Q2148.38 1323.61 2151.31 1323.63 Q2154.33 1323.63 2157.03 1322.4 Q2157.24 1322.27 2157.36 1322.27 Q2157.77 1322.27 2157.79 1322.74 Q2157.79 1322.91 2157.44 1323.4 Q2157.11 1323.87 2156.4 1324.51 Q2155.68 1325.12 2154.76 1325.72 Q2153.83 1326.31 2152.48 1326.72 Q2151.15 1327.11 2149.67 1327.11 Q2147.91 1327.11 2146.11 1326.56 L2146.11 1334.73 Q2148.28 1332.6 2151.44 1332.6 Q2154.8 1332.6 2157.11 1335.31 Q2159.43 1338.01 2159.43 1341.78 Q2159.43 1345.74 2156.68 1348.44 Q2153.96 1351.15 2150.27 1351.15 Q2146.91 1351.15 2144.78 1348.75 Q2142.67 1346.35 2142.67 1343.46 Z" fill="#000000" fill-rule="evenodd" fill-opacity="1" /><path clip-path="url(#clip210)" d="M 0 0 M2164.08 1349.55 Q2163.45 1348.88 2163.45 1347.99 Q2163.45 1347.11 2164.08 1346.48 Q2164.72 1345.82 2165.68 1345.82 Q2166.6 1345.82 2167.22 1346.44 Q2167.85 1347.03 2167.85 1348.01 Q2167.85 1348.98 2167.18 1349.61 Q2166.52 1350.23 2165.68 1350.23 Q2164.72 1350.23 2164.08 1349.55 Z" fill="#000000" fill-rule="evenodd" fill-opacity="1" /><path clip-path="url(#clip210)" d="M 0 0 M2174.99 1336.8 Q2174.99 1330.64 2176.55 1327.27 Q2178.72 1322.27 2183.85 1322.27 Q2184.93 1322.27 2186.06 1322.58 Q2187.21 1322.87 2188.64 1323.99 Q2190.1 1325.12 2190.98 1326.97 Q2192.66 1330.53 2192.66 1336.8 Q2192.66 1342.93 2191.1 1346.27 Q2188.83 1351.15 2183.81 1351.15 Q2181.92 1351.15 2179.99 1350.19 Q2178.09 1349.22 2176.88 1346.91 Q2174.99 1343.44 2174.99 1336.8 M2178.48 1336.29 Q2178.48 1342.62 2178.93 1345.15 Q2179.44 1347.87 2180.83 1349.06 Q2182.25 1350.23 2183.81 1350.23 Q2185.49 1350.23 2186.88 1348.98 Q2188.29 1347.71 2188.73 1344.98 Q2189.2 1342.3 2189.18 1336.29 Q2189.18 1330.45 2188.77 1328.11 Q2188.21 1325.39 2186.74 1324.3 Q2185.28 1323.2 2183.81 1323.2 Q2183.25 1323.2 2182.66 1323.36 Q2182.08 1323.52 2181.24 1323.99 Q2180.4 1324.47 2179.75 1325.63 Q2179.11 1326.8 2178.81 1328.57 Q2178.48 1330.84 2178.48 1336.29 Z" fill="#000000" fill-rule="evenodd" fill-opacity="1" /><path clip-path="url(#clip210)" d="M 0 0 M2211.74 1345.37 Q2211.9 1345.56 2211.9 1345.74 Q2211.9 1345.92 2211.49 1346.46 Q2211.1 1346.99 2210.26 1347.71 Q2209.42 1348.42 2208.34 1349.1 Q2207.25 1349.78 2205.65 1350.23 Q2204.05 1350.7 2202.37 1350.7 Q2199.36 1350.7 2197.56 1348.55 Q2195.77 1346.4 2195.77 1343.1 Q2195.77 1340.98 2196.47 1339.12 Q2197.17 1337.23 2198.3 1335.9 Q2199.44 1334.57 2200.88 1333.61 Q2202.33 1332.62 2203.85 1332.15 Q2205.37 1331.68 2206.78 1331.68 Q2208.85 1331.68 2210.06 1332.73 Q2211.27 1333.77 2211.27 1335.25 Q2211.27 1335.59 2211.17 1336.03 Q2211.08 1336.46 2210.8 1337.13 Q2210.53 1337.81 2209.83 1338.48 Q2209.14 1339.14 2208.11 1339.57 Q2205.84 1340.53 2201.7 1340.53 L2199.46 1340.53 Q2198.81 1343.18 2198.81 1344.9 Q2198.81 1345.58 2198.93 1346.27 Q2199.05 1346.95 2199.38 1347.81 Q2199.73 1348.67 2200.51 1349.22 Q2201.31 1349.76 2202.46 1349.76 Q2202.83 1349.76 2203.21 1349.74 Q2203.62 1349.72 2204.65 1349.49 Q2205.69 1349.26 2206.62 1348.88 Q2207.54 1348.49 2208.71 1347.65 Q2209.9 1346.78 2210.84 1345.62 Q2211.17 1345.19 2211.39 1345.19 Q2211.58 1345.19 2211.74 1345.37 M2209.88 1335.25 Q2209.88 1334.12 2209.04 1333.36 Q2208.22 1332.6 2206.78 1332.6 Q2206.33 1332.6 2205.78 1332.71 Q2205.22 1332.81 2204.3 1333.24 Q2203.4 1333.67 2202.6 1334.39 Q2201.8 1335.08 2201 1336.46 Q2200.2 1337.81 2199.73 1339.61 L2201.45 1339.61 Q2202.05 1339.61 2202.48 1339.61 Q2202.91 1339.59 2203.85 1339.51 Q2204.81 1339.43 2205.51 1339.28 Q2206.21 1339.12 2207.09 1338.79 Q2207.97 1338.46 2208.52 1338.03 Q2209.1 1337.58 2209.49 1336.87 Q2209.88 1336.15 2209.88 1335.25 Z" fill="#000000" fill-rule="evenodd" fill-opacity="1" /><path clip-path="url(#clip210)" d="M 0 0 M2215.14 1336.97 Q2215.14 1330.37 2218.5 1326.33 Q2221.86 1322.27 2226.18 1322.27 Q2228.7 1322.27 2230.1 1323.56 Q2231.51 1324.84 2231.51 1326.8 Q2231.51 1327.89 2230.88 1328.36 Q2230.24 1328.83 2229.58 1328.83 Q2228.83 1328.83 2228.23 1328.32 Q2227.64 1327.81 2227.64 1326.88 Q2227.64 1325 2229.95 1325 Q2228.87 1323.32 2226.26 1323.32 Q2225.46 1323.32 2224.65 1323.56 Q2223.83 1323.79 2222.76 1324.57 Q2221.69 1325.35 2220.87 1326.58 Q2220.05 1327.81 2219.48 1330.12 Q2218.91 1332.44 2218.91 1335.45 L2218.91 1336.46 Q2220.63 1332.3 2224.15 1332.32 Q2227.68 1332.32 2230.12 1335 Q2232.56 1337.69 2232.56 1341.66 Q2232.56 1345.74 2230.01 1348.44 Q2227.47 1351.15 2223.91 1351.15 Q2222.31 1351.15 2220.85 1350.47 Q2219.42 1349.82 2218.07 1348.3 Q2216.73 1346.78 2215.93 1343.87 Q2215.14 1340.96 2215.14 1336.97 M2218.99 1340.74 Q2218.99 1344.86 2219.75 1346.83 Q2219.87 1347.15 2220.14 1347.6 Q2220.42 1348.06 2220.89 1348.65 Q2221.39 1349.22 2222.19 1349.61 Q2222.99 1349.98 2223.91 1349.98 Q2226.72 1349.98 2228.07 1347.26 Q2228.79 1345.74 2228.79 1341.62 Q2228.79 1337.42 2228.03 1335.88 Q2226.74 1333.28 2224.11 1333.28 Q2222.35 1333.28 2221.12 1334.49 Q2219.91 1335.7 2219.44 1337.32 Q2218.99 1338.94 2218.99 1340.74 Z" fill="#000000" fill-rule="evenodd" fill-opacity="1" /></svg>
