<?xml version="1.0" encoding="utf-8"?>
<svg xmlns="http://www.w3.org/2000/svg" xmlns:xlink="http://www.w3.org/1999/xlink" width="600" height="400" viewBox="0 0 2400 1600">
<defs>
  <clipPath id="clip390">
    <rect x="0" y="0" width="2400" height="1600"/>
  </clipPath>
</defs>
<path clip-path="url(#clip390)" d="
M0 1600 L2400 1600 L2400 0 L0 0  Z
  " fill="#ffffff" fill-rule="evenodd" fill-opacity="1"/>
<defs>
  <clipPath id="clip391">
    <rect x="480" y="0" width="1681" height="1600"/>
  </clipPath>
</defs>
<defs>
  <clipPath id="clip392">
    <rect x="276" y="47" width="1656" height="1393"/>
  </clipPath>
</defs>
<path clip-path="url(#clip390)" d="
M246.706 1439.5 L1927.09 1439.5 L1927.09 47.2441 L246.706 47.2441  Z
  " fill="#ffffff" fill-rule="evenodd" fill-opacity="1"/>
<defs>
  <clipPath id="clip393">
    <rect x="246" y="47" width="1681" height="1393"/>
  </clipPath>
</defs>
<polyline clip-path="url(#clip393)" style="stroke:#000000; stroke-width:2; stroke-opacity:0.1; fill:none" points="
  293.947,1439.5 293.947,47.2441 
  "/>
<polyline clip-path="url(#clip393)" style="stroke:#000000; stroke-width:2; stroke-opacity:0.1; fill:none" points="
  611.065,1439.5 611.065,47.2441 
  "/>
<polyline clip-path="url(#clip393)" style="stroke:#000000; stroke-width:2; stroke-opacity:0.1; fill:none" points="
  928.183,1439.5 928.183,47.2441 
  "/>
<polyline clip-path="url(#clip393)" style="stroke:#000000; stroke-width:2; stroke-opacity:0.1; fill:none" points="
  1245.3,1439.5 1245.3,47.2441 
  "/>
<polyline clip-path="url(#clip393)" style="stroke:#000000; stroke-width:2; stroke-opacity:0.1; fill:none" points="
  1562.42,1439.5 1562.42,47.2441 
  "/>
<polyline clip-path="url(#clip393)" style="stroke:#000000; stroke-width:2; stroke-opacity:0.1; fill:none" points="
  1879.54,1439.5 1879.54,47.2441 
  "/>
<polyline clip-path="url(#clip390)" style="stroke:#000000; stroke-width:4; stroke-opacity:1; fill:none" points="
  246.706,1439.5 1927.09,1439.5 
  "/>
<polyline clip-path="url(#clip390)" style="stroke:#000000; stroke-width:4; stroke-opacity:1; fill:none" points="
  293.947,1439.5 293.947,1422.79 
  "/>
<polyline clip-path="url(#clip390)" style="stroke:#000000; stroke-width:4; stroke-opacity:1; fill:none" points="
  611.065,1439.5 611.065,1422.79 
  "/>
<polyline clip-path="url(#clip390)" style="stroke:#000000; stroke-width:4; stroke-opacity:1; fill:none" points="
  928.183,1439.5 928.183,1422.79 
  "/>
<polyline clip-path="url(#clip390)" style="stroke:#000000; stroke-width:4; stroke-opacity:1; fill:none" points="
  1245.3,1439.5 1245.3,1422.79 
  "/>
<polyline clip-path="url(#clip390)" style="stroke:#000000; stroke-width:4; stroke-opacity:1; fill:none" points="
  1562.42,1439.5 1562.42,1422.79 
  "/>
<polyline clip-path="url(#clip390)" style="stroke:#000000; stroke-width:4; stroke-opacity:1; fill:none" points="
  1879.54,1439.5 1879.54,1422.79 
  "/>
<path clip-path="url(#clip390)" d="M 0 0 M293.947 1468.69 Q290.336 1468.69 288.507 1472.26 Q286.702 1475.8 286.702 1482.93 Q286.702 1490.04 288.507 1493.6 Q290.336 1497.14 293.947 1497.14 Q297.581 1497.14 299.387 1493.6 Q301.216 1490.04 301.216 1482.93 Q301.216 1475.8 299.387 1472.26 Q297.581 1468.69 293.947 1468.69 M293.947 1464.99 Q299.757 1464.99 302.813 1469.6 Q305.891 1474.18 305.891 1482.93 Q305.891 1491.66 302.813 1496.26 Q299.757 1500.85 293.947 1500.85 Q288.137 1500.85 285.058 1496.26 Q282.003 1491.66 282.003 1482.93 Q282.003 1474.18 285.058 1469.6 Q288.137 1464.99 293.947 1464.99 Z" fill="#000000" fill-rule="evenodd" fill-opacity="1" /><path clip-path="url(#clip390)" d="M 0 0 M570.672 1496.24 L578.31 1496.24 L578.31 1469.87 L570 1471.54 L570 1467.28 L578.264 1465.61 L582.94 1465.61 L582.94 1496.24 L590.579 1496.24 L590.579 1500.17 L570.672 1500.17 L570.672 1496.24 Z" fill="#000000" fill-rule="evenodd" fill-opacity="1" /><path clip-path="url(#clip390)" d="M 0 0 M610.023 1468.69 Q606.412 1468.69 604.583 1472.26 Q602.778 1475.8 602.778 1482.93 Q602.778 1490.04 604.583 1493.6 Q606.412 1497.14 610.023 1497.14 Q613.657 1497.14 615.463 1493.6 Q617.292 1490.04 617.292 1482.93 Q617.292 1475.8 615.463 1472.26 Q613.657 1468.69 610.023 1468.69 M610.023 1464.99 Q615.833 1464.99 618.889 1469.6 Q621.968 1474.18 621.968 1482.93 Q621.968 1491.66 618.889 1496.26 Q615.833 1500.85 610.023 1500.85 Q604.213 1500.85 601.134 1496.26 Q598.079 1491.66 598.079 1482.93 Q598.079 1474.18 601.134 1469.6 Q604.213 1464.99 610.023 1464.99 Z" fill="#000000" fill-rule="evenodd" fill-opacity="1" /><path clip-path="url(#clip390)" d="M 0 0 M640.185 1468.69 Q636.574 1468.69 634.745 1472.26 Q632.94 1475.8 632.94 1482.93 Q632.94 1490.04 634.745 1493.6 Q636.574 1497.14 640.185 1497.14 Q643.819 1497.14 645.625 1493.6 Q647.454 1490.04 647.454 1482.93 Q647.454 1475.8 645.625 1472.26 Q643.819 1468.69 640.185 1468.69 M640.185 1464.99 Q645.995 1464.99 649.051 1469.6 Q652.129 1474.18 652.129 1482.93 Q652.129 1491.66 649.051 1496.26 Q645.995 1500.85 640.185 1500.85 Q634.375 1500.85 631.296 1496.26 Q628.241 1491.66 628.241 1482.93 Q628.241 1474.18 631.296 1469.6 Q634.375 1464.99 640.185 1464.99 Z" fill="#000000" fill-rule="evenodd" fill-opacity="1" /><path clip-path="url(#clip390)" d="M 0 0 M891.875 1496.24 L908.194 1496.24 L908.194 1500.17 L886.25 1500.17 L886.25 1496.24 Q888.912 1493.48 893.495 1488.85 Q898.102 1484.2 899.282 1482.86 Q901.528 1480.34 902.407 1478.6 Q903.31 1476.84 903.31 1475.15 Q903.31 1472.4 901.366 1470.66 Q899.444 1468.92 896.343 1468.92 Q894.144 1468.92 891.69 1469.69 Q889.259 1470.45 886.482 1472 L886.482 1467.28 Q889.306 1466.15 891.759 1465.57 Q894.213 1464.99 896.25 1464.99 Q901.62 1464.99 904.815 1467.67 Q908.009 1470.36 908.009 1474.85 Q908.009 1476.98 907.199 1478.9 Q906.412 1480.8 904.306 1483.39 Q903.727 1484.06 900.625 1487.28 Q897.523 1490.47 891.875 1496.24 Z" fill="#000000" fill-rule="evenodd" fill-opacity="1" /><path clip-path="url(#clip390)" d="M 0 0 M928.009 1468.69 Q924.398 1468.69 922.569 1472.26 Q920.764 1475.8 920.764 1482.93 Q920.764 1490.04 922.569 1493.6 Q924.398 1497.14 928.009 1497.14 Q931.643 1497.14 933.449 1493.6 Q935.278 1490.04 935.278 1482.93 Q935.278 1475.8 933.449 1472.26 Q931.643 1468.69 928.009 1468.69 M928.009 1464.99 Q933.819 1464.99 936.875 1469.6 Q939.953 1474.18 939.953 1482.93 Q939.953 1491.66 936.875 1496.26 Q933.819 1500.85 928.009 1500.85 Q922.199 1500.85 919.12 1496.26 Q916.065 1491.66 916.065 1482.93 Q916.065 1474.18 919.12 1469.6 Q922.199 1464.99 928.009 1464.99 Z" fill="#000000" fill-rule="evenodd" fill-opacity="1" /><path clip-path="url(#clip390)" d="M 0 0 M958.171 1468.69 Q954.56 1468.69 952.731 1472.26 Q950.926 1475.8 950.926 1482.93 Q950.926 1490.04 952.731 1493.6 Q954.56 1497.14 958.171 1497.14 Q961.805 1497.14 963.611 1493.6 Q965.439 1490.04 965.439 1482.93 Q965.439 1475.8 963.611 1472.26 Q961.805 1468.69 958.171 1468.69 M958.171 1464.99 Q963.981 1464.99 967.037 1469.6 Q970.115 1474.18 970.115 1482.93 Q970.115 1491.66 967.037 1496.26 Q963.981 1500.85 958.171 1500.85 Q952.361 1500.85 949.282 1496.26 Q946.227 1491.66 946.227 1482.93 Q946.227 1474.18 949.282 1469.6 Q952.361 1464.99 958.171 1464.99 Z" fill="#000000" fill-rule="evenodd" fill-opacity="1" /><path clip-path="url(#clip390)" d="M 0 0 M1219.06 1481.54 Q1222.42 1482.26 1224.29 1484.53 Q1226.19 1486.79 1226.19 1490.13 Q1226.19 1495.24 1222.67 1498.04 Q1219.15 1500.85 1212.67 1500.85 Q1210.5 1500.85 1208.18 1500.41 Q1205.89 1499.99 1203.44 1499.13 L1203.44 1494.62 Q1205.38 1495.75 1207.7 1496.33 Q1210.01 1496.91 1212.53 1496.91 Q1216.93 1496.91 1219.22 1495.17 Q1221.54 1493.44 1221.54 1490.13 Q1221.54 1487.07 1219.39 1485.36 Q1217.26 1483.62 1213.44 1483.62 L1209.41 1483.62 L1209.41 1479.78 L1213.62 1479.78 Q1217.07 1479.78 1218.9 1478.41 Q1220.73 1477.03 1220.73 1474.43 Q1220.73 1471.77 1218.83 1470.36 Q1216.96 1468.92 1213.44 1468.92 Q1211.52 1468.92 1209.32 1469.34 Q1207.12 1469.76 1204.48 1470.64 L1204.48 1466.47 Q1207.14 1465.73 1209.46 1465.36 Q1211.79 1464.99 1213.85 1464.99 Q1219.18 1464.99 1222.28 1467.42 Q1225.38 1469.83 1225.38 1473.95 Q1225.38 1476.82 1223.74 1478.81 Q1222.09 1480.78 1219.06 1481.54 Z" fill="#000000" fill-rule="evenodd" fill-opacity="1" /><path clip-path="url(#clip390)" d="M 0 0 M1245.06 1468.69 Q1241.45 1468.69 1239.62 1472.26 Q1237.81 1475.8 1237.81 1482.93 Q1237.81 1490.04 1239.62 1493.6 Q1241.45 1497.14 1245.06 1497.14 Q1248.69 1497.14 1250.5 1493.6 Q1252.33 1490.04 1252.33 1482.93 Q1252.33 1475.8 1250.5 1472.26 Q1248.69 1468.69 1245.06 1468.69 M1245.06 1464.99 Q1250.87 1464.99 1253.92 1469.6 Q1257 1474.18 1257 1482.93 Q1257 1491.66 1253.92 1496.26 Q1250.87 1500.85 1245.06 1500.85 Q1239.25 1500.85 1236.17 1496.26 Q1233.11 1491.66 1233.11 1482.93 Q1233.11 1474.18 1236.17 1469.6 Q1239.25 1464.99 1245.06 1464.99 Z" fill="#000000" fill-rule="evenodd" fill-opacity="1" /><path clip-path="url(#clip390)" d="M 0 0 M1275.22 1468.69 Q1271.61 1468.69 1269.78 1472.26 Q1267.97 1475.8 1267.97 1482.93 Q1267.97 1490.04 1269.78 1493.6 Q1271.61 1497.14 1275.22 1497.14 Q1278.85 1497.14 1280.66 1493.6 Q1282.49 1490.04 1282.49 1482.93 Q1282.49 1475.8 1280.66 1472.26 Q1278.85 1468.69 1275.22 1468.69 M1275.22 1464.99 Q1281.03 1464.99 1284.09 1469.6 Q1287.16 1474.18 1287.16 1482.93 Q1287.16 1491.66 1284.09 1496.26 Q1281.03 1500.85 1275.22 1500.85 Q1269.41 1500.85 1266.33 1496.26 Q1263.27 1491.66 1263.27 1482.93 Q1263.27 1474.18 1266.33 1469.6 Q1269.41 1464.99 1275.22 1464.99 Z" fill="#000000" fill-rule="evenodd" fill-opacity="1" /><path clip-path="url(#clip390)" d="M 0 0 M1535.51 1469.69 L1523.7 1488.14 L1535.51 1488.14 L1535.51 1469.69 M1534.28 1465.61 L1540.16 1465.61 L1540.16 1488.14 L1545.09 1488.14 L1545.09 1492.03 L1540.16 1492.03 L1540.16 1500.17 L1535.51 1500.17 L1535.51 1492.03 L1519.91 1492.03 L1519.91 1487.51 L1534.28 1465.61 Z" fill="#000000" fill-rule="evenodd" fill-opacity="1" /><path clip-path="url(#clip390)" d="M 0 0 M1562.82 1468.69 Q1559.21 1468.69 1557.38 1472.26 Q1555.58 1475.8 1555.58 1482.93 Q1555.58 1490.04 1557.38 1493.6 Q1559.21 1497.14 1562.82 1497.14 Q1566.46 1497.14 1568.26 1493.6 Q1570.09 1490.04 1570.09 1482.93 Q1570.09 1475.8 1568.26 1472.26 Q1566.46 1468.69 1562.82 1468.69 M1562.82 1464.99 Q1568.63 1464.99 1571.69 1469.6 Q1574.77 1474.18 1574.77 1482.93 Q1574.77 1491.66 1571.69 1496.26 Q1568.63 1500.85 1562.82 1500.85 Q1557.01 1500.85 1553.93 1496.26 Q1550.88 1491.66 1550.88 1482.93 Q1550.88 1474.18 1553.93 1469.6 Q1557.01 1464.99 1562.82 1464.99 Z" fill="#000000" fill-rule="evenodd" fill-opacity="1" /><path clip-path="url(#clip390)" d="M 0 0 M1592.99 1468.69 Q1589.37 1468.69 1587.55 1472.26 Q1585.74 1475.8 1585.74 1482.93 Q1585.74 1490.04 1587.55 1493.6 Q1589.37 1497.14 1592.99 1497.14 Q1596.62 1497.14 1598.43 1493.6 Q1600.25 1490.04 1600.25 1482.93 Q1600.25 1475.8 1598.43 1472.26 Q1596.62 1468.69 1592.99 1468.69 M1592.99 1464.99 Q1598.8 1464.99 1601.85 1469.6 Q1604.93 1474.18 1604.93 1482.93 Q1604.93 1491.66 1601.85 1496.26 Q1598.8 1500.85 1592.99 1500.85 Q1587.18 1500.85 1584.1 1496.26 Q1581.04 1491.66 1581.04 1482.93 Q1581.04 1474.18 1584.1 1469.6 Q1587.18 1464.99 1592.99 1464.99 Z" fill="#000000" fill-rule="evenodd" fill-opacity="1" /><path clip-path="url(#clip390)" d="M 0 0 M1839.15 1465.61 L1857.51 1465.61 L1857.51 1469.55 L1843.44 1469.55 L1843.44 1478.02 Q1844.46 1477.67 1845.47 1477.51 Q1846.49 1477.33 1847.51 1477.33 Q1853.3 1477.33 1856.68 1480.5 Q1860.06 1483.67 1860.06 1489.09 Q1860.06 1494.66 1856.58 1497.77 Q1853.11 1500.85 1846.79 1500.85 Q1844.62 1500.85 1842.35 1500.47 Q1840.1 1500.1 1837.7 1499.36 L1837.7 1494.66 Q1839.78 1495.8 1842 1496.35 Q1844.22 1496.91 1846.7 1496.91 Q1850.71 1496.91 1853.04 1494.8 Q1855.38 1492.7 1855.38 1489.09 Q1855.38 1485.47 1853.04 1483.37 Q1850.71 1481.26 1846.7 1481.26 Q1844.83 1481.26 1842.95 1481.68 Q1841.1 1482.1 1839.15 1482.97 L1839.15 1465.61 Z" fill="#000000" fill-rule="evenodd" fill-opacity="1" /><path clip-path="url(#clip390)" d="M 0 0 M1879.27 1468.69 Q1875.66 1468.69 1873.83 1472.26 Q1872.02 1475.8 1872.02 1482.93 Q1872.02 1490.04 1873.83 1493.6 Q1875.66 1497.14 1879.27 1497.14 Q1882.9 1497.14 1884.71 1493.6 Q1886.54 1490.04 1886.54 1482.93 Q1886.54 1475.8 1884.71 1472.26 Q1882.9 1468.69 1879.27 1468.69 M1879.27 1464.99 Q1885.08 1464.99 1888.14 1469.6 Q1891.21 1474.18 1891.21 1482.93 Q1891.21 1491.66 1888.14 1496.26 Q1885.08 1500.85 1879.27 1500.85 Q1873.46 1500.85 1870.38 1496.26 Q1867.33 1491.66 1867.33 1482.93 Q1867.33 1474.18 1870.38 1469.6 Q1873.46 1464.99 1879.27 1464.99 Z" fill="#000000" fill-rule="evenodd" fill-opacity="1" /><path clip-path="url(#clip390)" d="M 0 0 M1909.43 1468.69 Q1905.82 1468.69 1903.99 1472.26 Q1902.19 1475.8 1902.19 1482.93 Q1902.19 1490.04 1903.99 1493.6 Q1905.82 1497.14 1909.43 1497.14 Q1913.07 1497.14 1914.87 1493.6 Q1916.7 1490.04 1916.7 1482.93 Q1916.7 1475.8 1914.87 1472.26 Q1913.07 1468.69 1909.43 1468.69 M1909.43 1464.99 Q1915.24 1464.99 1918.3 1469.6 Q1921.38 1474.18 1921.38 1482.93 Q1921.38 1491.66 1918.3 1496.26 Q1915.24 1500.85 1909.43 1500.85 Q1903.62 1500.85 1900.54 1496.26 Q1897.49 1491.66 1897.49 1482.93 Q1897.49 1474.18 1900.54 1469.6 Q1903.62 1464.99 1909.43 1464.99 Z" fill="#000000" fill-rule="evenodd" fill-opacity="1" /><path clip-path="url(#clip390)" d="M 0 0 M1098.84 1535.75 Q1098.84 1541.16 1097.1 1547.24 Q1095.39 1553.3 1092.68 1558.19 Q1089.98 1563.06 1086.44 1566.28 Q1082.89 1569.47 1079.51 1569.47 Q1077.35 1569.47 1075.74 1568.27 Q1074.17 1567.05 1073.3 1565.02 Q1072.43 1562.96 1072.01 1560.71 Q1071.59 1558.42 1071.59 1555.94 Q1071.59 1552.24 1072.39 1548.21 Q1073.2 1544.15 1074.55 1540.48 Q1075.9 1536.78 1077.8 1533.43 Q1079.7 1530.05 1081.8 1527.6 Q1083.92 1525.12 1086.31 1523.67 Q1088.69 1522.22 1090.91 1522.22 Q1092.52 1522.22 1093.81 1522.93 Q1095.13 1523.6 1095.97 1524.8 Q1096.81 1525.96 1097.39 1527.34 Q1098 1528.73 1098.29 1530.34 Q1098.58 1531.91 1098.71 1533.23 Q1098.84 1534.52 1098.84 1535.75 M1094.49 1531.66 Q1094.49 1530.01 1094.36 1528.79 Q1094.23 1527.53 1093.88 1526.28 Q1093.52 1525.02 1092.75 1524.35 Q1092.01 1523.67 1090.85 1523.67 Q1087.47 1523.67 1083.67 1530.59 Q1082.44 1532.75 1081.35 1535.68 Q1080.25 1538.61 1079.87 1540 Q1079.48 1541.38 1078.58 1544.8 L1092.36 1544.8 Q1094.49 1536 1094.49 1531.66 M1091.78 1546.89 L1078.06 1546.89 Q1075.94 1554.94 1075.94 1559.96 Q1075.94 1564.34 1076.84 1566.18 Q1077.77 1567.98 1079.51 1567.98 Q1081.51 1567.98 1083.38 1565.99 Q1085.24 1563.96 1087.14 1560.29 Q1089.66 1555.52 1091.78 1546.89 Z" fill="#000000" fill-rule="evenodd" fill-opacity="1" /><polyline clip-path="url(#clip393)" style="stroke:#000000; stroke-width:2; stroke-opacity:0.1; fill:none" points="
  246.706,1241.96 1927.09,1241.96 
  "/>
<polyline clip-path="url(#clip393)" style="stroke:#000000; stroke-width:2; stroke-opacity:0.1; fill:none" points="
  246.706,971.892 1927.09,971.892 
  "/>
<polyline clip-path="url(#clip393)" style="stroke:#000000; stroke-width:2; stroke-opacity:0.1; fill:none" points="
  246.706,701.826 1927.09,701.826 
  "/>
<polyline clip-path="url(#clip393)" style="stroke:#000000; stroke-width:2; stroke-opacity:0.1; fill:none" points="
  246.706,431.761 1927.09,431.761 
  "/>
<polyline clip-path="url(#clip393)" style="stroke:#000000; stroke-width:2; stroke-opacity:0.1; fill:none" points="
  246.706,161.695 1927.09,161.695 
  "/>
<polyline clip-path="url(#clip390)" style="stroke:#000000; stroke-width:4; stroke-opacity:1; fill:none" points="
  246.706,1439.5 246.706,47.2441 
  "/>
<polyline clip-path="url(#clip390)" style="stroke:#000000; stroke-width:4; stroke-opacity:1; fill:none" points="
  246.706,1241.96 266.871,1241.96 
  "/>
<polyline clip-path="url(#clip390)" style="stroke:#000000; stroke-width:4; stroke-opacity:1; fill:none" points="
  246.706,971.892 266.871,971.892 
  "/>
<polyline clip-path="url(#clip390)" style="stroke:#000000; stroke-width:4; stroke-opacity:1; fill:none" points="
  246.706,701.826 266.871,701.826 
  "/>
<polyline clip-path="url(#clip390)" style="stroke:#000000; stroke-width:4; stroke-opacity:1; fill:none" points="
  246.706,431.761 266.871,431.761 
  "/>
<polyline clip-path="url(#clip390)" style="stroke:#000000; stroke-width:4; stroke-opacity:1; fill:none" points="
  246.706,161.695 266.871,161.695 
  "/>
<path clip-path="url(#clip390)" d="M 0 0 M154.179 1227.76 Q150.567 1227.76 148.739 1231.32 Q146.933 1234.86 146.933 1241.99 Q146.933 1249.1 148.739 1252.66 Q150.567 1256.21 154.179 1256.21 Q157.813 1256.21 159.618 1252.66 Q161.447 1249.1 161.447 1241.99 Q161.447 1234.86 159.618 1231.32 Q157.813 1227.76 154.179 1227.76 M154.179 1224.05 Q159.989 1224.05 163.044 1228.66 Q166.123 1233.24 166.123 1241.99 Q166.123 1250.72 163.044 1255.33 Q159.989 1259.91 154.179 1259.91 Q148.368 1259.91 145.29 1255.33 Q142.234 1250.72 142.234 1241.99 Q142.234 1233.24 145.29 1228.66 Q148.368 1224.05 154.179 1224.05 Z" fill="#000000" fill-rule="evenodd" fill-opacity="1" /><path clip-path="url(#clip390)" d="M 0 0 M174.341 1253.36 L179.225 1253.36 L179.225 1259.24 L174.341 1259.24 L174.341 1253.36 Z" fill="#000000" fill-rule="evenodd" fill-opacity="1" /><path clip-path="url(#clip390)" d="M 0 0 M203.576 1240.6 Q206.933 1241.32 208.808 1243.59 Q210.706 1245.86 210.706 1249.19 Q210.706 1254.31 207.188 1257.11 Q203.669 1259.91 197.188 1259.91 Q195.012 1259.91 192.697 1259.47 Q190.405 1259.05 187.952 1258.2 L187.952 1253.68 Q189.896 1254.82 192.211 1255.4 Q194.526 1255.97 197.049 1255.97 Q201.447 1255.97 203.738 1254.24 Q206.053 1252.5 206.053 1249.19 Q206.053 1246.14 203.901 1244.42 Q201.771 1242.69 197.951 1242.69 L193.924 1242.69 L193.924 1238.84 L198.137 1238.84 Q201.586 1238.84 203.414 1237.48 Q205.243 1236.09 205.243 1233.5 Q205.243 1230.84 203.345 1229.42 Q201.47 1227.99 197.951 1227.99 Q196.03 1227.99 193.831 1228.4 Q191.632 1228.82 188.993 1229.7 L188.993 1225.53 Q191.655 1224.79 193.97 1224.42 Q196.308 1224.05 198.368 1224.05 Q203.692 1224.05 206.794 1226.48 Q209.896 1228.89 209.896 1233.01 Q209.896 1235.88 208.252 1237.87 Q206.609 1239.84 203.576 1240.6 Z" fill="#000000" fill-rule="evenodd" fill-opacity="1" /><path clip-path="url(#clip390)" d="M 0 0 M153.368 957.691 Q149.757 957.691 147.929 961.256 Q146.123 964.797 146.123 971.927 Q146.123 979.033 147.929 982.598 Q149.757 986.14 153.368 986.14 Q157.003 986.14 158.808 982.598 Q160.637 979.033 160.637 971.927 Q160.637 964.797 158.808 961.256 Q157.003 957.691 153.368 957.691 M153.368 953.987 Q159.179 953.987 162.234 958.594 Q165.313 963.177 165.313 971.927 Q165.313 980.654 162.234 985.26 Q159.179 989.844 153.368 989.844 Q147.558 989.844 144.48 985.26 Q141.424 980.654 141.424 971.927 Q141.424 963.177 144.48 958.594 Q147.558 953.987 153.368 953.987 Z" fill="#000000" fill-rule="evenodd" fill-opacity="1" /><path clip-path="url(#clip390)" d="M 0 0 M173.53 983.293 L178.415 983.293 L178.415 989.172 L173.53 989.172 L173.53 983.293 Z" fill="#000000" fill-rule="evenodd" fill-opacity="1" /><path clip-path="url(#clip390)" d="M 0 0 M199.178 970.029 Q196.03 970.029 194.178 972.182 Q192.35 974.334 192.35 978.084 Q192.35 981.811 194.178 983.987 Q196.03 986.14 199.178 986.14 Q202.326 986.14 204.155 983.987 Q206.007 981.811 206.007 978.084 Q206.007 974.334 204.155 972.182 Q202.326 970.029 199.178 970.029 M208.461 955.376 L208.461 959.635 Q206.701 958.802 204.896 958.362 Q203.113 957.922 201.354 957.922 Q196.725 957.922 194.271 961.047 Q191.84 964.172 191.493 970.492 Q192.859 968.478 194.919 967.413 Q196.979 966.325 199.456 966.325 Q204.664 966.325 207.674 969.496 Q210.706 972.645 210.706 978.084 Q210.706 983.408 207.558 986.626 Q204.41 989.844 199.178 989.844 Q193.183 989.844 190.012 985.26 Q186.84 980.654 186.84 971.927 Q186.84 963.733 190.729 958.871 Q194.618 953.987 201.169 953.987 Q202.928 953.987 204.711 954.334 Q206.516 954.682 208.461 955.376 Z" fill="#000000" fill-rule="evenodd" fill-opacity="1" /><path clip-path="url(#clip390)" d="M 0 0 M153.716 687.625 Q150.105 687.625 148.276 691.19 Q146.47 694.731 146.47 701.861 Q146.47 708.968 148.276 712.532 Q150.105 716.074 153.716 716.074 Q157.35 716.074 159.155 712.532 Q160.984 708.968 160.984 701.861 Q160.984 694.731 159.155 691.19 Q157.35 687.625 153.716 687.625 M153.716 683.921 Q159.526 683.921 162.581 688.528 Q165.66 693.111 165.66 701.861 Q165.66 710.588 162.581 715.194 Q159.526 719.778 153.716 719.778 Q147.905 719.778 144.827 715.194 Q141.771 710.588 141.771 701.861 Q141.771 693.111 144.827 688.528 Q147.905 683.921 153.716 683.921 Z" fill="#000000" fill-rule="evenodd" fill-opacity="1" /><path clip-path="url(#clip390)" d="M 0 0 M173.878 713.227 L178.762 713.227 L178.762 719.106 L173.878 719.106 L173.878 713.227 Z" fill="#000000" fill-rule="evenodd" fill-opacity="1" /><path clip-path="url(#clip390)" d="M 0 0 M189.086 718.389 L189.086 714.13 Q190.845 714.963 192.651 715.403 Q194.456 715.842 196.192 715.842 Q200.822 715.842 203.252 712.741 Q205.706 709.616 206.053 703.273 Q204.711 705.264 202.651 706.329 Q200.59 707.393 198.09 707.393 Q192.905 707.393 189.873 704.268 Q186.864 701.12 186.864 695.681 Q186.864 690.357 190.012 687.139 Q193.16 683.921 198.391 683.921 Q204.387 683.921 207.535 688.528 Q210.706 693.111 210.706 701.861 Q210.706 710.032 206.817 714.917 Q202.951 719.778 196.401 719.778 Q194.641 719.778 192.836 719.43 Q191.03 719.083 189.086 718.389 M198.391 703.736 Q201.539 703.736 203.368 701.583 Q205.22 699.431 205.22 695.681 Q205.22 691.954 203.368 689.801 Q201.539 687.625 198.391 687.625 Q195.243 687.625 193.391 689.801 Q191.563 691.954 191.563 695.681 Q191.563 699.431 193.391 701.583 Q195.243 703.736 198.391 703.736 Z" fill="#000000" fill-rule="evenodd" fill-opacity="1" /><path clip-path="url(#clip390)" d="M 0 0 M145.938 445.105 L153.577 445.105 L153.577 418.74 L145.267 420.406 L145.267 416.147 L153.53 414.481 L158.206 414.481 L158.206 445.105 L165.845 445.105 L165.845 449.041 L145.938 449.041 L145.938 445.105 Z" fill="#000000" fill-rule="evenodd" fill-opacity="1" /><path clip-path="url(#clip390)" d="M 0 0 M175.29 443.161 L180.174 443.161 L180.174 449.041 L175.29 449.041 L175.29 443.161 Z" fill="#000000" fill-rule="evenodd" fill-opacity="1" /><path clip-path="url(#clip390)" d="M 0 0 M194.387 445.105 L210.706 445.105 L210.706 449.041 L188.762 449.041 L188.762 445.105 Q191.424 442.351 196.007 437.721 Q200.614 433.068 201.794 431.726 Q204.039 429.203 204.919 427.467 Q205.822 425.707 205.822 424.018 Q205.822 421.263 203.877 419.527 Q201.956 417.791 198.854 417.791 Q196.655 417.791 194.202 418.555 Q191.771 419.318 188.993 420.869 L188.993 416.147 Q191.817 415.013 194.271 414.434 Q196.725 413.856 198.762 413.856 Q204.132 413.856 207.326 416.541 Q210.521 419.226 210.521 423.717 Q210.521 425.846 209.711 427.767 Q208.924 429.666 206.817 432.258 Q206.238 432.929 203.137 436.147 Q200.035 439.341 194.387 445.105 Z" fill="#000000" fill-rule="evenodd" fill-opacity="1" /><path clip-path="url(#clip390)" d="M 0 0 M145.336 175.04 L152.975 175.04 L152.975 148.674 L144.665 150.341 L144.665 146.081 L152.929 144.415 L157.604 144.415 L157.604 175.04 L165.243 175.04 L165.243 178.975 L145.336 178.975 L145.336 175.04 Z" fill="#000000" fill-rule="evenodd" fill-opacity="1" /><path clip-path="url(#clip390)" d="M 0 0 M174.688 173.095 L179.572 173.095 L179.572 178.975 L174.688 178.975 L174.688 173.095 Z" fill="#000000" fill-rule="evenodd" fill-opacity="1" /><path clip-path="url(#clip390)" d="M 0 0 M189.803 144.415 L208.16 144.415 L208.16 148.35 L194.086 148.35 L194.086 156.822 Q195.104 156.475 196.123 156.313 Q197.141 156.128 198.16 156.128 Q203.947 156.128 207.326 159.299 Q210.706 162.47 210.706 167.887 Q210.706 173.465 207.234 176.567 Q203.762 179.646 197.442 179.646 Q195.266 179.646 192.998 179.276 Q190.752 178.905 188.345 178.164 L188.345 173.465 Q190.428 174.6 192.651 175.155 Q194.873 175.711 197.35 175.711 Q201.354 175.711 203.692 173.604 Q206.03 171.498 206.03 167.887 Q206.03 164.276 203.692 162.169 Q201.354 160.063 197.35 160.063 Q195.475 160.063 193.6 160.479 Q191.748 160.896 189.803 161.776 L189.803 144.415 Z" fill="#000000" fill-rule="evenodd" fill-opacity="1" /><path clip-path="url(#clip390)" d="M 0 0 M53.6652 942.087 L70.0902 947.756 L70.0902 1002.44 Q70.0902 1003.18 70.058 1003.47 Q70.0258 1003.76 69.8648 1003.99 Q69.7037 1004.21 69.3495 1004.21 Q69.0596 1004.21 68.3189 1003.63 L39.3658 980.219 L6.25819 1004.28 Q4.74452 1004.28 4.45466 1004.02 Q4.13261 1003.76 4.13261 1002.44 L4.13261 947.756 L19.5592 942.087 L19.5592 943.73 Q17.5624 944.471 15.8877 945.662 Q14.1808 946.822 12.957 948.174 Q11.7332 949.495 10.767 951.234 Q9.76863 952.941 9.15672 954.551 Q8.5126 956.129 8.06172 958.094 Q7.57863 960.058 7.35319 961.636 Q7.09554 963.182 6.96672 965.114 Q6.8379 967.047 6.80569 968.271 Q6.77349 969.494 6.77349 971.04 L6.77349 997.159 L36.1774 975.742 Q36.9182 975.259 37.1114 975.259 Q37.4013 975.259 38.1742 975.871 L66.4509 998.737 L66.4509 970.718 Q66.4509 961.701 64.5508 955.421 Q63.1015 951.169 60.2352 948.078 Q57.3689 944.954 53.6652 943.73 L53.6652 942.087 Z" fill="#000000" fill-rule="evenodd" fill-opacity="1" /><path clip-path="url(#clip390)" d="M 0 0 M96.2324 1013.26 Q96.8636 1013.26 97.0215 1013.56 Q97.1567 1013.85 97.1567 1014.66 L97.1567 1018.99 L110.773 1022.42 Q111.968 1022.69 112.983 1022.69 Q114.11 1022.69 114.606 1022.35 Q115.102 1021.99 115.102 1021.25 Q115.102 1019.78 113.772 1018.2 Q112.442 1016.6 109.195 1015.25 Q108.767 1015.07 108.677 1014.98 Q108.564 1014.87 108.564 1014.57 Q108.564 1014.01 109.015 1014.01 Q109.173 1014.01 109.894 1014.32 Q110.616 1014.62 111.675 1015.27 Q112.735 1015.9 113.727 1016.74 Q114.719 1017.55 115.44 1018.79 Q116.139 1020.03 116.139 1021.36 Q116.139 1023.23 114.944 1024.42 Q113.749 1025.6 111.878 1025.6 Q111.269 1025.6 109.331 1025.12 Q107.369 1024.65 97.1567 1022.08 L97.1567 1026.16 Q97.1567 1026.72 97.1342 1026.95 Q97.1116 1027.15 96.9989 1027.31 Q96.8636 1027.45 96.5931 1027.45 Q96.1648 1027.45 95.9844 1027.26 Q95.7815 1027.08 95.759 1026.86 Q95.7139 1026.61 95.7139 1026.05 L95.7139 1021.72 L88.3871 1019.92 Q87.6657 1019.74 87.2599 1019.28 Q86.8315 1018.81 86.7864 1018.54 Q86.7188 1018.27 86.7188 1018.07 Q86.7188 1017.46 87.057 1017.1 Q87.3726 1016.74 87.9587 1016.74 Q88.2743 1016.74 95.7139 1018.63 L95.7139 1014.57 Q95.7139 1014.05 95.7364 1013.85 Q95.759 1013.63 95.8717 1013.45 Q95.9844 1013.26 96.2324 1013.26 Z" fill="#000000" fill-rule="evenodd" fill-opacity="1" /><path clip-path="url(#clip390)" d="M 0 0 M108.609 998.132 Q108.046 998.087 108.046 997.208 L108.046 968.915 Q108.046 967.585 108.564 967.562 Q109.128 967.562 109.105 968.825 L109.105 996.892 Q109.128 998.132 108.609 998.132 M99.5915 998.132 Q99.0279 998.132 99.0504 997.163 L99.0504 968.96 Q99.0504 967.585 99.5915 967.562 Q100.11 967.562 100.11 968.735 L100.11 997.208 Q100.11 998.132 99.5915 998.132 Z" fill="#000000" fill-rule="evenodd" fill-opacity="1" /><path clip-path="url(#clip390)" d="M 0 0 M100.854 949.75 Q94.0682 949.75 90.3709 948.037 Q84.8702 945.647 84.8702 940.011 Q84.8702 938.816 85.2083 937.577 Q85.524 936.314 86.7639 934.736 Q88.0038 933.135 90.0328 932.166 Q93.9555 930.317 100.854 930.317 Q107.595 930.317 111.269 932.031 Q116.635 934.533 116.635 940.056 Q116.635 942.13 115.575 944.25 Q114.516 946.346 111.968 947.676 Q108.158 949.75 100.854 949.75 M100.29 945.918 Q107.256 945.918 110.029 945.422 Q113.028 944.858 114.335 943.325 Q115.62 941.77 115.62 940.056 Q115.62 938.208 114.245 936.675 Q112.847 935.119 109.849 934.646 Q106.896 934.127 100.29 934.15 Q93.8653 934.15 91.2953 934.601 Q88.2969 935.209 87.102 936.833 Q85.8847 938.433 85.8847 940.056 Q85.8847 940.665 86.065 941.319 Q86.2454 941.95 86.7639 942.874 Q87.2824 943.799 88.5674 944.52 Q89.8524 945.219 91.7912 945.557 Q94.2936 945.918 100.29 945.918 Z" fill="#000000" fill-rule="evenodd" fill-opacity="1" /><path clip-path="url(#clip390)" d="M 0 0 M9.67201 874.983 Q10.2839 874.983 10.7992 875.112 L22.2645 876.915 Q23.1341 877.012 23.4561 877.205 Q23.7782 877.366 23.7782 877.881 Q23.7782 878.686 22.9408 878.686 Q22.4577 878.686 21.6848 878.493 Q18.0455 877.946 16.403 877.946 Q15.308 877.946 14.5029 878.171 Q13.6655 878.364 13.0858 878.686 Q12.5061 878.976 12.1197 879.653 Q11.7332 880.329 11.5077 880.973 Q11.2823 881.617 11.1857 882.777 Q11.0569 883.936 11.0247 884.934 Q10.9925 885.933 10.9925 887.575 Q10.9925 891.15 11.1213 891.73 Q11.2823 892.342 11.7654 892.664 Q12.2163 892.954 13.5689 893.276 L48.5767 902.036 L49.9615 902.293 Q50.7345 902.293 50.9921 901.81 Q51.2498 901.327 51.4108 899.846 Q51.5718 897.72 51.5718 895.627 Q51.5718 895.562 51.5718 895.433 Q51.5718 894.725 51.604 894.435 Q51.604 894.145 51.6685 893.855 Q51.7329 893.566 51.8939 893.501 Q52.0227 893.405 52.2804 893.405 Q52.8923 893.405 53.2143 893.662 Q53.5042 893.92 53.5686 894.177 Q53.6008 894.403 53.6008 894.854 Q53.6008 895.756 53.5364 897.688 Q53.472 899.62 53.472 900.586 L53.4076 906.061 L53.472 911.665 Q53.472 912.535 53.5364 914.371 Q53.6008 916.206 53.6008 917.076 Q53.6008 918.203 52.7957 918.203 Q51.8939 918.203 51.7329 917.784 Q51.5718 917.333 51.5718 915.433 Q51.5718 912.76 51.443 911.311 Q51.3142 909.862 50.8633 909.089 Q50.4124 908.284 49.9615 908.058 Q49.4785 907.833 48.3835 907.575 L13.1825 898.718 Q12.4095 898.461 11.7976 898.461 Q11.4755 898.461 11.3467 898.557 Q11.2179 898.622 11.1213 899.041 Q10.9925 899.459 10.9925 900.329 L10.9925 902.905 Q10.9925 905.546 11.1213 907.189 Q11.2179 908.799 11.701 910.345 Q12.1841 911.858 12.8604 912.76 Q13.5367 913.63 14.9216 914.596 Q16.3064 915.562 17.9811 916.271 Q19.6558 916.947 22.3933 917.913 Q23.2951 918.235 23.5527 918.428 Q23.7782 918.59 23.7782 919.04 Q23.7782 919.362 23.5849 919.62 Q23.3595 919.846 23.0697 919.846 Q22.0069 919.523 21.878 919.459 L10.2517 915.498 Q9.31775 915.176 9.15672 914.886 Q8.96348 914.564 8.96348 913.372 L8.96348 876.786 Q8.96348 876.207 8.96348 876.013 Q8.96348 875.82 9.0279 875.498 Q9.09231 875.176 9.25334 875.079 Q9.41437 874.983 9.67201 874.983 Z" fill="#000000" fill-rule="evenodd" fill-opacity="1" /><path clip-path="url(#clip390)" d="M 0 0 M16.5041 850.007 L17.4284 850.571 Q15.918 854.065 13.5057 858.416 Q15.918 862.767 17.4284 866.261 L16.5041 866.802 Q13.1901 862.992 10.6426 858.416 Q13.2127 853.794 16.5041 850.007 Z" fill="#000000" fill-rule="evenodd" fill-opacity="1" /><path clip-path="url(#clip390)" d="M 0 0 M28.8023 848.845 Q30.6058 848.845 31.6364 849.972 Q32.6348 851.099 32.6348 852.388 Q32.6348 853.611 31.9263 854.256 Q31.2177 854.9 30.316 854.9 Q29.0921 854.9 28.0294 853.998 Q26.9666 853.096 26.7411 851.743 Q25.9038 853.064 25.9038 855.028 Q25.9038 856.317 26.5801 857.444 Q27.2564 858.539 28.126 859.215 Q28.9955 859.859 30.2516 860.439 Q31.4754 860.987 32.2161 861.212 Q32.9246 861.405 33.6976 861.566 L42.7152 863.821 Q46.9986 864.916 48.5123 864.916 Q50.3802 864.916 51.6363 864.014 Q52.8601 863.112 52.8601 861.309 Q52.8601 860.6 52.6668 859.795 Q52.4414 858.99 51.8617 857.959 Q51.2498 856.896 50.348 855.962 Q49.414 854.996 47.836 854.062 Q46.2579 853.128 44.2289 852.516 Q43.5204 852.323 43.5204 851.679 Q43.5204 850.874 44.1645 850.874 Q44.712 850.874 45.8714 851.325 Q46.9986 851.743 48.4801 852.677 Q49.9293 853.579 51.2498 854.771 Q52.538 855.962 53.4398 857.734 Q54.3415 859.505 54.3415 861.437 Q54.3415 864.207 52.8601 866.043 Q51.3786 867.879 49.3174 868.555 Q49.6073 868.716 49.9938 868.941 Q50.3802 869.167 51.2498 869.843 Q52.0871 870.487 52.7313 871.228 Q53.3432 871.969 53.8262 873.128 Q54.3415 874.255 54.3415 875.479 Q54.3415 877.025 53.8907 878.41 Q53.4398 879.763 52.4092 880.729 Q51.3786 881.695 49.9615 881.695 Q48.3835 881.695 47.2885 880.632 Q46.1613 879.537 46.1613 878.056 Q46.1613 877.122 46.7088 876.381 Q47.2563 875.608 48.4479 875.608 Q49.7683 875.608 50.7667 876.51 Q51.7651 877.412 52.0227 878.7 Q52.8601 877.379 52.8601 875.415 Q52.8601 873.289 50.9921 871.614 Q49.1242 869.94 46.0002 869.135 Q38.4963 867.138 35.1468 866.365 Q31.7652 865.592 30.316 865.592 Q28.9633 865.592 28.0294 865.946 Q27.0954 866.301 26.6767 866.912 Q26.2258 867.492 26.0648 868.04 Q25.9038 868.555 25.9038 869.135 Q25.9038 870.101 26.2902 871.196 Q26.6767 872.259 27.5785 873.547 Q28.448 874.803 30.2516 875.994 Q32.0551 877.186 34.5349 877.991 Q35.2757 878.152 35.2757 878.861 Q35.2435 879.634 34.5994 879.634 Q34.0519 879.634 32.9246 879.215 Q31.7652 878.764 30.316 877.862 Q28.8667 876.928 27.5785 875.737 Q26.258 874.513 25.3563 872.742 Q24.4545 870.938 24.4545 869.006 Q24.4545 868.136 24.6477 867.299 Q24.8088 866.429 25.2919 865.399 Q25.7749 864.336 26.8377 863.402 Q27.9005 862.468 29.4464 861.888 Q28.7057 861.502 27.9971 860.987 Q27.2886 860.439 26.4191 859.602 Q25.5173 858.732 25.002 857.541 Q24.4545 856.317 24.4545 854.964 Q24.4545 853.644 24.8088 852.355 Q25.1308 851.067 26.1936 849.972 Q27.2242 848.845 28.8023 848.845 Z" fill="#000000" fill-rule="evenodd" fill-opacity="1" /><path clip-path="url(#clip390)" d="M 0 0 M52.1213 823.122 Q52.7526 823.122 52.9104 823.415 Q53.0456 823.708 53.0456 824.519 L53.0456 828.848 L66.6623 832.274 Q67.8571 832.545 68.8716 832.545 Q69.9988 832.545 70.4948 832.207 Q70.9907 831.846 70.9907 831.102 Q70.9907 829.637 69.6606 828.059 Q68.3305 826.458 65.0842 825.105 Q64.6558 824.925 64.5657 824.835 Q64.4529 824.722 64.4529 824.429 Q64.4529 823.866 64.9038 823.866 Q65.0616 823.866 65.783 824.181 Q66.5045 824.474 67.564 825.128 Q68.6236 825.759 69.6155 826.593 Q70.6075 827.405 71.3289 828.645 Q72.0278 829.885 72.0278 831.215 Q72.0278 833.086 70.8329 834.281 Q69.6381 835.453 67.7669 835.453 Q67.1582 835.453 65.2194 834.98 Q63.2581 834.506 53.0456 831.936 L53.0456 836.017 Q53.0456 836.58 53.0231 836.806 Q53.0005 837.009 52.8878 837.167 Q52.7526 837.302 52.482 837.302 Q52.0537 837.302 51.8733 837.121 Q51.6704 836.941 51.6479 836.716 Q51.6028 836.468 51.6028 835.904 L51.6028 831.576 L44.276 829.772 Q43.5546 829.592 43.1488 829.141 Q42.7204 828.667 42.6753 828.397 Q42.6077 828.126 42.6077 827.923 Q42.6077 827.315 42.9459 826.954 Q43.2615 826.593 43.8476 826.593 Q44.1632 826.593 51.6028 828.487 L51.6028 824.429 Q51.6028 823.911 51.6253 823.708 Q51.6479 823.482 51.7606 823.302 Q51.8733 823.122 52.1213 823.122 Z" fill="#000000" fill-rule="evenodd" fill-opacity="1" /><path clip-path="url(#clip390)" d="M 0 0 M35.6497 813.761 Q25.0076 813.761 16.4262 809.793 Q12.8275 808.101 9.81325 805.733 Q6.799 803.365 5.47642 801.796 Q4.15383 800.227 4.15383 799.797 Q4.15383 799.182 4.76899 799.151 Q5.07657 799.151 5.84551 799.981 Q16.1801 810.131 35.6497 810.101 Q55.1809 810.101 65.1156 800.227 Q66.1921 799.151 66.5305 799.151 Q67.1456 799.151 67.1456 799.797 Q67.1456 800.227 65.8846 801.734 Q64.6235 803.242 61.7323 805.579 Q58.8411 807.917 55.3039 809.608 Q46.7225 813.761 35.6497 813.761 Z" fill="#000000" fill-rule="evenodd" fill-opacity="1" /><path clip-path="url(#clip390)" d="M 0 0 M17.4014 782.532 Q11.7332 782.532 7.9329 779.634 Q4.13261 776.735 4.13261 772.838 Q4.13261 770.455 6.25819 768.104 Q11.3467 762.758 11.3145 755.769 Q11.3145 747.846 5.06658 743.241 Q4.13261 742.436 4.13261 741.856 Q4.13261 741.341 4.55128 740.954 Q4.93775 740.536 5.45305 740.536 Q5.83952 740.536 6.64466 741.051 L56.3061 774.416 Q57.3045 775.157 57.3045 775.737 Q57.3045 776.252 56.8858 776.671 Q56.4993 777.057 55.984 777.057 Q55.5332 777.057 54.6636 776.477 L10.5416 746.848 L10.4772 746.912 Q12.796 750.326 12.7638 755.705 Q12.7638 760.793 9.99407 765.656 Q13.4079 764.271 17.4658 764.271 Q23.0052 764.271 26.8699 766.751 Q30.7024 769.231 30.7024 772.838 Q30.7024 776.735 26.9666 779.634 Q23.1985 782.532 17.4014 782.532 M12.023 777.991 Q14.3419 778.442 17.4658 778.442 Q20.5576 778.442 22.8764 777.991 Q25.163 777.54 26.3546 776.896 Q27.5463 776.22 28.2548 775.318 Q28.9311 774.416 29.0921 773.869 Q29.2532 773.321 29.2532 772.774 Q29.2532 770.068 25.9038 768.007 Q22.5222 765.914 17.4014 765.914 Q12.3773 765.914 8.99569 768.007 Q5.58187 770.068 5.58187 772.774 Q5.58187 773.353 5.7429 773.933 Q5.90393 774.481 6.61246 775.35 Q7.28878 776.22 8.4804 776.896 Q9.67201 777.54 12.023 777.991 M43.9713 753.321 Q38.303 753.321 34.5027 750.423 Q30.7024 747.524 30.7024 743.627 Q30.7024 740.053 34.5671 737.573 Q38.4318 735.061 44.0357 735.061 Q49.5751 735.061 53.4398 737.541 Q57.3045 739.988 57.3045 743.627 Q57.3045 747.524 53.5364 750.423 Q49.7683 753.321 43.9713 753.321 M38.5929 748.78 Q40.9439 749.231 44.0357 749.231 Q47.1274 749.231 49.4463 748.78 Q51.7651 748.297 52.9567 747.653 Q54.1161 746.977 54.7924 746.107 Q55.501 745.206 55.662 744.658 Q55.8552 744.078 55.8552 743.563 Q55.8552 740.858 52.5058 738.797 Q49.1242 736.703 43.9713 736.703 Q38.9471 736.703 35.5655 738.797 Q32.1517 740.858 32.1517 743.563 Q32.1517 744.143 32.3449 744.722 Q32.506 745.27 33.2145 746.14 Q33.8908 746.977 35.0824 747.653 Q36.2418 748.297 38.5929 748.78 Z" fill="#000000" fill-rule="evenodd" fill-opacity="1" /><path clip-path="url(#clip390)" d="M 0 0 M52.538 727.211 Q51.4752 728.145 50.0904 728.145 Q48.7055 728.145 47.6749 727.243 Q46.6121 726.309 46.6121 724.635 Q46.6121 722.67 48.5123 721.543 Q50.3802 720.416 53.5364 720.416 Q56.9502 720.416 60.1064 721.801 Q63.2948 723.186 64.8084 724.538 Q66.3221 725.891 66.3221 726.438 Q66.3221 727.082 65.6136 727.082 Q65.3559 727.082 64.8729 726.632 Q59.7843 721.897 53.5364 721.865 Q52.538 721.865 52.538 721.994 L52.6668 722.155 Q53.6008 723.282 53.6008 724.635 Q53.6008 726.277 52.538 727.211 Z" fill="#000000" fill-rule="evenodd" fill-opacity="1" /><path clip-path="url(#clip390)" d="M 0 0 M36.3063 665.011 Q39.5591 665.011 42.8118 666.686 Q46.0646 668.36 48.5767 671.098 Q51.0565 673.835 52.6668 677.571 Q54.2771 681.307 54.406 685.204 L64.2287 687.716 Q66.612 688.199 66.8696 688.457 Q67.1273 688.715 67.1273 689.101 Q67.1273 689.906 66.3865 689.906 Q66.1611 689.906 60.5895 688.457 L54.406 686.911 Q54.0839 692.773 50.7023 696.186 Q47.3207 699.6 42.4576 699.6 Q39.1726 699.6 35.9198 697.925 Q32.6348 696.219 30.1549 693.481 Q27.6751 690.711 26.097 686.975 Q24.5189 683.24 24.3901 679.407 L9.15672 675.575 Q8.28716 675.381 8.06172 675.22 Q7.83628 675.059 7.83628 674.576 Q7.83628 674.222 7.99731 674.029 Q8.15834 673.835 8.31937 673.835 L8.4804 673.803 L9.41437 673.996 L24.3901 677.7 Q24.6155 674.415 25.7749 671.871 Q26.9344 669.327 28.6735 667.877 Q30.3804 666.428 32.3127 665.72 Q34.2451 665.011 36.3063 665.011 M25.8394 679.794 Q26.1614 683.336 27.9005 686.331 Q29.6396 689.326 32.2161 691.259 Q34.7604 693.191 37.8199 694.254 Q40.8473 695.317 43.8424 695.317 Q46.1935 695.317 47.997 694.544 Q49.8005 693.739 50.8311 692.418 Q51.8295 691.098 52.377 689.649 Q52.8923 688.167 52.9567 686.589 L25.8394 679.794 M34.9214 669.327 Q30.7346 669.327 28.3836 671.742 Q26.0326 674.158 25.8394 678.087 L52.9567 684.882 Q52.7313 682.016 51.5396 679.504 Q50.3158 676.959 48.5123 675.124 Q46.6765 673.288 44.4221 671.968 Q42.1355 670.647 39.7201 670.003 Q37.2724 669.327 34.9214 669.327 Z" fill="#000000" fill-rule="evenodd" fill-opacity="1" /><path clip-path="url(#clip390)" d="M 0 0 M43.5848 642.381 Q42.7796 642.317 42.7796 641.061 L42.7796 600.643 Q42.7796 598.742 43.5204 598.71 Q44.3255 598.71 44.2933 600.514 L44.2933 640.61 Q44.3255 642.381 43.5848 642.381 M30.7024 642.381 Q29.8973 642.381 29.9295 640.997 L29.9295 600.707 Q29.9295 598.742 30.7024 598.71 Q31.4432 598.71 31.4432 600.385 L31.4432 641.061 Q31.4432 642.381 30.7024 642.381 Z" fill="#000000" fill-rule="evenodd" fill-opacity="1" /><path clip-path="url(#clip390)" d="M 0 0 M15.9522 573.264 L13.891 573.264 Q13.891 565.342 9.67201 561.252 Q9.67201 560.124 9.92966 559.931 Q10.1873 559.738 11.3789 559.738 L48.3835 559.738 Q50.348 559.738 50.9599 558.772 Q51.5718 557.806 51.5718 553.587 L51.5718 551.493 L53.6008 551.493 Q53.4076 553.812 53.4076 562.186 Q53.4076 570.559 53.6008 572.846 L51.5718 572.846 L51.5718 570.752 Q51.5718 566.598 50.9921 565.599 Q50.3802 564.601 48.3835 564.601 L14.213 564.601 Q15.9522 568.047 15.9522 573.264 Z" fill="#000000" fill-rule="evenodd" fill-opacity="1" /><path clip-path="url(#clip390)" d="M 0 0 M52.538 546.352 Q51.4752 547.35 50.0904 547.35 Q48.7055 547.35 47.7071 546.352 Q46.6765 545.354 46.6765 543.84 Q46.6765 542.391 47.6427 541.425 Q48.5767 540.426 50.1226 540.426 Q51.6363 540.426 52.6346 541.489 Q53.6008 542.52 53.6008 543.84 Q53.6008 545.354 52.538 546.352 Z" fill="#000000" fill-rule="evenodd" fill-opacity="1" /><path clip-path="url(#clip390)" d="M 0 0 M53.6008 529.2 Q52.4092 529.2 52.0549 529.104 Q51.7007 528.975 51.1532 528.459 L37.047 515.803 Q29.2532 508.878 22.4577 508.878 Q18.0455 508.878 14.8894 511.197 Q11.7332 513.484 11.7332 517.703 Q11.7332 520.601 13.5045 523.049 Q15.2758 525.496 18.432 526.624 Q18.3676 526.43 18.3676 525.754 Q18.3676 524.112 19.3982 523.21 Q20.4288 522.276 21.8136 522.276 Q23.5849 522.276 24.4545 523.435 Q25.2919 524.563 25.2919 525.69 Q25.2919 526.141 25.1952 526.753 Q25.0986 527.332 24.1969 528.266 Q23.2629 529.2 21.6204 529.2 Q17.015 529.2 13.3435 525.722 Q9.67201 522.211 9.67201 516.865 Q9.67201 510.811 13.2791 506.849 Q16.8539 502.856 22.4577 502.856 Q24.4223 502.856 26.2258 503.468 Q27.9971 504.047 29.382 504.853 Q30.7669 505.625 32.9891 507.751 Q35.2113 509.877 36.7893 511.584 Q38.3674 513.29 41.7168 517.123 L48.5123 524.112 L48.5123 512.228 Q48.5123 506.431 47.997 505.98 Q47.063 505.336 42.1355 504.53 L42.1355 502.856 L53.6008 504.724 L53.6008 529.2 Z" fill="#000000" fill-rule="evenodd" fill-opacity="1" /><path clip-path="url(#clip390)" d="M 0 0 M42.9729 496.536 Q41.0083 496.536 40.2676 495.473 Q39.4946 494.411 39.4946 493.283 Q39.4946 491.77 40.4608 490.9 Q41.3948 489.998 42.7152 489.998 Q44.0357 489.998 45.0018 490.9 Q45.9358 491.77 45.9358 493.283 Q45.9358 494.024 45.807 494.411 Q48.8343 493.541 51.0243 490.9 Q53.2143 488.227 53.2143 484.717 Q53.2143 480.304 48.931 477.663 Q46.1613 476.085 39.8811 476.085 Q34.3417 476.085 31.572 477.277 Q27.353 479.113 27.353 482.881 Q27.353 488.227 31.9585 491.383 Q32.5382 491.77 32.5704 492.221 Q32.5704 492.865 32.2161 493.026 Q31.8296 493.154 30.8313 493.154 L11.3145 493.154 Q9.73643 493.154 9.73643 492.51 Q9.73643 492.253 9.92966 491.705 Q11.7654 487.551 11.7976 482.945 Q11.7976 478.211 9.86525 473.96 Q9.67201 473.638 9.67201 473.444 Q9.67201 472.8 10.4127 472.768 Q10.6704 472.768 11.4433 473.316 Q12.1841 473.831 13.1825 474.958 Q14.1486 476.085 15.0826 477.535 Q16.0166 478.984 16.6607 481.109 Q17.2726 483.203 17.2726 485.522 Q17.2726 488.291 16.403 491.126 L29.2532 491.126 Q25.9038 487.712 25.9038 482.752 Q25.9038 477.47 30.1549 473.831 Q34.4061 470.192 40.332 470.192 Q46.5477 470.192 50.7989 474.507 Q55.0501 478.791 55.0501 484.588 Q55.0501 489.869 51.282 493.219 Q47.5139 496.536 42.9729 496.536 Z" fill="#000000" fill-rule="evenodd" fill-opacity="1" /><path clip-path="url(#clip390)" d="M 0 0 M66.5305 463.418 Q66.2229 463.418 65.454 462.618 Q55.1194 452.468 35.6497 452.468 Q16.1186 452.468 6.24536 462.218 Q5.10732 463.418 4.76899 463.418 Q4.15383 463.418 4.15383 462.803 Q4.15383 462.372 5.4149 460.865 Q6.67597 459.327 9.56719 457.02 Q12.4584 454.683 15.9956 452.96 Q24.577 448.808 35.6497 448.808 Q46.2919 448.808 54.8733 452.776 Q58.472 454.467 61.4862 456.836 Q64.5005 459.204 65.8231 460.773 Q67.1456 462.341 67.1456 462.803 Q67.1456 463.418 66.5305 463.418 Z" fill="#000000" fill-rule="evenodd" fill-opacity="1" /><polyline clip-path="url(#clip393)" style="stroke:#0000ff; stroke-width:4; stroke-opacity:1; fill:none" points="
  294.264,1400.1 315.687,1363.8 337.109,1342.32 358.532,1327.22 379.955,1315.16 401.377,1305.01 422.8,1296.18 444.222,1288.37 465.645,1281.37 487.068,1275.03 
  508.49,1269.24 529.913,1263.92 551.335,1259.02 572.758,1254.48 594.181,1250.25 615.603,1246.31 637.026,1242.62 658.448,1239.16 679.871,1235.91 701.293,1232.84 
  722.716,1229.95 744.139,1227.21 765.561,1224.62 786.984,1222.16 808.406,1219.82 829.829,1217.6 851.252,1215.48 872.674,1213.46 894.097,1211.53 915.519,1209.69 
  936.942,1207.92 958.365,1206.23 979.787,1204.61 1001.21,1203.06 1022.63,1201.56 1044.05,1200.13 1065.48,1198.75 1086.9,1197.42 1108.32,1196.14 1129.75,1194.9 
  1151.17,1193.71 1172.59,1192.56 1194.01,1191.45 1215.44,1190.38 1236.86,1189.34 1258.28,1188.34 1279.7,1187.36 1301.13,1186.42 1322.55,1185.51 1343.97,1184.62 
  1365.39,1183.77 1386.82,1182.93 1408.24,1182.12 1429.66,1181.34 1451.08,1180.58 1472.51,1179.83 1493.93,1179.11 1515.35,1178.41 1536.77,1177.73 1558.2,1177.06 
  1579.62,1176.42 1601.04,1175.78 1622.47,1175.17 1643.89,1174.57 1665.31,1173.99 1686.73,1173.42 1708.16,1172.86 1729.58,1172.32 1751,1171.79 1772.42,1171.27 
  1793.85,1170.76 1815.27,1170.27 1836.69,1169.78 1858.11,1169.31 1879.54,1168.85 
  "/>
<polyline clip-path="url(#clip393)" style="stroke:#5500aa; stroke-width:4; stroke-opacity:1; fill:none" points="
  294.264,1395.6 315.687,1309.11 337.109,1242.01 358.532,1188.39 379.955,1142.82 401.377,1102.95 422.8,1067.46 444.222,1035.49 465.645,1006.46 487.068,979.902 
  508.49,955.485 529.913,932.932 551.335,912.017 572.758,892.555 594.181,874.391 615.603,857.393 637.026,841.446 658.448,826.452 679.871,812.326 701.293,798.992 
  722.716,786.384 744.139,774.443 765.561,763.116 786.984,752.357 808.406,742.124 829.829,732.378 851.252,723.086 872.674,714.215 894.097,705.738 915.519,697.629 
  936.942,689.865 958.365,682.423 979.787,675.284 1001.21,668.431 1022.63,661.845 1044.05,655.512 1065.48,649.417 1086.9,643.548 1108.32,637.891 1129.75,632.436 
  1151.17,627.172 1172.59,622.089 1194.01,617.178 1215.44,612.43 1236.86,607.838 1258.28,603.393 1279.7,599.089 1301.13,594.92 1322.55,590.878 1343.97,586.959 
  1365.39,583.156 1386.82,579.465 1408.24,575.881 1429.66,572.4 1451.08,569.016 1472.51,565.726 1493.93,562.526 1515.35,559.412 1536.77,556.382 1558.2,553.431 
  1579.62,550.556 1601.04,547.755 1622.47,545.025 1643.89,542.364 1665.31,539.768 1686.73,537.235 1708.16,534.763 1729.58,532.35 1751,529.994 1772.42,527.692 
  1793.85,525.444 1815.27,523.246 1836.69,521.098 1858.11,518.998 1879.54,516.943 
  "/>
<polyline clip-path="url(#clip393)" style="stroke:#aa0055; stroke-width:4; stroke-opacity:1; fill:none" points="
  294.264,1395.31 315.687,1290.78 337.109,1207.4 358.532,1139 379.955,1079.97 401.377,1027.79 422.8,980.997 444.222,938.617 465.645,899.95 487.068,864.464 
  508.49,831.739 529.913,801.437 551.335,773.279 572.758,747.032 594.181,722.499 615.603,699.51 637.026,677.918 658.448,657.598 679.871,638.438 701.293,620.338 
  722.716,603.213 744.139,586.985 765.561,571.583 786.984,556.947 808.406,543.021 829.829,529.753 851.252,517.098 872.674,505.014 894.097,493.463 915.519,482.412 
  936.942,471.828 958.365,461.681 979.787,451.947 1001.21,442.599 1022.63,433.616 1044.05,424.977 1065.48,416.661 1086.9,408.652 1108.32,400.933 1129.75,393.489 
  1151.17,386.304 1172.59,379.366 1194.01,372.662 1215.44,366.181 1236.86,359.911 1258.28,353.844 1279.7,347.968 1301.13,342.275 1322.55,336.756 1343.97,331.405 
  1365.39,326.213 1386.82,321.173 1408.24,316.279 1429.66,311.524 1451.08,306.903 1472.51,302.41 1493.93,298.041 1515.35,293.788 1536.77,289.65 1558.2,285.62 
  1579.62,281.694 1601.04,277.869 1622.47,274.141 1643.89,270.506 1665.31,266.96 1686.73,263.501 1708.16,260.125 1729.58,256.83 1751,253.612 1772.42,250.469 
  1793.85,247.398 1815.27,244.397 1836.69,241.463 1858.11,238.594 1879.54,235.789 
  "/>
<polyline clip-path="url(#clip393)" style="stroke:#ff0000; stroke-width:4; stroke-opacity:1; fill:none" points="
  294.264,1395.16 315.687,1280.74 337.109,1188.44 358.532,1111.97 379.955,1045.57 401.377,986.659 422.8,933.681 444.222,885.606 465.645,841.68 487.068,801.324 
  508.49,764.08 529.913,729.575 551.335,697.499 572.758,667.593 594.181,639.637 615.603,613.438 637.026,588.834 658.448,565.679 679.871,543.849 701.293,523.23 
  722.716,503.724 744.139,485.243 765.561,467.707 786.984,451.046 808.406,435.196 829.829,420.099 851.252,405.702 872.674,391.957 894.097,378.822 915.519,366.258 
  936.942,354.226 958.365,342.695 979.787,331.634 1001.21,321.015 1022.63,310.812 1044.05,301.001 1065.48,291.56 1086.9,282.468 1108.32,273.707 1129.75,265.258 
  1151.17,257.106 1172.59,249.235 1194.01,241.632 1215.44,234.281 1236.86,227.172 1258.28,220.292 1279.7,213.631 1301.13,207.179 1322.55,200.925 1343.97,194.861 
  1365.39,188.978 1386.82,183.269 1408.24,177.725 1429.66,172.34 1451.08,167.107 1472.51,162.019 1493.93,157.072 1515.35,152.258 1536.77,147.573 1558.2,143.011 
  1579.62,138.569 1601.04,134.24 1622.47,130.021 1643.89,125.909 1665.31,121.897 1686.73,117.984 1708.16,114.166 1729.58,110.439 1751,106.799 1772.42,103.245 
  1793.85,99.7723 1815.27,96.3789 1836.69,93.062 1858.11,89.8191 1879.54,86.6476 
  "/>
<path clip-path="url(#clip390)" d="
M1997.3 358.253 L2352.76 358.253 L2352.76 93.6527 L1997.3 93.6527  Z
  " fill="#ffffff" fill-rule="evenodd" fill-opacity="1"/>
<polyline clip-path="url(#clip390)" style="stroke:#000000; stroke-width:4; stroke-opacity:1; fill:none" points="
  1997.3,358.253 2352.76,358.253 2352.76,93.6527 1997.3,93.6527 1997.3,358.253 
  "/>
<polyline clip-path="url(#clip390)" style="stroke:#0000ff; stroke-width:3.5; stroke-opacity:1; fill:none" points="
  2020.7,146.573 2161.1,146.573 
  "/>
<path clip-path="url(#clip390)" d="M 0 0 M2213.05 132.681 Q2213.05 133.07 2212.97 133.398 L2211.82 140.694 Q2211.76 141.247 2211.64 141.452 Q2211.53 141.657 2211.2 141.657 Q2210.69 141.657 2210.69 141.124 Q2210.69 140.817 2210.82 140.325 Q2211.16 138.009 2211.16 136.964 Q2211.16 136.267 2211.02 135.755 Q2210.9 135.222 2210.69 134.853 Q2210.51 134.484 2210.08 134.238 Q2209.65 133.992 2209.24 133.849 Q2208.83 133.705 2208.09 133.644 Q2207.35 133.562 2206.72 133.541 Q2206.08 133.521 2205.04 133.521 Q2202.76 133.521 2202.39 133.603 Q2202 133.705 2201.8 134.013 Q2201.61 134.3 2201.41 135.16 L2195.83 157.438 L2195.67 158.319 Q2195.67 158.811 2195.98 158.975 Q2196.28 159.139 2197.23 159.242 Q2198.58 159.344 2199.91 159.344 Q2199.95 159.344 2200.04 159.344 Q2200.49 159.344 2200.67 159.365 Q2200.86 159.365 2201.04 159.406 Q2201.22 159.446 2201.26 159.549 Q2201.33 159.631 2201.33 159.795 Q2201.33 160.184 2201.16 160.389 Q2201 160.574 2200.83 160.615 Q2200.69 160.635 2200.4 160.635 Q2199.83 160.635 2198.6 160.594 Q2197.37 160.553 2196.76 160.553 L2193.27 160.512 L2189.71 160.553 Q2189.15 160.553 2187.98 160.594 Q2186.82 160.635 2186.26 160.635 Q2185.55 160.635 2185.55 160.123 Q2185.55 159.549 2185.81 159.446 Q2186.1 159.344 2187.31 159.344 Q2189.01 159.344 2189.93 159.262 Q2190.85 159.18 2191.35 158.893 Q2191.86 158.606 2192 158.319 Q2192.14 158.012 2192.31 157.315 L2197.94 134.914 Q2198.11 134.423 2198.11 134.033 Q2198.11 133.828 2198.05 133.746 Q2198.01 133.664 2197.74 133.603 Q2197.47 133.521 2196.92 133.521 L2195.28 133.521 Q2193.6 133.521 2192.55 133.603 Q2191.53 133.664 2190.55 133.972 Q2189.58 134.279 2189.01 134.709 Q2188.46 135.14 2187.84 136.021 Q2187.23 136.902 2186.78 137.968 Q2186.34 139.034 2185.73 140.776 Q2185.53 141.35 2185.4 141.514 Q2185.3 141.657 2185.01 141.657 Q2184.81 141.657 2184.64 141.534 Q2184.5 141.391 2184.5 141.206 Q2184.71 140.53 2184.75 140.448 L2187.27 133.049 Q2187.47 132.455 2187.66 132.353 Q2187.86 132.23 2188.62 132.23 L2211.9 132.23 Q2212.27 132.23 2212.39 132.23 Q2212.52 132.23 2212.72 132.271 Q2212.93 132.312 2212.99 132.414 Q2213.05 132.517 2213.05 132.681 Z" fill="#000000" fill-rule="evenodd" fill-opacity="1" /><path clip-path="url(#clip390)" d="M 0 0 M2220.42 154.261 Q2220.46 153.749 2221.26 153.749 L2246.98 153.749 Q2248.19 153.749 2248.21 154.22 Q2248.21 154.733 2247.06 154.712 L2221.55 154.712 Q2220.42 154.733 2220.42 154.261 M2220.42 146.064 Q2220.42 145.551 2221.3 145.572 L2246.94 145.572 Q2248.19 145.572 2248.21 146.064 Q2248.21 146.535 2247.14 146.535 L2221.26 146.535 Q2220.42 146.535 2220.42 146.064 Z" fill="#000000" fill-rule="evenodd" fill-opacity="1" /><path clip-path="url(#clip390)" d="M 0 0 M2264.39 136.677 L2264.39 135.365 Q2269.43 135.365 2272.04 132.681 Q2272.75 132.681 2272.88 132.844 Q2273 133.008 2273 133.767 L2273 157.315 Q2273 158.565 2273.61 158.955 Q2274.23 159.344 2276.91 159.344 L2278.25 159.344 L2278.25 160.635 Q2276.77 160.512 2271.44 160.512 Q2266.11 160.512 2264.66 160.635 L2264.66 159.344 L2265.99 159.344 Q2268.63 159.344 2269.27 158.975 Q2269.91 158.586 2269.91 157.315 L2269.91 135.57 Q2267.71 136.677 2264.39 136.677 Z" fill="#000000" fill-rule="evenodd" fill-opacity="1" /><polyline clip-path="url(#clip390)" style="stroke:#5500aa; stroke-width:3.5; stroke-opacity:1; fill:none" points="
  2020.7,199.493 2161.1,199.493 
  "/>
<path clip-path="url(#clip390)" d="M 0 0 M2213.05 185.147 Q2213.05 185.537 2212.97 185.865 L2211.82 193.161 Q2211.76 193.714 2211.64 193.919 Q2211.53 194.124 2211.2 194.124 Q2210.69 194.124 2210.69 193.591 Q2210.69 193.284 2210.82 192.792 Q2211.16 190.476 2211.16 189.431 Q2211.16 188.734 2211.02 188.222 Q2210.9 187.689 2210.69 187.32 Q2210.51 186.951 2210.08 186.705 Q2209.65 186.459 2209.24 186.316 Q2208.83 186.172 2208.09 186.111 Q2207.35 186.029 2206.72 186.008 Q2206.08 185.988 2205.04 185.988 Q2202.76 185.988 2202.39 186.07 Q2202 186.172 2201.8 186.48 Q2201.61 186.766 2201.41 187.627 L2195.83 209.905 L2195.67 210.786 Q2195.67 211.278 2195.98 211.442 Q2196.28 211.606 2197.23 211.708 Q2198.58 211.811 2199.91 211.811 Q2199.95 211.811 2200.04 211.811 Q2200.49 211.811 2200.67 211.831 Q2200.86 211.831 2201.04 211.872 Q2201.22 211.913 2201.26 212.016 Q2201.33 212.098 2201.33 212.262 Q2201.33 212.651 2201.16 212.856 Q2201 213.041 2200.83 213.082 Q2200.69 213.102 2200.4 213.102 Q2199.83 213.102 2198.6 213.061 Q2197.37 213.02 2196.76 213.02 L2193.27 212.979 L2189.71 213.02 Q2189.15 213.02 2187.98 213.061 Q2186.82 213.102 2186.26 213.102 Q2185.55 213.102 2185.55 212.59 Q2185.55 212.016 2185.81 211.913 Q2186.1 211.811 2187.31 211.811 Q2189.01 211.811 2189.93 211.729 Q2190.85 211.647 2191.35 211.36 Q2191.86 211.073 2192 210.786 Q2192.14 210.479 2192.31 209.782 L2197.94 187.381 Q2198.11 186.889 2198.11 186.5 Q2198.11 186.295 2198.05 186.213 Q2198.01 186.131 2197.74 186.07 Q2197.47 185.988 2196.92 185.988 L2195.28 185.988 Q2193.6 185.988 2192.55 186.07 Q2191.53 186.131 2190.55 186.439 Q2189.58 186.746 2189.01 187.176 Q2188.46 187.607 2187.84 188.488 Q2187.23 189.369 2186.78 190.435 Q2186.34 191.501 2185.73 193.243 Q2185.53 193.817 2185.4 193.981 Q2185.3 194.124 2185.01 194.124 Q2184.81 194.124 2184.64 194.001 Q2184.5 193.858 2184.5 193.673 Q2184.71 192.997 2184.75 192.915 L2187.27 185.516 Q2187.47 184.922 2187.66 184.819 Q2187.86 184.696 2188.62 184.696 L2211.9 184.696 Q2212.27 184.696 2212.39 184.696 Q2212.52 184.696 2212.72 184.737 Q2212.93 184.778 2212.99 184.881 Q2213.05 184.983 2213.05 185.147 Z" fill="#000000" fill-rule="evenodd" fill-opacity="1" /><path clip-path="url(#clip390)" d="M 0 0 M2220.42 206.728 Q2220.46 206.216 2221.26 206.216 L2246.98 206.216 Q2248.19 206.216 2248.21 206.687 Q2248.21 207.2 2247.06 207.179 L2221.55 207.179 Q2220.42 207.2 2220.42 206.728 M2220.42 198.53 Q2220.42 198.018 2221.3 198.039 L2246.94 198.039 Q2248.19 198.039 2248.21 198.53 Q2248.21 199.002 2247.14 199.002 L2221.26 199.002 Q2220.42 199.002 2220.42 198.53 Z" fill="#000000" fill-rule="evenodd" fill-opacity="1" /><path clip-path="url(#clip390)" d="M 0 0 M2264.39 206.339 Q2264.39 205.089 2265.07 204.617 Q2265.74 204.125 2266.46 204.125 Q2267.43 204.125 2267.98 204.74 Q2268.55 205.335 2268.55 206.175 Q2268.55 207.015 2267.98 207.63 Q2267.43 208.224 2266.46 208.224 Q2265.99 208.224 2265.74 208.142 Q2266.3 210.069 2267.98 211.462 Q2269.68 212.856 2271.91 212.856 Q2274.72 212.856 2276.4 210.13 Q2277.41 208.368 2277.41 204.371 Q2277.41 200.846 2276.65 199.084 Q2275.48 196.399 2273.08 196.399 Q2269.68 196.399 2267.67 199.33 Q2267.43 199.699 2267.14 199.719 Q2266.73 199.719 2266.63 199.494 Q2266.54 199.248 2266.54 198.612 L2266.54 186.193 Q2266.54 185.188 2266.95 185.188 Q2267.12 185.188 2267.47 185.311 Q2270.11 186.48 2273.04 186.5 Q2276.05 186.5 2278.76 185.27 Q2278.96 185.147 2279.09 185.147 Q2279.5 185.147 2279.52 185.619 Q2279.52 185.783 2279.17 186.275 Q2278.84 186.746 2278.12 187.381 Q2277.41 187.996 2276.48 188.59 Q2275.56 189.185 2274.21 189.595 Q2272.88 189.984 2271.4 189.984 Q2269.64 189.984 2267.84 189.431 L2267.84 197.608 Q2270.01 195.477 2273.16 195.477 Q2276.53 195.477 2278.84 198.182 Q2281.16 200.887 2281.16 204.658 Q2281.16 208.614 2278.41 211.319 Q2275.68 214.024 2272 214.024 Q2268.63 214.024 2266.5 211.626 Q2264.39 209.229 2264.39 206.339 Z" fill="#000000" fill-rule="evenodd" fill-opacity="1" /><polyline clip-path="url(#clip390)" style="stroke:#aa0055; stroke-width:3.5; stroke-opacity:1; fill:none" points="
  2020.7,252.413 2161.1,252.413 
  "/>
<path clip-path="url(#clip390)" d="M 0 0 M2213.05 238.067 Q2213.05 238.457 2212.97 238.785 L2211.82 246.081 Q2211.76 246.634 2211.64 246.839 Q2211.53 247.044 2211.2 247.044 Q2210.69 247.044 2210.69 246.511 Q2210.69 246.204 2210.82 245.712 Q2211.16 243.396 2211.16 242.351 Q2211.16 241.654 2211.02 241.142 Q2210.9 240.609 2210.69 240.24 Q2210.51 239.871 2210.08 239.625 Q2209.65 239.379 2209.24 239.236 Q2208.83 239.092 2208.09 239.031 Q2207.35 238.949 2206.72 238.928 Q2206.08 238.908 2205.04 238.908 Q2202.76 238.908 2202.39 238.99 Q2202 239.092 2201.8 239.4 Q2201.61 239.686 2201.41 240.547 L2195.83 262.825 L2195.67 263.706 Q2195.67 264.198 2195.98 264.362 Q2196.28 264.526 2197.23 264.628 Q2198.58 264.731 2199.91 264.731 Q2199.95 264.731 2200.04 264.731 Q2200.49 264.731 2200.67 264.751 Q2200.86 264.751 2201.04 264.792 Q2201.22 264.833 2201.26 264.936 Q2201.33 265.018 2201.33 265.182 Q2201.33 265.571 2201.16 265.776 Q2201 265.961 2200.83 266.002 Q2200.69 266.022 2200.4 266.022 Q2199.83 266.022 2198.6 265.981 Q2197.37 265.94 2196.76 265.94 L2193.27 265.899 L2189.71 265.94 Q2189.15 265.94 2187.98 265.981 Q2186.82 266.022 2186.26 266.022 Q2185.55 266.022 2185.55 265.51 Q2185.55 264.936 2185.81 264.833 Q2186.1 264.731 2187.31 264.731 Q2189.01 264.731 2189.93 264.649 Q2190.85 264.567 2191.35 264.28 Q2191.86 263.993 2192 263.706 Q2192.14 263.399 2192.31 262.702 L2197.94 240.301 Q2198.11 239.809 2198.11 239.42 Q2198.11 239.215 2198.05 239.133 Q2198.01 239.051 2197.74 238.99 Q2197.47 238.908 2196.92 238.908 L2195.28 238.908 Q2193.6 238.908 2192.55 238.99 Q2191.53 239.051 2190.55 239.359 Q2189.58 239.666 2189.01 240.096 Q2188.46 240.527 2187.84 241.408 Q2187.23 242.289 2186.78 243.355 Q2186.34 244.421 2185.73 246.163 Q2185.53 246.737 2185.4 246.901 Q2185.3 247.044 2185.01 247.044 Q2184.81 247.044 2184.64 246.921 Q2184.5 246.778 2184.5 246.593 Q2184.71 245.917 2184.75 245.835 L2187.27 238.436 Q2187.47 237.842 2187.66 237.739 Q2187.86 237.616 2188.62 237.616 L2211.9 237.616 Q2212.27 237.616 2212.39 237.616 Q2212.52 237.616 2212.72 237.657 Q2212.93 237.698 2212.99 237.801 Q2213.05 237.903 2213.05 238.067 Z" fill="#000000" fill-rule="evenodd" fill-opacity="1" /><path clip-path="url(#clip390)" d="M 0 0 M2220.42 259.648 Q2220.46 259.136 2221.26 259.136 L2246.98 259.136 Q2248.19 259.136 2248.21 259.607 Q2248.21 260.12 2247.06 260.099 L2221.55 260.099 Q2220.42 260.12 2220.42 259.648 M2220.42 251.45 Q2220.42 250.938 2221.3 250.959 L2246.94 250.959 Q2248.19 250.959 2248.21 251.45 Q2248.21 251.922 2247.14 251.922 L2221.26 251.922 Q2220.42 251.922 2220.42 251.45 Z" fill="#000000" fill-rule="evenodd" fill-opacity="1" /><path clip-path="url(#clip390)" d="M 0 0 M2264.39 242.064 L2264.39 240.752 Q2269.43 240.752 2272.04 238.067 Q2272.75 238.067 2272.88 238.231 Q2273 238.395 2273 239.154 L2273 262.702 Q2273 263.952 2273.61 264.342 Q2274.23 264.731 2276.91 264.731 L2278.25 264.731 L2278.25 266.022 Q2276.77 265.899 2271.44 265.899 Q2266.11 265.899 2264.66 266.022 L2264.66 264.731 L2265.99 264.731 Q2268.63 264.731 2269.27 264.362 Q2269.91 263.973 2269.91 262.702 L2269.91 240.957 Q2267.71 242.064 2264.39 242.064 Z" fill="#000000" fill-rule="evenodd" fill-opacity="1" /><path clip-path="url(#clip390)" d="M 0 0 M2281.8 252.598 Q2281.8 246.429 2283.36 243.068 Q2285.53 238.067 2290.65 238.067 Q2291.74 238.067 2292.87 238.375 Q2294.01 238.662 2295.45 239.789 Q2296.9 240.916 2297.78 242.761 Q2299.46 246.327 2299.46 252.598 Q2299.46 258.726 2297.91 262.067 Q2295.63 266.944 2290.61 266.944 Q2288.73 266.944 2286.8 265.981 Q2284.89 265.018 2283.68 262.702 Q2281.8 259.238 2281.8 252.598 M2285.28 252.086 Q2285.28 258.419 2285.73 260.939 Q2286.25 263.665 2287.64 264.854 Q2289.05 266.022 2290.61 266.022 Q2292.29 266.022 2293.69 264.772 Q2295.1 263.501 2295.53 260.775 Q2296 258.091 2295.98 252.086 Q2295.98 246.245 2295.57 243.908 Q2295.02 241.183 2293.54 240.096 Q2292.09 238.99 2290.61 238.99 Q2290.06 238.99 2289.46 239.154 Q2288.89 239.318 2288.05 239.789 Q2287.21 240.26 2286.55 241.428 Q2285.92 242.597 2285.61 244.359 Q2285.28 246.634 2285.28 252.086 Z" fill="#000000" fill-rule="evenodd" fill-opacity="1" /><polyline clip-path="url(#clip390)" style="stroke:#ff0000; stroke-width:3.5; stroke-opacity:1; fill:none" points="
  2020.7,305.333 2161.1,305.333 
  "/>
<path clip-path="url(#clip390)" d="M 0 0 M2213.05 290.987 Q2213.05 291.377 2212.97 291.705 L2211.82 299.001 Q2211.76 299.554 2211.64 299.759 Q2211.53 299.964 2211.2 299.964 Q2210.69 299.964 2210.69 299.431 Q2210.69 299.124 2210.82 298.632 Q2211.16 296.316 2211.16 295.271 Q2211.16 294.574 2211.02 294.062 Q2210.9 293.529 2210.69 293.16 Q2210.51 292.791 2210.08 292.545 Q2209.65 292.299 2209.24 292.156 Q2208.83 292.012 2208.09 291.951 Q2207.35 291.869 2206.72 291.848 Q2206.08 291.828 2205.04 291.828 Q2202.76 291.828 2202.39 291.91 Q2202 292.012 2201.8 292.32 Q2201.61 292.606 2201.41 293.467 L2195.83 315.745 L2195.67 316.626 Q2195.67 317.118 2195.98 317.282 Q2196.28 317.446 2197.23 317.548 Q2198.58 317.651 2199.91 317.651 Q2199.95 317.651 2200.04 317.651 Q2200.49 317.651 2200.67 317.671 Q2200.86 317.671 2201.04 317.712 Q2201.22 317.753 2201.26 317.856 Q2201.33 317.938 2201.33 318.102 Q2201.33 318.491 2201.16 318.696 Q2201 318.881 2200.83 318.922 Q2200.69 318.942 2200.4 318.942 Q2199.83 318.942 2198.6 318.901 Q2197.37 318.86 2196.76 318.86 L2193.27 318.819 L2189.71 318.86 Q2189.15 318.86 2187.98 318.901 Q2186.82 318.942 2186.26 318.942 Q2185.55 318.942 2185.55 318.43 Q2185.55 317.856 2185.81 317.753 Q2186.1 317.651 2187.31 317.651 Q2189.01 317.651 2189.93 317.569 Q2190.85 317.487 2191.35 317.2 Q2191.86 316.913 2192 316.626 Q2192.14 316.319 2192.31 315.622 L2197.94 293.221 Q2198.11 292.729 2198.11 292.34 Q2198.11 292.135 2198.05 292.053 Q2198.01 291.971 2197.74 291.91 Q2197.47 291.828 2196.92 291.828 L2195.28 291.828 Q2193.6 291.828 2192.55 291.91 Q2191.53 291.971 2190.55 292.279 Q2189.58 292.586 2189.01 293.016 Q2188.46 293.447 2187.84 294.328 Q2187.23 295.209 2186.78 296.275 Q2186.34 297.341 2185.73 299.083 Q2185.53 299.657 2185.4 299.821 Q2185.3 299.964 2185.01 299.964 Q2184.81 299.964 2184.64 299.841 Q2184.5 299.698 2184.5 299.513 Q2184.71 298.837 2184.75 298.755 L2187.27 291.356 Q2187.47 290.762 2187.66 290.659 Q2187.86 290.536 2188.62 290.536 L2211.9 290.536 Q2212.27 290.536 2212.39 290.536 Q2212.52 290.536 2212.72 290.577 Q2212.93 290.618 2212.99 290.721 Q2213.05 290.823 2213.05 290.987 Z" fill="#000000" fill-rule="evenodd" fill-opacity="1" /><path clip-path="url(#clip390)" d="M 0 0 M2220.42 312.568 Q2220.46 312.056 2221.26 312.056 L2246.98 312.056 Q2248.19 312.056 2248.21 312.527 Q2248.21 313.04 2247.06 313.019 L2221.55 313.019 Q2220.42 313.04 2220.42 312.568 M2220.42 304.37 Q2220.42 303.858 2221.3 303.879 L2246.94 303.879 Q2248.19 303.879 2248.21 304.37 Q2248.21 304.842 2247.14 304.842 L2221.26 304.842 Q2220.42 304.842 2220.42 304.37 Z" fill="#000000" fill-rule="evenodd" fill-opacity="1" /><path clip-path="url(#clip390)" d="M 0 0 M2264.39 313.286 Q2264.39 312.035 2265.11 311.441 Q2265.83 310.847 2266.75 310.847 Q2267.71 310.847 2268.39 311.482 Q2269.09 312.097 2269.09 313.183 Q2269.09 314.351 2268.27 315.007 Q2267.47 315.663 2266.32 315.499 Q2267.32 317.18 2269.17 317.938 Q2271.03 318.696 2272.75 318.696 Q2274.56 318.696 2276.01 317.139 Q2277.49 315.581 2277.49 311.769 Q2277.49 308.531 2276.22 306.666 Q2274.97 304.801 2272.49 304.801 L2270.64 304.801 Q2270.01 304.801 2269.82 304.739 Q2269.64 304.678 2269.64 304.329 Q2269.64 303.919 2270.27 303.838 Q2270.91 303.838 2271.91 303.715 Q2274.35 303.633 2275.64 301.522 Q2276.81 299.554 2276.81 296.746 Q2276.81 294.185 2275.58 293.119 Q2274.37 292.033 2272.8 292.033 Q2271.32 292.033 2269.7 292.647 Q2268.08 293.262 2267.2 294.635 Q2269.8 294.635 2269.8 296.746 Q2269.8 297.669 2269.21 298.283 Q2268.63 298.878 2267.67 298.878 Q2266.75 298.878 2266.13 298.304 Q2265.52 297.71 2265.52 296.705 Q2265.52 294.308 2267.65 292.647 Q2269.8 290.987 2272.96 290.987 Q2276.07 290.987 2278.37 292.627 Q2280.69 294.267 2280.69 296.787 Q2280.69 299.267 2279.05 301.296 Q2277.41 303.325 2274.8 304.165 Q2278 304.801 2279.91 306.973 Q2281.81 309.125 2281.81 311.769 Q2281.81 315.048 2279.23 317.466 Q2276.65 319.864 2272.88 319.864 Q2269.39 319.864 2266.89 317.979 Q2264.39 316.093 2264.39 313.286 Z" fill="#000000" fill-rule="evenodd" fill-opacity="1" /><path clip-path="url(#clip390)" d="M 0 0 M2285.17 305.518 Q2285.17 299.349 2286.73 295.988 Q2288.9 290.987 2294.03 290.987 Q2295.11 290.987 2296.24 291.295 Q2297.39 291.582 2298.82 292.709 Q2300.28 293.836 2301.16 295.681 Q2302.84 299.247 2302.84 305.518 Q2302.84 311.646 2301.28 314.987 Q2299.01 319.864 2293.99 319.864 Q2292.1 319.864 2290.17 318.901 Q2288.27 317.938 2287.06 315.622 Q2285.17 312.158 2285.17 305.518 M2288.66 305.006 Q2288.66 311.339 2289.11 313.859 Q2289.62 316.585 2291.01 317.774 Q2292.43 318.942 2293.99 318.942 Q2295.67 318.942 2297.06 317.692 Q2298.47 316.421 2298.9 313.695 Q2299.38 311.011 2299.36 305.006 Q2299.36 299.165 2298.95 296.828 Q2298.39 294.103 2296.92 293.016 Q2295.46 291.91 2293.99 291.91 Q2293.43 291.91 2292.84 292.074 Q2292.26 292.238 2291.42 292.709 Q2290.58 293.18 2289.93 294.348 Q2289.29 295.517 2288.99 297.279 Q2288.66 299.554 2288.66 305.006 Z" fill="#000000" fill-rule="evenodd" fill-opacity="1" /></svg>
