<?xml version="1.0" encoding="utf-8"?>
<svg xmlns="http://www.w3.org/2000/svg" xmlns:xlink="http://www.w3.org/1999/xlink" width="600" height="400" viewBox="0 0 2400 1600">
<defs>
  <clipPath id="clip400">
    <rect x="0" y="0" width="2400" height="1600"/>
  </clipPath>
</defs>
<path clip-path="url(#clip400)" d="
M0 1600 L2400 1600 L2400 0 L0 0  Z
  " fill="#ffffff" fill-rule="evenodd" fill-opacity="1"/>
<defs>
  <clipPath id="clip401">
    <rect x="480" y="0" width="1681" height="1600"/>
  </clipPath>
</defs>
<defs>
  <clipPath id="clip402">
    <rect x="268" y="47" width="2085" height="1393"/>
  </clipPath>
</defs>
<path clip-path="url(#clip400)" d="
M268.97 1439.5 L2352.76 1439.5 L2352.76 47.2441 L268.97 47.2441  Z
  " fill="#ffffff" fill-rule="evenodd" fill-opacity="1"/>
<polyline clip-path="url(#clip402)" style="stroke:#000000; stroke-width:2; stroke-opacity:0.1; fill:none" points="
  308.089,1439.5 308.089,47.2441 
  "/>
<polyline clip-path="url(#clip402)" style="stroke:#000000; stroke-width:2; stroke-opacity:0.1; fill:none" points="
  804.512,1439.5 804.512,47.2441 
  "/>
<polyline clip-path="url(#clip402)" style="stroke:#000000; stroke-width:2; stroke-opacity:0.1; fill:none" points="
  1300.93,1439.5 1300.93,47.2441 
  "/>
<polyline clip-path="url(#clip402)" style="stroke:#000000; stroke-width:2; stroke-opacity:0.1; fill:none" points="
  1797.36,1439.5 1797.36,47.2441 
  "/>
<polyline clip-path="url(#clip402)" style="stroke:#000000; stroke-width:2; stroke-opacity:0.1; fill:none" points="
  2293.78,1439.5 2293.78,47.2441 
  "/>
<polyline clip-path="url(#clip400)" style="stroke:#000000; stroke-width:4; stroke-opacity:1; fill:none" points="
  268.97,1439.5 2352.76,1439.5 
  "/>
<polyline clip-path="url(#clip400)" style="stroke:#000000; stroke-width:4; stroke-opacity:1; fill:none" points="
  308.089,1439.5 308.089,1422.79 
  "/>
<polyline clip-path="url(#clip400)" style="stroke:#000000; stroke-width:4; stroke-opacity:1; fill:none" points="
  804.512,1439.5 804.512,1422.79 
  "/>
<polyline clip-path="url(#clip400)" style="stroke:#000000; stroke-width:4; stroke-opacity:1; fill:none" points="
  1300.93,1439.5 1300.93,1422.79 
  "/>
<polyline clip-path="url(#clip400)" style="stroke:#000000; stroke-width:4; stroke-opacity:1; fill:none" points="
  1797.36,1439.5 1797.36,1422.79 
  "/>
<polyline clip-path="url(#clip400)" style="stroke:#000000; stroke-width:4; stroke-opacity:1; fill:none" points="
  2293.78,1439.5 2293.78,1422.79 
  "/>
<path clip-path="url(#clip400)" d="M 0 0 M308.089 1468.69 Q304.477 1468.69 302.649 1472.26 Q300.843 1475.8 300.843 1482.93 Q300.843 1490.04 302.649 1493.6 Q304.477 1497.14 308.089 1497.14 Q311.723 1497.14 313.528 1493.6 Q315.357 1490.04 315.357 1482.93 Q315.357 1475.8 313.528 1472.26 Q311.723 1468.69 308.089 1468.69 M308.089 1464.99 Q313.899 1464.99 316.954 1469.6 Q320.033 1474.18 320.033 1482.93 Q320.033 1491.66 316.954 1496.26 Q313.899 1500.85 308.089 1500.85 Q302.278 1500.85 299.2 1496.26 Q296.144 1491.66 296.144 1482.93 Q296.144 1474.18 299.2 1469.6 Q302.278 1464.99 308.089 1464.99 Z" fill="#000000" fill-rule="evenodd" fill-opacity="1" /><path clip-path="url(#clip400)" d="M 0 0 M783.783 1496.24 L800.102 1496.24 L800.102 1500.17 L778.158 1500.17 L778.158 1496.24 Q780.82 1493.48 785.403 1488.85 Q790.009 1484.2 791.19 1482.86 Q793.435 1480.34 794.315 1478.6 Q795.218 1476.84 795.218 1475.15 Q795.218 1472.4 793.273 1470.66 Q791.352 1468.92 788.25 1468.92 Q786.051 1468.92 783.597 1469.69 Q781.167 1470.45 778.389 1472 L778.389 1467.28 Q781.213 1466.15 783.667 1465.57 Q786.121 1464.99 788.158 1464.99 Q793.528 1464.99 796.722 1467.67 Q799.917 1470.36 799.917 1474.85 Q799.917 1476.98 799.107 1478.9 Q798.32 1480.8 796.213 1483.39 Q795.634 1484.06 792.533 1487.28 Q789.431 1490.47 783.783 1496.24 Z" fill="#000000" fill-rule="evenodd" fill-opacity="1" /><path clip-path="url(#clip400)" d="M 0 0 M809.963 1465.61 L828.319 1465.61 L828.319 1469.55 L814.245 1469.55 L814.245 1478.02 Q815.264 1477.67 816.282 1477.51 Q817.301 1477.33 818.319 1477.33 Q824.106 1477.33 827.486 1480.5 Q830.866 1483.67 830.866 1489.09 Q830.866 1494.66 827.393 1497.77 Q823.921 1500.85 817.602 1500.85 Q815.426 1500.85 813.157 1500.47 Q810.912 1500.1 808.505 1499.36 L808.505 1494.66 Q810.588 1495.8 812.81 1496.35 Q815.032 1496.91 817.509 1496.91 Q821.514 1496.91 823.852 1494.8 Q826.19 1492.7 826.19 1489.09 Q826.19 1485.47 823.852 1483.37 Q821.514 1481.26 817.509 1481.26 Q815.634 1481.26 813.759 1481.68 Q811.907 1482.1 809.963 1482.97 L809.963 1465.61 Z" fill="#000000" fill-rule="evenodd" fill-opacity="1" /><path clip-path="url(#clip400)" d="M 0 0 M1275.63 1465.61 L1293.99 1465.61 L1293.99 1469.55 L1279.92 1469.55 L1279.92 1478.02 Q1280.93 1477.67 1281.95 1477.51 Q1282.97 1477.33 1283.99 1477.33 Q1289.78 1477.33 1293.16 1480.5 Q1296.54 1483.67 1296.54 1489.09 Q1296.54 1494.66 1293.06 1497.77 Q1289.59 1500.85 1283.27 1500.85 Q1281.1 1500.85 1278.83 1500.47 Q1276.58 1500.1 1274.18 1499.36 L1274.18 1494.66 Q1276.26 1495.8 1278.48 1496.35 Q1280.7 1496.91 1283.18 1496.91 Q1287.18 1496.91 1289.52 1494.8 Q1291.86 1492.7 1291.86 1489.09 Q1291.86 1485.47 1289.52 1483.37 Q1287.18 1481.26 1283.18 1481.26 Q1281.31 1481.26 1279.43 1481.68 Q1277.58 1482.1 1275.63 1482.97 L1275.63 1465.61 Z" fill="#000000" fill-rule="evenodd" fill-opacity="1" /><path clip-path="url(#clip400)" d="M 0 0 M1315.75 1468.69 Q1312.14 1468.69 1310.31 1472.26 Q1308.5 1475.8 1308.5 1482.93 Q1308.5 1490.04 1310.31 1493.6 Q1312.14 1497.14 1315.75 1497.14 Q1319.38 1497.14 1321.19 1493.6 Q1323.02 1490.04 1323.02 1482.93 Q1323.02 1475.8 1321.19 1472.26 Q1319.38 1468.69 1315.75 1468.69 M1315.75 1464.99 Q1321.56 1464.99 1324.62 1469.6 Q1327.69 1474.18 1327.69 1482.93 Q1327.69 1491.66 1324.62 1496.26 Q1321.56 1500.85 1315.75 1500.85 Q1309.94 1500.85 1306.86 1496.26 Q1303.81 1491.66 1303.81 1482.93 Q1303.81 1474.18 1306.86 1469.6 Q1309.94 1464.99 1315.75 1464.99 Z" fill="#000000" fill-rule="evenodd" fill-opacity="1" /><path clip-path="url(#clip400)" d="M 0 0 M1771.21 1465.61 L1793.43 1465.61 L1793.43 1467.6 L1780.89 1500.17 L1776 1500.17 L1787.81 1469.55 L1771.21 1469.55 L1771.21 1465.61 Z" fill="#000000" fill-rule="evenodd" fill-opacity="1" /><path clip-path="url(#clip400)" d="M 0 0 M1802.6 1465.61 L1820.96 1465.61 L1820.96 1469.55 L1806.88 1469.55 L1806.88 1478.02 Q1807.9 1477.67 1808.92 1477.51 Q1809.94 1477.33 1810.96 1477.33 Q1816.74 1477.33 1820.12 1480.5 Q1823.5 1483.67 1823.5 1489.09 Q1823.5 1494.66 1820.03 1497.77 Q1816.56 1500.85 1810.24 1500.85 Q1808.06 1500.85 1805.8 1500.47 Q1803.55 1500.1 1801.14 1499.36 L1801.14 1494.66 Q1803.23 1495.8 1805.45 1496.35 Q1807.67 1496.91 1810.15 1496.91 Q1814.15 1496.91 1816.49 1494.8 Q1818.83 1492.7 1818.83 1489.09 Q1818.83 1485.47 1816.49 1483.37 Q1814.15 1481.26 1810.15 1481.26 Q1808.27 1481.26 1806.4 1481.68 Q1804.55 1482.1 1802.6 1482.97 L1802.6 1465.61 Z" fill="#000000" fill-rule="evenodd" fill-opacity="1" /><path clip-path="url(#clip400)" d="M 0 0 M2253.39 1496.24 L2261.03 1496.24 L2261.03 1469.87 L2252.72 1471.54 L2252.72 1467.28 L2260.98 1465.61 L2265.66 1465.61 L2265.66 1496.24 L2273.29 1496.24 L2273.29 1500.17 L2253.39 1500.17 L2253.39 1496.24 Z" fill="#000000" fill-rule="evenodd" fill-opacity="1" /><path clip-path="url(#clip400)" d="M 0 0 M2292.74 1468.69 Q2289.13 1468.69 2287.3 1472.26 Q2285.49 1475.8 2285.49 1482.93 Q2285.49 1490.04 2287.3 1493.6 Q2289.13 1497.14 2292.74 1497.14 Q2296.37 1497.14 2298.18 1493.6 Q2300.01 1490.04 2300.01 1482.93 Q2300.01 1475.8 2298.18 1472.26 Q2296.37 1468.69 2292.74 1468.69 M2292.74 1464.99 Q2298.55 1464.99 2301.6 1469.6 Q2304.68 1474.18 2304.68 1482.93 Q2304.68 1491.66 2301.6 1496.26 Q2298.55 1500.85 2292.74 1500.85 Q2286.93 1500.85 2283.85 1496.26 Q2280.79 1491.66 2280.79 1482.93 Q2280.79 1474.18 2283.85 1469.6 Q2286.93 1464.99 2292.74 1464.99 Z" fill="#000000" fill-rule="evenodd" fill-opacity="1" /><path clip-path="url(#clip400)" d="M 0 0 M2322.9 1468.69 Q2319.29 1468.69 2317.46 1472.26 Q2315.66 1475.8 2315.66 1482.93 Q2315.66 1490.04 2317.46 1493.6 Q2319.29 1497.14 2322.9 1497.14 Q2326.54 1497.14 2328.34 1493.6 Q2330.17 1490.04 2330.17 1482.93 Q2330.17 1475.8 2328.34 1472.26 Q2326.54 1468.69 2322.9 1468.69 M2322.9 1464.99 Q2328.71 1464.99 2331.77 1469.6 Q2334.85 1474.18 2334.85 1482.93 Q2334.85 1491.66 2331.77 1496.26 Q2328.71 1500.85 2322.9 1500.85 Q2317.09 1500.85 2314.01 1496.26 Q2310.96 1491.66 2310.96 1482.93 Q2310.96 1474.18 2314.01 1469.6 Q2317.09 1464.99 2322.9 1464.99 Z" fill="#000000" fill-rule="evenodd" fill-opacity="1" /><path clip-path="url(#clip400)" d="M 0 0 M1322.8 1535.75 Q1322.8 1541.16 1321.06 1547.24 Q1319.35 1553.3 1316.65 1558.19 Q1313.94 1563.06 1310.4 1566.28 Q1306.86 1569.47 1303.47 1569.47 Q1301.32 1569.47 1299.71 1568.27 Q1298.13 1567.05 1297.26 1565.02 Q1296.39 1562.96 1295.97 1560.71 Q1295.55 1558.42 1295.55 1555.94 Q1295.55 1552.24 1296.36 1548.21 Q1297.16 1544.15 1298.51 1540.48 Q1299.87 1536.78 1301.77 1533.43 Q1303.67 1530.05 1305.76 1527.6 Q1307.89 1525.12 1310.27 1523.67 Q1312.65 1522.22 1314.88 1522.22 Q1316.49 1522.22 1317.77 1522.93 Q1319.09 1523.6 1319.93 1524.8 Q1320.77 1525.96 1321.35 1527.34 Q1321.96 1528.73 1322.25 1530.34 Q1322.54 1531.91 1322.67 1533.23 Q1322.8 1534.52 1322.8 1535.75 M1318.45 1531.66 Q1318.45 1530.01 1318.32 1528.79 Q1318.19 1527.53 1317.84 1526.28 Q1317.48 1525.02 1316.71 1524.35 Q1315.97 1523.67 1314.81 1523.67 Q1311.43 1523.67 1307.63 1530.59 Q1306.41 1532.75 1305.31 1535.68 Q1304.22 1538.61 1303.83 1540 Q1303.44 1541.38 1302.54 1544.8 L1316.32 1544.8 Q1318.45 1536 1318.45 1531.66 M1315.74 1546.89 L1302.03 1546.89 Q1299.9 1554.94 1299.9 1559.96 Q1299.9 1564.34 1300.8 1566.18 Q1301.74 1567.98 1303.47 1567.98 Q1305.47 1567.98 1307.34 1565.99 Q1309.21 1563.96 1311.11 1560.29 Q1313.62 1555.52 1315.74 1546.89 Z" fill="#000000" fill-rule="evenodd" fill-opacity="1" /><polyline clip-path="url(#clip402)" style="stroke:#000000; stroke-width:2; stroke-opacity:0.1; fill:none" points="
  268.97,1250.28 2352.76,1250.28 
  "/>
<polyline clip-path="url(#clip402)" style="stroke:#000000; stroke-width:2; stroke-opacity:0.1; fill:none" points="
  268.97,934.879 2352.76,934.879 
  "/>
<polyline clip-path="url(#clip402)" style="stroke:#000000; stroke-width:2; stroke-opacity:0.1; fill:none" points="
  268.97,619.482 2352.76,619.482 
  "/>
<polyline clip-path="url(#clip402)" style="stroke:#000000; stroke-width:2; stroke-opacity:0.1; fill:none" points="
  268.97,304.084 2352.76,304.084 
  "/>
<polyline clip-path="url(#clip400)" style="stroke:#000000; stroke-width:4; stroke-opacity:1; fill:none" points="
  268.97,1439.5 268.97,47.2441 
  "/>
<polyline clip-path="url(#clip400)" style="stroke:#000000; stroke-width:4; stroke-opacity:1; fill:none" points="
  268.97,1250.28 293.976,1250.28 
  "/>
<polyline clip-path="url(#clip400)" style="stroke:#000000; stroke-width:4; stroke-opacity:1; fill:none" points="
  268.97,934.879 293.976,934.879 
  "/>
<polyline clip-path="url(#clip400)" style="stroke:#000000; stroke-width:4; stroke-opacity:1; fill:none" points="
  268.97,619.482 293.976,619.482 
  "/>
<polyline clip-path="url(#clip400)" style="stroke:#000000; stroke-width:4; stroke-opacity:1; fill:none" points="
  268.97,304.084 293.976,304.084 
  "/>
<path clip-path="url(#clip400)" d="M 0 0 M141.096 1250.73 L170.772 1250.73 L170.772 1254.66 L141.096 1254.66 L141.096 1250.73 Z" fill="#000000" fill-rule="evenodd" fill-opacity="1" /><path clip-path="url(#clip400)" d="M 0 0 M195.031 1248.92 Q198.387 1249.64 200.262 1251.91 Q202.16 1254.18 202.16 1257.51 Q202.16 1262.63 198.642 1265.43 Q195.123 1268.23 188.642 1268.23 Q186.466 1268.23 184.151 1267.79 Q181.86 1267.37 179.406 1266.52 L179.406 1262 Q181.35 1263.14 183.665 1263.71 Q185.98 1264.29 188.503 1264.29 Q192.901 1264.29 195.193 1262.56 Q197.508 1260.82 197.508 1257.51 Q197.508 1254.46 195.355 1252.74 Q193.225 1251.01 189.406 1251.01 L185.378 1251.01 L185.378 1247.16 L189.591 1247.16 Q193.04 1247.16 194.869 1245.8 Q196.697 1244.41 196.697 1241.82 Q196.697 1239.15 194.799 1237.74 Q192.924 1236.31 189.406 1236.31 Q187.485 1236.31 185.285 1236.72 Q183.086 1237.14 180.448 1238.02 L180.448 1233.85 Q183.11 1233.11 185.424 1232.74 Q187.762 1232.37 189.822 1232.37 Q195.147 1232.37 198.248 1234.8 Q201.35 1237.21 201.35 1241.33 Q201.35 1244.2 199.707 1246.19 Q198.063 1248.16 195.031 1248.92 Z" fill="#000000" fill-rule="evenodd" fill-opacity="1" /><path clip-path="url(#clip400)" d="M 0 0 M221.026 1236.08 Q217.415 1236.08 215.586 1239.64 Q213.781 1243.18 213.781 1250.31 Q213.781 1257.42 215.586 1260.98 Q217.415 1264.52 221.026 1264.52 Q224.66 1264.52 226.466 1260.98 Q228.294 1257.42 228.294 1250.31 Q228.294 1243.18 226.466 1239.64 Q224.66 1236.08 221.026 1236.08 M221.026 1232.37 Q226.836 1232.37 229.892 1236.98 Q232.97 1241.56 232.97 1250.31 Q232.97 1259.04 229.892 1263.64 Q226.836 1268.23 221.026 1268.23 Q215.216 1268.23 212.137 1263.64 Q209.082 1259.04 209.082 1250.31 Q209.082 1241.56 212.137 1236.98 Q215.216 1232.37 221.026 1232.37 Z" fill="#000000" fill-rule="evenodd" fill-opacity="1" /><path clip-path="url(#clip400)" d="M 0 0 M141.096 935.331 L170.772 935.331 L170.772 939.266 L141.096 939.266 L141.096 935.331 Z" fill="#000000" fill-rule="evenodd" fill-opacity="1" /><path clip-path="url(#clip400)" d="M 0 0 M184.892 948.224 L201.211 948.224 L201.211 952.159 L179.267 952.159 L179.267 948.224 Q181.929 945.47 186.512 940.84 Q191.119 936.187 192.299 934.845 Q194.545 932.322 195.424 930.585 Q196.327 928.826 196.327 927.136 Q196.327 924.382 194.383 922.646 Q192.461 920.91 189.36 920.91 Q187.16 920.91 184.707 921.673 Q182.276 922.437 179.498 923.988 L179.498 919.266 Q182.323 918.132 184.776 917.553 Q187.23 916.974 189.267 916.974 Q194.637 916.974 197.832 919.66 Q201.026 922.345 201.026 926.835 Q201.026 928.965 200.216 930.886 Q199.429 932.785 197.322 935.377 Q196.744 936.048 193.642 939.266 Q190.54 942.46 184.892 948.224 Z" fill="#000000" fill-rule="evenodd" fill-opacity="1" /><path clip-path="url(#clip400)" d="M 0 0 M221.026 920.678 Q217.415 920.678 215.586 924.243 Q213.781 927.785 213.781 934.914 Q213.781 942.021 215.586 945.585 Q217.415 949.127 221.026 949.127 Q224.66 949.127 226.466 945.585 Q228.294 942.021 228.294 934.914 Q228.294 927.785 226.466 924.243 Q224.66 920.678 221.026 920.678 M221.026 916.974 Q226.836 916.974 229.892 921.581 Q232.97 926.164 232.97 934.914 Q232.97 943.641 229.892 948.247 Q226.836 952.831 221.026 952.831 Q215.216 952.831 212.137 948.247 Q209.082 943.641 209.082 934.914 Q209.082 926.164 212.137 921.581 Q215.216 916.974 221.026 916.974 Z" fill="#000000" fill-rule="evenodd" fill-opacity="1" /><path clip-path="url(#clip400)" d="M 0 0 M141.096 619.933 L170.772 619.933 L170.772 623.868 L141.096 623.868 L141.096 619.933 Z" fill="#000000" fill-rule="evenodd" fill-opacity="1" /><path clip-path="url(#clip400)" d="M 0 0 M181.674 632.827 L189.313 632.827 L189.313 606.461 L181.003 608.128 L181.003 603.869 L189.267 602.202 L193.943 602.202 L193.943 632.827 L201.582 632.827 L201.582 636.762 L181.674 636.762 L181.674 632.827 Z" fill="#000000" fill-rule="evenodd" fill-opacity="1" /><path clip-path="url(#clip400)" d="M 0 0 M221.026 605.281 Q217.415 605.281 215.586 608.845 Q213.781 612.387 213.781 619.517 Q213.781 626.623 215.586 630.188 Q217.415 633.729 221.026 633.729 Q224.66 633.729 226.466 630.188 Q228.294 626.623 228.294 619.517 Q228.294 612.387 226.466 608.845 Q224.66 605.281 221.026 605.281 M221.026 601.577 Q226.836 601.577 229.892 606.183 Q232.97 610.767 232.97 619.517 Q232.97 628.243 229.892 632.85 Q226.836 637.433 221.026 637.433 Q215.216 637.433 212.137 632.85 Q209.082 628.243 209.082 619.517 Q209.082 610.767 212.137 606.183 Q215.216 601.577 221.026 601.577 Z" fill="#000000" fill-rule="evenodd" fill-opacity="1" /><path clip-path="url(#clip400)" d="M 0 0 M221.026 289.883 Q217.415 289.883 215.586 293.448 Q213.781 296.989 213.781 304.119 Q213.781 311.225 215.586 314.79 Q217.415 318.332 221.026 318.332 Q224.66 318.332 226.466 314.79 Q228.294 311.225 228.294 304.119 Q228.294 296.989 226.466 293.448 Q224.66 289.883 221.026 289.883 M221.026 286.179 Q226.836 286.179 229.892 290.786 Q232.97 295.369 232.97 304.119 Q232.97 312.846 229.892 317.452 Q226.836 322.036 221.026 322.036 Q215.216 322.036 212.137 317.452 Q209.082 312.846 209.082 304.119 Q209.082 295.369 212.137 290.786 Q215.216 286.179 221.026 286.179 Z" fill="#000000" fill-rule="evenodd" fill-opacity="1" /><path clip-path="url(#clip400)" d="M 0 0 M53.7801 807.343 L70.2051 813.011 L70.2051 867.696 Q70.2051 868.437 70.1728 868.727 Q70.1406 869.017 69.9796 869.242 Q69.8186 869.468 69.4643 869.468 Q69.1745 869.468 68.4337 868.888 L39.4807 845.474 L6.37304 869.532 Q4.85936 869.532 4.56951 869.274 Q4.24745 869.017 4.24745 867.696 L4.24745 813.011 L19.6741 807.343 L19.6741 808.985 Q17.6773 809.726 16.0026 810.917 Q14.2957 812.077 13.0719 813.429 Q11.848 814.75 10.8819 816.489 Q9.88348 818.196 9.27156 819.806 Q8.62745 821.384 8.17656 823.349 Q7.69348 825.313 7.46804 826.891 Q7.21039 828.437 7.08157 830.37 Q6.95274 832.302 6.92054 833.526 Q6.88833 834.75 6.88833 836.296 L6.88833 862.415 L36.2923 840.998 Q37.033 840.515 37.2263 840.515 Q37.5161 840.515 38.289 841.126 L66.5658 863.993 L66.5658 835.974 Q66.5658 826.956 64.6656 820.676 Q63.2164 816.425 60.3501 813.333 Q57.4837 810.209 53.7801 808.985 L53.7801 807.343 Z" fill="#000000" fill-rule="evenodd" fill-opacity="1" /><path clip-path="url(#clip400)" d="M 0 0 M96.3473 878.52 Q96.9785 878.52 97.1363 878.813 Q97.2716 879.106 97.2716 879.918 L97.2716 884.246 L110.888 887.673 Q112.083 887.944 113.098 887.944 Q114.225 887.944 114.721 887.605 Q115.217 887.245 115.217 886.501 Q115.217 885.035 113.887 883.457 Q112.556 881.857 109.31 880.504 Q108.882 880.324 108.792 880.233 Q108.679 880.121 108.679 879.828 Q108.679 879.264 109.13 879.264 Q109.288 879.264 110.009 879.58 Q110.73 879.873 111.79 880.527 Q112.85 881.158 113.841 881.992 Q114.833 882.804 115.555 884.043 Q116.254 885.283 116.254 886.613 Q116.254 888.485 115.059 889.679 Q113.864 890.852 111.993 890.852 Q111.384 890.852 109.445 890.378 Q107.484 889.905 97.2716 887.335 L97.2716 891.415 Q97.2716 891.979 97.249 892.204 Q97.2265 892.407 97.1138 892.565 Q96.9785 892.7 96.708 892.7 Q96.2796 892.7 96.0993 892.52 Q95.8964 892.34 95.8738 892.114 Q95.8287 891.866 95.8287 891.303 L95.8287 886.974 L88.5019 885.171 Q87.7805 884.99 87.3747 884.539 Q86.9464 884.066 86.9013 883.795 Q86.8336 883.525 86.8336 883.322 Q86.8336 882.713 87.1718 882.353 Q87.4874 881.992 88.0736 881.992 Q88.3892 881.992 95.8287 883.886 L95.8287 879.828 Q95.8287 879.309 95.8513 879.106 Q95.8738 878.881 95.9865 878.7 Q96.0993 878.52 96.3473 878.52 Z" fill="#000000" fill-rule="evenodd" fill-opacity="1" /><path clip-path="url(#clip400)" d="M 0 0 M108.724 863.387 Q108.16 863.342 108.16 862.463 L108.16 834.17 Q108.16 832.84 108.679 832.818 Q109.242 832.818 109.22 834.08 L109.22 862.148 Q109.242 863.387 108.724 863.387 M99.7063 863.387 Q99.1427 863.387 99.1653 862.418 L99.1653 834.215 Q99.1653 832.84 99.7063 832.818 Q100.225 832.818 100.225 833.99 L100.225 862.463 Q100.225 863.387 99.7063 863.387 Z" fill="#000000" fill-rule="evenodd" fill-opacity="1" /><path clip-path="url(#clip400)" d="M 0 0 M89.3811 815.006 L87.9383 815.006 Q87.9383 809.46 84.985 806.597 Q84.985 805.808 85.1654 805.672 Q85.3457 805.537 86.1799 805.537 L112.083 805.537 Q113.458 805.537 113.887 804.861 Q114.315 804.184 114.315 801.231 L114.315 799.766 L115.735 799.766 Q115.6 801.389 115.6 807.25 Q115.6 813.112 115.735 814.713 L114.315 814.713 L114.315 813.247 Q114.315 810.339 113.909 809.64 Q113.481 808.941 112.083 808.941 L88.1637 808.941 Q89.3811 811.353 89.3811 815.006 Z" fill="#000000" fill-rule="evenodd" fill-opacity="1" /><path clip-path="url(#clip400)" d="M 0 0 M9.78686 740.238 Q10.3988 740.238 10.9141 740.367 L22.3793 742.17 Q23.2489 742.267 23.571 742.46 Q23.893 742.621 23.893 743.137 Q23.893 743.942 23.0557 743.942 Q22.5726 743.942 21.7996 743.748 Q18.1604 743.201 16.5179 743.201 Q15.4229 743.201 14.6177 743.426 Q13.7804 743.62 13.2007 743.942 Q12.621 744.232 12.2345 744.908 Q11.848 745.584 11.6226 746.228 Q11.3972 746.872 11.3005 748.032 Q11.1717 749.191 11.1395 750.19 Q11.1073 751.188 11.1073 752.83 Q11.1073 756.405 11.2361 756.985 Q11.3972 757.597 11.8802 757.919 Q12.3311 758.209 13.6838 758.531 L48.6915 767.291 L50.0764 767.549 Q50.8493 767.549 51.107 767.065 Q51.3646 766.582 51.5257 765.101 Q51.6867 762.975 51.6867 760.882 Q51.6867 760.818 51.6867 760.689 Q51.6867 759.98 51.7189 759.69 Q51.7189 759.4 51.7833 759.111 Q51.8477 758.821 52.0087 758.756 Q52.1376 758.66 52.3952 758.66 Q53.0071 758.66 53.3292 758.917 Q53.619 759.175 53.6834 759.433 Q53.7157 759.658 53.7157 760.109 Q53.7157 761.011 53.6512 762.943 Q53.5868 764.875 53.5868 765.842 L53.5224 771.317 L53.5868 776.92 Q53.5868 777.79 53.6512 779.626 Q53.7157 781.461 53.7157 782.331 Q53.7157 783.458 52.9105 783.458 Q52.0087 783.458 51.8477 783.04 Q51.6867 782.589 51.6867 780.689 Q51.6867 778.015 51.5579 776.566 Q51.429 775.117 50.9782 774.344 Q50.5273 773.539 50.0764 773.313 Q49.5933 773.088 48.4983 772.83 L13.2973 763.974 Q12.5244 763.716 11.9124 763.716 Q11.5904 763.716 11.4616 763.813 Q11.3327 763.877 11.2361 764.296 Q11.1073 764.714 11.1073 765.584 L11.1073 768.16 Q11.1073 770.801 11.2361 772.444 Q11.3327 774.054 11.8158 775.6 Q12.2989 777.114 12.9752 778.015 Q13.6516 778.885 15.0364 779.851 Q16.4213 780.817 18.096 781.526 Q19.7707 782.202 22.5082 783.168 Q23.4099 783.49 23.6676 783.684 Q23.893 783.845 23.893 784.296 Q23.893 784.618 23.6998 784.875 Q23.4743 785.101 23.1845 785.101 Q22.1217 784.779 21.9929 784.714 L10.3666 780.753 Q9.43259 780.431 9.27156 780.141 Q9.07833 779.819 9.07833 778.627 L9.07833 742.042 Q9.07833 741.462 9.07833 741.269 Q9.07833 741.075 9.14274 740.753 Q9.20715 740.431 9.36818 740.335 Q9.52921 740.238 9.78686 740.238 Z" fill="#000000" fill-rule="evenodd" fill-opacity="1" /><path clip-path="url(#clip400)" d="M 0 0 M16.619 715.262 L17.5433 715.826 Q16.0328 719.32 13.6206 723.671 Q16.0328 728.022 17.5433 731.517 L16.619 732.058 Q13.305 728.248 10.7575 723.671 Q13.3275 719.05 16.619 715.262 Z" fill="#000000" fill-rule="evenodd" fill-opacity="1" /><path clip-path="url(#clip400)" d="M 0 0 M28.9171 714.1 Q30.7207 714.1 31.7513 715.227 Q32.7496 716.355 32.7496 717.643 Q32.7496 718.867 32.0411 719.511 Q31.3326 720.155 30.4308 720.155 Q29.207 720.155 28.1442 719.253 Q27.0814 718.351 26.856 716.999 Q26.0186 718.319 26.0186 720.284 Q26.0186 721.572 26.6949 722.699 Q27.3713 723.794 28.2408 724.47 Q29.1104 725.115 30.3664 725.694 Q31.5902 726.242 32.331 726.467 Q33.0395 726.66 33.8124 726.821 L42.8301 729.076 Q47.1135 730.171 48.6271 730.171 Q50.4951 730.171 51.7511 729.269 Q52.9749 728.367 52.9749 726.564 Q52.9749 725.855 52.7817 725.05 Q52.5562 724.245 51.9765 723.214 Q51.3646 722.152 50.4629 721.218 Q49.5289 720.251 47.9508 719.318 Q46.3727 718.384 44.3437 717.772 Q43.6352 717.578 43.6352 716.934 Q43.6352 716.129 44.2793 716.129 Q44.8268 716.129 45.9862 716.58 Q47.1135 716.999 48.5949 717.933 Q50.0442 718.834 51.3646 720.026 Q52.6529 721.218 53.5546 722.989 Q54.4564 724.76 54.4564 726.693 Q54.4564 729.462 52.9749 731.298 Q51.4934 733.134 49.4323 733.81 Q49.7221 733.971 50.1086 734.197 Q50.4951 734.422 51.3646 735.098 Q52.202 735.743 52.8461 736.483 Q53.458 737.224 53.9411 738.383 Q54.4564 739.511 54.4564 740.734 Q54.4564 742.28 54.0055 743.665 Q53.5546 745.018 52.524 745.984 Q51.4934 746.95 50.0764 746.95 Q48.4983 746.95 47.4033 745.887 Q46.2761 744.792 46.2761 743.311 Q46.2761 742.377 46.8236 741.636 Q47.3711 740.863 48.5627 740.863 Q49.8832 740.863 50.8815 741.765 Q51.8799 742.667 52.1376 743.955 Q52.9749 742.635 52.9749 740.67 Q52.9749 738.544 51.107 736.87 Q49.239 735.195 46.1151 734.39 Q38.6111 732.393 35.2617 731.62 Q31.8801 730.847 30.4308 730.847 Q29.0782 730.847 28.1442 731.201 Q27.2102 731.556 26.7916 732.168 Q26.3407 732.747 26.1796 733.295 Q26.0186 733.81 26.0186 734.39 Q26.0186 735.356 26.4051 736.451 Q26.7916 737.514 27.6933 738.802 Q28.5629 740.058 30.3664 741.25 Q32.1699 742.441 34.6498 743.246 Q35.3905 743.408 35.3905 744.116 Q35.3583 744.889 34.7142 744.889 Q34.1667 744.889 33.0395 744.47 Q31.8801 744.019 30.4308 743.118 Q28.9816 742.184 27.6933 740.992 Q26.3729 739.768 25.4711 737.997 Q24.5693 736.193 24.5693 734.261 Q24.5693 733.391 24.7626 732.554 Q24.9236 731.685 25.4067 730.654 Q25.8898 729.591 26.9526 728.657 Q28.0154 727.723 29.5613 727.144 Q28.8205 726.757 28.112 726.242 Q27.4035 725.694 26.5339 724.857 Q25.6321 723.987 25.1168 722.796 Q24.5693 721.572 24.5693 720.219 Q24.5693 718.899 24.9236 717.611 Q25.2457 716.322 26.3085 715.227 Q27.3391 714.1 28.9171 714.1 Z" fill="#000000" fill-rule="evenodd" fill-opacity="1" /><path clip-path="url(#clip400)" d="M 0 0 M52.2362 688.377 Q52.8674 688.377 53.0252 688.67 Q53.1605 688.963 53.1605 689.775 L53.1605 694.103 L66.7771 697.53 Q67.9719 697.8 68.9864 697.8 Q70.1136 697.8 70.6096 697.462 Q71.1056 697.101 71.1056 696.357 Q71.1056 694.892 69.7755 693.314 Q68.4454 691.713 65.199 690.361 Q64.7707 690.18 64.6805 690.09 Q64.5678 689.977 64.5678 689.684 Q64.5678 689.121 65.0187 689.121 Q65.1765 689.121 65.8979 689.436 Q66.6193 689.729 67.6789 690.383 Q68.7384 691.014 69.7304 691.849 Q70.7223 692.66 71.4437 693.9 Q72.1426 695.14 72.1426 696.47 Q72.1426 698.341 70.9478 699.536 Q69.7529 700.708 67.8818 700.708 Q67.2731 700.708 65.3343 700.235 Q63.3729 699.762 53.1605 697.192 L53.1605 701.272 Q53.1605 701.836 53.1379 702.061 Q53.1154 702.264 53.0027 702.422 Q52.8674 702.557 52.5969 702.557 Q52.1685 702.557 51.9882 702.377 Q51.7853 702.196 51.7627 701.971 Q51.7176 701.723 51.7176 701.159 L51.7176 696.831 L44.3908 695.027 Q43.6694 694.847 43.2636 694.396 Q42.8353 693.923 42.7902 693.652 Q42.7225 693.382 42.7225 693.179 Q42.7225 692.57 43.0607 692.209 Q43.3763 691.849 43.9625 691.849 Q44.2781 691.849 51.7176 693.742 L51.7176 689.684 Q51.7176 689.166 51.7402 688.963 Q51.7627 688.737 51.8755 688.557 Q51.9882 688.377 52.2362 688.377 Z" fill="#000000" fill-rule="evenodd" fill-opacity="1" /><path clip-path="url(#clip400)" d="M 0 0 M37.2263 679.016 Q26.083 679.016 17.0976 674.861 Q13.3295 673.09 10.1733 670.61 Q7.01715 668.13 5.6323 666.488 Q4.24745 664.845 4.24745 664.394 Q4.24745 663.75 4.89157 663.718 Q5.21363 663.718 6.01877 664.588 Q16.8399 675.216 37.2263 675.183 Q57.677 675.183 68.0795 664.845 Q69.2067 663.718 69.5609 663.718 Q70.2051 663.718 70.2051 664.394 Q70.2051 664.845 68.8846 666.423 Q67.5642 668.002 64.5368 670.449 Q61.5095 672.897 57.8058 674.668 Q48.8204 679.016 37.2263 679.016 Z" fill="#000000" fill-rule="evenodd" fill-opacity="1" /><path clip-path="url(#clip400)" d="M 0 0 M17.5163 653.689 Q11.848 653.689 8.04774 650.79 Q4.24745 647.891 4.24745 643.995 Q4.24745 641.611 6.37304 639.26 Q11.4616 633.914 11.4294 626.925 Q11.4294 619.003 5.18142 614.397 Q4.24745 613.592 4.24745 613.013 Q4.24745 612.497 4.66613 612.111 Q5.0526 611.692 5.56789 611.692 Q5.95436 611.692 6.75951 612.207 L56.4209 645.573 Q57.4193 646.313 57.4193 646.893 Q57.4193 647.408 57.0007 647.827 Q56.6142 648.214 56.0989 648.214 Q55.648 648.214 54.7784 647.634 L10.6564 618.004 L10.592 618.069 Q12.9108 621.483 12.8786 626.861 Q12.8786 631.95 10.1089 636.813 Q13.5227 635.428 17.5807 635.428 Q23.1201 635.428 26.9848 637.908 Q30.8173 640.388 30.8173 643.995 Q30.8173 647.891 27.0814 650.79 Q23.3133 653.689 17.5163 653.689 M12.1379 649.147 Q14.4567 649.598 17.5807 649.598 Q20.6724 649.598 22.9913 649.147 Q25.2779 648.697 26.4695 648.053 Q27.6611 647.376 28.3696 646.474 Q29.046 645.573 29.207 645.025 Q29.368 644.478 29.368 643.93 Q29.368 641.225 26.0186 639.164 Q22.637 637.07 17.5163 637.07 Q12.4921 637.07 9.11053 639.164 Q5.69671 641.225 5.69671 643.93 Q5.69671 644.51 5.85774 645.09 Q6.01877 645.637 6.7273 646.507 Q7.40362 647.376 8.59524 648.053 Q9.78686 648.697 12.1379 649.147 M44.0861 624.478 Q38.4179 624.478 34.6176 621.579 Q30.8173 618.681 30.8173 614.784 Q30.8173 611.209 34.682 608.729 Q38.5467 606.217 44.1505 606.217 Q49.6899 606.217 53.5546 608.697 Q57.4193 611.145 57.4193 614.784 Q57.4193 618.681 53.6512 621.579 Q49.8832 624.478 44.0861 624.478 M38.7077 619.937 Q41.0587 620.388 44.1505 620.388 Q47.2423 620.388 49.5611 619.937 Q51.8799 619.454 53.0715 618.81 Q54.2309 618.133 54.9073 617.264 Q55.6158 616.362 55.7768 615.814 Q55.9701 615.235 55.9701 614.719 Q55.9701 612.014 52.6207 609.953 Q49.239 607.86 44.0861 607.86 Q39.062 607.86 35.6804 609.953 Q32.2665 612.014 32.2665 614.719 Q32.2665 615.299 32.4598 615.879 Q32.6208 616.426 33.3293 617.296 Q34.0057 618.133 35.1973 618.81 Q36.3567 619.454 38.7077 619.937 Z" fill="#000000" fill-rule="evenodd" fill-opacity="1" /><path clip-path="url(#clip400)" d="M 0 0 M69.5609 599.302 Q69.2389 599.302 68.4337 598.464 Q57.6126 587.836 37.2263 587.836 Q16.7755 587.836 6.43745 598.046 Q5.24583 599.302 4.89157 599.302 Q4.24745 599.302 4.24745 598.657 Q4.24745 598.207 5.56789 596.629 Q6.88833 595.018 9.91568 592.603 Q12.943 590.155 16.6467 588.352 Q25.6321 584.004 37.2263 584.004 Q48.3695 584.004 57.3549 588.158 Q61.123 589.93 64.2792 592.41 Q67.4353 594.889 68.8202 596.532 Q70.2051 598.174 70.2051 598.657 Q70.2051 599.302 69.5609 599.302 Z" fill="#000000" fill-rule="evenodd" fill-opacity="1" /><polyline clip-path="url(#clip402)" style="stroke:#0000ff; stroke-width:4; stroke-opacity:1; fill:none" points="
  327.945,355.738 546.372,348.112 764.798,342.591 983.224,337.539 1201.65,332.669 1420.08,327.865 1638.5,323.067 1856.93,318.239 2075.35,313.356 2293.78,308.403 
  
  "/>
<polyline clip-path="url(#clip402)" style="stroke:#3300cc; stroke-width:4; stroke-opacity:1; fill:none" points="
  327.945,1400.1 546.372,1376.1 764.798,1345 983.224,1314.65 1201.65,1284.63 1420.08,1254.67 1638.5,1224.56 1856.93,1194.18 2075.35,1163.42 2293.78,1132.22 
  
  "/>
<polyline clip-path="url(#clip402)" style="stroke:#660099; stroke-width:4; stroke-opacity:1; fill:none" points="
  327.945,296.498 546.372,288.686 764.798,284.073 983.224,280.311 1201.65,277.009 1420.08,274.012 1638.5,271.241 1856.93,268.651 2075.35,266.219 2293.78,263.93 
  
  "/>
<polyline clip-path="url(#clip402)" style="stroke:#990066; stroke-width:4; stroke-opacity:1; fill:none" points="
  327.945,807.059 546.372,737.203 764.798,683.167 983.224,636.214 1201.65,593.888 1420.08,555.145 1638.5,519.373 1856.93,486.148 2075.35,455.15 2293.78,426.112 
  
  "/>
<polyline clip-path="url(#clip402)" style="stroke:#cc0033; stroke-width:4; stroke-opacity:1; fill:none" points="
  327.945,274.156 546.372,268.647 764.798,265.555 983.224,263.137 1201.65,261.106 1420.08,259.345 1638.5,257.79 1856.93,256.4 2075.35,255.147 2293.78,254.007 
  
  "/>
<polyline clip-path="url(#clip402)" style="stroke:#ff0000; stroke-width:4; stroke-opacity:1; fill:none" points="
  327.945,359.032 546.372,299.847 764.798,258.055 983.224,223.57 1201.65,193.867 1420.08,167.724 1638.5,144.388 1856.93,123.337 2075.35,104.188 2293.78,86.6476 
  
  "/>
<path clip-path="url(#clip400)" d="
M1741.3 464.093 L2283.3 464.093 L2283.3 93.6527 L1741.3 93.6527  Z
  " fill="#ffffff" fill-rule="evenodd" fill-opacity="1"/>
<polyline clip-path="url(#clip400)" style="stroke:#000000; stroke-width:4; stroke-opacity:1; fill:none" points="
  1741.3,464.093 2283.3,464.093 2283.3,93.6527 1741.3,93.6527 1741.3,464.093 
  "/>
<polyline clip-path="url(#clip400)" style="stroke:#0000ff; stroke-width:3.5; stroke-opacity:1; fill:none" points="
  1764.46,146.573 1903.38,146.573 
  "/>
<path clip-path="url(#clip400)" d="M 0 0 M1955.08 128.673 Q1955.08 129.062 1955 129.39 L1953.85 136.686 Q1953.79 137.239 1953.66 137.444 Q1953.56 137.649 1953.23 137.649 Q1952.72 137.649 1952.72 137.116 Q1952.72 136.809 1952.84 136.317 Q1953.19 134.001 1953.19 132.956 Q1953.19 132.259 1953.05 131.747 Q1952.93 131.214 1952.72 130.845 Q1952.54 130.476 1952.11 130.23 Q1951.68 129.984 1951.27 129.841 Q1950.86 129.697 1950.12 129.636 Q1949.38 129.554 1948.75 129.533 Q1948.11 129.513 1947.07 129.513 Q1944.79 129.513 1944.42 129.595 Q1944.03 129.697 1943.83 130.005 Q1943.64 130.292 1943.44 131.153 L1937.86 153.43 L1937.7 154.311 Q1937.7 154.803 1938.01 154.967 Q1938.31 155.131 1939.26 155.234 Q1940.61 155.336 1941.94 155.336 Q1941.98 155.336 1942.06 155.336 Q1942.52 155.336 1942.7 155.357 Q1942.88 155.357 1943.07 155.398 Q1943.25 155.439 1943.29 155.541 Q1943.36 155.623 1943.36 155.787 Q1943.36 156.176 1943.19 156.381 Q1943.03 156.566 1942.86 156.607 Q1942.72 156.627 1942.43 156.627 Q1941.86 156.627 1940.63 156.586 Q1939.4 156.545 1938.79 156.545 L1935.3 156.504 L1931.74 156.545 Q1931.18 156.545 1930.01 156.586 Q1928.85 156.627 1928.29 156.627 Q1927.58 156.627 1927.58 156.115 Q1927.58 155.541 1927.84 155.439 Q1928.13 155.336 1929.34 155.336 Q1931.04 155.336 1931.96 155.254 Q1932.88 155.172 1933.38 154.885 Q1933.89 154.598 1934.03 154.311 Q1934.17 154.004 1934.34 153.307 L1939.97 130.907 Q1940.14 130.415 1940.14 130.025 Q1940.14 129.82 1940.08 129.738 Q1940.04 129.656 1939.77 129.595 Q1939.5 129.513 1938.95 129.513 L1937.31 129.513 Q1935.63 129.513 1934.58 129.595 Q1933.56 129.656 1932.58 129.964 Q1931.61 130.271 1931.04 130.702 Q1930.49 131.132 1929.87 132.013 Q1929.26 132.895 1928.8 133.96 Q1928.37 135.026 1927.76 136.768 Q1927.55 137.342 1927.43 137.506 Q1927.33 137.649 1927.04 137.649 Q1926.84 137.649 1926.67 137.526 Q1926.53 137.383 1926.53 137.198 Q1926.73 136.522 1926.78 136.44 L1929.3 129.042 Q1929.5 128.447 1929.69 128.345 Q1929.89 128.222 1930.65 128.222 L1953.93 128.222 Q1954.3 128.222 1954.42 128.222 Q1954.55 128.222 1954.75 128.263 Q1954.96 128.304 1955.02 128.406 Q1955.08 128.509 1955.08 128.673 Z" fill="#000000" fill-rule="evenodd" fill-opacity="1" /><path clip-path="url(#clip400)" d="M 0 0 M1962.45 150.254 Q1962.49 149.741 1963.29 149.741 L1989.01 149.741 Q1990.22 149.741 1990.24 150.213 Q1990.24 150.725 1989.09 150.704 L1963.57 150.704 Q1962.45 150.725 1962.45 150.254 M1962.45 142.056 Q1962.45 141.543 1963.33 141.564 L1988.97 141.564 Q1990.22 141.564 1990.24 142.056 Q1990.24 142.527 1989.17 142.527 L1963.29 142.527 Q1962.45 142.527 1962.45 142.056 Z" fill="#000000" fill-rule="evenodd" fill-opacity="1" /><path clip-path="url(#clip400)" d="M 0 0 M2006.42 132.669 L2006.42 131.357 Q2011.46 131.357 2014.07 128.673 Q2014.78 128.673 2014.91 128.837 Q2015.03 129.001 2015.03 129.759 L2015.03 153.307 Q2015.03 154.557 2015.64 154.947 Q2016.26 155.336 2018.94 155.336 L2020.28 155.336 L2020.28 156.627 Q2018.8 156.504 2013.47 156.504 Q2008.14 156.504 2006.69 156.627 L2006.69 155.336 L2008.02 155.336 Q2010.66 155.336 2011.3 154.967 Q2011.93 154.578 2011.93 153.307 L2011.93 131.562 Q2009.74 132.669 2006.42 132.669 Z" fill="#000000" fill-rule="evenodd" fill-opacity="1" /><path clip-path="url(#clip400)" d="M 0 0 M2023.59 155.951 Q2022.95 155.275 2022.95 154.393 Q2022.95 153.512 2023.59 152.877 Q2024.22 152.221 2025.19 152.221 Q2026.11 152.221 2026.72 152.836 Q2027.36 153.43 2027.36 154.414 Q2027.36 155.377 2026.68 156.013 Q2026.03 156.627 2025.19 156.627 Q2024.22 156.627 2023.59 155.951 Z" fill="#000000" fill-rule="evenodd" fill-opacity="1" /><path clip-path="url(#clip400)" d="M 0 0 M2034.5 143.203 Q2034.5 137.035 2036.06 133.673 Q2038.23 128.673 2043.35 128.673 Q2044.44 128.673 2045.57 128.98 Q2046.72 129.267 2048.15 130.394 Q2049.6 131.521 2050.49 133.366 Q2052.17 136.932 2052.17 143.203 Q2052.17 149.331 2050.61 152.672 Q2048.33 157.55 2043.31 157.55 Q2041.43 157.55 2039.5 156.586 Q2037.6 155.623 2036.39 153.307 Q2034.5 149.844 2034.5 143.203 M2037.98 142.691 Q2037.98 149.024 2038.44 151.545 Q2038.95 154.27 2040.34 155.459 Q2041.76 156.627 2043.31 156.627 Q2044.99 156.627 2046.39 155.377 Q2047.8 154.107 2048.23 151.381 Q2048.7 148.696 2048.68 142.691 Q2048.68 136.85 2048.27 134.514 Q2047.72 131.788 2046.24 130.702 Q2044.79 129.595 2043.31 129.595 Q2042.76 129.595 2042.17 129.759 Q2041.59 129.923 2040.75 130.394 Q2039.91 130.866 2039.26 132.034 Q2038.62 133.202 2038.31 134.965 Q2037.98 137.239 2037.98 142.691 Z" fill="#000000" fill-rule="evenodd" fill-opacity="1" /><path clip-path="url(#clip400)" d="M 0 0 M2055.88 155.951 Q2055.28 155.275 2055.28 154.393 Q2055.28 153.512 2055.86 152.856 Q2056.45 152.18 2057.52 152.18 Q2058.77 152.18 2059.48 153.389 Q2060.2 154.578 2060.2 156.586 Q2060.2 158.759 2059.32 160.767 Q2058.44 162.796 2057.58 163.76 Q2056.72 164.723 2056.37 164.723 Q2055.96 164.723 2055.96 164.272 Q2055.96 164.108 2056.24 163.801 Q2059.26 160.562 2059.28 156.586 Q2059.28 155.951 2059.2 155.951 L2059.09 156.033 Q2058.38 156.627 2057.52 156.627 Q2056.47 156.627 2055.88 155.951 Z" fill="#000000" fill-rule="evenodd" fill-opacity="1" /><path clip-path="url(#clip400)" d="M 0 0 M2094.04 150.622 Q2093.53 153.143 2092.48 154.906 Q2091.19 157.099 2089.22 157.099 Q2087.56 157.099 2086.46 155.951 Q2085.35 154.783 2085.35 152.938 Q2085.35 152.385 2085.58 151.463 Q2085.66 151.053 2085.66 150.54 Q2085.66 147.22 2078.46 146.974 Q2077.87 149.331 2077.46 150.93 Q2077.07 152.508 2076.95 152.979 Q2076.82 153.451 2076.72 153.84 Q2076.64 154.23 2076.5 154.742 Q2076.29 155.582 2076.15 155.992 Q2076 156.402 2075.62 156.75 Q2075.25 157.099 2074.65 157.099 Q2074.14 157.099 2073.79 156.791 Q2073.44 156.484 2073.44 155.951 Q2073.44 155.582 2073.61 154.988 L2077.46 139.596 Q2077.56 139.166 2077.77 138.859 Q2077.97 138.551 2078.16 138.408 Q2078.36 138.264 2078.61 138.182 Q2078.85 138.1 2078.96 138.1 Q2079.06 138.08 2079.14 138.08 Q2079.69 138.08 2080.02 138.387 Q2080.37 138.674 2080.37 139.207 Q2080.37 139.289 2080.23 139.863 Q2080.1 140.416 2079.9 141.256 Q2079.69 142.097 2079.61 142.486 L2078.77 145.765 Q2079.94 145.376 2080.99 144.679 Q2082.05 143.982 2084.14 142.179 Q2085.1 141.379 2085.68 140.928 Q2086.27 140.457 2087.26 139.822 Q2088.24 139.166 2089.18 138.859 Q2090.13 138.531 2091.03 138.531 Q2091.72 138.531 2092.13 138.859 Q2092.54 139.166 2092.63 139.453 Q2092.71 139.719 2092.71 140.006 Q2092.71 140.847 2092.05 141.564 Q2091.4 142.281 2090.43 142.281 Q2089.57 142.281 2089.2 141.81 Q2088.83 141.338 2088.83 140.806 Q2088.83 140.396 2089.04 139.883 Q2087.89 140.375 2086.91 141.092 Q2085.92 141.789 2084.22 143.244 Q2081.8 145.314 2080.37 146.093 Q2081.19 146.114 2081.8 146.175 Q2082.44 146.216 2083.51 146.36 Q2084.57 146.503 2085.35 146.81 Q2086.13 147.097 2086.89 147.548 Q2087.67 147.999 2088.08 148.737 Q2088.51 149.475 2088.51 150.418 Q2088.51 150.868 2088.3 151.791 Q2087.95 153.307 2087.95 154.148 Q2087.95 155.213 2088.28 155.685 Q2088.63 156.156 2089.31 156.156 Q2090.6 156.156 2091.42 154.824 Q2092.26 153.471 2092.95 150.971 Q2093.06 150.499 2093.16 150.356 Q2093.26 150.213 2093.55 150.213 Q2094.04 150.213 2094.04 150.622 Z" fill="#000000" fill-rule="evenodd" fill-opacity="1" /><path clip-path="url(#clip400)" d="M 0 0 M2109.02 150.254 Q2109.06 149.741 2109.86 149.741 L2135.58 149.741 Q2136.79 149.741 2136.81 150.213 Q2136.81 150.725 2135.66 150.704 L2110.14 150.704 Q2109.02 150.725 2109.02 150.254 M2109.02 142.056 Q2109.02 141.543 2109.9 141.564 L2135.54 141.564 Q2136.79 141.564 2136.81 142.056 Q2136.81 142.527 2135.74 142.527 L2109.86 142.527 Q2109.02 142.527 2109.02 142.056 Z" fill="#000000" fill-rule="evenodd" fill-opacity="1" /><path clip-path="url(#clip400)" d="M 0 0 M2152.99 132.669 L2152.99 131.357 Q2158.03 131.357 2160.63 128.673 Q2161.35 128.673 2161.47 128.837 Q2161.6 129.001 2161.6 129.759 L2161.6 153.307 Q2161.6 154.557 2162.21 154.947 Q2162.83 155.336 2165.51 155.336 L2166.84 155.336 L2166.84 156.627 Q2165.37 156.504 2160.04 156.504 Q2154.71 156.504 2153.26 156.627 L2153.26 155.336 L2154.59 155.336 Q2157.23 155.336 2157.87 154.967 Q2158.5 154.578 2158.5 153.307 L2158.5 131.562 Q2156.31 132.669 2152.99 132.669 Z" fill="#000000" fill-rule="evenodd" fill-opacity="1" /><polyline clip-path="url(#clip400)" style="stroke:#3300cc; stroke-width:3.5; stroke-opacity:1; fill:none" points="
  1764.46,199.493 1903.38,199.493 
  "/>
<path clip-path="url(#clip400)" d="M 0 0 M1955.08 181.593 Q1955.08 181.982 1955 182.31 L1953.85 189.606 Q1953.79 190.159 1953.66 190.364 Q1953.56 190.569 1953.23 190.569 Q1952.72 190.569 1952.72 190.036 Q1952.72 189.729 1952.84 189.237 Q1953.19 186.921 1953.19 185.876 Q1953.19 185.179 1953.05 184.667 Q1952.93 184.134 1952.72 183.765 Q1952.54 183.396 1952.11 183.15 Q1951.68 182.904 1951.27 182.761 Q1950.86 182.617 1950.12 182.556 Q1949.38 182.474 1948.75 182.453 Q1948.11 182.433 1947.07 182.433 Q1944.79 182.433 1944.42 182.515 Q1944.03 182.617 1943.83 182.925 Q1943.64 183.212 1943.44 184.073 L1937.86 206.35 L1937.7 207.231 Q1937.7 207.723 1938.01 207.887 Q1938.31 208.051 1939.26 208.154 Q1940.61 208.256 1941.94 208.256 Q1941.98 208.256 1942.06 208.256 Q1942.52 208.256 1942.7 208.277 Q1942.88 208.277 1943.07 208.318 Q1943.25 208.359 1943.29 208.461 Q1943.36 208.543 1943.36 208.707 Q1943.36 209.096 1943.19 209.301 Q1943.03 209.486 1942.86 209.527 Q1942.72 209.547 1942.43 209.547 Q1941.86 209.547 1940.63 209.506 Q1939.4 209.465 1938.79 209.465 L1935.3 209.424 L1931.74 209.465 Q1931.18 209.465 1930.01 209.506 Q1928.85 209.547 1928.29 209.547 Q1927.58 209.547 1927.58 209.035 Q1927.58 208.461 1927.84 208.359 Q1928.13 208.256 1929.34 208.256 Q1931.04 208.256 1931.96 208.174 Q1932.88 208.092 1933.38 207.805 Q1933.89 207.518 1934.03 207.231 Q1934.17 206.924 1934.34 206.227 L1939.97 183.827 Q1940.14 183.335 1940.14 182.945 Q1940.14 182.74 1940.08 182.658 Q1940.04 182.576 1939.77 182.515 Q1939.5 182.433 1938.95 182.433 L1937.31 182.433 Q1935.63 182.433 1934.58 182.515 Q1933.56 182.576 1932.58 182.884 Q1931.61 183.191 1931.04 183.622 Q1930.49 184.052 1929.87 184.933 Q1929.26 185.815 1928.8 186.88 Q1928.37 187.946 1927.76 189.688 Q1927.55 190.262 1927.43 190.426 Q1927.33 190.569 1927.04 190.569 Q1926.84 190.569 1926.67 190.446 Q1926.53 190.303 1926.53 190.118 Q1926.73 189.442 1926.78 189.36 L1929.3 181.962 Q1929.5 181.367 1929.69 181.265 Q1929.89 181.142 1930.65 181.142 L1953.93 181.142 Q1954.3 181.142 1954.42 181.142 Q1954.55 181.142 1954.75 181.183 Q1954.96 181.224 1955.02 181.326 Q1955.08 181.429 1955.08 181.593 Z" fill="#000000" fill-rule="evenodd" fill-opacity="1" /><path clip-path="url(#clip400)" d="M 0 0 M1962.45 203.174 Q1962.49 202.661 1963.29 202.661 L1989.01 202.661 Q1990.22 202.661 1990.24 203.133 Q1990.24 203.645 1989.09 203.624 L1963.57 203.624 Q1962.45 203.645 1962.45 203.174 M1962.45 194.976 Q1962.45 194.463 1963.33 194.484 L1988.97 194.484 Q1990.22 194.484 1990.24 194.976 Q1990.24 195.447 1989.17 195.447 L1963.29 195.447 Q1962.45 195.447 1962.45 194.976 Z" fill="#000000" fill-rule="evenodd" fill-opacity="1" /><path clip-path="url(#clip400)" d="M 0 0 M2006.42 203.891 Q2006.42 202.641 2007.14 202.046 Q2007.86 201.452 2008.78 201.452 Q2009.74 201.452 2010.42 202.087 Q2011.12 202.702 2011.12 203.788 Q2011.12 204.957 2010.3 205.612 Q2009.5 206.268 2008.35 206.104 Q2009.35 207.785 2011.2 208.543 Q2013.06 209.301 2014.78 209.301 Q2016.59 209.301 2018.04 207.744 Q2019.52 206.186 2019.52 202.374 Q2019.52 199.136 2018.25 197.271 Q2017 195.406 2014.52 195.406 L2012.67 195.406 Q2012.04 195.406 2011.85 195.345 Q2011.67 195.283 2011.67 194.935 Q2011.67 194.525 2012.3 194.443 Q2012.94 194.443 2013.94 194.32 Q2016.38 194.238 2017.67 192.127 Q2018.84 190.159 2018.84 187.352 Q2018.84 184.79 2017.61 183.724 Q2016.4 182.638 2014.82 182.638 Q2013.35 182.638 2011.73 183.253 Q2010.11 183.868 2009.23 185.241 Q2011.83 185.241 2011.83 187.352 Q2011.83 188.274 2011.24 188.889 Q2010.66 189.483 2009.7 189.483 Q2008.78 189.483 2008.16 188.909 Q2007.55 188.315 2007.55 187.311 Q2007.55 184.913 2009.68 183.253 Q2011.83 181.593 2014.99 181.593 Q2018.1 181.593 2020.4 183.232 Q2022.71 184.872 2022.71 187.393 Q2022.71 189.873 2021.08 191.901 Q2019.44 193.93 2016.83 194.771 Q2020.03 195.406 2021.94 197.579 Q2023.84 199.73 2023.84 202.374 Q2023.84 205.653 2021.26 208.072 Q2018.68 210.47 2014.91 210.47 Q2011.42 210.47 2008.92 208.584 Q2006.42 206.699 2006.42 203.891 Z" fill="#000000" fill-rule="evenodd" fill-opacity="1" /><path clip-path="url(#clip400)" d="M 0 0 M2027.2 196.123 Q2027.2 189.955 2028.76 186.593 Q2030.93 181.593 2036.06 181.593 Q2037.14 181.593 2038.27 181.9 Q2039.42 182.187 2040.85 183.314 Q2042.31 184.441 2043.19 186.286 Q2044.87 189.852 2044.87 196.123 Q2044.87 202.251 2043.31 205.592 Q2041.04 210.47 2036.02 210.47 Q2034.13 210.47 2032.2 209.506 Q2030.3 208.543 2029.09 206.227 Q2027.2 202.764 2027.2 196.123 M2030.69 195.611 Q2030.69 201.944 2031.14 204.465 Q2031.65 207.19 2033.04 208.379 Q2034.46 209.547 2036.02 209.547 Q2037.7 209.547 2039.09 208.297 Q2040.5 207.027 2040.93 204.301 Q2041.41 201.616 2041.39 195.611 Q2041.39 189.77 2040.98 187.434 Q2040.42 184.708 2038.95 183.622 Q2037.49 182.515 2036.02 182.515 Q2035.46 182.515 2034.87 182.679 Q2034.29 182.843 2033.45 183.314 Q2032.61 183.786 2031.96 184.954 Q2031.32 186.122 2031.01 187.885 Q2030.69 190.159 2030.69 195.611 Z" fill="#000000" fill-rule="evenodd" fill-opacity="1" /><path clip-path="url(#clip400)" d="M 0 0 M2048.62 208.871 Q2047.98 208.195 2047.98 207.313 Q2047.98 206.432 2048.62 205.797 Q2049.25 205.141 2050.22 205.141 Q2051.14 205.141 2051.76 205.756 Q2052.39 206.35 2052.39 207.334 Q2052.39 208.297 2051.71 208.933 Q2051.06 209.547 2050.22 209.547 Q2049.25 209.547 2048.62 208.871 Z" fill="#000000" fill-rule="evenodd" fill-opacity="1" /><path clip-path="url(#clip400)" d="M 0 0 M2059.53 196.123 Q2059.53 189.955 2061.09 186.593 Q2063.26 181.593 2068.39 181.593 Q2069.47 181.593 2070.6 181.9 Q2071.75 182.187 2073.18 183.314 Q2074.64 184.441 2075.52 186.286 Q2077.2 189.852 2077.2 196.123 Q2077.2 202.251 2075.64 205.592 Q2073.37 210.47 2068.34 210.47 Q2066.46 210.47 2064.53 209.506 Q2062.63 208.543 2061.42 206.227 Q2059.53 202.764 2059.53 196.123 M2063.02 195.611 Q2063.02 201.944 2063.47 204.465 Q2063.98 207.19 2065.37 208.379 Q2066.79 209.547 2068.34 209.547 Q2070.02 209.547 2071.42 208.297 Q2072.83 207.027 2073.26 204.301 Q2073.73 201.616 2073.71 195.611 Q2073.71 189.77 2073.3 187.434 Q2072.75 184.708 2071.28 183.622 Q2069.82 182.515 2068.34 182.515 Q2067.79 182.515 2067.2 182.679 Q2066.62 182.843 2065.78 183.314 Q2064.94 183.786 2064.29 184.954 Q2063.65 186.122 2063.34 187.885 Q2063.02 190.159 2063.02 195.611 Z" fill="#000000" fill-rule="evenodd" fill-opacity="1" /><path clip-path="url(#clip400)" d="M 0 0 M2080.91 208.871 Q2080.31 208.195 2080.31 207.313 Q2080.31 206.432 2080.89 205.776 Q2081.48 205.1 2082.55 205.1 Q2083.8 205.1 2084.51 206.309 Q2085.23 207.498 2085.23 209.506 Q2085.23 211.679 2084.35 213.687 Q2083.47 215.716 2082.61 216.68 Q2081.75 217.643 2081.4 217.643 Q2080.99 217.643 2080.99 217.192 Q2080.99 217.028 2081.28 216.721 Q2084.29 213.482 2084.31 209.506 Q2084.31 208.871 2084.23 208.871 L2084.12 208.953 Q2083.41 209.547 2082.55 209.547 Q2081.5 209.547 2080.91 208.871 Z" fill="#000000" fill-rule="evenodd" fill-opacity="1" /><path clip-path="url(#clip400)" d="M 0 0 M2119.07 203.542 Q2118.56 206.063 2117.51 207.826 Q2116.22 210.019 2114.26 210.019 Q2112.6 210.019 2111.49 208.871 Q2110.38 207.703 2110.38 205.858 Q2110.38 205.305 2110.61 204.383 Q2110.69 203.973 2110.69 203.46 Q2110.69 200.14 2103.5 199.894 Q2102.9 202.251 2102.49 203.85 Q2102.1 205.428 2101.98 205.899 Q2101.86 206.371 2101.75 206.76 Q2101.67 207.15 2101.53 207.662 Q2101.32 208.502 2101.18 208.912 Q2101.04 209.322 2100.65 209.67 Q2100.28 210.019 2099.68 210.019 Q2099.17 210.019 2098.82 209.711 Q2098.47 209.404 2098.47 208.871 Q2098.47 208.502 2098.64 207.908 L2102.49 192.516 Q2102.59 192.086 2102.8 191.779 Q2103 191.471 2103.19 191.328 Q2103.39 191.184 2103.64 191.102 Q2103.88 191.02 2103.99 191.02 Q2104.09 191 2104.17 191 Q2104.73 191 2105.05 191.307 Q2105.4 191.594 2105.4 192.127 Q2105.4 192.209 2105.26 192.783 Q2105.14 193.336 2104.93 194.176 Q2104.73 195.017 2104.64 195.406 L2103.8 198.685 Q2104.97 198.296 2106.02 197.599 Q2107.08 196.902 2109.17 195.099 Q2110.14 194.299 2110.71 193.848 Q2111.3 193.377 2112.29 192.742 Q2113.27 192.086 2114.21 191.779 Q2115.16 191.451 2116.06 191.451 Q2116.76 191.451 2117.17 191.779 Q2117.58 192.086 2117.66 192.373 Q2117.74 192.639 2117.74 192.926 Q2117.74 193.767 2117.08 194.484 Q2116.43 195.201 2115.46 195.201 Q2114.6 195.201 2114.23 194.73 Q2113.87 194.258 2113.87 193.726 Q2113.87 193.316 2114.07 192.803 Q2112.92 193.295 2111.94 194.012 Q2110.96 194.709 2109.25 196.164 Q2106.84 198.234 2105.4 199.013 Q2106.22 199.034 2106.84 199.095 Q2107.47 199.136 2108.54 199.28 Q2109.6 199.423 2110.38 199.73 Q2111.16 200.017 2111.92 200.468 Q2112.7 200.919 2113.11 201.657 Q2113.54 202.395 2113.54 203.338 Q2113.54 203.788 2113.33 204.711 Q2112.98 206.227 2112.98 207.068 Q2112.98 208.133 2113.31 208.605 Q2113.66 209.076 2114.34 209.076 Q2115.63 209.076 2116.45 207.744 Q2117.29 206.391 2117.99 203.891 Q2118.09 203.419 2118.19 203.276 Q2118.29 203.133 2118.58 203.133 Q2119.07 203.133 2119.07 203.542 Z" fill="#000000" fill-rule="evenodd" fill-opacity="1" /><path clip-path="url(#clip400)" d="M 0 0 M2134.05 203.174 Q2134.09 202.661 2134.89 202.661 L2160.61 202.661 Q2161.82 202.661 2161.84 203.133 Q2161.84 203.645 2160.69 203.624 L2135.17 203.624 Q2134.05 203.645 2134.05 203.174 M2134.05 194.976 Q2134.05 194.463 2134.93 194.484 L2160.57 194.484 Q2161.82 194.484 2161.84 194.976 Q2161.84 195.447 2160.77 195.447 L2134.89 195.447 Q2134.05 195.447 2134.05 194.976 Z" fill="#000000" fill-rule="evenodd" fill-opacity="1" /><path clip-path="url(#clip400)" d="M 0 0 M2178.02 185.589 L2178.02 184.277 Q2183.06 184.277 2185.67 181.593 Q2186.38 181.593 2186.51 181.757 Q2186.63 181.921 2186.63 182.679 L2186.63 206.227 Q2186.63 207.477 2187.24 207.867 Q2187.86 208.256 2190.54 208.256 L2191.88 208.256 L2191.88 209.547 Q2190.4 209.424 2185.07 209.424 Q2179.74 209.424 2178.29 209.547 L2178.29 208.256 L2179.62 208.256 Q2182.26 208.256 2182.9 207.887 Q2183.53 207.498 2183.53 206.227 L2183.53 184.482 Q2181.34 185.589 2178.02 185.589 Z" fill="#000000" fill-rule="evenodd" fill-opacity="1" /><polyline clip-path="url(#clip400)" style="stroke:#660099; stroke-width:3.5; stroke-opacity:1; fill:none" points="
  1764.46,252.413 1903.38,252.413 
  "/>
<path clip-path="url(#clip400)" d="M 0 0 M1955.08 234.513 Q1955.08 234.902 1955 235.23 L1953.85 242.526 Q1953.79 243.079 1953.66 243.284 Q1953.56 243.489 1953.23 243.489 Q1952.72 243.489 1952.72 242.956 Q1952.72 242.649 1952.84 242.157 Q1953.19 239.841 1953.19 238.796 Q1953.19 238.099 1953.05 237.587 Q1952.93 237.054 1952.72 236.685 Q1952.54 236.316 1952.11 236.07 Q1951.68 235.824 1951.27 235.681 Q1950.86 235.537 1950.12 235.476 Q1949.38 235.394 1948.75 235.373 Q1948.11 235.353 1947.07 235.353 Q1944.79 235.353 1944.42 235.435 Q1944.03 235.537 1943.83 235.845 Q1943.64 236.132 1943.44 236.993 L1937.86 259.27 L1937.7 260.151 Q1937.7 260.643 1938.01 260.807 Q1938.31 260.971 1939.26 261.074 Q1940.61 261.176 1941.94 261.176 Q1941.98 261.176 1942.06 261.176 Q1942.52 261.176 1942.7 261.197 Q1942.88 261.197 1943.07 261.238 Q1943.25 261.279 1943.29 261.381 Q1943.36 261.463 1943.36 261.627 Q1943.36 262.016 1943.19 262.221 Q1943.03 262.406 1942.86 262.447 Q1942.72 262.467 1942.43 262.467 Q1941.86 262.467 1940.63 262.426 Q1939.4 262.385 1938.79 262.385 L1935.3 262.344 L1931.74 262.385 Q1931.18 262.385 1930.01 262.426 Q1928.85 262.467 1928.29 262.467 Q1927.58 262.467 1927.58 261.955 Q1927.58 261.381 1927.84 261.279 Q1928.13 261.176 1929.34 261.176 Q1931.04 261.176 1931.96 261.094 Q1932.88 261.012 1933.38 260.725 Q1933.89 260.438 1934.03 260.151 Q1934.17 259.844 1934.34 259.147 L1939.97 236.747 Q1940.14 236.255 1940.14 235.865 Q1940.14 235.66 1940.08 235.578 Q1940.04 235.496 1939.77 235.435 Q1939.5 235.353 1938.95 235.353 L1937.31 235.353 Q1935.63 235.353 1934.58 235.435 Q1933.56 235.496 1932.58 235.804 Q1931.61 236.111 1931.04 236.542 Q1930.49 236.972 1929.87 237.853 Q1929.26 238.735 1928.8 239.8 Q1928.37 240.866 1927.76 242.608 Q1927.55 243.182 1927.43 243.346 Q1927.33 243.489 1927.04 243.489 Q1926.84 243.489 1926.67 243.366 Q1926.53 243.223 1926.53 243.038 Q1926.73 242.362 1926.78 242.28 L1929.3 234.882 Q1929.5 234.287 1929.69 234.185 Q1929.89 234.062 1930.65 234.062 L1953.93 234.062 Q1954.3 234.062 1954.42 234.062 Q1954.55 234.062 1954.75 234.103 Q1954.96 234.144 1955.02 234.246 Q1955.08 234.349 1955.08 234.513 Z" fill="#000000" fill-rule="evenodd" fill-opacity="1" /><path clip-path="url(#clip400)" d="M 0 0 M1962.45 256.094 Q1962.49 255.581 1963.29 255.581 L1989.01 255.581 Q1990.22 255.581 1990.24 256.053 Q1990.24 256.565 1989.09 256.544 L1963.57 256.544 Q1962.45 256.565 1962.45 256.094 M1962.45 247.896 Q1962.45 247.383 1963.33 247.404 L1988.97 247.404 Q1990.22 247.404 1990.24 247.896 Q1990.24 248.367 1989.17 248.367 L1963.29 248.367 Q1962.45 248.367 1962.45 247.896 Z" fill="#000000" fill-rule="evenodd" fill-opacity="1" /><path clip-path="url(#clip400)" d="M 0 0 M2006.42 238.509 L2006.42 237.197 Q2011.46 237.197 2014.07 234.513 Q2014.78 234.513 2014.91 234.677 Q2015.03 234.841 2015.03 235.599 L2015.03 259.147 Q2015.03 260.397 2015.64 260.787 Q2016.26 261.176 2018.94 261.176 L2020.28 261.176 L2020.28 262.467 Q2018.8 262.344 2013.47 262.344 Q2008.14 262.344 2006.69 262.467 L2006.69 261.176 L2008.02 261.176 Q2010.66 261.176 2011.3 260.807 Q2011.93 260.418 2011.93 259.147 L2011.93 237.402 Q2009.74 238.509 2006.42 238.509 Z" fill="#000000" fill-rule="evenodd" fill-opacity="1" /><path clip-path="url(#clip400)" d="M 0 0 M2023.59 261.791 Q2022.95 261.115 2022.95 260.233 Q2022.95 259.352 2023.59 258.717 Q2024.22 258.061 2025.19 258.061 Q2026.11 258.061 2026.72 258.676 Q2027.36 259.27 2027.36 260.254 Q2027.36 261.217 2026.68 261.853 Q2026.03 262.467 2025.19 262.467 Q2024.22 262.467 2023.59 261.791 Z" fill="#000000" fill-rule="evenodd" fill-opacity="1" /><path clip-path="url(#clip400)" d="M 0 0 M2034.5 249.043 Q2034.5 242.875 2036.06 239.513 Q2038.23 234.513 2043.35 234.513 Q2044.44 234.513 2045.57 234.82 Q2046.72 235.107 2048.15 236.234 Q2049.6 237.361 2050.49 239.206 Q2052.17 242.772 2052.17 249.043 Q2052.17 255.171 2050.61 258.512 Q2048.33 263.39 2043.31 263.39 Q2041.43 263.39 2039.5 262.426 Q2037.6 261.463 2036.39 259.147 Q2034.5 255.684 2034.5 249.043 M2037.98 248.531 Q2037.98 254.864 2038.44 257.385 Q2038.95 260.11 2040.34 261.299 Q2041.76 262.467 2043.31 262.467 Q2044.99 262.467 2046.39 261.217 Q2047.8 259.947 2048.23 257.221 Q2048.7 254.536 2048.68 248.531 Q2048.68 242.69 2048.27 240.354 Q2047.72 237.628 2046.24 236.542 Q2044.79 235.435 2043.31 235.435 Q2042.76 235.435 2042.17 235.599 Q2041.59 235.763 2040.75 236.234 Q2039.91 236.706 2039.26 237.874 Q2038.62 239.042 2038.31 240.805 Q2037.98 243.079 2037.98 248.531 Z" fill="#000000" fill-rule="evenodd" fill-opacity="1" /><path clip-path="url(#clip400)" d="M 0 0 M2055.88 261.791 Q2055.28 261.115 2055.28 260.233 Q2055.28 259.352 2055.86 258.696 Q2056.45 258.02 2057.52 258.02 Q2058.77 258.02 2059.48 259.229 Q2060.2 260.418 2060.2 262.426 Q2060.2 264.599 2059.32 266.607 Q2058.44 268.636 2057.58 269.6 Q2056.72 270.563 2056.37 270.563 Q2055.96 270.563 2055.96 270.112 Q2055.96 269.948 2056.24 269.641 Q2059.26 266.402 2059.28 262.426 Q2059.28 261.791 2059.2 261.791 L2059.09 261.873 Q2058.38 262.467 2057.52 262.467 Q2056.47 262.467 2055.88 261.791 Z" fill="#000000" fill-rule="evenodd" fill-opacity="1" /><path clip-path="url(#clip400)" d="M 0 0 M2094.04 256.462 Q2093.53 258.983 2092.48 260.746 Q2091.19 262.939 2089.22 262.939 Q2087.56 262.939 2086.46 261.791 Q2085.35 260.623 2085.35 258.778 Q2085.35 258.225 2085.58 257.303 Q2085.66 256.893 2085.66 256.38 Q2085.66 253.06 2078.46 252.814 Q2077.87 255.171 2077.46 256.77 Q2077.07 258.348 2076.95 258.819 Q2076.82 259.291 2076.72 259.68 Q2076.64 260.07 2076.5 260.582 Q2076.29 261.422 2076.15 261.832 Q2076 262.242 2075.62 262.59 Q2075.25 262.939 2074.65 262.939 Q2074.14 262.939 2073.79 262.631 Q2073.44 262.324 2073.44 261.791 Q2073.44 261.422 2073.61 260.828 L2077.46 245.436 Q2077.56 245.006 2077.77 244.699 Q2077.97 244.391 2078.16 244.248 Q2078.36 244.104 2078.61 244.022 Q2078.85 243.94 2078.96 243.94 Q2079.06 243.92 2079.14 243.92 Q2079.69 243.92 2080.02 244.227 Q2080.37 244.514 2080.37 245.047 Q2080.37 245.129 2080.23 245.703 Q2080.1 246.256 2079.9 247.096 Q2079.69 247.937 2079.61 248.326 L2078.77 251.605 Q2079.94 251.216 2080.99 250.519 Q2082.05 249.822 2084.14 248.019 Q2085.1 247.219 2085.68 246.768 Q2086.27 246.297 2087.26 245.662 Q2088.24 245.006 2089.18 244.699 Q2090.13 244.371 2091.03 244.371 Q2091.72 244.371 2092.13 244.699 Q2092.54 245.006 2092.63 245.293 Q2092.71 245.559 2092.71 245.846 Q2092.71 246.687 2092.05 247.404 Q2091.4 248.121 2090.43 248.121 Q2089.57 248.121 2089.2 247.65 Q2088.83 247.178 2088.83 246.646 Q2088.83 246.236 2089.04 245.723 Q2087.89 246.215 2086.91 246.932 Q2085.92 247.629 2084.22 249.084 Q2081.8 251.154 2080.37 251.933 Q2081.19 251.954 2081.8 252.015 Q2082.44 252.056 2083.51 252.2 Q2084.57 252.343 2085.35 252.65 Q2086.13 252.937 2086.89 253.388 Q2087.67 253.839 2088.08 254.577 Q2088.51 255.315 2088.51 256.258 Q2088.51 256.708 2088.3 257.631 Q2087.95 259.147 2087.95 259.988 Q2087.95 261.053 2088.28 261.525 Q2088.63 261.996 2089.31 261.996 Q2090.6 261.996 2091.42 260.664 Q2092.26 259.311 2092.95 256.811 Q2093.06 256.339 2093.16 256.196 Q2093.26 256.053 2093.55 256.053 Q2094.04 256.053 2094.04 256.462 Z" fill="#000000" fill-rule="evenodd" fill-opacity="1" /><path clip-path="url(#clip400)" d="M 0 0 M2109.02 256.094 Q2109.06 255.581 2109.86 255.581 L2135.58 255.581 Q2136.79 255.581 2136.81 256.053 Q2136.81 256.565 2135.66 256.544 L2110.14 256.544 Q2109.02 256.565 2109.02 256.094 M2109.02 247.896 Q2109.02 247.383 2109.9 247.404 L2135.54 247.404 Q2136.79 247.404 2136.81 247.896 Q2136.81 248.367 2135.74 248.367 L2109.86 248.367 Q2109.02 248.367 2109.02 247.896 Z" fill="#000000" fill-rule="evenodd" fill-opacity="1" /><path clip-path="url(#clip400)" d="M 0 0 M2152.99 238.509 L2152.99 237.197 Q2158.03 237.197 2160.63 234.513 Q2161.35 234.513 2161.47 234.677 Q2161.6 234.841 2161.6 235.599 L2161.6 259.147 Q2161.6 260.397 2162.21 260.787 Q2162.83 261.176 2165.51 261.176 L2166.84 261.176 L2166.84 262.467 Q2165.37 262.344 2160.04 262.344 Q2154.71 262.344 2153.26 262.467 L2153.26 261.176 L2154.59 261.176 Q2157.23 261.176 2157.87 260.807 Q2158.5 260.418 2158.5 259.147 L2158.5 237.402 Q2156.31 238.509 2152.99 238.509 Z" fill="#000000" fill-rule="evenodd" fill-opacity="1" /><path clip-path="url(#clip400)" d="M 0 0 M2170.4 249.043 Q2170.4 242.875 2171.95 239.513 Q2174.13 234.513 2179.25 234.513 Q2180.34 234.513 2181.46 234.82 Q2182.61 235.107 2184.05 236.234 Q2185.5 237.361 2186.38 239.206 Q2188.06 242.772 2188.06 249.043 Q2188.06 255.171 2186.51 258.512 Q2184.23 263.39 2179.21 263.39 Q2177.32 263.39 2175.4 262.426 Q2173.49 261.463 2172.28 259.147 Q2170.4 255.684 2170.4 249.043 M2173.88 248.531 Q2173.88 254.864 2174.33 257.385 Q2174.84 260.11 2176.24 261.299 Q2177.65 262.467 2179.21 262.467 Q2180.89 262.467 2182.28 261.217 Q2183.7 259.947 2184.13 257.221 Q2184.6 254.536 2184.58 248.531 Q2184.58 242.69 2184.17 240.354 Q2183.62 237.628 2182.14 236.542 Q2180.68 235.435 2179.21 235.435 Q2178.66 235.435 2178.06 235.599 Q2177.49 235.763 2176.65 236.234 Q2175.81 236.706 2175.15 237.874 Q2174.52 239.042 2174.21 240.805 Q2173.88 243.079 2173.88 248.531 Z" fill="#000000" fill-rule="evenodd" fill-opacity="1" /><polyline clip-path="url(#clip400)" style="stroke:#990066; stroke-width:3.5; stroke-opacity:1; fill:none" points="
  1764.46,305.333 1903.38,305.333 
  "/>
<path clip-path="url(#clip400)" d="M 0 0 M1955.08 287.433 Q1955.08 287.822 1955 288.15 L1953.85 295.446 Q1953.79 295.999 1953.66 296.204 Q1953.56 296.409 1953.23 296.409 Q1952.72 296.409 1952.72 295.876 Q1952.72 295.569 1952.84 295.077 Q1953.19 292.761 1953.19 291.716 Q1953.19 291.019 1953.05 290.507 Q1952.93 289.974 1952.72 289.605 Q1952.54 289.236 1952.11 288.99 Q1951.68 288.744 1951.27 288.601 Q1950.86 288.457 1950.12 288.396 Q1949.38 288.314 1948.75 288.293 Q1948.11 288.273 1947.07 288.273 Q1944.79 288.273 1944.42 288.355 Q1944.03 288.457 1943.83 288.765 Q1943.64 289.052 1943.44 289.913 L1937.86 312.19 L1937.7 313.071 Q1937.7 313.563 1938.01 313.727 Q1938.31 313.891 1939.26 313.994 Q1940.61 314.096 1941.94 314.096 Q1941.98 314.096 1942.06 314.096 Q1942.52 314.096 1942.7 314.117 Q1942.88 314.117 1943.07 314.158 Q1943.25 314.199 1943.29 314.301 Q1943.36 314.383 1943.36 314.547 Q1943.36 314.936 1943.19 315.141 Q1943.03 315.326 1942.86 315.367 Q1942.72 315.387 1942.43 315.387 Q1941.86 315.387 1940.63 315.346 Q1939.4 315.305 1938.79 315.305 L1935.3 315.264 L1931.74 315.305 Q1931.18 315.305 1930.01 315.346 Q1928.85 315.387 1928.29 315.387 Q1927.58 315.387 1927.58 314.875 Q1927.58 314.301 1927.84 314.199 Q1928.13 314.096 1929.34 314.096 Q1931.04 314.096 1931.96 314.014 Q1932.88 313.932 1933.38 313.645 Q1933.89 313.358 1934.03 313.071 Q1934.17 312.764 1934.34 312.067 L1939.97 289.667 Q1940.14 289.175 1940.14 288.785 Q1940.14 288.58 1940.08 288.498 Q1940.04 288.416 1939.77 288.355 Q1939.5 288.273 1938.95 288.273 L1937.31 288.273 Q1935.63 288.273 1934.58 288.355 Q1933.56 288.416 1932.58 288.724 Q1931.61 289.031 1931.04 289.462 Q1930.49 289.892 1929.87 290.773 Q1929.26 291.655 1928.8 292.72 Q1928.37 293.786 1927.76 295.528 Q1927.55 296.102 1927.43 296.266 Q1927.33 296.409 1927.04 296.409 Q1926.84 296.409 1926.67 296.286 Q1926.53 296.143 1926.53 295.958 Q1926.73 295.282 1926.78 295.2 L1929.3 287.802 Q1929.5 287.207 1929.69 287.105 Q1929.89 286.982 1930.65 286.982 L1953.93 286.982 Q1954.3 286.982 1954.42 286.982 Q1954.55 286.982 1954.75 287.023 Q1954.96 287.064 1955.02 287.166 Q1955.08 287.269 1955.08 287.433 Z" fill="#000000" fill-rule="evenodd" fill-opacity="1" /><path clip-path="url(#clip400)" d="M 0 0 M1962.45 309.014 Q1962.49 308.501 1963.29 308.501 L1989.01 308.501 Q1990.22 308.501 1990.24 308.973 Q1990.24 309.485 1989.09 309.464 L1963.57 309.464 Q1962.45 309.485 1962.45 309.014 M1962.45 300.816 Q1962.45 300.303 1963.33 300.324 L1988.97 300.324 Q1990.22 300.324 1990.24 300.816 Q1990.24 301.287 1989.17 301.287 L1963.29 301.287 Q1962.45 301.287 1962.45 300.816 Z" fill="#000000" fill-rule="evenodd" fill-opacity="1" /><path clip-path="url(#clip400)" d="M 0 0 M2006.42 309.731 Q2006.42 308.481 2007.14 307.886 Q2007.86 307.292 2008.78 307.292 Q2009.74 307.292 2010.42 307.927 Q2011.12 308.542 2011.12 309.628 Q2011.12 310.797 2010.3 311.452 Q2009.5 312.108 2008.35 311.944 Q2009.35 313.625 2011.2 314.383 Q2013.06 315.141 2014.78 315.141 Q2016.59 315.141 2018.04 313.584 Q2019.52 312.026 2019.52 308.214 Q2019.52 304.976 2018.25 303.111 Q2017 301.246 2014.52 301.246 L2012.67 301.246 Q2012.04 301.246 2011.85 301.185 Q2011.67 301.123 2011.67 300.775 Q2011.67 300.365 2012.3 300.283 Q2012.94 300.283 2013.94 300.16 Q2016.38 300.078 2017.67 297.967 Q2018.84 295.999 2018.84 293.192 Q2018.84 290.63 2017.61 289.564 Q2016.4 288.478 2014.82 288.478 Q2013.35 288.478 2011.73 289.093 Q2010.11 289.708 2009.23 291.081 Q2011.83 291.081 2011.83 293.192 Q2011.83 294.114 2011.24 294.729 Q2010.66 295.323 2009.7 295.323 Q2008.78 295.323 2008.16 294.749 Q2007.55 294.155 2007.55 293.151 Q2007.55 290.753 2009.68 289.093 Q2011.83 287.433 2014.99 287.433 Q2018.1 287.433 2020.4 289.072 Q2022.71 290.712 2022.71 293.233 Q2022.71 295.713 2021.08 297.741 Q2019.44 299.77 2016.83 300.611 Q2020.03 301.246 2021.94 303.419 Q2023.84 305.57 2023.84 308.214 Q2023.84 311.493 2021.26 313.912 Q2018.68 316.31 2014.91 316.31 Q2011.42 316.31 2008.92 314.424 Q2006.42 312.539 2006.42 309.731 Z" fill="#000000" fill-rule="evenodd" fill-opacity="1" /><path clip-path="url(#clip400)" d="M 0 0 M2027.2 301.963 Q2027.2 295.795 2028.76 292.433 Q2030.93 287.433 2036.06 287.433 Q2037.14 287.433 2038.27 287.74 Q2039.42 288.027 2040.85 289.154 Q2042.31 290.281 2043.19 292.126 Q2044.87 295.692 2044.87 301.963 Q2044.87 308.091 2043.31 311.432 Q2041.04 316.31 2036.02 316.31 Q2034.13 316.31 2032.2 315.346 Q2030.3 314.383 2029.09 312.067 Q2027.2 308.604 2027.2 301.963 M2030.69 301.451 Q2030.69 307.784 2031.14 310.305 Q2031.65 313.03 2033.04 314.219 Q2034.46 315.387 2036.02 315.387 Q2037.7 315.387 2039.09 314.137 Q2040.5 312.867 2040.93 310.141 Q2041.41 307.456 2041.39 301.451 Q2041.39 295.61 2040.98 293.274 Q2040.42 290.548 2038.95 289.462 Q2037.49 288.355 2036.02 288.355 Q2035.46 288.355 2034.87 288.519 Q2034.29 288.683 2033.45 289.154 Q2032.61 289.626 2031.96 290.794 Q2031.32 291.962 2031.01 293.725 Q2030.69 295.999 2030.69 301.451 Z" fill="#000000" fill-rule="evenodd" fill-opacity="1" /><path clip-path="url(#clip400)" d="M 0 0 M2048.62 314.711 Q2047.98 314.035 2047.98 313.153 Q2047.98 312.272 2048.62 311.637 Q2049.25 310.981 2050.22 310.981 Q2051.14 310.981 2051.76 311.596 Q2052.39 312.19 2052.39 313.174 Q2052.39 314.137 2051.71 314.773 Q2051.06 315.387 2050.22 315.387 Q2049.25 315.387 2048.62 314.711 Z" fill="#000000" fill-rule="evenodd" fill-opacity="1" /><path clip-path="url(#clip400)" d="M 0 0 M2059.53 301.963 Q2059.53 295.795 2061.09 292.433 Q2063.26 287.433 2068.39 287.433 Q2069.47 287.433 2070.6 287.74 Q2071.75 288.027 2073.18 289.154 Q2074.64 290.281 2075.52 292.126 Q2077.2 295.692 2077.2 301.963 Q2077.2 308.091 2075.64 311.432 Q2073.37 316.31 2068.34 316.31 Q2066.46 316.31 2064.53 315.346 Q2062.63 314.383 2061.42 312.067 Q2059.53 308.604 2059.53 301.963 M2063.02 301.451 Q2063.02 307.784 2063.47 310.305 Q2063.98 313.03 2065.37 314.219 Q2066.79 315.387 2068.34 315.387 Q2070.02 315.387 2071.42 314.137 Q2072.83 312.867 2073.26 310.141 Q2073.73 307.456 2073.71 301.451 Q2073.71 295.61 2073.3 293.274 Q2072.75 290.548 2071.28 289.462 Q2069.82 288.355 2068.34 288.355 Q2067.79 288.355 2067.2 288.519 Q2066.62 288.683 2065.78 289.154 Q2064.94 289.626 2064.29 290.794 Q2063.65 291.962 2063.34 293.725 Q2063.02 295.999 2063.02 301.451 Z" fill="#000000" fill-rule="evenodd" fill-opacity="1" /><path clip-path="url(#clip400)" d="M 0 0 M2080.91 314.711 Q2080.31 314.035 2080.31 313.153 Q2080.31 312.272 2080.89 311.616 Q2081.48 310.94 2082.55 310.94 Q2083.8 310.94 2084.51 312.149 Q2085.23 313.338 2085.23 315.346 Q2085.23 317.519 2084.35 319.527 Q2083.47 321.556 2082.61 322.52 Q2081.75 323.483 2081.4 323.483 Q2080.99 323.483 2080.99 323.032 Q2080.99 322.868 2081.28 322.561 Q2084.29 319.322 2084.31 315.346 Q2084.31 314.711 2084.23 314.711 L2084.12 314.793 Q2083.41 315.387 2082.55 315.387 Q2081.5 315.387 2080.91 314.711 Z" fill="#000000" fill-rule="evenodd" fill-opacity="1" /><path clip-path="url(#clip400)" d="M 0 0 M2119.07 309.382 Q2118.56 311.903 2117.51 313.666 Q2116.22 315.859 2114.26 315.859 Q2112.6 315.859 2111.49 314.711 Q2110.38 313.543 2110.38 311.698 Q2110.38 311.145 2110.61 310.223 Q2110.69 309.813 2110.69 309.3 Q2110.69 305.98 2103.5 305.734 Q2102.9 308.091 2102.49 309.69 Q2102.1 311.268 2101.98 311.739 Q2101.86 312.211 2101.75 312.6 Q2101.67 312.99 2101.53 313.502 Q2101.32 314.342 2101.18 314.752 Q2101.04 315.162 2100.65 315.51 Q2100.28 315.859 2099.68 315.859 Q2099.17 315.859 2098.82 315.551 Q2098.47 315.244 2098.47 314.711 Q2098.47 314.342 2098.64 313.748 L2102.49 298.356 Q2102.59 297.926 2102.8 297.619 Q2103 297.311 2103.19 297.168 Q2103.39 297.024 2103.64 296.942 Q2103.88 296.86 2103.99 296.86 Q2104.09 296.84 2104.17 296.84 Q2104.73 296.84 2105.05 297.147 Q2105.4 297.434 2105.4 297.967 Q2105.4 298.049 2105.26 298.623 Q2105.14 299.176 2104.93 300.016 Q2104.73 300.857 2104.64 301.246 L2103.8 304.525 Q2104.97 304.136 2106.02 303.439 Q2107.08 302.742 2109.17 300.939 Q2110.14 300.139 2110.71 299.688 Q2111.3 299.217 2112.29 298.582 Q2113.27 297.926 2114.21 297.619 Q2115.16 297.291 2116.06 297.291 Q2116.76 297.291 2117.17 297.619 Q2117.58 297.926 2117.66 298.213 Q2117.74 298.479 2117.74 298.766 Q2117.74 299.607 2117.08 300.324 Q2116.43 301.041 2115.46 301.041 Q2114.6 301.041 2114.23 300.57 Q2113.87 300.098 2113.87 299.566 Q2113.87 299.156 2114.07 298.643 Q2112.92 299.135 2111.94 299.852 Q2110.96 300.549 2109.25 302.004 Q2106.84 304.074 2105.4 304.853 Q2106.22 304.874 2106.84 304.935 Q2107.47 304.976 2108.54 305.12 Q2109.6 305.263 2110.38 305.57 Q2111.16 305.857 2111.92 306.308 Q2112.7 306.759 2113.11 307.497 Q2113.54 308.235 2113.54 309.178 Q2113.54 309.628 2113.33 310.551 Q2112.98 312.067 2112.98 312.908 Q2112.98 313.973 2113.31 314.445 Q2113.66 314.916 2114.34 314.916 Q2115.63 314.916 2116.45 313.584 Q2117.29 312.231 2117.99 309.731 Q2118.09 309.259 2118.19 309.116 Q2118.29 308.973 2118.58 308.973 Q2119.07 308.973 2119.07 309.382 Z" fill="#000000" fill-rule="evenodd" fill-opacity="1" /><path clip-path="url(#clip400)" d="M 0 0 M2134.05 309.014 Q2134.09 308.501 2134.89 308.501 L2160.61 308.501 Q2161.82 308.501 2161.84 308.973 Q2161.84 309.485 2160.69 309.464 L2135.17 309.464 Q2134.05 309.485 2134.05 309.014 M2134.05 300.816 Q2134.05 300.303 2134.93 300.324 L2160.57 300.324 Q2161.82 300.324 2161.84 300.816 Q2161.84 301.287 2160.77 301.287 L2134.89 301.287 Q2134.05 301.287 2134.05 300.816 Z" fill="#000000" fill-rule="evenodd" fill-opacity="1" /><path clip-path="url(#clip400)" d="M 0 0 M2178.02 291.429 L2178.02 290.117 Q2183.06 290.117 2185.67 287.433 Q2186.38 287.433 2186.51 287.597 Q2186.63 287.761 2186.63 288.519 L2186.63 312.067 Q2186.63 313.317 2187.24 313.707 Q2187.86 314.096 2190.54 314.096 L2191.88 314.096 L2191.88 315.387 Q2190.4 315.264 2185.07 315.264 Q2179.74 315.264 2178.29 315.387 L2178.29 314.096 L2179.62 314.096 Q2182.26 314.096 2182.9 313.727 Q2183.53 313.338 2183.53 312.067 L2183.53 290.322 Q2181.34 291.429 2178.02 291.429 Z" fill="#000000" fill-rule="evenodd" fill-opacity="1" /><path clip-path="url(#clip400)" d="M 0 0 M2195.43 301.963 Q2195.43 295.795 2196.99 292.433 Q2199.16 287.433 2204.28 287.433 Q2205.37 287.433 2206.49 287.74 Q2207.64 288.027 2209.08 289.154 Q2210.53 290.281 2211.41 292.126 Q2213.09 295.692 2213.09 301.963 Q2213.09 308.091 2211.54 311.432 Q2209.26 316.31 2204.24 316.31 Q2202.35 316.31 2200.43 315.346 Q2198.52 314.383 2197.31 312.067 Q2195.43 308.604 2195.43 301.963 M2198.91 301.451 Q2198.91 307.784 2199.36 310.305 Q2199.87 313.03 2201.27 314.219 Q2202.68 315.387 2204.24 315.387 Q2205.92 315.387 2207.31 314.137 Q2208.73 312.867 2209.16 310.141 Q2209.63 307.456 2209.61 301.451 Q2209.61 295.61 2209.2 293.274 Q2208.65 290.548 2207.17 289.462 Q2205.72 288.355 2204.24 288.355 Q2203.69 288.355 2203.09 288.519 Q2202.52 288.683 2201.68 289.154 Q2200.84 289.626 2200.18 290.794 Q2199.55 291.962 2199.24 293.725 Q2198.91 295.999 2198.91 301.451 Z" fill="#000000" fill-rule="evenodd" fill-opacity="1" /><polyline clip-path="url(#clip400)" style="stroke:#cc0033; stroke-width:3.5; stroke-opacity:1; fill:none" points="
  1764.46,358.253 1903.38,358.253 
  "/>
<path clip-path="url(#clip400)" d="M 0 0 M1955.08 340.353 Q1955.08 340.742 1955 341.07 L1953.85 348.366 Q1953.79 348.919 1953.66 349.124 Q1953.56 349.329 1953.23 349.329 Q1952.72 349.329 1952.72 348.796 Q1952.72 348.489 1952.84 347.997 Q1953.19 345.681 1953.19 344.636 Q1953.19 343.939 1953.05 343.427 Q1952.93 342.894 1952.72 342.525 Q1952.54 342.156 1952.11 341.91 Q1951.68 341.664 1951.27 341.521 Q1950.86 341.377 1950.12 341.316 Q1949.38 341.234 1948.75 341.213 Q1948.11 341.193 1947.07 341.193 Q1944.79 341.193 1944.42 341.275 Q1944.03 341.377 1943.83 341.685 Q1943.64 341.972 1943.44 342.833 L1937.86 365.11 L1937.7 365.991 Q1937.7 366.483 1938.01 366.647 Q1938.31 366.811 1939.26 366.914 Q1940.61 367.016 1941.94 367.016 Q1941.98 367.016 1942.06 367.016 Q1942.52 367.016 1942.7 367.037 Q1942.88 367.037 1943.07 367.078 Q1943.25 367.119 1943.29 367.221 Q1943.36 367.303 1943.36 367.467 Q1943.36 367.856 1943.19 368.061 Q1943.03 368.246 1942.86 368.287 Q1942.72 368.307 1942.43 368.307 Q1941.86 368.307 1940.63 368.266 Q1939.4 368.225 1938.79 368.225 L1935.3 368.184 L1931.74 368.225 Q1931.18 368.225 1930.01 368.266 Q1928.85 368.307 1928.29 368.307 Q1927.58 368.307 1927.58 367.795 Q1927.58 367.221 1927.84 367.119 Q1928.13 367.016 1929.34 367.016 Q1931.04 367.016 1931.96 366.934 Q1932.88 366.852 1933.38 366.565 Q1933.89 366.278 1934.03 365.991 Q1934.17 365.684 1934.34 364.987 L1939.97 342.587 Q1940.14 342.095 1940.14 341.705 Q1940.14 341.5 1940.08 341.418 Q1940.04 341.336 1939.77 341.275 Q1939.5 341.193 1938.95 341.193 L1937.31 341.193 Q1935.63 341.193 1934.58 341.275 Q1933.56 341.336 1932.58 341.644 Q1931.61 341.951 1931.04 342.382 Q1930.49 342.812 1929.87 343.693 Q1929.26 344.575 1928.8 345.64 Q1928.37 346.706 1927.76 348.448 Q1927.55 349.022 1927.43 349.186 Q1927.33 349.329 1927.04 349.329 Q1926.84 349.329 1926.67 349.206 Q1926.53 349.063 1926.53 348.878 Q1926.73 348.202 1926.78 348.12 L1929.3 340.722 Q1929.5 340.127 1929.69 340.025 Q1929.89 339.902 1930.65 339.902 L1953.93 339.902 Q1954.3 339.902 1954.42 339.902 Q1954.55 339.902 1954.75 339.943 Q1954.96 339.984 1955.02 340.086 Q1955.08 340.189 1955.08 340.353 Z" fill="#000000" fill-rule="evenodd" fill-opacity="1" /><path clip-path="url(#clip400)" d="M 0 0 M1962.45 361.934 Q1962.49 361.421 1963.29 361.421 L1989.01 361.421 Q1990.22 361.421 1990.24 361.893 Q1990.24 362.405 1989.09 362.384 L1963.57 362.384 Q1962.45 362.405 1962.45 361.934 M1962.45 353.736 Q1962.45 353.223 1963.33 353.244 L1988.97 353.244 Q1990.22 353.244 1990.24 353.736 Q1990.24 354.207 1989.17 354.207 L1963.29 354.207 Q1962.45 354.207 1962.45 353.736 Z" fill="#000000" fill-rule="evenodd" fill-opacity="1" /><path clip-path="url(#clip400)" d="M 0 0 M2006.42 344.349 L2006.42 343.037 Q2011.46 343.037 2014.07 340.353 Q2014.78 340.353 2014.91 340.517 Q2015.03 340.681 2015.03 341.439 L2015.03 364.987 Q2015.03 366.237 2015.64 366.627 Q2016.26 367.016 2018.94 367.016 L2020.28 367.016 L2020.28 368.307 Q2018.8 368.184 2013.47 368.184 Q2008.14 368.184 2006.69 368.307 L2006.69 367.016 L2008.02 367.016 Q2010.66 367.016 2011.3 366.647 Q2011.93 366.258 2011.93 364.987 L2011.93 343.242 Q2009.74 344.349 2006.42 344.349 Z" fill="#000000" fill-rule="evenodd" fill-opacity="1" /><path clip-path="url(#clip400)" d="M 0 0 M2023.59 367.631 Q2022.95 366.955 2022.95 366.073 Q2022.95 365.192 2023.59 364.557 Q2024.22 363.901 2025.19 363.901 Q2026.11 363.901 2026.72 364.516 Q2027.36 365.11 2027.36 366.094 Q2027.36 367.057 2026.68 367.693 Q2026.03 368.307 2025.19 368.307 Q2024.22 368.307 2023.59 367.631 Z" fill="#000000" fill-rule="evenodd" fill-opacity="1" /><path clip-path="url(#clip400)" d="M 0 0 M2034.5 354.883 Q2034.5 348.715 2036.06 345.353 Q2038.23 340.353 2043.35 340.353 Q2044.44 340.353 2045.57 340.66 Q2046.72 340.947 2048.15 342.074 Q2049.6 343.201 2050.49 345.046 Q2052.17 348.612 2052.17 354.883 Q2052.17 361.011 2050.61 364.352 Q2048.33 369.23 2043.31 369.23 Q2041.43 369.23 2039.5 368.266 Q2037.6 367.303 2036.39 364.987 Q2034.5 361.524 2034.5 354.883 M2037.98 354.371 Q2037.98 360.704 2038.44 363.225 Q2038.95 365.95 2040.34 367.139 Q2041.76 368.307 2043.31 368.307 Q2044.99 368.307 2046.39 367.057 Q2047.8 365.787 2048.23 363.061 Q2048.7 360.376 2048.68 354.371 Q2048.68 348.53 2048.27 346.194 Q2047.72 343.468 2046.24 342.382 Q2044.79 341.275 2043.31 341.275 Q2042.76 341.275 2042.17 341.439 Q2041.59 341.603 2040.75 342.074 Q2039.91 342.546 2039.26 343.714 Q2038.62 344.882 2038.31 346.645 Q2037.98 348.919 2037.98 354.371 Z" fill="#000000" fill-rule="evenodd" fill-opacity="1" /><path clip-path="url(#clip400)" d="M 0 0 M2055.88 367.631 Q2055.28 366.955 2055.28 366.073 Q2055.28 365.192 2055.86 364.536 Q2056.45 363.86 2057.52 363.86 Q2058.77 363.86 2059.48 365.069 Q2060.2 366.258 2060.2 368.266 Q2060.2 370.439 2059.32 372.447 Q2058.44 374.476 2057.58 375.44 Q2056.72 376.403 2056.37 376.403 Q2055.96 376.403 2055.96 375.952 Q2055.96 375.788 2056.24 375.481 Q2059.26 372.242 2059.28 368.266 Q2059.28 367.631 2059.2 367.631 L2059.09 367.713 Q2058.38 368.307 2057.52 368.307 Q2056.47 368.307 2055.88 367.631 Z" fill="#000000" fill-rule="evenodd" fill-opacity="1" /><path clip-path="url(#clip400)" d="M 0 0 M2094.04 362.302 Q2093.53 364.823 2092.48 366.586 Q2091.19 368.779 2089.22 368.779 Q2087.56 368.779 2086.46 367.631 Q2085.35 366.463 2085.35 364.618 Q2085.35 364.065 2085.58 363.143 Q2085.66 362.733 2085.66 362.22 Q2085.66 358.9 2078.46 358.654 Q2077.87 361.011 2077.46 362.61 Q2077.07 364.188 2076.95 364.659 Q2076.82 365.131 2076.72 365.52 Q2076.64 365.91 2076.5 366.422 Q2076.29 367.262 2076.15 367.672 Q2076 368.082 2075.62 368.43 Q2075.25 368.779 2074.65 368.779 Q2074.14 368.779 2073.79 368.471 Q2073.44 368.164 2073.44 367.631 Q2073.44 367.262 2073.61 366.668 L2077.46 351.276 Q2077.56 350.846 2077.77 350.539 Q2077.97 350.231 2078.16 350.088 Q2078.36 349.944 2078.61 349.862 Q2078.85 349.78 2078.96 349.78 Q2079.06 349.76 2079.14 349.76 Q2079.69 349.76 2080.02 350.067 Q2080.37 350.354 2080.37 350.887 Q2080.37 350.969 2080.23 351.543 Q2080.1 352.096 2079.9 352.936 Q2079.69 353.777 2079.61 354.166 L2078.77 357.445 Q2079.94 357.056 2080.99 356.359 Q2082.05 355.662 2084.14 353.859 Q2085.1 353.059 2085.68 352.608 Q2086.27 352.137 2087.26 351.502 Q2088.24 350.846 2089.18 350.539 Q2090.13 350.211 2091.03 350.211 Q2091.72 350.211 2092.13 350.539 Q2092.54 350.846 2092.63 351.133 Q2092.71 351.399 2092.71 351.686 Q2092.71 352.527 2092.05 353.244 Q2091.4 353.961 2090.43 353.961 Q2089.57 353.961 2089.2 353.49 Q2088.83 353.018 2088.83 352.486 Q2088.83 352.076 2089.04 351.563 Q2087.89 352.055 2086.91 352.772 Q2085.92 353.469 2084.22 354.924 Q2081.8 356.994 2080.37 357.773 Q2081.19 357.794 2081.8 357.855 Q2082.44 357.896 2083.51 358.04 Q2084.57 358.183 2085.35 358.49 Q2086.13 358.777 2086.89 359.228 Q2087.67 359.679 2088.08 360.417 Q2088.51 361.155 2088.51 362.098 Q2088.51 362.548 2088.3 363.471 Q2087.95 364.987 2087.95 365.828 Q2087.95 366.893 2088.28 367.365 Q2088.63 367.836 2089.31 367.836 Q2090.6 367.836 2091.42 366.504 Q2092.26 365.151 2092.95 362.651 Q2093.06 362.179 2093.16 362.036 Q2093.26 361.893 2093.55 361.893 Q2094.04 361.893 2094.04 362.302 Z" fill="#000000" fill-rule="evenodd" fill-opacity="1" /><path clip-path="url(#clip400)" d="M 0 0 M2109.02 361.934 Q2109.06 361.421 2109.86 361.421 L2135.58 361.421 Q2136.79 361.421 2136.81 361.893 Q2136.81 362.405 2135.66 362.384 L2110.14 362.384 Q2109.02 362.405 2109.02 361.934 M2109.02 353.736 Q2109.02 353.223 2109.9 353.244 L2135.54 353.244 Q2136.79 353.244 2136.81 353.736 Q2136.81 354.207 2135.74 354.207 L2109.86 354.207 Q2109.02 354.207 2109.02 353.736 Z" fill="#000000" fill-rule="evenodd" fill-opacity="1" /><path clip-path="url(#clip400)" d="M 0 0 M2152.99 344.349 L2152.99 343.037 Q2158.03 343.037 2160.63 340.353 Q2161.35 340.353 2161.47 340.517 Q2161.6 340.681 2161.6 341.439 L2161.6 364.987 Q2161.6 366.237 2162.21 366.627 Q2162.83 367.016 2165.51 367.016 L2166.84 367.016 L2166.84 368.307 Q2165.37 368.184 2160.04 368.184 Q2154.71 368.184 2153.26 368.307 L2153.26 367.016 L2154.59 367.016 Q2157.23 367.016 2157.87 366.647 Q2158.5 366.258 2158.5 364.987 L2158.5 343.242 Q2156.31 344.349 2152.99 344.349 Z" fill="#000000" fill-rule="evenodd" fill-opacity="1" /><path clip-path="url(#clip400)" d="M 0 0 M2170.4 354.883 Q2170.4 348.715 2171.95 345.353 Q2174.13 340.353 2179.25 340.353 Q2180.34 340.353 2181.46 340.66 Q2182.61 340.947 2184.05 342.074 Q2185.5 343.201 2186.38 345.046 Q2188.06 348.612 2188.06 354.883 Q2188.06 361.011 2186.51 364.352 Q2184.23 369.23 2179.21 369.23 Q2177.32 369.23 2175.4 368.266 Q2173.49 367.303 2172.28 364.987 Q2170.4 361.524 2170.4 354.883 M2173.88 354.371 Q2173.88 360.704 2174.33 363.225 Q2174.84 365.95 2176.24 367.139 Q2177.65 368.307 2179.21 368.307 Q2180.89 368.307 2182.28 367.057 Q2183.7 365.787 2184.13 363.061 Q2184.6 360.376 2184.58 354.371 Q2184.58 348.53 2184.17 346.194 Q2183.62 343.468 2182.14 342.382 Q2180.68 341.275 2179.21 341.275 Q2178.66 341.275 2178.06 341.439 Q2177.49 341.603 2176.65 342.074 Q2175.81 342.546 2175.15 343.714 Q2174.52 344.882 2174.21 346.645 Q2173.88 348.919 2173.88 354.371 Z" fill="#000000" fill-rule="evenodd" fill-opacity="1" /><path clip-path="url(#clip400)" d="M 0 0 M2191.18 354.883 Q2191.18 348.715 2192.74 345.353 Q2194.91 340.353 2200.03 340.353 Q2201.12 340.353 2202.24 340.66 Q2203.39 340.947 2204.83 342.074 Q2206.28 343.201 2207.16 345.046 Q2208.84 348.612 2208.84 354.883 Q2208.84 361.011 2207.29 364.352 Q2205.01 369.23 2199.99 369.23 Q2198.1 369.23 2196.18 368.266 Q2194.27 367.303 2193.06 364.987 Q2191.18 361.524 2191.18 354.883 M2194.66 354.371 Q2194.66 360.704 2195.11 363.225 Q2195.62 365.95 2197.02 367.139 Q2198.43 368.307 2199.99 368.307 Q2201.67 368.307 2203.06 367.057 Q2204.48 365.787 2204.91 363.061 Q2205.38 360.376 2205.36 354.371 Q2205.36 348.53 2204.95 346.194 Q2204.4 343.468 2202.92 342.382 Q2201.47 341.275 2199.99 341.275 Q2199.44 341.275 2198.84 341.439 Q2198.27 341.603 2197.43 342.074 Q2196.59 342.546 2195.93 343.714 Q2195.3 344.882 2194.99 346.645 Q2194.66 348.919 2194.66 354.371 Z" fill="#000000" fill-rule="evenodd" fill-opacity="1" /><polyline clip-path="url(#clip400)" style="stroke:#ff0000; stroke-width:3.5; stroke-opacity:1; fill:none" points="
  1764.46,411.173 1903.38,411.173 
  "/>
<path clip-path="url(#clip400)" d="M 0 0 M1955.08 393.273 Q1955.08 393.662 1955 393.99 L1953.85 401.286 Q1953.79 401.839 1953.66 402.044 Q1953.56 402.249 1953.23 402.249 Q1952.72 402.249 1952.72 401.716 Q1952.72 401.409 1952.84 400.917 Q1953.19 398.601 1953.19 397.556 Q1953.19 396.859 1953.05 396.347 Q1952.93 395.814 1952.72 395.445 Q1952.54 395.076 1952.11 394.83 Q1951.68 394.584 1951.27 394.441 Q1950.86 394.297 1950.12 394.236 Q1949.38 394.154 1948.75 394.133 Q1948.11 394.113 1947.07 394.113 Q1944.79 394.113 1944.42 394.195 Q1944.03 394.297 1943.83 394.605 Q1943.64 394.892 1943.44 395.753 L1937.86 418.03 L1937.7 418.911 Q1937.7 419.403 1938.01 419.567 Q1938.31 419.731 1939.26 419.834 Q1940.61 419.936 1941.94 419.936 Q1941.98 419.936 1942.06 419.936 Q1942.52 419.936 1942.7 419.957 Q1942.88 419.957 1943.07 419.998 Q1943.25 420.039 1943.29 420.141 Q1943.36 420.223 1943.36 420.387 Q1943.36 420.776 1943.19 420.981 Q1943.03 421.166 1942.86 421.207 Q1942.72 421.227 1942.43 421.227 Q1941.86 421.227 1940.63 421.186 Q1939.4 421.145 1938.79 421.145 L1935.3 421.104 L1931.74 421.145 Q1931.18 421.145 1930.01 421.186 Q1928.85 421.227 1928.29 421.227 Q1927.58 421.227 1927.58 420.715 Q1927.58 420.141 1927.84 420.039 Q1928.13 419.936 1929.34 419.936 Q1931.04 419.936 1931.96 419.854 Q1932.88 419.772 1933.38 419.485 Q1933.89 419.198 1934.03 418.911 Q1934.17 418.604 1934.34 417.907 L1939.97 395.507 Q1940.14 395.015 1940.14 394.625 Q1940.14 394.42 1940.08 394.338 Q1940.04 394.256 1939.77 394.195 Q1939.5 394.113 1938.95 394.113 L1937.31 394.113 Q1935.63 394.113 1934.58 394.195 Q1933.56 394.256 1932.58 394.564 Q1931.61 394.871 1931.04 395.302 Q1930.49 395.732 1929.87 396.613 Q1929.26 397.495 1928.8 398.56 Q1928.37 399.626 1927.76 401.368 Q1927.55 401.942 1927.43 402.106 Q1927.33 402.249 1927.04 402.249 Q1926.84 402.249 1926.67 402.126 Q1926.53 401.983 1926.53 401.798 Q1926.73 401.122 1926.78 401.04 L1929.3 393.642 Q1929.5 393.047 1929.69 392.945 Q1929.89 392.822 1930.65 392.822 L1953.93 392.822 Q1954.3 392.822 1954.42 392.822 Q1954.55 392.822 1954.75 392.863 Q1954.96 392.904 1955.02 393.006 Q1955.08 393.109 1955.08 393.273 Z" fill="#000000" fill-rule="evenodd" fill-opacity="1" /><path clip-path="url(#clip400)" d="M 0 0 M1962.45 414.854 Q1962.49 414.341 1963.29 414.341 L1989.01 414.341 Q1990.22 414.341 1990.24 414.813 Q1990.24 415.325 1989.09 415.304 L1963.57 415.304 Q1962.45 415.325 1962.45 414.854 M1962.45 406.656 Q1962.45 406.143 1963.33 406.164 L1988.97 406.164 Q1990.22 406.164 1990.24 406.656 Q1990.24 407.127 1989.17 407.127 L1963.29 407.127 Q1962.45 407.127 1962.45 406.656 Z" fill="#000000" fill-rule="evenodd" fill-opacity="1" /><path clip-path="url(#clip400)" d="M 0 0 M2006.42 415.571 Q2006.42 414.321 2007.14 413.726 Q2007.86 413.132 2008.78 413.132 Q2009.74 413.132 2010.42 413.767 Q2011.12 414.382 2011.12 415.468 Q2011.12 416.637 2010.3 417.292 Q2009.5 417.948 2008.35 417.784 Q2009.35 419.465 2011.2 420.223 Q2013.06 420.981 2014.78 420.981 Q2016.59 420.981 2018.04 419.424 Q2019.52 417.866 2019.52 414.054 Q2019.52 410.816 2018.25 408.951 Q2017 407.086 2014.52 407.086 L2012.67 407.086 Q2012.04 407.086 2011.85 407.025 Q2011.67 406.963 2011.67 406.615 Q2011.67 406.205 2012.3 406.123 Q2012.94 406.123 2013.94 406 Q2016.38 405.918 2017.67 403.807 Q2018.84 401.839 2018.84 399.032 Q2018.84 396.47 2017.61 395.404 Q2016.4 394.318 2014.82 394.318 Q2013.35 394.318 2011.73 394.933 Q2010.11 395.548 2009.23 396.921 Q2011.83 396.921 2011.83 399.032 Q2011.83 399.954 2011.24 400.569 Q2010.66 401.163 2009.7 401.163 Q2008.78 401.163 2008.16 400.589 Q2007.55 399.995 2007.55 398.991 Q2007.55 396.593 2009.68 394.933 Q2011.83 393.273 2014.99 393.273 Q2018.1 393.273 2020.4 394.912 Q2022.71 396.552 2022.71 399.073 Q2022.71 401.553 2021.08 403.581 Q2019.44 405.61 2016.83 406.451 Q2020.03 407.086 2021.94 409.259 Q2023.84 411.41 2023.84 414.054 Q2023.84 417.333 2021.26 419.752 Q2018.68 422.15 2014.91 422.15 Q2011.42 422.15 2008.92 420.264 Q2006.42 418.379 2006.42 415.571 Z" fill="#000000" fill-rule="evenodd" fill-opacity="1" /><path clip-path="url(#clip400)" d="M 0 0 M2027.2 407.803 Q2027.2 401.635 2028.76 398.273 Q2030.93 393.273 2036.06 393.273 Q2037.14 393.273 2038.27 393.58 Q2039.42 393.867 2040.85 394.994 Q2042.31 396.121 2043.19 397.966 Q2044.87 401.532 2044.87 407.803 Q2044.87 413.931 2043.31 417.272 Q2041.04 422.15 2036.02 422.15 Q2034.13 422.15 2032.2 421.186 Q2030.3 420.223 2029.09 417.907 Q2027.2 414.444 2027.2 407.803 M2030.69 407.291 Q2030.69 413.624 2031.14 416.145 Q2031.65 418.87 2033.04 420.059 Q2034.46 421.227 2036.02 421.227 Q2037.7 421.227 2039.09 419.977 Q2040.5 418.707 2040.93 415.981 Q2041.41 413.296 2041.39 407.291 Q2041.39 401.45 2040.98 399.114 Q2040.42 396.388 2038.95 395.302 Q2037.49 394.195 2036.02 394.195 Q2035.46 394.195 2034.87 394.359 Q2034.29 394.523 2033.45 394.994 Q2032.61 395.466 2031.96 396.634 Q2031.32 397.802 2031.01 399.565 Q2030.69 401.839 2030.69 407.291 Z" fill="#000000" fill-rule="evenodd" fill-opacity="1" /><path clip-path="url(#clip400)" d="M 0 0 M2048.62 420.551 Q2047.98 419.875 2047.98 418.993 Q2047.98 418.112 2048.62 417.477 Q2049.25 416.821 2050.22 416.821 Q2051.14 416.821 2051.76 417.436 Q2052.39 418.03 2052.39 419.014 Q2052.39 419.977 2051.71 420.613 Q2051.06 421.227 2050.22 421.227 Q2049.25 421.227 2048.62 420.551 Z" fill="#000000" fill-rule="evenodd" fill-opacity="1" /><path clip-path="url(#clip400)" d="M 0 0 M2059.53 407.803 Q2059.53 401.635 2061.09 398.273 Q2063.26 393.273 2068.39 393.273 Q2069.47 393.273 2070.6 393.58 Q2071.75 393.867 2073.18 394.994 Q2074.64 396.121 2075.52 397.966 Q2077.2 401.532 2077.2 407.803 Q2077.2 413.931 2075.64 417.272 Q2073.37 422.15 2068.34 422.15 Q2066.46 422.15 2064.53 421.186 Q2062.63 420.223 2061.42 417.907 Q2059.53 414.444 2059.53 407.803 M2063.02 407.291 Q2063.02 413.624 2063.47 416.145 Q2063.98 418.87 2065.37 420.059 Q2066.79 421.227 2068.34 421.227 Q2070.02 421.227 2071.42 419.977 Q2072.83 418.707 2073.26 415.981 Q2073.73 413.296 2073.71 407.291 Q2073.71 401.45 2073.3 399.114 Q2072.75 396.388 2071.28 395.302 Q2069.82 394.195 2068.34 394.195 Q2067.79 394.195 2067.2 394.359 Q2066.62 394.523 2065.78 394.994 Q2064.94 395.466 2064.29 396.634 Q2063.65 397.802 2063.34 399.565 Q2063.02 401.839 2063.02 407.291 Z" fill="#000000" fill-rule="evenodd" fill-opacity="1" /><path clip-path="url(#clip400)" d="M 0 0 M2080.91 420.551 Q2080.31 419.875 2080.31 418.993 Q2080.31 418.112 2080.89 417.456 Q2081.48 416.78 2082.55 416.78 Q2083.8 416.78 2084.51 417.989 Q2085.23 419.178 2085.23 421.186 Q2085.23 423.359 2084.35 425.367 Q2083.47 427.396 2082.61 428.36 Q2081.75 429.323 2081.4 429.323 Q2080.99 429.323 2080.99 428.872 Q2080.99 428.708 2081.28 428.401 Q2084.29 425.162 2084.31 421.186 Q2084.31 420.551 2084.23 420.551 L2084.12 420.633 Q2083.41 421.227 2082.55 421.227 Q2081.5 421.227 2080.91 420.551 Z" fill="#000000" fill-rule="evenodd" fill-opacity="1" /><path clip-path="url(#clip400)" d="M 0 0 M2119.07 415.222 Q2118.56 417.743 2117.51 419.506 Q2116.22 421.699 2114.26 421.699 Q2112.6 421.699 2111.49 420.551 Q2110.38 419.383 2110.38 417.538 Q2110.38 416.985 2110.61 416.063 Q2110.69 415.653 2110.69 415.14 Q2110.69 411.82 2103.5 411.574 Q2102.9 413.931 2102.49 415.53 Q2102.1 417.108 2101.98 417.579 Q2101.86 418.051 2101.75 418.44 Q2101.67 418.83 2101.53 419.342 Q2101.32 420.182 2101.18 420.592 Q2101.04 421.002 2100.65 421.35 Q2100.28 421.699 2099.68 421.699 Q2099.17 421.699 2098.82 421.391 Q2098.47 421.084 2098.47 420.551 Q2098.47 420.182 2098.64 419.588 L2102.49 404.196 Q2102.59 403.766 2102.8 403.459 Q2103 403.151 2103.19 403.008 Q2103.39 402.864 2103.64 402.782 Q2103.88 402.7 2103.99 402.7 Q2104.09 402.68 2104.17 402.68 Q2104.73 402.68 2105.05 402.987 Q2105.4 403.274 2105.4 403.807 Q2105.4 403.889 2105.26 404.463 Q2105.14 405.016 2104.93 405.856 Q2104.73 406.697 2104.64 407.086 L2103.8 410.365 Q2104.97 409.976 2106.02 409.279 Q2107.08 408.582 2109.17 406.779 Q2110.14 405.979 2110.71 405.528 Q2111.3 405.057 2112.29 404.422 Q2113.27 403.766 2114.21 403.459 Q2115.16 403.131 2116.06 403.131 Q2116.76 403.131 2117.17 403.459 Q2117.58 403.766 2117.66 404.053 Q2117.74 404.319 2117.74 404.606 Q2117.74 405.447 2117.08 406.164 Q2116.43 406.881 2115.46 406.881 Q2114.6 406.881 2114.23 406.41 Q2113.87 405.938 2113.87 405.406 Q2113.87 404.996 2114.07 404.483 Q2112.92 404.975 2111.94 405.692 Q2110.96 406.389 2109.25 407.844 Q2106.84 409.914 2105.4 410.693 Q2106.22 410.714 2106.84 410.775 Q2107.47 410.816 2108.54 410.96 Q2109.6 411.103 2110.38 411.41 Q2111.16 411.697 2111.92 412.148 Q2112.7 412.599 2113.11 413.337 Q2113.54 414.075 2113.54 415.018 Q2113.54 415.468 2113.33 416.391 Q2112.98 417.907 2112.98 418.748 Q2112.98 419.813 2113.31 420.285 Q2113.66 420.756 2114.34 420.756 Q2115.63 420.756 2116.45 419.424 Q2117.29 418.071 2117.99 415.571 Q2118.09 415.099 2118.19 414.956 Q2118.29 414.813 2118.58 414.813 Q2119.07 414.813 2119.07 415.222 Z" fill="#000000" fill-rule="evenodd" fill-opacity="1" /><path clip-path="url(#clip400)" d="M 0 0 M2134.05 414.854 Q2134.09 414.341 2134.89 414.341 L2160.61 414.341 Q2161.82 414.341 2161.84 414.813 Q2161.84 415.325 2160.69 415.304 L2135.17 415.304 Q2134.05 415.325 2134.05 414.854 M2134.05 406.656 Q2134.05 406.143 2134.93 406.164 L2160.57 406.164 Q2161.82 406.164 2161.84 406.656 Q2161.84 407.127 2160.77 407.127 L2134.89 407.127 Q2134.05 407.127 2134.05 406.656 Z" fill="#000000" fill-rule="evenodd" fill-opacity="1" /><path clip-path="url(#clip400)" d="M 0 0 M2178.02 397.269 L2178.02 395.957 Q2183.06 395.957 2185.67 393.273 Q2186.38 393.273 2186.51 393.437 Q2186.63 393.601 2186.63 394.359 L2186.63 417.907 Q2186.63 419.157 2187.24 419.547 Q2187.86 419.936 2190.54 419.936 L2191.88 419.936 L2191.88 421.227 Q2190.4 421.104 2185.07 421.104 Q2179.74 421.104 2178.29 421.227 L2178.29 419.936 L2179.62 419.936 Q2182.26 419.936 2182.9 419.567 Q2183.53 419.178 2183.53 417.907 L2183.53 396.162 Q2181.34 397.269 2178.02 397.269 Z" fill="#000000" fill-rule="evenodd" fill-opacity="1" /><path clip-path="url(#clip400)" d="M 0 0 M2195.43 407.803 Q2195.43 401.635 2196.99 398.273 Q2199.16 393.273 2204.28 393.273 Q2205.37 393.273 2206.49 393.58 Q2207.64 393.867 2209.08 394.994 Q2210.53 396.121 2211.41 397.966 Q2213.09 401.532 2213.09 407.803 Q2213.09 413.931 2211.54 417.272 Q2209.26 422.15 2204.24 422.15 Q2202.35 422.15 2200.43 421.186 Q2198.52 420.223 2197.31 417.907 Q2195.43 414.444 2195.43 407.803 M2198.91 407.291 Q2198.91 413.624 2199.36 416.145 Q2199.87 418.87 2201.27 420.059 Q2202.68 421.227 2204.24 421.227 Q2205.92 421.227 2207.31 419.977 Q2208.73 418.707 2209.16 415.981 Q2209.63 413.296 2209.61 407.291 Q2209.61 401.45 2209.2 399.114 Q2208.65 396.388 2207.17 395.302 Q2205.72 394.195 2204.24 394.195 Q2203.69 394.195 2203.09 394.359 Q2202.52 394.523 2201.68 394.994 Q2200.84 395.466 2200.18 396.634 Q2199.55 397.802 2199.24 399.565 Q2198.91 401.839 2198.91 407.291 Z" fill="#000000" fill-rule="evenodd" fill-opacity="1" /><path clip-path="url(#clip400)" d="M 0 0 M2216.21 407.803 Q2216.21 401.635 2217.77 398.273 Q2219.94 393.273 2225.06 393.273 Q2226.15 393.273 2227.28 393.58 Q2228.42 393.867 2229.86 394.994 Q2231.31 396.121 2232.19 397.966 Q2233.88 401.532 2233.88 407.803 Q2233.88 413.931 2232.32 417.272 Q2230.04 422.15 2225.02 422.15 Q2223.14 422.15 2221.21 421.186 Q2219.3 420.223 2218.09 417.907 Q2216.21 414.444 2216.21 407.803 M2219.69 407.291 Q2219.69 413.624 2220.14 416.145 Q2220.66 418.87 2222.05 420.059 Q2223.46 421.227 2225.02 421.227 Q2226.7 421.227 2228.1 419.977 Q2229.51 418.707 2229.94 415.981 Q2230.41 413.296 2230.39 407.291 Q2230.39 401.45 2229.98 399.114 Q2229.43 396.388 2227.95 395.302 Q2226.5 394.195 2225.02 394.195 Q2224.47 394.195 2223.87 394.359 Q2223.3 394.523 2222.46 394.994 Q2221.62 395.466 2220.96 396.634 Q2220.33 397.802 2220.02 399.565 Q2219.69 401.839 2219.69 407.291 Z" fill="#000000" fill-rule="evenodd" fill-opacity="1" /></svg>
