<?xml version="1.0" encoding="utf-8"?>
<svg xmlns="http://www.w3.org/2000/svg" xmlns:xlink="http://www.w3.org/1999/xlink" width="600" height="400" viewBox="0 0 2400 1600">
<defs>
  <clipPath id="clip250">
    <rect x="0" y="0" width="2400" height="1600"/>
  </clipPath>
</defs>
<path clip-path="url(#clip250)" d="
M0 1600 L2400 1600 L2400 0 L0 0  Z
  " fill="#ffffff" fill-rule="evenodd" fill-opacity="1"/>
<defs>
  <clipPath id="clip251">
    <rect x="480" y="0" width="1681" height="1600"/>
  </clipPath>
</defs>
<defs>
  <clipPath id="clip252">
    <rect x="229" y="47" width="2124" height="1397"/>
  </clipPath>
</defs>
<path clip-path="url(#clip250)" d="
M275.224 1439.5 L2352.76 1439.5 L2352.76 47.2441 L275.224 47.2441  Z
  " fill="#ffffff" fill-rule="evenodd" fill-opacity="1"/>
<defs>
  <clipPath id="clip253">
    <rect x="275" y="47" width="2079" height="1393"/>
  </clipPath>
</defs>
<polyline clip-path="url(#clip253)" style="stroke:#000000; stroke-width:2; stroke-opacity:0.1; fill:none" points="
  333.63,1439.5 333.63,47.2441 
  "/>
<polyline clip-path="url(#clip253)" style="stroke:#000000; stroke-width:2; stroke-opacity:0.1; fill:none" points="
  725.696,1439.5 725.696,47.2441 
  "/>
<polyline clip-path="url(#clip253)" style="stroke:#000000; stroke-width:2; stroke-opacity:0.1; fill:none" points="
  1117.76,1439.5 1117.76,47.2441 
  "/>
<polyline clip-path="url(#clip253)" style="stroke:#000000; stroke-width:2; stroke-opacity:0.1; fill:none" points="
  1509.83,1439.5 1509.83,47.2441 
  "/>
<polyline clip-path="url(#clip253)" style="stroke:#000000; stroke-width:2; stroke-opacity:0.1; fill:none" points="
  1901.89,1439.5 1901.89,47.2441 
  "/>
<polyline clip-path="url(#clip253)" style="stroke:#000000; stroke-width:2; stroke-opacity:0.1; fill:none" points="
  2293.96,1439.5 2293.96,47.2441 
  "/>
<polyline clip-path="url(#clip250)" style="stroke:#000000; stroke-width:4; stroke-opacity:1; fill:none" points="
  275.224,1439.5 2352.76,1439.5 
  "/>
<polyline clip-path="url(#clip250)" style="stroke:#000000; stroke-width:4; stroke-opacity:1; fill:none" points="
  333.63,1439.5 333.63,1422.79 
  "/>
<polyline clip-path="url(#clip250)" style="stroke:#000000; stroke-width:4; stroke-opacity:1; fill:none" points="
  725.696,1439.5 725.696,1422.79 
  "/>
<polyline clip-path="url(#clip250)" style="stroke:#000000; stroke-width:4; stroke-opacity:1; fill:none" points="
  1117.76,1439.5 1117.76,1422.79 
  "/>
<polyline clip-path="url(#clip250)" style="stroke:#000000; stroke-width:4; stroke-opacity:1; fill:none" points="
  1509.83,1439.5 1509.83,1422.79 
  "/>
<polyline clip-path="url(#clip250)" style="stroke:#000000; stroke-width:4; stroke-opacity:1; fill:none" points="
  1901.89,1439.5 1901.89,1422.79 
  "/>
<polyline clip-path="url(#clip250)" style="stroke:#000000; stroke-width:4; stroke-opacity:1; fill:none" points="
  2293.96,1439.5 2293.96,1422.79 
  "/>
<path clip-path="url(#clip250)" d="M 0 0 M333.63 1468.69 Q330.019 1468.69 328.19 1472.26 Q326.385 1475.8 326.385 1482.93 Q326.385 1490.04 328.19 1493.6 Q330.019 1497.14 333.63 1497.14 Q337.264 1497.14 339.07 1493.6 Q340.899 1490.04 340.899 1482.93 Q340.899 1475.8 339.07 1472.26 Q337.264 1468.69 333.63 1468.69 M333.63 1464.99 Q339.44 1464.99 342.496 1469.6 Q345.575 1474.18 345.575 1482.93 Q345.575 1491.66 342.496 1496.26 Q339.44 1500.85 333.63 1500.85 Q327.82 1500.85 324.741 1496.26 Q321.686 1491.66 321.686 1482.93 Q321.686 1474.18 324.741 1469.6 Q327.82 1464.99 333.63 1464.99 Z" fill="#000000" fill-rule="evenodd" fill-opacity="1" /><path clip-path="url(#clip250)" d="M 0 0 M685.302 1496.24 L692.941 1496.24 L692.941 1469.87 L684.631 1471.54 L684.631 1467.28 L692.895 1465.61 L697.571 1465.61 L697.571 1496.24 L705.21 1496.24 L705.21 1500.17 L685.302 1500.17 L685.302 1496.24 Z" fill="#000000" fill-rule="evenodd" fill-opacity="1" /><path clip-path="url(#clip250)" d="M 0 0 M724.654 1468.69 Q721.043 1468.69 719.214 1472.26 Q717.409 1475.8 717.409 1482.93 Q717.409 1490.04 719.214 1493.6 Q721.043 1497.14 724.654 1497.14 Q728.288 1497.14 730.094 1493.6 Q731.923 1490.04 731.923 1482.93 Q731.923 1475.8 730.094 1472.26 Q728.288 1468.69 724.654 1468.69 M724.654 1464.99 Q730.464 1464.99 733.52 1469.6 Q736.598 1474.18 736.598 1482.93 Q736.598 1491.66 733.52 1496.26 Q730.464 1500.85 724.654 1500.85 Q718.844 1500.85 715.765 1496.26 Q712.71 1491.66 712.71 1482.93 Q712.71 1474.18 715.765 1469.6 Q718.844 1464.99 724.654 1464.99 Z" fill="#000000" fill-rule="evenodd" fill-opacity="1" /><path clip-path="url(#clip250)" d="M 0 0 M754.816 1468.69 Q751.205 1468.69 749.376 1472.26 Q747.571 1475.8 747.571 1482.93 Q747.571 1490.04 749.376 1493.6 Q751.205 1497.14 754.816 1497.14 Q758.45 1497.14 760.256 1493.6 Q762.084 1490.04 762.084 1482.93 Q762.084 1475.8 760.256 1472.26 Q758.45 1468.69 754.816 1468.69 M754.816 1464.99 Q760.626 1464.99 763.682 1469.6 Q766.76 1474.18 766.76 1482.93 Q766.76 1491.66 763.682 1496.26 Q760.626 1500.85 754.816 1500.85 Q749.006 1500.85 745.927 1496.26 Q742.872 1491.66 742.872 1482.93 Q742.872 1474.18 745.927 1469.6 Q749.006 1464.99 754.816 1464.99 Z" fill="#000000" fill-rule="evenodd" fill-opacity="1" /><path clip-path="url(#clip250)" d="M 0 0 M1081.45 1496.24 L1097.77 1496.24 L1097.77 1500.17 L1075.83 1500.17 L1075.83 1496.24 Q1078.49 1493.48 1083.07 1488.85 Q1087.68 1484.2 1088.86 1482.86 Q1091.11 1480.34 1091.99 1478.6 Q1092.89 1476.84 1092.89 1475.15 Q1092.89 1472.4 1090.94 1470.66 Q1089.02 1468.92 1085.92 1468.92 Q1083.72 1468.92 1081.27 1469.69 Q1078.84 1470.45 1076.06 1472 L1076.06 1467.28 Q1078.88 1466.15 1081.34 1465.57 Q1083.79 1464.99 1085.83 1464.99 Q1091.2 1464.99 1094.39 1467.67 Q1097.59 1470.36 1097.59 1474.85 Q1097.59 1476.98 1096.78 1478.9 Q1095.99 1480.8 1093.88 1483.39 Q1093.31 1484.06 1090.2 1487.28 Q1087.1 1490.47 1081.45 1496.24 Z" fill="#000000" fill-rule="evenodd" fill-opacity="1" /><path clip-path="url(#clip250)" d="M 0 0 M1117.59 1468.69 Q1113.98 1468.69 1112.15 1472.26 Q1110.34 1475.8 1110.34 1482.93 Q1110.34 1490.04 1112.15 1493.6 Q1113.98 1497.14 1117.59 1497.14 Q1121.22 1497.14 1123.03 1493.6 Q1124.86 1490.04 1124.86 1482.93 Q1124.86 1475.8 1123.03 1472.26 Q1121.22 1468.69 1117.59 1468.69 M1117.59 1464.99 Q1123.4 1464.99 1126.45 1469.6 Q1129.53 1474.18 1129.53 1482.93 Q1129.53 1491.66 1126.45 1496.26 Q1123.4 1500.85 1117.59 1500.85 Q1111.78 1500.85 1108.7 1496.26 Q1105.64 1491.66 1105.64 1482.93 Q1105.64 1474.18 1108.7 1469.6 Q1111.78 1464.99 1117.59 1464.99 Z" fill="#000000" fill-rule="evenodd" fill-opacity="1" /><path clip-path="url(#clip250)" d="M 0 0 M1147.75 1468.69 Q1144.14 1468.69 1142.31 1472.26 Q1140.5 1475.8 1140.5 1482.93 Q1140.5 1490.04 1142.31 1493.6 Q1144.14 1497.14 1147.75 1497.14 Q1151.38 1497.14 1153.19 1493.6 Q1155.02 1490.04 1155.02 1482.93 Q1155.02 1475.8 1153.19 1472.26 Q1151.38 1468.69 1147.75 1468.69 M1147.75 1464.99 Q1153.56 1464.99 1156.62 1469.6 Q1159.69 1474.18 1159.69 1482.93 Q1159.69 1491.66 1156.62 1496.26 Q1153.56 1500.85 1147.75 1500.85 Q1141.94 1500.85 1138.86 1496.26 Q1135.81 1491.66 1135.81 1482.93 Q1135.81 1474.18 1138.86 1469.6 Q1141.94 1464.99 1147.75 1464.99 Z" fill="#000000" fill-rule="evenodd" fill-opacity="1" /><path clip-path="url(#clip250)" d="M 0 0 M1483.59 1481.54 Q1486.94 1482.26 1488.82 1484.53 Q1490.72 1486.79 1490.72 1490.13 Q1490.72 1495.24 1487.2 1498.04 Q1483.68 1500.85 1477.2 1500.85 Q1475.02 1500.85 1472.71 1500.41 Q1470.42 1499.99 1467.96 1499.13 L1467.96 1494.62 Q1469.91 1495.75 1472.22 1496.33 Q1474.54 1496.91 1477.06 1496.91 Q1481.46 1496.91 1483.75 1495.17 Q1486.07 1493.44 1486.07 1490.13 Q1486.07 1487.07 1483.91 1485.36 Q1481.78 1483.62 1477.96 1483.62 L1473.94 1483.62 L1473.94 1479.78 L1478.15 1479.78 Q1481.6 1479.78 1483.43 1478.41 Q1485.26 1477.03 1485.26 1474.43 Q1485.26 1471.77 1483.36 1470.36 Q1481.48 1468.92 1477.96 1468.92 Q1476.04 1468.92 1473.84 1469.34 Q1471.64 1469.76 1469.01 1470.64 L1469.01 1466.47 Q1471.67 1465.73 1473.98 1465.36 Q1476.32 1464.99 1478.38 1464.99 Q1483.7 1464.99 1486.81 1467.42 Q1489.91 1469.83 1489.91 1473.95 Q1489.91 1476.82 1488.26 1478.81 Q1486.62 1480.78 1483.59 1481.54 Z" fill="#000000" fill-rule="evenodd" fill-opacity="1" /><path clip-path="url(#clip250)" d="M 0 0 M1509.58 1468.69 Q1505.97 1468.69 1504.14 1472.26 Q1502.34 1475.8 1502.34 1482.93 Q1502.34 1490.04 1504.14 1493.6 Q1505.97 1497.14 1509.58 1497.14 Q1513.22 1497.14 1515.02 1493.6 Q1516.85 1490.04 1516.85 1482.93 Q1516.85 1475.8 1515.02 1472.26 Q1513.22 1468.69 1509.58 1468.69 M1509.58 1464.99 Q1515.39 1464.99 1518.45 1469.6 Q1521.53 1474.18 1521.53 1482.93 Q1521.53 1491.66 1518.45 1496.26 Q1515.39 1500.85 1509.58 1500.85 Q1503.77 1500.85 1500.69 1496.26 Q1497.64 1491.66 1497.64 1482.93 Q1497.64 1474.18 1500.69 1469.6 Q1503.77 1464.99 1509.58 1464.99 Z" fill="#000000" fill-rule="evenodd" fill-opacity="1" /><path clip-path="url(#clip250)" d="M 0 0 M1539.75 1468.69 Q1536.13 1468.69 1534.31 1472.26 Q1532.5 1475.8 1532.5 1482.93 Q1532.5 1490.04 1534.31 1493.6 Q1536.13 1497.14 1539.75 1497.14 Q1543.38 1497.14 1545.19 1493.6 Q1547.01 1490.04 1547.01 1482.93 Q1547.01 1475.8 1545.19 1472.26 Q1543.38 1468.69 1539.75 1468.69 M1539.75 1464.99 Q1545.56 1464.99 1548.61 1469.6 Q1551.69 1474.18 1551.69 1482.93 Q1551.69 1491.66 1548.61 1496.26 Q1545.56 1500.85 1539.75 1500.85 Q1533.94 1500.85 1530.86 1496.26 Q1527.8 1491.66 1527.8 1482.93 Q1527.8 1474.18 1530.86 1469.6 Q1533.94 1464.99 1539.75 1464.99 Z" fill="#000000" fill-rule="evenodd" fill-opacity="1" /><path clip-path="url(#clip250)" d="M 0 0 M1874.98 1469.69 L1863.18 1488.14 L1874.98 1488.14 L1874.98 1469.69 M1873.76 1465.61 L1879.64 1465.61 L1879.64 1488.14 L1884.57 1488.14 L1884.57 1492.03 L1879.64 1492.03 L1879.64 1500.17 L1874.98 1500.17 L1874.98 1492.03 L1859.38 1492.03 L1859.38 1487.51 L1873.76 1465.61 Z" fill="#000000" fill-rule="evenodd" fill-opacity="1" /><path clip-path="url(#clip250)" d="M 0 0 M1902.3 1468.69 Q1898.69 1468.69 1896.86 1472.26 Q1895.05 1475.8 1895.05 1482.93 Q1895.05 1490.04 1896.86 1493.6 Q1898.69 1497.14 1902.3 1497.14 Q1905.93 1497.14 1907.74 1493.6 Q1909.57 1490.04 1909.57 1482.93 Q1909.57 1475.8 1907.74 1472.26 Q1905.93 1468.69 1902.3 1468.69 M1902.3 1464.99 Q1908.11 1464.99 1911.16 1469.6 Q1914.24 1474.18 1914.24 1482.93 Q1914.24 1491.66 1911.16 1496.26 Q1908.11 1500.85 1902.3 1500.85 Q1896.49 1500.85 1893.41 1496.26 Q1890.35 1491.66 1890.35 1482.93 Q1890.35 1474.18 1893.41 1469.6 Q1896.49 1464.99 1902.3 1464.99 Z" fill="#000000" fill-rule="evenodd" fill-opacity="1" /><path clip-path="url(#clip250)" d="M 0 0 M1932.46 1468.69 Q1928.85 1468.69 1927.02 1472.26 Q1925.21 1475.8 1925.21 1482.93 Q1925.21 1490.04 1927.02 1493.6 Q1928.85 1497.14 1932.46 1497.14 Q1936.09 1497.14 1937.9 1493.6 Q1939.73 1490.04 1939.73 1482.93 Q1939.73 1475.8 1937.9 1472.26 Q1936.09 1468.69 1932.46 1468.69 M1932.46 1464.99 Q1938.27 1464.99 1941.32 1469.6 Q1944.4 1474.18 1944.4 1482.93 Q1944.4 1491.66 1941.32 1496.26 Q1938.27 1500.85 1932.46 1500.85 Q1926.65 1500.85 1923.57 1496.26 Q1920.51 1491.66 1920.51 1482.93 Q1920.51 1474.18 1923.57 1469.6 Q1926.65 1464.99 1932.46 1464.99 Z" fill="#000000" fill-rule="evenodd" fill-opacity="1" /><path clip-path="url(#clip250)" d="M 0 0 M2253.58 1465.61 L2271.93 1465.61 L2271.93 1469.55 L2257.86 1469.55 L2257.86 1478.02 Q2258.88 1477.67 2259.9 1477.51 Q2260.91 1477.33 2261.93 1477.33 Q2267.72 1477.33 2271.1 1480.5 Q2274.48 1483.67 2274.48 1489.09 Q2274.48 1494.66 2271.01 1497.77 Q2267.53 1500.85 2261.21 1500.85 Q2259.04 1500.85 2256.77 1500.47 Q2254.53 1500.1 2252.12 1499.36 L2252.12 1494.66 Q2254.2 1495.8 2256.42 1496.35 Q2258.65 1496.91 2261.12 1496.91 Q2265.13 1496.91 2267.46 1494.8 Q2269.8 1492.7 2269.8 1489.09 Q2269.8 1485.47 2267.46 1483.37 Q2265.13 1481.26 2261.12 1481.26 Q2259.25 1481.26 2257.37 1481.68 Q2255.52 1482.1 2253.58 1482.97 L2253.58 1465.61 Z" fill="#000000" fill-rule="evenodd" fill-opacity="1" /><path clip-path="url(#clip250)" d="M 0 0 M2293.69 1468.69 Q2290.08 1468.69 2288.25 1472.26 Q2286.45 1475.8 2286.45 1482.93 Q2286.45 1490.04 2288.25 1493.6 Q2290.08 1497.14 2293.69 1497.14 Q2297.33 1497.14 2299.13 1493.6 Q2300.96 1490.04 2300.96 1482.93 Q2300.96 1475.8 2299.13 1472.26 Q2297.33 1468.69 2293.69 1468.69 M2293.69 1464.99 Q2299.5 1464.99 2302.56 1469.6 Q2305.64 1474.18 2305.64 1482.93 Q2305.64 1491.66 2302.56 1496.26 Q2299.5 1500.85 2293.69 1500.85 Q2287.88 1500.85 2284.8 1496.26 Q2281.75 1491.66 2281.75 1482.93 Q2281.75 1474.18 2284.8 1469.6 Q2287.88 1464.99 2293.69 1464.99 Z" fill="#000000" fill-rule="evenodd" fill-opacity="1" /><path clip-path="url(#clip250)" d="M 0 0 M2323.85 1468.69 Q2320.24 1468.69 2318.41 1472.26 Q2316.61 1475.8 2316.61 1482.93 Q2316.61 1490.04 2318.41 1493.6 Q2320.24 1497.14 2323.85 1497.14 Q2327.49 1497.14 2329.29 1493.6 Q2331.12 1490.04 2331.12 1482.93 Q2331.12 1475.8 2329.29 1472.26 Q2327.49 1468.69 2323.85 1468.69 M2323.85 1464.99 Q2329.66 1464.99 2332.72 1469.6 Q2335.8 1474.18 2335.8 1482.93 Q2335.8 1491.66 2332.72 1496.26 Q2329.66 1500.85 2323.85 1500.85 Q2318.04 1500.85 2314.96 1496.26 Q2311.91 1491.66 2311.91 1482.93 Q2311.91 1474.18 2314.96 1469.6 Q2318.04 1464.99 2323.85 1464.99 Z" fill="#000000" fill-rule="evenodd" fill-opacity="1" /><path clip-path="url(#clip250)" d="M 0 0 M1325.92 1535.75 Q1325.92 1541.16 1324.19 1547.24 Q1322.48 1553.3 1319.77 1558.19 Q1317.07 1563.06 1313.53 1566.28 Q1309.98 1569.47 1306.6 1569.47 Q1304.44 1569.47 1302.83 1568.27 Q1301.26 1567.05 1300.39 1565.02 Q1299.52 1562.96 1299.1 1560.71 Q1298.68 1558.42 1298.68 1555.94 Q1298.68 1552.24 1299.48 1548.21 Q1300.29 1544.15 1301.64 1540.48 Q1302.99 1536.78 1304.89 1533.43 Q1306.79 1530.05 1308.89 1527.6 Q1311.01 1525.12 1313.4 1523.67 Q1315.78 1522.22 1318 1522.22 Q1319.61 1522.22 1320.9 1522.93 Q1322.22 1523.6 1323.06 1524.8 Q1323.9 1525.96 1324.48 1527.34 Q1325.09 1528.73 1325.38 1530.34 Q1325.67 1531.91 1325.8 1533.23 Q1325.92 1534.52 1325.92 1535.75 M1321.58 1531.66 Q1321.58 1530.01 1321.45 1528.79 Q1321.32 1527.53 1320.97 1526.28 Q1320.61 1525.02 1319.84 1524.35 Q1319.1 1523.67 1317.94 1523.67 Q1314.56 1523.67 1310.76 1530.59 Q1309.53 1532.75 1308.44 1535.68 Q1307.34 1538.61 1306.96 1540 Q1306.57 1541.38 1305.67 1544.8 L1319.45 1544.8 Q1321.58 1536 1321.58 1531.66 M1318.87 1546.89 L1305.15 1546.89 Q1303.03 1554.94 1303.03 1559.96 Q1303.03 1564.34 1303.93 1566.18 Q1304.86 1567.98 1306.6 1567.98 Q1308.6 1567.98 1310.47 1565.99 Q1312.33 1563.96 1314.23 1560.29 Q1316.75 1555.52 1318.87 1546.89 Z" fill="#000000" fill-rule="evenodd" fill-opacity="1" /><polyline clip-path="url(#clip253)" style="stroke:#000000; stroke-width:2; stroke-opacity:0.1; fill:none" points="
  275.224,1401.47 2352.76,1401.47 
  "/>
<polyline clip-path="url(#clip253)" style="stroke:#000000; stroke-width:2; stroke-opacity:0.1; fill:none" points="
  275.224,1156.17 2352.76,1156.17 
  "/>
<polyline clip-path="url(#clip253)" style="stroke:#000000; stroke-width:2; stroke-opacity:0.1; fill:none" points="
  275.224,910.876 2352.76,910.876 
  "/>
<polyline clip-path="url(#clip253)" style="stroke:#000000; stroke-width:2; stroke-opacity:0.1; fill:none" points="
  275.224,665.582 2352.76,665.582 
  "/>
<polyline clip-path="url(#clip253)" style="stroke:#000000; stroke-width:2; stroke-opacity:0.1; fill:none" points="
  275.224,420.287 2352.76,420.287 
  "/>
<polyline clip-path="url(#clip253)" style="stroke:#000000; stroke-width:2; stroke-opacity:0.1; fill:none" points="
  275.224,174.993 2352.76,174.993 
  "/>
<polyline clip-path="url(#clip250)" style="stroke:#000000; stroke-width:4; stroke-opacity:1; fill:none" points="
  275.224,1439.5 275.224,47.2441 
  "/>
<polyline clip-path="url(#clip250)" style="stroke:#000000; stroke-width:4; stroke-opacity:1; fill:none" points="
  275.224,1401.47 300.155,1401.47 
  "/>
<polyline clip-path="url(#clip250)" style="stroke:#000000; stroke-width:4; stroke-opacity:1; fill:none" points="
  275.224,1156.17 300.155,1156.17 
  "/>
<polyline clip-path="url(#clip250)" style="stroke:#000000; stroke-width:4; stroke-opacity:1; fill:none" points="
  275.224,910.876 300.155,910.876 
  "/>
<polyline clip-path="url(#clip250)" style="stroke:#000000; stroke-width:4; stroke-opacity:1; fill:none" points="
  275.224,665.582 300.155,665.582 
  "/>
<polyline clip-path="url(#clip250)" style="stroke:#000000; stroke-width:4; stroke-opacity:1; fill:none" points="
  275.224,420.287 300.155,420.287 
  "/>
<polyline clip-path="url(#clip250)" style="stroke:#000000; stroke-width:4; stroke-opacity:1; fill:none" points="
  275.224,174.993 300.155,174.993 
  "/>
<path clip-path="url(#clip250)" d="M 0 0 M147.35 1401.92 L177.025 1401.92 L177.025 1405.85 L147.35 1405.85 L147.35 1401.92 Z" fill="#000000" fill-rule="evenodd" fill-opacity="1" /><path clip-path="url(#clip250)" d="M 0 0 M201.285 1400.11 Q204.641 1400.83 206.516 1403.1 Q208.414 1405.37 208.414 1408.7 Q208.414 1413.81 204.896 1416.62 Q201.377 1419.42 194.896 1419.42 Q192.72 1419.42 190.405 1418.98 Q188.113 1418.56 185.66 1417.7 L185.66 1413.19 Q187.604 1414.32 189.919 1414.9 Q192.234 1415.48 194.757 1415.48 Q199.155 1415.48 201.447 1413.75 Q203.761 1412.01 203.761 1408.7 Q203.761 1405.64 201.609 1403.93 Q199.479 1402.19 195.66 1402.19 L191.632 1402.19 L191.632 1398.35 L195.845 1398.35 Q199.294 1398.35 201.122 1396.99 Q202.951 1395.6 202.951 1393 Q202.951 1390.34 201.053 1388.93 Q199.178 1387.5 195.66 1387.5 Q193.738 1387.5 191.539 1387.91 Q189.34 1388.33 186.701 1389.21 L186.701 1385.04 Q189.363 1384.3 191.678 1383.93 Q194.016 1383.56 196.076 1383.56 Q201.4 1383.56 204.502 1385.99 Q207.604 1388.4 207.604 1392.52 Q207.604 1395.39 205.96 1397.38 Q204.317 1399.35 201.285 1400.11 Z" fill="#000000" fill-rule="evenodd" fill-opacity="1" /><path clip-path="url(#clip250)" d="M 0 0 M227.28 1387.26 Q223.669 1387.26 221.84 1390.83 Q220.034 1394.37 220.034 1401.5 Q220.034 1408.61 221.84 1412.17 Q223.669 1415.71 227.28 1415.71 Q230.914 1415.71 232.72 1412.17 Q234.548 1408.61 234.548 1401.5 Q234.548 1394.37 232.72 1390.83 Q230.914 1387.26 227.28 1387.26 M227.28 1383.56 Q233.09 1383.56 236.145 1388.17 Q239.224 1392.75 239.224 1401.5 Q239.224 1410.23 236.145 1414.83 Q233.09 1419.42 227.28 1419.42 Q221.47 1419.42 218.391 1414.83 Q215.335 1410.23 215.335 1401.5 Q215.335 1392.75 218.391 1388.17 Q221.47 1383.56 227.28 1383.56 Z" fill="#000000" fill-rule="evenodd" fill-opacity="1" /><path clip-path="url(#clip250)" d="M 0 0 M147.35 1156.62 L177.025 1156.62 L177.025 1160.56 L147.35 1160.56 L147.35 1156.62 Z" fill="#000000" fill-rule="evenodd" fill-opacity="1" /><path clip-path="url(#clip250)" d="M 0 0 M191.146 1169.52 L207.465 1169.52 L207.465 1173.45 L185.521 1173.45 L185.521 1169.52 Q188.183 1166.76 192.766 1162.13 Q197.373 1157.48 198.553 1156.14 Q200.798 1153.61 201.678 1151.88 Q202.581 1150.12 202.581 1148.43 Q202.581 1145.67 200.636 1143.94 Q198.715 1142.2 195.613 1142.2 Q193.414 1142.2 190.961 1142.96 Q188.53 1143.73 185.752 1145.28 L185.752 1140.56 Q188.576 1139.42 191.03 1138.84 Q193.484 1138.27 195.521 1138.27 Q200.891 1138.27 204.085 1140.95 Q207.28 1143.64 207.28 1148.13 Q207.28 1150.26 206.47 1152.18 Q205.683 1154.08 203.576 1156.67 Q202.997 1157.34 199.896 1160.56 Q196.794 1163.75 191.146 1169.52 Z" fill="#000000" fill-rule="evenodd" fill-opacity="1" /><path clip-path="url(#clip250)" d="M 0 0 M227.28 1141.97 Q223.669 1141.97 221.84 1145.53 Q220.034 1149.08 220.034 1156.21 Q220.034 1163.31 221.84 1166.88 Q223.669 1170.42 227.28 1170.42 Q230.914 1170.42 232.72 1166.88 Q234.548 1163.31 234.548 1156.21 Q234.548 1149.08 232.72 1145.53 Q230.914 1141.97 227.28 1141.97 M227.28 1138.27 Q233.09 1138.27 236.145 1142.87 Q239.224 1147.46 239.224 1156.21 Q239.224 1164.93 236.145 1169.54 Q233.09 1174.12 227.28 1174.12 Q221.47 1174.12 218.391 1169.54 Q215.335 1164.93 215.335 1156.21 Q215.335 1147.46 218.391 1142.87 Q221.47 1138.27 227.28 1138.27 Z" fill="#000000" fill-rule="evenodd" fill-opacity="1" /><path clip-path="url(#clip250)" d="M 0 0 M147.35 911.328 L177.025 911.328 L177.025 915.263 L147.35 915.263 L147.35 911.328 Z" fill="#000000" fill-rule="evenodd" fill-opacity="1" /><path clip-path="url(#clip250)" d="M 0 0 M187.928 924.221 L195.567 924.221 L195.567 897.855 L187.257 899.522 L187.257 895.263 L195.521 893.596 L200.197 893.596 L200.197 924.221 L207.835 924.221 L207.835 928.156 L187.928 928.156 L187.928 924.221 Z" fill="#000000" fill-rule="evenodd" fill-opacity="1" /><path clip-path="url(#clip250)" d="M 0 0 M227.28 896.675 Q223.669 896.675 221.84 900.24 Q220.034 903.781 220.034 910.911 Q220.034 918.017 221.84 921.582 Q223.669 925.124 227.28 925.124 Q230.914 925.124 232.72 921.582 Q234.548 918.017 234.548 910.911 Q234.548 903.781 232.72 900.24 Q230.914 896.675 227.28 896.675 M227.28 892.971 Q233.09 892.971 236.145 897.578 Q239.224 902.161 239.224 910.911 Q239.224 919.638 236.145 924.244 Q233.09 928.827 227.28 928.827 Q221.47 928.827 218.391 924.244 Q215.335 919.638 215.335 910.911 Q215.335 902.161 218.391 897.578 Q221.47 892.971 227.28 892.971 Z" fill="#000000" fill-rule="evenodd" fill-opacity="1" /><path clip-path="url(#clip250)" d="M 0 0 M227.28 651.38 Q223.669 651.38 221.84 654.945 Q220.034 658.487 220.034 665.616 Q220.034 672.723 221.84 676.288 Q223.669 679.829 227.28 679.829 Q230.914 679.829 232.72 676.288 Q234.548 672.723 234.548 665.616 Q234.548 658.487 232.72 654.945 Q230.914 651.38 227.28 651.38 M227.28 647.677 Q233.09 647.677 236.145 652.283 Q239.224 656.866 239.224 665.616 Q239.224 674.343 236.145 678.95 Q233.09 683.533 227.28 683.533 Q221.47 683.533 218.391 678.95 Q215.335 674.343 215.335 665.616 Q215.335 656.866 218.391 652.283 Q221.47 647.677 227.28 647.677 Z" fill="#000000" fill-rule="evenodd" fill-opacity="1" /><path clip-path="url(#clip250)" d="M 0 0 M187.928 433.632 L195.567 433.632 L195.567 407.266 L187.257 408.933 L187.257 404.674 L195.521 403.007 L200.197 403.007 L200.197 433.632 L207.835 433.632 L207.835 437.567 L187.928 437.567 L187.928 433.632 Z" fill="#000000" fill-rule="evenodd" fill-opacity="1" /><path clip-path="url(#clip250)" d="M 0 0 M227.28 406.086 Q223.669 406.086 221.84 409.651 Q220.034 413.192 220.034 420.322 Q220.034 427.428 221.84 430.993 Q223.669 434.535 227.28 434.535 Q230.914 434.535 232.72 430.993 Q234.548 427.428 234.548 420.322 Q234.548 413.192 232.72 409.651 Q230.914 406.086 227.28 406.086 M227.28 402.382 Q233.09 402.382 236.145 406.989 Q239.224 411.572 239.224 420.322 Q239.224 429.049 236.145 433.655 Q233.09 438.239 227.28 438.239 Q221.47 438.239 218.391 433.655 Q215.335 429.049 215.335 420.322 Q215.335 411.572 218.391 406.989 Q221.47 402.382 227.28 402.382 Z" fill="#000000" fill-rule="evenodd" fill-opacity="1" /><path clip-path="url(#clip250)" d="M 0 0 M191.146 188.338 L207.465 188.338 L207.465 192.273 L185.521 192.273 L185.521 188.338 Q188.183 185.583 192.766 180.953 Q197.373 176.301 198.553 174.958 Q200.798 172.435 201.678 170.699 Q202.581 168.94 202.581 167.25 Q202.581 164.495 200.636 162.759 Q198.715 161.023 195.613 161.023 Q193.414 161.023 190.961 161.787 Q188.53 162.551 185.752 164.102 L185.752 159.379 Q188.576 158.245 191.03 157.666 Q193.484 157.088 195.521 157.088 Q200.891 157.088 204.085 159.773 Q207.28 162.458 207.28 166.949 Q207.28 169.078 206.47 171 Q205.683 172.898 203.576 175.49 Q202.997 176.162 199.896 179.379 Q196.794 182.574 191.146 188.338 Z" fill="#000000" fill-rule="evenodd" fill-opacity="1" /><path clip-path="url(#clip250)" d="M 0 0 M227.28 160.791 Q223.669 160.791 221.84 164.356 Q220.034 167.898 220.034 175.027 Q220.034 182.134 221.84 185.699 Q223.669 189.24 227.28 189.24 Q230.914 189.24 232.72 185.699 Q234.548 182.134 234.548 175.027 Q234.548 167.898 232.72 164.356 Q230.914 160.791 227.28 160.791 M227.28 157.088 Q233.09 157.088 236.145 161.694 Q239.224 166.277 239.224 175.027 Q239.224 183.754 236.145 188.361 Q233.09 192.944 227.28 192.944 Q221.47 192.944 218.391 188.361 Q215.335 183.754 215.335 175.027 Q215.335 166.277 218.391 161.694 Q221.47 157.088 227.28 157.088 Z" fill="#000000" fill-rule="evenodd" fill-opacity="1" /><path clip-path="url(#clip250)" d="M 0 0 M60.9719 807.63 L77.3969 813.298 L77.3969 867.983 Q77.3969 868.724 77.3647 869.014 Q77.3325 869.304 77.1714 869.529 Q77.0104 869.755 76.6561 869.755 Q76.3663 869.755 75.6255 869.175 L46.6725 845.761 L13.5648 869.819 Q12.0512 869.819 11.7613 869.561 Q11.4393 869.304 11.4393 867.983 L11.4393 813.298 L26.8659 807.63 L26.8659 809.272 Q24.8691 810.013 23.1944 811.204 Q21.4875 812.364 20.2637 813.717 Q19.0398 815.037 18.0737 816.776 Q17.0753 818.483 16.4634 820.093 Q15.8193 821.671 15.3684 823.636 Q14.8853 825.6 14.6598 827.179 Q14.4022 828.724 14.2734 830.657 Q14.1446 832.589 14.1123 833.813 Q14.0801 835.037 14.0801 836.583 L14.0801 862.702 L43.4841 841.285 Q44.2248 840.802 44.4181 840.802 Q44.7079 840.802 45.4809 841.414 L73.7576 864.28 L73.7576 836.261 Q73.7576 827.243 71.8575 820.963 Q70.4082 816.712 67.5419 813.62 Q64.6756 810.496 60.9719 809.272 L60.9719 807.63 Z" fill="#000000" fill-rule="evenodd" fill-opacity="1" /><path clip-path="url(#clip250)" d="M 0 0 M103.539 878.807 Q104.17 878.807 104.328 879.1 Q104.463 879.393 104.463 880.205 L104.463 884.533 L118.08 887.96 Q119.275 888.231 120.289 888.231 Q121.417 888.231 121.913 887.892 Q122.408 887.532 122.408 886.788 Q122.408 885.322 121.078 883.744 Q119.748 882.144 116.502 880.791 Q116.074 880.611 115.983 880.521 Q115.871 880.408 115.871 880.115 Q115.871 879.551 116.322 879.551 Q116.479 879.551 117.201 879.867 Q117.922 880.16 118.982 880.814 Q120.041 881.445 121.033 882.279 Q122.025 883.091 122.747 884.331 Q123.446 885.57 123.446 886.901 Q123.446 888.772 122.251 889.967 Q121.056 891.139 119.185 891.139 Q118.576 891.139 116.637 890.665 Q114.676 890.192 104.463 887.622 L104.463 891.702 Q104.463 892.266 104.441 892.491 Q104.418 892.694 104.306 892.852 Q104.17 892.987 103.9 892.987 Q103.471 892.987 103.291 892.807 Q103.088 892.627 103.066 892.401 Q103.021 892.153 103.021 891.59 L103.021 887.261 L95.6937 885.458 Q94.9723 885.277 94.5665 884.826 Q94.1382 884.353 94.0931 884.083 Q94.0255 883.812 94.0255 883.609 Q94.0255 883 94.3636 882.64 Q94.6792 882.279 95.2654 882.279 Q95.581 882.279 103.021 884.173 L103.021 880.115 Q103.021 879.596 103.043 879.393 Q103.066 879.168 103.178 878.988 Q103.291 878.807 103.539 878.807 Z" fill="#000000" fill-rule="evenodd" fill-opacity="1" /><path clip-path="url(#clip250)" d="M 0 0 M115.916 863.675 Q115.352 863.629 115.352 862.75 L115.352 834.457 Q115.352 833.127 115.871 833.105 Q116.434 833.105 116.412 834.367 L116.412 862.435 Q116.434 863.675 115.916 863.675 M106.898 863.675 Q106.335 863.675 106.357 862.705 L106.357 834.502 Q106.357 833.127 106.898 833.105 Q107.417 833.105 107.417 834.277 L107.417 862.75 Q107.417 863.675 106.898 863.675 Z" fill="#000000" fill-rule="evenodd" fill-opacity="1" /><path clip-path="url(#clip250)" d="M 0 0 M96.5729 815.293 L95.1301 815.293 Q95.1301 809.747 92.1768 806.884 Q92.1768 806.095 92.3572 805.959 Q92.5375 805.824 93.3717 805.824 L119.275 805.824 Q120.65 805.824 121.078 805.148 Q121.507 804.472 121.507 801.518 L121.507 800.053 L122.927 800.053 Q122.792 801.676 122.792 807.538 Q122.792 813.399 122.927 815 L121.507 815 L121.507 813.534 Q121.507 810.626 121.101 809.927 Q120.673 809.228 119.275 809.228 L95.3556 809.228 Q96.5729 811.641 96.5729 815.293 Z" fill="#000000" fill-rule="evenodd" fill-opacity="1" /><path clip-path="url(#clip250)" d="M 0 0 M16.9787 740.525 Q17.5906 740.525 18.1059 740.654 L29.5712 742.457 Q30.4407 742.554 30.7628 742.747 Q31.0848 742.908 31.0848 743.424 Q31.0848 744.229 30.2475 744.229 Q29.7644 744.229 28.9915 744.036 Q25.3522 743.488 23.7097 743.488 Q22.6147 743.488 21.8095 743.713 Q20.9722 743.907 20.3925 744.229 Q19.8128 744.519 19.4263 745.195 Q19.0398 745.871 18.8144 746.515 Q18.589 747.159 18.4923 748.319 Q18.3635 749.478 18.3313 750.477 Q18.2991 751.475 18.2991 753.118 Q18.2991 756.692 18.4279 757.272 Q18.589 757.884 19.0721 758.206 Q19.5229 758.496 20.8756 758.818 L55.8834 767.578 L57.2682 767.836 Q58.0411 767.836 58.2988 767.353 Q58.5564 766.869 58.7175 765.388 Q58.8785 763.262 58.8785 761.169 Q58.8785 761.105 58.8785 760.976 Q58.8785 760.267 58.9107 759.977 Q58.9107 759.688 58.9751 759.398 Q59.0395 759.108 59.2006 759.043 Q59.3294 758.947 59.587 758.947 Q60.1989 758.947 60.521 759.204 Q60.8108 759.462 60.8753 759.72 Q60.9075 759.945 60.9075 760.396 Q60.9075 761.298 60.8431 763.23 Q60.7786 765.163 60.7786 766.129 L60.7142 771.604 L60.7786 777.208 Q60.7786 778.077 60.8431 779.913 Q60.9075 781.749 60.9075 782.618 Q60.9075 783.745 60.1023 783.745 Q59.2006 783.745 59.0395 783.327 Q58.8785 782.876 58.8785 780.976 Q58.8785 778.303 58.7497 776.853 Q58.6208 775.404 58.17 774.631 Q57.7191 773.826 57.2682 773.601 Q56.7851 773.375 55.6901 773.117 L20.4891 764.261 Q19.7162 764.003 19.1043 764.003 Q18.7822 764.003 18.6534 764.1 Q18.5246 764.164 18.4279 764.583 Q18.2991 765.002 18.2991 765.871 L18.2991 768.448 Q18.2991 771.088 18.4279 772.731 Q18.5246 774.341 19.0076 775.887 Q19.4907 777.401 20.1671 778.303 Q20.8434 779.172 22.2282 780.138 Q23.6131 781.104 25.2878 781.813 Q26.9625 782.489 29.7 783.455 Q30.6017 783.778 30.8594 783.971 Q31.0848 784.132 31.0848 784.583 Q31.0848 784.905 30.8916 785.162 Q30.6662 785.388 30.3763 785.388 Q29.3135 785.066 29.1847 785.001 L17.5584 781.04 Q16.6244 780.718 16.4634 780.428 Q16.2701 780.106 16.2701 778.914 L16.2701 742.329 Q16.2701 741.749 16.2701 741.556 Q16.2701 741.362 16.3346 741.04 Q16.399 740.718 16.56 740.622 Q16.721 740.525 16.9787 740.525 Z" fill="#000000" fill-rule="evenodd" fill-opacity="1" /><path clip-path="url(#clip250)" d="M 0 0 M8.06077 715.549 L8.98508 716.113 Q7.47462 719.607 5.0624 723.958 Q7.47462 728.309 8.98508 731.804 L8.06077 732.345 Q4.74679 728.535 2.1993 723.958 Q4.76933 719.337 8.06077 715.549 Z" fill="#000000" fill-rule="evenodd" fill-opacity="1" /><path clip-path="url(#clip250)" d="M 0 0 M16.6566 699.283 Q17.0753 699.283 17.3329 699.379 Q17.5906 699.444 17.7194 699.701 Q17.816 699.927 17.8482 700.088 Q17.8804 700.217 17.9126 700.603 Q18.0415 702.181 18.4601 703.502 Q18.8466 704.822 19.6196 705.949 Q20.3925 707.044 20.9078 707.656 Q21.4231 708.236 22.4537 709.267 L23.3876 710.168 L42.1637 726.529 Q42.8078 727.109 44.2248 727.463 L53.5323 729.782 Q57.397 730.683 57.6869 730.683 Q58.2666 730.683 58.4598 730.361 Q58.6208 730.007 58.7175 728.912 L58.8785 726.4 Q58.8785 724.919 59.1361 724.693 Q59.2972 724.564 59.587 724.564 Q60.1989 724.564 60.521 724.822 Q60.8108 725.047 60.8753 725.273 Q60.9075 725.466 60.9075 725.82 L60.7142 734.258 L60.9075 742.567 Q60.9075 743.501 60.1667 743.501 Q59.6836 743.501 59.426 743.437 Q59.1361 743.34 59.0395 743.05 Q58.9107 742.761 58.9107 742.535 Q58.8785 742.31 58.8785 741.698 Q58.8463 740.216 58.8463 739.476 Q58.8141 738.703 58.6208 737.962 Q58.4276 737.221 58.2988 736.964 Q58.1378 736.674 57.5903 736.352 Q57.0106 735.997 56.5597 735.901 Q56.1088 735.772 54.9816 735.514 Q53.9832 735.257 48.5404 733.904 Q43.0976 732.551 42.9688 732.551 Q42.6145 732.551 41.8416 732.809 L20.1348 740.925 Q19.1687 741.279 18.7822 741.569 Q18.3957 741.859 18.1703 742.825 Q17.9126 743.791 17.9126 745.724 Q17.9126 746.271 17.8804 746.529 Q17.8482 746.786 17.6872 747.012 Q17.5262 747.237 17.1719 747.237 Q16.56 747.237 16.2701 746.98 Q15.9481 746.722 15.9159 746.529 Q15.8515 746.303 15.8515 745.981 Q15.8515 745.176 15.9481 742.31 Q16.0447 739.443 16.0447 738.606 L15.8515 730.297 Q15.8515 729.299 16.5922 729.299 Q17.494 729.299 17.7194 729.653 Q17.9126 730.007 17.9126 730.877 Q17.9126 734.774 19.4907 734.774 Q19.684 734.774 20.6179 734.387 L40.1991 727.141 L22.5825 711.843 L22.3248 711.618 Q22.0672 711.424 21.874 711.263 Q21.6807 711.102 21.3265 710.845 Q20.9722 710.587 20.6823 710.458 Q20.3925 710.297 20.0382 710.168 Q19.684 710.039 19.4263 710.039 Q18.9432 710.039 18.6212 710.329 Q18.2669 710.619 18.1381 711.07 Q18.0093 711.521 17.9771 711.843 Q17.9126 712.165 17.9126 712.423 Q17.9126 713.421 17.1075 713.421 Q16.5278 713.421 16.2379 713.163 Q15.9159 712.906 15.8837 712.713 Q15.8515 712.487 15.8515 712.165 Q15.8515 711.102 15.9481 708.88 Q16.0447 706.658 16.0447 705.563 Q16.0447 704.661 15.9481 702.825 Q15.8515 700.99 15.8515 700.152 Q15.8515 699.283 16.6566 699.283 Z" fill="#000000" fill-rule="evenodd" fill-opacity="1" /><path clip-path="url(#clip250)" d="M 0 0 M58.6936 688.09 Q59.3248 688.09 59.4826 688.383 Q59.6179 688.676 59.6179 689.487 L59.6179 693.816 L73.2345 697.243 Q74.4294 697.513 75.4439 697.513 Q76.5711 697.513 77.067 697.175 Q77.563 696.814 77.563 696.07 Q77.563 694.605 76.2329 693.027 Q74.9028 691.426 71.6565 690.074 Q71.2281 689.893 71.1379 689.803 Q71.0252 689.69 71.0252 689.397 Q71.0252 688.834 71.4761 688.834 Q71.6339 688.834 72.3553 689.149 Q73.0767 689.442 74.1363 690.096 Q75.1959 690.727 76.1878 691.561 Q77.1798 692.373 77.9012 693.613 Q78.6 694.853 78.6 696.183 Q78.6 698.054 77.4052 699.249 Q76.2104 700.421 74.3392 700.421 Q73.7305 700.421 71.7917 699.948 Q69.8304 699.474 59.6179 696.904 L59.6179 700.985 Q59.6179 701.549 59.5954 701.774 Q59.5728 701.977 59.4601 702.135 Q59.3248 702.27 59.0543 702.27 Q58.626 702.27 58.4456 702.09 Q58.2427 701.909 58.2202 701.684 Q58.1751 701.436 58.1751 700.872 L58.1751 696.544 L50.8483 694.74 Q50.1268 694.56 49.721 694.109 Q49.2927 693.636 49.2476 693.365 Q49.18 693.094 49.18 692.892 Q49.18 692.283 49.5181 691.922 Q49.8338 691.561 50.4199 691.561 Q50.7355 691.561 58.1751 693.455 L58.1751 689.397 Q58.1751 688.879 58.1976 688.676 Q58.2202 688.45 58.3329 688.27 Q58.4456 688.09 58.6936 688.09 Z" fill="#000000" fill-rule="evenodd" fill-opacity="1" /><path clip-path="url(#clip250)" d="M 0 0 M44.4181 678.729 Q33.2748 678.729 24.2894 674.574 Q20.5213 672.803 17.3651 670.323 Q14.209 667.843 12.8241 666.201 Q11.4393 664.558 11.4393 664.107 Q11.4393 663.463 12.0834 663.431 Q12.4054 663.431 13.2106 664.301 Q24.0318 674.929 44.4181 674.896 Q64.8688 674.896 75.2713 664.558 Q76.3985 663.431 76.7527 663.431 Q77.3969 663.431 77.3969 664.107 Q77.3969 664.558 76.0764 666.136 Q74.756 667.714 71.7286 670.162 Q68.7013 672.61 64.9976 674.381 Q56.0122 678.729 44.4181 678.729 Z" fill="#000000" fill-rule="evenodd" fill-opacity="1" /><path clip-path="url(#clip250)" d="M 0 0 M24.7081 653.401 Q19.0398 653.401 15.2396 650.503 Q11.4393 647.604 11.4393 643.707 Q11.4393 641.324 13.5648 638.973 Q18.6534 633.627 18.6212 626.638 Q18.6212 618.716 12.3732 614.11 Q11.4393 613.305 11.4393 612.725 Q11.4393 612.21 11.8579 611.824 Q12.2444 611.405 12.7597 611.405 Q13.1462 611.405 13.9513 611.92 L63.6128 645.286 Q64.6111 646.026 64.6111 646.606 Q64.6111 647.121 64.1925 647.54 Q63.806 647.926 63.2907 647.926 Q62.8398 647.926 61.9703 647.347 L17.8482 617.717 L17.7838 617.782 Q20.1026 621.196 20.0704 626.574 Q20.0704 631.662 17.3007 636.526 Q20.7145 635.141 24.7725 635.141 Q30.3119 635.141 34.1766 637.621 Q38.0091 640.1 38.0091 643.707 Q38.0091 647.604 34.2732 650.503 Q30.5051 653.401 24.7081 653.401 M19.3297 648.86 Q21.6485 649.311 24.7725 649.311 Q27.8643 649.311 30.1831 648.86 Q32.4697 648.41 33.6613 647.765 Q34.8529 647.089 35.5615 646.187 Q36.2378 645.286 36.3988 644.738 Q36.5598 644.191 36.5598 643.643 Q36.5598 640.938 33.2104 638.877 Q29.8288 636.783 24.7081 636.783 Q19.684 636.783 16.3023 638.877 Q12.8885 640.938 12.8885 643.643 Q12.8885 644.223 13.0496 644.802 Q13.2106 645.35 13.9191 646.22 Q14.5954 647.089 15.7871 647.765 Q16.9787 648.41 19.3297 648.86 M51.2779 624.191 Q45.6097 624.191 41.8094 621.292 Q38.0091 618.394 38.0091 614.497 Q38.0091 610.922 41.8738 608.442 Q45.7385 605.93 51.3423 605.93 Q56.8817 605.93 60.7464 608.41 Q64.6111 610.857 64.6111 614.497 Q64.6111 618.394 60.8431 621.292 Q57.075 624.191 51.2779 624.191 M45.8995 619.65 Q48.2506 620.101 51.3423 620.101 Q54.4341 620.101 56.7529 619.65 Q59.0717 619.167 60.2633 618.522 Q61.4228 617.846 62.0991 616.977 Q62.8076 616.075 62.9686 615.527 Q63.1619 614.948 63.1619 614.432 Q63.1619 611.727 59.8125 609.666 Q56.4309 607.572 51.2779 607.572 Q46.2538 607.572 42.8722 609.666 Q39.4584 611.727 39.4584 614.432 Q39.4584 615.012 39.6516 615.592 Q39.8126 616.139 40.5212 617.009 Q41.1975 617.846 42.3891 618.522 Q43.5485 619.167 45.8995 619.65 Z" fill="#000000" fill-rule="evenodd" fill-opacity="1" /><path clip-path="url(#clip250)" d="M 0 0 M76.7527 599.015 Q76.4307 599.015 75.6255 598.177 Q64.8044 587.549 44.4181 587.549 Q23.9673 587.549 13.6293 597.758 Q12.4376 599.015 12.0834 599.015 Q11.4393 599.015 11.4393 598.37 Q11.4393 597.92 12.7597 596.341 Q14.0801 594.731 17.1075 592.316 Q20.1348 589.868 23.8385 588.065 Q32.824 583.717 44.4181 583.717 Q55.5613 583.717 64.5467 587.871 Q68.3148 589.643 71.471 592.122 Q74.6272 594.602 76.012 596.245 Q77.3969 597.887 77.3969 598.37 Q77.3969 599.015 76.7527 599.015 Z" fill="#000000" fill-rule="evenodd" fill-opacity="1" /><polyline clip-path="url(#clip253)" style="stroke:#0000ff; stroke-width:4; stroke-opacity:1; fill:none" points="
  334.022,1400.1 551.793,1311.39 769.563,1186.23 987.334,1059.16 1205.1,927.242 1422.88,772.914 1640.65,617.097 1858.42,568.787 2076.19,358.277 2293.96,86.6476 
  
  "/>
<polyline clip-path="url(#clip253)" style="stroke:#5500aa; stroke-width:4; stroke-opacity:1; fill:none" points="
  334.022,1087.43 551.793,869.085 769.563,720.241 987.334,602.741 1205.1,508.091 1422.88,431.576 1640.65,368.268 1858.42,313.552 2076.19,264.18 2293.96,218.438 
  
  "/>
<polyline clip-path="url(#clip253)" style="stroke:#aa0055; stroke-width:4; stroke-opacity:1; fill:none" points="
  334.022,731.542 551.793,548.714 769.563,454.401 987.334,392.347 1205.1,348.079 1422.88,314.586 1640.65,288.134 1858.42,266.605 2076.19,248.702 2293.96,233.575 
  
  "/>
<polyline clip-path="url(#clip253)" style="stroke:#ff0000; stroke-width:4; stroke-opacity:1; fill:none" points="
  334.022,634.863 551.793,479.488 769.563,403.174 987.334,354.186 1205.1,319.796 1422.88,294.26 1640.65,274.527 1858.42,258.813 2076.19,246 2293.96,235.35 
  
  "/>
<path clip-path="url(#clip250)" d="
M1668.32 1393.09 L2283.5 1393.09 L2283.5 1128.49 L1668.32 1128.49  Z
  " fill="#ffffff" fill-rule="evenodd" fill-opacity="1"/>
<polyline clip-path="url(#clip250)" style="stroke:#000000; stroke-width:4; stroke-opacity:1; fill:none" points="
  1668.32,1393.09 2283.5,1393.09 2283.5,1128.49 1668.32,1128.49 1668.32,1393.09 
  "/>
<polyline clip-path="url(#clip250)" style="stroke:#0000ff; stroke-width:3.5; stroke-opacity:1; fill:none" points="
  1691.4,1181.41 1829.9,1181.41 
  "/>
<path clip-path="url(#clip250)" d="M 0 0 M1881.54 1163.51 Q1881.54 1163.9 1881.45 1164.23 L1880.31 1171.53 Q1880.24 1172.08 1880.12 1172.29 Q1880.02 1172.49 1879.69 1172.49 Q1879.18 1172.49 1879.18 1171.96 Q1879.18 1171.65 1879.3 1171.16 Q1879.65 1168.84 1879.65 1167.8 Q1879.65 1167.1 1879.51 1166.59 Q1879.38 1166.05 1879.18 1165.69 Q1878.99 1165.32 1878.56 1165.07 Q1878.13 1164.82 1877.72 1164.68 Q1877.31 1164.54 1876.58 1164.48 Q1875.84 1164.39 1875.2 1164.37 Q1874.57 1164.35 1873.52 1164.35 Q1871.25 1164.35 1870.88 1164.44 Q1870.49 1164.54 1870.28 1164.85 Q1870.1 1165.13 1869.89 1165.99 L1864.32 1188.27 L1864.16 1189.15 Q1864.16 1189.64 1864.46 1189.81 Q1864.77 1189.97 1865.71 1190.07 Q1867.07 1190.18 1868.4 1190.18 Q1868.44 1190.18 1868.52 1190.18 Q1868.97 1190.18 1869.16 1190.2 Q1869.34 1190.2 1869.53 1190.24 Q1869.71 1190.28 1869.75 1190.38 Q1869.81 1190.46 1869.81 1190.63 Q1869.81 1191.02 1869.65 1191.22 Q1869.48 1191.41 1869.32 1191.45 Q1869.18 1191.47 1868.89 1191.47 Q1868.32 1191.47 1867.09 1191.43 Q1865.86 1191.39 1865.24 1191.39 L1861.76 1191.35 L1858.19 1191.39 Q1857.64 1191.39 1856.47 1191.43 Q1855.3 1191.47 1854.75 1191.47 Q1854.03 1191.47 1854.03 1190.96 Q1854.03 1190.38 1854.3 1190.28 Q1854.58 1190.18 1855.79 1190.18 Q1857.49 1190.18 1858.42 1190.09 Q1859.34 1190.01 1859.83 1189.73 Q1860.34 1189.44 1860.49 1189.15 Q1860.63 1188.84 1860.79 1188.15 L1866.43 1165.75 Q1866.59 1165.26 1866.59 1164.87 Q1866.59 1164.66 1866.53 1164.58 Q1866.49 1164.5 1866.23 1164.44 Q1865.96 1164.35 1865.41 1164.35 L1863.77 1164.35 Q1862.09 1164.35 1861.04 1164.44 Q1860.02 1164.5 1859.03 1164.8 Q1858.07 1165.11 1857.49 1165.54 Q1856.94 1165.97 1856.33 1166.85 Q1855.71 1167.74 1855.26 1168.8 Q1854.83 1169.87 1854.22 1171.61 Q1854.01 1172.18 1853.89 1172.35 Q1853.79 1172.49 1853.5 1172.49 Q1853.29 1172.49 1853.13 1172.37 Q1852.99 1172.22 1852.99 1172.04 Q1853.19 1171.36 1853.23 1171.28 L1855.75 1163.88 Q1855.96 1163.29 1856.14 1163.19 Q1856.35 1163.06 1857.11 1163.06 L1880.39 1163.06 Q1880.76 1163.06 1880.88 1163.06 Q1881 1163.06 1881.21 1163.1 Q1881.41 1163.14 1881.47 1163.25 Q1881.54 1163.35 1881.54 1163.51 Z" fill="#000000" fill-rule="evenodd" fill-opacity="1" /><path clip-path="url(#clip250)" d="M 0 0 M1888.9 1185.09 Q1888.94 1184.58 1889.74 1184.58 L1915.46 1184.58 Q1916.67 1184.58 1916.69 1185.05 Q1916.69 1185.57 1915.55 1185.55 L1890.03 1185.55 Q1888.9 1185.57 1888.9 1185.09 M1888.9 1176.9 Q1888.9 1176.38 1889.78 1176.4 L1915.42 1176.4 Q1916.67 1176.4 1916.69 1176.9 Q1916.69 1177.37 1915.63 1177.37 L1889.74 1177.37 Q1888.9 1177.37 1888.9 1176.9 Z" fill="#000000" fill-rule="evenodd" fill-opacity="1" /><path clip-path="url(#clip250)" d="M 0 0 M1932.88 1184.7 Q1932.88 1183.45 1933.55 1182.98 Q1934.23 1182.49 1934.95 1182.49 Q1935.91 1182.49 1936.46 1183.11 Q1937.04 1183.7 1937.04 1184.54 Q1937.04 1185.38 1936.46 1186 Q1935.91 1186.59 1934.95 1186.59 Q1934.48 1186.59 1934.23 1186.51 Q1934.78 1188.43 1936.46 1189.83 Q1938.17 1191.22 1940.4 1191.22 Q1943.21 1191.22 1944.89 1188.5 Q1945.89 1186.73 1945.89 1182.74 Q1945.89 1179.21 1945.13 1177.45 Q1943.97 1174.76 1941.57 1174.76 Q1938.17 1174.76 1936.16 1177.7 Q1935.91 1178.06 1935.62 1178.09 Q1935.21 1178.09 1935.11 1177.86 Q1935.03 1177.61 1935.03 1176.98 L1935.03 1164.56 Q1935.03 1163.55 1935.44 1163.55 Q1935.6 1163.55 1935.95 1163.68 Q1938.6 1164.85 1941.53 1164.87 Q1944.54 1164.87 1947.24 1163.64 Q1947.45 1163.51 1947.57 1163.51 Q1947.98 1163.51 1948 1163.98 Q1948 1164.15 1947.65 1164.64 Q1947.33 1165.11 1946.61 1165.75 Q1945.89 1166.36 1944.97 1166.96 Q1944.05 1167.55 1942.69 1167.96 Q1941.36 1168.35 1939.89 1168.35 Q1938.12 1168.35 1936.32 1167.8 L1936.32 1175.97 Q1938.49 1173.84 1941.65 1173.84 Q1945.01 1173.84 1947.33 1176.55 Q1949.64 1179.25 1949.64 1183.02 Q1949.64 1186.98 1946.9 1189.68 Q1944.17 1192.39 1940.48 1192.39 Q1937.12 1192.39 1934.99 1189.99 Q1932.88 1187.59 1932.88 1184.7 Z" fill="#000000" fill-rule="evenodd" fill-opacity="1" /><path clip-path="url(#clip250)" d="M 0 0 M1953.66 1178.04 Q1953.66 1171.88 1955.22 1168.51 Q1957.39 1163.51 1962.51 1163.51 Q1963.6 1163.51 1964.73 1163.82 Q1965.87 1164.11 1967.31 1165.23 Q1968.76 1166.36 1969.65 1168.21 Q1971.33 1171.77 1971.33 1178.04 Q1971.33 1184.17 1969.77 1187.51 Q1967.49 1192.39 1962.47 1192.39 Q1960.59 1192.39 1958.66 1191.43 Q1956.75 1190.46 1955.54 1188.15 Q1953.66 1184.68 1953.66 1178.04 M1957.14 1177.53 Q1957.14 1183.86 1957.59 1186.39 Q1958.11 1189.11 1959.5 1190.3 Q1960.91 1191.47 1962.47 1191.47 Q1964.15 1191.47 1965.55 1190.22 Q1966.96 1188.95 1967.39 1186.22 Q1967.86 1183.54 1967.84 1177.53 Q1967.84 1171.69 1967.43 1169.35 Q1966.88 1166.63 1965.4 1165.54 Q1963.95 1164.44 1962.47 1164.44 Q1961.92 1164.44 1961.32 1164.6 Q1960.75 1164.76 1959.91 1165.23 Q1959.07 1165.71 1958.41 1166.87 Q1957.78 1168.04 1957.47 1169.81 Q1957.14 1172.08 1957.14 1177.53 Z" fill="#000000" fill-rule="evenodd" fill-opacity="1" /><path clip-path="url(#clip250)" d="M 0 0 M1975.08 1190.79 Q1974.44 1190.12 1974.44 1189.23 Q1974.44 1188.35 1975.08 1187.72 Q1975.71 1187.06 1976.67 1187.06 Q1977.6 1187.06 1978.21 1187.68 Q1978.85 1188.27 1978.85 1189.25 Q1978.85 1190.22 1978.17 1190.85 Q1977.51 1191.47 1976.67 1191.47 Q1975.71 1191.47 1975.08 1190.79 Z" fill="#000000" fill-rule="evenodd" fill-opacity="1" /><path clip-path="url(#clip250)" d="M 0 0 M1985.99 1178.04 Q1985.99 1171.88 1987.55 1168.51 Q1989.72 1163.51 1994.84 1163.51 Q1995.93 1163.51 1997.06 1163.82 Q1998.2 1164.11 1999.64 1165.23 Q2001.09 1166.36 2001.97 1168.21 Q2003.65 1171.77 2003.65 1178.04 Q2003.65 1184.17 2002.1 1187.51 Q1999.82 1192.39 1994.8 1192.39 Q1992.92 1192.39 1990.99 1191.43 Q1989.08 1190.46 1987.87 1188.15 Q1985.99 1184.68 1985.99 1178.04 M1989.47 1177.53 Q1989.47 1183.86 1989.92 1186.39 Q1990.44 1189.11 1991.83 1190.3 Q1993.24 1191.47 1994.8 1191.47 Q1996.48 1191.47 1997.87 1190.22 Q1999.29 1188.95 1999.72 1186.22 Q2000.19 1183.54 2000.17 1177.53 Q2000.17 1171.69 1999.76 1169.35 Q1999.21 1166.63 1997.73 1165.54 Q1996.28 1164.44 1994.8 1164.44 Q1994.25 1164.44 1993.65 1164.6 Q1993.08 1164.76 1992.24 1165.23 Q1991.4 1165.71 1990.74 1166.87 Q1990.11 1168.04 1989.8 1169.81 Q1989.47 1172.08 1989.47 1177.53 Z" fill="#000000" fill-rule="evenodd" fill-opacity="1" /><path clip-path="url(#clip250)" d="M 0 0 M2007.36 1190.79 Q2006.77 1190.12 2006.77 1189.23 Q2006.77 1188.35 2007.34 1187.7 Q2007.94 1187.02 2009 1187.02 Q2010.25 1187.02 2010.97 1188.23 Q2011.69 1189.42 2011.69 1191.43 Q2011.69 1193.6 2010.81 1195.61 Q2009.93 1197.64 2009.06 1198.6 Q2008.2 1199.56 2007.86 1199.56 Q2007.45 1199.56 2007.45 1199.11 Q2007.45 1198.95 2007.73 1198.64 Q2010.75 1195.4 2010.77 1191.43 Q2010.77 1190.79 2010.68 1190.79 L2010.58 1190.87 Q2009.86 1191.47 2009 1191.47 Q2007.96 1191.47 2007.36 1190.79 Z" fill="#000000" fill-rule="evenodd" fill-opacity="1" /><path clip-path="url(#clip250)" d="M 0 0 M2045.53 1185.46 Q2045.02 1187.98 2043.97 1189.75 Q2042.68 1191.94 2040.71 1191.94 Q2039.05 1191.94 2037.94 1190.79 Q2036.84 1189.62 2036.84 1187.78 Q2036.84 1187.23 2037.06 1186.3 Q2037.15 1185.89 2037.15 1185.38 Q2037.15 1182.06 2029.95 1181.82 Q2029.36 1184.17 2028.95 1185.77 Q2028.56 1187.35 2028.44 1187.82 Q2028.31 1188.29 2028.21 1188.68 Q2028.13 1189.07 2027.98 1189.58 Q2027.78 1190.42 2027.64 1190.83 Q2027.49 1191.24 2027.1 1191.59 Q2026.73 1191.94 2026.14 1191.94 Q2025.63 1191.94 2025.28 1191.63 Q2024.93 1191.32 2024.93 1190.79 Q2024.93 1190.42 2025.09 1189.83 L2028.95 1174.44 Q2029.05 1174.01 2029.26 1173.7 Q2029.46 1173.39 2029.64 1173.25 Q2029.85 1173.1 2030.1 1173.02 Q2030.34 1172.94 2030.44 1172.94 Q2030.55 1172.92 2030.63 1172.92 Q2031.18 1172.92 2031.51 1173.23 Q2031.86 1173.51 2031.86 1174.05 Q2031.86 1174.13 2031.71 1174.7 Q2031.59 1175.26 2031.39 1176.1 Q2031.18 1176.94 2031.1 1177.33 L2030.26 1180.61 Q2031.43 1180.22 2032.47 1179.52 Q2033.54 1178.82 2035.63 1177.02 Q2036.59 1176.22 2037.17 1175.77 Q2037.76 1175.3 2038.74 1174.66 Q2039.73 1174.01 2040.67 1173.7 Q2041.61 1173.37 2042.52 1173.37 Q2043.21 1173.37 2043.62 1173.7 Q2044.03 1174.01 2044.11 1174.29 Q2044.2 1174.56 2044.2 1174.85 Q2044.2 1175.69 2043.54 1176.4 Q2042.88 1177.12 2041.92 1177.12 Q2041.06 1177.12 2040.69 1176.65 Q2040.32 1176.18 2040.32 1175.65 Q2040.32 1175.24 2040.53 1174.72 Q2039.38 1175.22 2038.4 1175.93 Q2037.41 1176.63 2035.71 1178.09 Q2033.29 1180.15 2031.86 1180.93 Q2032.68 1180.95 2033.29 1181.02 Q2033.93 1181.06 2034.99 1181.2 Q2036.06 1181.34 2036.84 1181.65 Q2037.62 1181.94 2038.38 1182.39 Q2039.15 1182.84 2039.56 1183.58 Q2039.99 1184.32 2039.99 1185.26 Q2039.99 1185.71 2039.79 1186.63 Q2039.44 1188.15 2039.44 1188.99 Q2039.44 1190.05 2039.77 1190.53 Q2040.12 1191 2040.79 1191 Q2042.08 1191 2042.9 1189.66 Q2043.74 1188.31 2044.44 1185.81 Q2044.54 1185.34 2044.65 1185.2 Q2044.75 1185.05 2045.04 1185.05 Q2045.53 1185.05 2045.53 1185.46 Z" fill="#000000" fill-rule="evenodd" fill-opacity="1" /><path clip-path="url(#clip250)" d="M 0 0 M2060.5 1185.09 Q2060.54 1184.58 2061.34 1184.58 L2087.06 1184.58 Q2088.27 1184.58 2088.29 1185.05 Q2088.29 1185.57 2087.15 1185.55 L2061.63 1185.55 Q2060.5 1185.57 2060.5 1185.09 M2060.5 1176.9 Q2060.5 1176.38 2061.38 1176.4 L2087.02 1176.4 Q2088.27 1176.4 2088.29 1176.9 Q2088.29 1177.37 2087.23 1177.37 L2061.34 1177.37 Q2060.5 1177.37 2060.5 1176.9 Z" fill="#000000" fill-rule="evenodd" fill-opacity="1" /><path clip-path="url(#clip250)" d="M 0 0 M2104.48 1167.51 L2104.48 1166.2 Q2109.52 1166.2 2112.12 1163.51 Q2112.84 1163.51 2112.96 1163.68 Q2113.09 1163.84 2113.09 1164.6 L2113.09 1188.15 Q2113.09 1189.4 2113.7 1189.79 Q2114.32 1190.18 2117 1190.18 L2118.33 1190.18 L2118.33 1191.47 Q2116.86 1191.35 2111.53 1191.35 Q2106.2 1191.35 2104.74 1191.47 L2104.74 1190.18 L2106.08 1190.18 Q2108.72 1190.18 2109.36 1189.81 Q2109.99 1189.42 2109.99 1188.15 L2109.99 1166.4 Q2107.8 1167.51 2104.48 1167.51 Z" fill="#000000" fill-rule="evenodd" fill-opacity="1" /><path clip-path="url(#clip250)" d="M 0 0 M2121.64 1190.79 Q2121.01 1190.12 2121.01 1189.23 Q2121.01 1188.35 2121.64 1187.72 Q2122.28 1187.06 2123.24 1187.06 Q2124.17 1187.06 2124.78 1187.68 Q2125.42 1188.27 2125.42 1189.25 Q2125.42 1190.22 2124.74 1190.85 Q2124.08 1191.47 2123.24 1191.47 Q2122.28 1191.47 2121.64 1190.79 Z" fill="#000000" fill-rule="evenodd" fill-opacity="1" /><path clip-path="url(#clip250)" d="M 0 0 M2132.56 1178.04 Q2132.56 1171.88 2134.11 1168.51 Q2136.29 1163.51 2141.41 1163.51 Q2142.5 1163.51 2143.62 1163.82 Q2144.77 1164.11 2146.21 1165.23 Q2147.66 1166.36 2148.54 1168.21 Q2150.22 1171.77 2150.22 1178.04 Q2150.22 1184.17 2148.67 1187.51 Q2146.39 1192.39 2141.37 1192.39 Q2139.48 1192.39 2137.56 1191.43 Q2135.65 1190.46 2134.44 1188.15 Q2132.56 1184.68 2132.56 1178.04 M2136.04 1177.53 Q2136.04 1183.86 2136.49 1186.39 Q2137 1189.11 2138.4 1190.3 Q2139.81 1191.47 2141.37 1191.47 Q2143.05 1191.47 2144.44 1190.22 Q2145.86 1188.95 2146.29 1186.22 Q2146.76 1183.54 2146.74 1177.53 Q2146.74 1171.69 2146.33 1169.35 Q2145.78 1166.63 2144.3 1165.54 Q2142.84 1164.44 2141.37 1164.44 Q2140.82 1164.44 2140.22 1164.6 Q2139.65 1164.76 2138.81 1165.23 Q2137.97 1165.71 2137.31 1166.87 Q2136.68 1168.04 2136.37 1169.81 Q2136.04 1172.08 2136.04 1177.53 Z" fill="#000000" fill-rule="evenodd" fill-opacity="1" /><polyline clip-path="url(#clip250)" style="stroke:#5500aa; stroke-width:3.5; stroke-opacity:1; fill:none" points="
  1691.4,1234.33 1829.9,1234.33 
  "/>
<path clip-path="url(#clip250)" d="M 0 0 M1881.54 1216.43 Q1881.54 1216.82 1881.45 1217.15 L1880.31 1224.45 Q1880.24 1225 1880.12 1225.21 Q1880.02 1225.41 1879.69 1225.41 Q1879.18 1225.41 1879.18 1224.88 Q1879.18 1224.57 1879.3 1224.08 Q1879.65 1221.76 1879.65 1220.72 Q1879.65 1220.02 1879.51 1219.51 Q1879.38 1218.97 1879.18 1218.61 Q1878.99 1218.24 1878.56 1217.99 Q1878.13 1217.74 1877.72 1217.6 Q1877.31 1217.46 1876.58 1217.4 Q1875.84 1217.31 1875.2 1217.29 Q1874.57 1217.27 1873.52 1217.27 Q1871.25 1217.27 1870.88 1217.36 Q1870.49 1217.46 1870.28 1217.77 Q1870.1 1218.05 1869.89 1218.91 L1864.32 1241.19 L1864.16 1242.07 Q1864.16 1242.56 1864.46 1242.73 Q1864.77 1242.89 1865.71 1242.99 Q1867.07 1243.1 1868.4 1243.1 Q1868.44 1243.1 1868.52 1243.1 Q1868.97 1243.1 1869.16 1243.12 Q1869.34 1243.12 1869.53 1243.16 Q1869.71 1243.2 1869.75 1243.3 Q1869.81 1243.38 1869.81 1243.55 Q1869.81 1243.94 1869.65 1244.14 Q1869.48 1244.33 1869.32 1244.37 Q1869.18 1244.39 1868.89 1244.39 Q1868.32 1244.39 1867.09 1244.35 Q1865.86 1244.31 1865.24 1244.31 L1861.76 1244.27 L1858.19 1244.31 Q1857.64 1244.31 1856.47 1244.35 Q1855.3 1244.39 1854.75 1244.39 Q1854.03 1244.39 1854.03 1243.88 Q1854.03 1243.3 1854.3 1243.2 Q1854.58 1243.1 1855.79 1243.1 Q1857.49 1243.1 1858.42 1243.01 Q1859.34 1242.93 1859.83 1242.65 Q1860.34 1242.36 1860.49 1242.07 Q1860.63 1241.76 1860.79 1241.07 L1866.43 1218.67 Q1866.59 1218.18 1866.59 1217.79 Q1866.59 1217.58 1866.53 1217.5 Q1866.49 1217.42 1866.23 1217.36 Q1865.96 1217.27 1865.41 1217.27 L1863.77 1217.27 Q1862.09 1217.27 1861.04 1217.36 Q1860.02 1217.42 1859.03 1217.72 Q1858.07 1218.03 1857.49 1218.46 Q1856.94 1218.89 1856.33 1219.77 Q1855.71 1220.66 1855.26 1221.72 Q1854.83 1222.79 1854.22 1224.53 Q1854.01 1225.1 1853.89 1225.27 Q1853.79 1225.41 1853.5 1225.41 Q1853.29 1225.41 1853.13 1225.29 Q1852.99 1225.14 1852.99 1224.96 Q1853.19 1224.28 1853.23 1224.2 L1855.75 1216.8 Q1855.96 1216.21 1856.14 1216.11 Q1856.35 1215.98 1857.11 1215.98 L1880.39 1215.98 Q1880.76 1215.98 1880.88 1215.98 Q1881 1215.98 1881.21 1216.02 Q1881.41 1216.06 1881.47 1216.17 Q1881.54 1216.27 1881.54 1216.43 Z" fill="#000000" fill-rule="evenodd" fill-opacity="1" /><path clip-path="url(#clip250)" d="M 0 0 M1888.9 1238.01 Q1888.94 1237.5 1889.74 1237.5 L1915.46 1237.5 Q1916.67 1237.5 1916.69 1237.97 Q1916.69 1238.49 1915.55 1238.47 L1890.03 1238.47 Q1888.9 1238.49 1888.9 1238.01 M1888.9 1229.82 Q1888.9 1229.3 1889.78 1229.32 L1915.42 1229.32 Q1916.67 1229.32 1916.69 1229.82 Q1916.69 1230.29 1915.63 1230.29 L1889.74 1230.29 Q1888.9 1230.29 1888.9 1229.82 Z" fill="#000000" fill-rule="evenodd" fill-opacity="1" /><path clip-path="url(#clip250)" d="M 0 0 M1932.88 1237.62 Q1932.88 1236.37 1933.55 1235.9 Q1934.23 1235.41 1934.95 1235.41 Q1935.91 1235.41 1936.46 1236.03 Q1937.04 1236.62 1937.04 1237.46 Q1937.04 1238.3 1936.46 1238.92 Q1935.91 1239.51 1934.95 1239.51 Q1934.48 1239.51 1934.23 1239.43 Q1934.78 1241.35 1936.46 1242.75 Q1938.17 1244.14 1940.4 1244.14 Q1943.21 1244.14 1944.89 1241.42 Q1945.89 1239.65 1945.89 1235.66 Q1945.89 1232.13 1945.13 1230.37 Q1943.97 1227.68 1941.57 1227.68 Q1938.17 1227.68 1936.16 1230.62 Q1935.91 1230.98 1935.62 1231.01 Q1935.21 1231.01 1935.11 1230.78 Q1935.03 1230.53 1935.03 1229.9 L1935.03 1217.48 Q1935.03 1216.47 1935.44 1216.47 Q1935.6 1216.47 1935.95 1216.6 Q1938.6 1217.77 1941.53 1217.79 Q1944.54 1217.79 1947.24 1216.56 Q1947.45 1216.43 1947.57 1216.43 Q1947.98 1216.43 1948 1216.9 Q1948 1217.07 1947.65 1217.56 Q1947.33 1218.03 1946.61 1218.67 Q1945.89 1219.28 1944.97 1219.88 Q1944.05 1220.47 1942.69 1220.88 Q1941.36 1221.27 1939.89 1221.27 Q1938.12 1221.27 1936.32 1220.72 L1936.32 1228.89 Q1938.49 1226.76 1941.65 1226.76 Q1945.01 1226.76 1947.33 1229.47 Q1949.64 1232.17 1949.64 1235.94 Q1949.64 1239.9 1946.9 1242.6 Q1944.17 1245.31 1940.48 1245.31 Q1937.12 1245.31 1934.99 1242.91 Q1932.88 1240.51 1932.88 1237.62 Z" fill="#000000" fill-rule="evenodd" fill-opacity="1" /><path clip-path="url(#clip250)" d="M 0 0 M1953.66 1230.96 Q1953.66 1224.8 1955.22 1221.43 Q1957.39 1216.43 1962.51 1216.43 Q1963.6 1216.43 1964.73 1216.74 Q1965.87 1217.03 1967.31 1218.15 Q1968.76 1219.28 1969.65 1221.13 Q1971.33 1224.69 1971.33 1230.96 Q1971.33 1237.09 1969.77 1240.43 Q1967.49 1245.31 1962.47 1245.31 Q1960.59 1245.31 1958.66 1244.35 Q1956.75 1243.38 1955.54 1241.07 Q1953.66 1237.6 1953.66 1230.96 M1957.14 1230.45 Q1957.14 1236.78 1957.59 1239.31 Q1958.11 1242.03 1959.5 1243.22 Q1960.91 1244.39 1962.47 1244.39 Q1964.15 1244.39 1965.55 1243.14 Q1966.96 1241.87 1967.39 1239.14 Q1967.86 1236.46 1967.84 1230.45 Q1967.84 1224.61 1967.43 1222.27 Q1966.88 1219.55 1965.4 1218.46 Q1963.95 1217.36 1962.47 1217.36 Q1961.92 1217.36 1961.32 1217.52 Q1960.75 1217.68 1959.91 1218.15 Q1959.07 1218.63 1958.41 1219.79 Q1957.78 1220.96 1957.47 1222.73 Q1957.14 1225 1957.14 1230.45 Z" fill="#000000" fill-rule="evenodd" fill-opacity="1" /><path clip-path="url(#clip250)" d="M 0 0 M1975.08 1243.71 Q1974.44 1243.04 1974.44 1242.15 Q1974.44 1241.27 1975.08 1240.64 Q1975.71 1239.98 1976.67 1239.98 Q1977.6 1239.98 1978.21 1240.6 Q1978.85 1241.19 1978.85 1242.17 Q1978.85 1243.14 1978.17 1243.77 Q1977.51 1244.39 1976.67 1244.39 Q1975.71 1244.39 1975.08 1243.71 Z" fill="#000000" fill-rule="evenodd" fill-opacity="1" /><path clip-path="url(#clip250)" d="M 0 0 M1985.99 1230.96 Q1985.99 1224.8 1987.55 1221.43 Q1989.72 1216.43 1994.84 1216.43 Q1995.93 1216.43 1997.06 1216.74 Q1998.2 1217.03 1999.64 1218.15 Q2001.09 1219.28 2001.97 1221.13 Q2003.65 1224.69 2003.65 1230.96 Q2003.65 1237.09 2002.1 1240.43 Q1999.82 1245.31 1994.8 1245.31 Q1992.92 1245.31 1990.99 1244.35 Q1989.08 1243.38 1987.87 1241.07 Q1985.99 1237.6 1985.99 1230.96 M1989.47 1230.45 Q1989.47 1236.78 1989.92 1239.31 Q1990.44 1242.03 1991.83 1243.22 Q1993.24 1244.39 1994.8 1244.39 Q1996.48 1244.39 1997.87 1243.14 Q1999.29 1241.87 1999.72 1239.14 Q2000.19 1236.46 2000.17 1230.45 Q2000.17 1224.61 1999.76 1222.27 Q1999.21 1219.55 1997.73 1218.46 Q1996.28 1217.36 1994.8 1217.36 Q1994.25 1217.36 1993.65 1217.52 Q1993.08 1217.68 1992.24 1218.15 Q1991.4 1218.63 1990.74 1219.79 Q1990.11 1220.96 1989.8 1222.73 Q1989.47 1225 1989.47 1230.45 Z" fill="#000000" fill-rule="evenodd" fill-opacity="1" /><path clip-path="url(#clip250)" d="M 0 0 M2007.36 1243.71 Q2006.77 1243.04 2006.77 1242.15 Q2006.77 1241.27 2007.34 1240.62 Q2007.94 1239.94 2009 1239.94 Q2010.25 1239.94 2010.97 1241.15 Q2011.69 1242.34 2011.69 1244.35 Q2011.69 1246.52 2010.81 1248.53 Q2009.93 1250.56 2009.06 1251.52 Q2008.2 1252.48 2007.86 1252.48 Q2007.45 1252.48 2007.45 1252.03 Q2007.45 1251.87 2007.73 1251.56 Q2010.75 1248.32 2010.77 1244.35 Q2010.77 1243.71 2010.68 1243.71 L2010.58 1243.79 Q2009.86 1244.39 2009 1244.39 Q2007.96 1244.39 2007.36 1243.71 Z" fill="#000000" fill-rule="evenodd" fill-opacity="1" /><path clip-path="url(#clip250)" d="M 0 0 M2045.53 1238.38 Q2045.02 1240.9 2043.97 1242.67 Q2042.68 1244.86 2040.71 1244.86 Q2039.05 1244.86 2037.94 1243.71 Q2036.84 1242.54 2036.84 1240.7 Q2036.84 1240.15 2037.06 1239.22 Q2037.15 1238.81 2037.15 1238.3 Q2037.15 1234.98 2029.95 1234.74 Q2029.36 1237.09 2028.95 1238.69 Q2028.56 1240.27 2028.44 1240.74 Q2028.31 1241.21 2028.21 1241.6 Q2028.13 1241.99 2027.98 1242.5 Q2027.78 1243.34 2027.64 1243.75 Q2027.49 1244.16 2027.1 1244.51 Q2026.73 1244.86 2026.14 1244.86 Q2025.63 1244.86 2025.28 1244.55 Q2024.93 1244.24 2024.93 1243.71 Q2024.93 1243.34 2025.09 1242.75 L2028.95 1227.36 Q2029.05 1226.93 2029.26 1226.62 Q2029.46 1226.31 2029.64 1226.17 Q2029.85 1226.02 2030.1 1225.94 Q2030.34 1225.86 2030.44 1225.86 Q2030.55 1225.84 2030.63 1225.84 Q2031.18 1225.84 2031.51 1226.15 Q2031.86 1226.43 2031.86 1226.97 Q2031.86 1227.05 2031.71 1227.62 Q2031.59 1228.18 2031.39 1229.02 Q2031.18 1229.86 2031.1 1230.25 L2030.26 1233.53 Q2031.43 1233.14 2032.47 1232.44 Q2033.54 1231.74 2035.63 1229.94 Q2036.59 1229.14 2037.17 1228.69 Q2037.76 1228.22 2038.74 1227.58 Q2039.73 1226.93 2040.67 1226.62 Q2041.61 1226.29 2042.52 1226.29 Q2043.21 1226.29 2043.62 1226.62 Q2044.03 1226.93 2044.11 1227.21 Q2044.2 1227.48 2044.2 1227.77 Q2044.2 1228.61 2043.54 1229.32 Q2042.88 1230.04 2041.92 1230.04 Q2041.06 1230.04 2040.69 1229.57 Q2040.32 1229.1 2040.32 1228.57 Q2040.32 1228.16 2040.53 1227.64 Q2039.38 1228.14 2038.4 1228.85 Q2037.41 1229.55 2035.71 1231.01 Q2033.29 1233.07 2031.86 1233.85 Q2032.68 1233.87 2033.29 1233.94 Q2033.93 1233.98 2034.99 1234.12 Q2036.06 1234.26 2036.84 1234.57 Q2037.62 1234.86 2038.38 1235.31 Q2039.15 1235.76 2039.56 1236.5 Q2039.99 1237.24 2039.99 1238.18 Q2039.99 1238.63 2039.79 1239.55 Q2039.44 1241.07 2039.44 1241.91 Q2039.44 1242.97 2039.77 1243.45 Q2040.12 1243.92 2040.79 1243.92 Q2042.08 1243.92 2042.9 1242.58 Q2043.74 1241.23 2044.44 1238.73 Q2044.54 1238.26 2044.65 1238.12 Q2044.75 1237.97 2045.04 1237.97 Q2045.53 1237.97 2045.53 1238.38 Z" fill="#000000" fill-rule="evenodd" fill-opacity="1" /><path clip-path="url(#clip250)" d="M 0 0 M2060.5 1238.01 Q2060.54 1237.5 2061.34 1237.5 L2087.06 1237.5 Q2088.27 1237.5 2088.29 1237.97 Q2088.29 1238.49 2087.15 1238.47 L2061.63 1238.47 Q2060.5 1238.49 2060.5 1238.01 M2060.5 1229.82 Q2060.5 1229.3 2061.38 1229.32 L2087.02 1229.32 Q2088.27 1229.32 2088.29 1229.82 Q2088.29 1230.29 2087.23 1230.29 L2061.34 1230.29 Q2060.5 1230.29 2060.5 1229.82 Z" fill="#000000" fill-rule="evenodd" fill-opacity="1" /><path clip-path="url(#clip250)" d="M 0 0 M2104.48 1220.43 L2104.48 1219.12 Q2109.52 1219.12 2112.12 1216.43 Q2112.84 1216.43 2112.96 1216.6 Q2113.09 1216.76 2113.09 1217.52 L2113.09 1241.07 Q2113.09 1242.32 2113.7 1242.71 Q2114.32 1243.1 2117 1243.1 L2118.33 1243.1 L2118.33 1244.39 Q2116.86 1244.27 2111.53 1244.27 Q2106.2 1244.27 2104.74 1244.39 L2104.74 1243.1 L2106.08 1243.1 Q2108.72 1243.1 2109.36 1242.73 Q2109.99 1242.34 2109.99 1241.07 L2109.99 1219.32 Q2107.8 1220.43 2104.48 1220.43 Z" fill="#000000" fill-rule="evenodd" fill-opacity="1" /><path clip-path="url(#clip250)" d="M 0 0 M2121.88 1230.96 Q2121.88 1224.8 2123.44 1221.43 Q2125.61 1216.43 2130.74 1216.43 Q2131.82 1216.43 2132.95 1216.74 Q2134.1 1217.03 2135.53 1218.15 Q2136.99 1219.28 2137.87 1221.13 Q2139.55 1224.69 2139.55 1230.96 Q2139.55 1237.09 2137.99 1240.43 Q2135.72 1245.31 2130.7 1245.31 Q2128.81 1245.31 2126.88 1244.35 Q2124.98 1243.38 2123.77 1241.07 Q2121.88 1237.6 2121.88 1230.96 M2125.37 1230.45 Q2125.37 1236.78 2125.82 1239.31 Q2126.33 1242.03 2127.72 1243.22 Q2129.14 1244.39 2130.7 1244.39 Q2132.38 1244.39 2133.77 1243.14 Q2135.18 1241.87 2135.62 1239.14 Q2136.09 1236.46 2136.07 1230.45 Q2136.07 1224.61 2135.66 1222.27 Q2135.1 1219.55 2133.63 1218.46 Q2132.17 1217.36 2130.7 1217.36 Q2130.14 1217.36 2129.55 1217.52 Q2128.97 1217.68 2128.13 1218.15 Q2127.29 1218.63 2126.64 1219.79 Q2126 1220.96 2125.7 1222.73 Q2125.37 1225 2125.37 1230.45 Z" fill="#000000" fill-rule="evenodd" fill-opacity="1" /><path clip-path="url(#clip250)" d="M 0 0 M2143.3 1243.71 Q2142.67 1243.04 2142.67 1242.15 Q2142.67 1241.27 2143.3 1240.64 Q2143.94 1239.98 2144.9 1239.98 Q2145.82 1239.98 2146.44 1240.6 Q2147.07 1241.19 2147.07 1242.17 Q2147.07 1243.14 2146.4 1243.77 Q2145.74 1244.39 2144.9 1244.39 Q2143.94 1244.39 2143.3 1243.71 Z" fill="#000000" fill-rule="evenodd" fill-opacity="1" /><path clip-path="url(#clip250)" d="M 0 0 M2154.21 1230.96 Q2154.21 1224.8 2155.77 1221.43 Q2157.94 1216.43 2163.07 1216.43 Q2164.15 1216.43 2165.28 1216.74 Q2166.43 1217.03 2167.86 1218.15 Q2169.32 1219.28 2170.2 1221.13 Q2171.88 1224.69 2171.88 1230.96 Q2171.88 1237.09 2170.32 1240.43 Q2168.05 1245.31 2163.03 1245.31 Q2161.14 1245.31 2159.21 1244.35 Q2157.31 1243.38 2156.1 1241.07 Q2154.21 1237.6 2154.21 1230.96 M2157.7 1230.45 Q2157.7 1236.78 2158.15 1239.31 Q2158.66 1242.03 2160.05 1243.22 Q2161.47 1244.39 2163.03 1244.39 Q2164.71 1244.39 2166.1 1243.14 Q2167.51 1241.87 2167.94 1239.14 Q2168.42 1236.46 2168.39 1230.45 Q2168.39 1224.61 2167.98 1222.27 Q2167.43 1219.55 2165.96 1218.46 Q2164.5 1217.36 2163.03 1217.36 Q2162.47 1217.36 2161.88 1217.52 Q2161.3 1217.68 2160.46 1218.15 Q2159.62 1218.63 2158.97 1219.79 Q2158.33 1220.96 2158.02 1222.73 Q2157.7 1225 2157.7 1230.45 Z" fill="#000000" fill-rule="evenodd" fill-opacity="1" /><polyline clip-path="url(#clip250)" style="stroke:#aa0055; stroke-width:3.5; stroke-opacity:1; fill:none" points="
  1691.4,1287.25 1829.9,1287.25 
  "/>
<path clip-path="url(#clip250)" d="M 0 0 M1881.54 1269.35 Q1881.54 1269.74 1881.45 1270.07 L1880.31 1277.37 Q1880.24 1277.92 1880.12 1278.13 Q1880.02 1278.33 1879.69 1278.33 Q1879.18 1278.33 1879.18 1277.8 Q1879.18 1277.49 1879.3 1277 Q1879.65 1274.68 1879.65 1273.64 Q1879.65 1272.94 1879.51 1272.43 Q1879.38 1271.89 1879.18 1271.53 Q1878.99 1271.16 1878.56 1270.91 Q1878.13 1270.66 1877.72 1270.52 Q1877.31 1270.38 1876.58 1270.32 Q1875.84 1270.23 1875.2 1270.21 Q1874.57 1270.19 1873.52 1270.19 Q1871.25 1270.19 1870.88 1270.28 Q1870.49 1270.38 1870.28 1270.69 Q1870.1 1270.97 1869.89 1271.83 L1864.32 1294.11 L1864.16 1294.99 Q1864.16 1295.48 1864.46 1295.65 Q1864.77 1295.81 1865.71 1295.91 Q1867.07 1296.02 1868.4 1296.02 Q1868.44 1296.02 1868.52 1296.02 Q1868.97 1296.02 1869.16 1296.04 Q1869.34 1296.04 1869.53 1296.08 Q1869.71 1296.12 1869.75 1296.22 Q1869.81 1296.3 1869.81 1296.47 Q1869.81 1296.86 1869.65 1297.06 Q1869.48 1297.25 1869.32 1297.29 Q1869.18 1297.31 1868.89 1297.31 Q1868.32 1297.31 1867.09 1297.27 Q1865.86 1297.23 1865.24 1297.23 L1861.76 1297.19 L1858.19 1297.23 Q1857.64 1297.23 1856.47 1297.27 Q1855.3 1297.31 1854.75 1297.31 Q1854.03 1297.31 1854.03 1296.8 Q1854.03 1296.22 1854.3 1296.12 Q1854.58 1296.02 1855.79 1296.02 Q1857.49 1296.02 1858.42 1295.93 Q1859.34 1295.85 1859.83 1295.57 Q1860.34 1295.28 1860.49 1294.99 Q1860.63 1294.68 1860.79 1293.99 L1866.43 1271.59 Q1866.59 1271.1 1866.59 1270.71 Q1866.59 1270.5 1866.53 1270.42 Q1866.49 1270.34 1866.23 1270.28 Q1865.96 1270.19 1865.41 1270.19 L1863.77 1270.19 Q1862.09 1270.19 1861.04 1270.28 Q1860.02 1270.34 1859.03 1270.64 Q1858.07 1270.95 1857.49 1271.38 Q1856.94 1271.81 1856.33 1272.69 Q1855.71 1273.58 1855.26 1274.64 Q1854.83 1275.71 1854.22 1277.45 Q1854.01 1278.02 1853.89 1278.19 Q1853.79 1278.33 1853.5 1278.33 Q1853.29 1278.33 1853.13 1278.21 Q1852.99 1278.06 1852.99 1277.88 Q1853.19 1277.2 1853.23 1277.12 L1855.75 1269.72 Q1855.96 1269.13 1856.14 1269.03 Q1856.35 1268.9 1857.11 1268.9 L1880.39 1268.9 Q1880.76 1268.9 1880.88 1268.9 Q1881 1268.9 1881.21 1268.94 Q1881.41 1268.98 1881.47 1269.09 Q1881.54 1269.19 1881.54 1269.35 Z" fill="#000000" fill-rule="evenodd" fill-opacity="1" /><path clip-path="url(#clip250)" d="M 0 0 M1888.9 1290.93 Q1888.94 1290.42 1889.74 1290.42 L1915.46 1290.42 Q1916.67 1290.42 1916.69 1290.89 Q1916.69 1291.41 1915.55 1291.39 L1890.03 1291.39 Q1888.9 1291.41 1888.9 1290.93 M1888.9 1282.74 Q1888.9 1282.22 1889.78 1282.24 L1915.42 1282.24 Q1916.67 1282.24 1916.69 1282.74 Q1916.69 1283.21 1915.63 1283.21 L1889.74 1283.21 Q1888.9 1283.21 1888.9 1282.74 Z" fill="#000000" fill-rule="evenodd" fill-opacity="1" /><path clip-path="url(#clip250)" d="M 0 0 M1932.88 1290.54 Q1932.88 1289.29 1933.55 1288.82 Q1934.23 1288.33 1934.95 1288.33 Q1935.91 1288.33 1936.46 1288.95 Q1937.04 1289.54 1937.04 1290.38 Q1937.04 1291.22 1936.46 1291.84 Q1935.91 1292.43 1934.95 1292.43 Q1934.48 1292.43 1934.23 1292.35 Q1934.78 1294.27 1936.46 1295.67 Q1938.17 1297.06 1940.4 1297.06 Q1943.21 1297.06 1944.89 1294.34 Q1945.89 1292.57 1945.89 1288.58 Q1945.89 1285.05 1945.13 1283.29 Q1943.97 1280.6 1941.57 1280.6 Q1938.17 1280.6 1936.16 1283.54 Q1935.91 1283.9 1935.62 1283.93 Q1935.21 1283.93 1935.11 1283.7 Q1935.03 1283.45 1935.03 1282.82 L1935.03 1270.4 Q1935.03 1269.39 1935.44 1269.39 Q1935.6 1269.39 1935.95 1269.52 Q1938.6 1270.69 1941.53 1270.71 Q1944.54 1270.71 1947.24 1269.48 Q1947.45 1269.35 1947.57 1269.35 Q1947.98 1269.35 1948 1269.82 Q1948 1269.99 1947.65 1270.48 Q1947.33 1270.95 1946.61 1271.59 Q1945.89 1272.2 1944.97 1272.8 Q1944.05 1273.39 1942.69 1273.8 Q1941.36 1274.19 1939.89 1274.19 Q1938.12 1274.19 1936.32 1273.64 L1936.32 1281.81 Q1938.49 1279.68 1941.65 1279.68 Q1945.01 1279.68 1947.33 1282.39 Q1949.64 1285.09 1949.64 1288.86 Q1949.64 1292.82 1946.9 1295.52 Q1944.17 1298.23 1940.48 1298.23 Q1937.12 1298.23 1934.99 1295.83 Q1932.88 1293.43 1932.88 1290.54 Z" fill="#000000" fill-rule="evenodd" fill-opacity="1" /><path clip-path="url(#clip250)" d="M 0 0 M1953.66 1283.88 Q1953.66 1277.72 1955.22 1274.35 Q1957.39 1269.35 1962.51 1269.35 Q1963.6 1269.35 1964.73 1269.66 Q1965.87 1269.95 1967.31 1271.07 Q1968.76 1272.2 1969.65 1274.05 Q1971.33 1277.61 1971.33 1283.88 Q1971.33 1290.01 1969.77 1293.35 Q1967.49 1298.23 1962.47 1298.23 Q1960.59 1298.23 1958.66 1297.27 Q1956.75 1296.3 1955.54 1293.99 Q1953.66 1290.52 1953.66 1283.88 M1957.14 1283.37 Q1957.14 1289.7 1957.59 1292.23 Q1958.11 1294.95 1959.5 1296.14 Q1960.91 1297.31 1962.47 1297.31 Q1964.15 1297.31 1965.55 1296.06 Q1966.96 1294.79 1967.39 1292.06 Q1967.86 1289.38 1967.84 1283.37 Q1967.84 1277.53 1967.43 1275.19 Q1966.88 1272.47 1965.4 1271.38 Q1963.95 1270.28 1962.47 1270.28 Q1961.92 1270.28 1961.32 1270.44 Q1960.75 1270.6 1959.91 1271.07 Q1959.07 1271.55 1958.41 1272.71 Q1957.78 1273.88 1957.47 1275.65 Q1957.14 1277.92 1957.14 1283.37 Z" fill="#000000" fill-rule="evenodd" fill-opacity="1" /><path clip-path="url(#clip250)" d="M 0 0 M1975.08 1296.63 Q1974.44 1295.96 1974.44 1295.07 Q1974.44 1294.19 1975.08 1293.56 Q1975.71 1292.9 1976.67 1292.9 Q1977.6 1292.9 1978.21 1293.52 Q1978.85 1294.11 1978.85 1295.09 Q1978.85 1296.06 1978.17 1296.69 Q1977.51 1297.31 1976.67 1297.31 Q1975.71 1297.31 1975.08 1296.63 Z" fill="#000000" fill-rule="evenodd" fill-opacity="1" /><path clip-path="url(#clip250)" d="M 0 0 M1985.99 1283.88 Q1985.99 1277.72 1987.55 1274.35 Q1989.72 1269.35 1994.84 1269.35 Q1995.93 1269.35 1997.06 1269.66 Q1998.2 1269.95 1999.64 1271.07 Q2001.09 1272.2 2001.97 1274.05 Q2003.65 1277.61 2003.65 1283.88 Q2003.65 1290.01 2002.1 1293.35 Q1999.82 1298.23 1994.8 1298.23 Q1992.92 1298.23 1990.99 1297.27 Q1989.08 1296.3 1987.87 1293.99 Q1985.99 1290.52 1985.99 1283.88 M1989.47 1283.37 Q1989.47 1289.7 1989.92 1292.23 Q1990.44 1294.95 1991.83 1296.14 Q1993.24 1297.31 1994.8 1297.31 Q1996.48 1297.31 1997.87 1296.06 Q1999.29 1294.79 1999.72 1292.06 Q2000.19 1289.38 2000.17 1283.37 Q2000.17 1277.53 1999.76 1275.19 Q1999.21 1272.47 1997.73 1271.38 Q1996.28 1270.28 1994.8 1270.28 Q1994.25 1270.28 1993.65 1270.44 Q1993.08 1270.6 1992.24 1271.07 Q1991.4 1271.55 1990.74 1272.71 Q1990.11 1273.88 1989.8 1275.65 Q1989.47 1277.92 1989.47 1283.37 Z" fill="#000000" fill-rule="evenodd" fill-opacity="1" /><path clip-path="url(#clip250)" d="M 0 0 M2007.36 1296.63 Q2006.77 1295.96 2006.77 1295.07 Q2006.77 1294.19 2007.34 1293.54 Q2007.94 1292.86 2009 1292.86 Q2010.25 1292.86 2010.97 1294.07 Q2011.69 1295.26 2011.69 1297.27 Q2011.69 1299.44 2010.81 1301.45 Q2009.93 1303.48 2009.06 1304.44 Q2008.2 1305.4 2007.86 1305.4 Q2007.45 1305.4 2007.45 1304.95 Q2007.45 1304.79 2007.73 1304.48 Q2010.75 1301.24 2010.77 1297.27 Q2010.77 1296.63 2010.68 1296.63 L2010.58 1296.71 Q2009.86 1297.31 2009 1297.31 Q2007.96 1297.31 2007.36 1296.63 Z" fill="#000000" fill-rule="evenodd" fill-opacity="1" /><path clip-path="url(#clip250)" d="M 0 0 M2045.53 1291.3 Q2045.02 1293.82 2043.97 1295.59 Q2042.68 1297.78 2040.71 1297.78 Q2039.05 1297.78 2037.94 1296.63 Q2036.84 1295.46 2036.84 1293.62 Q2036.84 1293.07 2037.06 1292.14 Q2037.15 1291.73 2037.15 1291.22 Q2037.15 1287.9 2029.95 1287.66 Q2029.36 1290.01 2028.95 1291.61 Q2028.56 1293.19 2028.44 1293.66 Q2028.31 1294.13 2028.21 1294.52 Q2028.13 1294.91 2027.98 1295.42 Q2027.78 1296.26 2027.64 1296.67 Q2027.49 1297.08 2027.1 1297.43 Q2026.73 1297.78 2026.14 1297.78 Q2025.63 1297.78 2025.28 1297.47 Q2024.93 1297.16 2024.93 1296.63 Q2024.93 1296.26 2025.09 1295.67 L2028.95 1280.28 Q2029.05 1279.85 2029.26 1279.54 Q2029.46 1279.23 2029.64 1279.09 Q2029.85 1278.94 2030.1 1278.86 Q2030.34 1278.78 2030.44 1278.78 Q2030.55 1278.76 2030.63 1278.76 Q2031.18 1278.76 2031.51 1279.07 Q2031.86 1279.35 2031.86 1279.89 Q2031.86 1279.97 2031.71 1280.54 Q2031.59 1281.1 2031.39 1281.94 Q2031.18 1282.78 2031.1 1283.17 L2030.26 1286.45 Q2031.43 1286.06 2032.47 1285.36 Q2033.54 1284.66 2035.63 1282.86 Q2036.59 1282.06 2037.17 1281.61 Q2037.76 1281.14 2038.74 1280.5 Q2039.73 1279.85 2040.67 1279.54 Q2041.61 1279.21 2042.52 1279.21 Q2043.21 1279.21 2043.62 1279.54 Q2044.03 1279.85 2044.11 1280.13 Q2044.2 1280.4 2044.2 1280.69 Q2044.2 1281.53 2043.54 1282.24 Q2042.88 1282.96 2041.92 1282.96 Q2041.06 1282.96 2040.69 1282.49 Q2040.32 1282.02 2040.32 1281.49 Q2040.32 1281.08 2040.53 1280.56 Q2039.38 1281.06 2038.4 1281.77 Q2037.41 1282.47 2035.71 1283.93 Q2033.29 1285.99 2031.86 1286.77 Q2032.68 1286.79 2033.29 1286.86 Q2033.93 1286.9 2034.99 1287.04 Q2036.06 1287.18 2036.84 1287.49 Q2037.62 1287.78 2038.38 1288.23 Q2039.15 1288.68 2039.56 1289.42 Q2039.99 1290.16 2039.99 1291.1 Q2039.99 1291.55 2039.79 1292.47 Q2039.44 1293.99 2039.44 1294.83 Q2039.44 1295.89 2039.77 1296.37 Q2040.12 1296.84 2040.79 1296.84 Q2042.08 1296.84 2042.9 1295.5 Q2043.74 1294.15 2044.44 1291.65 Q2044.54 1291.18 2044.65 1291.04 Q2044.75 1290.89 2045.04 1290.89 Q2045.53 1290.89 2045.53 1291.3 Z" fill="#000000" fill-rule="evenodd" fill-opacity="1" /><path clip-path="url(#clip250)" d="M 0 0 M2060.5 1290.93 Q2060.54 1290.42 2061.34 1290.42 L2087.06 1290.42 Q2088.27 1290.42 2088.29 1290.89 Q2088.29 1291.41 2087.15 1291.39 L2061.63 1291.39 Q2060.5 1291.41 2060.5 1290.93 M2060.5 1282.74 Q2060.5 1282.22 2061.38 1282.24 L2087.02 1282.24 Q2088.27 1282.24 2088.29 1282.74 Q2088.29 1283.21 2087.23 1283.21 L2061.34 1283.21 Q2060.5 1283.21 2060.5 1282.74 Z" fill="#000000" fill-rule="evenodd" fill-opacity="1" /><path clip-path="url(#clip250)" d="M 0 0 M2104.48 1273.35 L2104.48 1272.04 Q2109.52 1272.04 2112.12 1269.35 Q2112.84 1269.35 2112.96 1269.52 Q2113.09 1269.68 2113.09 1270.44 L2113.09 1293.99 Q2113.09 1295.24 2113.7 1295.63 Q2114.32 1296.02 2117 1296.02 L2118.33 1296.02 L2118.33 1297.31 Q2116.86 1297.19 2111.53 1297.19 Q2106.2 1297.19 2104.74 1297.31 L2104.74 1296.02 L2106.08 1296.02 Q2108.72 1296.02 2109.36 1295.65 Q2109.99 1295.26 2109.99 1293.99 L2109.99 1272.24 Q2107.8 1273.35 2104.48 1273.35 Z" fill="#000000" fill-rule="evenodd" fill-opacity="1" /><path clip-path="url(#clip250)" d="M 0 0 M2121.88 1283.88 Q2121.88 1277.72 2123.44 1274.35 Q2125.61 1269.35 2130.74 1269.35 Q2131.82 1269.35 2132.95 1269.66 Q2134.1 1269.95 2135.53 1271.07 Q2136.99 1272.2 2137.87 1274.05 Q2139.55 1277.61 2139.55 1283.88 Q2139.55 1290.01 2137.99 1293.35 Q2135.72 1298.23 2130.7 1298.23 Q2128.81 1298.23 2126.88 1297.27 Q2124.98 1296.3 2123.77 1293.99 Q2121.88 1290.52 2121.88 1283.88 M2125.37 1283.37 Q2125.37 1289.7 2125.82 1292.23 Q2126.33 1294.95 2127.72 1296.14 Q2129.14 1297.31 2130.7 1297.31 Q2132.38 1297.31 2133.77 1296.06 Q2135.18 1294.79 2135.62 1292.06 Q2136.09 1289.38 2136.07 1283.37 Q2136.07 1277.53 2135.66 1275.19 Q2135.1 1272.47 2133.63 1271.38 Q2132.17 1270.28 2130.7 1270.28 Q2130.14 1270.28 2129.55 1270.44 Q2128.97 1270.6 2128.13 1271.07 Q2127.29 1271.55 2126.64 1272.71 Q2126 1273.88 2125.7 1275.65 Q2125.37 1277.92 2125.37 1283.37 Z" fill="#000000" fill-rule="evenodd" fill-opacity="1" /><path clip-path="url(#clip250)" d="M 0 0 M2142.67 1283.88 Q2142.67 1277.72 2144.22 1274.35 Q2146.4 1269.35 2151.52 1269.35 Q2152.6 1269.35 2153.73 1269.66 Q2154.88 1269.95 2156.31 1271.07 Q2157.77 1272.2 2158.65 1274.05 Q2160.33 1277.61 2160.33 1283.88 Q2160.33 1290.01 2158.77 1293.35 Q2156.5 1298.23 2151.48 1298.23 Q2149.59 1298.23 2147.67 1297.27 Q2145.76 1296.3 2144.55 1293.99 Q2142.67 1290.52 2142.67 1283.88 M2146.15 1283.37 Q2146.15 1289.7 2146.6 1292.23 Q2147.11 1294.95 2148.51 1296.14 Q2149.92 1297.31 2151.48 1297.31 Q2153.16 1297.31 2154.55 1296.06 Q2155.97 1294.79 2156.4 1292.06 Q2156.87 1289.38 2156.85 1283.37 Q2156.85 1277.53 2156.44 1275.19 Q2155.88 1272.47 2154.41 1271.38 Q2152.95 1270.28 2151.48 1270.28 Q2150.92 1270.28 2150.33 1270.44 Q2149.76 1270.6 2148.92 1271.07 Q2148.08 1271.55 2147.42 1272.71 Q2146.78 1273.88 2146.48 1275.65 Q2146.15 1277.92 2146.15 1283.37 Z" fill="#000000" fill-rule="evenodd" fill-opacity="1" /><path clip-path="url(#clip250)" d="M 0 0 M2164.08 1296.63 Q2163.45 1295.96 2163.45 1295.07 Q2163.45 1294.19 2164.08 1293.56 Q2164.72 1292.9 2165.68 1292.9 Q2166.6 1292.9 2167.22 1293.52 Q2167.85 1294.11 2167.85 1295.09 Q2167.85 1296.06 2167.18 1296.69 Q2166.52 1297.31 2165.68 1297.31 Q2164.72 1297.31 2164.08 1296.63 Z" fill="#000000" fill-rule="evenodd" fill-opacity="1" /><path clip-path="url(#clip250)" d="M 0 0 M2174.99 1283.88 Q2174.99 1277.72 2176.55 1274.35 Q2178.72 1269.35 2183.85 1269.35 Q2184.93 1269.35 2186.06 1269.66 Q2187.21 1269.95 2188.64 1271.07 Q2190.1 1272.2 2190.98 1274.05 Q2192.66 1277.61 2192.66 1283.88 Q2192.66 1290.01 2191.1 1293.35 Q2188.83 1298.23 2183.81 1298.23 Q2181.92 1298.23 2179.99 1297.27 Q2178.09 1296.3 2176.88 1293.99 Q2174.99 1290.52 2174.99 1283.88 M2178.48 1283.37 Q2178.48 1289.7 2178.93 1292.23 Q2179.44 1294.95 2180.83 1296.14 Q2182.25 1297.31 2183.81 1297.31 Q2185.49 1297.31 2186.88 1296.06 Q2188.29 1294.79 2188.73 1292.06 Q2189.2 1289.38 2189.18 1283.37 Q2189.18 1277.53 2188.77 1275.19 Q2188.21 1272.47 2186.74 1271.38 Q2185.28 1270.28 2183.81 1270.28 Q2183.25 1270.28 2182.66 1270.44 Q2182.08 1270.6 2181.24 1271.07 Q2180.4 1271.55 2179.75 1272.71 Q2179.11 1273.88 2178.81 1275.65 Q2178.48 1277.92 2178.48 1283.37 Z" fill="#000000" fill-rule="evenodd" fill-opacity="1" /><polyline clip-path="url(#clip250)" style="stroke:#ff0000; stroke-width:3.5; stroke-opacity:1; fill:none" points="
  1691.4,1340.17 1829.9,1340.17 
  "/>
<path clip-path="url(#clip250)" d="M 0 0 M1881.54 1322.27 Q1881.54 1322.66 1881.45 1322.99 L1880.31 1330.29 Q1880.24 1330.84 1880.12 1331.05 Q1880.02 1331.25 1879.69 1331.25 Q1879.18 1331.25 1879.18 1330.72 Q1879.18 1330.41 1879.3 1329.92 Q1879.65 1327.6 1879.65 1326.56 Q1879.65 1325.86 1879.51 1325.35 Q1879.38 1324.81 1879.18 1324.45 Q1878.99 1324.08 1878.56 1323.83 Q1878.13 1323.58 1877.72 1323.44 Q1877.31 1323.3 1876.58 1323.24 Q1875.84 1323.15 1875.2 1323.13 Q1874.57 1323.11 1873.52 1323.11 Q1871.25 1323.11 1870.88 1323.2 Q1870.49 1323.3 1870.28 1323.61 Q1870.1 1323.89 1869.89 1324.75 L1864.32 1347.03 L1864.16 1347.91 Q1864.16 1348.4 1864.46 1348.57 Q1864.77 1348.73 1865.71 1348.83 Q1867.07 1348.94 1868.4 1348.94 Q1868.44 1348.94 1868.52 1348.94 Q1868.97 1348.94 1869.16 1348.96 Q1869.34 1348.96 1869.53 1349 Q1869.71 1349.04 1869.75 1349.14 Q1869.81 1349.22 1869.81 1349.39 Q1869.81 1349.78 1869.65 1349.98 Q1869.48 1350.17 1869.32 1350.21 Q1869.18 1350.23 1868.89 1350.23 Q1868.32 1350.23 1867.09 1350.19 Q1865.86 1350.15 1865.24 1350.15 L1861.76 1350.11 L1858.19 1350.15 Q1857.64 1350.15 1856.47 1350.19 Q1855.3 1350.23 1854.75 1350.23 Q1854.03 1350.23 1854.03 1349.72 Q1854.03 1349.14 1854.3 1349.04 Q1854.58 1348.94 1855.79 1348.94 Q1857.49 1348.94 1858.42 1348.85 Q1859.34 1348.77 1859.83 1348.49 Q1860.34 1348.2 1860.49 1347.91 Q1860.63 1347.6 1860.79 1346.91 L1866.43 1324.51 Q1866.59 1324.02 1866.59 1323.63 Q1866.59 1323.42 1866.53 1323.34 Q1866.49 1323.26 1866.23 1323.2 Q1865.96 1323.11 1865.41 1323.11 L1863.77 1323.11 Q1862.09 1323.11 1861.04 1323.2 Q1860.02 1323.26 1859.03 1323.56 Q1858.07 1323.87 1857.49 1324.3 Q1856.94 1324.73 1856.33 1325.61 Q1855.71 1326.5 1855.26 1327.56 Q1854.83 1328.63 1854.22 1330.37 Q1854.01 1330.94 1853.89 1331.11 Q1853.79 1331.25 1853.5 1331.25 Q1853.29 1331.25 1853.13 1331.13 Q1852.99 1330.98 1852.99 1330.8 Q1853.19 1330.12 1853.23 1330.04 L1855.75 1322.64 Q1855.96 1322.05 1856.14 1321.95 Q1856.35 1321.82 1857.11 1321.82 L1880.39 1321.82 Q1880.76 1321.82 1880.88 1321.82 Q1881 1321.82 1881.21 1321.86 Q1881.41 1321.9 1881.47 1322.01 Q1881.54 1322.11 1881.54 1322.27 Z" fill="#000000" fill-rule="evenodd" fill-opacity="1" /><path clip-path="url(#clip250)" d="M 0 0 M1888.9 1343.85 Q1888.94 1343.34 1889.74 1343.34 L1915.46 1343.34 Q1916.67 1343.34 1916.69 1343.81 Q1916.69 1344.33 1915.55 1344.31 L1890.03 1344.31 Q1888.9 1344.33 1888.9 1343.85 M1888.9 1335.66 Q1888.9 1335.14 1889.78 1335.16 L1915.42 1335.16 Q1916.67 1335.16 1916.69 1335.66 Q1916.69 1336.13 1915.63 1336.13 L1889.74 1336.13 Q1888.9 1336.13 1888.9 1335.66 Z" fill="#000000" fill-rule="evenodd" fill-opacity="1" /><path clip-path="url(#clip250)" d="M 0 0 M1932.88 1343.46 Q1932.88 1342.21 1933.55 1341.74 Q1934.23 1341.25 1934.95 1341.25 Q1935.91 1341.25 1936.46 1341.87 Q1937.04 1342.46 1937.04 1343.3 Q1937.04 1344.14 1936.46 1344.76 Q1935.91 1345.35 1934.95 1345.35 Q1934.48 1345.35 1934.23 1345.27 Q1934.78 1347.19 1936.46 1348.59 Q1938.17 1349.98 1940.4 1349.98 Q1943.21 1349.98 1944.89 1347.26 Q1945.89 1345.49 1945.89 1341.5 Q1945.89 1337.97 1945.13 1336.21 Q1943.97 1333.52 1941.57 1333.52 Q1938.17 1333.52 1936.16 1336.46 Q1935.91 1336.82 1935.62 1336.85 Q1935.21 1336.85 1935.11 1336.62 Q1935.03 1336.37 1935.03 1335.74 L1935.03 1323.32 Q1935.03 1322.31 1935.44 1322.31 Q1935.6 1322.31 1935.95 1322.44 Q1938.6 1323.61 1941.53 1323.63 Q1944.54 1323.63 1947.24 1322.4 Q1947.45 1322.27 1947.57 1322.27 Q1947.98 1322.27 1948 1322.74 Q1948 1322.91 1947.65 1323.4 Q1947.33 1323.87 1946.61 1324.51 Q1945.89 1325.12 1944.97 1325.72 Q1944.05 1326.31 1942.69 1326.72 Q1941.36 1327.11 1939.89 1327.11 Q1938.12 1327.11 1936.32 1326.56 L1936.32 1334.73 Q1938.49 1332.6 1941.65 1332.6 Q1945.01 1332.6 1947.33 1335.31 Q1949.64 1338.01 1949.64 1341.78 Q1949.64 1345.74 1946.9 1348.44 Q1944.17 1351.15 1940.48 1351.15 Q1937.12 1351.15 1934.99 1348.75 Q1932.88 1346.35 1932.88 1343.46 Z" fill="#000000" fill-rule="evenodd" fill-opacity="1" /><path clip-path="url(#clip250)" d="M 0 0 M1953.66 1336.8 Q1953.66 1330.64 1955.22 1327.27 Q1957.39 1322.27 1962.51 1322.27 Q1963.6 1322.27 1964.73 1322.58 Q1965.87 1322.87 1967.31 1323.99 Q1968.76 1325.12 1969.65 1326.97 Q1971.33 1330.53 1971.33 1336.8 Q1971.33 1342.93 1969.77 1346.27 Q1967.49 1351.15 1962.47 1351.15 Q1960.59 1351.15 1958.66 1350.19 Q1956.75 1349.22 1955.54 1346.91 Q1953.66 1343.44 1953.66 1336.8 M1957.14 1336.29 Q1957.14 1342.62 1957.59 1345.15 Q1958.11 1347.87 1959.5 1349.06 Q1960.91 1350.23 1962.47 1350.23 Q1964.15 1350.23 1965.55 1348.98 Q1966.96 1347.71 1967.39 1344.98 Q1967.86 1342.3 1967.84 1336.29 Q1967.84 1330.45 1967.43 1328.11 Q1966.88 1325.39 1965.4 1324.3 Q1963.95 1323.2 1962.47 1323.2 Q1961.92 1323.2 1961.32 1323.36 Q1960.75 1323.52 1959.91 1323.99 Q1959.07 1324.47 1958.41 1325.63 Q1957.78 1326.8 1957.47 1328.57 Q1957.14 1330.84 1957.14 1336.29 Z" fill="#000000" fill-rule="evenodd" fill-opacity="1" /><path clip-path="url(#clip250)" d="M 0 0 M1975.08 1349.55 Q1974.44 1348.88 1974.44 1347.99 Q1974.44 1347.11 1975.08 1346.48 Q1975.71 1345.82 1976.67 1345.82 Q1977.6 1345.82 1978.21 1346.44 Q1978.85 1347.03 1978.85 1348.01 Q1978.85 1348.98 1978.17 1349.61 Q1977.51 1350.23 1976.67 1350.23 Q1975.71 1350.23 1975.08 1349.55 Z" fill="#000000" fill-rule="evenodd" fill-opacity="1" /><path clip-path="url(#clip250)" d="M 0 0 M1985.99 1336.8 Q1985.99 1330.64 1987.55 1327.27 Q1989.72 1322.27 1994.84 1322.27 Q1995.93 1322.27 1997.06 1322.58 Q1998.2 1322.87 1999.64 1323.99 Q2001.09 1325.12 2001.97 1326.97 Q2003.65 1330.53 2003.65 1336.8 Q2003.65 1342.93 2002.1 1346.27 Q1999.82 1351.15 1994.8 1351.15 Q1992.92 1351.15 1990.99 1350.19 Q1989.08 1349.22 1987.87 1346.91 Q1985.99 1343.44 1985.99 1336.8 M1989.47 1336.29 Q1989.47 1342.62 1989.92 1345.15 Q1990.44 1347.87 1991.83 1349.06 Q1993.24 1350.23 1994.8 1350.23 Q1996.48 1350.23 1997.87 1348.98 Q1999.29 1347.71 1999.72 1344.98 Q2000.19 1342.3 2000.17 1336.29 Q2000.17 1330.45 1999.76 1328.11 Q1999.21 1325.39 1997.73 1324.3 Q1996.28 1323.2 1994.8 1323.2 Q1994.25 1323.2 1993.65 1323.36 Q1993.08 1323.52 1992.24 1323.99 Q1991.4 1324.47 1990.74 1325.63 Q1990.11 1326.8 1989.8 1328.57 Q1989.47 1330.84 1989.47 1336.29 Z" fill="#000000" fill-rule="evenodd" fill-opacity="1" /><path clip-path="url(#clip250)" d="M 0 0 M2007.36 1349.55 Q2006.77 1348.88 2006.77 1347.99 Q2006.77 1347.11 2007.34 1346.46 Q2007.94 1345.78 2009 1345.78 Q2010.25 1345.78 2010.97 1346.99 Q2011.69 1348.18 2011.69 1350.19 Q2011.69 1352.36 2010.81 1354.37 Q2009.93 1356.4 2009.06 1357.36 Q2008.2 1358.32 2007.86 1358.32 Q2007.45 1358.32 2007.45 1357.87 Q2007.45 1357.71 2007.73 1357.4 Q2010.75 1354.16 2010.77 1350.19 Q2010.77 1349.55 2010.68 1349.55 L2010.58 1349.63 Q2009.86 1350.23 2009 1350.23 Q2007.96 1350.23 2007.36 1349.55 Z" fill="#000000" fill-rule="evenodd" fill-opacity="1" /><path clip-path="url(#clip250)" d="M 0 0 M2045.53 1344.22 Q2045.02 1346.74 2043.97 1348.51 Q2042.68 1350.7 2040.71 1350.7 Q2039.05 1350.7 2037.94 1349.55 Q2036.84 1348.38 2036.84 1346.54 Q2036.84 1345.99 2037.06 1345.06 Q2037.15 1344.65 2037.15 1344.14 Q2037.15 1340.82 2029.95 1340.58 Q2029.36 1342.93 2028.95 1344.53 Q2028.56 1346.11 2028.44 1346.58 Q2028.31 1347.05 2028.21 1347.44 Q2028.13 1347.83 2027.98 1348.34 Q2027.78 1349.18 2027.64 1349.59 Q2027.49 1350 2027.1 1350.35 Q2026.73 1350.7 2026.14 1350.7 Q2025.63 1350.7 2025.28 1350.39 Q2024.93 1350.08 2024.93 1349.55 Q2024.93 1349.18 2025.09 1348.59 L2028.95 1333.2 Q2029.05 1332.77 2029.26 1332.46 Q2029.46 1332.15 2029.64 1332.01 Q2029.85 1331.86 2030.1 1331.78 Q2030.34 1331.7 2030.44 1331.7 Q2030.55 1331.68 2030.63 1331.68 Q2031.18 1331.68 2031.51 1331.99 Q2031.86 1332.27 2031.86 1332.81 Q2031.86 1332.89 2031.71 1333.46 Q2031.59 1334.02 2031.39 1334.86 Q2031.18 1335.7 2031.1 1336.09 L2030.26 1339.37 Q2031.43 1338.98 2032.47 1338.28 Q2033.54 1337.58 2035.63 1335.78 Q2036.59 1334.98 2037.17 1334.53 Q2037.76 1334.06 2038.74 1333.42 Q2039.73 1332.77 2040.67 1332.46 Q2041.61 1332.13 2042.52 1332.13 Q2043.21 1332.13 2043.62 1332.46 Q2044.03 1332.77 2044.11 1333.05 Q2044.2 1333.32 2044.2 1333.61 Q2044.2 1334.45 2043.54 1335.16 Q2042.88 1335.88 2041.92 1335.88 Q2041.06 1335.88 2040.69 1335.41 Q2040.32 1334.94 2040.32 1334.41 Q2040.32 1334 2040.53 1333.48 Q2039.38 1333.98 2038.4 1334.69 Q2037.41 1335.39 2035.71 1336.85 Q2033.29 1338.91 2031.86 1339.69 Q2032.68 1339.71 2033.29 1339.78 Q2033.93 1339.82 2034.99 1339.96 Q2036.06 1340.1 2036.84 1340.41 Q2037.62 1340.7 2038.38 1341.15 Q2039.15 1341.6 2039.56 1342.34 Q2039.99 1343.08 2039.99 1344.02 Q2039.99 1344.47 2039.79 1345.39 Q2039.44 1346.91 2039.44 1347.75 Q2039.44 1348.81 2039.77 1349.29 Q2040.12 1349.76 2040.79 1349.76 Q2042.08 1349.76 2042.9 1348.42 Q2043.74 1347.07 2044.44 1344.57 Q2044.54 1344.1 2044.65 1343.96 Q2044.75 1343.81 2045.04 1343.81 Q2045.53 1343.81 2045.53 1344.22 Z" fill="#000000" fill-rule="evenodd" fill-opacity="1" /><path clip-path="url(#clip250)" d="M 0 0 M2060.5 1343.85 Q2060.54 1343.34 2061.34 1343.34 L2087.06 1343.34 Q2088.27 1343.34 2088.29 1343.81 Q2088.29 1344.33 2087.15 1344.31 L2061.63 1344.31 Q2060.5 1344.33 2060.5 1343.85 M2060.5 1335.66 Q2060.5 1335.14 2061.38 1335.16 L2087.02 1335.16 Q2088.27 1335.16 2088.29 1335.66 Q2088.29 1336.13 2087.23 1336.13 L2061.34 1336.13 Q2060.5 1336.13 2060.5 1335.66 Z" fill="#000000" fill-rule="evenodd" fill-opacity="1" /><path clip-path="url(#clip250)" d="M 0 0 M2104.48 1326.27 L2104.48 1324.96 Q2109.52 1324.96 2112.12 1322.27 Q2112.84 1322.27 2112.96 1322.44 Q2113.09 1322.6 2113.09 1323.36 L2113.09 1346.91 Q2113.09 1348.16 2113.7 1348.55 Q2114.32 1348.94 2117 1348.94 L2118.33 1348.94 L2118.33 1350.23 Q2116.86 1350.11 2111.53 1350.11 Q2106.2 1350.11 2104.74 1350.23 L2104.74 1348.94 L2106.08 1348.94 Q2108.72 1348.94 2109.36 1348.57 Q2109.99 1348.18 2109.99 1346.91 L2109.99 1325.16 Q2107.8 1326.27 2104.48 1326.27 Z" fill="#000000" fill-rule="evenodd" fill-opacity="1" /><path clip-path="url(#clip250)" d="M 0 0 M2121.88 1336.8 Q2121.88 1330.64 2123.44 1327.27 Q2125.61 1322.27 2130.74 1322.27 Q2131.82 1322.27 2132.95 1322.58 Q2134.1 1322.87 2135.53 1323.99 Q2136.99 1325.12 2137.87 1326.97 Q2139.55 1330.53 2139.55 1336.8 Q2139.55 1342.93 2137.99 1346.27 Q2135.72 1351.15 2130.7 1351.15 Q2128.81 1351.15 2126.88 1350.19 Q2124.98 1349.22 2123.77 1346.91 Q2121.88 1343.44 2121.88 1336.8 M2125.37 1336.29 Q2125.37 1342.62 2125.82 1345.15 Q2126.33 1347.87 2127.72 1349.06 Q2129.14 1350.23 2130.7 1350.23 Q2132.38 1350.23 2133.77 1348.98 Q2135.18 1347.71 2135.62 1344.98 Q2136.09 1342.3 2136.07 1336.29 Q2136.07 1330.45 2135.66 1328.11 Q2135.1 1325.39 2133.63 1324.3 Q2132.17 1323.2 2130.7 1323.2 Q2130.14 1323.2 2129.55 1323.36 Q2128.97 1323.52 2128.13 1323.99 Q2127.29 1324.47 2126.64 1325.63 Q2126 1326.8 2125.7 1328.57 Q2125.37 1330.84 2125.37 1336.29 Z" fill="#000000" fill-rule="evenodd" fill-opacity="1" /><path clip-path="url(#clip250)" d="M 0 0 M2142.67 1336.8 Q2142.67 1330.64 2144.22 1327.27 Q2146.4 1322.27 2151.52 1322.27 Q2152.6 1322.27 2153.73 1322.58 Q2154.88 1322.87 2156.31 1323.99 Q2157.77 1325.12 2158.65 1326.97 Q2160.33 1330.53 2160.33 1336.8 Q2160.33 1342.93 2158.77 1346.27 Q2156.5 1351.15 2151.48 1351.15 Q2149.59 1351.15 2147.67 1350.19 Q2145.76 1349.22 2144.55 1346.91 Q2142.67 1343.44 2142.67 1336.8 M2146.15 1336.29 Q2146.15 1342.62 2146.6 1345.15 Q2147.11 1347.87 2148.51 1349.06 Q2149.92 1350.23 2151.48 1350.23 Q2153.16 1350.23 2154.55 1348.98 Q2155.97 1347.71 2156.4 1344.98 Q2156.87 1342.3 2156.85 1336.29 Q2156.85 1330.45 2156.44 1328.11 Q2155.88 1325.39 2154.41 1324.3 Q2152.95 1323.2 2151.48 1323.2 Q2150.92 1323.2 2150.33 1323.36 Q2149.76 1323.52 2148.92 1323.99 Q2148.08 1324.47 2147.42 1325.63 Q2146.78 1326.8 2146.48 1328.57 Q2146.15 1330.84 2146.15 1336.29 Z" fill="#000000" fill-rule="evenodd" fill-opacity="1" /><path clip-path="url(#clip250)" d="M 0 0 M2163.45 1336.8 Q2163.45 1330.64 2165 1327.27 Q2167.18 1322.27 2172.3 1322.27 Q2173.39 1322.27 2174.51 1322.58 Q2175.66 1322.87 2177.1 1323.99 Q2178.55 1325.12 2179.43 1326.97 Q2181.11 1330.53 2181.11 1336.8 Q2181.11 1342.93 2179.56 1346.27 Q2177.28 1351.15 2172.26 1351.15 Q2170.37 1351.15 2168.45 1350.19 Q2166.54 1349.22 2165.33 1346.91 Q2163.45 1343.44 2163.45 1336.8 M2166.93 1336.29 Q2166.93 1342.62 2167.38 1345.15 Q2167.89 1347.87 2169.29 1349.06 Q2170.7 1350.23 2172.26 1350.23 Q2173.94 1350.23 2175.33 1348.98 Q2176.75 1347.71 2177.18 1344.98 Q2177.65 1342.3 2177.63 1336.29 Q2177.63 1330.45 2177.22 1328.11 Q2176.67 1325.39 2175.19 1324.3 Q2173.73 1323.2 2172.26 1323.2 Q2171.71 1323.2 2171.11 1323.36 Q2170.54 1323.52 2169.7 1323.99 Q2168.86 1324.47 2168.2 1325.63 Q2167.57 1326.8 2167.26 1328.57 Q2166.93 1330.84 2166.93 1336.29 Z" fill="#000000" fill-rule="evenodd" fill-opacity="1" /><path clip-path="url(#clip250)" d="M 0 0 M2184.23 1336.8 Q2184.23 1330.64 2185.79 1327.27 Q2187.96 1322.27 2193.08 1322.27 Q2194.17 1322.27 2195.29 1322.58 Q2196.44 1322.87 2197.88 1323.99 Q2199.33 1325.12 2200.21 1326.97 Q2201.89 1330.53 2201.89 1336.8 Q2201.89 1342.93 2200.34 1346.27 Q2198.06 1351.15 2193.04 1351.15 Q2191.15 1351.15 2189.23 1350.19 Q2187.32 1349.22 2186.11 1346.91 Q2184.23 1343.44 2184.23 1336.8 M2187.71 1336.29 Q2187.71 1342.62 2188.16 1345.15 Q2188.67 1347.87 2190.07 1349.06 Q2191.48 1350.23 2193.04 1350.23 Q2194.72 1350.23 2196.11 1348.98 Q2197.53 1347.71 2197.96 1344.98 Q2198.43 1342.3 2198.41 1336.29 Q2198.41 1330.45 2198 1328.11 Q2197.45 1325.39 2195.97 1324.3 Q2194.52 1323.2 2193.04 1323.2 Q2192.49 1323.2 2191.89 1323.36 Q2191.32 1323.52 2190.48 1323.99 Q2189.64 1324.47 2188.98 1325.63 Q2188.35 1326.8 2188.04 1328.57 Q2187.71 1330.84 2187.71 1336.29 Z" fill="#000000" fill-rule="evenodd" fill-opacity="1" /><path clip-path="url(#clip250)" d="M 0 0 M2205.64 1349.55 Q2205.01 1348.88 2205.01 1347.99 Q2205.01 1347.11 2205.64 1346.48 Q2206.28 1345.82 2207.24 1345.82 Q2208.17 1345.82 2208.78 1346.44 Q2209.42 1347.03 2209.42 1348.01 Q2209.42 1348.98 2208.74 1349.61 Q2208.08 1350.23 2207.24 1350.23 Q2206.28 1350.23 2205.64 1349.55 Z" fill="#000000" fill-rule="evenodd" fill-opacity="1" /><path clip-path="url(#clip250)" d="M 0 0 M2216.56 1336.8 Q2216.56 1330.64 2218.11 1327.27 Q2220.29 1322.27 2225.41 1322.27 Q2226.5 1322.27 2227.62 1322.58 Q2228.77 1322.87 2230.21 1323.99 Q2231.66 1325.12 2232.54 1326.97 Q2234.22 1330.53 2234.22 1336.8 Q2234.22 1342.93 2232.67 1346.27 Q2230.39 1351.15 2225.37 1351.15 Q2223.48 1351.15 2221.56 1350.19 Q2219.65 1349.22 2218.44 1346.91 Q2216.56 1343.44 2216.56 1336.8 M2220.04 1336.29 Q2220.04 1342.62 2220.49 1345.15 Q2221 1347.87 2222.4 1349.06 Q2223.81 1350.23 2225.37 1350.23 Q2227.05 1350.23 2228.44 1348.98 Q2229.86 1347.71 2230.29 1344.98 Q2230.76 1342.3 2230.74 1336.29 Q2230.74 1330.45 2230.33 1328.11 Q2229.78 1325.39 2228.3 1324.3 Q2226.84 1323.2 2225.37 1323.2 Q2224.82 1323.2 2224.22 1323.36 Q2223.65 1323.52 2222.81 1323.99 Q2221.97 1324.47 2221.31 1325.63 Q2220.68 1326.8 2220.37 1328.57 Q2220.04 1330.84 2220.04 1336.29 Z" fill="#000000" fill-rule="evenodd" fill-opacity="1" /></svg>
