<?xml version="1.0" encoding="utf-8"?>
<svg xmlns="http://www.w3.org/2000/svg" xmlns:xlink="http://www.w3.org/1999/xlink" width="600" height="400" viewBox="0 0 2400 1600">
<defs>
  <clipPath id="clip300">
    <rect x="0" y="0" width="2400" height="1600"/>
  </clipPath>
</defs>
<path clip-path="url(#clip300)" d="
M0 1600 L2400 1600 L2400 0 L0 0  Z
  " fill="#ffffff" fill-rule="evenodd" fill-opacity="1"/>
<defs>
  <clipPath id="clip301">
    <rect x="480" y="0" width="1681" height="1600"/>
  </clipPath>
</defs>
<defs>
  <clipPath id="clip302">
    <rect x="229" y="47" width="2124" height="1397"/>
  </clipPath>
</defs>
<path clip-path="url(#clip300)" d="
M275.224 1439.5 L2352.76 1439.5 L2352.76 47.2441 L275.224 47.2441  Z
  " fill="#ffffff" fill-rule="evenodd" fill-opacity="1"/>
<defs>
  <clipPath id="clip303">
    <rect x="275" y="47" width="2079" height="1393"/>
  </clipPath>
</defs>
<polyline clip-path="url(#clip303)" style="stroke:#000000; stroke-width:2; stroke-opacity:0.1; fill:none" points="
  333.63,1439.5 333.63,47.2441 
  "/>
<polyline clip-path="url(#clip303)" style="stroke:#000000; stroke-width:2; stroke-opacity:0.1; fill:none" points="
  725.696,1439.5 725.696,47.2441 
  "/>
<polyline clip-path="url(#clip303)" style="stroke:#000000; stroke-width:2; stroke-opacity:0.1; fill:none" points="
  1117.76,1439.5 1117.76,47.2441 
  "/>
<polyline clip-path="url(#clip303)" style="stroke:#000000; stroke-width:2; stroke-opacity:0.1; fill:none" points="
  1509.83,1439.5 1509.83,47.2441 
  "/>
<polyline clip-path="url(#clip303)" style="stroke:#000000; stroke-width:2; stroke-opacity:0.1; fill:none" points="
  1901.89,1439.5 1901.89,47.2441 
  "/>
<polyline clip-path="url(#clip303)" style="stroke:#000000; stroke-width:2; stroke-opacity:0.1; fill:none" points="
  2293.96,1439.5 2293.96,47.2441 
  "/>
<polyline clip-path="url(#clip300)" style="stroke:#000000; stroke-width:4; stroke-opacity:1; fill:none" points="
  275.224,1439.5 2352.76,1439.5 
  "/>
<polyline clip-path="url(#clip300)" style="stroke:#000000; stroke-width:4; stroke-opacity:1; fill:none" points="
  333.63,1439.5 333.63,1422.79 
  "/>
<polyline clip-path="url(#clip300)" style="stroke:#000000; stroke-width:4; stroke-opacity:1; fill:none" points="
  725.696,1439.5 725.696,1422.79 
  "/>
<polyline clip-path="url(#clip300)" style="stroke:#000000; stroke-width:4; stroke-opacity:1; fill:none" points="
  1117.76,1439.5 1117.76,1422.79 
  "/>
<polyline clip-path="url(#clip300)" style="stroke:#000000; stroke-width:4; stroke-opacity:1; fill:none" points="
  1509.83,1439.5 1509.83,1422.79 
  "/>
<polyline clip-path="url(#clip300)" style="stroke:#000000; stroke-width:4; stroke-opacity:1; fill:none" points="
  1901.89,1439.5 1901.89,1422.79 
  "/>
<polyline clip-path="url(#clip300)" style="stroke:#000000; stroke-width:4; stroke-opacity:1; fill:none" points="
  2293.96,1439.5 2293.96,1422.79 
  "/>
<path clip-path="url(#clip300)" d="M 0 0 M333.63 1468.69 Q330.019 1468.69 328.19 1472.26 Q326.385 1475.8 326.385 1482.93 Q326.385 1490.04 328.19 1493.6 Q330.019 1497.14 333.63 1497.14 Q337.264 1497.14 339.07 1493.6 Q340.899 1490.04 340.899 1482.93 Q340.899 1475.8 339.07 1472.26 Q337.264 1468.69 333.63 1468.69 M333.63 1464.99 Q339.44 1464.99 342.496 1469.6 Q345.575 1474.18 345.575 1482.93 Q345.575 1491.66 342.496 1496.26 Q339.44 1500.85 333.63 1500.85 Q327.82 1500.85 324.741 1496.26 Q321.686 1491.66 321.686 1482.93 Q321.686 1474.18 324.741 1469.6 Q327.82 1464.99 333.63 1464.99 Z" fill="#000000" fill-rule="evenodd" fill-opacity="1" /><path clip-path="url(#clip300)" d="M 0 0 M685.302 1496.24 L692.941 1496.24 L692.941 1469.87 L684.631 1471.54 L684.631 1467.28 L692.895 1465.61 L697.571 1465.61 L697.571 1496.24 L705.21 1496.24 L705.21 1500.17 L685.302 1500.17 L685.302 1496.24 Z" fill="#000000" fill-rule="evenodd" fill-opacity="1" /><path clip-path="url(#clip300)" d="M 0 0 M724.654 1468.69 Q721.043 1468.69 719.214 1472.26 Q717.409 1475.8 717.409 1482.93 Q717.409 1490.04 719.214 1493.6 Q721.043 1497.14 724.654 1497.14 Q728.288 1497.14 730.094 1493.6 Q731.923 1490.04 731.923 1482.93 Q731.923 1475.8 730.094 1472.26 Q728.288 1468.69 724.654 1468.69 M724.654 1464.99 Q730.464 1464.99 733.52 1469.6 Q736.598 1474.18 736.598 1482.93 Q736.598 1491.66 733.52 1496.26 Q730.464 1500.85 724.654 1500.85 Q718.844 1500.85 715.765 1496.26 Q712.71 1491.66 712.71 1482.93 Q712.71 1474.18 715.765 1469.6 Q718.844 1464.99 724.654 1464.99 Z" fill="#000000" fill-rule="evenodd" fill-opacity="1" /><path clip-path="url(#clip300)" d="M 0 0 M754.816 1468.69 Q751.205 1468.69 749.376 1472.26 Q747.571 1475.8 747.571 1482.93 Q747.571 1490.04 749.376 1493.6 Q751.205 1497.14 754.816 1497.14 Q758.45 1497.14 760.256 1493.6 Q762.084 1490.04 762.084 1482.93 Q762.084 1475.8 760.256 1472.26 Q758.45 1468.69 754.816 1468.69 M754.816 1464.99 Q760.626 1464.99 763.682 1469.6 Q766.76 1474.18 766.76 1482.93 Q766.76 1491.66 763.682 1496.26 Q760.626 1500.85 754.816 1500.85 Q749.006 1500.85 745.927 1496.26 Q742.872 1491.66 742.872 1482.93 Q742.872 1474.18 745.927 1469.6 Q749.006 1464.99 754.816 1464.99 Z" fill="#000000" fill-rule="evenodd" fill-opacity="1" /><path clip-path="url(#clip300)" d="M 0 0 M1081.45 1496.24 L1097.77 1496.24 L1097.77 1500.17 L1075.83 1500.17 L1075.83 1496.24 Q1078.49 1493.48 1083.07 1488.85 Q1087.68 1484.2 1088.86 1482.86 Q1091.11 1480.34 1091.99 1478.6 Q1092.89 1476.84 1092.89 1475.15 Q1092.89 1472.4 1090.94 1470.66 Q1089.02 1468.92 1085.92 1468.92 Q1083.72 1468.92 1081.27 1469.69 Q1078.84 1470.45 1076.06 1472 L1076.06 1467.28 Q1078.88 1466.15 1081.34 1465.57 Q1083.79 1464.99 1085.83 1464.99 Q1091.2 1464.99 1094.39 1467.67 Q1097.59 1470.36 1097.59 1474.85 Q1097.59 1476.98 1096.78 1478.9 Q1095.99 1480.8 1093.88 1483.39 Q1093.31 1484.06 1090.2 1487.28 Q1087.1 1490.47 1081.45 1496.24 Z" fill="#000000" fill-rule="evenodd" fill-opacity="1" /><path clip-path="url(#clip300)" d="M 0 0 M1117.59 1468.69 Q1113.98 1468.69 1112.15 1472.26 Q1110.34 1475.8 1110.34 1482.93 Q1110.34 1490.04 1112.15 1493.6 Q1113.98 1497.14 1117.59 1497.14 Q1121.22 1497.14 1123.03 1493.6 Q1124.86 1490.04 1124.86 1482.93 Q1124.86 1475.8 1123.03 1472.26 Q1121.22 1468.69 1117.59 1468.69 M1117.59 1464.99 Q1123.4 1464.99 1126.45 1469.6 Q1129.53 1474.18 1129.53 1482.93 Q1129.53 1491.66 1126.45 1496.26 Q1123.4 1500.85 1117.59 1500.85 Q1111.78 1500.85 1108.7 1496.26 Q1105.64 1491.66 1105.64 1482.93 Q1105.64 1474.18 1108.7 1469.6 Q1111.78 1464.99 1117.59 1464.99 Z" fill="#000000" fill-rule="evenodd" fill-opacity="1" /><path clip-path="url(#clip300)" d="M 0 0 M1147.75 1468.69 Q1144.14 1468.69 1142.31 1472.26 Q1140.5 1475.8 1140.5 1482.93 Q1140.5 1490.04 1142.31 1493.6 Q1144.14 1497.14 1147.75 1497.14 Q1151.38 1497.14 1153.19 1493.6 Q1155.02 1490.04 1155.02 1482.93 Q1155.02 1475.8 1153.19 1472.26 Q1151.38 1468.69 1147.75 1468.69 M1147.75 1464.99 Q1153.56 1464.99 1156.62 1469.6 Q1159.69 1474.18 1159.69 1482.93 Q1159.69 1491.66 1156.62 1496.26 Q1153.56 1500.85 1147.75 1500.85 Q1141.94 1500.85 1138.86 1496.26 Q1135.81 1491.66 1135.81 1482.93 Q1135.81 1474.18 1138.86 1469.6 Q1141.94 1464.99 1147.75 1464.99 Z" fill="#000000" fill-rule="evenodd" fill-opacity="1" /><path clip-path="url(#clip300)" d="M 0 0 M1483.59 1481.54 Q1486.94 1482.26 1488.82 1484.53 Q1490.72 1486.79 1490.72 1490.13 Q1490.72 1495.24 1487.2 1498.04 Q1483.68 1500.85 1477.2 1500.85 Q1475.02 1500.85 1472.71 1500.41 Q1470.42 1499.99 1467.96 1499.13 L1467.96 1494.62 Q1469.91 1495.75 1472.22 1496.33 Q1474.54 1496.91 1477.06 1496.91 Q1481.46 1496.91 1483.75 1495.17 Q1486.07 1493.44 1486.07 1490.13 Q1486.07 1487.07 1483.91 1485.36 Q1481.78 1483.62 1477.96 1483.62 L1473.94 1483.62 L1473.94 1479.78 L1478.15 1479.78 Q1481.6 1479.78 1483.43 1478.41 Q1485.26 1477.03 1485.26 1474.43 Q1485.26 1471.77 1483.36 1470.36 Q1481.48 1468.92 1477.96 1468.92 Q1476.04 1468.92 1473.84 1469.34 Q1471.64 1469.76 1469.01 1470.64 L1469.01 1466.47 Q1471.67 1465.73 1473.98 1465.36 Q1476.32 1464.99 1478.38 1464.99 Q1483.7 1464.99 1486.81 1467.42 Q1489.91 1469.83 1489.91 1473.95 Q1489.91 1476.82 1488.26 1478.81 Q1486.62 1480.78 1483.59 1481.54 Z" fill="#000000" fill-rule="evenodd" fill-opacity="1" /><path clip-path="url(#clip300)" d="M 0 0 M1509.58 1468.69 Q1505.97 1468.69 1504.14 1472.26 Q1502.34 1475.8 1502.34 1482.93 Q1502.34 1490.04 1504.14 1493.6 Q1505.97 1497.14 1509.58 1497.14 Q1513.22 1497.14 1515.02 1493.6 Q1516.85 1490.04 1516.85 1482.93 Q1516.85 1475.8 1515.02 1472.26 Q1513.22 1468.69 1509.58 1468.69 M1509.58 1464.99 Q1515.39 1464.99 1518.45 1469.6 Q1521.53 1474.18 1521.53 1482.93 Q1521.53 1491.66 1518.45 1496.26 Q1515.39 1500.85 1509.58 1500.85 Q1503.77 1500.85 1500.69 1496.26 Q1497.64 1491.66 1497.64 1482.93 Q1497.64 1474.18 1500.69 1469.6 Q1503.77 1464.99 1509.58 1464.99 Z" fill="#000000" fill-rule="evenodd" fill-opacity="1" /><path clip-path="url(#clip300)" d="M 0 0 M1539.75 1468.69 Q1536.13 1468.69 1534.31 1472.26 Q1532.5 1475.8 1532.5 1482.93 Q1532.5 1490.04 1534.31 1493.6 Q1536.13 1497.14 1539.75 1497.14 Q1543.38 1497.14 1545.19 1493.6 Q1547.01 1490.04 1547.01 1482.93 Q1547.01 1475.8 1545.19 1472.26 Q1543.38 1468.69 1539.75 1468.69 M1539.75 1464.99 Q1545.56 1464.99 1548.61 1469.6 Q1551.69 1474.18 1551.69 1482.93 Q1551.69 1491.66 1548.61 1496.26 Q1545.56 1500.85 1539.75 1500.85 Q1533.94 1500.85 1530.86 1496.26 Q1527.8 1491.66 1527.8 1482.93 Q1527.8 1474.18 1530.86 1469.6 Q1533.94 1464.99 1539.75 1464.99 Z" fill="#000000" fill-rule="evenodd" fill-opacity="1" /><path clip-path="url(#clip300)" d="M 0 0 M1874.98 1469.69 L1863.18 1488.14 L1874.98 1488.14 L1874.98 1469.69 M1873.76 1465.61 L1879.64 1465.61 L1879.64 1488.14 L1884.57 1488.14 L1884.57 1492.03 L1879.64 1492.03 L1879.64 1500.17 L1874.98 1500.17 L1874.98 1492.03 L1859.38 1492.03 L1859.38 1487.51 L1873.76 1465.61 Z" fill="#000000" fill-rule="evenodd" fill-opacity="1" /><path clip-path="url(#clip300)" d="M 0 0 M1902.3 1468.69 Q1898.69 1468.69 1896.86 1472.26 Q1895.05 1475.8 1895.05 1482.93 Q1895.05 1490.04 1896.86 1493.6 Q1898.69 1497.14 1902.3 1497.14 Q1905.93 1497.14 1907.74 1493.6 Q1909.57 1490.04 1909.57 1482.93 Q1909.57 1475.8 1907.74 1472.26 Q1905.93 1468.69 1902.3 1468.69 M1902.3 1464.99 Q1908.11 1464.99 1911.16 1469.6 Q1914.24 1474.18 1914.24 1482.93 Q1914.24 1491.66 1911.16 1496.26 Q1908.11 1500.85 1902.3 1500.85 Q1896.49 1500.85 1893.41 1496.26 Q1890.35 1491.66 1890.35 1482.93 Q1890.35 1474.18 1893.41 1469.6 Q1896.49 1464.99 1902.3 1464.99 Z" fill="#000000" fill-rule="evenodd" fill-opacity="1" /><path clip-path="url(#clip300)" d="M 0 0 M1932.46 1468.69 Q1928.85 1468.69 1927.02 1472.26 Q1925.21 1475.8 1925.21 1482.93 Q1925.21 1490.04 1927.02 1493.6 Q1928.85 1497.14 1932.46 1497.14 Q1936.09 1497.14 1937.9 1493.6 Q1939.73 1490.04 1939.73 1482.93 Q1939.73 1475.8 1937.9 1472.26 Q1936.09 1468.69 1932.46 1468.69 M1932.46 1464.99 Q1938.27 1464.99 1941.32 1469.6 Q1944.4 1474.18 1944.4 1482.93 Q1944.4 1491.66 1941.32 1496.26 Q1938.27 1500.85 1932.46 1500.85 Q1926.65 1500.85 1923.57 1496.26 Q1920.51 1491.66 1920.51 1482.93 Q1920.51 1474.18 1923.57 1469.6 Q1926.65 1464.99 1932.46 1464.99 Z" fill="#000000" fill-rule="evenodd" fill-opacity="1" /><path clip-path="url(#clip300)" d="M 0 0 M2253.58 1465.61 L2271.93 1465.61 L2271.93 1469.55 L2257.86 1469.55 L2257.86 1478.02 Q2258.88 1477.67 2259.9 1477.51 Q2260.91 1477.33 2261.93 1477.33 Q2267.72 1477.33 2271.1 1480.5 Q2274.48 1483.67 2274.48 1489.09 Q2274.48 1494.66 2271.01 1497.77 Q2267.53 1500.85 2261.21 1500.85 Q2259.04 1500.85 2256.77 1500.47 Q2254.53 1500.1 2252.12 1499.36 L2252.12 1494.66 Q2254.2 1495.8 2256.42 1496.35 Q2258.65 1496.91 2261.12 1496.91 Q2265.13 1496.91 2267.46 1494.8 Q2269.8 1492.7 2269.8 1489.09 Q2269.8 1485.47 2267.46 1483.37 Q2265.13 1481.26 2261.12 1481.26 Q2259.25 1481.26 2257.37 1481.68 Q2255.52 1482.1 2253.58 1482.97 L2253.58 1465.61 Z" fill="#000000" fill-rule="evenodd" fill-opacity="1" /><path clip-path="url(#clip300)" d="M 0 0 M2293.69 1468.69 Q2290.08 1468.69 2288.25 1472.26 Q2286.45 1475.8 2286.45 1482.93 Q2286.45 1490.04 2288.25 1493.6 Q2290.08 1497.14 2293.69 1497.14 Q2297.33 1497.14 2299.13 1493.6 Q2300.96 1490.04 2300.96 1482.93 Q2300.96 1475.8 2299.13 1472.26 Q2297.33 1468.69 2293.69 1468.69 M2293.69 1464.99 Q2299.5 1464.99 2302.56 1469.6 Q2305.64 1474.18 2305.64 1482.93 Q2305.64 1491.66 2302.56 1496.26 Q2299.5 1500.85 2293.69 1500.85 Q2287.88 1500.85 2284.8 1496.26 Q2281.75 1491.66 2281.75 1482.93 Q2281.75 1474.18 2284.8 1469.6 Q2287.88 1464.99 2293.69 1464.99 Z" fill="#000000" fill-rule="evenodd" fill-opacity="1" /><path clip-path="url(#clip300)" d="M 0 0 M2323.85 1468.69 Q2320.24 1468.69 2318.41 1472.26 Q2316.61 1475.8 2316.61 1482.93 Q2316.61 1490.04 2318.41 1493.6 Q2320.24 1497.14 2323.85 1497.14 Q2327.49 1497.14 2329.29 1493.6 Q2331.12 1490.04 2331.12 1482.93 Q2331.12 1475.8 2329.29 1472.26 Q2327.49 1468.69 2323.85 1468.69 M2323.85 1464.99 Q2329.66 1464.99 2332.72 1469.6 Q2335.8 1474.18 2335.8 1482.93 Q2335.8 1491.66 2332.72 1496.26 Q2329.66 1500.85 2323.85 1500.85 Q2318.04 1500.85 2314.96 1496.26 Q2311.91 1491.66 2311.91 1482.93 Q2311.91 1474.18 2314.96 1469.6 Q2318.04 1464.99 2323.85 1464.99 Z" fill="#000000" fill-rule="evenodd" fill-opacity="1" /><path clip-path="url(#clip300)" d="M 0 0 M1325.92 1535.75 Q1325.92 1541.16 1324.19 1547.24 Q1322.48 1553.3 1319.77 1558.19 Q1317.07 1563.06 1313.53 1566.28 Q1309.98 1569.47 1306.6 1569.47 Q1304.44 1569.47 1302.83 1568.27 Q1301.26 1567.05 1300.39 1565.02 Q1299.52 1562.96 1299.1 1560.71 Q1298.68 1558.42 1298.68 1555.94 Q1298.68 1552.24 1299.48 1548.21 Q1300.29 1544.15 1301.64 1540.48 Q1302.99 1536.78 1304.89 1533.43 Q1306.79 1530.05 1308.89 1527.6 Q1311.01 1525.12 1313.4 1523.67 Q1315.78 1522.22 1318 1522.22 Q1319.61 1522.22 1320.9 1522.93 Q1322.22 1523.6 1323.06 1524.8 Q1323.9 1525.96 1324.48 1527.34 Q1325.09 1528.73 1325.38 1530.34 Q1325.67 1531.91 1325.8 1533.23 Q1325.92 1534.52 1325.92 1535.75 M1321.58 1531.66 Q1321.58 1530.01 1321.45 1528.79 Q1321.32 1527.53 1320.97 1526.28 Q1320.61 1525.02 1319.84 1524.35 Q1319.1 1523.67 1317.94 1523.67 Q1314.56 1523.67 1310.76 1530.59 Q1309.53 1532.75 1308.44 1535.68 Q1307.34 1538.61 1306.96 1540 Q1306.57 1541.38 1305.67 1544.8 L1319.45 1544.8 Q1321.58 1536 1321.58 1531.66 M1318.87 1546.89 L1305.15 1546.89 Q1303.03 1554.94 1303.03 1559.96 Q1303.03 1564.34 1303.93 1566.18 Q1304.86 1567.98 1306.6 1567.98 Q1308.6 1567.98 1310.47 1565.99 Q1312.33 1563.96 1314.23 1560.29 Q1316.75 1555.52 1318.87 1546.89 Z" fill="#000000" fill-rule="evenodd" fill-opacity="1" /><polyline clip-path="url(#clip303)" style="stroke:#000000; stroke-width:2; stroke-opacity:0.1; fill:none" points="
  275.224,1230.87 2352.76,1230.87 
  "/>
<polyline clip-path="url(#clip303)" style="stroke:#000000; stroke-width:2; stroke-opacity:0.1; fill:none" points="
  275.224,908.381 2352.76,908.381 
  "/>
<polyline clip-path="url(#clip303)" style="stroke:#000000; stroke-width:2; stroke-opacity:0.1; fill:none" points="
  275.224,585.895 2352.76,585.895 
  "/>
<polyline clip-path="url(#clip303)" style="stroke:#000000; stroke-width:2; stroke-opacity:0.1; fill:none" points="
  275.224,263.408 2352.76,263.408 
  "/>
<polyline clip-path="url(#clip300)" style="stroke:#000000; stroke-width:4; stroke-opacity:1; fill:none" points="
  275.224,1439.5 275.224,47.2441 
  "/>
<polyline clip-path="url(#clip300)" style="stroke:#000000; stroke-width:4; stroke-opacity:1; fill:none" points="
  275.224,1230.87 300.155,1230.87 
  "/>
<polyline clip-path="url(#clip300)" style="stroke:#000000; stroke-width:4; stroke-opacity:1; fill:none" points="
  275.224,908.381 300.155,908.381 
  "/>
<polyline clip-path="url(#clip300)" style="stroke:#000000; stroke-width:4; stroke-opacity:1; fill:none" points="
  275.224,585.895 300.155,585.895 
  "/>
<polyline clip-path="url(#clip300)" style="stroke:#000000; stroke-width:4; stroke-opacity:1; fill:none" points="
  275.224,263.408 300.155,263.408 
  "/>
<path clip-path="url(#clip300)" d="M 0 0 M147.35 1231.32 L177.025 1231.32 L177.025 1235.25 L147.35 1235.25 L147.35 1231.32 Z" fill="#000000" fill-rule="evenodd" fill-opacity="1" /><path clip-path="url(#clip300)" d="M 0 0 M187.928 1244.21 L195.567 1244.21 L195.567 1217.85 L187.257 1219.51 L187.257 1215.25 L195.521 1213.59 L200.197 1213.59 L200.197 1244.21 L207.835 1244.21 L207.835 1248.15 L187.928 1248.15 L187.928 1244.21 Z" fill="#000000" fill-rule="evenodd" fill-opacity="1" /><path clip-path="url(#clip300)" d="M 0 0 M227.28 1216.67 Q223.669 1216.67 221.84 1220.23 Q220.034 1223.77 220.034 1230.9 Q220.034 1238.01 221.84 1241.57 Q223.669 1245.11 227.28 1245.11 Q230.914 1245.11 232.72 1241.57 Q234.548 1238.01 234.548 1230.9 Q234.548 1223.77 232.72 1220.23 Q230.914 1216.67 227.28 1216.67 M227.28 1212.96 Q233.09 1212.96 236.145 1217.57 Q239.224 1222.15 239.224 1230.9 Q239.224 1239.63 236.145 1244.23 Q233.09 1248.82 227.28 1248.82 Q221.47 1248.82 218.391 1244.23 Q215.335 1239.63 215.335 1230.9 Q215.335 1222.15 218.391 1217.57 Q221.47 1212.96 227.28 1212.96 Z" fill="#000000" fill-rule="evenodd" fill-opacity="1" /><path clip-path="url(#clip300)" d="M 0 0 M227.28 894.179 Q223.669 894.179 221.84 897.744 Q220.034 901.286 220.034 908.415 Q220.034 915.522 221.84 919.087 Q223.669 922.628 227.28 922.628 Q230.914 922.628 232.72 919.087 Q234.548 915.522 234.548 908.415 Q234.548 901.286 232.72 897.744 Q230.914 894.179 227.28 894.179 M227.28 890.476 Q233.09 890.476 236.145 895.082 Q239.224 899.665 239.224 908.415 Q239.224 917.142 236.145 921.749 Q233.09 926.332 227.28 926.332 Q221.47 926.332 218.391 921.749 Q215.335 917.142 215.335 908.415 Q215.335 899.665 218.391 895.082 Q221.47 890.476 227.28 890.476 Z" fill="#000000" fill-rule="evenodd" fill-opacity="1" /><path clip-path="url(#clip300)" d="M 0 0 M187.928 599.239 L195.567 599.239 L195.567 572.874 L187.257 574.54 L187.257 570.281 L195.521 568.615 L200.197 568.615 L200.197 599.239 L207.835 599.239 L207.835 603.175 L187.928 603.175 L187.928 599.239 Z" fill="#000000" fill-rule="evenodd" fill-opacity="1" /><path clip-path="url(#clip300)" d="M 0 0 M227.28 571.693 Q223.669 571.693 221.84 575.258 Q220.034 578.8 220.034 585.929 Q220.034 593.036 221.84 596.6 Q223.669 600.142 227.28 600.142 Q230.914 600.142 232.72 596.6 Q234.548 593.036 234.548 585.929 Q234.548 578.8 232.72 575.258 Q230.914 571.693 227.28 571.693 M227.28 567.99 Q233.09 567.99 236.145 572.596 Q239.224 577.179 239.224 585.929 Q239.224 594.656 236.145 599.262 Q233.09 603.846 227.28 603.846 Q221.47 603.846 218.391 599.262 Q215.335 594.656 215.335 585.929 Q215.335 577.179 218.391 572.596 Q221.47 567.99 227.28 567.99 Z" fill="#000000" fill-rule="evenodd" fill-opacity="1" /><path clip-path="url(#clip300)" d="M 0 0 M191.146 276.753 L207.465 276.753 L207.465 280.688 L185.521 280.688 L185.521 276.753 Q188.183 273.999 192.766 269.369 Q197.373 264.716 198.553 263.374 Q200.798 260.851 201.678 259.114 Q202.581 257.355 202.581 255.665 Q202.581 252.911 200.636 251.175 Q198.715 249.439 195.613 249.439 Q193.414 249.439 190.961 250.202 Q188.53 250.966 185.752 252.517 L185.752 247.795 Q188.576 246.661 191.03 246.082 Q193.484 245.503 195.521 245.503 Q200.891 245.503 204.085 248.189 Q207.28 250.874 207.28 255.364 Q207.28 257.494 206.47 259.415 Q205.683 261.314 203.576 263.906 Q202.997 264.577 199.896 267.795 Q196.794 270.989 191.146 276.753 Z" fill="#000000" fill-rule="evenodd" fill-opacity="1" /><path clip-path="url(#clip300)" d="M 0 0 M227.28 249.207 Q223.669 249.207 221.84 252.772 Q220.034 256.314 220.034 263.443 Q220.034 270.55 221.84 274.114 Q223.669 277.656 227.28 277.656 Q230.914 277.656 232.72 274.114 Q234.548 270.55 234.548 263.443 Q234.548 256.314 232.72 252.772 Q230.914 249.207 227.28 249.207 M227.28 245.503 Q233.09 245.503 236.145 250.11 Q239.224 254.693 239.224 263.443 Q239.224 272.17 236.145 276.776 Q233.09 281.36 227.28 281.36 Q221.47 281.36 218.391 276.776 Q215.335 272.17 215.335 263.443 Q215.335 254.693 218.391 250.11 Q221.47 245.503 227.28 245.503 Z" fill="#000000" fill-rule="evenodd" fill-opacity="1" /><path clip-path="url(#clip300)" d="M 0 0 M60.9719 807.63 L77.3969 813.298 L77.3969 867.983 Q77.3969 868.724 77.3647 869.014 Q77.3325 869.304 77.1714 869.529 Q77.0104 869.755 76.6561 869.755 Q76.3663 869.755 75.6255 869.175 L46.6725 845.761 L13.5648 869.819 Q12.0512 869.819 11.7613 869.561 Q11.4393 869.304 11.4393 867.983 L11.4393 813.298 L26.8659 807.63 L26.8659 809.272 Q24.8691 810.013 23.1944 811.204 Q21.4875 812.364 20.2637 813.717 Q19.0398 815.037 18.0737 816.776 Q17.0753 818.483 16.4634 820.093 Q15.8193 821.671 15.3684 823.636 Q14.8853 825.6 14.6598 827.179 Q14.4022 828.724 14.2734 830.657 Q14.1446 832.589 14.1123 833.813 Q14.0801 835.037 14.0801 836.583 L14.0801 862.702 L43.4841 841.285 Q44.2248 840.802 44.4181 840.802 Q44.7079 840.802 45.4809 841.414 L73.7576 864.28 L73.7576 836.261 Q73.7576 827.243 71.8575 820.963 Q70.4082 816.712 67.5419 813.62 Q64.6756 810.496 60.9719 809.272 L60.9719 807.63 Z" fill="#000000" fill-rule="evenodd" fill-opacity="1" /><path clip-path="url(#clip300)" d="M 0 0 M103.539 878.807 Q104.17 878.807 104.328 879.1 Q104.463 879.393 104.463 880.205 L104.463 884.533 L118.08 887.96 Q119.275 888.231 120.289 888.231 Q121.417 888.231 121.913 887.892 Q122.408 887.532 122.408 886.788 Q122.408 885.322 121.078 883.744 Q119.748 882.144 116.502 880.791 Q116.074 880.611 115.983 880.521 Q115.871 880.408 115.871 880.115 Q115.871 879.551 116.322 879.551 Q116.479 879.551 117.201 879.867 Q117.922 880.16 118.982 880.814 Q120.041 881.445 121.033 882.279 Q122.025 883.091 122.747 884.331 Q123.446 885.57 123.446 886.901 Q123.446 888.772 122.251 889.967 Q121.056 891.139 119.185 891.139 Q118.576 891.139 116.637 890.665 Q114.676 890.192 104.463 887.622 L104.463 891.702 Q104.463 892.266 104.441 892.491 Q104.418 892.694 104.306 892.852 Q104.17 892.987 103.9 892.987 Q103.471 892.987 103.291 892.807 Q103.088 892.627 103.066 892.401 Q103.021 892.153 103.021 891.59 L103.021 887.261 L95.6937 885.458 Q94.9723 885.277 94.5665 884.826 Q94.1382 884.353 94.0931 884.083 Q94.0255 883.812 94.0255 883.609 Q94.0255 883 94.3636 882.64 Q94.6792 882.279 95.2654 882.279 Q95.581 882.279 103.021 884.173 L103.021 880.115 Q103.021 879.596 103.043 879.393 Q103.066 879.168 103.178 878.988 Q103.291 878.807 103.539 878.807 Z" fill="#000000" fill-rule="evenodd" fill-opacity="1" /><path clip-path="url(#clip300)" d="M 0 0 M115.916 863.675 Q115.352 863.629 115.352 862.75 L115.352 834.457 Q115.352 833.127 115.871 833.105 Q116.434 833.105 116.412 834.367 L116.412 862.435 Q116.434 863.675 115.916 863.675 M106.898 863.675 Q106.335 863.675 106.357 862.705 L106.357 834.502 Q106.357 833.127 106.898 833.105 Q107.417 833.105 107.417 834.277 L107.417 862.75 Q107.417 863.675 106.898 863.675 Z" fill="#000000" fill-rule="evenodd" fill-opacity="1" /><path clip-path="url(#clip300)" d="M 0 0 M96.5729 815.293 L95.1301 815.293 Q95.1301 809.747 92.1768 806.884 Q92.1768 806.095 92.3572 805.959 Q92.5375 805.824 93.3717 805.824 L119.275 805.824 Q120.65 805.824 121.078 805.148 Q121.507 804.472 121.507 801.518 L121.507 800.053 L122.927 800.053 Q122.792 801.676 122.792 807.538 Q122.792 813.399 122.927 815 L121.507 815 L121.507 813.534 Q121.507 810.626 121.101 809.927 Q120.673 809.228 119.275 809.228 L95.3556 809.228 Q96.5729 811.641 96.5729 815.293 Z" fill="#000000" fill-rule="evenodd" fill-opacity="1" /><path clip-path="url(#clip300)" d="M 0 0 M16.9787 740.525 Q17.5906 740.525 18.1059 740.654 L29.5712 742.457 Q30.4407 742.554 30.7628 742.747 Q31.0848 742.908 31.0848 743.424 Q31.0848 744.229 30.2475 744.229 Q29.7644 744.229 28.9915 744.036 Q25.3522 743.488 23.7097 743.488 Q22.6147 743.488 21.8095 743.713 Q20.9722 743.907 20.3925 744.229 Q19.8128 744.519 19.4263 745.195 Q19.0398 745.871 18.8144 746.515 Q18.589 747.159 18.4923 748.319 Q18.3635 749.478 18.3313 750.477 Q18.2991 751.475 18.2991 753.118 Q18.2991 756.692 18.4279 757.272 Q18.589 757.884 19.0721 758.206 Q19.5229 758.496 20.8756 758.818 L55.8834 767.578 L57.2682 767.836 Q58.0411 767.836 58.2988 767.353 Q58.5564 766.869 58.7175 765.388 Q58.8785 763.262 58.8785 761.169 Q58.8785 761.105 58.8785 760.976 Q58.8785 760.267 58.9107 759.977 Q58.9107 759.688 58.9751 759.398 Q59.0395 759.108 59.2006 759.043 Q59.3294 758.947 59.587 758.947 Q60.1989 758.947 60.521 759.204 Q60.8108 759.462 60.8753 759.72 Q60.9075 759.945 60.9075 760.396 Q60.9075 761.298 60.8431 763.23 Q60.7786 765.163 60.7786 766.129 L60.7142 771.604 L60.7786 777.208 Q60.7786 778.077 60.8431 779.913 Q60.9075 781.749 60.9075 782.618 Q60.9075 783.745 60.1023 783.745 Q59.2006 783.745 59.0395 783.327 Q58.8785 782.876 58.8785 780.976 Q58.8785 778.303 58.7497 776.853 Q58.6208 775.404 58.17 774.631 Q57.7191 773.826 57.2682 773.601 Q56.7851 773.375 55.6901 773.117 L20.4891 764.261 Q19.7162 764.003 19.1043 764.003 Q18.7822 764.003 18.6534 764.1 Q18.5246 764.164 18.4279 764.583 Q18.2991 765.002 18.2991 765.871 L18.2991 768.448 Q18.2991 771.088 18.4279 772.731 Q18.5246 774.341 19.0076 775.887 Q19.4907 777.401 20.1671 778.303 Q20.8434 779.172 22.2282 780.138 Q23.6131 781.104 25.2878 781.813 Q26.9625 782.489 29.7 783.455 Q30.6017 783.778 30.8594 783.971 Q31.0848 784.132 31.0848 784.583 Q31.0848 784.905 30.8916 785.162 Q30.6662 785.388 30.3763 785.388 Q29.3135 785.066 29.1847 785.001 L17.5584 781.04 Q16.6244 780.718 16.4634 780.428 Q16.2701 780.106 16.2701 778.914 L16.2701 742.329 Q16.2701 741.749 16.2701 741.556 Q16.2701 741.362 16.3346 741.04 Q16.399 740.718 16.56 740.622 Q16.721 740.525 16.9787 740.525 Z" fill="#000000" fill-rule="evenodd" fill-opacity="1" /><path clip-path="url(#clip300)" d="M 0 0 M8.06077 715.549 L8.98508 716.113 Q7.47462 719.607 5.0624 723.958 Q7.47462 728.309 8.98508 731.804 L8.06077 732.345 Q4.74679 728.535 2.1993 723.958 Q4.76933 719.337 8.06077 715.549 Z" fill="#000000" fill-rule="evenodd" fill-opacity="1" /><path clip-path="url(#clip300)" d="M 0 0 M16.6566 699.283 Q17.0753 699.283 17.3329 699.379 Q17.5906 699.444 17.7194 699.701 Q17.816 699.927 17.8482 700.088 Q17.8804 700.217 17.9126 700.603 Q18.0415 702.181 18.4601 703.502 Q18.8466 704.822 19.6196 705.949 Q20.3925 707.044 20.9078 707.656 Q21.4231 708.236 22.4537 709.267 L23.3876 710.168 L42.1637 726.529 Q42.8078 727.109 44.2248 727.463 L53.5323 729.782 Q57.397 730.683 57.6869 730.683 Q58.2666 730.683 58.4598 730.361 Q58.6208 730.007 58.7175 728.912 L58.8785 726.4 Q58.8785 724.919 59.1361 724.693 Q59.2972 724.564 59.587 724.564 Q60.1989 724.564 60.521 724.822 Q60.8108 725.047 60.8753 725.273 Q60.9075 725.466 60.9075 725.82 L60.7142 734.258 L60.9075 742.567 Q60.9075 743.501 60.1667 743.501 Q59.6836 743.501 59.426 743.437 Q59.1361 743.34 59.0395 743.05 Q58.9107 742.761 58.9107 742.535 Q58.8785 742.31 58.8785 741.698 Q58.8463 740.216 58.8463 739.476 Q58.8141 738.703 58.6208 737.962 Q58.4276 737.221 58.2988 736.964 Q58.1378 736.674 57.5903 736.352 Q57.0106 735.997 56.5597 735.901 Q56.1088 735.772 54.9816 735.514 Q53.9832 735.257 48.5404 733.904 Q43.0976 732.551 42.9688 732.551 Q42.6145 732.551 41.8416 732.809 L20.1348 740.925 Q19.1687 741.279 18.7822 741.569 Q18.3957 741.859 18.1703 742.825 Q17.9126 743.791 17.9126 745.724 Q17.9126 746.271 17.8804 746.529 Q17.8482 746.786 17.6872 747.012 Q17.5262 747.237 17.1719 747.237 Q16.56 747.237 16.2701 746.98 Q15.9481 746.722 15.9159 746.529 Q15.8515 746.303 15.8515 745.981 Q15.8515 745.176 15.9481 742.31 Q16.0447 739.443 16.0447 738.606 L15.8515 730.297 Q15.8515 729.299 16.5922 729.299 Q17.494 729.299 17.7194 729.653 Q17.9126 730.007 17.9126 730.877 Q17.9126 734.774 19.4907 734.774 Q19.684 734.774 20.6179 734.387 L40.1991 727.141 L22.5825 711.843 L22.3248 711.618 Q22.0672 711.424 21.874 711.263 Q21.6807 711.102 21.3265 710.845 Q20.9722 710.587 20.6823 710.458 Q20.3925 710.297 20.0382 710.168 Q19.684 710.039 19.4263 710.039 Q18.9432 710.039 18.6212 710.329 Q18.2669 710.619 18.1381 711.07 Q18.0093 711.521 17.9771 711.843 Q17.9126 712.165 17.9126 712.423 Q17.9126 713.421 17.1075 713.421 Q16.5278 713.421 16.2379 713.163 Q15.9159 712.906 15.8837 712.713 Q15.8515 712.487 15.8515 712.165 Q15.8515 711.102 15.9481 708.88 Q16.0447 706.658 16.0447 705.563 Q16.0447 704.661 15.9481 702.825 Q15.8515 700.99 15.8515 700.152 Q15.8515 699.283 16.6566 699.283 Z" fill="#000000" fill-rule="evenodd" fill-opacity="1" /><path clip-path="url(#clip300)" d="M 0 0 M58.6936 688.09 Q59.3248 688.09 59.4826 688.383 Q59.6179 688.676 59.6179 689.487 L59.6179 693.816 L73.2345 697.243 Q74.4294 697.513 75.4439 697.513 Q76.5711 697.513 77.067 697.175 Q77.563 696.814 77.563 696.07 Q77.563 694.605 76.2329 693.027 Q74.9028 691.426 71.6565 690.074 Q71.2281 689.893 71.1379 689.803 Q71.0252 689.69 71.0252 689.397 Q71.0252 688.834 71.4761 688.834 Q71.6339 688.834 72.3553 689.149 Q73.0767 689.442 74.1363 690.096 Q75.1959 690.727 76.1878 691.561 Q77.1798 692.373 77.9012 693.613 Q78.6 694.853 78.6 696.183 Q78.6 698.054 77.4052 699.249 Q76.2104 700.421 74.3392 700.421 Q73.7305 700.421 71.7917 699.948 Q69.8304 699.474 59.6179 696.904 L59.6179 700.985 Q59.6179 701.549 59.5954 701.774 Q59.5728 701.977 59.4601 702.135 Q59.3248 702.27 59.0543 702.27 Q58.626 702.27 58.4456 702.09 Q58.2427 701.909 58.2202 701.684 Q58.1751 701.436 58.1751 700.872 L58.1751 696.544 L50.8483 694.74 Q50.1268 694.56 49.721 694.109 Q49.2927 693.636 49.2476 693.365 Q49.18 693.094 49.18 692.892 Q49.18 692.283 49.5181 691.922 Q49.8338 691.561 50.4199 691.561 Q50.7355 691.561 58.1751 693.455 L58.1751 689.397 Q58.1751 688.879 58.1976 688.676 Q58.2202 688.45 58.3329 688.27 Q58.4456 688.09 58.6936 688.09 Z" fill="#000000" fill-rule="evenodd" fill-opacity="1" /><path clip-path="url(#clip300)" d="M 0 0 M44.4181 678.729 Q33.2748 678.729 24.2894 674.574 Q20.5213 672.803 17.3651 670.323 Q14.209 667.843 12.8241 666.201 Q11.4393 664.558 11.4393 664.107 Q11.4393 663.463 12.0834 663.431 Q12.4054 663.431 13.2106 664.301 Q24.0318 674.929 44.4181 674.896 Q64.8688 674.896 75.2713 664.558 Q76.3985 663.431 76.7527 663.431 Q77.3969 663.431 77.3969 664.107 Q77.3969 664.558 76.0764 666.136 Q74.756 667.714 71.7286 670.162 Q68.7013 672.61 64.9976 674.381 Q56.0122 678.729 44.4181 678.729 Z" fill="#000000" fill-rule="evenodd" fill-opacity="1" /><path clip-path="url(#clip300)" d="M 0 0 M24.7081 653.401 Q19.0398 653.401 15.2396 650.503 Q11.4393 647.604 11.4393 643.707 Q11.4393 641.324 13.5648 638.973 Q18.6534 633.627 18.6212 626.638 Q18.6212 618.716 12.3732 614.11 Q11.4393 613.305 11.4393 612.725 Q11.4393 612.21 11.8579 611.824 Q12.2444 611.405 12.7597 611.405 Q13.1462 611.405 13.9513 611.92 L63.6128 645.286 Q64.6111 646.026 64.6111 646.606 Q64.6111 647.121 64.1925 647.54 Q63.806 647.926 63.2907 647.926 Q62.8398 647.926 61.9703 647.347 L17.8482 617.717 L17.7838 617.782 Q20.1026 621.196 20.0704 626.574 Q20.0704 631.662 17.3007 636.526 Q20.7145 635.141 24.7725 635.141 Q30.3119 635.141 34.1766 637.621 Q38.0091 640.1 38.0091 643.707 Q38.0091 647.604 34.2732 650.503 Q30.5051 653.401 24.7081 653.401 M19.3297 648.86 Q21.6485 649.311 24.7725 649.311 Q27.8643 649.311 30.1831 648.86 Q32.4697 648.41 33.6613 647.765 Q34.8529 647.089 35.5615 646.187 Q36.2378 645.286 36.3988 644.738 Q36.5598 644.191 36.5598 643.643 Q36.5598 640.938 33.2104 638.877 Q29.8288 636.783 24.7081 636.783 Q19.684 636.783 16.3023 638.877 Q12.8885 640.938 12.8885 643.643 Q12.8885 644.223 13.0496 644.802 Q13.2106 645.35 13.9191 646.22 Q14.5954 647.089 15.7871 647.765 Q16.9787 648.41 19.3297 648.86 M51.2779 624.191 Q45.6097 624.191 41.8094 621.292 Q38.0091 618.394 38.0091 614.497 Q38.0091 610.922 41.8738 608.442 Q45.7385 605.93 51.3423 605.93 Q56.8817 605.93 60.7464 608.41 Q64.6111 610.857 64.6111 614.497 Q64.6111 618.394 60.8431 621.292 Q57.075 624.191 51.2779 624.191 M45.8995 619.65 Q48.2506 620.101 51.3423 620.101 Q54.4341 620.101 56.7529 619.65 Q59.0717 619.167 60.2633 618.522 Q61.4228 617.846 62.0991 616.977 Q62.8076 616.075 62.9686 615.527 Q63.1619 614.948 63.1619 614.432 Q63.1619 611.727 59.8125 609.666 Q56.4309 607.572 51.2779 607.572 Q46.2538 607.572 42.8722 609.666 Q39.4584 611.727 39.4584 614.432 Q39.4584 615.012 39.6516 615.592 Q39.8126 616.139 40.5212 617.009 Q41.1975 617.846 42.3891 618.522 Q43.5485 619.167 45.8995 619.65 Z" fill="#000000" fill-rule="evenodd" fill-opacity="1" /><path clip-path="url(#clip300)" d="M 0 0 M76.7527 599.015 Q76.4307 599.015 75.6255 598.177 Q64.8044 587.549 44.4181 587.549 Q23.9673 587.549 13.6293 597.758 Q12.4376 599.015 12.0834 599.015 Q11.4393 599.015 11.4393 598.37 Q11.4393 597.92 12.7597 596.341 Q14.0801 594.731 17.1075 592.316 Q20.1348 589.868 23.8385 588.065 Q32.824 583.717 44.4181 583.717 Q55.5613 583.717 64.5467 587.871 Q68.3148 589.643 71.471 592.122 Q74.6272 594.602 76.012 596.245 Q77.3969 597.887 77.3969 598.37 Q77.3969 599.015 76.7527 599.015 Z" fill="#000000" fill-rule="evenodd" fill-opacity="1" /><polyline clip-path="url(#clip303)" style="stroke:#0000ff; stroke-width:4; stroke-opacity:1; fill:none" points="
  334.022,1400.1 824.006,1261.03 1313.99,979.996 1803.97,297.604 2293.96,86.6476 
  "/>
<polyline clip-path="url(#clip303)" style="stroke:#ff0000; stroke-width:4; stroke-opacity:1; fill:none" points="
  334.022,1260.18 824.006,1122 1313.99,886.703 1803.97,685.905 2293.96,515.09 
  "/>
<path clip-path="url(#clip300)" d="
M1730.66 1393.09 L2283.5 1393.09 L2283.5 1234.33 L1730.66 1234.33  Z
  " fill="#ffffff" fill-rule="evenodd" fill-opacity="1"/>
<polyline clip-path="url(#clip300)" style="stroke:#000000; stroke-width:4; stroke-opacity:1; fill:none" points="
  1730.66,1393.09 2283.5,1393.09 2283.5,1234.33 1730.66,1234.33 1730.66,1393.09 
  "/>
<polyline clip-path="url(#clip300)" style="stroke:#0000ff; stroke-width:3.5; stroke-opacity:1; fill:none" points="
  1753.74,1287.25 1892.25,1287.25 
  "/>
<path clip-path="url(#clip300)" d="M 0 0 M1943.88 1269.35 Q1943.88 1269.74 1943.8 1270.07 L1942.65 1277.37 Q1942.59 1277.92 1942.46 1278.13 Q1942.36 1278.33 1942.03 1278.33 Q1941.52 1278.33 1941.52 1277.8 Q1941.52 1277.49 1941.64 1277 Q1941.99 1274.68 1941.99 1273.64 Q1941.99 1272.94 1941.85 1272.43 Q1941.73 1271.89 1941.52 1271.53 Q1941.34 1271.16 1940.91 1270.91 Q1940.48 1270.66 1940.07 1270.52 Q1939.66 1270.38 1938.92 1270.32 Q1938.18 1270.23 1937.55 1270.21 Q1936.91 1270.19 1935.87 1270.19 Q1933.59 1270.19 1933.22 1270.28 Q1932.83 1270.38 1932.63 1270.69 Q1932.44 1270.97 1932.24 1271.83 L1926.66 1294.11 L1926.5 1294.99 Q1926.5 1295.48 1926.81 1295.65 Q1927.11 1295.81 1928.06 1295.91 Q1929.41 1296.02 1930.74 1296.02 Q1930.78 1296.02 1930.86 1296.02 Q1931.32 1296.02 1931.5 1296.04 Q1931.68 1296.04 1931.87 1296.08 Q1932.05 1296.12 1932.09 1296.22 Q1932.16 1296.3 1932.16 1296.47 Q1932.16 1296.86 1931.99 1297.06 Q1931.83 1297.25 1931.66 1297.29 Q1931.52 1297.31 1931.23 1297.31 Q1930.66 1297.31 1929.43 1297.27 Q1928.2 1297.23 1927.59 1297.23 L1924.1 1297.19 L1920.54 1297.23 Q1919.98 1297.23 1918.81 1297.27 Q1917.65 1297.31 1917.09 1297.31 Q1916.38 1297.31 1916.38 1296.8 Q1916.38 1296.22 1916.64 1296.12 Q1916.93 1296.02 1918.14 1296.02 Q1919.84 1296.02 1920.76 1295.93 Q1921.68 1295.85 1922.18 1295.57 Q1922.69 1295.28 1922.83 1294.99 Q1922.97 1294.68 1923.14 1293.99 L1928.77 1271.59 Q1928.94 1271.1 1928.94 1270.71 Q1928.94 1270.5 1928.88 1270.42 Q1928.84 1270.34 1928.57 1270.28 Q1928.3 1270.19 1927.75 1270.19 L1926.11 1270.19 Q1924.43 1270.19 1923.38 1270.28 Q1922.36 1270.34 1921.38 1270.64 Q1920.41 1270.95 1919.84 1271.38 Q1919.29 1271.81 1918.67 1272.69 Q1918.06 1273.58 1917.6 1274.64 Q1917.17 1275.71 1916.56 1277.45 Q1916.35 1278.02 1916.23 1278.19 Q1916.13 1278.33 1915.84 1278.33 Q1915.64 1278.33 1915.47 1278.21 Q1915.33 1278.06 1915.33 1277.88 Q1915.53 1277.2 1915.58 1277.12 L1918.1 1269.72 Q1918.3 1269.13 1918.49 1269.03 Q1918.69 1268.9 1919.45 1268.9 L1942.73 1268.9 Q1943.1 1268.9 1943.22 1268.9 Q1943.35 1268.9 1943.55 1268.94 Q1943.76 1268.98 1943.82 1269.09 Q1943.88 1269.19 1943.88 1269.35 Z" fill="#000000" fill-rule="evenodd" fill-opacity="1" /><path clip-path="url(#clip300)" d="M 0 0 M1951.25 1290.93 Q1951.29 1290.42 1952.09 1290.42 L1977.81 1290.42 Q1979.02 1290.42 1979.04 1290.89 Q1979.04 1291.41 1977.89 1291.39 L1952.37 1291.39 Q1951.25 1291.41 1951.25 1290.93 M1951.25 1282.74 Q1951.25 1282.22 1952.13 1282.24 L1977.77 1282.24 Q1979.02 1282.24 1979.04 1282.74 Q1979.04 1283.21 1977.97 1283.21 L1952.09 1283.21 Q1951.25 1283.21 1951.25 1282.74 Z" fill="#000000" fill-rule="evenodd" fill-opacity="1" /><path clip-path="url(#clip300)" d="M 0 0 M1995.22 1273.35 L1995.22 1272.04 Q2000.26 1272.04 2002.87 1269.35 Q2003.58 1269.35 2003.71 1269.52 Q2003.83 1269.68 2003.83 1270.44 L2003.83 1293.99 Q2003.83 1295.24 2004.44 1295.63 Q2005.06 1296.02 2007.74 1296.02 L2009.08 1296.02 L2009.08 1297.31 Q2007.6 1297.19 2002.27 1297.19 Q1996.94 1297.19 1995.49 1297.31 L1995.49 1296.02 L1996.82 1296.02 Q1999.46 1296.02 2000.1 1295.65 Q2000.73 1295.26 2000.73 1293.99 L2000.73 1272.24 Q1998.54 1273.35 1995.22 1273.35 Z" fill="#000000" fill-rule="evenodd" fill-opacity="1" /><path clip-path="url(#clip300)" d="M 0 0 M2012.63 1283.88 Q2012.63 1277.72 2014.19 1274.35 Q2016.36 1269.35 2021.48 1269.35 Q2022.57 1269.35 2023.7 1269.66 Q2024.84 1269.95 2026.28 1271.07 Q2027.73 1272.2 2028.61 1274.05 Q2030.29 1277.61 2030.29 1283.88 Q2030.29 1290.01 2028.74 1293.35 Q2026.46 1298.23 2021.44 1298.23 Q2019.56 1298.23 2017.63 1297.27 Q2015.72 1296.3 2014.51 1293.99 Q2012.63 1290.52 2012.63 1283.88 M2016.11 1283.37 Q2016.11 1289.7 2016.56 1292.23 Q2017.08 1294.95 2018.47 1296.14 Q2019.88 1297.31 2021.44 1297.31 Q2023.12 1297.31 2024.51 1296.06 Q2025.93 1294.79 2026.36 1292.06 Q2026.83 1289.38 2026.81 1283.37 Q2026.81 1277.53 2026.4 1275.19 Q2025.85 1272.47 2024.37 1271.38 Q2022.92 1270.28 2021.44 1270.28 Q2020.89 1270.28 2020.29 1270.44 Q2019.72 1270.6 2018.88 1271.07 Q2018.04 1271.55 2017.38 1272.71 Q2016.75 1273.88 2016.44 1275.65 Q2016.11 1277.92 2016.11 1283.37 Z" fill="#000000" fill-rule="evenodd" fill-opacity="1" /><path clip-path="url(#clip300)" d="M 0 0 M2033.41 1283.88 Q2033.41 1277.72 2034.97 1274.35 Q2037.14 1269.35 2042.26 1269.35 Q2043.35 1269.35 2044.48 1269.66 Q2045.62 1269.95 2047.06 1271.07 Q2048.51 1272.2 2049.4 1274.05 Q2051.08 1277.61 2051.08 1283.88 Q2051.08 1290.01 2049.52 1293.35 Q2047.24 1298.23 2042.22 1298.23 Q2040.34 1298.23 2038.41 1297.27 Q2036.5 1296.3 2035.29 1293.99 Q2033.41 1290.52 2033.41 1283.88 M2036.89 1283.37 Q2036.89 1289.7 2037.34 1292.23 Q2037.86 1294.95 2039.25 1296.14 Q2040.66 1297.31 2042.22 1297.31 Q2043.9 1297.31 2045.3 1296.06 Q2046.71 1294.79 2047.14 1292.06 Q2047.61 1289.38 2047.59 1283.37 Q2047.59 1277.53 2047.18 1275.19 Q2046.63 1272.47 2045.15 1271.38 Q2043.7 1270.28 2042.22 1270.28 Q2041.67 1270.28 2041.07 1270.44 Q2040.5 1270.6 2039.66 1271.07 Q2038.82 1271.55 2038.16 1272.71 Q2037.53 1273.88 2037.22 1275.65 Q2036.89 1277.92 2036.89 1283.37 Z" fill="#000000" fill-rule="evenodd" fill-opacity="1" /><path clip-path="url(#clip300)" d="M 0 0 M2054.83 1296.63 Q2054.19 1295.96 2054.19 1295.07 Q2054.19 1294.19 2054.83 1293.56 Q2055.46 1292.9 2056.42 1292.9 Q2057.35 1292.9 2057.96 1293.52 Q2058.6 1294.11 2058.6 1295.09 Q2058.6 1296.06 2057.92 1296.69 Q2057.26 1297.31 2056.42 1297.31 Q2055.46 1297.31 2054.83 1296.63 Z" fill="#000000" fill-rule="evenodd" fill-opacity="1" /><path clip-path="url(#clip300)" d="M 0 0 M2065.74 1283.88 Q2065.74 1277.72 2067.3 1274.35 Q2069.47 1269.35 2074.59 1269.35 Q2075.68 1269.35 2076.81 1269.66 Q2077.95 1269.95 2079.39 1271.07 Q2080.84 1272.2 2081.72 1274.05 Q2083.4 1277.61 2083.4 1283.88 Q2083.4 1290.01 2081.85 1293.35 Q2079.57 1298.23 2074.55 1298.23 Q2072.67 1298.23 2070.74 1297.27 Q2068.83 1296.3 2067.62 1293.99 Q2065.74 1290.52 2065.74 1283.88 M2069.22 1283.37 Q2069.22 1289.7 2069.67 1292.23 Q2070.19 1294.95 2071.58 1296.14 Q2072.99 1297.31 2074.55 1297.31 Q2076.23 1297.31 2077.62 1296.06 Q2079.04 1294.79 2079.47 1292.06 Q2079.94 1289.38 2079.92 1283.37 Q2079.92 1277.53 2079.51 1275.19 Q2078.96 1272.47 2077.48 1271.38 Q2076.03 1270.28 2074.55 1270.28 Q2074 1270.28 2073.4 1270.44 Q2072.83 1270.6 2071.99 1271.07 Q2071.15 1271.55 2070.49 1272.71 Q2069.86 1273.88 2069.55 1275.65 Q2069.22 1277.92 2069.22 1283.37 Z" fill="#000000" fill-rule="evenodd" fill-opacity="1" /><path clip-path="url(#clip300)" d="M 0 0 M2087.11 1296.63 Q2086.52 1295.96 2086.52 1295.07 Q2086.52 1294.19 2087.09 1293.54 Q2087.69 1292.86 2088.75 1292.86 Q2090 1292.86 2090.72 1294.07 Q2091.44 1295.26 2091.44 1297.27 Q2091.44 1299.44 2090.56 1301.45 Q2089.68 1303.48 2088.81 1304.44 Q2087.95 1305.4 2087.61 1305.4 Q2087.2 1305.4 2087.2 1304.95 Q2087.2 1304.79 2087.48 1304.48 Q2090.5 1301.24 2090.52 1297.27 Q2090.52 1296.63 2090.43 1296.63 L2090.33 1296.71 Q2089.61 1297.31 2088.75 1297.31 Q2087.71 1297.31 2087.11 1296.63 Z" fill="#000000" fill-rule="evenodd" fill-opacity="1" /><path clip-path="url(#clip300)" d="M 0 0 M2125.28 1291.3 Q2124.77 1293.82 2123.72 1295.59 Q2122.43 1297.78 2120.46 1297.78 Q2118.8 1297.78 2117.69 1296.63 Q2116.59 1295.46 2116.59 1293.62 Q2116.59 1293.07 2116.81 1292.14 Q2116.9 1291.73 2116.9 1291.22 Q2116.9 1287.9 2109.7 1287.66 Q2109.11 1290.01 2108.7 1291.61 Q2108.31 1293.19 2108.19 1293.66 Q2108.06 1294.13 2107.96 1294.52 Q2107.88 1294.91 2107.73 1295.42 Q2107.53 1296.26 2107.39 1296.67 Q2107.24 1297.08 2106.85 1297.43 Q2106.48 1297.78 2105.89 1297.78 Q2105.38 1297.78 2105.03 1297.47 Q2104.68 1297.16 2104.68 1296.63 Q2104.68 1296.26 2104.84 1295.67 L2108.7 1280.28 Q2108.8 1279.85 2109.01 1279.54 Q2109.21 1279.23 2109.39 1279.09 Q2109.6 1278.94 2109.85 1278.86 Q2110.09 1278.78 2110.19 1278.78 Q2110.3 1278.76 2110.38 1278.76 Q2110.93 1278.76 2111.26 1279.07 Q2111.61 1279.35 2111.61 1279.89 Q2111.61 1279.97 2111.46 1280.54 Q2111.34 1281.1 2111.14 1281.94 Q2110.93 1282.78 2110.85 1283.17 L2110.01 1286.45 Q2111.18 1286.06 2112.22 1285.36 Q2113.29 1284.66 2115.38 1282.86 Q2116.34 1282.06 2116.92 1281.61 Q2117.51 1281.14 2118.49 1280.5 Q2119.48 1279.85 2120.42 1279.54 Q2121.36 1279.21 2122.27 1279.21 Q2122.96 1279.21 2123.37 1279.54 Q2123.78 1279.85 2123.86 1280.13 Q2123.95 1280.4 2123.95 1280.69 Q2123.95 1281.53 2123.29 1282.24 Q2122.63 1282.96 2121.67 1282.96 Q2120.81 1282.96 2120.44 1282.49 Q2120.07 1282.02 2120.07 1281.49 Q2120.07 1281.08 2120.28 1280.56 Q2119.13 1281.06 2118.15 1281.77 Q2117.16 1282.47 2115.46 1283.93 Q2113.04 1285.99 2111.61 1286.77 Q2112.43 1286.79 2113.04 1286.86 Q2113.68 1286.9 2114.74 1287.04 Q2115.81 1287.18 2116.59 1287.49 Q2117.37 1287.78 2118.13 1288.23 Q2118.9 1288.68 2119.31 1289.42 Q2119.74 1290.16 2119.74 1291.1 Q2119.74 1291.55 2119.54 1292.47 Q2119.19 1293.99 2119.19 1294.83 Q2119.19 1295.89 2119.52 1296.37 Q2119.87 1296.84 2120.54 1296.84 Q2121.83 1296.84 2122.65 1295.5 Q2123.49 1294.15 2124.19 1291.65 Q2124.29 1291.18 2124.4 1291.04 Q2124.5 1290.89 2124.79 1290.89 Q2125.28 1290.89 2125.28 1291.3 Z" fill="#000000" fill-rule="evenodd" fill-opacity="1" /><path clip-path="url(#clip300)" d="M 0 0 M2140.25 1290.93 Q2140.29 1290.42 2141.09 1290.42 L2166.81 1290.42 Q2168.02 1290.42 2168.04 1290.89 Q2168.04 1291.41 2166.9 1291.39 L2141.38 1291.39 Q2140.25 1291.41 2140.25 1290.93 M2140.25 1282.74 Q2140.25 1282.22 2141.13 1282.24 L2166.77 1282.24 Q2168.02 1282.24 2168.04 1282.74 Q2168.04 1283.21 2166.98 1283.21 L2141.09 1283.21 Q2140.25 1283.21 2140.25 1282.74 Z" fill="#000000" fill-rule="evenodd" fill-opacity="1" /><path clip-path="url(#clip300)" d="M 0 0 M2184.23 1283.88 Q2184.23 1277.72 2185.79 1274.35 Q2187.96 1269.35 2193.08 1269.35 Q2194.17 1269.35 2195.29 1269.66 Q2196.44 1269.95 2197.88 1271.07 Q2199.33 1272.2 2200.21 1274.05 Q2201.89 1277.61 2201.89 1283.88 Q2201.89 1290.01 2200.34 1293.35 Q2198.06 1298.23 2193.04 1298.23 Q2191.15 1298.23 2189.23 1297.27 Q2187.32 1296.3 2186.11 1293.99 Q2184.23 1290.52 2184.23 1283.88 M2187.71 1283.37 Q2187.71 1289.7 2188.16 1292.23 Q2188.67 1294.95 2190.07 1296.14 Q2191.48 1297.31 2193.04 1297.31 Q2194.72 1297.31 2196.11 1296.06 Q2197.53 1294.79 2197.96 1292.06 Q2198.43 1289.38 2198.41 1283.37 Q2198.41 1277.53 2198 1275.19 Q2197.45 1272.47 2195.97 1271.38 Q2194.52 1270.28 2193.04 1270.28 Q2192.49 1270.28 2191.89 1270.44 Q2191.32 1270.6 2190.48 1271.07 Q2189.64 1271.55 2188.98 1272.71 Q2188.35 1273.88 2188.04 1275.65 Q2187.71 1277.92 2187.71 1283.37 Z" fill="#000000" fill-rule="evenodd" fill-opacity="1" /><path clip-path="url(#clip300)" d="M 0 0 M2205.64 1296.63 Q2205.01 1295.96 2205.01 1295.07 Q2205.01 1294.19 2205.64 1293.56 Q2206.28 1292.9 2207.24 1292.9 Q2208.17 1292.9 2208.78 1293.52 Q2209.42 1294.11 2209.42 1295.09 Q2209.42 1296.06 2208.74 1296.69 Q2208.08 1297.31 2207.24 1297.31 Q2206.28 1297.31 2205.64 1296.63 Z" fill="#000000" fill-rule="evenodd" fill-opacity="1" /><path clip-path="url(#clip300)" d="M 0 0 M2216.56 1290.54 Q2216.56 1289.29 2217.23 1288.82 Q2217.91 1288.33 2218.63 1288.33 Q2219.59 1288.33 2220.14 1288.95 Q2220.72 1289.54 2220.72 1290.38 Q2220.72 1291.22 2220.14 1291.84 Q2219.59 1292.43 2218.63 1292.43 Q2218.15 1292.43 2217.91 1292.35 Q2218.46 1294.27 2220.14 1295.67 Q2221.84 1297.06 2224.08 1297.06 Q2226.89 1297.06 2228.57 1294.34 Q2229.57 1292.57 2229.57 1288.58 Q2229.57 1285.05 2228.81 1283.29 Q2227.64 1280.6 2225.25 1280.6 Q2221.84 1280.6 2219.84 1283.54 Q2219.59 1283.9 2219.3 1283.93 Q2218.89 1283.93 2218.79 1283.7 Q2218.71 1283.45 2218.71 1282.82 L2218.71 1270.4 Q2218.71 1269.39 2219.12 1269.39 Q2219.28 1269.39 2219.63 1269.52 Q2222.27 1270.69 2225.2 1270.71 Q2228.22 1270.71 2230.92 1269.48 Q2231.13 1269.35 2231.25 1269.35 Q2231.66 1269.35 2231.68 1269.82 Q2231.68 1269.99 2231.33 1270.48 Q2231 1270.95 2230.29 1271.59 Q2229.57 1272.2 2228.65 1272.8 Q2227.73 1273.39 2226.37 1273.8 Q2225.04 1274.19 2223.57 1274.19 Q2221.8 1274.19 2220 1273.64 L2220 1281.81 Q2222.17 1279.68 2225.33 1279.68 Q2228.69 1279.68 2231 1282.39 Q2233.32 1285.09 2233.32 1288.86 Q2233.32 1292.82 2230.57 1295.52 Q2227.85 1298.23 2224.16 1298.23 Q2220.8 1298.23 2218.67 1295.83 Q2216.56 1293.43 2216.56 1290.54 Z" fill="#000000" fill-rule="evenodd" fill-opacity="1" /><polyline clip-path="url(#clip300)" style="stroke:#ff0000; stroke-width:3.5; stroke-opacity:1; fill:none" points="
  1753.74,1340.17 1892.25,1340.17 
  "/>
<path clip-path="url(#clip300)" d="M 0 0 M1943.88 1322.27 Q1943.88 1322.66 1943.8 1322.99 L1942.65 1330.29 Q1942.59 1330.84 1942.46 1331.05 Q1942.36 1331.25 1942.03 1331.25 Q1941.52 1331.25 1941.52 1330.72 Q1941.52 1330.41 1941.64 1329.92 Q1941.99 1327.6 1941.99 1326.56 Q1941.99 1325.86 1941.85 1325.35 Q1941.73 1324.81 1941.52 1324.45 Q1941.34 1324.08 1940.91 1323.83 Q1940.48 1323.58 1940.07 1323.44 Q1939.66 1323.3 1938.92 1323.24 Q1938.18 1323.15 1937.55 1323.13 Q1936.91 1323.11 1935.87 1323.11 Q1933.59 1323.11 1933.22 1323.2 Q1932.83 1323.3 1932.63 1323.61 Q1932.44 1323.89 1932.24 1324.75 L1926.66 1347.03 L1926.5 1347.91 Q1926.5 1348.4 1926.81 1348.57 Q1927.11 1348.73 1928.06 1348.83 Q1929.41 1348.94 1930.74 1348.94 Q1930.78 1348.94 1930.86 1348.94 Q1931.32 1348.94 1931.5 1348.96 Q1931.68 1348.96 1931.87 1349 Q1932.05 1349.04 1932.09 1349.14 Q1932.16 1349.22 1932.16 1349.39 Q1932.16 1349.78 1931.99 1349.98 Q1931.83 1350.17 1931.66 1350.21 Q1931.52 1350.23 1931.23 1350.23 Q1930.66 1350.23 1929.43 1350.19 Q1928.2 1350.15 1927.59 1350.15 L1924.1 1350.11 L1920.54 1350.15 Q1919.98 1350.15 1918.81 1350.19 Q1917.65 1350.23 1917.09 1350.23 Q1916.38 1350.23 1916.38 1349.72 Q1916.38 1349.14 1916.64 1349.04 Q1916.93 1348.94 1918.14 1348.94 Q1919.84 1348.94 1920.76 1348.85 Q1921.68 1348.77 1922.18 1348.49 Q1922.69 1348.2 1922.83 1347.91 Q1922.97 1347.6 1923.14 1346.91 L1928.77 1324.51 Q1928.94 1324.02 1928.94 1323.63 Q1928.94 1323.42 1928.88 1323.34 Q1928.84 1323.26 1928.57 1323.2 Q1928.3 1323.11 1927.75 1323.11 L1926.11 1323.11 Q1924.43 1323.11 1923.38 1323.2 Q1922.36 1323.26 1921.38 1323.56 Q1920.41 1323.87 1919.84 1324.3 Q1919.29 1324.73 1918.67 1325.61 Q1918.06 1326.5 1917.6 1327.56 Q1917.17 1328.63 1916.56 1330.37 Q1916.35 1330.94 1916.23 1331.11 Q1916.13 1331.25 1915.84 1331.25 Q1915.64 1331.25 1915.47 1331.13 Q1915.33 1330.98 1915.33 1330.8 Q1915.53 1330.12 1915.58 1330.04 L1918.1 1322.64 Q1918.3 1322.05 1918.49 1321.95 Q1918.69 1321.82 1919.45 1321.82 L1942.73 1321.82 Q1943.1 1321.82 1943.22 1321.82 Q1943.35 1321.82 1943.55 1321.86 Q1943.76 1321.9 1943.82 1322.01 Q1943.88 1322.11 1943.88 1322.27 Z" fill="#000000" fill-rule="evenodd" fill-opacity="1" /><path clip-path="url(#clip300)" d="M 0 0 M1951.25 1343.85 Q1951.29 1343.34 1952.09 1343.34 L1977.81 1343.34 Q1979.02 1343.34 1979.04 1343.81 Q1979.04 1344.33 1977.89 1344.31 L1952.37 1344.31 Q1951.25 1344.33 1951.25 1343.85 M1951.25 1335.66 Q1951.25 1335.14 1952.13 1335.16 L1977.77 1335.16 Q1979.02 1335.16 1979.04 1335.66 Q1979.04 1336.13 1977.97 1336.13 L1952.09 1336.13 Q1951.25 1336.13 1951.25 1335.66 Z" fill="#000000" fill-rule="evenodd" fill-opacity="1" /><path clip-path="url(#clip300)" d="M 0 0 M1995.22 1326.27 L1995.22 1324.96 Q2000.26 1324.96 2002.87 1322.27 Q2003.58 1322.27 2003.71 1322.44 Q2003.83 1322.6 2003.83 1323.36 L2003.83 1346.91 Q2003.83 1348.16 2004.44 1348.55 Q2005.06 1348.94 2007.74 1348.94 L2009.08 1348.94 L2009.08 1350.23 Q2007.6 1350.11 2002.27 1350.11 Q1996.94 1350.11 1995.49 1350.23 L1995.49 1348.94 L1996.82 1348.94 Q1999.46 1348.94 2000.1 1348.57 Q2000.73 1348.18 2000.73 1346.91 L2000.73 1325.16 Q1998.54 1326.27 1995.22 1326.27 Z" fill="#000000" fill-rule="evenodd" fill-opacity="1" /><path clip-path="url(#clip300)" d="M 0 0 M2012.63 1336.8 Q2012.63 1330.64 2014.19 1327.27 Q2016.36 1322.27 2021.48 1322.27 Q2022.57 1322.27 2023.7 1322.58 Q2024.84 1322.87 2026.28 1323.99 Q2027.73 1325.12 2028.61 1326.97 Q2030.29 1330.53 2030.29 1336.8 Q2030.29 1342.93 2028.74 1346.27 Q2026.46 1351.15 2021.44 1351.15 Q2019.56 1351.15 2017.63 1350.19 Q2015.72 1349.22 2014.51 1346.91 Q2012.63 1343.44 2012.63 1336.8 M2016.11 1336.29 Q2016.11 1342.62 2016.56 1345.15 Q2017.08 1347.87 2018.47 1349.06 Q2019.88 1350.23 2021.44 1350.23 Q2023.12 1350.23 2024.51 1348.98 Q2025.93 1347.71 2026.36 1344.98 Q2026.83 1342.3 2026.81 1336.29 Q2026.81 1330.45 2026.4 1328.11 Q2025.85 1325.39 2024.37 1324.3 Q2022.92 1323.2 2021.44 1323.2 Q2020.89 1323.2 2020.29 1323.36 Q2019.72 1323.52 2018.88 1323.99 Q2018.04 1324.47 2017.38 1325.63 Q2016.75 1326.8 2016.44 1328.57 Q2016.11 1330.84 2016.11 1336.29 Z" fill="#000000" fill-rule="evenodd" fill-opacity="1" /><path clip-path="url(#clip300)" d="M 0 0 M2033.41 1336.8 Q2033.41 1330.64 2034.97 1327.27 Q2037.14 1322.27 2042.26 1322.27 Q2043.35 1322.27 2044.48 1322.58 Q2045.62 1322.87 2047.06 1323.99 Q2048.51 1325.12 2049.4 1326.97 Q2051.08 1330.53 2051.08 1336.8 Q2051.08 1342.93 2049.52 1346.27 Q2047.24 1351.15 2042.22 1351.15 Q2040.34 1351.15 2038.41 1350.19 Q2036.5 1349.22 2035.29 1346.91 Q2033.41 1343.44 2033.41 1336.8 M2036.89 1336.29 Q2036.89 1342.62 2037.34 1345.15 Q2037.86 1347.87 2039.25 1349.06 Q2040.66 1350.23 2042.22 1350.23 Q2043.9 1350.23 2045.3 1348.98 Q2046.71 1347.71 2047.14 1344.98 Q2047.61 1342.3 2047.59 1336.29 Q2047.59 1330.45 2047.18 1328.11 Q2046.63 1325.39 2045.15 1324.3 Q2043.7 1323.2 2042.22 1323.2 Q2041.67 1323.2 2041.07 1323.36 Q2040.5 1323.52 2039.66 1323.99 Q2038.82 1324.47 2038.16 1325.63 Q2037.53 1326.8 2037.22 1328.57 Q2036.89 1330.84 2036.89 1336.29 Z" fill="#000000" fill-rule="evenodd" fill-opacity="1" /><path clip-path="url(#clip300)" d="M 0 0 M2054.83 1349.55 Q2054.19 1348.88 2054.19 1347.99 Q2054.19 1347.11 2054.83 1346.48 Q2055.46 1345.82 2056.42 1345.82 Q2057.35 1345.82 2057.96 1346.44 Q2058.6 1347.03 2058.6 1348.01 Q2058.6 1348.98 2057.92 1349.61 Q2057.26 1350.23 2056.42 1350.23 Q2055.46 1350.23 2054.83 1349.55 Z" fill="#000000" fill-rule="evenodd" fill-opacity="1" /><path clip-path="url(#clip300)" d="M 0 0 M2065.74 1336.8 Q2065.74 1330.64 2067.3 1327.27 Q2069.47 1322.27 2074.59 1322.27 Q2075.68 1322.27 2076.81 1322.58 Q2077.95 1322.87 2079.39 1323.99 Q2080.84 1325.12 2081.72 1326.97 Q2083.4 1330.53 2083.4 1336.8 Q2083.4 1342.93 2081.85 1346.27 Q2079.57 1351.15 2074.55 1351.15 Q2072.67 1351.15 2070.74 1350.19 Q2068.83 1349.22 2067.62 1346.91 Q2065.74 1343.44 2065.74 1336.8 M2069.22 1336.29 Q2069.22 1342.62 2069.67 1345.15 Q2070.19 1347.87 2071.58 1349.06 Q2072.99 1350.23 2074.55 1350.23 Q2076.23 1350.23 2077.62 1348.98 Q2079.04 1347.71 2079.47 1344.98 Q2079.94 1342.3 2079.92 1336.29 Q2079.92 1330.45 2079.51 1328.11 Q2078.96 1325.39 2077.48 1324.3 Q2076.03 1323.2 2074.55 1323.2 Q2074 1323.2 2073.4 1323.36 Q2072.83 1323.52 2071.99 1323.99 Q2071.15 1324.47 2070.49 1325.63 Q2069.86 1326.8 2069.55 1328.57 Q2069.22 1330.84 2069.22 1336.29 Z" fill="#000000" fill-rule="evenodd" fill-opacity="1" /><path clip-path="url(#clip300)" d="M 0 0 M2087.11 1349.55 Q2086.52 1348.88 2086.52 1347.99 Q2086.52 1347.11 2087.09 1346.46 Q2087.69 1345.78 2088.75 1345.78 Q2090 1345.78 2090.72 1346.99 Q2091.44 1348.18 2091.44 1350.19 Q2091.44 1352.36 2090.56 1354.37 Q2089.68 1356.4 2088.81 1357.36 Q2087.95 1358.32 2087.61 1358.32 Q2087.2 1358.32 2087.2 1357.87 Q2087.2 1357.71 2087.48 1357.4 Q2090.5 1354.16 2090.52 1350.19 Q2090.52 1349.55 2090.43 1349.55 L2090.33 1349.63 Q2089.61 1350.23 2088.75 1350.23 Q2087.71 1350.23 2087.11 1349.55 Z" fill="#000000" fill-rule="evenodd" fill-opacity="1" /><path clip-path="url(#clip300)" d="M 0 0 M2125.28 1344.22 Q2124.77 1346.74 2123.72 1348.51 Q2122.43 1350.7 2120.46 1350.7 Q2118.8 1350.7 2117.69 1349.55 Q2116.59 1348.38 2116.59 1346.54 Q2116.59 1345.99 2116.81 1345.06 Q2116.9 1344.65 2116.9 1344.14 Q2116.9 1340.82 2109.7 1340.58 Q2109.11 1342.93 2108.7 1344.53 Q2108.31 1346.11 2108.19 1346.58 Q2108.06 1347.05 2107.96 1347.44 Q2107.88 1347.83 2107.73 1348.34 Q2107.53 1349.18 2107.39 1349.59 Q2107.24 1350 2106.85 1350.35 Q2106.48 1350.7 2105.89 1350.7 Q2105.38 1350.7 2105.03 1350.39 Q2104.68 1350.08 2104.68 1349.55 Q2104.68 1349.18 2104.84 1348.59 L2108.7 1333.2 Q2108.8 1332.77 2109.01 1332.46 Q2109.21 1332.15 2109.39 1332.01 Q2109.6 1331.86 2109.85 1331.78 Q2110.09 1331.7 2110.19 1331.7 Q2110.3 1331.68 2110.38 1331.68 Q2110.93 1331.68 2111.26 1331.99 Q2111.61 1332.27 2111.61 1332.81 Q2111.61 1332.89 2111.46 1333.46 Q2111.34 1334.02 2111.14 1334.86 Q2110.93 1335.7 2110.85 1336.09 L2110.01 1339.37 Q2111.18 1338.98 2112.22 1338.28 Q2113.29 1337.58 2115.38 1335.78 Q2116.34 1334.98 2116.92 1334.53 Q2117.51 1334.06 2118.49 1333.42 Q2119.48 1332.77 2120.42 1332.46 Q2121.36 1332.13 2122.27 1332.13 Q2122.96 1332.13 2123.37 1332.46 Q2123.78 1332.77 2123.86 1333.05 Q2123.95 1333.32 2123.95 1333.61 Q2123.95 1334.45 2123.29 1335.16 Q2122.63 1335.88 2121.67 1335.88 Q2120.81 1335.88 2120.44 1335.41 Q2120.07 1334.94 2120.07 1334.41 Q2120.07 1334 2120.28 1333.48 Q2119.13 1333.98 2118.15 1334.69 Q2117.16 1335.39 2115.46 1336.85 Q2113.04 1338.91 2111.61 1339.69 Q2112.43 1339.71 2113.04 1339.78 Q2113.68 1339.82 2114.74 1339.96 Q2115.81 1340.1 2116.59 1340.41 Q2117.37 1340.7 2118.13 1341.15 Q2118.9 1341.6 2119.31 1342.34 Q2119.74 1343.08 2119.74 1344.02 Q2119.74 1344.47 2119.54 1345.39 Q2119.19 1346.91 2119.19 1347.75 Q2119.19 1348.81 2119.52 1349.29 Q2119.87 1349.76 2120.54 1349.76 Q2121.83 1349.76 2122.65 1348.42 Q2123.49 1347.07 2124.19 1344.57 Q2124.29 1344.1 2124.4 1343.96 Q2124.5 1343.81 2124.79 1343.81 Q2125.28 1343.81 2125.28 1344.22 Z" fill="#000000" fill-rule="evenodd" fill-opacity="1" /><path clip-path="url(#clip300)" d="M 0 0 M2140.25 1343.85 Q2140.29 1343.34 2141.09 1343.34 L2166.81 1343.34 Q2168.02 1343.34 2168.04 1343.81 Q2168.04 1344.33 2166.9 1344.31 L2141.38 1344.31 Q2140.25 1344.33 2140.25 1343.85 M2140.25 1335.66 Q2140.25 1335.14 2141.13 1335.16 L2166.77 1335.16 Q2168.02 1335.16 2168.04 1335.66 Q2168.04 1336.13 2166.98 1336.13 L2141.09 1336.13 Q2140.25 1336.13 2140.25 1335.66 Z" fill="#000000" fill-rule="evenodd" fill-opacity="1" /><path clip-path="url(#clip300)" d="M 0 0 M2184.23 1350.23 Q2184.23 1349.47 2184.29 1349.24 Q2184.37 1349.02 2184.7 1348.67 L2192.75 1339.69 Q2197.16 1334.73 2197.16 1330.41 Q2197.16 1327.6 2195.68 1325.59 Q2194.23 1323.58 2191.54 1323.58 Q2189.7 1323.58 2188.14 1324.71 Q2186.58 1325.84 2185.87 1327.85 Q2185.99 1327.81 2186.42 1327.81 Q2187.47 1327.81 2188.04 1328.46 Q2188.63 1329.12 2188.63 1330 Q2188.63 1331.13 2187.9 1331.68 Q2187.18 1332.21 2186.46 1332.21 Q2186.17 1332.21 2185.79 1332.15 Q2185.42 1332.09 2184.82 1331.52 Q2184.23 1330.92 2184.23 1329.88 Q2184.23 1326.95 2186.44 1324.61 Q2188.67 1322.27 2192.08 1322.27 Q2195.93 1322.27 2198.45 1324.57 Q2200.99 1326.84 2200.99 1330.41 Q2200.99 1331.66 2200.6 1332.81 Q2200.23 1333.93 2199.72 1334.82 Q2199.23 1335.7 2197.88 1337.11 Q2196.52 1338.53 2195.44 1339.53 Q2194.35 1340.53 2191.91 1342.67 L2187.47 1346.99 L2195.03 1346.99 Q2198.72 1346.99 2199 1346.66 Q2199.41 1346.07 2199.93 1342.93 L2200.99 1342.93 L2199.8 1350.23 L2184.23 1350.23 Z" fill="#000000" fill-rule="evenodd" fill-opacity="1" /><path clip-path="url(#clip300)" d="M 0 0 M2205.64 1349.55 Q2205.01 1348.88 2205.01 1347.99 Q2205.01 1347.11 2205.64 1346.48 Q2206.28 1345.82 2207.24 1345.82 Q2208.17 1345.82 2208.78 1346.44 Q2209.42 1347.03 2209.42 1348.01 Q2209.42 1348.98 2208.74 1349.61 Q2208.08 1350.23 2207.24 1350.23 Q2206.28 1350.23 2205.64 1349.55 Z" fill="#000000" fill-rule="evenodd" fill-opacity="1" /><path clip-path="url(#clip300)" d="M 0 0 M2216.56 1336.8 Q2216.56 1330.64 2218.11 1327.27 Q2220.29 1322.27 2225.41 1322.27 Q2226.5 1322.27 2227.62 1322.58 Q2228.77 1322.87 2230.21 1323.99 Q2231.66 1325.12 2232.54 1326.97 Q2234.22 1330.53 2234.22 1336.8 Q2234.22 1342.93 2232.67 1346.27 Q2230.39 1351.15 2225.37 1351.15 Q2223.48 1351.15 2221.56 1350.19 Q2219.65 1349.22 2218.44 1346.91 Q2216.56 1343.44 2216.56 1336.8 M2220.04 1336.29 Q2220.04 1342.62 2220.49 1345.15 Q2221 1347.87 2222.4 1349.06 Q2223.81 1350.23 2225.37 1350.23 Q2227.05 1350.23 2228.44 1348.98 Q2229.86 1347.71 2230.29 1344.98 Q2230.76 1342.3 2230.74 1336.29 Q2230.74 1330.45 2230.33 1328.11 Q2229.78 1325.39 2228.3 1324.3 Q2226.84 1323.2 2225.37 1323.2 Q2224.82 1323.2 2224.22 1323.36 Q2223.65 1323.52 2222.81 1323.99 Q2221.97 1324.47 2221.31 1325.63 Q2220.68 1326.8 2220.37 1328.57 Q2220.04 1330.84 2220.04 1336.29 Z" fill="#000000" fill-rule="evenodd" fill-opacity="1" /></svg>
