<?xml version="1.0" encoding="utf-8"?>
<svg xmlns="http://www.w3.org/2000/svg" xmlns:xlink="http://www.w3.org/1999/xlink" width="600" height="400" viewBox="0 0 2400 1600">
<defs>
  <clipPath id="clip990">
    <rect x="0" y="0" width="2400" height="1600"/>
  </clipPath>
</defs>
<path clip-path="url(#clip990)" d="
M0 1600 L2400 1600 L2400 0 L0 0  Z
  " fill="#ffffff" fill-rule="evenodd" fill-opacity="1"/>
<defs>
  <clipPath id="clip991">
    <rect x="480" y="0" width="1681" height="1600"/>
  </clipPath>
</defs>
<defs>
  <clipPath id="clip992">
    <rect x="290" y="47" width="1434" height="1393"/>
  </clipPath>
</defs>
<path clip-path="url(#clip990)" d="
M244.164 1439.5 L1749.27 1439.5 L1749.27 47.2441 L244.164 47.2441  Z
  " fill="#ffffff" fill-rule="evenodd" fill-opacity="1"/>
<defs>
  <clipPath id="clip993">
    <rect x="244" y="47" width="1506" height="1393"/>
  </clipPath>
</defs>
<polyline clip-path="url(#clip993)" style="stroke:#000000; stroke-width:2; stroke-opacity:0.1; fill:none" points="
  286.477,1439.5 286.477,47.2441 
  "/>
<polyline clip-path="url(#clip993)" style="stroke:#000000; stroke-width:2; stroke-opacity:0.1; fill:none" points="
  570.516,1439.5 570.516,47.2441 
  "/>
<polyline clip-path="url(#clip993)" style="stroke:#000000; stroke-width:2; stroke-opacity:0.1; fill:none" points="
  854.555,1439.5 854.555,47.2441 
  "/>
<polyline clip-path="url(#clip993)" style="stroke:#000000; stroke-width:2; stroke-opacity:0.1; fill:none" points="
  1138.59,1439.5 1138.59,47.2441 
  "/>
<polyline clip-path="url(#clip993)" style="stroke:#000000; stroke-width:2; stroke-opacity:0.1; fill:none" points="
  1422.63,1439.5 1422.63,47.2441 
  "/>
<polyline clip-path="url(#clip993)" style="stroke:#000000; stroke-width:2; stroke-opacity:0.1; fill:none" points="
  1706.67,1439.5 1706.67,47.2441 
  "/>
<polyline clip-path="url(#clip990)" style="stroke:#000000; stroke-width:4; stroke-opacity:1; fill:none" points="
  244.164,1439.5 1749.27,1439.5 
  "/>
<polyline clip-path="url(#clip990)" style="stroke:#000000; stroke-width:4; stroke-opacity:1; fill:none" points="
  286.477,1439.5 286.477,1422.79 
  "/>
<polyline clip-path="url(#clip990)" style="stroke:#000000; stroke-width:4; stroke-opacity:1; fill:none" points="
  570.516,1439.5 570.516,1422.79 
  "/>
<polyline clip-path="url(#clip990)" style="stroke:#000000; stroke-width:4; stroke-opacity:1; fill:none" points="
  854.555,1439.5 854.555,1422.79 
  "/>
<polyline clip-path="url(#clip990)" style="stroke:#000000; stroke-width:4; stroke-opacity:1; fill:none" points="
  1138.59,1439.5 1138.59,1422.79 
  "/>
<polyline clip-path="url(#clip990)" style="stroke:#000000; stroke-width:4; stroke-opacity:1; fill:none" points="
  1422.63,1439.5 1422.63,1422.79 
  "/>
<polyline clip-path="url(#clip990)" style="stroke:#000000; stroke-width:4; stroke-opacity:1; fill:none" points="
  1706.67,1439.5 1706.67,1422.79 
  "/>
<path clip-path="url(#clip990)" d="M 0 0 M286.477 1468.69 Q282.866 1468.69 281.037 1472.26 Q279.231 1475.8 279.231 1482.93 Q279.231 1490.04 281.037 1493.6 Q282.866 1497.14 286.477 1497.14 Q290.111 1497.14 291.917 1493.6 Q293.745 1490.04 293.745 1482.93 Q293.745 1475.8 291.917 1472.26 Q290.111 1468.69 286.477 1468.69 M286.477 1464.99 Q292.287 1464.99 295.343 1469.6 Q298.421 1474.18 298.421 1482.93 Q298.421 1491.66 295.343 1496.26 Q292.287 1500.85 286.477 1500.85 Q280.667 1500.85 277.588 1496.26 Q274.532 1491.66 274.532 1482.93 Q274.532 1474.18 277.588 1469.6 Q280.667 1464.99 286.477 1464.99 Z" fill="#000000" fill-rule="evenodd" fill-opacity="1" /><path clip-path="url(#clip990)" d="M 0 0 M530.122 1496.24 L537.761 1496.24 L537.761 1469.87 L529.451 1471.54 L529.451 1467.28 L537.715 1465.61 L542.391 1465.61 L542.391 1496.24 L550.03 1496.24 L550.03 1500.17 L530.122 1500.17 L530.122 1496.24 Z" fill="#000000" fill-rule="evenodd" fill-opacity="1" /><path clip-path="url(#clip990)" d="M 0 0 M569.474 1468.69 Q565.863 1468.69 564.034 1472.26 Q562.229 1475.8 562.229 1482.93 Q562.229 1490.04 564.034 1493.6 Q565.863 1497.14 569.474 1497.14 Q573.108 1497.14 574.914 1493.6 Q576.743 1490.04 576.743 1482.93 Q576.743 1475.8 574.914 1472.26 Q573.108 1468.69 569.474 1468.69 M569.474 1464.99 Q575.284 1464.99 578.34 1469.6 Q581.418 1474.18 581.418 1482.93 Q581.418 1491.66 578.34 1496.26 Q575.284 1500.85 569.474 1500.85 Q563.664 1500.85 560.585 1496.26 Q557.53 1491.66 557.53 1482.93 Q557.53 1474.18 560.585 1469.6 Q563.664 1464.99 569.474 1464.99 Z" fill="#000000" fill-rule="evenodd" fill-opacity="1" /><path clip-path="url(#clip990)" d="M 0 0 M599.636 1468.69 Q596.025 1468.69 594.196 1472.26 Q592.391 1475.8 592.391 1482.93 Q592.391 1490.04 594.196 1493.6 Q596.025 1497.14 599.636 1497.14 Q603.27 1497.14 605.076 1493.6 Q606.904 1490.04 606.904 1482.93 Q606.904 1475.8 605.076 1472.26 Q603.27 1468.69 599.636 1468.69 M599.636 1464.99 Q605.446 1464.99 608.502 1469.6 Q611.58 1474.18 611.58 1482.93 Q611.58 1491.66 608.502 1496.26 Q605.446 1500.85 599.636 1500.85 Q593.826 1500.85 590.747 1496.26 Q587.692 1491.66 587.692 1482.93 Q587.692 1474.18 590.747 1469.6 Q593.826 1464.99 599.636 1464.99 Z" fill="#000000" fill-rule="evenodd" fill-opacity="1" /><path clip-path="url(#clip990)" d="M 0 0 M818.247 1496.24 L834.566 1496.24 L834.566 1500.17 L812.622 1500.17 L812.622 1496.24 Q815.284 1493.48 819.867 1488.85 Q824.474 1484.2 825.654 1482.86 Q827.9 1480.34 828.779 1478.6 Q829.682 1476.84 829.682 1475.15 Q829.682 1472.4 827.738 1470.66 Q825.816 1468.92 822.715 1468.92 Q820.515 1468.92 818.062 1469.69 Q815.631 1470.45 812.853 1472 L812.853 1467.28 Q815.678 1466.15 818.131 1465.57 Q820.585 1464.99 822.622 1464.99 Q827.992 1464.99 831.187 1467.67 Q834.381 1470.36 834.381 1474.85 Q834.381 1476.98 833.571 1478.9 Q832.784 1480.8 830.677 1483.39 Q830.099 1484.06 826.997 1487.28 Q823.895 1490.47 818.247 1496.24 Z" fill="#000000" fill-rule="evenodd" fill-opacity="1" /><path clip-path="url(#clip990)" d="M 0 0 M854.381 1468.69 Q850.77 1468.69 848.941 1472.26 Q847.136 1475.8 847.136 1482.93 Q847.136 1490.04 848.941 1493.6 Q850.77 1497.14 854.381 1497.14 Q858.015 1497.14 859.821 1493.6 Q861.649 1490.04 861.649 1482.93 Q861.649 1475.8 859.821 1472.26 Q858.015 1468.69 854.381 1468.69 M854.381 1464.99 Q860.191 1464.99 863.247 1469.6 Q866.325 1474.18 866.325 1482.93 Q866.325 1491.66 863.247 1496.26 Q860.191 1500.85 854.381 1500.85 Q848.571 1500.85 845.492 1496.26 Q842.437 1491.66 842.437 1482.93 Q842.437 1474.18 845.492 1469.6 Q848.571 1464.99 854.381 1464.99 Z" fill="#000000" fill-rule="evenodd" fill-opacity="1" /><path clip-path="url(#clip990)" d="M 0 0 M884.543 1468.69 Q880.932 1468.69 879.103 1472.26 Q877.298 1475.8 877.298 1482.93 Q877.298 1490.04 879.103 1493.6 Q880.932 1497.14 884.543 1497.14 Q888.177 1497.14 889.983 1493.6 Q891.811 1490.04 891.811 1482.93 Q891.811 1475.8 889.983 1472.26 Q888.177 1468.69 884.543 1468.69 M884.543 1464.99 Q890.353 1464.99 893.409 1469.6 Q896.487 1474.18 896.487 1482.93 Q896.487 1491.66 893.409 1496.26 Q890.353 1500.85 884.543 1500.85 Q878.733 1500.85 875.654 1496.26 Q872.598 1491.66 872.598 1482.93 Q872.598 1474.18 875.654 1469.6 Q878.733 1464.99 884.543 1464.99 Z" fill="#000000" fill-rule="evenodd" fill-opacity="1" /><path clip-path="url(#clip990)" d="M 0 0 M1112.36 1481.54 Q1115.71 1482.26 1117.59 1484.53 Q1119.48 1486.79 1119.48 1490.13 Q1119.48 1495.24 1115.97 1498.04 Q1112.45 1500.85 1105.97 1500.85 Q1103.79 1500.85 1101.48 1500.41 Q1099.18 1499.99 1096.73 1499.13 L1096.73 1494.62 Q1098.67 1495.75 1100.99 1496.33 Q1103.3 1496.91 1105.83 1496.91 Q1110.23 1496.91 1112.52 1495.17 Q1114.83 1493.44 1114.83 1490.13 Q1114.83 1487.07 1112.68 1485.36 Q1110.55 1483.62 1106.73 1483.62 L1102.7 1483.62 L1102.7 1479.78 L1106.92 1479.78 Q1110.36 1479.78 1112.19 1478.41 Q1114.02 1477.03 1114.02 1474.43 Q1114.02 1471.77 1112.12 1470.36 Q1110.25 1468.92 1106.73 1468.92 Q1104.81 1468.92 1102.61 1469.34 Q1100.41 1469.76 1097.77 1470.64 L1097.77 1466.47 Q1100.43 1465.73 1102.75 1465.36 Q1105.09 1464.99 1107.15 1464.99 Q1112.47 1464.99 1115.57 1467.42 Q1118.67 1469.83 1118.67 1473.95 Q1118.67 1476.82 1117.03 1478.81 Q1115.39 1480.78 1112.36 1481.54 Z" fill="#000000" fill-rule="evenodd" fill-opacity="1" /><path clip-path="url(#clip990)" d="M 0 0 M1138.35 1468.69 Q1134.74 1468.69 1132.91 1472.26 Q1131.11 1475.8 1131.11 1482.93 Q1131.11 1490.04 1132.91 1493.6 Q1134.74 1497.14 1138.35 1497.14 Q1141.98 1497.14 1143.79 1493.6 Q1145.62 1490.04 1145.62 1482.93 Q1145.62 1475.8 1143.79 1472.26 Q1141.98 1468.69 1138.35 1468.69 M1138.35 1464.99 Q1144.16 1464.99 1147.22 1469.6 Q1150.29 1474.18 1150.29 1482.93 Q1150.29 1491.66 1147.22 1496.26 Q1144.16 1500.85 1138.35 1500.85 Q1132.54 1500.85 1129.46 1496.26 Q1126.41 1491.66 1126.41 1482.93 Q1126.41 1474.18 1129.46 1469.6 Q1132.54 1464.99 1138.35 1464.99 Z" fill="#000000" fill-rule="evenodd" fill-opacity="1" /><path clip-path="url(#clip990)" d="M 0 0 M1168.51 1468.69 Q1164.9 1468.69 1163.07 1472.26 Q1161.27 1475.8 1161.27 1482.93 Q1161.27 1490.04 1163.07 1493.6 Q1164.9 1497.14 1168.51 1497.14 Q1172.15 1497.14 1173.95 1493.6 Q1175.78 1490.04 1175.78 1482.93 Q1175.78 1475.8 1173.95 1472.26 Q1172.15 1468.69 1168.51 1468.69 M1168.51 1464.99 Q1174.32 1464.99 1177.38 1469.6 Q1180.46 1474.18 1180.46 1482.93 Q1180.46 1491.66 1177.38 1496.26 Q1174.32 1500.85 1168.51 1500.85 Q1162.7 1500.85 1159.62 1496.26 Q1156.57 1491.66 1156.57 1482.93 Q1156.57 1474.18 1159.62 1469.6 Q1162.7 1464.99 1168.51 1464.99 Z" fill="#000000" fill-rule="evenodd" fill-opacity="1" /><path clip-path="url(#clip990)" d="M 0 0 M1395.72 1469.69 L1383.92 1488.14 L1395.72 1488.14 L1395.72 1469.69 M1394.5 1465.61 L1400.38 1465.61 L1400.38 1488.14 L1405.31 1488.14 L1405.31 1492.03 L1400.38 1492.03 L1400.38 1500.17 L1395.72 1500.17 L1395.72 1492.03 L1380.12 1492.03 L1380.12 1487.51 L1394.5 1465.61 Z" fill="#000000" fill-rule="evenodd" fill-opacity="1" /><path clip-path="url(#clip990)" d="M 0 0 M1423.04 1468.69 Q1419.43 1468.69 1417.6 1472.26 Q1415.79 1475.8 1415.79 1482.93 Q1415.79 1490.04 1417.6 1493.6 Q1419.43 1497.14 1423.04 1497.14 Q1426.67 1497.14 1428.48 1493.6 Q1430.31 1490.04 1430.31 1482.93 Q1430.31 1475.8 1428.48 1472.26 Q1426.67 1468.69 1423.04 1468.69 M1423.04 1464.99 Q1428.85 1464.99 1431.9 1469.6 Q1434.98 1474.18 1434.98 1482.93 Q1434.98 1491.66 1431.9 1496.26 Q1428.85 1500.85 1423.04 1500.85 Q1417.23 1500.85 1414.15 1496.26 Q1411.09 1491.66 1411.09 1482.93 Q1411.09 1474.18 1414.15 1469.6 Q1417.23 1464.99 1423.04 1464.99 Z" fill="#000000" fill-rule="evenodd" fill-opacity="1" /><path clip-path="url(#clip990)" d="M 0 0 M1453.2 1468.69 Q1449.59 1468.69 1447.76 1472.26 Q1445.95 1475.8 1445.95 1482.93 Q1445.95 1490.04 1447.76 1493.6 Q1449.59 1497.14 1453.2 1497.14 Q1456.83 1497.14 1458.64 1493.6 Q1460.47 1490.04 1460.47 1482.93 Q1460.47 1475.8 1458.64 1472.26 Q1456.83 1468.69 1453.2 1468.69 M1453.2 1464.99 Q1459.01 1464.99 1462.07 1469.6 Q1465.14 1474.18 1465.14 1482.93 Q1465.14 1491.66 1462.07 1496.26 Q1459.01 1500.85 1453.2 1500.85 Q1447.39 1500.85 1444.31 1496.26 Q1441.25 1491.66 1441.25 1482.93 Q1441.25 1474.18 1444.31 1469.6 Q1447.39 1464.99 1453.2 1464.99 Z" fill="#000000" fill-rule="evenodd" fill-opacity="1" /><path clip-path="url(#clip990)" d="M 0 0 M1666.29 1465.61 L1684.65 1465.61 L1684.65 1469.55 L1670.57 1469.55 L1670.57 1478.02 Q1671.59 1477.67 1672.61 1477.51 Q1673.63 1477.33 1674.65 1477.33 Q1680.43 1477.33 1683.81 1480.5 Q1687.19 1483.67 1687.19 1489.09 Q1687.19 1494.66 1683.72 1497.77 Q1680.25 1500.85 1673.93 1500.85 Q1671.75 1500.85 1669.48 1500.47 Q1667.24 1500.1 1664.83 1499.36 L1664.83 1494.66 Q1666.91 1495.8 1669.14 1496.35 Q1671.36 1496.91 1673.84 1496.91 Q1677.84 1496.91 1680.18 1494.8 Q1682.52 1492.7 1682.52 1489.09 Q1682.52 1485.47 1680.18 1483.37 Q1677.84 1481.26 1673.84 1481.26 Q1671.96 1481.26 1670.09 1481.68 Q1668.23 1482.1 1666.29 1482.97 L1666.29 1465.61 Z" fill="#000000" fill-rule="evenodd" fill-opacity="1" /><path clip-path="url(#clip990)" d="M 0 0 M1706.41 1468.69 Q1702.79 1468.69 1700.97 1472.26 Q1699.16 1475.8 1699.16 1482.93 Q1699.16 1490.04 1700.97 1493.6 Q1702.79 1497.14 1706.41 1497.14 Q1710.04 1497.14 1711.84 1493.6 Q1713.67 1490.04 1713.67 1482.93 Q1713.67 1475.8 1711.84 1472.26 Q1710.04 1468.69 1706.41 1468.69 M1706.41 1464.99 Q1712.22 1464.99 1715.27 1469.6 Q1718.35 1474.18 1718.35 1482.93 Q1718.35 1491.66 1715.27 1496.26 Q1712.22 1500.85 1706.41 1500.85 Q1700.59 1500.85 1697.52 1496.26 Q1694.46 1491.66 1694.46 1482.93 Q1694.46 1474.18 1697.52 1469.6 Q1700.59 1464.99 1706.41 1464.99 Z" fill="#000000" fill-rule="evenodd" fill-opacity="1" /><path clip-path="url(#clip990)" d="M 0 0 M1736.57 1468.69 Q1732.96 1468.69 1731.13 1472.26 Q1729.32 1475.8 1729.32 1482.93 Q1729.32 1490.04 1731.13 1493.6 Q1732.96 1497.14 1736.57 1497.14 Q1740.2 1497.14 1742.01 1493.6 Q1743.84 1490.04 1743.84 1482.93 Q1743.84 1475.8 1742.01 1472.26 Q1740.2 1468.69 1736.57 1468.69 M1736.57 1464.99 Q1742.38 1464.99 1745.43 1469.6 Q1748.51 1474.18 1748.51 1482.93 Q1748.51 1491.66 1745.43 1496.26 Q1742.38 1500.85 1736.57 1500.85 Q1730.76 1500.85 1727.68 1496.26 Q1724.62 1491.66 1724.62 1482.93 Q1724.62 1474.18 1727.68 1469.6 Q1730.76 1464.99 1736.57 1464.99 Z" fill="#000000" fill-rule="evenodd" fill-opacity="1" /><path clip-path="url(#clip990)" d="M 0 0 M1008.65 1535.75 Q1008.65 1541.16 1006.91 1547.24 Q1005.2 1553.3 1002.5 1558.19 Q999.794 1563.06 996.252 1566.28 Q992.709 1569.47 989.327 1569.47 Q987.17 1569.47 985.559 1568.27 Q983.981 1567.05 983.112 1565.02 Q982.242 1562.96 981.823 1560.71 Q981.405 1558.42 981.405 1555.94 Q981.405 1552.24 982.21 1548.21 Q983.015 1544.15 984.368 1540.48 Q985.72 1536.78 987.621 1533.43 Q989.521 1530.05 991.614 1527.6 Q993.74 1525.12 996.123 1523.67 Q998.506 1522.22 1000.73 1522.22 Q1002.34 1522.22 1003.63 1522.93 Q1004.95 1523.6 1005.78 1524.8 Q1006.62 1525.96 1007.2 1527.34 Q1007.81 1528.73 1008.1 1530.34 Q1008.39 1531.91 1008.52 1533.23 Q1008.65 1534.52 1008.65 1535.75 M1004.3 1531.66 Q1004.3 1530.01 1004.17 1528.79 Q1004.05 1527.53 1003.69 1526.28 Q1003.34 1525.02 1002.56 1524.35 Q1001.82 1523.67 1000.66 1523.67 Q997.282 1523.67 993.482 1530.59 Q992.258 1532.75 991.163 1535.68 Q990.068 1538.61 989.682 1540 Q989.295 1541.38 988.393 1544.8 L1002.18 1544.8 Q1004.3 1536 1004.3 1531.66 M1001.6 1546.89 L987.878 1546.89 Q985.753 1554.94 985.753 1559.96 Q985.753 1564.34 986.654 1566.18 Q987.588 1567.98 989.327 1567.98 Q991.324 1567.98 993.192 1565.99 Q995.06 1563.96 996.96 1560.29 Q999.472 1555.52 1001.6 1546.89 Z" fill="#000000" fill-rule="evenodd" fill-opacity="1" /><polyline clip-path="url(#clip993)" style="stroke:#000000; stroke-width:2; stroke-opacity:0.1; fill:none" points="
  244.164,1340.82 1749.27,1340.82 
  "/>
<polyline clip-path="url(#clip993)" style="stroke:#000000; stroke-width:2; stroke-opacity:0.1; fill:none" points="
  244.164,1092.85 1749.27,1092.85 
  "/>
<polyline clip-path="url(#clip993)" style="stroke:#000000; stroke-width:2; stroke-opacity:0.1; fill:none" points="
  244.164,844.892 1749.27,844.892 
  "/>
<polyline clip-path="url(#clip993)" style="stroke:#000000; stroke-width:2; stroke-opacity:0.1; fill:none" points="
  244.164,596.929 1749.27,596.929 
  "/>
<polyline clip-path="url(#clip993)" style="stroke:#000000; stroke-width:2; stroke-opacity:0.1; fill:none" points="
  244.164,348.967 1749.27,348.967 
  "/>
<polyline clip-path="url(#clip993)" style="stroke:#000000; stroke-width:2; stroke-opacity:0.1; fill:none" points="
  244.164,101.005 1749.27,101.005 
  "/>
<polyline clip-path="url(#clip990)" style="stroke:#000000; stroke-width:4; stroke-opacity:1; fill:none" points="
  244.164,1439.5 244.164,47.2441 
  "/>
<polyline clip-path="url(#clip990)" style="stroke:#000000; stroke-width:4; stroke-opacity:1; fill:none" points="
  244.164,1340.82 262.225,1340.82 
  "/>
<polyline clip-path="url(#clip990)" style="stroke:#000000; stroke-width:4; stroke-opacity:1; fill:none" points="
  244.164,1092.85 262.225,1092.85 
  "/>
<polyline clip-path="url(#clip990)" style="stroke:#000000; stroke-width:4; stroke-opacity:1; fill:none" points="
  244.164,844.892 262.225,844.892 
  "/>
<polyline clip-path="url(#clip990)" style="stroke:#000000; stroke-width:4; stroke-opacity:1; fill:none" points="
  244.164,596.929 262.225,596.929 
  "/>
<polyline clip-path="url(#clip990)" style="stroke:#000000; stroke-width:4; stroke-opacity:1; fill:none" points="
  244.164,348.967 262.225,348.967 
  "/>
<polyline clip-path="url(#clip990)" style="stroke:#000000; stroke-width:4; stroke-opacity:1; fill:none" points="
  244.164,101.005 262.225,101.005 
  "/>
<path clip-path="url(#clip990)" d="M 0 0 M147.678 1341.27 L177.354 1341.27 L177.354 1345.2 L147.678 1345.2 L147.678 1341.27 Z" fill="#000000" fill-rule="evenodd" fill-opacity="1" /><path clip-path="url(#clip990)" d="M 0 0 M188.256 1354.16 L195.895 1354.16 L195.895 1327.8 L187.585 1329.46 L187.585 1325.2 L195.849 1323.54 L200.525 1323.54 L200.525 1354.16 L208.164 1354.16 L208.164 1358.1 L188.256 1358.1 L188.256 1354.16 Z" fill="#000000" fill-rule="evenodd" fill-opacity="1" /><path clip-path="url(#clip990)" d="M 0 0 M196.219 1078.65 Q192.608 1078.65 190.779 1082.22 Q188.974 1085.76 188.974 1092.89 Q188.974 1100 190.779 1103.56 Q192.608 1107.1 196.219 1107.1 Q199.853 1107.1 201.659 1103.56 Q203.488 1100 203.488 1092.89 Q203.488 1085.76 201.659 1082.22 Q199.853 1078.65 196.219 1078.65 M196.219 1074.95 Q202.029 1074.95 205.085 1079.56 Q208.164 1084.14 208.164 1092.89 Q208.164 1101.62 205.085 1106.22 Q202.029 1110.81 196.219 1110.81 Q190.409 1110.81 187.33 1106.22 Q184.275 1101.62 184.275 1092.89 Q184.275 1084.14 187.33 1079.56 Q190.409 1074.95 196.219 1074.95 Z" fill="#000000" fill-rule="evenodd" fill-opacity="1" /><path clip-path="url(#clip990)" d="M 0 0 M188.256 858.237 L195.895 858.237 L195.895 831.871 L187.585 833.538 L187.585 829.279 L195.849 827.612 L200.525 827.612 L200.525 858.237 L208.164 858.237 L208.164 862.172 L188.256 862.172 L188.256 858.237 Z" fill="#000000" fill-rule="evenodd" fill-opacity="1" /><path clip-path="url(#clip990)" d="M 0 0 M191.844 610.274 L208.164 610.274 L208.164 614.209 L186.219 614.209 L186.219 610.274 Q188.881 607.52 193.465 602.89 Q198.071 598.237 199.252 596.895 Q201.497 594.372 202.377 592.635 Q203.279 590.876 203.279 589.186 Q203.279 586.432 201.335 584.696 Q199.414 582.96 196.312 582.96 Q194.113 582.96 191.659 583.723 Q189.228 584.487 186.451 586.038 L186.451 581.316 Q189.275 580.182 191.728 579.603 Q194.182 579.024 196.219 579.024 Q201.59 579.024 204.784 581.71 Q207.978 584.395 207.978 588.885 Q207.978 591.015 207.168 592.936 Q206.381 594.835 204.275 597.427 Q203.696 598.098 200.594 601.316 Q197.492 604.51 191.844 610.274 Z" fill="#000000" fill-rule="evenodd" fill-opacity="1" /><path clip-path="url(#clip990)" d="M 0 0 M201.034 347.613 Q204.39 348.33 206.265 350.599 Q208.164 352.867 208.164 356.201 Q208.164 361.316 204.645 364.117 Q201.127 366.918 194.645 366.918 Q192.469 366.918 190.154 366.478 Q187.863 366.062 185.409 365.205 L185.409 360.691 Q187.353 361.826 189.668 362.404 Q191.983 362.983 194.506 362.983 Q198.904 362.983 201.196 361.247 Q203.511 359.511 203.511 356.201 Q203.511 353.145 201.358 351.432 Q199.228 349.696 195.409 349.696 L191.381 349.696 L191.381 345.854 L195.594 345.854 Q199.043 345.854 200.872 344.488 Q202.701 343.099 202.701 340.506 Q202.701 337.844 200.802 336.432 Q198.927 334.997 195.409 334.997 Q193.488 334.997 191.289 335.414 Q189.09 335.83 186.451 336.71 L186.451 332.543 Q189.113 331.803 191.428 331.432 Q193.765 331.062 195.826 331.062 Q201.15 331.062 204.252 333.493 Q207.353 335.9 207.353 340.02 Q207.353 342.891 205.71 344.881 Q204.066 346.849 201.034 347.613 Z" fill="#000000" fill-rule="evenodd" fill-opacity="1" /><path clip-path="url(#clip990)" d="M 0 0 M198.58 87.7986 L186.775 106.248 L198.58 106.248 L198.58 87.7986 M197.353 83.7245 L203.233 83.7245 L203.233 106.248 L208.164 106.248 L208.164 110.136 L203.233 110.136 L203.233 118.285 L198.58 118.285 L198.58 110.136 L182.978 110.136 L182.978 105.623 L197.353 83.7245 Z" fill="#000000" fill-rule="evenodd" fill-opacity="1" /><path clip-path="url(#clip990)" d="M 0 0 M60.857 942.374 L77.282 948.043 L77.282 1002.73 Q77.282 1003.47 77.2498 1003.76 Q77.2176 1004.05 77.0566 1004.27 Q76.8956 1004.5 76.5413 1004.5 Q76.2514 1004.5 75.5107 1003.92 L46.5576 980.506 L13.45 1004.56 Q11.9363 1004.56 11.6465 1004.31 Q11.3244 1004.05 11.3244 1002.73 L11.3244 948.043 L26.751 942.374 L26.751 944.017 Q24.7543 944.758 23.0796 945.949 Q21.3726 947.109 20.1488 948.461 Q18.925 949.782 17.9588 951.521 Q16.9604 953.228 16.3485 954.838 Q15.7044 956.416 15.2535 958.381 Q14.7704 960.345 14.545 961.923 Q14.2874 963.469 14.1585 965.402 Q14.0297 967.334 13.9975 968.558 Q13.9653 969.782 13.9653 971.327 L13.9653 997.446 L43.3693 976.03 Q44.11 975.546 44.3032 975.546 Q44.5931 975.546 45.366 976.158 L73.6428 999.024 L73.6428 971.005 Q73.6428 961.988 71.7426 955.708 Q70.2934 951.456 67.427 948.365 Q64.5607 945.241 60.857 944.017 L60.857 942.374 Z" fill="#000000" fill-rule="evenodd" fill-opacity="1" /><path clip-path="url(#clip990)" d="M 0 0 M103.424 1013.55 Q104.055 1013.55 104.213 1013.85 Q104.349 1014.14 104.349 1014.95 L104.349 1019.28 L117.965 1022.7 Q119.16 1022.98 120.174 1022.98 Q121.302 1022.98 121.798 1022.64 Q122.294 1022.28 122.294 1021.53 Q122.294 1020.07 120.964 1018.49 Q119.633 1016.89 116.387 1015.54 Q115.959 1015.36 115.869 1015.27 Q115.756 1015.15 115.756 1014.86 Q115.756 1014.3 116.207 1014.3 Q116.365 1014.3 117.086 1014.61 Q117.807 1014.9 118.867 1015.56 Q119.927 1016.19 120.918 1017.02 Q121.91 1017.84 122.632 1019.08 Q123.331 1020.32 123.331 1021.65 Q123.331 1023.52 122.136 1024.71 Q120.941 1025.88 119.07 1025.88 Q118.461 1025.88 116.522 1025.41 Q114.561 1024.94 104.349 1022.37 L104.349 1026.45 Q104.349 1027.01 104.326 1027.24 Q104.303 1027.44 104.191 1027.6 Q104.055 1027.73 103.785 1027.73 Q103.357 1027.73 103.176 1027.55 Q102.973 1027.37 102.951 1027.15 Q102.906 1026.9 102.906 1026.33 L102.906 1022.01 L95.5789 1020.2 Q94.8575 1020.02 94.4517 1019.57 Q94.0233 1019.1 93.9782 1018.83 Q93.9106 1018.56 93.9106 1018.35 Q93.9106 1017.75 94.2488 1017.38 Q94.5644 1017.02 95.1505 1017.02 Q95.4662 1017.02 102.906 1018.92 L102.906 1014.86 Q102.906 1014.34 102.928 1014.14 Q102.951 1013.91 103.064 1013.73 Q103.176 1013.55 103.424 1013.55 Z" fill="#000000" fill-rule="evenodd" fill-opacity="1" /><path clip-path="url(#clip990)" d="M 0 0 M115.801 998.419 Q115.237 998.374 115.237 997.495 L115.237 969.202 Q115.237 967.872 115.756 967.85 Q116.319 967.85 116.297 969.112 L116.297 997.179 Q116.319 998.419 115.801 998.419 M106.783 998.419 Q106.22 998.419 106.242 997.45 L106.242 969.247 Q106.242 967.872 106.783 967.85 Q107.302 967.85 107.302 969.022 L107.302 997.495 Q107.302 998.419 106.783 998.419 Z" fill="#000000" fill-rule="evenodd" fill-opacity="1" /><path clip-path="url(#clip990)" d="M 0 0 M108.046 950.037 Q101.26 950.037 97.5628 948.324 Q92.062 945.934 92.062 940.298 Q92.062 939.104 92.4002 937.864 Q92.7158 936.601 93.9557 935.023 Q95.1956 933.422 97.2246 932.453 Q101.147 930.604 108.046 930.604 Q114.786 930.604 118.461 932.318 Q123.827 934.82 123.827 940.344 Q123.827 942.418 122.767 944.537 Q121.707 946.633 119.16 947.963 Q115.35 950.037 108.046 950.037 M107.482 946.205 Q114.448 946.205 117.221 945.709 Q120.22 945.145 121.527 943.612 Q122.812 942.057 122.812 940.344 Q122.812 938.495 121.437 936.962 Q120.039 935.406 117.041 934.933 Q114.088 934.414 107.482 934.437 Q101.057 934.437 98.4871 934.888 Q95.4887 935.497 94.2939 937.12 Q93.0765 938.72 93.0765 940.344 Q93.0765 940.952 93.2568 941.606 Q93.4372 942.237 93.9557 943.162 Q94.4742 944.086 95.7592 944.807 Q97.0442 945.506 98.983 945.844 Q101.485 946.205 107.482 946.205 Z" fill="#000000" fill-rule="evenodd" fill-opacity="1" /><path clip-path="url(#clip990)" d="M 0 0 M16.8638 875.27 Q17.4757 875.27 17.991 875.399 L29.4563 877.202 Q30.3259 877.299 30.6479 877.492 Q30.97 877.653 30.97 878.168 Q30.97 878.974 30.1326 878.974 Q29.6496 878.974 28.8766 878.78 Q25.2374 878.233 23.5949 878.233 Q22.4999 878.233 21.6947 878.458 Q20.8574 878.651 20.2776 878.974 Q19.6979 879.263 19.3115 879.94 Q18.925 880.616 18.6996 881.26 Q18.4741 881.904 18.3775 883.064 Q18.2487 884.223 18.2165 885.221 Q18.1843 886.22 18.1843 887.862 Q18.1843 891.437 18.3131 892.017 Q18.4741 892.629 18.9572 892.951 Q19.4081 893.241 20.7607 893.563 L55.7685 902.323 L57.1534 902.58 Q57.9263 902.58 58.1839 902.097 Q58.4416 901.614 58.6026 900.133 Q58.7637 898.007 58.7637 895.914 Q58.7637 895.849 58.7637 895.721 Q58.7637 895.012 58.7959 894.722 Q58.7959 894.432 58.8603 894.142 Q58.9247 893.853 59.0857 893.788 Q59.2145 893.692 59.4722 893.692 Q60.0841 893.692 60.4062 893.949 Q60.696 894.207 60.7604 894.465 Q60.7926 894.69 60.7926 895.141 Q60.7926 896.043 60.7282 897.975 Q60.6638 899.907 60.6638 900.874 L60.5994 906.349 L60.6638 911.952 Q60.6638 912.822 60.7282 914.658 Q60.7926 916.493 60.7926 917.363 Q60.7926 918.49 59.9875 918.49 Q59.0857 918.49 58.9247 918.071 Q58.7637 917.621 58.7637 915.72 Q58.7637 913.047 58.6348 911.598 Q58.506 910.149 58.0551 909.376 Q57.6042 908.571 57.1534 908.345 Q56.6703 908.12 55.5753 907.862 L20.3743 899.006 Q19.6013 898.748 18.9894 898.748 Q18.6674 898.748 18.5385 898.845 Q18.4097 898.909 18.3131 899.328 Q18.1843 899.746 18.1843 900.616 L18.1843 903.192 Q18.1843 905.833 18.3131 907.476 Q18.4097 909.086 18.8928 910.632 Q19.3759 912.146 20.0522 913.047 Q20.7285 913.917 22.1134 914.883 Q23.4982 915.849 25.1729 916.558 Q26.8476 917.234 29.5851 918.2 Q30.4869 918.522 30.7446 918.716 Q30.97 918.877 30.97 919.327 Q30.97 919.65 30.7768 919.907 Q30.5513 920.133 30.2615 920.133 Q29.1987 919.811 29.0698 919.746 L17.4435 915.785 Q16.5096 915.463 16.3485 915.173 Q16.1553 914.851 16.1553 913.659 L16.1553 877.073 Q16.1553 876.494 16.1553 876.3 Q16.1553 876.107 16.2197 875.785 Q16.2841 875.463 16.4451 875.366 Q16.6062 875.27 16.8638 875.27 Z" fill="#000000" fill-rule="evenodd" fill-opacity="1" /><path clip-path="url(#clip990)" d="M 0 0 M7.94593 850.294 L8.87023 850.858 Q7.35978 854.352 4.94756 858.703 Q7.35978 863.054 8.87023 866.548 L7.94593 867.089 Q4.63194 863.279 2.08446 858.703 Q4.65449 854.081 7.94593 850.294 Z" fill="#000000" fill-rule="evenodd" fill-opacity="1" /><path clip-path="url(#clip990)" d="M 0 0 M16.5418 834.027 Q16.9604 834.027 17.2181 834.124 Q17.4757 834.189 17.6046 834.446 Q17.7012 834.672 17.7334 834.833 Q17.7656 834.961 17.7978 835.348 Q17.9266 836.926 18.3453 838.246 Q18.7318 839.567 19.5047 840.694 Q20.2776 841.789 20.7929 842.401 Q21.3082 842.981 22.3388 844.011 L23.2728 844.913 L42.0488 861.274 Q42.6929 861.853 44.11 862.208 L53.4175 864.526 Q57.2822 865.428 57.572 865.428 Q58.1517 865.428 58.345 865.106 Q58.506 864.752 58.6026 863.657 L58.7637 861.145 Q58.7637 859.663 59.0213 859.438 Q59.1823 859.309 59.4722 859.309 Q60.0841 859.309 60.4062 859.567 Q60.696 859.792 60.7604 860.018 Q60.7926 860.211 60.7926 860.565 L60.5994 869.003 L60.7926 877.312 Q60.7926 878.246 60.0519 878.246 Q59.5688 878.246 59.3112 878.182 Q59.0213 878.085 58.9247 877.795 Q58.7959 877.505 58.7959 877.28 Q58.7637 877.055 58.7637 876.443 Q58.7314 874.961 58.7314 874.22 Q58.6992 873.447 58.506 872.707 Q58.3128 871.966 58.1839 871.708 Q58.0229 871.418 57.4754 871.096 Q56.8957 870.742 56.4448 870.646 Q55.9939 870.517 54.8667 870.259 Q53.8684 870.001 48.4256 868.649 Q42.9828 867.296 42.854 867.296 Q42.4997 867.296 41.7268 867.554 L20.02 875.67 Q19.0538 876.024 18.6674 876.314 Q18.2809 876.604 18.0554 877.57 Q17.7978 878.536 17.7978 880.468 Q17.7978 881.016 17.7656 881.273 Q17.7334 881.531 17.5724 881.757 Q17.4113 881.982 17.0571 881.982 Q16.4451 881.982 16.1553 881.724 Q15.8332 881.467 15.801 881.273 Q15.7366 881.048 15.7366 880.726 Q15.7366 879.921 15.8332 877.055 Q15.9299 874.188 15.9299 873.351 L15.7366 865.042 Q15.7366 864.043 16.4774 864.043 Q17.3791 864.043 17.6046 864.398 Q17.7978 864.752 17.7978 865.621 Q17.7978 869.518 19.3759 869.518 Q19.5691 869.518 20.5031 869.132 L40.0843 861.886 L22.4676 846.588 L22.21 846.362 Q21.9524 846.169 21.7591 846.008 Q21.5659 845.847 21.2116 845.589 Q20.8574 845.332 20.5675 845.203 Q20.2776 845.042 19.9234 844.913 Q19.5691 844.784 19.3115 844.784 Q18.8284 844.784 18.5063 845.074 Q18.1521 845.364 18.0232 845.815 Q17.8944 846.266 17.8622 846.588 Q17.7978 846.91 17.7978 847.167 Q17.7978 848.166 16.9926 848.166 Q16.4129 848.166 16.1231 847.908 Q15.801 847.651 15.7688 847.457 Q15.7366 847.232 15.7366 846.91 Q15.7366 845.847 15.8332 843.625 Q15.9299 841.403 15.9299 840.308 Q15.9299 839.406 15.8332 837.57 Q15.7366 835.734 15.7366 834.897 Q15.7366 834.027 16.5418 834.027 Z" fill="#000000" fill-rule="evenodd" fill-opacity="1" /><path clip-path="url(#clip990)" d="M 0 0 M58.5788 822.834 Q59.21 822.834 59.3678 823.128 Q59.5031 823.421 59.5031 824.232 L59.5031 828.561 L73.1197 831.987 Q74.3145 832.258 75.329 832.258 Q76.4562 832.258 76.9522 831.92 Q77.4482 831.559 77.4482 830.815 Q77.4482 829.35 76.1181 827.772 Q74.788 826.171 71.5416 824.818 Q71.1133 824.638 71.0231 824.548 Q70.9104 824.435 70.9104 824.142 Q70.9104 823.578 71.3613 823.578 Q71.5191 823.578 72.2405 823.894 Q72.9619 824.187 74.0215 824.841 Q75.081 825.472 76.073 826.306 Q77.0649 827.118 77.7863 828.358 Q78.4852 829.598 78.4852 830.928 Q78.4852 832.799 77.2904 833.994 Q76.0955 835.166 74.2244 835.166 Q73.6157 835.166 71.6769 834.693 Q69.7155 834.219 59.5031 831.649 L59.5031 835.73 Q59.5031 836.293 59.4805 836.519 Q59.458 836.722 59.3453 836.879 Q59.21 837.015 58.9395 837.015 Q58.5111 837.015 58.3308 836.834 Q58.1279 836.654 58.1053 836.429 Q58.0602 836.181 58.0602 835.617 L58.0602 831.289 L50.7334 829.485 Q50.012 829.305 49.6062 828.854 Q49.1779 828.38 49.1328 828.11 Q49.0651 827.839 49.0651 827.636 Q49.0651 827.028 49.4033 826.667 Q49.7189 826.306 50.3051 826.306 Q50.6207 826.306 58.0602 828.2 L58.0602 824.142 Q58.0602 823.624 58.0828 823.421 Q58.1053 823.195 58.218 823.015 Q58.3308 822.834 58.5788 822.834 Z" fill="#000000" fill-rule="evenodd" fill-opacity="1" /><path clip-path="url(#clip990)" d="M 0 0 M42.8415 813.474 Q32.1994 813.474 23.618 809.506 Q20.0193 807.814 17.0051 805.446 Q13.9908 803.078 12.6682 801.509 Q11.3456 799.94 11.3456 799.51 Q11.3456 798.894 11.9608 798.864 Q12.2684 798.864 13.0373 799.694 Q23.3719 809.844 42.8415 809.813 Q62.3727 809.813 72.3074 799.94 Q73.384 798.864 73.7223 798.864 Q74.3374 798.864 74.3374 799.51 Q74.3374 799.94 73.0764 801.447 Q71.8153 802.954 68.9241 805.292 Q66.0329 807.63 62.4957 809.321 Q53.9143 813.474 42.8415 813.474 Z" fill="#000000" fill-rule="evenodd" fill-opacity="1" /><path clip-path="url(#clip990)" d="M 0 0 M24.5932 782.245 Q18.925 782.245 15.1247 779.347 Q11.3244 776.448 11.3244 772.551 Q11.3244 770.168 13.45 767.817 Q18.5385 762.471 18.5063 755.482 Q18.5063 747.559 12.2584 742.954 Q11.3244 742.149 11.3244 741.569 Q11.3244 741.054 11.7431 740.667 Q12.1296 740.249 12.6449 740.249 Q13.0313 740.249 13.8365 740.764 L63.4979 774.129 Q64.4963 774.87 64.4963 775.45 Q64.4963 775.965 64.0776 776.384 Q63.6911 776.77 63.1759 776.77 Q62.725 776.77 61.8554 776.19 L17.7334 746.561 L17.669 746.625 Q19.9878 750.039 19.9556 755.418 Q19.9556 760.506 17.1859 765.369 Q20.5997 763.984 24.6576 763.984 Q30.1971 763.984 34.0618 766.464 Q37.8943 768.944 37.8943 772.551 Q37.8943 776.448 34.1584 779.347 Q30.3903 782.245 24.5932 782.245 M19.2149 777.704 Q21.5337 778.155 24.6576 778.155 Q27.7494 778.155 30.0682 777.704 Q32.3548 777.253 33.5465 776.609 Q34.7381 775.933 35.4466 775.031 Q36.1229 774.129 36.284 773.582 Q36.445 773.034 36.445 772.487 Q36.445 769.781 33.0956 767.72 Q29.714 765.627 24.5932 765.627 Q19.5691 765.627 16.1875 767.72 Q12.7737 769.781 12.7737 772.487 Q12.7737 773.066 12.9347 773.646 Q13.0957 774.194 13.8043 775.063 Q14.4806 775.933 15.6722 776.609 Q16.8638 777.253 19.2149 777.704 M51.1631 753.034 Q45.4948 753.034 41.6945 750.136 Q37.8943 747.237 37.8943 743.34 Q37.8943 739.766 41.759 737.286 Q45.6237 734.774 51.2275 734.774 Q56.7669 734.774 60.6316 737.253 Q64.4963 739.701 64.4963 743.34 Q64.4963 747.237 60.7282 750.136 Q56.9601 753.034 51.1631 753.034 M45.7847 748.493 Q48.1357 748.944 51.2275 748.944 Q54.3192 748.944 56.6381 748.493 Q58.9569 748.01 60.1485 747.366 Q61.3079 746.69 61.9842 745.82 Q62.6928 744.918 62.8538 744.371 Q63.047 743.791 63.047 743.276 Q63.047 740.571 59.6976 738.51 Q56.316 736.416 51.1631 736.416 Q46.139 736.416 42.7573 738.51 Q39.3435 740.571 39.3435 743.276 Q39.3435 743.856 39.5368 744.435 Q39.6978 744.983 40.4063 745.852 Q41.0826 746.69 42.2743 747.366 Q43.4337 748.01 45.7847 748.493 Z" fill="#000000" fill-rule="evenodd" fill-opacity="1" /><path clip-path="url(#clip990)" d="M 0 0 M59.7298 726.924 Q58.667 727.858 57.2822 727.858 Q55.8973 727.858 54.8667 726.956 Q53.8039 726.022 53.8039 724.348 Q53.8039 722.383 55.7041 721.256 Q57.572 720.129 60.7282 720.129 Q64.142 720.129 67.2982 721.514 Q70.4866 722.898 72.0003 724.251 Q73.5139 725.604 73.5139 726.151 Q73.5139 726.795 72.8054 726.795 Q72.5478 726.795 72.0647 726.344 Q66.9761 721.61 60.7282 721.578 Q59.7298 721.578 59.7298 721.707 L59.8587 721.868 Q60.7926 722.995 60.7926 724.348 Q60.7926 725.99 59.7298 726.924 Z" fill="#000000" fill-rule="evenodd" fill-opacity="1" /><path clip-path="url(#clip990)" d="M 0 0 M43.4981 664.724 Q46.7509 664.724 50.0037 666.399 Q53.2564 668.073 55.7685 670.811 Q58.2484 673.548 59.8587 677.284 Q61.4689 681.02 61.5978 684.917 L71.4206 687.429 Q73.8038 687.912 74.0614 688.17 Q74.3191 688.427 74.3191 688.814 Q74.3191 689.619 73.5783 689.619 Q73.3529 689.619 67.7813 688.17 L61.5978 686.624 Q61.2757 692.485 57.8941 695.899 Q54.5125 699.313 49.6494 699.313 Q46.3644 699.313 43.1116 697.638 Q39.8266 695.931 37.3468 693.194 Q34.8669 690.424 33.2888 686.688 Q31.7107 682.952 31.5819 679.12 L16.3485 675.287 Q15.479 675.094 15.2535 674.933 Q15.0281 674.772 15.0281 674.289 Q15.0281 673.935 15.1891 673.742 Q15.3502 673.548 15.5112 673.548 L15.6722 673.516 L16.6062 673.709 L31.5819 677.413 Q31.8073 674.128 32.9668 671.584 Q34.1262 669.04 35.8653 667.59 Q37.5722 666.141 39.5045 665.432 Q41.4369 664.724 43.4981 664.724 M33.0312 679.506 Q33.3532 683.049 35.0923 686.044 Q36.8315 689.039 39.4079 690.972 Q41.9522 692.904 45.0117 693.967 Q48.0391 695.03 51.0342 695.03 Q53.3853 695.03 55.1888 694.257 Q56.9923 693.452 58.0229 692.131 Q59.0213 690.811 59.5688 689.361 Q60.0841 687.88 60.1485 686.302 L33.0312 679.506 M42.1132 669.04 Q37.9265 669.04 35.5754 671.455 Q33.2244 673.87 33.0312 677.8 L60.1485 684.595 Q59.9231 681.729 58.7314 679.217 Q57.5076 676.672 55.7041 674.837 Q53.8684 673.001 51.614 671.68 Q49.3273 670.36 46.9119 669.716 Q44.4642 669.04 42.1132 669.04 Z" fill="#000000" fill-rule="evenodd" fill-opacity="1" /><path clip-path="url(#clip990)" d="M 0 0 M50.7766 642.094 Q49.9715 642.03 49.9715 640.774 L49.9715 600.355 Q49.9715 598.455 50.7122 598.423 Q51.5173 598.423 51.4851 600.227 L51.4851 640.323 Q51.5173 642.094 50.7766 642.094 M37.8943 642.094 Q37.0891 642.094 37.1213 640.709 L37.1213 600.42 Q37.1213 598.455 37.8943 598.423 Q38.635 598.423 38.635 600.098 L38.635 640.774 Q38.635 642.094 37.8943 642.094 Z" fill="#000000" fill-rule="evenodd" fill-opacity="1" /><path clip-path="url(#clip990)" d="M 0 0 M23.144 572.977 L21.0828 572.977 Q21.0828 565.055 16.8638 560.965 Q16.8638 559.837 17.1215 559.644 Q17.3791 559.451 18.5707 559.451 L55.5753 559.451 Q57.5398 559.451 58.1517 558.485 Q58.7637 557.519 58.7637 553.3 L58.7637 551.206 L60.7926 551.206 Q60.5994 553.525 60.5994 561.899 Q60.5994 570.272 60.7926 572.559 L58.7637 572.559 L58.7637 570.465 Q58.7637 566.311 58.1839 565.312 Q57.572 564.314 55.5753 564.314 L21.4049 564.314 Q23.144 567.76 23.144 572.977 Z" fill="#000000" fill-rule="evenodd" fill-opacity="1" /><path clip-path="url(#clip990)" d="M 0 0 M59.7298 546.065 Q58.667 547.063 57.2822 547.063 Q55.8973 547.063 54.8989 546.065 Q53.8684 545.067 53.8684 543.553 Q53.8684 542.104 54.8345 541.137 Q55.7685 540.139 57.3144 540.139 Q58.8281 540.139 59.8264 541.202 Q60.7926 542.232 60.7926 543.553 Q60.7926 545.067 59.7298 546.065 Z" fill="#000000" fill-rule="evenodd" fill-opacity="1" /><path clip-path="url(#clip990)" d="M 0 0 M60.7926 528.913 Q59.601 528.913 59.2467 528.816 Q58.8925 528.688 58.345 528.172 L44.2388 515.515 Q36.445 508.591 29.6496 508.591 Q25.2374 508.591 22.0812 510.91 Q18.925 513.197 18.925 517.416 Q18.925 520.314 20.6963 522.762 Q22.4676 525.209 25.6238 526.337 Q25.5594 526.143 25.5594 525.467 Q25.5594 523.825 26.59 522.923 Q27.6206 521.989 29.0054 521.989 Q30.7768 521.989 31.6463 523.148 Q32.4837 524.275 32.4837 525.403 Q32.4837 525.854 32.3871 526.465 Q32.2904 527.045 31.3887 527.979 Q30.4547 528.913 28.8122 528.913 Q24.2068 528.913 20.5353 525.435 Q16.8638 521.924 16.8638 516.578 Q16.8638 510.524 20.4709 506.562 Q24.0457 502.569 29.6496 502.569 Q31.6141 502.569 33.4176 503.181 Q35.189 503.76 36.5738 504.565 Q37.9587 505.338 40.1809 507.464 Q42.4031 509.59 43.9812 511.296 Q45.5592 513.003 48.9087 516.836 L55.7041 523.825 L55.7041 511.941 Q55.7041 506.144 55.1888 505.693 Q54.2548 505.049 49.3273 504.243 L49.3273 502.569 L60.7926 504.437 L60.7926 528.913 Z" fill="#000000" fill-rule="evenodd" fill-opacity="1" /><path clip-path="url(#clip990)" d="M 0 0 M50.1647 496.249 Q48.2001 496.249 47.4594 495.186 Q46.6865 494.123 46.6865 492.996 Q46.6865 491.483 47.6526 490.613 Q48.5866 489.711 49.907 489.711 Q51.2275 489.711 52.1937 490.613 Q53.1276 491.483 53.1276 492.996 Q53.1276 493.737 52.9988 494.123 Q56.0262 493.254 58.2162 490.613 Q60.4062 487.94 60.4062 484.429 Q60.4062 480.017 56.1228 477.376 Q53.3531 475.798 47.0729 475.798 Q41.5335 475.798 38.7638 476.99 Q34.5448 478.826 34.5448 482.594 Q34.5448 487.94 39.1503 491.096 Q39.73 491.483 39.7622 491.933 Q39.7622 492.578 39.4079 492.739 Q39.0215 492.867 38.0231 492.867 L18.5063 492.867 Q16.9282 492.867 16.9282 492.223 Q16.9282 491.966 17.1215 491.418 Q18.9572 487.264 18.9894 482.658 Q18.9894 477.924 17.0571 473.673 Q16.8638 473.351 16.8638 473.157 Q16.8638 472.513 17.6046 472.481 Q17.8622 472.481 18.6351 473.029 Q19.3759 473.544 20.3743 474.671 Q21.3404 475.798 22.2744 477.248 Q23.2084 478.697 23.8525 480.822 Q24.4644 482.916 24.4644 485.235 Q24.4644 488.004 23.5949 490.838 L36.445 490.838 Q33.0956 487.425 33.0956 482.465 Q33.0956 477.183 37.3468 473.544 Q41.5979 469.905 47.5238 469.905 Q53.7395 469.905 57.9907 474.22 Q62.2419 478.504 62.2419 484.301 Q62.2419 489.582 58.4738 492.932 Q54.7057 496.249 50.1647 496.249 Z" fill="#000000" fill-rule="evenodd" fill-opacity="1" /><path clip-path="url(#clip990)" d="M 0 0 M73.7223 463.131 Q73.4147 463.131 72.6458 462.331 Q62.3112 452.181 42.8415 452.181 Q23.3104 452.181 13.4372 461.931 Q12.2991 463.131 11.9608 463.131 Q11.3456 463.131 11.3456 462.516 Q11.3456 462.085 12.6067 460.578 Q13.8678 459.04 16.759 456.733 Q19.6502 454.396 23.1874 452.673 Q31.7688 448.521 42.8415 448.521 Q53.4837 448.521 62.0651 452.489 Q65.6638 454.18 68.678 456.549 Q71.6923 458.917 73.0149 460.486 Q74.3374 462.054 74.3374 462.516 Q74.3374 463.131 73.7223 463.131 Z" fill="#000000" fill-rule="evenodd" fill-opacity="1" /><polyline clip-path="url(#clip993)" style="stroke:#0000ff; stroke-width:4; stroke-opacity:1; fill:none" points="
  286.761,1349.03 444.529,1400.1 602.297,1256.54 760.064,1109.61 917.832,956.734 1075.6,795.726 1233.37,624.247 1391.14,439.537 1548.9,245.345 1706.67,86.6476 
  
  "/>
<polyline clip-path="url(#clip993)" style="stroke:#7f0080; stroke-width:4; stroke-opacity:1; fill:none" points="
  286.761,1360.94 444.529,1228.59 602.297,1084.22 760.064,968.672 917.832,872.8 1075.6,791.712 1233.37,722.231 1391.14,662.105 1548.9,609.662 1706.67,563.619 
  
  "/>
<polyline clip-path="url(#clip993)" style="stroke:#ff0000; stroke-width:4; stroke-opacity:1; fill:none" points="
  286.761,1195.45 444.529,1047.63 602.297,934.82 760.064,854.099 917.832,792.778 1075.6,744.436 1233.37,705.284 1391.14,672.904 1548.9,645.668 1706.67,622.432 
  
  "/>
<path clip-path="url(#clip990)" d="
M1819.56 305.333 L2352.76 305.333 L2352.76 93.6527 L1819.56 93.6527  Z
  " fill="#ffffff" fill-rule="evenodd" fill-opacity="1"/>
<polyline clip-path="url(#clip990)" style="stroke:#000000; stroke-width:4; stroke-opacity:1; fill:none" points="
  1819.56,305.333 2352.76,305.333 2352.76,93.6527 1819.56,93.6527 1819.56,305.333 
  "/>
<polyline clip-path="url(#clip990)" style="stroke:#0000ff; stroke-width:3.5; stroke-opacity:1; fill:none" points="
  1842.98,146.573 1983.56,146.573 
  "/>
<path clip-path="url(#clip990)" d="M 0 0 M2035.53 128.673 Q2035.53 129.062 2035.45 129.39 L2034.3 136.686 Q2034.24 137.239 2034.12 137.444 Q2034.02 137.649 2033.69 137.649 Q2033.18 137.649 2033.18 137.116 Q2033.18 136.809 2033.3 136.317 Q2033.65 134.001 2033.65 132.956 Q2033.65 132.259 2033.51 131.747 Q2033.38 131.214 2033.18 130.845 Q2032.99 130.476 2032.56 130.23 Q2032.13 129.984 2031.72 129.841 Q2031.31 129.697 2030.57 129.636 Q2029.84 129.554 2029.2 129.533 Q2028.57 129.513 2027.52 129.513 Q2025.25 129.513 2024.88 129.595 Q2024.49 129.697 2024.28 130.005 Q2024.1 130.292 2023.89 131.153 L2018.32 153.43 L2018.16 154.311 Q2018.16 154.803 2018.46 154.967 Q2018.77 155.131 2019.71 155.234 Q2021.07 155.336 2022.4 155.336 Q2022.44 155.336 2022.52 155.336 Q2022.97 155.336 2023.16 155.357 Q2023.34 155.357 2023.52 155.398 Q2023.71 155.439 2023.75 155.541 Q2023.81 155.623 2023.81 155.787 Q2023.81 156.176 2023.65 156.381 Q2023.48 156.566 2023.32 156.607 Q2023.18 156.627 2022.89 156.627 Q2022.32 156.627 2021.09 156.586 Q2019.86 156.545 2019.24 156.545 L2015.76 156.504 L2012.19 156.545 Q2011.64 156.545 2010.47 156.586 Q2009.3 156.627 2008.75 156.627 Q2008.03 156.627 2008.03 156.115 Q2008.03 155.541 2008.3 155.439 Q2008.58 155.336 2009.79 155.336 Q2011.49 155.336 2012.42 155.254 Q2013.34 155.172 2013.83 154.885 Q2014.34 154.598 2014.49 154.311 Q2014.63 154.004 2014.79 153.307 L2020.43 130.907 Q2020.59 130.415 2020.59 130.025 Q2020.59 129.82 2020.53 129.738 Q2020.49 129.656 2020.22 129.595 Q2019.96 129.513 2019.41 129.513 L2017.77 129.513 Q2016.09 129.513 2015.04 129.595 Q2014.02 129.656 2013.03 129.964 Q2012.07 130.271 2011.49 130.702 Q2010.94 131.132 2010.33 132.013 Q2009.71 132.895 2009.26 133.96 Q2008.83 135.026 2008.22 136.768 Q2008.01 137.342 2007.89 137.506 Q2007.78 137.649 2007.5 137.649 Q2007.29 137.649 2007.13 137.526 Q2006.99 137.383 2006.99 137.198 Q2007.19 136.522 2007.23 136.44 L2009.75 129.042 Q2009.96 128.447 2010.14 128.345 Q2010.35 128.222 2011.1 128.222 L2034.39 128.222 Q2034.76 128.222 2034.88 128.222 Q2035 128.222 2035.21 128.263 Q2035.41 128.304 2035.47 128.406 Q2035.53 128.509 2035.53 128.673 Z" fill="#000000" fill-rule="evenodd" fill-opacity="1" /><path clip-path="url(#clip990)" d="M 0 0 M2042.9 150.254 Q2042.94 149.741 2043.74 149.741 L2069.46 149.741 Q2070.67 149.741 2070.69 150.213 Q2070.69 150.725 2069.55 150.704 L2044.03 150.704 Q2042.9 150.725 2042.9 150.254 M2042.9 142.056 Q2042.9 141.543 2043.78 141.564 L2069.42 141.564 Q2070.67 141.564 2070.69 142.056 Q2070.69 142.527 2069.63 142.527 L2043.74 142.527 Q2042.9 142.527 2042.9 142.056 Z" fill="#000000" fill-rule="evenodd" fill-opacity="1" /><path clip-path="url(#clip990)" d="M 0 0 M2086.88 156.627 Q2086.88 155.869 2086.94 155.644 Q2087.02 155.418 2087.35 155.07 L2095.4 146.093 Q2099.81 141.133 2099.81 136.809 Q2099.81 134.001 2098.33 131.993 Q2096.88 129.984 2094.19 129.984 Q2092.35 129.984 2090.79 131.112 Q2089.23 132.239 2088.52 134.247 Q2088.64 134.206 2089.07 134.206 Q2090.12 134.206 2090.69 134.862 Q2091.28 135.518 2091.28 136.399 Q2091.28 137.526 2090.55 138.08 Q2089.83 138.613 2089.11 138.613 Q2088.82 138.613 2088.43 138.551 Q2088.07 138.49 2087.47 137.916 Q2086.88 137.321 2086.88 136.276 Q2086.88 133.345 2089.09 131.009 Q2091.32 128.673 2094.73 128.673 Q2098.58 128.673 2101.1 130.968 Q2103.64 133.243 2103.64 136.809 Q2103.64 138.059 2103.25 139.207 Q2102.88 140.334 2102.37 141.215 Q2101.88 142.097 2100.53 143.511 Q2099.17 144.925 2098.09 145.929 Q2097 146.933 2094.56 149.065 L2090.12 153.389 L2097.68 153.389 Q2101.37 153.389 2101.65 153.061 Q2102.06 152.467 2102.58 149.331 L2103.64 149.331 L2102.45 156.627 L2086.88 156.627 Z" fill="#000000" fill-rule="evenodd" fill-opacity="1" /><path clip-path="url(#clip990)" d="M 0 0 M2107.66 149.864 Q2107.66 148.614 2108.33 148.143 Q2109.01 147.651 2109.73 147.651 Q2110.69 147.651 2111.25 148.266 Q2111.82 148.86 2111.82 149.7 Q2111.82 150.54 2111.25 151.155 Q2110.69 151.75 2109.73 151.75 Q2109.26 151.75 2109.01 151.668 Q2109.56 153.594 2111.25 154.988 Q2112.95 156.381 2115.18 156.381 Q2117.99 156.381 2119.67 153.656 Q2120.67 151.893 2120.67 147.897 Q2120.67 144.372 2119.91 142.609 Q2118.75 139.924 2116.35 139.924 Q2112.95 139.924 2110.94 142.855 Q2110.69 143.224 2110.4 143.244 Q2110 143.244 2109.89 143.019 Q2109.81 142.773 2109.81 142.138 L2109.81 129.718 Q2109.81 128.714 2110.22 128.714 Q2110.38 128.714 2110.73 128.837 Q2113.38 130.005 2116.31 130.025 Q2119.32 130.025 2122.03 128.796 Q2122.23 128.673 2122.35 128.673 Q2122.76 128.673 2122.78 129.144 Q2122.78 129.308 2122.44 129.8 Q2122.11 130.271 2121.39 130.907 Q2120.67 131.521 2119.75 132.116 Q2118.83 132.71 2117.48 133.12 Q2116.14 133.509 2114.67 133.509 Q2112.91 133.509 2111.1 132.956 L2111.1 141.133 Q2113.27 139.002 2116.43 139.002 Q2119.79 139.002 2122.11 141.707 Q2124.42 144.413 2124.42 148.184 Q2124.42 152.139 2121.68 154.844 Q2118.95 157.55 2115.26 157.55 Q2111.9 157.55 2109.77 155.152 Q2107.66 152.754 2107.66 149.864 Z" fill="#000000" fill-rule="evenodd" fill-opacity="1" /><path clip-path="url(#clip990)" d="M 0 0 M2128.44 143.203 Q2128.44 137.035 2130 133.673 Q2132.17 128.673 2137.29 128.673 Q2138.38 128.673 2139.51 128.98 Q2140.65 129.267 2142.09 130.394 Q2143.54 131.521 2144.43 133.366 Q2146.11 136.932 2146.11 143.203 Q2146.11 149.331 2144.55 152.672 Q2142.27 157.55 2137.25 157.55 Q2135.37 157.55 2133.44 156.586 Q2131.53 155.623 2130.33 153.307 Q2128.44 149.844 2128.44 143.203 M2131.92 142.691 Q2131.92 149.024 2132.37 151.545 Q2132.89 154.27 2134.28 155.459 Q2135.69 156.627 2137.25 156.627 Q2138.93 156.627 2140.33 155.377 Q2141.74 154.107 2142.17 151.381 Q2142.64 148.696 2142.62 142.691 Q2142.62 136.85 2142.21 134.514 Q2141.66 131.788 2140.18 130.702 Q2138.73 129.595 2137.25 129.595 Q2136.7 129.595 2136.1 129.759 Q2135.53 129.923 2134.69 130.394 Q2133.85 130.866 2133.19 132.034 Q2132.56 133.202 2132.25 134.965 Q2131.92 137.239 2131.92 142.691 Z" fill="#000000" fill-rule="evenodd" fill-opacity="1" /><path clip-path="url(#clip990)" d="M 0 0 M2149.82 155.951 Q2149.22 155.275 2149.22 154.393 Q2149.22 153.512 2149.79 152.856 Q2150.39 152.18 2151.46 152.18 Q2152.71 152.18 2153.42 153.389 Q2154.14 154.578 2154.14 156.586 Q2154.14 158.759 2153.26 160.767 Q2152.38 162.796 2151.52 163.76 Q2150.66 164.723 2150.31 164.723 Q2149.9 164.723 2149.9 164.272 Q2149.9 164.108 2150.18 163.801 Q2153.2 160.562 2153.22 156.586 Q2153.22 155.951 2153.14 155.951 L2153.03 156.033 Q2152.32 156.627 2151.46 156.627 Q2150.41 156.627 2149.82 155.951 Z" fill="#000000" fill-rule="evenodd" fill-opacity="1" /><path clip-path="url(#clip990)" d="M 0 0 M2187.98 150.622 Q2187.47 153.143 2186.42 154.906 Q2185.13 157.099 2183.16 157.099 Q2181.5 157.099 2180.4 155.951 Q2179.29 154.783 2179.29 152.938 Q2179.29 152.385 2179.52 151.463 Q2179.6 151.053 2179.6 150.54 Q2179.6 147.22 2172.4 146.974 Q2171.81 149.331 2171.4 150.93 Q2171.01 152.508 2170.89 152.979 Q2170.76 153.451 2170.66 153.84 Q2170.58 154.23 2170.44 154.742 Q2170.23 155.582 2170.09 155.992 Q2169.94 156.402 2169.56 156.75 Q2169.19 157.099 2168.59 157.099 Q2168.08 157.099 2167.73 156.791 Q2167.38 156.484 2167.38 155.951 Q2167.38 155.582 2167.55 154.988 L2171.4 139.596 Q2171.5 139.166 2171.71 138.859 Q2171.91 138.551 2172.1 138.408 Q2172.3 138.264 2172.55 138.182 Q2172.79 138.1 2172.9 138.1 Q2173 138.08 2173.08 138.08 Q2173.63 138.08 2173.96 138.387 Q2174.31 138.674 2174.31 139.207 Q2174.31 139.289 2174.17 139.863 Q2174.04 140.416 2173.84 141.256 Q2173.63 142.097 2173.55 142.486 L2172.71 145.765 Q2173.88 145.376 2174.92 144.679 Q2175.99 143.982 2178.08 142.179 Q2179.04 141.379 2179.62 140.928 Q2180.21 140.457 2181.2 139.822 Q2182.18 139.166 2183.12 138.859 Q2184.07 138.531 2184.97 138.531 Q2185.66 138.531 2186.07 138.859 Q2186.48 139.166 2186.57 139.453 Q2186.65 139.719 2186.65 140.006 Q2186.65 140.847 2185.99 141.564 Q2185.34 142.281 2184.37 142.281 Q2183.51 142.281 2183.14 141.81 Q2182.77 141.338 2182.77 140.806 Q2182.77 140.396 2182.98 139.883 Q2181.83 140.375 2180.85 141.092 Q2179.86 141.789 2178.16 143.244 Q2175.74 145.314 2174.31 146.093 Q2175.13 146.114 2175.74 146.175 Q2176.38 146.216 2177.45 146.36 Q2178.51 146.503 2179.29 146.81 Q2180.07 147.097 2180.83 147.548 Q2181.61 147.999 2182.02 148.737 Q2182.45 149.475 2182.45 150.418 Q2182.45 150.868 2182.24 151.791 Q2181.89 153.307 2181.89 154.148 Q2181.89 155.213 2182.22 155.685 Q2182.57 156.156 2183.25 156.156 Q2184.54 156.156 2185.36 154.824 Q2186.2 153.471 2186.89 150.971 Q2187 150.499 2187.1 150.356 Q2187.2 150.213 2187.49 150.213 Q2187.98 150.213 2187.98 150.622 Z" fill="#000000" fill-rule="evenodd" fill-opacity="1" /><path clip-path="url(#clip990)" d="M 0 0 M2202.96 150.254 Q2203 149.741 2203.8 149.741 L2229.52 149.741 Q2230.73 149.741 2230.75 150.213 Q2230.75 150.725 2229.6 150.704 L2204.08 150.704 Q2202.96 150.725 2202.96 150.254 M2202.96 142.056 Q2202.96 141.543 2203.84 141.564 L2229.48 141.564 Q2230.73 141.564 2230.75 142.056 Q2230.75 142.527 2229.68 142.527 L2203.8 142.527 Q2202.96 142.527 2202.96 142.056 Z" fill="#000000" fill-rule="evenodd" fill-opacity="1" /><path clip-path="url(#clip990)" d="M 0 0 M2246.93 132.669 L2246.93 131.357 Q2251.97 131.357 2254.57 128.673 Q2255.29 128.673 2255.41 128.837 Q2255.54 129.001 2255.54 129.759 L2255.54 153.307 Q2255.54 154.557 2256.15 154.947 Q2256.77 155.336 2259.45 155.336 L2260.78 155.336 L2260.78 156.627 Q2259.31 156.504 2253.98 156.504 Q2248.65 156.504 2247.2 156.627 L2247.2 155.336 L2248.53 155.336 Q2251.17 155.336 2251.81 154.967 Q2252.44 154.578 2252.44 153.307 L2252.44 131.562 Q2250.25 132.669 2246.93 132.669 Z" fill="#000000" fill-rule="evenodd" fill-opacity="1" /><polyline clip-path="url(#clip990)" style="stroke:#7f0080; stroke-width:3.5; stroke-opacity:1; fill:none" points="
  1842.98,199.493 1983.56,199.493 
  "/>
<path clip-path="url(#clip990)" d="M 0 0 M2035.53 181.593 Q2035.53 181.982 2035.45 182.31 L2034.3 189.606 Q2034.24 190.159 2034.12 190.364 Q2034.02 190.569 2033.69 190.569 Q2033.18 190.569 2033.18 190.036 Q2033.18 189.729 2033.3 189.237 Q2033.65 186.921 2033.65 185.876 Q2033.65 185.179 2033.51 184.667 Q2033.38 184.134 2033.18 183.765 Q2032.99 183.396 2032.56 183.15 Q2032.13 182.904 2031.72 182.761 Q2031.31 182.617 2030.57 182.556 Q2029.84 182.474 2029.2 182.453 Q2028.57 182.433 2027.52 182.433 Q2025.25 182.433 2024.88 182.515 Q2024.49 182.617 2024.28 182.925 Q2024.1 183.212 2023.89 184.073 L2018.32 206.35 L2018.16 207.231 Q2018.16 207.723 2018.46 207.887 Q2018.77 208.051 2019.71 208.154 Q2021.07 208.256 2022.4 208.256 Q2022.44 208.256 2022.52 208.256 Q2022.97 208.256 2023.16 208.277 Q2023.34 208.277 2023.52 208.318 Q2023.71 208.359 2023.75 208.461 Q2023.81 208.543 2023.81 208.707 Q2023.81 209.096 2023.65 209.301 Q2023.48 209.486 2023.32 209.527 Q2023.18 209.547 2022.89 209.547 Q2022.32 209.547 2021.09 209.506 Q2019.86 209.465 2019.24 209.465 L2015.76 209.424 L2012.19 209.465 Q2011.64 209.465 2010.47 209.506 Q2009.3 209.547 2008.75 209.547 Q2008.03 209.547 2008.03 209.035 Q2008.03 208.461 2008.3 208.359 Q2008.58 208.256 2009.79 208.256 Q2011.49 208.256 2012.42 208.174 Q2013.34 208.092 2013.83 207.805 Q2014.34 207.518 2014.49 207.231 Q2014.63 206.924 2014.79 206.227 L2020.43 183.827 Q2020.59 183.335 2020.59 182.945 Q2020.59 182.74 2020.53 182.658 Q2020.49 182.576 2020.22 182.515 Q2019.96 182.433 2019.41 182.433 L2017.77 182.433 Q2016.09 182.433 2015.04 182.515 Q2014.02 182.576 2013.03 182.884 Q2012.07 183.191 2011.49 183.622 Q2010.94 184.052 2010.33 184.933 Q2009.71 185.815 2009.26 186.88 Q2008.83 187.946 2008.22 189.688 Q2008.01 190.262 2007.89 190.426 Q2007.78 190.569 2007.5 190.569 Q2007.29 190.569 2007.13 190.446 Q2006.99 190.303 2006.99 190.118 Q2007.19 189.442 2007.23 189.36 L2009.75 181.962 Q2009.96 181.367 2010.14 181.265 Q2010.35 181.142 2011.1 181.142 L2034.39 181.142 Q2034.76 181.142 2034.88 181.142 Q2035 181.142 2035.21 181.183 Q2035.41 181.224 2035.47 181.326 Q2035.53 181.429 2035.53 181.593 Z" fill="#000000" fill-rule="evenodd" fill-opacity="1" /><path clip-path="url(#clip990)" d="M 0 0 M2042.9 203.174 Q2042.94 202.661 2043.74 202.661 L2069.46 202.661 Q2070.67 202.661 2070.69 203.133 Q2070.69 203.645 2069.55 203.624 L2044.03 203.624 Q2042.9 203.645 2042.9 203.174 M2042.9 194.976 Q2042.9 194.463 2043.78 194.484 L2069.42 194.484 Q2070.67 194.484 2070.69 194.976 Q2070.69 195.447 2069.63 195.447 L2043.74 195.447 Q2042.9 195.447 2042.9 194.976 Z" fill="#000000" fill-rule="evenodd" fill-opacity="1" /><path clip-path="url(#clip990)" d="M 0 0 M2086.88 209.547 Q2086.88 208.789 2086.94 208.564 Q2087.02 208.338 2087.35 207.99 L2095.4 199.013 Q2099.81 194.053 2099.81 189.729 Q2099.81 186.921 2098.33 184.913 Q2096.88 182.904 2094.19 182.904 Q2092.35 182.904 2090.79 184.032 Q2089.23 185.159 2088.52 187.167 Q2088.64 187.126 2089.07 187.126 Q2090.12 187.126 2090.69 187.782 Q2091.28 188.438 2091.28 189.319 Q2091.28 190.446 2090.55 191 Q2089.83 191.533 2089.11 191.533 Q2088.82 191.533 2088.43 191.471 Q2088.07 191.41 2087.47 190.836 Q2086.88 190.241 2086.88 189.196 Q2086.88 186.265 2089.09 183.929 Q2091.32 181.593 2094.73 181.593 Q2098.58 181.593 2101.1 183.888 Q2103.64 186.163 2103.64 189.729 Q2103.64 190.979 2103.25 192.127 Q2102.88 193.254 2102.37 194.135 Q2101.88 195.017 2100.53 196.431 Q2099.17 197.845 2098.09 198.849 Q2097 199.853 2094.56 201.985 L2090.12 206.309 L2097.68 206.309 Q2101.37 206.309 2101.65 205.981 Q2102.06 205.387 2102.58 202.251 L2103.64 202.251 L2102.45 209.547 L2086.88 209.547 Z" fill="#000000" fill-rule="evenodd" fill-opacity="1" /><path clip-path="url(#clip990)" d="M 0 0 M2107.66 202.784 Q2107.66 201.534 2108.33 201.063 Q2109.01 200.571 2109.73 200.571 Q2110.69 200.571 2111.25 201.186 Q2111.82 201.78 2111.82 202.62 Q2111.82 203.46 2111.25 204.075 Q2110.69 204.67 2109.73 204.67 Q2109.26 204.67 2109.01 204.588 Q2109.56 206.514 2111.25 207.908 Q2112.95 209.301 2115.18 209.301 Q2117.99 209.301 2119.67 206.576 Q2120.67 204.813 2120.67 200.817 Q2120.67 197.292 2119.91 195.529 Q2118.75 192.844 2116.35 192.844 Q2112.95 192.844 2110.94 195.775 Q2110.69 196.144 2110.4 196.164 Q2110 196.164 2109.89 195.939 Q2109.81 195.693 2109.81 195.058 L2109.81 182.638 Q2109.81 181.634 2110.22 181.634 Q2110.38 181.634 2110.73 181.757 Q2113.38 182.925 2116.31 182.945 Q2119.32 182.945 2122.03 181.716 Q2122.23 181.593 2122.35 181.593 Q2122.76 181.593 2122.78 182.064 Q2122.78 182.228 2122.44 182.72 Q2122.11 183.191 2121.39 183.827 Q2120.67 184.441 2119.75 185.036 Q2118.83 185.63 2117.48 186.04 Q2116.14 186.429 2114.67 186.429 Q2112.91 186.429 2111.1 185.876 L2111.1 194.053 Q2113.27 191.922 2116.43 191.922 Q2119.79 191.922 2122.11 194.627 Q2124.42 197.333 2124.42 201.104 Q2124.42 205.059 2121.68 207.764 Q2118.95 210.47 2115.26 210.47 Q2111.9 210.47 2109.77 208.072 Q2107.66 205.674 2107.66 202.784 Z" fill="#000000" fill-rule="evenodd" fill-opacity="1" /><path clip-path="url(#clip990)" d="M 0 0 M2128.44 196.123 Q2128.44 189.955 2130 186.593 Q2132.17 181.593 2137.29 181.593 Q2138.38 181.593 2139.51 181.9 Q2140.65 182.187 2142.09 183.314 Q2143.54 184.441 2144.43 186.286 Q2146.11 189.852 2146.11 196.123 Q2146.11 202.251 2144.55 205.592 Q2142.27 210.47 2137.25 210.47 Q2135.37 210.47 2133.44 209.506 Q2131.53 208.543 2130.33 206.227 Q2128.44 202.764 2128.44 196.123 M2131.92 195.611 Q2131.92 201.944 2132.37 204.465 Q2132.89 207.19 2134.28 208.379 Q2135.69 209.547 2137.25 209.547 Q2138.93 209.547 2140.33 208.297 Q2141.74 207.027 2142.17 204.301 Q2142.64 201.616 2142.62 195.611 Q2142.62 189.77 2142.21 187.434 Q2141.66 184.708 2140.18 183.622 Q2138.73 182.515 2137.25 182.515 Q2136.7 182.515 2136.1 182.679 Q2135.53 182.843 2134.69 183.314 Q2133.85 183.786 2133.19 184.954 Q2132.56 186.122 2132.25 187.885 Q2131.92 190.159 2131.92 195.611 Z" fill="#000000" fill-rule="evenodd" fill-opacity="1" /><path clip-path="url(#clip990)" d="M 0 0 M2149.82 208.871 Q2149.22 208.195 2149.22 207.313 Q2149.22 206.432 2149.79 205.776 Q2150.39 205.1 2151.46 205.1 Q2152.71 205.1 2153.42 206.309 Q2154.14 207.498 2154.14 209.506 Q2154.14 211.679 2153.26 213.687 Q2152.38 215.716 2151.52 216.68 Q2150.66 217.643 2150.31 217.643 Q2149.9 217.643 2149.9 217.192 Q2149.9 217.028 2150.18 216.721 Q2153.2 213.482 2153.22 209.506 Q2153.22 208.871 2153.14 208.871 L2153.03 208.953 Q2152.32 209.547 2151.46 209.547 Q2150.41 209.547 2149.82 208.871 Z" fill="#000000" fill-rule="evenodd" fill-opacity="1" /><path clip-path="url(#clip990)" d="M 0 0 M2187.98 203.542 Q2187.47 206.063 2186.42 207.826 Q2185.13 210.019 2183.16 210.019 Q2181.5 210.019 2180.4 208.871 Q2179.29 207.703 2179.29 205.858 Q2179.29 205.305 2179.52 204.383 Q2179.6 203.973 2179.6 203.46 Q2179.6 200.14 2172.4 199.894 Q2171.81 202.251 2171.4 203.85 Q2171.01 205.428 2170.89 205.899 Q2170.76 206.371 2170.66 206.76 Q2170.58 207.15 2170.44 207.662 Q2170.23 208.502 2170.09 208.912 Q2169.94 209.322 2169.56 209.67 Q2169.19 210.019 2168.59 210.019 Q2168.08 210.019 2167.73 209.711 Q2167.38 209.404 2167.38 208.871 Q2167.38 208.502 2167.55 207.908 L2171.4 192.516 Q2171.5 192.086 2171.71 191.779 Q2171.91 191.471 2172.1 191.328 Q2172.3 191.184 2172.55 191.102 Q2172.79 191.02 2172.9 191.02 Q2173 191 2173.08 191 Q2173.63 191 2173.96 191.307 Q2174.31 191.594 2174.31 192.127 Q2174.31 192.209 2174.17 192.783 Q2174.04 193.336 2173.84 194.176 Q2173.63 195.017 2173.55 195.406 L2172.71 198.685 Q2173.88 198.296 2174.92 197.599 Q2175.99 196.902 2178.08 195.099 Q2179.04 194.299 2179.62 193.848 Q2180.21 193.377 2181.2 192.742 Q2182.18 192.086 2183.12 191.779 Q2184.07 191.451 2184.97 191.451 Q2185.66 191.451 2186.07 191.779 Q2186.48 192.086 2186.57 192.373 Q2186.65 192.639 2186.65 192.926 Q2186.65 193.767 2185.99 194.484 Q2185.34 195.201 2184.37 195.201 Q2183.51 195.201 2183.14 194.73 Q2182.77 194.258 2182.77 193.726 Q2182.77 193.316 2182.98 192.803 Q2181.83 193.295 2180.85 194.012 Q2179.86 194.709 2178.16 196.164 Q2175.74 198.234 2174.31 199.013 Q2175.13 199.034 2175.74 199.095 Q2176.38 199.136 2177.45 199.28 Q2178.51 199.423 2179.29 199.73 Q2180.07 200.017 2180.83 200.468 Q2181.61 200.919 2182.02 201.657 Q2182.45 202.395 2182.45 203.338 Q2182.45 203.788 2182.24 204.711 Q2181.89 206.227 2181.89 207.068 Q2181.89 208.133 2182.22 208.605 Q2182.57 209.076 2183.25 209.076 Q2184.54 209.076 2185.36 207.744 Q2186.2 206.391 2186.89 203.891 Q2187 203.419 2187.1 203.276 Q2187.2 203.133 2187.49 203.133 Q2187.98 203.133 2187.98 203.542 Z" fill="#000000" fill-rule="evenodd" fill-opacity="1" /><path clip-path="url(#clip990)" d="M 0 0 M2202.96 203.174 Q2203 202.661 2203.8 202.661 L2229.52 202.661 Q2230.73 202.661 2230.75 203.133 Q2230.75 203.645 2229.6 203.624 L2204.08 203.624 Q2202.96 203.645 2202.96 203.174 M2202.96 194.976 Q2202.96 194.463 2203.84 194.484 L2229.48 194.484 Q2230.73 194.484 2230.75 194.976 Q2230.75 195.447 2229.68 195.447 L2203.8 195.447 Q2202.96 195.447 2202.96 194.976 Z" fill="#000000" fill-rule="evenodd" fill-opacity="1" /><path clip-path="url(#clip990)" d="M 0 0 M2246.93 185.589 L2246.93 184.277 Q2251.97 184.277 2254.57 181.593 Q2255.29 181.593 2255.41 181.757 Q2255.54 181.921 2255.54 182.679 L2255.54 206.227 Q2255.54 207.477 2256.15 207.867 Q2256.77 208.256 2259.45 208.256 L2260.78 208.256 L2260.78 209.547 Q2259.31 209.424 2253.98 209.424 Q2248.65 209.424 2247.2 209.547 L2247.2 208.256 L2248.53 208.256 Q2251.17 208.256 2251.81 207.887 Q2252.44 207.498 2252.44 206.227 L2252.44 184.482 Q2250.25 185.589 2246.93 185.589 Z" fill="#000000" fill-rule="evenodd" fill-opacity="1" /><path clip-path="url(#clip990)" d="M 0 0 M2264.34 196.123 Q2264.34 189.955 2265.89 186.593 Q2268.07 181.593 2273.19 181.593 Q2274.28 181.593 2275.4 181.9 Q2276.55 182.187 2277.99 183.314 Q2279.44 184.441 2280.32 186.286 Q2282 189.852 2282 196.123 Q2282 202.251 2280.44 205.592 Q2278.17 210.47 2273.15 210.47 Q2271.26 210.47 2269.34 209.506 Q2267.43 208.543 2266.22 206.227 Q2264.34 202.764 2264.34 196.123 M2267.82 195.611 Q2267.82 201.944 2268.27 204.465 Q2268.78 207.19 2270.18 208.379 Q2271.59 209.547 2273.15 209.547 Q2274.83 209.547 2276.22 208.297 Q2277.64 207.027 2278.07 204.301 Q2278.54 201.616 2278.52 195.611 Q2278.52 189.77 2278.11 187.434 Q2277.55 184.708 2276.08 183.622 Q2274.62 182.515 2273.15 182.515 Q2272.6 182.515 2272 182.679 Q2271.43 182.843 2270.59 183.314 Q2269.75 183.786 2269.09 184.954 Q2268.46 186.122 2268.15 187.885 Q2267.82 190.159 2267.82 195.611 Z" fill="#000000" fill-rule="evenodd" fill-opacity="1" /><polyline clip-path="url(#clip990)" style="stroke:#ff0000; stroke-width:3.5; stroke-opacity:1; fill:none" points="
  1842.98,252.413 1983.56,252.413 
  "/>
<path clip-path="url(#clip990)" d="M 0 0 M2035.53 234.513 Q2035.53 234.902 2035.45 235.23 L2034.3 242.526 Q2034.24 243.079 2034.12 243.284 Q2034.02 243.489 2033.69 243.489 Q2033.18 243.489 2033.18 242.956 Q2033.18 242.649 2033.3 242.157 Q2033.65 239.841 2033.65 238.796 Q2033.65 238.099 2033.51 237.587 Q2033.38 237.054 2033.18 236.685 Q2032.99 236.316 2032.56 236.07 Q2032.13 235.824 2031.72 235.681 Q2031.31 235.537 2030.57 235.476 Q2029.84 235.394 2029.2 235.373 Q2028.57 235.353 2027.52 235.353 Q2025.25 235.353 2024.88 235.435 Q2024.49 235.537 2024.28 235.845 Q2024.1 236.132 2023.89 236.993 L2018.32 259.27 L2018.16 260.151 Q2018.16 260.643 2018.46 260.807 Q2018.77 260.971 2019.71 261.074 Q2021.07 261.176 2022.4 261.176 Q2022.44 261.176 2022.52 261.176 Q2022.97 261.176 2023.16 261.197 Q2023.34 261.197 2023.52 261.238 Q2023.71 261.279 2023.75 261.381 Q2023.81 261.463 2023.81 261.627 Q2023.81 262.016 2023.65 262.221 Q2023.48 262.406 2023.32 262.447 Q2023.18 262.467 2022.89 262.467 Q2022.32 262.467 2021.09 262.426 Q2019.86 262.385 2019.24 262.385 L2015.76 262.344 L2012.19 262.385 Q2011.64 262.385 2010.47 262.426 Q2009.3 262.467 2008.75 262.467 Q2008.03 262.467 2008.03 261.955 Q2008.03 261.381 2008.3 261.279 Q2008.58 261.176 2009.79 261.176 Q2011.49 261.176 2012.42 261.094 Q2013.34 261.012 2013.83 260.725 Q2014.34 260.438 2014.49 260.151 Q2014.63 259.844 2014.79 259.147 L2020.43 236.747 Q2020.59 236.255 2020.59 235.865 Q2020.59 235.66 2020.53 235.578 Q2020.49 235.496 2020.22 235.435 Q2019.96 235.353 2019.41 235.353 L2017.77 235.353 Q2016.09 235.353 2015.04 235.435 Q2014.02 235.496 2013.03 235.804 Q2012.07 236.111 2011.49 236.542 Q2010.94 236.972 2010.33 237.853 Q2009.71 238.735 2009.26 239.8 Q2008.83 240.866 2008.22 242.608 Q2008.01 243.182 2007.89 243.346 Q2007.78 243.489 2007.5 243.489 Q2007.29 243.489 2007.13 243.366 Q2006.99 243.223 2006.99 243.038 Q2007.19 242.362 2007.23 242.28 L2009.75 234.882 Q2009.96 234.287 2010.14 234.185 Q2010.35 234.062 2011.1 234.062 L2034.39 234.062 Q2034.76 234.062 2034.88 234.062 Q2035 234.062 2035.21 234.103 Q2035.41 234.144 2035.47 234.246 Q2035.53 234.349 2035.53 234.513 Z" fill="#000000" fill-rule="evenodd" fill-opacity="1" /><path clip-path="url(#clip990)" d="M 0 0 M2042.9 256.094 Q2042.94 255.581 2043.74 255.581 L2069.46 255.581 Q2070.67 255.581 2070.69 256.053 Q2070.69 256.565 2069.55 256.544 L2044.03 256.544 Q2042.9 256.565 2042.9 256.094 M2042.9 247.896 Q2042.9 247.383 2043.78 247.404 L2069.42 247.404 Q2070.67 247.404 2070.69 247.896 Q2070.69 248.367 2069.63 248.367 L2043.74 248.367 Q2042.9 248.367 2042.9 247.896 Z" fill="#000000" fill-rule="evenodd" fill-opacity="1" /><path clip-path="url(#clip990)" d="M 0 0 M2086.88 262.467 Q2086.88 261.709 2086.94 261.484 Q2087.02 261.258 2087.35 260.91 L2095.4 251.933 Q2099.81 246.973 2099.81 242.649 Q2099.81 239.841 2098.33 237.833 Q2096.88 235.824 2094.19 235.824 Q2092.35 235.824 2090.79 236.952 Q2089.23 238.079 2088.52 240.087 Q2088.64 240.046 2089.07 240.046 Q2090.12 240.046 2090.69 240.702 Q2091.28 241.358 2091.28 242.239 Q2091.28 243.366 2090.55 243.92 Q2089.83 244.453 2089.11 244.453 Q2088.82 244.453 2088.43 244.391 Q2088.07 244.33 2087.47 243.756 Q2086.88 243.161 2086.88 242.116 Q2086.88 239.185 2089.09 236.849 Q2091.32 234.513 2094.73 234.513 Q2098.58 234.513 2101.1 236.808 Q2103.64 239.083 2103.64 242.649 Q2103.64 243.899 2103.25 245.047 Q2102.88 246.174 2102.37 247.055 Q2101.88 247.937 2100.53 249.351 Q2099.17 250.765 2098.09 251.769 Q2097 252.773 2094.56 254.905 L2090.12 259.229 L2097.68 259.229 Q2101.37 259.229 2101.65 258.901 Q2102.06 258.307 2102.58 255.171 L2103.64 255.171 L2102.45 262.467 L2086.88 262.467 Z" fill="#000000" fill-rule="evenodd" fill-opacity="1" /><path clip-path="url(#clip990)" d="M 0 0 M2107.66 255.704 Q2107.66 254.454 2108.33 253.983 Q2109.01 253.491 2109.73 253.491 Q2110.69 253.491 2111.25 254.106 Q2111.82 254.7 2111.82 255.54 Q2111.82 256.38 2111.25 256.995 Q2110.69 257.59 2109.73 257.59 Q2109.26 257.59 2109.01 257.508 Q2109.56 259.434 2111.25 260.828 Q2112.95 262.221 2115.18 262.221 Q2117.99 262.221 2119.67 259.496 Q2120.67 257.733 2120.67 253.737 Q2120.67 250.212 2119.91 248.449 Q2118.75 245.764 2116.35 245.764 Q2112.95 245.764 2110.94 248.695 Q2110.69 249.064 2110.4 249.084 Q2110 249.084 2109.89 248.859 Q2109.81 248.613 2109.81 247.978 L2109.81 235.558 Q2109.81 234.554 2110.22 234.554 Q2110.38 234.554 2110.73 234.677 Q2113.38 235.845 2116.31 235.865 Q2119.32 235.865 2122.03 234.636 Q2122.23 234.513 2122.35 234.513 Q2122.76 234.513 2122.78 234.984 Q2122.78 235.148 2122.44 235.64 Q2122.11 236.111 2121.39 236.747 Q2120.67 237.361 2119.75 237.956 Q2118.83 238.55 2117.48 238.96 Q2116.14 239.349 2114.67 239.349 Q2112.91 239.349 2111.1 238.796 L2111.1 246.973 Q2113.27 244.842 2116.43 244.842 Q2119.79 244.842 2122.11 247.547 Q2124.42 250.253 2124.42 254.024 Q2124.42 257.979 2121.68 260.684 Q2118.95 263.39 2115.26 263.39 Q2111.9 263.39 2109.77 260.992 Q2107.66 258.594 2107.66 255.704 Z" fill="#000000" fill-rule="evenodd" fill-opacity="1" /><path clip-path="url(#clip990)" d="M 0 0 M2128.44 249.043 Q2128.44 242.875 2130 239.513 Q2132.17 234.513 2137.29 234.513 Q2138.38 234.513 2139.51 234.82 Q2140.65 235.107 2142.09 236.234 Q2143.54 237.361 2144.43 239.206 Q2146.11 242.772 2146.11 249.043 Q2146.11 255.171 2144.55 258.512 Q2142.27 263.39 2137.25 263.39 Q2135.37 263.39 2133.44 262.426 Q2131.53 261.463 2130.33 259.147 Q2128.44 255.684 2128.44 249.043 M2131.92 248.531 Q2131.92 254.864 2132.37 257.385 Q2132.89 260.11 2134.28 261.299 Q2135.69 262.467 2137.25 262.467 Q2138.93 262.467 2140.33 261.217 Q2141.74 259.947 2142.17 257.221 Q2142.64 254.536 2142.62 248.531 Q2142.62 242.69 2142.21 240.354 Q2141.66 237.628 2140.18 236.542 Q2138.73 235.435 2137.25 235.435 Q2136.7 235.435 2136.1 235.599 Q2135.53 235.763 2134.69 236.234 Q2133.85 236.706 2133.19 237.874 Q2132.56 239.042 2132.25 240.805 Q2131.92 243.079 2131.92 248.531 Z" fill="#000000" fill-rule="evenodd" fill-opacity="1" /><path clip-path="url(#clip990)" d="M 0 0 M2149.82 261.791 Q2149.22 261.115 2149.22 260.233 Q2149.22 259.352 2149.79 258.696 Q2150.39 258.02 2151.46 258.02 Q2152.71 258.02 2153.42 259.229 Q2154.14 260.418 2154.14 262.426 Q2154.14 264.599 2153.26 266.607 Q2152.38 268.636 2151.52 269.6 Q2150.66 270.563 2150.31 270.563 Q2149.9 270.563 2149.9 270.112 Q2149.9 269.948 2150.18 269.641 Q2153.2 266.402 2153.22 262.426 Q2153.22 261.791 2153.14 261.791 L2153.03 261.873 Q2152.32 262.467 2151.46 262.467 Q2150.41 262.467 2149.82 261.791 Z" fill="#000000" fill-rule="evenodd" fill-opacity="1" /><path clip-path="url(#clip990)" d="M 0 0 M2187.98 256.462 Q2187.47 258.983 2186.42 260.746 Q2185.13 262.939 2183.16 262.939 Q2181.5 262.939 2180.4 261.791 Q2179.29 260.623 2179.29 258.778 Q2179.29 258.225 2179.52 257.303 Q2179.6 256.893 2179.6 256.38 Q2179.6 253.06 2172.4 252.814 Q2171.81 255.171 2171.4 256.77 Q2171.01 258.348 2170.89 258.819 Q2170.76 259.291 2170.66 259.68 Q2170.58 260.07 2170.44 260.582 Q2170.23 261.422 2170.09 261.832 Q2169.94 262.242 2169.56 262.59 Q2169.19 262.939 2168.59 262.939 Q2168.08 262.939 2167.73 262.631 Q2167.38 262.324 2167.38 261.791 Q2167.38 261.422 2167.55 260.828 L2171.4 245.436 Q2171.5 245.006 2171.71 244.699 Q2171.91 244.391 2172.1 244.248 Q2172.3 244.104 2172.55 244.022 Q2172.79 243.94 2172.9 243.94 Q2173 243.92 2173.08 243.92 Q2173.63 243.92 2173.96 244.227 Q2174.31 244.514 2174.31 245.047 Q2174.31 245.129 2174.17 245.703 Q2174.04 246.256 2173.84 247.096 Q2173.63 247.937 2173.55 248.326 L2172.71 251.605 Q2173.88 251.216 2174.92 250.519 Q2175.99 249.822 2178.08 248.019 Q2179.04 247.219 2179.62 246.768 Q2180.21 246.297 2181.2 245.662 Q2182.18 245.006 2183.12 244.699 Q2184.07 244.371 2184.97 244.371 Q2185.66 244.371 2186.07 244.699 Q2186.48 245.006 2186.57 245.293 Q2186.65 245.559 2186.65 245.846 Q2186.65 246.687 2185.99 247.404 Q2185.34 248.121 2184.37 248.121 Q2183.51 248.121 2183.14 247.65 Q2182.77 247.178 2182.77 246.646 Q2182.77 246.236 2182.98 245.723 Q2181.83 246.215 2180.85 246.932 Q2179.86 247.629 2178.16 249.084 Q2175.74 251.154 2174.31 251.933 Q2175.13 251.954 2175.74 252.015 Q2176.38 252.056 2177.45 252.2 Q2178.51 252.343 2179.29 252.65 Q2180.07 252.937 2180.83 253.388 Q2181.61 253.839 2182.02 254.577 Q2182.45 255.315 2182.45 256.258 Q2182.45 256.708 2182.24 257.631 Q2181.89 259.147 2181.89 259.988 Q2181.89 261.053 2182.22 261.525 Q2182.57 261.996 2183.25 261.996 Q2184.54 261.996 2185.36 260.664 Q2186.2 259.311 2186.89 256.811 Q2187 256.339 2187.1 256.196 Q2187.2 256.053 2187.49 256.053 Q2187.98 256.053 2187.98 256.462 Z" fill="#000000" fill-rule="evenodd" fill-opacity="1" /><path clip-path="url(#clip990)" d="M 0 0 M2202.96 256.094 Q2203 255.581 2203.8 255.581 L2229.52 255.581 Q2230.73 255.581 2230.75 256.053 Q2230.75 256.565 2229.6 256.544 L2204.08 256.544 Q2202.96 256.565 2202.96 256.094 M2202.96 247.896 Q2202.96 247.383 2203.84 247.404 L2229.48 247.404 Q2230.73 247.404 2230.75 247.896 Q2230.75 248.367 2229.68 248.367 L2203.8 248.367 Q2202.96 248.367 2202.96 247.896 Z" fill="#000000" fill-rule="evenodd" fill-opacity="1" /><path clip-path="url(#clip990)" d="M 0 0 M2246.93 238.509 L2246.93 237.197 Q2251.97 237.197 2254.57 234.513 Q2255.29 234.513 2255.41 234.677 Q2255.54 234.841 2255.54 235.599 L2255.54 259.147 Q2255.54 260.397 2256.15 260.787 Q2256.77 261.176 2259.45 261.176 L2260.78 261.176 L2260.78 262.467 Q2259.31 262.344 2253.98 262.344 Q2248.65 262.344 2247.2 262.467 L2247.2 261.176 L2248.53 261.176 Q2251.17 261.176 2251.81 260.807 Q2252.44 260.418 2252.44 259.147 L2252.44 237.402 Q2250.25 238.509 2246.93 238.509 Z" fill="#000000" fill-rule="evenodd" fill-opacity="1" /><path clip-path="url(#clip990)" d="M 0 0 M2264.34 249.043 Q2264.34 242.875 2265.89 239.513 Q2268.07 234.513 2273.19 234.513 Q2274.28 234.513 2275.4 234.82 Q2276.55 235.107 2277.99 236.234 Q2279.44 237.361 2280.32 239.206 Q2282 242.772 2282 249.043 Q2282 255.171 2280.44 258.512 Q2278.17 263.39 2273.15 263.39 Q2271.26 263.39 2269.34 262.426 Q2267.43 261.463 2266.22 259.147 Q2264.34 255.684 2264.34 249.043 M2267.82 248.531 Q2267.82 254.864 2268.27 257.385 Q2268.78 260.11 2270.18 261.299 Q2271.59 262.467 2273.15 262.467 Q2274.83 262.467 2276.22 261.217 Q2277.64 259.947 2278.07 257.221 Q2278.54 254.536 2278.52 248.531 Q2278.52 242.69 2278.11 240.354 Q2277.55 237.628 2276.08 236.542 Q2274.62 235.435 2273.15 235.435 Q2272.6 235.435 2272 235.599 Q2271.43 235.763 2270.59 236.234 Q2269.75 236.706 2269.09 237.874 Q2268.46 239.042 2268.15 240.805 Q2267.82 243.079 2267.82 248.531 Z" fill="#000000" fill-rule="evenodd" fill-opacity="1" /><path clip-path="url(#clip990)" d="M 0 0 M2285.12 249.043 Q2285.12 242.875 2286.67 239.513 Q2288.85 234.513 2293.97 234.513 Q2295.06 234.513 2296.18 234.82 Q2297.33 235.107 2298.77 236.234 Q2300.22 237.361 2301.1 239.206 Q2302.78 242.772 2302.78 249.043 Q2302.78 255.171 2301.23 258.512 Q2298.95 263.39 2293.93 263.39 Q2292.04 263.39 2290.12 262.426 Q2288.21 261.463 2287 259.147 Q2285.12 255.684 2285.12 249.043 M2288.6 248.531 Q2288.6 254.864 2289.05 257.385 Q2289.56 260.11 2290.96 261.299 Q2292.37 262.467 2293.93 262.467 Q2295.61 262.467 2297 261.217 Q2298.42 259.947 2298.85 257.221 Q2299.32 254.536 2299.3 248.531 Q2299.3 242.69 2298.89 240.354 Q2298.34 237.628 2296.86 236.542 Q2295.41 235.435 2293.93 235.435 Q2293.38 235.435 2292.78 235.599 Q2292.21 235.763 2291.37 236.234 Q2290.53 236.706 2289.87 237.874 Q2289.24 239.042 2288.93 240.805 Q2288.6 243.079 2288.6 248.531 Z" fill="#000000" fill-rule="evenodd" fill-opacity="1" /></svg>
