<?xml version="1.0" encoding="utf-8"?>
<svg xmlns="http://www.w3.org/2000/svg" xmlns:xlink="http://www.w3.org/1999/xlink" width="600" height="400" viewBox="0 0 2400 1600">
<defs>
  <clipPath id="clip040">
    <rect x="0" y="0" width="2400" height="1600"/>
  </clipPath>
</defs>
<path clip-path="url(#clip040)" d="
M0 1600 L2400 1600 L2400 0 L0 0  Z
  " fill="#ffffff" fill-rule="evenodd" fill-opacity="1"/>
<defs>
  <clipPath id="clip041">
    <rect x="480" y="0" width="1681" height="1600"/>
  </clipPath>
</defs>
<defs>
  <clipPath id="clip042">
    <rect x="244" y="47" width="1509" height="1393"/>
  </clipPath>
</defs>
<path clip-path="url(#clip040)" d="
M252.798 1439.5 L1750.52 1439.5 L1750.52 47.2441 L252.798 47.2441  Z
  " fill="#ffffff" fill-rule="evenodd" fill-opacity="1"/>
<defs>
  <clipPath id="clip043">
    <rect x="252" y="47" width="1499" height="1393"/>
  </clipPath>
</defs>
<polyline clip-path="url(#clip043)" style="stroke:#000000; stroke-width:2; stroke-opacity:0.1; fill:none" points="
  294.903,1439.5 294.903,47.2441 
  "/>
<polyline clip-path="url(#clip043)" style="stroke:#000000; stroke-width:2; stroke-opacity:0.1; fill:none" points="
  577.548,1439.5 577.548,47.2441 
  "/>
<polyline clip-path="url(#clip043)" style="stroke:#000000; stroke-width:2; stroke-opacity:0.1; fill:none" points="
  860.193,1439.5 860.193,47.2441 
  "/>
<polyline clip-path="url(#clip043)" style="stroke:#000000; stroke-width:2; stroke-opacity:0.1; fill:none" points="
  1142.84,1439.5 1142.84,47.2441 
  "/>
<polyline clip-path="url(#clip043)" style="stroke:#000000; stroke-width:2; stroke-opacity:0.1; fill:none" points="
  1425.48,1439.5 1425.48,47.2441 
  "/>
<polyline clip-path="url(#clip043)" style="stroke:#000000; stroke-width:2; stroke-opacity:0.1; fill:none" points="
  1708.13,1439.5 1708.13,47.2441 
  "/>
<polyline clip-path="url(#clip040)" style="stroke:#000000; stroke-width:4; stroke-opacity:1; fill:none" points="
  252.798,1439.5 1750.52,1439.5 
  "/>
<polyline clip-path="url(#clip040)" style="stroke:#000000; stroke-width:4; stroke-opacity:1; fill:none" points="
  294.903,1439.5 294.903,1422.79 
  "/>
<polyline clip-path="url(#clip040)" style="stroke:#000000; stroke-width:4; stroke-opacity:1; fill:none" points="
  577.548,1439.5 577.548,1422.79 
  "/>
<polyline clip-path="url(#clip040)" style="stroke:#000000; stroke-width:4; stroke-opacity:1; fill:none" points="
  860.193,1439.5 860.193,1422.79 
  "/>
<polyline clip-path="url(#clip040)" style="stroke:#000000; stroke-width:4; stroke-opacity:1; fill:none" points="
  1142.84,1439.5 1142.84,1422.79 
  "/>
<polyline clip-path="url(#clip040)" style="stroke:#000000; stroke-width:4; stroke-opacity:1; fill:none" points="
  1425.48,1439.5 1425.48,1422.79 
  "/>
<polyline clip-path="url(#clip040)" style="stroke:#000000; stroke-width:4; stroke-opacity:1; fill:none" points="
  1708.13,1439.5 1708.13,1422.79 
  "/>
<path clip-path="url(#clip040)" d="M 0 0 M294.903 1468.69 Q291.292 1468.69 289.464 1472.26 Q287.658 1475.8 287.658 1482.93 Q287.658 1490.04 289.464 1493.6 Q291.292 1497.14 294.903 1497.14 Q298.538 1497.14 300.343 1493.6 Q302.172 1490.04 302.172 1482.93 Q302.172 1475.8 300.343 1472.26 Q298.538 1468.69 294.903 1468.69 M294.903 1464.99 Q300.714 1464.99 303.769 1469.6 Q306.848 1474.18 306.848 1482.93 Q306.848 1491.66 303.769 1496.26 Q300.714 1500.85 294.903 1500.85 Q289.093 1500.85 286.015 1496.26 Q282.959 1491.66 282.959 1482.93 Q282.959 1474.18 286.015 1469.6 Q289.093 1464.99 294.903 1464.99 Z" fill="#000000" fill-rule="evenodd" fill-opacity="1" /><path clip-path="url(#clip040)" d="M 0 0 M537.155 1496.24 L544.794 1496.24 L544.794 1469.87 L536.484 1471.54 L536.484 1467.28 L544.747 1465.61 L549.423 1465.61 L549.423 1496.24 L557.062 1496.24 L557.062 1500.17 L537.155 1500.17 L537.155 1496.24 Z" fill="#000000" fill-rule="evenodd" fill-opacity="1" /><path clip-path="url(#clip040)" d="M 0 0 M576.507 1468.69 Q572.895 1468.69 571.067 1472.26 Q569.261 1475.8 569.261 1482.93 Q569.261 1490.04 571.067 1493.6 Q572.895 1497.14 576.507 1497.14 Q580.141 1497.14 581.946 1493.6 Q583.775 1490.04 583.775 1482.93 Q583.775 1475.8 581.946 1472.26 Q580.141 1468.69 576.507 1468.69 M576.507 1464.99 Q582.317 1464.99 585.372 1469.6 Q588.451 1474.18 588.451 1482.93 Q588.451 1491.66 585.372 1496.26 Q582.317 1500.85 576.507 1500.85 Q570.696 1500.85 567.618 1496.26 Q564.562 1491.66 564.562 1482.93 Q564.562 1474.18 567.618 1469.6 Q570.696 1464.99 576.507 1464.99 Z" fill="#000000" fill-rule="evenodd" fill-opacity="1" /><path clip-path="url(#clip040)" d="M 0 0 M606.668 1468.69 Q603.057 1468.69 601.229 1472.26 Q599.423 1475.8 599.423 1482.93 Q599.423 1490.04 601.229 1493.6 Q603.057 1497.14 606.668 1497.14 Q610.303 1497.14 612.108 1493.6 Q613.937 1490.04 613.937 1482.93 Q613.937 1475.8 612.108 1472.26 Q610.303 1468.69 606.668 1468.69 M606.668 1464.99 Q612.479 1464.99 615.534 1469.6 Q618.613 1474.18 618.613 1482.93 Q618.613 1491.66 615.534 1496.26 Q612.479 1500.85 606.668 1500.85 Q600.858 1500.85 597.78 1496.26 Q594.724 1491.66 594.724 1482.93 Q594.724 1474.18 597.78 1469.6 Q600.858 1464.99 606.668 1464.99 Z" fill="#000000" fill-rule="evenodd" fill-opacity="1" /><path clip-path="url(#clip040)" d="M 0 0 M823.885 1496.24 L840.205 1496.24 L840.205 1500.17 L818.26 1500.17 L818.26 1496.24 Q820.922 1493.48 825.506 1488.85 Q830.112 1484.2 831.293 1482.86 Q833.538 1480.34 834.418 1478.6 Q835.32 1476.84 835.32 1475.15 Q835.32 1472.4 833.376 1470.66 Q831.455 1468.92 828.353 1468.92 Q826.154 1468.92 823.7 1469.69 Q821.27 1470.45 818.492 1472 L818.492 1467.28 Q821.316 1466.15 823.77 1465.57 Q826.223 1464.99 828.26 1464.99 Q833.631 1464.99 836.825 1467.67 Q840.02 1470.36 840.02 1474.85 Q840.02 1476.98 839.209 1478.9 Q838.422 1480.8 836.316 1483.39 Q835.737 1484.06 832.635 1487.28 Q829.533 1490.47 823.885 1496.24 Z" fill="#000000" fill-rule="evenodd" fill-opacity="1" /><path clip-path="url(#clip040)" d="M 0 0 M860.019 1468.69 Q856.408 1468.69 854.58 1472.26 Q852.774 1475.8 852.774 1482.93 Q852.774 1490.04 854.58 1493.6 Q856.408 1497.14 860.019 1497.14 Q863.654 1497.14 865.459 1493.6 Q867.288 1490.04 867.288 1482.93 Q867.288 1475.8 865.459 1472.26 Q863.654 1468.69 860.019 1468.69 M860.019 1464.99 Q865.83 1464.99 868.885 1469.6 Q871.964 1474.18 871.964 1482.93 Q871.964 1491.66 868.885 1496.26 Q865.83 1500.85 860.019 1500.85 Q854.209 1500.85 851.131 1496.26 Q848.075 1491.66 848.075 1482.93 Q848.075 1474.18 851.131 1469.6 Q854.209 1464.99 860.019 1464.99 Z" fill="#000000" fill-rule="evenodd" fill-opacity="1" /><path clip-path="url(#clip040)" d="M 0 0 M890.181 1468.69 Q886.57 1468.69 884.742 1472.26 Q882.936 1475.8 882.936 1482.93 Q882.936 1490.04 884.742 1493.6 Q886.57 1497.14 890.181 1497.14 Q893.816 1497.14 895.621 1493.6 Q897.45 1490.04 897.45 1482.93 Q897.45 1475.8 895.621 1472.26 Q893.816 1468.69 890.181 1468.69 M890.181 1464.99 Q895.991 1464.99 899.047 1469.6 Q902.126 1474.18 902.126 1482.93 Q902.126 1491.66 899.047 1496.26 Q895.991 1500.85 890.181 1500.85 Q884.371 1500.85 881.292 1496.26 Q878.237 1491.66 878.237 1482.93 Q878.237 1474.18 881.292 1469.6 Q884.371 1464.99 890.181 1464.99 Z" fill="#000000" fill-rule="evenodd" fill-opacity="1" /><path clip-path="url(#clip040)" d="M 0 0 M1116.6 1481.54 Q1119.96 1482.26 1121.83 1484.53 Q1123.73 1486.79 1123.73 1490.13 Q1123.73 1495.24 1120.21 1498.04 Q1116.69 1500.85 1110.21 1500.85 Q1108.03 1500.85 1105.72 1500.41 Q1103.43 1499.99 1100.97 1499.13 L1100.97 1494.62 Q1102.92 1495.75 1105.23 1496.33 Q1107.55 1496.91 1110.07 1496.91 Q1114.47 1496.91 1116.76 1495.17 Q1119.08 1493.44 1119.08 1490.13 Q1119.08 1487.07 1116.92 1485.36 Q1114.79 1483.62 1110.97 1483.62 L1106.95 1483.62 L1106.95 1479.78 L1111.16 1479.78 Q1114.61 1479.78 1116.44 1478.41 Q1118.27 1477.03 1118.27 1474.43 Q1118.27 1471.77 1116.37 1470.36 Q1114.49 1468.92 1110.97 1468.92 Q1109.05 1468.92 1106.85 1469.34 Q1104.66 1469.76 1102.02 1470.64 L1102.02 1466.47 Q1104.68 1465.73 1106.99 1465.36 Q1109.33 1464.99 1111.39 1464.99 Q1116.72 1464.99 1119.82 1467.42 Q1122.92 1469.83 1122.92 1473.95 Q1122.92 1476.82 1121.28 1478.81 Q1119.63 1480.78 1116.6 1481.54 Z" fill="#000000" fill-rule="evenodd" fill-opacity="1" /><path clip-path="url(#clip040)" d="M 0 0 M1142.59 1468.69 Q1138.98 1468.69 1137.16 1472.26 Q1135.35 1475.8 1135.35 1482.93 Q1135.35 1490.04 1137.16 1493.6 Q1138.98 1497.14 1142.59 1497.14 Q1146.23 1497.14 1148.03 1493.6 Q1149.86 1490.04 1149.86 1482.93 Q1149.86 1475.8 1148.03 1472.26 Q1146.23 1468.69 1142.59 1468.69 M1142.59 1464.99 Q1148.4 1464.99 1151.46 1469.6 Q1154.54 1474.18 1154.54 1482.93 Q1154.54 1491.66 1151.46 1496.26 Q1148.4 1500.85 1142.59 1500.85 Q1136.78 1500.85 1133.71 1496.26 Q1130.65 1491.66 1130.65 1482.93 Q1130.65 1474.18 1133.71 1469.6 Q1136.78 1464.99 1142.59 1464.99 Z" fill="#000000" fill-rule="evenodd" fill-opacity="1" /><path clip-path="url(#clip040)" d="M 0 0 M1172.76 1468.69 Q1169.15 1468.69 1167.32 1472.26 Q1165.51 1475.8 1165.51 1482.93 Q1165.51 1490.04 1167.32 1493.6 Q1169.15 1497.14 1172.76 1497.14 Q1176.39 1497.14 1178.2 1493.6 Q1180.03 1490.04 1180.03 1482.93 Q1180.03 1475.8 1178.2 1472.26 Q1176.39 1468.69 1172.76 1468.69 M1172.76 1464.99 Q1178.57 1464.99 1181.62 1469.6 Q1184.7 1474.18 1184.7 1482.93 Q1184.7 1491.66 1181.62 1496.26 Q1178.57 1500.85 1172.76 1500.85 Q1166.95 1500.85 1163.87 1496.26 Q1160.81 1491.66 1160.81 1482.93 Q1160.81 1474.18 1163.87 1469.6 Q1166.95 1464.99 1172.76 1464.99 Z" fill="#000000" fill-rule="evenodd" fill-opacity="1" /><path clip-path="url(#clip040)" d="M 0 0 M1398.57 1469.69 L1386.77 1488.14 L1398.57 1488.14 L1398.57 1469.69 M1397.35 1465.61 L1403.23 1465.61 L1403.23 1488.14 L1408.16 1488.14 L1408.16 1492.03 L1403.23 1492.03 L1403.23 1500.17 L1398.57 1500.17 L1398.57 1492.03 L1382.97 1492.03 L1382.97 1487.51 L1397.35 1465.61 Z" fill="#000000" fill-rule="evenodd" fill-opacity="1" /><path clip-path="url(#clip040)" d="M 0 0 M1425.89 1468.69 Q1422.28 1468.69 1420.45 1472.26 Q1418.64 1475.8 1418.64 1482.93 Q1418.64 1490.04 1420.45 1493.6 Q1422.28 1497.14 1425.89 1497.14 Q1429.52 1497.14 1431.33 1493.6 Q1433.16 1490.04 1433.16 1482.93 Q1433.16 1475.8 1431.33 1472.26 Q1429.52 1468.69 1425.89 1468.69 M1425.89 1464.99 Q1431.7 1464.99 1434.75 1469.6 Q1437.83 1474.18 1437.83 1482.93 Q1437.83 1491.66 1434.75 1496.26 Q1431.7 1500.85 1425.89 1500.85 Q1420.08 1500.85 1417 1496.26 Q1413.94 1491.66 1413.94 1482.93 Q1413.94 1474.18 1417 1469.6 Q1420.08 1464.99 1425.89 1464.99 Z" fill="#000000" fill-rule="evenodd" fill-opacity="1" /><path clip-path="url(#clip040)" d="M 0 0 M1456.05 1468.69 Q1452.44 1468.69 1450.61 1472.26 Q1448.8 1475.8 1448.8 1482.93 Q1448.8 1490.04 1450.61 1493.6 Q1452.44 1497.14 1456.05 1497.14 Q1459.68 1497.14 1461.49 1493.6 Q1463.32 1490.04 1463.32 1482.93 Q1463.32 1475.8 1461.49 1472.26 Q1459.68 1468.69 1456.05 1468.69 M1456.05 1464.99 Q1461.86 1464.99 1464.92 1469.6 Q1467.99 1474.18 1467.99 1482.93 Q1467.99 1491.66 1464.92 1496.26 Q1461.86 1500.85 1456.05 1500.85 Q1450.24 1500.85 1447.16 1496.26 Q1444.11 1491.66 1444.11 1482.93 Q1444.11 1474.18 1447.16 1469.6 Q1450.24 1464.99 1456.05 1464.99 Z" fill="#000000" fill-rule="evenodd" fill-opacity="1" /><path clip-path="url(#clip040)" d="M 0 0 M1667.75 1465.61 L1686.1 1465.61 L1686.1 1469.55 L1672.03 1469.55 L1672.03 1478.02 Q1673.05 1477.67 1674.07 1477.51 Q1675.08 1477.33 1676.1 1477.33 Q1681.89 1477.33 1685.27 1480.5 Q1688.65 1483.67 1688.65 1489.09 Q1688.65 1494.66 1685.18 1497.77 Q1681.7 1500.85 1675.38 1500.85 Q1673.21 1500.85 1670.94 1500.47 Q1668.69 1500.1 1666.29 1499.36 L1666.29 1494.66 Q1668.37 1495.8 1670.59 1496.35 Q1672.82 1496.91 1675.29 1496.91 Q1679.3 1496.91 1681.63 1494.8 Q1683.97 1492.7 1683.97 1489.09 Q1683.97 1485.47 1681.63 1483.37 Q1679.3 1481.26 1675.29 1481.26 Q1673.42 1481.26 1671.54 1481.68 Q1669.69 1482.1 1667.75 1482.97 L1667.75 1465.61 Z" fill="#000000" fill-rule="evenodd" fill-opacity="1" /><path clip-path="url(#clip040)" d="M 0 0 M1707.86 1468.69 Q1704.25 1468.69 1702.42 1472.26 Q1700.62 1475.8 1700.62 1482.93 Q1700.62 1490.04 1702.42 1493.6 Q1704.25 1497.14 1707.86 1497.14 Q1711.5 1497.14 1713.3 1493.6 Q1715.13 1490.04 1715.13 1482.93 Q1715.13 1475.8 1713.3 1472.26 Q1711.5 1468.69 1707.86 1468.69 M1707.86 1464.99 Q1713.67 1464.99 1716.73 1469.6 Q1719.81 1474.18 1719.81 1482.93 Q1719.81 1491.66 1716.73 1496.26 Q1713.67 1500.85 1707.86 1500.85 Q1702.05 1500.85 1698.97 1496.26 Q1695.92 1491.66 1695.92 1482.93 Q1695.92 1474.18 1698.97 1469.6 Q1702.05 1464.99 1707.86 1464.99 Z" fill="#000000" fill-rule="evenodd" fill-opacity="1" /><path clip-path="url(#clip040)" d="M 0 0 M1738.02 1468.69 Q1734.41 1468.69 1732.58 1472.26 Q1730.78 1475.8 1730.78 1482.93 Q1730.78 1490.04 1732.58 1493.6 Q1734.41 1497.14 1738.02 1497.14 Q1741.66 1497.14 1743.46 1493.6 Q1745.29 1490.04 1745.29 1482.93 Q1745.29 1475.8 1743.46 1472.26 Q1741.66 1468.69 1738.02 1468.69 M1738.02 1464.99 Q1743.83 1464.99 1746.89 1469.6 Q1749.97 1474.18 1749.97 1482.93 Q1749.97 1491.66 1746.89 1496.26 Q1743.83 1500.85 1738.02 1500.85 Q1732.21 1500.85 1729.13 1496.26 Q1726.08 1491.66 1726.08 1482.93 Q1726.08 1474.18 1729.13 1469.6 Q1732.21 1464.99 1738.02 1464.99 Z" fill="#000000" fill-rule="evenodd" fill-opacity="1" /><path clip-path="url(#clip040)" d="M 0 0 M1013.59 1535.75 Q1013.59 1541.16 1011.85 1547.24 Q1010.15 1553.3 1007.44 1558.19 Q1004.74 1563.06 1001.19 1566.28 Q997.65 1569.47 994.268 1569.47 Q992.11 1569.47 990.5 1568.27 Q988.922 1567.05 988.052 1565.02 Q987.183 1562.96 986.764 1560.71 Q986.345 1558.42 986.345 1555.94 Q986.345 1552.24 987.151 1548.21 Q987.956 1544.15 989.308 1540.48 Q990.661 1536.78 992.561 1533.43 Q994.461 1530.05 996.555 1527.6 Q998.68 1525.12 1001.06 1523.67 Q1003.45 1522.22 1005.67 1522.22 Q1007.28 1522.22 1008.57 1522.93 Q1009.89 1523.6 1010.73 1524.8 Q1011.56 1525.96 1012.14 1527.34 Q1012.75 1528.73 1013.04 1530.34 Q1013.33 1531.91 1013.46 1533.23 Q1013.59 1534.52 1013.59 1535.75 M1009.24 1531.66 Q1009.24 1530.01 1009.12 1528.79 Q1008.99 1527.53 1008.63 1526.28 Q1008.28 1525.02 1007.5 1524.35 Q1006.76 1523.67 1005.6 1523.67 Q1002.22 1523.67 998.423 1530.59 Q997.199 1532.75 996.104 1535.68 Q995.009 1538.61 994.622 1540 Q994.236 1541.38 993.334 1544.8 L1007.12 1544.8 Q1009.24 1536 1009.24 1531.66 M1006.54 1546.89 L992.819 1546.89 Q990.693 1554.94 990.693 1559.96 Q990.693 1564.34 991.595 1566.18 Q992.529 1567.98 994.268 1567.98 Q996.265 1567.98 998.133 1565.99 Q1000 1563.96 1001.9 1560.29 Q1004.41 1555.52 1006.54 1546.89 Z" fill="#000000" fill-rule="evenodd" fill-opacity="1" /><polyline clip-path="url(#clip043)" style="stroke:#000000; stroke-width:2; stroke-opacity:0.1; fill:none" points="
  252.798,1384.12 1750.52,1384.12 
  "/>
<polyline clip-path="url(#clip043)" style="stroke:#000000; stroke-width:2; stroke-opacity:0.1; fill:none" points="
  252.798,1014.07 1750.52,1014.07 
  "/>
<polyline clip-path="url(#clip043)" style="stroke:#000000; stroke-width:2; stroke-opacity:0.1; fill:none" points="
  252.798,644.023 1750.52,644.023 
  "/>
<polyline clip-path="url(#clip043)" style="stroke:#000000; stroke-width:2; stroke-opacity:0.1; fill:none" points="
  252.798,273.975 1750.52,273.975 
  "/>
<polyline clip-path="url(#clip040)" style="stroke:#000000; stroke-width:4; stroke-opacity:1; fill:none" points="
  252.798,1439.5 252.798,47.2441 
  "/>
<polyline clip-path="url(#clip040)" style="stroke:#000000; stroke-width:4; stroke-opacity:1; fill:none" points="
  252.798,1384.12 270.77,1384.12 
  "/>
<polyline clip-path="url(#clip040)" style="stroke:#000000; stroke-width:4; stroke-opacity:1; fill:none" points="
  252.798,1014.07 270.77,1014.07 
  "/>
<polyline clip-path="url(#clip040)" style="stroke:#000000; stroke-width:4; stroke-opacity:1; fill:none" points="
  252.798,644.023 270.77,644.023 
  "/>
<polyline clip-path="url(#clip040)" style="stroke:#000000; stroke-width:4; stroke-opacity:1; fill:none" points="
  252.798,273.975 270.77,273.975 
  "/>
<path clip-path="url(#clip040)" d="M 0 0 M159.622 1369.92 Q156.011 1369.92 154.182 1373.48 Q152.377 1377.03 152.377 1384.16 Q152.377 1391.26 154.182 1394.83 Q156.011 1398.37 159.622 1398.37 Q163.256 1398.37 165.062 1394.83 Q166.891 1391.26 166.891 1384.16 Q166.891 1377.03 165.062 1373.48 Q163.256 1369.92 159.622 1369.92 M159.622 1366.22 Q165.432 1366.22 168.488 1370.82 Q171.567 1375.41 171.567 1384.16 Q171.567 1392.88 168.488 1397.49 Q165.432 1402.07 159.622 1402.07 Q153.812 1402.07 150.733 1397.49 Q147.678 1392.88 147.678 1384.16 Q147.678 1375.41 150.733 1370.82 Q153.812 1366.22 159.622 1366.22 Z" fill="#000000" fill-rule="evenodd" fill-opacity="1" /><path clip-path="url(#clip040)" d="M 0 0 M179.784 1395.52 L184.668 1395.52 L184.668 1401.4 L179.784 1401.4 L179.784 1395.52 Z" fill="#000000" fill-rule="evenodd" fill-opacity="1" /><path clip-path="url(#clip040)" d="M 0 0 M204.853 1369.92 Q201.242 1369.92 199.414 1373.48 Q197.608 1377.03 197.608 1384.16 Q197.608 1391.26 199.414 1394.83 Q201.242 1398.37 204.853 1398.37 Q208.488 1398.37 210.293 1394.83 Q212.122 1391.26 212.122 1384.16 Q212.122 1377.03 210.293 1373.48 Q208.488 1369.92 204.853 1369.92 M204.853 1366.22 Q210.664 1366.22 213.719 1370.82 Q216.798 1375.41 216.798 1384.16 Q216.798 1392.88 213.719 1397.49 Q210.664 1402.07 204.853 1402.07 Q199.043 1402.07 195.965 1397.49 Q192.909 1392.88 192.909 1384.16 Q192.909 1375.41 195.965 1370.82 Q199.043 1366.22 204.853 1366.22 Z" fill="#000000" fill-rule="evenodd" fill-opacity="1" /><path clip-path="url(#clip040)" d="M 0 0 M160.618 999.871 Q157.006 999.871 155.178 1003.44 Q153.372 1006.98 153.372 1014.11 Q153.372 1021.21 155.178 1024.78 Q157.006 1028.32 160.618 1028.32 Q164.252 1028.32 166.057 1024.78 Q167.886 1021.21 167.886 1014.11 Q167.886 1006.98 166.057 1003.44 Q164.252 999.871 160.618 999.871 M160.618 996.167 Q166.428 996.167 169.483 1000.77 Q172.562 1005.36 172.562 1014.11 Q172.562 1022.83 169.483 1027.44 Q166.428 1032.02 160.618 1032.02 Q154.807 1032.02 151.729 1027.44 Q148.673 1022.83 148.673 1014.11 Q148.673 1005.36 151.729 1000.77 Q154.807 996.167 160.618 996.167 Z" fill="#000000" fill-rule="evenodd" fill-opacity="1" /><path clip-path="url(#clip040)" d="M 0 0 M180.779 1025.47 L185.664 1025.47 L185.664 1031.35 L180.779 1031.35 L180.779 1025.47 Z" fill="#000000" fill-rule="evenodd" fill-opacity="1" /><path clip-path="url(#clip040)" d="M 0 0 M195.895 996.792 L214.251 996.792 L214.251 1000.73 L200.177 1000.73 L200.177 1009.2 Q201.196 1008.85 202.215 1008.69 Q203.233 1008.51 204.252 1008.51 Q210.039 1008.51 213.418 1011.68 Q216.798 1014.85 216.798 1020.26 Q216.798 1025.84 213.326 1028.94 Q209.853 1032.02 203.534 1032.02 Q201.358 1032.02 199.09 1031.65 Q196.844 1031.28 194.437 1030.54 L194.437 1025.84 Q196.52 1026.98 198.742 1027.53 Q200.965 1028.09 203.441 1028.09 Q207.446 1028.09 209.784 1025.98 Q212.122 1023.88 212.122 1020.26 Q212.122 1016.65 209.784 1014.55 Q207.446 1012.44 203.441 1012.44 Q201.566 1012.44 199.691 1012.86 Q197.84 1013.27 195.895 1014.15 L195.895 996.792 Z" fill="#000000" fill-rule="evenodd" fill-opacity="1" /><path clip-path="url(#clip040)" d="M 0 0 M150.432 657.368 L158.071 657.368 L158.071 631.003 L149.761 632.669 L149.761 628.41 L158.025 626.743 L162.701 626.743 L162.701 657.368 L170.34 657.368 L170.34 661.303 L150.432 661.303 L150.432 657.368 Z" fill="#000000" fill-rule="evenodd" fill-opacity="1" /><path clip-path="url(#clip040)" d="M 0 0 M179.784 655.424 L184.668 655.424 L184.668 661.303 L179.784 661.303 L179.784 655.424 Z" fill="#000000" fill-rule="evenodd" fill-opacity="1" /><path clip-path="url(#clip040)" d="M 0 0 M204.853 629.822 Q201.242 629.822 199.414 633.387 Q197.608 636.929 197.608 644.058 Q197.608 651.165 199.414 654.729 Q201.242 658.271 204.853 658.271 Q208.488 658.271 210.293 654.729 Q212.122 651.165 212.122 644.058 Q212.122 636.929 210.293 633.387 Q208.488 629.822 204.853 629.822 M204.853 626.118 Q210.664 626.118 213.719 630.725 Q216.798 635.308 216.798 644.058 Q216.798 652.785 213.719 657.391 Q210.664 661.975 204.853 661.975 Q199.043 661.975 195.965 657.391 Q192.909 652.785 192.909 644.058 Q192.909 635.308 195.965 630.725 Q199.043 626.118 204.853 626.118 Z" fill="#000000" fill-rule="evenodd" fill-opacity="1" /><path clip-path="url(#clip040)" d="M 0 0 M151.428 287.319 L159.067 287.319 L159.067 260.954 L150.756 262.62 L150.756 258.361 L159.02 256.695 L163.696 256.695 L163.696 287.319 L171.335 287.319 L171.335 291.255 L151.428 291.255 L151.428 287.319 Z" fill="#000000" fill-rule="evenodd" fill-opacity="1" /><path clip-path="url(#clip040)" d="M 0 0 M180.779 285.375 L185.664 285.375 L185.664 291.255 L180.779 291.255 L180.779 285.375 Z" fill="#000000" fill-rule="evenodd" fill-opacity="1" /><path clip-path="url(#clip040)" d="M 0 0 M195.895 256.695 L214.251 256.695 L214.251 260.63 L200.177 260.63 L200.177 269.102 Q201.196 268.755 202.215 268.593 Q203.233 268.407 204.252 268.407 Q210.039 268.407 213.418 271.579 Q216.798 274.75 216.798 280.167 Q216.798 285.745 213.326 288.847 Q209.853 291.926 203.534 291.926 Q201.358 291.926 199.09 291.555 Q196.844 291.185 194.437 290.444 L194.437 285.745 Q196.52 286.88 198.742 287.435 Q200.965 287.991 203.441 287.991 Q207.446 287.991 209.784 285.884 Q212.122 283.778 212.122 280.167 Q212.122 276.556 209.784 274.449 Q207.446 272.343 203.441 272.343 Q201.566 272.343 199.691 272.759 Q197.84 273.176 195.895 274.056 L195.895 256.695 Z" fill="#000000" fill-rule="evenodd" fill-opacity="1" /><path clip-path="url(#clip040)" d="M 0 0 M60.857 942.374 L77.282 948.043 L77.282 1002.73 Q77.282 1003.47 77.2498 1003.76 Q77.2176 1004.05 77.0566 1004.27 Q76.8956 1004.5 76.5413 1004.5 Q76.2514 1004.5 75.5107 1003.92 L46.5576 980.506 L13.45 1004.56 Q11.9363 1004.56 11.6465 1004.31 Q11.3244 1004.05 11.3244 1002.73 L11.3244 948.043 L26.751 942.374 L26.751 944.017 Q24.7543 944.758 23.0796 945.949 Q21.3726 947.109 20.1488 948.461 Q18.925 949.782 17.9588 951.521 Q16.9604 953.228 16.3485 954.838 Q15.7044 956.416 15.2535 958.381 Q14.7704 960.345 14.545 961.923 Q14.2874 963.469 14.1585 965.402 Q14.0297 967.334 13.9975 968.558 Q13.9653 969.782 13.9653 971.327 L13.9653 997.446 L43.3693 976.03 Q44.11 975.546 44.3032 975.546 Q44.5931 975.546 45.366 976.158 L73.6428 999.024 L73.6428 971.005 Q73.6428 961.988 71.7426 955.708 Q70.2934 951.456 67.427 948.365 Q64.5607 945.241 60.857 944.017 L60.857 942.374 Z" fill="#000000" fill-rule="evenodd" fill-opacity="1" /><path clip-path="url(#clip040)" d="M 0 0 M103.424 1013.55 Q104.055 1013.55 104.213 1013.85 Q104.349 1014.14 104.349 1014.95 L104.349 1019.28 L117.965 1022.7 Q119.16 1022.98 120.174 1022.98 Q121.302 1022.98 121.798 1022.64 Q122.294 1022.28 122.294 1021.53 Q122.294 1020.07 120.964 1018.49 Q119.633 1016.89 116.387 1015.54 Q115.959 1015.36 115.869 1015.27 Q115.756 1015.15 115.756 1014.86 Q115.756 1014.3 116.207 1014.3 Q116.365 1014.3 117.086 1014.61 Q117.807 1014.9 118.867 1015.56 Q119.927 1016.19 120.918 1017.02 Q121.91 1017.84 122.632 1019.08 Q123.331 1020.32 123.331 1021.65 Q123.331 1023.52 122.136 1024.71 Q120.941 1025.88 119.07 1025.88 Q118.461 1025.88 116.522 1025.41 Q114.561 1024.94 104.349 1022.37 L104.349 1026.45 Q104.349 1027.01 104.326 1027.24 Q104.303 1027.44 104.191 1027.6 Q104.055 1027.73 103.785 1027.73 Q103.357 1027.73 103.176 1027.55 Q102.973 1027.37 102.951 1027.15 Q102.906 1026.9 102.906 1026.33 L102.906 1022.01 L95.5789 1020.2 Q94.8575 1020.02 94.4517 1019.57 Q94.0233 1019.1 93.9782 1018.83 Q93.9106 1018.56 93.9106 1018.35 Q93.9106 1017.75 94.2488 1017.38 Q94.5644 1017.02 95.1505 1017.02 Q95.4662 1017.02 102.906 1018.92 L102.906 1014.86 Q102.906 1014.34 102.928 1014.14 Q102.951 1013.91 103.064 1013.73 Q103.176 1013.55 103.424 1013.55 Z" fill="#000000" fill-rule="evenodd" fill-opacity="1" /><path clip-path="url(#clip040)" d="M 0 0 M115.801 998.419 Q115.237 998.374 115.237 997.495 L115.237 969.202 Q115.237 967.872 115.756 967.85 Q116.319 967.85 116.297 969.112 L116.297 997.179 Q116.319 998.419 115.801 998.419 M106.783 998.419 Q106.22 998.419 106.242 997.45 L106.242 969.247 Q106.242 967.872 106.783 967.85 Q107.302 967.85 107.302 969.022 L107.302 997.495 Q107.302 998.419 106.783 998.419 Z" fill="#000000" fill-rule="evenodd" fill-opacity="1" /><path clip-path="url(#clip040)" d="M 0 0 M108.046 950.037 Q101.26 950.037 97.5628 948.324 Q92.062 945.934 92.062 940.298 Q92.062 939.104 92.4002 937.864 Q92.7158 936.601 93.9557 935.023 Q95.1956 933.422 97.2246 932.453 Q101.147 930.604 108.046 930.604 Q114.786 930.604 118.461 932.318 Q123.827 934.82 123.827 940.344 Q123.827 942.418 122.767 944.537 Q121.707 946.633 119.16 947.963 Q115.35 950.037 108.046 950.037 M107.482 946.205 Q114.448 946.205 117.221 945.709 Q120.22 945.145 121.527 943.612 Q122.812 942.057 122.812 940.344 Q122.812 938.495 121.437 936.962 Q120.039 935.406 117.041 934.933 Q114.088 934.414 107.482 934.437 Q101.057 934.437 98.4871 934.888 Q95.4887 935.497 94.2939 937.12 Q93.0765 938.72 93.0765 940.344 Q93.0765 940.952 93.2568 941.606 Q93.4372 942.237 93.9557 943.162 Q94.4742 944.086 95.7592 944.807 Q97.0442 945.506 98.983 945.844 Q101.485 946.205 107.482 946.205 Z" fill="#000000" fill-rule="evenodd" fill-opacity="1" /><path clip-path="url(#clip040)" d="M 0 0 M16.8638 875.27 Q17.4757 875.27 17.991 875.399 L29.4563 877.202 Q30.3259 877.299 30.6479 877.492 Q30.97 877.653 30.97 878.168 Q30.97 878.974 30.1326 878.974 Q29.6496 878.974 28.8766 878.78 Q25.2374 878.233 23.5949 878.233 Q22.4999 878.233 21.6947 878.458 Q20.8574 878.651 20.2776 878.974 Q19.6979 879.263 19.3115 879.94 Q18.925 880.616 18.6996 881.26 Q18.4741 881.904 18.3775 883.064 Q18.2487 884.223 18.2165 885.221 Q18.1843 886.22 18.1843 887.862 Q18.1843 891.437 18.3131 892.017 Q18.4741 892.629 18.9572 892.951 Q19.4081 893.241 20.7607 893.563 L55.7685 902.323 L57.1534 902.58 Q57.9263 902.58 58.1839 902.097 Q58.4416 901.614 58.6026 900.133 Q58.7637 898.007 58.7637 895.914 Q58.7637 895.849 58.7637 895.721 Q58.7637 895.012 58.7959 894.722 Q58.7959 894.432 58.8603 894.142 Q58.9247 893.853 59.0857 893.788 Q59.2145 893.692 59.4722 893.692 Q60.0841 893.692 60.4062 893.949 Q60.696 894.207 60.7604 894.465 Q60.7926 894.69 60.7926 895.141 Q60.7926 896.043 60.7282 897.975 Q60.6638 899.907 60.6638 900.874 L60.5994 906.349 L60.6638 911.952 Q60.6638 912.822 60.7282 914.658 Q60.7926 916.493 60.7926 917.363 Q60.7926 918.49 59.9875 918.49 Q59.0857 918.49 58.9247 918.071 Q58.7637 917.621 58.7637 915.72 Q58.7637 913.047 58.6348 911.598 Q58.506 910.149 58.0551 909.376 Q57.6042 908.571 57.1534 908.345 Q56.6703 908.12 55.5753 907.862 L20.3743 899.006 Q19.6013 898.748 18.9894 898.748 Q18.6674 898.748 18.5385 898.845 Q18.4097 898.909 18.3131 899.328 Q18.1843 899.746 18.1843 900.616 L18.1843 903.192 Q18.1843 905.833 18.3131 907.476 Q18.4097 909.086 18.8928 910.632 Q19.3759 912.146 20.0522 913.047 Q20.7285 913.917 22.1134 914.883 Q23.4982 915.849 25.1729 916.558 Q26.8476 917.234 29.5851 918.2 Q30.4869 918.522 30.7446 918.716 Q30.97 918.877 30.97 919.327 Q30.97 919.65 30.7768 919.907 Q30.5513 920.133 30.2615 920.133 Q29.1987 919.811 29.0698 919.746 L17.4435 915.785 Q16.5096 915.463 16.3485 915.173 Q16.1553 914.851 16.1553 913.659 L16.1553 877.073 Q16.1553 876.494 16.1553 876.3 Q16.1553 876.107 16.2197 875.785 Q16.2841 875.463 16.4451 875.366 Q16.6062 875.27 16.8638 875.27 Z" fill="#000000" fill-rule="evenodd" fill-opacity="1" /><path clip-path="url(#clip040)" d="M 0 0 M7.94593 850.294 L8.87023 850.858 Q7.35978 854.352 4.94756 858.703 Q7.35978 863.054 8.87023 866.548 L7.94593 867.089 Q4.63194 863.279 2.08446 858.703 Q4.65449 854.081 7.94593 850.294 Z" fill="#000000" fill-rule="evenodd" fill-opacity="1" /><path clip-path="url(#clip040)" d="M 0 0 M16.5418 834.027 Q16.9604 834.027 17.2181 834.124 Q17.4757 834.189 17.6046 834.446 Q17.7012 834.672 17.7334 834.833 Q17.7656 834.961 17.7978 835.348 Q17.9266 836.926 18.3453 838.246 Q18.7318 839.567 19.5047 840.694 Q20.2776 841.789 20.7929 842.401 Q21.3082 842.981 22.3388 844.011 L23.2728 844.913 L42.0488 861.274 Q42.6929 861.853 44.11 862.208 L53.4175 864.526 Q57.2822 865.428 57.572 865.428 Q58.1517 865.428 58.345 865.106 Q58.506 864.752 58.6026 863.657 L58.7637 861.145 Q58.7637 859.663 59.0213 859.438 Q59.1823 859.309 59.4722 859.309 Q60.0841 859.309 60.4062 859.567 Q60.696 859.792 60.7604 860.018 Q60.7926 860.211 60.7926 860.565 L60.5994 869.003 L60.7926 877.312 Q60.7926 878.246 60.0519 878.246 Q59.5688 878.246 59.3112 878.182 Q59.0213 878.085 58.9247 877.795 Q58.7959 877.505 58.7959 877.28 Q58.7637 877.055 58.7637 876.443 Q58.7314 874.961 58.7314 874.22 Q58.6992 873.447 58.506 872.707 Q58.3128 871.966 58.1839 871.708 Q58.0229 871.418 57.4754 871.096 Q56.8957 870.742 56.4448 870.646 Q55.9939 870.517 54.8667 870.259 Q53.8684 870.001 48.4256 868.649 Q42.9828 867.296 42.854 867.296 Q42.4997 867.296 41.7268 867.554 L20.02 875.67 Q19.0538 876.024 18.6674 876.314 Q18.2809 876.604 18.0554 877.57 Q17.7978 878.536 17.7978 880.468 Q17.7978 881.016 17.7656 881.273 Q17.7334 881.531 17.5724 881.757 Q17.4113 881.982 17.0571 881.982 Q16.4451 881.982 16.1553 881.724 Q15.8332 881.467 15.801 881.273 Q15.7366 881.048 15.7366 880.726 Q15.7366 879.921 15.8332 877.055 Q15.9299 874.188 15.9299 873.351 L15.7366 865.042 Q15.7366 864.043 16.4774 864.043 Q17.3791 864.043 17.6046 864.398 Q17.7978 864.752 17.7978 865.621 Q17.7978 869.518 19.3759 869.518 Q19.5691 869.518 20.5031 869.132 L40.0843 861.886 L22.4676 846.588 L22.21 846.362 Q21.9524 846.169 21.7591 846.008 Q21.5659 845.847 21.2116 845.589 Q20.8574 845.332 20.5675 845.203 Q20.2776 845.042 19.9234 844.913 Q19.5691 844.784 19.3115 844.784 Q18.8284 844.784 18.5063 845.074 Q18.1521 845.364 18.0232 845.815 Q17.8944 846.266 17.8622 846.588 Q17.7978 846.91 17.7978 847.167 Q17.7978 848.166 16.9926 848.166 Q16.4129 848.166 16.1231 847.908 Q15.801 847.651 15.7688 847.457 Q15.7366 847.232 15.7366 846.91 Q15.7366 845.847 15.8332 843.625 Q15.9299 841.403 15.9299 840.308 Q15.9299 839.406 15.8332 837.57 Q15.7366 835.734 15.7366 834.897 Q15.7366 834.027 16.5418 834.027 Z" fill="#000000" fill-rule="evenodd" fill-opacity="1" /><path clip-path="url(#clip040)" d="M 0 0 M58.5788 822.834 Q59.21 822.834 59.3678 823.128 Q59.5031 823.421 59.5031 824.232 L59.5031 828.561 L73.1197 831.987 Q74.3145 832.258 75.329 832.258 Q76.4562 832.258 76.9522 831.92 Q77.4482 831.559 77.4482 830.815 Q77.4482 829.35 76.1181 827.772 Q74.788 826.171 71.5416 824.818 Q71.1133 824.638 71.0231 824.548 Q70.9104 824.435 70.9104 824.142 Q70.9104 823.578 71.3613 823.578 Q71.5191 823.578 72.2405 823.894 Q72.9619 824.187 74.0215 824.841 Q75.081 825.472 76.073 826.306 Q77.0649 827.118 77.7863 828.358 Q78.4852 829.598 78.4852 830.928 Q78.4852 832.799 77.2904 833.994 Q76.0955 835.166 74.2244 835.166 Q73.6157 835.166 71.6769 834.693 Q69.7155 834.219 59.5031 831.649 L59.5031 835.73 Q59.5031 836.293 59.4805 836.519 Q59.458 836.722 59.3453 836.879 Q59.21 837.015 58.9395 837.015 Q58.5111 837.015 58.3308 836.834 Q58.1279 836.654 58.1053 836.429 Q58.0602 836.181 58.0602 835.617 L58.0602 831.289 L50.7334 829.485 Q50.012 829.305 49.6062 828.854 Q49.1779 828.38 49.1328 828.11 Q49.0651 827.839 49.0651 827.636 Q49.0651 827.028 49.4033 826.667 Q49.7189 826.306 50.3051 826.306 Q50.6207 826.306 58.0602 828.2 L58.0602 824.142 Q58.0602 823.624 58.0828 823.421 Q58.1053 823.195 58.218 823.015 Q58.3308 822.834 58.5788 822.834 Z" fill="#000000" fill-rule="evenodd" fill-opacity="1" /><path clip-path="url(#clip040)" d="M 0 0 M42.8415 813.474 Q32.1994 813.474 23.618 809.506 Q20.0193 807.814 17.0051 805.446 Q13.9908 803.078 12.6682 801.509 Q11.3456 799.94 11.3456 799.51 Q11.3456 798.894 11.9608 798.864 Q12.2684 798.864 13.0373 799.694 Q23.3719 809.844 42.8415 809.813 Q62.3727 809.813 72.3074 799.94 Q73.384 798.864 73.7223 798.864 Q74.3374 798.864 74.3374 799.51 Q74.3374 799.94 73.0764 801.447 Q71.8153 802.954 68.9241 805.292 Q66.0329 807.63 62.4957 809.321 Q53.9143 813.474 42.8415 813.474 Z" fill="#000000" fill-rule="evenodd" fill-opacity="1" /><path clip-path="url(#clip040)" d="M 0 0 M24.5932 782.245 Q18.925 782.245 15.1247 779.347 Q11.3244 776.448 11.3244 772.551 Q11.3244 770.168 13.45 767.817 Q18.5385 762.471 18.5063 755.482 Q18.5063 747.559 12.2584 742.954 Q11.3244 742.149 11.3244 741.569 Q11.3244 741.054 11.7431 740.667 Q12.1296 740.249 12.6449 740.249 Q13.0313 740.249 13.8365 740.764 L63.4979 774.129 Q64.4963 774.87 64.4963 775.45 Q64.4963 775.965 64.0776 776.384 Q63.6911 776.77 63.1759 776.77 Q62.725 776.77 61.8554 776.19 L17.7334 746.561 L17.669 746.625 Q19.9878 750.039 19.9556 755.418 Q19.9556 760.506 17.1859 765.369 Q20.5997 763.984 24.6576 763.984 Q30.1971 763.984 34.0618 766.464 Q37.8943 768.944 37.8943 772.551 Q37.8943 776.448 34.1584 779.347 Q30.3903 782.245 24.5932 782.245 M19.2149 777.704 Q21.5337 778.155 24.6576 778.155 Q27.7494 778.155 30.0682 777.704 Q32.3548 777.253 33.5465 776.609 Q34.7381 775.933 35.4466 775.031 Q36.1229 774.129 36.284 773.582 Q36.445 773.034 36.445 772.487 Q36.445 769.781 33.0956 767.72 Q29.714 765.627 24.5932 765.627 Q19.5691 765.627 16.1875 767.72 Q12.7737 769.781 12.7737 772.487 Q12.7737 773.066 12.9347 773.646 Q13.0957 774.194 13.8043 775.063 Q14.4806 775.933 15.6722 776.609 Q16.8638 777.253 19.2149 777.704 M51.1631 753.034 Q45.4948 753.034 41.6945 750.136 Q37.8943 747.237 37.8943 743.34 Q37.8943 739.766 41.759 737.286 Q45.6237 734.774 51.2275 734.774 Q56.7669 734.774 60.6316 737.253 Q64.4963 739.701 64.4963 743.34 Q64.4963 747.237 60.7282 750.136 Q56.9601 753.034 51.1631 753.034 M45.7847 748.493 Q48.1357 748.944 51.2275 748.944 Q54.3192 748.944 56.6381 748.493 Q58.9569 748.01 60.1485 747.366 Q61.3079 746.69 61.9842 745.82 Q62.6928 744.918 62.8538 744.371 Q63.047 743.791 63.047 743.276 Q63.047 740.571 59.6976 738.51 Q56.316 736.416 51.1631 736.416 Q46.139 736.416 42.7573 738.51 Q39.3435 740.571 39.3435 743.276 Q39.3435 743.856 39.5368 744.435 Q39.6978 744.983 40.4063 745.852 Q41.0826 746.69 42.2743 747.366 Q43.4337 748.01 45.7847 748.493 Z" fill="#000000" fill-rule="evenodd" fill-opacity="1" /><path clip-path="url(#clip040)" d="M 0 0 M59.7298 726.924 Q58.667 727.858 57.2822 727.858 Q55.8973 727.858 54.8667 726.956 Q53.8039 726.022 53.8039 724.348 Q53.8039 722.383 55.7041 721.256 Q57.572 720.129 60.7282 720.129 Q64.142 720.129 67.2982 721.514 Q70.4866 722.898 72.0003 724.251 Q73.5139 725.604 73.5139 726.151 Q73.5139 726.795 72.8054 726.795 Q72.5478 726.795 72.0647 726.344 Q66.9761 721.61 60.7282 721.578 Q59.7298 721.578 59.7298 721.707 L59.8587 721.868 Q60.7926 722.995 60.7926 724.348 Q60.7926 725.99 59.7298 726.924 Z" fill="#000000" fill-rule="evenodd" fill-opacity="1" /><path clip-path="url(#clip040)" d="M 0 0 M43.4981 664.724 Q46.7509 664.724 50.0037 666.399 Q53.2564 668.073 55.7685 670.811 Q58.2484 673.548 59.8587 677.284 Q61.4689 681.02 61.5978 684.917 L71.4206 687.429 Q73.8038 687.912 74.0614 688.17 Q74.3191 688.427 74.3191 688.814 Q74.3191 689.619 73.5783 689.619 Q73.3529 689.619 67.7813 688.17 L61.5978 686.624 Q61.2757 692.485 57.8941 695.899 Q54.5125 699.313 49.6494 699.313 Q46.3644 699.313 43.1116 697.638 Q39.8266 695.931 37.3468 693.194 Q34.8669 690.424 33.2888 686.688 Q31.7107 682.952 31.5819 679.12 L16.3485 675.287 Q15.479 675.094 15.2535 674.933 Q15.0281 674.772 15.0281 674.289 Q15.0281 673.935 15.1891 673.742 Q15.3502 673.548 15.5112 673.548 L15.6722 673.516 L16.6062 673.709 L31.5819 677.413 Q31.8073 674.128 32.9668 671.584 Q34.1262 669.04 35.8653 667.59 Q37.5722 666.141 39.5045 665.432 Q41.4369 664.724 43.4981 664.724 M33.0312 679.506 Q33.3532 683.049 35.0923 686.044 Q36.8315 689.039 39.4079 690.972 Q41.9522 692.904 45.0117 693.967 Q48.0391 695.03 51.0342 695.03 Q53.3853 695.03 55.1888 694.257 Q56.9923 693.452 58.0229 692.131 Q59.0213 690.811 59.5688 689.361 Q60.0841 687.88 60.1485 686.302 L33.0312 679.506 M42.1132 669.04 Q37.9265 669.04 35.5754 671.455 Q33.2244 673.87 33.0312 677.8 L60.1485 684.595 Q59.9231 681.729 58.7314 679.217 Q57.5076 676.672 55.7041 674.837 Q53.8684 673.001 51.614 671.68 Q49.3273 670.36 46.9119 669.716 Q44.4642 669.04 42.1132 669.04 Z" fill="#000000" fill-rule="evenodd" fill-opacity="1" /><path clip-path="url(#clip040)" d="M 0 0 M50.7766 642.094 Q49.9715 642.03 49.9715 640.774 L49.9715 600.355 Q49.9715 598.455 50.7122 598.423 Q51.5173 598.423 51.4851 600.227 L51.4851 640.323 Q51.5173 642.094 50.7766 642.094 M37.8943 642.094 Q37.0891 642.094 37.1213 640.709 L37.1213 600.42 Q37.1213 598.455 37.8943 598.423 Q38.635 598.423 38.635 600.098 L38.635 640.774 Q38.635 642.094 37.8943 642.094 Z" fill="#000000" fill-rule="evenodd" fill-opacity="1" /><path clip-path="url(#clip040)" d="M 0 0 M23.144 572.977 L21.0828 572.977 Q21.0828 565.055 16.8638 560.965 Q16.8638 559.837 17.1215 559.644 Q17.3791 559.451 18.5707 559.451 L55.5753 559.451 Q57.5398 559.451 58.1517 558.485 Q58.7637 557.519 58.7637 553.3 L58.7637 551.206 L60.7926 551.206 Q60.5994 553.525 60.5994 561.899 Q60.5994 570.272 60.7926 572.559 L58.7637 572.559 L58.7637 570.465 Q58.7637 566.311 58.1839 565.312 Q57.572 564.314 55.5753 564.314 L21.4049 564.314 Q23.144 567.76 23.144 572.977 Z" fill="#000000" fill-rule="evenodd" fill-opacity="1" /><path clip-path="url(#clip040)" d="M 0 0 M59.7298 546.065 Q58.667 547.063 57.2822 547.063 Q55.8973 547.063 54.8989 546.065 Q53.8684 545.067 53.8684 543.553 Q53.8684 542.104 54.8345 541.137 Q55.7685 540.139 57.3144 540.139 Q58.8281 540.139 59.8264 541.202 Q60.7926 542.232 60.7926 543.553 Q60.7926 545.067 59.7298 546.065 Z" fill="#000000" fill-rule="evenodd" fill-opacity="1" /><path clip-path="url(#clip040)" d="M 0 0 M60.7926 528.913 Q59.601 528.913 59.2467 528.816 Q58.8925 528.688 58.345 528.172 L44.2388 515.515 Q36.445 508.591 29.6496 508.591 Q25.2374 508.591 22.0812 510.91 Q18.925 513.197 18.925 517.416 Q18.925 520.314 20.6963 522.762 Q22.4676 525.209 25.6238 526.337 Q25.5594 526.143 25.5594 525.467 Q25.5594 523.825 26.59 522.923 Q27.6206 521.989 29.0054 521.989 Q30.7768 521.989 31.6463 523.148 Q32.4837 524.275 32.4837 525.403 Q32.4837 525.854 32.3871 526.465 Q32.2904 527.045 31.3887 527.979 Q30.4547 528.913 28.8122 528.913 Q24.2068 528.913 20.5353 525.435 Q16.8638 521.924 16.8638 516.578 Q16.8638 510.524 20.4709 506.562 Q24.0457 502.569 29.6496 502.569 Q31.6141 502.569 33.4176 503.181 Q35.189 503.76 36.5738 504.565 Q37.9587 505.338 40.1809 507.464 Q42.4031 509.59 43.9812 511.296 Q45.5592 513.003 48.9087 516.836 L55.7041 523.825 L55.7041 511.941 Q55.7041 506.144 55.1888 505.693 Q54.2548 505.049 49.3273 504.243 L49.3273 502.569 L60.7926 504.437 L60.7926 528.913 Z" fill="#000000" fill-rule="evenodd" fill-opacity="1" /><path clip-path="url(#clip040)" d="M 0 0 M50.1647 496.249 Q48.2001 496.249 47.4594 495.186 Q46.6865 494.123 46.6865 492.996 Q46.6865 491.483 47.6526 490.613 Q48.5866 489.711 49.907 489.711 Q51.2275 489.711 52.1937 490.613 Q53.1276 491.483 53.1276 492.996 Q53.1276 493.737 52.9988 494.123 Q56.0262 493.254 58.2162 490.613 Q60.4062 487.94 60.4062 484.429 Q60.4062 480.017 56.1228 477.376 Q53.3531 475.798 47.0729 475.798 Q41.5335 475.798 38.7638 476.99 Q34.5448 478.826 34.5448 482.594 Q34.5448 487.94 39.1503 491.096 Q39.73 491.483 39.7622 491.933 Q39.7622 492.578 39.4079 492.739 Q39.0215 492.867 38.0231 492.867 L18.5063 492.867 Q16.9282 492.867 16.9282 492.223 Q16.9282 491.966 17.1215 491.418 Q18.9572 487.264 18.9894 482.658 Q18.9894 477.924 17.0571 473.673 Q16.8638 473.351 16.8638 473.157 Q16.8638 472.513 17.6046 472.481 Q17.8622 472.481 18.6351 473.029 Q19.3759 473.544 20.3743 474.671 Q21.3404 475.798 22.2744 477.248 Q23.2084 478.697 23.8525 480.822 Q24.4644 482.916 24.4644 485.235 Q24.4644 488.004 23.5949 490.838 L36.445 490.838 Q33.0956 487.425 33.0956 482.465 Q33.0956 477.183 37.3468 473.544 Q41.5979 469.905 47.5238 469.905 Q53.7395 469.905 57.9907 474.22 Q62.2419 478.504 62.2419 484.301 Q62.2419 489.582 58.4738 492.932 Q54.7057 496.249 50.1647 496.249 Z" fill="#000000" fill-rule="evenodd" fill-opacity="1" /><path clip-path="url(#clip040)" d="M 0 0 M73.7223 463.131 Q73.4147 463.131 72.6458 462.331 Q62.3112 452.181 42.8415 452.181 Q23.3104 452.181 13.4372 461.931 Q12.2991 463.131 11.9608 463.131 Q11.3456 463.131 11.3456 462.516 Q11.3456 462.085 12.6067 460.578 Q13.8678 459.04 16.759 456.733 Q19.6502 454.396 23.1874 452.673 Q31.7688 448.521 42.8415 448.521 Q53.4837 448.521 62.0651 452.489 Q65.6638 454.18 68.678 456.549 Q71.6923 458.917 73.0149 460.486 Q74.3374 462.054 74.3374 462.516 Q74.3374 463.131 73.7223 463.131 Z" fill="#000000" fill-rule="evenodd" fill-opacity="1" /><polyline clip-path="url(#clip043)" style="stroke:#0000ff; stroke-width:4; stroke-opacity:1; fill:none" stroke-dasharray="16, 10" points="
  295.186,1400.1 766.167,1262.8 1237.15,1162.81 1708.13,1065.06 
  "/>
<polyline clip-path="url(#clip043)" style="stroke:#5500aa; stroke-width:4; stroke-opacity:1; fill:none" points="
  295.186,86.6476 766.167,1109.21 1237.15,1012.21 1708.13,915.965 
  "/>
<polyline clip-path="url(#clip043)" style="stroke:#aa0055; stroke-width:4; stroke-opacity:1; fill:none" stroke-dasharray="16, 10" points="
  295.186,1313.83 766.167,1255.05 1237.15,1238.8 1708.13,1230.47 
  "/>
<polyline clip-path="url(#clip043)" style="stroke:#ff0000; stroke-width:4; stroke-opacity:1; fill:none" points="
  295.186,618.658 766.167,1223.63 1237.15,1208.68 1708.13,1200.52 
  "/>
<path clip-path="url(#clip040)" d="
M1820.51 358.253 L2352.76 358.253 L2352.76 93.6527 L1820.51 93.6527  Z
  " fill="#ffffff" fill-rule="evenodd" fill-opacity="1"/>
<polyline clip-path="url(#clip040)" style="stroke:#000000; stroke-width:4; stroke-opacity:1; fill:none" points="
  1820.51,358.253 2352.76,358.253 2352.76,93.6527 1820.51,93.6527 1820.51,358.253 
  "/>
<polyline clip-path="url(#clip040)" style="stroke:#0000ff; stroke-width:3.5; stroke-opacity:1; fill:none" stroke-dasharray="14, 9" points="
  1843.85,146.573 1983.84,146.573 
  "/>
<path clip-path="url(#clip040)" d="M 0 0 M2035.73 128.673 Q2035.73 129.062 2035.64 129.39 L2034.5 136.686 Q2034.44 137.239 2034.31 137.444 Q2034.21 137.649 2033.88 137.649 Q2033.37 137.649 2033.37 137.116 Q2033.37 136.809 2033.49 136.317 Q2033.84 134.001 2033.84 132.956 Q2033.84 132.259 2033.7 131.747 Q2033.57 131.214 2033.37 130.845 Q2033.19 130.476 2032.75 130.23 Q2032.32 129.984 2031.91 129.841 Q2031.5 129.697 2030.77 129.636 Q2030.03 129.554 2029.39 129.533 Q2028.76 129.513 2027.71 129.513 Q2025.44 129.513 2025.07 129.595 Q2024.68 129.697 2024.47 130.005 Q2024.29 130.292 2024.09 131.153 L2018.51 153.43 L2018.35 154.311 Q2018.35 154.803 2018.65 154.967 Q2018.96 155.131 2019.9 155.234 Q2021.26 155.336 2022.59 155.336 Q2022.63 155.336 2022.71 155.336 Q2023.16 155.336 2023.35 155.357 Q2023.53 155.357 2023.72 155.398 Q2023.9 155.439 2023.94 155.541 Q2024 155.623 2024 155.787 Q2024 156.176 2023.84 156.381 Q2023.68 156.566 2023.51 156.607 Q2023.37 156.627 2023.08 156.627 Q2022.51 156.627 2021.28 156.586 Q2020.05 156.545 2019.43 156.545 L2015.95 156.504 L2012.38 156.545 Q2011.83 156.545 2010.66 156.586 Q2009.49 156.627 2008.94 156.627 Q2008.22 156.627 2008.22 156.115 Q2008.22 155.541 2008.49 155.439 Q2008.78 155.336 2009.99 155.336 Q2011.69 155.336 2012.61 155.254 Q2013.53 155.172 2014.02 154.885 Q2014.53 154.598 2014.68 154.311 Q2014.82 154.004 2014.99 153.307 L2020.62 130.907 Q2020.79 130.415 2020.79 130.025 Q2020.79 129.82 2020.72 129.738 Q2020.68 129.656 2020.42 129.595 Q2020.15 129.513 2019.6 129.513 L2017.96 129.513 Q2016.28 129.513 2015.23 129.595 Q2014.21 129.656 2013.22 129.964 Q2012.26 130.271 2011.69 130.702 Q2011.13 131.132 2010.52 132.013 Q2009.9 132.895 2009.45 133.96 Q2009.02 135.026 2008.41 136.768 Q2008.2 137.342 2008.08 137.506 Q2007.98 137.649 2007.69 137.649 Q2007.48 137.649 2007.32 137.526 Q2007.18 137.383 2007.18 137.198 Q2007.38 136.522 2007.42 136.44 L2009.94 129.042 Q2010.15 128.447 2010.33 128.345 Q2010.54 128.222 2011.3 128.222 L2034.58 128.222 Q2034.95 128.222 2035.07 128.222 Q2035.19 128.222 2035.4 128.263 Q2035.6 128.304 2035.66 128.406 Q2035.73 128.509 2035.73 128.673 Z" fill="#000000" fill-rule="evenodd" fill-opacity="1" /><path clip-path="url(#clip040)" d="M 0 0 M2043.09 150.254 Q2043.14 149.741 2043.94 149.741 L2069.66 149.741 Q2070.87 149.741 2070.89 150.213 Q2070.89 150.725 2069.74 150.704 L2044.22 150.704 Q2043.09 150.725 2043.09 150.254 M2043.09 142.056 Q2043.09 141.543 2043.98 141.564 L2069.61 141.564 Q2070.87 141.564 2070.89 142.056 Q2070.89 142.527 2069.82 142.527 L2043.94 142.527 Q2043.09 142.527 2043.09 142.056 Z" fill="#000000" fill-rule="evenodd" fill-opacity="1" /><path clip-path="url(#clip040)" d="M 0 0 M2087.07 143.203 Q2087.07 137.035 2088.63 133.673 Q2090.8 128.673 2095.92 128.673 Q2097.01 128.673 2098.14 128.98 Q2099.28 129.267 2100.72 130.394 Q2102.17 131.521 2103.06 133.366 Q2104.74 136.932 2104.74 143.203 Q2104.74 149.331 2103.18 152.672 Q2100.9 157.55 2095.88 157.55 Q2094 157.55 2092.07 156.586 Q2090.16 155.623 2088.95 153.307 Q2087.07 149.844 2087.07 143.203 M2090.55 142.691 Q2090.55 149.024 2091 151.545 Q2091.52 154.27 2092.91 155.459 Q2094.32 156.627 2095.88 156.627 Q2097.56 156.627 2098.96 155.377 Q2100.37 154.107 2100.8 151.381 Q2101.27 148.696 2101.25 142.691 Q2101.25 136.85 2100.84 134.514 Q2100.29 131.788 2098.81 130.702 Q2097.36 129.595 2095.88 129.595 Q2095.33 129.595 2094.73 129.759 Q2094.16 129.923 2093.32 130.394 Q2092.48 130.866 2091.82 132.034 Q2091.19 133.202 2090.88 134.965 Q2090.55 137.239 2090.55 142.691 Z" fill="#000000" fill-rule="evenodd" fill-opacity="1" /><path clip-path="url(#clip040)" d="M 0 0 M2108.44 155.951 Q2107.85 155.275 2107.85 154.393 Q2107.85 153.512 2108.42 152.856 Q2109.02 152.18 2110.08 152.18 Q2111.33 152.18 2112.05 153.389 Q2112.77 154.578 2112.77 156.586 Q2112.77 158.759 2111.89 160.767 Q2111.01 162.796 2110.15 163.76 Q2109.29 164.723 2108.94 164.723 Q2108.53 164.723 2108.53 164.272 Q2108.53 164.108 2108.81 163.801 Q2111.83 160.562 2111.85 156.586 Q2111.85 155.951 2111.76 155.951 L2111.66 156.033 Q2110.95 156.627 2110.08 156.627 Q2109.04 156.627 2108.44 155.951 Z" fill="#000000" fill-rule="evenodd" fill-opacity="1" /><path clip-path="url(#clip040)" d="M 0 0 M2146.61 150.622 Q2146.1 153.143 2145.05 154.906 Q2143.76 157.099 2141.79 157.099 Q2140.13 157.099 2139.03 155.951 Q2137.92 154.783 2137.92 152.938 Q2137.92 152.385 2138.14 151.463 Q2138.23 151.053 2138.23 150.54 Q2138.23 147.22 2131.03 146.974 Q2130.44 149.331 2130.03 150.93 Q2129.64 152.508 2129.52 152.979 Q2129.39 153.451 2129.29 153.84 Q2129.21 154.23 2129.07 154.742 Q2128.86 155.582 2128.72 155.992 Q2128.57 156.402 2128.18 156.75 Q2127.82 157.099 2127.22 157.099 Q2126.71 157.099 2126.36 156.791 Q2126.01 156.484 2126.01 155.951 Q2126.01 155.582 2126.18 154.988 L2130.03 139.596 Q2130.13 139.166 2130.34 138.859 Q2130.54 138.551 2130.73 138.408 Q2130.93 138.264 2131.18 138.182 Q2131.42 138.1 2131.53 138.1 Q2131.63 138.08 2131.71 138.08 Q2132.26 138.08 2132.59 138.387 Q2132.94 138.674 2132.94 139.207 Q2132.94 139.289 2132.8 139.863 Q2132.67 140.416 2132.47 141.256 Q2132.26 142.097 2132.18 142.486 L2131.34 145.765 Q2132.51 145.376 2133.55 144.679 Q2134.62 143.982 2136.71 142.179 Q2137.67 141.379 2138.25 140.928 Q2138.84 140.457 2139.83 139.822 Q2140.81 139.166 2141.75 138.859 Q2142.69 138.531 2143.6 138.531 Q2144.29 138.531 2144.7 138.859 Q2145.11 139.166 2145.19 139.453 Q2145.28 139.719 2145.28 140.006 Q2145.28 140.847 2144.62 141.564 Q2143.97 142.281 2143 142.281 Q2142.14 142.281 2141.77 141.81 Q2141.4 141.338 2141.4 140.806 Q2141.4 140.396 2141.61 139.883 Q2140.46 140.375 2139.48 141.092 Q2138.49 141.789 2136.79 143.244 Q2134.37 145.314 2132.94 146.093 Q2133.76 146.114 2134.37 146.175 Q2135.01 146.216 2136.07 146.36 Q2137.14 146.503 2137.92 146.81 Q2138.7 147.097 2139.46 147.548 Q2140.24 147.999 2140.65 148.737 Q2141.08 149.475 2141.08 150.418 Q2141.08 150.868 2140.87 151.791 Q2140.52 153.307 2140.52 154.148 Q2140.52 155.213 2140.85 155.685 Q2141.2 156.156 2141.87 156.156 Q2143.17 156.156 2143.99 154.824 Q2144.83 153.471 2145.52 150.971 Q2145.63 150.499 2145.73 150.356 Q2145.83 150.213 2146.12 150.213 Q2146.61 150.213 2146.61 150.622 Z" fill="#000000" fill-rule="evenodd" fill-opacity="1" /><path clip-path="url(#clip040)" d="M 0 0 M2161.58 150.254 Q2161.63 149.741 2162.42 149.741 L2188.15 149.741 Q2189.35 149.741 2189.38 150.213 Q2189.38 150.725 2188.23 150.704 L2162.71 150.704 Q2161.58 150.725 2161.58 150.254 M2161.58 142.056 Q2161.58 141.543 2162.47 141.564 L2188.1 141.564 Q2189.35 141.564 2189.38 142.056 Q2189.38 142.527 2188.31 142.527 L2162.42 142.527 Q2161.58 142.527 2161.58 142.056 Z" fill="#000000" fill-rule="evenodd" fill-opacity="1" /><path clip-path="url(#clip040)" d="M 0 0 M2205.56 150.971 Q2205.56 149.721 2206.28 149.126 Q2206.99 148.532 2207.92 148.532 Q2208.88 148.532 2209.56 149.167 Q2210.25 149.782 2210.25 150.868 Q2210.25 152.037 2209.43 152.692 Q2208.63 153.348 2207.49 153.184 Q2208.49 154.865 2210.33 155.623 Q2212.2 156.381 2213.92 156.381 Q2215.72 156.381 2217.18 154.824 Q2218.65 153.266 2218.65 149.454 Q2218.65 146.216 2217.38 144.351 Q2216.13 142.486 2213.65 142.486 L2211.81 142.486 Q2211.17 142.486 2210.99 142.425 Q2210.81 142.363 2210.81 142.015 Q2210.81 141.605 2211.44 141.523 Q2212.08 141.523 2213.08 141.4 Q2215.52 141.318 2216.81 139.207 Q2217.98 137.239 2217.98 134.432 Q2217.98 131.87 2216.75 130.804 Q2215.54 129.718 2213.96 129.718 Q2212.49 129.718 2210.87 130.333 Q2209.25 130.948 2208.37 132.321 Q2210.97 132.321 2210.97 134.432 Q2210.97 135.354 2210.38 135.969 Q2209.8 136.563 2208.84 136.563 Q2207.92 136.563 2207.3 135.989 Q2206.69 135.395 2206.69 134.391 Q2206.69 131.993 2208.82 130.333 Q2210.97 128.673 2214.13 128.673 Q2217.24 128.673 2219.54 130.312 Q2221.85 131.952 2221.85 134.473 Q2221.85 136.953 2220.21 138.981 Q2218.57 141.01 2215.97 141.851 Q2219.17 142.486 2221.07 144.659 Q2222.98 146.81 2222.98 149.454 Q2222.98 152.733 2220.4 155.152 Q2217.81 157.55 2214.04 157.55 Q2210.56 157.55 2208.06 155.664 Q2205.56 153.779 2205.56 150.971 Z" fill="#000000" fill-rule="evenodd" fill-opacity="1" /><polyline clip-path="url(#clip040)" style="stroke:#5500aa; stroke-width:3.5; stroke-opacity:1; fill:none" points="
  1843.85,199.493 1983.84,199.493 
  "/>
<path clip-path="url(#clip040)" d="M 0 0 M2035.73 181.593 Q2035.73 181.982 2035.64 182.31 L2034.5 189.606 Q2034.44 190.159 2034.31 190.364 Q2034.21 190.569 2033.88 190.569 Q2033.37 190.569 2033.37 190.036 Q2033.37 189.729 2033.49 189.237 Q2033.84 186.921 2033.84 185.876 Q2033.84 185.179 2033.7 184.667 Q2033.57 184.134 2033.37 183.765 Q2033.19 183.396 2032.75 183.15 Q2032.32 182.904 2031.91 182.761 Q2031.5 182.617 2030.77 182.556 Q2030.03 182.474 2029.39 182.453 Q2028.76 182.433 2027.71 182.433 Q2025.44 182.433 2025.07 182.515 Q2024.68 182.617 2024.47 182.925 Q2024.29 183.212 2024.09 184.073 L2018.51 206.35 L2018.35 207.231 Q2018.35 207.723 2018.65 207.887 Q2018.96 208.051 2019.9 208.154 Q2021.26 208.256 2022.59 208.256 Q2022.63 208.256 2022.71 208.256 Q2023.16 208.256 2023.35 208.277 Q2023.53 208.277 2023.72 208.318 Q2023.9 208.359 2023.94 208.461 Q2024 208.543 2024 208.707 Q2024 209.096 2023.84 209.301 Q2023.68 209.486 2023.51 209.527 Q2023.37 209.547 2023.08 209.547 Q2022.51 209.547 2021.28 209.506 Q2020.05 209.465 2019.43 209.465 L2015.95 209.424 L2012.38 209.465 Q2011.83 209.465 2010.66 209.506 Q2009.49 209.547 2008.94 209.547 Q2008.22 209.547 2008.22 209.035 Q2008.22 208.461 2008.49 208.359 Q2008.78 208.256 2009.99 208.256 Q2011.69 208.256 2012.61 208.174 Q2013.53 208.092 2014.02 207.805 Q2014.53 207.518 2014.68 207.231 Q2014.82 206.924 2014.99 206.227 L2020.62 183.827 Q2020.79 183.335 2020.79 182.945 Q2020.79 182.74 2020.72 182.658 Q2020.68 182.576 2020.42 182.515 Q2020.15 182.433 2019.6 182.433 L2017.96 182.433 Q2016.28 182.433 2015.23 182.515 Q2014.21 182.576 2013.22 182.884 Q2012.26 183.191 2011.69 183.622 Q2011.13 184.052 2010.52 184.933 Q2009.9 185.815 2009.45 186.88 Q2009.02 187.946 2008.41 189.688 Q2008.2 190.262 2008.08 190.426 Q2007.98 190.569 2007.69 190.569 Q2007.48 190.569 2007.32 190.446 Q2007.18 190.303 2007.18 190.118 Q2007.38 189.442 2007.42 189.36 L2009.94 181.962 Q2010.15 181.367 2010.33 181.265 Q2010.54 181.142 2011.3 181.142 L2034.58 181.142 Q2034.95 181.142 2035.07 181.142 Q2035.19 181.142 2035.4 181.183 Q2035.6 181.224 2035.66 181.326 Q2035.73 181.429 2035.73 181.593 Z" fill="#000000" fill-rule="evenodd" fill-opacity="1" /><path clip-path="url(#clip040)" d="M 0 0 M2043.09 203.174 Q2043.14 202.661 2043.94 202.661 L2069.66 202.661 Q2070.87 202.661 2070.89 203.133 Q2070.89 203.645 2069.74 203.624 L2044.22 203.624 Q2043.09 203.645 2043.09 203.174 M2043.09 194.976 Q2043.09 194.463 2043.98 194.484 L2069.61 194.484 Q2070.87 194.484 2070.89 194.976 Q2070.89 195.447 2069.82 195.447 L2043.94 195.447 Q2043.09 195.447 2043.09 194.976 Z" fill="#000000" fill-rule="evenodd" fill-opacity="1" /><path clip-path="url(#clip040)" d="M 0 0 M2087.07 209.547 Q2087.07 208.789 2087.13 208.564 Q2087.21 208.338 2087.54 207.99 L2095.6 199.013 Q2100 194.053 2100 189.729 Q2100 186.921 2098.53 184.913 Q2097.07 182.904 2094.39 182.904 Q2092.54 182.904 2090.98 184.032 Q2089.43 185.159 2088.71 187.167 Q2088.83 187.126 2089.26 187.126 Q2090.31 187.126 2090.88 187.782 Q2091.48 188.438 2091.48 189.319 Q2091.48 190.446 2090.74 191 Q2090.02 191.533 2089.3 191.533 Q2089.02 191.533 2088.63 191.471 Q2088.26 191.41 2087.66 190.836 Q2087.07 190.241 2087.07 189.196 Q2087.07 186.265 2089.28 183.929 Q2091.52 181.593 2094.92 181.593 Q2098.77 181.593 2101.29 183.888 Q2103.83 186.163 2103.83 189.729 Q2103.83 190.979 2103.44 192.127 Q2103.08 193.254 2102.56 194.135 Q2102.07 195.017 2100.72 196.431 Q2099.37 197.845 2098.28 198.849 Q2097.19 199.853 2094.75 201.985 L2090.31 206.309 L2097.87 206.309 Q2101.56 206.309 2101.85 205.981 Q2102.26 205.387 2102.77 202.251 L2103.83 202.251 L2102.65 209.547 L2087.07 209.547 Z" fill="#000000" fill-rule="evenodd" fill-opacity="1" /><path clip-path="url(#clip040)" d="M 0 0 M2107.85 196.123 Q2107.85 189.955 2109.41 186.593 Q2111.58 181.593 2116.7 181.593 Q2117.79 181.593 2118.92 181.9 Q2120.07 182.187 2121.5 183.314 Q2122.96 184.441 2123.84 186.286 Q2125.52 189.852 2125.52 196.123 Q2125.52 202.251 2123.96 205.592 Q2121.68 210.47 2116.66 210.47 Q2114.78 210.47 2112.85 209.506 Q2110.95 208.543 2109.74 206.227 Q2107.85 202.764 2107.85 196.123 M2111.33 195.611 Q2111.33 201.944 2111.79 204.465 Q2112.3 207.19 2113.69 208.379 Q2115.11 209.547 2116.66 209.547 Q2118.34 209.547 2119.74 208.297 Q2121.15 207.027 2121.58 204.301 Q2122.05 201.616 2122.03 195.611 Q2122.03 189.77 2121.62 187.434 Q2121.07 184.708 2119.59 183.622 Q2118.14 182.515 2116.66 182.515 Q2116.11 182.515 2115.52 182.679 Q2114.94 182.843 2114.1 183.314 Q2113.26 183.786 2112.61 184.954 Q2111.97 186.122 2111.66 187.885 Q2111.33 190.159 2111.33 195.611 Z" fill="#000000" fill-rule="evenodd" fill-opacity="1" /><path clip-path="url(#clip040)" d="M 0 0 M2128.63 196.123 Q2128.63 189.955 2130.19 186.593 Q2132.36 181.593 2137.49 181.593 Q2138.57 181.593 2139.7 181.9 Q2140.85 182.187 2142.28 183.314 Q2143.74 184.441 2144.62 186.286 Q2146.3 189.852 2146.3 196.123 Q2146.3 202.251 2144.74 205.592 Q2142.47 210.47 2137.44 210.47 Q2135.56 210.47 2133.63 209.506 Q2131.73 208.543 2130.52 206.227 Q2128.63 202.764 2128.63 196.123 M2132.12 195.611 Q2132.12 201.944 2132.57 204.465 Q2133.08 207.19 2134.47 208.379 Q2135.89 209.547 2137.44 209.547 Q2139.13 209.547 2140.52 208.297 Q2141.93 207.027 2142.36 204.301 Q2142.83 201.616 2142.81 195.611 Q2142.81 189.77 2142.4 187.434 Q2141.85 184.708 2140.38 183.622 Q2138.92 182.515 2137.44 182.515 Q2136.89 182.515 2136.3 182.679 Q2135.72 182.843 2134.88 183.314 Q2134.04 183.786 2133.39 184.954 Q2132.75 186.122 2132.44 187.885 Q2132.12 190.159 2132.12 195.611 Z" fill="#000000" fill-rule="evenodd" fill-opacity="1" /><path clip-path="url(#clip040)" d="M 0 0 M2150.01 208.871 Q2149.41 208.195 2149.41 207.313 Q2149.41 206.432 2149.99 205.776 Q2150.58 205.1 2151.65 205.1 Q2152.9 205.1 2153.61 206.309 Q2154.33 207.498 2154.33 209.506 Q2154.33 211.679 2153.45 213.687 Q2152.57 215.716 2151.71 216.68 Q2150.85 217.643 2150.5 217.643 Q2150.09 217.643 2150.09 217.192 Q2150.09 217.028 2150.38 216.721 Q2153.39 213.482 2153.41 209.506 Q2153.41 208.871 2153.33 208.871 L2153.23 208.953 Q2152.51 209.547 2151.65 209.547 Q2150.6 209.547 2150.01 208.871 Z" fill="#000000" fill-rule="evenodd" fill-opacity="1" /><path clip-path="url(#clip040)" d="M 0 0 M2188.17 203.542 Q2187.66 206.063 2186.61 207.826 Q2185.32 210.019 2183.36 210.019 Q2181.7 210.019 2180.59 208.871 Q2179.48 207.703 2179.48 205.858 Q2179.48 205.305 2179.71 204.383 Q2179.79 203.973 2179.79 203.46 Q2179.79 200.14 2172.6 199.894 Q2172 202.251 2171.59 203.85 Q2171.2 205.428 2171.08 205.899 Q2170.96 206.371 2170.85 206.76 Q2170.77 207.15 2170.63 207.662 Q2170.42 208.502 2170.28 208.912 Q2170.14 209.322 2169.75 209.67 Q2169.38 210.019 2168.78 210.019 Q2168.27 210.019 2167.92 209.711 Q2167.57 209.404 2167.57 208.871 Q2167.57 208.502 2167.74 207.908 L2171.59 192.516 Q2171.69 192.086 2171.9 191.779 Q2172.1 191.471 2172.29 191.328 Q2172.49 191.184 2172.74 191.102 Q2172.99 191.02 2173.09 191.02 Q2173.19 191 2173.27 191 Q2173.83 191 2174.15 191.307 Q2174.5 191.594 2174.5 192.127 Q2174.5 192.209 2174.36 192.783 Q2174.24 193.336 2174.03 194.176 Q2173.83 195.017 2173.74 195.406 L2172.9 198.685 Q2174.07 198.296 2175.12 197.599 Q2176.18 196.902 2178.27 195.099 Q2179.24 194.299 2179.81 193.848 Q2180.4 193.377 2181.39 192.742 Q2182.37 192.086 2183.31 191.779 Q2184.26 191.451 2185.16 191.451 Q2185.86 191.451 2186.27 191.779 Q2186.68 192.086 2186.76 192.373 Q2186.84 192.639 2186.84 192.926 Q2186.84 193.767 2186.18 194.484 Q2185.53 195.201 2184.56 195.201 Q2183.7 195.201 2183.33 194.73 Q2182.97 194.258 2182.97 193.726 Q2182.97 193.316 2183.17 192.803 Q2182.02 193.295 2181.04 194.012 Q2180.06 194.709 2178.35 196.164 Q2175.94 198.234 2174.5 199.013 Q2175.32 199.034 2175.94 199.095 Q2176.57 199.136 2177.64 199.28 Q2178.7 199.423 2179.48 199.73 Q2180.26 200.017 2181.02 200.468 Q2181.8 200.919 2182.21 201.657 Q2182.64 202.395 2182.64 203.338 Q2182.64 203.788 2182.43 204.711 Q2182.08 206.227 2182.08 207.068 Q2182.08 208.133 2182.41 208.605 Q2182.76 209.076 2183.44 209.076 Q2184.73 209.076 2185.55 207.744 Q2186.39 206.391 2187.09 203.891 Q2187.19 203.419 2187.29 203.276 Q2187.39 203.133 2187.68 203.133 Q2188.17 203.133 2188.17 203.542 Z" fill="#000000" fill-rule="evenodd" fill-opacity="1" /><path clip-path="url(#clip040)" d="M 0 0 M2203.15 203.174 Q2203.19 202.661 2203.99 202.661 L2229.71 202.661 Q2230.92 202.661 2230.94 203.133 Q2230.94 203.645 2229.79 203.624 L2204.27 203.624 Q2203.15 203.645 2203.15 203.174 M2203.15 194.976 Q2203.15 194.463 2204.03 194.484 L2229.67 194.484 Q2230.92 194.484 2230.94 194.976 Q2230.94 195.447 2229.87 195.447 L2203.99 195.447 Q2203.15 195.447 2203.15 194.976 Z" fill="#000000" fill-rule="evenodd" fill-opacity="1" /><path clip-path="url(#clip040)" d="M 0 0 M2247.12 203.891 Q2247.12 202.641 2247.84 202.046 Q2248.56 201.452 2249.48 201.452 Q2250.44 201.452 2251.12 202.087 Q2251.81 202.702 2251.81 203.788 Q2251.81 204.957 2250.99 205.612 Q2250.2 206.268 2249.05 206.104 Q2250.05 207.785 2251.9 208.543 Q2253.76 209.301 2255.48 209.301 Q2257.29 209.301 2258.74 207.744 Q2260.22 206.186 2260.22 202.374 Q2260.22 199.136 2258.95 197.271 Q2257.7 195.406 2255.22 195.406 L2253.37 195.406 Q2252.74 195.406 2252.55 195.345 Q2252.37 195.283 2252.37 194.935 Q2252.37 194.525 2253 194.443 Q2253.64 194.443 2254.64 194.32 Q2257.08 194.238 2258.37 192.127 Q2259.54 190.159 2259.54 187.352 Q2259.54 184.79 2258.31 183.724 Q2257.1 182.638 2255.52 182.638 Q2254.05 182.638 2252.43 183.253 Q2250.81 183.868 2249.93 185.241 Q2252.53 185.241 2252.53 187.352 Q2252.53 188.274 2251.94 188.889 Q2251.36 189.483 2250.4 189.483 Q2249.48 189.483 2248.86 188.909 Q2248.25 188.315 2248.25 187.311 Q2248.25 184.913 2250.38 183.253 Q2252.53 181.593 2255.69 181.593 Q2258.8 181.593 2261.1 183.232 Q2263.41 184.872 2263.41 187.393 Q2263.41 189.873 2261.78 191.901 Q2260.14 193.93 2257.53 194.771 Q2260.73 195.406 2262.64 197.579 Q2264.54 199.73 2264.54 202.374 Q2264.54 205.653 2261.96 208.072 Q2259.38 210.47 2255.61 210.47 Q2252.12 210.47 2249.62 208.584 Q2247.12 206.699 2247.12 203.891 Z" fill="#000000" fill-rule="evenodd" fill-opacity="1" /><polyline clip-path="url(#clip040)" style="stroke:#aa0055; stroke-width:3.5; stroke-opacity:1; fill:none" stroke-dasharray="14, 9" points="
  1843.85,252.413 1983.84,252.413 
  "/>
<path clip-path="url(#clip040)" d="M 0 0 M2035.73 234.513 Q2035.73 234.902 2035.64 235.23 L2034.5 242.526 Q2034.44 243.079 2034.31 243.284 Q2034.21 243.489 2033.88 243.489 Q2033.37 243.489 2033.37 242.956 Q2033.37 242.649 2033.49 242.157 Q2033.84 239.841 2033.84 238.796 Q2033.84 238.099 2033.7 237.587 Q2033.57 237.054 2033.37 236.685 Q2033.19 236.316 2032.75 236.07 Q2032.32 235.824 2031.91 235.681 Q2031.5 235.537 2030.77 235.476 Q2030.03 235.394 2029.39 235.373 Q2028.76 235.353 2027.71 235.353 Q2025.44 235.353 2025.07 235.435 Q2024.68 235.537 2024.47 235.845 Q2024.29 236.132 2024.09 236.993 L2018.51 259.27 L2018.35 260.151 Q2018.35 260.643 2018.65 260.807 Q2018.96 260.971 2019.9 261.074 Q2021.26 261.176 2022.59 261.176 Q2022.63 261.176 2022.71 261.176 Q2023.16 261.176 2023.35 261.197 Q2023.53 261.197 2023.72 261.238 Q2023.9 261.279 2023.94 261.381 Q2024 261.463 2024 261.627 Q2024 262.016 2023.84 262.221 Q2023.68 262.406 2023.51 262.447 Q2023.37 262.467 2023.08 262.467 Q2022.51 262.467 2021.28 262.426 Q2020.05 262.385 2019.43 262.385 L2015.95 262.344 L2012.38 262.385 Q2011.83 262.385 2010.66 262.426 Q2009.49 262.467 2008.94 262.467 Q2008.22 262.467 2008.22 261.955 Q2008.22 261.381 2008.49 261.279 Q2008.78 261.176 2009.99 261.176 Q2011.69 261.176 2012.61 261.094 Q2013.53 261.012 2014.02 260.725 Q2014.53 260.438 2014.68 260.151 Q2014.82 259.844 2014.99 259.147 L2020.62 236.747 Q2020.79 236.255 2020.79 235.865 Q2020.79 235.66 2020.72 235.578 Q2020.68 235.496 2020.42 235.435 Q2020.15 235.353 2019.6 235.353 L2017.96 235.353 Q2016.28 235.353 2015.23 235.435 Q2014.21 235.496 2013.22 235.804 Q2012.26 236.111 2011.69 236.542 Q2011.13 236.972 2010.52 237.853 Q2009.9 238.735 2009.45 239.8 Q2009.02 240.866 2008.41 242.608 Q2008.2 243.182 2008.08 243.346 Q2007.98 243.489 2007.69 243.489 Q2007.48 243.489 2007.32 243.366 Q2007.18 243.223 2007.18 243.038 Q2007.38 242.362 2007.42 242.28 L2009.94 234.882 Q2010.15 234.287 2010.33 234.185 Q2010.54 234.062 2011.3 234.062 L2034.58 234.062 Q2034.95 234.062 2035.07 234.062 Q2035.19 234.062 2035.4 234.103 Q2035.6 234.144 2035.66 234.246 Q2035.73 234.349 2035.73 234.513 Z" fill="#000000" fill-rule="evenodd" fill-opacity="1" /><path clip-path="url(#clip040)" d="M 0 0 M2043.09 256.094 Q2043.14 255.581 2043.94 255.581 L2069.66 255.581 Q2070.87 255.581 2070.89 256.053 Q2070.89 256.565 2069.74 256.544 L2044.22 256.544 Q2043.09 256.565 2043.09 256.094 M2043.09 247.896 Q2043.09 247.383 2043.98 247.404 L2069.61 247.404 Q2070.87 247.404 2070.89 247.896 Q2070.89 248.367 2069.82 248.367 L2043.94 248.367 Q2043.09 248.367 2043.09 247.896 Z" fill="#000000" fill-rule="evenodd" fill-opacity="1" /><path clip-path="url(#clip040)" d="M 0 0 M2087.07 249.043 Q2087.07 242.875 2088.63 239.513 Q2090.8 234.513 2095.92 234.513 Q2097.01 234.513 2098.14 234.82 Q2099.28 235.107 2100.72 236.234 Q2102.17 237.361 2103.06 239.206 Q2104.74 242.772 2104.74 249.043 Q2104.74 255.171 2103.18 258.512 Q2100.9 263.39 2095.88 263.39 Q2094 263.39 2092.07 262.426 Q2090.16 261.463 2088.95 259.147 Q2087.07 255.684 2087.07 249.043 M2090.55 248.531 Q2090.55 254.864 2091 257.385 Q2091.52 260.11 2092.91 261.299 Q2094.32 262.467 2095.88 262.467 Q2097.56 262.467 2098.96 261.217 Q2100.37 259.947 2100.8 257.221 Q2101.27 254.536 2101.25 248.531 Q2101.25 242.69 2100.84 240.354 Q2100.29 237.628 2098.81 236.542 Q2097.36 235.435 2095.88 235.435 Q2095.33 235.435 2094.73 235.599 Q2094.16 235.763 2093.32 236.234 Q2092.48 236.706 2091.82 237.874 Q2091.19 239.042 2090.88 240.805 Q2090.55 243.079 2090.55 248.531 Z" fill="#000000" fill-rule="evenodd" fill-opacity="1" /><path clip-path="url(#clip040)" d="M 0 0 M2108.44 261.791 Q2107.85 261.115 2107.85 260.233 Q2107.85 259.352 2108.42 258.696 Q2109.02 258.02 2110.08 258.02 Q2111.33 258.02 2112.05 259.229 Q2112.77 260.418 2112.77 262.426 Q2112.77 264.599 2111.89 266.607 Q2111.01 268.636 2110.15 269.6 Q2109.29 270.563 2108.94 270.563 Q2108.53 270.563 2108.53 270.112 Q2108.53 269.948 2108.81 269.641 Q2111.83 266.402 2111.85 262.426 Q2111.85 261.791 2111.76 261.791 L2111.66 261.873 Q2110.95 262.467 2110.08 262.467 Q2109.04 262.467 2108.44 261.791 Z" fill="#000000" fill-rule="evenodd" fill-opacity="1" /><path clip-path="url(#clip040)" d="M 0 0 M2146.61 256.462 Q2146.1 258.983 2145.05 260.746 Q2143.76 262.939 2141.79 262.939 Q2140.13 262.939 2139.03 261.791 Q2137.92 260.623 2137.92 258.778 Q2137.92 258.225 2138.14 257.303 Q2138.23 256.893 2138.23 256.38 Q2138.23 253.06 2131.03 252.814 Q2130.44 255.171 2130.03 256.77 Q2129.64 258.348 2129.52 258.819 Q2129.39 259.291 2129.29 259.68 Q2129.21 260.07 2129.07 260.582 Q2128.86 261.422 2128.72 261.832 Q2128.57 262.242 2128.18 262.59 Q2127.82 262.939 2127.22 262.939 Q2126.71 262.939 2126.36 262.631 Q2126.01 262.324 2126.01 261.791 Q2126.01 261.422 2126.18 260.828 L2130.03 245.436 Q2130.13 245.006 2130.34 244.699 Q2130.54 244.391 2130.73 244.248 Q2130.93 244.104 2131.18 244.022 Q2131.42 243.94 2131.53 243.94 Q2131.63 243.92 2131.71 243.92 Q2132.26 243.92 2132.59 244.227 Q2132.94 244.514 2132.94 245.047 Q2132.94 245.129 2132.8 245.703 Q2132.67 246.256 2132.47 247.096 Q2132.26 247.937 2132.18 248.326 L2131.34 251.605 Q2132.51 251.216 2133.55 250.519 Q2134.62 249.822 2136.71 248.019 Q2137.67 247.219 2138.25 246.768 Q2138.84 246.297 2139.83 245.662 Q2140.81 245.006 2141.75 244.699 Q2142.69 244.371 2143.6 244.371 Q2144.29 244.371 2144.7 244.699 Q2145.11 245.006 2145.19 245.293 Q2145.28 245.559 2145.28 245.846 Q2145.28 246.687 2144.62 247.404 Q2143.97 248.121 2143 248.121 Q2142.14 248.121 2141.77 247.65 Q2141.4 247.178 2141.4 246.646 Q2141.4 246.236 2141.61 245.723 Q2140.46 246.215 2139.48 246.932 Q2138.49 247.629 2136.79 249.084 Q2134.37 251.154 2132.94 251.933 Q2133.76 251.954 2134.37 252.015 Q2135.01 252.056 2136.07 252.2 Q2137.14 252.343 2137.92 252.65 Q2138.7 252.937 2139.46 253.388 Q2140.24 253.839 2140.65 254.577 Q2141.08 255.315 2141.08 256.258 Q2141.08 256.708 2140.87 257.631 Q2140.52 259.147 2140.52 259.988 Q2140.52 261.053 2140.85 261.525 Q2141.2 261.996 2141.87 261.996 Q2143.17 261.996 2143.99 260.664 Q2144.83 259.311 2145.52 256.811 Q2145.63 256.339 2145.73 256.196 Q2145.83 256.053 2146.12 256.053 Q2146.61 256.053 2146.61 256.462 Z" fill="#000000" fill-rule="evenodd" fill-opacity="1" /><path clip-path="url(#clip040)" d="M 0 0 M2161.58 256.094 Q2161.63 255.581 2162.42 255.581 L2188.15 255.581 Q2189.35 255.581 2189.38 256.053 Q2189.38 256.565 2188.23 256.544 L2162.71 256.544 Q2161.58 256.565 2161.58 256.094 M2161.58 247.896 Q2161.58 247.383 2162.47 247.404 L2188.1 247.404 Q2189.35 247.404 2189.38 247.896 Q2189.38 248.367 2188.31 248.367 L2162.42 248.367 Q2161.58 248.367 2161.58 247.896 Z" fill="#000000" fill-rule="evenodd" fill-opacity="1" /><path clip-path="url(#clip040)" d="M 0 0 M2205.56 238.509 L2205.56 237.197 Q2210.6 237.197 2213.2 234.513 Q2213.92 234.513 2214.04 234.677 Q2214.17 234.841 2214.17 235.599 L2214.17 259.147 Q2214.17 260.397 2214.78 260.787 Q2215.4 261.176 2218.08 261.176 L2219.41 261.176 L2219.41 262.467 Q2217.94 262.344 2212.61 262.344 Q2207.28 262.344 2205.83 262.467 L2205.83 261.176 L2207.16 261.176 Q2209.8 261.176 2210.44 260.807 Q2211.07 260.418 2211.07 259.147 L2211.07 237.402 Q2208.88 238.509 2205.56 238.509 Z" fill="#000000" fill-rule="evenodd" fill-opacity="1" /><path clip-path="url(#clip040)" d="M 0 0 M2222.97 249.043 Q2222.97 242.875 2224.52 239.513 Q2226.7 234.513 2231.82 234.513 Q2232.91 234.513 2234.03 234.82 Q2235.18 235.107 2236.61 236.234 Q2238.07 237.361 2238.95 239.206 Q2240.63 242.772 2240.63 249.043 Q2240.63 255.171 2239.07 258.512 Q2236.8 263.39 2231.78 263.39 Q2229.89 263.39 2227.97 262.426 Q2226.06 261.463 2224.85 259.147 Q2222.97 255.684 2222.97 249.043 M2226.45 248.531 Q2226.45 254.864 2226.9 257.385 Q2227.41 260.11 2228.81 261.299 Q2230.22 262.467 2231.78 262.467 Q2233.46 262.467 2234.85 261.217 Q2236.27 259.947 2236.7 257.221 Q2237.17 254.536 2237.15 248.531 Q2237.15 242.69 2236.74 240.354 Q2236.18 237.628 2234.71 236.542 Q2233.25 235.435 2231.78 235.435 Q2231.22 235.435 2230.63 235.599 Q2230.06 235.763 2229.22 236.234 Q2228.38 236.706 2227.72 237.874 Q2227.08 239.042 2226.78 240.805 Q2226.45 243.079 2226.45 248.531 Z" fill="#000000" fill-rule="evenodd" fill-opacity="1" /><path clip-path="url(#clip040)" d="M 0 0 M2243.75 249.043 Q2243.75 242.875 2245.3 239.513 Q2247.48 234.513 2252.6 234.513 Q2253.69 234.513 2254.81 234.82 Q2255.96 235.107 2257.4 236.234 Q2258.85 237.361 2259.73 239.206 Q2261.41 242.772 2261.41 249.043 Q2261.41 255.171 2259.86 258.512 Q2257.58 263.39 2252.56 263.39 Q2250.67 263.39 2248.75 262.426 Q2246.84 261.463 2245.63 259.147 Q2243.75 255.684 2243.75 249.043 M2247.23 248.531 Q2247.23 254.864 2247.68 257.385 Q2248.19 260.11 2249.59 261.299 Q2251 262.467 2252.56 262.467 Q2254.24 262.467 2255.63 261.217 Q2257.05 259.947 2257.48 257.221 Q2257.95 254.536 2257.93 248.531 Q2257.93 242.69 2257.52 240.354 Q2256.97 237.628 2255.49 236.542 Q2254.03 235.435 2252.56 235.435 Q2252.01 235.435 2251.41 235.599 Q2250.84 235.763 2250 236.234 Q2249.16 236.706 2248.5 237.874 Q2247.87 239.042 2247.56 240.805 Q2247.23 243.079 2247.23 248.531 Z" fill="#000000" fill-rule="evenodd" fill-opacity="1" /><polyline clip-path="url(#clip040)" style="stroke:#ff0000; stroke-width:3.5; stroke-opacity:1; fill:none" points="
  1843.85,305.333 1983.84,305.333 
  "/>
<path clip-path="url(#clip040)" d="M 0 0 M2035.73 287.433 Q2035.73 287.822 2035.64 288.15 L2034.5 295.446 Q2034.44 295.999 2034.31 296.204 Q2034.21 296.409 2033.88 296.409 Q2033.37 296.409 2033.37 295.876 Q2033.37 295.569 2033.49 295.077 Q2033.84 292.761 2033.84 291.716 Q2033.84 291.019 2033.7 290.507 Q2033.57 289.974 2033.37 289.605 Q2033.19 289.236 2032.75 288.99 Q2032.32 288.744 2031.91 288.601 Q2031.5 288.457 2030.77 288.396 Q2030.03 288.314 2029.39 288.293 Q2028.76 288.273 2027.71 288.273 Q2025.44 288.273 2025.07 288.355 Q2024.68 288.457 2024.47 288.765 Q2024.29 289.052 2024.09 289.913 L2018.51 312.19 L2018.35 313.071 Q2018.35 313.563 2018.65 313.727 Q2018.96 313.891 2019.9 313.994 Q2021.26 314.096 2022.59 314.096 Q2022.63 314.096 2022.71 314.096 Q2023.16 314.096 2023.35 314.117 Q2023.53 314.117 2023.72 314.158 Q2023.9 314.199 2023.94 314.301 Q2024 314.383 2024 314.547 Q2024 314.936 2023.84 315.141 Q2023.68 315.326 2023.51 315.367 Q2023.37 315.387 2023.08 315.387 Q2022.51 315.387 2021.28 315.346 Q2020.05 315.305 2019.43 315.305 L2015.95 315.264 L2012.38 315.305 Q2011.83 315.305 2010.66 315.346 Q2009.49 315.387 2008.94 315.387 Q2008.22 315.387 2008.22 314.875 Q2008.22 314.301 2008.49 314.199 Q2008.78 314.096 2009.99 314.096 Q2011.69 314.096 2012.61 314.014 Q2013.53 313.932 2014.02 313.645 Q2014.53 313.358 2014.68 313.071 Q2014.82 312.764 2014.99 312.067 L2020.62 289.667 Q2020.79 289.175 2020.79 288.785 Q2020.79 288.58 2020.72 288.498 Q2020.68 288.416 2020.42 288.355 Q2020.15 288.273 2019.6 288.273 L2017.96 288.273 Q2016.28 288.273 2015.23 288.355 Q2014.21 288.416 2013.22 288.724 Q2012.26 289.031 2011.69 289.462 Q2011.13 289.892 2010.52 290.773 Q2009.9 291.655 2009.45 292.72 Q2009.02 293.786 2008.41 295.528 Q2008.2 296.102 2008.08 296.266 Q2007.98 296.409 2007.69 296.409 Q2007.48 296.409 2007.32 296.286 Q2007.18 296.143 2007.18 295.958 Q2007.38 295.282 2007.42 295.2 L2009.94 287.802 Q2010.15 287.207 2010.33 287.105 Q2010.54 286.982 2011.3 286.982 L2034.58 286.982 Q2034.95 286.982 2035.07 286.982 Q2035.19 286.982 2035.4 287.023 Q2035.6 287.064 2035.66 287.166 Q2035.73 287.269 2035.73 287.433 Z" fill="#000000" fill-rule="evenodd" fill-opacity="1" /><path clip-path="url(#clip040)" d="M 0 0 M2043.09 309.014 Q2043.14 308.501 2043.94 308.501 L2069.66 308.501 Q2070.87 308.501 2070.89 308.973 Q2070.89 309.485 2069.74 309.464 L2044.22 309.464 Q2043.09 309.485 2043.09 309.014 M2043.09 300.816 Q2043.09 300.303 2043.98 300.324 L2069.61 300.324 Q2070.87 300.324 2070.89 300.816 Q2070.89 301.287 2069.82 301.287 L2043.94 301.287 Q2043.09 301.287 2043.09 300.816 Z" fill="#000000" fill-rule="evenodd" fill-opacity="1" /><path clip-path="url(#clip040)" d="M 0 0 M2087.07 315.387 Q2087.07 314.629 2087.13 314.404 Q2087.21 314.178 2087.54 313.83 L2095.6 304.853 Q2100 299.893 2100 295.569 Q2100 292.761 2098.53 290.753 Q2097.07 288.744 2094.39 288.744 Q2092.54 288.744 2090.98 289.872 Q2089.43 290.999 2088.71 293.007 Q2088.83 292.966 2089.26 292.966 Q2090.31 292.966 2090.88 293.622 Q2091.48 294.278 2091.48 295.159 Q2091.48 296.286 2090.74 296.84 Q2090.02 297.373 2089.3 297.373 Q2089.02 297.373 2088.63 297.311 Q2088.26 297.25 2087.66 296.676 Q2087.07 296.081 2087.07 295.036 Q2087.07 292.105 2089.28 289.769 Q2091.52 287.433 2094.92 287.433 Q2098.77 287.433 2101.29 289.728 Q2103.83 292.003 2103.83 295.569 Q2103.83 296.819 2103.44 297.967 Q2103.08 299.094 2102.56 299.975 Q2102.07 300.857 2100.72 302.271 Q2099.37 303.685 2098.28 304.689 Q2097.19 305.693 2094.75 307.825 L2090.31 312.149 L2097.87 312.149 Q2101.56 312.149 2101.85 311.821 Q2102.26 311.227 2102.77 308.091 L2103.83 308.091 L2102.65 315.387 L2087.07 315.387 Z" fill="#000000" fill-rule="evenodd" fill-opacity="1" /><path clip-path="url(#clip040)" d="M 0 0 M2107.85 301.963 Q2107.85 295.795 2109.41 292.433 Q2111.58 287.433 2116.7 287.433 Q2117.79 287.433 2118.92 287.74 Q2120.07 288.027 2121.5 289.154 Q2122.96 290.281 2123.84 292.126 Q2125.52 295.692 2125.52 301.963 Q2125.52 308.091 2123.96 311.432 Q2121.68 316.31 2116.66 316.31 Q2114.78 316.31 2112.85 315.346 Q2110.95 314.383 2109.74 312.067 Q2107.85 308.604 2107.85 301.963 M2111.33 301.451 Q2111.33 307.784 2111.79 310.305 Q2112.3 313.03 2113.69 314.219 Q2115.11 315.387 2116.66 315.387 Q2118.34 315.387 2119.74 314.137 Q2121.15 312.867 2121.58 310.141 Q2122.05 307.456 2122.03 301.451 Q2122.03 295.61 2121.62 293.274 Q2121.07 290.548 2119.59 289.462 Q2118.14 288.355 2116.66 288.355 Q2116.11 288.355 2115.52 288.519 Q2114.94 288.683 2114.1 289.154 Q2113.26 289.626 2112.61 290.794 Q2111.97 291.962 2111.66 293.725 Q2111.33 295.999 2111.33 301.451 Z" fill="#000000" fill-rule="evenodd" fill-opacity="1" /><path clip-path="url(#clip040)" d="M 0 0 M2128.63 301.963 Q2128.63 295.795 2130.19 292.433 Q2132.36 287.433 2137.49 287.433 Q2138.57 287.433 2139.7 287.74 Q2140.85 288.027 2142.28 289.154 Q2143.74 290.281 2144.62 292.126 Q2146.3 295.692 2146.3 301.963 Q2146.3 308.091 2144.74 311.432 Q2142.47 316.31 2137.44 316.31 Q2135.56 316.31 2133.63 315.346 Q2131.73 314.383 2130.52 312.067 Q2128.63 308.604 2128.63 301.963 M2132.12 301.451 Q2132.12 307.784 2132.57 310.305 Q2133.08 313.03 2134.47 314.219 Q2135.89 315.387 2137.44 315.387 Q2139.13 315.387 2140.52 314.137 Q2141.93 312.867 2142.36 310.141 Q2142.83 307.456 2142.81 301.451 Q2142.81 295.61 2142.4 293.274 Q2141.85 290.548 2140.38 289.462 Q2138.92 288.355 2137.44 288.355 Q2136.89 288.355 2136.3 288.519 Q2135.72 288.683 2134.88 289.154 Q2134.04 289.626 2133.39 290.794 Q2132.75 291.962 2132.44 293.725 Q2132.12 295.999 2132.12 301.451 Z" fill="#000000" fill-rule="evenodd" fill-opacity="1" /><path clip-path="url(#clip040)" d="M 0 0 M2150.01 314.711 Q2149.41 314.035 2149.41 313.153 Q2149.41 312.272 2149.99 311.616 Q2150.58 310.94 2151.65 310.94 Q2152.9 310.94 2153.61 312.149 Q2154.33 313.338 2154.33 315.346 Q2154.33 317.519 2153.45 319.527 Q2152.57 321.556 2151.71 322.52 Q2150.85 323.483 2150.5 323.483 Q2150.09 323.483 2150.09 323.032 Q2150.09 322.868 2150.38 322.561 Q2153.39 319.322 2153.41 315.346 Q2153.41 314.711 2153.33 314.711 L2153.23 314.793 Q2152.51 315.387 2151.65 315.387 Q2150.6 315.387 2150.01 314.711 Z" fill="#000000" fill-rule="evenodd" fill-opacity="1" /><path clip-path="url(#clip040)" d="M 0 0 M2188.17 309.382 Q2187.66 311.903 2186.61 313.666 Q2185.32 315.859 2183.36 315.859 Q2181.7 315.859 2180.59 314.711 Q2179.48 313.543 2179.48 311.698 Q2179.48 311.145 2179.71 310.223 Q2179.79 309.813 2179.79 309.3 Q2179.79 305.98 2172.6 305.734 Q2172 308.091 2171.59 309.69 Q2171.2 311.268 2171.08 311.739 Q2170.96 312.211 2170.85 312.6 Q2170.77 312.99 2170.63 313.502 Q2170.42 314.342 2170.28 314.752 Q2170.14 315.162 2169.75 315.51 Q2169.38 315.859 2168.78 315.859 Q2168.27 315.859 2167.92 315.551 Q2167.57 315.244 2167.57 314.711 Q2167.57 314.342 2167.74 313.748 L2171.59 298.356 Q2171.69 297.926 2171.9 297.619 Q2172.1 297.311 2172.29 297.168 Q2172.49 297.024 2172.74 296.942 Q2172.99 296.86 2173.09 296.86 Q2173.19 296.84 2173.27 296.84 Q2173.83 296.84 2174.15 297.147 Q2174.5 297.434 2174.5 297.967 Q2174.5 298.049 2174.36 298.623 Q2174.24 299.176 2174.03 300.016 Q2173.83 300.857 2173.74 301.246 L2172.9 304.525 Q2174.07 304.136 2175.12 303.439 Q2176.18 302.742 2178.27 300.939 Q2179.24 300.139 2179.81 299.688 Q2180.4 299.217 2181.39 298.582 Q2182.37 297.926 2183.31 297.619 Q2184.26 297.291 2185.16 297.291 Q2185.86 297.291 2186.27 297.619 Q2186.68 297.926 2186.76 298.213 Q2186.84 298.479 2186.84 298.766 Q2186.84 299.607 2186.18 300.324 Q2185.53 301.041 2184.56 301.041 Q2183.7 301.041 2183.33 300.57 Q2182.97 300.098 2182.97 299.566 Q2182.97 299.156 2183.17 298.643 Q2182.02 299.135 2181.04 299.852 Q2180.06 300.549 2178.35 302.004 Q2175.94 304.074 2174.5 304.853 Q2175.32 304.874 2175.94 304.935 Q2176.57 304.976 2177.64 305.12 Q2178.7 305.263 2179.48 305.57 Q2180.26 305.857 2181.02 306.308 Q2181.8 306.759 2182.21 307.497 Q2182.64 308.235 2182.64 309.178 Q2182.64 309.628 2182.43 310.551 Q2182.08 312.067 2182.08 312.908 Q2182.08 313.973 2182.41 314.445 Q2182.76 314.916 2183.44 314.916 Q2184.73 314.916 2185.55 313.584 Q2186.39 312.231 2187.09 309.731 Q2187.19 309.259 2187.29 309.116 Q2187.39 308.973 2187.68 308.973 Q2188.17 308.973 2188.17 309.382 Z" fill="#000000" fill-rule="evenodd" fill-opacity="1" /><path clip-path="url(#clip040)" d="M 0 0 M2203.15 309.014 Q2203.19 308.501 2203.99 308.501 L2229.71 308.501 Q2230.92 308.501 2230.94 308.973 Q2230.94 309.485 2229.79 309.464 L2204.27 309.464 Q2203.15 309.485 2203.15 309.014 M2203.15 300.816 Q2203.15 300.303 2204.03 300.324 L2229.67 300.324 Q2230.92 300.324 2230.94 300.816 Q2230.94 301.287 2229.87 301.287 L2203.99 301.287 Q2203.15 301.287 2203.15 300.816 Z" fill="#000000" fill-rule="evenodd" fill-opacity="1" /><path clip-path="url(#clip040)" d="M 0 0 M2247.12 291.429 L2247.12 290.117 Q2252.16 290.117 2254.77 287.433 Q2255.48 287.433 2255.61 287.597 Q2255.73 287.761 2255.73 288.519 L2255.73 312.067 Q2255.73 313.317 2256.34 313.707 Q2256.96 314.096 2259.64 314.096 L2260.98 314.096 L2260.98 315.387 Q2259.5 315.264 2254.17 315.264 Q2248.84 315.264 2247.39 315.387 L2247.39 314.096 L2248.72 314.096 Q2251.36 314.096 2252 313.727 Q2252.63 313.338 2252.63 312.067 L2252.63 290.322 Q2250.44 291.429 2247.12 291.429 Z" fill="#000000" fill-rule="evenodd" fill-opacity="1" /><path clip-path="url(#clip040)" d="M 0 0 M2264.53 301.963 Q2264.53 295.795 2266.09 292.433 Q2268.26 287.433 2273.38 287.433 Q2274.47 287.433 2275.59 287.74 Q2276.74 288.027 2278.18 289.154 Q2279.63 290.281 2280.51 292.126 Q2282.19 295.692 2282.19 301.963 Q2282.19 308.091 2280.64 311.432 Q2278.36 316.31 2273.34 316.31 Q2271.45 316.31 2269.53 315.346 Q2267.62 314.383 2266.41 312.067 Q2264.53 308.604 2264.53 301.963 M2268.01 301.451 Q2268.01 307.784 2268.46 310.305 Q2268.98 313.03 2270.37 314.219 Q2271.78 315.387 2273.34 315.387 Q2275.02 315.387 2276.41 314.137 Q2277.83 312.867 2278.26 310.141 Q2278.73 307.456 2278.71 301.451 Q2278.71 295.61 2278.3 293.274 Q2277.75 290.548 2276.27 289.462 Q2274.82 288.355 2273.34 288.355 Q2272.79 288.355 2272.19 288.519 Q2271.62 288.683 2270.78 289.154 Q2269.94 289.626 2269.28 290.794 Q2268.65 291.962 2268.34 293.725 Q2268.01 295.999 2268.01 301.451 Z" fill="#000000" fill-rule="evenodd" fill-opacity="1" /><path clip-path="url(#clip040)" d="M 0 0 M2285.31 301.963 Q2285.31 295.795 2286.87 292.433 Q2289.04 287.433 2294.16 287.433 Q2295.25 287.433 2296.38 287.74 Q2297.52 288.027 2298.96 289.154 Q2300.41 290.281 2301.29 292.126 Q2302.98 295.692 2302.98 301.963 Q2302.98 308.091 2301.42 311.432 Q2299.14 316.31 2294.12 316.31 Q2292.24 316.31 2290.31 315.346 Q2288.4 314.383 2287.19 312.067 Q2285.31 308.604 2285.31 301.963 M2288.79 301.451 Q2288.79 307.784 2289.24 310.305 Q2289.76 313.03 2291.15 314.219 Q2292.56 315.387 2294.12 315.387 Q2295.8 315.387 2297.2 314.137 Q2298.61 312.867 2299.04 310.141 Q2299.51 307.456 2299.49 301.451 Q2299.49 295.61 2299.08 293.274 Q2298.53 290.548 2297.05 289.462 Q2295.6 288.355 2294.12 288.355 Q2293.57 288.355 2292.97 288.519 Q2292.4 288.683 2291.56 289.154 Q2290.72 289.626 2290.06 290.794 Q2289.43 291.962 2289.12 293.725 Q2288.79 295.999 2288.79 301.451 Z" fill="#000000" fill-rule="evenodd" fill-opacity="1" /></svg>
