<?xml version="1.0" encoding="utf-8"?>
<svg xmlns="http://www.w3.org/2000/svg" xmlns:xlink="http://www.w3.org/1999/xlink" width="600" height="400" viewBox="0 0 2400 1600">
<defs>
  <clipPath id="clip820">
    <rect x="0" y="0" width="2400" height="1600"/>
  </clipPath>
</defs>
<path clip-path="url(#clip820)" d="
M0 1600 L2400 1600 L2400 0 L0 0  Z
  " fill="#ffffff" fill-rule="evenodd" fill-opacity="1"/>
<defs>
  <clipPath id="clip821">
    <rect x="480" y="0" width="1681" height="1600"/>
  </clipPath>
</defs>
<defs>
  <clipPath id="clip822">
    <rect x="207" y="47" width="2146" height="1393"/>
  </clipPath>
</defs>
<path clip-path="url(#clip820)" d="
M207.114 1439.5 L2352.76 1439.5 L2352.76 47.2441 L207.114 47.2441  Z
  " fill="#ffffff" fill-rule="evenodd" fill-opacity="1"/>
<defs>
  <clipPath id="clip823">
    <rect x="207" y="47" width="2147" height="1393"/>
  </clipPath>
</defs>
<polyline clip-path="url(#clip823)" style="stroke:#000000; stroke-width:2; stroke-opacity:0.1; fill:none" points="
  265.813,1439.5 265.813,47.2441 
  "/>
<polyline clip-path="url(#clip823)" style="stroke:#000000; stroke-width:2; stroke-opacity:0.1; fill:none" points="
  772.367,1439.5 772.367,47.2441 
  "/>
<polyline clip-path="url(#clip823)" style="stroke:#000000; stroke-width:2; stroke-opacity:0.1; fill:none" points="
  1278.92,1439.5 1278.92,47.2441 
  "/>
<polyline clip-path="url(#clip823)" style="stroke:#000000; stroke-width:2; stroke-opacity:0.1; fill:none" points="
  1785.48,1439.5 1785.48,47.2441 
  "/>
<polyline clip-path="url(#clip823)" style="stroke:#000000; stroke-width:2; stroke-opacity:0.1; fill:none" points="
  2292.03,1439.5 2292.03,47.2441 
  "/>
<polyline clip-path="url(#clip820)" style="stroke:#000000; stroke-width:4; stroke-opacity:1; fill:none" points="
  207.114,1439.5 2352.76,1439.5 
  "/>
<polyline clip-path="url(#clip820)" style="stroke:#000000; stroke-width:4; stroke-opacity:1; fill:none" points="
  265.813,1439.5 265.813,1422.79 
  "/>
<polyline clip-path="url(#clip820)" style="stroke:#000000; stroke-width:4; stroke-opacity:1; fill:none" points="
  772.367,1439.5 772.367,1422.79 
  "/>
<polyline clip-path="url(#clip820)" style="stroke:#000000; stroke-width:4; stroke-opacity:1; fill:none" points="
  1278.92,1439.5 1278.92,1422.79 
  "/>
<polyline clip-path="url(#clip820)" style="stroke:#000000; stroke-width:4; stroke-opacity:1; fill:none" points="
  1785.48,1439.5 1785.48,1422.79 
  "/>
<polyline clip-path="url(#clip820)" style="stroke:#000000; stroke-width:4; stroke-opacity:1; fill:none" points="
  2292.03,1439.5 2292.03,1422.79 
  "/>
<path clip-path="url(#clip820)" d="M 0 0 M265.813 1468.69 Q262.202 1468.69 260.373 1472.26 Q258.568 1475.8 258.568 1482.93 Q258.568 1490.04 260.373 1493.6 Q262.202 1497.14 265.813 1497.14 Q269.447 1497.14 271.253 1493.6 Q273.082 1490.04 273.082 1482.93 Q273.082 1475.8 271.253 1472.26 Q269.447 1468.69 265.813 1468.69 M265.813 1464.99 Q271.623 1464.99 274.679 1469.6 Q277.758 1474.18 277.758 1482.93 Q277.758 1491.66 274.679 1496.26 Q271.623 1500.85 265.813 1500.85 Q260.003 1500.85 256.924 1496.26 Q253.869 1491.66 253.869 1482.93 Q253.869 1474.18 256.924 1469.6 Q260.003 1464.99 265.813 1464.99 Z" fill="#000000" fill-rule="evenodd" fill-opacity="1" /><path clip-path="url(#clip820)" d="M 0 0 M751.638 1496.24 L767.958 1496.24 L767.958 1500.17 L746.013 1500.17 L746.013 1496.24 Q748.675 1493.48 753.259 1488.85 Q757.865 1484.2 759.046 1482.86 Q761.291 1480.34 762.171 1478.6 Q763.073 1476.84 763.073 1475.15 Q763.073 1472.4 761.129 1470.66 Q759.208 1468.92 756.106 1468.92 Q753.907 1468.92 751.453 1469.69 Q749.023 1470.45 746.245 1472 L746.245 1467.28 Q749.069 1466.15 751.523 1465.57 Q753.976 1464.99 756.013 1464.99 Q761.384 1464.99 764.578 1467.67 Q767.773 1470.36 767.773 1474.85 Q767.773 1476.98 766.962 1478.9 Q766.175 1480.8 764.069 1483.39 Q763.49 1484.06 760.388 1487.28 Q757.286 1490.47 751.638 1496.24 Z" fill="#000000" fill-rule="evenodd" fill-opacity="1" /><path clip-path="url(#clip820)" d="M 0 0 M777.819 1465.61 L796.175 1465.61 L796.175 1469.55 L782.101 1469.55 L782.101 1478.02 Q783.12 1477.67 784.138 1477.51 Q785.157 1477.33 786.175 1477.33 Q791.962 1477.33 795.342 1480.5 Q798.721 1483.67 798.721 1489.09 Q798.721 1494.66 795.249 1497.77 Q791.777 1500.85 785.458 1500.85 Q783.282 1500.85 781.013 1500.47 Q778.768 1500.1 776.36 1499.36 L776.36 1494.66 Q778.444 1495.8 780.666 1496.35 Q782.888 1496.91 785.365 1496.91 Q789.37 1496.91 791.708 1494.8 Q794.046 1492.7 794.046 1489.09 Q794.046 1485.47 791.708 1483.37 Q789.37 1481.26 785.365 1481.26 Q783.49 1481.26 781.615 1481.68 Q779.763 1482.1 777.819 1482.97 L777.819 1465.61 Z" fill="#000000" fill-rule="evenodd" fill-opacity="1" /><path clip-path="url(#clip820)" d="M 0 0 M1253.62 1465.61 L1271.98 1465.61 L1271.98 1469.55 L1257.9 1469.55 L1257.9 1478.02 Q1258.92 1477.67 1259.94 1477.51 Q1260.96 1477.33 1261.98 1477.33 Q1267.76 1477.33 1271.14 1480.5 Q1274.52 1483.67 1274.52 1489.09 Q1274.52 1494.66 1271.05 1497.77 Q1267.58 1500.85 1261.26 1500.85 Q1259.08 1500.85 1256.82 1500.47 Q1254.57 1500.1 1252.16 1499.36 L1252.16 1494.66 Q1254.25 1495.8 1256.47 1496.35 Q1258.69 1496.91 1261.17 1496.91 Q1265.17 1496.91 1267.51 1494.8 Q1269.85 1492.7 1269.85 1489.09 Q1269.85 1485.47 1267.51 1483.37 Q1265.17 1481.26 1261.17 1481.26 Q1259.29 1481.26 1257.42 1481.68 Q1255.57 1482.1 1253.62 1482.97 L1253.62 1465.61 Z" fill="#000000" fill-rule="evenodd" fill-opacity="1" /><path clip-path="url(#clip820)" d="M 0 0 M1293.74 1468.69 Q1290.13 1468.69 1288.3 1472.26 Q1286.49 1475.8 1286.49 1482.93 Q1286.49 1490.04 1288.3 1493.6 Q1290.13 1497.14 1293.74 1497.14 Q1297.37 1497.14 1299.18 1493.6 Q1301 1490.04 1301 1482.93 Q1301 1475.8 1299.18 1472.26 Q1297.37 1468.69 1293.74 1468.69 M1293.74 1464.99 Q1299.55 1464.99 1302.6 1469.6 Q1305.68 1474.18 1305.68 1482.93 Q1305.68 1491.66 1302.6 1496.26 Q1299.55 1500.85 1293.74 1500.85 Q1287.93 1500.85 1284.85 1496.26 Q1281.79 1491.66 1281.79 1482.93 Q1281.79 1474.18 1284.85 1469.6 Q1287.93 1464.99 1293.74 1464.99 Z" fill="#000000" fill-rule="evenodd" fill-opacity="1" /><path clip-path="url(#clip820)" d="M 0 0 M1759.33 1465.61 L1781.55 1465.61 L1781.55 1467.6 L1769.01 1500.17 L1764.12 1500.17 L1775.93 1469.55 L1759.33 1469.55 L1759.33 1465.61 Z" fill="#000000" fill-rule="evenodd" fill-opacity="1" /><path clip-path="url(#clip820)" d="M 0 0 M1790.72 1465.61 L1809.08 1465.61 L1809.08 1469.55 L1795 1469.55 L1795 1478.02 Q1796.02 1477.67 1797.04 1477.51 Q1798.06 1477.33 1799.08 1477.33 Q1804.86 1477.33 1808.24 1480.5 Q1811.62 1483.67 1811.62 1489.09 Q1811.62 1494.66 1808.15 1497.77 Q1804.68 1500.85 1798.36 1500.85 Q1796.18 1500.85 1793.91 1500.47 Q1791.67 1500.1 1789.26 1499.36 L1789.26 1494.66 Q1791.34 1495.8 1793.57 1496.35 Q1795.79 1496.91 1798.27 1496.91 Q1802.27 1496.91 1804.61 1494.8 Q1806.95 1492.7 1806.95 1489.09 Q1806.95 1485.47 1804.61 1483.37 Q1802.27 1481.26 1798.27 1481.26 Q1796.39 1481.26 1794.52 1481.68 Q1792.66 1482.1 1790.72 1482.97 L1790.72 1465.61 Z" fill="#000000" fill-rule="evenodd" fill-opacity="1" /><path clip-path="url(#clip820)" d="M 0 0 M2251.64 1496.24 L2259.28 1496.24 L2259.28 1469.87 L2250.97 1471.54 L2250.97 1467.28 L2259.23 1465.61 L2263.91 1465.61 L2263.91 1496.24 L2271.54 1496.24 L2271.54 1500.17 L2251.64 1500.17 L2251.64 1496.24 Z" fill="#000000" fill-rule="evenodd" fill-opacity="1" /><path clip-path="url(#clip820)" d="M 0 0 M2290.99 1468.69 Q2287.38 1468.69 2285.55 1472.26 Q2283.74 1475.8 2283.74 1482.93 Q2283.74 1490.04 2285.55 1493.6 Q2287.38 1497.14 2290.99 1497.14 Q2294.62 1497.14 2296.43 1493.6 Q2298.26 1490.04 2298.26 1482.93 Q2298.26 1475.8 2296.43 1472.26 Q2294.62 1468.69 2290.99 1468.69 M2290.99 1464.99 Q2296.8 1464.99 2299.85 1469.6 Q2302.93 1474.18 2302.93 1482.93 Q2302.93 1491.66 2299.85 1496.26 Q2296.8 1500.85 2290.99 1500.85 Q2285.18 1500.85 2282.1 1496.26 Q2279.04 1491.66 2279.04 1482.93 Q2279.04 1474.18 2282.1 1469.6 Q2285.18 1464.99 2290.99 1464.99 Z" fill="#000000" fill-rule="evenodd" fill-opacity="1" /><path clip-path="url(#clip820)" d="M 0 0 M2321.15 1468.69 Q2317.54 1468.69 2315.71 1472.26 Q2313.91 1475.8 2313.91 1482.93 Q2313.91 1490.04 2315.71 1493.6 Q2317.54 1497.14 2321.15 1497.14 Q2324.78 1497.14 2326.59 1493.6 Q2328.42 1490.04 2328.42 1482.93 Q2328.42 1475.8 2326.59 1472.26 Q2324.78 1468.69 2321.15 1468.69 M2321.15 1464.99 Q2326.96 1464.99 2330.02 1469.6 Q2333.09 1474.18 2333.09 1482.93 Q2333.09 1491.66 2330.02 1496.26 Q2326.96 1500.85 2321.15 1500.85 Q2315.34 1500.85 2312.26 1496.26 Q2309.21 1491.66 2309.21 1482.93 Q2309.21 1474.18 2312.26 1469.6 Q2315.34 1464.99 2321.15 1464.99 Z" fill="#000000" fill-rule="evenodd" fill-opacity="1" /><path clip-path="url(#clip820)" d="M 0 0 M1291.87 1535.75 Q1291.87 1541.16 1290.13 1547.24 Q1288.42 1553.3 1285.72 1558.19 Q1283.01 1563.06 1279.47 1566.28 Q1275.93 1569.47 1272.55 1569.47 Q1270.39 1569.47 1268.78 1568.27 Q1267.2 1567.05 1266.33 1565.02 Q1265.46 1562.96 1265.04 1560.71 Q1264.62 1558.42 1264.62 1555.94 Q1264.62 1552.24 1265.43 1548.21 Q1266.23 1544.15 1267.59 1540.48 Q1268.94 1536.78 1270.84 1533.43 Q1272.74 1530.05 1274.83 1527.6 Q1276.96 1525.12 1279.34 1523.67 Q1281.72 1522.22 1283.95 1522.22 Q1285.56 1522.22 1286.85 1522.93 Q1288.17 1523.6 1289 1524.8 Q1289.84 1525.96 1290.42 1527.34 Q1291.03 1528.73 1291.32 1530.34 Q1291.61 1531.91 1291.74 1533.23 Q1291.87 1534.52 1291.87 1535.75 M1287.52 1531.66 Q1287.52 1530.01 1287.39 1528.79 Q1287.26 1527.53 1286.91 1526.28 Q1286.56 1525.02 1285.78 1524.35 Q1285.04 1523.67 1283.88 1523.67 Q1280.5 1523.67 1276.7 1530.59 Q1275.48 1532.75 1274.38 1535.68 Q1273.29 1538.61 1272.9 1540 Q1272.51 1541.38 1271.61 1544.8 L1285.4 1544.8 Q1287.52 1536 1287.52 1531.66 M1284.82 1546.89 L1271.1 1546.89 Q1268.97 1554.94 1268.97 1559.96 Q1268.97 1564.34 1269.87 1566.18 Q1270.81 1567.98 1272.55 1567.98 Q1274.54 1567.98 1276.41 1565.99 Q1278.28 1563.96 1280.18 1560.29 Q1282.69 1555.52 1284.82 1546.89 Z" fill="#000000" fill-rule="evenodd" fill-opacity="1" /><polyline clip-path="url(#clip823)" style="stroke:#000000; stroke-width:2; stroke-opacity:0.1; fill:none" points="
  207.114,1292.59 2352.76,1292.59 
  "/>
<polyline clip-path="url(#clip823)" style="stroke:#000000; stroke-width:2; stroke-opacity:0.1; fill:none" points="
  207.114,1017.04 2352.76,1017.04 
  "/>
<polyline clip-path="url(#clip823)" style="stroke:#000000; stroke-width:2; stroke-opacity:0.1; fill:none" points="
  207.114,741.488 2352.76,741.488 
  "/>
<polyline clip-path="url(#clip823)" style="stroke:#000000; stroke-width:2; stroke-opacity:0.1; fill:none" points="
  207.114,465.935 2352.76,465.935 
  "/>
<polyline clip-path="url(#clip823)" style="stroke:#000000; stroke-width:2; stroke-opacity:0.1; fill:none" points="
  207.114,190.383 2352.76,190.383 
  "/>
<polyline clip-path="url(#clip820)" style="stroke:#000000; stroke-width:4; stroke-opacity:1; fill:none" points="
  207.114,1439.5 207.114,47.2441 
  "/>
<polyline clip-path="url(#clip820)" style="stroke:#000000; stroke-width:4; stroke-opacity:1; fill:none" points="
  207.114,1292.59 232.861,1292.59 
  "/>
<polyline clip-path="url(#clip820)" style="stroke:#000000; stroke-width:4; stroke-opacity:1; fill:none" points="
  207.114,1017.04 232.861,1017.04 
  "/>
<polyline clip-path="url(#clip820)" style="stroke:#000000; stroke-width:4; stroke-opacity:1; fill:none" points="
  207.114,741.488 232.861,741.488 
  "/>
<polyline clip-path="url(#clip820)" style="stroke:#000000; stroke-width:4; stroke-opacity:1; fill:none" points="
  207.114,465.935 232.861,465.935 
  "/>
<polyline clip-path="url(#clip820)" style="stroke:#000000; stroke-width:4; stroke-opacity:1; fill:none" points="
  207.114,190.383 232.861,190.383 
  "/>
<path clip-path="url(#clip820)" d="M 0 0 M109.193 1305.94 L125.512 1305.94 L125.512 1309.87 L103.568 1309.87 L103.568 1305.94 Q106.23 1303.18 110.813 1298.55 Q115.419 1293.9 116.6 1292.56 Q118.845 1290.03 119.725 1288.3 Q120.628 1286.54 120.628 1284.85 Q120.628 1282.09 118.683 1280.36 Q116.762 1278.62 113.66 1278.62 Q111.461 1278.62 109.007 1279.39 Q106.577 1280.15 103.799 1281.7 L103.799 1276.98 Q106.623 1275.84 109.077 1275.27 Q111.531 1274.69 113.568 1274.69 Q118.938 1274.69 122.132 1277.37 Q125.327 1280.06 125.327 1284.55 Q125.327 1286.68 124.517 1288.6 Q123.73 1290.5 121.623 1293.09 Q121.044 1293.76 117.943 1296.98 Q114.841 1300.17 109.193 1305.94 Z" fill="#000000" fill-rule="evenodd" fill-opacity="1" /><path clip-path="url(#clip820)" d="M 0 0 M135.327 1303.99 L140.211 1303.99 L140.211 1309.87 L135.327 1309.87 L135.327 1303.99 Z" fill="#000000" fill-rule="evenodd" fill-opacity="1" /><path clip-path="url(#clip820)" d="M 0 0 M151.206 1305.94 L158.845 1305.94 L158.845 1279.57 L150.535 1281.24 L150.535 1276.98 L158.799 1275.31 L163.475 1275.31 L163.475 1305.94 L171.114 1305.94 L171.114 1309.87 L151.206 1309.87 L151.206 1305.94 Z" fill="#000000" fill-rule="evenodd" fill-opacity="1" /><path clip-path="url(#clip820)" d="M 0 0 M107.48 1030.38 L123.799 1030.38 L123.799 1034.32 L101.855 1034.32 L101.855 1030.38 Q104.517 1027.63 109.1 1023 Q113.707 1018.35 114.887 1017.01 Q117.132 1014.48 118.012 1012.75 Q118.915 1010.99 118.915 1009.3 Q118.915 1006.54 116.97 1004.81 Q115.049 1003.07 111.947 1003.07 Q109.748 1003.07 107.295 1003.83 Q104.864 1004.6 102.086 1006.15 L102.086 1001.43 Q104.91 1000.29 107.364 999.714 Q109.818 999.135 111.855 999.135 Q117.225 999.135 120.419 1001.82 Q123.614 1004.51 123.614 1009 Q123.614 1011.13 122.804 1013.05 Q122.017 1014.95 119.91 1017.54 Q119.331 1018.21 116.23 1021.43 Q113.128 1024.62 107.48 1030.38 Z" fill="#000000" fill-rule="evenodd" fill-opacity="1" /><path clip-path="url(#clip820)" d="M 0 0 M133.614 1028.44 L138.498 1028.44 L138.498 1034.32 L133.614 1034.32 L133.614 1028.44 Z" fill="#000000" fill-rule="evenodd" fill-opacity="1" /><path clip-path="url(#clip820)" d="M 0 0 M161.53 1003.83 L149.725 1022.28 L161.53 1022.28 L161.53 1003.83 M160.304 999.76 L166.183 999.76 L166.183 1022.28 L171.114 1022.28 L171.114 1026.17 L166.183 1026.17 L166.183 1034.32 L161.53 1034.32 L161.53 1026.17 L145.929 1026.17 L145.929 1021.66 L160.304 999.76 Z" fill="#000000" fill-rule="evenodd" fill-opacity="1" /><path clip-path="url(#clip820)" d="M 0 0 M108.869 754.832 L125.188 754.832 L125.188 758.768 L103.244 758.768 L103.244 754.832 Q105.906 752.078 110.489 747.448 Q115.095 742.795 116.276 741.453 Q118.521 738.93 119.401 737.194 Q120.304 735.434 120.304 733.745 Q120.304 730.99 118.359 729.254 Q116.438 727.518 113.336 727.518 Q111.137 727.518 108.683 728.282 Q106.253 729.046 103.475 730.596 L103.475 725.874 Q106.299 724.74 108.753 724.161 Q111.207 723.583 113.244 723.583 Q118.614 723.583 121.808 726.268 Q125.003 728.953 125.003 733.444 Q125.003 735.573 124.193 737.495 Q123.406 739.393 121.299 741.985 Q120.72 742.657 117.619 745.874 Q114.517 749.069 108.869 754.832 Z" fill="#000000" fill-rule="evenodd" fill-opacity="1" /><path clip-path="url(#clip820)" d="M 0 0 M135.003 752.888 L139.887 752.888 L139.887 758.768 L135.003 758.768 L135.003 752.888 Z" fill="#000000" fill-rule="evenodd" fill-opacity="1" /><path clip-path="url(#clip820)" d="M 0 0 M148.892 724.208 L171.114 724.208 L171.114 726.198 L158.567 758.768 L153.683 758.768 L165.489 728.143 L148.892 728.143 L148.892 724.208 Z" fill="#000000" fill-rule="evenodd" fill-opacity="1" /><path clip-path="url(#clip820)" d="M 0 0 M118.105 464.581 Q121.461 465.299 123.336 467.567 Q125.234 469.836 125.234 473.169 Q125.234 478.285 121.716 481.086 Q118.197 483.886 111.716 483.886 Q109.54 483.886 107.225 483.447 Q104.933 483.03 102.48 482.174 L102.48 477.66 Q104.424 478.794 106.739 479.373 Q109.054 479.951 111.577 479.951 Q115.975 479.951 118.267 478.215 Q120.581 476.479 120.581 473.169 Q120.581 470.113 118.429 468.4 Q116.299 466.664 112.48 466.664 L108.452 466.664 L108.452 462.822 L112.665 462.822 Q116.114 462.822 117.943 461.456 Q119.771 460.067 119.771 457.475 Q119.771 454.813 117.873 453.401 Q115.998 451.965 112.48 451.965 Q110.558 451.965 108.359 452.382 Q106.16 452.799 103.521 453.678 L103.521 449.512 Q106.183 448.771 108.498 448.401 Q110.836 448.03 112.896 448.03 Q118.22 448.03 121.322 450.461 Q124.424 452.868 124.424 456.988 Q124.424 459.859 122.781 461.85 Q121.137 463.817 118.105 464.581 Z" fill="#000000" fill-rule="evenodd" fill-opacity="1" /><path clip-path="url(#clip820)" d="M 0 0 M134.1 477.336 L138.984 477.336 L138.984 483.215 L134.1 483.215 L134.1 477.336 Z" fill="#000000" fill-rule="evenodd" fill-opacity="1" /><path clip-path="url(#clip820)" d="M 0 0 M159.169 451.734 Q155.558 451.734 153.729 455.299 Q151.924 458.84 151.924 465.97 Q151.924 473.076 153.729 476.641 Q155.558 480.183 159.169 480.183 Q162.803 480.183 164.609 476.641 Q166.438 473.076 166.438 465.97 Q166.438 458.84 164.609 455.299 Q162.803 451.734 159.169 451.734 M159.169 448.03 Q164.979 448.03 168.035 452.637 Q171.114 457.22 171.114 465.97 Q171.114 474.697 168.035 479.303 Q164.979 483.886 159.169 483.886 Q153.359 483.886 150.28 479.303 Q147.225 474.697 147.225 465.97 Q147.225 457.22 150.28 452.637 Q153.359 448.03 159.169 448.03 Z" fill="#000000" fill-rule="evenodd" fill-opacity="1" /><path clip-path="url(#clip820)" d="M 0 0 M118.753 189.029 Q122.109 189.746 123.984 192.015 Q125.882 194.283 125.882 197.617 Q125.882 202.732 122.364 205.533 Q118.845 208.334 112.364 208.334 Q110.188 208.334 107.873 207.894 Q105.582 207.478 103.128 206.621 L103.128 202.107 Q105.072 203.242 107.387 203.82 Q109.702 204.399 112.225 204.399 Q116.623 204.399 118.915 202.663 Q121.23 200.927 121.23 197.617 Q121.23 194.561 119.077 192.848 Q116.947 191.112 113.128 191.112 L109.1 191.112 L109.1 187.269 L113.313 187.269 Q116.762 187.269 118.591 185.904 Q120.419 184.515 120.419 181.922 Q120.419 179.26 118.521 177.848 Q116.646 176.413 113.128 176.413 Q111.207 176.413 109.007 176.83 Q106.808 177.246 104.17 178.126 L104.17 173.959 Q106.832 173.219 109.146 172.848 Q111.484 172.478 113.544 172.478 Q118.869 172.478 121.97 174.908 Q125.072 177.316 125.072 181.436 Q125.072 184.306 123.429 186.297 Q121.785 188.265 118.753 189.029 Z" fill="#000000" fill-rule="evenodd" fill-opacity="1" /><path clip-path="url(#clip820)" d="M 0 0 M134.748 201.783 L139.632 201.783 L139.632 207.663 L134.748 207.663 L134.748 201.783 Z" fill="#000000" fill-rule="evenodd" fill-opacity="1" /><path clip-path="url(#clip820)" d="M 0 0 M163.984 189.029 Q167.341 189.746 169.215 192.015 Q171.114 194.283 171.114 197.617 Q171.114 202.732 167.595 205.533 Q164.077 208.334 157.595 208.334 Q155.419 208.334 153.104 207.894 Q150.813 207.478 148.359 206.621 L148.359 202.107 Q150.304 203.242 152.618 203.82 Q154.933 204.399 157.456 204.399 Q161.854 204.399 164.146 202.663 Q166.461 200.927 166.461 197.617 Q166.461 194.561 164.308 192.848 Q162.178 191.112 158.359 191.112 L154.331 191.112 L154.331 187.269 L158.544 187.269 Q161.993 187.269 163.822 185.904 Q165.651 184.515 165.651 181.922 Q165.651 179.26 163.753 177.848 Q161.878 176.413 158.359 176.413 Q156.438 176.413 154.239 176.83 Q152.04 177.246 149.401 178.126 L149.401 173.959 Q152.063 173.219 154.378 172.848 Q156.716 172.478 158.776 172.478 Q164.1 172.478 167.202 174.908 Q170.303 177.316 170.303 181.436 Q170.303 184.306 168.66 186.297 Q167.016 188.265 163.984 189.029 Z" fill="#000000" fill-rule="evenodd" fill-opacity="1" /><path clip-path="url(#clip820)" d="M 0 0 M31.2507 770.566 Q25.5824 770.566 21.7821 767.668 Q17.9819 764.769 17.9819 760.873 Q17.9819 758.489 20.1074 756.138 Q25.196 750.792 25.1638 743.803 Q25.1638 735.881 18.9158 731.275 Q17.9819 730.47 17.9819 729.89 Q17.9819 729.375 18.4005 728.989 Q18.787 728.57 19.3023 728.57 Q19.6888 728.57 20.4939 729.085 L70.1553 762.451 Q71.1537 763.191 71.1537 763.771 Q71.1537 764.286 70.7351 764.705 Q70.3486 765.091 69.8333 765.091 Q69.3824 765.091 68.5128 764.512 L24.3908 734.882 L24.3264 734.947 Q26.6452 738.361 26.613 743.739 Q26.613 748.828 23.8433 753.691 Q27.2571 752.306 31.3151 752.306 Q36.8545 752.306 40.7192 754.786 Q44.5517 757.265 44.5517 760.873 Q44.5517 764.769 40.8158 767.668 Q37.0477 770.566 31.2507 770.566 M25.8723 766.025 Q28.1911 766.476 31.3151 766.476 Q34.4068 766.476 36.7257 766.025 Q39.0123 765.575 40.2039 764.93 Q41.3955 764.254 42.104 763.352 Q42.7804 762.451 42.9414 761.903 Q43.1024 761.356 43.1024 760.808 Q43.1024 758.103 39.753 756.042 Q36.3714 753.948 31.2507 753.948 Q26.2266 753.948 22.8449 756.042 Q19.4311 758.103 19.4311 760.808 Q19.4311 761.388 19.5921 761.968 Q19.7532 762.515 20.4617 763.385 Q21.138 764.254 22.3296 764.93 Q23.5213 765.575 25.8723 766.025 M57.8205 741.356 Q52.1523 741.356 48.352 738.457 Q44.5517 735.559 44.5517 731.662 Q44.5517 728.087 48.4164 725.607 Q52.2811 723.095 57.8849 723.095 Q63.4243 723.095 67.289 725.575 Q71.1537 728.023 71.1537 731.662 Q71.1537 735.559 67.3856 738.457 Q63.6176 741.356 57.8205 741.356 M52.4421 736.815 Q54.7931 737.266 57.8849 737.266 Q60.9767 737.266 63.2955 736.815 Q65.6143 736.332 66.8059 735.688 Q67.9653 735.011 68.6417 734.142 Q69.3502 733.24 69.5112 732.692 Q69.7045 732.113 69.7045 731.597 Q69.7045 728.892 66.3551 726.831 Q62.9734 724.738 57.8205 724.738 Q52.7964 724.738 49.4148 726.831 Q46.0009 728.892 46.0009 731.597 Q46.0009 732.177 46.1942 732.757 Q46.3552 733.304 47.0637 734.174 Q47.7401 735.011 48.9317 735.688 Q50.0911 736.332 52.4421 736.815 Z" fill="#000000" fill-rule="evenodd" fill-opacity="1" /><polyline clip-path="url(#clip823)" style="stroke:#0000ff; stroke-width:4; stroke-opacity:1; fill:none" points="
  267.839,1400.1 492.749,1076.74 717.66,938.493 942.57,849.322 1167.48,786.559 1392.39,739.901 1617.3,703.83 1842.21,675.099 2067.12,651.671 2292.03,632.201 
  
  "/>
<polyline clip-path="url(#clip823)" style="stroke:#1c00e3; stroke-width:4; stroke-opacity:1; fill:none" points="
  267.839,1278.3 492.749,906.932 717.66,730.966 942.57,594.525 1167.48,480.292 1392.39,381.559 1617.3,294.784 1842.21,217.713 2067.12,148.742 2292.03,86.6476 
  
  "/>
<polyline clip-path="url(#clip823)" style="stroke:#3900c6; stroke-width:4; stroke-opacity:1; fill:none" points="
  267.839,1273 492.749,906.708 717.66,731.812 942.57,597.21 1167.48,485.387 1392.39,389.239 1617.3,304.886 1842.21,229.87 2067.12,162.49 2292.03,101.498 
  
  "/>
<polyline clip-path="url(#clip823)" style="stroke:#5500aa; stroke-width:4; stroke-opacity:1; fill:none" points="
  267.839,1263.68 492.749,906.692 717.66,731.804 942.57,597.194 1167.48,485.357 1392.39,389.209 1617.3,304.886 1842.21,229.94 2067.12,162.668 2292.03,101.818 
  
  "/>
<polyline clip-path="url(#clip823)" style="stroke:#71008e; stroke-width:4; stroke-opacity:1; fill:none" points="
  267.839,1249.87 492.749,906.656 717.66,731.789 942.57,597.184 1167.48,485.35 1392.39,389.201 1617.3,304.877 1842.21,229.928 2067.12,162.652 2292.03,101.797 
  
  "/>
<path clip-path="url(#clip820)" d="
M1846.84 1393.09 L2281.23 1393.09 L2281.23 1030.21 L1846.84 1030.21  Z
  " fill="#ffffff" fill-rule="evenodd" fill-opacity="1"/>
<polyline clip-path="url(#clip820)" style="stroke:#000000; stroke-width:4; stroke-opacity:1; fill:none" points="
  1846.84,1393.09 2281.23,1393.09 2281.23,1030.21 1846.84,1030.21 1846.84,1393.09 
  "/>
<polyline clip-path="url(#clip820)" style="stroke:#0000ff; stroke-width:4; stroke-opacity:1; fill:none" points="
  1870.68,1090.69 2013.72,1090.69 
  "/>
<path clip-path="url(#clip820)" d="M 0 0 M2070.19 1074.29 Q2070.19 1074.74 2070.09 1075.11 L2068.78 1083.45 Q2068.71 1084.08 2068.57 1084.32 Q2068.46 1084.55 2068.08 1084.55 Q2067.49 1084.55 2067.49 1083.94 Q2067.49 1083.59 2067.64 1083.03 Q2068.03 1080.38 2068.03 1079.19 Q2068.03 1078.39 2067.87 1077.81 Q2067.73 1077.2 2067.49 1076.77 Q2067.28 1076.35 2066.79 1076.07 Q2066.3 1075.79 2065.83 1075.63 Q2065.36 1075.46 2064.52 1075.39 Q2063.68 1075.3 2062.95 1075.28 Q2062.22 1075.25 2061.03 1075.25 Q2058.43 1075.25 2058.01 1075.35 Q2057.56 1075.46 2057.33 1075.81 Q2057.12 1076.14 2056.88 1077.13 L2050.51 1102.59 L2050.33 1103.59 Q2050.33 1104.16 2050.68 1104.34 Q2051.03 1104.53 2052.11 1104.65 Q2053.65 1104.76 2055.17 1104.76 Q2055.22 1104.76 2055.32 1104.76 Q2055.83 1104.76 2056.04 1104.79 Q2056.25 1104.79 2056.46 1104.83 Q2056.67 1104.88 2056.72 1105 Q2056.79 1105.09 2056.79 1105.28 Q2056.79 1105.72 2056.6 1105.96 Q2056.42 1106.17 2056.23 1106.22 Q2056.06 1106.24 2055.74 1106.24 Q2055.08 1106.24 2053.68 1106.19 Q2052.27 1106.15 2051.57 1106.15 L2047.59 1106.1 L2043.51 1106.15 Q2042.88 1106.15 2041.54 1106.19 Q2040.21 1106.24 2039.58 1106.24 Q2038.76 1106.24 2038.76 1105.65 Q2038.76 1105 2039.06 1104.88 Q2039.39 1104.76 2040.77 1104.76 Q2042.71 1104.76 2043.77 1104.67 Q2044.82 1104.58 2045.38 1104.25 Q2045.97 1103.92 2046.13 1103.59 Q2046.3 1103.24 2046.48 1102.45 L2052.93 1076.85 Q2053.11 1076.28 2053.11 1075.84 Q2053.11 1075.6 2053.04 1075.51 Q2053 1075.42 2052.69 1075.35 Q2052.39 1075.25 2051.75 1075.25 L2049.88 1075.25 Q2047.96 1075.25 2046.77 1075.35 Q2045.59 1075.42 2044.47 1075.77 Q2043.37 1076.12 2042.71 1076.61 Q2042.08 1077.1 2041.38 1078.11 Q2040.68 1079.12 2040.16 1080.33 Q2039.67 1081.55 2038.97 1083.54 Q2038.73 1084.2 2038.59 1084.39 Q2038.47 1084.55 2038.15 1084.55 Q2037.91 1084.55 2037.72 1084.41 Q2037.56 1084.25 2037.56 1084.04 Q2037.8 1083.26 2037.84 1083.17 L2040.72 1074.71 Q2040.96 1074.03 2041.17 1073.92 Q2041.4 1073.78 2042.27 1073.78 L2068.88 1073.78 Q2069.3 1073.78 2069.44 1073.78 Q2069.58 1073.78 2069.81 1073.82 Q2070.05 1073.87 2070.12 1073.99 Q2070.19 1074.1 2070.19 1074.29 Z" fill="#000000" fill-rule="evenodd" fill-opacity="1" /><path clip-path="url(#clip820)" d="M 0 0 M2078.6 1098.96 Q2078.65 1098.37 2079.57 1098.37 L2108.96 1098.37 Q2110.34 1098.37 2110.37 1098.91 Q2110.37 1099.49 2109.05 1099.47 L2079.89 1099.47 Q2078.6 1099.49 2078.6 1098.96 M2078.6 1089.59 Q2078.6 1089 2079.61 1089.02 L2108.91 1089.02 Q2110.34 1089.02 2110.37 1089.59 Q2110.37 1090.13 2109.15 1090.13 L2079.57 1090.13 Q2078.6 1090.13 2078.6 1089.59 Z" fill="#000000" fill-rule="evenodd" fill-opacity="1" /><path clip-path="url(#clip820)" d="M 0 0 M2128.86 1098.51 Q2128.86 1097.08 2129.63 1096.54 Q2130.4 1095.98 2131.22 1095.98 Q2132.32 1095.98 2132.96 1096.68 Q2133.61 1097.36 2133.61 1098.32 Q2133.61 1099.28 2132.96 1099.99 Q2132.32 1100.67 2131.22 1100.67 Q2130.68 1100.67 2130.4 1100.57 Q2131.03 1102.77 2132.96 1104.37 Q2134.9 1105.96 2137.45 1105.96 Q2140.66 1105.96 2142.58 1102.84 Q2143.73 1100.83 2143.73 1096.26 Q2143.73 1092.23 2142.86 1090.22 Q2141.53 1087.15 2138.79 1087.15 Q2134.9 1087.15 2132.6 1090.5 Q2132.32 1090.92 2132 1090.95 Q2131.53 1090.95 2131.41 1090.69 Q2131.32 1090.41 2131.32 1089.68 L2131.32 1075.49 Q2131.32 1074.34 2131.78 1074.34 Q2131.97 1074.34 2132.37 1074.48 Q2135.39 1075.81 2138.74 1075.84 Q2142.18 1075.84 2145.28 1074.43 Q2145.51 1074.29 2145.65 1074.29 Q2146.12 1074.29 2146.14 1074.83 Q2146.14 1075.02 2145.74 1075.58 Q2145.37 1076.12 2144.55 1076.85 Q2143.73 1077.55 2142.68 1078.23 Q2141.62 1078.91 2140.08 1079.37 Q2138.55 1079.82 2136.87 1079.82 Q2134.85 1079.82 2132.79 1079.19 L2132.79 1088.53 Q2135.27 1086.1 2138.88 1086.1 Q2142.72 1086.1 2145.37 1089.19 Q2148.02 1092.28 2148.02 1096.59 Q2148.02 1101.11 2144.88 1104.2 Q2141.76 1107.29 2137.55 1107.29 Q2133.7 1107.29 2131.27 1104.55 Q2128.86 1101.81 2128.86 1098.51 Z" fill="#000000" fill-rule="evenodd" fill-opacity="1" /><path clip-path="url(#clip820)" d="M 0 0 M2153.33 1105.47 Q2152.61 1104.69 2152.61 1103.69 Q2152.61 1102.68 2153.33 1101.95 Q2154.06 1101.2 2155.16 1101.2 Q2156.21 1101.2 2156.92 1101.91 Q2157.64 1102.59 2157.64 1103.71 Q2157.64 1104.81 2156.87 1105.54 Q2156.12 1106.24 2155.16 1106.24 Q2154.06 1106.24 2153.33 1105.47 Z" fill="#000000" fill-rule="evenodd" fill-opacity="1" /><path clip-path="url(#clip820)" d="M 0 0 M2165.8 1090.9 Q2165.8 1083.85 2167.58 1080.01 Q2170.07 1074.29 2175.92 1074.29 Q2177.16 1074.29 2178.45 1074.64 Q2179.76 1074.97 2181.4 1076.26 Q2183.07 1077.55 2184.07 1079.66 Q2185.99 1083.73 2185.99 1090.9 Q2185.99 1097.9 2184.21 1101.72 Q2181.61 1107.29 2175.88 1107.29 Q2173.72 1107.29 2171.52 1106.19 Q2169.34 1105.09 2167.96 1102.45 Q2165.8 1098.49 2165.8 1090.9 M2169.79 1090.31 Q2169.79 1097.55 2170.3 1100.43 Q2170.89 1103.55 2172.48 1104.91 Q2174.1 1106.24 2175.88 1106.24 Q2177.8 1106.24 2179.39 1104.81 Q2181 1103.36 2181.5 1100.24 Q2182.04 1097.18 2182.01 1090.31 Q2182.01 1083.64 2181.54 1080.97 Q2180.91 1077.85 2179.22 1076.61 Q2177.56 1075.35 2175.88 1075.35 Q2175.24 1075.35 2174.56 1075.53 Q2173.91 1075.72 2172.95 1076.26 Q2171.99 1076.8 2171.24 1078.13 Q2170.51 1079.47 2170.16 1081.48 Q2169.79 1084.08 2169.79 1090.31 Z" fill="#000000" fill-rule="evenodd" fill-opacity="1" /><polyline clip-path="url(#clip820)" style="stroke:#1c00e3; stroke-width:4; stroke-opacity:1; fill:none" points="
  1870.68,1151.17 2013.72,1151.17 
  "/>
<path clip-path="url(#clip820)" d="M 0 0 M2070.19 1134.77 Q2070.19 1135.22 2070.09 1135.59 L2068.78 1143.93 Q2068.71 1144.56 2068.57 1144.8 Q2068.46 1145.03 2068.08 1145.03 Q2067.49 1145.03 2067.49 1144.42 Q2067.49 1144.07 2067.64 1143.51 Q2068.03 1140.86 2068.03 1139.67 Q2068.03 1138.87 2067.87 1138.29 Q2067.73 1137.68 2067.49 1137.25 Q2067.28 1136.83 2066.79 1136.55 Q2066.3 1136.27 2065.83 1136.11 Q2065.36 1135.94 2064.52 1135.87 Q2063.68 1135.78 2062.95 1135.76 Q2062.22 1135.73 2061.03 1135.73 Q2058.43 1135.73 2058.01 1135.83 Q2057.56 1135.94 2057.33 1136.29 Q2057.12 1136.62 2056.88 1137.61 L2050.51 1163.07 L2050.33 1164.07 Q2050.33 1164.64 2050.68 1164.82 Q2051.03 1165.01 2052.11 1165.13 Q2053.65 1165.24 2055.17 1165.24 Q2055.22 1165.24 2055.32 1165.24 Q2055.83 1165.24 2056.04 1165.27 Q2056.25 1165.27 2056.46 1165.31 Q2056.67 1165.36 2056.72 1165.48 Q2056.79 1165.57 2056.79 1165.76 Q2056.79 1166.2 2056.6 1166.44 Q2056.42 1166.65 2056.23 1166.7 Q2056.06 1166.72 2055.74 1166.72 Q2055.08 1166.72 2053.68 1166.67 Q2052.27 1166.63 2051.57 1166.63 L2047.59 1166.58 L2043.51 1166.63 Q2042.88 1166.63 2041.54 1166.67 Q2040.21 1166.72 2039.58 1166.72 Q2038.76 1166.72 2038.76 1166.13 Q2038.76 1165.48 2039.06 1165.36 Q2039.39 1165.24 2040.77 1165.24 Q2042.71 1165.24 2043.77 1165.15 Q2044.82 1165.06 2045.38 1164.73 Q2045.97 1164.4 2046.13 1164.07 Q2046.3 1163.72 2046.48 1162.93 L2052.93 1137.33 Q2053.11 1136.76 2053.11 1136.32 Q2053.11 1136.08 2053.04 1135.99 Q2053 1135.9 2052.69 1135.83 Q2052.39 1135.73 2051.75 1135.73 L2049.88 1135.73 Q2047.96 1135.73 2046.77 1135.83 Q2045.59 1135.9 2044.47 1136.25 Q2043.37 1136.6 2042.71 1137.09 Q2042.08 1137.58 2041.38 1138.59 Q2040.68 1139.6 2040.16 1140.81 Q2039.67 1142.03 2038.97 1144.02 Q2038.73 1144.68 2038.59 1144.87 Q2038.47 1145.03 2038.15 1145.03 Q2037.91 1145.03 2037.72 1144.89 Q2037.56 1144.73 2037.56 1144.52 Q2037.8 1143.74 2037.84 1143.65 L2040.72 1135.19 Q2040.96 1134.51 2041.17 1134.4 Q2041.4 1134.26 2042.27 1134.26 L2068.88 1134.26 Q2069.3 1134.26 2069.44 1134.26 Q2069.58 1134.26 2069.81 1134.3 Q2070.05 1134.35 2070.12 1134.47 Q2070.19 1134.58 2070.19 1134.77 Z" fill="#000000" fill-rule="evenodd" fill-opacity="1" /><path clip-path="url(#clip820)" d="M 0 0 M2078.6 1159.44 Q2078.65 1158.85 2079.57 1158.85 L2108.96 1158.85 Q2110.34 1158.85 2110.37 1159.39 Q2110.37 1159.97 2109.05 1159.95 L2079.89 1159.95 Q2078.6 1159.97 2078.6 1159.44 M2078.6 1150.07 Q2078.6 1149.48 2079.61 1149.5 L2108.91 1149.5 Q2110.34 1149.5 2110.37 1150.07 Q2110.37 1150.61 2109.15 1150.61 L2079.57 1150.61 Q2078.6 1150.61 2078.6 1150.07 Z" fill="#000000" fill-rule="evenodd" fill-opacity="1" /><path clip-path="url(#clip820)" d="M 0 0 M2128.86 1139.34 L2128.86 1137.84 Q2134.62 1137.84 2137.59 1134.77 Q2138.41 1134.77 2138.55 1134.96 Q2138.69 1135.15 2138.69 1136.01 L2138.69 1162.93 Q2138.69 1164.35 2139.4 1164.8 Q2140.1 1165.24 2143.17 1165.24 L2144.69 1165.24 L2144.69 1166.72 Q2143 1166.58 2136.91 1166.58 Q2130.82 1166.58 2129.16 1166.72 L2129.16 1165.24 L2130.68 1165.24 Q2133.7 1165.24 2134.43 1164.82 Q2135.16 1164.38 2135.16 1162.93 L2135.16 1138.07 Q2132.65 1139.34 2128.86 1139.34 Z" fill="#000000" fill-rule="evenodd" fill-opacity="1" /><path clip-path="url(#clip820)" d="M 0 0 M2148.11 1151.57 Q2148.11 1144.02 2151.95 1139.41 Q2155.79 1134.77 2160.73 1134.77 Q2163.61 1134.77 2165.2 1136.25 Q2166.82 1137.7 2166.82 1139.95 Q2166.82 1141.19 2166.09 1141.73 Q2165.37 1142.27 2164.62 1142.27 Q2163.75 1142.27 2163.07 1141.68 Q2162.39 1141.1 2162.39 1140.04 Q2162.39 1137.89 2165.04 1137.89 Q2163.8 1135.97 2160.82 1135.97 Q2159.91 1135.97 2158.97 1136.25 Q2158.04 1136.51 2156.82 1137.4 Q2155.6 1138.29 2154.66 1139.69 Q2153.73 1141.1 2153.07 1143.74 Q2152.42 1146.39 2152.42 1149.83 L2152.42 1150.98 Q2154.38 1146.23 2158.41 1146.25 Q2162.44 1146.25 2165.23 1149.32 Q2168.02 1152.39 2168.02 1156.93 Q2168.02 1161.59 2165.11 1164.68 Q2162.21 1167.77 2158.13 1167.77 Q2156.3 1167.77 2154.64 1167 Q2153 1166.25 2151.46 1164.52 Q2149.93 1162.79 2149.02 1159.46 Q2148.11 1156.13 2148.11 1151.57 M2152.51 1155.88 Q2152.51 1160.58 2153.38 1162.83 Q2153.52 1163.21 2153.82 1163.72 Q2154.15 1164.24 2154.69 1164.92 Q2155.25 1165.57 2156.16 1166.02 Q2157.08 1166.44 2158.13 1166.44 Q2161.34 1166.44 2162.89 1163.32 Q2163.71 1161.59 2163.71 1156.88 Q2163.71 1152.08 2162.84 1150.32 Q2161.36 1147.35 2158.37 1147.35 Q2156.35 1147.35 2154.95 1148.73 Q2153.56 1150.11 2153.03 1151.96 Q2152.51 1153.81 2152.51 1155.88 Z" fill="#000000" fill-rule="evenodd" fill-opacity="1" /><path clip-path="url(#clip820)" d="M 0 0 M2172.58 1165.95 Q2171.86 1165.17 2171.86 1164.17 Q2171.86 1163.16 2172.58 1162.43 Q2173.31 1161.68 2174.41 1161.68 Q2175.46 1161.68 2176.17 1162.39 Q2176.89 1163.07 2176.89 1164.19 Q2176.89 1165.29 2176.12 1166.02 Q2175.37 1166.72 2174.41 1166.72 Q2173.31 1166.72 2172.58 1165.95 Z" fill="#000000" fill-rule="evenodd" fill-opacity="1" /><path clip-path="url(#clip820)" d="M 0 0 M2185.05 1166.72 Q2185.05 1165.85 2185.12 1165.6 Q2185.22 1165.34 2185.59 1164.94 L2194.8 1154.68 Q2199.83 1149.01 2199.83 1144.07 Q2199.83 1140.86 2198.15 1138.57 Q2196.48 1136.27 2193.42 1136.27 Q2191.31 1136.27 2189.53 1137.56 Q2187.75 1138.85 2186.93 1141.14 Q2187.07 1141.1 2187.56 1141.1 Q2188.75 1141.1 2189.41 1141.85 Q2190.09 1142.6 2190.09 1143.6 Q2190.09 1144.89 2189.25 1145.52 Q2188.43 1146.13 2187.61 1146.13 Q2187.28 1146.13 2186.83 1146.06 Q2186.41 1145.99 2185.73 1145.34 Q2185.05 1144.66 2185.05 1143.46 Q2185.05 1140.11 2187.58 1137.44 Q2190.14 1134.77 2194.02 1134.77 Q2198.43 1134.77 2201.31 1137.4 Q2204.21 1140 2204.21 1144.07 Q2204.21 1145.5 2203.77 1146.81 Q2203.35 1148.1 2202.76 1149.11 Q2202.2 1150.11 2200.65 1151.73 Q2199.11 1153.35 2197.87 1154.49 Q2196.62 1155.64 2193.84 1158.08 L2188.75 1163.02 L2197.4 1163.02 Q2201.61 1163.02 2201.94 1162.64 Q2202.41 1161.97 2203 1158.38 L2204.21 1158.38 L2202.85 1166.72 L2185.05 1166.72 Z" fill="#000000" fill-rule="evenodd" fill-opacity="1" /><path clip-path="url(#clip820)" d="M 0 0 M2208.8 1158.99 Q2208.8 1157.56 2209.58 1157.02 Q2210.35 1156.46 2211.17 1156.46 Q2212.27 1156.46 2212.9 1157.16 Q2213.56 1157.84 2213.56 1158.8 Q2213.56 1159.76 2212.9 1160.47 Q2212.27 1161.15 2211.17 1161.15 Q2210.63 1161.15 2210.35 1161.05 Q2210.98 1163.25 2212.9 1164.85 Q2214.85 1166.44 2217.4 1166.44 Q2220.61 1166.44 2222.53 1163.32 Q2223.68 1161.31 2223.68 1156.74 Q2223.68 1152.71 2222.81 1150.7 Q2221.48 1147.63 2218.73 1147.63 Q2214.85 1147.63 2212.55 1150.98 Q2212.27 1151.4 2211.94 1151.43 Q2211.47 1151.43 2211.36 1151.17 Q2211.26 1150.89 2211.26 1150.16 L2211.26 1135.97 Q2211.26 1134.82 2211.73 1134.82 Q2211.92 1134.82 2212.32 1134.96 Q2215.34 1136.29 2218.69 1136.32 Q2222.13 1136.32 2225.22 1134.91 Q2225.46 1134.77 2225.6 1134.77 Q2226.07 1134.77 2226.09 1135.31 Q2226.09 1135.5 2225.69 1136.06 Q2225.32 1136.6 2224.5 1137.33 Q2223.68 1138.03 2222.62 1138.71 Q2221.57 1139.39 2220.02 1139.85 Q2218.5 1140.3 2216.81 1140.3 Q2214.8 1140.3 2212.74 1139.67 L2212.74 1149.01 Q2215.22 1146.58 2218.83 1146.58 Q2222.67 1146.58 2225.32 1149.67 Q2227.96 1152.76 2227.96 1157.07 Q2227.96 1161.59 2224.82 1164.68 Q2221.71 1167.77 2217.49 1167.77 Q2213.65 1167.77 2211.22 1165.03 Q2208.8 1162.29 2208.8 1158.99 Z" fill="#000000" fill-rule="evenodd" fill-opacity="1" /><polyline clip-path="url(#clip820)" style="stroke:#3900c6; stroke-width:4; stroke-opacity:1; fill:none" points="
  1870.68,1211.65 2013.72,1211.65 
  "/>
<path clip-path="url(#clip820)" d="M 0 0 M2070.19 1195.25 Q2070.19 1195.7 2070.09 1196.07 L2068.78 1204.41 Q2068.71 1205.04 2068.57 1205.28 Q2068.46 1205.51 2068.08 1205.51 Q2067.49 1205.51 2067.49 1204.9 Q2067.49 1204.55 2067.64 1203.99 Q2068.03 1201.34 2068.03 1200.15 Q2068.03 1199.35 2067.87 1198.77 Q2067.73 1198.16 2067.49 1197.73 Q2067.28 1197.31 2066.79 1197.03 Q2066.3 1196.75 2065.83 1196.59 Q2065.36 1196.42 2064.52 1196.35 Q2063.68 1196.26 2062.95 1196.24 Q2062.22 1196.21 2061.03 1196.21 Q2058.43 1196.21 2058.01 1196.31 Q2057.56 1196.42 2057.33 1196.77 Q2057.12 1197.1 2056.88 1198.09 L2050.51 1223.55 L2050.33 1224.55 Q2050.33 1225.12 2050.68 1225.3 Q2051.03 1225.49 2052.11 1225.61 Q2053.65 1225.72 2055.17 1225.72 Q2055.22 1225.72 2055.32 1225.72 Q2055.83 1225.72 2056.04 1225.75 Q2056.25 1225.75 2056.46 1225.79 Q2056.67 1225.84 2056.72 1225.96 Q2056.79 1226.05 2056.79 1226.24 Q2056.79 1226.68 2056.6 1226.92 Q2056.42 1227.13 2056.23 1227.18 Q2056.06 1227.2 2055.74 1227.2 Q2055.08 1227.2 2053.68 1227.15 Q2052.27 1227.11 2051.57 1227.11 L2047.59 1227.06 L2043.51 1227.11 Q2042.88 1227.11 2041.54 1227.15 Q2040.21 1227.2 2039.58 1227.2 Q2038.76 1227.2 2038.76 1226.61 Q2038.76 1225.96 2039.06 1225.84 Q2039.39 1225.72 2040.77 1225.72 Q2042.71 1225.72 2043.77 1225.63 Q2044.82 1225.54 2045.38 1225.21 Q2045.97 1224.88 2046.13 1224.55 Q2046.3 1224.2 2046.48 1223.41 L2052.93 1197.81 Q2053.11 1197.24 2053.11 1196.8 Q2053.11 1196.56 2053.04 1196.47 Q2053 1196.38 2052.69 1196.31 Q2052.39 1196.21 2051.75 1196.21 L2049.88 1196.21 Q2047.96 1196.21 2046.77 1196.31 Q2045.59 1196.38 2044.47 1196.73 Q2043.37 1197.08 2042.71 1197.57 Q2042.08 1198.06 2041.38 1199.07 Q2040.68 1200.08 2040.16 1201.29 Q2039.67 1202.51 2038.97 1204.5 Q2038.73 1205.16 2038.59 1205.35 Q2038.47 1205.51 2038.15 1205.51 Q2037.91 1205.51 2037.72 1205.37 Q2037.56 1205.21 2037.56 1205 Q2037.8 1204.22 2037.84 1204.13 L2040.72 1195.67 Q2040.96 1194.99 2041.17 1194.88 Q2041.4 1194.74 2042.27 1194.74 L2068.88 1194.74 Q2069.3 1194.74 2069.44 1194.74 Q2069.58 1194.74 2069.81 1194.78 Q2070.05 1194.83 2070.12 1194.95 Q2070.19 1195.06 2070.19 1195.25 Z" fill="#000000" fill-rule="evenodd" fill-opacity="1" /><path clip-path="url(#clip820)" d="M 0 0 M2078.6 1219.92 Q2078.65 1219.33 2079.57 1219.33 L2108.96 1219.33 Q2110.34 1219.33 2110.37 1219.87 Q2110.37 1220.45 2109.05 1220.43 L2079.89 1220.43 Q2078.6 1220.45 2078.6 1219.92 M2078.6 1210.55 Q2078.6 1209.96 2079.61 1209.98 L2108.91 1209.98 Q2110.34 1209.98 2110.37 1210.55 Q2110.37 1211.09 2109.15 1211.09 L2079.57 1211.09 Q2078.6 1211.09 2078.6 1210.55 Z" fill="#000000" fill-rule="evenodd" fill-opacity="1" /><path clip-path="url(#clip820)" d="M 0 0 M2128.86 1227.2 Q2128.86 1226.33 2128.93 1226.08 Q2129.02 1225.82 2129.4 1225.42 L2138.6 1215.16 Q2143.64 1209.49 2143.64 1204.55 Q2143.64 1201.34 2141.95 1199.05 Q2140.29 1196.75 2137.22 1196.75 Q2135.11 1196.75 2133.33 1198.04 Q2131.55 1199.33 2130.73 1201.62 Q2130.87 1201.58 2131.36 1201.58 Q2132.56 1201.58 2133.21 1202.33 Q2133.89 1203.08 2133.89 1204.08 Q2133.89 1205.37 2133.05 1206 Q2132.23 1206.61 2131.41 1206.61 Q2131.08 1206.61 2130.64 1206.54 Q2130.22 1206.47 2129.54 1205.82 Q2128.86 1205.14 2128.86 1203.94 Q2128.86 1200.59 2131.39 1197.92 Q2133.94 1195.25 2137.83 1195.25 Q2142.23 1195.25 2145.11 1197.88 Q2148.02 1200.48 2148.02 1204.55 Q2148.02 1205.98 2147.57 1207.29 Q2147.15 1208.58 2146.56 1209.59 Q2146 1210.59 2144.46 1212.21 Q2142.91 1213.83 2141.67 1214.97 Q2140.43 1216.12 2137.64 1218.56 L2132.56 1223.5 L2141.2 1223.5 Q2145.42 1223.5 2145.74 1223.12 Q2146.21 1222.45 2146.8 1218.86 L2148.02 1218.86 L2146.66 1227.2 L2128.86 1227.2 Z" fill="#000000" fill-rule="evenodd" fill-opacity="1" /><path clip-path="url(#clip820)" d="M 0 0 M2149.73 1204.64 L2151.3 1194.78 L2152.5 1194.78 Q2152.64 1195.37 2152.87 1195.63 Q2153.13 1195.88 2154.49 1196.1 Q2155.87 1196.31 2158.66 1196.31 L2170.3 1196.31 Q2170.3 1197.41 2169.87 1197.99 L2163.39 1207.1 Q2161.33 1209.98 2160.41 1215.3 Q2159.87 1218.86 2159.9 1223.17 L2159.9 1225.61 Q2159.9 1228.25 2157.67 1228.25 Q2155.47 1228.25 2155.47 1225.61 Q2155.47 1216.45 2161.37 1207.57 Q2162 1206.66 2164.32 1203.4 Q2166.67 1200.15 2166.76 1200.01 L2156.83 1200.01 Q2152.47 1200.01 2152.12 1200.29 Q2151.65 1200.71 2150.93 1204.64 L2149.73 1204.64 Z" fill="#000000" fill-rule="evenodd" fill-opacity="1" /><path clip-path="url(#clip820)" d="M 0 0 M2167.46 1226.43 Q2166.73 1225.65 2166.73 1224.65 Q2166.73 1223.64 2167.46 1222.91 Q2168.18 1222.16 2169.28 1222.16 Q2170.34 1222.16 2171.04 1222.87 Q2171.77 1223.55 2171.77 1224.67 Q2171.77 1225.77 2170.99 1226.5 Q2170.24 1227.2 2169.28 1227.2 Q2168.18 1227.2 2167.46 1226.43 Z" fill="#000000" fill-rule="evenodd" fill-opacity="1" /><path clip-path="url(#clip820)" d="M 0 0 M2179.93 1219.47 Q2179.93 1218.04 2180.7 1217.5 Q2181.47 1216.94 2182.29 1216.94 Q2183.4 1216.94 2184.03 1217.64 Q2184.68 1218.32 2184.68 1219.28 Q2184.68 1220.24 2184.03 1220.95 Q2183.4 1221.63 2182.29 1221.63 Q2181.76 1221.63 2181.47 1221.53 Q2182.11 1223.73 2184.03 1225.33 Q2185.97 1226.92 2188.52 1226.92 Q2191.73 1226.92 2193.65 1223.8 Q2194.8 1221.79 2194.8 1217.22 Q2194.8 1213.19 2193.94 1211.18 Q2192.6 1208.11 2189.86 1208.11 Q2185.97 1208.11 2183.68 1211.46 Q2183.4 1211.88 2183.07 1211.91 Q2182.6 1211.91 2182.48 1211.65 Q2182.39 1211.37 2182.39 1210.64 L2182.39 1196.45 Q2182.39 1195.3 2182.86 1195.3 Q2183.04 1195.3 2183.44 1195.44 Q2186.46 1196.77 2189.81 1196.8 Q2193.26 1196.8 2196.35 1195.39 Q2196.58 1195.25 2196.72 1195.25 Q2197.19 1195.25 2197.21 1195.79 Q2197.21 1195.98 2196.82 1196.54 Q2196.44 1197.08 2195.62 1197.81 Q2194.8 1198.51 2193.75 1199.19 Q2192.69 1199.87 2191.15 1200.33 Q2189.63 1200.78 2187.94 1200.78 Q2185.92 1200.78 2183.86 1200.15 L2183.86 1209.49 Q2186.35 1207.06 2189.95 1207.06 Q2193.79 1207.06 2196.44 1210.15 Q2199.09 1213.24 2199.09 1217.55 Q2199.09 1222.07 2195.95 1225.16 Q2192.83 1228.25 2188.62 1228.25 Q2184.78 1228.25 2182.34 1225.51 Q2179.93 1222.77 2179.93 1219.47 Z" fill="#000000" fill-rule="evenodd" fill-opacity="1" /><polyline clip-path="url(#clip820)" style="stroke:#5500aa; stroke-width:4; stroke-opacity:1; fill:none" points="
  1870.68,1272.13 2013.72,1272.13 
  "/>
<path clip-path="url(#clip820)" d="M 0 0 M2070.19 1255.73 Q2070.19 1256.18 2070.09 1256.55 L2068.78 1264.89 Q2068.71 1265.52 2068.57 1265.76 Q2068.46 1265.99 2068.08 1265.99 Q2067.49 1265.99 2067.49 1265.38 Q2067.49 1265.03 2067.64 1264.47 Q2068.03 1261.82 2068.03 1260.63 Q2068.03 1259.83 2067.87 1259.25 Q2067.73 1258.64 2067.49 1258.21 Q2067.28 1257.79 2066.79 1257.51 Q2066.3 1257.23 2065.83 1257.07 Q2065.36 1256.9 2064.52 1256.83 Q2063.68 1256.74 2062.95 1256.72 Q2062.22 1256.69 2061.03 1256.69 Q2058.43 1256.69 2058.01 1256.79 Q2057.56 1256.9 2057.33 1257.25 Q2057.12 1257.58 2056.88 1258.57 L2050.51 1284.03 L2050.33 1285.03 Q2050.33 1285.6 2050.68 1285.78 Q2051.03 1285.97 2052.11 1286.09 Q2053.65 1286.2 2055.17 1286.2 Q2055.22 1286.2 2055.32 1286.2 Q2055.83 1286.2 2056.04 1286.23 Q2056.25 1286.23 2056.46 1286.27 Q2056.67 1286.32 2056.72 1286.44 Q2056.79 1286.53 2056.79 1286.72 Q2056.79 1287.16 2056.6 1287.4 Q2056.42 1287.61 2056.23 1287.66 Q2056.06 1287.68 2055.74 1287.68 Q2055.08 1287.68 2053.68 1287.63 Q2052.27 1287.59 2051.57 1287.59 L2047.59 1287.54 L2043.51 1287.59 Q2042.88 1287.59 2041.54 1287.63 Q2040.21 1287.68 2039.58 1287.68 Q2038.76 1287.68 2038.76 1287.09 Q2038.76 1286.44 2039.06 1286.32 Q2039.39 1286.2 2040.77 1286.2 Q2042.71 1286.2 2043.77 1286.11 Q2044.82 1286.02 2045.38 1285.69 Q2045.97 1285.36 2046.13 1285.03 Q2046.3 1284.68 2046.48 1283.89 L2052.93 1258.29 Q2053.11 1257.72 2053.11 1257.28 Q2053.11 1257.04 2053.04 1256.95 Q2053 1256.86 2052.69 1256.79 Q2052.39 1256.69 2051.75 1256.69 L2049.88 1256.69 Q2047.96 1256.69 2046.77 1256.79 Q2045.59 1256.86 2044.47 1257.21 Q2043.37 1257.56 2042.71 1258.05 Q2042.08 1258.54 2041.38 1259.55 Q2040.68 1260.56 2040.16 1261.77 Q2039.67 1262.99 2038.97 1264.98 Q2038.73 1265.64 2038.59 1265.83 Q2038.47 1265.99 2038.15 1265.99 Q2037.91 1265.99 2037.72 1265.85 Q2037.56 1265.69 2037.56 1265.48 Q2037.8 1264.7 2037.84 1264.61 L2040.72 1256.15 Q2040.96 1255.47 2041.17 1255.36 Q2041.4 1255.22 2042.27 1255.22 L2068.88 1255.22 Q2069.3 1255.22 2069.44 1255.22 Q2069.58 1255.22 2069.81 1255.26 Q2070.05 1255.31 2070.12 1255.43 Q2070.19 1255.54 2070.19 1255.73 Z" fill="#000000" fill-rule="evenodd" fill-opacity="1" /><path clip-path="url(#clip820)" d="M 0 0 M2078.6 1280.4 Q2078.65 1279.81 2079.57 1279.81 L2108.96 1279.81 Q2110.34 1279.81 2110.37 1280.35 Q2110.37 1280.93 2109.05 1280.91 L2079.89 1280.91 Q2078.6 1280.93 2078.6 1280.4 M2078.6 1271.03 Q2078.6 1270.44 2079.61 1270.46 L2108.91 1270.46 Q2110.34 1270.46 2110.37 1271.03 Q2110.37 1271.57 2109.15 1271.57 L2079.57 1271.57 Q2078.6 1271.57 2078.6 1271.03 Z" fill="#000000" fill-rule="evenodd" fill-opacity="1" /><path clip-path="url(#clip820)" d="M 0 0 M2128.86 1281.22 Q2128.86 1279.79 2129.68 1279.11 Q2130.5 1278.43 2131.55 1278.43 Q2132.65 1278.43 2133.42 1279.15 Q2134.22 1279.86 2134.22 1281.1 Q2134.22 1282.43 2133.28 1283.18 Q2132.37 1283.93 2131.06 1283.75 Q2132.21 1285.67 2134.31 1286.53 Q2136.45 1287.4 2138.41 1287.4 Q2140.47 1287.4 2142.14 1285.62 Q2143.82 1283.84 2143.82 1279.48 Q2143.82 1275.78 2142.37 1273.65 Q2140.94 1271.52 2138.11 1271.52 L2136 1271.52 Q2135.27 1271.52 2135.06 1271.45 Q2134.85 1271.38 2134.85 1270.98 Q2134.85 1270.51 2135.58 1270.42 Q2136.3 1270.42 2137.45 1270.28 Q2140.24 1270.18 2141.72 1267.77 Q2143.05 1265.52 2143.05 1262.31 Q2143.05 1259.39 2141.65 1258.17 Q2140.26 1256.93 2138.46 1256.93 Q2136.77 1256.93 2134.92 1257.63 Q2133.07 1258.33 2132.07 1259.9 Q2135.04 1259.9 2135.04 1262.31 Q2135.04 1263.37 2134.36 1264.07 Q2133.7 1264.75 2132.6 1264.75 Q2131.55 1264.75 2130.85 1264.09 Q2130.14 1263.41 2130.14 1262.27 Q2130.14 1259.53 2132.58 1257.63 Q2135.04 1255.73 2138.65 1255.73 Q2142.21 1255.73 2144.83 1257.61 Q2147.48 1259.48 2147.48 1262.36 Q2147.48 1265.19 2145.6 1267.51 Q2143.73 1269.83 2140.76 1270.79 Q2144.41 1271.52 2146.59 1274 Q2148.77 1276.46 2148.77 1279.48 Q2148.77 1283.23 2145.81 1285.99 Q2142.86 1288.73 2138.55 1288.73 Q2134.57 1288.73 2131.71 1286.58 Q2128.86 1284.42 2128.86 1281.22 Z" fill="#000000" fill-rule="evenodd" fill-opacity="1" /><path clip-path="url(#clip820)" d="M 0 0 M2152.61 1280.44 Q2152.61 1275.08 2159.52 1271.61 Q2156.54 1269.6 2156 1269.01 Q2153.89 1266.67 2153.89 1263.74 Q2153.89 1260.39 2156.42 1258.07 Q2158.98 1255.73 2162.58 1255.73 Q2166.03 1255.73 2168.63 1257.72 Q2171.23 1259.71 2171.23 1262.88 Q2171.23 1267.33 2165.42 1270.32 Q2169.26 1272.71 2170.17 1273.72 Q2172.52 1276.32 2172.52 1279.62 Q2172.52 1283.46 2169.56 1286.11 Q2166.61 1288.73 2162.54 1288.73 Q2158.56 1288.73 2155.58 1286.42 Q2152.61 1284.1 2152.61 1280.44 M2155 1280.44 Q2155 1283.42 2157.22 1285.41 Q2159.47 1287.4 2162.58 1287.4 Q2165.61 1287.4 2167.85 1285.67 Q2170.13 1283.93 2170.13 1281.36 Q2170.13 1280.35 2169.78 1279.48 Q2169.45 1278.62 2168.77 1277.94 Q2168.11 1277.23 2167.69 1276.93 Q2167.29 1276.6 2166.52 1276.06 L2160.62 1272.34 Q2155 1275.45 2155 1280.44 M2156 1261.87 Q2156 1264.16 2158.42 1265.76 L2164.36 1269.6 Q2169.12 1266.81 2169.12 1262.88 Q2169.12 1260.32 2167.18 1258.64 Q2165.23 1256.93 2162.54 1256.93 Q2159.89 1256.93 2157.95 1258.33 Q2156 1259.71 2156 1261.87 Z" fill="#000000" fill-rule="evenodd" fill-opacity="1" /><path clip-path="url(#clip820)" d="M 0 0 M2177.08 1286.91 Q2176.36 1286.13 2176.36 1285.13 Q2176.36 1284.12 2177.08 1283.39 Q2177.81 1282.64 2178.91 1282.64 Q2179.96 1282.64 2180.67 1283.35 Q2181.39 1284.03 2181.39 1285.15 Q2181.39 1286.25 2180.62 1286.98 Q2179.87 1287.68 2178.91 1287.68 Q2177.81 1287.68 2177.08 1286.91 Z" fill="#000000" fill-rule="evenodd" fill-opacity="1" /><path clip-path="url(#clip820)" d="M 0 0 M2189.55 1265.12 L2191.12 1255.26 L2192.32 1255.26 Q2192.46 1255.85 2192.69 1256.11 Q2192.95 1256.36 2194.31 1256.58 Q2195.69 1256.79 2198.48 1256.79 L2210.12 1256.79 Q2210.12 1257.89 2209.7 1258.47 L2203.21 1267.58 Q2201.15 1270.46 2200.23 1275.78 Q2199.7 1279.34 2199.72 1283.65 L2199.72 1286.09 Q2199.72 1288.73 2197.49 1288.73 Q2195.29 1288.73 2195.29 1286.09 Q2195.29 1276.93 2201.19 1268.05 Q2201.83 1267.14 2204.15 1263.88 Q2206.49 1260.63 2206.58 1260.49 L2196.65 1260.49 Q2192.29 1260.49 2191.94 1260.77 Q2191.47 1261.19 2190.75 1265.12 L2189.55 1265.12 Z" fill="#000000" fill-rule="evenodd" fill-opacity="1" /><path clip-path="url(#clip820)" d="M 0 0 M2209.8 1279.95 Q2209.8 1278.52 2210.58 1277.98 Q2211.35 1277.42 2212.17 1277.42 Q2213.27 1277.42 2213.9 1278.12 Q2214.56 1278.8 2214.56 1279.76 Q2214.56 1280.72 2213.9 1281.43 Q2213.27 1282.11 2212.17 1282.11 Q2211.63 1282.11 2211.35 1282.01 Q2211.98 1284.21 2213.9 1285.81 Q2215.85 1287.4 2218.4 1287.4 Q2221.61 1287.4 2223.53 1284.28 Q2224.68 1282.27 2224.68 1277.7 Q2224.68 1273.67 2223.81 1271.66 Q2222.48 1268.59 2219.73 1268.59 Q2215.85 1268.59 2213.55 1271.94 Q2213.27 1272.36 2212.94 1272.39 Q2212.47 1272.39 2212.36 1272.13 Q2212.26 1271.85 2212.26 1271.12 L2212.26 1256.93 Q2212.26 1255.78 2212.73 1255.78 Q2212.92 1255.78 2213.32 1255.92 Q2216.34 1257.25 2219.69 1257.28 Q2223.13 1257.28 2226.22 1255.87 Q2226.46 1255.73 2226.6 1255.73 Q2227.07 1255.73 2227.09 1256.27 Q2227.09 1256.46 2226.69 1257.02 Q2226.32 1257.56 2225.5 1258.29 Q2224.68 1258.99 2223.62 1259.67 Q2222.57 1260.35 2221.02 1260.81 Q2219.5 1261.26 2217.81 1261.26 Q2215.8 1261.26 2213.74 1260.63 L2213.74 1269.97 Q2216.22 1267.54 2219.83 1267.54 Q2223.67 1267.54 2226.32 1270.63 Q2228.96 1273.72 2228.96 1278.03 Q2228.96 1282.55 2225.82 1285.64 Q2222.71 1288.73 2218.49 1288.73 Q2214.65 1288.73 2212.22 1285.99 Q2209.8 1283.25 2209.8 1279.95 Z" fill="#000000" fill-rule="evenodd" fill-opacity="1" /><polyline clip-path="url(#clip820)" style="stroke:#71008e; stroke-width:4; stroke-opacity:1; fill:none" points="
  1870.68,1332.61 2013.72,1332.61 
  "/>
<path clip-path="url(#clip820)" d="M 0 0 M2070.19 1316.21 Q2070.19 1316.66 2070.09 1317.03 L2068.78 1325.37 Q2068.71 1326 2068.57 1326.24 Q2068.46 1326.47 2068.08 1326.47 Q2067.49 1326.47 2067.49 1325.86 Q2067.49 1325.51 2067.64 1324.95 Q2068.03 1322.3 2068.03 1321.11 Q2068.03 1320.31 2067.87 1319.73 Q2067.73 1319.12 2067.49 1318.69 Q2067.28 1318.27 2066.79 1317.99 Q2066.3 1317.71 2065.83 1317.55 Q2065.36 1317.38 2064.52 1317.31 Q2063.68 1317.22 2062.95 1317.2 Q2062.22 1317.17 2061.03 1317.17 Q2058.43 1317.17 2058.01 1317.27 Q2057.56 1317.38 2057.33 1317.73 Q2057.12 1318.06 2056.88 1319.05 L2050.51 1344.51 L2050.33 1345.51 Q2050.33 1346.08 2050.68 1346.26 Q2051.03 1346.45 2052.11 1346.57 Q2053.65 1346.68 2055.17 1346.68 Q2055.22 1346.68 2055.32 1346.68 Q2055.83 1346.68 2056.04 1346.71 Q2056.25 1346.71 2056.46 1346.75 Q2056.67 1346.8 2056.72 1346.92 Q2056.79 1347.01 2056.79 1347.2 Q2056.79 1347.64 2056.6 1347.88 Q2056.42 1348.09 2056.23 1348.14 Q2056.06 1348.16 2055.74 1348.16 Q2055.08 1348.16 2053.68 1348.11 Q2052.27 1348.07 2051.57 1348.07 L2047.59 1348.02 L2043.51 1348.07 Q2042.88 1348.07 2041.54 1348.11 Q2040.21 1348.16 2039.58 1348.16 Q2038.76 1348.16 2038.76 1347.57 Q2038.76 1346.92 2039.06 1346.8 Q2039.39 1346.68 2040.77 1346.68 Q2042.71 1346.68 2043.77 1346.59 Q2044.82 1346.5 2045.38 1346.17 Q2045.97 1345.84 2046.13 1345.51 Q2046.3 1345.16 2046.48 1344.37 L2052.93 1318.77 Q2053.11 1318.2 2053.11 1317.76 Q2053.11 1317.52 2053.04 1317.43 Q2053 1317.34 2052.69 1317.27 Q2052.39 1317.17 2051.75 1317.17 L2049.88 1317.17 Q2047.96 1317.17 2046.77 1317.27 Q2045.59 1317.34 2044.47 1317.69 Q2043.37 1318.04 2042.71 1318.53 Q2042.08 1319.02 2041.38 1320.03 Q2040.68 1321.04 2040.16 1322.25 Q2039.67 1323.47 2038.97 1325.46 Q2038.73 1326.12 2038.59 1326.31 Q2038.47 1326.47 2038.15 1326.47 Q2037.91 1326.47 2037.72 1326.33 Q2037.56 1326.17 2037.56 1325.96 Q2037.8 1325.18 2037.84 1325.09 L2040.72 1316.63 Q2040.96 1315.95 2041.17 1315.84 Q2041.4 1315.7 2042.27 1315.7 L2068.88 1315.7 Q2069.3 1315.7 2069.44 1315.7 Q2069.58 1315.7 2069.81 1315.74 Q2070.05 1315.79 2070.12 1315.91 Q2070.19 1316.02 2070.19 1316.21 Z" fill="#000000" fill-rule="evenodd" fill-opacity="1" /><path clip-path="url(#clip820)" d="M 0 0 M2078.6 1340.88 Q2078.65 1340.29 2079.57 1340.29 L2108.96 1340.29 Q2110.34 1340.29 2110.37 1340.83 Q2110.37 1341.41 2109.05 1341.39 L2079.89 1341.39 Q2078.6 1341.41 2078.6 1340.88 M2078.6 1331.51 Q2078.6 1330.92 2079.61 1330.94 L2108.91 1330.94 Q2110.34 1330.94 2110.37 1331.51 Q2110.37 1332.05 2109.15 1332.05 L2079.57 1332.05 Q2078.6 1332.05 2078.6 1331.51 Z" fill="#000000" fill-rule="evenodd" fill-opacity="1" /><path clip-path="url(#clip820)" d="M 0 0 M2128.86 1340.43 Q2128.86 1339 2129.63 1338.46 Q2130.4 1337.9 2131.22 1337.9 Q2132.32 1337.9 2132.96 1338.6 Q2133.61 1339.28 2133.61 1340.24 Q2133.61 1341.2 2132.96 1341.91 Q2132.32 1342.59 2131.22 1342.59 Q2130.68 1342.59 2130.4 1342.49 Q2131.03 1344.69 2132.96 1346.29 Q2134.9 1347.88 2137.45 1347.88 Q2140.66 1347.88 2142.58 1344.76 Q2143.73 1342.75 2143.73 1338.18 Q2143.73 1334.15 2142.86 1332.14 Q2141.53 1329.07 2138.79 1329.07 Q2134.9 1329.07 2132.6 1332.42 Q2132.32 1332.84 2132 1332.87 Q2131.53 1332.87 2131.41 1332.61 Q2131.32 1332.33 2131.32 1331.6 L2131.32 1317.41 Q2131.32 1316.26 2131.78 1316.26 Q2131.97 1316.26 2132.37 1316.4 Q2135.39 1317.73 2138.74 1317.76 Q2142.18 1317.76 2145.28 1316.35 Q2145.51 1316.21 2145.65 1316.21 Q2146.12 1316.21 2146.14 1316.75 Q2146.14 1316.94 2145.74 1317.5 Q2145.37 1318.04 2144.55 1318.77 Q2143.73 1319.47 2142.68 1320.15 Q2141.62 1320.83 2140.08 1321.29 Q2138.55 1321.74 2136.87 1321.74 Q2134.85 1321.74 2132.79 1321.11 L2132.79 1330.45 Q2135.27 1328.02 2138.88 1328.02 Q2142.72 1328.02 2145.37 1331.11 Q2148.02 1334.2 2148.02 1338.51 Q2148.02 1343.03 2144.88 1346.12 Q2141.76 1349.21 2137.55 1349.21 Q2133.7 1349.21 2131.27 1346.47 Q2128.86 1343.73 2128.86 1340.43 Z" fill="#000000" fill-rule="evenodd" fill-opacity="1" /><path clip-path="url(#clip820)" d="M 0 0 M2152.61 1332.82 Q2152.61 1325.77 2154.39 1321.93 Q2156.87 1316.21 2162.73 1316.21 Q2163.97 1316.21 2165.25 1316.56 Q2166.57 1316.89 2168.21 1318.18 Q2169.87 1319.47 2170.88 1321.58 Q2172.8 1325.65 2172.8 1332.82 Q2172.8 1339.82 2171.02 1343.64 Q2168.42 1349.21 2162.68 1349.21 Q2160.52 1349.21 2158.32 1348.11 Q2156.14 1347.01 2154.76 1344.37 Q2152.61 1340.41 2152.61 1332.82 M2156.59 1332.23 Q2156.59 1339.47 2157.1 1342.35 Q2157.69 1345.47 2159.28 1346.83 Q2160.9 1348.16 2162.68 1348.16 Q2164.6 1348.16 2166.19 1346.73 Q2167.81 1345.28 2168.3 1342.16 Q2168.84 1339.1 2168.81 1332.23 Q2168.81 1325.56 2168.35 1322.89 Q2167.71 1319.77 2166.03 1318.53 Q2164.36 1317.27 2162.68 1317.27 Q2162.05 1317.27 2161.37 1317.45 Q2160.71 1317.64 2159.75 1318.18 Q2158.79 1318.72 2158.04 1320.05 Q2157.31 1321.39 2156.96 1323.4 Q2156.59 1326 2156.59 1332.23 Z" fill="#000000" fill-rule="evenodd" fill-opacity="1" /><path clip-path="url(#clip820)" d="M 0 0 M2177.08 1347.39 Q2176.36 1346.61 2176.36 1345.61 Q2176.36 1344.6 2177.08 1343.87 Q2177.81 1343.12 2178.91 1343.12 Q2179.96 1343.12 2180.67 1343.83 Q2181.39 1344.51 2181.39 1345.63 Q2181.39 1346.73 2180.62 1347.46 Q2179.87 1348.16 2178.91 1348.16 Q2177.81 1348.16 2177.08 1347.39 Z" fill="#000000" fill-rule="evenodd" fill-opacity="1" /><path clip-path="url(#clip820)" d="M 0 0 M2189.55 1332.82 Q2189.55 1325.77 2191.33 1321.93 Q2193.82 1316.21 2199.67 1316.21 Q2200.91 1316.21 2202.2 1316.56 Q2203.51 1316.89 2205.15 1318.18 Q2206.82 1319.47 2207.82 1321.58 Q2209.74 1325.65 2209.74 1332.82 Q2209.74 1339.82 2207.96 1343.64 Q2205.36 1349.21 2199.63 1349.21 Q2197.47 1349.21 2195.27 1348.11 Q2193.09 1347.01 2191.71 1344.37 Q2189.55 1340.41 2189.55 1332.82 M2193.54 1332.23 Q2193.54 1339.47 2194.05 1342.35 Q2194.64 1345.47 2196.23 1346.83 Q2197.85 1348.16 2199.63 1348.16 Q2201.55 1348.16 2203.14 1346.73 Q2204.75 1345.28 2205.25 1342.16 Q2205.79 1339.1 2205.76 1332.23 Q2205.76 1325.56 2205.29 1322.89 Q2204.66 1319.77 2202.97 1318.53 Q2201.31 1317.27 2199.63 1317.27 Q2198.99 1317.27 2198.31 1317.45 Q2197.66 1317.64 2196.7 1318.18 Q2195.74 1318.72 2194.99 1320.05 Q2194.26 1321.39 2193.91 1323.4 Q2193.54 1326 2193.54 1332.23 Z" fill="#000000" fill-rule="evenodd" fill-opacity="1" /></svg>
