<?xml version="1.0" encoding="utf-8"?>
<svg xmlns="http://www.w3.org/2000/svg" xmlns:xlink="http://www.w3.org/1999/xlink" width="600" height="400" viewBox="0 0 2400 1600">
<defs>
  <clipPath id="clip310">
    <rect x="0" y="0" width="2400" height="1600"/>
  </clipPath>
</defs>
<path clip-path="url(#clip310)" d="
M0 1600 L2400 1600 L2400 0 L0 0  Z
  " fill="#ffffff" fill-rule="evenodd" fill-opacity="1"/>
<defs>
  <clipPath id="clip311">
    <rect x="480" y="0" width="1681" height="1600"/>
  </clipPath>
</defs>
<defs>
  <clipPath id="clip312">
    <rect x="245" y="47" width="1755" height="1397"/>
  </clipPath>
</defs>
<path clip-path="url(#clip310)" d="
M284.854 1439.5 L1915.2 1439.5 L1915.2 47.2441 L284.854 47.2441  Z
  " fill="#ffffff" fill-rule="evenodd" fill-opacity="1"/>
<defs>
  <clipPath id="clip313">
    <rect x="284" y="47" width="1631" height="1393"/>
  </clipPath>
</defs>
<polyline clip-path="url(#clip313)" style="stroke:#000000; stroke-width:2; stroke-opacity:0.1; fill:none" points="
  327.914,1439.5 327.914,47.2441 
  "/>
<polyline clip-path="url(#clip313)" style="stroke:#000000; stroke-width:2; stroke-opacity:0.1; fill:none" points="
  636.142,1439.5 636.142,47.2441 
  "/>
<polyline clip-path="url(#clip313)" style="stroke:#000000; stroke-width:2; stroke-opacity:0.1; fill:none" points="
  944.371,1439.5 944.371,47.2441 
  "/>
<polyline clip-path="url(#clip313)" style="stroke:#000000; stroke-width:2; stroke-opacity:0.1; fill:none" points="
  1252.6,1439.5 1252.6,47.2441 
  "/>
<polyline clip-path="url(#clip313)" style="stroke:#000000; stroke-width:2; stroke-opacity:0.1; fill:none" points="
  1560.83,1439.5 1560.83,47.2441 
  "/>
<polyline clip-path="url(#clip313)" style="stroke:#000000; stroke-width:2; stroke-opacity:0.1; fill:none" points="
  1869.06,1439.5 1869.06,47.2441 
  "/>
<polyline clip-path="url(#clip310)" style="stroke:#000000; stroke-width:4; stroke-opacity:1; fill:none" points="
  284.854,1439.5 1915.2,1439.5 
  "/>
<polyline clip-path="url(#clip310)" style="stroke:#000000; stroke-width:4; stroke-opacity:1; fill:none" points="
  327.914,1439.5 327.914,1422.79 
  "/>
<polyline clip-path="url(#clip310)" style="stroke:#000000; stroke-width:4; stroke-opacity:1; fill:none" points="
  636.142,1439.5 636.142,1422.79 
  "/>
<polyline clip-path="url(#clip310)" style="stroke:#000000; stroke-width:4; stroke-opacity:1; fill:none" points="
  944.371,1439.5 944.371,1422.79 
  "/>
<polyline clip-path="url(#clip310)" style="stroke:#000000; stroke-width:4; stroke-opacity:1; fill:none" points="
  1252.6,1439.5 1252.6,1422.79 
  "/>
<polyline clip-path="url(#clip310)" style="stroke:#000000; stroke-width:4; stroke-opacity:1; fill:none" points="
  1560.83,1439.5 1560.83,1422.79 
  "/>
<polyline clip-path="url(#clip310)" style="stroke:#000000; stroke-width:4; stroke-opacity:1; fill:none" points="
  1869.06,1439.5 1869.06,1422.79 
  "/>
<path clip-path="url(#clip310)" d="M 0 0 M327.914 1468.69 Q324.302 1468.69 322.474 1472.26 Q320.668 1475.8 320.668 1482.93 Q320.668 1490.04 322.474 1493.6 Q324.302 1497.14 327.914 1497.14 Q331.548 1497.14 333.353 1493.6 Q335.182 1490.04 335.182 1482.93 Q335.182 1475.8 333.353 1472.26 Q331.548 1468.69 327.914 1468.69 M327.914 1464.99 Q333.724 1464.99 336.779 1469.6 Q339.858 1474.18 339.858 1482.93 Q339.858 1491.66 336.779 1496.26 Q333.724 1500.85 327.914 1500.85 Q322.103 1500.85 319.025 1496.26 Q315.969 1491.66 315.969 1482.93 Q315.969 1474.18 319.025 1469.6 Q322.103 1464.99 327.914 1464.99 Z" fill="#000000" fill-rule="evenodd" fill-opacity="1" /><path clip-path="url(#clip310)" d="M 0 0 M595.749 1496.24 L603.388 1496.24 L603.388 1469.87 L595.078 1471.54 L595.078 1467.28 L603.341 1465.61 L608.017 1465.61 L608.017 1496.24 L615.656 1496.24 L615.656 1500.17 L595.749 1500.17 L595.749 1496.24 Z" fill="#000000" fill-rule="evenodd" fill-opacity="1" /><path clip-path="url(#clip310)" d="M 0 0 M635.1 1468.69 Q631.489 1468.69 629.661 1472.26 Q627.855 1475.8 627.855 1482.93 Q627.855 1490.04 629.661 1493.6 Q631.489 1497.14 635.1 1497.14 Q638.735 1497.14 640.54 1493.6 Q642.369 1490.04 642.369 1482.93 Q642.369 1475.8 640.54 1472.26 Q638.735 1468.69 635.1 1468.69 M635.1 1464.99 Q640.911 1464.99 643.966 1469.6 Q647.045 1474.18 647.045 1482.93 Q647.045 1491.66 643.966 1496.26 Q640.911 1500.85 635.1 1500.85 Q629.29 1500.85 626.212 1496.26 Q623.156 1491.66 623.156 1482.93 Q623.156 1474.18 626.212 1469.6 Q629.29 1464.99 635.1 1464.99 Z" fill="#000000" fill-rule="evenodd" fill-opacity="1" /><path clip-path="url(#clip310)" d="M 0 0 M665.262 1468.69 Q661.651 1468.69 659.823 1472.26 Q658.017 1475.8 658.017 1482.93 Q658.017 1490.04 659.823 1493.6 Q661.651 1497.14 665.262 1497.14 Q668.897 1497.14 670.702 1493.6 Q672.531 1490.04 672.531 1482.93 Q672.531 1475.8 670.702 1472.26 Q668.897 1468.69 665.262 1468.69 M665.262 1464.99 Q671.072 1464.99 674.128 1469.6 Q677.207 1474.18 677.207 1482.93 Q677.207 1491.66 674.128 1496.26 Q671.072 1500.85 665.262 1500.85 Q659.452 1500.85 656.373 1496.26 Q653.318 1491.66 653.318 1482.93 Q653.318 1474.18 656.373 1469.6 Q659.452 1464.99 665.262 1464.99 Z" fill="#000000" fill-rule="evenodd" fill-opacity="1" /><path clip-path="url(#clip310)" d="M 0 0 M908.063 1496.24 L924.382 1496.24 L924.382 1500.17 L902.438 1500.17 L902.438 1496.24 Q905.1 1493.48 909.683 1488.85 Q914.29 1484.2 915.47 1482.86 Q917.716 1480.34 918.595 1478.6 Q919.498 1476.84 919.498 1475.15 Q919.498 1472.4 917.554 1470.66 Q915.632 1468.92 912.531 1468.92 Q910.332 1468.92 907.878 1469.69 Q905.447 1470.45 902.67 1472 L902.67 1467.28 Q905.494 1466.15 907.947 1465.57 Q910.401 1464.99 912.438 1464.99 Q917.808 1464.99 921.003 1467.67 Q924.197 1470.36 924.197 1474.85 Q924.197 1476.98 923.387 1478.9 Q922.6 1480.8 920.494 1483.39 Q919.915 1484.06 916.813 1487.28 Q913.711 1490.47 908.063 1496.24 Z" fill="#000000" fill-rule="evenodd" fill-opacity="1" /><path clip-path="url(#clip310)" d="M 0 0 M944.197 1468.69 Q940.586 1468.69 938.757 1472.26 Q936.952 1475.8 936.952 1482.93 Q936.952 1490.04 938.757 1493.6 Q940.586 1497.14 944.197 1497.14 Q947.831 1497.14 949.637 1493.6 Q951.466 1490.04 951.466 1482.93 Q951.466 1475.8 949.637 1472.26 Q947.831 1468.69 944.197 1468.69 M944.197 1464.99 Q950.007 1464.99 953.063 1469.6 Q956.141 1474.18 956.141 1482.93 Q956.141 1491.66 953.063 1496.26 Q950.007 1500.85 944.197 1500.85 Q938.387 1500.85 935.308 1496.26 Q932.253 1491.66 932.253 1482.93 Q932.253 1474.18 935.308 1469.6 Q938.387 1464.99 944.197 1464.99 Z" fill="#000000" fill-rule="evenodd" fill-opacity="1" /><path clip-path="url(#clip310)" d="M 0 0 M974.359 1468.69 Q970.748 1468.69 968.919 1472.26 Q967.114 1475.8 967.114 1482.93 Q967.114 1490.04 968.919 1493.6 Q970.748 1497.14 974.359 1497.14 Q977.993 1497.14 979.799 1493.6 Q981.627 1490.04 981.627 1482.93 Q981.627 1475.8 979.799 1472.26 Q977.993 1468.69 974.359 1468.69 M974.359 1464.99 Q980.169 1464.99 983.225 1469.6 Q986.303 1474.18 986.303 1482.93 Q986.303 1491.66 983.225 1496.26 Q980.169 1500.85 974.359 1500.85 Q968.549 1500.85 965.47 1496.26 Q962.415 1491.66 962.415 1482.93 Q962.415 1474.18 965.47 1469.6 Q968.549 1464.99 974.359 1464.99 Z" fill="#000000" fill-rule="evenodd" fill-opacity="1" /><path clip-path="url(#clip310)" d="M 0 0 M1226.36 1481.54 Q1229.72 1482.26 1231.59 1484.53 Q1233.49 1486.79 1233.49 1490.13 Q1233.49 1495.24 1229.97 1498.04 Q1226.45 1500.85 1219.97 1500.85 Q1217.8 1500.85 1215.48 1500.41 Q1213.19 1499.99 1210.74 1499.13 L1210.74 1494.62 Q1212.68 1495.75 1215 1496.33 Q1217.31 1496.91 1219.83 1496.91 Q1224.23 1496.91 1226.52 1495.17 Q1228.84 1493.44 1228.84 1490.13 Q1228.84 1487.07 1226.69 1485.36 Q1224.56 1483.62 1220.74 1483.62 L1216.71 1483.62 L1216.71 1479.78 L1220.92 1479.78 Q1224.37 1479.78 1226.2 1478.41 Q1228.03 1477.03 1228.03 1474.43 Q1228.03 1471.77 1226.13 1470.36 Q1224.25 1468.92 1220.74 1468.92 Q1218.81 1468.92 1216.62 1469.34 Q1214.42 1469.76 1211.78 1470.64 L1211.78 1466.47 Q1214.44 1465.73 1216.75 1465.36 Q1219.09 1464.99 1221.15 1464.99 Q1226.48 1464.99 1229.58 1467.42 Q1232.68 1469.83 1232.68 1473.95 Q1232.68 1476.82 1231.04 1478.81 Q1229.39 1480.78 1226.36 1481.54 Z" fill="#000000" fill-rule="evenodd" fill-opacity="1" /><path clip-path="url(#clip310)" d="M 0 0 M1252.36 1468.69 Q1248.75 1468.69 1246.92 1472.26 Q1245.11 1475.8 1245.11 1482.93 Q1245.11 1490.04 1246.92 1493.6 Q1248.75 1497.14 1252.36 1497.14 Q1255.99 1497.14 1257.8 1493.6 Q1259.62 1490.04 1259.62 1482.93 Q1259.62 1475.8 1257.8 1472.26 Q1255.99 1468.69 1252.36 1468.69 M1252.36 1464.99 Q1258.17 1464.99 1261.22 1469.6 Q1264.3 1474.18 1264.3 1482.93 Q1264.3 1491.66 1261.22 1496.26 Q1258.17 1500.85 1252.36 1500.85 Q1246.55 1500.85 1243.47 1496.26 Q1240.41 1491.66 1240.41 1482.93 Q1240.41 1474.18 1243.47 1469.6 Q1246.55 1464.99 1252.36 1464.99 Z" fill="#000000" fill-rule="evenodd" fill-opacity="1" /><path clip-path="url(#clip310)" d="M 0 0 M1282.52 1468.69 Q1278.91 1468.69 1277.08 1472.26 Q1275.27 1475.8 1275.27 1482.93 Q1275.27 1490.04 1277.08 1493.6 Q1278.91 1497.14 1282.52 1497.14 Q1286.15 1497.14 1287.96 1493.6 Q1289.79 1490.04 1289.79 1482.93 Q1289.79 1475.8 1287.96 1472.26 Q1286.15 1468.69 1282.52 1468.69 M1282.52 1464.99 Q1288.33 1464.99 1291.38 1469.6 Q1294.46 1474.18 1294.46 1482.93 Q1294.46 1491.66 1291.38 1496.26 Q1288.33 1500.85 1282.52 1500.85 Q1276.71 1500.85 1273.63 1496.26 Q1270.57 1491.66 1270.57 1482.93 Q1270.57 1474.18 1273.63 1469.6 Q1276.71 1464.99 1282.52 1464.99 Z" fill="#000000" fill-rule="evenodd" fill-opacity="1" /><path clip-path="url(#clip310)" d="M 0 0 M1533.92 1469.69 L1522.11 1488.14 L1533.92 1488.14 L1533.92 1469.69 M1532.69 1465.61 L1538.57 1465.61 L1538.57 1488.14 L1543.5 1488.14 L1543.5 1492.03 L1538.57 1492.03 L1538.57 1500.17 L1533.92 1500.17 L1533.92 1492.03 L1518.32 1492.03 L1518.32 1487.51 L1532.69 1465.61 Z" fill="#000000" fill-rule="evenodd" fill-opacity="1" /><path clip-path="url(#clip310)" d="M 0 0 M1561.23 1468.69 Q1557.62 1468.69 1555.79 1472.26 Q1553.99 1475.8 1553.99 1482.93 Q1553.99 1490.04 1555.79 1493.6 Q1557.62 1497.14 1561.23 1497.14 Q1564.87 1497.14 1566.67 1493.6 Q1568.5 1490.04 1568.5 1482.93 Q1568.5 1475.8 1566.67 1472.26 Q1564.87 1468.69 1561.23 1468.69 M1561.23 1464.99 Q1567.04 1464.99 1570.1 1469.6 Q1573.18 1474.18 1573.18 1482.93 Q1573.18 1491.66 1570.1 1496.26 Q1567.04 1500.85 1561.23 1500.85 Q1555.42 1500.85 1552.34 1496.26 Q1549.29 1491.66 1549.29 1482.93 Q1549.29 1474.18 1552.34 1469.6 Q1555.42 1464.99 1561.23 1464.99 Z" fill="#000000" fill-rule="evenodd" fill-opacity="1" /><path clip-path="url(#clip310)" d="M 0 0 M1591.39 1468.69 Q1587.78 1468.69 1585.96 1472.26 Q1584.15 1475.8 1584.15 1482.93 Q1584.15 1490.04 1585.96 1493.6 Q1587.78 1497.14 1591.39 1497.14 Q1595.03 1497.14 1596.83 1493.6 Q1598.66 1490.04 1598.66 1482.93 Q1598.66 1475.8 1596.83 1472.26 Q1595.03 1468.69 1591.39 1468.69 M1591.39 1464.99 Q1597.21 1464.99 1600.26 1469.6 Q1603.34 1474.18 1603.34 1482.93 Q1603.34 1491.66 1600.26 1496.26 Q1597.21 1500.85 1591.39 1500.85 Q1585.58 1500.85 1582.51 1496.26 Q1579.45 1491.66 1579.45 1482.93 Q1579.45 1474.18 1582.51 1469.6 Q1585.58 1464.99 1591.39 1464.99 Z" fill="#000000" fill-rule="evenodd" fill-opacity="1" /><path clip-path="url(#clip310)" d="M 0 0 M1828.67 1465.61 L1847.03 1465.61 L1847.03 1469.55 L1832.96 1469.55 L1832.96 1478.02 Q1833.98 1477.67 1834.99 1477.51 Q1836.01 1477.33 1837.03 1477.33 Q1842.82 1477.33 1846.2 1480.5 Q1849.58 1483.67 1849.58 1489.09 Q1849.58 1494.66 1846.11 1497.77 Q1842.63 1500.85 1836.31 1500.85 Q1834.14 1500.85 1831.87 1500.47 Q1829.62 1500.1 1827.22 1499.36 L1827.22 1494.66 Q1829.3 1495.8 1831.52 1496.35 Q1833.74 1496.91 1836.22 1496.91 Q1840.23 1496.91 1842.56 1494.8 Q1844.9 1492.7 1844.9 1489.09 Q1844.9 1485.47 1842.56 1483.37 Q1840.23 1481.26 1836.22 1481.26 Q1834.35 1481.26 1832.47 1481.68 Q1830.62 1482.1 1828.67 1482.97 L1828.67 1465.61 Z" fill="#000000" fill-rule="evenodd" fill-opacity="1" /><path clip-path="url(#clip310)" d="M 0 0 M1868.79 1468.69 Q1865.18 1468.69 1863.35 1472.26 Q1861.54 1475.8 1861.54 1482.93 Q1861.54 1490.04 1863.35 1493.6 Q1865.18 1497.14 1868.79 1497.14 Q1872.42 1497.14 1874.23 1493.6 Q1876.06 1490.04 1876.06 1482.93 Q1876.06 1475.8 1874.23 1472.26 Q1872.42 1468.69 1868.79 1468.69 M1868.79 1464.99 Q1874.6 1464.99 1877.66 1469.6 Q1880.73 1474.18 1880.73 1482.93 Q1880.73 1491.66 1877.66 1496.26 Q1874.6 1500.85 1868.79 1500.85 Q1862.98 1500.85 1859.9 1496.26 Q1856.85 1491.66 1856.85 1482.93 Q1856.85 1474.18 1859.9 1469.6 Q1862.98 1464.99 1868.79 1464.99 Z" fill="#000000" fill-rule="evenodd" fill-opacity="1" /><path clip-path="url(#clip310)" d="M 0 0 M1898.95 1468.69 Q1895.34 1468.69 1893.51 1472.26 Q1891.71 1475.8 1891.71 1482.93 Q1891.71 1490.04 1893.51 1493.6 Q1895.34 1497.14 1898.95 1497.14 Q1902.59 1497.14 1904.39 1493.6 Q1906.22 1490.04 1906.22 1482.93 Q1906.22 1475.8 1904.39 1472.26 Q1902.59 1468.69 1898.95 1468.69 M1898.95 1464.99 Q1904.76 1464.99 1907.82 1469.6 Q1910.9 1474.18 1910.9 1482.93 Q1910.9 1491.66 1907.82 1496.26 Q1904.76 1500.85 1898.95 1500.85 Q1893.14 1500.85 1890.06 1496.26 Q1887.01 1491.66 1887.01 1482.93 Q1887.01 1474.18 1890.06 1469.6 Q1893.14 1464.99 1898.95 1464.99 Z" fill="#000000" fill-rule="evenodd" fill-opacity="1" /><path clip-path="url(#clip310)" d="M 0 0 M1111.96 1535.75 Q1111.96 1541.16 1110.22 1547.24 Q1108.51 1553.3 1105.81 1558.19 Q1103.1 1563.06 1099.56 1566.28 Q1096.02 1569.47 1092.64 1569.47 Q1090.48 1569.47 1088.87 1568.27 Q1087.29 1567.05 1086.42 1565.02 Q1085.55 1562.96 1085.13 1560.71 Q1084.71 1558.42 1084.71 1555.94 Q1084.71 1552.24 1085.52 1548.21 Q1086.33 1544.15 1087.68 1540.48 Q1089.03 1536.78 1090.93 1533.43 Q1092.83 1530.05 1094.92 1527.6 Q1097.05 1525.12 1099.43 1523.67 Q1101.82 1522.22 1104.04 1522.22 Q1105.65 1522.22 1106.94 1522.93 Q1108.26 1523.6 1109.09 1524.8 Q1109.93 1525.96 1110.51 1527.34 Q1111.12 1528.73 1111.41 1530.34 Q1111.7 1531.91 1111.83 1533.23 Q1111.96 1534.52 1111.96 1535.75 M1107.61 1531.66 Q1107.61 1530.01 1107.48 1528.79 Q1107.36 1527.53 1107 1526.28 Q1106.65 1525.02 1105.87 1524.35 Q1105.13 1523.67 1103.97 1523.67 Q1100.59 1523.67 1096.79 1530.59 Q1095.57 1532.75 1094.47 1535.68 Q1093.38 1538.61 1092.99 1540 Q1092.61 1541.38 1091.7 1544.8 L1105.49 1544.8 Q1107.61 1536 1107.61 1531.66 M1104.91 1546.89 L1091.19 1546.89 Q1089.06 1554.94 1089.06 1559.96 Q1089.06 1564.34 1089.96 1566.18 Q1090.9 1567.98 1092.64 1567.98 Q1094.63 1567.98 1096.5 1565.99 Q1098.37 1563.96 1100.27 1560.29 Q1102.78 1555.52 1104.91 1546.89 Z" fill="#000000" fill-rule="evenodd" fill-opacity="1" /><polyline clip-path="url(#clip313)" style="stroke:#000000; stroke-width:2; stroke-opacity:0.1; fill:none" points="
  284.854,1249.98 1915.2,1249.98 
  "/>
<polyline clip-path="url(#clip313)" style="stroke:#000000; stroke-width:2; stroke-opacity:0.1; fill:none" points="
  284.854,1032.13 1915.2,1032.13 
  "/>
<polyline clip-path="url(#clip313)" style="stroke:#000000; stroke-width:2; stroke-opacity:0.1; fill:none" points="
  284.854,814.274 1915.2,814.274 
  "/>
<polyline clip-path="url(#clip313)" style="stroke:#000000; stroke-width:2; stroke-opacity:0.1; fill:none" points="
  284.854,596.42 1915.2,596.42 
  "/>
<polyline clip-path="url(#clip313)" style="stroke:#000000; stroke-width:2; stroke-opacity:0.1; fill:none" points="
  284.854,378.566 1915.2,378.566 
  "/>
<polyline clip-path="url(#clip313)" style="stroke:#000000; stroke-width:2; stroke-opacity:0.1; fill:none" points="
  284.854,160.712 1915.2,160.712 
  "/>
<polyline clip-path="url(#clip310)" style="stroke:#000000; stroke-width:4; stroke-opacity:1; fill:none" points="
  284.854,1439.5 284.854,47.2441 
  "/>
<polyline clip-path="url(#clip310)" style="stroke:#000000; stroke-width:4; stroke-opacity:1; fill:none" points="
  284.854,1249.98 304.418,1249.98 
  "/>
<polyline clip-path="url(#clip310)" style="stroke:#000000; stroke-width:4; stroke-opacity:1; fill:none" points="
  284.854,1032.13 304.418,1032.13 
  "/>
<polyline clip-path="url(#clip310)" style="stroke:#000000; stroke-width:4; stroke-opacity:1; fill:none" points="
  284.854,814.274 304.418,814.274 
  "/>
<polyline clip-path="url(#clip310)" style="stroke:#000000; stroke-width:4; stroke-opacity:1; fill:none" points="
  284.854,596.42 304.418,596.42 
  "/>
<polyline clip-path="url(#clip310)" style="stroke:#000000; stroke-width:4; stroke-opacity:1; fill:none" points="
  284.854,378.566 304.418,378.566 
  "/>
<polyline clip-path="url(#clip310)" style="stroke:#000000; stroke-width:4; stroke-opacity:1; fill:none" points="
  284.854,160.712 304.418,160.712 
  "/>
<path clip-path="url(#clip310)" d="M 0 0 M142.003 1250.43 L171.678 1250.43 L171.678 1254.37 L142.003 1254.37 L142.003 1250.43 Z" fill="#000000" fill-rule="evenodd" fill-opacity="1" /><path clip-path="url(#clip310)" d="M 0 0 M191.771 1235.78 Q188.16 1235.78 186.331 1239.35 Q184.526 1242.89 184.526 1250.02 Q184.526 1257.12 186.331 1260.69 Q188.16 1264.23 191.771 1264.23 Q195.405 1264.23 197.211 1260.69 Q199.039 1257.12 199.039 1250.02 Q199.039 1242.89 197.211 1239.35 Q195.405 1235.78 191.771 1235.78 M191.771 1232.08 Q197.581 1232.08 200.637 1236.68 Q203.715 1241.27 203.715 1250.02 Q203.715 1258.74 200.637 1263.35 Q197.581 1267.93 191.771 1267.93 Q185.961 1267.93 182.882 1263.35 Q179.827 1258.74 179.827 1250.02 Q179.827 1241.27 182.882 1236.68 Q185.961 1232.08 191.771 1232.08 Z" fill="#000000" fill-rule="evenodd" fill-opacity="1" /><path clip-path="url(#clip310)" d="M 0 0 M211.933 1261.38 L216.817 1261.38 L216.817 1267.26 L211.933 1267.26 L211.933 1261.38 Z" fill="#000000" fill-rule="evenodd" fill-opacity="1" /><path clip-path="url(#clip310)" d="M 0 0 M237.002 1250.85 Q233.669 1250.85 231.748 1252.63 Q229.849 1254.42 229.849 1257.54 Q229.849 1260.67 231.748 1262.45 Q233.669 1264.23 237.002 1264.23 Q240.336 1264.23 242.257 1262.45 Q244.178 1260.64 244.178 1257.54 Q244.178 1254.42 242.257 1252.63 Q240.359 1250.85 237.002 1250.85 M232.326 1248.86 Q229.317 1248.12 227.627 1246.06 Q225.961 1244 225.961 1241.04 Q225.961 1236.89 228.9 1234.48 Q231.863 1232.08 237.002 1232.08 Q242.164 1232.08 245.104 1234.48 Q248.044 1236.89 248.044 1241.04 Q248.044 1244 246.354 1246.06 Q244.687 1248.12 241.701 1248.86 Q245.081 1249.65 246.956 1251.94 Q248.854 1254.23 248.854 1257.54 Q248.854 1262.56 245.775 1265.25 Q242.72 1267.93 237.002 1267.93 Q231.285 1267.93 228.206 1265.25 Q225.15 1262.56 225.15 1257.54 Q225.15 1254.23 227.049 1251.94 Q228.947 1249.65 232.326 1248.86 M230.613 1241.48 Q230.613 1244.16 232.28 1245.67 Q233.97 1247.17 237.002 1247.17 Q240.011 1247.17 241.701 1245.67 Q243.414 1244.16 243.414 1241.48 Q243.414 1238.79 241.701 1237.29 Q240.011 1235.78 237.002 1235.78 Q233.97 1235.78 232.28 1237.29 Q230.613 1238.79 230.613 1241.48 Z" fill="#000000" fill-rule="evenodd" fill-opacity="1" /><path clip-path="url(#clip310)" d="M 0 0 M142.813 1032.58 L172.489 1032.58 L172.489 1036.52 L142.813 1036.52 L142.813 1032.58 Z" fill="#000000" fill-rule="evenodd" fill-opacity="1" /><path clip-path="url(#clip310)" d="M 0 0 M192.581 1017.93 Q188.97 1017.93 187.141 1021.49 Q185.336 1025.03 185.336 1032.16 Q185.336 1039.27 187.141 1042.83 Q188.97 1046.38 192.581 1046.38 Q196.215 1046.38 198.021 1042.83 Q199.85 1039.27 199.85 1032.16 Q199.85 1025.03 198.021 1021.49 Q196.215 1017.93 192.581 1017.93 M192.581 1014.22 Q198.391 1014.22 201.447 1018.83 Q204.526 1023.41 204.526 1032.16 Q204.526 1040.89 201.447 1045.5 Q198.391 1050.08 192.581 1050.08 Q186.771 1050.08 183.692 1045.5 Q180.637 1040.89 180.637 1032.16 Q180.637 1023.41 183.692 1018.83 Q186.771 1014.22 192.581 1014.22 Z" fill="#000000" fill-rule="evenodd" fill-opacity="1" /><path clip-path="url(#clip310)" d="M 0 0 M212.743 1043.53 L217.627 1043.53 L217.627 1049.41 L212.743 1049.41 L212.743 1043.53 Z" fill="#000000" fill-rule="evenodd" fill-opacity="1" /><path clip-path="url(#clip310)" d="M 0 0 M226.632 1014.85 L248.854 1014.85 L248.854 1016.84 L236.308 1049.41 L231.424 1049.41 L243.229 1018.78 L226.632 1018.78 L226.632 1014.85 Z" fill="#000000" fill-rule="evenodd" fill-opacity="1" /><path clip-path="url(#clip310)" d="M 0 0 M141.748 814.726 L171.424 814.726 L171.424 818.661 L141.748 818.661 L141.748 814.726 Z" fill="#000000" fill-rule="evenodd" fill-opacity="1" /><path clip-path="url(#clip310)" d="M 0 0 M191.516 800.073 Q187.905 800.073 186.077 803.638 Q184.271 807.18 184.271 814.309 Q184.271 821.416 186.077 824.98 Q187.905 828.522 191.516 828.522 Q195.151 828.522 196.956 824.98 Q198.785 821.416 198.785 814.309 Q198.785 807.18 196.956 803.638 Q195.151 800.073 191.516 800.073 M191.516 796.369 Q197.326 796.369 200.382 800.976 Q203.461 805.559 203.461 814.309 Q203.461 823.036 200.382 827.642 Q197.326 832.226 191.516 832.226 Q185.706 832.226 182.627 827.642 Q179.572 823.036 179.572 814.309 Q179.572 805.559 182.627 800.976 Q185.706 796.369 191.516 796.369 Z" fill="#000000" fill-rule="evenodd" fill-opacity="1" /><path clip-path="url(#clip310)" d="M 0 0 M211.678 825.675 L216.562 825.675 L216.562 831.554 L211.678 831.554 L211.678 825.675 Z" fill="#000000" fill-rule="evenodd" fill-opacity="1" /><path clip-path="url(#clip310)" d="M 0 0 M237.326 812.411 Q234.178 812.411 232.326 814.564 Q230.498 816.717 230.498 820.467 Q230.498 824.193 232.326 826.369 Q234.178 828.522 237.326 828.522 Q240.474 828.522 242.303 826.369 Q244.155 824.193 244.155 820.467 Q244.155 816.717 242.303 814.564 Q240.474 812.411 237.326 812.411 M246.609 797.758 L246.609 802.018 Q244.849 801.184 243.044 800.744 Q241.261 800.305 239.502 800.305 Q234.873 800.305 232.419 803.43 Q229.988 806.555 229.641 812.874 Q231.007 810.86 233.067 809.795 Q235.127 808.707 237.604 808.707 Q242.812 808.707 245.822 811.879 Q248.854 815.027 248.854 820.467 Q248.854 825.791 245.706 829.008 Q242.558 832.226 237.326 832.226 Q231.331 832.226 228.16 827.642 Q224.988 823.036 224.988 814.309 Q224.988 806.115 228.877 801.254 Q232.766 796.369 239.317 796.369 Q241.076 796.369 242.859 796.717 Q244.664 797.064 246.609 797.758 Z" fill="#000000" fill-rule="evenodd" fill-opacity="1" /><path clip-path="url(#clip310)" d="M 0 0 M142.905 596.872 L172.581 596.872 L172.581 600.807 L142.905 600.807 L142.905 596.872 Z" fill="#000000" fill-rule="evenodd" fill-opacity="1" /><path clip-path="url(#clip310)" d="M 0 0 M192.674 582.219 Q189.063 582.219 187.234 585.784 Q185.428 589.326 185.428 596.455 Q185.428 603.562 187.234 607.126 Q189.063 610.668 192.674 610.668 Q196.308 610.668 198.114 607.126 Q199.942 603.562 199.942 596.455 Q199.942 589.326 198.114 585.784 Q196.308 582.219 192.674 582.219 M192.674 578.515 Q198.484 578.515 201.539 583.122 Q204.618 587.705 204.618 596.455 Q204.618 605.182 201.539 609.788 Q198.484 614.372 192.674 614.372 Q186.864 614.372 183.785 609.788 Q180.729 605.182 180.729 596.455 Q180.729 587.705 183.785 583.122 Q186.864 578.515 192.674 578.515 Z" fill="#000000" fill-rule="evenodd" fill-opacity="1" /><path clip-path="url(#clip310)" d="M 0 0 M212.836 607.821 L217.72 607.821 L217.72 613.7 L212.836 613.7 L212.836 607.821 Z" fill="#000000" fill-rule="evenodd" fill-opacity="1" /><path clip-path="url(#clip310)" d="M 0 0 M227.951 579.14 L246.308 579.14 L246.308 583.076 L232.234 583.076 L232.234 591.548 Q233.252 591.201 234.271 591.038 Q235.289 590.853 236.308 590.853 Q242.095 590.853 245.474 594.025 Q248.854 597.196 248.854 602.613 Q248.854 608.191 245.382 611.293 Q241.91 614.372 235.59 614.372 Q233.414 614.372 231.146 614.001 Q228.9 613.631 226.493 612.89 L226.493 608.191 Q228.576 609.325 230.799 609.881 Q233.021 610.437 235.498 610.437 Q239.502 610.437 241.84 608.33 Q244.178 606.224 244.178 602.613 Q244.178 599.001 241.84 596.895 Q239.502 594.788 235.498 594.788 Q233.623 594.788 231.748 595.205 Q229.896 595.622 227.951 596.501 L227.951 579.14 Z" fill="#000000" fill-rule="evenodd" fill-opacity="1" /><path clip-path="url(#clip310)" d="M 0 0 M141.424 379.018 L171.1 379.018 L171.1 382.953 L141.424 382.953 L141.424 379.018 Z" fill="#000000" fill-rule="evenodd" fill-opacity="1" /><path clip-path="url(#clip310)" d="M 0 0 M191.192 364.365 Q187.581 364.365 185.752 367.93 Q183.947 371.472 183.947 378.601 Q183.947 385.708 185.752 389.272 Q187.581 392.814 191.192 392.814 Q194.827 392.814 196.632 389.272 Q198.461 385.708 198.461 378.601 Q198.461 371.472 196.632 367.93 Q194.827 364.365 191.192 364.365 M191.192 360.661 Q197.002 360.661 200.058 365.268 Q203.137 369.851 203.137 378.601 Q203.137 387.328 200.058 391.934 Q197.002 396.518 191.192 396.518 Q185.382 396.518 182.303 391.934 Q179.248 387.328 179.248 378.601 Q179.248 369.851 182.303 365.268 Q185.382 360.661 191.192 360.661 Z" fill="#000000" fill-rule="evenodd" fill-opacity="1" /><path clip-path="url(#clip310)" d="M 0 0 M211.354 389.967 L216.238 389.967 L216.238 395.846 L211.354 395.846 L211.354 389.967 Z" fill="#000000" fill-rule="evenodd" fill-opacity="1" /><path clip-path="url(#clip310)" d="M 0 0 M239.271 365.36 L227.465 383.809 L239.271 383.809 L239.271 365.36 M238.044 361.286 L243.923 361.286 L243.923 383.809 L248.854 383.809 L248.854 387.698 L243.923 387.698 L243.923 395.846 L239.271 395.846 L239.271 387.698 L223.669 387.698 L223.669 383.184 L238.044 361.286 Z" fill="#000000" fill-rule="evenodd" fill-opacity="1" /><path clip-path="url(#clip310)" d="M 0 0 M142.558 161.164 L172.234 161.164 L172.234 165.099 L142.558 165.099 L142.558 161.164 Z" fill="#000000" fill-rule="evenodd" fill-opacity="1" /><path clip-path="url(#clip310)" d="M 0 0 M192.327 146.511 Q188.715 146.511 186.887 150.076 Q185.081 153.617 185.081 160.747 Q185.081 167.854 186.887 171.418 Q188.715 174.96 192.327 174.96 Q195.961 174.96 197.766 171.418 Q199.595 167.854 199.595 160.747 Q199.595 153.617 197.766 150.076 Q195.961 146.511 192.327 146.511 M192.327 142.807 Q198.137 142.807 201.192 147.414 Q204.271 151.997 204.271 160.747 Q204.271 169.474 201.192 174.08 Q198.137 178.664 192.327 178.664 Q186.516 178.664 183.438 174.08 Q180.382 169.474 180.382 160.747 Q180.382 151.997 183.438 147.414 Q186.516 142.807 192.327 142.807 Z" fill="#000000" fill-rule="evenodd" fill-opacity="1" /><path clip-path="url(#clip310)" d="M 0 0 M212.488 172.113 L217.373 172.113 L217.373 177.992 L212.488 177.992 L212.488 172.113 Z" fill="#000000" fill-rule="evenodd" fill-opacity="1" /><path clip-path="url(#clip310)" d="M 0 0 M241.724 159.358 Q245.081 160.076 246.956 162.344 Q248.854 164.613 248.854 167.946 Q248.854 173.062 245.335 175.863 Q241.817 178.664 235.336 178.664 Q233.16 178.664 230.845 178.224 Q228.553 177.807 226.099 176.951 L226.099 172.437 Q228.044 173.571 230.359 174.15 Q232.674 174.728 235.197 174.728 Q239.595 174.728 241.886 172.992 Q244.201 171.256 244.201 167.946 Q244.201 164.891 242.048 163.178 Q239.919 161.442 236.099 161.442 L232.072 161.442 L232.072 157.599 L236.285 157.599 Q239.734 157.599 241.562 156.233 Q243.391 154.844 243.391 152.252 Q243.391 149.59 241.493 148.178 Q239.618 146.743 236.099 146.743 Q234.178 146.743 231.979 147.159 Q229.78 147.576 227.141 148.455 L227.141 144.289 Q229.803 143.548 232.118 143.178 Q234.456 142.807 236.516 142.807 Q241.84 142.807 244.942 145.238 Q248.044 147.645 248.044 151.766 Q248.044 154.636 246.4 156.627 Q244.757 158.594 241.724 159.358 Z" fill="#000000" fill-rule="evenodd" fill-opacity="1" /><path clip-path="url(#clip310)" d="M 0 0 M53.6652 929.833 L70.0902 935.502 L70.0902 990.187 Q70.0902 990.928 70.058 991.218 Q70.0258 991.508 69.8648 991.733 Q69.7037 991.958 69.3495 991.958 Q69.0596 991.958 68.3189 991.379 L39.3658 967.965 L6.25819 992.023 Q4.74452 992.023 4.45466 991.765 Q4.13261 991.508 4.13261 990.187 L4.13261 935.502 L19.5592 929.833 L19.5592 931.476 Q17.5624 932.217 15.8877 933.408 Q14.1808 934.568 12.957 935.92 Q11.7332 937.241 10.767 938.98 Q9.76863 940.687 9.15672 942.297 Q8.5126 943.875 8.06172 945.84 Q7.57863 947.804 7.35319 949.382 Q7.09554 950.928 6.96672 952.861 Q6.8379 954.793 6.80569 956.017 Q6.77349 957.241 6.77349 958.786 L6.77349 984.905 L36.1774 963.489 Q36.9182 963.005 37.1114 963.005 Q37.4013 963.005 38.1742 963.617 L66.4509 986.483 L66.4509 958.464 Q66.4509 949.447 64.5508 943.167 Q63.1015 938.915 60.2352 935.824 Q57.3689 932.7 53.6652 931.476 L53.6652 929.833 Z" fill="#000000" fill-rule="evenodd" fill-opacity="1" /><path clip-path="url(#clip310)" d="M 0 0 M96.2324 1001.01 Q96.8636 1001.01 97.0215 1001.3 Q97.1567 1001.6 97.1567 1002.41 L97.1567 1006.74 L110.773 1010.16 Q111.968 1010.43 112.983 1010.43 Q114.11 1010.43 114.606 1010.1 Q115.102 1009.74 115.102 1008.99 Q115.102 1007.53 113.772 1005.95 Q112.442 1004.35 109.195 1002.99 Q108.767 1002.81 108.677 1002.72 Q108.564 1002.61 108.564 1002.32 Q108.564 1001.75 109.015 1001.75 Q109.173 1001.75 109.894 1002.07 Q110.616 1002.36 111.675 1003.02 Q112.735 1003.65 113.727 1004.48 Q114.719 1005.29 115.44 1006.53 Q116.139 1007.77 116.139 1009.1 Q116.139 1010.98 114.944 1012.17 Q113.749 1013.34 111.878 1013.34 Q111.269 1013.34 109.331 1012.87 Q107.369 1012.4 97.1567 1009.83 L97.1567 1013.91 Q97.1567 1014.47 97.1342 1014.7 Q97.1116 1014.9 96.9989 1015.06 Q96.8636 1015.19 96.5931 1015.19 Q96.1648 1015.19 95.9844 1015.01 Q95.7815 1014.83 95.759 1014.61 Q95.7139 1014.36 95.7139 1013.79 L95.7139 1009.47 L88.3871 1007.66 Q87.6657 1007.48 87.2599 1007.03 Q86.8315 1006.56 86.7864 1006.29 Q86.7188 1006.02 86.7188 1005.81 Q86.7188 1005.2 87.057 1004.84 Q87.3726 1004.48 87.9587 1004.48 Q88.2743 1004.48 95.7139 1006.38 L95.7139 1002.32 Q95.7139 1001.8 95.7364 1001.6 Q95.759 1001.37 95.8717 1001.19 Q95.9844 1001.01 96.2324 1001.01 Z" fill="#000000" fill-rule="evenodd" fill-opacity="1" /><path clip-path="url(#clip310)" d="M 0 0 M108.609 985.878 Q108.046 985.833 108.046 984.954 L108.046 956.661 Q108.046 955.331 108.564 955.309 Q109.128 955.309 109.105 956.571 L109.105 984.638 Q109.128 985.878 108.609 985.878 M99.5915 985.878 Q99.0279 985.878 99.0504 984.909 L99.0504 956.706 Q99.0504 955.331 99.5915 955.309 Q100.11 955.309 100.11 956.481 L100.11 984.954 Q100.11 985.878 99.5915 985.878 Z" fill="#000000" fill-rule="evenodd" fill-opacity="1" /><path clip-path="url(#clip310)" d="M 0 0 M100.854 937.496 Q94.0682 937.496 90.3709 935.783 Q84.8702 933.393 84.8702 927.757 Q84.8702 926.563 85.2083 925.323 Q85.524 924.06 86.7639 922.482 Q88.0038 920.881 90.0328 919.912 Q93.9555 918.063 100.854 918.063 Q107.595 918.063 111.269 919.777 Q116.635 922.279 116.635 927.803 Q116.635 929.877 115.575 931.996 Q114.516 934.092 111.968 935.422 Q108.158 937.496 100.854 937.496 M100.29 933.664 Q107.256 933.664 110.029 933.168 Q113.028 932.604 114.335 931.071 Q115.62 929.516 115.62 927.803 Q115.62 925.954 114.245 924.421 Q112.847 922.865 109.849 922.392 Q106.896 921.873 100.29 921.896 Q93.8653 921.896 91.2953 922.347 Q88.2969 922.956 87.102 924.579 Q85.8847 926.179 85.8847 927.803 Q85.8847 928.411 86.065 929.065 Q86.2454 929.696 86.7639 930.621 Q87.2824 931.545 88.5674 932.266 Q89.8524 932.965 91.7912 933.303 Q94.2936 933.664 100.29 933.664 Z" fill="#000000" fill-rule="evenodd" fill-opacity="1" /><path clip-path="url(#clip310)" d="M 0 0 M9.67201 862.729 Q10.2839 862.729 10.7992 862.858 L22.2645 864.661 Q23.1341 864.758 23.4561 864.951 Q23.7782 865.112 23.7782 865.627 Q23.7782 866.433 22.9408 866.433 Q22.4577 866.433 21.6848 866.239 Q18.0455 865.692 16.403 865.692 Q15.308 865.692 14.5029 865.917 Q13.6655 866.11 13.0858 866.433 Q12.5061 866.722 12.1197 867.399 Q11.7332 868.075 11.5077 868.719 Q11.2823 869.363 11.1857 870.523 Q11.0569 871.682 11.0247 872.68 Q10.9925 873.679 10.9925 875.321 Q10.9925 878.896 11.1213 879.476 Q11.2823 880.088 11.7654 880.41 Q12.2163 880.7 13.5689 881.022 L48.5767 889.782 L49.9615 890.039 Q50.7345 890.039 50.9921 889.556 Q51.2498 889.073 51.4108 887.592 Q51.5718 885.466 51.5718 883.373 Q51.5718 883.308 51.5718 883.18 Q51.5718 882.471 51.604 882.181 Q51.604 881.891 51.6685 881.601 Q51.7329 881.312 51.8939 881.247 Q52.0227 881.151 52.2804 881.151 Q52.8923 881.151 53.2143 881.408 Q53.5042 881.666 53.5686 881.924 Q53.6008 882.149 53.6008 882.6 Q53.6008 883.502 53.5364 885.434 Q53.472 887.366 53.472 888.333 L53.4076 893.808 L53.472 899.411 Q53.472 900.281 53.5364 902.117 Q53.6008 903.952 53.6008 904.822 Q53.6008 905.949 52.7957 905.949 Q51.8939 905.949 51.7329 905.53 Q51.5718 905.08 51.5718 903.179 Q51.5718 900.506 51.443 899.057 Q51.3142 897.608 50.8633 896.835 Q50.4124 896.03 49.9615 895.804 Q49.4785 895.579 48.3835 895.321 L13.1825 886.465 Q12.4095 886.207 11.7976 886.207 Q11.4755 886.207 11.3467 886.304 Q11.2179 886.368 11.1213 886.787 Q10.9925 887.205 10.9925 888.075 L10.9925 890.651 Q10.9925 893.292 11.1213 894.935 Q11.2179 896.545 11.701 898.091 Q12.1841 899.605 12.8604 900.506 Q13.5367 901.376 14.9216 902.342 Q16.3064 903.308 17.9811 904.017 Q19.6558 904.693 22.3933 905.659 Q23.2951 905.981 23.5527 906.175 Q23.7782 906.336 23.7782 906.786 Q23.7782 907.109 23.5849 907.366 Q23.3595 907.592 23.0697 907.592 Q22.0069 907.27 21.878 907.205 L10.2517 903.244 Q9.31775 902.922 9.15672 902.632 Q8.96348 902.31 8.96348 901.118 L8.96348 864.532 Q8.96348 863.953 8.96348 863.759 Q8.96348 863.566 9.0279 863.244 Q9.09231 862.922 9.25334 862.825 Q9.41437 862.729 9.67201 862.729 Z" fill="#000000" fill-rule="evenodd" fill-opacity="1" /><path clip-path="url(#clip310)" d="M 0 0 M16.5041 837.753 L17.4284 838.317 Q15.918 841.811 13.5057 846.162 Q15.918 850.513 17.4284 854.007 L16.5041 854.548 Q13.1901 850.738 10.6426 846.162 Q13.2127 841.541 16.5041 837.753 Z" fill="#000000" fill-rule="evenodd" fill-opacity="1" /><path clip-path="url(#clip310)" d="M 0 0 M28.8023 836.591 Q30.6058 836.591 31.6364 837.718 Q32.6348 838.845 32.6348 840.134 Q32.6348 841.358 31.9263 842.002 Q31.2177 842.646 30.316 842.646 Q29.0921 842.646 28.0294 841.744 Q26.9666 840.842 26.7411 839.49 Q25.9038 840.81 25.9038 842.775 Q25.9038 844.063 26.5801 845.19 Q27.2564 846.285 28.126 846.961 Q28.9955 847.605 30.2516 848.185 Q31.4754 848.733 32.2161 848.958 Q32.9246 849.151 33.6976 849.312 L42.7152 851.567 Q46.9986 852.662 48.5123 852.662 Q50.3802 852.662 51.6363 851.76 Q52.8601 850.858 52.8601 849.055 Q52.8601 848.346 52.6668 847.541 Q52.4414 846.736 51.8617 845.705 Q51.2498 844.643 50.348 843.709 Q49.414 842.742 47.836 841.808 Q46.2579 840.874 44.2289 840.263 Q43.5204 840.069 43.5204 839.425 Q43.5204 838.62 44.1645 838.62 Q44.712 838.62 45.8714 839.071 Q46.9986 839.49 48.4801 840.424 Q49.9293 841.325 51.2498 842.517 Q52.538 843.709 53.4398 845.48 Q54.3415 847.251 54.3415 849.184 Q54.3415 851.953 52.8601 853.789 Q51.3786 855.625 49.3174 856.301 Q49.6073 856.462 49.9938 856.688 Q50.3802 856.913 51.2498 857.589 Q52.0871 858.233 52.7313 858.974 Q53.3432 859.715 53.8262 860.874 Q54.3415 862.001 54.3415 863.225 Q54.3415 864.771 53.8907 866.156 Q53.4398 867.509 52.4092 868.475 Q51.3786 869.441 49.9615 869.441 Q48.3835 869.441 47.2885 868.378 Q46.1613 867.283 46.1613 865.802 Q46.1613 864.868 46.7088 864.127 Q47.2563 863.354 48.4479 863.354 Q49.7683 863.354 50.7667 864.256 Q51.7651 865.158 52.0227 866.446 Q52.8601 865.125 52.8601 863.161 Q52.8601 861.035 50.9921 859.361 Q49.1242 857.686 46.0002 856.881 Q38.4963 854.884 35.1468 854.111 Q31.7652 853.338 30.316 853.338 Q28.9633 853.338 28.0294 853.692 Q27.0954 854.047 26.6767 854.659 Q26.2258 855.238 26.0648 855.786 Q25.9038 856.301 25.9038 856.881 Q25.9038 857.847 26.2902 858.942 Q26.6767 860.005 27.5785 861.293 Q28.448 862.549 30.2516 863.741 Q32.0551 864.932 34.5349 865.737 Q35.2757 865.898 35.2757 866.607 Q35.2435 867.38 34.5994 867.38 Q34.0519 867.38 32.9246 866.961 Q31.7652 866.51 30.316 865.609 Q28.8667 864.675 27.5785 863.483 Q26.258 862.259 25.3563 860.488 Q24.4545 858.684 24.4545 856.752 Q24.4545 855.882 24.6477 855.045 Q24.8088 854.175 25.2919 853.145 Q25.7749 852.082 26.8377 851.148 Q27.9005 850.214 29.4464 849.634 Q28.7057 849.248 27.9971 848.733 Q27.2886 848.185 26.4191 847.348 Q25.5173 846.478 25.002 845.287 Q24.4545 844.063 24.4545 842.71 Q24.4545 841.39 24.8088 840.101 Q25.1308 838.813 26.1936 837.718 Q27.2242 836.591 28.8023 836.591 Z" fill="#000000" fill-rule="evenodd" fill-opacity="1" /><path clip-path="url(#clip310)" d="M 0 0 M52.1213 810.868 Q52.7526 810.868 52.9104 811.161 Q53.0456 811.454 53.0456 812.265 L53.0456 816.594 L66.6623 820.021 Q67.8571 820.291 68.8716 820.291 Q69.9988 820.291 70.4948 819.953 Q70.9907 819.592 70.9907 818.848 Q70.9907 817.383 69.6606 815.805 Q68.3305 814.204 65.0842 812.852 Q64.6558 812.671 64.5657 812.581 Q64.4529 812.468 64.4529 812.175 Q64.4529 811.612 64.9038 811.612 Q65.0616 811.612 65.783 811.927 Q66.5045 812.22 67.564 812.874 Q68.6236 813.505 69.6155 814.339 Q70.6075 815.151 71.3289 816.391 Q72.0278 817.631 72.0278 818.961 Q72.0278 820.832 70.8329 822.027 Q69.6381 823.199 67.7669 823.199 Q67.1582 823.199 65.2194 822.726 Q63.2581 822.252 53.0456 819.682 L53.0456 823.763 Q53.0456 824.326 53.0231 824.552 Q53.0005 824.755 52.8878 824.913 Q52.7526 825.048 52.482 825.048 Q52.0537 825.048 51.8733 824.868 Q51.6704 824.687 51.6479 824.462 Q51.6028 824.214 51.6028 823.65 L51.6028 819.322 L44.276 817.518 Q43.5546 817.338 43.1488 816.887 Q42.7204 816.414 42.6753 816.143 Q42.6077 815.872 42.6077 815.67 Q42.6077 815.061 42.9459 814.7 Q43.2615 814.339 43.8476 814.339 Q44.1632 814.339 51.6028 816.233 L51.6028 812.175 Q51.6028 811.657 51.6253 811.454 Q51.6479 811.228 51.7606 811.048 Q51.8733 810.868 52.1213 810.868 Z" fill="#000000" fill-rule="evenodd" fill-opacity="1" /><path clip-path="url(#clip310)" d="M 0 0 M35.6497 801.507 Q25.0076 801.507 16.4262 797.539 Q12.8275 795.847 9.81325 793.479 Q6.799 791.111 5.47642 789.542 Q4.15383 787.973 4.15383 787.543 Q4.15383 786.928 4.76899 786.897 Q5.07657 786.897 5.84551 787.727 Q16.1801 797.877 35.6497 797.847 Q55.1809 797.847 65.1156 787.973 Q66.1921 786.897 66.5305 786.897 Q67.1456 786.897 67.1456 787.543 Q67.1456 787.973 65.8846 789.481 Q64.6235 790.988 61.7323 793.325 Q58.8411 795.663 55.3039 797.355 Q46.7225 801.507 35.6497 801.507 Z" fill="#000000" fill-rule="evenodd" fill-opacity="1" /><path clip-path="url(#clip310)" d="M 0 0 M17.4014 770.278 Q11.7332 770.278 7.9329 767.38 Q4.13261 764.481 4.13261 760.584 Q4.13261 758.201 6.25819 755.85 Q11.3467 750.504 11.3145 743.515 Q11.3145 735.593 5.06658 730.987 Q4.13261 730.182 4.13261 729.602 Q4.13261 729.087 4.55128 728.7 Q4.93775 728.282 5.45305 728.282 Q5.83952 728.282 6.64466 728.797 L56.3061 762.162 Q57.3045 762.903 57.3045 763.483 Q57.3045 763.998 56.8858 764.417 Q56.4993 764.803 55.984 764.803 Q55.5332 764.803 54.6636 764.224 L10.5416 734.594 L10.4772 734.659 Q12.796 738.072 12.7638 743.451 Q12.7638 748.539 9.99407 753.402 Q13.4079 752.018 17.4658 752.018 Q23.0052 752.018 26.8699 754.497 Q30.7024 756.977 30.7024 760.584 Q30.7024 764.481 26.9666 767.38 Q23.1985 770.278 17.4014 770.278 M12.023 765.737 Q14.3419 766.188 17.4658 766.188 Q20.5576 766.188 22.8764 765.737 Q25.163 765.286 26.3546 764.642 Q27.5463 763.966 28.2548 763.064 Q28.9311 762.162 29.0921 761.615 Q29.2532 761.067 29.2532 760.52 Q29.2532 757.815 25.9038 755.753 Q22.5222 753.66 17.4014 753.66 Q12.3773 753.66 8.99569 755.753 Q5.58187 757.815 5.58187 760.52 Q5.58187 761.1 5.7429 761.679 Q5.90393 762.227 6.61246 763.096 Q7.28878 763.966 8.4804 764.642 Q9.67201 765.286 12.023 765.737 M43.9713 741.068 Q38.303 741.068 34.5027 738.169 Q30.7024 735.27 30.7024 731.374 Q30.7024 727.799 34.5671 725.319 Q38.4318 722.807 44.0357 722.807 Q49.5751 722.807 53.4398 725.287 Q57.3045 727.734 57.3045 731.374 Q57.3045 735.27 53.5364 738.169 Q49.7683 741.068 43.9713 741.068 M38.5929 736.527 Q40.9439 736.977 44.0357 736.977 Q47.1274 736.977 49.4463 736.527 Q51.7651 736.043 52.9567 735.399 Q54.1161 734.723 54.7924 733.853 Q55.501 732.952 55.662 732.404 Q55.8552 731.824 55.8552 731.309 Q55.8552 728.604 52.5058 726.543 Q49.1242 724.449 43.9713 724.449 Q38.9471 724.449 35.5655 726.543 Q32.1517 728.604 32.1517 731.309 Q32.1517 731.889 32.3449 732.469 Q32.506 733.016 33.2145 733.886 Q33.8908 734.723 35.0824 735.399 Q36.2418 736.043 38.5929 736.527 Z" fill="#000000" fill-rule="evenodd" fill-opacity="1" /><path clip-path="url(#clip310)" d="M 0 0 M52.538 714.957 Q51.4752 715.891 50.0904 715.891 Q48.7055 715.891 47.6749 714.99 Q46.6121 714.056 46.6121 712.381 Q46.6121 710.416 48.5123 709.289 Q50.3802 708.162 53.5364 708.162 Q56.9502 708.162 60.1064 709.547 Q63.2948 710.932 64.8084 712.284 Q66.3221 713.637 66.3221 714.184 Q66.3221 714.829 65.6136 714.829 Q65.3559 714.829 64.8729 714.378 Q59.7843 709.643 53.5364 709.611 Q52.538 709.611 52.538 709.74 L52.6668 709.901 Q53.6008 711.028 53.6008 712.381 Q53.6008 714.023 52.538 714.957 Z" fill="#000000" fill-rule="evenodd" fill-opacity="1" /><path clip-path="url(#clip310)" d="M 0 0 M36.3063 652.757 Q39.5591 652.757 42.8118 654.432 Q46.0646 656.107 48.5767 658.844 Q51.0565 661.582 52.6668 665.317 Q54.2771 669.053 54.406 672.95 L64.2287 675.462 Q66.612 675.945 66.8696 676.203 Q67.1273 676.461 67.1273 676.847 Q67.1273 677.652 66.3865 677.652 Q66.1611 677.652 60.5895 676.203 L54.406 674.657 Q54.0839 680.519 50.7023 683.932 Q47.3207 687.346 42.4576 687.346 Q39.1726 687.346 35.9198 685.672 Q32.6348 683.965 30.1549 681.227 Q27.6751 678.457 26.097 674.722 Q24.5189 670.986 24.3901 667.153 L9.15672 663.321 Q8.28716 663.127 8.06172 662.966 Q7.83628 662.805 7.83628 662.322 Q7.83628 661.968 7.99731 661.775 Q8.15834 661.582 8.31937 661.582 L8.4804 661.549 L9.41437 661.743 L24.3901 665.446 Q24.6155 662.161 25.7749 659.617 Q26.9344 657.073 28.6735 655.623 Q30.3804 654.174 32.3127 653.466 Q34.2451 652.757 36.3063 652.757 M25.8394 667.54 Q26.1614 671.082 27.9005 674.077 Q29.6396 677.073 32.2161 679.005 Q34.7604 680.937 37.8199 682 Q40.8473 683.063 43.8424 683.063 Q46.1935 683.063 47.997 682.29 Q49.8005 681.485 50.8311 680.164 Q51.8295 678.844 52.377 677.395 Q52.8923 675.913 52.9567 674.335 L25.8394 667.54 M34.9214 657.073 Q30.7346 657.073 28.3836 659.488 Q26.0326 661.904 25.8394 665.833 L52.9567 672.628 Q52.7313 669.762 51.5396 667.25 Q50.3158 664.706 48.5123 662.87 Q46.6765 661.034 44.4221 659.714 Q42.1355 658.393 39.7201 657.749 Q37.2724 657.073 34.9214 657.073 Z" fill="#000000" fill-rule="evenodd" fill-opacity="1" /><path clip-path="url(#clip310)" d="M 0 0 M43.5848 630.127 Q42.7796 630.063 42.7796 628.807 L42.7796 588.389 Q42.7796 586.489 43.5204 586.456 Q44.3255 586.456 44.2933 588.26 L44.2933 628.356 Q44.3255 630.127 43.5848 630.127 M30.7024 630.127 Q29.8973 630.127 29.9295 628.743 L29.9295 588.453 Q29.9295 586.489 30.7024 586.456 Q31.4432 586.456 31.4432 588.131 L31.4432 628.807 Q31.4432 630.127 30.7024 630.127 Z" fill="#000000" fill-rule="evenodd" fill-opacity="1" /><path clip-path="url(#clip310)" d="M 0 0 M32.506 561.011 Q22.812 561.011 17.5302 558.563 Q9.67201 555.149 9.67201 547.098 Q9.67201 545.391 10.1551 543.619 Q10.606 541.816 12.3773 539.561 Q14.1486 537.275 17.0472 535.89 Q22.651 533.249 32.506 533.249 Q42.1355 533.249 47.3851 535.697 Q55.0501 539.272 55.0501 547.162 Q55.0501 550.125 53.5364 553.152 Q52.0227 556.147 48.3835 558.048 Q42.9407 561.011 32.506 561.011 M31.7008 555.536 Q41.6524 555.536 45.6138 554.827 Q49.8971 554.022 51.7651 551.832 Q53.6008 549.61 53.6008 547.162 Q53.6008 544.521 51.6363 542.331 Q49.6395 540.109 45.3561 539.433 Q41.1371 538.692 31.7008 538.724 Q22.5222 538.724 18.8507 539.368 Q14.5673 540.238 12.8604 542.557 Q11.1213 544.843 11.1213 547.162 Q11.1213 548.032 11.3789 548.966 Q11.6366 549.867 12.3773 551.188 Q13.118 552.508 14.9538 553.539 Q16.7895 554.537 19.5592 555.02 Q23.1341 555.536 31.7008 555.536 Z" fill="#000000" fill-rule="evenodd" fill-opacity="1" /><path clip-path="url(#clip310)" d="M 0 0 M52.538 527.348 Q51.4752 528.346 50.0904 528.346 Q48.7055 528.346 47.7071 527.348 Q46.6765 526.35 46.6765 524.836 Q46.6765 523.387 47.6427 522.421 Q48.5767 521.422 50.1226 521.422 Q51.6363 521.422 52.6346 522.485 Q53.6008 523.516 53.6008 524.836 Q53.6008 526.35 52.538 527.348 Z" fill="#000000" fill-rule="evenodd" fill-opacity="1" /><path clip-path="url(#clip310)" d="M 0 0 M32.506 510.196 Q22.812 510.196 17.5302 507.749 Q9.67201 504.335 9.67201 496.283 Q9.67201 494.576 10.1551 492.805 Q10.606 491.002 12.3773 488.747 Q14.1486 486.461 17.0472 485.076 Q22.651 482.435 32.506 482.435 Q42.1355 482.435 47.3851 484.882 Q55.0501 488.457 55.0501 496.348 Q55.0501 499.311 53.5364 502.338 Q52.0227 505.333 48.3835 507.233 Q42.9407 510.196 32.506 510.196 M31.7008 504.721 Q41.6524 504.721 45.6138 504.013 Q49.8971 503.208 51.7651 501.018 Q53.6008 498.795 53.6008 496.348 Q53.6008 493.707 51.6363 491.517 Q49.6395 489.295 45.3561 488.618 Q41.1371 487.878 31.7008 487.91 Q22.5222 487.91 18.8507 488.554 Q14.5673 489.423 12.8604 491.742 Q11.1213 494.029 11.1213 496.348 Q11.1213 497.217 11.3789 498.151 Q11.6366 499.053 12.3773 500.373 Q13.118 501.694 14.9538 502.724 Q16.7895 503.723 19.5592 504.206 Q23.1341 504.721 31.7008 504.721 Z" fill="#000000" fill-rule="evenodd" fill-opacity="1" /><path clip-path="url(#clip310)" d="M 0 0 M66.5305 475.672 Q66.2229 475.672 65.454 474.872 Q55.1194 464.722 35.6497 464.722 Q16.1186 464.722 6.24536 474.472 Q5.10732 475.672 4.76899 475.672 Q4.15383 475.672 4.15383 475.057 Q4.15383 474.626 5.4149 473.119 Q6.67597 471.581 9.56719 469.274 Q12.4584 466.937 15.9956 465.214 Q24.577 461.062 35.6497 461.062 Q46.2919 461.062 54.8733 465.03 Q58.472 466.721 61.4862 469.09 Q64.5005 471.458 65.8231 473.027 Q67.1456 474.595 67.1456 475.057 Q67.1456 475.672 66.5305 475.672 Z" fill="#000000" fill-rule="evenodd" fill-opacity="1" /><polyline clip-path="url(#clip313)" style="stroke:#0000ff; stroke-width:4; stroke-opacity:1; fill:none" points="
  330.996,230.328 411.946,180.665 492.897,162.598 573.847,150.594 654.798,141.511 735.749,134.179 816.699,128.025 897.65,122.719 978.6,118.056 1059.55,113.895 
  1140.5,110.139 1221.45,106.716 1302.4,103.572 1383.35,100.663 1464.3,97.9569 1545.25,95.4253 1626.2,93.0461 1707.16,90.8003 1788.11,88.672 1869.06,86.6476 
  
  "/>
<polyline clip-path="url(#clip313)" style="stroke:#ff0000; stroke-width:4; stroke-opacity:1; fill:none" points="
  330.996,292.143 411.946,557.399 492.897,719.737 573.847,829.959 654.798,913.775 735.749,981.373 816.699,1037.92 897.65,1086.42 978.6,1128.78 1059.55,1166.3 
  1140.5,1199.91 1221.45,1230.27 1302.4,1257.91 1383.35,1283.22 1464.3,1306.51 1545.25,1328.03 1626.2,1348 1707.16,1366.58 1788.11,1383.91 1869.06,1400.1 
  
  "/>
<path clip-path="url(#clip310)" d="
M1984.13 252.413 L2352.76 252.413 L2352.76 93.6527 L1984.13 93.6527  Z
  " fill="#ffffff" fill-rule="evenodd" fill-opacity="1"/>
<polyline clip-path="url(#clip310)" style="stroke:#000000; stroke-width:4; stroke-opacity:1; fill:none" points="
  1984.13,252.413 2352.76,252.413 2352.76,93.6527 1984.13,93.6527 1984.13,252.413 
  "/>
<polyline clip-path="url(#clip310)" style="stroke:#0000ff; stroke-width:3.5; stroke-opacity:1; fill:none" points="
  2007.11,146.573 2144.97,146.573 
  "/>
<path clip-path="url(#clip310)" d="M 0 0 M2196.49 132.227 Q2196.49 132.617 2196.41 132.945 L2195.26 140.241 Q2195.2 140.794 2195.08 140.999 Q2194.97 141.204 2194.65 141.204 Q2194.13 141.204 2194.13 140.671 Q2194.13 140.364 2194.26 139.872 Q2194.61 137.556 2194.61 136.511 Q2194.61 135.814 2194.46 135.302 Q2194.34 134.769 2194.13 134.4 Q2193.95 134.031 2193.52 133.785 Q2193.09 133.539 2192.68 133.396 Q2192.27 133.252 2191.53 133.191 Q2190.79 133.109 2190.16 133.088 Q2189.52 133.068 2188.48 133.068 Q2186.2 133.068 2185.83 133.15 Q2185.44 133.252 2185.24 133.56 Q2185.05 133.846 2184.85 134.707 L2179.28 156.985 L2179.11 157.866 Q2179.11 158.358 2179.42 158.522 Q2179.73 158.686 2180.67 158.788 Q2182.02 158.891 2183.35 158.891 Q2183.39 158.891 2183.48 158.891 Q2183.93 158.891 2184.11 158.911 Q2184.3 158.911 2184.48 158.952 Q2184.67 158.993 2184.71 159.096 Q2184.77 159.178 2184.77 159.342 Q2184.77 159.731 2184.6 159.936 Q2184.44 160.121 2184.28 160.162 Q2184.13 160.182 2183.85 160.182 Q2183.27 160.182 2182.04 160.141 Q2180.81 160.1 2180.2 160.1 L2176.71 160.059 L2173.15 160.1 Q2172.59 160.1 2171.43 160.141 Q2170.26 160.182 2169.7 160.182 Q2168.99 160.182 2168.99 159.67 Q2168.99 159.096 2169.25 158.993 Q2169.54 158.891 2170.75 158.891 Q2172.45 158.891 2173.37 158.809 Q2174.3 158.727 2174.79 158.44 Q2175.3 158.153 2175.44 157.866 Q2175.59 157.559 2175.75 156.862 L2181.39 134.461 Q2181.55 133.969 2181.55 133.58 Q2181.55 133.375 2181.49 133.293 Q2181.45 133.211 2181.18 133.15 Q2180.91 133.068 2180.36 133.068 L2178.72 133.068 Q2177.04 133.068 2176 133.15 Q2174.97 133.211 2173.99 133.519 Q2173.02 133.826 2172.45 134.256 Q2171.9 134.687 2171.28 135.568 Q2170.67 136.449 2170.22 137.515 Q2169.79 138.581 2169.17 140.323 Q2168.97 140.897 2168.84 141.061 Q2168.74 141.204 2168.45 141.204 Q2168.25 141.204 2168.09 141.081 Q2167.94 140.938 2167.94 140.753 Q2168.15 140.077 2168.19 139.995 L2170.71 132.596 Q2170.91 132.002 2171.1 131.899 Q2171.3 131.776 2172.06 131.776 L2195.34 131.776 Q2195.71 131.776 2195.84 131.776 Q2195.96 131.776 2196.16 131.817 Q2196.37 131.858 2196.43 131.961 Q2196.49 132.063 2196.49 132.227 Z" fill="#000000" fill-rule="evenodd" fill-opacity="1" /><path clip-path="url(#clip310)" d="M 0 0 M2203.86 153.808 Q2203.9 153.296 2204.7 153.296 L2230.42 153.296 Q2231.63 153.296 2231.65 153.767 Q2231.65 154.28 2230.5 154.259 L2204.99 154.259 Q2203.86 154.28 2203.86 153.808 M2203.86 145.61 Q2203.86 145.098 2204.74 145.119 L2230.38 145.119 Q2231.63 145.119 2231.65 145.61 Q2231.65 146.082 2230.58 146.082 L2204.7 146.082 Q2203.86 146.082 2203.86 145.61 Z" fill="#000000" fill-rule="evenodd" fill-opacity="1" /><path clip-path="url(#clip310)" d="M 0 0 M2247.83 146.758 Q2247.83 140.589 2249.39 137.228 Q2251.56 132.227 2256.69 132.227 Q2257.77 132.227 2258.9 132.535 Q2260.05 132.822 2261.48 133.949 Q2262.94 135.076 2263.82 136.921 Q2265.5 140.487 2265.5 146.758 Q2265.5 152.886 2263.94 156.227 Q2261.67 161.104 2256.65 161.104 Q2254.76 161.104 2252.83 160.141 Q2250.93 159.178 2249.72 156.862 Q2247.83 153.398 2247.83 146.758 M2251.32 146.246 Q2251.32 152.579 2251.77 155.099 Q2252.28 157.825 2253.67 159.014 Q2255.09 160.182 2256.65 160.182 Q2258.33 160.182 2259.72 158.932 Q2261.13 157.661 2261.57 154.935 Q2262.04 152.251 2262.02 146.246 Q2262.02 140.405 2261.61 138.068 Q2261.05 135.343 2259.58 134.256 Q2258.12 133.15 2256.65 133.15 Q2256.09 133.15 2255.5 133.314 Q2254.92 133.478 2254.08 133.949 Q2253.24 134.42 2252.59 135.588 Q2251.95 136.757 2251.65 138.519 Q2251.32 140.794 2251.32 146.246 Z" fill="#000000" fill-rule="evenodd" fill-opacity="1" /><polyline clip-path="url(#clip310)" style="stroke:#ff0000; stroke-width:3.5; stroke-opacity:1; fill:none" points="
  2007.11,199.493 2144.97,199.493 
  "/>
<path clip-path="url(#clip310)" d="M 0 0 M2196.49 185.147 Q2196.49 185.537 2196.41 185.865 L2195.26 193.161 Q2195.2 193.714 2195.08 193.919 Q2194.97 194.124 2194.65 194.124 Q2194.13 194.124 2194.13 193.591 Q2194.13 193.284 2194.26 192.792 Q2194.61 190.476 2194.61 189.431 Q2194.61 188.734 2194.46 188.222 Q2194.34 187.689 2194.13 187.32 Q2193.95 186.951 2193.52 186.705 Q2193.09 186.459 2192.68 186.316 Q2192.27 186.172 2191.53 186.111 Q2190.79 186.029 2190.16 186.008 Q2189.52 185.988 2188.48 185.988 Q2186.2 185.988 2185.83 186.07 Q2185.44 186.172 2185.24 186.48 Q2185.05 186.766 2184.85 187.627 L2179.28 209.905 L2179.11 210.786 Q2179.11 211.278 2179.42 211.442 Q2179.73 211.606 2180.67 211.708 Q2182.02 211.811 2183.35 211.811 Q2183.39 211.811 2183.48 211.811 Q2183.93 211.811 2184.11 211.831 Q2184.3 211.831 2184.48 211.872 Q2184.67 211.913 2184.71 212.016 Q2184.77 212.098 2184.77 212.262 Q2184.77 212.651 2184.6 212.856 Q2184.44 213.041 2184.28 213.082 Q2184.13 213.102 2183.85 213.102 Q2183.27 213.102 2182.04 213.061 Q2180.81 213.02 2180.2 213.02 L2176.71 212.979 L2173.15 213.02 Q2172.59 213.02 2171.43 213.061 Q2170.26 213.102 2169.7 213.102 Q2168.99 213.102 2168.99 212.59 Q2168.99 212.016 2169.25 211.913 Q2169.54 211.811 2170.75 211.811 Q2172.45 211.811 2173.37 211.729 Q2174.3 211.647 2174.79 211.36 Q2175.3 211.073 2175.44 210.786 Q2175.59 210.479 2175.75 209.782 L2181.39 187.381 Q2181.55 186.889 2181.55 186.5 Q2181.55 186.295 2181.49 186.213 Q2181.45 186.131 2181.18 186.07 Q2180.91 185.988 2180.36 185.988 L2178.72 185.988 Q2177.04 185.988 2176 186.07 Q2174.97 186.131 2173.99 186.439 Q2173.02 186.746 2172.45 187.176 Q2171.9 187.607 2171.28 188.488 Q2170.67 189.369 2170.22 190.435 Q2169.79 191.501 2169.17 193.243 Q2168.97 193.817 2168.84 193.981 Q2168.74 194.124 2168.45 194.124 Q2168.25 194.124 2168.09 194.001 Q2167.94 193.858 2167.94 193.673 Q2168.15 192.997 2168.19 192.915 L2170.71 185.516 Q2170.91 184.922 2171.1 184.819 Q2171.3 184.696 2172.06 184.696 L2195.34 184.696 Q2195.71 184.696 2195.84 184.696 Q2195.96 184.696 2196.16 184.737 Q2196.37 184.778 2196.43 184.881 Q2196.49 184.983 2196.49 185.147 Z" fill="#000000" fill-rule="evenodd" fill-opacity="1" /><path clip-path="url(#clip310)" d="M 0 0 M2203.86 206.728 Q2203.9 206.216 2204.7 206.216 L2230.42 206.216 Q2231.63 206.216 2231.65 206.687 Q2231.65 207.2 2230.5 207.179 L2204.99 207.179 Q2203.86 207.2 2203.86 206.728 M2203.86 198.53 Q2203.86 198.018 2204.74 198.039 L2230.38 198.039 Q2231.63 198.039 2231.65 198.53 Q2231.65 199.002 2230.58 199.002 L2204.7 199.002 Q2203.86 199.002 2203.86 198.53 Z" fill="#000000" fill-rule="evenodd" fill-opacity="1" /><path clip-path="url(#clip310)" d="M 0 0 M2247.83 189.144 L2247.83 187.832 Q2252.88 187.832 2255.48 185.147 Q2256.2 185.147 2256.32 185.311 Q2256.44 185.475 2256.44 186.234 L2256.44 209.782 Q2256.44 211.032 2257.06 211.422 Q2257.67 211.811 2260.36 211.811 L2261.69 211.811 L2261.69 213.102 Q2260.21 212.979 2254.88 212.979 Q2249.56 212.979 2248.1 213.102 L2248.1 211.811 L2249.43 211.811 Q2252.08 211.811 2252.71 211.442 Q2253.35 211.053 2253.35 209.782 L2253.35 188.037 Q2251.15 189.144 2247.83 189.144 Z" fill="#000000" fill-rule="evenodd" fill-opacity="1" /><path clip-path="url(#clip310)" d="M 0 0 M2265.24 199.678 Q2265.24 193.509 2266.8 190.148 Q2268.97 185.147 2274.09 185.147 Q2275.18 185.147 2276.31 185.455 Q2277.45 185.742 2278.89 186.869 Q2280.34 187.996 2281.23 189.841 Q2282.91 193.407 2282.91 199.678 Q2282.91 205.806 2281.35 209.147 Q2279.07 214.024 2274.05 214.024 Q2272.17 214.024 2270.24 213.061 Q2268.33 212.098 2267.13 209.782 Q2265.24 206.318 2265.24 199.678 M2268.72 199.166 Q2268.72 205.499 2269.18 208.019 Q2269.69 210.745 2271.08 211.934 Q2272.5 213.102 2274.05 213.102 Q2275.73 213.102 2277.13 211.852 Q2278.54 210.581 2278.97 207.855 Q2279.44 205.171 2279.42 199.166 Q2279.42 193.325 2279.01 190.988 Q2278.46 188.263 2276.98 187.176 Q2275.53 186.07 2274.05 186.07 Q2273.5 186.07 2272.91 186.234 Q2272.33 186.398 2271.49 186.869 Q2270.65 187.34 2269.99 188.508 Q2269.36 189.677 2269.05 191.439 Q2268.72 193.714 2268.72 199.166 Z" fill="#000000" fill-rule="evenodd" fill-opacity="1" /><path clip-path="url(#clip310)" d="M 0 0 M2286.02 199.678 Q2286.02 193.509 2287.58 190.148 Q2289.75 185.147 2294.87 185.147 Q2295.96 185.147 2297.09 185.455 Q2298.24 185.742 2299.67 186.869 Q2301.13 187.996 2302.01 189.841 Q2303.69 193.407 2303.69 199.678 Q2303.69 205.806 2302.13 209.147 Q2299.86 214.024 2294.83 214.024 Q2292.95 214.024 2291.02 213.061 Q2289.12 212.098 2287.91 209.782 Q2286.02 206.318 2286.02 199.678 M2289.51 199.166 Q2289.51 205.499 2289.96 208.019 Q2290.47 210.745 2291.86 211.934 Q2293.28 213.102 2294.83 213.102 Q2296.51 213.102 2297.91 211.852 Q2299.32 210.581 2299.75 207.855 Q2300.22 205.171 2300.2 199.166 Q2300.2 193.325 2299.79 190.988 Q2299.24 188.263 2297.76 187.176 Q2296.31 186.07 2294.83 186.07 Q2294.28 186.07 2293.69 186.234 Q2293.11 186.398 2292.27 186.869 Q2291.43 187.34 2290.78 188.508 Q2290.14 189.677 2289.83 191.439 Q2289.51 193.714 2289.51 199.166 Z" fill="#000000" fill-rule="evenodd" fill-opacity="1" /></svg>
