<?xml version="1.0" encoding="utf-8"?>
<svg xmlns="http://www.w3.org/2000/svg" xmlns:xlink="http://www.w3.org/1999/xlink" width="600" height="400" viewBox="0 0 2400 1600">
<defs>
  <clipPath id="clip800">
    <rect x="0" y="0" width="2400" height="1600"/>
  </clipPath>
</defs>
<path clip-path="url(#clip800)" d="
M0 1600 L2400 1600 L2400 0 L0 0  Z
  " fill="#ffffff" fill-rule="evenodd" fill-opacity="1"/>
<defs>
  <clipPath id="clip801">
    <rect x="480" y="0" width="1681" height="1600"/>
  </clipPath>
</defs>
<defs>
  <clipPath id="clip802">
    <rect x="282" y="47" width="1515" height="1393"/>
  </clipPath>
</defs>
<path clip-path="url(#clip800)" d="
M282.632 1439.5 L1796.39 1439.5 L1796.39 47.2441 L282.632 47.2441  Z
  " fill="#ffffff" fill-rule="evenodd" fill-opacity="1"/>
<polyline clip-path="url(#clip802)" style="stroke:#000000; stroke-width:2; stroke-opacity:0.1; fill:none" points="
  324.044,1439.5 324.044,47.2441 
  "/>
<polyline clip-path="url(#clip802)" style="stroke:#000000; stroke-width:2; stroke-opacity:0.1; fill:none" points="
  681.419,1439.5 681.419,47.2441 
  "/>
<polyline clip-path="url(#clip802)" style="stroke:#000000; stroke-width:2; stroke-opacity:0.1; fill:none" points="
  1038.79,1439.5 1038.79,47.2441 
  "/>
<polyline clip-path="url(#clip802)" style="stroke:#000000; stroke-width:2; stroke-opacity:0.1; fill:none" points="
  1396.17,1439.5 1396.17,47.2441 
  "/>
<polyline clip-path="url(#clip802)" style="stroke:#000000; stroke-width:2; stroke-opacity:0.1; fill:none" points="
  1753.55,1439.5 1753.55,47.2441 
  "/>
<polyline clip-path="url(#clip800)" style="stroke:#000000; stroke-width:4; stroke-opacity:1; fill:none" points="
  282.632,1439.5 1796.39,1439.5 
  "/>
<polyline clip-path="url(#clip800)" style="stroke:#000000; stroke-width:4; stroke-opacity:1; fill:none" points="
  324.044,1439.5 324.044,1422.79 
  "/>
<polyline clip-path="url(#clip800)" style="stroke:#000000; stroke-width:4; stroke-opacity:1; fill:none" points="
  681.419,1439.5 681.419,1422.79 
  "/>
<polyline clip-path="url(#clip800)" style="stroke:#000000; stroke-width:4; stroke-opacity:1; fill:none" points="
  1038.79,1439.5 1038.79,1422.79 
  "/>
<polyline clip-path="url(#clip800)" style="stroke:#000000; stroke-width:4; stroke-opacity:1; fill:none" points="
  1396.17,1439.5 1396.17,1422.79 
  "/>
<polyline clip-path="url(#clip800)" style="stroke:#000000; stroke-width:4; stroke-opacity:1; fill:none" points="
  1753.55,1439.5 1753.55,1422.79 
  "/>
<path clip-path="url(#clip800)" d="M 0 0 M324.044 1468.69 Q320.433 1468.69 318.604 1472.26 Q316.799 1475.8 316.799 1482.93 Q316.799 1490.04 318.604 1493.6 Q320.433 1497.14 324.044 1497.14 Q327.678 1497.14 329.484 1493.6 Q331.313 1490.04 331.313 1482.93 Q331.313 1475.8 329.484 1472.26 Q327.678 1468.69 324.044 1468.69 M324.044 1464.99 Q329.854 1464.99 332.91 1469.6 Q335.989 1474.18 335.989 1482.93 Q335.989 1491.66 332.91 1496.26 Q329.854 1500.85 324.044 1500.85 Q318.234 1500.85 315.155 1496.26 Q312.1 1491.66 312.1 1482.93 Q312.1 1474.18 315.155 1469.6 Q318.234 1464.99 324.044 1464.99 Z" fill="#000000" fill-rule="evenodd" fill-opacity="1" /><path clip-path="url(#clip800)" d="M 0 0 M660.69 1496.24 L677.01 1496.24 L677.01 1500.17 L655.065 1500.17 L655.065 1496.24 Q657.727 1493.48 662.311 1488.85 Q666.917 1484.2 668.098 1482.86 Q670.343 1480.34 671.223 1478.6 Q672.126 1476.84 672.126 1475.15 Q672.126 1472.4 670.181 1470.66 Q668.26 1468.92 665.158 1468.92 Q662.959 1468.92 660.505 1469.69 Q658.075 1470.45 655.297 1472 L655.297 1467.28 Q658.121 1466.15 660.575 1465.57 Q663.028 1464.99 665.065 1464.99 Q670.436 1464.99 673.63 1467.67 Q676.825 1470.36 676.825 1474.85 Q676.825 1476.98 676.014 1478.9 Q675.227 1480.8 673.121 1483.39 Q672.542 1484.06 669.44 1487.28 Q666.339 1490.47 660.69 1496.24 Z" fill="#000000" fill-rule="evenodd" fill-opacity="1" /><path clip-path="url(#clip800)" d="M 0 0 M686.871 1465.61 L705.227 1465.61 L705.227 1469.55 L691.153 1469.55 L691.153 1478.02 Q692.172 1477.67 693.19 1477.51 Q694.209 1477.33 695.227 1477.33 Q701.014 1477.33 704.394 1480.5 Q707.774 1483.67 707.774 1489.09 Q707.774 1494.66 704.301 1497.77 Q700.829 1500.85 694.51 1500.85 Q692.334 1500.85 690.065 1500.47 Q687.82 1500.1 685.413 1499.36 L685.413 1494.66 Q687.496 1495.8 689.718 1496.35 Q691.94 1496.91 694.417 1496.91 Q698.422 1496.91 700.76 1494.8 Q703.098 1492.7 703.098 1489.09 Q703.098 1485.47 700.76 1483.37 Q698.422 1481.26 694.417 1481.26 Q692.542 1481.26 690.667 1481.68 Q688.815 1482.1 686.871 1482.97 L686.871 1465.61 Z" fill="#000000" fill-rule="evenodd" fill-opacity="1" /><path clip-path="url(#clip800)" d="M 0 0 M1013.49 1465.61 L1031.85 1465.61 L1031.85 1469.55 L1017.78 1469.55 L1017.78 1478.02 Q1018.79 1477.67 1019.81 1477.51 Q1020.83 1477.33 1021.85 1477.33 Q1027.64 1477.33 1031.02 1480.5 Q1034.4 1483.67 1034.4 1489.09 Q1034.4 1494.66 1030.92 1497.77 Q1027.45 1500.85 1021.13 1500.85 Q1018.96 1500.85 1016.69 1500.47 Q1014.44 1500.1 1012.04 1499.36 L1012.04 1494.66 Q1014.12 1495.8 1016.34 1496.35 Q1018.56 1496.91 1021.04 1496.91 Q1025.04 1496.91 1027.38 1494.8 Q1029.72 1492.7 1029.72 1489.09 Q1029.72 1485.47 1027.38 1483.37 Q1025.04 1481.26 1021.04 1481.26 Q1019.17 1481.26 1017.29 1481.68 Q1015.44 1482.1 1013.49 1482.97 L1013.49 1465.61 Z" fill="#000000" fill-rule="evenodd" fill-opacity="1" /><path clip-path="url(#clip800)" d="M 0 0 M1053.61 1468.69 Q1050 1468.69 1048.17 1472.26 Q1046.36 1475.8 1046.36 1482.93 Q1046.36 1490.04 1048.17 1493.6 Q1050 1497.14 1053.61 1497.14 Q1057.24 1497.14 1059.05 1493.6 Q1060.88 1490.04 1060.88 1482.93 Q1060.88 1475.8 1059.05 1472.26 Q1057.24 1468.69 1053.61 1468.69 M1053.61 1464.99 Q1059.42 1464.99 1062.48 1469.6 Q1065.55 1474.18 1065.55 1482.93 Q1065.55 1491.66 1062.48 1496.26 Q1059.42 1500.85 1053.61 1500.85 Q1047.8 1500.85 1044.72 1496.26 Q1041.67 1491.66 1041.67 1482.93 Q1041.67 1474.18 1044.72 1469.6 Q1047.8 1464.99 1053.61 1464.99 Z" fill="#000000" fill-rule="evenodd" fill-opacity="1" /><path clip-path="url(#clip800)" d="M 0 0 M1370.02 1465.61 L1392.25 1465.61 L1392.25 1467.6 L1379.7 1500.17 L1374.82 1500.17 L1386.62 1469.55 L1370.02 1469.55 L1370.02 1465.61 Z" fill="#000000" fill-rule="evenodd" fill-opacity="1" /><path clip-path="url(#clip800)" d="M 0 0 M1401.41 1465.61 L1419.77 1465.61 L1419.77 1469.55 L1405.7 1469.55 L1405.7 1478.02 Q1406.71 1477.67 1407.73 1477.51 Q1408.75 1477.33 1409.77 1477.33 Q1415.56 1477.33 1418.94 1480.5 Q1422.32 1483.67 1422.32 1489.09 Q1422.32 1494.66 1418.84 1497.77 Q1415.37 1500.85 1409.05 1500.85 Q1406.88 1500.85 1404.61 1500.47 Q1402.36 1500.1 1399.95 1499.36 L1399.95 1494.66 Q1402.04 1495.8 1404.26 1496.35 Q1406.48 1496.91 1408.96 1496.91 Q1412.96 1496.91 1415.3 1494.8 Q1417.64 1492.7 1417.64 1489.09 Q1417.64 1485.47 1415.3 1483.37 Q1412.96 1481.26 1408.96 1481.26 Q1407.08 1481.26 1405.21 1481.68 Q1403.36 1482.1 1401.41 1482.97 L1401.41 1465.61 Z" fill="#000000" fill-rule="evenodd" fill-opacity="1" /><path clip-path="url(#clip800)" d="M 0 0 M1713.15 1496.24 L1720.79 1496.24 L1720.79 1469.87 L1712.48 1471.54 L1712.48 1467.28 L1720.74 1465.61 L1725.42 1465.61 L1725.42 1496.24 L1733.06 1496.24 L1733.06 1500.17 L1713.15 1500.17 L1713.15 1496.24 Z" fill="#000000" fill-rule="evenodd" fill-opacity="1" /><path clip-path="url(#clip800)" d="M 0 0 M1752.5 1468.69 Q1748.89 1468.69 1747.06 1472.26 Q1745.26 1475.8 1745.26 1482.93 Q1745.26 1490.04 1747.06 1493.6 Q1748.89 1497.14 1752.5 1497.14 Q1756.14 1497.14 1757.94 1493.6 Q1759.77 1490.04 1759.77 1482.93 Q1759.77 1475.8 1757.94 1472.26 Q1756.14 1468.69 1752.5 1468.69 M1752.5 1464.99 Q1758.31 1464.99 1761.37 1469.6 Q1764.45 1474.18 1764.45 1482.93 Q1764.45 1491.66 1761.37 1496.26 Q1758.31 1500.85 1752.5 1500.85 Q1746.69 1500.85 1743.61 1496.26 Q1740.56 1491.66 1740.56 1482.93 Q1740.56 1474.18 1743.61 1469.6 Q1746.69 1464.99 1752.5 1464.99 Z" fill="#000000" fill-rule="evenodd" fill-opacity="1" /><path clip-path="url(#clip800)" d="M 0 0 M1782.67 1468.69 Q1779.05 1468.69 1777.23 1472.26 Q1775.42 1475.8 1775.42 1482.93 Q1775.42 1490.04 1777.23 1493.6 Q1779.05 1497.14 1782.67 1497.14 Q1786.3 1497.14 1788.11 1493.6 Q1789.93 1490.04 1789.93 1482.93 Q1789.93 1475.8 1788.11 1472.26 Q1786.3 1468.69 1782.67 1468.69 M1782.67 1464.99 Q1788.48 1464.99 1791.53 1469.6 Q1794.61 1474.18 1794.61 1482.93 Q1794.61 1491.66 1791.53 1496.26 Q1788.48 1500.85 1782.67 1500.85 Q1776.86 1500.85 1773.78 1496.26 Q1770.72 1491.66 1770.72 1482.93 Q1770.72 1474.18 1773.78 1469.6 Q1776.86 1464.99 1782.67 1464.99 Z" fill="#000000" fill-rule="evenodd" fill-opacity="1" /><path clip-path="url(#clip800)" d="M 0 0 M1051.44 1535.75 Q1051.44 1541.16 1049.71 1547.24 Q1048 1553.3 1045.29 1558.19 Q1042.59 1563.06 1039.05 1566.28 Q1035.5 1569.47 1032.12 1569.47 Q1029.96 1569.47 1028.35 1568.27 Q1026.77 1567.05 1025.91 1565.02 Q1025.04 1562.96 1024.62 1560.71 Q1024.2 1558.42 1024.2 1555.94 Q1024.2 1552.24 1025 1548.21 Q1025.81 1544.15 1027.16 1540.48 Q1028.51 1536.78 1030.41 1533.43 Q1032.31 1530.05 1034.41 1527.6 Q1036.53 1525.12 1038.92 1523.67 Q1041.3 1522.22 1043.52 1522.22 Q1045.13 1522.22 1046.42 1522.93 Q1047.74 1523.6 1048.58 1524.8 Q1049.42 1525.96 1050 1527.34 Q1050.61 1528.73 1050.9 1530.34 Q1051.19 1531.91 1051.32 1533.23 Q1051.44 1534.52 1051.44 1535.75 M1047.1 1531.66 Q1047.1 1530.01 1046.97 1528.79 Q1046.84 1527.53 1046.48 1526.28 Q1046.13 1525.02 1045.36 1524.35 Q1044.62 1523.67 1043.46 1523.67 Q1040.08 1523.67 1036.28 1530.59 Q1035.05 1532.75 1033.96 1535.68 Q1032.86 1538.61 1032.48 1540 Q1032.09 1541.38 1031.19 1544.8 L1044.97 1544.8 Q1047.1 1536 1047.1 1531.66 M1044.39 1546.89 L1030.67 1546.89 Q1028.55 1554.94 1028.55 1559.96 Q1028.55 1564.34 1029.45 1566.18 Q1030.38 1567.98 1032.12 1567.98 Q1034.12 1567.98 1035.99 1565.99 Q1037.85 1563.96 1039.75 1560.29 Q1042.27 1555.52 1044.39 1546.89 Z" fill="#000000" fill-rule="evenodd" fill-opacity="1" /><polyline clip-path="url(#clip802)" style="stroke:#000000; stroke-width:2; stroke-opacity:0.1; fill:none" points="
  282.632,1228.87 1796.39,1228.87 
  "/>
<polyline clip-path="url(#clip802)" style="stroke:#000000; stroke-width:2; stroke-opacity:0.1; fill:none" points="
  282.632,867.232 1796.39,867.232 
  "/>
<polyline clip-path="url(#clip802)" style="stroke:#000000; stroke-width:2; stroke-opacity:0.1; fill:none" points="
  282.632,505.594 1796.39,505.594 
  "/>
<polyline clip-path="url(#clip802)" style="stroke:#000000; stroke-width:2; stroke-opacity:0.1; fill:none" points="
  282.632,143.955 1796.39,143.955 
  "/>
<polyline clip-path="url(#clip800)" style="stroke:#000000; stroke-width:4; stroke-opacity:1; fill:none" points="
  282.632,1439.5 282.632,47.2441 
  "/>
<polyline clip-path="url(#clip800)" style="stroke:#000000; stroke-width:4; stroke-opacity:1; fill:none" points="
  282.632,1228.87 300.797,1228.87 
  "/>
<polyline clip-path="url(#clip800)" style="stroke:#000000; stroke-width:4; stroke-opacity:1; fill:none" points="
  282.632,867.232 300.797,867.232 
  "/>
<polyline clip-path="url(#clip800)" style="stroke:#000000; stroke-width:4; stroke-opacity:1; fill:none" points="
  282.632,505.594 300.797,505.594 
  "/>
<polyline clip-path="url(#clip800)" style="stroke:#000000; stroke-width:4; stroke-opacity:1; fill:none" points="
  282.632,143.955 300.797,143.955 
  "/>
<path clip-path="url(#clip800)" d="M 0 0 M159.294 1214.67 Q155.683 1214.67 153.854 1218.23 Q152.049 1221.78 152.049 1228.91 Q152.049 1236.01 153.854 1239.58 Q155.683 1243.12 159.294 1243.12 Q162.928 1243.12 164.734 1239.58 Q166.562 1236.01 166.562 1228.91 Q166.562 1221.78 164.734 1218.23 Q162.928 1214.67 159.294 1214.67 M159.294 1210.97 Q165.104 1210.97 168.16 1215.57 Q171.238 1220.16 171.238 1228.91 Q171.238 1237.63 168.16 1242.24 Q165.104 1246.82 159.294 1246.82 Q153.484 1246.82 150.405 1242.24 Q147.35 1237.63 147.35 1228.91 Q147.35 1220.16 150.405 1215.57 Q153.484 1210.97 159.294 1210.97 Z" fill="#000000" fill-rule="evenodd" fill-opacity="1" /><path clip-path="url(#clip800)" d="M 0 0 M179.456 1240.27 L184.34 1240.27 L184.34 1246.15 L179.456 1246.15 L179.456 1240.27 Z" fill="#000000" fill-rule="evenodd" fill-opacity="1" /><path clip-path="url(#clip800)" d="M 0 0 M204.525 1214.67 Q200.914 1214.67 199.085 1218.23 Q197.28 1221.78 197.28 1228.91 Q197.28 1236.01 199.085 1239.58 Q200.914 1243.12 204.525 1243.12 Q208.159 1243.12 209.965 1239.58 Q211.794 1236.01 211.794 1228.91 Q211.794 1221.78 209.965 1218.23 Q208.159 1214.67 204.525 1214.67 M204.525 1210.97 Q210.335 1210.97 213.391 1215.57 Q216.47 1220.16 216.47 1228.91 Q216.47 1237.63 213.391 1242.24 Q210.335 1246.82 204.525 1246.82 Q198.715 1246.82 195.636 1242.24 Q192.581 1237.63 192.581 1228.91 Q192.581 1220.16 195.636 1215.57 Q198.715 1210.97 204.525 1210.97 Z" fill="#000000" fill-rule="evenodd" fill-opacity="1" /><path clip-path="url(#clip800)" d="M 0 0 M234.687 1214.67 Q231.076 1214.67 229.247 1218.23 Q227.442 1221.78 227.442 1228.91 Q227.442 1236.01 229.247 1239.58 Q231.076 1243.12 234.687 1243.12 Q238.321 1243.12 240.127 1239.58 Q241.956 1236.01 241.956 1228.91 Q241.956 1221.78 240.127 1218.23 Q238.321 1214.67 234.687 1214.67 M234.687 1210.97 Q240.497 1210.97 243.553 1215.57 Q246.632 1220.16 246.632 1228.91 Q246.632 1237.63 243.553 1242.24 Q240.497 1246.82 234.687 1246.82 Q228.877 1246.82 225.798 1242.24 Q222.743 1237.63 222.743 1228.91 Q222.743 1220.16 225.798 1215.57 Q228.877 1210.97 234.687 1210.97 Z" fill="#000000" fill-rule="evenodd" fill-opacity="1" /><path clip-path="url(#clip800)" d="M 0 0 M160.289 853.031 Q156.678 853.031 154.85 856.596 Q153.044 860.138 153.044 867.267 Q153.044 874.374 154.85 877.938 Q156.678 881.48 160.289 881.48 Q163.924 881.48 165.729 877.938 Q167.558 874.374 167.558 867.267 Q167.558 860.138 165.729 856.596 Q163.924 853.031 160.289 853.031 M160.289 849.327 Q166.1 849.327 169.155 853.934 Q172.234 858.517 172.234 867.267 Q172.234 875.994 169.155 880.6 Q166.1 885.184 160.289 885.184 Q154.479 885.184 151.401 880.6 Q148.345 875.994 148.345 867.267 Q148.345 858.517 151.401 853.934 Q154.479 849.327 160.289 849.327 Z" fill="#000000" fill-rule="evenodd" fill-opacity="1" /><path clip-path="url(#clip800)" d="M 0 0 M180.451 878.633 L185.336 878.633 L185.336 884.512 L180.451 884.512 L180.451 878.633 Z" fill="#000000" fill-rule="evenodd" fill-opacity="1" /><path clip-path="url(#clip800)" d="M 0 0 M205.521 853.031 Q201.91 853.031 200.081 856.596 Q198.275 860.138 198.275 867.267 Q198.275 874.374 200.081 877.938 Q201.91 881.48 205.521 881.48 Q209.155 881.48 210.96 877.938 Q212.789 874.374 212.789 867.267 Q212.789 860.138 210.96 856.596 Q209.155 853.031 205.521 853.031 M205.521 849.327 Q211.331 849.327 214.386 853.934 Q217.465 858.517 217.465 867.267 Q217.465 875.994 214.386 880.6 Q211.331 885.184 205.521 885.184 Q199.71 885.184 196.632 880.6 Q193.576 875.994 193.576 867.267 Q193.576 858.517 196.632 853.934 Q199.71 849.327 205.521 849.327 Z" fill="#000000" fill-rule="evenodd" fill-opacity="1" /><path clip-path="url(#clip800)" d="M 0 0 M225.729 849.952 L244.085 849.952 L244.085 853.888 L230.011 853.888 L230.011 862.36 Q231.03 862.013 232.048 861.85 Q233.067 861.665 234.085 861.665 Q239.872 861.665 243.252 864.837 Q246.632 868.008 246.632 873.425 Q246.632 879.003 243.159 882.105 Q239.687 885.184 233.368 885.184 Q231.192 885.184 228.923 884.813 Q226.678 884.443 224.271 883.702 L224.271 879.003 Q226.354 880.137 228.576 880.693 Q230.798 881.249 233.275 881.249 Q237.28 881.249 239.618 879.142 Q241.956 877.036 241.956 873.425 Q241.956 869.813 239.618 867.707 Q237.28 865.6 233.275 865.6 Q231.4 865.6 229.525 866.017 Q227.673 866.434 225.729 867.313 L225.729 849.952 Z" fill="#000000" fill-rule="evenodd" fill-opacity="1" /><path clip-path="url(#clip800)" d="M 0 0 M159.294 491.392 Q155.683 491.392 153.854 494.957 Q152.049 498.499 152.049 505.628 Q152.049 512.735 153.854 516.3 Q155.683 519.841 159.294 519.841 Q162.928 519.841 164.734 516.3 Q166.562 512.735 166.562 505.628 Q166.562 498.499 164.734 494.957 Q162.928 491.392 159.294 491.392 M159.294 487.689 Q165.104 487.689 168.16 492.295 Q171.238 496.879 171.238 505.628 Q171.238 514.355 168.16 518.962 Q165.104 523.545 159.294 523.545 Q153.484 523.545 150.405 518.962 Q147.35 514.355 147.35 505.628 Q147.35 496.879 150.405 492.295 Q153.484 487.689 159.294 487.689 Z" fill="#000000" fill-rule="evenodd" fill-opacity="1" /><path clip-path="url(#clip800)" d="M 0 0 M179.456 516.994 L184.34 516.994 L184.34 522.874 L179.456 522.874 L179.456 516.994 Z" fill="#000000" fill-rule="evenodd" fill-opacity="1" /><path clip-path="url(#clip800)" d="M 0 0 M195.335 518.939 L202.974 518.939 L202.974 492.573 L194.664 494.24 L194.664 489.98 L202.928 488.314 L207.604 488.314 L207.604 518.939 L215.243 518.939 L215.243 522.874 L195.335 522.874 L195.335 518.939 Z" fill="#000000" fill-rule="evenodd" fill-opacity="1" /><path clip-path="url(#clip800)" d="M 0 0 M234.687 491.392 Q231.076 491.392 229.247 494.957 Q227.442 498.499 227.442 505.628 Q227.442 512.735 229.247 516.3 Q231.076 519.841 234.687 519.841 Q238.321 519.841 240.127 516.3 Q241.956 512.735 241.956 505.628 Q241.956 498.499 240.127 494.957 Q238.321 491.392 234.687 491.392 M234.687 487.689 Q240.497 487.689 243.553 492.295 Q246.632 496.879 246.632 505.628 Q246.632 514.355 243.553 518.962 Q240.497 523.545 234.687 523.545 Q228.877 523.545 225.798 518.962 Q222.743 514.355 222.743 505.628 Q222.743 496.879 225.798 492.295 Q228.877 487.689 234.687 487.689 Z" fill="#000000" fill-rule="evenodd" fill-opacity="1" /><path clip-path="url(#clip800)" d="M 0 0 M160.289 129.754 Q156.678 129.754 154.85 133.319 Q153.044 136.86 153.044 143.99 Q153.044 151.096 154.85 154.661 Q156.678 158.203 160.289 158.203 Q163.924 158.203 165.729 154.661 Q167.558 151.096 167.558 143.99 Q167.558 136.86 165.729 133.319 Q163.924 129.754 160.289 129.754 M160.289 126.05 Q166.1 126.05 169.155 130.657 Q172.234 135.24 172.234 143.99 Q172.234 152.717 169.155 157.323 Q166.1 161.906 160.289 161.906 Q154.479 161.906 151.401 157.323 Q148.345 152.717 148.345 143.99 Q148.345 135.24 151.401 130.657 Q154.479 126.05 160.289 126.05 Z" fill="#000000" fill-rule="evenodd" fill-opacity="1" /><path clip-path="url(#clip800)" d="M 0 0 M180.451 155.356 L185.336 155.356 L185.336 161.235 L180.451 161.235 L180.451 155.356 Z" fill="#000000" fill-rule="evenodd" fill-opacity="1" /><path clip-path="url(#clip800)" d="M 0 0 M196.331 157.3 L203.97 157.3 L203.97 130.934 L195.66 132.601 L195.66 128.342 L203.923 126.675 L208.599 126.675 L208.599 157.3 L216.238 157.3 L216.238 161.235 L196.331 161.235 L196.331 157.3 Z" fill="#000000" fill-rule="evenodd" fill-opacity="1" /><path clip-path="url(#clip800)" d="M 0 0 M225.729 126.675 L244.085 126.675 L244.085 130.61 L230.011 130.61 L230.011 139.082 Q231.03 138.735 232.048 138.573 Q233.067 138.388 234.085 138.388 Q239.872 138.388 243.252 141.559 Q246.632 144.731 246.632 150.147 Q246.632 155.726 243.159 158.828 Q239.687 161.906 233.368 161.906 Q231.192 161.906 228.923 161.536 Q226.678 161.166 224.271 160.425 L224.271 155.726 Q226.354 156.86 228.576 157.416 Q230.798 157.971 233.275 157.971 Q237.28 157.971 239.618 155.865 Q241.956 153.758 241.956 150.147 Q241.956 146.536 239.618 144.43 Q237.28 142.323 233.275 142.323 Q231.4 142.323 229.525 142.74 Q227.673 143.156 225.729 144.036 L225.729 126.675 Z" fill="#000000" fill-rule="evenodd" fill-opacity="1" /><path clip-path="url(#clip800)" d="M 0 0 M60.9719 942.374 L77.3969 948.043 L77.3969 1002.73 Q77.3969 1003.47 77.3647 1003.76 Q77.3325 1004.05 77.1714 1004.27 Q77.0104 1004.5 76.6561 1004.5 Q76.3663 1004.5 75.6255 1003.92 L46.6725 980.506 L13.5648 1004.56 Q12.0512 1004.56 11.7613 1004.31 Q11.4393 1004.05 11.4393 1002.73 L11.4393 948.043 L26.8659 942.374 L26.8659 944.017 Q24.8691 944.758 23.1944 945.949 Q21.4875 947.109 20.2637 948.461 Q19.0398 949.782 18.0737 951.521 Q17.0753 953.228 16.4634 954.838 Q15.8193 956.416 15.3684 958.381 Q14.8853 960.345 14.6598 961.923 Q14.4022 963.469 14.2734 965.402 Q14.1446 967.334 14.1123 968.558 Q14.0801 969.782 14.0801 971.327 L14.0801 997.446 L43.4841 976.03 Q44.2248 975.546 44.4181 975.546 Q44.7079 975.546 45.4809 976.158 L73.7576 999.024 L73.7576 971.005 Q73.7576 961.988 71.8575 955.708 Q70.4082 951.456 67.5419 948.365 Q64.6756 945.241 60.9719 944.017 L60.9719 942.374 Z" fill="#000000" fill-rule="evenodd" fill-opacity="1" /><path clip-path="url(#clip800)" d="M 0 0 M103.539 1013.55 Q104.17 1013.55 104.328 1013.85 Q104.463 1014.14 104.463 1014.95 L104.463 1019.28 L118.08 1022.7 Q119.275 1022.98 120.289 1022.98 Q121.417 1022.98 121.913 1022.64 Q122.408 1022.28 122.408 1021.53 Q122.408 1020.07 121.078 1018.49 Q119.748 1016.89 116.502 1015.54 Q116.074 1015.36 115.983 1015.27 Q115.871 1015.15 115.871 1014.86 Q115.871 1014.3 116.322 1014.3 Q116.479 1014.3 117.201 1014.61 Q117.922 1014.9 118.982 1015.56 Q120.041 1016.19 121.033 1017.02 Q122.025 1017.84 122.747 1019.08 Q123.446 1020.32 123.446 1021.65 Q123.446 1023.52 122.251 1024.71 Q121.056 1025.88 119.185 1025.88 Q118.576 1025.88 116.637 1025.41 Q114.676 1024.94 104.463 1022.37 L104.463 1026.45 Q104.463 1027.01 104.441 1027.24 Q104.418 1027.44 104.306 1027.6 Q104.17 1027.73 103.9 1027.73 Q103.471 1027.73 103.291 1027.55 Q103.088 1027.37 103.066 1027.15 Q103.021 1026.9 103.021 1026.33 L103.021 1022.01 L95.6937 1020.2 Q94.9723 1020.02 94.5665 1019.57 Q94.1382 1019.1 94.0931 1018.83 Q94.0255 1018.56 94.0255 1018.35 Q94.0255 1017.75 94.3636 1017.38 Q94.6792 1017.02 95.2654 1017.02 Q95.581 1017.02 103.021 1018.92 L103.021 1014.86 Q103.021 1014.34 103.043 1014.14 Q103.066 1013.91 103.178 1013.73 Q103.291 1013.55 103.539 1013.55 Z" fill="#000000" fill-rule="evenodd" fill-opacity="1" /><path clip-path="url(#clip800)" d="M 0 0 M115.916 998.419 Q115.352 998.374 115.352 997.495 L115.352 969.202 Q115.352 967.872 115.871 967.85 Q116.434 967.85 116.412 969.112 L116.412 997.179 Q116.434 998.419 115.916 998.419 M106.898 998.419 Q106.335 998.419 106.357 997.45 L106.357 969.247 Q106.357 967.872 106.898 967.85 Q107.417 967.85 107.417 969.022 L107.417 997.495 Q107.417 998.419 106.898 998.419 Z" fill="#000000" fill-rule="evenodd" fill-opacity="1" /><path clip-path="url(#clip800)" d="M 0 0 M96.5729 950.037 L95.1301 950.037 Q95.1301 944.492 92.1768 941.629 Q92.1768 940.839 92.3572 940.704 Q92.5375 940.569 93.3717 940.569 L119.275 940.569 Q120.65 940.569 121.078 939.893 Q121.507 939.216 121.507 936.263 L121.507 934.798 L122.927 934.798 Q122.792 936.421 122.792 942.282 Q122.792 948.144 122.927 949.744 L121.507 949.744 L121.507 948.279 Q121.507 945.371 121.101 944.672 Q120.673 943.973 119.275 943.973 L95.3556 943.973 Q96.5729 946.385 96.5729 950.037 Z" fill="#000000" fill-rule="evenodd" fill-opacity="1" /><path clip-path="url(#clip800)" d="M 0 0 M16.9787 875.27 Q17.5906 875.27 18.1059 875.399 L29.5712 877.202 Q30.4407 877.299 30.7628 877.492 Q31.0848 877.653 31.0848 878.168 Q31.0848 878.974 30.2475 878.974 Q29.7644 878.974 28.9915 878.78 Q25.3522 878.233 23.7097 878.233 Q22.6147 878.233 21.8095 878.458 Q20.9722 878.651 20.3925 878.974 Q19.8128 879.263 19.4263 879.94 Q19.0398 880.616 18.8144 881.26 Q18.589 881.904 18.4923 883.064 Q18.3635 884.223 18.3313 885.221 Q18.2991 886.22 18.2991 887.862 Q18.2991 891.437 18.4279 892.017 Q18.589 892.629 19.0721 892.951 Q19.5229 893.241 20.8756 893.563 L55.8834 902.323 L57.2682 902.58 Q58.0411 902.58 58.2988 902.097 Q58.5564 901.614 58.7175 900.133 Q58.8785 898.007 58.8785 895.914 Q58.8785 895.849 58.8785 895.721 Q58.8785 895.012 58.9107 894.722 Q58.9107 894.432 58.9751 894.142 Q59.0395 893.853 59.2006 893.788 Q59.3294 893.692 59.587 893.692 Q60.1989 893.692 60.521 893.949 Q60.8108 894.207 60.8753 894.465 Q60.9075 894.69 60.9075 895.141 Q60.9075 896.043 60.8431 897.975 Q60.7786 899.907 60.7786 900.874 L60.7142 906.349 L60.7786 911.952 Q60.7786 912.822 60.8431 914.658 Q60.9075 916.493 60.9075 917.363 Q60.9075 918.49 60.1023 918.49 Q59.2006 918.49 59.0395 918.071 Q58.8785 917.621 58.8785 915.72 Q58.8785 913.047 58.7497 911.598 Q58.6208 910.149 58.17 909.376 Q57.7191 908.571 57.2682 908.345 Q56.7851 908.12 55.6901 907.862 L20.4891 899.006 Q19.7162 898.748 19.1043 898.748 Q18.7822 898.748 18.6534 898.845 Q18.5246 898.909 18.4279 899.328 Q18.2991 899.746 18.2991 900.616 L18.2991 903.192 Q18.2991 905.833 18.4279 907.476 Q18.5246 909.086 19.0076 910.632 Q19.4907 912.146 20.1671 913.047 Q20.8434 913.917 22.2282 914.883 Q23.6131 915.849 25.2878 916.558 Q26.9625 917.234 29.7 918.2 Q30.6017 918.522 30.8594 918.716 Q31.0848 918.877 31.0848 919.327 Q31.0848 919.65 30.8916 919.907 Q30.6662 920.133 30.3763 920.133 Q29.3135 919.811 29.1847 919.746 L17.5584 915.785 Q16.6244 915.463 16.4634 915.173 Q16.2701 914.851 16.2701 913.659 L16.2701 877.073 Q16.2701 876.494 16.2701 876.3 Q16.2701 876.107 16.3346 875.785 Q16.399 875.463 16.56 875.366 Q16.721 875.27 16.9787 875.27 Z" fill="#000000" fill-rule="evenodd" fill-opacity="1" /><path clip-path="url(#clip800)" d="M 0 0 M8.06077 850.294 L8.98508 850.858 Q7.47462 854.352 5.0624 858.703 Q7.47462 863.054 8.98508 866.548 L8.06077 867.089 Q4.74679 863.279 2.1993 858.703 Q4.76933 854.081 8.06077 850.294 Z" fill="#000000" fill-rule="evenodd" fill-opacity="1" /><path clip-path="url(#clip800)" d="M 0 0 M16.6566 834.027 Q17.0753 834.027 17.3329 834.124 Q17.5906 834.189 17.7194 834.446 Q17.816 834.672 17.8482 834.833 Q17.8804 834.961 17.9126 835.348 Q18.0415 836.926 18.4601 838.246 Q18.8466 839.567 19.6196 840.694 Q20.3925 841.789 20.9078 842.401 Q21.4231 842.981 22.4537 844.011 L23.3876 844.913 L42.1637 861.274 Q42.8078 861.853 44.2248 862.208 L53.5323 864.526 Q57.397 865.428 57.6869 865.428 Q58.2666 865.428 58.4598 865.106 Q58.6208 864.752 58.7175 863.657 L58.8785 861.145 Q58.8785 859.663 59.1361 859.438 Q59.2972 859.309 59.587 859.309 Q60.1989 859.309 60.521 859.567 Q60.8108 859.792 60.8753 860.018 Q60.9075 860.211 60.9075 860.565 L60.7142 869.003 L60.9075 877.312 Q60.9075 878.246 60.1667 878.246 Q59.6836 878.246 59.426 878.182 Q59.1361 878.085 59.0395 877.795 Q58.9107 877.505 58.9107 877.28 Q58.8785 877.055 58.8785 876.443 Q58.8463 874.961 58.8463 874.22 Q58.8141 873.447 58.6208 872.707 Q58.4276 871.966 58.2988 871.708 Q58.1378 871.418 57.5903 871.096 Q57.0106 870.742 56.5597 870.646 Q56.1088 870.517 54.9816 870.259 Q53.9832 870.001 48.5404 868.649 Q43.0976 867.296 42.9688 867.296 Q42.6145 867.296 41.8416 867.554 L20.1348 875.67 Q19.1687 876.024 18.7822 876.314 Q18.3957 876.604 18.1703 877.57 Q17.9126 878.536 17.9126 880.468 Q17.9126 881.016 17.8804 881.273 Q17.8482 881.531 17.6872 881.757 Q17.5262 881.982 17.1719 881.982 Q16.56 881.982 16.2701 881.724 Q15.9481 881.467 15.9159 881.273 Q15.8515 881.048 15.8515 880.726 Q15.8515 879.921 15.9481 877.055 Q16.0447 874.188 16.0447 873.351 L15.8515 865.042 Q15.8515 864.043 16.5922 864.043 Q17.494 864.043 17.7194 864.398 Q17.9126 864.752 17.9126 865.621 Q17.9126 869.518 19.4907 869.518 Q19.684 869.518 20.6179 869.132 L40.1991 861.886 L22.5825 846.588 L22.3248 846.362 Q22.0672 846.169 21.874 846.008 Q21.6807 845.847 21.3265 845.589 Q20.9722 845.332 20.6823 845.203 Q20.3925 845.042 20.0382 844.913 Q19.684 844.784 19.4263 844.784 Q18.9432 844.784 18.6212 845.074 Q18.2669 845.364 18.1381 845.815 Q18.0093 846.266 17.9771 846.588 Q17.9126 846.91 17.9126 847.167 Q17.9126 848.166 17.1075 848.166 Q16.5278 848.166 16.2379 847.908 Q15.9159 847.651 15.8837 847.457 Q15.8515 847.232 15.8515 846.91 Q15.8515 845.847 15.9481 843.625 Q16.0447 841.403 16.0447 840.308 Q16.0447 839.406 15.9481 837.57 Q15.8515 835.734 15.8515 834.897 Q15.8515 834.027 16.6566 834.027 Z" fill="#000000" fill-rule="evenodd" fill-opacity="1" /><path clip-path="url(#clip800)" d="M 0 0 M58.6936 822.834 Q59.3248 822.834 59.4826 823.128 Q59.6179 823.421 59.6179 824.232 L59.6179 828.561 L73.2345 831.987 Q74.4294 832.258 75.4439 832.258 Q76.5711 832.258 77.067 831.92 Q77.563 831.559 77.563 830.815 Q77.563 829.35 76.2329 827.772 Q74.9028 826.171 71.6565 824.818 Q71.2281 824.638 71.1379 824.548 Q71.0252 824.435 71.0252 824.142 Q71.0252 823.578 71.4761 823.578 Q71.6339 823.578 72.3553 823.894 Q73.0767 824.187 74.1363 824.841 Q75.1959 825.472 76.1878 826.306 Q77.1798 827.118 77.9012 828.358 Q78.6 829.598 78.6 830.928 Q78.6 832.799 77.4052 833.994 Q76.2104 835.166 74.3392 835.166 Q73.7305 835.166 71.7917 834.693 Q69.8304 834.219 59.6179 831.649 L59.6179 835.73 Q59.6179 836.293 59.5954 836.519 Q59.5728 836.722 59.4601 836.879 Q59.3248 837.015 59.0543 837.015 Q58.626 837.015 58.4456 836.834 Q58.2427 836.654 58.2202 836.429 Q58.1751 836.181 58.1751 835.617 L58.1751 831.289 L50.8483 829.485 Q50.1268 829.305 49.721 828.854 Q49.2927 828.38 49.2476 828.11 Q49.18 827.839 49.18 827.636 Q49.18 827.028 49.5181 826.667 Q49.8338 826.306 50.4199 826.306 Q50.7355 826.306 58.1751 828.2 L58.1751 824.142 Q58.1751 823.624 58.1976 823.421 Q58.2202 823.195 58.3329 823.015 Q58.4456 822.834 58.6936 822.834 Z" fill="#000000" fill-rule="evenodd" fill-opacity="1" /><path clip-path="url(#clip800)" d="M 0 0 M42.9564 813.474 Q32.3142 813.474 23.7328 809.506 Q20.1342 807.814 17.1199 805.446 Q14.1057 803.078 12.7831 801.509 Q11.4605 799.94 11.4605 799.51 Q11.4605 798.894 12.0756 798.864 Q12.3832 798.864 13.1522 799.694 Q23.4868 809.844 42.9564 809.813 Q62.4875 809.813 72.4223 799.94 Q73.4988 798.864 73.8371 798.864 Q74.4523 798.864 74.4523 799.51 Q74.4523 799.94 73.1912 801.447 Q71.9302 802.954 69.0389 805.292 Q66.1477 807.63 62.6106 809.321 Q54.0292 813.474 42.9564 813.474 Z" fill="#000000" fill-rule="evenodd" fill-opacity="1" /><path clip-path="url(#clip800)" d="M 0 0 M24.7081 782.245 Q19.0398 782.245 15.2396 779.347 Q11.4393 776.448 11.4393 772.551 Q11.4393 770.168 13.5648 767.817 Q18.6534 762.471 18.6212 755.482 Q18.6212 747.559 12.3732 742.954 Q11.4393 742.149 11.4393 741.569 Q11.4393 741.054 11.8579 740.667 Q12.2444 740.249 12.7597 740.249 Q13.1462 740.249 13.9513 740.764 L63.6128 774.129 Q64.6111 774.87 64.6111 775.45 Q64.6111 775.965 64.1925 776.384 Q63.806 776.77 63.2907 776.77 Q62.8398 776.77 61.9703 776.19 L17.8482 746.561 L17.7838 746.625 Q20.1026 750.039 20.0704 755.418 Q20.0704 760.506 17.3007 765.369 Q20.7145 763.984 24.7725 763.984 Q30.3119 763.984 34.1766 766.464 Q38.0091 768.944 38.0091 772.551 Q38.0091 776.448 34.2732 779.347 Q30.5051 782.245 24.7081 782.245 M19.3297 777.704 Q21.6485 778.155 24.7725 778.155 Q27.8643 778.155 30.1831 777.704 Q32.4697 777.253 33.6613 776.609 Q34.8529 775.933 35.5615 775.031 Q36.2378 774.129 36.3988 773.582 Q36.5598 773.034 36.5598 772.487 Q36.5598 769.781 33.2104 767.72 Q29.8288 765.627 24.7081 765.627 Q19.684 765.627 16.3023 767.72 Q12.8885 769.781 12.8885 772.487 Q12.8885 773.066 13.0496 773.646 Q13.2106 774.194 13.9191 775.063 Q14.5954 775.933 15.7871 776.609 Q16.9787 777.253 19.3297 777.704 M51.2779 753.034 Q45.6097 753.034 41.8094 750.136 Q38.0091 747.237 38.0091 743.34 Q38.0091 739.766 41.8738 737.286 Q45.7385 734.774 51.3423 734.774 Q56.8817 734.774 60.7464 737.253 Q64.6111 739.701 64.6111 743.34 Q64.6111 747.237 60.8431 750.136 Q57.075 753.034 51.2779 753.034 M45.8995 748.493 Q48.2506 748.944 51.3423 748.944 Q54.4341 748.944 56.7529 748.493 Q59.0717 748.01 60.2633 747.366 Q61.4228 746.69 62.0991 745.82 Q62.8076 744.918 62.9686 744.371 Q63.1619 743.791 63.1619 743.276 Q63.1619 740.571 59.8125 738.51 Q56.4309 736.416 51.2779 736.416 Q46.2538 736.416 42.8722 738.51 Q39.4584 740.571 39.4584 743.276 Q39.4584 743.856 39.6516 744.435 Q39.8126 744.983 40.5212 745.852 Q41.1975 746.69 42.3891 747.366 Q43.5485 748.01 45.8995 748.493 Z" fill="#000000" fill-rule="evenodd" fill-opacity="1" /><path clip-path="url(#clip800)" d="M 0 0 M59.8447 726.924 Q58.7819 727.858 57.397 727.858 Q56.0122 727.858 54.9816 726.956 Q53.9188 726.022 53.9188 724.348 Q53.9188 722.383 55.8189 721.256 Q57.6869 720.129 60.8431 720.129 Q64.2569 720.129 67.413 721.514 Q70.6014 722.898 72.1151 724.251 Q73.6288 725.604 73.6288 726.151 Q73.6288 726.795 72.9203 726.795 Q72.6626 726.795 72.1795 726.344 Q67.091 721.61 60.8431 721.578 Q59.8447 721.578 59.8447 721.707 L59.9735 721.868 Q60.9075 722.995 60.9075 724.348 Q60.9075 725.99 59.8447 726.924 Z" fill="#000000" fill-rule="evenodd" fill-opacity="1" /><path clip-path="url(#clip800)" d="M 0 0 M43.6129 664.724 Q46.8657 664.724 50.1185 666.399 Q53.3713 668.073 55.8834 670.811 Q58.3632 673.548 59.9735 677.284 Q61.5838 681.02 61.7126 684.917 L71.5354 687.429 Q73.9186 687.912 74.1763 688.17 Q74.4339 688.427 74.4339 688.814 Q74.4339 689.619 73.6932 689.619 Q73.4678 689.619 67.8961 688.17 L61.7126 686.624 Q61.3906 692.485 58.0089 695.899 Q54.6273 699.313 49.7642 699.313 Q46.4792 699.313 43.2264 697.638 Q39.9414 695.931 37.4616 693.194 Q34.9817 690.424 33.4037 686.688 Q31.8256 682.952 31.6967 679.12 L16.4634 675.287 Q15.5938 675.094 15.3684 674.933 Q15.1429 674.772 15.1429 674.289 Q15.1429 673.935 15.304 673.742 Q15.465 673.548 15.626 673.548 L15.7871 673.516 L16.721 673.709 L31.6967 677.413 Q31.9222 674.128 33.0816 671.584 Q34.241 669.04 35.9801 667.59 Q37.687 666.141 39.6194 665.432 Q41.5517 664.724 43.6129 664.724 M33.146 679.506 Q33.4681 683.049 35.2072 686.044 Q36.9463 689.039 39.5228 690.972 Q42.067 692.904 45.1266 693.967 Q48.1539 695.03 51.1491 695.03 Q53.5001 695.03 55.3036 694.257 Q57.1072 693.452 58.1378 692.131 Q59.1361 690.811 59.6836 689.361 Q60.1989 687.88 60.2633 686.302 L33.146 679.506 M42.2281 669.04 Q38.0413 669.04 35.6903 671.455 Q33.3392 673.87 33.146 677.8 L60.2633 684.595 Q60.0379 681.729 58.8463 679.217 Q57.6225 676.672 55.8189 674.837 Q53.9832 673.001 51.7288 671.68 Q49.4422 670.36 47.0267 669.716 Q44.5791 669.04 42.2281 669.04 Z" fill="#000000" fill-rule="evenodd" fill-opacity="1" /><path clip-path="url(#clip800)" d="M 0 0 M50.8914 642.094 Q50.0863 642.03 50.0863 640.774 L50.0863 600.355 Q50.0863 598.455 50.827 598.423 Q51.6322 598.423 51.6 600.227 L51.6 640.323 Q51.6322 642.094 50.8914 642.094 M38.0091 642.094 Q37.204 642.094 37.2362 640.709 L37.2362 600.42 Q37.2362 598.455 38.0091 598.423 Q38.7498 598.423 38.7498 600.098 L38.7498 640.774 Q38.7498 642.094 38.0091 642.094 Z" fill="#000000" fill-rule="evenodd" fill-opacity="1" /><path clip-path="url(#clip800)" d="M 0 0 M23.2588 572.977 L21.1976 572.977 Q21.1976 565.055 16.9787 560.965 Q16.9787 559.837 17.2363 559.644 Q17.494 559.451 18.6856 559.451 L55.6901 559.451 Q57.6547 559.451 58.2666 558.485 Q58.8785 557.519 58.8785 553.3 L58.8785 551.206 L60.9075 551.206 Q60.7142 553.525 60.7142 561.899 Q60.7142 570.272 60.9075 572.559 L58.8785 572.559 L58.8785 570.465 Q58.8785 566.311 58.2988 565.312 Q57.6869 564.314 55.6901 564.314 L21.5197 564.314 Q23.2588 567.76 23.2588 572.977 Z" fill="#000000" fill-rule="evenodd" fill-opacity="1" /><path clip-path="url(#clip800)" d="M 0 0 M59.8447 546.065 Q58.7819 547.063 57.397 547.063 Q56.0122 547.063 55.0138 546.065 Q53.9832 545.067 53.9832 543.553 Q53.9832 542.104 54.9494 541.137 Q55.8834 540.139 57.4292 540.139 Q58.9429 540.139 59.9413 541.202 Q60.9075 542.232 60.9075 543.553 Q60.9075 545.067 59.8447 546.065 Z" fill="#000000" fill-rule="evenodd" fill-opacity="1" /><path clip-path="url(#clip800)" d="M 0 0 M60.9075 528.913 Q59.7158 528.913 59.3616 528.816 Q59.0073 528.688 58.4598 528.172 L44.3537 515.515 Q36.5598 508.591 29.7644 508.591 Q25.3522 508.591 22.196 510.91 Q19.0398 513.197 19.0398 517.416 Q19.0398 520.314 20.8112 522.762 Q22.5825 525.209 25.7387 526.337 Q25.6743 526.143 25.6743 525.467 Q25.6743 523.825 26.7048 522.923 Q27.7354 521.989 29.1203 521.989 Q30.8916 521.989 31.7612 523.148 Q32.5985 524.275 32.5985 525.403 Q32.5985 525.854 32.5019 526.465 Q32.4053 527.045 31.5035 527.979 Q30.5695 528.913 28.927 528.913 Q24.3216 528.913 20.6501 525.435 Q16.9787 521.924 16.9787 516.578 Q16.9787 510.524 20.5857 506.562 Q24.1606 502.569 29.7644 502.569 Q31.729 502.569 33.5325 503.181 Q35.3038 503.76 36.6887 504.565 Q38.0735 505.338 40.2957 507.464 Q42.5179 509.59 44.096 511.296 Q45.6741 513.003 49.0235 516.836 L55.8189 523.825 L55.8189 511.941 Q55.8189 506.144 55.3036 505.693 Q54.3697 505.049 49.4422 504.243 L49.4422 502.569 L60.9075 504.437 L60.9075 528.913 Z" fill="#000000" fill-rule="evenodd" fill-opacity="1" /><path clip-path="url(#clip800)" d="M 0 0 M50.2795 496.249 Q48.315 496.249 47.5742 495.186 Q46.8013 494.123 46.8013 492.996 Q46.8013 491.483 47.7675 490.613 Q48.7014 489.711 50.0219 489.711 Q51.3423 489.711 52.3085 490.613 Q53.2425 491.483 53.2425 492.996 Q53.2425 493.737 53.1136 494.123 Q56.141 493.254 58.331 490.613 Q60.521 487.94 60.521 484.429 Q60.521 480.017 56.2376 477.376 Q53.4679 475.798 47.1878 475.798 Q41.6484 475.798 38.8787 476.99 Q34.6597 478.826 34.6597 482.594 Q34.6597 487.94 39.2651 491.096 Q39.8448 491.483 39.877 491.933 Q39.877 492.578 39.5228 492.739 Q39.1363 492.867 38.1379 492.867 L18.6212 492.867 Q17.0431 492.867 17.0431 492.223 Q17.0431 491.966 17.2363 491.418 Q19.0721 487.264 19.1043 482.658 Q19.1043 477.924 17.1719 473.673 Q16.9787 473.351 16.9787 473.157 Q16.9787 472.513 17.7194 472.481 Q17.9771 472.481 18.75 473.029 Q19.4907 473.544 20.4891 474.671 Q21.4553 475.798 22.3893 477.248 Q23.3232 478.697 23.9673 480.822 Q24.5793 482.916 24.5793 485.235 Q24.5793 488.004 23.7097 490.838 L36.5598 490.838 Q33.2104 487.425 33.2104 482.465 Q33.2104 477.183 37.4616 473.544 Q41.7128 469.905 47.6386 469.905 Q53.8544 469.905 58.1056 474.22 Q62.3567 478.504 62.3567 484.301 Q62.3567 489.582 58.5886 492.932 Q54.8206 496.249 50.2795 496.249 Z" fill="#000000" fill-rule="evenodd" fill-opacity="1" /><path clip-path="url(#clip800)" d="M 0 0 M73.8371 463.131 Q73.5296 463.131 72.7606 462.331 Q62.426 452.181 42.9564 452.181 Q23.4252 452.181 13.552 461.931 Q12.414 463.131 12.0756 463.131 Q11.4605 463.131 11.4605 462.516 Q11.4605 462.085 12.7216 460.578 Q13.9826 459.04 16.8738 456.733 Q19.7651 454.396 23.3022 452.673 Q31.8836 448.521 42.9564 448.521 Q53.5986 448.521 62.18 452.489 Q65.7786 454.18 68.7929 456.549 Q71.8071 458.917 73.1297 460.486 Q74.4523 462.054 74.4523 462.516 Q74.4523 463.131 73.8371 463.131 Z" fill="#000000" fill-rule="evenodd" fill-opacity="1" /><polyline clip-path="url(#clip802)" style="stroke:#0000ff; stroke-width:4; stroke-opacity:1; fill:none" points="
  325.474,1400.1 801.498,947.666 1277.52,689.411 1753.55,462.165 
  "/>
<polyline clip-path="url(#clip802)" style="stroke:#7f0080; stroke-width:4; stroke-opacity:1; fill:none" points="
  325.474,990.473 801.498,624.057 1277.52,426.808 1753.55,269.774 
  "/>
<polyline clip-path="url(#clip802)" style="stroke:#ff0000; stroke-width:4; stroke-opacity:1; fill:none" points="
  325.474,545.055 801.498,295.755 1277.52,173.366 1753.55,86.6476 
  "/>
<path clip-path="url(#clip800)" d="
M1865.39 305.333 L2352.76 305.333 L2352.76 93.6527 L1865.39 93.6527  Z
  " fill="#ffffff" fill-rule="evenodd" fill-opacity="1"/>
<polyline clip-path="url(#clip800)" style="stroke:#000000; stroke-width:4; stroke-opacity:1; fill:none" points="
  1865.39,305.333 2352.76,305.333 2352.76,93.6527 1865.39,93.6527 1865.39,305.333 
  "/>
<polyline clip-path="url(#clip800)" style="stroke:#0000ff; stroke-width:3.5; stroke-opacity:1; fill:none" points="
  1888.39,146.573 2026.4,146.573 
  "/>
<path clip-path="url(#clip800)" d="M 0 0 M2077.95 128.673 Q2077.95 129.062 2077.87 129.39 L2076.72 136.686 Q2076.66 137.239 2076.54 137.444 Q2076.44 137.649 2076.11 137.649 Q2075.59 137.649 2075.59 137.116 Q2075.59 136.809 2075.72 136.317 Q2076.07 134.001 2076.07 132.956 Q2076.07 132.259 2075.92 131.747 Q2075.8 131.214 2075.59 130.845 Q2075.41 130.476 2074.98 130.23 Q2074.55 129.984 2074.14 129.841 Q2073.73 129.697 2072.99 129.636 Q2072.25 129.554 2071.62 129.533 Q2070.98 129.513 2069.94 129.513 Q2067.66 129.513 2067.29 129.595 Q2066.91 129.697 2066.7 130.005 Q2066.52 130.292 2066.31 131.153 L2060.74 153.43 L2060.57 154.311 Q2060.57 154.803 2060.88 154.967 Q2061.19 155.131 2062.13 155.234 Q2063.48 155.336 2064.81 155.336 Q2064.86 155.336 2064.94 155.336 Q2065.39 155.336 2065.57 155.357 Q2065.76 155.357 2065.94 155.398 Q2066.13 155.439 2066.17 155.541 Q2066.23 155.623 2066.23 155.787 Q2066.23 156.176 2066.06 156.381 Q2065.9 156.566 2065.74 156.607 Q2065.59 156.627 2065.31 156.627 Q2064.73 156.627 2063.5 156.586 Q2062.27 156.545 2061.66 156.545 L2058.17 156.504 L2054.61 156.545 Q2054.06 156.545 2052.89 156.586 Q2051.72 156.627 2051.17 156.627 Q2050.45 156.627 2050.45 156.115 Q2050.45 155.541 2050.71 155.439 Q2051 155.336 2052.21 155.336 Q2053.91 155.336 2054.83 155.254 Q2055.76 155.172 2056.25 154.885 Q2056.76 154.598 2056.9 154.311 Q2057.05 154.004 2057.21 153.307 L2062.85 130.907 Q2063.01 130.415 2063.01 130.025 Q2063.01 129.82 2062.95 129.738 Q2062.91 129.656 2062.64 129.595 Q2062.38 129.513 2061.82 129.513 L2060.18 129.513 Q2058.5 129.513 2057.46 129.595 Q2056.43 129.656 2055.45 129.964 Q2054.49 130.271 2053.91 130.702 Q2053.36 131.132 2052.74 132.013 Q2052.13 132.895 2051.68 133.96 Q2051.25 135.026 2050.63 136.768 Q2050.43 137.342 2050.3 137.506 Q2050.2 137.649 2049.92 137.649 Q2049.71 137.649 2049.55 137.526 Q2049.4 137.383 2049.4 137.198 Q2049.61 136.522 2049.65 136.44 L2052.17 129.042 Q2052.37 128.447 2052.56 128.345 Q2052.76 128.222 2053.52 128.222 L2076.8 128.222 Q2077.17 128.222 2077.3 128.222 Q2077.42 128.222 2077.62 128.263 Q2077.83 128.304 2077.89 128.406 Q2077.95 128.509 2077.95 128.673 Z" fill="#000000" fill-rule="evenodd" fill-opacity="1" /><path clip-path="url(#clip800)" d="M 0 0 M2085.32 150.254 Q2085.36 149.741 2086.16 149.741 L2111.88 149.741 Q2113.09 149.741 2113.11 150.213 Q2113.11 150.725 2111.96 150.704 L2086.45 150.704 Q2085.32 150.725 2085.32 150.254 M2085.32 142.056 Q2085.32 141.543 2086.2 141.564 L2111.84 141.564 Q2113.09 141.564 2113.11 142.056 Q2113.11 142.527 2112.05 142.527 L2086.16 142.527 Q2085.32 142.527 2085.32 142.056 Z" fill="#000000" fill-rule="evenodd" fill-opacity="1" /><path clip-path="url(#clip800)" d="M 0 0 M2129.29 143.203 Q2129.29 137.035 2130.85 133.673 Q2133.02 128.673 2138.15 128.673 Q2139.23 128.673 2140.36 128.98 Q2141.51 129.267 2142.94 130.394 Q2144.4 131.521 2145.28 133.366 Q2146.96 136.932 2146.96 143.203 Q2146.96 149.331 2145.4 152.672 Q2143.13 157.55 2138.11 157.55 Q2136.22 157.55 2134.3 156.586 Q2132.39 155.623 2131.18 153.307 Q2129.29 149.844 2129.29 143.203 M2132.78 142.691 Q2132.78 149.024 2133.23 151.545 Q2133.74 154.27 2135.14 155.459 Q2136.55 156.627 2138.11 156.627 Q2139.79 156.627 2141.18 155.377 Q2142.6 154.107 2143.03 151.381 Q2143.5 148.696 2143.48 142.691 Q2143.48 136.85 2143.07 134.514 Q2142.51 131.788 2141.04 130.702 Q2139.58 129.595 2138.11 129.595 Q2137.55 129.595 2136.96 129.759 Q2136.39 129.923 2135.55 130.394 Q2134.71 130.866 2134.05 132.034 Q2133.41 133.202 2133.11 134.965 Q2132.78 137.239 2132.78 142.691 Z" fill="#000000" fill-rule="evenodd" fill-opacity="1" /><path clip-path="url(#clip800)" d="M 0 0 M2150.67 155.951 Q2150.08 155.275 2150.08 154.393 Q2150.08 153.512 2150.65 152.856 Q2151.24 152.18 2152.31 152.18 Q2153.56 152.18 2154.28 153.389 Q2154.99 154.578 2154.99 156.586 Q2154.99 158.759 2154.11 160.767 Q2153.23 162.796 2152.37 163.76 Q2151.51 164.723 2151.16 164.723 Q2150.75 164.723 2150.75 164.272 Q2150.75 164.108 2151.04 163.801 Q2154.05 160.562 2154.07 156.586 Q2154.07 155.951 2153.99 155.951 L2153.89 156.033 Q2153.17 156.627 2152.31 156.627 Q2151.26 156.627 2150.67 155.951 Z" fill="#000000" fill-rule="evenodd" fill-opacity="1" /><path clip-path="url(#clip800)" d="M 0 0 M2188.83 150.622 Q2188.32 153.143 2187.28 154.906 Q2185.99 157.099 2184.02 157.099 Q2182.36 157.099 2181.25 155.951 Q2180.14 154.783 2180.14 152.938 Q2180.14 152.385 2180.37 151.463 Q2180.45 151.053 2180.45 150.54 Q2180.45 147.22 2173.26 146.974 Q2172.66 149.331 2172.25 150.93 Q2171.87 152.508 2171.74 152.979 Q2171.62 153.451 2171.52 153.84 Q2171.43 154.23 2171.29 154.742 Q2171.09 155.582 2170.94 155.992 Q2170.8 156.402 2170.41 156.75 Q2170.04 157.099 2169.45 157.099 Q2168.93 157.099 2168.59 156.791 Q2168.24 156.484 2168.24 155.951 Q2168.24 155.582 2168.4 154.988 L2172.25 139.596 Q2172.36 139.166 2172.56 138.859 Q2172.77 138.551 2172.95 138.408 Q2173.16 138.264 2173.4 138.182 Q2173.65 138.1 2173.75 138.1 Q2173.85 138.08 2173.93 138.08 Q2174.49 138.08 2174.82 138.387 Q2175.16 138.674 2175.16 139.207 Q2175.16 139.289 2175.02 139.863 Q2174.9 140.416 2174.69 141.256 Q2174.49 142.097 2174.41 142.486 L2173.57 145.765 Q2174.73 145.376 2175.78 144.679 Q2176.85 143.982 2178.94 142.179 Q2179.9 141.379 2180.47 140.928 Q2181.07 140.457 2182.05 139.822 Q2183.03 139.166 2183.98 138.859 Q2184.92 138.531 2185.82 138.531 Q2186.52 138.531 2186.93 138.859 Q2187.34 139.166 2187.42 139.453 Q2187.5 139.719 2187.5 140.006 Q2187.5 140.847 2186.85 141.564 Q2186.19 142.281 2185.23 142.281 Q2184.37 142.281 2184 141.81 Q2183.63 141.338 2183.63 140.806 Q2183.63 140.396 2183.83 139.883 Q2182.69 140.375 2181.7 141.092 Q2180.72 141.789 2179.02 143.244 Q2176.6 145.314 2175.16 146.093 Q2175.98 146.114 2176.6 146.175 Q2177.23 146.216 2178.3 146.36 Q2179.37 146.503 2180.14 146.81 Q2180.92 147.097 2181.68 147.548 Q2182.46 147.999 2182.87 148.737 Q2183.3 149.475 2183.3 150.418 Q2183.3 150.868 2183.1 151.791 Q2182.75 153.307 2182.75 154.148 Q2182.75 155.213 2183.08 155.685 Q2183.42 156.156 2184.1 156.156 Q2185.39 156.156 2186.21 154.824 Q2187.05 153.471 2187.75 150.971 Q2187.85 150.499 2187.95 150.356 Q2188.06 150.213 2188.34 150.213 Q2188.83 150.213 2188.83 150.622 Z" fill="#000000" fill-rule="evenodd" fill-opacity="1" /><path clip-path="url(#clip800)" d="M 0 0 M2203.81 150.254 Q2203.85 149.741 2204.65 149.741 L2230.37 149.741 Q2231.58 149.741 2231.6 150.213 Q2231.6 150.725 2230.45 150.704 L2204.94 150.704 Q2203.81 150.725 2203.81 150.254 M2203.81 142.056 Q2203.81 141.543 2204.69 141.564 L2230.33 141.564 Q2231.58 141.564 2231.6 142.056 Q2231.6 142.527 2230.54 142.527 L2204.65 142.527 Q2203.81 142.527 2203.81 142.056 Z" fill="#000000" fill-rule="evenodd" fill-opacity="1" /><path clip-path="url(#clip800)" d="M 0 0 M2247.78 150.971 Q2247.78 149.721 2248.5 149.126 Q2249.22 148.532 2250.14 148.532 Q2251.1 148.532 2251.78 149.167 Q2252.48 149.782 2252.48 150.868 Q2252.48 152.037 2251.66 152.692 Q2250.86 153.348 2249.71 153.184 Q2250.72 154.865 2252.56 155.623 Q2254.42 156.381 2256.15 156.381 Q2257.95 156.381 2259.4 154.824 Q2260.88 153.266 2260.88 149.454 Q2260.88 146.216 2259.61 144.351 Q2258.36 142.486 2255.88 142.486 L2254.04 142.486 Q2253.4 142.486 2253.22 142.425 Q2253.03 142.363 2253.03 142.015 Q2253.03 141.605 2253.67 141.523 Q2254.3 141.523 2255.31 141.4 Q2257.74 141.318 2259.04 139.207 Q2260.2 137.239 2260.2 134.432 Q2260.2 131.87 2258.97 130.804 Q2257.77 129.718 2256.19 129.718 Q2254.71 129.718 2253.09 130.333 Q2251.47 130.948 2250.59 132.321 Q2253.19 132.321 2253.19 134.432 Q2253.19 135.354 2252.6 135.969 Q2252.03 136.563 2251.06 136.563 Q2250.14 136.563 2249.53 135.989 Q2248.91 135.395 2248.91 134.391 Q2248.91 131.993 2251.04 130.333 Q2253.19 128.673 2256.35 128.673 Q2259.47 128.673 2261.76 130.312 Q2264.08 131.952 2264.08 134.473 Q2264.08 136.953 2262.44 138.981 Q2260.8 141.01 2258.2 141.851 Q2261.39 142.486 2263.3 144.659 Q2265.2 146.81 2265.2 149.454 Q2265.2 152.733 2262.62 155.152 Q2260.04 157.55 2256.27 157.55 Q2252.79 157.55 2250.28 155.664 Q2247.78 153.779 2247.78 150.971 Z" fill="#000000" fill-rule="evenodd" fill-opacity="1" /><polyline clip-path="url(#clip800)" style="stroke:#7f0080; stroke-width:3.5; stroke-opacity:1; fill:none" points="
  1888.39,199.493 2026.4,199.493 
  "/>
<path clip-path="url(#clip800)" d="M 0 0 M2077.95 181.593 Q2077.95 181.982 2077.87 182.31 L2076.72 189.606 Q2076.66 190.159 2076.54 190.364 Q2076.44 190.569 2076.11 190.569 Q2075.59 190.569 2075.59 190.036 Q2075.59 189.729 2075.72 189.237 Q2076.07 186.921 2076.07 185.876 Q2076.07 185.179 2075.92 184.667 Q2075.8 184.134 2075.59 183.765 Q2075.41 183.396 2074.98 183.15 Q2074.55 182.904 2074.14 182.761 Q2073.73 182.617 2072.99 182.556 Q2072.25 182.474 2071.62 182.453 Q2070.98 182.433 2069.94 182.433 Q2067.66 182.433 2067.29 182.515 Q2066.91 182.617 2066.7 182.925 Q2066.52 183.212 2066.31 184.073 L2060.74 206.35 L2060.57 207.231 Q2060.57 207.723 2060.88 207.887 Q2061.19 208.051 2062.13 208.154 Q2063.48 208.256 2064.81 208.256 Q2064.86 208.256 2064.94 208.256 Q2065.39 208.256 2065.57 208.277 Q2065.76 208.277 2065.94 208.318 Q2066.13 208.359 2066.17 208.461 Q2066.23 208.543 2066.23 208.707 Q2066.23 209.096 2066.06 209.301 Q2065.9 209.486 2065.74 209.527 Q2065.59 209.547 2065.31 209.547 Q2064.73 209.547 2063.5 209.506 Q2062.27 209.465 2061.66 209.465 L2058.17 209.424 L2054.61 209.465 Q2054.06 209.465 2052.89 209.506 Q2051.72 209.547 2051.17 209.547 Q2050.45 209.547 2050.45 209.035 Q2050.45 208.461 2050.71 208.359 Q2051 208.256 2052.21 208.256 Q2053.91 208.256 2054.83 208.174 Q2055.76 208.092 2056.25 207.805 Q2056.76 207.518 2056.9 207.231 Q2057.05 206.924 2057.21 206.227 L2062.85 183.827 Q2063.01 183.335 2063.01 182.945 Q2063.01 182.74 2062.95 182.658 Q2062.91 182.576 2062.64 182.515 Q2062.38 182.433 2061.82 182.433 L2060.18 182.433 Q2058.5 182.433 2057.46 182.515 Q2056.43 182.576 2055.45 182.884 Q2054.49 183.191 2053.91 183.622 Q2053.36 184.052 2052.74 184.933 Q2052.13 185.815 2051.68 186.88 Q2051.25 187.946 2050.63 189.688 Q2050.43 190.262 2050.3 190.426 Q2050.2 190.569 2049.92 190.569 Q2049.71 190.569 2049.55 190.446 Q2049.4 190.303 2049.4 190.118 Q2049.61 189.442 2049.65 189.36 L2052.17 181.962 Q2052.37 181.367 2052.56 181.265 Q2052.76 181.142 2053.52 181.142 L2076.8 181.142 Q2077.17 181.142 2077.3 181.142 Q2077.42 181.142 2077.62 181.183 Q2077.83 181.224 2077.89 181.326 Q2077.95 181.429 2077.95 181.593 Z" fill="#000000" fill-rule="evenodd" fill-opacity="1" /><path clip-path="url(#clip800)" d="M 0 0 M2085.32 203.174 Q2085.36 202.661 2086.16 202.661 L2111.88 202.661 Q2113.09 202.661 2113.11 203.133 Q2113.11 203.645 2111.96 203.624 L2086.45 203.624 Q2085.32 203.645 2085.32 203.174 M2085.32 194.976 Q2085.32 194.463 2086.2 194.484 L2111.84 194.484 Q2113.09 194.484 2113.11 194.976 Q2113.11 195.447 2112.05 195.447 L2086.16 195.447 Q2085.32 195.447 2085.32 194.976 Z" fill="#000000" fill-rule="evenodd" fill-opacity="1" /><path clip-path="url(#clip800)" d="M 0 0 M2129.29 196.123 Q2129.29 189.955 2130.85 186.593 Q2133.02 181.593 2138.15 181.593 Q2139.23 181.593 2140.36 181.9 Q2141.51 182.187 2142.94 183.314 Q2144.4 184.441 2145.28 186.286 Q2146.96 189.852 2146.96 196.123 Q2146.96 202.251 2145.4 205.592 Q2143.13 210.47 2138.11 210.47 Q2136.22 210.47 2134.3 209.506 Q2132.39 208.543 2131.18 206.227 Q2129.29 202.764 2129.29 196.123 M2132.78 195.611 Q2132.78 201.944 2133.23 204.465 Q2133.74 207.19 2135.14 208.379 Q2136.55 209.547 2138.11 209.547 Q2139.79 209.547 2141.18 208.297 Q2142.6 207.027 2143.03 204.301 Q2143.5 201.616 2143.48 195.611 Q2143.48 189.77 2143.07 187.434 Q2142.51 184.708 2141.04 183.622 Q2139.58 182.515 2138.11 182.515 Q2137.55 182.515 2136.96 182.679 Q2136.39 182.843 2135.55 183.314 Q2134.71 183.786 2134.05 184.954 Q2133.41 186.122 2133.11 187.885 Q2132.78 190.159 2132.78 195.611 Z" fill="#000000" fill-rule="evenodd" fill-opacity="1" /><path clip-path="url(#clip800)" d="M 0 0 M2150.67 208.871 Q2150.08 208.195 2150.08 207.313 Q2150.08 206.432 2150.65 205.776 Q2151.24 205.1 2152.31 205.1 Q2153.56 205.1 2154.28 206.309 Q2154.99 207.498 2154.99 209.506 Q2154.99 211.679 2154.11 213.687 Q2153.23 215.716 2152.37 216.68 Q2151.51 217.643 2151.16 217.643 Q2150.75 217.643 2150.75 217.192 Q2150.75 217.028 2151.04 216.721 Q2154.05 213.482 2154.07 209.506 Q2154.07 208.871 2153.99 208.871 L2153.89 208.953 Q2153.17 209.547 2152.31 209.547 Q2151.26 209.547 2150.67 208.871 Z" fill="#000000" fill-rule="evenodd" fill-opacity="1" /><path clip-path="url(#clip800)" d="M 0 0 M2188.83 203.542 Q2188.32 206.063 2187.28 207.826 Q2185.99 210.019 2184.02 210.019 Q2182.36 210.019 2181.25 208.871 Q2180.14 207.703 2180.14 205.858 Q2180.14 205.305 2180.37 204.383 Q2180.45 203.973 2180.45 203.46 Q2180.45 200.14 2173.26 199.894 Q2172.66 202.251 2172.25 203.85 Q2171.87 205.428 2171.74 205.899 Q2171.62 206.371 2171.52 206.76 Q2171.43 207.15 2171.29 207.662 Q2171.09 208.502 2170.94 208.912 Q2170.8 209.322 2170.41 209.67 Q2170.04 210.019 2169.45 210.019 Q2168.93 210.019 2168.59 209.711 Q2168.24 209.404 2168.24 208.871 Q2168.24 208.502 2168.4 207.908 L2172.25 192.516 Q2172.36 192.086 2172.56 191.779 Q2172.77 191.471 2172.95 191.328 Q2173.16 191.184 2173.4 191.102 Q2173.65 191.02 2173.75 191.02 Q2173.85 191 2173.93 191 Q2174.49 191 2174.82 191.307 Q2175.16 191.594 2175.16 192.127 Q2175.16 192.209 2175.02 192.783 Q2174.9 193.336 2174.69 194.176 Q2174.49 195.017 2174.41 195.406 L2173.57 198.685 Q2174.73 198.296 2175.78 197.599 Q2176.85 196.902 2178.94 195.099 Q2179.9 194.299 2180.47 193.848 Q2181.07 193.377 2182.05 192.742 Q2183.03 192.086 2183.98 191.779 Q2184.92 191.451 2185.82 191.451 Q2186.52 191.451 2186.93 191.779 Q2187.34 192.086 2187.42 192.373 Q2187.5 192.639 2187.5 192.926 Q2187.5 193.767 2186.85 194.484 Q2186.19 195.201 2185.23 195.201 Q2184.37 195.201 2184 194.73 Q2183.63 194.258 2183.63 193.726 Q2183.63 193.316 2183.83 192.803 Q2182.69 193.295 2181.7 194.012 Q2180.72 194.709 2179.02 196.164 Q2176.6 198.234 2175.16 199.013 Q2175.98 199.034 2176.6 199.095 Q2177.23 199.136 2178.3 199.28 Q2179.37 199.423 2180.14 199.73 Q2180.92 200.017 2181.68 200.468 Q2182.46 200.919 2182.87 201.657 Q2183.3 202.395 2183.3 203.338 Q2183.3 203.788 2183.1 204.711 Q2182.75 206.227 2182.75 207.068 Q2182.75 208.133 2183.08 208.605 Q2183.42 209.076 2184.1 209.076 Q2185.39 209.076 2186.21 207.744 Q2187.05 206.391 2187.75 203.891 Q2187.85 203.419 2187.95 203.276 Q2188.06 203.133 2188.34 203.133 Q2188.83 203.133 2188.83 203.542 Z" fill="#000000" fill-rule="evenodd" fill-opacity="1" /><path clip-path="url(#clip800)" d="M 0 0 M2203.81 203.174 Q2203.85 202.661 2204.65 202.661 L2230.37 202.661 Q2231.58 202.661 2231.6 203.133 Q2231.6 203.645 2230.45 203.624 L2204.94 203.624 Q2203.81 203.645 2203.81 203.174 M2203.81 194.976 Q2203.81 194.463 2204.69 194.484 L2230.33 194.484 Q2231.58 194.484 2231.6 194.976 Q2231.6 195.447 2230.54 195.447 L2204.65 195.447 Q2203.81 195.447 2203.81 194.976 Z" fill="#000000" fill-rule="evenodd" fill-opacity="1" /><path clip-path="url(#clip800)" d="M 0 0 M2247.78 185.589 L2247.78 184.277 Q2252.83 184.277 2255.43 181.593 Q2256.15 181.593 2256.27 181.757 Q2256.39 181.921 2256.39 182.679 L2256.39 206.227 Q2256.39 207.477 2257.01 207.867 Q2257.62 208.256 2260.31 208.256 L2261.64 208.256 L2261.64 209.547 Q2260.16 209.424 2254.83 209.424 Q2249.51 209.424 2248.05 209.547 L2248.05 208.256 L2249.38 208.256 Q2252.03 208.256 2252.66 207.887 Q2253.3 207.498 2253.3 206.227 L2253.3 184.482 Q2251.1 185.589 2247.78 185.589 Z" fill="#000000" fill-rule="evenodd" fill-opacity="1" /><path clip-path="url(#clip800)" d="M 0 0 M2265.19 196.123 Q2265.19 189.955 2266.75 186.593 Q2268.92 181.593 2274.04 181.593 Q2275.13 181.593 2276.26 181.9 Q2277.41 182.187 2278.84 183.314 Q2280.3 184.441 2281.18 186.286 Q2282.86 189.852 2282.86 196.123 Q2282.86 202.251 2281.3 205.592 Q2279.02 210.47 2274 210.47 Q2272.12 210.47 2270.19 209.506 Q2268.29 208.543 2267.08 206.227 Q2265.19 202.764 2265.19 196.123 M2268.67 195.611 Q2268.67 201.944 2269.13 204.465 Q2269.64 207.19 2271.03 208.379 Q2272.45 209.547 2274 209.547 Q2275.68 209.547 2277.08 208.297 Q2278.49 207.027 2278.92 204.301 Q2279.39 201.616 2279.37 195.611 Q2279.37 189.77 2278.96 187.434 Q2278.41 184.708 2276.93 183.622 Q2275.48 182.515 2274 182.515 Q2273.45 182.515 2272.86 182.679 Q2272.28 182.843 2271.44 183.314 Q2270.6 183.786 2269.95 184.954 Q2269.31 186.122 2269 187.885 Q2268.67 190.159 2268.67 195.611 Z" fill="#000000" fill-rule="evenodd" fill-opacity="1" /><polyline clip-path="url(#clip800)" style="stroke:#ff0000; stroke-width:3.5; stroke-opacity:1; fill:none" points="
  1888.39,252.413 2026.4,252.413 
  "/>
<path clip-path="url(#clip800)" d="M 0 0 M2077.95 234.513 Q2077.95 234.902 2077.87 235.23 L2076.72 242.526 Q2076.66 243.079 2076.54 243.284 Q2076.44 243.489 2076.11 243.489 Q2075.59 243.489 2075.59 242.956 Q2075.59 242.649 2075.72 242.157 Q2076.07 239.841 2076.07 238.796 Q2076.07 238.099 2075.92 237.587 Q2075.8 237.054 2075.59 236.685 Q2075.41 236.316 2074.98 236.07 Q2074.55 235.824 2074.14 235.681 Q2073.73 235.537 2072.99 235.476 Q2072.25 235.394 2071.62 235.373 Q2070.98 235.353 2069.94 235.353 Q2067.66 235.353 2067.29 235.435 Q2066.91 235.537 2066.7 235.845 Q2066.52 236.132 2066.31 236.993 L2060.74 259.27 L2060.57 260.151 Q2060.57 260.643 2060.88 260.807 Q2061.19 260.971 2062.13 261.074 Q2063.48 261.176 2064.81 261.176 Q2064.86 261.176 2064.94 261.176 Q2065.39 261.176 2065.57 261.197 Q2065.76 261.197 2065.94 261.238 Q2066.13 261.279 2066.17 261.381 Q2066.23 261.463 2066.23 261.627 Q2066.23 262.016 2066.06 262.221 Q2065.9 262.406 2065.74 262.447 Q2065.59 262.467 2065.31 262.467 Q2064.73 262.467 2063.5 262.426 Q2062.27 262.385 2061.66 262.385 L2058.17 262.344 L2054.61 262.385 Q2054.06 262.385 2052.89 262.426 Q2051.72 262.467 2051.17 262.467 Q2050.45 262.467 2050.45 261.955 Q2050.45 261.381 2050.71 261.279 Q2051 261.176 2052.21 261.176 Q2053.91 261.176 2054.83 261.094 Q2055.76 261.012 2056.25 260.725 Q2056.76 260.438 2056.9 260.151 Q2057.05 259.844 2057.21 259.147 L2062.85 236.747 Q2063.01 236.255 2063.01 235.865 Q2063.01 235.66 2062.95 235.578 Q2062.91 235.496 2062.64 235.435 Q2062.38 235.353 2061.82 235.353 L2060.18 235.353 Q2058.5 235.353 2057.46 235.435 Q2056.43 235.496 2055.45 235.804 Q2054.49 236.111 2053.91 236.542 Q2053.36 236.972 2052.74 237.853 Q2052.13 238.735 2051.68 239.8 Q2051.25 240.866 2050.63 242.608 Q2050.43 243.182 2050.3 243.346 Q2050.2 243.489 2049.92 243.489 Q2049.71 243.489 2049.55 243.366 Q2049.4 243.223 2049.4 243.038 Q2049.61 242.362 2049.65 242.28 L2052.17 234.882 Q2052.37 234.287 2052.56 234.185 Q2052.76 234.062 2053.52 234.062 L2076.8 234.062 Q2077.17 234.062 2077.3 234.062 Q2077.42 234.062 2077.62 234.103 Q2077.83 234.144 2077.89 234.246 Q2077.95 234.349 2077.95 234.513 Z" fill="#000000" fill-rule="evenodd" fill-opacity="1" /><path clip-path="url(#clip800)" d="M 0 0 M2085.32 256.094 Q2085.36 255.581 2086.16 255.581 L2111.88 255.581 Q2113.09 255.581 2113.11 256.053 Q2113.11 256.565 2111.96 256.544 L2086.45 256.544 Q2085.32 256.565 2085.32 256.094 M2085.32 247.896 Q2085.32 247.383 2086.2 247.404 L2111.84 247.404 Q2113.09 247.404 2113.11 247.896 Q2113.11 248.367 2112.05 248.367 L2086.16 248.367 Q2085.32 248.367 2085.32 247.896 Z" fill="#000000" fill-rule="evenodd" fill-opacity="1" /><path clip-path="url(#clip800)" d="M 0 0 M2129.29 249.043 Q2129.29 242.875 2130.85 239.513 Q2133.02 234.513 2138.15 234.513 Q2139.23 234.513 2140.36 234.82 Q2141.51 235.107 2142.94 236.234 Q2144.4 237.361 2145.28 239.206 Q2146.96 242.772 2146.96 249.043 Q2146.96 255.171 2145.4 258.512 Q2143.13 263.39 2138.11 263.39 Q2136.22 263.39 2134.3 262.426 Q2132.39 261.463 2131.18 259.147 Q2129.29 255.684 2129.29 249.043 M2132.78 248.531 Q2132.78 254.864 2133.23 257.385 Q2133.74 260.11 2135.14 261.299 Q2136.55 262.467 2138.11 262.467 Q2139.79 262.467 2141.18 261.217 Q2142.6 259.947 2143.03 257.221 Q2143.5 254.536 2143.48 248.531 Q2143.48 242.69 2143.07 240.354 Q2142.51 237.628 2141.04 236.542 Q2139.58 235.435 2138.11 235.435 Q2137.55 235.435 2136.96 235.599 Q2136.39 235.763 2135.55 236.234 Q2134.71 236.706 2134.05 237.874 Q2133.41 239.042 2133.11 240.805 Q2132.78 243.079 2132.78 248.531 Z" fill="#000000" fill-rule="evenodd" fill-opacity="1" /><path clip-path="url(#clip800)" d="M 0 0 M2150.67 261.791 Q2150.08 261.115 2150.08 260.233 Q2150.08 259.352 2150.65 258.696 Q2151.24 258.02 2152.31 258.02 Q2153.56 258.02 2154.28 259.229 Q2154.99 260.418 2154.99 262.426 Q2154.99 264.599 2154.11 266.607 Q2153.23 268.636 2152.37 269.6 Q2151.51 270.563 2151.16 270.563 Q2150.75 270.563 2150.75 270.112 Q2150.75 269.948 2151.04 269.641 Q2154.05 266.402 2154.07 262.426 Q2154.07 261.791 2153.99 261.791 L2153.89 261.873 Q2153.17 262.467 2152.31 262.467 Q2151.26 262.467 2150.67 261.791 Z" fill="#000000" fill-rule="evenodd" fill-opacity="1" /><path clip-path="url(#clip800)" d="M 0 0 M2188.83 256.462 Q2188.32 258.983 2187.28 260.746 Q2185.99 262.939 2184.02 262.939 Q2182.36 262.939 2181.25 261.791 Q2180.14 260.623 2180.14 258.778 Q2180.14 258.225 2180.37 257.303 Q2180.45 256.893 2180.45 256.38 Q2180.45 253.06 2173.26 252.814 Q2172.66 255.171 2172.25 256.77 Q2171.87 258.348 2171.74 258.819 Q2171.62 259.291 2171.52 259.68 Q2171.43 260.07 2171.29 260.582 Q2171.09 261.422 2170.94 261.832 Q2170.8 262.242 2170.41 262.59 Q2170.04 262.939 2169.45 262.939 Q2168.93 262.939 2168.59 262.631 Q2168.24 262.324 2168.24 261.791 Q2168.24 261.422 2168.4 260.828 L2172.25 245.436 Q2172.36 245.006 2172.56 244.699 Q2172.77 244.391 2172.95 244.248 Q2173.16 244.104 2173.4 244.022 Q2173.65 243.94 2173.75 243.94 Q2173.85 243.92 2173.93 243.92 Q2174.49 243.92 2174.82 244.227 Q2175.16 244.514 2175.16 245.047 Q2175.16 245.129 2175.02 245.703 Q2174.9 246.256 2174.69 247.096 Q2174.49 247.937 2174.41 248.326 L2173.57 251.605 Q2174.73 251.216 2175.78 250.519 Q2176.85 249.822 2178.94 248.019 Q2179.9 247.219 2180.47 246.768 Q2181.07 246.297 2182.05 245.662 Q2183.03 245.006 2183.98 244.699 Q2184.92 244.371 2185.82 244.371 Q2186.52 244.371 2186.93 244.699 Q2187.34 245.006 2187.42 245.293 Q2187.5 245.559 2187.5 245.846 Q2187.5 246.687 2186.85 247.404 Q2186.19 248.121 2185.23 248.121 Q2184.37 248.121 2184 247.65 Q2183.63 247.178 2183.63 246.646 Q2183.63 246.236 2183.83 245.723 Q2182.69 246.215 2181.7 246.932 Q2180.72 247.629 2179.02 249.084 Q2176.6 251.154 2175.16 251.933 Q2175.98 251.954 2176.6 252.015 Q2177.23 252.056 2178.3 252.2 Q2179.37 252.343 2180.14 252.65 Q2180.92 252.937 2181.68 253.388 Q2182.46 253.839 2182.87 254.577 Q2183.3 255.315 2183.3 256.258 Q2183.3 256.708 2183.1 257.631 Q2182.75 259.147 2182.75 259.988 Q2182.75 261.053 2183.08 261.525 Q2183.42 261.996 2184.1 261.996 Q2185.39 261.996 2186.21 260.664 Q2187.05 259.311 2187.75 256.811 Q2187.85 256.339 2187.95 256.196 Q2188.06 256.053 2188.34 256.053 Q2188.83 256.053 2188.83 256.462 Z" fill="#000000" fill-rule="evenodd" fill-opacity="1" /><path clip-path="url(#clip800)" d="M 0 0 M2203.81 256.094 Q2203.85 255.581 2204.65 255.581 L2230.37 255.581 Q2231.58 255.581 2231.6 256.053 Q2231.6 256.565 2230.45 256.544 L2204.94 256.544 Q2203.81 256.565 2203.81 256.094 M2203.81 247.896 Q2203.81 247.383 2204.69 247.404 L2230.33 247.404 Q2231.58 247.404 2231.6 247.896 Q2231.6 248.367 2230.54 248.367 L2204.65 248.367 Q2203.81 248.367 2203.81 247.896 Z" fill="#000000" fill-rule="evenodd" fill-opacity="1" /><path clip-path="url(#clip800)" d="M 0 0 M2247.78 238.509 L2247.78 237.197 Q2252.83 237.197 2255.43 234.513 Q2256.15 234.513 2256.27 234.677 Q2256.39 234.841 2256.39 235.599 L2256.39 259.147 Q2256.39 260.397 2257.01 260.787 Q2257.62 261.176 2260.31 261.176 L2261.64 261.176 L2261.64 262.467 Q2260.16 262.344 2254.83 262.344 Q2249.51 262.344 2248.05 262.467 L2248.05 261.176 L2249.38 261.176 Q2252.03 261.176 2252.66 260.807 Q2253.3 260.418 2253.3 259.147 L2253.3 237.402 Q2251.1 238.509 2247.78 238.509 Z" fill="#000000" fill-rule="evenodd" fill-opacity="1" /><path clip-path="url(#clip800)" d="M 0 0 M2265.19 249.043 Q2265.19 242.875 2266.75 239.513 Q2268.92 234.513 2274.04 234.513 Q2275.13 234.513 2276.26 234.82 Q2277.41 235.107 2278.84 236.234 Q2280.3 237.361 2281.18 239.206 Q2282.86 242.772 2282.86 249.043 Q2282.86 255.171 2281.3 258.512 Q2279.02 263.39 2274 263.39 Q2272.12 263.39 2270.19 262.426 Q2268.29 261.463 2267.08 259.147 Q2265.19 255.684 2265.19 249.043 M2268.67 248.531 Q2268.67 254.864 2269.13 257.385 Q2269.64 260.11 2271.03 261.299 Q2272.45 262.467 2274 262.467 Q2275.68 262.467 2277.08 261.217 Q2278.49 259.947 2278.92 257.221 Q2279.39 254.536 2279.37 248.531 Q2279.37 242.69 2278.96 240.354 Q2278.41 237.628 2276.93 236.542 Q2275.48 235.435 2274 235.435 Q2273.45 235.435 2272.86 235.599 Q2272.28 235.763 2271.44 236.234 Q2270.6 236.706 2269.95 237.874 Q2269.31 239.042 2269 240.805 Q2268.67 243.079 2268.67 248.531 Z" fill="#000000" fill-rule="evenodd" fill-opacity="1" /><path clip-path="url(#clip800)" d="M 0 0 M2285.97 249.043 Q2285.97 242.875 2287.53 239.513 Q2289.7 234.513 2294.83 234.513 Q2295.91 234.513 2297.04 234.82 Q2298.19 235.107 2299.62 236.234 Q2301.08 237.361 2301.96 239.206 Q2303.64 242.772 2303.64 249.043 Q2303.64 255.171 2302.08 258.512 Q2299.81 263.39 2294.78 263.39 Q2292.9 263.39 2290.97 262.426 Q2289.07 261.463 2287.86 259.147 Q2285.97 255.684 2285.97 249.043 M2289.46 248.531 Q2289.46 254.864 2289.91 257.385 Q2290.42 260.11 2291.81 261.299 Q2293.23 262.467 2294.78 262.467 Q2296.47 262.467 2297.86 261.217 Q2299.27 259.947 2299.7 257.221 Q2300.17 254.536 2300.15 248.531 Q2300.15 242.69 2299.74 240.354 Q2299.19 237.628 2297.72 236.542 Q2296.26 235.435 2294.78 235.435 Q2294.23 235.435 2293.64 235.599 Q2293.06 235.763 2292.22 236.234 Q2291.38 236.706 2290.73 237.874 Q2290.09 239.042 2289.78 240.805 Q2289.46 243.079 2289.46 248.531 Z" fill="#000000" fill-rule="evenodd" fill-opacity="1" /></svg>
