<?xml version="1.0" encoding="utf-8"?>
<svg xmlns="http://www.w3.org/2000/svg" xmlns:xlink="http://www.w3.org/1999/xlink" width="600" height="400" viewBox="0 0 2400 1600">
<defs>
  <clipPath id="clip680">
    <rect x="0" y="0" width="2400" height="1600"/>
  </clipPath>
</defs>
<path clip-path="url(#clip680)" d="
M0 1600 L2400 1600 L2400 0 L0 0  Z
  " fill="#ffffff" fill-rule="evenodd" fill-opacity="1"/>
<defs>
  <clipPath id="clip681">
    <rect x="480" y="0" width="1681" height="1600"/>
  </clipPath>
</defs>
<defs>
  <clipPath id="clip682">
    <rect x="207" y="47" width="1787" height="1397"/>
  </clipPath>
</defs>
<path clip-path="url(#clip680)" d="
M299.132 1439.5 L1745.66 1439.5 L1745.66 47.2441 L299.132 47.2441  Z
  " fill="#ffffff" fill-rule="evenodd" fill-opacity="1"/>
<defs>
  <clipPath id="clip683">
    <rect x="299" y="47" width="1448" height="1393"/>
  </clipPath>
</defs>
<polyline clip-path="url(#clip683)" style="stroke:#000000; stroke-width:2; stroke-opacity:0.1; fill:none" points="
  339.799,1439.5 339.799,47.2441 
  "/>
<polyline clip-path="url(#clip683)" style="stroke:#000000; stroke-width:2; stroke-opacity:0.1; fill:none" points="
  612.783,1439.5 612.783,47.2441 
  "/>
<polyline clip-path="url(#clip683)" style="stroke:#000000; stroke-width:2; stroke-opacity:0.1; fill:none" points="
  885.768,1439.5 885.768,47.2441 
  "/>
<polyline clip-path="url(#clip683)" style="stroke:#000000; stroke-width:2; stroke-opacity:0.1; fill:none" points="
  1158.75,1439.5 1158.75,47.2441 
  "/>
<polyline clip-path="url(#clip683)" style="stroke:#000000; stroke-width:2; stroke-opacity:0.1; fill:none" points="
  1431.74,1439.5 1431.74,47.2441 
  "/>
<polyline clip-path="url(#clip683)" style="stroke:#000000; stroke-width:2; stroke-opacity:0.1; fill:none" points="
  1704.72,1439.5 1704.72,47.2441 
  "/>
<polyline clip-path="url(#clip680)" style="stroke:#000000; stroke-width:4; stroke-opacity:1; fill:none" points="
  299.132,1439.5 1745.66,1439.5 
  "/>
<polyline clip-path="url(#clip680)" style="stroke:#000000; stroke-width:4; stroke-opacity:1; fill:none" points="
  339.799,1439.5 339.799,1422.79 
  "/>
<polyline clip-path="url(#clip680)" style="stroke:#000000; stroke-width:4; stroke-opacity:1; fill:none" points="
  612.783,1439.5 612.783,1422.79 
  "/>
<polyline clip-path="url(#clip680)" style="stroke:#000000; stroke-width:4; stroke-opacity:1; fill:none" points="
  885.768,1439.5 885.768,1422.79 
  "/>
<polyline clip-path="url(#clip680)" style="stroke:#000000; stroke-width:4; stroke-opacity:1; fill:none" points="
  1158.75,1439.5 1158.75,1422.79 
  "/>
<polyline clip-path="url(#clip680)" style="stroke:#000000; stroke-width:4; stroke-opacity:1; fill:none" points="
  1431.74,1439.5 1431.74,1422.79 
  "/>
<polyline clip-path="url(#clip680)" style="stroke:#000000; stroke-width:4; stroke-opacity:1; fill:none" points="
  1704.72,1439.5 1704.72,1422.79 
  "/>
<path clip-path="url(#clip680)" d="M 0 0 M339.799 1468.69 Q336.188 1468.69 334.359 1472.26 Q332.553 1475.8 332.553 1482.93 Q332.553 1490.04 334.359 1493.6 Q336.188 1497.14 339.799 1497.14 Q343.433 1497.14 345.239 1493.6 Q347.067 1490.04 347.067 1482.93 Q347.067 1475.8 345.239 1472.26 Q343.433 1468.69 339.799 1468.69 M339.799 1464.99 Q345.609 1464.99 348.664 1469.6 Q351.743 1474.18 351.743 1482.93 Q351.743 1491.66 348.664 1496.26 Q345.609 1500.85 339.799 1500.85 Q333.989 1500.85 330.91 1496.26 Q327.854 1491.66 327.854 1482.93 Q327.854 1474.18 330.91 1469.6 Q333.989 1464.99 339.799 1464.99 Z" fill="#000000" fill-rule="evenodd" fill-opacity="1" /><path clip-path="url(#clip680)" d="M 0 0 M572.39 1496.24 L580.029 1496.24 L580.029 1469.87 L571.719 1471.54 L571.719 1467.28 L579.983 1465.61 L584.659 1465.61 L584.659 1496.24 L592.297 1496.24 L592.297 1500.17 L572.39 1500.17 L572.39 1496.24 Z" fill="#000000" fill-rule="evenodd" fill-opacity="1" /><path clip-path="url(#clip680)" d="M 0 0 M611.742 1468.69 Q608.131 1468.69 606.302 1472.26 Q604.496 1475.8 604.496 1482.93 Q604.496 1490.04 606.302 1493.6 Q608.131 1497.14 611.742 1497.14 Q615.376 1497.14 617.181 1493.6 Q619.01 1490.04 619.01 1482.93 Q619.01 1475.8 617.181 1472.26 Q615.376 1468.69 611.742 1468.69 M611.742 1464.99 Q617.552 1464.99 620.607 1469.6 Q623.686 1474.18 623.686 1482.93 Q623.686 1491.66 620.607 1496.26 Q617.552 1500.85 611.742 1500.85 Q605.932 1500.85 602.853 1496.26 Q599.797 1491.66 599.797 1482.93 Q599.797 1474.18 602.853 1469.6 Q605.932 1464.99 611.742 1464.99 Z" fill="#000000" fill-rule="evenodd" fill-opacity="1" /><path clip-path="url(#clip680)" d="M 0 0 M641.904 1468.69 Q638.292 1468.69 636.464 1472.26 Q634.658 1475.8 634.658 1482.93 Q634.658 1490.04 636.464 1493.6 Q638.292 1497.14 641.904 1497.14 Q645.538 1497.14 647.343 1493.6 Q649.172 1490.04 649.172 1482.93 Q649.172 1475.8 647.343 1472.26 Q645.538 1468.69 641.904 1468.69 M641.904 1464.99 Q647.714 1464.99 650.769 1469.6 Q653.848 1474.18 653.848 1482.93 Q653.848 1491.66 650.769 1496.26 Q647.714 1500.85 641.904 1500.85 Q636.093 1500.85 633.015 1496.26 Q629.959 1491.66 629.959 1482.93 Q629.959 1474.18 633.015 1469.6 Q636.093 1464.99 641.904 1464.99 Z" fill="#000000" fill-rule="evenodd" fill-opacity="1" /><path clip-path="url(#clip680)" d="M 0 0 M849.46 1496.24 L865.78 1496.24 L865.78 1500.17 L843.835 1500.17 L843.835 1496.24 Q846.497 1493.48 851.081 1488.85 Q855.687 1484.2 856.868 1482.86 Q859.113 1480.34 859.993 1478.6 Q860.895 1476.84 860.895 1475.15 Q860.895 1472.4 858.951 1470.66 Q857.03 1468.92 853.928 1468.92 Q851.729 1468.92 849.275 1469.69 Q846.845 1470.45 844.067 1472 L844.067 1467.28 Q846.891 1466.15 849.345 1465.57 Q851.798 1464.99 853.835 1464.99 Q859.206 1464.99 862.4 1467.67 Q865.594 1470.36 865.594 1474.85 Q865.594 1476.98 864.784 1478.9 Q863.997 1480.8 861.891 1483.39 Q861.312 1484.06 858.21 1487.28 Q855.108 1490.47 849.46 1496.24 Z" fill="#000000" fill-rule="evenodd" fill-opacity="1" /><path clip-path="url(#clip680)" d="M 0 0 M885.594 1468.69 Q881.983 1468.69 880.155 1472.26 Q878.349 1475.8 878.349 1482.93 Q878.349 1490.04 880.155 1493.6 Q881.983 1497.14 885.594 1497.14 Q889.229 1497.14 891.034 1493.6 Q892.863 1490.04 892.863 1482.93 Q892.863 1475.8 891.034 1472.26 Q889.229 1468.69 885.594 1468.69 M885.594 1464.99 Q891.404 1464.99 894.46 1469.6 Q897.539 1474.18 897.539 1482.93 Q897.539 1491.66 894.46 1496.26 Q891.404 1500.85 885.594 1500.85 Q879.784 1500.85 876.705 1496.26 Q873.65 1491.66 873.65 1482.93 Q873.65 1474.18 876.705 1469.6 Q879.784 1464.99 885.594 1464.99 Z" fill="#000000" fill-rule="evenodd" fill-opacity="1" /><path clip-path="url(#clip680)" d="M 0 0 M915.756 1468.69 Q912.145 1468.69 910.316 1472.26 Q908.511 1475.8 908.511 1482.93 Q908.511 1490.04 910.316 1493.6 Q912.145 1497.14 915.756 1497.14 Q919.39 1497.14 921.196 1493.6 Q923.025 1490.04 923.025 1482.93 Q923.025 1475.8 921.196 1472.26 Q919.39 1468.69 915.756 1468.69 M915.756 1464.99 Q921.566 1464.99 924.622 1469.6 Q927.701 1474.18 927.701 1482.93 Q927.701 1491.66 924.622 1496.26 Q921.566 1500.85 915.756 1500.85 Q909.946 1500.85 906.867 1496.26 Q903.812 1491.66 903.812 1482.93 Q903.812 1474.18 906.867 1469.6 Q909.946 1464.99 915.756 1464.99 Z" fill="#000000" fill-rule="evenodd" fill-opacity="1" /><path clip-path="url(#clip680)" d="M 0 0 M1132.51 1481.54 Q1135.87 1482.26 1137.75 1484.53 Q1139.64 1486.79 1139.64 1490.13 Q1139.64 1495.24 1136.13 1498.04 Q1132.61 1500.85 1126.13 1500.85 Q1123.95 1500.85 1121.63 1500.41 Q1119.34 1499.99 1116.89 1499.13 L1116.89 1494.62 Q1118.83 1495.75 1121.15 1496.33 Q1123.46 1496.91 1125.99 1496.91 Q1130.38 1496.91 1132.68 1495.17 Q1134.99 1493.44 1134.99 1490.13 Q1134.99 1487.07 1132.84 1485.36 Q1130.71 1483.62 1126.89 1483.62 L1122.86 1483.62 L1122.86 1479.78 L1127.07 1479.78 Q1130.52 1479.78 1132.35 1478.41 Q1134.18 1477.03 1134.18 1474.43 Q1134.18 1471.77 1132.28 1470.36 Q1130.41 1468.92 1126.89 1468.92 Q1124.97 1468.92 1122.77 1469.34 Q1120.57 1469.76 1117.93 1470.64 L1117.93 1466.47 Q1120.59 1465.73 1122.91 1465.36 Q1125.25 1464.99 1127.31 1464.99 Q1132.63 1464.99 1135.73 1467.42 Q1138.83 1469.83 1138.83 1473.95 Q1138.83 1476.82 1137.19 1478.81 Q1135.55 1480.78 1132.51 1481.54 Z" fill="#000000" fill-rule="evenodd" fill-opacity="1" /><path clip-path="url(#clip680)" d="M 0 0 M1158.51 1468.69 Q1154.9 1468.69 1153.07 1472.26 Q1151.26 1475.8 1151.26 1482.93 Q1151.26 1490.04 1153.07 1493.6 Q1154.9 1497.14 1158.51 1497.14 Q1162.14 1497.14 1163.95 1493.6 Q1165.78 1490.04 1165.78 1482.93 Q1165.78 1475.8 1163.95 1472.26 Q1162.14 1468.69 1158.51 1468.69 M1158.51 1464.99 Q1164.32 1464.99 1167.38 1469.6 Q1170.45 1474.18 1170.45 1482.93 Q1170.45 1491.66 1167.38 1496.26 Q1164.32 1500.85 1158.51 1500.85 Q1152.7 1500.85 1149.62 1496.26 Q1146.57 1491.66 1146.57 1482.93 Q1146.57 1474.18 1149.62 1469.6 Q1152.7 1464.99 1158.51 1464.99 Z" fill="#000000" fill-rule="evenodd" fill-opacity="1" /><path clip-path="url(#clip680)" d="M 0 0 M1188.67 1468.69 Q1185.06 1468.69 1183.23 1472.26 Q1181.43 1475.8 1181.43 1482.93 Q1181.43 1490.04 1183.23 1493.6 Q1185.06 1497.14 1188.67 1497.14 Q1192.31 1497.14 1194.11 1493.6 Q1195.94 1490.04 1195.94 1482.93 Q1195.94 1475.8 1194.11 1472.26 Q1192.31 1468.69 1188.67 1468.69 M1188.67 1464.99 Q1194.48 1464.99 1197.54 1469.6 Q1200.62 1474.18 1200.62 1482.93 Q1200.62 1491.66 1197.54 1496.26 Q1194.48 1500.85 1188.67 1500.85 Q1182.86 1500.85 1179.78 1496.26 Q1176.73 1491.66 1176.73 1482.93 Q1176.73 1474.18 1179.78 1469.6 Q1182.86 1464.99 1188.67 1464.99 Z" fill="#000000" fill-rule="evenodd" fill-opacity="1" /><path clip-path="url(#clip680)" d="M 0 0 M1404.83 1469.69 L1393.02 1488.14 L1404.83 1488.14 L1404.83 1469.69 M1403.6 1465.61 L1409.48 1465.61 L1409.48 1488.14 L1414.41 1488.14 L1414.41 1492.03 L1409.48 1492.03 L1409.48 1500.17 L1404.83 1500.17 L1404.83 1492.03 L1389.23 1492.03 L1389.23 1487.51 L1403.6 1465.61 Z" fill="#000000" fill-rule="evenodd" fill-opacity="1" /><path clip-path="url(#clip680)" d="M 0 0 M1432.14 1468.69 Q1428.53 1468.69 1426.7 1472.26 Q1424.9 1475.8 1424.9 1482.93 Q1424.9 1490.04 1426.7 1493.6 Q1428.53 1497.14 1432.14 1497.14 Q1435.78 1497.14 1437.58 1493.6 Q1439.41 1490.04 1439.41 1482.93 Q1439.41 1475.8 1437.58 1472.26 Q1435.78 1468.69 1432.14 1468.69 M1432.14 1464.99 Q1437.95 1464.99 1441.01 1469.6 Q1444.09 1474.18 1444.09 1482.93 Q1444.09 1491.66 1441.01 1496.26 Q1437.95 1500.85 1432.14 1500.85 Q1426.33 1500.85 1423.25 1496.26 Q1420.2 1491.66 1420.2 1482.93 Q1420.2 1474.18 1423.25 1469.6 Q1426.33 1464.99 1432.14 1464.99 Z" fill="#000000" fill-rule="evenodd" fill-opacity="1" /><path clip-path="url(#clip680)" d="M 0 0 M1462.3 1468.69 Q1458.69 1468.69 1456.86 1472.26 Q1455.06 1475.8 1455.06 1482.93 Q1455.06 1490.04 1456.86 1493.6 Q1458.69 1497.14 1462.3 1497.14 Q1465.94 1497.14 1467.74 1493.6 Q1469.57 1490.04 1469.57 1482.93 Q1469.57 1475.8 1467.74 1472.26 Q1465.94 1468.69 1462.3 1468.69 M1462.3 1464.99 Q1468.11 1464.99 1471.17 1469.6 Q1474.25 1474.18 1474.25 1482.93 Q1474.25 1491.66 1471.17 1496.26 Q1468.11 1500.85 1462.3 1500.85 Q1456.49 1500.85 1453.42 1496.26 Q1450.36 1491.66 1450.36 1482.93 Q1450.36 1474.18 1453.42 1469.6 Q1456.49 1464.99 1462.3 1464.99 Z" fill="#000000" fill-rule="evenodd" fill-opacity="1" /><path clip-path="url(#clip680)" d="M 0 0 M1664.34 1465.61 L1682.7 1465.61 L1682.7 1469.55 L1668.62 1469.55 L1668.62 1478.02 Q1669.64 1477.67 1670.66 1477.51 Q1671.68 1477.33 1672.7 1477.33 Q1678.48 1477.33 1681.86 1480.5 Q1685.24 1483.67 1685.24 1489.09 Q1685.24 1494.66 1681.77 1497.77 Q1678.3 1500.85 1671.98 1500.85 Q1669.8 1500.85 1667.53 1500.47 Q1665.29 1500.1 1662.88 1499.36 L1662.88 1494.66 Q1664.96 1495.8 1667.19 1496.35 Q1669.41 1496.91 1671.89 1496.91 Q1675.89 1496.91 1678.23 1494.8 Q1680.57 1492.7 1680.57 1489.09 Q1680.57 1485.47 1678.23 1483.37 Q1675.89 1481.26 1671.89 1481.26 Q1670.01 1481.26 1668.14 1481.68 Q1666.28 1482.1 1664.34 1482.97 L1664.34 1465.61 Z" fill="#000000" fill-rule="evenodd" fill-opacity="1" /><path clip-path="url(#clip680)" d="M 0 0 M1704.46 1468.69 Q1700.84 1468.69 1699.02 1472.26 Q1697.21 1475.8 1697.21 1482.93 Q1697.21 1490.04 1699.02 1493.6 Q1700.84 1497.14 1704.46 1497.14 Q1708.09 1497.14 1709.9 1493.6 Q1711.72 1490.04 1711.72 1482.93 Q1711.72 1475.8 1709.9 1472.26 Q1708.09 1468.69 1704.46 1468.69 M1704.46 1464.99 Q1710.27 1464.99 1713.32 1469.6 Q1716.4 1474.18 1716.4 1482.93 Q1716.4 1491.66 1713.32 1496.26 Q1710.27 1500.85 1704.46 1500.85 Q1698.65 1500.85 1695.57 1496.26 Q1692.51 1491.66 1692.51 1482.93 Q1692.51 1474.18 1695.57 1469.6 Q1698.65 1464.99 1704.46 1464.99 Z" fill="#000000" fill-rule="evenodd" fill-opacity="1" /><path clip-path="url(#clip680)" d="M 0 0 M1734.62 1468.69 Q1731.01 1468.69 1729.18 1472.26 Q1727.37 1475.8 1727.37 1482.93 Q1727.37 1490.04 1729.18 1493.6 Q1731.01 1497.14 1734.62 1497.14 Q1738.25 1497.14 1740.06 1493.6 Q1741.89 1490.04 1741.89 1482.93 Q1741.89 1475.8 1740.06 1472.26 Q1738.25 1468.69 1734.62 1468.69 M1734.62 1464.99 Q1740.43 1464.99 1743.48 1469.6 Q1746.56 1474.18 1746.56 1482.93 Q1746.56 1491.66 1743.48 1496.26 Q1740.43 1500.85 1734.62 1500.85 Q1728.81 1500.85 1725.73 1496.26 Q1722.67 1491.66 1722.67 1482.93 Q1722.67 1474.18 1725.73 1469.6 Q1728.81 1464.99 1734.62 1464.99 Z" fill="#000000" fill-rule="evenodd" fill-opacity="1" /><path clip-path="url(#clip680)" d="M 0 0 M1034.33 1535.75 Q1034.33 1541.16 1032.59 1547.24 Q1030.89 1553.3 1028.18 1558.19 Q1025.47 1563.06 1021.93 1566.28 Q1018.39 1569.47 1015.01 1569.47 Q1012.85 1569.47 1011.24 1568.27 Q1009.66 1567.05 1008.79 1565.02 Q1007.92 1562.96 1007.5 1560.71 Q1007.09 1558.42 1007.09 1555.94 Q1007.09 1552.24 1007.89 1548.21 Q1008.7 1544.15 1010.05 1540.48 Q1011.4 1536.78 1013.3 1533.43 Q1015.2 1530.05 1017.29 1527.6 Q1019.42 1525.12 1021.8 1523.67 Q1024.19 1522.22 1026.41 1522.22 Q1028.02 1522.22 1029.31 1522.93 Q1030.63 1523.6 1031.47 1524.8 Q1032.3 1525.96 1032.88 1527.34 Q1033.49 1528.73 1033.78 1530.34 Q1034.07 1531.91 1034.2 1533.23 Q1034.33 1534.52 1034.33 1535.75 M1029.98 1531.66 Q1029.98 1530.01 1029.85 1528.79 Q1029.73 1527.53 1029.37 1526.28 Q1029.02 1525.02 1028.24 1524.35 Q1027.5 1523.67 1026.34 1523.67 Q1022.96 1523.67 1019.16 1530.59 Q1017.94 1532.75 1016.84 1535.68 Q1015.75 1538.61 1015.36 1540 Q1014.98 1541.38 1014.07 1544.8 L1027.86 1544.8 Q1029.98 1536 1029.98 1531.66 M1027.28 1546.89 L1013.56 1546.89 Q1011.43 1554.94 1011.43 1559.96 Q1011.43 1564.34 1012.33 1566.18 Q1013.27 1567.98 1015.01 1567.98 Q1017 1567.98 1018.87 1565.99 Q1020.74 1563.96 1022.64 1560.29 Q1025.15 1555.52 1027.28 1546.89 Z" fill="#000000" fill-rule="evenodd" fill-opacity="1" /><polyline clip-path="url(#clip683)" style="stroke:#000000; stroke-width:2; stroke-opacity:0.1; fill:none" points="
  299.132,1289.27 1745.66,1289.27 
  "/>
<polyline clip-path="url(#clip683)" style="stroke:#000000; stroke-width:2; stroke-opacity:0.1; fill:none" points="
  299.132,995.521 1745.66,995.521 
  "/>
<polyline clip-path="url(#clip683)" style="stroke:#000000; stroke-width:2; stroke-opacity:0.1; fill:none" points="
  299.132,701.772 1745.66,701.772 
  "/>
<polyline clip-path="url(#clip683)" style="stroke:#000000; stroke-width:2; stroke-opacity:0.1; fill:none" points="
  299.132,408.023 1745.66,408.023 
  "/>
<polyline clip-path="url(#clip683)" style="stroke:#000000; stroke-width:2; stroke-opacity:0.1; fill:none" points="
  299.132,114.274 1745.66,114.274 
  "/>
<polyline clip-path="url(#clip680)" style="stroke:#000000; stroke-width:4; stroke-opacity:1; fill:none" points="
  299.132,1439.5 299.132,47.2441 
  "/>
<polyline clip-path="url(#clip680)" style="stroke:#000000; stroke-width:4; stroke-opacity:1; fill:none" points="
  299.132,1289.27 316.491,1289.27 
  "/>
<polyline clip-path="url(#clip680)" style="stroke:#000000; stroke-width:4; stroke-opacity:1; fill:none" points="
  299.132,995.521 316.491,995.521 
  "/>
<polyline clip-path="url(#clip680)" style="stroke:#000000; stroke-width:4; stroke-opacity:1; fill:none" points="
  299.132,701.772 316.491,701.772 
  "/>
<polyline clip-path="url(#clip680)" style="stroke:#000000; stroke-width:4; stroke-opacity:1; fill:none" points="
  299.132,408.023 316.491,408.023 
  "/>
<polyline clip-path="url(#clip680)" style="stroke:#000000; stroke-width:4; stroke-opacity:1; fill:none" points="
  299.132,114.274 316.491,114.274 
  "/>
<path clip-path="url(#clip680)" d="M 0 0 M141.096 1289.72 L170.772 1289.72 L170.772 1293.66 L141.096 1293.66 L141.096 1289.72 Z" fill="#000000" fill-rule="evenodd" fill-opacity="1" /><path clip-path="url(#clip680)" d="M 0 0 M181.674 1302.62 L189.313 1302.62 L189.313 1276.25 L181.003 1277.92 L181.003 1273.66 L189.267 1271.99 L193.943 1271.99 L193.943 1302.62 L201.582 1302.62 L201.582 1306.55 L181.674 1306.55 L181.674 1302.62 Z" fill="#000000" fill-rule="evenodd" fill-opacity="1" /><path clip-path="url(#clip680)" d="M 0 0 M221.026 1275.07 Q217.415 1275.07 215.586 1278.63 Q213.781 1282.18 213.781 1289.31 Q213.781 1296.41 215.586 1299.98 Q217.415 1303.52 221.026 1303.52 Q224.66 1303.52 226.466 1299.98 Q228.294 1296.41 228.294 1289.31 Q228.294 1282.18 226.466 1278.63 Q224.66 1275.07 221.026 1275.07 M221.026 1271.37 Q226.836 1271.37 229.892 1275.97 Q232.97 1280.56 232.97 1289.31 Q232.97 1298.03 229.892 1302.64 Q226.836 1307.22 221.026 1307.22 Q215.216 1307.22 212.137 1302.64 Q209.082 1298.03 209.082 1289.31 Q209.082 1280.56 212.137 1275.97 Q215.216 1271.37 221.026 1271.37 Z" fill="#000000" fill-rule="evenodd" fill-opacity="1" /><path clip-path="url(#clip680)" d="M 0 0 M251.188 1275.07 Q247.577 1275.07 245.748 1278.63 Q243.943 1282.18 243.943 1289.31 Q243.943 1296.41 245.748 1299.98 Q247.577 1303.52 251.188 1303.52 Q254.822 1303.52 256.628 1299.98 Q258.456 1296.41 258.456 1289.31 Q258.456 1282.18 256.628 1278.63 Q254.822 1275.07 251.188 1275.07 M251.188 1271.37 Q256.998 1271.37 260.054 1275.97 Q263.132 1280.56 263.132 1289.31 Q263.132 1298.03 260.054 1302.64 Q256.998 1307.22 251.188 1307.22 Q245.378 1307.22 242.299 1302.64 Q239.244 1298.03 239.244 1289.31 Q239.244 1280.56 242.299 1275.97 Q245.378 1271.37 251.188 1271.37 Z" fill="#000000" fill-rule="evenodd" fill-opacity="1" /><path clip-path="url(#clip680)" d="M 0 0 M172.253 995.973 L201.929 995.973 L201.929 999.908 L172.253 999.908 L172.253 995.973 Z" fill="#000000" fill-rule="evenodd" fill-opacity="1" /><path clip-path="url(#clip680)" d="M 0 0 M210.841 978.241 L233.063 978.241 L233.063 980.232 L220.517 1012.8 L215.633 1012.8 L227.438 982.177 L210.841 982.177 L210.841 978.241 Z" fill="#000000" fill-rule="evenodd" fill-opacity="1" /><path clip-path="url(#clip680)" d="M 0 0 M242.23 978.241 L260.586 978.241 L260.586 982.177 L246.512 982.177 L246.512 990.649 Q247.531 990.301 248.549 990.139 Q249.568 989.954 250.586 989.954 Q256.373 989.954 259.753 993.126 Q263.132 996.297 263.132 1001.71 Q263.132 1007.29 259.66 1010.39 Q256.188 1013.47 249.868 1013.47 Q247.693 1013.47 245.424 1013.1 Q243.179 1012.73 240.771 1011.99 L240.771 1007.29 Q242.855 1008.43 245.077 1008.98 Q247.299 1009.54 249.776 1009.54 Q253.78 1009.54 256.118 1007.43 Q258.456 1005.32 258.456 1001.71 Q258.456 998.102 256.118 995.996 Q253.78 993.889 249.776 993.889 Q247.901 993.889 246.026 994.306 Q244.174 994.723 242.23 995.602 L242.23 978.241 Z" fill="#000000" fill-rule="evenodd" fill-opacity="1" /><path clip-path="url(#clip680)" d="M 0 0 M171.258 702.224 L200.934 702.224 L200.934 706.159 L171.258 706.159 L171.258 702.224 Z" fill="#000000" fill-rule="evenodd" fill-opacity="1" /><path clip-path="url(#clip680)" d="M 0 0 M211.072 684.492 L229.429 684.492 L229.429 688.427 L215.355 688.427 L215.355 696.9 Q216.373 696.552 217.392 696.39 Q218.41 696.205 219.429 696.205 Q225.216 696.205 228.595 699.376 Q231.975 702.548 231.975 707.964 Q231.975 713.543 228.503 716.645 Q225.031 719.724 218.711 719.724 Q216.535 719.724 214.267 719.353 Q212.021 718.983 209.614 718.242 L209.614 713.543 Q211.697 714.677 213.92 715.233 Q216.142 715.788 218.619 715.788 Q222.623 715.788 224.961 713.682 Q227.299 711.575 227.299 707.964 Q227.299 704.353 224.961 702.247 Q222.623 700.14 218.619 700.14 Q216.744 700.14 214.869 700.557 Q213.017 700.974 211.072 701.853 L211.072 684.492 Z" fill="#000000" fill-rule="evenodd" fill-opacity="1" /><path clip-path="url(#clip680)" d="M 0 0 M251.188 687.571 Q247.577 687.571 245.748 691.136 Q243.943 694.677 243.943 701.807 Q243.943 708.913 245.748 712.478 Q247.577 716.02 251.188 716.02 Q254.822 716.02 256.628 712.478 Q258.456 708.913 258.456 701.807 Q258.456 694.677 256.628 691.136 Q254.822 687.571 251.188 687.571 M251.188 683.867 Q256.998 683.867 260.054 688.474 Q263.132 693.057 263.132 701.807 Q263.132 710.534 260.054 715.14 Q256.998 719.724 251.188 719.724 Q245.378 719.724 242.299 715.14 Q239.244 710.534 239.244 701.807 Q239.244 693.057 242.299 688.474 Q245.378 683.867 251.188 683.867 Z" fill="#000000" fill-rule="evenodd" fill-opacity="1" /><path clip-path="url(#clip680)" d="M 0 0 M172.253 408.474 L201.929 408.474 L201.929 412.41 L172.253 412.41 L172.253 408.474 Z" fill="#000000" fill-rule="evenodd" fill-opacity="1" /><path clip-path="url(#clip680)" d="M 0 0 M216.049 421.368 L232.369 421.368 L232.369 425.303 L210.424 425.303 L210.424 421.368 Q213.086 418.613 217.67 413.984 Q222.276 409.331 223.457 407.988 Q225.702 405.465 226.582 403.729 Q227.484 401.97 227.484 400.28 Q227.484 397.525 225.54 395.789 Q223.619 394.053 220.517 394.053 Q218.318 394.053 215.864 394.817 Q213.433 395.581 210.656 397.132 L210.656 392.41 Q213.48 391.275 215.933 390.697 Q218.387 390.118 220.424 390.118 Q225.795 390.118 228.989 392.803 Q232.183 395.488 232.183 399.979 Q232.183 402.109 231.373 404.03 Q230.586 405.928 228.48 408.521 Q227.901 409.192 224.799 412.41 Q221.697 415.604 216.049 421.368 Z" fill="#000000" fill-rule="evenodd" fill-opacity="1" /><path clip-path="url(#clip680)" d="M 0 0 M242.23 390.743 L260.586 390.743 L260.586 394.678 L246.512 394.678 L246.512 403.15 Q247.531 402.803 248.549 402.641 Q249.568 402.456 250.586 402.456 Q256.373 402.456 259.753 405.627 Q263.132 408.799 263.132 414.215 Q263.132 419.794 259.66 422.896 Q256.188 425.974 249.868 425.974 Q247.693 425.974 245.424 425.604 Q243.179 425.234 240.771 424.493 L240.771 419.794 Q242.855 420.928 245.077 421.484 Q247.299 422.039 249.776 422.039 Q253.78 422.039 256.118 419.933 Q258.456 417.826 258.456 414.215 Q258.456 410.604 256.118 408.498 Q253.78 406.391 249.776 406.391 Q247.901 406.391 246.026 406.808 Q244.174 407.224 242.23 408.104 L242.23 390.743 Z" fill="#000000" fill-rule="evenodd" fill-opacity="1" /><path clip-path="url(#clip680)" d="M 0 0 M251.188 100.073 Q247.577 100.073 245.748 103.637 Q243.943 107.179 243.943 114.309 Q243.943 121.415 245.748 124.98 Q247.577 128.522 251.188 128.522 Q254.822 128.522 256.628 124.98 Q258.456 121.415 258.456 114.309 Q258.456 107.179 256.628 103.637 Q254.822 100.073 251.188 100.073 M251.188 96.3689 Q256.998 96.3689 260.054 100.975 Q263.132 105.559 263.132 114.309 Q263.132 123.035 260.054 127.642 Q256.998 132.225 251.188 132.225 Q245.378 132.225 242.299 127.642 Q239.244 123.035 239.244 114.309 Q239.244 105.559 242.299 100.975 Q245.378 96.3689 251.188 96.3689 Z" fill="#000000" fill-rule="evenodd" fill-opacity="1" /><path clip-path="url(#clip680)" d="M 0 0 M53.7801 940.045 L70.2051 945.714 L70.2051 1000.4 Q70.2051 1001.14 70.1728 1001.43 Q70.1406 1001.72 69.9796 1001.94 Q69.8186 1002.17 69.4643 1002.17 Q69.1745 1002.17 68.4337 1001.59 L39.4807 978.177 L6.37304 1002.23 Q4.85936 1002.23 4.56951 1001.98 Q4.24745 1001.72 4.24745 1000.4 L4.24745 945.714 L19.6741 940.045 L19.6741 941.688 Q17.6773 942.429 16.0026 943.62 Q14.2957 944.78 13.0719 946.132 Q11.848 947.453 10.8819 949.192 Q9.88348 950.899 9.27156 952.509 Q8.62745 954.087 8.17656 956.052 Q7.69348 958.016 7.46804 959.594 Q7.21039 961.14 7.08157 963.072 Q6.95274 965.005 6.92054 966.229 Q6.88833 967.452 6.88833 968.998 L6.88833 995.117 L36.2923 973.7 Q37.033 973.217 37.2263 973.217 Q37.5161 973.217 38.289 973.829 L66.5658 996.695 L66.5658 968.676 Q66.5658 959.659 64.6656 953.379 Q63.2164 949.127 60.3501 946.036 Q57.4837 942.912 53.7801 941.688 L53.7801 940.045 Z" fill="#000000" fill-rule="evenodd" fill-opacity="1" /><path clip-path="url(#clip680)" d="M 0 0 M96.3473 1011.22 Q96.9785 1011.22 97.1363 1011.52 Q97.2716 1011.81 97.2716 1012.62 L97.2716 1016.95 L110.888 1020.38 Q112.083 1020.65 113.098 1020.65 Q114.225 1020.65 114.721 1020.31 Q115.217 1019.95 115.217 1019.2 Q115.217 1017.74 113.887 1016.16 Q112.556 1014.56 109.31 1013.21 Q108.882 1013.03 108.792 1012.94 Q108.679 1012.82 108.679 1012.53 Q108.679 1011.97 109.13 1011.97 Q109.288 1011.97 110.009 1012.28 Q110.73 1012.58 111.79 1013.23 Q112.85 1013.86 113.841 1014.69 Q114.833 1015.51 115.555 1016.75 Q116.254 1017.99 116.254 1019.32 Q116.254 1021.19 115.059 1022.38 Q113.864 1023.55 111.993 1023.55 Q111.384 1023.55 109.445 1023.08 Q107.484 1022.61 97.2716 1020.04 L97.2716 1024.12 Q97.2716 1024.68 97.249 1024.91 Q97.2265 1025.11 97.1138 1025.27 Q96.9785 1025.4 96.708 1025.4 Q96.2796 1025.4 96.0993 1025.22 Q95.8964 1025.04 95.8738 1024.82 Q95.8287 1024.57 95.8287 1024.01 L95.8287 1019.68 L88.5019 1017.87 Q87.7805 1017.69 87.3747 1017.24 Q86.9464 1016.77 86.9013 1016.5 Q86.8336 1016.23 86.8336 1016.02 Q86.8336 1015.42 87.1718 1015.06 Q87.4874 1014.69 88.0736 1014.69 Q88.3892 1014.69 95.8287 1016.59 L95.8287 1012.53 Q95.8287 1012.01 95.8513 1011.81 Q95.8738 1011.58 95.9865 1011.4 Q96.0993 1011.22 96.3473 1011.22 Z" fill="#000000" fill-rule="evenodd" fill-opacity="1" /><path clip-path="url(#clip680)" d="M 0 0 M108.724 996.09 Q108.16 996.045 108.16 995.166 L108.16 966.873 Q108.16 965.543 108.679 965.52 Q109.242 965.52 109.22 966.783 L109.22 994.85 Q109.242 996.09 108.724 996.09 M99.7063 996.09 Q99.1427 996.09 99.1653 995.121 L99.1653 966.918 Q99.1653 965.543 99.7063 965.52 Q100.225 965.52 100.225 966.693 L100.225 995.166 Q100.225 996.09 99.7063 996.09 Z" fill="#000000" fill-rule="evenodd" fill-opacity="1" /><path clip-path="url(#clip680)" d="M 0 0 M89.3811 947.708 L87.9383 947.708 Q87.9383 942.163 84.985 939.299 Q84.985 938.51 85.1654 938.375 Q85.3457 938.24 86.1799 938.24 L112.083 938.24 Q113.458 938.24 113.887 937.564 Q114.315 936.887 114.315 933.934 L114.315 932.469 L115.735 932.469 Q115.6 934.092 115.6 939.953 Q115.6 945.815 115.735 947.415 L114.315 947.415 L114.315 945.95 Q114.315 943.042 113.909 942.343 Q113.481 941.644 112.083 941.644 L88.1637 941.644 Q89.3811 944.056 89.3811 947.708 Z" fill="#000000" fill-rule="evenodd" fill-opacity="1" /><path clip-path="url(#clip680)" d="M 0 0 M9.78686 872.941 Q10.3988 872.941 10.9141 873.07 L22.3793 874.873 Q23.2489 874.97 23.571 875.163 Q23.893 875.324 23.893 875.839 Q23.893 876.644 23.0557 876.644 Q22.5726 876.644 21.7996 876.451 Q18.1604 875.904 16.5179 875.904 Q15.4229 875.904 14.6177 876.129 Q13.7804 876.322 13.2007 876.644 Q12.621 876.934 12.2345 877.611 Q11.848 878.287 11.6226 878.931 Q11.3972 879.575 11.3005 880.735 Q11.1717 881.894 11.1395 882.892 Q11.1073 883.891 11.1073 885.533 Q11.1073 889.108 11.2361 889.688 Q11.3972 890.3 11.8802 890.622 Q12.3311 890.912 13.6838 891.234 L48.6915 899.994 L50.0764 900.251 Q50.8493 900.251 51.107 899.768 Q51.3646 899.285 51.5257 897.804 Q51.6867 895.678 51.6867 893.585 Q51.6867 893.52 51.6867 893.391 Q51.6867 892.683 51.7189 892.393 Q51.7189 892.103 51.7833 891.813 Q51.8477 891.524 52.0087 891.459 Q52.1376 891.363 52.3952 891.363 Q53.0071 891.363 53.3292 891.62 Q53.619 891.878 53.6834 892.135 Q53.7157 892.361 53.7157 892.812 Q53.7157 893.714 53.6512 895.646 Q53.5868 897.578 53.5868 898.544 L53.5224 904.019 L53.5868 909.623 Q53.5868 910.493 53.6512 912.329 Q53.7157 914.164 53.7157 915.034 Q53.7157 916.161 52.9105 916.161 Q52.0087 916.161 51.8477 915.742 Q51.6867 915.291 51.6867 913.391 Q51.6867 910.718 51.5579 909.269 Q51.429 907.82 50.9782 907.047 Q50.5273 906.242 50.0764 906.016 Q49.5933 905.791 48.4983 905.533 L13.2973 896.676 Q12.5244 896.419 11.9124 896.419 Q11.5904 896.419 11.4616 896.515 Q11.3327 896.58 11.2361 896.999 Q11.1073 897.417 11.1073 898.287 L11.1073 900.863 Q11.1073 903.504 11.2361 905.147 Q11.3327 906.757 11.8158 908.303 Q12.2989 909.816 12.9752 910.718 Q13.6516 911.588 15.0364 912.554 Q16.4213 913.52 18.096 914.229 Q19.7707 914.905 22.5082 915.871 Q23.4099 916.193 23.6676 916.386 Q23.893 916.548 23.893 916.998 Q23.893 917.32 23.6998 917.578 Q23.4743 917.804 23.1845 917.804 Q22.1217 917.481 21.9929 917.417 L10.3666 913.456 Q9.43259 913.134 9.27156 912.844 Q9.07833 912.522 9.07833 911.33 L9.07833 874.744 Q9.07833 874.165 9.07833 873.971 Q9.07833 873.778 9.14274 873.456 Q9.20715 873.134 9.36818 873.037 Q9.52921 872.941 9.78686 872.941 Z" fill="#000000" fill-rule="evenodd" fill-opacity="1" /><path clip-path="url(#clip680)" d="M 0 0 M16.619 849.965 L17.5433 850.529 Q16.0328 854.023 13.6206 858.374 Q16.0328 862.725 17.5433 866.219 L16.619 866.76 Q13.305 862.95 10.7575 858.374 Q13.3275 853.752 16.619 849.965 Z" fill="#000000" fill-rule="evenodd" fill-opacity="1" /><path clip-path="url(#clip680)" d="M 0 0 M28.8527 850.793 Q30.5596 850.793 31.6546 851.92 Q32.7496 853.015 32.7496 854.433 Q32.7496 855.656 32.0411 856.3 Q31.3326 856.945 30.4308 856.945 Q29.1426 856.945 28.0798 855.946 Q27.017 854.948 26.7916 853.499 Q26.0186 854.561 26.0186 856.268 Q26.0186 859.07 28.1764 861.55 Q29.1748 862.645 31.0105 863.837 Q32.814 865.028 33.587 865.254 L42.186 867.347 Q43.1521 867.54 47.7898 868.732 Q52.3952 869.891 52.5884 869.988 Q53.4902 870.31 53.9733 871.019 Q54.4564 871.727 54.4564 872.436 Q54.4564 873.241 53.9733 873.788 Q53.4902 874.336 52.6529 874.336 Q52.524 874.336 52.0409 874.239 Q51.5579 874.142 50.8815 873.981 Q50.2052 873.82 49.8187 873.756 L34.5854 869.924 Q31.8157 869.215 30.9461 869.054 Q30.0443 868.861 29.046 868.861 Q27.3068 868.861 26.6627 869.408 Q26.0186 869.956 26.0186 870.922 Q26.0186 872.597 28.0154 873.692 Q30.0121 874.787 33.8768 875.721 Q34.9396 876.01 35.1651 876.204 Q35.3905 876.365 35.3905 876.848 Q35.3583 877.653 34.7142 877.653 Q34.5532 877.653 33.5226 877.395 Q32.4598 877.138 30.9139 876.655 Q29.3358 876.139 28.3374 875.592 Q27.6611 875.27 27.2102 874.98 Q26.7593 874.69 26.0508 874.11 Q25.3423 873.531 24.9558 872.661 Q24.5693 871.791 24.5693 870.729 Q24.5693 868.41 25.9864 866.767 Q27.4035 865.093 29.6257 864.706 Q28.4663 863.901 27.4679 862.903 Q26.4373 861.904 25.5033 860.069 Q24.5693 858.233 24.5693 856.268 Q24.5693 853.821 25.8254 852.307 Q27.0492 850.793 28.8527 850.793 Z" fill="#000000" fill-rule="evenodd" fill-opacity="1" /><path clip-path="url(#clip680)" d="M 0 0 M52.2362 825.164 Q52.8674 825.164 53.0252 825.457 Q53.1605 825.75 53.1605 826.561 L53.1605 830.89 L66.7771 834.316 Q67.9719 834.587 68.9864 834.587 Q70.1136 834.587 70.6096 834.249 Q71.1056 833.888 71.1056 833.144 Q71.1056 831.679 69.7755 830.101 Q68.4454 828.5 65.199 827.147 Q64.7707 826.967 64.6805 826.877 Q64.5678 826.764 64.5678 826.471 Q64.5678 825.908 65.0187 825.908 Q65.1765 825.908 65.8979 826.223 Q66.6193 826.516 67.6789 827.17 Q68.7384 827.801 69.7304 828.635 Q70.7223 829.447 71.4437 830.687 Q72.1426 831.927 72.1426 833.257 Q72.1426 835.128 70.9478 836.323 Q69.7529 837.495 67.8818 837.495 Q67.2731 837.495 65.3343 837.022 Q63.3729 836.548 53.1605 833.978 L53.1605 838.059 Q53.1605 838.622 53.1379 838.848 Q53.1154 839.051 53.0027 839.209 Q52.8674 839.344 52.5969 839.344 Q52.1685 839.344 51.9882 839.163 Q51.7853 838.983 51.7627 838.758 Q51.7176 838.51 51.7176 837.946 L51.7176 833.618 L44.3908 831.814 Q43.6694 831.634 43.2636 831.183 Q42.8353 830.709 42.7902 830.439 Q42.7225 830.168 42.7225 829.965 Q42.7225 829.357 43.0607 828.996 Q43.3763 828.635 43.9625 828.635 Q44.2781 828.635 51.7176 830.529 L51.7176 826.471 Q51.7176 825.953 51.7402 825.75 Q51.7627 825.524 51.8755 825.344 Q51.9882 825.164 52.2362 825.164 Z" fill="#000000" fill-rule="evenodd" fill-opacity="1" /><path clip-path="url(#clip680)" d="M 0 0 M35.7646 815.803 Q25.1224 815.803 16.541 811.835 Q12.9424 810.143 9.9281 807.775 Q6.91384 805.407 5.59126 803.838 Q4.26868 802.269 4.26868 801.839 Q4.26868 801.224 4.88383 801.193 Q5.19141 801.193 5.96035 802.023 Q16.2949 812.173 35.7646 812.143 Q55.2957 812.143 65.2305 802.269 Q66.307 801.193 66.6453 801.193 Q67.2605 801.193 67.2605 801.839 Q67.2605 802.269 65.9994 803.776 Q64.7383 805.284 61.8471 807.621 Q58.9559 809.959 55.4188 811.65 Q46.8374 815.803 35.7646 815.803 Z" fill="#000000" fill-rule="evenodd" fill-opacity="1" /><path clip-path="url(#clip680)" d="M 0 0 M17.5163 784.574 Q11.848 784.574 8.04774 781.676 Q4.24745 778.777 4.24745 774.88 Q4.24745 772.497 6.37304 770.146 Q11.4616 764.8 11.4294 757.811 Q11.4294 749.888 5.18142 745.283 Q4.24745 744.478 4.24745 743.898 Q4.24745 743.383 4.66613 742.996 Q5.0526 742.578 5.56789 742.578 Q5.95436 742.578 6.75951 743.093 L56.4209 776.458 Q57.4193 777.199 57.4193 777.779 Q57.4193 778.294 57.0007 778.713 Q56.6142 779.099 56.0989 779.099 Q55.648 779.099 54.7784 778.519 L10.6564 748.89 L10.592 748.954 Q12.9108 752.368 12.8786 757.747 Q12.8786 762.835 10.1089 767.698 Q13.5227 766.313 17.5807 766.313 Q23.1201 766.313 26.9848 768.793 Q30.8173 771.273 30.8173 774.88 Q30.8173 778.777 27.0814 781.676 Q23.3133 784.574 17.5163 784.574 M12.1379 780.033 Q14.4567 780.484 17.5807 780.484 Q20.6724 780.484 22.9913 780.033 Q25.2779 779.582 26.4695 778.938 Q27.6611 778.262 28.3696 777.36 Q29.046 776.458 29.207 775.911 Q29.368 775.363 29.368 774.816 Q29.368 772.11 26.0186 770.049 Q22.637 767.956 17.5163 767.956 Q12.4921 767.956 9.11053 770.049 Q5.69671 772.11 5.69671 774.816 Q5.69671 775.395 5.85774 775.975 Q6.01877 776.523 6.7273 777.392 Q7.40362 778.262 8.59524 778.938 Q9.78686 779.582 12.1379 780.033 M44.0861 755.363 Q38.4179 755.363 34.6176 752.465 Q30.8173 749.566 30.8173 745.669 Q30.8173 742.095 34.682 739.615 Q38.5467 737.103 44.1505 737.103 Q49.6899 737.103 53.5546 739.583 Q57.4193 742.03 57.4193 745.669 Q57.4193 749.566 53.6512 752.465 Q49.8832 755.363 44.0861 755.363 M38.7077 750.822 Q41.0587 751.273 44.1505 751.273 Q47.2423 751.273 49.5611 750.822 Q51.8799 750.339 53.0715 749.695 Q54.2309 749.019 54.9073 748.149 Q55.6158 747.248 55.7768 746.7 Q55.9701 746.12 55.9701 745.605 Q55.9701 742.9 52.6207 740.839 Q49.239 738.745 44.0861 738.745 Q39.062 738.745 35.6804 740.839 Q32.2665 742.9 32.2665 745.605 Q32.2665 746.185 32.4598 746.764 Q32.6208 747.312 33.3293 748.182 Q34.0057 749.019 35.1973 749.695 Q36.3567 750.339 38.7077 750.822 Z" fill="#000000" fill-rule="evenodd" fill-opacity="1" /><path clip-path="url(#clip680)" d="M 0 0 M52.6529 729.253 Q51.5901 730.187 50.2052 730.187 Q48.8204 730.187 47.7898 729.285 Q46.727 728.351 46.727 726.677 Q46.727 724.712 48.6271 723.585 Q50.4951 722.458 53.6512 722.458 Q57.0651 722.458 60.2212 723.843 Q63.4096 725.228 64.9233 726.58 Q66.437 727.933 66.437 728.48 Q66.437 729.124 65.7284 729.124 Q65.4708 729.124 64.9877 728.674 Q59.8992 723.939 53.6512 723.907 Q52.6529 723.907 52.6529 724.036 L52.7817 724.197 Q53.7157 725.324 53.7157 726.677 Q53.7157 728.319 52.6529 729.253 Z" fill="#000000" fill-rule="evenodd" fill-opacity="1" /><path clip-path="url(#clip680)" d="M 0 0 M36.4211 667.053 Q39.6739 667.053 42.9267 668.728 Q46.1795 670.402 48.6915 673.14 Q51.1714 675.877 52.7817 679.613 Q54.392 683.349 54.5208 687.246 L64.3436 689.758 Q66.7268 690.241 66.9845 690.499 Q67.2421 690.757 67.2421 691.143 Q67.2421 691.948 66.5014 691.948 Q66.2759 691.948 60.7043 690.499 L54.5208 688.953 Q54.1987 694.815 50.8171 698.228 Q47.4355 701.642 42.5724 701.642 Q39.2874 701.642 36.0346 699.967 Q32.7496 698.261 30.2698 695.523 Q27.7899 692.753 26.2118 689.017 Q24.6338 685.282 24.5049 681.449 L9.27156 677.617 Q8.40201 677.423 8.17656 677.262 Q7.95112 677.101 7.95112 676.618 Q7.95112 676.264 8.11215 676.071 Q8.27318 675.877 8.43421 675.877 L8.59524 675.845 L9.52921 676.038 L24.5049 679.742 Q24.7304 676.457 25.8898 673.913 Q27.0492 671.369 28.7883 669.919 Q30.4952 668.47 32.4276 667.762 Q34.3599 667.053 36.4211 667.053 M25.9542 681.836 Q26.2763 685.378 28.0154 688.373 Q29.7545 691.368 32.331 693.301 Q34.8752 695.233 37.9348 696.296 Q40.9621 697.359 43.9573 697.359 Q46.3083 697.359 48.1118 696.586 Q49.9154 695.781 50.9459 694.46 Q51.9443 693.14 52.4918 691.691 Q53.0071 690.209 53.0715 688.631 L25.9542 681.836 M35.0363 671.369 Q30.8495 671.369 28.4985 673.784 Q26.1474 676.2 25.9542 680.129 L53.0715 686.924 Q52.8461 684.058 51.6545 681.546 Q50.4307 679.001 48.6271 677.166 Q46.7914 675.33 44.537 674.01 Q42.2504 672.689 39.8349 672.045 Q37.3873 671.369 35.0363 671.369 Z" fill="#000000" fill-rule="evenodd" fill-opacity="1" /><path clip-path="url(#clip680)" d="M 0 0 M43.6996 644.423 Q42.8945 644.359 42.8945 643.103 L42.8945 602.685 Q42.8945 600.784 43.6352 600.752 Q44.4404 600.752 44.4082 602.556 L44.4082 642.652 Q44.4404 644.423 43.6996 644.423 M30.8173 644.423 Q30.0121 644.423 30.0443 643.039 L30.0443 602.749 Q30.0443 600.784 30.8173 600.752 Q31.558 600.752 31.558 602.427 L31.558 643.103 Q31.558 644.423 30.8173 644.423 Z" fill="#000000" fill-rule="evenodd" fill-opacity="1" /><path clip-path="url(#clip680)" d="M 0 0 M16.067 575.306 L14.0058 575.306 Q14.0058 567.384 9.78686 563.294 Q9.78686 562.166 10.0445 561.973 Q10.3022 561.78 11.4938 561.78 L48.4983 561.78 Q50.4629 561.78 51.0748 560.814 Q51.6867 559.848 51.6867 555.629 L51.6867 553.535 L53.7157 553.535 Q53.5224 555.854 53.5224 564.228 Q53.5224 572.601 53.7157 574.888 L51.6867 574.888 L51.6867 572.794 Q51.6867 568.64 51.107 567.641 Q50.4951 566.643 48.4983 566.643 L14.3279 566.643 Q16.067 570.089 16.067 575.306 Z" fill="#000000" fill-rule="evenodd" fill-opacity="1" /><path clip-path="url(#clip680)" d="M 0 0 M52.6529 548.394 Q51.5901 549.392 50.2052 549.392 Q48.8204 549.392 47.822 548.394 Q46.7914 547.396 46.7914 545.882 Q46.7914 544.433 47.7576 543.467 Q48.6915 542.468 50.2374 542.468 Q51.7511 542.468 52.7495 543.531 Q53.7157 544.562 53.7157 545.882 Q53.7157 547.396 52.6529 548.394 Z" fill="#000000" fill-rule="evenodd" fill-opacity="1" /><path clip-path="url(#clip680)" d="M 0 0 M53.7157 531.242 Q52.524 531.242 52.1698 531.146 Q51.8155 531.017 51.268 530.501 L37.1618 517.845 Q29.368 510.92 22.5726 510.92 Q18.1604 510.92 15.0042 513.239 Q11.848 515.526 11.848 519.745 Q11.848 522.643 13.6194 525.091 Q15.3907 527.538 18.5469 528.666 Q18.4824 528.472 18.4824 527.796 Q18.4824 526.154 19.513 525.252 Q20.5436 524.318 21.9285 524.318 Q23.6998 524.318 24.5693 525.477 Q25.4067 526.605 25.4067 527.732 Q25.4067 528.183 25.3101 528.795 Q25.2135 529.374 24.3117 530.308 Q23.3777 531.242 21.7352 531.242 Q17.1298 531.242 13.4583 527.764 Q9.78686 524.253 9.78686 518.907 Q9.78686 512.853 13.3939 508.891 Q16.9688 504.898 22.5726 504.898 Q24.5371 504.898 26.3407 505.51 Q28.112 506.089 29.4968 506.895 Q30.8817 507.667 33.1039 509.793 Q35.3261 511.919 36.9042 513.626 Q38.4823 515.332 41.8317 519.165 L48.6271 526.154 L48.6271 514.27 Q48.6271 508.473 48.1118 508.022 Q47.1779 507.378 42.2504 506.572 L42.2504 504.898 L53.7157 506.766 L53.7157 531.242 Z" fill="#000000" fill-rule="evenodd" fill-opacity="1" /><path clip-path="url(#clip680)" d="M 0 0 M43.0877 498.578 Q41.1232 498.578 40.3824 497.515 Q39.6095 496.452 39.6095 495.325 Q39.6095 493.812 40.5757 492.942 Q41.5096 492.04 42.8301 492.04 Q44.1505 492.04 45.1167 492.942 Q46.0507 493.812 46.0507 495.325 Q46.0507 496.066 45.9218 496.452 Q48.9492 495.583 51.1392 492.942 Q53.3292 490.269 53.3292 486.759 Q53.3292 482.346 49.0458 479.705 Q46.2761 478.127 39.996 478.127 Q34.4565 478.127 31.6868 479.319 Q27.4679 481.155 27.4679 484.923 Q27.4679 490.269 32.0733 493.425 Q32.653 493.812 32.6852 494.262 Q32.6852 494.907 32.331 495.068 Q31.9445 495.196 30.9461 495.196 L11.4294 495.196 Q9.85127 495.196 9.85127 494.552 Q9.85127 494.295 10.0445 493.747 Q11.8802 489.593 11.9124 484.987 Q11.9124 480.253 9.98009 476.002 Q9.78686 475.68 9.78686 475.486 Q9.78686 474.842 10.5276 474.81 Q10.7852 474.81 11.5582 475.358 Q12.2989 475.873 13.2973 477 Q14.2635 478.127 15.1974 479.577 Q16.1314 481.026 16.7755 483.151 Q17.3874 485.245 17.3874 487.564 Q17.3874 490.333 16.5179 493.167 L29.368 493.167 Q26.0186 489.754 26.0186 484.794 Q26.0186 479.512 30.2698 475.873 Q34.521 472.234 40.4468 472.234 Q46.6626 472.234 50.9137 476.549 Q55.1649 480.833 55.1649 486.63 Q55.1649 491.911 51.3968 495.261 Q47.6287 498.578 43.0877 498.578 Z" fill="#000000" fill-rule="evenodd" fill-opacity="1" /><path clip-path="url(#clip680)" d="M 0 0 M66.6453 465.46 Q66.3377 465.46 65.5688 464.66 Q55.2342 454.51 35.7646 454.51 Q16.2334 454.51 6.3602 464.26 Q5.22217 465.46 4.88383 465.46 Q4.26868 465.46 4.26868 464.845 Q4.26868 464.414 5.52974 462.907 Q6.79081 461.369 9.68204 459.062 Q12.5733 456.725 16.1104 455.002 Q24.6918 450.85 35.7646 450.85 Q46.4067 450.85 54.9881 454.818 Q58.5868 456.509 61.6011 458.878 Q64.6153 461.246 65.9379 462.815 Q67.2605 464.383 67.2605 464.845 Q67.2605 465.46 66.6453 465.46 Z" fill="#000000" fill-rule="evenodd" fill-opacity="1" /><polyline clip-path="url(#clip683)" style="stroke:#0000ff; stroke-width:4; stroke-opacity:1; fill:none" points="
  340.072,1216.73 1704.72,87.8093 
  "/>
<polyline clip-path="url(#clip683)" style="stroke:#ff0000; stroke-width:4; stroke-opacity:1; fill:none" points="
  340.072,1400.1 1704.72,86.6476 
  "/>
<path clip-path="url(#clip680)" d="
M1814.12 252.413 L2352.76 252.413 L2352.76 93.6527 L1814.12 93.6527  Z
  " fill="#ffffff" fill-rule="evenodd" fill-opacity="1"/>
<polyline clip-path="url(#clip680)" style="stroke:#000000; stroke-width:4; stroke-opacity:1; fill:none" points="
  1814.12,252.413 2352.76,252.413 2352.76,93.6527 1814.12,93.6527 1814.12,252.413 
  "/>
<polyline clip-path="url(#clip680)" style="stroke:#0000ff; stroke-width:3.5; stroke-opacity:1; fill:none" points="
  1836.93,146.573 1973.84,146.573 
  "/>
<path clip-path="url(#clip680)" d="M 0 0 M2025.21 128.673 Q2025.21 129.062 2025.13 129.39 L2023.98 136.686 Q2023.92 137.239 2023.79 137.444 Q2023.69 137.649 2023.36 137.649 Q2022.85 137.649 2022.85 137.116 Q2022.85 136.809 2022.97 136.317 Q2023.32 134.001 2023.32 132.956 Q2023.32 132.259 2023.18 131.747 Q2023.06 131.214 2022.85 130.845 Q2022.67 130.476 2022.24 130.23 Q2021.81 129.984 2021.4 129.841 Q2020.99 129.697 2020.25 129.636 Q2019.51 129.554 2018.88 129.533 Q2018.24 129.513 2017.2 129.513 Q2014.92 129.513 2014.55 129.595 Q2014.16 129.697 2013.96 130.005 Q2013.77 130.292 2013.57 131.153 L2007.99 153.43 L2007.83 154.311 Q2007.83 154.803 2008.14 154.967 Q2008.44 155.131 2009.39 155.234 Q2010.74 155.336 2012.07 155.336 Q2012.11 155.336 2012.19 155.336 Q2012.65 155.336 2012.83 155.357 Q2013.01 155.357 2013.2 155.398 Q2013.38 155.439 2013.42 155.541 Q2013.49 155.623 2013.49 155.787 Q2013.49 156.176 2013.32 156.381 Q2013.16 156.566 2012.99 156.607 Q2012.85 156.627 2012.56 156.627 Q2011.99 156.627 2010.76 156.586 Q2009.53 156.545 2008.92 156.545 L2005.43 156.504 L2001.87 156.545 Q2001.31 156.545 2000.14 156.586 Q1998.98 156.627 1998.42 156.627 Q1997.7 156.627 1997.7 156.115 Q1997.7 155.541 1997.97 155.439 Q1998.26 155.336 1999.47 155.336 Q2001.17 155.336 2002.09 155.254 Q2003.01 155.172 2003.5 154.885 Q2004.02 154.598 2004.16 154.311 Q2004.3 154.004 2004.47 153.307 L2010.1 130.907 Q2010.27 130.415 2010.27 130.025 Q2010.27 129.82 2010.21 129.738 Q2010.17 129.656 2009.9 129.595 Q2009.63 129.513 2009.08 129.513 L2007.44 129.513 Q2005.76 129.513 2004.71 129.595 Q2003.69 129.656 2002.71 129.964 Q2001.74 130.271 2001.17 130.702 Q2000.62 131.132 2000 132.013 Q1999.39 132.895 1998.93 133.96 Q1998.5 135.026 1997.89 136.768 Q1997.68 137.342 1997.56 137.506 Q1997.46 137.649 1997.17 137.649 Q1996.97 137.649 1996.8 137.526 Q1996.66 137.383 1996.66 137.198 Q1996.86 136.522 1996.91 136.44 L1999.43 129.042 Q1999.63 128.447 1999.82 128.345 Q2000.02 128.222 2000.78 128.222 L2024.06 128.222 Q2024.43 128.222 2024.55 128.222 Q2024.68 128.222 2024.88 128.263 Q2025.09 128.304 2025.15 128.406 Q2025.21 128.509 2025.21 128.673 Z" fill="#000000" fill-rule="evenodd" fill-opacity="1" /><path clip-path="url(#clip680)" d="M 0 0 M2032.58 150.254 Q2032.62 149.741 2033.42 149.741 L2059.14 149.741 Q2060.35 149.741 2060.37 150.213 Q2060.37 150.725 2059.22 150.704 L2033.7 150.704 Q2032.58 150.725 2032.58 150.254 M2032.58 142.056 Q2032.58 141.543 2033.46 141.564 L2059.1 141.564 Q2060.35 141.564 2060.37 142.056 Q2060.37 142.527 2059.3 142.527 L2033.42 142.527 Q2032.58 142.527 2032.58 142.056 Z" fill="#000000" fill-rule="evenodd" fill-opacity="1" /><path clip-path="url(#clip680)" d="M 0 0 M2076.55 149.864 Q2076.55 148.614 2077.23 148.143 Q2077.9 147.651 2078.62 147.651 Q2079.58 147.651 2080.14 148.266 Q2080.71 148.86 2080.71 149.7 Q2080.71 150.54 2080.14 151.155 Q2079.58 151.75 2078.62 151.75 Q2078.15 151.75 2077.9 151.668 Q2078.46 153.594 2080.14 154.988 Q2081.84 156.381 2084.07 156.381 Q2086.88 156.381 2088.56 153.656 Q2089.57 151.893 2089.57 147.897 Q2089.57 144.372 2088.81 142.609 Q2087.64 139.924 2085.24 139.924 Q2081.84 139.924 2079.83 142.855 Q2079.58 143.224 2079.3 143.244 Q2078.89 143.244 2078.79 143.019 Q2078.7 142.773 2078.7 142.138 L2078.7 129.718 Q2078.7 128.714 2079.11 128.714 Q2079.28 128.714 2079.63 128.837 Q2082.27 130.005 2085.2 130.025 Q2088.21 130.025 2090.92 128.796 Q2091.12 128.673 2091.25 128.673 Q2091.66 128.673 2091.68 129.144 Q2091.68 129.308 2091.33 129.8 Q2091 130.271 2090.28 130.907 Q2089.57 131.521 2088.64 132.116 Q2087.72 132.71 2086.37 133.12 Q2085.04 133.509 2083.56 133.509 Q2081.8 133.509 2079.99 132.956 L2079.99 141.133 Q2082.17 139.002 2085.32 139.002 Q2088.68 139.002 2091 141.707 Q2093.32 144.413 2093.32 148.184 Q2093.32 152.139 2090.57 154.844 Q2087.84 157.55 2084.16 157.55 Q2080.79 157.55 2078.66 155.152 Q2076.55 152.754 2076.55 149.864 Z" fill="#000000" fill-rule="evenodd" fill-opacity="1" /><path clip-path="url(#clip680)" d="M 0 0 M2097.33 143.203 Q2097.33 137.035 2098.89 133.673 Q2101.06 128.673 2106.19 128.673 Q2107.27 128.673 2108.4 128.98 Q2109.55 129.267 2110.98 130.394 Q2112.44 131.521 2113.32 133.366 Q2115 136.932 2115 143.203 Q2115 149.331 2113.44 152.672 Q2111.17 157.55 2106.15 157.55 Q2104.26 157.55 2102.33 156.586 Q2100.43 155.623 2099.22 153.307 Q2097.33 149.844 2097.33 143.203 M2100.82 142.691 Q2100.82 149.024 2101.27 151.545 Q2101.78 154.27 2103.17 155.459 Q2104.59 156.627 2106.15 156.627 Q2107.83 156.627 2109.22 155.377 Q2110.63 154.107 2111.06 151.381 Q2111.54 148.696 2111.52 142.691 Q2111.52 136.85 2111.11 134.514 Q2110.55 131.788 2109.08 130.702 Q2107.62 129.595 2106.15 129.595 Q2105.59 129.595 2105 129.759 Q2104.42 129.923 2103.58 130.394 Q2102.74 130.866 2102.09 132.034 Q2101.45 133.202 2101.14 134.965 Q2100.82 137.239 2100.82 142.691 Z" fill="#000000" fill-rule="evenodd" fill-opacity="1" /><path clip-path="url(#clip680)" d="M 0 0 M2118.75 155.951 Q2118.11 155.275 2118.11 154.393 Q2118.11 153.512 2118.75 152.877 Q2119.38 152.221 2120.35 152.221 Q2121.27 152.221 2121.89 152.836 Q2122.52 153.43 2122.52 154.414 Q2122.52 155.377 2121.84 156.013 Q2121.19 156.627 2120.35 156.627 Q2119.38 156.627 2118.75 155.951 Z" fill="#000000" fill-rule="evenodd" fill-opacity="1" /><path clip-path="url(#clip680)" d="M 0 0 M2129.66 143.203 Q2129.66 137.035 2131.22 133.673 Q2133.39 128.673 2138.52 128.673 Q2139.6 128.673 2140.73 128.98 Q2141.88 129.267 2143.31 130.394 Q2144.77 131.521 2145.65 133.366 Q2147.33 136.932 2147.33 143.203 Q2147.33 149.331 2145.77 152.672 Q2143.5 157.55 2138.47 157.55 Q2136.59 157.55 2134.66 156.586 Q2132.76 155.623 2131.55 153.307 Q2129.66 149.844 2129.66 143.203 M2133.15 142.691 Q2133.15 149.024 2133.6 151.545 Q2134.11 154.27 2135.5 155.459 Q2136.92 156.627 2138.47 156.627 Q2140.15 156.627 2141.55 155.377 Q2142.96 154.107 2143.39 151.381 Q2143.86 148.696 2143.84 142.691 Q2143.84 136.85 2143.43 134.514 Q2142.88 131.788 2141.4 130.702 Q2139.95 129.595 2138.47 129.595 Q2137.92 129.595 2137.33 129.759 Q2136.75 129.923 2135.91 130.394 Q2135.07 130.866 2134.42 132.034 Q2133.78 133.202 2133.47 134.965 Q2133.15 137.239 2133.15 142.691 Z" fill="#000000" fill-rule="evenodd" fill-opacity="1" /><path clip-path="url(#clip680)" d="M 0 0 M2151.04 155.951 Q2150.44 155.275 2150.44 154.393 Q2150.44 153.512 2151.02 152.856 Q2151.61 152.18 2152.68 152.18 Q2153.93 152.18 2154.64 153.389 Q2155.36 154.578 2155.36 156.586 Q2155.36 158.759 2154.48 160.767 Q2153.6 162.796 2152.74 163.76 Q2151.88 164.723 2151.53 164.723 Q2151.12 164.723 2151.12 164.272 Q2151.12 164.108 2151.41 163.801 Q2154.42 160.562 2154.44 156.586 Q2154.44 155.951 2154.36 155.951 L2154.25 156.033 Q2153.54 156.627 2152.68 156.627 Q2151.63 156.627 2151.04 155.951 Z" fill="#000000" fill-rule="evenodd" fill-opacity="1" /><path clip-path="url(#clip680)" d="M 0 0 M2189.2 150.622 Q2188.69 153.143 2187.64 154.906 Q2186.35 157.099 2184.39 157.099 Q2182.72 157.099 2181.62 155.951 Q2180.51 154.783 2180.51 152.938 Q2180.51 152.385 2180.74 151.463 Q2180.82 151.053 2180.82 150.54 Q2180.82 147.22 2173.63 146.974 Q2173.03 149.331 2172.62 150.93 Q2172.23 152.508 2172.11 152.979 Q2171.99 153.451 2171.88 153.84 Q2171.8 154.23 2171.66 154.742 Q2171.45 155.582 2171.31 155.992 Q2171.17 156.402 2170.78 156.75 Q2170.41 157.099 2169.81 157.099 Q2169.3 157.099 2168.95 156.791 Q2168.6 156.484 2168.6 155.951 Q2168.6 155.582 2168.77 154.988 L2172.62 139.596 Q2172.72 139.166 2172.93 138.859 Q2173.13 138.551 2173.32 138.408 Q2173.52 138.264 2173.77 138.182 Q2174.01 138.1 2174.12 138.1 Q2174.22 138.08 2174.3 138.08 Q2174.86 138.08 2175.18 138.387 Q2175.53 138.674 2175.53 139.207 Q2175.53 139.289 2175.39 139.863 Q2175.26 140.416 2175.06 141.256 Q2174.86 142.097 2174.77 142.486 L2173.93 145.765 Q2175.1 145.376 2176.15 144.679 Q2177.21 143.982 2179.3 142.179 Q2180.27 141.379 2180.84 140.928 Q2181.43 140.457 2182.42 139.822 Q2183.4 139.166 2184.34 138.859 Q2185.29 138.531 2186.19 138.531 Q2186.89 138.531 2187.3 138.859 Q2187.71 139.166 2187.79 139.453 Q2187.87 139.719 2187.87 140.006 Q2187.87 140.847 2187.21 141.564 Q2186.56 142.281 2185.59 142.281 Q2184.73 142.281 2184.36 141.81 Q2184 141.338 2184 140.806 Q2184 140.396 2184.2 139.883 Q2183.05 140.375 2182.07 141.092 Q2181.09 141.789 2179.38 143.244 Q2176.97 145.314 2175.53 146.093 Q2176.35 146.114 2176.97 146.175 Q2177.6 146.216 2178.67 146.36 Q2179.73 146.503 2180.51 146.81 Q2181.29 147.097 2182.05 147.548 Q2182.83 147.999 2183.24 148.737 Q2183.67 149.475 2183.67 150.418 Q2183.67 150.868 2183.46 151.791 Q2183.11 153.307 2183.11 154.148 Q2183.11 155.213 2183.44 155.685 Q2183.79 156.156 2184.47 156.156 Q2185.76 156.156 2186.58 154.824 Q2187.42 153.471 2188.12 150.971 Q2188.22 150.499 2188.32 150.356 Q2188.42 150.213 2188.71 150.213 Q2189.2 150.213 2189.2 150.622 Z" fill="#000000" fill-rule="evenodd" fill-opacity="1" /><path clip-path="url(#clip680)" d="M 0 0 M2204.18 150.254 Q2204.22 149.741 2205.02 149.741 L2230.74 149.741 Q2231.95 149.741 2231.97 150.213 Q2231.97 150.725 2230.82 150.704 L2205.3 150.704 Q2204.18 150.725 2204.18 150.254 M2204.18 142.056 Q2204.18 141.543 2205.06 141.564 L2230.7 141.564 Q2231.95 141.564 2231.97 142.056 Q2231.97 142.527 2230.9 142.527 L2205.02 142.527 Q2204.18 142.527 2204.18 142.056 Z" fill="#000000" fill-rule="evenodd" fill-opacity="1" /><path clip-path="url(#clip680)" d="M 0 0 M2248.15 132.669 L2248.15 131.357 Q2253.19 131.357 2255.8 128.673 Q2256.51 128.673 2256.64 128.837 Q2256.76 129.001 2256.76 129.759 L2256.76 153.307 Q2256.76 154.557 2257.37 154.947 Q2257.99 155.336 2260.67 155.336 L2262.01 155.336 L2262.01 156.627 Q2260.53 156.504 2255.2 156.504 Q2249.87 156.504 2248.42 156.627 L2248.42 155.336 L2249.75 155.336 Q2252.39 155.336 2253.03 154.967 Q2253.66 154.578 2253.66 153.307 L2253.66 131.562 Q2251.47 132.669 2248.15 132.669 Z" fill="#000000" fill-rule="evenodd" fill-opacity="1" /><path clip-path="url(#clip680)" d="M 0 0 M2265.56 143.203 Q2265.56 137.035 2267.11 133.673 Q2269.29 128.673 2274.41 128.673 Q2275.5 128.673 2276.62 128.98 Q2277.77 129.267 2279.21 130.394 Q2280.66 131.521 2281.54 133.366 Q2283.22 136.932 2283.22 143.203 Q2283.22 149.331 2281.67 152.672 Q2279.39 157.55 2274.37 157.55 Q2272.48 157.55 2270.56 156.586 Q2268.65 155.623 2267.44 153.307 Q2265.56 149.844 2265.56 143.203 M2269.04 142.691 Q2269.04 149.024 2269.49 151.545 Q2270 154.27 2271.4 155.459 Q2272.81 156.627 2274.37 156.627 Q2276.05 156.627 2277.44 155.377 Q2278.86 154.107 2279.29 151.381 Q2279.76 148.696 2279.74 142.691 Q2279.74 136.85 2279.33 134.514 Q2278.78 131.788 2277.3 130.702 Q2275.85 129.595 2274.37 129.595 Q2273.82 129.595 2273.22 129.759 Q2272.65 129.923 2271.81 130.394 Q2270.97 130.866 2270.31 132.034 Q2269.68 133.202 2269.37 134.965 Q2269.04 137.239 2269.04 142.691 Z" fill="#000000" fill-rule="evenodd" fill-opacity="1" /><polyline clip-path="url(#clip680)" style="stroke:#ff0000; stroke-width:3.5; stroke-opacity:1; fill:none" points="
  1836.93,199.493 1973.84,199.493 
  "/>
<path clip-path="url(#clip680)" d="M 0 0 M2025.21 181.593 Q2025.21 181.982 2025.13 182.31 L2023.98 189.606 Q2023.92 190.159 2023.79 190.364 Q2023.69 190.569 2023.36 190.569 Q2022.85 190.569 2022.85 190.036 Q2022.85 189.729 2022.97 189.237 Q2023.32 186.921 2023.32 185.876 Q2023.32 185.179 2023.18 184.667 Q2023.06 184.134 2022.85 183.765 Q2022.67 183.396 2022.24 183.15 Q2021.81 182.904 2021.4 182.761 Q2020.99 182.617 2020.25 182.556 Q2019.51 182.474 2018.88 182.453 Q2018.24 182.433 2017.2 182.433 Q2014.92 182.433 2014.55 182.515 Q2014.16 182.617 2013.96 182.925 Q2013.77 183.212 2013.57 184.073 L2007.99 206.35 L2007.83 207.231 Q2007.83 207.723 2008.14 207.887 Q2008.44 208.051 2009.39 208.154 Q2010.74 208.256 2012.07 208.256 Q2012.11 208.256 2012.19 208.256 Q2012.65 208.256 2012.83 208.277 Q2013.01 208.277 2013.2 208.318 Q2013.38 208.359 2013.42 208.461 Q2013.49 208.543 2013.49 208.707 Q2013.49 209.096 2013.32 209.301 Q2013.16 209.486 2012.99 209.527 Q2012.85 209.547 2012.56 209.547 Q2011.99 209.547 2010.76 209.506 Q2009.53 209.465 2008.92 209.465 L2005.43 209.424 L2001.87 209.465 Q2001.31 209.465 2000.14 209.506 Q1998.98 209.547 1998.42 209.547 Q1997.7 209.547 1997.7 209.035 Q1997.7 208.461 1997.97 208.359 Q1998.26 208.256 1999.47 208.256 Q2001.17 208.256 2002.09 208.174 Q2003.01 208.092 2003.5 207.805 Q2004.02 207.518 2004.16 207.231 Q2004.3 206.924 2004.47 206.227 L2010.1 183.827 Q2010.27 183.335 2010.27 182.945 Q2010.27 182.74 2010.21 182.658 Q2010.17 182.576 2009.9 182.515 Q2009.63 182.433 2009.08 182.433 L2007.44 182.433 Q2005.76 182.433 2004.71 182.515 Q2003.69 182.576 2002.71 182.884 Q2001.74 183.191 2001.17 183.622 Q2000.62 184.052 2000 184.933 Q1999.39 185.815 1998.93 186.88 Q1998.5 187.946 1997.89 189.688 Q1997.68 190.262 1997.56 190.426 Q1997.46 190.569 1997.17 190.569 Q1996.97 190.569 1996.8 190.446 Q1996.66 190.303 1996.66 190.118 Q1996.86 189.442 1996.91 189.36 L1999.43 181.962 Q1999.63 181.367 1999.82 181.265 Q2000.02 181.142 2000.78 181.142 L2024.06 181.142 Q2024.43 181.142 2024.55 181.142 Q2024.68 181.142 2024.88 181.183 Q2025.09 181.224 2025.15 181.326 Q2025.21 181.429 2025.21 181.593 Z" fill="#000000" fill-rule="evenodd" fill-opacity="1" /><path clip-path="url(#clip680)" d="M 0 0 M2032.58 203.174 Q2032.62 202.661 2033.42 202.661 L2059.14 202.661 Q2060.35 202.661 2060.37 203.133 Q2060.37 203.645 2059.22 203.624 L2033.7 203.624 Q2032.58 203.645 2032.58 203.174 M2032.58 194.976 Q2032.58 194.463 2033.46 194.484 L2059.1 194.484 Q2060.35 194.484 2060.37 194.976 Q2060.37 195.447 2059.3 195.447 L2033.42 195.447 Q2032.58 195.447 2032.58 194.976 Z" fill="#000000" fill-rule="evenodd" fill-opacity="1" /><path clip-path="url(#clip680)" d="M 0 0 M2076.55 202.784 Q2076.55 201.534 2077.23 201.063 Q2077.9 200.571 2078.62 200.571 Q2079.58 200.571 2080.14 201.186 Q2080.71 201.78 2080.71 202.62 Q2080.71 203.46 2080.14 204.075 Q2079.58 204.67 2078.62 204.67 Q2078.15 204.67 2077.9 204.588 Q2078.46 206.514 2080.14 207.908 Q2081.84 209.301 2084.07 209.301 Q2086.88 209.301 2088.56 206.576 Q2089.57 204.813 2089.57 200.817 Q2089.57 197.292 2088.81 195.529 Q2087.64 192.844 2085.24 192.844 Q2081.84 192.844 2079.83 195.775 Q2079.58 196.144 2079.3 196.164 Q2078.89 196.164 2078.79 195.939 Q2078.7 195.693 2078.7 195.058 L2078.7 182.638 Q2078.7 181.634 2079.11 181.634 Q2079.28 181.634 2079.63 181.757 Q2082.27 182.925 2085.2 182.945 Q2088.21 182.945 2090.92 181.716 Q2091.12 181.593 2091.25 181.593 Q2091.66 181.593 2091.68 182.064 Q2091.68 182.228 2091.33 182.72 Q2091 183.191 2090.28 183.827 Q2089.57 184.441 2088.64 185.036 Q2087.72 185.63 2086.37 186.04 Q2085.04 186.429 2083.56 186.429 Q2081.8 186.429 2079.99 185.876 L2079.99 194.053 Q2082.17 191.922 2085.32 191.922 Q2088.68 191.922 2091 194.627 Q2093.32 197.333 2093.32 201.104 Q2093.32 205.059 2090.57 207.764 Q2087.84 210.47 2084.16 210.47 Q2080.79 210.47 2078.66 208.072 Q2076.55 205.674 2076.55 202.784 Z" fill="#000000" fill-rule="evenodd" fill-opacity="1" /><path clip-path="url(#clip680)" d="M 0 0 M2097.33 196.123 Q2097.33 189.955 2098.89 186.593 Q2101.06 181.593 2106.19 181.593 Q2107.27 181.593 2108.4 181.9 Q2109.55 182.187 2110.98 183.314 Q2112.44 184.441 2113.32 186.286 Q2115 189.852 2115 196.123 Q2115 202.251 2113.44 205.592 Q2111.17 210.47 2106.15 210.47 Q2104.26 210.47 2102.33 209.506 Q2100.43 208.543 2099.22 206.227 Q2097.33 202.764 2097.33 196.123 M2100.82 195.611 Q2100.82 201.944 2101.27 204.465 Q2101.78 207.19 2103.17 208.379 Q2104.59 209.547 2106.15 209.547 Q2107.83 209.547 2109.22 208.297 Q2110.63 207.027 2111.06 204.301 Q2111.54 201.616 2111.52 195.611 Q2111.52 189.77 2111.11 187.434 Q2110.55 184.708 2109.08 183.622 Q2107.62 182.515 2106.15 182.515 Q2105.59 182.515 2105 182.679 Q2104.42 182.843 2103.58 183.314 Q2102.74 183.786 2102.09 184.954 Q2101.45 186.122 2101.14 187.885 Q2100.82 190.159 2100.82 195.611 Z" fill="#000000" fill-rule="evenodd" fill-opacity="1" /><path clip-path="url(#clip680)" d="M 0 0 M2118.75 208.871 Q2118.11 208.195 2118.11 207.313 Q2118.11 206.432 2118.75 205.797 Q2119.38 205.141 2120.35 205.141 Q2121.27 205.141 2121.89 205.756 Q2122.52 206.35 2122.52 207.334 Q2122.52 208.297 2121.84 208.933 Q2121.19 209.547 2120.35 209.547 Q2119.38 209.547 2118.75 208.871 Z" fill="#000000" fill-rule="evenodd" fill-opacity="1" /><path clip-path="url(#clip680)" d="M 0 0 M2129.66 196.123 Q2129.66 189.955 2131.22 186.593 Q2133.39 181.593 2138.52 181.593 Q2139.6 181.593 2140.73 181.9 Q2141.88 182.187 2143.31 183.314 Q2144.77 184.441 2145.65 186.286 Q2147.33 189.852 2147.33 196.123 Q2147.33 202.251 2145.77 205.592 Q2143.5 210.47 2138.47 210.47 Q2136.59 210.47 2134.66 209.506 Q2132.76 208.543 2131.55 206.227 Q2129.66 202.764 2129.66 196.123 M2133.15 195.611 Q2133.15 201.944 2133.6 204.465 Q2134.11 207.19 2135.5 208.379 Q2136.92 209.547 2138.47 209.547 Q2140.15 209.547 2141.55 208.297 Q2142.96 207.027 2143.39 204.301 Q2143.86 201.616 2143.84 195.611 Q2143.84 189.77 2143.43 187.434 Q2142.88 184.708 2141.4 183.622 Q2139.95 182.515 2138.47 182.515 Q2137.92 182.515 2137.33 182.679 Q2136.75 182.843 2135.91 183.314 Q2135.07 183.786 2134.42 184.954 Q2133.78 186.122 2133.47 187.885 Q2133.15 190.159 2133.15 195.611 Z" fill="#000000" fill-rule="evenodd" fill-opacity="1" /><path clip-path="url(#clip680)" d="M 0 0 M2151.04 208.871 Q2150.44 208.195 2150.44 207.313 Q2150.44 206.432 2151.02 205.776 Q2151.61 205.1 2152.68 205.1 Q2153.93 205.1 2154.64 206.309 Q2155.36 207.498 2155.36 209.506 Q2155.36 211.679 2154.48 213.687 Q2153.6 215.716 2152.74 216.68 Q2151.88 217.643 2151.53 217.643 Q2151.12 217.643 2151.12 217.192 Q2151.12 217.028 2151.41 216.721 Q2154.42 213.482 2154.44 209.506 Q2154.44 208.871 2154.36 208.871 L2154.25 208.953 Q2153.54 209.547 2152.68 209.547 Q2151.63 209.547 2151.04 208.871 Z" fill="#000000" fill-rule="evenodd" fill-opacity="1" /><path clip-path="url(#clip680)" d="M 0 0 M2189.2 203.542 Q2188.69 206.063 2187.64 207.826 Q2186.35 210.019 2184.39 210.019 Q2182.72 210.019 2181.62 208.871 Q2180.51 207.703 2180.51 205.858 Q2180.51 205.305 2180.74 204.383 Q2180.82 203.973 2180.82 203.46 Q2180.82 200.14 2173.63 199.894 Q2173.03 202.251 2172.62 203.85 Q2172.23 205.428 2172.11 205.899 Q2171.99 206.371 2171.88 206.76 Q2171.8 207.15 2171.66 207.662 Q2171.45 208.502 2171.31 208.912 Q2171.17 209.322 2170.78 209.67 Q2170.41 210.019 2169.81 210.019 Q2169.3 210.019 2168.95 209.711 Q2168.6 209.404 2168.6 208.871 Q2168.6 208.502 2168.77 207.908 L2172.62 192.516 Q2172.72 192.086 2172.93 191.779 Q2173.13 191.471 2173.32 191.328 Q2173.52 191.184 2173.77 191.102 Q2174.01 191.02 2174.12 191.02 Q2174.22 191 2174.3 191 Q2174.86 191 2175.18 191.307 Q2175.53 191.594 2175.53 192.127 Q2175.53 192.209 2175.39 192.783 Q2175.26 193.336 2175.06 194.176 Q2174.86 195.017 2174.77 195.406 L2173.93 198.685 Q2175.1 198.296 2176.15 197.599 Q2177.21 196.902 2179.3 195.099 Q2180.27 194.299 2180.84 193.848 Q2181.43 193.377 2182.42 192.742 Q2183.4 192.086 2184.34 191.779 Q2185.29 191.451 2186.19 191.451 Q2186.89 191.451 2187.3 191.779 Q2187.71 192.086 2187.79 192.373 Q2187.87 192.639 2187.87 192.926 Q2187.87 193.767 2187.21 194.484 Q2186.56 195.201 2185.59 195.201 Q2184.73 195.201 2184.36 194.73 Q2184 194.258 2184 193.726 Q2184 193.316 2184.2 192.803 Q2183.05 193.295 2182.07 194.012 Q2181.09 194.709 2179.38 196.164 Q2176.97 198.234 2175.53 199.013 Q2176.35 199.034 2176.97 199.095 Q2177.6 199.136 2178.67 199.28 Q2179.73 199.423 2180.51 199.73 Q2181.29 200.017 2182.05 200.468 Q2182.83 200.919 2183.24 201.657 Q2183.67 202.395 2183.67 203.338 Q2183.67 203.788 2183.46 204.711 Q2183.11 206.227 2183.11 207.068 Q2183.11 208.133 2183.44 208.605 Q2183.79 209.076 2184.47 209.076 Q2185.76 209.076 2186.58 207.744 Q2187.42 206.391 2188.12 203.891 Q2188.22 203.419 2188.32 203.276 Q2188.42 203.133 2188.71 203.133 Q2189.2 203.133 2189.2 203.542 Z" fill="#000000" fill-rule="evenodd" fill-opacity="1" /><path clip-path="url(#clip680)" d="M 0 0 M2204.18 203.174 Q2204.22 202.661 2205.02 202.661 L2230.74 202.661 Q2231.95 202.661 2231.97 203.133 Q2231.97 203.645 2230.82 203.624 L2205.3 203.624 Q2204.18 203.645 2204.18 203.174 M2204.18 194.976 Q2204.18 194.463 2205.06 194.484 L2230.7 194.484 Q2231.95 194.484 2231.97 194.976 Q2231.97 195.447 2230.9 195.447 L2205.02 195.447 Q2204.18 195.447 2204.18 194.976 Z" fill="#000000" fill-rule="evenodd" fill-opacity="1" /><path clip-path="url(#clip680)" d="M 0 0 M2248.15 185.589 L2248.15 184.277 Q2253.19 184.277 2255.8 181.593 Q2256.51 181.593 2256.64 181.757 Q2256.76 181.921 2256.76 182.679 L2256.76 206.227 Q2256.76 207.477 2257.37 207.867 Q2257.99 208.256 2260.67 208.256 L2262.01 208.256 L2262.01 209.547 Q2260.53 209.424 2255.2 209.424 Q2249.87 209.424 2248.42 209.547 L2248.42 208.256 L2249.75 208.256 Q2252.39 208.256 2253.03 207.887 Q2253.66 207.498 2253.66 206.227 L2253.66 184.482 Q2251.47 185.589 2248.15 185.589 Z" fill="#000000" fill-rule="evenodd" fill-opacity="1" /><path clip-path="url(#clip680)" d="M 0 0 M2265.56 196.123 Q2265.56 189.955 2267.11 186.593 Q2269.29 181.593 2274.41 181.593 Q2275.5 181.593 2276.62 181.9 Q2277.77 182.187 2279.21 183.314 Q2280.66 184.441 2281.54 186.286 Q2283.22 189.852 2283.22 196.123 Q2283.22 202.251 2281.67 205.592 Q2279.39 210.47 2274.37 210.47 Q2272.48 210.47 2270.56 209.506 Q2268.65 208.543 2267.44 206.227 Q2265.56 202.764 2265.56 196.123 M2269.04 195.611 Q2269.04 201.944 2269.49 204.465 Q2270 207.19 2271.4 208.379 Q2272.81 209.547 2274.37 209.547 Q2276.05 209.547 2277.44 208.297 Q2278.86 207.027 2279.29 204.301 Q2279.76 201.616 2279.74 195.611 Q2279.74 189.77 2279.33 187.434 Q2278.78 184.708 2277.3 183.622 Q2275.85 182.515 2274.37 182.515 Q2273.82 182.515 2273.22 182.679 Q2272.65 182.843 2271.81 183.314 Q2270.97 183.786 2270.31 184.954 Q2269.68 186.122 2269.37 187.885 Q2269.04 190.159 2269.04 195.611 Z" fill="#000000" fill-rule="evenodd" fill-opacity="1" /><path clip-path="url(#clip680)" d="M 0 0 M2286.34 196.123 Q2286.34 189.955 2287.9 186.593 Q2290.07 181.593 2295.19 181.593 Q2296.28 181.593 2297.41 181.9 Q2298.55 182.187 2299.99 183.314 Q2301.44 184.441 2302.32 186.286 Q2304 189.852 2304 196.123 Q2304 202.251 2302.45 205.592 Q2300.17 210.47 2295.15 210.47 Q2293.27 210.47 2291.34 209.506 Q2289.43 208.543 2288.22 206.227 Q2286.34 202.764 2286.34 196.123 M2289.82 195.611 Q2289.82 201.944 2290.27 204.465 Q2290.79 207.19 2292.18 208.379 Q2293.59 209.547 2295.15 209.547 Q2296.83 209.547 2298.23 208.297 Q2299.64 207.027 2300.07 204.301 Q2300.54 201.616 2300.52 195.611 Q2300.52 189.77 2300.11 187.434 Q2299.56 184.708 2298.08 183.622 Q2296.63 182.515 2295.15 182.515 Q2294.6 182.515 2294 182.679 Q2293.43 182.843 2292.59 183.314 Q2291.75 183.786 2291.09 184.954 Q2290.46 186.122 2290.15 187.885 Q2289.82 190.159 2289.82 195.611 Z" fill="#000000" fill-rule="evenodd" fill-opacity="1" /></svg>
