<?xml version="1.0" encoding="utf-8"?>
<svg xmlns="http://www.w3.org/2000/svg" xmlns:xlink="http://www.w3.org/1999/xlink" width="600" height="400" viewBox="0 0 2400 1600">
<defs>
  <clipPath id="clip460">
    <rect x="0" y="0" width="2400" height="1600"/>
  </clipPath>
</defs>
<path clip-path="url(#clip460)" d="
M0 1600 L2400 1600 L2400 0 L0 0  Z
  " fill="#ffffff" fill-rule="evenodd" fill-opacity="1"/>
<defs>
  <clipPath id="clip461">
    <rect x="480" y="0" width="1681" height="1600"/>
  </clipPath>
</defs>
<defs>
  <clipPath id="clip462">
    <rect x="163" y="47" width="1825" height="1397"/>
  </clipPath>
</defs>
<path clip-path="url(#clip460)" d="
M231.127 1439.5 L1924.84 1439.5 L1924.84 47.2441 L231.127 47.2441  Z
  " fill="#ffffff" fill-rule="evenodd" fill-opacity="1"/>
<defs>
  <clipPath id="clip463">
    <rect x="231" y="47" width="1695" height="1393"/>
  </clipPath>
</defs>
<polyline clip-path="url(#clip463)" style="stroke:#000000; stroke-width:2; stroke-opacity:0.1; fill:none" points="
  275.861,1439.5 275.861,47.2441 
  "/>
<polyline clip-path="url(#clip463)" style="stroke:#000000; stroke-width:2; stroke-opacity:0.1; fill:none" points="
  596.07,1439.5 596.07,47.2441 
  "/>
<polyline clip-path="url(#clip463)" style="stroke:#000000; stroke-width:2; stroke-opacity:0.1; fill:none" points="
  916.28,1439.5 916.28,47.2441 
  "/>
<polyline clip-path="url(#clip463)" style="stroke:#000000; stroke-width:2; stroke-opacity:0.1; fill:none" points="
  1236.49,1439.5 1236.49,47.2441 
  "/>
<polyline clip-path="url(#clip463)" style="stroke:#000000; stroke-width:2; stroke-opacity:0.1; fill:none" points="
  1556.7,1439.5 1556.7,47.2441 
  "/>
<polyline clip-path="url(#clip463)" style="stroke:#000000; stroke-width:2; stroke-opacity:0.1; fill:none" points="
  1876.91,1439.5 1876.91,47.2441 
  "/>
<polyline clip-path="url(#clip460)" style="stroke:#000000; stroke-width:4; stroke-opacity:1; fill:none" points="
  231.127,1439.5 1924.84,1439.5 
  "/>
<polyline clip-path="url(#clip460)" style="stroke:#000000; stroke-width:4; stroke-opacity:1; fill:none" points="
  275.861,1439.5 275.861,1422.79 
  "/>
<polyline clip-path="url(#clip460)" style="stroke:#000000; stroke-width:4; stroke-opacity:1; fill:none" points="
  596.07,1439.5 596.07,1422.79 
  "/>
<polyline clip-path="url(#clip460)" style="stroke:#000000; stroke-width:4; stroke-opacity:1; fill:none" points="
  916.28,1439.5 916.28,1422.79 
  "/>
<polyline clip-path="url(#clip460)" style="stroke:#000000; stroke-width:4; stroke-opacity:1; fill:none" points="
  1236.49,1439.5 1236.49,1422.79 
  "/>
<polyline clip-path="url(#clip460)" style="stroke:#000000; stroke-width:4; stroke-opacity:1; fill:none" points="
  1556.7,1439.5 1556.7,1422.79 
  "/>
<polyline clip-path="url(#clip460)" style="stroke:#000000; stroke-width:4; stroke-opacity:1; fill:none" points="
  1876.91,1439.5 1876.91,1422.79 
  "/>
<path clip-path="url(#clip460)" d="M 0 0 M275.861 1468.69 Q272.25 1468.69 270.421 1472.26 Q268.615 1475.8 268.615 1482.93 Q268.615 1490.04 270.421 1493.6 Q272.25 1497.14 275.861 1497.14 Q279.495 1497.14 281.3 1493.6 Q283.129 1490.04 283.129 1482.93 Q283.129 1475.8 281.3 1472.26 Q279.495 1468.69 275.861 1468.69 M275.861 1464.99 Q281.671 1464.99 284.726 1469.6 Q287.805 1474.18 287.805 1482.93 Q287.805 1491.66 284.726 1496.26 Q281.671 1500.85 275.861 1500.85 Q270.051 1500.85 266.972 1496.26 Q263.916 1491.66 263.916 1482.93 Q263.916 1474.18 266.972 1469.6 Q270.051 1464.99 275.861 1464.99 Z" fill="#000000" fill-rule="evenodd" fill-opacity="1" /><path clip-path="url(#clip460)" d="M 0 0 M555.677 1496.24 L563.316 1496.24 L563.316 1469.87 L555.006 1471.54 L555.006 1467.28 L563.27 1465.61 L567.945 1465.61 L567.945 1496.24 L575.584 1496.24 L575.584 1500.17 L555.677 1500.17 L555.677 1496.24 Z" fill="#000000" fill-rule="evenodd" fill-opacity="1" /><path clip-path="url(#clip460)" d="M 0 0 M595.029 1468.69 Q591.418 1468.69 589.589 1472.26 Q587.783 1475.8 587.783 1482.93 Q587.783 1490.04 589.589 1493.6 Q591.418 1497.14 595.029 1497.14 Q598.663 1497.14 600.468 1493.6 Q602.297 1490.04 602.297 1482.93 Q602.297 1475.8 600.468 1472.26 Q598.663 1468.69 595.029 1468.69 M595.029 1464.99 Q600.839 1464.99 603.894 1469.6 Q606.973 1474.18 606.973 1482.93 Q606.973 1491.66 603.894 1496.26 Q600.839 1500.85 595.029 1500.85 Q589.218 1500.85 586.14 1496.26 Q583.084 1491.66 583.084 1482.93 Q583.084 1474.18 586.14 1469.6 Q589.218 1464.99 595.029 1464.99 Z" fill="#000000" fill-rule="evenodd" fill-opacity="1" /><path clip-path="url(#clip460)" d="M 0 0 M625.191 1468.69 Q621.579 1468.69 619.751 1472.26 Q617.945 1475.8 617.945 1482.93 Q617.945 1490.04 619.751 1493.6 Q621.579 1497.14 625.191 1497.14 Q628.825 1497.14 630.63 1493.6 Q632.459 1490.04 632.459 1482.93 Q632.459 1475.8 630.63 1472.26 Q628.825 1468.69 625.191 1468.69 M625.191 1464.99 Q631.001 1464.99 634.056 1469.6 Q637.135 1474.18 637.135 1482.93 Q637.135 1491.66 634.056 1496.26 Q631.001 1500.85 625.191 1500.85 Q619.38 1500.85 616.302 1496.26 Q613.246 1491.66 613.246 1482.93 Q613.246 1474.18 616.302 1469.6 Q619.38 1464.99 625.191 1464.99 Z" fill="#000000" fill-rule="evenodd" fill-opacity="1" /><path clip-path="url(#clip460)" d="M 0 0 M879.972 1496.24 L896.292 1496.24 L896.292 1500.17 L874.347 1500.17 L874.347 1496.24 Q877.009 1493.48 881.593 1488.85 Q886.199 1484.2 887.38 1482.86 Q889.625 1480.34 890.505 1478.6 Q891.407 1476.84 891.407 1475.15 Q891.407 1472.4 889.463 1470.66 Q887.542 1468.92 884.44 1468.92 Q882.241 1468.92 879.787 1469.69 Q877.356 1470.45 874.579 1472 L874.579 1467.28 Q877.403 1466.15 879.856 1465.57 Q882.31 1464.99 884.347 1464.99 Q889.718 1464.99 892.912 1467.67 Q896.106 1470.36 896.106 1474.85 Q896.106 1476.98 895.296 1478.9 Q894.509 1480.8 892.403 1483.39 Q891.824 1484.06 888.722 1487.28 Q885.62 1490.47 879.972 1496.24 Z" fill="#000000" fill-rule="evenodd" fill-opacity="1" /><path clip-path="url(#clip460)" d="M 0 0 M916.106 1468.69 Q912.495 1468.69 910.666 1472.26 Q908.861 1475.8 908.861 1482.93 Q908.861 1490.04 910.666 1493.6 Q912.495 1497.14 916.106 1497.14 Q919.741 1497.14 921.546 1493.6 Q923.375 1490.04 923.375 1482.93 Q923.375 1475.8 921.546 1472.26 Q919.741 1468.69 916.106 1468.69 M916.106 1464.99 Q921.916 1464.99 924.972 1469.6 Q928.051 1474.18 928.051 1482.93 Q928.051 1491.66 924.972 1496.26 Q921.916 1500.85 916.106 1500.85 Q910.296 1500.85 907.217 1496.26 Q904.162 1491.66 904.162 1482.93 Q904.162 1474.18 907.217 1469.6 Q910.296 1464.99 916.106 1464.99 Z" fill="#000000" fill-rule="evenodd" fill-opacity="1" /><path clip-path="url(#clip460)" d="M 0 0 M946.268 1468.69 Q942.657 1468.69 940.828 1472.26 Q939.023 1475.8 939.023 1482.93 Q939.023 1490.04 940.828 1493.6 Q942.657 1497.14 946.268 1497.14 Q949.902 1497.14 951.708 1493.6 Q953.537 1490.04 953.537 1482.93 Q953.537 1475.8 951.708 1472.26 Q949.902 1468.69 946.268 1468.69 M946.268 1464.99 Q952.078 1464.99 955.134 1469.6 Q958.213 1474.18 958.213 1482.93 Q958.213 1491.66 955.134 1496.26 Q952.078 1500.85 946.268 1500.85 Q940.458 1500.85 937.379 1496.26 Q934.324 1491.66 934.324 1482.93 Q934.324 1474.18 937.379 1469.6 Q940.458 1464.99 946.268 1464.99 Z" fill="#000000" fill-rule="evenodd" fill-opacity="1" /><path clip-path="url(#clip460)" d="M 0 0 M1210.25 1481.54 Q1213.61 1482.26 1215.48 1484.53 Q1217.38 1486.79 1217.38 1490.13 Q1217.38 1495.24 1213.86 1498.04 Q1210.34 1500.85 1203.86 1500.85 Q1201.69 1500.85 1199.37 1500.41 Q1197.08 1499.99 1194.63 1499.13 L1194.63 1494.62 Q1196.57 1495.75 1198.89 1496.33 Q1201.2 1496.91 1203.72 1496.91 Q1208.12 1496.91 1210.41 1495.17 Q1212.73 1493.44 1212.73 1490.13 Q1212.73 1487.07 1210.58 1485.36 Q1208.45 1483.62 1204.63 1483.62 L1200.6 1483.62 L1200.6 1479.78 L1204.81 1479.78 Q1208.26 1479.78 1210.09 1478.41 Q1211.92 1477.03 1211.92 1474.43 Q1211.92 1471.77 1210.02 1470.36 Q1208.14 1468.92 1204.63 1468.92 Q1202.7 1468.92 1200.51 1469.34 Q1198.31 1469.76 1195.67 1470.64 L1195.67 1466.47 Q1198.33 1465.73 1200.64 1465.36 Q1202.98 1464.99 1205.04 1464.99 Q1210.37 1464.99 1213.47 1467.42 Q1216.57 1469.83 1216.57 1473.95 Q1216.57 1476.82 1214.93 1478.81 Q1213.28 1480.78 1210.25 1481.54 Z" fill="#000000" fill-rule="evenodd" fill-opacity="1" /><path clip-path="url(#clip460)" d="M 0 0 M1236.25 1468.69 Q1232.64 1468.69 1230.81 1472.26 Q1229 1475.8 1229 1482.93 Q1229 1490.04 1230.81 1493.6 Q1232.64 1497.14 1236.25 1497.14 Q1239.88 1497.14 1241.69 1493.6 Q1243.51 1490.04 1243.51 1482.93 Q1243.51 1475.8 1241.69 1472.26 Q1239.88 1468.69 1236.25 1468.69 M1236.25 1464.99 Q1242.06 1464.99 1245.11 1469.6 Q1248.19 1474.18 1248.19 1482.93 Q1248.19 1491.66 1245.11 1496.26 Q1242.06 1500.85 1236.25 1500.85 Q1230.44 1500.85 1227.36 1496.26 Q1224.3 1491.66 1224.3 1482.93 Q1224.3 1474.18 1227.36 1469.6 Q1230.44 1464.99 1236.25 1464.99 Z" fill="#000000" fill-rule="evenodd" fill-opacity="1" /><path clip-path="url(#clip460)" d="M 0 0 M1266.41 1468.69 Q1262.8 1468.69 1260.97 1472.26 Q1259.16 1475.8 1259.16 1482.93 Q1259.16 1490.04 1260.97 1493.6 Q1262.8 1497.14 1266.41 1497.14 Q1270.04 1497.14 1271.85 1493.6 Q1273.68 1490.04 1273.68 1482.93 Q1273.68 1475.8 1271.85 1472.26 Q1270.04 1468.69 1266.41 1468.69 M1266.41 1464.99 Q1272.22 1464.99 1275.27 1469.6 Q1278.35 1474.18 1278.35 1482.93 Q1278.35 1491.66 1275.27 1496.26 Q1272.22 1500.85 1266.41 1500.85 Q1260.6 1500.85 1257.52 1496.26 Q1254.46 1491.66 1254.46 1482.93 Q1254.46 1474.18 1257.52 1469.6 Q1260.6 1464.99 1266.41 1464.99 Z" fill="#000000" fill-rule="evenodd" fill-opacity="1" /><path clip-path="url(#clip460)" d="M 0 0 M1529.79 1469.69 L1517.98 1488.14 L1529.79 1488.14 L1529.79 1469.69 M1528.56 1465.61 L1534.44 1465.61 L1534.44 1488.14 L1539.37 1488.14 L1539.37 1492.03 L1534.44 1492.03 L1534.44 1500.17 L1529.79 1500.17 L1529.79 1492.03 L1514.19 1492.03 L1514.19 1487.51 L1528.56 1465.61 Z" fill="#000000" fill-rule="evenodd" fill-opacity="1" /><path clip-path="url(#clip460)" d="M 0 0 M1557.1 1468.69 Q1553.49 1468.69 1551.66 1472.26 Q1549.86 1475.8 1549.86 1482.93 Q1549.86 1490.04 1551.66 1493.6 Q1553.49 1497.14 1557.1 1497.14 Q1560.74 1497.14 1562.54 1493.6 Q1564.37 1490.04 1564.37 1482.93 Q1564.37 1475.8 1562.54 1472.26 Q1560.74 1468.69 1557.1 1468.69 M1557.1 1464.99 Q1562.91 1464.99 1565.97 1469.6 Q1569.05 1474.18 1569.05 1482.93 Q1569.05 1491.66 1565.97 1496.26 Q1562.91 1500.85 1557.1 1500.85 Q1551.29 1500.85 1548.22 1496.26 Q1545.16 1491.66 1545.16 1482.93 Q1545.16 1474.18 1548.22 1469.6 Q1551.29 1464.99 1557.1 1464.99 Z" fill="#000000" fill-rule="evenodd" fill-opacity="1" /><path clip-path="url(#clip460)" d="M 0 0 M1587.27 1468.69 Q1583.65 1468.69 1581.83 1472.26 Q1580.02 1475.8 1580.02 1482.93 Q1580.02 1490.04 1581.83 1493.6 Q1583.65 1497.14 1587.27 1497.14 Q1590.9 1497.14 1592.71 1493.6 Q1594.53 1490.04 1594.53 1482.93 Q1594.53 1475.8 1592.71 1472.26 Q1590.9 1468.69 1587.27 1468.69 M1587.27 1464.99 Q1593.08 1464.99 1596.13 1469.6 Q1599.21 1474.18 1599.21 1482.93 Q1599.21 1491.66 1596.13 1496.26 Q1593.08 1500.85 1587.27 1500.85 Q1581.46 1500.85 1578.38 1496.26 Q1575.32 1491.66 1575.32 1482.93 Q1575.32 1474.18 1578.38 1469.6 Q1581.46 1464.99 1587.27 1464.99 Z" fill="#000000" fill-rule="evenodd" fill-opacity="1" /><path clip-path="url(#clip460)" d="M 0 0 M1836.53 1465.61 L1854.88 1465.61 L1854.88 1469.55 L1840.81 1469.55 L1840.81 1478.02 Q1841.83 1477.67 1842.85 1477.51 Q1843.86 1477.33 1844.88 1477.33 Q1850.67 1477.33 1854.05 1480.5 Q1857.43 1483.67 1857.43 1489.09 Q1857.43 1494.66 1853.96 1497.77 Q1850.49 1500.85 1844.17 1500.85 Q1841.99 1500.85 1839.72 1500.47 Q1837.48 1500.1 1835.07 1499.36 L1835.07 1494.66 Q1837.15 1495.8 1839.37 1496.35 Q1841.6 1496.91 1844.07 1496.91 Q1848.08 1496.91 1850.42 1494.8 Q1852.75 1492.7 1852.75 1489.09 Q1852.75 1485.47 1850.42 1483.37 Q1848.08 1481.26 1844.07 1481.26 Q1842.2 1481.26 1840.32 1481.68 Q1838.47 1482.1 1836.53 1482.97 L1836.53 1465.61 Z" fill="#000000" fill-rule="evenodd" fill-opacity="1" /><path clip-path="url(#clip460)" d="M 0 0 M1876.64 1468.69 Q1873.03 1468.69 1871.2 1472.26 Q1869.4 1475.8 1869.4 1482.93 Q1869.4 1490.04 1871.2 1493.6 Q1873.03 1497.14 1876.64 1497.14 Q1880.28 1497.14 1882.08 1493.6 Q1883.91 1490.04 1883.91 1482.93 Q1883.91 1475.8 1882.08 1472.26 Q1880.28 1468.69 1876.64 1468.69 M1876.64 1464.99 Q1882.45 1464.99 1885.51 1469.6 Q1888.59 1474.18 1888.59 1482.93 Q1888.59 1491.66 1885.51 1496.26 Q1882.45 1500.85 1876.64 1500.85 Q1870.83 1500.85 1867.75 1496.26 Q1864.7 1491.66 1864.7 1482.93 Q1864.7 1474.18 1867.75 1469.6 Q1870.83 1464.99 1876.64 1464.99 Z" fill="#000000" fill-rule="evenodd" fill-opacity="1" /><path clip-path="url(#clip460)" d="M 0 0 M1906.8 1468.69 Q1903.19 1468.69 1901.36 1472.26 Q1899.56 1475.8 1899.56 1482.93 Q1899.56 1490.04 1901.36 1493.6 Q1903.19 1497.14 1906.8 1497.14 Q1910.44 1497.14 1912.24 1493.6 Q1914.07 1490.04 1914.07 1482.93 Q1914.07 1475.8 1912.24 1472.26 Q1910.44 1468.69 1906.8 1468.69 M1906.8 1464.99 Q1912.61 1464.99 1915.67 1469.6 Q1918.75 1474.18 1918.75 1482.93 Q1918.75 1491.66 1915.67 1496.26 Q1912.61 1500.85 1906.8 1500.85 Q1900.99 1500.85 1897.92 1496.26 Q1894.86 1491.66 1894.86 1482.93 Q1894.86 1474.18 1897.92 1469.6 Q1900.99 1464.99 1906.8 1464.99 Z" fill="#000000" fill-rule="evenodd" fill-opacity="1" /><path clip-path="url(#clip460)" d="M 0 0 M1089.92 1535.75 Q1089.92 1541.16 1088.18 1547.24 Q1086.47 1553.3 1083.77 1558.19 Q1081.06 1563.06 1077.52 1566.28 Q1073.98 1569.47 1070.6 1569.47 Q1068.44 1569.47 1066.83 1568.27 Q1065.25 1567.05 1064.38 1565.02 Q1063.51 1562.96 1063.09 1560.71 Q1062.67 1558.42 1062.67 1555.94 Q1062.67 1552.24 1063.48 1548.21 Q1064.28 1544.15 1065.64 1540.48 Q1066.99 1536.78 1068.89 1533.43 Q1070.79 1530.05 1072.88 1527.6 Q1075.01 1525.12 1077.39 1523.67 Q1079.78 1522.22 1082 1522.22 Q1083.61 1522.22 1084.9 1522.93 Q1086.22 1523.6 1087.05 1524.8 Q1087.89 1525.96 1088.47 1527.34 Q1089.08 1528.73 1089.37 1530.34 Q1089.66 1531.91 1089.79 1533.23 Q1089.92 1534.52 1089.92 1535.75 M1085.57 1531.66 Q1085.57 1530.01 1085.44 1528.79 Q1085.32 1527.53 1084.96 1526.28 Q1084.61 1525.02 1083.83 1524.35 Q1083.09 1523.67 1081.93 1523.67 Q1078.55 1523.67 1074.75 1530.59 Q1073.53 1532.75 1072.43 1535.68 Q1071.34 1538.61 1070.95 1540 Q1070.56 1541.38 1069.66 1544.8 L1083.45 1544.8 Q1085.57 1536 1085.57 1531.66 M1082.87 1546.89 L1069.15 1546.89 Q1067.02 1554.94 1067.02 1559.96 Q1067.02 1564.34 1067.92 1566.18 Q1068.86 1567.98 1070.6 1567.98 Q1072.59 1567.98 1074.46 1565.99 Q1076.33 1563.96 1078.23 1560.29 Q1080.74 1555.52 1082.87 1546.89 Z" fill="#000000" fill-rule="evenodd" fill-opacity="1" /><polyline clip-path="url(#clip463)" style="stroke:#000000; stroke-width:2; stroke-opacity:0.1; fill:none" points="
  231.127,1400.63 1924.84,1400.63 
  "/>
<polyline clip-path="url(#clip463)" style="stroke:#000000; stroke-width:2; stroke-opacity:0.1; fill:none" points="
  231.127,1132.16 1924.84,1132.16 
  "/>
<polyline clip-path="url(#clip463)" style="stroke:#000000; stroke-width:2; stroke-opacity:0.1; fill:none" points="
  231.127,863.684 1924.84,863.684 
  "/>
<polyline clip-path="url(#clip463)" style="stroke:#000000; stroke-width:2; stroke-opacity:0.1; fill:none" points="
  231.127,595.213 1924.84,595.213 
  "/>
<polyline clip-path="url(#clip463)" style="stroke:#000000; stroke-width:2; stroke-opacity:0.1; fill:none" points="
  231.127,326.742 1924.84,326.742 
  "/>
<polyline clip-path="url(#clip463)" style="stroke:#000000; stroke-width:2; stroke-opacity:0.1; fill:none" points="
  231.127,58.2707 1924.84,58.2707 
  "/>
<polyline clip-path="url(#clip460)" style="stroke:#000000; stroke-width:4; stroke-opacity:1; fill:none" points="
  231.127,1439.5 231.127,47.2441 
  "/>
<polyline clip-path="url(#clip460)" style="stroke:#000000; stroke-width:4; stroke-opacity:1; fill:none" points="
  231.127,1400.63 251.452,1400.63 
  "/>
<polyline clip-path="url(#clip460)" style="stroke:#000000; stroke-width:4; stroke-opacity:1; fill:none" points="
  231.127,1132.16 251.452,1132.16 
  "/>
<polyline clip-path="url(#clip460)" style="stroke:#000000; stroke-width:4; stroke-opacity:1; fill:none" points="
  231.127,863.684 251.452,863.684 
  "/>
<polyline clip-path="url(#clip460)" style="stroke:#000000; stroke-width:4; stroke-opacity:1; fill:none" points="
  231.127,595.213 251.452,595.213 
  "/>
<polyline clip-path="url(#clip460)" style="stroke:#000000; stroke-width:4; stroke-opacity:1; fill:none" points="
  231.127,326.742 251.452,326.742 
  "/>
<polyline clip-path="url(#clip460)" style="stroke:#000000; stroke-width:4; stroke-opacity:1; fill:none" points="
  231.127,58.2707 251.452,58.2707 
  "/>
<path clip-path="url(#clip460)" d="M 0 0 M183.183 1386.42 Q179.572 1386.42 177.743 1389.99 Q175.938 1393.53 175.938 1400.66 Q175.938 1407.77 177.743 1411.33 Q179.572 1414.87 183.183 1414.87 Q186.817 1414.87 188.623 1411.33 Q190.452 1407.77 190.452 1400.66 Q190.452 1393.53 188.623 1389.99 Q186.817 1386.42 183.183 1386.42 M183.183 1382.72 Q188.993 1382.72 192.049 1387.33 Q195.127 1391.91 195.127 1400.66 Q195.127 1409.39 192.049 1413.99 Q188.993 1418.58 183.183 1418.58 Q177.373 1418.58 174.294 1413.99 Q171.239 1409.39 171.239 1400.66 Q171.239 1391.91 174.294 1387.33 Q177.373 1382.72 183.183 1382.72 Z" fill="#000000" fill-rule="evenodd" fill-opacity="1" /><path clip-path="url(#clip460)" d="M 0 0 M174.225 1114.88 L192.581 1114.88 L192.581 1118.81 L178.507 1118.81 L178.507 1127.28 Q179.526 1126.94 180.544 1126.77 Q181.563 1126.59 182.581 1126.59 Q188.368 1126.59 191.748 1129.76 Q195.127 1132.93 195.127 1138.35 Q195.127 1143.93 191.655 1147.03 Q188.183 1150.11 181.864 1150.11 Q179.688 1150.11 177.419 1149.74 Q175.174 1149.37 172.766 1148.62 L172.766 1143.93 Q174.85 1145.06 177.072 1145.62 Q179.294 1146.17 181.771 1146.17 Q185.776 1146.17 188.114 1144.06 Q190.452 1141.96 190.452 1138.35 Q190.452 1134.74 188.114 1132.63 Q185.776 1130.52 181.771 1130.52 Q179.896 1130.52 178.021 1130.94 Q176.169 1131.36 174.225 1132.24 L174.225 1114.88 Z" fill="#000000" fill-rule="evenodd" fill-opacity="1" /><path clip-path="url(#clip460)" d="M 0 0 M143.831 877.029 L151.47 877.029 L151.47 850.663 L143.16 852.33 L143.16 848.071 L151.424 846.404 L156.1 846.404 L156.1 877.029 L163.739 877.029 L163.739 880.964 L143.831 880.964 L143.831 877.029 Z" fill="#000000" fill-rule="evenodd" fill-opacity="1" /><path clip-path="url(#clip460)" d="M 0 0 M183.183 849.483 Q179.572 849.483 177.743 853.047 Q175.938 856.589 175.938 863.719 Q175.938 870.825 177.743 874.39 Q179.572 877.932 183.183 877.932 Q186.817 877.932 188.623 874.39 Q190.452 870.825 190.452 863.719 Q190.452 856.589 188.623 853.047 Q186.817 849.483 183.183 849.483 M183.183 845.779 Q188.993 845.779 192.049 850.385 Q195.127 854.969 195.127 863.719 Q195.127 872.445 192.049 877.052 Q188.993 881.635 183.183 881.635 Q177.373 881.635 174.294 877.052 Q171.239 872.445 171.239 863.719 Q171.239 854.969 174.294 850.385 Q177.373 845.779 183.183 845.779 Z" fill="#000000" fill-rule="evenodd" fill-opacity="1" /><path clip-path="url(#clip460)" d="M 0 0 M144.827 608.558 L152.466 608.558 L152.466 582.192 L144.155 583.859 L144.155 579.6 L152.419 577.933 L157.095 577.933 L157.095 608.558 L164.734 608.558 L164.734 612.493 L144.827 612.493 L144.827 608.558 Z" fill="#000000" fill-rule="evenodd" fill-opacity="1" /><path clip-path="url(#clip460)" d="M 0 0 M174.225 577.933 L192.581 577.933 L192.581 581.868 L178.507 581.868 L178.507 590.34 Q179.526 589.993 180.544 589.831 Q181.563 589.646 182.581 589.646 Q188.368 589.646 191.748 592.817 Q195.127 595.988 195.127 601.405 Q195.127 606.984 191.655 610.085 Q188.183 613.164 181.864 613.164 Q179.688 613.164 177.419 612.794 Q175.174 612.423 172.766 611.683 L172.766 606.984 Q174.85 608.118 177.072 608.673 Q179.294 609.229 181.771 609.229 Q185.776 609.229 188.114 607.123 Q190.452 605.016 190.452 601.405 Q190.452 597.794 188.114 595.687 Q185.776 593.581 181.771 593.581 Q179.896 593.581 178.021 593.998 Q176.169 594.414 174.225 595.294 L174.225 577.933 Z" fill="#000000" fill-rule="evenodd" fill-opacity="1" /><path clip-path="url(#clip460)" d="M 0 0 M147.049 340.087 L163.368 340.087 L163.368 344.022 L141.424 344.022 L141.424 340.087 Q144.086 337.332 148.669 332.702 Q153.276 328.05 154.456 326.707 Q156.702 324.184 157.581 322.448 Q158.484 320.689 158.484 318.999 Q158.484 316.244 156.54 314.508 Q154.618 312.772 151.517 312.772 Q149.317 312.772 146.864 313.536 Q144.433 314.3 141.655 315.851 L141.655 311.128 Q144.48 309.994 146.933 309.415 Q149.387 308.837 151.424 308.837 Q156.794 308.837 159.989 311.522 Q163.183 314.207 163.183 318.698 Q163.183 320.827 162.373 322.749 Q161.586 324.647 159.479 327.239 Q158.901 327.911 155.799 331.128 Q152.697 334.323 147.049 340.087 Z" fill="#000000" fill-rule="evenodd" fill-opacity="1" /><path clip-path="url(#clip460)" d="M 0 0 M183.183 312.54 Q179.572 312.54 177.743 316.105 Q175.938 319.647 175.938 326.776 Q175.938 333.883 177.743 337.448 Q179.572 340.989 183.183 340.989 Q186.817 340.989 188.623 337.448 Q190.452 333.883 190.452 326.776 Q190.452 319.647 188.623 316.105 Q186.817 312.54 183.183 312.54 M183.183 308.837 Q188.993 308.837 192.049 313.443 Q195.127 318.027 195.127 326.776 Q195.127 335.503 192.049 340.11 Q188.993 344.693 183.183 344.693 Q177.373 344.693 174.294 340.11 Q171.239 335.503 171.239 326.776 Q171.239 318.027 174.294 313.443 Q177.373 308.837 183.183 308.837 Z" fill="#000000" fill-rule="evenodd" fill-opacity="1" /><path clip-path="url(#clip460)" d="M 0 0 M148.044 71.6155 L164.364 71.6155 L164.364 75.5507 L142.419 75.5507 L142.419 71.6155 Q145.081 68.8609 149.665 64.2313 Q154.271 59.5785 155.452 58.236 Q157.697 55.7128 158.577 53.9767 Q159.479 52.2175 159.479 50.5277 Q159.479 47.7731 157.535 46.037 Q155.614 44.3008 152.512 44.3008 Q150.313 44.3008 147.859 45.0647 Q145.429 45.8286 142.651 47.3795 L142.651 42.6573 Q145.475 41.5231 147.929 40.9444 Q150.382 40.3657 152.419 40.3657 Q157.79 40.3657 160.984 43.0509 Q164.179 45.736 164.179 50.2267 Q164.179 52.3564 163.368 54.2776 Q162.581 56.1758 160.475 58.7684 Q159.896 59.4397 156.794 62.6572 Q153.692 65.8517 148.044 71.6155 Z" fill="#000000" fill-rule="evenodd" fill-opacity="1" /><path clip-path="url(#clip460)" d="M 0 0 M174.225 40.9907 L192.581 40.9907 L192.581 44.9258 L178.507 44.9258 L178.507 53.398 Q179.526 53.0508 180.544 52.8888 Q181.563 52.7036 182.581 52.7036 Q188.368 52.7036 191.748 55.8749 Q195.127 59.0461 195.127 64.4628 Q195.127 70.0415 191.655 73.1433 Q188.183 76.222 181.864 76.222 Q179.688 76.222 177.419 75.8516 Q175.174 75.4812 172.766 74.7405 L172.766 70.0415 Q174.85 71.1757 177.072 71.7313 Q179.294 72.2868 181.771 72.2868 Q185.776 72.2868 188.114 70.1803 Q190.452 68.0739 190.452 64.4628 Q190.452 60.8517 188.114 58.7452 Q185.776 56.6387 181.771 56.6387 Q179.896 56.6387 178.021 57.0554 Q176.169 57.4721 174.225 58.3517 L174.225 40.9907 Z" fill="#000000" fill-rule="evenodd" fill-opacity="1" /><path clip-path="url(#clip460)" d="M 0 0 M53.6652 942.087 L70.0902 947.756 L70.0902 1002.44 Q70.0902 1003.18 70.058 1003.47 Q70.0258 1003.76 69.8648 1003.99 Q69.7037 1004.21 69.3495 1004.21 Q69.0596 1004.21 68.3189 1003.63 L39.3658 980.219 L6.25819 1004.28 Q4.74452 1004.28 4.45466 1004.02 Q4.13261 1003.76 4.13261 1002.44 L4.13261 947.756 L19.5592 942.087 L19.5592 943.73 Q17.5624 944.471 15.8877 945.662 Q14.1808 946.822 12.957 948.174 Q11.7332 949.495 10.767 951.234 Q9.76863 952.941 9.15672 954.551 Q8.5126 956.129 8.06172 958.094 Q7.57863 960.058 7.35319 961.636 Q7.09554 963.182 6.96672 965.114 Q6.8379 967.047 6.80569 968.271 Q6.77349 969.494 6.77349 971.04 L6.77349 997.159 L36.1774 975.742 Q36.9182 975.259 37.1114 975.259 Q37.4013 975.259 38.1742 975.871 L66.4509 998.737 L66.4509 970.718 Q66.4509 961.701 64.5508 955.421 Q63.1015 951.169 60.2352 948.078 Q57.3689 944.954 53.6652 943.73 L53.6652 942.087 Z" fill="#000000" fill-rule="evenodd" fill-opacity="1" /><path clip-path="url(#clip460)" d="M 0 0 M96.2324 1013.26 Q96.8636 1013.26 97.0215 1013.56 Q97.1567 1013.85 97.1567 1014.66 L97.1567 1018.99 L110.773 1022.42 Q111.968 1022.69 112.983 1022.69 Q114.11 1022.69 114.606 1022.35 Q115.102 1021.99 115.102 1021.25 Q115.102 1019.78 113.772 1018.2 Q112.442 1016.6 109.195 1015.25 Q108.767 1015.07 108.677 1014.98 Q108.564 1014.87 108.564 1014.57 Q108.564 1014.01 109.015 1014.01 Q109.173 1014.01 109.894 1014.32 Q110.616 1014.62 111.675 1015.27 Q112.735 1015.9 113.727 1016.74 Q114.719 1017.55 115.44 1018.79 Q116.139 1020.03 116.139 1021.36 Q116.139 1023.23 114.944 1024.42 Q113.749 1025.6 111.878 1025.6 Q111.269 1025.6 109.331 1025.12 Q107.369 1024.65 97.1567 1022.08 L97.1567 1026.16 Q97.1567 1026.72 97.1342 1026.95 Q97.1116 1027.15 96.9989 1027.31 Q96.8636 1027.45 96.5931 1027.45 Q96.1648 1027.45 95.9844 1027.26 Q95.7815 1027.08 95.759 1026.86 Q95.7139 1026.61 95.7139 1026.05 L95.7139 1021.72 L88.3871 1019.92 Q87.6657 1019.74 87.2599 1019.28 Q86.8315 1018.81 86.7864 1018.54 Q86.7188 1018.27 86.7188 1018.07 Q86.7188 1017.46 87.057 1017.1 Q87.3726 1016.74 87.9587 1016.74 Q88.2743 1016.74 95.7139 1018.63 L95.7139 1014.57 Q95.7139 1014.05 95.7364 1013.85 Q95.759 1013.63 95.8717 1013.45 Q95.9844 1013.26 96.2324 1013.26 Z" fill="#000000" fill-rule="evenodd" fill-opacity="1" /><path clip-path="url(#clip460)" d="M 0 0 M108.609 998.132 Q108.046 998.087 108.046 997.208 L108.046 968.915 Q108.046 967.585 108.564 967.562 Q109.128 967.562 109.105 968.825 L109.105 996.892 Q109.128 998.132 108.609 998.132 M99.5915 998.132 Q99.0279 998.132 99.0504 997.163 L99.0504 968.96 Q99.0504 967.585 99.5915 967.562 Q100.11 967.562 100.11 968.735 L100.11 997.208 Q100.11 998.132 99.5915 998.132 Z" fill="#000000" fill-rule="evenodd" fill-opacity="1" /><path clip-path="url(#clip460)" d="M 0 0 M100.854 949.75 Q94.0682 949.75 90.3709 948.037 Q84.8702 945.647 84.8702 940.011 Q84.8702 938.816 85.2083 937.577 Q85.524 936.314 86.7639 934.736 Q88.0038 933.135 90.0328 932.166 Q93.9555 930.317 100.854 930.317 Q107.595 930.317 111.269 932.031 Q116.635 934.533 116.635 940.056 Q116.635 942.13 115.575 944.25 Q114.516 946.346 111.968 947.676 Q108.158 949.75 100.854 949.75 M100.29 945.918 Q107.256 945.918 110.029 945.422 Q113.028 944.858 114.335 943.325 Q115.62 941.77 115.62 940.056 Q115.62 938.208 114.245 936.675 Q112.847 935.119 109.849 934.646 Q106.896 934.127 100.29 934.15 Q93.8653 934.15 91.2953 934.601 Q88.2969 935.209 87.102 936.833 Q85.8847 938.433 85.8847 940.056 Q85.8847 940.665 86.065 941.319 Q86.2454 941.95 86.7639 942.874 Q87.2824 943.799 88.5674 944.52 Q89.8524 945.219 91.7912 945.557 Q94.2936 945.918 100.29 945.918 Z" fill="#000000" fill-rule="evenodd" fill-opacity="1" /><path clip-path="url(#clip460)" d="M 0 0 M9.67201 874.983 Q10.2839 874.983 10.7992 875.112 L22.2645 876.915 Q23.1341 877.012 23.4561 877.205 Q23.7782 877.366 23.7782 877.881 Q23.7782 878.686 22.9408 878.686 Q22.4577 878.686 21.6848 878.493 Q18.0455 877.946 16.403 877.946 Q15.308 877.946 14.5029 878.171 Q13.6655 878.364 13.0858 878.686 Q12.5061 878.976 12.1197 879.653 Q11.7332 880.329 11.5077 880.973 Q11.2823 881.617 11.1857 882.777 Q11.0569 883.936 11.0247 884.934 Q10.9925 885.933 10.9925 887.575 Q10.9925 891.15 11.1213 891.73 Q11.2823 892.342 11.7654 892.664 Q12.2163 892.954 13.5689 893.276 L48.5767 902.036 L49.9615 902.293 Q50.7345 902.293 50.9921 901.81 Q51.2498 901.327 51.4108 899.846 Q51.5718 897.72 51.5718 895.627 Q51.5718 895.562 51.5718 895.433 Q51.5718 894.725 51.604 894.435 Q51.604 894.145 51.6685 893.855 Q51.7329 893.566 51.8939 893.501 Q52.0227 893.405 52.2804 893.405 Q52.8923 893.405 53.2143 893.662 Q53.5042 893.92 53.5686 894.177 Q53.6008 894.403 53.6008 894.854 Q53.6008 895.756 53.5364 897.688 Q53.472 899.62 53.472 900.586 L53.4076 906.061 L53.472 911.665 Q53.472 912.535 53.5364 914.371 Q53.6008 916.206 53.6008 917.076 Q53.6008 918.203 52.7957 918.203 Q51.8939 918.203 51.7329 917.784 Q51.5718 917.333 51.5718 915.433 Q51.5718 912.76 51.443 911.311 Q51.3142 909.862 50.8633 909.089 Q50.4124 908.284 49.9615 908.058 Q49.4785 907.833 48.3835 907.575 L13.1825 898.718 Q12.4095 898.461 11.7976 898.461 Q11.4755 898.461 11.3467 898.557 Q11.2179 898.622 11.1213 899.041 Q10.9925 899.459 10.9925 900.329 L10.9925 902.905 Q10.9925 905.546 11.1213 907.189 Q11.2179 908.799 11.701 910.345 Q12.1841 911.858 12.8604 912.76 Q13.5367 913.63 14.9216 914.596 Q16.3064 915.562 17.9811 916.271 Q19.6558 916.947 22.3933 917.913 Q23.2951 918.235 23.5527 918.428 Q23.7782 918.59 23.7782 919.04 Q23.7782 919.362 23.5849 919.62 Q23.3595 919.846 23.0697 919.846 Q22.0069 919.523 21.878 919.459 L10.2517 915.498 Q9.31775 915.176 9.15672 914.886 Q8.96348 914.564 8.96348 913.372 L8.96348 876.786 Q8.96348 876.207 8.96348 876.013 Q8.96348 875.82 9.0279 875.498 Q9.09231 875.176 9.25334 875.079 Q9.41437 874.983 9.67201 874.983 Z" fill="#000000" fill-rule="evenodd" fill-opacity="1" /><path clip-path="url(#clip460)" d="M 0 0 M16.5041 850.007 L17.4284 850.571 Q15.918 854.065 13.5057 858.416 Q15.918 862.767 17.4284 866.261 L16.5041 866.802 Q13.1901 862.992 10.6426 858.416 Q13.2127 853.794 16.5041 850.007 Z" fill="#000000" fill-rule="evenodd" fill-opacity="1" /><path clip-path="url(#clip460)" d="M 0 0 M28.8023 848.845 Q30.6058 848.845 31.6364 849.972 Q32.6348 851.099 32.6348 852.388 Q32.6348 853.611 31.9263 854.256 Q31.2177 854.9 30.316 854.9 Q29.0921 854.9 28.0294 853.998 Q26.9666 853.096 26.7411 851.743 Q25.9038 853.064 25.9038 855.028 Q25.9038 856.317 26.5801 857.444 Q27.2564 858.539 28.126 859.215 Q28.9955 859.859 30.2516 860.439 Q31.4754 860.987 32.2161 861.212 Q32.9246 861.405 33.6976 861.566 L42.7152 863.821 Q46.9986 864.916 48.5123 864.916 Q50.3802 864.916 51.6363 864.014 Q52.8601 863.112 52.8601 861.309 Q52.8601 860.6 52.6668 859.795 Q52.4414 858.99 51.8617 857.959 Q51.2498 856.896 50.348 855.962 Q49.414 854.996 47.836 854.062 Q46.2579 853.128 44.2289 852.516 Q43.5204 852.323 43.5204 851.679 Q43.5204 850.874 44.1645 850.874 Q44.712 850.874 45.8714 851.325 Q46.9986 851.743 48.4801 852.677 Q49.9293 853.579 51.2498 854.771 Q52.538 855.962 53.4398 857.734 Q54.3415 859.505 54.3415 861.437 Q54.3415 864.207 52.8601 866.043 Q51.3786 867.879 49.3174 868.555 Q49.6073 868.716 49.9938 868.941 Q50.3802 869.167 51.2498 869.843 Q52.0871 870.487 52.7313 871.228 Q53.3432 871.969 53.8262 873.128 Q54.3415 874.255 54.3415 875.479 Q54.3415 877.025 53.8907 878.41 Q53.4398 879.763 52.4092 880.729 Q51.3786 881.695 49.9615 881.695 Q48.3835 881.695 47.2885 880.632 Q46.1613 879.537 46.1613 878.056 Q46.1613 877.122 46.7088 876.381 Q47.2563 875.608 48.4479 875.608 Q49.7683 875.608 50.7667 876.51 Q51.7651 877.412 52.0227 878.7 Q52.8601 877.379 52.8601 875.415 Q52.8601 873.289 50.9921 871.614 Q49.1242 869.94 46.0002 869.135 Q38.4963 867.138 35.1468 866.365 Q31.7652 865.592 30.316 865.592 Q28.9633 865.592 28.0294 865.946 Q27.0954 866.301 26.6767 866.912 Q26.2258 867.492 26.0648 868.04 Q25.9038 868.555 25.9038 869.135 Q25.9038 870.101 26.2902 871.196 Q26.6767 872.259 27.5785 873.547 Q28.448 874.803 30.2516 875.994 Q32.0551 877.186 34.5349 877.991 Q35.2757 878.152 35.2757 878.861 Q35.2435 879.634 34.5994 879.634 Q34.0519 879.634 32.9246 879.215 Q31.7652 878.764 30.316 877.862 Q28.8667 876.928 27.5785 875.737 Q26.258 874.513 25.3563 872.742 Q24.4545 870.938 24.4545 869.006 Q24.4545 868.136 24.6477 867.299 Q24.8088 866.429 25.2919 865.399 Q25.7749 864.336 26.8377 863.402 Q27.9005 862.468 29.4464 861.888 Q28.7057 861.502 27.9971 860.987 Q27.2886 860.439 26.4191 859.602 Q25.5173 858.732 25.002 857.541 Q24.4545 856.317 24.4545 854.964 Q24.4545 853.644 24.8088 852.355 Q25.1308 851.067 26.1936 849.972 Q27.2242 848.845 28.8023 848.845 Z" fill="#000000" fill-rule="evenodd" fill-opacity="1" /><path clip-path="url(#clip460)" d="M 0 0 M52.1213 823.122 Q52.7526 823.122 52.9104 823.415 Q53.0456 823.708 53.0456 824.519 L53.0456 828.848 L66.6623 832.274 Q67.8571 832.545 68.8716 832.545 Q69.9988 832.545 70.4948 832.207 Q70.9907 831.846 70.9907 831.102 Q70.9907 829.637 69.6606 828.059 Q68.3305 826.458 65.0842 825.105 Q64.6558 824.925 64.5657 824.835 Q64.4529 824.722 64.4529 824.429 Q64.4529 823.866 64.9038 823.866 Q65.0616 823.866 65.783 824.181 Q66.5045 824.474 67.564 825.128 Q68.6236 825.759 69.6155 826.593 Q70.6075 827.405 71.3289 828.645 Q72.0278 829.885 72.0278 831.215 Q72.0278 833.086 70.8329 834.281 Q69.6381 835.453 67.7669 835.453 Q67.1582 835.453 65.2194 834.98 Q63.2581 834.506 53.0456 831.936 L53.0456 836.017 Q53.0456 836.58 53.0231 836.806 Q53.0005 837.009 52.8878 837.167 Q52.7526 837.302 52.482 837.302 Q52.0537 837.302 51.8733 837.121 Q51.6704 836.941 51.6479 836.716 Q51.6028 836.468 51.6028 835.904 L51.6028 831.576 L44.276 829.772 Q43.5546 829.592 43.1488 829.141 Q42.7204 828.667 42.6753 828.397 Q42.6077 828.126 42.6077 827.923 Q42.6077 827.315 42.9459 826.954 Q43.2615 826.593 43.8476 826.593 Q44.1632 826.593 51.6028 828.487 L51.6028 824.429 Q51.6028 823.911 51.6253 823.708 Q51.6479 823.482 51.7606 823.302 Q51.8733 823.122 52.1213 823.122 Z" fill="#000000" fill-rule="evenodd" fill-opacity="1" /><path clip-path="url(#clip460)" d="M 0 0 M35.6497 813.761 Q25.0076 813.761 16.4262 809.793 Q12.8275 808.101 9.81325 805.733 Q6.799 803.365 5.47642 801.796 Q4.15383 800.227 4.15383 799.797 Q4.15383 799.182 4.76899 799.151 Q5.07657 799.151 5.84551 799.981 Q16.1801 810.131 35.6497 810.101 Q55.1809 810.101 65.1156 800.227 Q66.1921 799.151 66.5305 799.151 Q67.1456 799.151 67.1456 799.797 Q67.1456 800.227 65.8846 801.734 Q64.6235 803.242 61.7323 805.579 Q58.8411 807.917 55.3039 809.608 Q46.7225 813.761 35.6497 813.761 Z" fill="#000000" fill-rule="evenodd" fill-opacity="1" /><path clip-path="url(#clip460)" d="M 0 0 M17.4014 782.532 Q11.7332 782.532 7.9329 779.634 Q4.13261 776.735 4.13261 772.838 Q4.13261 770.455 6.25819 768.104 Q11.3467 762.758 11.3145 755.769 Q11.3145 747.846 5.06658 743.241 Q4.13261 742.436 4.13261 741.856 Q4.13261 741.341 4.55128 740.954 Q4.93775 740.536 5.45305 740.536 Q5.83952 740.536 6.64466 741.051 L56.3061 774.416 Q57.3045 775.157 57.3045 775.737 Q57.3045 776.252 56.8858 776.671 Q56.4993 777.057 55.984 777.057 Q55.5332 777.057 54.6636 776.477 L10.5416 746.848 L10.4772 746.912 Q12.796 750.326 12.7638 755.705 Q12.7638 760.793 9.99407 765.656 Q13.4079 764.271 17.4658 764.271 Q23.0052 764.271 26.8699 766.751 Q30.7024 769.231 30.7024 772.838 Q30.7024 776.735 26.9666 779.634 Q23.1985 782.532 17.4014 782.532 M12.023 777.991 Q14.3419 778.442 17.4658 778.442 Q20.5576 778.442 22.8764 777.991 Q25.163 777.54 26.3546 776.896 Q27.5463 776.22 28.2548 775.318 Q28.9311 774.416 29.0921 773.869 Q29.2532 773.321 29.2532 772.774 Q29.2532 770.068 25.9038 768.007 Q22.5222 765.914 17.4014 765.914 Q12.3773 765.914 8.99569 768.007 Q5.58187 770.068 5.58187 772.774 Q5.58187 773.353 5.7429 773.933 Q5.90393 774.481 6.61246 775.35 Q7.28878 776.22 8.4804 776.896 Q9.67201 777.54 12.023 777.991 M43.9713 753.321 Q38.303 753.321 34.5027 750.423 Q30.7024 747.524 30.7024 743.627 Q30.7024 740.053 34.5671 737.573 Q38.4318 735.061 44.0357 735.061 Q49.5751 735.061 53.4398 737.541 Q57.3045 739.988 57.3045 743.627 Q57.3045 747.524 53.5364 750.423 Q49.7683 753.321 43.9713 753.321 M38.5929 748.78 Q40.9439 749.231 44.0357 749.231 Q47.1274 749.231 49.4463 748.78 Q51.7651 748.297 52.9567 747.653 Q54.1161 746.977 54.7924 746.107 Q55.501 745.206 55.662 744.658 Q55.8552 744.078 55.8552 743.563 Q55.8552 740.858 52.5058 738.797 Q49.1242 736.703 43.9713 736.703 Q38.9471 736.703 35.5655 738.797 Q32.1517 740.858 32.1517 743.563 Q32.1517 744.143 32.3449 744.722 Q32.506 745.27 33.2145 746.14 Q33.8908 746.977 35.0824 747.653 Q36.2418 748.297 38.5929 748.78 Z" fill="#000000" fill-rule="evenodd" fill-opacity="1" /><path clip-path="url(#clip460)" d="M 0 0 M52.538 727.211 Q51.4752 728.145 50.0904 728.145 Q48.7055 728.145 47.6749 727.243 Q46.6121 726.309 46.6121 724.635 Q46.6121 722.67 48.5123 721.543 Q50.3802 720.416 53.5364 720.416 Q56.9502 720.416 60.1064 721.801 Q63.2948 723.186 64.8084 724.538 Q66.3221 725.891 66.3221 726.438 Q66.3221 727.082 65.6136 727.082 Q65.3559 727.082 64.8729 726.632 Q59.7843 721.897 53.5364 721.865 Q52.538 721.865 52.538 721.994 L52.6668 722.155 Q53.6008 723.282 53.6008 724.635 Q53.6008 726.277 52.538 727.211 Z" fill="#000000" fill-rule="evenodd" fill-opacity="1" /><path clip-path="url(#clip460)" d="M 0 0 M36.3063 665.011 Q39.5591 665.011 42.8118 666.686 Q46.0646 668.36 48.5767 671.098 Q51.0565 673.835 52.6668 677.571 Q54.2771 681.307 54.406 685.204 L64.2287 687.716 Q66.612 688.199 66.8696 688.457 Q67.1273 688.715 67.1273 689.101 Q67.1273 689.906 66.3865 689.906 Q66.1611 689.906 60.5895 688.457 L54.406 686.911 Q54.0839 692.773 50.7023 696.186 Q47.3207 699.6 42.4576 699.6 Q39.1726 699.6 35.9198 697.925 Q32.6348 696.219 30.1549 693.481 Q27.6751 690.711 26.097 686.975 Q24.5189 683.24 24.3901 679.407 L9.15672 675.575 Q8.28716 675.381 8.06172 675.22 Q7.83628 675.059 7.83628 674.576 Q7.83628 674.222 7.99731 674.029 Q8.15834 673.835 8.31937 673.835 L8.4804 673.803 L9.41437 673.996 L24.3901 677.7 Q24.6155 674.415 25.7749 671.871 Q26.9344 669.327 28.6735 667.877 Q30.3804 666.428 32.3127 665.72 Q34.2451 665.011 36.3063 665.011 M25.8394 679.794 Q26.1614 683.336 27.9005 686.331 Q29.6396 689.326 32.2161 691.259 Q34.7604 693.191 37.8199 694.254 Q40.8473 695.317 43.8424 695.317 Q46.1935 695.317 47.997 694.544 Q49.8005 693.739 50.8311 692.418 Q51.8295 691.098 52.377 689.649 Q52.8923 688.167 52.9567 686.589 L25.8394 679.794 M34.9214 669.327 Q30.7346 669.327 28.3836 671.742 Q26.0326 674.158 25.8394 678.087 L52.9567 684.882 Q52.7313 682.016 51.5396 679.504 Q50.3158 676.959 48.5123 675.124 Q46.6765 673.288 44.4221 671.968 Q42.1355 670.647 39.7201 670.003 Q37.2724 669.327 34.9214 669.327 Z" fill="#000000" fill-rule="evenodd" fill-opacity="1" /><path clip-path="url(#clip460)" d="M 0 0 M43.5848 642.381 Q42.7796 642.317 42.7796 641.061 L42.7796 600.643 Q42.7796 598.742 43.5204 598.71 Q44.3255 598.71 44.2933 600.514 L44.2933 640.61 Q44.3255 642.381 43.5848 642.381 M30.7024 642.381 Q29.8973 642.381 29.9295 640.997 L29.9295 600.707 Q29.9295 598.742 30.7024 598.71 Q31.4432 598.71 31.4432 600.385 L31.4432 641.061 Q31.4432 642.381 30.7024 642.381 Z" fill="#000000" fill-rule="evenodd" fill-opacity="1" /><path clip-path="url(#clip460)" d="M 0 0 M15.9522 573.264 L13.891 573.264 Q13.891 565.342 9.67201 561.252 Q9.67201 560.124 9.92966 559.931 Q10.1873 559.738 11.3789 559.738 L48.3835 559.738 Q50.348 559.738 50.9599 558.772 Q51.5718 557.806 51.5718 553.587 L51.5718 551.493 L53.6008 551.493 Q53.4076 553.812 53.4076 562.186 Q53.4076 570.559 53.6008 572.846 L51.5718 572.846 L51.5718 570.752 Q51.5718 566.598 50.9921 565.599 Q50.3802 564.601 48.3835 564.601 L14.213 564.601 Q15.9522 568.047 15.9522 573.264 Z" fill="#000000" fill-rule="evenodd" fill-opacity="1" /><path clip-path="url(#clip460)" d="M 0 0 M52.538 546.352 Q51.4752 547.35 50.0904 547.35 Q48.7055 547.35 47.7071 546.352 Q46.6765 545.354 46.6765 543.84 Q46.6765 542.391 47.6427 541.425 Q48.5767 540.426 50.1226 540.426 Q51.6363 540.426 52.6346 541.489 Q53.6008 542.52 53.6008 543.84 Q53.6008 545.354 52.538 546.352 Z" fill="#000000" fill-rule="evenodd" fill-opacity="1" /><path clip-path="url(#clip460)" d="M 0 0 M53.6008 529.2 Q52.4092 529.2 52.0549 529.104 Q51.7007 528.975 51.1532 528.459 L37.047 515.803 Q29.2532 508.878 22.4577 508.878 Q18.0455 508.878 14.8894 511.197 Q11.7332 513.484 11.7332 517.703 Q11.7332 520.601 13.5045 523.049 Q15.2758 525.496 18.432 526.624 Q18.3676 526.43 18.3676 525.754 Q18.3676 524.112 19.3982 523.21 Q20.4288 522.276 21.8136 522.276 Q23.5849 522.276 24.4545 523.435 Q25.2919 524.563 25.2919 525.69 Q25.2919 526.141 25.1952 526.753 Q25.0986 527.332 24.1969 528.266 Q23.2629 529.2 21.6204 529.2 Q17.015 529.2 13.3435 525.722 Q9.67201 522.211 9.67201 516.865 Q9.67201 510.811 13.2791 506.849 Q16.8539 502.856 22.4577 502.856 Q24.4223 502.856 26.2258 503.468 Q27.9971 504.047 29.382 504.853 Q30.7669 505.625 32.9891 507.751 Q35.2113 509.877 36.7893 511.584 Q38.3674 513.29 41.7168 517.123 L48.5123 524.112 L48.5123 512.228 Q48.5123 506.431 47.997 505.98 Q47.063 505.336 42.1355 504.53 L42.1355 502.856 L53.6008 504.724 L53.6008 529.2 Z" fill="#000000" fill-rule="evenodd" fill-opacity="1" /><path clip-path="url(#clip460)" d="M 0 0 M42.9729 496.536 Q41.0083 496.536 40.2676 495.473 Q39.4946 494.411 39.4946 493.283 Q39.4946 491.77 40.4608 490.9 Q41.3948 489.998 42.7152 489.998 Q44.0357 489.998 45.0018 490.9 Q45.9358 491.77 45.9358 493.283 Q45.9358 494.024 45.807 494.411 Q48.8343 493.541 51.0243 490.9 Q53.2143 488.227 53.2143 484.717 Q53.2143 480.304 48.931 477.663 Q46.1613 476.085 39.8811 476.085 Q34.3417 476.085 31.572 477.277 Q27.353 479.113 27.353 482.881 Q27.353 488.227 31.9585 491.383 Q32.5382 491.77 32.5704 492.221 Q32.5704 492.865 32.2161 493.026 Q31.8296 493.154 30.8313 493.154 L11.3145 493.154 Q9.73643 493.154 9.73643 492.51 Q9.73643 492.253 9.92966 491.705 Q11.7654 487.551 11.7976 482.945 Q11.7976 478.211 9.86525 473.96 Q9.67201 473.638 9.67201 473.444 Q9.67201 472.8 10.4127 472.768 Q10.6704 472.768 11.4433 473.316 Q12.1841 473.831 13.1825 474.958 Q14.1486 476.085 15.0826 477.535 Q16.0166 478.984 16.6607 481.109 Q17.2726 483.203 17.2726 485.522 Q17.2726 488.291 16.403 491.126 L29.2532 491.126 Q25.9038 487.712 25.9038 482.752 Q25.9038 477.47 30.1549 473.831 Q34.4061 470.192 40.332 470.192 Q46.5477 470.192 50.7989 474.507 Q55.0501 478.791 55.0501 484.588 Q55.0501 489.869 51.282 493.219 Q47.5139 496.536 42.9729 496.536 Z" fill="#000000" fill-rule="evenodd" fill-opacity="1" /><path clip-path="url(#clip460)" d="M 0 0 M66.5305 463.418 Q66.2229 463.418 65.454 462.618 Q55.1194 452.468 35.6497 452.468 Q16.1186 452.468 6.24536 462.218 Q5.10732 463.418 4.76899 463.418 Q4.15383 463.418 4.15383 462.803 Q4.15383 462.372 5.4149 460.865 Q6.67597 459.327 9.56719 457.02 Q12.4584 454.683 15.9956 452.96 Q24.577 448.808 35.6497 448.808 Q46.2919 448.808 54.8733 452.776 Q58.472 454.467 61.4862 456.836 Q64.5005 459.204 65.8231 460.773 Q67.1456 462.341 67.1456 462.803 Q67.1456 463.418 66.5305 463.418 Z" fill="#000000" fill-rule="evenodd" fill-opacity="1" /><polyline clip-path="url(#clip463)" style="stroke:#0000ff; stroke-width:4; stroke-opacity:1; fill:none" points="
  279.063,1399.76 678.524,900.533 1077.99,1295.43 1477.45,1334.15 1876.91,1346.71 
  "/>
<polyline clip-path="url(#clip463)" style="stroke:#ff0000; stroke-width:4; stroke-opacity:1; fill:none" points="
  279.063,1400.1 678.524,86.6476 1077.99,1069.02 1477.45,1180.06 1876.91,1217.91 
  "/>
<path clip-path="url(#clip460)" d="
M1995.56 252.413 L2352.76 252.413 L2352.76 93.6527 L1995.56 93.6527  Z
  " fill="#ffffff" fill-rule="evenodd" fill-opacity="1"/>
<polyline clip-path="url(#clip460)" style="stroke:#000000; stroke-width:4; stroke-opacity:1; fill:none" points="
  1995.56,252.413 2352.76,252.413 2352.76,93.6527 1995.56,93.6527 1995.56,252.413 
  "/>
<polyline clip-path="url(#clip460)" style="stroke:#0000ff; stroke-width:3.5; stroke-opacity:1; fill:none" points="
  2019.14,146.573 2160.58,146.573 
  "/>
<path clip-path="url(#clip460)" d="M 0 0 M2212.7 132.681 Q2212.7 133.07 2212.62 133.398 L2211.47 140.694 Q2211.41 141.247 2211.29 141.452 Q2211.19 141.657 2210.86 141.657 Q2210.35 141.657 2210.35 141.124 Q2210.35 140.817 2210.47 140.325 Q2210.82 138.009 2210.82 136.964 Q2210.82 136.267 2210.67 135.755 Q2210.55 135.222 2210.35 134.853 Q2210.16 134.484 2209.73 134.238 Q2209.3 133.992 2208.89 133.849 Q2208.48 133.705 2207.74 133.644 Q2207.01 133.562 2206.37 133.541 Q2205.74 133.521 2204.69 133.521 Q2202.41 133.521 2202.05 133.603 Q2201.66 133.705 2201.45 134.013 Q2201.27 134.3 2201.06 135.16 L2195.49 157.438 L2195.32 158.319 Q2195.32 158.811 2195.63 158.975 Q2195.94 159.139 2196.88 159.242 Q2198.23 159.344 2199.57 159.344 Q2199.61 159.344 2199.69 159.344 Q2200.14 159.344 2200.32 159.365 Q2200.51 159.365 2200.69 159.406 Q2200.88 159.446 2200.92 159.549 Q2200.98 159.631 2200.98 159.795 Q2200.98 160.184 2200.82 160.389 Q2200.65 160.574 2200.49 160.615 Q2200.34 160.635 2200.06 160.635 Q2199.48 160.635 2198.25 160.594 Q2197.02 160.553 2196.41 160.553 L2192.93 160.512 L2189.36 160.553 Q2188.81 160.553 2187.64 160.594 Q2186.47 160.635 2185.92 160.635 Q2185.2 160.635 2185.2 160.123 Q2185.2 159.549 2185.47 159.446 Q2185.75 159.344 2186.96 159.344 Q2188.66 159.344 2189.59 159.262 Q2190.51 159.18 2191 158.893 Q2191.51 158.606 2191.66 158.319 Q2191.8 158.012 2191.96 157.315 L2197.6 134.914 Q2197.76 134.423 2197.76 134.033 Q2197.76 133.828 2197.7 133.746 Q2197.66 133.664 2197.39 133.603 Q2197.13 133.521 2196.57 133.521 L2194.93 133.521 Q2193.25 133.521 2192.21 133.603 Q2191.18 133.664 2190.2 133.972 Q2189.24 134.279 2188.66 134.709 Q2188.11 135.14 2187.49 136.021 Q2186.88 136.902 2186.43 137.968 Q2186 139.034 2185.38 140.776 Q2185.18 141.35 2185.06 141.514 Q2184.95 141.657 2184.67 141.657 Q2184.46 141.657 2184.3 141.534 Q2184.15 141.391 2184.15 141.206 Q2184.36 140.53 2184.4 140.448 L2186.92 133.049 Q2187.13 132.455 2187.31 132.353 Q2187.52 132.23 2188.27 132.23 L2211.56 132.23 Q2211.92 132.23 2212.05 132.23 Q2212.17 132.23 2212.38 132.271 Q2212.58 132.312 2212.64 132.414 Q2212.7 132.517 2212.7 132.681 Z" fill="#000000" fill-rule="evenodd" fill-opacity="1" /><path clip-path="url(#clip460)" d="M 0 0 M2220.07 154.261 Q2220.11 153.749 2220.91 153.749 L2246.63 153.749 Q2247.84 153.749 2247.86 154.22 Q2247.86 154.733 2246.71 154.712 L2221.2 154.712 Q2220.07 154.733 2220.07 154.261 M2220.07 146.064 Q2220.07 145.551 2220.95 145.572 L2246.59 145.572 Q2247.84 145.572 2247.86 146.064 Q2247.86 146.535 2246.8 146.535 L2220.91 146.535 Q2220.07 146.535 2220.07 146.064 Z" fill="#000000" fill-rule="evenodd" fill-opacity="1" /><path clip-path="url(#clip460)" d="M 0 0 M2264.05 136.677 L2264.05 135.365 Q2269.09 135.365 2271.69 132.681 Q2272.41 132.681 2272.53 132.844 Q2272.65 133.008 2272.65 133.767 L2272.65 157.315 Q2272.65 158.565 2273.27 158.955 Q2273.88 159.344 2276.57 159.344 L2277.9 159.344 L2277.9 160.635 Q2276.42 160.512 2271.1 160.512 Q2265.77 160.512 2264.31 160.635 L2264.31 159.344 L2265.64 159.344 Q2268.29 159.344 2268.92 158.975 Q2269.56 158.586 2269.56 157.315 L2269.56 135.57 Q2267.37 136.677 2264.05 136.677 Z" fill="#000000" fill-rule="evenodd" fill-opacity="1" /><polyline clip-path="url(#clip460)" style="stroke:#ff0000; stroke-width:3.5; stroke-opacity:1; fill:none" points="
  2019.14,199.493 2160.58,199.493 
  "/>
<path clip-path="url(#clip460)" d="M 0 0 M2212.7 185.147 Q2212.7 185.537 2212.62 185.865 L2211.47 193.161 Q2211.41 193.714 2211.29 193.919 Q2211.19 194.124 2210.86 194.124 Q2210.35 194.124 2210.35 193.591 Q2210.35 193.284 2210.47 192.792 Q2210.82 190.476 2210.82 189.431 Q2210.82 188.734 2210.67 188.222 Q2210.55 187.689 2210.35 187.32 Q2210.16 186.951 2209.73 186.705 Q2209.3 186.459 2208.89 186.316 Q2208.48 186.172 2207.74 186.111 Q2207.01 186.029 2206.37 186.008 Q2205.74 185.988 2204.69 185.988 Q2202.41 185.988 2202.05 186.07 Q2201.66 186.172 2201.45 186.48 Q2201.27 186.766 2201.06 187.627 L2195.49 209.905 L2195.32 210.786 Q2195.32 211.278 2195.63 211.442 Q2195.94 211.606 2196.88 211.708 Q2198.23 211.811 2199.57 211.811 Q2199.61 211.811 2199.69 211.811 Q2200.14 211.811 2200.32 211.831 Q2200.51 211.831 2200.69 211.872 Q2200.88 211.913 2200.92 212.016 Q2200.98 212.098 2200.98 212.262 Q2200.98 212.651 2200.82 212.856 Q2200.65 213.041 2200.49 213.082 Q2200.34 213.102 2200.06 213.102 Q2199.48 213.102 2198.25 213.061 Q2197.02 213.02 2196.41 213.02 L2192.93 212.979 L2189.36 213.02 Q2188.81 213.02 2187.64 213.061 Q2186.47 213.102 2185.92 213.102 Q2185.2 213.102 2185.2 212.59 Q2185.2 212.016 2185.47 211.913 Q2185.75 211.811 2186.96 211.811 Q2188.66 211.811 2189.59 211.729 Q2190.51 211.647 2191 211.36 Q2191.51 211.073 2191.66 210.786 Q2191.8 210.479 2191.96 209.782 L2197.6 187.381 Q2197.76 186.889 2197.76 186.5 Q2197.76 186.295 2197.7 186.213 Q2197.66 186.131 2197.39 186.07 Q2197.13 185.988 2196.57 185.988 L2194.93 185.988 Q2193.25 185.988 2192.21 186.07 Q2191.18 186.131 2190.2 186.439 Q2189.24 186.746 2188.66 187.176 Q2188.11 187.607 2187.49 188.488 Q2186.88 189.369 2186.43 190.435 Q2186 191.501 2185.38 193.243 Q2185.18 193.817 2185.06 193.981 Q2184.95 194.124 2184.67 194.124 Q2184.46 194.124 2184.3 194.001 Q2184.15 193.858 2184.15 193.673 Q2184.36 192.997 2184.4 192.915 L2186.92 185.516 Q2187.13 184.922 2187.31 184.819 Q2187.52 184.696 2188.27 184.696 L2211.56 184.696 Q2211.92 184.696 2212.05 184.696 Q2212.17 184.696 2212.38 184.737 Q2212.58 184.778 2212.64 184.881 Q2212.7 184.983 2212.7 185.147 Z" fill="#000000" fill-rule="evenodd" fill-opacity="1" /><path clip-path="url(#clip460)" d="M 0 0 M2220.07 206.728 Q2220.11 206.216 2220.91 206.216 L2246.63 206.216 Q2247.84 206.216 2247.86 206.687 Q2247.86 207.2 2246.71 207.179 L2221.2 207.179 Q2220.07 207.2 2220.07 206.728 M2220.07 198.53 Q2220.07 198.018 2220.95 198.039 L2246.59 198.039 Q2247.84 198.039 2247.86 198.53 Q2247.86 199.002 2246.8 199.002 L2220.91 199.002 Q2220.07 199.002 2220.07 198.53 Z" fill="#000000" fill-rule="evenodd" fill-opacity="1" /><path clip-path="url(#clip460)" d="M 0 0 M2264.05 207.446 Q2264.05 206.195 2264.76 205.601 Q2265.48 205.007 2266.4 205.007 Q2267.37 205.007 2268.04 205.642 Q2268.74 206.257 2268.74 207.343 Q2268.74 208.511 2267.92 209.167 Q2267.12 209.823 2265.97 209.659 Q2266.98 211.34 2268.82 212.098 Q2270.69 212.856 2272.41 212.856 Q2274.21 212.856 2275.67 211.299 Q2277.14 209.741 2277.14 205.929 Q2277.14 202.691 2275.87 200.826 Q2274.62 198.961 2272.14 198.961 L2270.3 198.961 Q2269.66 198.961 2269.48 198.899 Q2269.29 198.838 2269.29 198.489 Q2269.29 198.079 2269.93 197.998 Q2270.56 197.998 2271.57 197.875 Q2274.01 197.793 2275.3 195.682 Q2276.47 193.714 2276.47 190.906 Q2276.47 188.345 2275.24 187.279 Q2274.03 186.193 2272.45 186.193 Q2270.97 186.193 2269.35 186.807 Q2267.74 187.422 2266.85 188.795 Q2269.46 188.795 2269.46 190.906 Q2269.46 191.829 2268.86 192.443 Q2268.29 193.038 2267.33 193.038 Q2266.4 193.038 2265.79 192.464 Q2265.17 191.87 2265.17 190.865 Q2265.17 188.468 2267.3 186.807 Q2269.46 185.147 2272.61 185.147 Q2275.73 185.147 2278.02 186.787 Q2280.34 188.427 2280.34 190.947 Q2280.34 193.427 2278.7 195.456 Q2277.06 197.485 2274.46 198.325 Q2277.65 198.961 2279.56 201.133 Q2281.47 203.285 2281.47 205.929 Q2281.47 209.208 2278.88 211.626 Q2276.3 214.024 2272.53 214.024 Q2269.05 214.024 2266.55 212.139 Q2264.05 210.253 2264.05 207.446 Z" fill="#000000" fill-rule="evenodd" fill-opacity="1" /><path clip-path="url(#clip460)" d="M 0 0 M2284.83 199.678 Q2284.83 193.509 2286.38 190.148 Q2288.56 185.147 2293.68 185.147 Q2294.77 185.147 2295.89 185.455 Q2297.04 185.742 2298.48 186.869 Q2299.93 187.996 2300.81 189.841 Q2302.49 193.407 2302.49 199.678 Q2302.49 205.806 2300.94 209.147 Q2298.66 214.024 2293.64 214.024 Q2291.75 214.024 2289.83 213.061 Q2287.92 212.098 2286.71 209.782 Q2284.83 206.318 2284.83 199.678 M2288.31 199.166 Q2288.31 205.499 2288.76 208.019 Q2289.27 210.745 2290.67 211.934 Q2292.08 213.102 2293.64 213.102 Q2295.32 213.102 2296.71 211.852 Q2298.13 210.581 2298.56 207.855 Q2299.03 205.171 2299.01 199.166 Q2299.01 193.325 2298.6 190.988 Q2298.05 188.263 2296.57 187.176 Q2295.12 186.07 2293.64 186.07 Q2293.09 186.07 2292.49 186.234 Q2291.92 186.398 2291.08 186.869 Q2290.24 187.34 2289.58 188.508 Q2288.95 189.677 2288.64 191.439 Q2288.31 193.714 2288.31 199.166 Z" fill="#000000" fill-rule="evenodd" fill-opacity="1" /></svg>
