<?xml version="1.0" encoding="utf-8"?>
<svg xmlns="http://www.w3.org/2000/svg" xmlns:xlink="http://www.w3.org/1999/xlink" width="600" height="400" viewBox="0 0 2400 1600">
<defs>
  <clipPath id="clip630">
    <rect x="0" y="0" width="2400" height="1600"/>
  </clipPath>
</defs>
<path clip-path="url(#clip630)" d="
M0 1600 L2400 1600 L2400 0 L0 0  Z
  " fill="#ffffff" fill-rule="evenodd" fill-opacity="1"/>
<defs>
  <clipPath id="clip631">
    <rect x="480" y="0" width="1681" height="1600"/>
  </clipPath>
</defs>
<defs>
  <clipPath id="clip632">
    <rect x="276" y="47" width="1656" height="1393"/>
  </clipPath>
</defs>
<path clip-path="url(#clip630)" d="
M276.706 1439.5 L1931.43 1439.5 L1931.43 47.2441 L276.706 47.2441  Z
  " fill="#ffffff" fill-rule="evenodd" fill-opacity="1"/>
<polyline clip-path="url(#clip632)" style="stroke:#000000; stroke-width:2; stroke-opacity:0.1; fill:none" points="
  323.46,1439.5 323.46,47.2441 
  "/>
<polyline clip-path="url(#clip632)" style="stroke:#000000; stroke-width:2; stroke-opacity:0.1; fill:none" points="
  713.744,1439.5 713.744,47.2441 
  "/>
<polyline clip-path="url(#clip632)" style="stroke:#000000; stroke-width:2; stroke-opacity:0.1; fill:none" points="
  1104.03,1439.5 1104.03,47.2441 
  "/>
<polyline clip-path="url(#clip632)" style="stroke:#000000; stroke-width:2; stroke-opacity:0.1; fill:none" points="
  1494.31,1439.5 1494.31,47.2441 
  "/>
<polyline clip-path="url(#clip632)" style="stroke:#000000; stroke-width:2; stroke-opacity:0.1; fill:none" points="
  1884.6,1439.5 1884.6,47.2441 
  "/>
<polyline clip-path="url(#clip630)" style="stroke:#000000; stroke-width:4; stroke-opacity:1; fill:none" points="
  276.706,1439.5 1931.43,1439.5 
  "/>
<polyline clip-path="url(#clip630)" style="stroke:#000000; stroke-width:4; stroke-opacity:1; fill:none" points="
  323.46,1439.5 323.46,1422.79 
  "/>
<polyline clip-path="url(#clip630)" style="stroke:#000000; stroke-width:4; stroke-opacity:1; fill:none" points="
  713.744,1439.5 713.744,1422.79 
  "/>
<polyline clip-path="url(#clip630)" style="stroke:#000000; stroke-width:4; stroke-opacity:1; fill:none" points="
  1104.03,1439.5 1104.03,1422.79 
  "/>
<polyline clip-path="url(#clip630)" style="stroke:#000000; stroke-width:4; stroke-opacity:1; fill:none" points="
  1494.31,1439.5 1494.31,1422.79 
  "/>
<polyline clip-path="url(#clip630)" style="stroke:#000000; stroke-width:4; stroke-opacity:1; fill:none" points="
  1884.6,1439.5 1884.6,1422.79 
  "/>
<path clip-path="url(#clip630)" d="M 0 0 M323.46 1468.69 Q319.848 1468.69 318.02 1472.26 Q316.214 1475.8 316.214 1482.93 Q316.214 1490.04 318.02 1493.6 Q319.848 1497.14 323.46 1497.14 Q327.094 1497.14 328.899 1493.6 Q330.728 1490.04 330.728 1482.93 Q330.728 1475.8 328.899 1472.26 Q327.094 1468.69 323.46 1468.69 M323.46 1464.99 Q329.27 1464.99 332.325 1469.6 Q335.404 1474.18 335.404 1482.93 Q335.404 1491.66 332.325 1496.26 Q329.27 1500.85 323.46 1500.85 Q317.649 1500.85 314.571 1496.26 Q311.515 1491.66 311.515 1482.93 Q311.515 1474.18 314.571 1469.6 Q317.649 1464.99 323.46 1464.99 Z" fill="#000000" fill-rule="evenodd" fill-opacity="1" /><path clip-path="url(#clip630)" d="M 0 0 M673.362 1465.61 L691.718 1465.61 L691.718 1469.55 L677.644 1469.55 L677.644 1478.02 Q678.663 1477.67 679.681 1477.51 Q680.7 1477.33 681.718 1477.33 Q687.505 1477.33 690.885 1480.5 Q694.265 1483.67 694.265 1489.09 Q694.265 1494.66 690.792 1497.77 Q687.32 1500.85 681.001 1500.85 Q678.825 1500.85 676.556 1500.47 Q674.311 1500.1 671.904 1499.36 L671.904 1494.66 Q673.987 1495.8 676.209 1496.35 Q678.431 1496.91 680.908 1496.91 Q684.913 1496.91 687.251 1494.8 Q689.589 1492.7 689.589 1489.09 Q689.589 1485.47 687.251 1483.37 Q684.913 1481.26 680.908 1481.26 Q679.033 1481.26 677.158 1481.68 Q675.306 1482.1 673.362 1482.97 L673.362 1465.61 Z" fill="#000000" fill-rule="evenodd" fill-opacity="1" /><path clip-path="url(#clip630)" d="M 0 0 M713.477 1468.69 Q709.866 1468.69 708.038 1472.26 Q706.232 1475.8 706.232 1482.93 Q706.232 1490.04 708.038 1493.6 Q709.866 1497.14 713.477 1497.14 Q717.112 1497.14 718.917 1493.6 Q720.746 1490.04 720.746 1482.93 Q720.746 1475.8 718.917 1472.26 Q717.112 1468.69 713.477 1468.69 M713.477 1464.99 Q719.288 1464.99 722.343 1469.6 Q725.422 1474.18 725.422 1482.93 Q725.422 1491.66 722.343 1496.26 Q719.288 1500.85 713.477 1500.85 Q707.667 1500.85 704.589 1496.26 Q701.533 1491.66 701.533 1482.93 Q701.533 1474.18 704.589 1469.6 Q707.667 1464.99 713.477 1464.99 Z" fill="#000000" fill-rule="evenodd" fill-opacity="1" /><path clip-path="url(#clip630)" d="M 0 0 M743.639 1468.69 Q740.028 1468.69 738.2 1472.26 Q736.394 1475.8 736.394 1482.93 Q736.394 1490.04 738.2 1493.6 Q740.028 1497.14 743.639 1497.14 Q747.274 1497.14 749.079 1493.6 Q750.908 1490.04 750.908 1482.93 Q750.908 1475.8 749.079 1472.26 Q747.274 1468.69 743.639 1468.69 M743.639 1464.99 Q749.449 1464.99 752.505 1469.6 Q755.584 1474.18 755.584 1482.93 Q755.584 1491.66 752.505 1496.26 Q749.449 1500.85 743.639 1500.85 Q737.829 1500.85 734.75 1496.26 Q731.695 1491.66 731.695 1482.93 Q731.695 1474.18 734.75 1469.6 Q737.829 1464.99 743.639 1464.99 Z" fill="#000000" fill-rule="evenodd" fill-opacity="1" /><path clip-path="url(#clip630)" d="M 0 0 M1048.55 1496.24 L1056.19 1496.24 L1056.19 1469.87 L1047.88 1471.54 L1047.88 1467.28 L1056.15 1465.61 L1060.82 1465.61 L1060.82 1496.24 L1068.46 1496.24 L1068.46 1500.17 L1048.55 1500.17 L1048.55 1496.24 Z" fill="#000000" fill-rule="evenodd" fill-opacity="1" /><path clip-path="url(#clip630)" d="M 0 0 M1087.91 1468.69 Q1084.29 1468.69 1082.47 1472.26 Q1080.66 1475.8 1080.66 1482.93 Q1080.66 1490.04 1082.47 1493.6 Q1084.29 1497.14 1087.91 1497.14 Q1091.54 1497.14 1093.34 1493.6 Q1095.17 1490.04 1095.17 1482.93 Q1095.17 1475.8 1093.34 1472.26 Q1091.54 1468.69 1087.91 1468.69 M1087.91 1464.99 Q1093.72 1464.99 1096.77 1469.6 Q1099.85 1474.18 1099.85 1482.93 Q1099.85 1491.66 1096.77 1496.26 Q1093.72 1500.85 1087.91 1500.85 Q1082.09 1500.85 1079.02 1496.26 Q1075.96 1491.66 1075.96 1482.93 Q1075.96 1474.18 1079.02 1469.6 Q1082.09 1464.99 1087.91 1464.99 Z" fill="#000000" fill-rule="evenodd" fill-opacity="1" /><path clip-path="url(#clip630)" d="M 0 0 M1118.07 1468.69 Q1114.46 1468.69 1112.63 1472.26 Q1110.82 1475.8 1110.82 1482.93 Q1110.82 1490.04 1112.63 1493.6 Q1114.46 1497.14 1118.07 1497.14 Q1121.7 1497.14 1123.51 1493.6 Q1125.34 1490.04 1125.34 1482.93 Q1125.34 1475.8 1123.51 1472.26 Q1121.7 1468.69 1118.07 1468.69 M1118.07 1464.99 Q1123.88 1464.99 1126.93 1469.6 Q1130.01 1474.18 1130.01 1482.93 Q1130.01 1491.66 1126.93 1496.26 Q1123.88 1500.85 1118.07 1500.85 Q1112.26 1500.85 1109.18 1496.26 Q1106.12 1491.66 1106.12 1482.93 Q1106.12 1474.18 1109.18 1469.6 Q1112.26 1464.99 1118.07 1464.99 Z" fill="#000000" fill-rule="evenodd" fill-opacity="1" /><path clip-path="url(#clip630)" d="M 0 0 M1148.23 1468.69 Q1144.62 1468.69 1142.79 1472.26 Q1140.98 1475.8 1140.98 1482.93 Q1140.98 1490.04 1142.79 1493.6 Q1144.62 1497.14 1148.23 1497.14 Q1151.86 1497.14 1153.67 1493.6 Q1155.5 1490.04 1155.5 1482.93 Q1155.5 1475.8 1153.67 1472.26 Q1151.86 1468.69 1148.23 1468.69 M1148.23 1464.99 Q1154.04 1464.99 1157.09 1469.6 Q1160.17 1474.18 1160.17 1482.93 Q1160.17 1491.66 1157.09 1496.26 Q1154.04 1500.85 1148.23 1500.85 Q1142.42 1500.85 1139.34 1496.26 Q1136.28 1491.66 1136.28 1482.93 Q1136.28 1474.18 1139.34 1469.6 Q1142.42 1464.99 1148.23 1464.99 Z" fill="#000000" fill-rule="evenodd" fill-opacity="1" /><path clip-path="url(#clip630)" d="M 0 0 M1438.84 1496.24 L1446.48 1496.24 L1446.48 1469.87 L1438.17 1471.54 L1438.17 1467.28 L1446.43 1465.61 L1451.11 1465.61 L1451.11 1496.24 L1458.74 1496.24 L1458.74 1500.17 L1438.84 1500.17 L1438.84 1496.24 Z" fill="#000000" fill-rule="evenodd" fill-opacity="1" /><path clip-path="url(#clip630)" d="M 0 0 M1468.24 1465.61 L1486.59 1465.61 L1486.59 1469.55 L1472.52 1469.55 L1472.52 1478.02 Q1473.54 1477.67 1474.55 1477.51 Q1475.57 1477.33 1476.59 1477.33 Q1482.38 1477.33 1485.76 1480.5 Q1489.14 1483.67 1489.14 1489.09 Q1489.14 1494.66 1485.67 1497.77 Q1482.19 1500.85 1475.87 1500.85 Q1473.7 1500.85 1471.43 1500.47 Q1469.18 1500.1 1466.78 1499.36 L1466.78 1494.66 Q1468.86 1495.8 1471.08 1496.35 Q1473.3 1496.91 1475.78 1496.91 Q1479.79 1496.91 1482.12 1494.8 Q1484.46 1492.7 1484.46 1489.09 Q1484.46 1485.47 1482.12 1483.37 Q1479.79 1481.26 1475.78 1481.26 Q1473.91 1481.26 1472.03 1481.68 Q1470.18 1482.1 1468.24 1482.97 L1468.24 1465.61 Z" fill="#000000" fill-rule="evenodd" fill-opacity="1" /><path clip-path="url(#clip630)" d="M 0 0 M1508.35 1468.69 Q1504.74 1468.69 1502.91 1472.26 Q1501.11 1475.8 1501.11 1482.93 Q1501.11 1490.04 1502.91 1493.6 Q1504.74 1497.14 1508.35 1497.14 Q1511.99 1497.14 1513.79 1493.6 Q1515.62 1490.04 1515.62 1482.93 Q1515.62 1475.8 1513.79 1472.26 Q1511.99 1468.69 1508.35 1468.69 M1508.35 1464.99 Q1514.16 1464.99 1517.22 1469.6 Q1520.3 1474.18 1520.3 1482.93 Q1520.3 1491.66 1517.22 1496.26 Q1514.16 1500.85 1508.35 1500.85 Q1502.54 1500.85 1499.46 1496.26 Q1496.41 1491.66 1496.41 1482.93 Q1496.41 1474.18 1499.46 1469.6 Q1502.54 1464.99 1508.35 1464.99 Z" fill="#000000" fill-rule="evenodd" fill-opacity="1" /><path clip-path="url(#clip630)" d="M 0 0 M1538.51 1468.69 Q1534.9 1468.69 1533.07 1472.26 Q1531.27 1475.8 1531.27 1482.93 Q1531.27 1490.04 1533.07 1493.6 Q1534.9 1497.14 1538.51 1497.14 Q1542.15 1497.14 1543.95 1493.6 Q1545.78 1490.04 1545.78 1482.93 Q1545.78 1475.8 1543.95 1472.26 Q1542.15 1468.69 1538.51 1468.69 M1538.51 1464.99 Q1544.32 1464.99 1547.38 1469.6 Q1550.46 1474.18 1550.46 1482.93 Q1550.46 1491.66 1547.38 1496.26 Q1544.32 1500.85 1538.51 1500.85 Q1532.7 1500.85 1529.62 1496.26 Q1526.57 1491.66 1526.57 1482.93 Q1526.57 1474.18 1529.62 1469.6 Q1532.7 1464.99 1538.51 1464.99 Z" fill="#000000" fill-rule="evenodd" fill-opacity="1" /><path clip-path="url(#clip630)" d="M 0 0 M1833.21 1496.24 L1849.53 1496.24 L1849.53 1500.17 L1827.58 1500.17 L1827.58 1496.24 Q1830.24 1493.48 1834.83 1488.85 Q1839.43 1484.2 1840.61 1482.86 Q1842.86 1480.34 1843.74 1478.6 Q1844.64 1476.84 1844.64 1475.15 Q1844.64 1472.4 1842.7 1470.66 Q1840.78 1468.92 1837.67 1468.92 Q1835.48 1468.92 1833.02 1469.69 Q1830.59 1470.45 1827.81 1472 L1827.81 1467.28 Q1830.64 1466.15 1833.09 1465.57 Q1835.55 1464.99 1837.58 1464.99 Q1842.95 1464.99 1846.15 1467.67 Q1849.34 1470.36 1849.34 1474.85 Q1849.34 1476.98 1848.53 1478.9 Q1847.74 1480.8 1845.64 1483.39 Q1845.06 1484.06 1841.96 1487.28 Q1838.86 1490.47 1833.21 1496.24 Z" fill="#000000" fill-rule="evenodd" fill-opacity="1" /><path clip-path="url(#clip630)" d="M 0 0 M1869.34 1468.69 Q1865.73 1468.69 1863.9 1472.26 Q1862.1 1475.8 1862.1 1482.93 Q1862.1 1490.04 1863.9 1493.6 Q1865.73 1497.14 1869.34 1497.14 Q1872.98 1497.14 1874.78 1493.6 Q1876.61 1490.04 1876.61 1482.93 Q1876.61 1475.8 1874.78 1472.26 Q1872.98 1468.69 1869.34 1468.69 M1869.34 1464.99 Q1875.15 1464.99 1878.21 1469.6 Q1881.29 1474.18 1881.29 1482.93 Q1881.29 1491.66 1878.21 1496.26 Q1875.15 1500.85 1869.34 1500.85 Q1863.53 1500.85 1860.45 1496.26 Q1857.4 1491.66 1857.4 1482.93 Q1857.4 1474.18 1860.45 1469.6 Q1863.53 1464.99 1869.34 1464.99 Z" fill="#000000" fill-rule="evenodd" fill-opacity="1" /><path clip-path="url(#clip630)" d="M 0 0 M1899.5 1468.69 Q1895.89 1468.69 1894.06 1472.26 Q1892.26 1475.8 1892.26 1482.93 Q1892.26 1490.04 1894.06 1493.6 Q1895.89 1497.14 1899.5 1497.14 Q1903.14 1497.14 1904.94 1493.6 Q1906.77 1490.04 1906.77 1482.93 Q1906.77 1475.8 1904.94 1472.26 Q1903.14 1468.69 1899.5 1468.69 M1899.5 1464.99 Q1905.31 1464.99 1908.37 1469.6 Q1911.45 1474.18 1911.45 1482.93 Q1911.45 1491.66 1908.37 1496.26 Q1905.31 1500.85 1899.5 1500.85 Q1893.69 1500.85 1890.61 1496.26 Q1887.56 1491.66 1887.56 1482.93 Q1887.56 1474.18 1890.61 1469.6 Q1893.69 1464.99 1899.5 1464.99 Z" fill="#000000" fill-rule="evenodd" fill-opacity="1" /><path clip-path="url(#clip630)" d="M 0 0 M1929.67 1468.69 Q1926.05 1468.69 1924.23 1472.26 Q1922.42 1475.8 1922.42 1482.93 Q1922.42 1490.04 1924.23 1493.6 Q1926.05 1497.14 1929.67 1497.14 Q1933.3 1497.14 1935.1 1493.6 Q1936.93 1490.04 1936.93 1482.93 Q1936.93 1475.8 1935.1 1472.26 Q1933.3 1468.69 1929.67 1468.69 M1929.67 1464.99 Q1935.48 1464.99 1938.53 1469.6 Q1941.61 1474.18 1941.61 1482.93 Q1941.61 1491.66 1938.53 1496.26 Q1935.48 1500.85 1929.67 1500.85 Q1923.85 1500.85 1920.78 1496.26 Q1917.72 1491.66 1917.72 1482.93 Q1917.72 1474.18 1920.78 1469.6 Q1923.85 1464.99 1929.67 1464.99 Z" fill="#000000" fill-rule="evenodd" fill-opacity="1" /><path clip-path="url(#clip630)" d="M 0 0 M1116 1535.75 Q1116 1541.16 1114.26 1547.24 Q1112.56 1553.3 1109.85 1558.19 Q1107.15 1563.06 1103.6 1566.28 Q1100.06 1569.47 1096.68 1569.47 Q1094.52 1569.47 1092.91 1568.27 Q1091.33 1567.05 1090.46 1565.02 Q1089.59 1562.96 1089.17 1560.71 Q1088.76 1558.42 1088.76 1555.94 Q1088.76 1552.24 1089.56 1548.21 Q1090.37 1544.15 1091.72 1540.48 Q1093.07 1536.78 1094.97 1533.43 Q1096.87 1530.05 1098.96 1527.6 Q1101.09 1525.12 1103.47 1523.67 Q1105.86 1522.22 1108.08 1522.22 Q1109.69 1522.22 1110.98 1522.93 Q1112.3 1523.6 1113.14 1524.8 Q1113.97 1525.96 1114.55 1527.34 Q1115.16 1528.73 1115.45 1530.34 Q1115.74 1531.91 1115.87 1533.23 Q1116 1534.52 1116 1535.75 M1111.65 1531.66 Q1111.65 1530.01 1111.53 1528.79 Q1111.4 1527.53 1111.04 1526.28 Q1110.69 1525.02 1109.91 1524.35 Q1109.17 1523.67 1108.01 1523.67 Q1104.63 1523.67 1100.83 1530.59 Q1099.61 1532.75 1098.51 1535.68 Q1097.42 1538.61 1097.03 1540 Q1096.65 1541.38 1095.74 1544.8 L1109.53 1544.8 Q1111.65 1536 1111.65 1531.66 M1108.95 1546.89 L1095.23 1546.89 Q1093.1 1554.94 1093.1 1559.96 Q1093.1 1564.34 1094.01 1566.18 Q1094.94 1567.98 1096.68 1567.98 Q1098.67 1567.98 1100.54 1565.99 Q1102.41 1563.96 1104.31 1560.29 Q1106.82 1555.52 1108.95 1546.89 Z" fill="#000000" fill-rule="evenodd" fill-opacity="1" /><polyline clip-path="url(#clip632)" style="stroke:#000000; stroke-width:2; stroke-opacity:0.1; fill:none" points="
  276.706,1288.23 1931.43,1288.23 
  "/>
<polyline clip-path="url(#clip632)" style="stroke:#000000; stroke-width:2; stroke-opacity:0.1; fill:none" points="
  276.706,1095.36 1931.43,1095.36 
  "/>
<polyline clip-path="url(#clip632)" style="stroke:#000000; stroke-width:2; stroke-opacity:0.1; fill:none" points="
  276.706,902.496 1931.43,902.496 
  "/>
<polyline clip-path="url(#clip632)" style="stroke:#000000; stroke-width:2; stroke-opacity:0.1; fill:none" points="
  276.706,709.63 1931.43,709.63 
  "/>
<polyline clip-path="url(#clip632)" style="stroke:#000000; stroke-width:2; stroke-opacity:0.1; fill:none" points="
  276.706,516.765 1931.43,516.765 
  "/>
<polyline clip-path="url(#clip632)" style="stroke:#000000; stroke-width:2; stroke-opacity:0.1; fill:none" points="
  276.706,323.899 1931.43,323.899 
  "/>
<polyline clip-path="url(#clip632)" style="stroke:#000000; stroke-width:2; stroke-opacity:0.1; fill:none" points="
  276.706,131.034 1931.43,131.034 
  "/>
<polyline clip-path="url(#clip630)" style="stroke:#000000; stroke-width:4; stroke-opacity:1; fill:none" points="
  276.706,1439.5 276.706,47.2441 
  "/>
<polyline clip-path="url(#clip630)" style="stroke:#000000; stroke-width:4; stroke-opacity:1; fill:none" points="
  276.706,1288.23 296.563,1288.23 
  "/>
<polyline clip-path="url(#clip630)" style="stroke:#000000; stroke-width:4; stroke-opacity:1; fill:none" points="
  276.706,1095.36 296.563,1095.36 
  "/>
<polyline clip-path="url(#clip630)" style="stroke:#000000; stroke-width:4; stroke-opacity:1; fill:none" points="
  276.706,902.496 296.563,902.496 
  "/>
<polyline clip-path="url(#clip630)" style="stroke:#000000; stroke-width:4; stroke-opacity:1; fill:none" points="
  276.706,709.63 296.563,709.63 
  "/>
<polyline clip-path="url(#clip630)" style="stroke:#000000; stroke-width:4; stroke-opacity:1; fill:none" points="
  276.706,516.765 296.563,516.765 
  "/>
<polyline clip-path="url(#clip630)" style="stroke:#000000; stroke-width:4; stroke-opacity:1; fill:none" points="
  276.706,323.899 296.563,323.899 
  "/>
<polyline clip-path="url(#clip630)" style="stroke:#000000; stroke-width:4; stroke-opacity:1; fill:none" points="
  276.706,131.034 296.563,131.034 
  "/>
<path clip-path="url(#clip630)" d="M 0 0 M154.364 1274.03 Q150.753 1274.03 148.924 1277.59 Q147.118 1281.13 147.118 1288.26 Q147.118 1295.37 148.924 1298.93 Q150.753 1302.47 154.364 1302.47 Q157.998 1302.47 159.804 1298.93 Q161.632 1295.37 161.632 1288.26 Q161.632 1281.13 159.804 1277.59 Q157.998 1274.03 154.364 1274.03 M154.364 1270.32 Q160.174 1270.32 163.229 1274.93 Q166.308 1279.51 166.308 1288.26 Q166.308 1296.99 163.229 1301.59 Q160.174 1306.18 154.364 1306.18 Q148.554 1306.18 145.475 1301.59 Q142.419 1296.99 142.419 1288.26 Q142.419 1279.51 145.475 1274.93 Q148.554 1270.32 154.364 1270.32 Z" fill="#000000" fill-rule="evenodd" fill-opacity="1" /><path clip-path="url(#clip630)" d="M 0 0 M174.526 1299.63 L179.41 1299.63 L179.41 1305.51 L174.526 1305.51 L174.526 1299.63 Z" fill="#000000" fill-rule="evenodd" fill-opacity="1" /><path clip-path="url(#clip630)" d="M 0 0 M193.623 1301.57 L209.942 1301.57 L209.942 1305.51 L187.998 1305.51 L187.998 1301.57 Q190.66 1298.82 195.243 1294.19 Q199.85 1289.53 201.03 1288.19 Q203.276 1285.67 204.155 1283.93 Q205.058 1282.17 205.058 1280.48 Q205.058 1277.73 203.113 1275.99 Q201.192 1274.26 198.09 1274.26 Q195.891 1274.26 193.438 1275.02 Q191.007 1275.78 188.229 1277.34 L188.229 1272.61 Q191.053 1271.48 193.507 1270.9 Q195.961 1270.32 197.998 1270.32 Q203.368 1270.32 206.563 1273.01 Q209.757 1275.69 209.757 1280.18 Q209.757 1282.31 208.947 1284.23 Q208.16 1286.13 206.053 1288.72 Q205.475 1289.4 202.373 1292.61 Q199.271 1295.81 193.623 1301.57 Z" fill="#000000" fill-rule="evenodd" fill-opacity="1" /><path clip-path="url(#clip630)" d="M 0 0 M219.803 1270.95 L238.16 1270.95 L238.16 1274.88 L224.086 1274.88 L224.086 1283.35 Q225.104 1283.01 226.123 1282.84 Q227.141 1282.66 228.16 1282.66 Q233.947 1282.66 237.326 1285.83 Q240.706 1289 240.706 1294.42 Q240.706 1300 237.234 1303.1 Q233.761 1306.18 227.442 1306.18 Q225.266 1306.18 222.998 1305.81 Q220.752 1305.44 218.345 1304.7 L218.345 1300 Q220.428 1301.13 222.65 1301.69 Q224.873 1302.24 227.349 1302.24 Q231.354 1302.24 233.692 1300.14 Q236.03 1298.03 236.03 1294.42 Q236.03 1290.81 233.692 1288.7 Q231.354 1286.59 227.349 1286.59 Q225.474 1286.59 223.599 1287.01 Q221.748 1287.43 219.803 1288.31 L219.803 1270.95 Z" fill="#000000" fill-rule="evenodd" fill-opacity="1" /><path clip-path="url(#clip630)" d="M 0 0 M153.368 1081.16 Q149.757 1081.16 147.929 1084.72 Q146.123 1088.27 146.123 1095.4 Q146.123 1102.5 147.929 1106.07 Q149.757 1109.61 153.368 1109.61 Q157.003 1109.61 158.808 1106.07 Q160.637 1102.5 160.637 1095.4 Q160.637 1088.27 158.808 1084.72 Q157.003 1081.16 153.368 1081.16 M153.368 1077.46 Q159.179 1077.46 162.234 1082.06 Q165.313 1086.65 165.313 1095.4 Q165.313 1104.12 162.234 1108.73 Q159.179 1113.31 153.368 1113.31 Q147.558 1113.31 144.48 1108.73 Q141.424 1104.12 141.424 1095.4 Q141.424 1086.65 144.48 1082.06 Q147.558 1077.46 153.368 1077.46 Z" fill="#000000" fill-rule="evenodd" fill-opacity="1" /><path clip-path="url(#clip630)" d="M 0 0 M173.53 1106.76 L178.415 1106.76 L178.415 1112.64 L173.53 1112.64 L173.53 1106.76 Z" fill="#000000" fill-rule="evenodd" fill-opacity="1" /><path clip-path="url(#clip630)" d="M 0 0 M188.646 1078.08 L207.002 1078.08 L207.002 1082.02 L192.928 1082.02 L192.928 1090.49 Q193.947 1090.14 194.965 1089.98 Q195.984 1089.79 197.002 1089.79 Q202.789 1089.79 206.169 1092.97 Q209.549 1096.14 209.549 1101.55 Q209.549 1107.13 206.076 1110.23 Q202.604 1113.31 196.285 1113.31 Q194.109 1113.31 191.84 1112.94 Q189.595 1112.57 187.188 1111.83 L187.188 1107.13 Q189.271 1108.27 191.493 1108.82 Q193.715 1109.38 196.192 1109.38 Q200.197 1109.38 202.535 1107.27 Q204.873 1105.16 204.873 1101.55 Q204.873 1097.94 202.535 1095.84 Q200.197 1093.73 196.192 1093.73 Q194.317 1093.73 192.442 1094.15 Q190.59 1094.56 188.646 1095.44 L188.646 1078.08 Z" fill="#000000" fill-rule="evenodd" fill-opacity="1" /><path clip-path="url(#clip630)" d="M 0 0 M228.762 1081.16 Q225.15 1081.16 223.322 1084.72 Q221.516 1088.27 221.516 1095.4 Q221.516 1102.5 223.322 1106.07 Q225.15 1109.61 228.762 1109.61 Q232.396 1109.61 234.201 1106.07 Q236.03 1102.5 236.03 1095.4 Q236.03 1088.27 234.201 1084.72 Q232.396 1081.16 228.762 1081.16 M228.762 1077.46 Q234.572 1077.46 237.627 1082.06 Q240.706 1086.65 240.706 1095.4 Q240.706 1104.12 237.627 1108.73 Q234.572 1113.31 228.762 1113.31 Q222.951 1113.31 219.873 1108.73 Q216.817 1104.12 216.817 1095.4 Q216.817 1086.65 219.873 1082.06 Q222.951 1077.46 228.762 1077.46 Z" fill="#000000" fill-rule="evenodd" fill-opacity="1" /><path clip-path="url(#clip630)" d="M 0 0 M154.364 888.294 Q150.753 888.294 148.924 891.859 Q147.118 895.401 147.118 902.53 Q147.118 909.637 148.924 913.202 Q150.753 916.743 154.364 916.743 Q157.998 916.743 159.804 913.202 Q161.632 909.637 161.632 902.53 Q161.632 895.401 159.804 891.859 Q157.998 888.294 154.364 888.294 M154.364 884.591 Q160.174 884.591 163.229 889.197 Q166.308 893.78 166.308 902.53 Q166.308 911.257 163.229 915.864 Q160.174 920.447 154.364 920.447 Q148.554 920.447 145.475 915.864 Q142.419 911.257 142.419 902.53 Q142.419 893.78 145.475 889.197 Q148.554 884.591 154.364 884.591 Z" fill="#000000" fill-rule="evenodd" fill-opacity="1" /><path clip-path="url(#clip630)" d="M 0 0 M174.526 913.896 L179.41 913.896 L179.41 919.776 L174.526 919.776 L174.526 913.896 Z" fill="#000000" fill-rule="evenodd" fill-opacity="1" /><path clip-path="url(#clip630)" d="M 0 0 M188.415 885.216 L210.637 885.216 L210.637 887.206 L198.09 919.776 L193.206 919.776 L205.012 889.151 L188.415 889.151 L188.415 885.216 Z" fill="#000000" fill-rule="evenodd" fill-opacity="1" /><path clip-path="url(#clip630)" d="M 0 0 M219.803 885.216 L238.16 885.216 L238.16 889.151 L224.086 889.151 L224.086 897.623 Q225.104 897.276 226.123 897.114 Q227.141 896.928 228.16 896.928 Q233.947 896.928 237.326 900.1 Q240.706 903.271 240.706 908.688 Q240.706 914.266 237.234 917.368 Q233.761 920.447 227.442 920.447 Q225.266 920.447 222.998 920.076 Q220.752 919.706 218.345 918.965 L218.345 914.266 Q220.428 915.401 222.65 915.956 Q224.873 916.512 227.349 916.512 Q231.354 916.512 233.692 914.405 Q236.03 912.299 236.03 908.688 Q236.03 905.077 233.692 902.97 Q231.354 900.864 227.349 900.864 Q225.474 900.864 223.599 901.28 Q221.748 901.697 219.803 902.577 L219.803 885.216 Z" fill="#000000" fill-rule="evenodd" fill-opacity="1" /><path clip-path="url(#clip630)" d="M 0 0 M144.179 722.975 L151.817 722.975 L151.817 696.609 L143.507 698.276 L143.507 694.017 L151.771 692.35 L156.447 692.35 L156.447 722.975 L164.086 722.975 L164.086 726.91 L144.179 726.91 L144.179 722.975 Z" fill="#000000" fill-rule="evenodd" fill-opacity="1" /><path clip-path="url(#clip630)" d="M 0 0 M173.53 721.03 L178.415 721.03 L178.415 726.91 L173.53 726.91 L173.53 721.03 Z" fill="#000000" fill-rule="evenodd" fill-opacity="1" /><path clip-path="url(#clip630)" d="M 0 0 M198.6 695.429 Q194.989 695.429 193.16 698.994 Q191.354 702.535 191.354 709.665 Q191.354 716.771 193.16 720.336 Q194.989 723.878 198.6 723.878 Q202.234 723.878 204.039 720.336 Q205.868 716.771 205.868 709.665 Q205.868 702.535 204.039 698.994 Q202.234 695.429 198.6 695.429 M198.6 691.725 Q204.41 691.725 207.465 696.332 Q210.544 700.915 210.544 709.665 Q210.544 718.392 207.465 722.998 Q204.41 727.581 198.6 727.581 Q192.789 727.581 189.711 722.998 Q186.655 718.392 186.655 709.665 Q186.655 700.915 189.711 696.332 Q192.789 691.725 198.6 691.725 Z" fill="#000000" fill-rule="evenodd" fill-opacity="1" /><path clip-path="url(#clip630)" d="M 0 0 M228.762 695.429 Q225.15 695.429 223.322 698.994 Q221.516 702.535 221.516 709.665 Q221.516 716.771 223.322 720.336 Q225.15 723.878 228.762 723.878 Q232.396 723.878 234.201 720.336 Q236.03 716.771 236.03 709.665 Q236.03 702.535 234.201 698.994 Q232.396 695.429 228.762 695.429 M228.762 691.725 Q234.572 691.725 237.627 696.332 Q240.706 700.915 240.706 709.665 Q240.706 718.392 237.627 722.998 Q234.572 727.581 228.762 727.581 Q222.951 727.581 219.873 722.998 Q216.817 718.392 216.817 709.665 Q216.817 700.915 219.873 696.332 Q222.951 691.725 228.762 691.725 Z" fill="#000000" fill-rule="evenodd" fill-opacity="1" /><path clip-path="url(#clip630)" d="M 0 0 M145.174 530.109 L152.813 530.109 L152.813 503.744 L144.503 505.41 L144.503 501.151 L152.767 499.485 L157.442 499.485 L157.442 530.109 L165.081 530.109 L165.081 534.045 L145.174 534.045 L145.174 530.109 Z" fill="#000000" fill-rule="evenodd" fill-opacity="1" /><path clip-path="url(#clip630)" d="M 0 0 M174.526 528.165 L179.41 528.165 L179.41 534.045 L174.526 534.045 L174.526 528.165 Z" fill="#000000" fill-rule="evenodd" fill-opacity="1" /><path clip-path="url(#clip630)" d="M 0 0 M193.623 530.109 L209.942 530.109 L209.942 534.045 L187.998 534.045 L187.998 530.109 Q190.66 527.355 195.243 522.725 Q199.85 518.072 201.03 516.73 Q203.276 514.207 204.155 512.471 Q205.058 510.711 205.058 509.022 Q205.058 506.267 203.113 504.531 Q201.192 502.795 198.09 502.795 Q195.891 502.795 193.438 503.559 Q191.007 504.323 188.229 505.873 L188.229 501.151 Q191.053 500.017 193.507 499.438 Q195.961 498.86 197.998 498.86 Q203.368 498.86 206.563 501.545 Q209.757 504.23 209.757 508.721 Q209.757 510.85 208.947 512.772 Q208.16 514.67 206.053 517.262 Q205.475 517.934 202.373 521.151 Q199.271 524.346 193.623 530.109 Z" fill="#000000" fill-rule="evenodd" fill-opacity="1" /><path clip-path="url(#clip630)" d="M 0 0 M219.803 499.485 L238.16 499.485 L238.16 503.42 L224.086 503.42 L224.086 511.892 Q225.104 511.545 226.123 511.383 Q227.141 511.197 228.16 511.197 Q233.947 511.197 237.326 514.369 Q240.706 517.54 240.706 522.957 Q240.706 528.535 237.234 531.637 Q233.761 534.716 227.442 534.716 Q225.266 534.716 222.998 534.346 Q220.752 533.975 218.345 533.234 L218.345 528.535 Q220.428 529.67 222.65 530.225 Q224.873 530.781 227.349 530.781 Q231.354 530.781 233.692 528.674 Q236.03 526.568 236.03 522.957 Q236.03 519.346 233.692 517.239 Q231.354 515.133 227.349 515.133 Q225.474 515.133 223.599 515.549 Q221.748 515.966 219.803 516.846 L219.803 499.485 Z" fill="#000000" fill-rule="evenodd" fill-opacity="1" /><path clip-path="url(#clip630)" d="M 0 0 M144.179 337.244 L151.817 337.244 L151.817 310.878 L143.507 312.545 L143.507 308.286 L151.771 306.619 L156.447 306.619 L156.447 337.244 L164.086 337.244 L164.086 341.179 L144.179 341.179 L144.179 337.244 Z" fill="#000000" fill-rule="evenodd" fill-opacity="1" /><path clip-path="url(#clip630)" d="M 0 0 M173.53 335.299 L178.415 335.299 L178.415 341.179 L173.53 341.179 L173.53 335.299 Z" fill="#000000" fill-rule="evenodd" fill-opacity="1" /><path clip-path="url(#clip630)" d="M 0 0 M188.646 306.619 L207.002 306.619 L207.002 310.554 L192.928 310.554 L192.928 319.026 Q193.947 318.679 194.965 318.517 Q195.984 318.332 197.002 318.332 Q202.789 318.332 206.169 321.503 Q209.549 324.675 209.549 330.091 Q209.549 335.67 206.076 338.772 Q202.604 341.85 196.285 341.85 Q194.109 341.85 191.84 341.48 Q189.595 341.11 187.188 340.369 L187.188 335.67 Q189.271 336.804 191.493 337.36 Q193.715 337.915 196.192 337.915 Q200.197 337.915 202.535 335.809 Q204.873 333.702 204.873 330.091 Q204.873 326.48 202.535 324.374 Q200.197 322.267 196.192 322.267 Q194.317 322.267 192.442 322.684 Q190.59 323.1 188.646 323.98 L188.646 306.619 Z" fill="#000000" fill-rule="evenodd" fill-opacity="1" /><path clip-path="url(#clip630)" d="M 0 0 M228.762 309.698 Q225.15 309.698 223.322 313.263 Q221.516 316.804 221.516 323.934 Q221.516 331.04 223.322 334.605 Q225.15 338.147 228.762 338.147 Q232.396 338.147 234.201 334.605 Q236.03 331.04 236.03 323.934 Q236.03 316.804 234.201 313.263 Q232.396 309.698 228.762 309.698 M228.762 305.994 Q234.572 305.994 237.627 310.601 Q240.706 315.184 240.706 323.934 Q240.706 332.661 237.627 337.267 Q234.572 341.85 228.762 341.85 Q222.951 341.85 219.873 337.267 Q216.817 332.661 216.817 323.934 Q216.817 315.184 219.873 310.601 Q222.951 305.994 228.762 305.994 Z" fill="#000000" fill-rule="evenodd" fill-opacity="1" /><path clip-path="url(#clip630)" d="M 0 0 M145.174 144.378 L152.813 144.378 L152.813 118.013 L144.503 119.68 L144.503 115.42 L152.767 113.754 L157.442 113.754 L157.442 144.378 L165.081 144.378 L165.081 148.314 L145.174 148.314 L145.174 144.378 Z" fill="#000000" fill-rule="evenodd" fill-opacity="1" /><path clip-path="url(#clip630)" d="M 0 0 M174.526 142.434 L179.41 142.434 L179.41 148.314 L174.526 148.314 L174.526 142.434 Z" fill="#000000" fill-rule="evenodd" fill-opacity="1" /><path clip-path="url(#clip630)" d="M 0 0 M188.415 113.754 L210.637 113.754 L210.637 115.744 L198.09 148.314 L193.206 148.314 L205.012 117.689 L188.415 117.689 L188.415 113.754 Z" fill="#000000" fill-rule="evenodd" fill-opacity="1" /><path clip-path="url(#clip630)" d="M 0 0 M219.803 113.754 L238.16 113.754 L238.16 117.689 L224.086 117.689 L224.086 126.161 Q225.104 125.814 226.123 125.652 Q227.141 125.467 228.16 125.467 Q233.947 125.467 237.326 128.638 Q240.706 131.809 240.706 137.226 Q240.706 142.804 237.234 145.906 Q233.761 148.985 227.442 148.985 Q225.266 148.985 222.998 148.615 Q220.752 148.244 218.345 147.503 L218.345 142.804 Q220.428 143.939 222.65 144.494 Q224.873 145.05 227.349 145.05 Q231.354 145.05 233.692 142.943 Q236.03 140.837 236.03 137.226 Q236.03 133.615 233.692 131.508 Q231.354 129.402 227.349 129.402 Q225.474 129.402 223.599 129.818 Q221.748 130.235 219.803 131.115 L219.803 113.754 Z" fill="#000000" fill-rule="evenodd" fill-opacity="1" /><path clip-path="url(#clip630)" d="M 0 0 M53.6652 942.087 L70.0902 947.756 L70.0902 1002.44 Q70.0902 1003.18 70.058 1003.47 Q70.0258 1003.76 69.8648 1003.99 Q69.7037 1004.21 69.3495 1004.21 Q69.0596 1004.21 68.3189 1003.63 L39.3658 980.219 L6.25819 1004.28 Q4.74452 1004.28 4.45466 1004.02 Q4.13261 1003.76 4.13261 1002.44 L4.13261 947.756 L19.5592 942.087 L19.5592 943.73 Q17.5624 944.471 15.8877 945.662 Q14.1808 946.822 12.957 948.174 Q11.7332 949.495 10.767 951.234 Q9.76863 952.941 9.15672 954.551 Q8.5126 956.129 8.06172 958.094 Q7.57863 960.058 7.35319 961.636 Q7.09554 963.182 6.96672 965.114 Q6.8379 967.047 6.80569 968.271 Q6.77349 969.494 6.77349 971.04 L6.77349 997.159 L36.1774 975.742 Q36.9182 975.259 37.1114 975.259 Q37.4013 975.259 38.1742 975.871 L66.4509 998.737 L66.4509 970.718 Q66.4509 961.701 64.5508 955.421 Q63.1015 951.169 60.2352 948.078 Q57.3689 944.954 53.6652 943.73 L53.6652 942.087 Z" fill="#000000" fill-rule="evenodd" fill-opacity="1" /><path clip-path="url(#clip630)" d="M 0 0 M96.2324 1013.26 Q96.8636 1013.26 97.0215 1013.56 Q97.1567 1013.85 97.1567 1014.66 L97.1567 1018.99 L110.773 1022.42 Q111.968 1022.69 112.983 1022.69 Q114.11 1022.69 114.606 1022.35 Q115.102 1021.99 115.102 1021.25 Q115.102 1019.78 113.772 1018.2 Q112.442 1016.6 109.195 1015.25 Q108.767 1015.07 108.677 1014.98 Q108.564 1014.87 108.564 1014.57 Q108.564 1014.01 109.015 1014.01 Q109.173 1014.01 109.894 1014.32 Q110.616 1014.62 111.675 1015.27 Q112.735 1015.9 113.727 1016.74 Q114.719 1017.55 115.44 1018.79 Q116.139 1020.03 116.139 1021.36 Q116.139 1023.23 114.944 1024.42 Q113.749 1025.6 111.878 1025.6 Q111.269 1025.6 109.331 1025.12 Q107.369 1024.65 97.1567 1022.08 L97.1567 1026.16 Q97.1567 1026.72 97.1342 1026.95 Q97.1116 1027.15 96.9989 1027.31 Q96.8636 1027.45 96.5931 1027.45 Q96.1648 1027.45 95.9844 1027.26 Q95.7815 1027.08 95.759 1026.86 Q95.7139 1026.61 95.7139 1026.05 L95.7139 1021.72 L88.3871 1019.92 Q87.6657 1019.74 87.2599 1019.28 Q86.8315 1018.81 86.7864 1018.54 Q86.7188 1018.27 86.7188 1018.07 Q86.7188 1017.46 87.057 1017.1 Q87.3726 1016.74 87.9587 1016.74 Q88.2743 1016.74 95.7139 1018.63 L95.7139 1014.57 Q95.7139 1014.05 95.7364 1013.85 Q95.759 1013.63 95.8717 1013.45 Q95.9844 1013.26 96.2324 1013.26 Z" fill="#000000" fill-rule="evenodd" fill-opacity="1" /><path clip-path="url(#clip630)" d="M 0 0 M108.609 998.132 Q108.046 998.087 108.046 997.208 L108.046 968.915 Q108.046 967.585 108.564 967.562 Q109.128 967.562 109.105 968.825 L109.105 996.892 Q109.128 998.132 108.609 998.132 M99.5915 998.132 Q99.0279 998.132 99.0504 997.163 L99.0504 968.96 Q99.0504 967.585 99.5915 967.562 Q100.11 967.562 100.11 968.735 L100.11 997.208 Q100.11 998.132 99.5915 998.132 Z" fill="#000000" fill-rule="evenodd" fill-opacity="1" /><path clip-path="url(#clip630)" d="M 0 0 M100.854 949.75 Q94.0682 949.75 90.3709 948.037 Q84.8702 945.647 84.8702 940.011 Q84.8702 938.816 85.2083 937.577 Q85.524 936.314 86.7639 934.736 Q88.0038 933.135 90.0328 932.166 Q93.9555 930.317 100.854 930.317 Q107.595 930.317 111.269 932.031 Q116.635 934.533 116.635 940.056 Q116.635 942.13 115.575 944.25 Q114.516 946.346 111.968 947.676 Q108.158 949.75 100.854 949.75 M100.29 945.918 Q107.256 945.918 110.029 945.422 Q113.028 944.858 114.335 943.325 Q115.62 941.77 115.62 940.056 Q115.62 938.208 114.245 936.675 Q112.847 935.119 109.849 934.646 Q106.896 934.127 100.29 934.15 Q93.8653 934.15 91.2953 934.601 Q88.2969 935.209 87.102 936.833 Q85.8847 938.433 85.8847 940.056 Q85.8847 940.665 86.065 941.319 Q86.2454 941.95 86.7639 942.874 Q87.2824 943.799 88.5674 944.52 Q89.8524 945.219 91.7912 945.557 Q94.2936 945.918 100.29 945.918 Z" fill="#000000" fill-rule="evenodd" fill-opacity="1" /><path clip-path="url(#clip630)" d="M 0 0 M9.67201 874.983 Q10.2839 874.983 10.7992 875.112 L22.2645 876.915 Q23.1341 877.012 23.4561 877.205 Q23.7782 877.366 23.7782 877.881 Q23.7782 878.686 22.9408 878.686 Q22.4577 878.686 21.6848 878.493 Q18.0455 877.946 16.403 877.946 Q15.308 877.946 14.5029 878.171 Q13.6655 878.364 13.0858 878.686 Q12.5061 878.976 12.1197 879.653 Q11.7332 880.329 11.5077 880.973 Q11.2823 881.617 11.1857 882.777 Q11.0569 883.936 11.0247 884.934 Q10.9925 885.933 10.9925 887.575 Q10.9925 891.15 11.1213 891.73 Q11.2823 892.342 11.7654 892.664 Q12.2163 892.954 13.5689 893.276 L48.5767 902.036 L49.9615 902.293 Q50.7345 902.293 50.9921 901.81 Q51.2498 901.327 51.4108 899.846 Q51.5718 897.72 51.5718 895.627 Q51.5718 895.562 51.5718 895.433 Q51.5718 894.725 51.604 894.435 Q51.604 894.145 51.6685 893.855 Q51.7329 893.566 51.8939 893.501 Q52.0227 893.405 52.2804 893.405 Q52.8923 893.405 53.2143 893.662 Q53.5042 893.92 53.5686 894.177 Q53.6008 894.403 53.6008 894.854 Q53.6008 895.756 53.5364 897.688 Q53.472 899.62 53.472 900.586 L53.4076 906.061 L53.472 911.665 Q53.472 912.535 53.5364 914.371 Q53.6008 916.206 53.6008 917.076 Q53.6008 918.203 52.7957 918.203 Q51.8939 918.203 51.7329 917.784 Q51.5718 917.333 51.5718 915.433 Q51.5718 912.76 51.443 911.311 Q51.3142 909.862 50.8633 909.089 Q50.4124 908.284 49.9615 908.058 Q49.4785 907.833 48.3835 907.575 L13.1825 898.718 Q12.4095 898.461 11.7976 898.461 Q11.4755 898.461 11.3467 898.557 Q11.2179 898.622 11.1213 899.041 Q10.9925 899.459 10.9925 900.329 L10.9925 902.905 Q10.9925 905.546 11.1213 907.189 Q11.2179 908.799 11.701 910.345 Q12.1841 911.858 12.8604 912.76 Q13.5367 913.63 14.9216 914.596 Q16.3064 915.562 17.9811 916.271 Q19.6558 916.947 22.3933 917.913 Q23.2951 918.235 23.5527 918.428 Q23.7782 918.59 23.7782 919.04 Q23.7782 919.362 23.5849 919.62 Q23.3595 919.846 23.0697 919.846 Q22.0069 919.523 21.878 919.459 L10.2517 915.498 Q9.31775 915.176 9.15672 914.886 Q8.96348 914.564 8.96348 913.372 L8.96348 876.786 Q8.96348 876.207 8.96348 876.013 Q8.96348 875.82 9.0279 875.498 Q9.09231 875.176 9.25334 875.079 Q9.41437 874.983 9.67201 874.983 Z" fill="#000000" fill-rule="evenodd" fill-opacity="1" /><path clip-path="url(#clip630)" d="M 0 0 M16.5041 850.007 L17.4284 850.571 Q15.918 854.065 13.5057 858.416 Q15.918 862.767 17.4284 866.261 L16.5041 866.802 Q13.1901 862.992 10.6426 858.416 Q13.2127 853.794 16.5041 850.007 Z" fill="#000000" fill-rule="evenodd" fill-opacity="1" /><path clip-path="url(#clip630)" d="M 0 0 M28.8023 848.845 Q30.6058 848.845 31.6364 849.972 Q32.6348 851.099 32.6348 852.388 Q32.6348 853.611 31.9263 854.256 Q31.2177 854.9 30.316 854.9 Q29.0921 854.9 28.0294 853.998 Q26.9666 853.096 26.7411 851.743 Q25.9038 853.064 25.9038 855.028 Q25.9038 856.317 26.5801 857.444 Q27.2564 858.539 28.126 859.215 Q28.9955 859.859 30.2516 860.439 Q31.4754 860.987 32.2161 861.212 Q32.9246 861.405 33.6976 861.566 L42.7152 863.821 Q46.9986 864.916 48.5123 864.916 Q50.3802 864.916 51.6363 864.014 Q52.8601 863.112 52.8601 861.309 Q52.8601 860.6 52.6668 859.795 Q52.4414 858.99 51.8617 857.959 Q51.2498 856.896 50.348 855.962 Q49.414 854.996 47.836 854.062 Q46.2579 853.128 44.2289 852.516 Q43.5204 852.323 43.5204 851.679 Q43.5204 850.874 44.1645 850.874 Q44.712 850.874 45.8714 851.325 Q46.9986 851.743 48.4801 852.677 Q49.9293 853.579 51.2498 854.771 Q52.538 855.962 53.4398 857.734 Q54.3415 859.505 54.3415 861.437 Q54.3415 864.207 52.8601 866.043 Q51.3786 867.879 49.3174 868.555 Q49.6073 868.716 49.9938 868.941 Q50.3802 869.167 51.2498 869.843 Q52.0871 870.487 52.7313 871.228 Q53.3432 871.969 53.8262 873.128 Q54.3415 874.255 54.3415 875.479 Q54.3415 877.025 53.8907 878.41 Q53.4398 879.763 52.4092 880.729 Q51.3786 881.695 49.9615 881.695 Q48.3835 881.695 47.2885 880.632 Q46.1613 879.537 46.1613 878.056 Q46.1613 877.122 46.7088 876.381 Q47.2563 875.608 48.4479 875.608 Q49.7683 875.608 50.7667 876.51 Q51.7651 877.412 52.0227 878.7 Q52.8601 877.379 52.8601 875.415 Q52.8601 873.289 50.9921 871.614 Q49.1242 869.94 46.0002 869.135 Q38.4963 867.138 35.1468 866.365 Q31.7652 865.592 30.316 865.592 Q28.9633 865.592 28.0294 865.946 Q27.0954 866.301 26.6767 866.912 Q26.2258 867.492 26.0648 868.04 Q25.9038 868.555 25.9038 869.135 Q25.9038 870.101 26.2902 871.196 Q26.6767 872.259 27.5785 873.547 Q28.448 874.803 30.2516 875.994 Q32.0551 877.186 34.5349 877.991 Q35.2757 878.152 35.2757 878.861 Q35.2435 879.634 34.5994 879.634 Q34.0519 879.634 32.9246 879.215 Q31.7652 878.764 30.316 877.862 Q28.8667 876.928 27.5785 875.737 Q26.258 874.513 25.3563 872.742 Q24.4545 870.938 24.4545 869.006 Q24.4545 868.136 24.6477 867.299 Q24.8088 866.429 25.2919 865.399 Q25.7749 864.336 26.8377 863.402 Q27.9005 862.468 29.4464 861.888 Q28.7057 861.502 27.9971 860.987 Q27.2886 860.439 26.4191 859.602 Q25.5173 858.732 25.002 857.541 Q24.4545 856.317 24.4545 854.964 Q24.4545 853.644 24.8088 852.355 Q25.1308 851.067 26.1936 849.972 Q27.2242 848.845 28.8023 848.845 Z" fill="#000000" fill-rule="evenodd" fill-opacity="1" /><path clip-path="url(#clip630)" d="M 0 0 M52.1213 823.122 Q52.7526 823.122 52.9104 823.415 Q53.0456 823.708 53.0456 824.519 L53.0456 828.848 L66.6623 832.274 Q67.8571 832.545 68.8716 832.545 Q69.9988 832.545 70.4948 832.207 Q70.9907 831.846 70.9907 831.102 Q70.9907 829.637 69.6606 828.059 Q68.3305 826.458 65.0842 825.105 Q64.6558 824.925 64.5657 824.835 Q64.4529 824.722 64.4529 824.429 Q64.4529 823.866 64.9038 823.866 Q65.0616 823.866 65.783 824.181 Q66.5045 824.474 67.564 825.128 Q68.6236 825.759 69.6155 826.593 Q70.6075 827.405 71.3289 828.645 Q72.0278 829.885 72.0278 831.215 Q72.0278 833.086 70.8329 834.281 Q69.6381 835.453 67.7669 835.453 Q67.1582 835.453 65.2194 834.98 Q63.2581 834.506 53.0456 831.936 L53.0456 836.017 Q53.0456 836.58 53.0231 836.806 Q53.0005 837.009 52.8878 837.167 Q52.7526 837.302 52.482 837.302 Q52.0537 837.302 51.8733 837.121 Q51.6704 836.941 51.6479 836.716 Q51.6028 836.468 51.6028 835.904 L51.6028 831.576 L44.276 829.772 Q43.5546 829.592 43.1488 829.141 Q42.7204 828.667 42.6753 828.397 Q42.6077 828.126 42.6077 827.923 Q42.6077 827.315 42.9459 826.954 Q43.2615 826.593 43.8476 826.593 Q44.1632 826.593 51.6028 828.487 L51.6028 824.429 Q51.6028 823.911 51.6253 823.708 Q51.6479 823.482 51.7606 823.302 Q51.8733 823.122 52.1213 823.122 Z" fill="#000000" fill-rule="evenodd" fill-opacity="1" /><path clip-path="url(#clip630)" d="M 0 0 M35.6497 813.761 Q25.0076 813.761 16.4262 809.793 Q12.8275 808.101 9.81325 805.733 Q6.799 803.365 5.47642 801.796 Q4.15383 800.227 4.15383 799.797 Q4.15383 799.182 4.76899 799.151 Q5.07657 799.151 5.84551 799.981 Q16.1801 810.131 35.6497 810.101 Q55.1809 810.101 65.1156 800.227 Q66.1921 799.151 66.5305 799.151 Q67.1456 799.151 67.1456 799.797 Q67.1456 800.227 65.8846 801.734 Q64.6235 803.242 61.7323 805.579 Q58.8411 807.917 55.3039 809.608 Q46.7225 813.761 35.6497 813.761 Z" fill="#000000" fill-rule="evenodd" fill-opacity="1" /><path clip-path="url(#clip630)" d="M 0 0 M17.4014 782.532 Q11.7332 782.532 7.9329 779.634 Q4.13261 776.735 4.13261 772.838 Q4.13261 770.455 6.25819 768.104 Q11.3467 762.758 11.3145 755.769 Q11.3145 747.846 5.06658 743.241 Q4.13261 742.436 4.13261 741.856 Q4.13261 741.341 4.55128 740.954 Q4.93775 740.536 5.45305 740.536 Q5.83952 740.536 6.64466 741.051 L56.3061 774.416 Q57.3045 775.157 57.3045 775.737 Q57.3045 776.252 56.8858 776.671 Q56.4993 777.057 55.984 777.057 Q55.5332 777.057 54.6636 776.477 L10.5416 746.848 L10.4772 746.912 Q12.796 750.326 12.7638 755.705 Q12.7638 760.793 9.99407 765.656 Q13.4079 764.271 17.4658 764.271 Q23.0052 764.271 26.8699 766.751 Q30.7024 769.231 30.7024 772.838 Q30.7024 776.735 26.9666 779.634 Q23.1985 782.532 17.4014 782.532 M12.023 777.991 Q14.3419 778.442 17.4658 778.442 Q20.5576 778.442 22.8764 777.991 Q25.163 777.54 26.3546 776.896 Q27.5463 776.22 28.2548 775.318 Q28.9311 774.416 29.0921 773.869 Q29.2532 773.321 29.2532 772.774 Q29.2532 770.068 25.9038 768.007 Q22.5222 765.914 17.4014 765.914 Q12.3773 765.914 8.99569 768.007 Q5.58187 770.068 5.58187 772.774 Q5.58187 773.353 5.7429 773.933 Q5.90393 774.481 6.61246 775.35 Q7.28878 776.22 8.4804 776.896 Q9.67201 777.54 12.023 777.991 M43.9713 753.321 Q38.303 753.321 34.5027 750.423 Q30.7024 747.524 30.7024 743.627 Q30.7024 740.053 34.5671 737.573 Q38.4318 735.061 44.0357 735.061 Q49.5751 735.061 53.4398 737.541 Q57.3045 739.988 57.3045 743.627 Q57.3045 747.524 53.5364 750.423 Q49.7683 753.321 43.9713 753.321 M38.5929 748.78 Q40.9439 749.231 44.0357 749.231 Q47.1274 749.231 49.4463 748.78 Q51.7651 748.297 52.9567 747.653 Q54.1161 746.977 54.7924 746.107 Q55.501 745.206 55.662 744.658 Q55.8552 744.078 55.8552 743.563 Q55.8552 740.858 52.5058 738.797 Q49.1242 736.703 43.9713 736.703 Q38.9471 736.703 35.5655 738.797 Q32.1517 740.858 32.1517 743.563 Q32.1517 744.143 32.3449 744.722 Q32.506 745.27 33.2145 746.14 Q33.8908 746.977 35.0824 747.653 Q36.2418 748.297 38.5929 748.78 Z" fill="#000000" fill-rule="evenodd" fill-opacity="1" /><path clip-path="url(#clip630)" d="M 0 0 M52.538 727.211 Q51.4752 728.145 50.0904 728.145 Q48.7055 728.145 47.6749 727.243 Q46.6121 726.309 46.6121 724.635 Q46.6121 722.67 48.5123 721.543 Q50.3802 720.416 53.5364 720.416 Q56.9502 720.416 60.1064 721.801 Q63.2948 723.186 64.8084 724.538 Q66.3221 725.891 66.3221 726.438 Q66.3221 727.082 65.6136 727.082 Q65.3559 727.082 64.8729 726.632 Q59.7843 721.897 53.5364 721.865 Q52.538 721.865 52.538 721.994 L52.6668 722.155 Q53.6008 723.282 53.6008 724.635 Q53.6008 726.277 52.538 727.211 Z" fill="#000000" fill-rule="evenodd" fill-opacity="1" /><path clip-path="url(#clip630)" d="M 0 0 M36.3063 665.011 Q39.5591 665.011 42.8118 666.686 Q46.0646 668.36 48.5767 671.098 Q51.0565 673.835 52.6668 677.571 Q54.2771 681.307 54.406 685.204 L64.2287 687.716 Q66.612 688.199 66.8696 688.457 Q67.1273 688.715 67.1273 689.101 Q67.1273 689.906 66.3865 689.906 Q66.1611 689.906 60.5895 688.457 L54.406 686.911 Q54.0839 692.773 50.7023 696.186 Q47.3207 699.6 42.4576 699.6 Q39.1726 699.6 35.9198 697.925 Q32.6348 696.219 30.1549 693.481 Q27.6751 690.711 26.097 686.975 Q24.5189 683.24 24.3901 679.407 L9.15672 675.575 Q8.28716 675.381 8.06172 675.22 Q7.83628 675.059 7.83628 674.576 Q7.83628 674.222 7.99731 674.029 Q8.15834 673.835 8.31937 673.835 L8.4804 673.803 L9.41437 673.996 L24.3901 677.7 Q24.6155 674.415 25.7749 671.871 Q26.9344 669.327 28.6735 667.877 Q30.3804 666.428 32.3127 665.72 Q34.2451 665.011 36.3063 665.011 M25.8394 679.794 Q26.1614 683.336 27.9005 686.331 Q29.6396 689.326 32.2161 691.259 Q34.7604 693.191 37.8199 694.254 Q40.8473 695.317 43.8424 695.317 Q46.1935 695.317 47.997 694.544 Q49.8005 693.739 50.8311 692.418 Q51.8295 691.098 52.377 689.649 Q52.8923 688.167 52.9567 686.589 L25.8394 679.794 M34.9214 669.327 Q30.7346 669.327 28.3836 671.742 Q26.0326 674.158 25.8394 678.087 L52.9567 684.882 Q52.7313 682.016 51.5396 679.504 Q50.3158 676.959 48.5123 675.124 Q46.6765 673.288 44.4221 671.968 Q42.1355 670.647 39.7201 670.003 Q37.2724 669.327 34.9214 669.327 Z" fill="#000000" fill-rule="evenodd" fill-opacity="1" /><path clip-path="url(#clip630)" d="M 0 0 M43.5848 642.381 Q42.7796 642.317 42.7796 641.061 L42.7796 600.643 Q42.7796 598.742 43.5204 598.71 Q44.3255 598.71 44.2933 600.514 L44.2933 640.61 Q44.3255 642.381 43.5848 642.381 M30.7024 642.381 Q29.8973 642.381 29.9295 640.997 L29.9295 600.707 Q29.9295 598.742 30.7024 598.71 Q31.4432 598.71 31.4432 600.385 L31.4432 641.061 Q31.4432 642.381 30.7024 642.381 Z" fill="#000000" fill-rule="evenodd" fill-opacity="1" /><path clip-path="url(#clip630)" d="M 0 0 M15.9522 573.264 L13.891 573.264 Q13.891 565.342 9.67201 561.252 Q9.67201 560.124 9.92966 559.931 Q10.1873 559.738 11.3789 559.738 L48.3835 559.738 Q50.348 559.738 50.9599 558.772 Q51.5718 557.806 51.5718 553.587 L51.5718 551.493 L53.6008 551.493 Q53.4076 553.812 53.4076 562.186 Q53.4076 570.559 53.6008 572.846 L51.5718 572.846 L51.5718 570.752 Q51.5718 566.598 50.9921 565.599 Q50.3802 564.601 48.3835 564.601 L14.213 564.601 Q15.9522 568.047 15.9522 573.264 Z" fill="#000000" fill-rule="evenodd" fill-opacity="1" /><path clip-path="url(#clip630)" d="M 0 0 M52.538 546.352 Q51.4752 547.35 50.0904 547.35 Q48.7055 547.35 47.7071 546.352 Q46.6765 545.354 46.6765 543.84 Q46.6765 542.391 47.6427 541.425 Q48.5767 540.426 50.1226 540.426 Q51.6363 540.426 52.6346 541.489 Q53.6008 542.52 53.6008 543.84 Q53.6008 545.354 52.538 546.352 Z" fill="#000000" fill-rule="evenodd" fill-opacity="1" /><path clip-path="url(#clip630)" d="M 0 0 M53.6008 529.2 Q52.4092 529.2 52.0549 529.104 Q51.7007 528.975 51.1532 528.459 L37.047 515.803 Q29.2532 508.878 22.4577 508.878 Q18.0455 508.878 14.8894 511.197 Q11.7332 513.484 11.7332 517.703 Q11.7332 520.601 13.5045 523.049 Q15.2758 525.496 18.432 526.624 Q18.3676 526.43 18.3676 525.754 Q18.3676 524.112 19.3982 523.21 Q20.4288 522.276 21.8136 522.276 Q23.5849 522.276 24.4545 523.435 Q25.2919 524.563 25.2919 525.69 Q25.2919 526.141 25.1952 526.753 Q25.0986 527.332 24.1969 528.266 Q23.2629 529.2 21.6204 529.2 Q17.015 529.2 13.3435 525.722 Q9.67201 522.211 9.67201 516.865 Q9.67201 510.811 13.2791 506.849 Q16.8539 502.856 22.4577 502.856 Q24.4223 502.856 26.2258 503.468 Q27.9971 504.047 29.382 504.853 Q30.7669 505.625 32.9891 507.751 Q35.2113 509.877 36.7893 511.584 Q38.3674 513.29 41.7168 517.123 L48.5123 524.112 L48.5123 512.228 Q48.5123 506.431 47.997 505.98 Q47.063 505.336 42.1355 504.53 L42.1355 502.856 L53.6008 504.724 L53.6008 529.2 Z" fill="#000000" fill-rule="evenodd" fill-opacity="1" /><path clip-path="url(#clip630)" d="M 0 0 M42.9729 496.536 Q41.0083 496.536 40.2676 495.473 Q39.4946 494.411 39.4946 493.283 Q39.4946 491.77 40.4608 490.9 Q41.3948 489.998 42.7152 489.998 Q44.0357 489.998 45.0018 490.9 Q45.9358 491.77 45.9358 493.283 Q45.9358 494.024 45.807 494.411 Q48.8343 493.541 51.0243 490.9 Q53.2143 488.227 53.2143 484.717 Q53.2143 480.304 48.931 477.663 Q46.1613 476.085 39.8811 476.085 Q34.3417 476.085 31.572 477.277 Q27.353 479.113 27.353 482.881 Q27.353 488.227 31.9585 491.383 Q32.5382 491.77 32.5704 492.221 Q32.5704 492.865 32.2161 493.026 Q31.8296 493.154 30.8313 493.154 L11.3145 493.154 Q9.73643 493.154 9.73643 492.51 Q9.73643 492.253 9.92966 491.705 Q11.7654 487.551 11.7976 482.945 Q11.7976 478.211 9.86525 473.96 Q9.67201 473.638 9.67201 473.444 Q9.67201 472.8 10.4127 472.768 Q10.6704 472.768 11.4433 473.316 Q12.1841 473.831 13.1825 474.958 Q14.1486 476.085 15.0826 477.535 Q16.0166 478.984 16.6607 481.109 Q17.2726 483.203 17.2726 485.522 Q17.2726 488.291 16.403 491.126 L29.2532 491.126 Q25.9038 487.712 25.9038 482.752 Q25.9038 477.47 30.1549 473.831 Q34.4061 470.192 40.332 470.192 Q46.5477 470.192 50.7989 474.507 Q55.0501 478.791 55.0501 484.588 Q55.0501 489.869 51.282 493.219 Q47.5139 496.536 42.9729 496.536 Z" fill="#000000" fill-rule="evenodd" fill-opacity="1" /><path clip-path="url(#clip630)" d="M 0 0 M66.5305 463.418 Q66.2229 463.418 65.454 462.618 Q55.1194 452.468 35.6497 452.468 Q16.1186 452.468 6.24536 462.218 Q5.10732 463.418 4.76899 463.418 Q4.15383 463.418 4.15383 462.803 Q4.15383 462.372 5.4149 460.865 Q6.67597 459.327 9.56719 457.02 Q12.4584 454.683 15.9956 452.96 Q24.577 448.808 35.6497 448.808 Q46.2919 448.808 54.8733 452.776 Q58.472 454.467 61.4862 456.836 Q64.5005 459.204 65.8231 460.773 Q67.1456 462.341 67.1456 462.803 Q67.1456 463.418 66.5305 463.418 Z" fill="#000000" fill-rule="evenodd" fill-opacity="1" /><polyline clip-path="url(#clip632)" style="stroke:#0000ff; stroke-width:4; stroke-opacity:1; fill:none" points="
  323.538,1400.1 344.633,1373.41 365.728,1362.09 386.824,1354.32 407.919,1348.52 429.015,1344 450.11,1340.38 471.205,1337.4 492.301,1334.91 513.396,1332.79 
  534.491,1330.97 555.587,1329.39 576.682,1328.01 597.778,1326.78 618.873,1325.69 639.968,1324.71 661.064,1323.83 682.159,1323.03 703.254,1322.31 724.35,1321.64 
  745.445,1321.04 766.541,1320.48 787.636,1319.96 808.731,1319.48 829.827,1319.03 850.922,1318.62 872.018,1318.23 893.113,1317.87 914.208,1317.53 935.304,1317.21 
  956.399,1316.9 977.494,1316.62 998.59,1316.35 1019.69,1316.1 1040.78,1315.86 1061.88,1315.63 1082.97,1315.41 1104.07,1315.21 1125.16,1315.01 1146.26,1314.82 
  1167.35,1314.64 1188.45,1314.47 1209.54,1314.31 1230.64,1314.15 1251.73,1314 1272.83,1313.86 1293.93,1313.72 1315.02,1313.59 1336.12,1313.46 1357.21,1313.33 
  1378.31,1313.22 1399.4,1313.1 1420.5,1312.99 1441.59,1312.88 1462.69,1312.78 1483.78,1312.68 1504.88,1312.59 1525.97,1312.49 1547.07,1312.4 1568.17,1312.32 
  1589.26,1312.23 1610.36,1312.15 1631.45,1312.07 1652.55,1312 1673.64,1311.92 1694.74,1311.85 1715.83,1311.78 1736.93,1311.71 1758.02,1311.64 1779.12,1311.58 
  1800.21,1311.52 1821.31,1311.45 1842.41,1311.4 1863.5,1311.34 1884.6,1311.28 
  "/>
<polyline clip-path="url(#clip632)" style="stroke:#4000bf; stroke-width:4; stroke-opacity:1; fill:none" points="
  323.538,1385.18 344.633,1312.38 365.728,1283.42 386.824,1264.27 407.919,1250.21 429.015,1239.35 450.11,1230.68 471.205,1223.57 492.301,1217.64 513.396,1212.62 
  534.491,1208.3 555.587,1204.55 576.682,1201.27 597.778,1198.37 618.873,1195.79 639.968,1193.48 661.064,1191.4 682.159,1189.51 703.254,1187.8 724.35,1186.23 
  745.445,1184.79 766.541,1183.47 787.636,1182.25 808.731,1181.11 829.827,1180.06 850.922,1179.08 872.018,1178.17 893.113,1177.31 914.208,1176.51 935.304,1175.75 
  956.399,1175.04 977.494,1174.37 998.59,1173.74 1019.69,1173.14 1040.78,1172.58 1061.88,1172.04 1082.97,1171.53 1104.07,1171.04 1125.16,1170.58 1146.26,1170.13 
  1167.35,1169.71 1188.45,1169.31 1209.54,1168.92 1230.64,1168.55 1251.73,1168.2 1272.83,1167.86 1293.93,1167.53 1315.02,1167.22 1336.12,1166.92 1357.21,1166.63 
  1378.31,1166.35 1399.4,1166.08 1420.5,1165.82 1441.59,1165.57 1462.69,1165.33 1483.78,1165.09 1504.88,1164.87 1525.97,1164.65 1547.07,1164.44 1568.17,1164.23 
  1589.26,1164.04 1610.36,1163.84 1631.45,1163.66 1652.55,1163.48 1673.64,1163.3 1694.74,1163.13 1715.83,1162.96 1736.93,1162.8 1758.02,1162.65 1779.12,1162.49 
  1800.21,1162.35 1821.31,1162.2 1842.41,1162.06 1863.5,1161.92 1884.6,1161.79 
  "/>
<polyline clip-path="url(#clip632)" style="stroke:#7f0080; stroke-width:4; stroke-opacity:1; fill:none" points="
  323.538,1381.32 344.633,1164.68 365.728,1047.81 386.824,966.872 407.919,906.394 429.015,859.208 450.11,821.279 471.205,790.099 492.301,764.002 513.396,741.836 
  534.491,722.773 555.587,706.205 576.682,691.672 597.778,678.821 618.873,667.377 639.968,657.12 661.064,647.876 682.159,639.5 703.254,631.878 724.35,624.911 
  745.445,618.518 766.541,612.632 787.636,607.194 808.731,602.156 829.827,597.474 850.922,593.113 872.018,589.04 893.113,585.228 914.208,581.653 935.304,578.292 
  956.399,575.129 977.494,572.144 998.59,569.325 1019.69,566.657 1040.78,564.129 1061.88,561.73 1082.97,559.45 1104.07,557.28 1125.16,555.214 1146.26,553.243 
  1167.35,551.361 1188.45,549.563 1209.54,547.842 1230.64,546.194 1251.73,544.615 1272.83,543.1 1293.93,541.645 1315.02,540.247 1336.12,538.903 1357.21,537.609 
  1378.31,536.363 1399.4,535.162 1420.5,534.004 1441.59,532.886 1462.69,531.807 1483.78,530.764 1504.88,529.756 1525.97,528.781 1547.07,527.837 1568.17,526.923 
  1589.26,526.037 1610.36,525.179 1631.45,524.347 1652.55,523.539 1673.64,522.755 1694.74,521.994 1715.83,521.254 1736.93,520.536 1758.02,519.837 1779.12,519.157 
  1800.21,518.495 1821.31,517.852 1842.41,517.225 1863.5,516.614 1884.6,516.019 
  "/>
<polyline clip-path="url(#clip632)" style="stroke:#bf0040; stroke-width:4; stroke-opacity:1; fill:none" points="
  323.538,1381.08 344.633,1110.81 365.728,956.524 386.824,847.967 407.919,766.245 429.015,702.225 450.11,650.643 471.205,608.175 492.301,572.598 513.396,542.36 
  534.491,516.346 555.587,493.73 576.682,473.888 597.778,456.341 618.873,440.712 639.968,426.705 661.064,414.08 682.159,402.642 703.254,392.231 724.35,382.716 
  745.445,373.986 766.541,365.947 787.636,358.521 808.731,351.641 829.827,345.248 850.922,339.292 872.018,333.731 893.113,328.526 914.208,323.644 935.304,319.056 
  956.399,314.736 977.494,310.661 998.59,306.812 1019.69,303.17 1040.78,299.718 1061.88,296.442 1082.97,293.33 1104.07,290.368 1125.16,287.547 1146.26,284.857 
  1167.35,282.288 1188.45,279.833 1209.54,277.484 1230.64,275.235 1251.73,273.079 1272.83,271.011 1293.93,269.026 1315.02,267.118 1336.12,265.283 1357.21,263.517 
  1378.31,261.816 1399.4,260.177 1420.5,258.596 1441.59,257.071 1462.69,255.598 1483.78,254.175 1504.88,252.799 1525.97,251.468 1547.07,250.18 1568.17,248.933 
  1589.26,247.724 1610.36,246.553 1631.45,245.417 1652.55,244.315 1673.64,243.245 1694.74,242.207 1715.83,241.197 1736.93,240.217 1758.02,239.263 1779.12,238.335 
  1800.21,237.433 1821.31,236.554 1842.41,235.699 1863.5,234.865 1884.6,234.053 
  "/>
<polyline clip-path="url(#clip632)" style="stroke:#ff0000; stroke-width:4; stroke-opacity:1; fill:none" points="
  323.538,1380.94 344.633,1081.33 365.728,906.584 386.824,783.02 407.919,689.896 429.015,616.96 450.11,558.234 471.205,509.925 492.301,469.488 513.396,435.147 
  534.491,405.623 555.587,379.972 576.682,357.48 597.778,337.6 618.873,319.902 639.968,304.047 661.064,289.761 682.159,276.824 703.254,265.053 724.35,254.297 
  745.445,244.431 766.541,235.349 787.636,226.961 808.731,219.191 829.827,211.972 850.922,205.249 872.018,198.972 893.113,193.098 914.208,187.59 935.304,182.414 
  956.399,177.541 977.494,172.946 998.59,168.605 1019.69,164.497 1040.78,160.606 1061.88,156.913 1082.97,153.404 1104.07,150.066 1125.16,146.887 1146.26,143.855 
  1167.35,140.96 1188.45,138.194 1209.54,135.548 1230.64,133.014 1251.73,130.585 1272.83,128.255 1293.93,126.019 1315.02,123.87 1336.12,121.803 1357.21,119.814 
  1378.31,117.899 1399.4,116.053 1420.5,114.273 1441.59,112.556 1462.69,110.897 1483.78,109.295 1504.88,107.746 1525.97,106.248 1547.07,104.797 1568.17,103.393 
  1589.26,102.033 1610.36,100.715 1631.45,99.4361 1652.55,98.1956 1673.64,96.9916 1694.74,95.8225 1715.83,94.6867 1736.93,93.5828 1758.02,92.5096 1779.12,91.4658 
  1800.21,90.4501 1821.31,89.4615 1842.41,88.4989 1863.5,87.5612 1884.6,86.6476 
  "/>
<path clip-path="url(#clip630)" d="
M2000.63 411.173 L2352.76 411.173 L2352.76 93.6527 L2000.63 93.6527  Z
  " fill="#ffffff" fill-rule="evenodd" fill-opacity="1"/>
<polyline clip-path="url(#clip630)" style="stroke:#000000; stroke-width:4; stroke-opacity:1; fill:none" points="
  2000.63,411.173 2352.76,411.173 2352.76,93.6527 2000.63,93.6527 2000.63,411.173 
  "/>
<polyline clip-path="url(#clip630)" style="stroke:#0000ff; stroke-width:3.5; stroke-opacity:1; fill:none" points="
  2023.7,146.573 2162.1,146.573 
  "/>
<path clip-path="url(#clip630)" d="M 0 0 M2213.72 132.227 Q2213.72 132.617 2213.63 132.945 L2212.49 140.241 Q2212.42 140.794 2212.3 140.999 Q2212.2 141.204 2211.87 141.204 Q2211.36 141.204 2211.36 140.671 Q2211.36 140.364 2211.48 139.872 Q2211.83 137.556 2211.83 136.511 Q2211.83 135.814 2211.69 135.302 Q2211.56 134.769 2211.36 134.4 Q2211.17 134.031 2210.74 133.785 Q2210.31 133.539 2209.9 133.396 Q2209.49 133.252 2208.76 133.191 Q2208.02 133.109 2207.38 133.088 Q2206.75 133.068 2205.7 133.068 Q2203.43 133.068 2203.06 133.15 Q2202.67 133.252 2202.46 133.56 Q2202.28 133.846 2202.08 134.707 L2196.5 156.985 L2196.34 157.866 Q2196.34 158.358 2196.64 158.522 Q2196.95 158.686 2197.89 158.788 Q2199.25 158.891 2200.58 158.891 Q2200.62 158.891 2200.7 158.891 Q2201.15 158.891 2201.34 158.911 Q2201.52 158.911 2201.71 158.952 Q2201.89 158.993 2201.93 159.096 Q2201.99 159.178 2201.99 159.342 Q2201.99 159.731 2201.83 159.936 Q2201.67 160.121 2201.5 160.162 Q2201.36 160.182 2201.07 160.182 Q2200.5 160.182 2199.27 160.141 Q2198.04 160.1 2197.42 160.1 L2193.94 160.059 L2190.37 160.1 Q2189.82 160.1 2188.65 160.141 Q2187.48 160.182 2186.93 160.182 Q2186.21 160.182 2186.21 159.67 Q2186.21 159.096 2186.48 158.993 Q2186.77 158.891 2187.97 158.891 Q2189.68 158.891 2190.6 158.809 Q2191.52 158.727 2192.01 158.44 Q2192.52 158.153 2192.67 157.866 Q2192.81 157.559 2192.98 156.862 L2198.61 134.461 Q2198.78 133.969 2198.78 133.58 Q2198.78 133.375 2198.71 133.293 Q2198.67 133.211 2198.41 133.15 Q2198.14 133.068 2197.59 133.068 L2195.95 133.068 Q2194.27 133.068 2193.22 133.15 Q2192.2 133.211 2191.21 133.519 Q2190.25 133.826 2189.68 134.256 Q2189.12 134.687 2188.51 135.568 Q2187.89 136.449 2187.44 137.515 Q2187.01 138.581 2186.4 140.323 Q2186.19 140.897 2186.07 141.061 Q2185.97 141.204 2185.68 141.204 Q2185.47 141.204 2185.31 141.081 Q2185.17 140.938 2185.17 140.753 Q2185.37 140.077 2185.41 139.995 L2187.93 132.596 Q2188.14 132.002 2188.32 131.899 Q2188.53 131.776 2189.29 131.776 L2212.57 131.776 Q2212.94 131.776 2213.06 131.776 Q2213.18 131.776 2213.39 131.817 Q2213.59 131.858 2213.65 131.961 Q2213.72 132.063 2213.72 132.227 Z" fill="#000000" fill-rule="evenodd" fill-opacity="1" /><path clip-path="url(#clip630)" d="M 0 0 M2221.08 153.808 Q2221.13 153.296 2221.92 153.296 L2247.65 153.296 Q2248.85 153.296 2248.88 153.767 Q2248.88 154.28 2247.73 154.259 L2222.21 154.259 Q2221.08 154.28 2221.08 153.808 M2221.08 145.61 Q2221.08 145.098 2221.97 145.119 L2247.6 145.119 Q2248.85 145.119 2248.88 145.61 Q2248.88 146.082 2247.81 146.082 L2221.92 146.082 Q2221.08 146.082 2221.08 145.61 Z" fill="#000000" fill-rule="evenodd" fill-opacity="1" /><path clip-path="url(#clip630)" d="M 0 0 M2265.06 146.758 Q2265.06 140.589 2266.62 137.228 Q2268.79 132.227 2273.91 132.227 Q2275 132.227 2276.13 132.535 Q2277.27 132.822 2278.71 133.949 Q2280.16 135.076 2281.04 136.921 Q2282.73 140.487 2282.73 146.758 Q2282.73 152.886 2281.17 156.227 Q2278.89 161.104 2273.87 161.104 Q2271.99 161.104 2270.06 160.141 Q2268.15 159.178 2266.94 156.862 Q2265.06 153.398 2265.06 146.758 M2268.54 146.246 Q2268.54 152.579 2268.99 155.099 Q2269.51 157.825 2270.9 159.014 Q2272.31 160.182 2273.87 160.182 Q2275.55 160.182 2276.95 158.932 Q2278.36 157.661 2278.79 154.935 Q2279.26 152.251 2279.24 146.246 Q2279.24 140.405 2278.83 138.068 Q2278.28 135.343 2276.8 134.256 Q2275.35 133.15 2273.87 133.15 Q2273.32 133.15 2272.72 133.314 Q2272.15 133.478 2271.31 133.949 Q2270.47 134.42 2269.81 135.588 Q2269.18 136.757 2268.87 138.519 Q2268.54 140.794 2268.54 146.246 Z" fill="#000000" fill-rule="evenodd" fill-opacity="1" /><polyline clip-path="url(#clip630)" style="stroke:#4000bf; stroke-width:3.5; stroke-opacity:1; fill:none" points="
  2023.7,199.493 2162.1,199.493 
  "/>
<path clip-path="url(#clip630)" d="M 0 0 M2213.72 185.601 Q2213.72 185.99 2213.63 186.318 L2212.49 193.614 Q2212.42 194.167 2212.3 194.372 Q2212.2 194.577 2211.87 194.577 Q2211.36 194.577 2211.36 194.044 Q2211.36 193.737 2211.48 193.245 Q2211.83 190.929 2211.83 189.884 Q2211.83 189.187 2211.69 188.675 Q2211.56 188.142 2211.36 187.773 Q2211.17 187.404 2210.74 187.158 Q2210.31 186.912 2209.9 186.769 Q2209.49 186.625 2208.76 186.564 Q2208.02 186.482 2207.38 186.461 Q2206.75 186.441 2205.7 186.441 Q2203.43 186.441 2203.06 186.523 Q2202.67 186.625 2202.46 186.933 Q2202.28 187.22 2202.08 188.08 L2196.5 210.358 L2196.34 211.239 Q2196.34 211.731 2196.64 211.895 Q2196.95 212.059 2197.89 212.162 Q2199.25 212.264 2200.58 212.264 Q2200.62 212.264 2200.7 212.264 Q2201.15 212.264 2201.34 212.285 Q2201.52 212.285 2201.71 212.326 Q2201.89 212.366 2201.93 212.469 Q2201.99 212.551 2201.99 212.715 Q2201.99 213.104 2201.83 213.309 Q2201.67 213.494 2201.5 213.535 Q2201.36 213.555 2201.07 213.555 Q2200.5 213.555 2199.27 213.514 Q2198.04 213.473 2197.42 213.473 L2193.94 213.432 L2190.37 213.473 Q2189.82 213.473 2188.65 213.514 Q2187.48 213.555 2186.93 213.555 Q2186.21 213.555 2186.21 213.043 Q2186.21 212.469 2186.48 212.366 Q2186.77 212.264 2187.97 212.264 Q2189.68 212.264 2190.6 212.182 Q2191.52 212.1 2192.01 211.813 Q2192.52 211.526 2192.67 211.239 Q2192.81 210.932 2192.98 210.235 L2198.61 187.834 Q2198.78 187.343 2198.78 186.953 Q2198.78 186.748 2198.71 186.666 Q2198.67 186.584 2198.41 186.523 Q2198.14 186.441 2197.59 186.441 L2195.95 186.441 Q2194.27 186.441 2193.22 186.523 Q2192.2 186.584 2191.21 186.892 Q2190.25 187.199 2189.68 187.629 Q2189.12 188.06 2188.51 188.941 Q2187.89 189.822 2187.44 190.888 Q2187.01 191.954 2186.4 193.696 Q2186.19 194.27 2186.07 194.434 Q2185.97 194.577 2185.68 194.577 Q2185.47 194.577 2185.31 194.454 Q2185.17 194.311 2185.17 194.126 Q2185.37 193.45 2185.41 193.368 L2187.93 185.969 Q2188.14 185.375 2188.32 185.273 Q2188.53 185.15 2189.29 185.15 L2212.57 185.15 Q2212.94 185.15 2213.06 185.15 Q2213.18 185.15 2213.39 185.191 Q2213.59 185.232 2213.65 185.334 Q2213.72 185.437 2213.72 185.601 Z" fill="#000000" fill-rule="evenodd" fill-opacity="1" /><path clip-path="url(#clip630)" d="M 0 0 M2221.08 207.181 Q2221.13 206.669 2221.92 206.669 L2247.65 206.669 Q2248.85 206.669 2248.88 207.14 Q2248.88 207.653 2247.73 207.632 L2222.21 207.632 Q2221.08 207.653 2221.08 207.181 M2221.08 198.984 Q2221.08 198.471 2221.97 198.492 L2247.6 198.492 Q2248.85 198.492 2248.88 198.984 Q2248.88 199.455 2247.81 199.455 L2221.92 199.455 Q2221.08 199.455 2221.08 198.984 Z" fill="#000000" fill-rule="evenodd" fill-opacity="1" /><path clip-path="url(#clip630)" d="M 0 0 M2265.06 189.597 L2265.06 188.285 Q2270.1 188.285 2272.7 185.601 Q2273.42 185.601 2273.54 185.764 Q2273.67 185.928 2273.67 186.687 L2273.67 210.235 Q2273.67 211.485 2274.28 211.875 Q2274.9 212.264 2277.58 212.264 L2278.91 212.264 L2278.91 213.555 Q2277.44 213.432 2272.11 213.432 Q2266.78 213.432 2265.33 213.555 L2265.33 212.264 L2266.66 212.264 Q2269.3 212.264 2269.94 211.895 Q2270.57 211.506 2270.57 210.235 L2270.57 188.49 Q2268.38 189.597 2265.06 189.597 Z" fill="#000000" fill-rule="evenodd" fill-opacity="1" /><polyline clip-path="url(#clip630)" style="stroke:#7f0080; stroke-width:3.5; stroke-opacity:1; fill:none" points="
  2023.7,252.413 2162.1,252.413 
  "/>
<path clip-path="url(#clip630)" d="M 0 0 M2213.72 238.067 Q2213.72 238.457 2213.63 238.785 L2212.49 246.081 Q2212.42 246.634 2212.3 246.839 Q2212.2 247.044 2211.87 247.044 Q2211.36 247.044 2211.36 246.511 Q2211.36 246.204 2211.48 245.712 Q2211.83 243.396 2211.83 242.351 Q2211.83 241.654 2211.69 241.142 Q2211.56 240.609 2211.36 240.24 Q2211.17 239.871 2210.74 239.625 Q2210.31 239.379 2209.9 239.236 Q2209.49 239.092 2208.76 239.031 Q2208.02 238.949 2207.38 238.928 Q2206.75 238.908 2205.7 238.908 Q2203.43 238.908 2203.06 238.99 Q2202.67 239.092 2202.46 239.4 Q2202.28 239.686 2202.08 240.547 L2196.5 262.825 L2196.34 263.706 Q2196.34 264.198 2196.64 264.362 Q2196.95 264.526 2197.89 264.628 Q2199.25 264.731 2200.58 264.731 Q2200.62 264.731 2200.7 264.731 Q2201.15 264.731 2201.34 264.751 Q2201.52 264.751 2201.71 264.792 Q2201.89 264.833 2201.93 264.936 Q2201.99 265.018 2201.99 265.182 Q2201.99 265.571 2201.83 265.776 Q2201.67 265.961 2201.5 266.002 Q2201.36 266.022 2201.07 266.022 Q2200.5 266.022 2199.27 265.981 Q2198.04 265.94 2197.42 265.94 L2193.94 265.899 L2190.37 265.94 Q2189.82 265.94 2188.65 265.981 Q2187.48 266.022 2186.93 266.022 Q2186.21 266.022 2186.21 265.51 Q2186.21 264.936 2186.48 264.833 Q2186.77 264.731 2187.97 264.731 Q2189.68 264.731 2190.6 264.649 Q2191.52 264.567 2192.01 264.28 Q2192.52 263.993 2192.67 263.706 Q2192.81 263.399 2192.98 262.702 L2198.61 240.301 Q2198.78 239.809 2198.78 239.42 Q2198.78 239.215 2198.71 239.133 Q2198.67 239.051 2198.41 238.99 Q2198.14 238.908 2197.59 238.908 L2195.95 238.908 Q2194.27 238.908 2193.22 238.99 Q2192.2 239.051 2191.21 239.359 Q2190.25 239.666 2189.68 240.096 Q2189.12 240.527 2188.51 241.408 Q2187.89 242.289 2187.44 243.355 Q2187.01 244.421 2186.4 246.163 Q2186.19 246.737 2186.07 246.901 Q2185.97 247.044 2185.68 247.044 Q2185.47 247.044 2185.31 246.921 Q2185.17 246.778 2185.17 246.593 Q2185.37 245.917 2185.41 245.835 L2187.93 238.436 Q2188.14 237.842 2188.32 237.739 Q2188.53 237.616 2189.29 237.616 L2212.57 237.616 Q2212.94 237.616 2213.06 237.616 Q2213.18 237.616 2213.39 237.657 Q2213.59 237.698 2213.65 237.801 Q2213.72 237.903 2213.72 238.067 Z" fill="#000000" fill-rule="evenodd" fill-opacity="1" /><path clip-path="url(#clip630)" d="M 0 0 M2221.08 259.648 Q2221.13 259.136 2221.92 259.136 L2247.65 259.136 Q2248.85 259.136 2248.88 259.607 Q2248.88 260.12 2247.73 260.099 L2222.21 260.099 Q2221.08 260.12 2221.08 259.648 M2221.08 251.45 Q2221.08 250.938 2221.97 250.959 L2247.6 250.959 Q2248.85 250.959 2248.88 251.45 Q2248.88 251.922 2247.81 251.922 L2221.92 251.922 Q2221.08 251.922 2221.08 251.45 Z" fill="#000000" fill-rule="evenodd" fill-opacity="1" /><path clip-path="url(#clip630)" d="M 0 0 M2265.06 259.259 Q2265.06 258.009 2265.74 257.537 Q2266.41 257.045 2267.13 257.045 Q2268.09 257.045 2268.65 257.66 Q2269.22 258.255 2269.22 259.095 Q2269.22 259.935 2268.65 260.55 Q2268.09 261.144 2267.13 261.144 Q2266.66 261.144 2266.41 261.062 Q2266.96 262.989 2268.65 264.382 Q2270.35 265.776 2272.58 265.776 Q2275.39 265.776 2277.07 263.05 Q2278.07 261.288 2278.07 257.291 Q2278.07 253.766 2277.31 252.004 Q2276.15 249.319 2273.75 249.319 Q2270.35 249.319 2268.34 252.25 Q2268.09 252.619 2267.81 252.639 Q2267.4 252.639 2267.29 252.414 Q2267.21 252.168 2267.21 251.532 L2267.21 239.113 Q2267.21 238.108 2267.62 238.108 Q2267.78 238.108 2268.13 238.231 Q2270.78 239.4 2273.71 239.42 Q2276.72 239.42 2279.43 238.19 Q2279.63 238.067 2279.75 238.067 Q2280.16 238.067 2280.18 238.539 Q2280.18 238.703 2279.84 239.195 Q2279.51 239.666 2278.79 240.301 Q2278.07 240.916 2277.15 241.51 Q2276.23 242.105 2274.88 242.515 Q2273.54 242.904 2272.07 242.904 Q2270.31 242.904 2268.5 242.351 L2268.5 250.528 Q2270.67 248.397 2273.83 248.397 Q2277.19 248.397 2279.51 251.102 Q2281.82 253.807 2281.82 257.578 Q2281.82 261.534 2279.08 264.239 Q2276.35 266.944 2272.66 266.944 Q2269.3 266.944 2267.17 264.546 Q2265.06 262.149 2265.06 259.259 Z" fill="#000000" fill-rule="evenodd" fill-opacity="1" /><polyline clip-path="url(#clip630)" style="stroke:#bf0040; stroke-width:3.5; stroke-opacity:1; fill:none" points="
  2023.7,305.333 2162.1,305.333 
  "/>
<path clip-path="url(#clip630)" d="M 0 0 M2213.72 290.987 Q2213.72 291.377 2213.63 291.705 L2212.49 299.001 Q2212.42 299.554 2212.3 299.759 Q2212.2 299.964 2211.87 299.964 Q2211.36 299.964 2211.36 299.431 Q2211.36 299.124 2211.48 298.632 Q2211.83 296.316 2211.83 295.271 Q2211.83 294.574 2211.69 294.062 Q2211.56 293.529 2211.36 293.16 Q2211.17 292.791 2210.74 292.545 Q2210.31 292.299 2209.9 292.156 Q2209.49 292.012 2208.76 291.951 Q2208.02 291.869 2207.38 291.848 Q2206.75 291.828 2205.7 291.828 Q2203.43 291.828 2203.06 291.91 Q2202.67 292.012 2202.46 292.32 Q2202.28 292.606 2202.08 293.467 L2196.5 315.745 L2196.34 316.626 Q2196.34 317.118 2196.64 317.282 Q2196.95 317.446 2197.89 317.548 Q2199.25 317.651 2200.58 317.651 Q2200.62 317.651 2200.7 317.651 Q2201.15 317.651 2201.34 317.671 Q2201.52 317.671 2201.71 317.712 Q2201.89 317.753 2201.93 317.856 Q2201.99 317.938 2201.99 318.102 Q2201.99 318.491 2201.83 318.696 Q2201.67 318.881 2201.5 318.922 Q2201.36 318.942 2201.07 318.942 Q2200.5 318.942 2199.27 318.901 Q2198.04 318.86 2197.42 318.86 L2193.94 318.819 L2190.37 318.86 Q2189.82 318.86 2188.65 318.901 Q2187.48 318.942 2186.93 318.942 Q2186.21 318.942 2186.21 318.43 Q2186.21 317.856 2186.48 317.753 Q2186.77 317.651 2187.97 317.651 Q2189.68 317.651 2190.6 317.569 Q2191.52 317.487 2192.01 317.2 Q2192.52 316.913 2192.67 316.626 Q2192.81 316.319 2192.98 315.622 L2198.61 293.221 Q2198.78 292.729 2198.78 292.34 Q2198.78 292.135 2198.71 292.053 Q2198.67 291.971 2198.41 291.91 Q2198.14 291.828 2197.59 291.828 L2195.95 291.828 Q2194.27 291.828 2193.22 291.91 Q2192.2 291.971 2191.21 292.279 Q2190.25 292.586 2189.68 293.016 Q2189.12 293.447 2188.51 294.328 Q2187.89 295.209 2187.44 296.275 Q2187.01 297.341 2186.4 299.083 Q2186.19 299.657 2186.07 299.821 Q2185.97 299.964 2185.68 299.964 Q2185.47 299.964 2185.31 299.841 Q2185.17 299.698 2185.17 299.513 Q2185.37 298.837 2185.41 298.755 L2187.93 291.356 Q2188.14 290.762 2188.32 290.659 Q2188.53 290.536 2189.29 290.536 L2212.57 290.536 Q2212.94 290.536 2213.06 290.536 Q2213.18 290.536 2213.39 290.577 Q2213.59 290.618 2213.65 290.721 Q2213.72 290.823 2213.72 290.987 Z" fill="#000000" fill-rule="evenodd" fill-opacity="1" /><path clip-path="url(#clip630)" d="M 0 0 M2221.08 312.568 Q2221.13 312.056 2221.92 312.056 L2247.65 312.056 Q2248.85 312.056 2248.88 312.527 Q2248.88 313.04 2247.73 313.019 L2222.21 313.019 Q2221.08 313.04 2221.08 312.568 M2221.08 304.37 Q2221.08 303.858 2221.97 303.879 L2247.6 303.879 Q2248.85 303.879 2248.88 304.37 Q2248.88 304.842 2247.81 304.842 L2221.92 304.842 Q2221.08 304.842 2221.08 304.37 Z" fill="#000000" fill-rule="evenodd" fill-opacity="1" /><path clip-path="url(#clip630)" d="M 0 0 M2265.06 294.984 L2265.06 293.672 Q2270.1 293.672 2272.7 290.987 Q2273.42 290.987 2273.54 291.151 Q2273.67 291.315 2273.67 292.074 L2273.67 315.622 Q2273.67 316.872 2274.28 317.262 Q2274.9 317.651 2277.58 317.651 L2278.91 317.651 L2278.91 318.942 Q2277.44 318.819 2272.11 318.819 Q2266.78 318.819 2265.33 318.942 L2265.33 317.651 L2266.66 317.651 Q2269.3 317.651 2269.94 317.282 Q2270.57 316.893 2270.57 315.622 L2270.57 293.877 Q2268.38 294.984 2265.06 294.984 Z" fill="#000000" fill-rule="evenodd" fill-opacity="1" /><path clip-path="url(#clip630)" d="M 0 0 M2282.47 305.518 Q2282.47 299.349 2284.02 295.988 Q2286.2 290.987 2291.32 290.987 Q2292.41 290.987 2293.53 291.295 Q2294.68 291.582 2296.11 292.709 Q2297.57 293.836 2298.45 295.681 Q2300.13 299.247 2300.13 305.518 Q2300.13 311.646 2298.57 314.987 Q2296.3 319.864 2291.28 319.864 Q2289.39 319.864 2287.47 318.901 Q2285.56 317.938 2284.35 315.622 Q2282.47 312.158 2282.47 305.518 M2285.95 305.006 Q2285.95 311.339 2286.4 313.859 Q2286.91 316.585 2288.31 317.774 Q2289.72 318.942 2291.28 318.942 Q2292.96 318.942 2294.35 317.692 Q2295.77 316.421 2296.2 313.695 Q2296.67 311.011 2296.65 305.006 Q2296.65 299.165 2296.24 296.828 Q2295.68 294.103 2294.21 293.016 Q2292.75 291.91 2291.28 291.91 Q2290.72 291.91 2290.13 292.074 Q2289.56 292.238 2288.72 292.709 Q2287.88 293.18 2287.22 294.348 Q2286.58 295.517 2286.28 297.279 Q2285.95 299.554 2285.95 305.006 Z" fill="#000000" fill-rule="evenodd" fill-opacity="1" /><polyline clip-path="url(#clip630)" style="stroke:#ff0000; stroke-width:3.5; stroke-opacity:1; fill:none" points="
  2023.7,358.253 2162.1,358.253 
  "/>
<path clip-path="url(#clip630)" d="M 0 0 M2213.72 343.907 Q2213.72 344.297 2213.63 344.625 L2212.49 351.921 Q2212.42 352.474 2212.3 352.679 Q2212.2 352.884 2211.87 352.884 Q2211.36 352.884 2211.36 352.351 Q2211.36 352.044 2211.48 351.552 Q2211.83 349.236 2211.83 348.191 Q2211.83 347.494 2211.69 346.982 Q2211.56 346.449 2211.36 346.08 Q2211.17 345.711 2210.74 345.465 Q2210.31 345.219 2209.9 345.076 Q2209.49 344.932 2208.76 344.871 Q2208.02 344.789 2207.38 344.768 Q2206.75 344.748 2205.7 344.748 Q2203.43 344.748 2203.06 344.83 Q2202.67 344.932 2202.46 345.24 Q2202.28 345.526 2202.08 346.387 L2196.5 368.665 L2196.34 369.546 Q2196.34 370.038 2196.64 370.202 Q2196.95 370.366 2197.89 370.468 Q2199.25 370.571 2200.58 370.571 Q2200.62 370.571 2200.7 370.571 Q2201.15 370.571 2201.34 370.591 Q2201.52 370.591 2201.71 370.632 Q2201.89 370.673 2201.93 370.776 Q2201.99 370.858 2201.99 371.022 Q2201.99 371.411 2201.83 371.616 Q2201.67 371.801 2201.5 371.842 Q2201.36 371.862 2201.07 371.862 Q2200.5 371.862 2199.27 371.821 Q2198.04 371.78 2197.42 371.78 L2193.94 371.739 L2190.37 371.78 Q2189.82 371.78 2188.65 371.821 Q2187.48 371.862 2186.93 371.862 Q2186.21 371.862 2186.21 371.35 Q2186.21 370.776 2186.48 370.673 Q2186.77 370.571 2187.97 370.571 Q2189.68 370.571 2190.6 370.489 Q2191.52 370.407 2192.01 370.12 Q2192.52 369.833 2192.67 369.546 Q2192.81 369.239 2192.98 368.542 L2198.61 346.141 Q2198.78 345.649 2198.78 345.26 Q2198.78 345.055 2198.71 344.973 Q2198.67 344.891 2198.41 344.83 Q2198.14 344.748 2197.59 344.748 L2195.95 344.748 Q2194.27 344.748 2193.22 344.83 Q2192.2 344.891 2191.21 345.199 Q2190.25 345.506 2189.68 345.936 Q2189.12 346.367 2188.51 347.248 Q2187.89 348.129 2187.44 349.195 Q2187.01 350.261 2186.4 352.003 Q2186.19 352.577 2186.07 352.741 Q2185.97 352.884 2185.68 352.884 Q2185.47 352.884 2185.31 352.761 Q2185.17 352.618 2185.17 352.433 Q2185.37 351.757 2185.41 351.675 L2187.93 344.276 Q2188.14 343.682 2188.32 343.579 Q2188.53 343.456 2189.29 343.456 L2212.57 343.456 Q2212.94 343.456 2213.06 343.456 Q2213.18 343.456 2213.39 343.497 Q2213.59 343.538 2213.65 343.641 Q2213.72 343.743 2213.72 343.907 Z" fill="#000000" fill-rule="evenodd" fill-opacity="1" /><path clip-path="url(#clip630)" d="M 0 0 M2221.08 365.488 Q2221.13 364.976 2221.92 364.976 L2247.65 364.976 Q2248.85 364.976 2248.88 365.447 Q2248.88 365.96 2247.73 365.939 L2222.21 365.939 Q2221.08 365.96 2221.08 365.488 M2221.08 357.29 Q2221.08 356.778 2221.97 356.799 L2247.6 356.799 Q2248.85 356.799 2248.88 357.29 Q2248.88 357.762 2247.81 357.762 L2221.92 357.762 Q2221.08 357.762 2221.08 357.29 Z" fill="#000000" fill-rule="evenodd" fill-opacity="1" /><path clip-path="url(#clip630)" d="M 0 0 M2265.06 366.206 Q2265.06 364.955 2265.78 364.361 Q2266.49 363.767 2267.42 363.767 Q2268.38 363.767 2269.06 364.402 Q2269.75 365.017 2269.75 366.103 Q2269.75 367.271 2268.93 367.927 Q2268.13 368.583 2266.99 368.419 Q2267.99 370.1 2269.83 370.858 Q2271.7 371.616 2273.42 371.616 Q2275.22 371.616 2276.68 370.059 Q2278.16 368.501 2278.16 364.689 Q2278.16 361.451 2276.88 359.586 Q2275.63 357.721 2273.15 357.721 L2271.31 357.721 Q2270.67 357.721 2270.49 357.659 Q2270.31 357.598 2270.31 357.249 Q2270.31 356.839 2270.94 356.758 Q2271.58 356.758 2272.58 356.635 Q2275.02 356.553 2276.31 354.442 Q2277.48 352.474 2277.48 349.666 Q2277.48 347.105 2276.25 346.039 Q2275.04 344.953 2273.46 344.953 Q2271.99 344.953 2270.37 345.567 Q2268.75 346.182 2267.87 347.555 Q2270.47 347.555 2270.47 349.666 Q2270.47 350.589 2269.88 351.203 Q2269.3 351.798 2268.34 351.798 Q2267.42 351.798 2266.8 351.224 Q2266.19 350.63 2266.19 349.625 Q2266.19 347.228 2268.32 345.567 Q2270.47 343.907 2273.63 343.907 Q2276.74 343.907 2279.04 345.547 Q2281.35 347.187 2281.35 349.707 Q2281.35 352.187 2279.71 354.216 Q2278.07 356.245 2275.47 357.085 Q2278.67 357.721 2280.57 359.893 Q2282.48 362.045 2282.48 364.689 Q2282.48 367.968 2279.9 370.386 Q2277.31 372.784 2273.54 372.784 Q2270.06 372.784 2267.56 370.899 Q2265.06 369.013 2265.06 366.206 Z" fill="#000000" fill-rule="evenodd" fill-opacity="1" /><path clip-path="url(#clip630)" d="M 0 0 M2285.84 358.438 Q2285.84 352.269 2287.4 348.908 Q2289.57 343.907 2294.69 343.907 Q2295.78 343.907 2296.91 344.215 Q2298.06 344.502 2299.49 345.629 Q2300.94 346.756 2301.83 348.601 Q2303.51 352.167 2303.51 358.438 Q2303.51 364.566 2301.95 367.907 Q2299.67 372.784 2294.65 372.784 Q2292.77 372.784 2290.84 371.821 Q2288.93 370.858 2287.73 368.542 Q2285.84 365.078 2285.84 358.438 M2289.32 357.926 Q2289.32 364.259 2289.78 366.779 Q2290.29 369.505 2291.68 370.694 Q2293.1 371.862 2294.65 371.862 Q2296.33 371.862 2297.73 370.612 Q2299.14 369.341 2299.57 366.615 Q2300.04 363.931 2300.02 357.926 Q2300.02 352.085 2299.61 349.748 Q2299.06 347.023 2297.58 345.936 Q2296.13 344.83 2294.65 344.83 Q2294.1 344.83 2293.51 344.994 Q2292.93 345.158 2292.09 345.629 Q2291.25 346.1 2290.59 347.268 Q2289.96 348.437 2289.65 350.199 Q2289.32 352.474 2289.32 357.926 Z" fill="#000000" fill-rule="evenodd" fill-opacity="1" /></svg>
