<?xml version="1.0" encoding="utf-8"?>
<svg xmlns="http://www.w3.org/2000/svg" xmlns:xlink="http://www.w3.org/1999/xlink" width="600" height="400" viewBox="0 0 2400 1600">
<defs>
  <clipPath id="clip490">
    <rect x="0" y="0" width="2400" height="1600"/>
  </clipPath>
</defs>
<path clip-path="url(#clip490)" d="
M0 1600 L2400 1600 L2400 0 L0 0  Z
  " fill="#ffffff" fill-rule="evenodd" fill-opacity="1"/>
<defs>
  <clipPath id="clip491">
    <rect x="480" y="0" width="1681" height="1600"/>
  </clipPath>
</defs>
<defs>
  <clipPath id="clip492">
    <rect x="246" y="47" width="1681" height="1393"/>
  </clipPath>
</defs>
<path clip-path="url(#clip490)" d="
M276.706 1439.5 L1931.43 1439.5 L1931.43 47.2441 L276.706 47.2441  Z
  " fill="#ffffff" fill-rule="evenodd" fill-opacity="1"/>
<defs>
  <clipPath id="clip493">
    <rect x="276" y="47" width="1656" height="1393"/>
  </clipPath>
</defs>
<polyline clip-path="url(#clip493)" style="stroke:#000000; stroke-width:2; stroke-opacity:0.1; fill:none" points="
  323.225,1439.5 323.225,47.2441 
  "/>
<polyline clip-path="url(#clip493)" style="stroke:#000000; stroke-width:2; stroke-opacity:0.1; fill:none" points="
  635.499,1439.5 635.499,47.2441 
  "/>
<polyline clip-path="url(#clip493)" style="stroke:#000000; stroke-width:2; stroke-opacity:0.1; fill:none" points="
  947.774,1439.5 947.774,47.2441 
  "/>
<polyline clip-path="url(#clip493)" style="stroke:#000000; stroke-width:2; stroke-opacity:0.1; fill:none" points="
  1260.05,1439.5 1260.05,47.2441 
  "/>
<polyline clip-path="url(#clip493)" style="stroke:#000000; stroke-width:2; stroke-opacity:0.1; fill:none" points="
  1572.32,1439.5 1572.32,47.2441 
  "/>
<polyline clip-path="url(#clip493)" style="stroke:#000000; stroke-width:2; stroke-opacity:0.1; fill:none" points="
  1884.6,1439.5 1884.6,47.2441 
  "/>
<polyline clip-path="url(#clip490)" style="stroke:#000000; stroke-width:4; stroke-opacity:1; fill:none" points="
  276.706,1439.5 1931.43,1439.5 
  "/>
<polyline clip-path="url(#clip490)" style="stroke:#000000; stroke-width:4; stroke-opacity:1; fill:none" points="
  323.225,1439.5 323.225,1422.79 
  "/>
<polyline clip-path="url(#clip490)" style="stroke:#000000; stroke-width:4; stroke-opacity:1; fill:none" points="
  635.499,1439.5 635.499,1422.79 
  "/>
<polyline clip-path="url(#clip490)" style="stroke:#000000; stroke-width:4; stroke-opacity:1; fill:none" points="
  947.774,1439.5 947.774,1422.79 
  "/>
<polyline clip-path="url(#clip490)" style="stroke:#000000; stroke-width:4; stroke-opacity:1; fill:none" points="
  1260.05,1439.5 1260.05,1422.79 
  "/>
<polyline clip-path="url(#clip490)" style="stroke:#000000; stroke-width:4; stroke-opacity:1; fill:none" points="
  1572.32,1439.5 1572.32,1422.79 
  "/>
<polyline clip-path="url(#clip490)" style="stroke:#000000; stroke-width:4; stroke-opacity:1; fill:none" points="
  1884.6,1439.5 1884.6,1422.79 
  "/>
<path clip-path="url(#clip490)" d="M 0 0 M323.225 1468.69 Q319.614 1468.69 317.786 1472.26 Q315.98 1475.8 315.98 1482.93 Q315.98 1490.04 317.786 1493.6 Q319.614 1497.14 323.225 1497.14 Q326.86 1497.14 328.665 1493.6 Q330.494 1490.04 330.494 1482.93 Q330.494 1475.8 328.665 1472.26 Q326.86 1468.69 323.225 1468.69 M323.225 1464.99 Q329.036 1464.99 332.091 1469.6 Q335.17 1474.18 335.17 1482.93 Q335.17 1491.66 332.091 1496.26 Q329.036 1500.85 323.225 1500.85 Q317.415 1500.85 314.337 1496.26 Q311.281 1491.66 311.281 1482.93 Q311.281 1474.18 314.337 1469.6 Q317.415 1464.99 323.225 1464.99 Z" fill="#000000" fill-rule="evenodd" fill-opacity="1" /><path clip-path="url(#clip490)" d="M 0 0 M595.106 1496.24 L602.745 1496.24 L602.745 1469.87 L594.435 1471.54 L594.435 1467.28 L602.699 1465.61 L607.375 1465.61 L607.375 1496.24 L615.013 1496.24 L615.013 1500.17 L595.106 1500.17 L595.106 1496.24 Z" fill="#000000" fill-rule="evenodd" fill-opacity="1" /><path clip-path="url(#clip490)" d="M 0 0 M634.458 1468.69 Q630.847 1468.69 629.018 1472.26 Q627.212 1475.8 627.212 1482.93 Q627.212 1490.04 629.018 1493.6 Q630.847 1497.14 634.458 1497.14 Q638.092 1497.14 639.898 1493.6 Q641.726 1490.04 641.726 1482.93 Q641.726 1475.8 639.898 1472.26 Q638.092 1468.69 634.458 1468.69 M634.458 1464.99 Q640.268 1464.99 643.323 1469.6 Q646.402 1474.18 646.402 1482.93 Q646.402 1491.66 643.323 1496.26 Q640.268 1500.85 634.458 1500.85 Q628.648 1500.85 625.569 1496.26 Q622.513 1491.66 622.513 1482.93 Q622.513 1474.18 625.569 1469.6 Q628.648 1464.99 634.458 1464.99 Z" fill="#000000" fill-rule="evenodd" fill-opacity="1" /><path clip-path="url(#clip490)" d="M 0 0 M664.62 1468.69 Q661.009 1468.69 659.18 1472.26 Q657.374 1475.8 657.374 1482.93 Q657.374 1490.04 659.18 1493.6 Q661.009 1497.14 664.62 1497.14 Q668.254 1497.14 670.059 1493.6 Q671.888 1490.04 671.888 1482.93 Q671.888 1475.8 670.059 1472.26 Q668.254 1468.69 664.62 1468.69 M664.62 1464.99 Q670.43 1464.99 673.485 1469.6 Q676.564 1474.18 676.564 1482.93 Q676.564 1491.66 673.485 1496.26 Q670.43 1500.85 664.62 1500.85 Q658.81 1500.85 655.731 1496.26 Q652.675 1491.66 652.675 1482.93 Q652.675 1474.18 655.731 1469.6 Q658.81 1464.99 664.62 1464.99 Z" fill="#000000" fill-rule="evenodd" fill-opacity="1" /><path clip-path="url(#clip490)" d="M 0 0 M911.466 1496.24 L927.785 1496.24 L927.785 1500.17 L905.841 1500.17 L905.841 1496.24 Q908.503 1493.48 913.086 1488.85 Q917.693 1484.2 918.873 1482.86 Q921.119 1480.34 921.998 1478.6 Q922.901 1476.84 922.901 1475.15 Q922.901 1472.4 920.957 1470.66 Q919.035 1468.92 915.933 1468.92 Q913.734 1468.92 911.281 1469.69 Q908.85 1470.45 906.072 1472 L906.072 1467.28 Q908.896 1466.15 911.35 1465.57 Q913.804 1464.99 915.841 1464.99 Q921.211 1464.99 924.406 1467.67 Q927.6 1470.36 927.6 1474.85 Q927.6 1476.98 926.79 1478.9 Q926.003 1480.8 923.896 1483.39 Q923.318 1484.06 920.216 1487.28 Q917.114 1490.47 911.466 1496.24 Z" fill="#000000" fill-rule="evenodd" fill-opacity="1" /><path clip-path="url(#clip490)" d="M 0 0 M947.6 1468.69 Q943.989 1468.69 942.16 1472.26 Q940.355 1475.8 940.355 1482.93 Q940.355 1490.04 942.16 1493.6 Q943.989 1497.14 947.6 1497.14 Q951.234 1497.14 953.04 1493.6 Q954.868 1490.04 954.868 1482.93 Q954.868 1475.8 953.04 1472.26 Q951.234 1468.69 947.6 1468.69 M947.6 1464.99 Q953.41 1464.99 956.466 1469.6 Q959.544 1474.18 959.544 1482.93 Q959.544 1491.66 956.466 1496.26 Q953.41 1500.85 947.6 1500.85 Q941.79 1500.85 938.711 1496.26 Q935.656 1491.66 935.656 1482.93 Q935.656 1474.18 938.711 1469.6 Q941.79 1464.99 947.6 1464.99 Z" fill="#000000" fill-rule="evenodd" fill-opacity="1" /><path clip-path="url(#clip490)" d="M 0 0 M977.762 1468.69 Q974.151 1468.69 972.322 1472.26 Q970.516 1475.8 970.516 1482.93 Q970.516 1490.04 972.322 1493.6 Q974.151 1497.14 977.762 1497.14 Q981.396 1497.14 983.202 1493.6 Q985.03 1490.04 985.03 1482.93 Q985.03 1475.8 983.202 1472.26 Q981.396 1468.69 977.762 1468.69 M977.762 1464.99 Q983.572 1464.99 986.628 1469.6 Q989.706 1474.18 989.706 1482.93 Q989.706 1491.66 986.628 1496.26 Q983.572 1500.85 977.762 1500.85 Q971.952 1500.85 968.873 1496.26 Q965.817 1491.66 965.817 1482.93 Q965.817 1474.18 968.873 1469.6 Q971.952 1464.99 977.762 1464.99 Z" fill="#000000" fill-rule="evenodd" fill-opacity="1" /><path clip-path="url(#clip490)" d="M 0 0 M1233.81 1481.54 Q1237.17 1482.26 1239.04 1484.53 Q1240.94 1486.79 1240.94 1490.13 Q1240.94 1495.24 1237.42 1498.04 Q1233.9 1500.85 1227.42 1500.85 Q1225.24 1500.85 1222.93 1500.41 Q1220.64 1499.99 1218.18 1499.13 L1218.18 1494.62 Q1220.13 1495.75 1222.44 1496.33 Q1224.76 1496.91 1227.28 1496.91 Q1231.68 1496.91 1233.97 1495.17 Q1236.29 1493.44 1236.29 1490.13 Q1236.29 1487.07 1234.13 1485.36 Q1232 1483.62 1228.18 1483.62 L1224.16 1483.62 L1224.16 1479.78 L1228.37 1479.78 Q1231.82 1479.78 1233.65 1478.41 Q1235.48 1477.03 1235.48 1474.43 Q1235.48 1471.77 1233.58 1470.36 Q1231.7 1468.92 1228.18 1468.92 Q1226.26 1468.92 1224.06 1469.34 Q1221.86 1469.76 1219.23 1470.64 L1219.23 1466.47 Q1221.89 1465.73 1224.2 1465.36 Q1226.54 1464.99 1228.6 1464.99 Q1233.93 1464.99 1237.03 1467.42 Q1240.13 1469.83 1240.13 1473.95 Q1240.13 1476.82 1238.49 1478.81 Q1236.84 1480.78 1233.81 1481.54 Z" fill="#000000" fill-rule="evenodd" fill-opacity="1" /><path clip-path="url(#clip490)" d="M 0 0 M1259.8 1468.69 Q1256.19 1468.69 1254.36 1472.26 Q1252.56 1475.8 1252.56 1482.93 Q1252.56 1490.04 1254.36 1493.6 Q1256.19 1497.14 1259.8 1497.14 Q1263.44 1497.14 1265.24 1493.6 Q1267.07 1490.04 1267.07 1482.93 Q1267.07 1475.8 1265.24 1472.26 Q1263.44 1468.69 1259.8 1468.69 M1259.8 1464.99 Q1265.61 1464.99 1268.67 1469.6 Q1271.75 1474.18 1271.75 1482.93 Q1271.75 1491.66 1268.67 1496.26 Q1265.61 1500.85 1259.8 1500.85 Q1253.99 1500.85 1250.92 1496.26 Q1247.86 1491.66 1247.86 1482.93 Q1247.86 1474.18 1250.92 1469.6 Q1253.99 1464.99 1259.8 1464.99 Z" fill="#000000" fill-rule="evenodd" fill-opacity="1" /><path clip-path="url(#clip490)" d="M 0 0 M1289.97 1468.69 Q1286.36 1468.69 1284.53 1472.26 Q1282.72 1475.8 1282.72 1482.93 Q1282.72 1490.04 1284.53 1493.6 Q1286.36 1497.14 1289.97 1497.14 Q1293.6 1497.14 1295.41 1493.6 Q1297.23 1490.04 1297.23 1482.93 Q1297.23 1475.8 1295.41 1472.26 Q1293.6 1468.69 1289.97 1468.69 M1289.97 1464.99 Q1295.78 1464.99 1298.83 1469.6 Q1301.91 1474.18 1301.91 1482.93 Q1301.91 1491.66 1298.83 1496.26 Q1295.78 1500.85 1289.97 1500.85 Q1284.16 1500.85 1281.08 1496.26 Q1278.02 1491.66 1278.02 1482.93 Q1278.02 1474.18 1281.08 1469.6 Q1284.16 1464.99 1289.97 1464.99 Z" fill="#000000" fill-rule="evenodd" fill-opacity="1" /><path clip-path="url(#clip490)" d="M 0 0 M1545.41 1469.69 L1533.61 1488.14 L1545.41 1488.14 L1545.41 1469.69 M1544.19 1465.61 L1550.06 1465.61 L1550.06 1488.14 L1555 1488.14 L1555 1492.03 L1550.06 1492.03 L1550.06 1500.17 L1545.41 1500.17 L1545.41 1492.03 L1529.81 1492.03 L1529.81 1487.51 L1544.19 1465.61 Z" fill="#000000" fill-rule="evenodd" fill-opacity="1" /><path clip-path="url(#clip490)" d="M 0 0 M1572.73 1468.69 Q1569.12 1468.69 1567.29 1472.26 Q1565.48 1475.8 1565.48 1482.93 Q1565.48 1490.04 1567.29 1493.6 Q1569.12 1497.14 1572.73 1497.14 Q1576.36 1497.14 1578.17 1493.6 Q1580 1490.04 1580 1482.93 Q1580 1475.8 1578.17 1472.26 Q1576.36 1468.69 1572.73 1468.69 M1572.73 1464.99 Q1578.54 1464.99 1581.59 1469.6 Q1584.67 1474.18 1584.67 1482.93 Q1584.67 1491.66 1581.59 1496.26 Q1578.54 1500.85 1572.73 1500.85 Q1566.92 1500.85 1563.84 1496.26 Q1560.78 1491.66 1560.78 1482.93 Q1560.78 1474.18 1563.84 1469.6 Q1566.92 1464.99 1572.73 1464.99 Z" fill="#000000" fill-rule="evenodd" fill-opacity="1" /><path clip-path="url(#clip490)" d="M 0 0 M1602.89 1468.69 Q1599.28 1468.69 1597.45 1472.26 Q1595.64 1475.8 1595.64 1482.93 Q1595.64 1490.04 1597.45 1493.6 Q1599.28 1497.14 1602.89 1497.14 Q1606.52 1497.14 1608.33 1493.6 Q1610.16 1490.04 1610.16 1482.93 Q1610.16 1475.8 1608.33 1472.26 Q1606.52 1468.69 1602.89 1468.69 M1602.89 1464.99 Q1608.7 1464.99 1611.75 1469.6 Q1614.83 1474.18 1614.83 1482.93 Q1614.83 1491.66 1611.75 1496.26 Q1608.7 1500.85 1602.89 1500.85 Q1597.08 1500.85 1594 1496.26 Q1590.94 1491.66 1590.94 1482.93 Q1590.94 1474.18 1594 1469.6 Q1597.08 1464.99 1602.89 1464.99 Z" fill="#000000" fill-rule="evenodd" fill-opacity="1" /><path clip-path="url(#clip490)" d="M 0 0 M1844.21 1465.61 L1862.57 1465.61 L1862.57 1469.55 L1848.5 1469.55 L1848.5 1478.02 Q1849.52 1477.67 1850.53 1477.51 Q1851.55 1477.33 1852.57 1477.33 Q1858.36 1477.33 1861.74 1480.5 Q1865.12 1483.67 1865.12 1489.09 Q1865.12 1494.66 1861.64 1497.77 Q1858.17 1500.85 1851.85 1500.85 Q1849.68 1500.85 1847.41 1500.47 Q1845.16 1500.1 1842.76 1499.36 L1842.76 1494.66 Q1844.84 1495.8 1847.06 1496.35 Q1849.28 1496.91 1851.76 1496.91 Q1855.76 1496.91 1858.1 1494.8 Q1860.44 1492.7 1860.44 1489.09 Q1860.44 1485.47 1858.1 1483.37 Q1855.76 1481.26 1851.76 1481.26 Q1849.89 1481.26 1848.01 1481.68 Q1846.16 1482.1 1844.21 1482.97 L1844.21 1465.61 Z" fill="#000000" fill-rule="evenodd" fill-opacity="1" /><path clip-path="url(#clip490)" d="M 0 0 M1884.33 1468.69 Q1880.72 1468.69 1878.89 1472.26 Q1877.08 1475.8 1877.08 1482.93 Q1877.08 1490.04 1878.89 1493.6 Q1880.72 1497.14 1884.33 1497.14 Q1887.96 1497.14 1889.77 1493.6 Q1891.6 1490.04 1891.6 1482.93 Q1891.6 1475.8 1889.77 1472.26 Q1887.96 1468.69 1884.33 1468.69 M1884.33 1464.99 Q1890.14 1464.99 1893.2 1469.6 Q1896.27 1474.18 1896.27 1482.93 Q1896.27 1491.66 1893.2 1496.26 Q1890.14 1500.85 1884.33 1500.85 Q1878.52 1500.85 1875.44 1496.26 Q1872.39 1491.66 1872.39 1482.93 Q1872.39 1474.18 1875.44 1469.6 Q1878.52 1464.99 1884.33 1464.99 Z" fill="#000000" fill-rule="evenodd" fill-opacity="1" /><path clip-path="url(#clip490)" d="M 0 0 M1914.49 1468.69 Q1910.88 1468.69 1909.05 1472.26 Q1907.25 1475.8 1907.25 1482.93 Q1907.25 1490.04 1909.05 1493.6 Q1910.88 1497.14 1914.49 1497.14 Q1918.13 1497.14 1919.93 1493.6 Q1921.76 1490.04 1921.76 1482.93 Q1921.76 1475.8 1919.93 1472.26 Q1918.13 1468.69 1914.49 1468.69 M1914.49 1464.99 Q1920.3 1464.99 1923.36 1469.6 Q1926.44 1474.18 1926.44 1482.93 Q1926.44 1491.66 1923.36 1496.26 Q1920.3 1500.85 1914.49 1500.85 Q1908.68 1500.85 1905.6 1496.26 Q1902.55 1491.66 1902.55 1482.93 Q1902.55 1474.18 1905.6 1469.6 Q1908.68 1464.99 1914.49 1464.99 Z" fill="#000000" fill-rule="evenodd" fill-opacity="1" /><path clip-path="url(#clip490)" d="M 0 0 M1116 1535.75 Q1116 1541.16 1114.26 1547.24 Q1112.56 1553.3 1109.85 1558.19 Q1107.15 1563.06 1103.6 1566.28 Q1100.06 1569.47 1096.68 1569.47 Q1094.52 1569.47 1092.91 1568.27 Q1091.33 1567.05 1090.46 1565.02 Q1089.59 1562.96 1089.17 1560.71 Q1088.76 1558.42 1088.76 1555.94 Q1088.76 1552.24 1089.56 1548.21 Q1090.37 1544.15 1091.72 1540.48 Q1093.07 1536.78 1094.97 1533.43 Q1096.87 1530.05 1098.96 1527.6 Q1101.09 1525.12 1103.47 1523.67 Q1105.86 1522.22 1108.08 1522.22 Q1109.69 1522.22 1110.98 1522.93 Q1112.3 1523.6 1113.14 1524.8 Q1113.97 1525.96 1114.55 1527.34 Q1115.16 1528.73 1115.45 1530.34 Q1115.74 1531.91 1115.87 1533.23 Q1116 1534.52 1116 1535.75 M1111.65 1531.66 Q1111.65 1530.01 1111.53 1528.79 Q1111.4 1527.53 1111.04 1526.28 Q1110.69 1525.02 1109.91 1524.35 Q1109.17 1523.67 1108.01 1523.67 Q1104.63 1523.67 1100.83 1530.59 Q1099.61 1532.75 1098.51 1535.68 Q1097.42 1538.61 1097.03 1540 Q1096.65 1541.38 1095.74 1544.8 L1109.53 1544.8 Q1111.65 1536 1111.65 1531.66 M1108.95 1546.89 L1095.23 1546.89 Q1093.1 1554.94 1093.1 1559.96 Q1093.1 1564.34 1094.01 1566.18 Q1094.94 1567.98 1096.68 1567.98 Q1098.67 1567.98 1100.54 1565.99 Q1102.41 1563.96 1104.31 1560.29 Q1106.82 1555.52 1108.95 1546.89 Z" fill="#000000" fill-rule="evenodd" fill-opacity="1" /><polyline clip-path="url(#clip493)" style="stroke:#000000; stroke-width:2; stroke-opacity:0.1; fill:none" points="
  276.706,1290.89 1931.43,1290.89 
  "/>
<polyline clip-path="url(#clip493)" style="stroke:#000000; stroke-width:2; stroke-opacity:0.1; fill:none" points="
  276.706,1102.65 1931.43,1102.65 
  "/>
<polyline clip-path="url(#clip493)" style="stroke:#000000; stroke-width:2; stroke-opacity:0.1; fill:none" points="
  276.706,914.414 1931.43,914.414 
  "/>
<polyline clip-path="url(#clip493)" style="stroke:#000000; stroke-width:2; stroke-opacity:0.1; fill:none" points="
  276.706,726.176 1931.43,726.176 
  "/>
<polyline clip-path="url(#clip493)" style="stroke:#000000; stroke-width:2; stroke-opacity:0.1; fill:none" points="
  276.706,537.938 1931.43,537.938 
  "/>
<polyline clip-path="url(#clip493)" style="stroke:#000000; stroke-width:2; stroke-opacity:0.1; fill:none" points="
  276.706,349.7 1931.43,349.7 
  "/>
<polyline clip-path="url(#clip493)" style="stroke:#000000; stroke-width:2; stroke-opacity:0.1; fill:none" points="
  276.706,161.462 1931.43,161.462 
  "/>
<polyline clip-path="url(#clip490)" style="stroke:#000000; stroke-width:4; stroke-opacity:1; fill:none" points="
  276.706,1439.5 276.706,47.2441 
  "/>
<polyline clip-path="url(#clip490)" style="stroke:#000000; stroke-width:4; stroke-opacity:1; fill:none" points="
  276.706,1290.89 296.563,1290.89 
  "/>
<polyline clip-path="url(#clip490)" style="stroke:#000000; stroke-width:4; stroke-opacity:1; fill:none" points="
  276.706,1102.65 296.563,1102.65 
  "/>
<polyline clip-path="url(#clip490)" style="stroke:#000000; stroke-width:4; stroke-opacity:1; fill:none" points="
  276.706,914.414 296.563,914.414 
  "/>
<polyline clip-path="url(#clip490)" style="stroke:#000000; stroke-width:4; stroke-opacity:1; fill:none" points="
  276.706,726.176 296.563,726.176 
  "/>
<polyline clip-path="url(#clip490)" style="stroke:#000000; stroke-width:4; stroke-opacity:1; fill:none" points="
  276.706,537.938 296.563,537.938 
  "/>
<polyline clip-path="url(#clip490)" style="stroke:#000000; stroke-width:4; stroke-opacity:1; fill:none" points="
  276.706,349.7 296.563,349.7 
  "/>
<polyline clip-path="url(#clip490)" style="stroke:#000000; stroke-width:4; stroke-opacity:1; fill:none" points="
  276.706,161.462 296.563,161.462 
  "/>
<path clip-path="url(#clip490)" d="M 0 0 M154.364 1276.69 Q150.753 1276.69 148.924 1280.25 Q147.118 1283.8 147.118 1290.92 Q147.118 1298.03 148.924 1301.6 Q150.753 1305.14 154.364 1305.14 Q157.998 1305.14 159.804 1301.6 Q161.632 1298.03 161.632 1290.92 Q161.632 1283.8 159.804 1280.25 Q157.998 1276.69 154.364 1276.69 M154.364 1272.98 Q160.174 1272.98 163.229 1277.59 Q166.308 1282.17 166.308 1290.92 Q166.308 1299.65 163.229 1304.26 Q160.174 1308.84 154.364 1308.84 Q148.554 1308.84 145.475 1304.26 Q142.419 1299.65 142.419 1290.92 Q142.419 1282.17 145.475 1277.59 Q148.554 1272.98 154.364 1272.98 Z" fill="#000000" fill-rule="evenodd" fill-opacity="1" /><path clip-path="url(#clip490)" d="M 0 0 M174.526 1302.29 L179.41 1302.29 L179.41 1308.17 L174.526 1308.17 L174.526 1302.29 Z" fill="#000000" fill-rule="evenodd" fill-opacity="1" /><path clip-path="url(#clip490)" d="M 0 0 M193.623 1304.23 L209.942 1304.23 L209.942 1308.17 L187.998 1308.17 L187.998 1304.23 Q190.66 1301.48 195.243 1296.85 Q199.85 1292.2 201.03 1290.86 Q203.276 1288.33 204.155 1286.6 Q205.058 1284.84 205.058 1283.15 Q205.058 1280.39 203.113 1278.66 Q201.192 1276.92 198.09 1276.92 Q195.891 1276.92 193.438 1277.68 Q191.007 1278.45 188.229 1280 L188.229 1275.28 Q191.053 1274.14 193.507 1273.56 Q195.961 1272.98 197.998 1272.98 Q203.368 1272.98 206.563 1275.67 Q209.757 1278.36 209.757 1282.85 Q209.757 1284.98 208.947 1286.9 Q208.16 1288.79 206.053 1291.39 Q205.475 1292.06 202.373 1295.28 Q199.271 1298.47 193.623 1304.23 Z" fill="#000000" fill-rule="evenodd" fill-opacity="1" /><path clip-path="url(#clip490)" d="M 0 0 M219.803 1273.61 L238.16 1273.61 L238.16 1277.55 L224.086 1277.55 L224.086 1286.02 Q225.104 1285.67 226.123 1285.51 Q227.141 1285.32 228.16 1285.32 Q233.947 1285.32 237.326 1288.49 Q240.706 1291.67 240.706 1297.08 Q240.706 1302.66 237.234 1305.76 Q233.761 1308.84 227.442 1308.84 Q225.266 1308.84 222.998 1308.47 Q220.752 1308.1 218.345 1307.36 L218.345 1302.66 Q220.428 1303.79 222.65 1304.35 Q224.873 1304.91 227.349 1304.91 Q231.354 1304.91 233.692 1302.8 Q236.03 1300.69 236.03 1297.08 Q236.03 1293.47 233.692 1291.36 Q231.354 1289.26 227.349 1289.26 Q225.474 1289.26 223.599 1289.67 Q221.748 1290.09 219.803 1290.97 L219.803 1273.61 Z" fill="#000000" fill-rule="evenodd" fill-opacity="1" /><path clip-path="url(#clip490)" d="M 0 0 M153.368 1088.45 Q149.757 1088.45 147.929 1092.02 Q146.123 1095.56 146.123 1102.69 Q146.123 1109.79 147.929 1113.36 Q149.757 1116.9 153.368 1116.9 Q157.003 1116.9 158.808 1113.36 Q160.637 1109.79 160.637 1102.69 Q160.637 1095.56 158.808 1092.02 Q157.003 1088.45 153.368 1088.45 M153.368 1084.75 Q159.179 1084.75 162.234 1089.35 Q165.313 1093.94 165.313 1102.69 Q165.313 1111.41 162.234 1116.02 Q159.179 1120.6 153.368 1120.6 Q147.558 1120.6 144.48 1116.02 Q141.424 1111.41 141.424 1102.69 Q141.424 1093.94 144.48 1089.35 Q147.558 1084.75 153.368 1084.75 Z" fill="#000000" fill-rule="evenodd" fill-opacity="1" /><path clip-path="url(#clip490)" d="M 0 0 M173.53 1114.05 L178.415 1114.05 L178.415 1119.93 L173.53 1119.93 L173.53 1114.05 Z" fill="#000000" fill-rule="evenodd" fill-opacity="1" /><path clip-path="url(#clip490)" d="M 0 0 M188.646 1085.37 L207.002 1085.37 L207.002 1089.31 L192.928 1089.31 L192.928 1097.78 Q193.947 1097.43 194.965 1097.27 Q195.984 1097.08 197.002 1097.08 Q202.789 1097.08 206.169 1100.26 Q209.549 1103.43 209.549 1108.84 Q209.549 1114.42 206.076 1117.52 Q202.604 1120.6 196.285 1120.6 Q194.109 1120.6 191.84 1120.23 Q189.595 1119.86 187.188 1119.12 L187.188 1114.42 Q189.271 1115.56 191.493 1116.11 Q193.715 1116.67 196.192 1116.67 Q200.197 1116.67 202.535 1114.56 Q204.873 1112.46 204.873 1108.84 Q204.873 1105.23 202.535 1103.13 Q200.197 1101.02 196.192 1101.02 Q194.317 1101.02 192.442 1101.44 Q190.59 1101.85 188.646 1102.73 L188.646 1085.37 Z" fill="#000000" fill-rule="evenodd" fill-opacity="1" /><path clip-path="url(#clip490)" d="M 0 0 M228.762 1088.45 Q225.15 1088.45 223.322 1092.02 Q221.516 1095.56 221.516 1102.69 Q221.516 1109.79 223.322 1113.36 Q225.15 1116.9 228.762 1116.9 Q232.396 1116.9 234.201 1113.36 Q236.03 1109.79 236.03 1102.69 Q236.03 1095.56 234.201 1092.02 Q232.396 1088.45 228.762 1088.45 M228.762 1084.75 Q234.572 1084.75 237.627 1089.35 Q240.706 1093.94 240.706 1102.69 Q240.706 1111.41 237.627 1116.02 Q234.572 1120.6 228.762 1120.6 Q222.951 1120.6 219.873 1116.02 Q216.817 1111.41 216.817 1102.69 Q216.817 1093.94 219.873 1089.35 Q222.951 1084.75 228.762 1084.75 Z" fill="#000000" fill-rule="evenodd" fill-opacity="1" /><path clip-path="url(#clip490)" d="M 0 0 M154.364 900.213 Q150.753 900.213 148.924 903.777 Q147.118 907.319 147.118 914.449 Q147.118 921.555 148.924 925.12 Q150.753 928.662 154.364 928.662 Q157.998 928.662 159.804 925.12 Q161.632 921.555 161.632 914.449 Q161.632 907.319 159.804 903.777 Q157.998 900.213 154.364 900.213 M154.364 896.509 Q160.174 896.509 163.229 901.115 Q166.308 905.699 166.308 914.449 Q166.308 923.175 163.229 927.782 Q160.174 932.365 154.364 932.365 Q148.554 932.365 145.475 927.782 Q142.419 923.175 142.419 914.449 Q142.419 905.699 145.475 901.115 Q148.554 896.509 154.364 896.509 Z" fill="#000000" fill-rule="evenodd" fill-opacity="1" /><path clip-path="url(#clip490)" d="M 0 0 M174.526 925.814 L179.41 925.814 L179.41 931.694 L174.526 931.694 L174.526 925.814 Z" fill="#000000" fill-rule="evenodd" fill-opacity="1" /><path clip-path="url(#clip490)" d="M 0 0 M188.415 897.134 L210.637 897.134 L210.637 899.125 L198.09 931.694 L193.206 931.694 L205.012 901.069 L188.415 901.069 L188.415 897.134 Z" fill="#000000" fill-rule="evenodd" fill-opacity="1" /><path clip-path="url(#clip490)" d="M 0 0 M219.803 897.134 L238.16 897.134 L238.16 901.069 L224.086 901.069 L224.086 909.541 Q225.104 909.194 226.123 909.032 Q227.141 908.847 228.16 908.847 Q233.947 908.847 237.326 912.018 Q240.706 915.189 240.706 920.606 Q240.706 926.185 237.234 929.287 Q233.761 932.365 227.442 932.365 Q225.266 932.365 222.998 931.995 Q220.752 931.624 218.345 930.884 L218.345 926.185 Q220.428 927.319 222.65 927.874 Q224.873 928.43 227.349 928.43 Q231.354 928.43 233.692 926.324 Q236.03 924.217 236.03 920.606 Q236.03 916.995 233.692 914.888 Q231.354 912.782 227.349 912.782 Q225.474 912.782 223.599 913.199 Q221.748 913.615 219.803 914.495 L219.803 897.134 Z" fill="#000000" fill-rule="evenodd" fill-opacity="1" /><path clip-path="url(#clip490)" d="M 0 0 M144.179 739.521 L151.817 739.521 L151.817 713.155 L143.507 714.822 L143.507 710.563 L151.771 708.896 L156.447 708.896 L156.447 739.521 L164.086 739.521 L164.086 743.456 L144.179 743.456 L144.179 739.521 Z" fill="#000000" fill-rule="evenodd" fill-opacity="1" /><path clip-path="url(#clip490)" d="M 0 0 M173.53 737.576 L178.415 737.576 L178.415 743.456 L173.53 743.456 L173.53 737.576 Z" fill="#000000" fill-rule="evenodd" fill-opacity="1" /><path clip-path="url(#clip490)" d="M 0 0 M198.6 711.975 Q194.989 711.975 193.16 715.539 Q191.354 719.081 191.354 726.211 Q191.354 733.317 193.16 736.882 Q194.989 740.424 198.6 740.424 Q202.234 740.424 204.039 736.882 Q205.868 733.317 205.868 726.211 Q205.868 719.081 204.039 715.539 Q202.234 711.975 198.6 711.975 M198.6 708.271 Q204.41 708.271 207.465 712.877 Q210.544 717.461 210.544 726.211 Q210.544 734.937 207.465 739.544 Q204.41 744.127 198.6 744.127 Q192.789 744.127 189.711 739.544 Q186.655 734.937 186.655 726.211 Q186.655 717.461 189.711 712.877 Q192.789 708.271 198.6 708.271 Z" fill="#000000" fill-rule="evenodd" fill-opacity="1" /><path clip-path="url(#clip490)" d="M 0 0 M228.762 711.975 Q225.15 711.975 223.322 715.539 Q221.516 719.081 221.516 726.211 Q221.516 733.317 223.322 736.882 Q225.15 740.424 228.762 740.424 Q232.396 740.424 234.201 736.882 Q236.03 733.317 236.03 726.211 Q236.03 719.081 234.201 715.539 Q232.396 711.975 228.762 711.975 M228.762 708.271 Q234.572 708.271 237.627 712.877 Q240.706 717.461 240.706 726.211 Q240.706 734.937 237.627 739.544 Q234.572 744.127 228.762 744.127 Q222.951 744.127 219.873 739.544 Q216.817 734.937 216.817 726.211 Q216.817 717.461 219.873 712.877 Q222.951 708.271 228.762 708.271 Z" fill="#000000" fill-rule="evenodd" fill-opacity="1" /><path clip-path="url(#clip490)" d="M 0 0 M145.174 551.283 L152.813 551.283 L152.813 524.917 L144.503 526.584 L144.503 522.325 L152.767 520.658 L157.442 520.658 L157.442 551.283 L165.081 551.283 L165.081 555.218 L145.174 555.218 L145.174 551.283 Z" fill="#000000" fill-rule="evenodd" fill-opacity="1" /><path clip-path="url(#clip490)" d="M 0 0 M174.526 549.338 L179.41 549.338 L179.41 555.218 L174.526 555.218 L174.526 549.338 Z" fill="#000000" fill-rule="evenodd" fill-opacity="1" /><path clip-path="url(#clip490)" d="M 0 0 M193.623 551.283 L209.942 551.283 L209.942 555.218 L187.998 555.218 L187.998 551.283 Q190.66 548.528 195.243 543.899 Q199.85 539.246 201.03 537.903 Q203.276 535.38 204.155 533.644 Q205.058 531.885 205.058 530.195 Q205.058 527.44 203.113 525.704 Q201.192 523.968 198.09 523.968 Q195.891 523.968 193.438 524.732 Q191.007 525.496 188.229 527.047 L188.229 522.325 Q191.053 521.19 193.507 520.612 Q195.961 520.033 197.998 520.033 Q203.368 520.033 206.563 522.718 Q209.757 525.403 209.757 529.894 Q209.757 532.024 208.947 533.945 Q208.16 535.843 206.053 538.436 Q205.475 539.107 202.373 542.324 Q199.271 545.519 193.623 551.283 Z" fill="#000000" fill-rule="evenodd" fill-opacity="1" /><path clip-path="url(#clip490)" d="M 0 0 M219.803 520.658 L238.16 520.658 L238.16 524.593 L224.086 524.593 L224.086 533.065 Q225.104 532.718 226.123 532.556 Q227.141 532.371 228.16 532.371 Q233.947 532.371 237.326 535.542 Q240.706 538.713 240.706 544.13 Q240.706 549.709 237.234 552.811 Q233.761 555.889 227.442 555.889 Q225.266 555.889 222.998 555.519 Q220.752 555.148 218.345 554.408 L218.345 549.709 Q220.428 550.843 222.65 551.398 Q224.873 551.954 227.349 551.954 Q231.354 551.954 233.692 549.848 Q236.03 547.741 236.03 544.13 Q236.03 540.519 233.692 538.412 Q231.354 536.306 227.349 536.306 Q225.474 536.306 223.599 536.723 Q221.748 537.139 219.803 538.019 L219.803 520.658 Z" fill="#000000" fill-rule="evenodd" fill-opacity="1" /><path clip-path="url(#clip490)" d="M 0 0 M144.179 363.045 L151.817 363.045 L151.817 336.679 L143.507 338.346 L143.507 334.087 L151.771 332.42 L156.447 332.42 L156.447 363.045 L164.086 363.045 L164.086 366.98 L144.179 366.98 L144.179 363.045 Z" fill="#000000" fill-rule="evenodd" fill-opacity="1" /><path clip-path="url(#clip490)" d="M 0 0 M173.53 361.1 L178.415 361.1 L178.415 366.98 L173.53 366.98 L173.53 361.1 Z" fill="#000000" fill-rule="evenodd" fill-opacity="1" /><path clip-path="url(#clip490)" d="M 0 0 M188.646 332.42 L207.002 332.42 L207.002 336.355 L192.928 336.355 L192.928 344.827 Q193.947 344.48 194.965 344.318 Q195.984 344.133 197.002 344.133 Q202.789 344.133 206.169 347.304 Q209.549 350.475 209.549 355.892 Q209.549 361.471 206.076 364.573 Q202.604 367.651 196.285 367.651 Q194.109 367.651 191.84 367.281 Q189.595 366.91 187.188 366.17 L187.188 361.471 Q189.271 362.605 191.493 363.161 Q193.715 363.716 196.192 363.716 Q200.197 363.716 202.535 361.61 Q204.873 359.503 204.873 355.892 Q204.873 352.281 202.535 350.174 Q200.197 348.068 196.192 348.068 Q194.317 348.068 192.442 348.485 Q190.59 348.901 188.646 349.781 L188.646 332.42 Z" fill="#000000" fill-rule="evenodd" fill-opacity="1" /><path clip-path="url(#clip490)" d="M 0 0 M228.762 335.499 Q225.15 335.499 223.322 339.063 Q221.516 342.605 221.516 349.735 Q221.516 356.841 223.322 360.406 Q225.15 363.948 228.762 363.948 Q232.396 363.948 234.201 360.406 Q236.03 356.841 236.03 349.735 Q236.03 342.605 234.201 339.063 Q232.396 335.499 228.762 335.499 M228.762 331.795 Q234.572 331.795 237.627 336.401 Q240.706 340.985 240.706 349.735 Q240.706 358.461 237.627 363.068 Q234.572 367.651 228.762 367.651 Q222.951 367.651 219.873 363.068 Q216.817 358.461 216.817 349.735 Q216.817 340.985 219.873 336.401 Q222.951 331.795 228.762 331.795 Z" fill="#000000" fill-rule="evenodd" fill-opacity="1" /><path clip-path="url(#clip490)" d="M 0 0 M145.174 174.807 L152.813 174.807 L152.813 148.441 L144.503 150.108 L144.503 145.849 L152.767 144.182 L157.442 144.182 L157.442 174.807 L165.081 174.807 L165.081 178.742 L145.174 178.742 L145.174 174.807 Z" fill="#000000" fill-rule="evenodd" fill-opacity="1" /><path clip-path="url(#clip490)" d="M 0 0 M174.526 172.862 L179.41 172.862 L179.41 178.742 L174.526 178.742 L174.526 172.862 Z" fill="#000000" fill-rule="evenodd" fill-opacity="1" /><path clip-path="url(#clip490)" d="M 0 0 M188.415 144.182 L210.637 144.182 L210.637 146.173 L198.09 178.742 L193.206 178.742 L205.012 148.117 L188.415 148.117 L188.415 144.182 Z" fill="#000000" fill-rule="evenodd" fill-opacity="1" /><path clip-path="url(#clip490)" d="M 0 0 M219.803 144.182 L238.16 144.182 L238.16 148.117 L224.086 148.117 L224.086 156.589 Q225.104 156.242 226.123 156.08 Q227.141 155.895 228.16 155.895 Q233.947 155.895 237.326 159.066 Q240.706 162.237 240.706 167.654 Q240.706 173.233 237.234 176.335 Q233.761 179.413 227.442 179.413 Q225.266 179.413 222.998 179.043 Q220.752 178.672 218.345 177.932 L218.345 173.233 Q220.428 174.367 222.65 174.923 Q224.873 175.478 227.349 175.478 Q231.354 175.478 233.692 173.372 Q236.03 171.265 236.03 167.654 Q236.03 164.043 233.692 161.936 Q231.354 159.83 227.349 159.83 Q225.474 159.83 223.599 160.247 Q221.748 160.663 219.803 161.543 L219.803 144.182 Z" fill="#000000" fill-rule="evenodd" fill-opacity="1" /><path clip-path="url(#clip490)" d="M 0 0 M53.6652 942.087 L70.0902 947.756 L70.0902 1002.44 Q70.0902 1003.18 70.058 1003.47 Q70.0258 1003.76 69.8648 1003.99 Q69.7037 1004.21 69.3495 1004.21 Q69.0596 1004.21 68.3189 1003.63 L39.3658 980.219 L6.25819 1004.28 Q4.74452 1004.28 4.45466 1004.02 Q4.13261 1003.76 4.13261 1002.44 L4.13261 947.756 L19.5592 942.087 L19.5592 943.73 Q17.5624 944.471 15.8877 945.662 Q14.1808 946.822 12.957 948.174 Q11.7332 949.495 10.767 951.234 Q9.76863 952.941 9.15672 954.551 Q8.5126 956.129 8.06172 958.094 Q7.57863 960.058 7.35319 961.636 Q7.09554 963.182 6.96672 965.114 Q6.8379 967.047 6.80569 968.271 Q6.77349 969.494 6.77349 971.04 L6.77349 997.159 L36.1774 975.742 Q36.9182 975.259 37.1114 975.259 Q37.4013 975.259 38.1742 975.871 L66.4509 998.737 L66.4509 970.718 Q66.4509 961.701 64.5508 955.421 Q63.1015 951.169 60.2352 948.078 Q57.3689 944.954 53.6652 943.73 L53.6652 942.087 Z" fill="#000000" fill-rule="evenodd" fill-opacity="1" /><path clip-path="url(#clip490)" d="M 0 0 M96.2324 1013.26 Q96.8636 1013.26 97.0215 1013.56 Q97.1567 1013.85 97.1567 1014.66 L97.1567 1018.99 L110.773 1022.42 Q111.968 1022.69 112.983 1022.69 Q114.11 1022.69 114.606 1022.35 Q115.102 1021.99 115.102 1021.25 Q115.102 1019.78 113.772 1018.2 Q112.442 1016.6 109.195 1015.25 Q108.767 1015.07 108.677 1014.98 Q108.564 1014.87 108.564 1014.57 Q108.564 1014.01 109.015 1014.01 Q109.173 1014.01 109.894 1014.32 Q110.616 1014.62 111.675 1015.27 Q112.735 1015.9 113.727 1016.74 Q114.719 1017.55 115.44 1018.79 Q116.139 1020.03 116.139 1021.36 Q116.139 1023.23 114.944 1024.42 Q113.749 1025.6 111.878 1025.6 Q111.269 1025.6 109.331 1025.12 Q107.369 1024.65 97.1567 1022.08 L97.1567 1026.16 Q97.1567 1026.72 97.1342 1026.95 Q97.1116 1027.15 96.9989 1027.31 Q96.8636 1027.45 96.5931 1027.45 Q96.1648 1027.45 95.9844 1027.26 Q95.7815 1027.08 95.759 1026.86 Q95.7139 1026.61 95.7139 1026.05 L95.7139 1021.72 L88.3871 1019.92 Q87.6657 1019.74 87.2599 1019.28 Q86.8315 1018.81 86.7864 1018.54 Q86.7188 1018.27 86.7188 1018.07 Q86.7188 1017.46 87.057 1017.1 Q87.3726 1016.74 87.9587 1016.74 Q88.2743 1016.74 95.7139 1018.63 L95.7139 1014.57 Q95.7139 1014.05 95.7364 1013.85 Q95.759 1013.63 95.8717 1013.45 Q95.9844 1013.26 96.2324 1013.26 Z" fill="#000000" fill-rule="evenodd" fill-opacity="1" /><path clip-path="url(#clip490)" d="M 0 0 M108.609 998.132 Q108.046 998.087 108.046 997.208 L108.046 968.915 Q108.046 967.585 108.564 967.562 Q109.128 967.562 109.105 968.825 L109.105 996.892 Q109.128 998.132 108.609 998.132 M99.5915 998.132 Q99.0279 998.132 99.0504 997.163 L99.0504 968.96 Q99.0504 967.585 99.5915 967.562 Q100.11 967.562 100.11 968.735 L100.11 997.208 Q100.11 998.132 99.5915 998.132 Z" fill="#000000" fill-rule="evenodd" fill-opacity="1" /><path clip-path="url(#clip490)" d="M 0 0 M100.854 949.75 Q94.0682 949.75 90.3709 948.037 Q84.8702 945.647 84.8702 940.011 Q84.8702 938.816 85.2083 937.577 Q85.524 936.314 86.7639 934.736 Q88.0038 933.135 90.0328 932.166 Q93.9555 930.317 100.854 930.317 Q107.595 930.317 111.269 932.031 Q116.635 934.533 116.635 940.056 Q116.635 942.13 115.575 944.25 Q114.516 946.346 111.968 947.676 Q108.158 949.75 100.854 949.75 M100.29 945.918 Q107.256 945.918 110.029 945.422 Q113.028 944.858 114.335 943.325 Q115.62 941.77 115.62 940.056 Q115.62 938.208 114.245 936.675 Q112.847 935.119 109.849 934.646 Q106.896 934.127 100.29 934.15 Q93.8653 934.15 91.2953 934.601 Q88.2969 935.209 87.102 936.833 Q85.8847 938.433 85.8847 940.056 Q85.8847 940.665 86.065 941.319 Q86.2454 941.95 86.7639 942.874 Q87.2824 943.799 88.5674 944.52 Q89.8524 945.219 91.7912 945.557 Q94.2936 945.918 100.29 945.918 Z" fill="#000000" fill-rule="evenodd" fill-opacity="1" /><path clip-path="url(#clip490)" d="M 0 0 M9.67201 874.983 Q10.2839 874.983 10.7992 875.112 L22.2645 876.915 Q23.1341 877.012 23.4561 877.205 Q23.7782 877.366 23.7782 877.881 Q23.7782 878.686 22.9408 878.686 Q22.4577 878.686 21.6848 878.493 Q18.0455 877.946 16.403 877.946 Q15.308 877.946 14.5029 878.171 Q13.6655 878.364 13.0858 878.686 Q12.5061 878.976 12.1197 879.653 Q11.7332 880.329 11.5077 880.973 Q11.2823 881.617 11.1857 882.777 Q11.0569 883.936 11.0247 884.934 Q10.9925 885.933 10.9925 887.575 Q10.9925 891.15 11.1213 891.73 Q11.2823 892.342 11.7654 892.664 Q12.2163 892.954 13.5689 893.276 L48.5767 902.036 L49.9615 902.293 Q50.7345 902.293 50.9921 901.81 Q51.2498 901.327 51.4108 899.846 Q51.5718 897.72 51.5718 895.627 Q51.5718 895.562 51.5718 895.433 Q51.5718 894.725 51.604 894.435 Q51.604 894.145 51.6685 893.855 Q51.7329 893.566 51.8939 893.501 Q52.0227 893.405 52.2804 893.405 Q52.8923 893.405 53.2143 893.662 Q53.5042 893.92 53.5686 894.177 Q53.6008 894.403 53.6008 894.854 Q53.6008 895.756 53.5364 897.688 Q53.472 899.62 53.472 900.586 L53.4076 906.061 L53.472 911.665 Q53.472 912.535 53.5364 914.371 Q53.6008 916.206 53.6008 917.076 Q53.6008 918.203 52.7957 918.203 Q51.8939 918.203 51.7329 917.784 Q51.5718 917.333 51.5718 915.433 Q51.5718 912.76 51.443 911.311 Q51.3142 909.862 50.8633 909.089 Q50.4124 908.284 49.9615 908.058 Q49.4785 907.833 48.3835 907.575 L13.1825 898.718 Q12.4095 898.461 11.7976 898.461 Q11.4755 898.461 11.3467 898.557 Q11.2179 898.622 11.1213 899.041 Q10.9925 899.459 10.9925 900.329 L10.9925 902.905 Q10.9925 905.546 11.1213 907.189 Q11.2179 908.799 11.701 910.345 Q12.1841 911.858 12.8604 912.76 Q13.5367 913.63 14.9216 914.596 Q16.3064 915.562 17.9811 916.271 Q19.6558 916.947 22.3933 917.913 Q23.2951 918.235 23.5527 918.428 Q23.7782 918.59 23.7782 919.04 Q23.7782 919.362 23.5849 919.62 Q23.3595 919.846 23.0697 919.846 Q22.0069 919.523 21.878 919.459 L10.2517 915.498 Q9.31775 915.176 9.15672 914.886 Q8.96348 914.564 8.96348 913.372 L8.96348 876.786 Q8.96348 876.207 8.96348 876.013 Q8.96348 875.82 9.0279 875.498 Q9.09231 875.176 9.25334 875.079 Q9.41437 874.983 9.67201 874.983 Z" fill="#000000" fill-rule="evenodd" fill-opacity="1" /><path clip-path="url(#clip490)" d="M 0 0 M16.5041 850.007 L17.4284 850.571 Q15.918 854.065 13.5057 858.416 Q15.918 862.767 17.4284 866.261 L16.5041 866.802 Q13.1901 862.992 10.6426 858.416 Q13.2127 853.794 16.5041 850.007 Z" fill="#000000" fill-rule="evenodd" fill-opacity="1" /><path clip-path="url(#clip490)" d="M 0 0 M28.8023 848.845 Q30.6058 848.845 31.6364 849.972 Q32.6348 851.099 32.6348 852.388 Q32.6348 853.611 31.9263 854.256 Q31.2177 854.9 30.316 854.9 Q29.0921 854.9 28.0294 853.998 Q26.9666 853.096 26.7411 851.743 Q25.9038 853.064 25.9038 855.028 Q25.9038 856.317 26.5801 857.444 Q27.2564 858.539 28.126 859.215 Q28.9955 859.859 30.2516 860.439 Q31.4754 860.987 32.2161 861.212 Q32.9246 861.405 33.6976 861.566 L42.7152 863.821 Q46.9986 864.916 48.5123 864.916 Q50.3802 864.916 51.6363 864.014 Q52.8601 863.112 52.8601 861.309 Q52.8601 860.6 52.6668 859.795 Q52.4414 858.99 51.8617 857.959 Q51.2498 856.896 50.348 855.962 Q49.414 854.996 47.836 854.062 Q46.2579 853.128 44.2289 852.516 Q43.5204 852.323 43.5204 851.679 Q43.5204 850.874 44.1645 850.874 Q44.712 850.874 45.8714 851.325 Q46.9986 851.743 48.4801 852.677 Q49.9293 853.579 51.2498 854.771 Q52.538 855.962 53.4398 857.734 Q54.3415 859.505 54.3415 861.437 Q54.3415 864.207 52.8601 866.043 Q51.3786 867.879 49.3174 868.555 Q49.6073 868.716 49.9938 868.941 Q50.3802 869.167 51.2498 869.843 Q52.0871 870.487 52.7313 871.228 Q53.3432 871.969 53.8262 873.128 Q54.3415 874.255 54.3415 875.479 Q54.3415 877.025 53.8907 878.41 Q53.4398 879.763 52.4092 880.729 Q51.3786 881.695 49.9615 881.695 Q48.3835 881.695 47.2885 880.632 Q46.1613 879.537 46.1613 878.056 Q46.1613 877.122 46.7088 876.381 Q47.2563 875.608 48.4479 875.608 Q49.7683 875.608 50.7667 876.51 Q51.7651 877.412 52.0227 878.7 Q52.8601 877.379 52.8601 875.415 Q52.8601 873.289 50.9921 871.614 Q49.1242 869.94 46.0002 869.135 Q38.4963 867.138 35.1468 866.365 Q31.7652 865.592 30.316 865.592 Q28.9633 865.592 28.0294 865.946 Q27.0954 866.301 26.6767 866.912 Q26.2258 867.492 26.0648 868.04 Q25.9038 868.555 25.9038 869.135 Q25.9038 870.101 26.2902 871.196 Q26.6767 872.259 27.5785 873.547 Q28.448 874.803 30.2516 875.994 Q32.0551 877.186 34.5349 877.991 Q35.2757 878.152 35.2757 878.861 Q35.2435 879.634 34.5994 879.634 Q34.0519 879.634 32.9246 879.215 Q31.7652 878.764 30.316 877.862 Q28.8667 876.928 27.5785 875.737 Q26.258 874.513 25.3563 872.742 Q24.4545 870.938 24.4545 869.006 Q24.4545 868.136 24.6477 867.299 Q24.8088 866.429 25.2919 865.399 Q25.7749 864.336 26.8377 863.402 Q27.9005 862.468 29.4464 861.888 Q28.7057 861.502 27.9971 860.987 Q27.2886 860.439 26.4191 859.602 Q25.5173 858.732 25.002 857.541 Q24.4545 856.317 24.4545 854.964 Q24.4545 853.644 24.8088 852.355 Q25.1308 851.067 26.1936 849.972 Q27.2242 848.845 28.8023 848.845 Z" fill="#000000" fill-rule="evenodd" fill-opacity="1" /><path clip-path="url(#clip490)" d="M 0 0 M52.1213 823.122 Q52.7526 823.122 52.9104 823.415 Q53.0456 823.708 53.0456 824.519 L53.0456 828.848 L66.6623 832.274 Q67.8571 832.545 68.8716 832.545 Q69.9988 832.545 70.4948 832.207 Q70.9907 831.846 70.9907 831.102 Q70.9907 829.637 69.6606 828.059 Q68.3305 826.458 65.0842 825.105 Q64.6558 824.925 64.5657 824.835 Q64.4529 824.722 64.4529 824.429 Q64.4529 823.866 64.9038 823.866 Q65.0616 823.866 65.783 824.181 Q66.5045 824.474 67.564 825.128 Q68.6236 825.759 69.6155 826.593 Q70.6075 827.405 71.3289 828.645 Q72.0278 829.885 72.0278 831.215 Q72.0278 833.086 70.8329 834.281 Q69.6381 835.453 67.7669 835.453 Q67.1582 835.453 65.2194 834.98 Q63.2581 834.506 53.0456 831.936 L53.0456 836.017 Q53.0456 836.58 53.0231 836.806 Q53.0005 837.009 52.8878 837.167 Q52.7526 837.302 52.482 837.302 Q52.0537 837.302 51.8733 837.121 Q51.6704 836.941 51.6479 836.716 Q51.6028 836.468 51.6028 835.904 L51.6028 831.576 L44.276 829.772 Q43.5546 829.592 43.1488 829.141 Q42.7204 828.667 42.6753 828.397 Q42.6077 828.126 42.6077 827.923 Q42.6077 827.315 42.9459 826.954 Q43.2615 826.593 43.8476 826.593 Q44.1632 826.593 51.6028 828.487 L51.6028 824.429 Q51.6028 823.911 51.6253 823.708 Q51.6479 823.482 51.7606 823.302 Q51.8733 823.122 52.1213 823.122 Z" fill="#000000" fill-rule="evenodd" fill-opacity="1" /><path clip-path="url(#clip490)" d="M 0 0 M35.6497 813.761 Q25.0076 813.761 16.4262 809.793 Q12.8275 808.101 9.81325 805.733 Q6.799 803.365 5.47642 801.796 Q4.15383 800.227 4.15383 799.797 Q4.15383 799.182 4.76899 799.151 Q5.07657 799.151 5.84551 799.981 Q16.1801 810.131 35.6497 810.101 Q55.1809 810.101 65.1156 800.227 Q66.1921 799.151 66.5305 799.151 Q67.1456 799.151 67.1456 799.797 Q67.1456 800.227 65.8846 801.734 Q64.6235 803.242 61.7323 805.579 Q58.8411 807.917 55.3039 809.608 Q46.7225 813.761 35.6497 813.761 Z" fill="#000000" fill-rule="evenodd" fill-opacity="1" /><path clip-path="url(#clip490)" d="M 0 0 M17.4014 782.532 Q11.7332 782.532 7.9329 779.634 Q4.13261 776.735 4.13261 772.838 Q4.13261 770.455 6.25819 768.104 Q11.3467 762.758 11.3145 755.769 Q11.3145 747.846 5.06658 743.241 Q4.13261 742.436 4.13261 741.856 Q4.13261 741.341 4.55128 740.954 Q4.93775 740.536 5.45305 740.536 Q5.83952 740.536 6.64466 741.051 L56.3061 774.416 Q57.3045 775.157 57.3045 775.737 Q57.3045 776.252 56.8858 776.671 Q56.4993 777.057 55.984 777.057 Q55.5332 777.057 54.6636 776.477 L10.5416 746.848 L10.4772 746.912 Q12.796 750.326 12.7638 755.705 Q12.7638 760.793 9.99407 765.656 Q13.4079 764.271 17.4658 764.271 Q23.0052 764.271 26.8699 766.751 Q30.7024 769.231 30.7024 772.838 Q30.7024 776.735 26.9666 779.634 Q23.1985 782.532 17.4014 782.532 M12.023 777.991 Q14.3419 778.442 17.4658 778.442 Q20.5576 778.442 22.8764 777.991 Q25.163 777.54 26.3546 776.896 Q27.5463 776.22 28.2548 775.318 Q28.9311 774.416 29.0921 773.869 Q29.2532 773.321 29.2532 772.774 Q29.2532 770.068 25.9038 768.007 Q22.5222 765.914 17.4014 765.914 Q12.3773 765.914 8.99569 768.007 Q5.58187 770.068 5.58187 772.774 Q5.58187 773.353 5.7429 773.933 Q5.90393 774.481 6.61246 775.35 Q7.28878 776.22 8.4804 776.896 Q9.67201 777.54 12.023 777.991 M43.9713 753.321 Q38.303 753.321 34.5027 750.423 Q30.7024 747.524 30.7024 743.627 Q30.7024 740.053 34.5671 737.573 Q38.4318 735.061 44.0357 735.061 Q49.5751 735.061 53.4398 737.541 Q57.3045 739.988 57.3045 743.627 Q57.3045 747.524 53.5364 750.423 Q49.7683 753.321 43.9713 753.321 M38.5929 748.78 Q40.9439 749.231 44.0357 749.231 Q47.1274 749.231 49.4463 748.78 Q51.7651 748.297 52.9567 747.653 Q54.1161 746.977 54.7924 746.107 Q55.501 745.206 55.662 744.658 Q55.8552 744.078 55.8552 743.563 Q55.8552 740.858 52.5058 738.797 Q49.1242 736.703 43.9713 736.703 Q38.9471 736.703 35.5655 738.797 Q32.1517 740.858 32.1517 743.563 Q32.1517 744.143 32.3449 744.722 Q32.506 745.27 33.2145 746.14 Q33.8908 746.977 35.0824 747.653 Q36.2418 748.297 38.5929 748.78 Z" fill="#000000" fill-rule="evenodd" fill-opacity="1" /><path clip-path="url(#clip490)" d="M 0 0 M52.538 727.211 Q51.4752 728.145 50.0904 728.145 Q48.7055 728.145 47.6749 727.243 Q46.6121 726.309 46.6121 724.635 Q46.6121 722.67 48.5123 721.543 Q50.3802 720.416 53.5364 720.416 Q56.9502 720.416 60.1064 721.801 Q63.2948 723.186 64.8084 724.538 Q66.3221 725.891 66.3221 726.438 Q66.3221 727.082 65.6136 727.082 Q65.3559 727.082 64.8729 726.632 Q59.7843 721.897 53.5364 721.865 Q52.538 721.865 52.538 721.994 L52.6668 722.155 Q53.6008 723.282 53.6008 724.635 Q53.6008 726.277 52.538 727.211 Z" fill="#000000" fill-rule="evenodd" fill-opacity="1" /><path clip-path="url(#clip490)" d="M 0 0 M36.3063 665.011 Q39.5591 665.011 42.8118 666.686 Q46.0646 668.36 48.5767 671.098 Q51.0565 673.835 52.6668 677.571 Q54.2771 681.307 54.406 685.204 L64.2287 687.716 Q66.612 688.199 66.8696 688.457 Q67.1273 688.715 67.1273 689.101 Q67.1273 689.906 66.3865 689.906 Q66.1611 689.906 60.5895 688.457 L54.406 686.911 Q54.0839 692.773 50.7023 696.186 Q47.3207 699.6 42.4576 699.6 Q39.1726 699.6 35.9198 697.925 Q32.6348 696.219 30.1549 693.481 Q27.6751 690.711 26.097 686.975 Q24.5189 683.24 24.3901 679.407 L9.15672 675.575 Q8.28716 675.381 8.06172 675.22 Q7.83628 675.059 7.83628 674.576 Q7.83628 674.222 7.99731 674.029 Q8.15834 673.835 8.31937 673.835 L8.4804 673.803 L9.41437 673.996 L24.3901 677.7 Q24.6155 674.415 25.7749 671.871 Q26.9344 669.327 28.6735 667.877 Q30.3804 666.428 32.3127 665.72 Q34.2451 665.011 36.3063 665.011 M25.8394 679.794 Q26.1614 683.336 27.9005 686.331 Q29.6396 689.326 32.2161 691.259 Q34.7604 693.191 37.8199 694.254 Q40.8473 695.317 43.8424 695.317 Q46.1935 695.317 47.997 694.544 Q49.8005 693.739 50.8311 692.418 Q51.8295 691.098 52.377 689.649 Q52.8923 688.167 52.9567 686.589 L25.8394 679.794 M34.9214 669.327 Q30.7346 669.327 28.3836 671.742 Q26.0326 674.158 25.8394 678.087 L52.9567 684.882 Q52.7313 682.016 51.5396 679.504 Q50.3158 676.959 48.5123 675.124 Q46.6765 673.288 44.4221 671.968 Q42.1355 670.647 39.7201 670.003 Q37.2724 669.327 34.9214 669.327 Z" fill="#000000" fill-rule="evenodd" fill-opacity="1" /><path clip-path="url(#clip490)" d="M 0 0 M43.5848 642.381 Q42.7796 642.317 42.7796 641.061 L42.7796 600.643 Q42.7796 598.742 43.5204 598.71 Q44.3255 598.71 44.2933 600.514 L44.2933 640.61 Q44.3255 642.381 43.5848 642.381 M30.7024 642.381 Q29.8973 642.381 29.9295 640.997 L29.9295 600.707 Q29.9295 598.742 30.7024 598.71 Q31.4432 598.71 31.4432 600.385 L31.4432 641.061 Q31.4432 642.381 30.7024 642.381 Z" fill="#000000" fill-rule="evenodd" fill-opacity="1" /><path clip-path="url(#clip490)" d="M 0 0 M15.9522 573.264 L13.891 573.264 Q13.891 565.342 9.67201 561.252 Q9.67201 560.124 9.92966 559.931 Q10.1873 559.738 11.3789 559.738 L48.3835 559.738 Q50.348 559.738 50.9599 558.772 Q51.5718 557.806 51.5718 553.587 L51.5718 551.493 L53.6008 551.493 Q53.4076 553.812 53.4076 562.186 Q53.4076 570.559 53.6008 572.846 L51.5718 572.846 L51.5718 570.752 Q51.5718 566.598 50.9921 565.599 Q50.3802 564.601 48.3835 564.601 L14.213 564.601 Q15.9522 568.047 15.9522 573.264 Z" fill="#000000" fill-rule="evenodd" fill-opacity="1" /><path clip-path="url(#clip490)" d="M 0 0 M52.538 546.352 Q51.4752 547.35 50.0904 547.35 Q48.7055 547.35 47.7071 546.352 Q46.6765 545.354 46.6765 543.84 Q46.6765 542.391 47.6427 541.425 Q48.5767 540.426 50.1226 540.426 Q51.6363 540.426 52.6346 541.489 Q53.6008 542.52 53.6008 543.84 Q53.6008 545.354 52.538 546.352 Z" fill="#000000" fill-rule="evenodd" fill-opacity="1" /><path clip-path="url(#clip490)" d="M 0 0 M53.6008 529.2 Q52.4092 529.2 52.0549 529.104 Q51.7007 528.975 51.1532 528.459 L37.047 515.803 Q29.2532 508.878 22.4577 508.878 Q18.0455 508.878 14.8894 511.197 Q11.7332 513.484 11.7332 517.703 Q11.7332 520.601 13.5045 523.049 Q15.2758 525.496 18.432 526.624 Q18.3676 526.43 18.3676 525.754 Q18.3676 524.112 19.3982 523.21 Q20.4288 522.276 21.8136 522.276 Q23.5849 522.276 24.4545 523.435 Q25.2919 524.563 25.2919 525.69 Q25.2919 526.141 25.1952 526.753 Q25.0986 527.332 24.1969 528.266 Q23.2629 529.2 21.6204 529.2 Q17.015 529.2 13.3435 525.722 Q9.67201 522.211 9.67201 516.865 Q9.67201 510.811 13.2791 506.849 Q16.8539 502.856 22.4577 502.856 Q24.4223 502.856 26.2258 503.468 Q27.9971 504.047 29.382 504.853 Q30.7669 505.625 32.9891 507.751 Q35.2113 509.877 36.7893 511.584 Q38.3674 513.29 41.7168 517.123 L48.5123 524.112 L48.5123 512.228 Q48.5123 506.431 47.997 505.98 Q47.063 505.336 42.1355 504.53 L42.1355 502.856 L53.6008 504.724 L53.6008 529.2 Z" fill="#000000" fill-rule="evenodd" fill-opacity="1" /><path clip-path="url(#clip490)" d="M 0 0 M42.9729 496.536 Q41.0083 496.536 40.2676 495.473 Q39.4946 494.411 39.4946 493.283 Q39.4946 491.77 40.4608 490.9 Q41.3948 489.998 42.7152 489.998 Q44.0357 489.998 45.0018 490.9 Q45.9358 491.77 45.9358 493.283 Q45.9358 494.024 45.807 494.411 Q48.8343 493.541 51.0243 490.9 Q53.2143 488.227 53.2143 484.717 Q53.2143 480.304 48.931 477.663 Q46.1613 476.085 39.8811 476.085 Q34.3417 476.085 31.572 477.277 Q27.353 479.113 27.353 482.881 Q27.353 488.227 31.9585 491.383 Q32.5382 491.77 32.5704 492.221 Q32.5704 492.865 32.2161 493.026 Q31.8296 493.154 30.8313 493.154 L11.3145 493.154 Q9.73643 493.154 9.73643 492.51 Q9.73643 492.253 9.92966 491.705 Q11.7654 487.551 11.7976 482.945 Q11.7976 478.211 9.86525 473.96 Q9.67201 473.638 9.67201 473.444 Q9.67201 472.8 10.4127 472.768 Q10.6704 472.768 11.4433 473.316 Q12.1841 473.831 13.1825 474.958 Q14.1486 476.085 15.0826 477.535 Q16.0166 478.984 16.6607 481.109 Q17.2726 483.203 17.2726 485.522 Q17.2726 488.291 16.403 491.126 L29.2532 491.126 Q25.9038 487.712 25.9038 482.752 Q25.9038 477.47 30.1549 473.831 Q34.4061 470.192 40.332 470.192 Q46.5477 470.192 50.7989 474.507 Q55.0501 478.791 55.0501 484.588 Q55.0501 489.869 51.282 493.219 Q47.5139 496.536 42.9729 496.536 Z" fill="#000000" fill-rule="evenodd" fill-opacity="1" /><path clip-path="url(#clip490)" d="M 0 0 M66.5305 463.418 Q66.2229 463.418 65.454 462.618 Q55.1194 452.468 35.6497 452.468 Q16.1186 452.468 6.24536 462.218 Q5.10732 463.418 4.76899 463.418 Q4.15383 463.418 4.15383 462.803 Q4.15383 462.372 5.4149 460.865 Q6.67597 459.327 9.56719 457.02 Q12.4584 454.683 15.9956 452.96 Q24.577 448.808 35.6497 448.808 Q46.2919 448.808 54.8733 452.776 Q58.472 454.467 61.4862 456.836 Q64.5005 459.204 65.8231 460.773 Q67.1456 462.341 67.1456 462.803 Q67.1456 463.418 66.5305 463.418 Z" fill="#000000" fill-rule="evenodd" fill-opacity="1" /><polyline clip-path="url(#clip493)" style="stroke:#0000ff; stroke-width:4; stroke-opacity:1; fill:none" points="
  323.538,1400.1 405.699,1374.4 487.86,1363.46 570.021,1355.91 652.181,1350.28 734.342,1345.88 816.503,1342.34 898.664,1339.42 980.825,1336.98 1062.99,1334.9 
  1145.15,1333.1 1227.31,1331.55 1309.47,1330.18 1391.63,1328.96 1473.79,1327.88 1555.95,1326.91 1638.11,1326.03 1720.27,1325.24 1802.43,1324.51 1884.6,1323.85 
  
  "/>
<polyline clip-path="url(#clip493)" style="stroke:#ff0000; stroke-width:4; stroke-opacity:1; fill:none" points="
  323.538,1386.08 405.699,1037.53 487.86,839.696 570.021,699.185 652.181,592.883 734.342,509.313 816.503,441.773 898.664,386.008 980.825,339.166 1062.99,299.255 
  1145.15,264.838 1227.31,234.851 1309.47,208.49 1391.63,185.133 1473.79,164.295 1555.95,145.588 1638.11,128.702 1720.27,113.383 1802.43,99.4226 1884.6,86.6476 
  
  "/>
<path clip-path="url(#clip490)" d="
M2000.63 252.413 L2352.76 252.413 L2352.76 93.6527 L2000.63 93.6527  Z
  " fill="#ffffff" fill-rule="evenodd" fill-opacity="1"/>
<polyline clip-path="url(#clip490)" style="stroke:#000000; stroke-width:4; stroke-opacity:1; fill:none" points="
  2000.63,252.413 2352.76,252.413 2352.76,93.6527 2000.63,93.6527 2000.63,252.413 
  "/>
<polyline clip-path="url(#clip490)" style="stroke:#0000ff; stroke-width:3.5; stroke-opacity:1; fill:none" points="
  2023.7,146.573 2162.1,146.573 
  "/>
<path clip-path="url(#clip490)" d="M 0 0 M2213.72 132.227 Q2213.72 132.617 2213.63 132.945 L2212.49 140.241 Q2212.42 140.794 2212.3 140.999 Q2212.2 141.204 2211.87 141.204 Q2211.36 141.204 2211.36 140.671 Q2211.36 140.364 2211.48 139.872 Q2211.83 137.556 2211.83 136.511 Q2211.83 135.814 2211.69 135.302 Q2211.56 134.769 2211.36 134.4 Q2211.17 134.031 2210.74 133.785 Q2210.31 133.539 2209.9 133.396 Q2209.49 133.252 2208.76 133.191 Q2208.02 133.109 2207.38 133.088 Q2206.75 133.068 2205.7 133.068 Q2203.43 133.068 2203.06 133.15 Q2202.67 133.252 2202.46 133.56 Q2202.28 133.846 2202.08 134.707 L2196.5 156.985 L2196.34 157.866 Q2196.34 158.358 2196.64 158.522 Q2196.95 158.686 2197.89 158.788 Q2199.25 158.891 2200.58 158.891 Q2200.62 158.891 2200.7 158.891 Q2201.15 158.891 2201.34 158.911 Q2201.52 158.911 2201.71 158.952 Q2201.89 158.993 2201.93 159.096 Q2201.99 159.178 2201.99 159.342 Q2201.99 159.731 2201.83 159.936 Q2201.67 160.121 2201.5 160.162 Q2201.36 160.182 2201.07 160.182 Q2200.5 160.182 2199.27 160.141 Q2198.04 160.1 2197.42 160.1 L2193.94 160.059 L2190.37 160.1 Q2189.82 160.1 2188.65 160.141 Q2187.48 160.182 2186.93 160.182 Q2186.21 160.182 2186.21 159.67 Q2186.21 159.096 2186.48 158.993 Q2186.77 158.891 2187.97 158.891 Q2189.68 158.891 2190.6 158.809 Q2191.52 158.727 2192.01 158.44 Q2192.52 158.153 2192.67 157.866 Q2192.81 157.559 2192.98 156.862 L2198.61 134.461 Q2198.78 133.969 2198.78 133.58 Q2198.78 133.375 2198.71 133.293 Q2198.67 133.211 2198.41 133.15 Q2198.14 133.068 2197.59 133.068 L2195.95 133.068 Q2194.27 133.068 2193.22 133.15 Q2192.2 133.211 2191.21 133.519 Q2190.25 133.826 2189.68 134.256 Q2189.12 134.687 2188.51 135.568 Q2187.89 136.449 2187.44 137.515 Q2187.01 138.581 2186.4 140.323 Q2186.19 140.897 2186.07 141.061 Q2185.97 141.204 2185.68 141.204 Q2185.47 141.204 2185.31 141.081 Q2185.17 140.938 2185.17 140.753 Q2185.37 140.077 2185.41 139.995 L2187.93 132.596 Q2188.14 132.002 2188.32 131.899 Q2188.53 131.776 2189.29 131.776 L2212.57 131.776 Q2212.94 131.776 2213.06 131.776 Q2213.18 131.776 2213.39 131.817 Q2213.59 131.858 2213.65 131.961 Q2213.72 132.063 2213.72 132.227 Z" fill="#000000" fill-rule="evenodd" fill-opacity="1" /><path clip-path="url(#clip490)" d="M 0 0 M2221.08 153.808 Q2221.13 153.296 2221.92 153.296 L2247.65 153.296 Q2248.85 153.296 2248.88 153.767 Q2248.88 154.28 2247.73 154.259 L2222.21 154.259 Q2221.08 154.28 2221.08 153.808 M2221.08 145.61 Q2221.08 145.098 2221.97 145.119 L2247.6 145.119 Q2248.85 145.119 2248.88 145.61 Q2248.88 146.082 2247.81 146.082 L2221.92 146.082 Q2221.08 146.082 2221.08 145.61 Z" fill="#000000" fill-rule="evenodd" fill-opacity="1" /><path clip-path="url(#clip490)" d="M 0 0 M2265.06 146.758 Q2265.06 140.589 2266.62 137.228 Q2268.79 132.227 2273.91 132.227 Q2275 132.227 2276.13 132.535 Q2277.27 132.822 2278.71 133.949 Q2280.16 135.076 2281.04 136.921 Q2282.73 140.487 2282.73 146.758 Q2282.73 152.886 2281.17 156.227 Q2278.89 161.104 2273.87 161.104 Q2271.99 161.104 2270.06 160.141 Q2268.15 159.178 2266.94 156.862 Q2265.06 153.398 2265.06 146.758 M2268.54 146.246 Q2268.54 152.579 2268.99 155.099 Q2269.51 157.825 2270.9 159.014 Q2272.31 160.182 2273.87 160.182 Q2275.55 160.182 2276.95 158.932 Q2278.36 157.661 2278.79 154.935 Q2279.26 152.251 2279.24 146.246 Q2279.24 140.405 2278.83 138.068 Q2278.28 135.343 2276.8 134.256 Q2275.35 133.15 2273.87 133.15 Q2273.32 133.15 2272.72 133.314 Q2272.15 133.478 2271.31 133.949 Q2270.47 134.42 2269.81 135.588 Q2269.18 136.757 2268.87 138.519 Q2268.54 140.794 2268.54 146.246 Z" fill="#000000" fill-rule="evenodd" fill-opacity="1" /><polyline clip-path="url(#clip490)" style="stroke:#ff0000; stroke-width:3.5; stroke-opacity:1; fill:none" points="
  2023.7,199.493 2162.1,199.493 
  "/>
<path clip-path="url(#clip490)" d="M 0 0 M2213.72 185.155 Q2213.72 185.545 2213.63 185.873 L2212.49 193.169 Q2212.42 193.722 2212.3 193.927 Q2212.2 194.132 2211.87 194.132 Q2211.36 194.132 2211.36 193.599 Q2211.36 193.292 2211.48 192.8 Q2211.83 190.484 2211.83 189.439 Q2211.83 188.742 2211.69 188.229 Q2211.56 187.697 2211.36 187.328 Q2211.17 186.959 2210.74 186.713 Q2210.31 186.467 2209.9 186.323 Q2209.49 186.18 2208.76 186.118 Q2208.02 186.036 2207.38 186.016 Q2206.75 185.995 2205.7 185.995 Q2203.43 185.995 2203.06 186.077 Q2202.67 186.18 2202.46 186.487 Q2202.28 186.774 2202.08 187.635 L2196.5 209.913 L2196.34 210.794 Q2196.34 211.286 2196.64 211.45 Q2196.95 211.614 2197.89 211.716 Q2199.25 211.819 2200.58 211.819 Q2200.62 211.819 2200.7 211.819 Q2201.15 211.819 2201.34 211.839 Q2201.52 211.839 2201.71 211.88 Q2201.89 211.921 2201.93 212.024 Q2201.99 212.106 2201.99 212.27 Q2201.99 212.659 2201.83 212.864 Q2201.67 213.048 2201.5 213.089 Q2201.36 213.11 2201.07 213.11 Q2200.5 213.11 2199.27 213.069 Q2198.04 213.028 2197.42 213.028 L2193.94 212.987 L2190.37 213.028 Q2189.82 213.028 2188.65 213.069 Q2187.48 213.11 2186.93 213.11 Q2186.21 213.11 2186.21 212.598 Q2186.21 212.024 2186.48 211.921 Q2186.77 211.819 2187.97 211.819 Q2189.68 211.819 2190.6 211.737 Q2191.52 211.655 2192.01 211.368 Q2192.52 211.081 2192.67 210.794 Q2192.81 210.487 2192.98 209.79 L2198.61 187.389 Q2198.78 186.897 2198.78 186.508 Q2198.78 186.303 2198.71 186.221 Q2198.67 186.139 2198.41 186.077 Q2198.14 185.995 2197.59 185.995 L2195.95 185.995 Q2194.27 185.995 2193.22 186.077 Q2192.2 186.139 2191.21 186.446 Q2190.25 186.754 2189.68 187.184 Q2189.12 187.615 2188.51 188.496 Q2187.89 189.377 2187.44 190.443 Q2187.01 191.509 2186.4 193.251 Q2186.19 193.824 2186.07 193.988 Q2185.97 194.132 2185.68 194.132 Q2185.47 194.132 2185.31 194.009 Q2185.17 193.865 2185.17 193.681 Q2185.37 193.005 2185.41 192.923 L2187.93 185.524 Q2188.14 184.93 2188.32 184.827 Q2188.53 184.704 2189.29 184.704 L2212.57 184.704 Q2212.94 184.704 2213.06 184.704 Q2213.18 184.704 2213.39 184.745 Q2213.59 184.786 2213.65 184.889 Q2213.72 184.991 2213.72 185.155 Z" fill="#000000" fill-rule="evenodd" fill-opacity="1" /><path clip-path="url(#clip490)" d="M 0 0 M2221.08 206.736 Q2221.13 206.224 2221.92 206.224 L2247.65 206.224 Q2248.85 206.224 2248.88 206.695 Q2248.88 207.207 2247.73 207.187 L2222.21 207.187 Q2221.08 207.207 2221.08 206.736 M2221.08 198.538 Q2221.08 198.026 2221.97 198.046 L2247.6 198.046 Q2248.85 198.046 2248.88 198.538 Q2248.88 199.01 2247.81 199.01 L2221.92 199.01 Q2221.08 199.01 2221.08 198.538 Z" fill="#000000" fill-rule="evenodd" fill-opacity="1" /><path clip-path="url(#clip490)" d="M 0 0 M2265.06 206.183 L2265.06 204.892 L2277.95 185.196 Q2278.28 184.684 2278.79 184.704 Q2279.26 184.704 2279.36 184.889 Q2279.47 185.073 2279.47 185.791 L2279.47 204.892 L2283.67 204.892 L2283.67 206.183 L2279.47 206.183 L2279.47 209.831 Q2279.47 211.04 2279.96 211.429 Q2280.47 211.819 2282.64 211.819 L2283.52 211.819 L2283.52 213.11 Q2281.8 212.987 2277.83 212.987 Q2273.87 212.987 2272.15 213.11 L2272.15 211.819 L2273.03 211.819 Q2275.2 211.819 2275.72 211.45 Q2276.23 211.06 2276.23 209.831 L2276.23 206.183 L2265.06 206.183 M2266.25 204.892 L2276.47 204.892 L2276.47 189.234 L2266.25 204.892 Z" fill="#000000" fill-rule="evenodd" fill-opacity="1" /><path clip-path="url(#clip490)" d="M 0 0 M2285.84 199.686 Q2285.84 193.517 2287.4 190.156 Q2289.57 185.155 2294.69 185.155 Q2295.78 185.155 2296.91 185.463 Q2298.06 185.75 2299.49 186.877 Q2300.94 188.004 2301.83 189.848 Q2303.51 193.415 2303.51 199.686 Q2303.51 205.814 2301.95 209.154 Q2299.67 214.032 2294.65 214.032 Q2292.77 214.032 2290.84 213.069 Q2288.93 212.106 2287.73 209.79 Q2285.84 206.326 2285.84 199.686 M2289.32 199.174 Q2289.32 205.506 2289.78 208.027 Q2290.29 210.753 2291.68 211.942 Q2293.1 213.11 2294.65 213.11 Q2296.33 213.11 2297.73 211.86 Q2299.14 210.589 2299.57 207.863 Q2300.04 205.178 2300.02 199.174 Q2300.02 193.333 2299.61 190.996 Q2299.06 188.27 2297.58 187.184 Q2296.13 186.077 2294.65 186.077 Q2294.1 186.077 2293.51 186.241 Q2292.93 186.405 2292.09 186.877 Q2291.25 187.348 2290.59 188.516 Q2289.96 189.685 2289.65 191.447 Q2289.32 193.722 2289.32 199.174 Z" fill="#000000" fill-rule="evenodd" fill-opacity="1" /></svg>
