<?xml version="1.0" encoding="utf-8"?>
<svg xmlns="http://www.w3.org/2000/svg" xmlns:xlink="http://www.w3.org/1999/xlink" width="600" height="400" viewBox="0 0 2400 1600">
<defs>
  <clipPath id="clip700">
    <rect x="0" y="0" width="2400" height="1600"/>
  </clipPath>
</defs>
<path clip-path="url(#clip700)" d="
M0 1600 L2400 1600 L2400 0 L0 0  Z
  " fill="#ffffff" fill-rule="evenodd" fill-opacity="1"/>
<defs>
  <clipPath id="clip701">
    <rect x="480" y="0" width="1681" height="1600"/>
  </clipPath>
</defs>
<defs>
  <clipPath id="clip702">
    <rect x="246" y="47" width="1682" height="1393"/>
  </clipPath>
</defs>
<path clip-path="url(#clip700)" d="
M262.447 1439.5 L1929.37 1439.5 L1929.37 47.2441 L262.447 47.2441  Z
  " fill="#ffffff" fill-rule="evenodd" fill-opacity="1"/>
<defs>
  <clipPath id="clip703">
    <rect x="262" y="47" width="1668" height="1393"/>
  </clipPath>
</defs>
<polyline clip-path="url(#clip703)" style="stroke:#000000; stroke-width:2; stroke-opacity:0.1; fill:none" points="
  306.472,1439.5 306.472,47.2441 
  "/>
<polyline clip-path="url(#clip703)" style="stroke:#000000; stroke-width:2; stroke-opacity:0.1; fill:none" points="
  621.616,1439.5 621.616,47.2441 
  "/>
<polyline clip-path="url(#clip703)" style="stroke:#000000; stroke-width:2; stroke-opacity:0.1; fill:none" points="
  936.76,1439.5 936.76,47.2441 
  "/>
<polyline clip-path="url(#clip703)" style="stroke:#000000; stroke-width:2; stroke-opacity:0.1; fill:none" points="
  1251.9,1439.5 1251.9,47.2441 
  "/>
<polyline clip-path="url(#clip703)" style="stroke:#000000; stroke-width:2; stroke-opacity:0.1; fill:none" points="
  1567.05,1439.5 1567.05,47.2441 
  "/>
<polyline clip-path="url(#clip703)" style="stroke:#000000; stroke-width:2; stroke-opacity:0.1; fill:none" points="
  1882.19,1439.5 1882.19,47.2441 
  "/>
<polyline clip-path="url(#clip700)" style="stroke:#000000; stroke-width:4; stroke-opacity:1; fill:none" points="
  262.447,1439.5 1929.37,1439.5 
  "/>
<polyline clip-path="url(#clip700)" style="stroke:#000000; stroke-width:4; stroke-opacity:1; fill:none" points="
  306.472,1439.5 306.472,1422.79 
  "/>
<polyline clip-path="url(#clip700)" style="stroke:#000000; stroke-width:4; stroke-opacity:1; fill:none" points="
  621.616,1439.5 621.616,1422.79 
  "/>
<polyline clip-path="url(#clip700)" style="stroke:#000000; stroke-width:4; stroke-opacity:1; fill:none" points="
  936.76,1439.5 936.76,1422.79 
  "/>
<polyline clip-path="url(#clip700)" style="stroke:#000000; stroke-width:4; stroke-opacity:1; fill:none" points="
  1251.9,1439.5 1251.9,1422.79 
  "/>
<polyline clip-path="url(#clip700)" style="stroke:#000000; stroke-width:4; stroke-opacity:1; fill:none" points="
  1567.05,1439.5 1567.05,1422.79 
  "/>
<polyline clip-path="url(#clip700)" style="stroke:#000000; stroke-width:4; stroke-opacity:1; fill:none" points="
  1882.19,1439.5 1882.19,1422.79 
  "/>
<path clip-path="url(#clip700)" d="M 0 0 M306.472 1468.69 Q302.861 1468.69 301.032 1472.26 Q299.227 1475.8 299.227 1482.93 Q299.227 1490.04 301.032 1493.6 Q302.861 1497.14 306.472 1497.14 Q310.107 1497.14 311.912 1493.6 Q313.741 1490.04 313.741 1482.93 Q313.741 1475.8 311.912 1472.26 Q310.107 1468.69 306.472 1468.69 M306.472 1464.99 Q312.282 1464.99 315.338 1469.6 Q318.417 1474.18 318.417 1482.93 Q318.417 1491.66 315.338 1496.26 Q312.282 1500.85 306.472 1500.85 Q300.662 1500.85 297.583 1496.26 Q294.528 1491.66 294.528 1482.93 Q294.528 1474.18 297.583 1469.6 Q300.662 1464.99 306.472 1464.99 Z" fill="#000000" fill-rule="evenodd" fill-opacity="1" /><path clip-path="url(#clip700)" d="M 0 0 M581.223 1496.24 L588.862 1496.24 L588.862 1469.87 L580.551 1471.54 L580.551 1467.28 L588.815 1465.61 L593.491 1465.61 L593.491 1496.24 L601.13 1496.24 L601.13 1500.17 L581.223 1500.17 L581.223 1496.24 Z" fill="#000000" fill-rule="evenodd" fill-opacity="1" /><path clip-path="url(#clip700)" d="M 0 0 M620.574 1468.69 Q616.963 1468.69 615.135 1472.26 Q613.329 1475.8 613.329 1482.93 Q613.329 1490.04 615.135 1493.6 Q616.963 1497.14 620.574 1497.14 Q624.209 1497.14 626.014 1493.6 Q627.843 1490.04 627.843 1482.93 Q627.843 1475.8 626.014 1472.26 Q624.209 1468.69 620.574 1468.69 M620.574 1464.99 Q626.385 1464.99 629.44 1469.6 Q632.519 1474.18 632.519 1482.93 Q632.519 1491.66 629.44 1496.26 Q626.385 1500.85 620.574 1500.85 Q614.764 1500.85 611.686 1496.26 Q608.63 1491.66 608.63 1482.93 Q608.63 1474.18 611.686 1469.6 Q614.764 1464.99 620.574 1464.99 Z" fill="#000000" fill-rule="evenodd" fill-opacity="1" /><path clip-path="url(#clip700)" d="M 0 0 M650.736 1468.69 Q647.125 1468.69 645.296 1472.26 Q643.491 1475.8 643.491 1482.93 Q643.491 1490.04 645.296 1493.6 Q647.125 1497.14 650.736 1497.14 Q654.37 1497.14 656.176 1493.6 Q658.005 1490.04 658.005 1482.93 Q658.005 1475.8 656.176 1472.26 Q654.37 1468.69 650.736 1468.69 M650.736 1464.99 Q656.546 1464.99 659.602 1469.6 Q662.681 1474.18 662.681 1482.93 Q662.681 1491.66 659.602 1496.26 Q656.546 1500.85 650.736 1500.85 Q644.926 1500.85 641.847 1496.26 Q638.792 1491.66 638.792 1482.93 Q638.792 1474.18 641.847 1469.6 Q644.926 1464.99 650.736 1464.99 Z" fill="#000000" fill-rule="evenodd" fill-opacity="1" /><path clip-path="url(#clip700)" d="M 0 0 M900.452 1496.24 L916.771 1496.24 L916.771 1500.17 L894.827 1500.17 L894.827 1496.24 Q897.489 1493.48 902.072 1488.85 Q906.679 1484.2 907.859 1482.86 Q910.105 1480.34 910.984 1478.6 Q911.887 1476.84 911.887 1475.15 Q911.887 1472.4 909.943 1470.66 Q908.021 1468.92 904.92 1468.92 Q902.721 1468.92 900.267 1469.69 Q897.836 1470.45 895.059 1472 L895.059 1467.28 Q897.883 1466.15 900.336 1465.57 Q902.79 1464.99 904.827 1464.99 Q910.197 1464.99 913.392 1467.67 Q916.586 1470.36 916.586 1474.85 Q916.586 1476.98 915.776 1478.9 Q914.989 1480.8 912.883 1483.39 Q912.304 1484.06 909.202 1487.28 Q906.1 1490.47 900.452 1496.24 Z" fill="#000000" fill-rule="evenodd" fill-opacity="1" /><path clip-path="url(#clip700)" d="M 0 0 M936.586 1468.69 Q932.975 1468.69 931.146 1472.26 Q929.341 1475.8 929.341 1482.93 Q929.341 1490.04 931.146 1493.6 Q932.975 1497.14 936.586 1497.14 Q940.22 1497.14 942.026 1493.6 Q943.855 1490.04 943.855 1482.93 Q943.855 1475.8 942.026 1472.26 Q940.22 1468.69 936.586 1468.69 M936.586 1464.99 Q942.396 1464.99 945.452 1469.6 Q948.531 1474.18 948.531 1482.93 Q948.531 1491.66 945.452 1496.26 Q942.396 1500.85 936.586 1500.85 Q930.776 1500.85 927.697 1496.26 Q924.642 1491.66 924.642 1482.93 Q924.642 1474.18 927.697 1469.6 Q930.776 1464.99 936.586 1464.99 Z" fill="#000000" fill-rule="evenodd" fill-opacity="1" /><path clip-path="url(#clip700)" d="M 0 0 M966.748 1468.69 Q963.137 1468.69 961.308 1472.26 Q959.503 1475.8 959.503 1482.93 Q959.503 1490.04 961.308 1493.6 Q963.137 1497.14 966.748 1497.14 Q970.382 1497.14 972.188 1493.6 Q974.016 1490.04 974.016 1482.93 Q974.016 1475.8 972.188 1472.26 Q970.382 1468.69 966.748 1468.69 M966.748 1464.99 Q972.558 1464.99 975.614 1469.6 Q978.692 1474.18 978.692 1482.93 Q978.692 1491.66 975.614 1496.26 Q972.558 1500.85 966.748 1500.85 Q960.938 1500.85 957.859 1496.26 Q954.804 1491.66 954.804 1482.93 Q954.804 1474.18 957.859 1469.6 Q960.938 1464.99 966.748 1464.99 Z" fill="#000000" fill-rule="evenodd" fill-opacity="1" /><path clip-path="url(#clip700)" d="M 0 0 M1225.67 1481.54 Q1229.02 1482.26 1230.9 1484.53 Q1232.79 1486.79 1232.79 1490.13 Q1232.79 1495.24 1229.28 1498.04 Q1225.76 1500.85 1219.28 1500.85 Q1217.1 1500.85 1214.79 1500.41 Q1212.49 1499.99 1210.04 1499.13 L1210.04 1494.62 Q1211.98 1495.75 1214.3 1496.33 Q1216.61 1496.91 1219.14 1496.91 Q1223.54 1496.91 1225.83 1495.17 Q1228.14 1493.44 1228.14 1490.13 Q1228.14 1487.07 1225.99 1485.36 Q1223.86 1483.62 1220.04 1483.62 L1216.01 1483.62 L1216.01 1479.78 L1220.23 1479.78 Q1223.67 1479.78 1225.5 1478.41 Q1227.33 1477.03 1227.33 1474.43 Q1227.33 1471.77 1225.43 1470.36 Q1223.56 1468.92 1220.04 1468.92 Q1218.12 1468.92 1215.92 1469.34 Q1213.72 1469.76 1211.08 1470.64 L1211.08 1466.47 Q1213.74 1465.73 1216.06 1465.36 Q1218.4 1464.99 1220.46 1464.99 Q1225.78 1464.99 1228.88 1467.42 Q1231.98 1469.83 1231.98 1473.95 Q1231.98 1476.82 1230.34 1478.81 Q1228.7 1480.78 1225.67 1481.54 Z" fill="#000000" fill-rule="evenodd" fill-opacity="1" /><path clip-path="url(#clip700)" d="M 0 0 M1251.66 1468.69 Q1248.05 1468.69 1246.22 1472.26 Q1244.42 1475.8 1244.42 1482.93 Q1244.42 1490.04 1246.22 1493.6 Q1248.05 1497.14 1251.66 1497.14 Q1255.29 1497.14 1257.1 1493.6 Q1258.93 1490.04 1258.93 1482.93 Q1258.93 1475.8 1257.1 1472.26 Q1255.29 1468.69 1251.66 1468.69 M1251.66 1464.99 Q1257.47 1464.99 1260.53 1469.6 Q1263.6 1474.18 1263.6 1482.93 Q1263.6 1491.66 1260.53 1496.26 Q1257.47 1500.85 1251.66 1500.85 Q1245.85 1500.85 1242.77 1496.26 Q1239.72 1491.66 1239.72 1482.93 Q1239.72 1474.18 1242.77 1469.6 Q1245.85 1464.99 1251.66 1464.99 Z" fill="#000000" fill-rule="evenodd" fill-opacity="1" /><path clip-path="url(#clip700)" d="M 0 0 M1281.82 1468.69 Q1278.21 1468.69 1276.38 1472.26 Q1274.58 1475.8 1274.58 1482.93 Q1274.58 1490.04 1276.38 1493.6 Q1278.21 1497.14 1281.82 1497.14 Q1285.46 1497.14 1287.26 1493.6 Q1289.09 1490.04 1289.09 1482.93 Q1289.09 1475.8 1287.26 1472.26 Q1285.46 1468.69 1281.82 1468.69 M1281.82 1464.99 Q1287.63 1464.99 1290.69 1469.6 Q1293.77 1474.18 1293.77 1482.93 Q1293.77 1491.66 1290.69 1496.26 Q1287.63 1500.85 1281.82 1500.85 Q1276.01 1500.85 1272.93 1496.26 Q1269.88 1491.66 1269.88 1482.93 Q1269.88 1474.18 1272.93 1469.6 Q1276.01 1464.99 1281.82 1464.99 Z" fill="#000000" fill-rule="evenodd" fill-opacity="1" /><path clip-path="url(#clip700)" d="M 0 0 M1540.14 1469.69 L1528.33 1488.14 L1540.14 1488.14 L1540.14 1469.69 M1538.91 1465.61 L1544.79 1465.61 L1544.79 1488.14 L1549.72 1488.14 L1549.72 1492.03 L1544.79 1492.03 L1544.79 1500.17 L1540.14 1500.17 L1540.14 1492.03 L1524.54 1492.03 L1524.54 1487.51 L1538.91 1465.61 Z" fill="#000000" fill-rule="evenodd" fill-opacity="1" /><path clip-path="url(#clip700)" d="M 0 0 M1567.45 1468.69 Q1563.84 1468.69 1562.01 1472.26 Q1560.21 1475.8 1560.21 1482.93 Q1560.21 1490.04 1562.01 1493.6 Q1563.84 1497.14 1567.45 1497.14 Q1571.09 1497.14 1572.89 1493.6 Q1574.72 1490.04 1574.72 1482.93 Q1574.72 1475.8 1572.89 1472.26 Q1571.09 1468.69 1567.45 1468.69 M1567.45 1464.99 Q1573.26 1464.99 1576.32 1469.6 Q1579.4 1474.18 1579.4 1482.93 Q1579.4 1491.66 1576.32 1496.26 Q1573.26 1500.85 1567.45 1500.85 Q1561.64 1500.85 1558.56 1496.26 Q1555.51 1491.66 1555.51 1482.93 Q1555.51 1474.18 1558.56 1469.6 Q1561.64 1464.99 1567.45 1464.99 Z" fill="#000000" fill-rule="evenodd" fill-opacity="1" /><path clip-path="url(#clip700)" d="M 0 0 M1597.61 1468.69 Q1594 1468.69 1592.17 1472.26 Q1590.37 1475.8 1590.37 1482.93 Q1590.37 1490.04 1592.17 1493.6 Q1594 1497.14 1597.61 1497.14 Q1601.25 1497.14 1603.05 1493.6 Q1604.88 1490.04 1604.88 1482.93 Q1604.88 1475.8 1603.05 1472.26 Q1601.25 1468.69 1597.61 1468.69 M1597.61 1464.99 Q1603.42 1464.99 1606.48 1469.6 Q1609.56 1474.18 1609.56 1482.93 Q1609.56 1491.66 1606.48 1496.26 Q1603.42 1500.85 1597.61 1500.85 Q1591.8 1500.85 1588.73 1496.26 Q1585.67 1491.66 1585.67 1482.93 Q1585.67 1474.18 1588.73 1469.6 Q1591.8 1464.99 1597.61 1464.99 Z" fill="#000000" fill-rule="evenodd" fill-opacity="1" /><path clip-path="url(#clip700)" d="M 0 0 M1841.81 1465.61 L1860.17 1465.61 L1860.17 1469.55 L1846.09 1469.55 L1846.09 1478.02 Q1847.11 1477.67 1848.13 1477.51 Q1849.15 1477.33 1850.17 1477.33 Q1855.95 1477.33 1859.33 1480.5 Q1862.71 1483.67 1862.71 1489.09 Q1862.71 1494.66 1859.24 1497.77 Q1855.77 1500.85 1849.45 1500.85 Q1847.27 1500.85 1845 1500.47 Q1842.76 1500.1 1840.35 1499.36 L1840.35 1494.66 Q1842.43 1495.8 1844.66 1496.35 Q1846.88 1496.91 1849.36 1496.91 Q1853.36 1496.91 1855.7 1494.8 Q1858.04 1492.7 1858.04 1489.09 Q1858.04 1485.47 1855.7 1483.37 Q1853.36 1481.26 1849.36 1481.26 Q1847.48 1481.26 1845.61 1481.68 Q1843.75 1482.1 1841.81 1482.97 L1841.81 1465.61 Z" fill="#000000" fill-rule="evenodd" fill-opacity="1" /><path clip-path="url(#clip700)" d="M 0 0 M1881.92 1468.69 Q1878.31 1468.69 1876.48 1472.26 Q1874.68 1475.8 1874.68 1482.93 Q1874.68 1490.04 1876.48 1493.6 Q1878.31 1497.14 1881.92 1497.14 Q1885.56 1497.14 1887.36 1493.6 Q1889.19 1490.04 1889.19 1482.93 Q1889.19 1475.8 1887.36 1472.26 Q1885.56 1468.69 1881.92 1468.69 M1881.92 1464.99 Q1887.73 1464.99 1890.79 1469.6 Q1893.87 1474.18 1893.87 1482.93 Q1893.87 1491.66 1890.79 1496.26 Q1887.73 1500.85 1881.92 1500.85 Q1876.11 1500.85 1873.04 1496.26 Q1869.98 1491.66 1869.98 1482.93 Q1869.98 1474.18 1873.04 1469.6 Q1876.11 1464.99 1881.92 1464.99 Z" fill="#000000" fill-rule="evenodd" fill-opacity="1" /><path clip-path="url(#clip700)" d="M 0 0 M1912.09 1468.69 Q1908.48 1468.69 1906.65 1472.26 Q1904.84 1475.8 1904.84 1482.93 Q1904.84 1490.04 1906.65 1493.6 Q1908.48 1497.14 1912.09 1497.14 Q1915.72 1497.14 1917.53 1493.6 Q1919.36 1490.04 1919.36 1482.93 Q1919.36 1475.8 1917.53 1472.26 Q1915.72 1468.69 1912.09 1468.69 M1912.09 1464.99 Q1917.9 1464.99 1920.95 1469.6 Q1924.03 1474.18 1924.03 1482.93 Q1924.03 1491.66 1920.95 1496.26 Q1917.9 1500.85 1912.09 1500.85 Q1906.28 1500.85 1903.2 1496.26 Q1900.14 1491.66 1900.14 1482.93 Q1900.14 1474.18 1903.2 1469.6 Q1906.28 1464.99 1912.09 1464.99 Z" fill="#000000" fill-rule="evenodd" fill-opacity="1" /><path clip-path="url(#clip700)" d="M 0 0 M1107.84 1535.75 Q1107.84 1541.16 1106.1 1547.24 Q1104.4 1553.3 1101.69 1558.19 Q1098.99 1563.06 1095.44 1566.28 Q1091.9 1569.47 1088.52 1569.47 Q1086.36 1569.47 1084.75 1568.27 Q1083.17 1567.05 1082.3 1565.02 Q1081.43 1562.96 1081.01 1560.71 Q1080.6 1558.42 1080.6 1555.94 Q1080.6 1552.24 1081.4 1548.21 Q1082.21 1544.15 1083.56 1540.48 Q1084.91 1536.78 1086.81 1533.43 Q1088.71 1530.05 1090.81 1527.6 Q1092.93 1525.12 1095.31 1523.67 Q1097.7 1522.22 1099.92 1522.22 Q1101.53 1522.22 1102.82 1522.93 Q1104.14 1523.6 1104.98 1524.8 Q1105.81 1525.96 1106.39 1527.34 Q1107 1528.73 1107.29 1530.34 Q1107.58 1531.91 1107.71 1533.23 Q1107.84 1534.52 1107.84 1535.75 M1103.49 1531.66 Q1103.49 1530.01 1103.37 1528.79 Q1103.24 1527.53 1102.88 1526.28 Q1102.53 1525.02 1101.76 1524.35 Q1101.01 1523.67 1099.86 1523.67 Q1096.47 1523.67 1092.67 1530.59 Q1091.45 1532.75 1090.35 1535.68 Q1089.26 1538.61 1088.87 1540 Q1088.49 1541.38 1087.58 1544.8 L1101.37 1544.8 Q1103.49 1536 1103.49 1531.66 M1100.79 1546.89 L1087.07 1546.89 Q1084.94 1554.94 1084.94 1559.96 Q1084.94 1564.34 1085.85 1566.18 Q1086.78 1567.98 1088.52 1567.98 Q1090.52 1567.98 1092.38 1565.99 Q1094.25 1563.96 1096.15 1560.29 Q1098.66 1555.52 1100.79 1546.89 Z" fill="#000000" fill-rule="evenodd" fill-opacity="1" /><polyline clip-path="url(#clip703)" style="stroke:#000000; stroke-width:2; stroke-opacity:0.1; fill:none" points="
  262.447,1400.11 1929.37,1400.11 
  "/>
<polyline clip-path="url(#clip703)" style="stroke:#000000; stroke-width:2; stroke-opacity:0.1; fill:none" points="
  262.447,1095.58 1929.37,1095.58 
  "/>
<polyline clip-path="url(#clip703)" style="stroke:#000000; stroke-width:2; stroke-opacity:0.1; fill:none" points="
  262.447,791.047 1929.37,791.047 
  "/>
<polyline clip-path="url(#clip703)" style="stroke:#000000; stroke-width:2; stroke-opacity:0.1; fill:none" points="
  262.447,486.514 1929.37,486.514 
  "/>
<polyline clip-path="url(#clip703)" style="stroke:#000000; stroke-width:2; stroke-opacity:0.1; fill:none" points="
  262.447,181.981 1929.37,181.981 
  "/>
<polyline clip-path="url(#clip700)" style="stroke:#000000; stroke-width:4; stroke-opacity:1; fill:none" points="
  262.447,1439.5 262.447,47.2441 
  "/>
<polyline clip-path="url(#clip700)" style="stroke:#000000; stroke-width:4; stroke-opacity:1; fill:none" points="
  262.447,1400.11 282.45,1400.11 
  "/>
<polyline clip-path="url(#clip700)" style="stroke:#000000; stroke-width:4; stroke-opacity:1; fill:none" points="
  262.447,1095.58 282.45,1095.58 
  "/>
<polyline clip-path="url(#clip700)" style="stroke:#000000; stroke-width:4; stroke-opacity:1; fill:none" points="
  262.447,791.047 282.45,791.047 
  "/>
<polyline clip-path="url(#clip700)" style="stroke:#000000; stroke-width:4; stroke-opacity:1; fill:none" points="
  262.447,486.514 282.45,486.514 
  "/>
<polyline clip-path="url(#clip700)" style="stroke:#000000; stroke-width:4; stroke-opacity:1; fill:none" points="
  262.447,181.981 282.45,181.981 
  "/>
<path clip-path="url(#clip700)" d="M 0 0 M214.502 1385.91 Q210.891 1385.91 209.063 1389.48 Q207.257 1393.02 207.257 1400.15 Q207.257 1407.25 209.063 1410.82 Q210.891 1414.36 214.502 1414.36 Q218.137 1414.36 219.942 1410.82 Q221.771 1407.25 221.771 1400.15 Q221.771 1393.02 219.942 1389.48 Q218.137 1385.91 214.502 1385.91 M214.502 1382.21 Q220.312 1382.21 223.368 1386.81 Q226.447 1391.4 226.447 1400.15 Q226.447 1408.87 223.368 1413.48 Q220.312 1418.06 214.502 1418.06 Q208.692 1418.06 205.613 1413.48 Q202.558 1408.87 202.558 1400.15 Q202.558 1391.4 205.613 1386.81 Q208.692 1382.21 214.502 1382.21 Z" fill="#000000" fill-rule="evenodd" fill-opacity="1" /><path clip-path="url(#clip700)" d="M 0 0 M148.206 1108.93 L164.526 1108.93 L164.526 1112.86 L142.581 1112.86 L142.581 1108.93 Q145.243 1106.17 149.827 1101.54 Q154.433 1096.89 155.614 1095.55 Q157.859 1093.02 158.739 1091.29 Q159.642 1089.53 159.642 1087.84 Q159.642 1085.08 157.697 1083.35 Q155.776 1081.61 152.674 1081.61 Q150.475 1081.61 148.021 1082.37 Q145.591 1083.14 142.813 1084.69 L142.813 1079.97 Q145.637 1078.83 148.091 1078.25 Q150.544 1077.68 152.581 1077.68 Q157.952 1077.68 161.146 1080.36 Q164.341 1083.05 164.341 1087.54 Q164.341 1089.67 163.53 1091.59 Q162.743 1093.49 160.637 1096.08 Q160.058 1096.75 156.956 1099.97 Q153.855 1103.16 148.206 1108.93 Z" fill="#000000" fill-rule="evenodd" fill-opacity="1" /><path clip-path="url(#clip700)" d="M 0 0 M184.34 1081.38 Q180.729 1081.38 178.901 1084.94 Q177.095 1088.49 177.095 1095.61 Q177.095 1102.72 178.901 1106.29 Q180.729 1109.83 184.34 1109.83 Q187.975 1109.83 189.78 1106.29 Q191.609 1102.72 191.609 1095.61 Q191.609 1088.49 189.78 1084.94 Q187.975 1081.38 184.34 1081.38 M184.34 1077.68 Q190.151 1077.68 193.206 1082.28 Q196.285 1086.87 196.285 1095.61 Q196.285 1104.34 193.206 1108.95 Q190.151 1113.53 184.34 1113.53 Q178.53 1113.53 175.452 1108.95 Q172.396 1104.34 172.396 1095.61 Q172.396 1086.87 175.452 1082.28 Q178.53 1077.68 184.34 1077.68 Z" fill="#000000" fill-rule="evenodd" fill-opacity="1" /><path clip-path="url(#clip700)" d="M 0 0 M214.502 1081.38 Q210.891 1081.38 209.063 1084.94 Q207.257 1088.49 207.257 1095.61 Q207.257 1102.72 209.063 1106.29 Q210.891 1109.83 214.502 1109.83 Q218.137 1109.83 219.942 1106.29 Q221.771 1102.72 221.771 1095.61 Q221.771 1088.49 219.942 1084.94 Q218.137 1081.38 214.502 1081.38 M214.502 1077.68 Q220.312 1077.68 223.368 1082.28 Q226.447 1086.87 226.447 1095.61 Q226.447 1104.34 223.368 1108.95 Q220.312 1113.53 214.502 1113.53 Q208.692 1113.53 205.613 1108.95 Q202.558 1104.34 202.558 1095.61 Q202.558 1086.87 205.613 1082.28 Q208.692 1077.68 214.502 1077.68 Z" fill="#000000" fill-rule="evenodd" fill-opacity="1" /><path clip-path="url(#clip700)" d="M 0 0 M157.026 777.841 L145.22 796.29 L157.026 796.29 L157.026 777.841 M155.799 773.767 L161.679 773.767 L161.679 796.29 L166.609 796.29 L166.609 800.179 L161.679 800.179 L161.679 808.327 L157.026 808.327 L157.026 800.179 L141.424 800.179 L141.424 795.665 L155.799 773.767 Z" fill="#000000" fill-rule="evenodd" fill-opacity="1" /><path clip-path="url(#clip700)" d="M 0 0 M184.34 776.846 Q180.729 776.846 178.901 780.411 Q177.095 783.952 177.095 791.082 Q177.095 798.188 178.901 801.753 Q180.729 805.295 184.34 805.295 Q187.975 805.295 189.78 801.753 Q191.609 798.188 191.609 791.082 Q191.609 783.952 189.78 780.411 Q187.975 776.846 184.34 776.846 M184.34 773.142 Q190.151 773.142 193.206 777.749 Q196.285 782.332 196.285 791.082 Q196.285 799.809 193.206 804.415 Q190.151 808.998 184.34 808.998 Q178.53 808.998 175.452 804.415 Q172.396 799.809 172.396 791.082 Q172.396 782.332 175.452 777.749 Q178.53 773.142 184.34 773.142 Z" fill="#000000" fill-rule="evenodd" fill-opacity="1" /><path clip-path="url(#clip700)" d="M 0 0 M214.502 776.846 Q210.891 776.846 209.063 780.411 Q207.257 783.952 207.257 791.082 Q207.257 798.188 209.063 801.753 Q210.891 805.295 214.502 805.295 Q218.137 805.295 219.942 801.753 Q221.771 798.188 221.771 791.082 Q221.771 783.952 219.942 780.411 Q218.137 776.846 214.502 776.846 M214.502 773.142 Q220.312 773.142 223.368 777.749 Q226.447 782.332 226.447 791.082 Q226.447 799.809 223.368 804.415 Q220.312 808.998 214.502 808.998 Q208.692 808.998 205.613 804.415 Q202.558 799.809 202.558 791.082 Q202.558 782.332 205.613 777.749 Q208.692 773.142 214.502 773.142 Z" fill="#000000" fill-rule="evenodd" fill-opacity="1" /><path clip-path="url(#clip700)" d="M 0 0 M154.757 484.651 Q151.609 484.651 149.757 486.803 Q147.929 488.956 147.929 492.706 Q147.929 496.433 149.757 498.609 Q151.609 500.762 154.757 500.762 Q157.905 500.762 159.734 498.609 Q161.586 496.433 161.586 492.706 Q161.586 488.956 159.734 486.803 Q157.905 484.651 154.757 484.651 M164.04 469.998 L164.04 474.257 Q162.28 473.424 160.475 472.984 Q158.692 472.544 156.933 472.544 Q152.304 472.544 149.85 475.669 Q147.419 478.794 147.072 485.114 Q148.438 483.1 150.498 482.035 Q152.558 480.947 155.035 480.947 Q160.243 480.947 163.253 484.118 Q166.285 487.266 166.285 492.706 Q166.285 498.03 163.137 501.248 Q159.989 504.465 154.757 504.465 Q148.762 504.465 145.591 499.882 Q142.419 495.276 142.419 486.549 Q142.419 478.354 146.308 473.493 Q150.197 468.609 156.748 468.609 Q158.507 468.609 160.29 468.956 Q162.095 469.303 164.04 469.998 Z" fill="#000000" fill-rule="evenodd" fill-opacity="1" /><path clip-path="url(#clip700)" d="M 0 0 M184.34 472.313 Q180.729 472.313 178.901 475.877 Q177.095 479.419 177.095 486.549 Q177.095 493.655 178.901 497.22 Q180.729 500.762 184.34 500.762 Q187.975 500.762 189.78 497.22 Q191.609 493.655 191.609 486.549 Q191.609 479.419 189.78 475.877 Q187.975 472.313 184.34 472.313 M184.34 468.609 Q190.151 468.609 193.206 473.215 Q196.285 477.799 196.285 486.549 Q196.285 495.276 193.206 499.882 Q190.151 504.465 184.34 504.465 Q178.53 504.465 175.452 499.882 Q172.396 495.276 172.396 486.549 Q172.396 477.799 175.452 473.215 Q178.53 468.609 184.34 468.609 Z" fill="#000000" fill-rule="evenodd" fill-opacity="1" /><path clip-path="url(#clip700)" d="M 0 0 M214.502 472.313 Q210.891 472.313 209.063 475.877 Q207.257 479.419 207.257 486.549 Q207.257 493.655 209.063 497.22 Q210.891 500.762 214.502 500.762 Q218.137 500.762 219.942 497.22 Q221.771 493.655 221.771 486.549 Q221.771 479.419 219.942 475.877 Q218.137 472.313 214.502 472.313 M214.502 468.609 Q220.312 468.609 223.368 473.215 Q226.447 477.799 226.447 486.549 Q226.447 495.276 223.368 499.882 Q220.312 504.465 214.502 504.465 Q208.692 504.465 205.613 499.882 Q202.558 495.276 202.558 486.549 Q202.558 477.799 205.613 473.215 Q208.692 468.609 214.502 468.609 Z" fill="#000000" fill-rule="evenodd" fill-opacity="1" /><path clip-path="url(#clip700)" d="M 0 0 M154.179 182.849 Q150.845 182.849 148.924 184.631 Q147.026 186.414 147.026 189.539 Q147.026 192.664 148.924 194.446 Q150.845 196.228 154.179 196.228 Q157.512 196.228 159.433 194.446 Q161.354 192.641 161.354 189.539 Q161.354 186.414 159.433 184.631 Q157.535 182.849 154.179 182.849 M149.503 180.858 Q146.493 180.117 144.804 178.057 Q143.137 175.997 143.137 173.034 Q143.137 168.891 146.077 166.483 Q149.04 164.076 154.179 164.076 Q159.341 164.076 162.28 166.483 Q165.22 168.891 165.22 173.034 Q165.22 175.997 163.53 178.057 Q161.864 180.117 158.878 180.858 Q162.257 181.645 164.132 183.937 Q166.03 186.229 166.03 189.539 Q166.03 194.562 162.952 197.247 Q159.896 199.932 154.179 199.932 Q148.461 199.932 145.382 197.247 Q142.327 194.562 142.327 189.539 Q142.327 186.229 144.225 183.937 Q146.123 181.645 149.503 180.858 M147.79 173.474 Q147.79 176.159 149.456 177.664 Q151.146 179.168 154.179 179.168 Q157.188 179.168 158.878 177.664 Q160.591 176.159 160.591 173.474 Q160.591 170.789 158.878 169.284 Q157.188 167.78 154.179 167.78 Q151.146 167.78 149.456 169.284 Q147.79 170.789 147.79 173.474 Z" fill="#000000" fill-rule="evenodd" fill-opacity="1" /><path clip-path="url(#clip700)" d="M 0 0 M184.34 167.78 Q180.729 167.78 178.901 171.344 Q177.095 174.886 177.095 182.016 Q177.095 189.122 178.901 192.687 Q180.729 196.228 184.34 196.228 Q187.975 196.228 189.78 192.687 Q191.609 189.122 191.609 182.016 Q191.609 174.886 189.78 171.344 Q187.975 167.78 184.34 167.78 M184.34 164.076 Q190.151 164.076 193.206 168.682 Q196.285 173.266 196.285 182.016 Q196.285 190.742 193.206 195.349 Q190.151 199.932 184.34 199.932 Q178.53 199.932 175.452 195.349 Q172.396 190.742 172.396 182.016 Q172.396 173.266 175.452 168.682 Q178.53 164.076 184.34 164.076 Z" fill="#000000" fill-rule="evenodd" fill-opacity="1" /><path clip-path="url(#clip700)" d="M 0 0 M214.502 167.78 Q210.891 167.78 209.063 171.344 Q207.257 174.886 207.257 182.016 Q207.257 189.122 209.063 192.687 Q210.891 196.228 214.502 196.228 Q218.137 196.228 219.942 192.687 Q221.771 189.122 221.771 182.016 Q221.771 174.886 219.942 171.344 Q218.137 167.78 214.502 167.78 M214.502 164.076 Q220.312 164.076 223.368 168.682 Q226.447 173.266 226.447 182.016 Q226.447 190.742 223.368 195.349 Q220.312 199.932 214.502 199.932 Q208.692 199.932 205.613 195.349 Q202.558 190.742 202.558 182.016 Q202.558 173.266 205.613 168.682 Q208.692 164.076 214.502 164.076 Z" fill="#000000" fill-rule="evenodd" fill-opacity="1" /><path clip-path="url(#clip700)" d="M 0 0 M53.6652 942.087 L70.0902 947.756 L70.0902 1002.44 Q70.0902 1003.18 70.058 1003.47 Q70.0258 1003.76 69.8648 1003.99 Q69.7037 1004.21 69.3495 1004.21 Q69.0596 1004.21 68.3189 1003.63 L39.3658 980.219 L6.25819 1004.28 Q4.74452 1004.28 4.45466 1004.02 Q4.13261 1003.76 4.13261 1002.44 L4.13261 947.756 L19.5592 942.087 L19.5592 943.73 Q17.5624 944.471 15.8877 945.662 Q14.1808 946.822 12.957 948.174 Q11.7332 949.495 10.767 951.234 Q9.76863 952.941 9.15672 954.551 Q8.5126 956.129 8.06172 958.094 Q7.57863 960.058 7.35319 961.636 Q7.09554 963.182 6.96672 965.114 Q6.8379 967.047 6.80569 968.271 Q6.77349 969.494 6.77349 971.04 L6.77349 997.159 L36.1774 975.742 Q36.9182 975.259 37.1114 975.259 Q37.4013 975.259 38.1742 975.871 L66.4509 998.737 L66.4509 970.718 Q66.4509 961.701 64.5508 955.421 Q63.1015 951.169 60.2352 948.078 Q57.3689 944.954 53.6652 943.73 L53.6652 942.087 Z" fill="#000000" fill-rule="evenodd" fill-opacity="1" /><path clip-path="url(#clip700)" d="M 0 0 M96.2324 1013.26 Q96.8636 1013.26 97.0215 1013.56 Q97.1567 1013.85 97.1567 1014.66 L97.1567 1018.99 L110.773 1022.42 Q111.968 1022.69 112.983 1022.69 Q114.11 1022.69 114.606 1022.35 Q115.102 1021.99 115.102 1021.25 Q115.102 1019.78 113.772 1018.2 Q112.442 1016.6 109.195 1015.25 Q108.767 1015.07 108.677 1014.98 Q108.564 1014.87 108.564 1014.57 Q108.564 1014.01 109.015 1014.01 Q109.173 1014.01 109.894 1014.32 Q110.616 1014.62 111.675 1015.27 Q112.735 1015.9 113.727 1016.74 Q114.719 1017.55 115.44 1018.79 Q116.139 1020.03 116.139 1021.36 Q116.139 1023.23 114.944 1024.42 Q113.749 1025.6 111.878 1025.6 Q111.269 1025.6 109.331 1025.12 Q107.369 1024.65 97.1567 1022.08 L97.1567 1026.16 Q97.1567 1026.72 97.1342 1026.95 Q97.1116 1027.15 96.9989 1027.31 Q96.8636 1027.45 96.5931 1027.45 Q96.1648 1027.45 95.9844 1027.26 Q95.7815 1027.08 95.759 1026.86 Q95.7139 1026.61 95.7139 1026.05 L95.7139 1021.72 L88.3871 1019.92 Q87.6657 1019.74 87.2599 1019.28 Q86.8315 1018.81 86.7864 1018.54 Q86.7188 1018.27 86.7188 1018.07 Q86.7188 1017.46 87.057 1017.1 Q87.3726 1016.74 87.9587 1016.74 Q88.2743 1016.74 95.7139 1018.63 L95.7139 1014.57 Q95.7139 1014.05 95.7364 1013.85 Q95.759 1013.63 95.8717 1013.45 Q95.9844 1013.26 96.2324 1013.26 Z" fill="#000000" fill-rule="evenodd" fill-opacity="1" /><path clip-path="url(#clip700)" d="M 0 0 M108.609 998.132 Q108.046 998.087 108.046 997.208 L108.046 968.915 Q108.046 967.585 108.564 967.562 Q109.128 967.562 109.105 968.825 L109.105 996.892 Q109.128 998.132 108.609 998.132 M99.5915 998.132 Q99.0279 998.132 99.0504 997.163 L99.0504 968.96 Q99.0504 967.585 99.5915 967.562 Q100.11 967.562 100.11 968.735 L100.11 997.208 Q100.11 998.132 99.5915 998.132 Z" fill="#000000" fill-rule="evenodd" fill-opacity="1" /><path clip-path="url(#clip700)" d="M 0 0 M100.854 949.75 Q94.0682 949.75 90.3709 948.037 Q84.8702 945.647 84.8702 940.011 Q84.8702 938.816 85.2083 937.577 Q85.524 936.314 86.7639 934.736 Q88.0038 933.135 90.0328 932.166 Q93.9555 930.317 100.854 930.317 Q107.595 930.317 111.269 932.031 Q116.635 934.533 116.635 940.056 Q116.635 942.13 115.575 944.25 Q114.516 946.346 111.968 947.676 Q108.158 949.75 100.854 949.75 M100.29 945.918 Q107.256 945.918 110.029 945.422 Q113.028 944.858 114.335 943.325 Q115.62 941.77 115.62 940.056 Q115.62 938.208 114.245 936.675 Q112.847 935.119 109.849 934.646 Q106.896 934.127 100.29 934.15 Q93.8653 934.15 91.2953 934.601 Q88.2969 935.209 87.102 936.833 Q85.8847 938.433 85.8847 940.056 Q85.8847 940.665 86.065 941.319 Q86.2454 941.95 86.7639 942.874 Q87.2824 943.799 88.5674 944.52 Q89.8524 945.219 91.7912 945.557 Q94.2936 945.918 100.29 945.918 Z" fill="#000000" fill-rule="evenodd" fill-opacity="1" /><path clip-path="url(#clip700)" d="M 0 0 M9.67201 874.983 Q10.2839 874.983 10.7992 875.112 L22.2645 876.915 Q23.1341 877.012 23.4561 877.205 Q23.7782 877.366 23.7782 877.881 Q23.7782 878.686 22.9408 878.686 Q22.4577 878.686 21.6848 878.493 Q18.0455 877.946 16.403 877.946 Q15.308 877.946 14.5029 878.171 Q13.6655 878.364 13.0858 878.686 Q12.5061 878.976 12.1197 879.653 Q11.7332 880.329 11.5077 880.973 Q11.2823 881.617 11.1857 882.777 Q11.0569 883.936 11.0247 884.934 Q10.9925 885.933 10.9925 887.575 Q10.9925 891.15 11.1213 891.73 Q11.2823 892.342 11.7654 892.664 Q12.2163 892.954 13.5689 893.276 L48.5767 902.036 L49.9615 902.293 Q50.7345 902.293 50.9921 901.81 Q51.2498 901.327 51.4108 899.846 Q51.5718 897.72 51.5718 895.627 Q51.5718 895.562 51.5718 895.433 Q51.5718 894.725 51.604 894.435 Q51.604 894.145 51.6685 893.855 Q51.7329 893.566 51.8939 893.501 Q52.0227 893.405 52.2804 893.405 Q52.8923 893.405 53.2143 893.662 Q53.5042 893.92 53.5686 894.177 Q53.6008 894.403 53.6008 894.854 Q53.6008 895.756 53.5364 897.688 Q53.472 899.62 53.472 900.586 L53.4076 906.061 L53.472 911.665 Q53.472 912.535 53.5364 914.371 Q53.6008 916.206 53.6008 917.076 Q53.6008 918.203 52.7957 918.203 Q51.8939 918.203 51.7329 917.784 Q51.5718 917.333 51.5718 915.433 Q51.5718 912.76 51.443 911.311 Q51.3142 909.862 50.8633 909.089 Q50.4124 908.284 49.9615 908.058 Q49.4785 907.833 48.3835 907.575 L13.1825 898.718 Q12.4095 898.461 11.7976 898.461 Q11.4755 898.461 11.3467 898.557 Q11.2179 898.622 11.1213 899.041 Q10.9925 899.459 10.9925 900.329 L10.9925 902.905 Q10.9925 905.546 11.1213 907.189 Q11.2179 908.799 11.701 910.345 Q12.1841 911.858 12.8604 912.76 Q13.5367 913.63 14.9216 914.596 Q16.3064 915.562 17.9811 916.271 Q19.6558 916.947 22.3933 917.913 Q23.2951 918.235 23.5527 918.428 Q23.7782 918.59 23.7782 919.04 Q23.7782 919.362 23.5849 919.62 Q23.3595 919.846 23.0697 919.846 Q22.0069 919.523 21.878 919.459 L10.2517 915.498 Q9.31775 915.176 9.15672 914.886 Q8.96348 914.564 8.96348 913.372 L8.96348 876.786 Q8.96348 876.207 8.96348 876.013 Q8.96348 875.82 9.0279 875.498 Q9.09231 875.176 9.25334 875.079 Q9.41437 874.983 9.67201 874.983 Z" fill="#000000" fill-rule="evenodd" fill-opacity="1" /><path clip-path="url(#clip700)" d="M 0 0 M16.5041 850.007 L17.4284 850.571 Q15.918 854.065 13.5057 858.416 Q15.918 862.767 17.4284 866.261 L16.5041 866.802 Q13.1901 862.992 10.6426 858.416 Q13.2127 853.794 16.5041 850.007 Z" fill="#000000" fill-rule="evenodd" fill-opacity="1" /><path clip-path="url(#clip700)" d="M 0 0 M28.8023 848.845 Q30.6058 848.845 31.6364 849.972 Q32.6348 851.099 32.6348 852.388 Q32.6348 853.611 31.9263 854.256 Q31.2177 854.9 30.316 854.9 Q29.0921 854.9 28.0294 853.998 Q26.9666 853.096 26.7411 851.743 Q25.9038 853.064 25.9038 855.028 Q25.9038 856.317 26.5801 857.444 Q27.2564 858.539 28.126 859.215 Q28.9955 859.859 30.2516 860.439 Q31.4754 860.987 32.2161 861.212 Q32.9246 861.405 33.6976 861.566 L42.7152 863.821 Q46.9986 864.916 48.5123 864.916 Q50.3802 864.916 51.6363 864.014 Q52.8601 863.112 52.8601 861.309 Q52.8601 860.6 52.6668 859.795 Q52.4414 858.99 51.8617 857.959 Q51.2498 856.896 50.348 855.962 Q49.414 854.996 47.836 854.062 Q46.2579 853.128 44.2289 852.516 Q43.5204 852.323 43.5204 851.679 Q43.5204 850.874 44.1645 850.874 Q44.712 850.874 45.8714 851.325 Q46.9986 851.743 48.4801 852.677 Q49.9293 853.579 51.2498 854.771 Q52.538 855.962 53.4398 857.734 Q54.3415 859.505 54.3415 861.437 Q54.3415 864.207 52.8601 866.043 Q51.3786 867.879 49.3174 868.555 Q49.6073 868.716 49.9938 868.941 Q50.3802 869.167 51.2498 869.843 Q52.0871 870.487 52.7313 871.228 Q53.3432 871.969 53.8262 873.128 Q54.3415 874.255 54.3415 875.479 Q54.3415 877.025 53.8907 878.41 Q53.4398 879.763 52.4092 880.729 Q51.3786 881.695 49.9615 881.695 Q48.3835 881.695 47.2885 880.632 Q46.1613 879.537 46.1613 878.056 Q46.1613 877.122 46.7088 876.381 Q47.2563 875.608 48.4479 875.608 Q49.7683 875.608 50.7667 876.51 Q51.7651 877.412 52.0227 878.7 Q52.8601 877.379 52.8601 875.415 Q52.8601 873.289 50.9921 871.614 Q49.1242 869.94 46.0002 869.135 Q38.4963 867.138 35.1468 866.365 Q31.7652 865.592 30.316 865.592 Q28.9633 865.592 28.0294 865.946 Q27.0954 866.301 26.6767 866.912 Q26.2258 867.492 26.0648 868.04 Q25.9038 868.555 25.9038 869.135 Q25.9038 870.101 26.2902 871.196 Q26.6767 872.259 27.5785 873.547 Q28.448 874.803 30.2516 875.994 Q32.0551 877.186 34.5349 877.991 Q35.2757 878.152 35.2757 878.861 Q35.2435 879.634 34.5994 879.634 Q34.0519 879.634 32.9246 879.215 Q31.7652 878.764 30.316 877.862 Q28.8667 876.928 27.5785 875.737 Q26.258 874.513 25.3563 872.742 Q24.4545 870.938 24.4545 869.006 Q24.4545 868.136 24.6477 867.299 Q24.8088 866.429 25.2919 865.399 Q25.7749 864.336 26.8377 863.402 Q27.9005 862.468 29.4464 861.888 Q28.7057 861.502 27.9971 860.987 Q27.2886 860.439 26.4191 859.602 Q25.5173 858.732 25.002 857.541 Q24.4545 856.317 24.4545 854.964 Q24.4545 853.644 24.8088 852.355 Q25.1308 851.067 26.1936 849.972 Q27.2242 848.845 28.8023 848.845 Z" fill="#000000" fill-rule="evenodd" fill-opacity="1" /><path clip-path="url(#clip700)" d="M 0 0 M52.1213 823.122 Q52.7526 823.122 52.9104 823.415 Q53.0456 823.708 53.0456 824.519 L53.0456 828.848 L66.6623 832.274 Q67.8571 832.545 68.8716 832.545 Q69.9988 832.545 70.4948 832.207 Q70.9907 831.846 70.9907 831.102 Q70.9907 829.637 69.6606 828.059 Q68.3305 826.458 65.0842 825.105 Q64.6558 824.925 64.5657 824.835 Q64.4529 824.722 64.4529 824.429 Q64.4529 823.866 64.9038 823.866 Q65.0616 823.866 65.783 824.181 Q66.5045 824.474 67.564 825.128 Q68.6236 825.759 69.6155 826.593 Q70.6075 827.405 71.3289 828.645 Q72.0278 829.885 72.0278 831.215 Q72.0278 833.086 70.8329 834.281 Q69.6381 835.453 67.7669 835.453 Q67.1582 835.453 65.2194 834.98 Q63.2581 834.506 53.0456 831.936 L53.0456 836.017 Q53.0456 836.58 53.0231 836.806 Q53.0005 837.009 52.8878 837.167 Q52.7526 837.302 52.482 837.302 Q52.0537 837.302 51.8733 837.121 Q51.6704 836.941 51.6479 836.716 Q51.6028 836.468 51.6028 835.904 L51.6028 831.576 L44.276 829.772 Q43.5546 829.592 43.1488 829.141 Q42.7204 828.667 42.6753 828.397 Q42.6077 828.126 42.6077 827.923 Q42.6077 827.315 42.9459 826.954 Q43.2615 826.593 43.8476 826.593 Q44.1632 826.593 51.6028 828.487 L51.6028 824.429 Q51.6028 823.911 51.6253 823.708 Q51.6479 823.482 51.7606 823.302 Q51.8733 823.122 52.1213 823.122 Z" fill="#000000" fill-rule="evenodd" fill-opacity="1" /><path clip-path="url(#clip700)" d="M 0 0 M35.6497 813.761 Q25.0076 813.761 16.4262 809.793 Q12.8275 808.101 9.81325 805.733 Q6.799 803.365 5.47642 801.796 Q4.15383 800.227 4.15383 799.797 Q4.15383 799.182 4.76899 799.151 Q5.07657 799.151 5.84551 799.981 Q16.1801 810.131 35.6497 810.101 Q55.1809 810.101 65.1156 800.227 Q66.1921 799.151 66.5305 799.151 Q67.1456 799.151 67.1456 799.797 Q67.1456 800.227 65.8846 801.734 Q64.6235 803.242 61.7323 805.579 Q58.8411 807.917 55.3039 809.608 Q46.7225 813.761 35.6497 813.761 Z" fill="#000000" fill-rule="evenodd" fill-opacity="1" /><path clip-path="url(#clip700)" d="M 0 0 M17.4014 782.532 Q11.7332 782.532 7.9329 779.634 Q4.13261 776.735 4.13261 772.838 Q4.13261 770.455 6.25819 768.104 Q11.3467 762.758 11.3145 755.769 Q11.3145 747.846 5.06658 743.241 Q4.13261 742.436 4.13261 741.856 Q4.13261 741.341 4.55128 740.954 Q4.93775 740.536 5.45305 740.536 Q5.83952 740.536 6.64466 741.051 L56.3061 774.416 Q57.3045 775.157 57.3045 775.737 Q57.3045 776.252 56.8858 776.671 Q56.4993 777.057 55.984 777.057 Q55.5332 777.057 54.6636 776.477 L10.5416 746.848 L10.4772 746.912 Q12.796 750.326 12.7638 755.705 Q12.7638 760.793 9.99407 765.656 Q13.4079 764.271 17.4658 764.271 Q23.0052 764.271 26.8699 766.751 Q30.7024 769.231 30.7024 772.838 Q30.7024 776.735 26.9666 779.634 Q23.1985 782.532 17.4014 782.532 M12.023 777.991 Q14.3419 778.442 17.4658 778.442 Q20.5576 778.442 22.8764 777.991 Q25.163 777.54 26.3546 776.896 Q27.5463 776.22 28.2548 775.318 Q28.9311 774.416 29.0921 773.869 Q29.2532 773.321 29.2532 772.774 Q29.2532 770.068 25.9038 768.007 Q22.5222 765.914 17.4014 765.914 Q12.3773 765.914 8.99569 768.007 Q5.58187 770.068 5.58187 772.774 Q5.58187 773.353 5.7429 773.933 Q5.90393 774.481 6.61246 775.35 Q7.28878 776.22 8.4804 776.896 Q9.67201 777.54 12.023 777.991 M43.9713 753.321 Q38.303 753.321 34.5027 750.423 Q30.7024 747.524 30.7024 743.627 Q30.7024 740.053 34.5671 737.573 Q38.4318 735.061 44.0357 735.061 Q49.5751 735.061 53.4398 737.541 Q57.3045 739.988 57.3045 743.627 Q57.3045 747.524 53.5364 750.423 Q49.7683 753.321 43.9713 753.321 M38.5929 748.78 Q40.9439 749.231 44.0357 749.231 Q47.1274 749.231 49.4463 748.78 Q51.7651 748.297 52.9567 747.653 Q54.1161 746.977 54.7924 746.107 Q55.501 745.206 55.662 744.658 Q55.8552 744.078 55.8552 743.563 Q55.8552 740.858 52.5058 738.797 Q49.1242 736.703 43.9713 736.703 Q38.9471 736.703 35.5655 738.797 Q32.1517 740.858 32.1517 743.563 Q32.1517 744.143 32.3449 744.722 Q32.506 745.27 33.2145 746.14 Q33.8908 746.977 35.0824 747.653 Q36.2418 748.297 38.5929 748.78 Z" fill="#000000" fill-rule="evenodd" fill-opacity="1" /><path clip-path="url(#clip700)" d="M 0 0 M52.538 727.211 Q51.4752 728.145 50.0904 728.145 Q48.7055 728.145 47.6749 727.243 Q46.6121 726.309 46.6121 724.635 Q46.6121 722.67 48.5123 721.543 Q50.3802 720.416 53.5364 720.416 Q56.9502 720.416 60.1064 721.801 Q63.2948 723.186 64.8084 724.538 Q66.3221 725.891 66.3221 726.438 Q66.3221 727.082 65.6136 727.082 Q65.3559 727.082 64.8729 726.632 Q59.7843 721.897 53.5364 721.865 Q52.538 721.865 52.538 721.994 L52.6668 722.155 Q53.6008 723.282 53.6008 724.635 Q53.6008 726.277 52.538 727.211 Z" fill="#000000" fill-rule="evenodd" fill-opacity="1" /><path clip-path="url(#clip700)" d="M 0 0 M36.3063 665.011 Q39.5591 665.011 42.8118 666.686 Q46.0646 668.36 48.5767 671.098 Q51.0565 673.835 52.6668 677.571 Q54.2771 681.307 54.406 685.204 L64.2287 687.716 Q66.612 688.199 66.8696 688.457 Q67.1273 688.715 67.1273 689.101 Q67.1273 689.906 66.3865 689.906 Q66.1611 689.906 60.5895 688.457 L54.406 686.911 Q54.0839 692.773 50.7023 696.186 Q47.3207 699.6 42.4576 699.6 Q39.1726 699.6 35.9198 697.925 Q32.6348 696.219 30.1549 693.481 Q27.6751 690.711 26.097 686.975 Q24.5189 683.24 24.3901 679.407 L9.15672 675.575 Q8.28716 675.381 8.06172 675.22 Q7.83628 675.059 7.83628 674.576 Q7.83628 674.222 7.99731 674.029 Q8.15834 673.835 8.31937 673.835 L8.4804 673.803 L9.41437 673.996 L24.3901 677.7 Q24.6155 674.415 25.7749 671.871 Q26.9344 669.327 28.6735 667.877 Q30.3804 666.428 32.3127 665.72 Q34.2451 665.011 36.3063 665.011 M25.8394 679.794 Q26.1614 683.336 27.9005 686.331 Q29.6396 689.326 32.2161 691.259 Q34.7604 693.191 37.8199 694.254 Q40.8473 695.317 43.8424 695.317 Q46.1935 695.317 47.997 694.544 Q49.8005 693.739 50.8311 692.418 Q51.8295 691.098 52.377 689.649 Q52.8923 688.167 52.9567 686.589 L25.8394 679.794 M34.9214 669.327 Q30.7346 669.327 28.3836 671.742 Q26.0326 674.158 25.8394 678.087 L52.9567 684.882 Q52.7313 682.016 51.5396 679.504 Q50.3158 676.959 48.5123 675.124 Q46.6765 673.288 44.4221 671.968 Q42.1355 670.647 39.7201 670.003 Q37.2724 669.327 34.9214 669.327 Z" fill="#000000" fill-rule="evenodd" fill-opacity="1" /><path clip-path="url(#clip700)" d="M 0 0 M43.5848 642.381 Q42.7796 642.317 42.7796 641.061 L42.7796 600.643 Q42.7796 598.742 43.5204 598.71 Q44.3255 598.71 44.2933 600.514 L44.2933 640.61 Q44.3255 642.381 43.5848 642.381 M30.7024 642.381 Q29.8973 642.381 29.9295 640.997 L29.9295 600.707 Q29.9295 598.742 30.7024 598.71 Q31.4432 598.71 31.4432 600.385 L31.4432 641.061 Q31.4432 642.381 30.7024 642.381 Z" fill="#000000" fill-rule="evenodd" fill-opacity="1" /><path clip-path="url(#clip700)" d="M 0 0 M15.9522 573.264 L13.891 573.264 Q13.891 565.342 9.67201 561.252 Q9.67201 560.124 9.92966 559.931 Q10.1873 559.738 11.3789 559.738 L48.3835 559.738 Q50.348 559.738 50.9599 558.772 Q51.5718 557.806 51.5718 553.587 L51.5718 551.493 L53.6008 551.493 Q53.4076 553.812 53.4076 562.186 Q53.4076 570.559 53.6008 572.846 L51.5718 572.846 L51.5718 570.752 Q51.5718 566.598 50.9921 565.599 Q50.3802 564.601 48.3835 564.601 L14.213 564.601 Q15.9522 568.047 15.9522 573.264 Z" fill="#000000" fill-rule="evenodd" fill-opacity="1" /><path clip-path="url(#clip700)" d="M 0 0 M52.538 546.352 Q51.4752 547.35 50.0904 547.35 Q48.7055 547.35 47.7071 546.352 Q46.6765 545.354 46.6765 543.84 Q46.6765 542.391 47.6427 541.425 Q48.5767 540.426 50.1226 540.426 Q51.6363 540.426 52.6346 541.489 Q53.6008 542.52 53.6008 543.84 Q53.6008 545.354 52.538 546.352 Z" fill="#000000" fill-rule="evenodd" fill-opacity="1" /><path clip-path="url(#clip700)" d="M 0 0 M53.6008 529.2 Q52.4092 529.2 52.0549 529.104 Q51.7007 528.975 51.1532 528.459 L37.047 515.803 Q29.2532 508.878 22.4577 508.878 Q18.0455 508.878 14.8894 511.197 Q11.7332 513.484 11.7332 517.703 Q11.7332 520.601 13.5045 523.049 Q15.2758 525.496 18.432 526.624 Q18.3676 526.43 18.3676 525.754 Q18.3676 524.112 19.3982 523.21 Q20.4288 522.276 21.8136 522.276 Q23.5849 522.276 24.4545 523.435 Q25.2919 524.563 25.2919 525.69 Q25.2919 526.141 25.1952 526.753 Q25.0986 527.332 24.1969 528.266 Q23.2629 529.2 21.6204 529.2 Q17.015 529.2 13.3435 525.722 Q9.67201 522.211 9.67201 516.865 Q9.67201 510.811 13.2791 506.849 Q16.8539 502.856 22.4577 502.856 Q24.4223 502.856 26.2258 503.468 Q27.9971 504.047 29.382 504.853 Q30.7669 505.625 32.9891 507.751 Q35.2113 509.877 36.7893 511.584 Q38.3674 513.29 41.7168 517.123 L48.5123 524.112 L48.5123 512.228 Q48.5123 506.431 47.997 505.98 Q47.063 505.336 42.1355 504.53 L42.1355 502.856 L53.6008 504.724 L53.6008 529.2 Z" fill="#000000" fill-rule="evenodd" fill-opacity="1" /><path clip-path="url(#clip700)" d="M 0 0 M42.9729 496.536 Q41.0083 496.536 40.2676 495.473 Q39.4946 494.411 39.4946 493.283 Q39.4946 491.77 40.4608 490.9 Q41.3948 489.998 42.7152 489.998 Q44.0357 489.998 45.0018 490.9 Q45.9358 491.77 45.9358 493.283 Q45.9358 494.024 45.807 494.411 Q48.8343 493.541 51.0243 490.9 Q53.2143 488.227 53.2143 484.717 Q53.2143 480.304 48.931 477.663 Q46.1613 476.085 39.8811 476.085 Q34.3417 476.085 31.572 477.277 Q27.353 479.113 27.353 482.881 Q27.353 488.227 31.9585 491.383 Q32.5382 491.77 32.5704 492.221 Q32.5704 492.865 32.2161 493.026 Q31.8296 493.154 30.8313 493.154 L11.3145 493.154 Q9.73643 493.154 9.73643 492.51 Q9.73643 492.253 9.92966 491.705 Q11.7654 487.551 11.7976 482.945 Q11.7976 478.211 9.86525 473.96 Q9.67201 473.638 9.67201 473.444 Q9.67201 472.8 10.4127 472.768 Q10.6704 472.768 11.4433 473.316 Q12.1841 473.831 13.1825 474.958 Q14.1486 476.085 15.0826 477.535 Q16.0166 478.984 16.6607 481.109 Q17.2726 483.203 17.2726 485.522 Q17.2726 488.291 16.403 491.126 L29.2532 491.126 Q25.9038 487.712 25.9038 482.752 Q25.9038 477.47 30.1549 473.831 Q34.4061 470.192 40.332 470.192 Q46.5477 470.192 50.7989 474.507 Q55.0501 478.791 55.0501 484.588 Q55.0501 489.869 51.282 493.219 Q47.5139 496.536 42.9729 496.536 Z" fill="#000000" fill-rule="evenodd" fill-opacity="1" /><path clip-path="url(#clip700)" d="M 0 0 M66.5305 463.418 Q66.2229 463.418 65.454 462.618 Q55.1194 452.468 35.6497 452.468 Q16.1186 452.468 6.24536 462.218 Q5.10732 463.418 4.76899 463.418 Q4.15383 463.418 4.15383 462.803 Q4.15383 462.372 5.4149 460.865 Q6.67597 459.327 9.56719 457.02 Q12.4584 454.683 15.9956 452.96 Q24.577 448.808 35.6497 448.808 Q46.2919 448.808 54.8733 452.776 Q58.472 454.467 61.4862 456.836 Q64.5005 459.204 65.8231 460.773 Q67.1456 462.341 67.1456 462.803 Q67.1456 463.418 66.5305 463.418 Z" fill="#000000" fill-rule="evenodd" fill-opacity="1" /><polyline clip-path="url(#clip703)" style="stroke:#0000ff; stroke-width:4; stroke-opacity:1; fill:none" points="
  309.624,1400.09 484.353,398.08 659.083,1378.78 833.813,1393.74 1008.54,1396.53 1183.27,1397.53 1358,1398.01 1532.73,1398.29 1707.46,1398.46 1882.19,1398.58 
  
  "/>
<polyline clip-path="url(#clip703)" style="stroke:#ff0000; stroke-width:4; stroke-opacity:1; fill:none" points="
  309.624,1400.1 484.353,86.6476 659.083,1346.58 833.813,1381.76 1008.54,1389.06 1183.27,1391.83 1358,1393.21 1532.73,1394.03 1707.46,1394.56 1882.19,1394.93 
  
  "/>
<path clip-path="url(#clip700)" d="
M1999.04 252.413 L2352.76 252.413 L2352.76 93.6527 L1999.04 93.6527  Z
  " fill="#ffffff" fill-rule="evenodd" fill-opacity="1"/>
<polyline clip-path="url(#clip700)" style="stroke:#000000; stroke-width:4; stroke-opacity:1; fill:none" points="
  1999.04,252.413 2352.76,252.413 2352.76,93.6527 1999.04,93.6527 1999.04,252.413 
  "/>
<polyline clip-path="url(#clip700)" style="stroke:#0000ff; stroke-width:3.5; stroke-opacity:1; fill:none" points="
  2022.27,146.573 2161.62,146.573 
  "/>
<path clip-path="url(#clip700)" d="M 0 0 M2213.4 132.681 Q2213.4 133.07 2213.32 133.398 L2212.17 140.694 Q2212.11 141.247 2211.99 141.452 Q2211.88 141.657 2211.55 141.657 Q2211.04 141.657 2211.04 141.124 Q2211.04 140.817 2211.17 140.325 Q2211.51 138.009 2211.51 136.964 Q2211.51 136.267 2211.37 135.755 Q2211.25 135.222 2211.04 134.853 Q2210.86 134.484 2210.43 134.238 Q2210 133.992 2209.59 133.849 Q2209.18 133.705 2208.44 133.644 Q2207.7 133.562 2207.07 133.541 Q2206.43 133.521 2205.39 133.521 Q2203.11 133.521 2202.74 133.603 Q2202.35 133.705 2202.15 134.013 Q2201.96 134.3 2201.76 135.16 L2196.18 157.438 L2196.02 158.319 Q2196.02 158.811 2196.33 158.975 Q2196.63 159.139 2197.58 159.242 Q2198.93 159.344 2200.26 159.344 Q2200.3 159.344 2200.39 159.344 Q2200.84 159.344 2201.02 159.365 Q2201.2 159.365 2201.39 159.406 Q2201.57 159.446 2201.61 159.549 Q2201.68 159.631 2201.68 159.795 Q2201.68 160.184 2201.51 160.389 Q2201.35 160.574 2201.18 160.615 Q2201.04 160.635 2200.75 160.635 Q2200.18 160.635 2198.95 160.594 Q2197.72 160.553 2197.11 160.553 L2193.62 160.512 L2190.06 160.553 Q2189.5 160.553 2188.33 160.594 Q2187.17 160.635 2186.61 160.635 Q2185.9 160.635 2185.9 160.123 Q2185.9 159.549 2186.16 159.446 Q2186.45 159.344 2187.66 159.344 Q2189.36 159.344 2190.28 159.262 Q2191.2 159.18 2191.7 158.893 Q2192.21 158.606 2192.35 158.319 Q2192.49 158.012 2192.66 157.315 L2198.29 134.914 Q2198.46 134.423 2198.46 134.033 Q2198.46 133.828 2198.4 133.746 Q2198.36 133.664 2198.09 133.603 Q2197.82 133.521 2197.27 133.521 L2195.63 133.521 Q2193.95 133.521 2192.9 133.603 Q2191.88 133.664 2190.9 133.972 Q2189.93 134.279 2189.36 134.709 Q2188.81 135.14 2188.19 136.021 Q2187.58 136.902 2187.13 137.968 Q2186.69 139.034 2186.08 140.776 Q2185.87 141.35 2185.75 141.514 Q2185.65 141.657 2185.36 141.657 Q2185.16 141.657 2184.99 141.534 Q2184.85 141.391 2184.85 141.206 Q2185.06 140.53 2185.1 140.448 L2187.62 133.049 Q2187.82 132.455 2188.01 132.353 Q2188.21 132.23 2188.97 132.23 L2212.25 132.23 Q2212.62 132.23 2212.74 132.23 Q2212.87 132.23 2213.07 132.271 Q2213.28 132.312 2213.34 132.414 Q2213.4 132.517 2213.4 132.681 Z" fill="#000000" fill-rule="evenodd" fill-opacity="1" /><path clip-path="url(#clip700)" d="M 0 0 M2220.77 154.261 Q2220.81 153.749 2221.61 153.749 L2247.33 153.749 Q2248.54 153.749 2248.56 154.22 Q2248.56 154.733 2247.41 154.712 L2221.89 154.712 Q2220.77 154.733 2220.77 154.261 M2220.77 146.064 Q2220.77 145.551 2221.65 145.572 L2247.29 145.572 Q2248.54 145.572 2248.56 146.064 Q2248.56 146.535 2247.49 146.535 L2221.61 146.535 Q2220.77 146.535 2220.77 146.064 Z" fill="#000000" fill-rule="evenodd" fill-opacity="1" /><path clip-path="url(#clip700)" d="M 0 0 M2264.74 136.677 L2264.74 135.365 Q2269.78 135.365 2272.39 132.681 Q2273.1 132.681 2273.23 132.844 Q2273.35 133.008 2273.35 133.767 L2273.35 157.315 Q2273.35 158.565 2273.96 158.955 Q2274.58 159.344 2277.26 159.344 L2278.6 159.344 L2278.6 160.635 Q2277.12 160.512 2271.79 160.512 Q2266.46 160.512 2265.01 160.635 L2265.01 159.344 L2266.34 159.344 Q2268.98 159.344 2269.62 158.975 Q2270.26 158.586 2270.26 157.315 L2270.26 135.57 Q2268.06 136.677 2264.74 136.677 Z" fill="#000000" fill-rule="evenodd" fill-opacity="1" /><polyline clip-path="url(#clip700)" style="stroke:#ff0000; stroke-width:3.5; stroke-opacity:1; fill:none" points="
  2022.27,199.493 2161.62,199.493 
  "/>
<path clip-path="url(#clip700)" d="M 0 0 M2213.4 185.147 Q2213.4 185.537 2213.32 185.865 L2212.17 193.161 Q2212.11 193.714 2211.99 193.919 Q2211.88 194.124 2211.55 194.124 Q2211.04 194.124 2211.04 193.591 Q2211.04 193.284 2211.17 192.792 Q2211.51 190.476 2211.51 189.431 Q2211.51 188.734 2211.37 188.222 Q2211.25 187.689 2211.04 187.32 Q2210.86 186.951 2210.43 186.705 Q2210 186.459 2209.59 186.316 Q2209.18 186.172 2208.44 186.111 Q2207.7 186.029 2207.07 186.008 Q2206.43 185.988 2205.39 185.988 Q2203.11 185.988 2202.74 186.07 Q2202.35 186.172 2202.15 186.48 Q2201.96 186.766 2201.76 187.627 L2196.18 209.905 L2196.02 210.786 Q2196.02 211.278 2196.33 211.442 Q2196.63 211.606 2197.58 211.708 Q2198.93 211.811 2200.26 211.811 Q2200.3 211.811 2200.39 211.811 Q2200.84 211.811 2201.02 211.831 Q2201.2 211.831 2201.39 211.872 Q2201.57 211.913 2201.61 212.016 Q2201.68 212.098 2201.68 212.262 Q2201.68 212.651 2201.51 212.856 Q2201.35 213.041 2201.18 213.082 Q2201.04 213.102 2200.75 213.102 Q2200.18 213.102 2198.95 213.061 Q2197.72 213.02 2197.11 213.02 L2193.62 212.979 L2190.06 213.02 Q2189.5 213.02 2188.33 213.061 Q2187.17 213.102 2186.61 213.102 Q2185.9 213.102 2185.9 212.59 Q2185.9 212.016 2186.16 211.913 Q2186.45 211.811 2187.66 211.811 Q2189.36 211.811 2190.28 211.729 Q2191.2 211.647 2191.7 211.36 Q2192.21 211.073 2192.35 210.786 Q2192.49 210.479 2192.66 209.782 L2198.29 187.381 Q2198.46 186.889 2198.46 186.5 Q2198.46 186.295 2198.4 186.213 Q2198.36 186.131 2198.09 186.07 Q2197.82 185.988 2197.27 185.988 L2195.63 185.988 Q2193.95 185.988 2192.9 186.07 Q2191.88 186.131 2190.9 186.439 Q2189.93 186.746 2189.36 187.176 Q2188.81 187.607 2188.19 188.488 Q2187.58 189.369 2187.13 190.435 Q2186.69 191.501 2186.08 193.243 Q2185.87 193.817 2185.75 193.981 Q2185.65 194.124 2185.36 194.124 Q2185.16 194.124 2184.99 194.001 Q2184.85 193.858 2184.85 193.673 Q2185.06 192.997 2185.1 192.915 L2187.62 185.516 Q2187.82 184.922 2188.01 184.819 Q2188.21 184.696 2188.97 184.696 L2212.25 184.696 Q2212.62 184.696 2212.74 184.696 Q2212.87 184.696 2213.07 184.737 Q2213.28 184.778 2213.34 184.881 Q2213.4 184.983 2213.4 185.147 Z" fill="#000000" fill-rule="evenodd" fill-opacity="1" /><path clip-path="url(#clip700)" d="M 0 0 M2220.77 206.728 Q2220.81 206.216 2221.61 206.216 L2247.33 206.216 Q2248.54 206.216 2248.56 206.687 Q2248.56 207.2 2247.41 207.179 L2221.89 207.179 Q2220.77 207.2 2220.77 206.728 M2220.77 198.53 Q2220.77 198.018 2221.65 198.039 L2247.29 198.039 Q2248.54 198.039 2248.56 198.53 Q2248.56 199.002 2247.49 199.002 L2221.61 199.002 Q2220.77 199.002 2220.77 198.53 Z" fill="#000000" fill-rule="evenodd" fill-opacity="1" /><path clip-path="url(#clip700)" d="M 0 0 M2264.74 207.446 Q2264.74 206.195 2265.46 205.601 Q2266.18 205.007 2267.1 205.007 Q2268.06 205.007 2268.74 205.642 Q2269.44 206.257 2269.44 207.343 Q2269.44 208.511 2268.62 209.167 Q2267.82 209.823 2266.67 209.659 Q2267.67 211.34 2269.52 212.098 Q2271.38 212.856 2273.1 212.856 Q2274.91 212.856 2276.36 211.299 Q2277.84 209.741 2277.84 205.929 Q2277.84 202.691 2276.57 200.826 Q2275.32 198.961 2272.84 198.961 L2270.99 198.961 Q2270.36 198.961 2270.17 198.899 Q2269.99 198.838 2269.99 198.489 Q2269.99 198.079 2270.62 197.998 Q2271.26 197.998 2272.26 197.875 Q2274.7 197.793 2275.99 195.682 Q2277.16 193.714 2277.16 190.906 Q2277.16 188.345 2275.93 187.279 Q2274.72 186.193 2273.14 186.193 Q2271.67 186.193 2270.05 186.807 Q2268.43 187.422 2267.55 188.795 Q2270.15 188.795 2270.15 190.906 Q2270.15 191.829 2269.56 192.443 Q2268.98 193.038 2268.02 193.038 Q2267.1 193.038 2266.48 192.464 Q2265.87 191.87 2265.87 190.865 Q2265.87 188.468 2268 186.807 Q2270.15 185.147 2273.31 185.147 Q2276.42 185.147 2278.72 186.787 Q2281.04 188.427 2281.04 190.947 Q2281.04 193.427 2279.4 195.456 Q2277.76 197.485 2275.15 198.325 Q2278.35 198.961 2280.26 201.133 Q2282.16 203.285 2282.16 205.929 Q2282.16 209.208 2279.58 211.626 Q2277 214.024 2273.23 214.024 Q2269.74 214.024 2267.24 212.139 Q2264.74 210.253 2264.74 207.446 Z" fill="#000000" fill-rule="evenodd" fill-opacity="1" /><path clip-path="url(#clip700)" d="M 0 0 M2285.52 199.678 Q2285.52 193.509 2287.08 190.148 Q2289.25 185.147 2294.38 185.147 Q2295.46 185.147 2296.59 185.455 Q2297.74 185.742 2299.17 186.869 Q2300.63 187.996 2301.51 189.841 Q2303.19 193.407 2303.19 199.678 Q2303.19 205.806 2301.63 209.147 Q2299.36 214.024 2294.34 214.024 Q2292.45 214.024 2290.52 213.061 Q2288.62 212.098 2287.41 209.782 Q2285.52 206.318 2285.52 199.678 M2289.01 199.166 Q2289.01 205.499 2289.46 208.019 Q2289.97 210.745 2291.36 211.934 Q2292.78 213.102 2294.34 213.102 Q2296.02 213.102 2297.41 211.852 Q2298.82 210.581 2299.25 207.855 Q2299.73 205.171 2299.71 199.166 Q2299.71 193.325 2299.3 190.988 Q2298.74 188.263 2297.27 187.176 Q2295.81 186.07 2294.34 186.07 Q2293.78 186.07 2293.19 186.234 Q2292.61 186.398 2291.77 186.869 Q2290.93 187.34 2290.28 188.508 Q2289.64 189.677 2289.34 191.439 Q2289.01 193.714 2289.01 199.166 Z" fill="#000000" fill-rule="evenodd" fill-opacity="1" /></svg>
